<?xml version="1.0" encoding="utf-8" standalone="no"?>
<!DOCTYPE svg PUBLIC "-//W3C//DTD SVG 1.1//EN"
  "http://www.w3.org/Graphics/SVG/1.1/DTD/svg11.dtd">
<!-- Created with matplotlib (https://matplotlib.org/) -->
<svg height="388.844525pt" version="1.1" viewBox="0 0 1000.098125 388.844525" width="1000.098125pt" xmlns="http://www.w3.org/2000/svg" xmlns:xlink="http://www.w3.org/1999/xlink">
 <defs>
  <style type="text/css">
*{stroke-linecap:butt;stroke-linejoin:round;}
  </style>
 </defs>
 <g id="figure_1">
  <g id="patch_1">
   <path d="M 0 388.844525 
L 1000.098125 388.844525 
L 1000.098125 0 
L 0 0 
z
" style="fill:#ffffff;"/>
  </g>
  <g id="axes_1">
   <g id="patch_2">
    <path d="M 58.418125 353.2239 
L 985.263125 353.2239 
L 985.263125 35.2559 
L 58.418125 35.2559 
z
" style="fill:#ffffff;"/>
   </g>
   <g id="matplotlib.axis_1">
    <g id="xtick_1">
     <g id="text_1">
      <!-- 0 -->
      <defs>
       <path d="M 31.78125 66.40625 
Q 24.171875 66.40625 20.328125 58.90625 
Q 16.5 51.421875 16.5 36.375 
Q 16.5 21.390625 20.328125 13.890625 
Q 24.171875 6.390625 31.78125 6.390625 
Q 39.453125 6.390625 43.28125 13.890625 
Q 47.125 21.390625 47.125 36.375 
Q 47.125 51.421875 43.28125 58.90625 
Q 39.453125 66.40625 31.78125 66.40625 
z
M 31.78125 74.21875 
Q 44.046875 74.21875 50.515625 64.515625 
Q 56.984375 54.828125 56.984375 36.375 
Q 56.984375 17.96875 50.515625 8.265625 
Q 44.046875 -1.421875 31.78125 -1.421875 
Q 19.53125 -1.421875 13.0625 8.265625 
Q 6.59375 17.96875 6.59375 36.375 
Q 6.59375 54.828125 13.0625 64.515625 
Q 19.53125 74.21875 31.78125 74.21875 
z
" id="DejaVuSans-48"/>
      </defs>
      <g transform="translate(55.873125 366.30265)scale(0.08 -0.08)">
       <use xlink:href="#DejaVuSans-48"/>
      </g>
     </g>
    </g>
    <g id="xtick_2">
     <g id="text_2">
      <!-- 20 -->
      <defs>
       <path d="M 19.1875 8.296875 
L 53.609375 8.296875 
L 53.609375 0 
L 7.328125 0 
L 7.328125 8.296875 
Q 12.9375 14.109375 22.625 23.890625 
Q 32.328125 33.6875 34.8125 36.53125 
Q 39.546875 41.84375 41.421875 45.53125 
Q 43.3125 49.21875 43.3125 52.78125 
Q 43.3125 58.59375 39.234375 62.25 
Q 35.15625 65.921875 28.609375 65.921875 
Q 23.96875 65.921875 18.8125 64.3125 
Q 13.671875 62.703125 7.8125 59.421875 
L 7.8125 69.390625 
Q 13.765625 71.78125 18.9375 73 
Q 24.125 74.21875 28.421875 74.21875 
Q 39.75 74.21875 46.484375 68.546875 
Q 53.21875 62.890625 53.21875 53.421875 
Q 53.21875 48.921875 51.53125 44.890625 
Q 49.859375 40.875 45.40625 35.40625 
Q 44.1875 33.984375 37.640625 27.21875 
Q 31.109375 20.453125 19.1875 8.296875 
z
" id="DejaVuSans-50"/>
      </defs>
      <g transform="translate(238.697125 366.30265)scale(0.08 -0.08)">
       <use xlink:href="#DejaVuSans-50"/>
       <use x="63.623047" xlink:href="#DejaVuSans-48"/>
      </g>
     </g>
    </g>
    <g id="xtick_3">
     <g id="text_3">
      <!-- 40 -->
      <defs>
       <path d="M 37.796875 64.3125 
L 12.890625 25.390625 
L 37.796875 25.390625 
z
M 35.203125 72.90625 
L 47.609375 72.90625 
L 47.609375 25.390625 
L 58.015625 25.390625 
L 58.015625 17.1875 
L 47.609375 17.1875 
L 47.609375 0 
L 37.796875 0 
L 37.796875 17.1875 
L 4.890625 17.1875 
L 4.890625 26.703125 
z
" id="DejaVuSans-52"/>
      </defs>
      <g transform="translate(424.066125 366.30265)scale(0.08 -0.08)">
       <use xlink:href="#DejaVuSans-52"/>
       <use x="63.623047" xlink:href="#DejaVuSans-48"/>
      </g>
     </g>
    </g>
    <g id="xtick_4">
     <g id="text_4">
      <!-- 60 -->
      <defs>
       <path d="M 33.015625 40.375 
Q 26.375 40.375 22.484375 35.828125 
Q 18.609375 31.296875 18.609375 23.390625 
Q 18.609375 15.53125 22.484375 10.953125 
Q 26.375 6.390625 33.015625 6.390625 
Q 39.65625 6.390625 43.53125 10.953125 
Q 47.40625 15.53125 47.40625 23.390625 
Q 47.40625 31.296875 43.53125 35.828125 
Q 39.65625 40.375 33.015625 40.375 
z
M 52.59375 71.296875 
L 52.59375 62.3125 
Q 48.875 64.0625 45.09375 64.984375 
Q 41.3125 65.921875 37.59375 65.921875 
Q 27.828125 65.921875 22.671875 59.328125 
Q 17.53125 52.734375 16.796875 39.40625 
Q 19.671875 43.65625 24.015625 45.921875 
Q 28.375 48.1875 33.59375 48.1875 
Q 44.578125 48.1875 50.953125 41.515625 
Q 57.328125 34.859375 57.328125 23.390625 
Q 57.328125 12.15625 50.6875 5.359375 
Q 44.046875 -1.421875 33.015625 -1.421875 
Q 20.359375 -1.421875 13.671875 8.265625 
Q 6.984375 17.96875 6.984375 36.375 
Q 6.984375 53.65625 15.1875 63.9375 
Q 23.390625 74.21875 37.203125 74.21875 
Q 40.921875 74.21875 44.703125 73.484375 
Q 48.484375 72.75 52.59375 71.296875 
z
" id="DejaVuSans-54"/>
      </defs>
      <g transform="translate(609.435125 366.30265)scale(0.08 -0.08)">
       <use xlink:href="#DejaVuSans-54"/>
       <use x="63.623047" xlink:href="#DejaVuSans-48"/>
      </g>
     </g>
    </g>
    <g id="xtick_5">
     <g id="text_5">
      <!-- 80 -->
      <defs>
       <path d="M 31.78125 34.625 
Q 24.75 34.625 20.71875 30.859375 
Q 16.703125 27.09375 16.703125 20.515625 
Q 16.703125 13.921875 20.71875 10.15625 
Q 24.75 6.390625 31.78125 6.390625 
Q 38.8125 6.390625 42.859375 10.171875 
Q 46.921875 13.96875 46.921875 20.515625 
Q 46.921875 27.09375 42.890625 30.859375 
Q 38.875 34.625 31.78125 34.625 
z
M 21.921875 38.8125 
Q 15.578125 40.375 12.03125 44.71875 
Q 8.5 49.078125 8.5 55.328125 
Q 8.5 64.0625 14.71875 69.140625 
Q 20.953125 74.21875 31.78125 74.21875 
Q 42.671875 74.21875 48.875 69.140625 
Q 55.078125 64.0625 55.078125 55.328125 
Q 55.078125 49.078125 51.53125 44.71875 
Q 48 40.375 41.703125 38.8125 
Q 48.828125 37.15625 52.796875 32.3125 
Q 56.78125 27.484375 56.78125 20.515625 
Q 56.78125 9.90625 50.3125 4.234375 
Q 43.84375 -1.421875 31.78125 -1.421875 
Q 19.734375 -1.421875 13.25 4.234375 
Q 6.78125 9.90625 6.78125 20.515625 
Q 6.78125 27.484375 10.78125 32.3125 
Q 14.796875 37.15625 21.921875 38.8125 
z
M 18.3125 54.390625 
Q 18.3125 48.734375 21.84375 45.5625 
Q 25.390625 42.390625 31.78125 42.390625 
Q 38.140625 42.390625 41.71875 45.5625 
Q 45.3125 48.734375 45.3125 54.390625 
Q 45.3125 60.0625 41.71875 63.234375 
Q 38.140625 66.40625 31.78125 66.40625 
Q 25.390625 66.40625 21.84375 63.234375 
Q 18.3125 60.0625 18.3125 54.390625 
z
" id="DejaVuSans-56"/>
      </defs>
      <g transform="translate(794.804125 366.30265)scale(0.08 -0.08)">
       <use xlink:href="#DejaVuSans-56"/>
       <use x="63.623047" xlink:href="#DejaVuSans-48"/>
      </g>
     </g>
    </g>
    <g id="xtick_6">
     <g id="text_6">
      <!-- 100 -->
      <defs>
       <path d="M 12.40625 8.296875 
L 28.515625 8.296875 
L 28.515625 63.921875 
L 10.984375 60.40625 
L 10.984375 69.390625 
L 28.421875 72.90625 
L 38.28125 72.90625 
L 38.28125 8.296875 
L 54.390625 8.296875 
L 54.390625 0 
L 12.40625 0 
z
" id="DejaVuSans-49"/>
      </defs>
      <g transform="translate(977.628125 366.30265)scale(0.08 -0.08)">
       <use xlink:href="#DejaVuSans-49"/>
       <use x="63.623047" xlink:href="#DejaVuSans-48"/>
       <use x="127.246094" xlink:href="#DejaVuSans-48"/>
      </g>
     </g>
    </g>
    <g id="text_7">
     <!-- Percent of reads -->
     <defs>
      <path d="M 19.671875 64.796875 
L 19.671875 37.40625 
L 32.078125 37.40625 
Q 38.96875 37.40625 42.71875 40.96875 
Q 46.484375 44.53125 46.484375 51.125 
Q 46.484375 57.671875 42.71875 61.234375 
Q 38.96875 64.796875 32.078125 64.796875 
z
M 9.8125 72.90625 
L 32.078125 72.90625 
Q 44.34375 72.90625 50.609375 67.359375 
Q 56.890625 61.8125 56.890625 51.125 
Q 56.890625 40.328125 50.609375 34.8125 
Q 44.34375 29.296875 32.078125 29.296875 
L 19.671875 29.296875 
L 19.671875 0 
L 9.8125 0 
z
" id="DejaVuSans-80"/>
      <path d="M 56.203125 29.59375 
L 56.203125 25.203125 
L 14.890625 25.203125 
Q 15.484375 15.921875 20.484375 11.0625 
Q 25.484375 6.203125 34.421875 6.203125 
Q 39.59375 6.203125 44.453125 7.46875 
Q 49.3125 8.734375 54.109375 11.28125 
L 54.109375 2.78125 
Q 49.265625 0.734375 44.1875 -0.34375 
Q 39.109375 -1.421875 33.890625 -1.421875 
Q 20.796875 -1.421875 13.15625 6.1875 
Q 5.515625 13.8125 5.515625 26.8125 
Q 5.515625 40.234375 12.765625 48.109375 
Q 20.015625 56 32.328125 56 
Q 43.359375 56 49.78125 48.890625 
Q 56.203125 41.796875 56.203125 29.59375 
z
M 47.21875 32.234375 
Q 47.125 39.59375 43.09375 43.984375 
Q 39.0625 48.390625 32.421875 48.390625 
Q 24.90625 48.390625 20.390625 44.140625 
Q 15.875 39.890625 15.1875 32.171875 
z
" id="DejaVuSans-101"/>
      <path d="M 41.109375 46.296875 
Q 39.59375 47.171875 37.8125 47.578125 
Q 36.03125 48 33.890625 48 
Q 26.265625 48 22.1875 43.046875 
Q 18.109375 38.09375 18.109375 28.8125 
L 18.109375 0 
L 9.078125 0 
L 9.078125 54.6875 
L 18.109375 54.6875 
L 18.109375 46.1875 
Q 20.953125 51.171875 25.484375 53.578125 
Q 30.03125 56 36.53125 56 
Q 37.453125 56 38.578125 55.875 
Q 39.703125 55.765625 41.0625 55.515625 
z
" id="DejaVuSans-114"/>
      <path d="M 48.78125 52.59375 
L 48.78125 44.1875 
Q 44.96875 46.296875 41.140625 47.34375 
Q 37.3125 48.390625 33.40625 48.390625 
Q 24.65625 48.390625 19.8125 42.84375 
Q 14.984375 37.3125 14.984375 27.296875 
Q 14.984375 17.28125 19.8125 11.734375 
Q 24.65625 6.203125 33.40625 6.203125 
Q 37.3125 6.203125 41.140625 7.25 
Q 44.96875 8.296875 48.78125 10.40625 
L 48.78125 2.09375 
Q 45.015625 0.34375 40.984375 -0.53125 
Q 36.96875 -1.421875 32.421875 -1.421875 
Q 20.0625 -1.421875 12.78125 6.34375 
Q 5.515625 14.109375 5.515625 27.296875 
Q 5.515625 40.671875 12.859375 48.328125 
Q 20.21875 56 33.015625 56 
Q 37.15625 56 41.109375 55.140625 
Q 45.0625 54.296875 48.78125 52.59375 
z
" id="DejaVuSans-99"/>
      <path d="M 54.890625 33.015625 
L 54.890625 0 
L 45.90625 0 
L 45.90625 32.71875 
Q 45.90625 40.484375 42.875 44.328125 
Q 39.84375 48.1875 33.796875 48.1875 
Q 26.515625 48.1875 22.3125 43.546875 
Q 18.109375 38.921875 18.109375 30.90625 
L 18.109375 0 
L 9.078125 0 
L 9.078125 54.6875 
L 18.109375 54.6875 
L 18.109375 46.1875 
Q 21.34375 51.125 25.703125 53.5625 
Q 30.078125 56 35.796875 56 
Q 45.21875 56 50.046875 50.171875 
Q 54.890625 44.34375 54.890625 33.015625 
z
" id="DejaVuSans-110"/>
      <path d="M 18.3125 70.21875 
L 18.3125 54.6875 
L 36.8125 54.6875 
L 36.8125 47.703125 
L 18.3125 47.703125 
L 18.3125 18.015625 
Q 18.3125 11.328125 20.140625 9.421875 
Q 21.96875 7.515625 27.59375 7.515625 
L 36.8125 7.515625 
L 36.8125 0 
L 27.59375 0 
Q 17.1875 0 13.234375 3.875 
Q 9.28125 7.765625 9.28125 18.015625 
L 9.28125 47.703125 
L 2.6875 47.703125 
L 2.6875 54.6875 
L 9.28125 54.6875 
L 9.28125 70.21875 
z
" id="DejaVuSans-116"/>
      <path id="DejaVuSans-32"/>
      <path d="M 30.609375 48.390625 
Q 23.390625 48.390625 19.1875 42.75 
Q 14.984375 37.109375 14.984375 27.296875 
Q 14.984375 17.484375 19.15625 11.84375 
Q 23.34375 6.203125 30.609375 6.203125 
Q 37.796875 6.203125 41.984375 11.859375 
Q 46.1875 17.53125 46.1875 27.296875 
Q 46.1875 37.015625 41.984375 42.703125 
Q 37.796875 48.390625 30.609375 48.390625 
z
M 30.609375 56 
Q 42.328125 56 49.015625 48.375 
Q 55.71875 40.765625 55.71875 27.296875 
Q 55.71875 13.875 49.015625 6.21875 
Q 42.328125 -1.421875 30.609375 -1.421875 
Q 18.84375 -1.421875 12.171875 6.21875 
Q 5.515625 13.875 5.515625 27.296875 
Q 5.515625 40.765625 12.171875 48.375 
Q 18.84375 56 30.609375 56 
z
" id="DejaVuSans-111"/>
      <path d="M 37.109375 75.984375 
L 37.109375 68.5 
L 28.515625 68.5 
Q 23.6875 68.5 21.796875 66.546875 
Q 19.921875 64.59375 19.921875 59.515625 
L 19.921875 54.6875 
L 34.71875 54.6875 
L 34.71875 47.703125 
L 19.921875 47.703125 
L 19.921875 0 
L 10.890625 0 
L 10.890625 47.703125 
L 2.296875 47.703125 
L 2.296875 54.6875 
L 10.890625 54.6875 
L 10.890625 58.5 
Q 10.890625 67.625 15.140625 71.796875 
Q 19.390625 75.984375 28.609375 75.984375 
z
" id="DejaVuSans-102"/>
      <path d="M 34.28125 27.484375 
Q 23.390625 27.484375 19.1875 25 
Q 14.984375 22.515625 14.984375 16.5 
Q 14.984375 11.71875 18.140625 8.90625 
Q 21.296875 6.109375 26.703125 6.109375 
Q 34.1875 6.109375 38.703125 11.40625 
Q 43.21875 16.703125 43.21875 25.484375 
L 43.21875 27.484375 
z
M 52.203125 31.203125 
L 52.203125 0 
L 43.21875 0 
L 43.21875 8.296875 
Q 40.140625 3.328125 35.546875 0.953125 
Q 30.953125 -1.421875 24.3125 -1.421875 
Q 15.921875 -1.421875 10.953125 3.296875 
Q 6 8.015625 6 15.921875 
Q 6 25.140625 12.171875 29.828125 
Q 18.359375 34.515625 30.609375 34.515625 
L 43.21875 34.515625 
L 43.21875 35.40625 
Q 43.21875 41.609375 39.140625 45 
Q 35.0625 48.390625 27.6875 48.390625 
Q 23 48.390625 18.546875 47.265625 
Q 14.109375 46.140625 10.015625 43.890625 
L 10.015625 52.203125 
Q 14.9375 54.109375 19.578125 55.046875 
Q 24.21875 56 28.609375 56 
Q 40.484375 56 46.34375 49.84375 
Q 52.203125 43.703125 52.203125 31.203125 
z
" id="DejaVuSans-97"/>
      <path d="M 45.40625 46.390625 
L 45.40625 75.984375 
L 54.390625 75.984375 
L 54.390625 0 
L 45.40625 0 
L 45.40625 8.203125 
Q 42.578125 3.328125 38.25 0.953125 
Q 33.9375 -1.421875 27.875 -1.421875 
Q 17.96875 -1.421875 11.734375 6.484375 
Q 5.515625 14.40625 5.515625 27.296875 
Q 5.515625 40.1875 11.734375 48.09375 
Q 17.96875 56 27.875 56 
Q 33.9375 56 38.25 53.625 
Q 42.578125 51.265625 45.40625 46.390625 
z
M 14.796875 27.296875 
Q 14.796875 17.390625 18.875 11.75 
Q 22.953125 6.109375 30.078125 6.109375 
Q 37.203125 6.109375 41.296875 11.75 
Q 45.40625 17.390625 45.40625 27.296875 
Q 45.40625 37.203125 41.296875 42.84375 
Q 37.203125 48.484375 30.078125 48.484375 
Q 22.953125 48.484375 18.875 42.84375 
Q 14.796875 37.203125 14.796875 27.296875 
z
" id="DejaVuSans-100"/>
      <path d="M 44.28125 53.078125 
L 44.28125 44.578125 
Q 40.484375 46.53125 36.375 47.5 
Q 32.28125 48.484375 27.875 48.484375 
Q 21.1875 48.484375 17.84375 46.4375 
Q 14.5 44.390625 14.5 40.28125 
Q 14.5 37.15625 16.890625 35.375 
Q 19.28125 33.59375 26.515625 31.984375 
L 29.59375 31.296875 
Q 39.15625 29.25 43.1875 25.515625 
Q 47.21875 21.78125 47.21875 15.09375 
Q 47.21875 7.46875 41.1875 3.015625 
Q 35.15625 -1.421875 24.609375 -1.421875 
Q 20.21875 -1.421875 15.453125 -0.5625 
Q 10.6875 0.296875 5.421875 2 
L 5.421875 11.28125 
Q 10.40625 8.6875 15.234375 7.390625 
Q 20.0625 6.109375 24.8125 6.109375 
Q 31.15625 6.109375 34.5625 8.28125 
Q 37.984375 10.453125 37.984375 14.40625 
Q 37.984375 18.0625 35.515625 20.015625 
Q 33.0625 21.96875 24.703125 23.78125 
L 21.578125 24.515625 
Q 13.234375 26.265625 9.515625 29.90625 
Q 5.8125 33.546875 5.8125 39.890625 
Q 5.8125 47.609375 11.28125 51.796875 
Q 16.75 56 26.8125 56 
Q 31.78125 56 36.171875 55.265625 
Q 40.578125 54.546875 44.28125 53.078125 
z
" id="DejaVuSans-115"/>
     </defs>
     <g transform="translate(480.771875 379.564837)scale(0.1 -0.1)">
      <use xlink:href="#DejaVuSans-80"/>
      <use x="60.255859" xlink:href="#DejaVuSans-101"/>
      <use x="121.779297" xlink:href="#DejaVuSans-114"/>
      <use x="162.861328" xlink:href="#DejaVuSans-99"/>
      <use x="217.841797" xlink:href="#DejaVuSans-101"/>
      <use x="279.365234" xlink:href="#DejaVuSans-110"/>
      <use x="342.744141" xlink:href="#DejaVuSans-116"/>
      <use x="381.953125" xlink:href="#DejaVuSans-32"/>
      <use x="413.740234" xlink:href="#DejaVuSans-111"/>
      <use x="474.921875" xlink:href="#DejaVuSans-102"/>
      <use x="510.126953" xlink:href="#DejaVuSans-32"/>
      <use x="541.914062" xlink:href="#DejaVuSans-114"/>
      <use x="582.996094" xlink:href="#DejaVuSans-101"/>
      <use x="644.519531" xlink:href="#DejaVuSans-97"/>
      <use x="705.798828" xlink:href="#DejaVuSans-100"/>
      <use x="769.275391" xlink:href="#DejaVuSans-115"/>
     </g>
    </g>
   </g>
   <g id="matplotlib.axis_2">
    <g id="ytick_1">
     <g id="line2d_1">
      <path clip-path="url(#p98b86a52b1)" d="M 58.418125 353.2239 
L 985.263125 353.2239 
" style="fill:none;stroke:#dedede;stroke-linecap:square;"/>
     </g>
     <g id="text_8">
      <!-- 0 -->
      <g transform="translate(46.328125 356.263275)scale(0.08 -0.08)">
       <use xlink:href="#DejaVuSans-48"/>
      </g>
     </g>
    </g>
    <g id="ytick_2">
     <g id="line2d_2">
      <path clip-path="url(#p98b86a52b1)" d="M 58.418125 301.46167 
L 985.263125 301.46167 
" style="fill:none;stroke:#dedede;stroke-linecap:square;"/>
     </g>
     <g id="text_9">
      <!-- 20000 -->
      <g transform="translate(25.968125 304.501045)scale(0.08 -0.08)">
       <use xlink:href="#DejaVuSans-50"/>
       <use x="63.623047" xlink:href="#DejaVuSans-48"/>
       <use x="127.246094" xlink:href="#DejaVuSans-48"/>
       <use x="190.869141" xlink:href="#DejaVuSans-48"/>
       <use x="254.492188" xlink:href="#DejaVuSans-48"/>
      </g>
     </g>
    </g>
    <g id="ytick_3">
     <g id="line2d_3">
      <path clip-path="url(#p98b86a52b1)" d="M 58.418125 249.699441 
L 985.263125 249.699441 
" style="fill:none;stroke:#dedede;stroke-linecap:square;"/>
     </g>
     <g id="text_10">
      <!-- 40000 -->
      <g transform="translate(25.968125 252.738816)scale(0.08 -0.08)">
       <use xlink:href="#DejaVuSans-52"/>
       <use x="63.623047" xlink:href="#DejaVuSans-48"/>
       <use x="127.246094" xlink:href="#DejaVuSans-48"/>
       <use x="190.869141" xlink:href="#DejaVuSans-48"/>
       <use x="254.492188" xlink:href="#DejaVuSans-48"/>
      </g>
     </g>
    </g>
    <g id="ytick_4">
     <g id="line2d_4">
      <path clip-path="url(#p98b86a52b1)" d="M 58.418125 197.937211 
L 985.263125 197.937211 
" style="fill:none;stroke:#dedede;stroke-linecap:square;"/>
     </g>
     <g id="text_11">
      <!-- 60000 -->
      <g transform="translate(25.968125 200.976586)scale(0.08 -0.08)">
       <use xlink:href="#DejaVuSans-54"/>
       <use x="63.623047" xlink:href="#DejaVuSans-48"/>
       <use x="127.246094" xlink:href="#DejaVuSans-48"/>
       <use x="190.869141" xlink:href="#DejaVuSans-48"/>
       <use x="254.492188" xlink:href="#DejaVuSans-48"/>
      </g>
     </g>
    </g>
    <g id="ytick_5">
     <g id="line2d_5">
      <path clip-path="url(#p98b86a52b1)" d="M 58.418125 146.174982 
L 985.263125 146.174982 
" style="fill:none;stroke:#dedede;stroke-linecap:square;"/>
     </g>
     <g id="text_12">
      <!-- 80000 -->
      <g transform="translate(25.968125 149.214357)scale(0.08 -0.08)">
       <use xlink:href="#DejaVuSans-56"/>
       <use x="63.623047" xlink:href="#DejaVuSans-48"/>
       <use x="127.246094" xlink:href="#DejaVuSans-48"/>
       <use x="190.869141" xlink:href="#DejaVuSans-48"/>
       <use x="254.492188" xlink:href="#DejaVuSans-48"/>
      </g>
     </g>
    </g>
    <g id="ytick_6">
     <g id="line2d_6">
      <path clip-path="url(#p98b86a52b1)" d="M 58.418125 94.412752 
L 985.263125 94.412752 
" style="fill:none;stroke:#dedede;stroke-linecap:square;"/>
     </g>
     <g id="text_13">
      <!-- 100000 -->
      <g transform="translate(20.878125 97.452127)scale(0.08 -0.08)">
       <use xlink:href="#DejaVuSans-49"/>
       <use x="63.623047" xlink:href="#DejaVuSans-48"/>
       <use x="127.246094" xlink:href="#DejaVuSans-48"/>
       <use x="190.869141" xlink:href="#DejaVuSans-48"/>
       <use x="254.492188" xlink:href="#DejaVuSans-48"/>
       <use x="318.115234" xlink:href="#DejaVuSans-48"/>
      </g>
     </g>
    </g>
    <g id="ytick_7">
     <g id="line2d_7">
      <path clip-path="url(#p98b86a52b1)" d="M 58.418125 42.650523 
L 985.263125 42.650523 
" style="fill:none;stroke:#dedede;stroke-linecap:square;"/>
     </g>
     <g id="text_14">
      <!-- 120000 -->
      <g transform="translate(20.878125 45.689898)scale(0.08 -0.08)">
       <use xlink:href="#DejaVuSans-49"/>
       <use x="63.623047" xlink:href="#DejaVuSans-50"/>
       <use x="127.246094" xlink:href="#DejaVuSans-48"/>
       <use x="190.869141" xlink:href="#DejaVuSans-48"/>
       <use x="254.492188" xlink:href="#DejaVuSans-48"/>
       <use x="318.115234" xlink:href="#DejaVuSans-48"/>
      </g>
     </g>
    </g>
    <g id="text_15">
     <!-- Number of Junctions -->
     <defs>
      <path d="M 9.8125 72.90625 
L 23.09375 72.90625 
L 55.421875 11.921875 
L 55.421875 72.90625 
L 64.984375 72.90625 
L 64.984375 0 
L 51.703125 0 
L 19.390625 60.984375 
L 19.390625 0 
L 9.8125 0 
z
" id="DejaVuSans-78"/>
      <path d="M 8.5 21.578125 
L 8.5 54.6875 
L 17.484375 54.6875 
L 17.484375 21.921875 
Q 17.484375 14.15625 20.5 10.265625 
Q 23.53125 6.390625 29.59375 6.390625 
Q 36.859375 6.390625 41.078125 11.03125 
Q 45.3125 15.671875 45.3125 23.6875 
L 45.3125 54.6875 
L 54.296875 54.6875 
L 54.296875 0 
L 45.3125 0 
L 45.3125 8.40625 
Q 42.046875 3.421875 37.71875 1 
Q 33.40625 -1.421875 27.6875 -1.421875 
Q 18.265625 -1.421875 13.375 4.4375 
Q 8.5 10.296875 8.5 21.578125 
z
M 31.109375 56 
z
" id="DejaVuSans-117"/>
      <path d="M 52 44.1875 
Q 55.375 50.25 60.0625 53.125 
Q 64.75 56 71.09375 56 
Q 79.640625 56 84.28125 50.015625 
Q 88.921875 44.046875 88.921875 33.015625 
L 88.921875 0 
L 79.890625 0 
L 79.890625 32.71875 
Q 79.890625 40.578125 77.09375 44.375 
Q 74.3125 48.1875 68.609375 48.1875 
Q 61.625 48.1875 57.5625 43.546875 
Q 53.515625 38.921875 53.515625 30.90625 
L 53.515625 0 
L 44.484375 0 
L 44.484375 32.71875 
Q 44.484375 40.625 41.703125 44.40625 
Q 38.921875 48.1875 33.109375 48.1875 
Q 26.21875 48.1875 22.15625 43.53125 
Q 18.109375 38.875 18.109375 30.90625 
L 18.109375 0 
L 9.078125 0 
L 9.078125 54.6875 
L 18.109375 54.6875 
L 18.109375 46.1875 
Q 21.1875 51.21875 25.484375 53.609375 
Q 29.78125 56 35.6875 56 
Q 41.65625 56 45.828125 52.96875 
Q 50 49.953125 52 44.1875 
z
" id="DejaVuSans-109"/>
      <path d="M 48.6875 27.296875 
Q 48.6875 37.203125 44.609375 42.84375 
Q 40.53125 48.484375 33.40625 48.484375 
Q 26.265625 48.484375 22.1875 42.84375 
Q 18.109375 37.203125 18.109375 27.296875 
Q 18.109375 17.390625 22.1875 11.75 
Q 26.265625 6.109375 33.40625 6.109375 
Q 40.53125 6.109375 44.609375 11.75 
Q 48.6875 17.390625 48.6875 27.296875 
z
M 18.109375 46.390625 
Q 20.953125 51.265625 25.265625 53.625 
Q 29.59375 56 35.59375 56 
Q 45.5625 56 51.78125 48.09375 
Q 58.015625 40.1875 58.015625 27.296875 
Q 58.015625 14.40625 51.78125 6.484375 
Q 45.5625 -1.421875 35.59375 -1.421875 
Q 29.59375 -1.421875 25.265625 0.953125 
Q 20.953125 3.328125 18.109375 8.203125 
L 18.109375 0 
L 9.078125 0 
L 9.078125 75.984375 
L 18.109375 75.984375 
z
" id="DejaVuSans-98"/>
      <path d="M 9.8125 72.90625 
L 19.671875 72.90625 
L 19.671875 5.078125 
Q 19.671875 -8.109375 14.671875 -14.0625 
Q 9.671875 -20.015625 -1.421875 -20.015625 
L -5.171875 -20.015625 
L -5.171875 -11.71875 
L -2.09375 -11.71875 
Q 4.4375 -11.71875 7.125 -8.046875 
Q 9.8125 -4.390625 9.8125 5.078125 
z
" id="DejaVuSans-74"/>
      <path d="M 9.421875 54.6875 
L 18.40625 54.6875 
L 18.40625 0 
L 9.421875 0 
z
M 9.421875 75.984375 
L 18.40625 75.984375 
L 18.40625 64.59375 
L 9.421875 64.59375 
z
" id="DejaVuSans-105"/>
     </defs>
     <g transform="translate(14.798438 245.067244)rotate(-90)scale(0.1 -0.1)">
      <use xlink:href="#DejaVuSans-78"/>
      <use x="74.804688" xlink:href="#DejaVuSans-117"/>
      <use x="138.183594" xlink:href="#DejaVuSans-109"/>
      <use x="235.595703" xlink:href="#DejaVuSans-98"/>
      <use x="299.072266" xlink:href="#DejaVuSans-101"/>
      <use x="360.595703" xlink:href="#DejaVuSans-114"/>
      <use x="401.708984" xlink:href="#DejaVuSans-32"/>
      <use x="433.496094" xlink:href="#DejaVuSans-111"/>
      <use x="494.677734" xlink:href="#DejaVuSans-102"/>
      <use x="529.882812" xlink:href="#DejaVuSans-32"/>
      <use x="561.669922" xlink:href="#DejaVuSans-74"/>
      <use x="591.162109" xlink:href="#DejaVuSans-117"/>
      <use x="654.541016" xlink:href="#DejaVuSans-110"/>
      <use x="717.919922" xlink:href="#DejaVuSans-99"/>
      <use x="772.900391" xlink:href="#DejaVuSans-116"/>
      <use x="812.109375" xlink:href="#DejaVuSans-105"/>
      <use x="839.892578" xlink:href="#DejaVuSans-111"/>
      <use x="901.074219" xlink:href="#DejaVuSans-110"/>
      <use x="964.453125" xlink:href="#DejaVuSans-115"/>
     </g>
    </g>
   </g>
   <g id="line2d_8">
    <path clip-path="url(#p98b86a52b1)" d="M 104.760375 125.439033 
L 151.102625 96.892163 
L 197.444875 83.379633 
L 243.787125 74.846629 
L 290.129375 69.10361 
L 336.471625 64.768523 
L 382.813875 61.354804 
L 429.156125 58.704578 
L 475.498375 56.370102 
L 521.840625 54.545483 
L 568.182875 52.793332 
L 614.525125 51.393163 
L 660.867375 50.249218 
L 707.209625 49.211385 
L 753.551875 48.318487 
L 799.894125 47.542053 
L 846.236375 46.874321 
L 892.578625 46.317877 
L 938.920875 45.771785 
L 985.263125 45.399097 
" style="fill:none;stroke:#7cb5ec;stroke-linecap:square;"/>
   </g>
   <g id="line2d_9">
    <path clip-path="url(#p98b86a52b1)" d="M 104.760375 133.218896 
L 151.102625 103.111395 
L 197.444875 88.918192 
L 243.787125 80.266135 
L 290.129375 74.11937 
L 336.471625 69.463358 
L 382.813875 65.84259 
L 429.156125 62.84038 
L 475.498375 60.244505 
L 521.840625 58.197308 
L 568.182875 56.42704 
L 614.525125 54.89229 
L 660.867375 53.60341 
L 707.209625 52.389586 
L 753.551875 51.299991 
L 799.894125 50.303568 
L 846.236375 49.490901 
L 892.578625 48.900812 
L 938.920875 48.326251 
L 985.263125 47.857803 
" style="fill:none;stroke:#434348;stroke-linecap:square;"/>
   </g>
   <g id="line2d_10">
    <path clip-path="url(#p98b86a52b1)" d="M 104.760375 126.249112 
L 151.102625 97.228618 
L 197.444875 83.86361 
L 243.787125 75.009681 
L 290.129375 68.888797 
L 336.471625 64.287135 
L 382.813875 60.759539 
L 429.156125 57.819444 
L 475.498375 55.246861 
L 521.840625 53.199665 
L 568.182875 51.39834 
L 614.525125 49.848061 
L 660.867375 48.494478 
L 707.209625 47.306535 
L 753.551875 46.323053 
L 799.894125 45.47674 
L 846.236375 44.66925 
L 892.578625 44.032574 
L 938.920875 43.491659 
L 985.263125 43.012858 
" style="fill:none;stroke:#90ed7d;stroke-linecap:square;"/>
   </g>
   <g id="line2d_11">
    <path clip-path="url(#p98b86a52b1)" d="M 104.760375 119.874593 
L 151.102625 92.955645 
L 197.444875 79.991795 
L 243.787125 71.88583 
L 290.129375 66.062579 
L 336.471625 61.856898 
L 382.813875 58.445767 
L 429.156125 55.767072 
L 475.498375 53.422243 
L 521.840625 51.46563 
L 568.182875 49.68501 
L 614.525125 48.256372 
L 660.867375 47.003726 
L 707.209625 45.896015 
L 753.551875 44.969471 
L 799.894125 44.102453 
L 846.236375 43.390723 
L 892.578625 42.743695 
L 938.920875 42.290775 
L 985.263125 41.832679 
" style="fill:none;stroke:#f7a35c;stroke-linecap:square;"/>
   </g>
   <g id="line2d_12">
    <path clip-path="url(#p98b86a52b1)" d="M 104.760375 139.005913 
L 151.102625 107.130732 
L 197.444875 92.106745 
L 243.787125 82.577318 
L 290.129375 76.055278 
L 336.471625 70.951522 
L 382.813875 67.203936 
L 429.156125 63.888565 
L 475.498375 61.199518 
L 521.840625 58.958213 
L 568.182875 56.996425 
L 614.525125 55.428029 
L 660.867375 54.017508 
L 707.209625 52.847682 
L 753.551875 51.776204 
L 799.894125 50.797898 
L 846.236375 49.941233 
L 892.578625 49.263148 
L 938.920875 48.667882 
L 985.263125 48.220139 
" style="fill:none;stroke:#8085e9;stroke-linecap:square;"/>
   </g>
   <g id="line2d_13">
    <path clip-path="url(#p98b86a52b1)" d="M 104.760375 123.61959 
L 151.102625 95.673163 
L 197.444875 82.279686 
L 243.787125 73.870911 
L 290.129375 67.962253 
L 336.471625 63.324357 
L 382.813875 59.835583 
L 429.156125 56.900665 
L 475.498375 54.390196 
L 521.840625 52.275709 
L 568.182875 50.471796 
L 614.525125 49.100097 
L 660.867375 47.762043 
L 707.209625 46.620686 
L 753.551875 45.616498 
L 799.894125 44.759834 
L 846.236375 44.03775 
L 892.578625 43.429544 
L 938.920875 42.937803 
L 985.263125 42.557351 
" style="fill:none;stroke:#f15c80;stroke-linecap:square;"/>
   </g>
   <g id="line2d_14">
    <path clip-path="url(#p98b86a52b1)" d="M 104.760375 137.947375 
L 151.102625 106.796866 
L 197.444875 92.029102 
L 243.787125 82.489323 
L 290.129375 75.806819 
L 336.471625 70.917876 
L 382.813875 67.051238 
L 429.156125 63.818686 
L 475.498375 61.093405 
L 521.840625 58.800338 
L 568.182875 56.890312 
L 614.525125 55.272742 
L 660.867375 53.792343 
L 707.209625 52.539697 
L 753.551875 51.468219 
L 799.894125 50.564968 
L 846.236375 49.718655 
L 892.578625 48.996572 
L 938.920875 48.473774 
L 985.263125 48.051911 
" style="fill:none;stroke:#e4d354;stroke-linecap:square;"/>
   </g>
   <g id="line2d_15">
    <path clip-path="url(#p98b86a52b1)" d="M 104.760375 118.062915 
L 151.102625 91.816876 
L 197.444875 79.46382 
L 243.787125 71.779717 
L 290.129375 66.122106 
L 336.471625 61.965599 
L 382.813875 58.699402 
L 429.156125 55.914594 
L 475.498375 53.730228 
L 521.840625 51.78138 
L 568.182875 50.187103 
L 614.525125 48.851638 
L 660.867375 47.65593 
L 707.209625 46.708682 
L 753.551875 45.787314 
L 799.894125 44.969471 
L 846.236375 44.366441 
L 892.578625 43.693532 
L 938.920875 43.191438 
L 985.263125 42.743695 
" style="fill:none;stroke:#2b908f;stroke-linecap:square;"/>
   </g>
   <g id="line2d_16">
    <path clip-path="url(#p98b86a52b1)" d="M 104.760375 125.684903 
L 151.102625 98.155161 
L 197.444875 85.325893 
L 243.787125 77.238044 
L 290.129375 71.588197 
L 336.471625 67.250522 
L 382.813875 63.924799 
L 429.156125 61.315983 
L 475.498375 59.03068 
L 521.840625 57.286293 
L 568.182875 55.588492 
L 614.525125 54.232322 
L 660.867375 52.984852 
L 707.209625 51.786556 
L 753.551875 50.865189 
L 799.894125 50.031817 
L 846.236375 49.213973 
L 892.578625 48.572122 
L 938.920875 48.041559 
L 985.263125 47.567935 
" style="fill:none;stroke:#f45b5b;stroke-linecap:square;"/>
   </g>
   <g id="line2d_17">
    <path clip-path="url(#p98b86a52b1)" d="M 104.760375 134.963283 
L 151.102625 104.511563 
L 197.444875 90.7014 
L 243.787125 82.414267 
L 290.129375 76.308912 
L 336.471625 71.764189 
L 382.813875 68.158949 
L 429.156125 65.322379 
L 475.498375 63.016372 
L 521.840625 61.199518 
L 568.182875 59.517245 
L 614.525125 58.026493 
L 660.867375 56.79714 
L 707.209625 55.679076 
L 753.551875 54.760296 
L 799.894125 53.888103 
L 846.236375 53.238487 
L 892.578625 52.682043 
L 938.920875 52.120423 
L 985.263125 51.683032 
" style="fill:none;stroke:#91e8e1;stroke-linecap:square;"/>
   </g>
   <g id="line2d_18">
    <path clip-path="url(#p98b86a52b1)" d="M 104.760375 158.313225 
L 151.102625 124.398612 
L 197.444875 108.300558 
L 243.787125 98.838423 
L 290.129375 92.042042 
L 336.471625 86.977108 
L 382.813875 82.869775 
L 429.156125 79.849449 
L 475.498375 77.357098 
L 521.840625 75.185672 
L 568.182875 73.332584 
L 614.525125 71.753836 
L 660.867375 70.428723 
L 707.209625 69.328776 
L 753.551875 68.373763 
L 799.894125 67.501569 
L 846.236375 66.753605 
L 892.578625 66.101401 
L 938.920875 65.58119 
L 985.263125 65.177445 
" style="fill:none;stroke:#7cb5ec;stroke-linecap:square;"/>
   </g>
   <g id="line2d_19">
    <path clip-path="url(#p98b86a52b1)" d="M 104.760375 127.877034 
L 151.102625 99.081705 
L 197.444875 85.758107 
L 243.787125 77.569323 
L 290.129375 71.891006 
L 336.471625 67.643915 
L 382.813875 64.300075 
L 429.156125 61.618792 
L 475.498375 59.276551 
L 521.840625 57.20865 
L 568.182875 55.575551 
L 614.525125 54.123621 
L 660.867375 52.935678 
L 707.209625 51.83573 
L 753.551875 50.909186 
L 799.894125 50.212984 
L 846.236375 49.607366 
L 892.578625 49.004336 
L 938.920875 48.5333 
L 985.263125 48.178729 
" style="fill:none;stroke:#434348;stroke-linecap:square;"/>
   </g>
   <g id="line2d_20">
    <path clip-path="url(#p98b86a52b1)" d="M 104.760375 128.25231 
L 151.102625 97.870469 
L 197.444875 83.151879 
L 243.787125 74.611111 
L 290.129375 68.257298 
L 336.471625 63.458939 
L 382.813875 59.672532 
L 429.156125 56.698792 
L 475.498375 54.105504 
L 521.840625 51.95996 
L 568.182875 50.096519 
L 614.525125 48.504831 
L 660.867375 47.120191 
L 707.209625 45.800254 
L 753.551875 44.695131 
L 799.894125 43.79188 
L 846.236375 42.974037 
L 892.578625 42.218308 
L 938.920875 41.506577 
L 985.263125 41.115773 
" style="fill:none;stroke:#90ed7d;stroke-linecap:square;"/>
   </g>
   <g id="line2d_21">
    <path clip-path="url(#p98b86a52b1)" d="M 104.760375 130.286565 
L 151.102625 99.449217 
L 197.444875 84.909207 
L 243.787125 75.835288 
L 290.129375 69.365009 
L 336.471625 64.520065 
L 382.813875 60.769891 
L 429.156125 57.53734 
L 475.498375 55.120044 
L 521.840625 52.865799 
L 568.182875 51.030828 
L 614.525125 49.31491 
L 660.867375 47.956151 
L 707.209625 46.708682 
L 753.551875 45.678613 
L 799.894125 44.708071 
L 846.236375 43.851406 
L 892.578625 43.287198 
L 938.920875 42.658287 
L 985.263125 42.171722 
" style="fill:none;stroke:#f7a35c;stroke-linecap:square;"/>
   </g>
   <g id="line2d_22">
    <path clip-path="url(#p98b86a52b1)" d="M 104.760375 125.068933 
L 151.102625 95.815509 
L 197.444875 82.235688 
L 243.787125 73.650922 
L 290.129375 67.804378 
L 336.471625 63.21048 
L 382.813875 59.52501 
L 429.156125 56.535741 
L 475.498375 54.185736 
L 521.840625 52.024662 
L 568.182875 50.238866 
L 614.525125 48.750701 
L 660.867375 47.399707 
L 707.209625 46.21694 
L 753.551875 45.204989 
L 799.894125 44.239623 
L 846.236375 43.46319 
L 892.578625 42.808398 
L 938.920875 42.31148 
L 985.263125 41.824915 
" style="fill:none;stroke:#8085e9;stroke-linecap:square;"/>
   </g>
   <g id="line2d_23">
    <path clip-path="url(#p98b86a52b1)" d="M 104.760375 132.43211 
L 151.102625 103.709249 
L 197.444875 90.287303 
L 243.787125 82.067461 
L 290.129375 76.060454 
L 336.471625 71.712426 
L 382.813875 68.425525 
L 429.156125 65.785651 
L 475.498375 63.461527 
L 521.840625 61.445388 
L 568.182875 59.688061 
L 614.525125 58.293068 
L 660.867375 56.918781 
L 707.209625 55.912006 
L 753.551875 55.011343 
L 799.894125 54.203852 
L 846.236375 53.528355 
L 892.578625 52.930501 
L 938.920875 52.42582 
L 985.263125 52.060896 
" style="fill:none;stroke:#f15c80;stroke-linecap:square;"/>
   </g>
   <g id="line2d_24">
    <path clip-path="url(#p98b86a52b1)" d="M 104.760375 125.439033 
L 151.102625 98.584788 
L 197.444875 86.252437 
L 243.787125 78.495867 
L 290.129375 73.097066 
L 336.471625 69.023379 
L 382.813875 65.891764 
L 429.156125 63.308829 
L 475.498375 61.318571 
L 521.840625 59.532774 
L 568.182875 58.039434 
L 614.525125 56.799728 
L 660.867375 55.63249 
L 707.209625 54.638655 
L 753.551875 53.784578 
L 799.894125 53.12461 
L 846.236375 52.537109 
L 892.578625 52.073837 
L 938.920875 51.651974 
L 985.263125 51.307756 
" style="fill:none;stroke:#e4d354;stroke-linecap:square;"/>
   </g>
   <g id="line2d_25">
    <path clip-path="url(#p98b86a52b1)" d="M 104.760375 137.183883 
L 151.102625 107.03756 
L 197.444875 92.994467 
L 243.787125 84.267355 
L 290.129375 78.125767 
L 336.471625 73.645746 
L 382.813875 69.965451 
L 429.156125 66.955478 
L 475.498375 64.501948 
L 521.840625 62.364168 
L 568.182875 60.635309 
L 614.525125 59.139381 
L 660.867375 57.816856 
L 707.209625 56.691027 
L 753.551875 55.6739 
L 799.894125 54.786177 
L 846.236375 54.053742 
L 892.578625 53.468829 
L 938.920875 52.930501 
L 985.263125 52.485346 
" style="fill:none;stroke:#2b908f;stroke-linecap:square;"/>
   </g>
   <g id="line2d_26">
    <path clip-path="url(#p98b86a52b1)" d="M 104.760375 125.705608 
L 151.102625 98.121516 
L 197.444875 85.113668 
L 243.787125 77.225104 
L 290.129375 71.55714 
L 336.471625 67.28158 
L 382.813875 63.746219 
L 429.156125 61.013174 
L 475.498375 58.696814 
L 521.840625 56.667734 
L 568.182875 54.907819 
L 614.525125 53.313542 
L 660.867375 52.019486 
L 707.209625 50.966125 
L 753.551875 49.964526 
L 799.894125 49.074215 
L 846.236375 48.349544 
L 892.578625 47.824158 
L 938.920875 47.228892 
L 985.263125 46.809618 
" style="fill:none;stroke:#f45b5b;stroke-linecap:square;"/>
   </g>
   <g id="line2d_27">
    <path clip-path="url(#p98b86a52b1)" d="M 104.760375 131.717791 
L 151.102625 102.909522 
L 197.444875 89.780033 
L 243.787125 81.668891 
L 290.129375 75.850817 
L 336.471625 71.487261 
L 382.813875 68.055425 
L 429.156125 65.332732 
L 475.498375 62.897319 
L 521.840625 60.930354 
L 568.182875 59.258434 
L 614.525125 57.816856 
L 660.867375 56.520212 
L 707.209625 55.430617 
L 753.551875 54.568776 
L 799.894125 53.745757 
L 846.236375 52.98744 
L 892.578625 52.410291 
L 938.920875 51.965136 
L 985.263125 51.556214 
" style="fill:none;stroke:#91e8e1;stroke-linecap:square;"/>
   </g>
   <g id="line2d_28">
    <path clip-path="url(#p98b86a52b1)" d="M 104.760375 127.08766 
L 151.102625 99.752026 
L 197.444875 87.075456 
L 243.787125 79.17654 
L 290.129375 73.464578 
L 336.471625 69.082905 
L 382.813875 65.708008 
L 429.156125 62.990491 
L 475.498375 60.658602 
L 521.840625 58.823631 
L 568.182875 57.092185 
L 614.525125 55.622137 
L 660.867375 54.369491 
L 707.209625 53.310954 
L 753.551875 52.386998 
L 799.894125 51.512216 
L 846.236375 50.769428 
L 892.578625 50.137929 
L 938.920875 49.545252 
L 985.263125 49.087156 
" style="fill:none;stroke:#7cb5ec;stroke-linecap:square;"/>
   </g>
   <g id="line2d_29">
    <path clip-path="url(#p98b86a52b1)" d="M 104.760375 123.557476 
L 151.102625 96.410774 
L 197.444875 83.845493 
L 243.787125 75.910343 
L 290.129375 70.44684 
L 336.471625 66.003053 
L 382.813875 62.566041 
L 429.156125 59.646651 
L 475.498375 57.415699 
L 521.840625 55.534142 
L 568.182875 53.921748 
L 614.525125 52.423232 
L 660.867375 51.17835 
L 707.209625 50.117224 
L 753.551875 49.089744 
L 799.894125 48.331427 
L 846.236375 47.542053 
L 892.578625 46.869144 
L 938.920875 46.338582 
L 985.263125 45.901191 
" style="fill:none;stroke:#434348;stroke-linecap:square;"/>
   </g>
   <g id="line2d_30">
    <path clip-path="url(#p98b86a52b1)" d="M 104.760375 123.914635 
L 151.102625 97.15615 
L 197.444875 84.619338 
L 243.787125 76.90159 
L 290.129375 71.223273 
L 336.471625 66.87007 
L 382.813875 63.368355 
L 429.156125 60.599076 
L 475.498375 58.150722 
L 521.840625 56.155288 
L 568.182875 54.408313 
L 614.525125 52.961559 
L 660.867375 51.701149 
L 707.209625 50.678845 
L 753.551875 49.690186 
L 799.894125 48.872343 
L 846.236375 48.088145 
L 892.578625 47.446293 
L 938.920875 46.907966 
L 985.263125 46.431754 
" style="fill:none;stroke:#90ed7d;stroke-linecap:square;"/>
   </g>
   <g id="line2d_31">
    <path clip-path="url(#p98b86a52b1)" d="M 104.760375 131.893783 
L 151.102625 101.387713 
L 197.444875 86.79594 
L 243.787125 78.06624 
L 290.129375 71.883242 
L 336.471625 67.105588 
L 382.813875 63.474468 
L 429.156125 60.45673 
L 475.498375 57.92038 
L 521.840625 55.821422 
L 568.182875 54.017508 
L 614.525125 52.415467 
L 660.867375 50.989418 
L 707.209625 49.817003 
L 753.551875 48.794699 
L 799.894125 47.881096 
L 846.236375 47.073605 
L 892.578625 46.398108 
L 938.920875 45.826135 
L 985.263125 45.383568 
" style="fill:none;stroke:#f7a35c;stroke-linecap:square;"/>
   </g>
   <g id="line2d_32">
    <path clip-path="url(#p98b86a52b1)" d="M 104.760375 143.089953 
L 151.102625 110.93008 
L 197.444875 95.486819 
L 243.787125 86.164441 
L 290.129375 79.494878 
L 336.471625 74.445472 
L 382.813875 70.589186 
L 429.156125 67.403221 
L 475.498375 64.794405 
L 521.840625 62.664389 
L 568.182875 60.707776 
L 614.525125 59.152321 
L 660.867375 57.679686 
L 707.209625 56.419276 
L 753.551875 55.417677 
L 799.894125 54.506661 
L 846.236375 53.851869 
L 892.578625 53.204841 
L 938.920875 52.682043 
L 985.263125 52.242064 
" style="fill:none;stroke:#8085e9;stroke-linecap:square;"/>
   </g>
   <g id="line2d_33">
    <path clip-path="url(#p98b86a52b1)" d="M 104.760375 127.209301 
L 151.102625 97.443431 
L 197.444875 83.503862 
L 243.787125 74.76381 
L 290.129375 68.578223 
L 336.471625 63.823863 
L 382.813875 60.234152 
L 429.156125 57.143947 
L 475.498375 54.752532 
L 521.840625 52.689807 
L 568.182875 50.89107 
L 614.525125 49.374436 
L 660.867375 48.033795 
L 707.209625 46.933847 
L 753.551875 45.958129 
L 799.894125 45.10664 
L 846.236375 44.291385 
L 892.578625 43.621065 
L 938.920875 43.113795 
L 985.263125 42.62723 
" style="fill:none;stroke:#f15c80;stroke-linecap:square;"/>
   </g>
   <g id="line2d_34">
    <path clip-path="url(#p98b86a52b1)" d="M 104.760375 131.785082 
L 151.102625 102.909522 
L 197.444875 89.417697 
L 243.787125 81.109859 
L 290.129375 75.219318 
L 336.471625 70.599539 
L 382.813875 67.095236 
L 429.156125 64.155141 
L 475.498375 61.639497 
L 521.840625 59.532774 
L 568.182875 57.775446 
L 614.525125 56.207051 
L 660.867375 54.840528 
L 707.209625 53.673289 
L 753.551875 52.594047 
L 799.894125 51.773616 
L 846.236375 51.048944 
L 892.578625 50.484736 
L 938.920875 49.961938 
L 985.263125 49.537487 
" style="fill:none;stroke:#e4d354;stroke-linecap:square;"/>
   </g>
   <g id="line2d_35">
    <path clip-path="url(#p98b86a52b1)" d="M 104.760375 130.219275 
L 151.102625 101.806987 
L 197.444875 88.421274 
L 243.787125 80.087555 
L 290.129375 74.388534 
L 336.471625 69.934394 
L 382.813875 66.40421 
L 429.156125 63.440822 
L 475.498375 61.134815 
L 521.840625 59.01774 
L 568.182875 57.234531 
L 614.525125 55.723074 
L 660.867375 54.353963 
L 707.209625 53.153079 
L 753.551875 52.148892 
L 799.894125 51.325872 
L 846.236375 50.552027 
L 892.578625 49.904999 
L 938.920875 49.36926 
L 985.263125 48.931869 
" style="fill:none;stroke:#2b908f;stroke-linecap:square;"/>
   </g>
   <g id="line2d_36">
    <path clip-path="url(#p98b86a52b1)" d="M 104.760375 153.320758 
L 151.102625 119.887534 
L 197.444875 104.068996 
L 243.787125 94.26523 
L 290.129375 87.510259 
L 336.471625 82.238276 
L 382.813875 78.278465 
L 429.156125 75.159791 
L 475.498375 72.494036 
L 521.840625 70.39249 
L 568.182875 68.529049 
L 614.525125 66.955478 
L 660.867375 65.537193 
L 707.209625 64.240549 
L 753.551875 63.15613 
L 799.894125 62.314994 
L 846.236375 61.504915 
L 892.578625 60.865651 
L 938.920875 60.257445 
L 985.263125 59.835583 
" style="fill:none;stroke:#f45b5b;stroke-linecap:square;"/>
   </g>
   <g id="line2d_37">
    <path clip-path="url(#p98b86a52b1)" d="M 104.760375 138.265713 
L 151.102625 108.132331 
L 197.444875 93.931364 
L 243.787125 85.131784 
L 290.129375 78.86079 
L 336.471625 74.07796 
L 382.813875 70.382137 
L 429.156125 67.519686 
L 475.498375 65.045451 
L 521.840625 62.842968 
L 568.182875 61.134815 
L 614.525125 59.52501 
L 660.867375 58.166251 
L 707.209625 57.079244 
L 753.551875 56.00259 
L 799.894125 55.138161 
L 846.236375 54.320317 
L 892.578625 53.564589 
L 938.920875 52.982264 
L 985.263125 52.511227 
" style="fill:none;stroke:#91e8e1;stroke-linecap:square;"/>
   </g>
   <g id="line2d_38">
    <path clip-path="url(#p98b86a52b1)" d="M 104.760375 144.87575 
L 151.102625 113.932289 
L 197.444875 99.415572 
L 243.787125 90.691048 
L 290.129375 84.704746 
L 336.471625 79.981443 
L 382.813875 76.482316 
L 429.156125 73.588807 
L 475.498375 71.140454 
L 521.840625 69.124315 
L 568.182875 67.165115 
L 614.525125 65.661422 
L 660.867375 64.27937 
L 707.209625 63.127661 
L 753.551875 62.071711 
L 799.894125 61.191753 
L 846.236375 60.446377 
L 892.578625 59.817466 
L 938.920875 59.299844 
L 985.263125 58.867629 
" style="fill:none;stroke:#7cb5ec;stroke-linecap:square;"/>
   </g>
   <g id="line2d_39">
    <path clip-path="url(#p98b86a52b1)" d="M 104.760375 136.715434 
L 151.102625 110.138118 
L 197.444875 98.235393 
L 243.787125 91.358781 
L 290.129375 86.751942 
L 336.471625 83.229523 
L 382.813875 80.589649 
L 429.156125 78.503631 
L 475.498375 76.911942 
L 521.840625 75.449659 
L 568.182875 74.269481 
L 614.525125 73.267881 
L 660.867375 72.450038 
L 707.209625 71.668429 
L 753.551875 71.047282 
L 799.894125 70.498602 
L 846.236375 70.050859 
L 892.578625 69.66523 
L 938.920875 69.318423 
L 985.263125 68.987145 
" style="fill:none;stroke:#434348;stroke-linecap:square;"/>
   </g>
   <g id="line2d_40">
    <path clip-path="url(#p98b86a52b1)" d="M 104.760375 136.971657 
L 151.102625 107.811405 
L 197.444875 94.003831 
L 243.787125 85.910806 
L 290.129375 79.932269 
L 336.471625 75.478129 
L 382.813875 71.847008 
L 429.156125 68.899149 
L 475.498375 66.437855 
L 521.840625 64.439833 
L 568.182875 62.661801 
L 614.525125 61.064936 
L 660.867375 59.765704 
L 707.209625 58.513058 
L 753.551875 57.519223 
L 799.894125 56.615972 
L 846.236375 55.880949 
L 892.578625 55.205451 
L 938.920875 54.71371 
L 985.263125 54.278908 
" style="fill:none;stroke:#90ed7d;stroke-linecap:square;"/>
   </g>
   <g id="line2d_41">
    <path clip-path="url(#p98b86a52b1)" d="M 104.760375 139.66847 
L 151.102625 109.734372 
L 197.444875 95.41694 
L 243.787125 86.687239 
L 290.129375 80.543063 
L 336.471625 75.837876 
L 382.813875 72.162758 
L 429.156125 69.119139 
L 475.498375 66.590554 
L 521.840625 64.460538 
L 568.182875 62.674741 
L 614.525125 61.300454 
L 660.867375 59.983105 
L 707.209625 58.818455 
L 753.551875 57.858266 
L 799.894125 57.006777 
L 846.236375 56.19411 
L 892.578625 55.539318 
L 938.920875 55.013931 
L 985.263125 54.599833 
" style="fill:none;stroke:#f7a35c;stroke-linecap:square;"/>
   </g>
   <g id="line2d_42">
    <path clip-path="url(#p98b86a52b1)" d="M 104.760375 131.334751 
L 151.102625 101.387713 
L 197.444875 87.629312 
L 243.787125 79.189481 
L 290.129375 73.298939 
L 336.471625 68.805977 
L 382.813875 65.21109 
L 429.156125 62.37452 
L 475.498375 59.998634 
L 521.840625 57.762506 
L 568.182875 55.971532 
L 614.525125 54.511838 
L 660.867375 53.279897 
L 707.209625 52.146304 
L 753.551875 51.222348 
L 799.894125 50.357919 
L 846.236375 49.734184 
L 892.578625 49.128566 
L 938.920875 48.673058 
L 985.263125 48.308134 
" style="fill:none;stroke:#8085e9;stroke-linecap:square;"/>
   </g>
   <g id="line2d_43">
    <path clip-path="url(#p98b86a52b1)" d="M 104.760375 126.95049 
L 151.102625 98.395856 
L 197.444875 84.97391 
L 243.787125 76.676424 
L 290.129375 70.928229 
L 336.471625 66.58279 
L 382.813875 63.290712 
L 429.156125 60.42826 
L 475.498375 57.925557 
L 521.840625 55.981885 
L 568.182875 54.229733 
L 614.525125 52.692395 
L 660.867375 51.382811 
L 707.209625 50.28804 
L 753.551875 49.371848 
L 799.894125 48.559181 
L 846.236375 47.826746 
L 892.578625 47.270302 
L 938.920875 46.742327 
L 985.263125 46.333405 
" style="fill:none;stroke:#f15c80;stroke-linecap:square;"/>
   </g>
   <g id="line2d_44">
    <path clip-path="url(#p98b86a52b1)" d="M 104.760375 144.823988 
L 151.102625 112.004146 
L 197.444875 96.604883 
L 243.787125 87.140159 
L 290.129375 80.46542 
L 336.471625 75.488481 
L 382.813875 71.497613 
L 429.156125 68.166714 
L 475.498375 65.513899 
L 521.840625 63.352826 
L 568.182875 61.370333 
L 614.525125 59.809702 
L 660.867375 58.238718 
L 707.209625 56.965367 
L 753.551875 55.870596 
L 799.894125 54.923347 
L 846.236375 54.162443 
L 892.578625 53.502474 
L 938.920875 52.863211 
L 985.263125 52.462053 
" style="fill:none;stroke:#e4d354;stroke-linecap:square;"/>
   </g>
   <g id="line2d_45">
    <path clip-path="url(#p98b86a52b1)" d="M 104.760375 143.214182 
L 151.102625 110.60139 
L 197.444875 95.781863 
L 243.787125 86.498307 
L 290.129375 79.805451 
L 336.471625 74.812984 
L 382.813875 70.82988 
L 429.156125 67.542979 
L 475.498375 65.042863 
L 521.840625 62.824852 
L 568.182875 60.860475 
L 614.525125 59.139381 
L 660.867375 57.68745 
L 707.209625 56.434804 
L 753.551875 55.27533 
L 799.894125 54.20644 
L 846.236375 53.463652 
L 892.578625 52.75451 
L 938.920875 52.19289 
L 985.263125 51.68562 
" style="fill:none;stroke:#2b908f;stroke-linecap:square;"/>
   </g>
   <g id="line2d_46">
    <path clip-path="url(#p98b86a52b1)" d="M 104.760375 149.997622 
L 151.102625 117.017318 
L 197.444875 101.273836 
L 243.787125 91.638297 
L 290.129375 84.904031 
L 336.471625 79.805451 
L 382.813875 75.804231 
L 429.156125 72.53027 
L 475.498375 69.887808 
L 521.840625 67.566272 
L 568.182875 65.653658 
L 614.525125 63.966209 
L 660.867375 62.522043 
L 707.209625 61.225399 
L 753.551875 60.081454 
L 799.894125 59.160086 
L 846.236375 58.38624 
L 892.578625 57.682274 
L 938.920875 57.066304 
L 985.263125 56.515036 
" style="fill:none;stroke:#f45b5b;stroke-linecap:square;"/>
   </g>
   <g id="line2d_47">
    <path clip-path="url(#p98b86a52b1)" d="M 104.760375 136.938012 
L 151.102625 107.423189 
L 197.444875 93.688081 
L 243.787125 84.942852 
L 290.129375 78.834909 
L 336.471625 74.375593 
L 382.813875 70.643536 
L 429.156125 67.359223 
L 475.498375 64.918634 
L 521.840625 62.894731 
L 568.182875 61.108934 
L 614.525125 59.659591 
L 660.867375 58.399181 
L 707.209625 57.348408 
L 753.551875 56.362337 
L 799.894125 55.510849 
L 846.236375 54.814647 
L 892.578625 54.118445 
L 938.920875 53.618939 
L 985.263125 53.181548 
" style="fill:none;stroke:#91e8e1;stroke-linecap:square;"/>
   </g>
   <g id="line2d_48">
    <path clip-path="url(#p98b86a52b1)" d="M 104.760375 140.706302 
L 151.102625 109.86119 
L 197.444875 95.647281 
L 243.787125 86.539717 
L 290.129375 80.452479 
L 336.471625 75.656708 
L 382.813875 72.061822 
L 429.156125 69.292542 
L 475.498375 66.919244 
L 521.840625 64.760759 
L 568.182875 63.044841 
L 614.525125 61.541148 
L 660.867375 60.159097 
L 707.209625 59.123852 
L 753.551875 58.184368 
L 799.894125 57.379465 
L 846.236375 56.628913 
L 892.578625 55.968944 
L 938.920875 55.422853 
L 985.263125 55.07087 
" style="fill:none;stroke:#7cb5ec;stroke-linecap:square;"/>
   </g>
   <g id="line2d_49">
    <path clip-path="url(#p98b86a52b1)" d="M 104.760375 135.074572 
L 151.102625 105.391521 
L 197.444875 91.462305 
L 243.787125 82.654962 
L 290.129375 76.536666 
L 336.471625 72.079938 
L 382.813875 68.479875 
L 429.156125 65.480254 
L 475.498375 63.01896 
L 521.840625 61.152932 
L 568.182875 59.361959 
L 614.525125 57.876383 
L 660.867375 56.587503 
L 707.209625 55.428029 
L 753.551875 54.441959 
L 799.894125 53.662937 
L 846.236375 52.943442 
L 892.578625 52.345588 
L 938.920875 51.817614 
L 985.263125 51.372458 
" style="fill:none;stroke:#434348;stroke-linecap:square;"/>
   </g>
   <g id="line2d_50">
    <path clip-path="url(#p98b86a52b1)" d="M 104.760375 149.715518 
L 151.102625 117.410711 
L 197.444875 102.319433 
L 243.787125 93.501737 
L 290.129375 87.461085 
L 336.471625 83.043179 
L 382.813875 79.396529 
L 429.156125 76.415025 
L 475.498375 73.945967 
L 521.840625 71.800422 
L 568.182875 70.014625 
L 614.525125 68.503168 
L 660.867375 67.348871 
L 707.209625 66.285157 
L 753.551875 65.301674 
L 799.894125 64.468302 
L 846.236375 63.7721 
L 892.578625 63.205304 
L 938.920875 62.739444 
L 985.263125 62.335699 
" style="fill:none;stroke:#90ed7d;stroke-linecap:square;"/>
   </g>
   <g id="line2d_51">
    <path clip-path="url(#p98b86a52b1)" d="M 104.760375 141.254982 
L 151.102625 109.804251 
L 197.444875 95.403999 
L 243.787125 86.749354 
L 290.129375 80.444715 
L 336.471625 75.64118 
L 382.813875 72.222284 
L 429.156125 69.134667 
L 475.498375 66.670785 
L 521.840625 64.54077 
L 568.182875 62.765325 
L 614.525125 61.240927 
L 660.867375 59.998634 
L 707.209625 58.927156 
L 753.551875 57.886735 
L 799.894125 57.050775 
L 846.236375 56.339044 
L 892.578625 55.627314 
L 938.920875 55.117456 
L 985.263125 54.628303 
" style="fill:none;stroke:#f7a35c;stroke-linecap:square;"/>
   </g>
   <g id="line2d_52">
    <path clip-path="url(#p98b86a52b1)" d="M 104.760375 144.350363 
L 151.102625 115.456687 
L 197.444875 102.133089 
L 243.787125 94.314404 
L 290.129375 88.874194 
L 336.471625 84.937676 
L 382.813875 81.800885 
L 429.156125 79.414646 
L 475.498375 77.287219 
L 521.840625 75.646356 
L 568.182875 74.290186 
L 614.525125 73.076361 
L 660.867375 72.11876 
L 707.209625 71.308681 
L 753.551875 70.602127 
L 799.894125 69.918865 
L 846.236375 69.393479 
L 892.578625 68.906914 
L 938.920875 68.562695 
L 985.263125 68.25471 
" style="fill:none;stroke:#8085e9;stroke-linecap:square;"/>
   </g>
   <g id="line2d_53">
    <path clip-path="url(#p98b86a52b1)" d="M 104.760375 129.970816 
L 151.102625 103.251153 
L 197.444875 91.464893 
L 243.787125 84.158655 
L 290.129375 79.181716 
L 336.471625 75.509186 
L 382.813875 72.672616 
L 429.156125 70.250144 
L 475.498375 68.448818 
L 521.840625 66.826072 
L 568.182875 65.441432 
L 614.525125 64.4036 
L 660.867375 63.487408 
L 707.209625 62.659213 
L 753.551875 61.970775 
L 799.894125 61.284925 
L 846.236375 60.728481 
L 892.578625 60.288502 
L 938.920875 59.900286 
L 985.263125 59.654415 
" style="fill:none;stroke:#f15c80;stroke-linecap:square;"/>
   </g>
   <g id="line2d_54">
    <path clip-path="url(#p98b86a52b1)" d="M 104.760375 137.46081 
L 151.102625 106.395708 
L 197.444875 92.246503 
L 243.787125 83.58927 
L 290.129375 77.571911 
L 336.471625 73.055656 
L 382.813875 69.670407 
L 429.156125 66.826072 
L 475.498375 64.476067 
L 521.840625 62.478045 
L 568.182875 60.82683 
L 614.525125 59.325725 
L 660.867375 58.093784 
L 707.209625 57.110302 
L 753.551875 56.18117 
L 799.894125 55.435793 
L 846.236375 54.773237 
L 892.578625 54.201264 
L 938.920875 53.717287 
L 985.263125 53.329071 
" style="fill:none;stroke:#e4d354;stroke-linecap:square;"/>
   </g>
   <g id="line2d_55">
    <path clip-path="url(#p98b86a52b1)" d="M 104.760375 141.122988 
L 151.102625 108.43514 
L 197.444875 93.165283 
L 243.787125 83.987839 
L 290.129375 77.82037 
L 336.471625 72.895193 
L 382.813875 68.862916 
L 429.156125 65.75977 
L 475.498375 63.112132 
L 521.840625 60.917414 
L 568.182875 59.01774 
L 614.525125 57.521811 
L 660.867375 56.28987 
L 707.209625 54.985462 
L 753.551875 53.976099 
L 799.894125 53.075436 
L 846.236375 52.278297 
L 892.578625 51.576919 
L 938.920875 51.092942 
L 985.263125 50.673668 
" style="fill:none;stroke:#2b908f;stroke-linecap:square;"/>
   </g>
   <g id="line2d_56">
    <path clip-path="url(#p98b86a52b1)" d="M 104.760375 146.658959 
L 151.102625 112.594235 
L 197.444875 96.749817 
L 243.787125 86.97452 
L 290.129375 79.934857 
L 336.471625 74.750869 
L 382.813875 70.508955 
L 429.156125 67.232406 
L 475.498375 64.460538 
L 521.840625 62.157119 
L 568.182875 60.159097 
L 614.525125 58.352595 
L 660.867375 56.903253 
L 707.209625 55.598844 
L 753.551875 54.558424 
L 799.894125 53.574941 
L 846.236375 52.762274 
L 892.578625 52.058308 
L 938.920875 51.390575 
L 985.263125 50.906598 
" style="fill:none;stroke:#f45b5b;stroke-linecap:square;"/>
   </g>
   <g id="line2d_57">
    <path clip-path="url(#p98b86a52b1)" d="M 104.760375 152.355392 
L 151.102625 117.472826 
L 197.444875 101.139254 
L 243.787125 90.960212 
L 290.129375 83.902432 
L 336.471625 78.594215 
L 382.813875 74.580054 
L 429.156125 71.368208 
L 475.498375 68.759391 
L 521.840625 66.44562 
L 568.182875 64.393247 
L 614.525125 62.685094 
L 660.867375 61.233163 
L 707.209625 60.065925 
L 753.551875 58.971154 
L 799.894125 58.023905 
L 846.236375 57.242295 
L 892.578625 56.5228 
L 938.920875 55.852479 
L 985.263125 55.402148 
" style="fill:none;stroke:#91e8e1;stroke-linecap:square;"/>
   </g>
   <g id="line2d_58">
    <path clip-path="url(#p98b86a52b1)" d="M 104.760375 135.48867 
L 151.102625 105.619275 
L 197.444875 91.646061 
L 243.787125 82.859423 
L 290.129375 76.914531 
L 336.471625 72.377571 
L 382.813875 68.668807 
L 429.156125 65.604483 
L 475.498375 63.07331 
L 521.840625 60.93553 
L 568.182875 59.121264 
L 614.525125 57.457108 
L 660.867375 56.106114 
L 707.209625 54.832763 
L 753.551875 53.8234 
L 799.894125 52.902032 
L 846.236375 52.09713 
L 892.578625 51.406104 
L 938.920875 50.797898 
L 985.263125 50.321685 
" style="fill:none;stroke:#7cb5ec;stroke-linecap:square;"/>
   </g>
   <g id="line2d_59">
    <path clip-path="url(#p98b86a52b1)" d="M 104.760375 133.286187 
L 151.102625 103.603136 
L 197.444875 90.000022 
L 243.787125 81.873352 
L 290.129375 75.894815 
L 336.471625 71.634783 
L 382.813875 68.161538 
L 429.156125 65.446609 
L 475.498375 63.174247 
L 521.840625 61.235751 
L 568.182875 59.685472 
L 614.525125 58.269775 
L 660.867375 57.094773 
L 707.209625 56.012942 
L 753.551875 55.088986 
L 799.894125 54.291848 
L 846.236375 53.743169 
L 892.578625 53.204841 
L 938.920875 52.653574 
L 985.263125 52.236888 
" style="fill:none;stroke:#434348;stroke-linecap:square;"/>
   </g>
   <g id="line2d_60">
    <path clip-path="url(#p98b86a52b1)" d="M 104.760375 143.843093 
L 151.102625 112.291426 
L 197.444875 97.192384 
L 243.787125 88.082232 
L 290.129375 81.76724 
L 336.471625 76.968881 
L 382.813875 73.425756 
L 429.156125 70.402842 
L 475.498375 67.962253 
L 521.840625 65.806356 
L 568.182875 63.971385 
L 614.525125 62.431459 
L 660.867375 61.145167 
L 707.209625 60.006398 
L 753.551875 59.118676 
L 799.894125 58.249071 
L 846.236375 57.475225 
L 892.578625 56.898076 
L 938.920875 56.354573 
L 985.263125 55.968944 
" style="fill:none;stroke:#90ed7d;stroke-linecap:square;"/>
   </g>
   <g id="line2d_61">
    <path clip-path="url(#p98b86a52b1)" d="M 104.760375 132.281999 
L 151.102625 103.497024 
L 197.444875 89.829207 
L 243.787125 81.448902 
L 290.129375 75.716235 
L 336.471625 71.321622 
L 382.813875 67.866493 
L 429.156125 64.939339 
L 475.498375 62.488397 
L 521.840625 60.436025 
L 568.182875 58.745988 
L 614.525125 57.275941 
L 660.867375 56.028471 
L 707.209625 54.959581 
L 753.551875 53.968334 
L 799.894125 53.085788 
L 846.236375 52.363705 
L 892.578625 51.672679 
L 938.920875 51.217172 
L 985.263125 50.828955 
" style="fill:none;stroke:#f7a35c;stroke-linecap:square;"/>
   </g>
   <g id="line2d_62">
    <path clip-path="url(#p98b86a52b1)" d="M 104.760375 136.932836 
L 151.102625 108.590427 
L 197.444875 95.313415 
L 243.787125 87.378265 
L 290.129375 81.829354 
L 336.471625 77.613321 
L 382.813875 74.088313 
L 429.156125 71.33715 
L 475.498375 69.150196 
L 521.840625 67.216877 
L 568.182875 65.519076 
L 614.525125 63.948092 
L 660.867375 62.742032 
L 707.209625 61.727492 
L 753.551875 60.863063 
L 799.894125 60.09957 
L 846.236375 59.29208 
L 892.578625 58.727871 
L 938.920875 58.197308 
L 985.263125 57.718508 
" style="fill:none;stroke:#8085e9;stroke-linecap:square;"/>
   </g>
   <g id="line2d_63">
    <path clip-path="url(#p98b86a52b1)" d="M 104.760375 137.098475 
L 151.102625 109.50403 
L 197.444875 96.413362 
L 243.787125 88.27634 
L 290.129375 82.750722 
L 336.471625 78.226703 
L 382.813875 74.792279 
L 429.156125 72.082526 
L 475.498375 69.846398 
L 521.840625 67.931196 
L 568.182875 66.230806 
L 614.525125 64.683116 
L 660.867375 63.360591 
L 707.209625 62.294289 
L 753.551875 61.339276 
L 799.894125 60.503316 
L 846.236375 59.817466 
L 892.578625 59.201496 
L 938.920875 58.740812 
L 985.263125 58.306009 
" style="fill:none;stroke:#f15c80;stroke-linecap:square;"/>
   </g>
   <g id="line2d_64">
    <path clip-path="url(#p98b86a52b1)" d="M 104.760375 145.313141 
L 151.102625 115.389396 
L 197.444875 101.628407 
L 243.787125 93.729491 
L 290.129375 87.76907 
L 336.471625 83.421043 
L 382.813875 80.007324 
L 429.156125 77.183694 
L 475.498375 74.944978 
L 521.840625 73.03754 
L 568.182875 71.399265 
L 614.525125 69.973216 
L 660.867375 68.749039 
L 707.209625 67.66462 
L 753.551875 66.626787 
L 799.894125 65.935762 
L 846.236375 65.262853 
L 892.578625 64.727114 
L 938.920875 64.209491 
L 985.263125 63.805746 
" style="fill:none;stroke:#e4d354;stroke-linecap:square;"/>
   </g>
   <g id="line2d_65">
    <path clip-path="url(#p98b86a52b1)" d="M 104.760375 140.765829 
L 151.102625 111.789333 
L 197.444875 98.25351 
L 243.787125 89.792973 
L 290.129375 83.811848 
L 336.471625 79.50523 
L 382.813875 75.951753 
L 429.156125 73.172121 
L 475.498375 70.855762 
L 521.840625 68.868092 
L 568.182875 67.090059 
L 614.525125 65.630365 
L 660.867375 64.359602 
L 707.209625 63.213068 
L 753.551875 62.226998 
L 799.894125 61.34704 
L 846.236375 60.632721 
L 892.578625 60.00381 
L 938.920875 59.527598 
L 985.263125 59.079854 
" style="fill:none;stroke:#2b908f;stroke-linecap:square;"/>
   </g>
   <g id="line2d_66">
    <path clip-path="url(#p98b86a52b1)" d="M 104.760375 133.992741 
L 151.102625 102.57048 
L 197.444875 88.128818 
L 243.787125 79.184304 
L 290.129375 72.972837 
L 336.471625 68.316824 
L 382.813875 64.569239 
L 429.156125 61.414331 
L 475.498375 59.01774 
L 521.840625 56.939486 
L 568.182875 55.156277 
L 614.525125 53.704347 
L 660.867375 52.374058 
L 707.209625 51.258581 
L 753.551875 50.184515 
L 799.894125 49.296793 
L 846.236375 48.507419 
L 892.578625 47.927682 
L 938.920875 47.337593 
L 985.263125 46.895026 
" style="fill:none;stroke:#f45b5b;stroke-linecap:square;"/>
   </g>
   <g id="line2d_67">
    <path clip-path="url(#p98b86a52b1)" d="M 58.418125 353.2239 
L 985.263125 353.2239 
" style="fill:none;stroke:#dedede;stroke-linecap:square;stroke-width:2;"/>
   </g>
   <g id="text_16">
    <!-- RSeQC: Junction Saturation -->
    <defs>
     <path d="M 44.390625 34.1875 
Q 47.5625 33.109375 50.5625 29.59375 
Q 53.5625 26.078125 56.59375 19.921875 
L 66.609375 0 
L 56 0 
L 46.6875 18.703125 
Q 43.0625 26.03125 39.671875 28.421875 
Q 36.28125 30.8125 30.421875 30.8125 
L 19.671875 30.8125 
L 19.671875 0 
L 9.8125 0 
L 9.8125 72.90625 
L 32.078125 72.90625 
Q 44.578125 72.90625 50.734375 67.671875 
Q 56.890625 62.453125 56.890625 51.90625 
Q 56.890625 45.015625 53.6875 40.46875 
Q 50.484375 35.9375 44.390625 34.1875 
z
M 19.671875 64.796875 
L 19.671875 38.921875 
L 32.078125 38.921875 
Q 39.203125 38.921875 42.84375 42.21875 
Q 46.484375 45.515625 46.484375 51.90625 
Q 46.484375 58.296875 42.84375 61.546875 
Q 39.203125 64.796875 32.078125 64.796875 
z
" id="DejaVuSans-82"/>
     <path d="M 53.515625 70.515625 
L 53.515625 60.890625 
Q 47.90625 63.578125 42.921875 64.890625 
Q 37.9375 66.21875 33.296875 66.21875 
Q 25.25 66.21875 20.875 63.09375 
Q 16.5 59.96875 16.5 54.203125 
Q 16.5 49.359375 19.40625 46.890625 
Q 22.3125 44.4375 30.421875 42.921875 
L 36.375 41.703125 
Q 47.40625 39.59375 52.65625 34.296875 
Q 57.90625 29 57.90625 20.125 
Q 57.90625 9.515625 50.796875 4.046875 
Q 43.703125 -1.421875 29.984375 -1.421875 
Q 24.8125 -1.421875 18.96875 -0.25 
Q 13.140625 0.921875 6.890625 3.21875 
L 6.890625 13.375 
Q 12.890625 10.015625 18.65625 8.296875 
Q 24.421875 6.59375 29.984375 6.59375 
Q 38.421875 6.59375 43.015625 9.90625 
Q 47.609375 13.234375 47.609375 19.390625 
Q 47.609375 24.75 44.3125 27.78125 
Q 41.015625 30.8125 33.5 32.328125 
L 27.484375 33.5 
Q 16.453125 35.6875 11.515625 40.375 
Q 6.59375 45.0625 6.59375 53.421875 
Q 6.59375 63.09375 13.40625 68.65625 
Q 20.21875 74.21875 32.171875 74.21875 
Q 37.3125 74.21875 42.625 73.28125 
Q 47.953125 72.359375 53.515625 70.515625 
z
" id="DejaVuSans-83"/>
     <path d="M 39.40625 66.21875 
Q 28.65625 66.21875 22.328125 58.203125 
Q 16.015625 50.203125 16.015625 36.375 
Q 16.015625 22.609375 22.328125 14.59375 
Q 28.65625 6.59375 39.40625 6.59375 
Q 50.140625 6.59375 56.421875 14.59375 
Q 62.703125 22.609375 62.703125 36.375 
Q 62.703125 50.203125 56.421875 58.203125 
Q 50.140625 66.21875 39.40625 66.21875 
z
M 53.21875 1.3125 
L 66.21875 -12.890625 
L 54.296875 -12.890625 
L 43.5 -1.21875 
Q 41.890625 -1.3125 41.03125 -1.359375 
Q 40.1875 -1.421875 39.40625 -1.421875 
Q 24.03125 -1.421875 14.8125 8.859375 
Q 5.609375 19.140625 5.609375 36.375 
Q 5.609375 53.65625 14.8125 63.9375 
Q 24.03125 74.21875 39.40625 74.21875 
Q 54.734375 74.21875 63.90625 63.9375 
Q 73.09375 53.65625 73.09375 36.375 
Q 73.09375 23.6875 67.984375 14.640625 
Q 62.890625 5.609375 53.21875 1.3125 
z
" id="DejaVuSans-81"/>
     <path d="M 64.40625 67.28125 
L 64.40625 56.890625 
Q 59.421875 61.53125 53.78125 63.8125 
Q 48.140625 66.109375 41.796875 66.109375 
Q 29.296875 66.109375 22.65625 58.46875 
Q 16.015625 50.828125 16.015625 36.375 
Q 16.015625 21.96875 22.65625 14.328125 
Q 29.296875 6.6875 41.796875 6.6875 
Q 48.140625 6.6875 53.78125 8.984375 
Q 59.421875 11.28125 64.40625 15.921875 
L 64.40625 5.609375 
Q 59.234375 2.09375 53.4375 0.328125 
Q 47.65625 -1.421875 41.21875 -1.421875 
Q 24.65625 -1.421875 15.125 8.703125 
Q 5.609375 18.84375 5.609375 36.375 
Q 5.609375 53.953125 15.125 64.078125 
Q 24.65625 74.21875 41.21875 74.21875 
Q 47.75 74.21875 53.53125 72.484375 
Q 59.328125 70.75 64.40625 67.28125 
z
" id="DejaVuSans-67"/>
     <path d="M 11.71875 12.40625 
L 22.015625 12.40625 
L 22.015625 0 
L 11.71875 0 
z
M 11.71875 51.703125 
L 22.015625 51.703125 
L 22.015625 39.3125 
L 11.71875 39.3125 
z
" id="DejaVuSans-58"/>
    </defs>
    <g transform="translate(412.691875 19.3575)scale(0.16 -0.16)">
     <use xlink:href="#DejaVuSans-82"/>
     <use x="69.482422" xlink:href="#DejaVuSans-83"/>
     <use x="132.958984" xlink:href="#DejaVuSans-101"/>
     <use x="194.482422" xlink:href="#DejaVuSans-81"/>
     <use x="273.193359" xlink:href="#DejaVuSans-67"/>
     <use x="343.017578" xlink:href="#DejaVuSans-58"/>
     <use x="376.708984" xlink:href="#DejaVuSans-32"/>
     <use x="408.496094" xlink:href="#DejaVuSans-74"/>
     <use x="437.988281" xlink:href="#DejaVuSans-117"/>
     <use x="501.367188" xlink:href="#DejaVuSans-110"/>
     <use x="564.746094" xlink:href="#DejaVuSans-99"/>
     <use x="619.726562" xlink:href="#DejaVuSans-116"/>
     <use x="658.935547" xlink:href="#DejaVuSans-105"/>
     <use x="686.71875" xlink:href="#DejaVuSans-111"/>
     <use x="747.900391" xlink:href="#DejaVuSans-110"/>
     <use x="811.279297" xlink:href="#DejaVuSans-32"/>
     <use x="843.066406" xlink:href="#DejaVuSans-83"/>
     <use x="906.542969" xlink:href="#DejaVuSans-97"/>
     <use x="967.822266" xlink:href="#DejaVuSans-116"/>
     <use x="1007.03125" xlink:href="#DejaVuSans-117"/>
     <use x="1070.410156" xlink:href="#DejaVuSans-114"/>
     <use x="1111.523438" xlink:href="#DejaVuSans-97"/>
     <use x="1172.802734" xlink:href="#DejaVuSans-116"/>
     <use x="1212.011719" xlink:href="#DejaVuSans-105"/>
     <use x="1239.794922" xlink:href="#DejaVuSans-111"/>
     <use x="1300.976562" xlink:href="#DejaVuSans-110"/>
    </g>
   </g>
  </g>
 </g>
 <defs>
  <clipPath id="p98b86a52b1">
   <rect height="317.968" width="926.845" x="58.418125" y="35.2559"/>
  </clipPath>
 </defs>
</svg>
