<?xml version="1.0" encoding="utf-8" standalone="no"?>
<!DOCTYPE svg PUBLIC "-//W3C//DTD SVG 1.1//EN"
  "http://www.w3.org/Graphics/SVG/1.1/DTD/svg11.dtd">
<!-- Created with matplotlib (https://matplotlib.org/) -->
<svg height="388.844525pt" version="1.1" viewBox="0 0 1001.258125 388.844525" width="1001.258125pt" xmlns="http://www.w3.org/2000/svg" xmlns:xlink="http://www.w3.org/1999/xlink">
 <defs>
  <style type="text/css">
*{stroke-linecap:butt;stroke-linejoin:round;}
  </style>
 </defs>
 <g id="figure_1">
  <g id="patch_1">
   <path d="M 0 388.844525 
L 1001.258125 388.844525 
L 1001.258125 0 
L 0 0 
z
" style="fill:#ffffff;"/>
  </g>
  <g id="axes_1">
   <g id="patch_2">
    <path d="M 43.148125 353.2239 
L 990.558125 353.2239 
L 990.558125 35.2559 
L 43.148125 35.2559 
z
" style="fill:#ffffff;"/>
   </g>
   <g id="matplotlib.axis_1">
    <g id="xtick_1">
     <g id="text_1">
      <!-- 1.0 -->
      <defs>
       <path d="M 12.40625 8.296875 
L 28.515625 8.296875 
L 28.515625 63.921875 
L 10.984375 60.40625 
L 10.984375 69.390625 
L 28.421875 72.90625 
L 38.28125 72.90625 
L 38.28125 8.296875 
L 54.390625 8.296875 
L 54.390625 0 
L 12.40625 0 
z
" id="DejaVuSans-49"/>
       <path d="M 10.6875 12.40625 
L 21 12.40625 
L 21 0 
L 10.6875 0 
z
" id="DejaVuSans-46"/>
       <path d="M 31.78125 66.40625 
Q 24.171875 66.40625 20.328125 58.90625 
Q 16.5 51.421875 16.5 36.375 
Q 16.5 21.390625 20.328125 13.890625 
Q 24.171875 6.390625 31.78125 6.390625 
Q 39.453125 6.390625 43.28125 13.890625 
Q 47.125 21.390625 47.125 36.375 
Q 47.125 51.421875 43.28125 58.90625 
Q 39.453125 66.40625 31.78125 66.40625 
z
M 31.78125 74.21875 
Q 44.046875 74.21875 50.515625 64.515625 
Q 56.984375 54.828125 56.984375 36.375 
Q 56.984375 17.96875 50.515625 8.265625 
Q 44.046875 -1.421875 31.78125 -1.421875 
Q 19.53125 -1.421875 13.0625 8.265625 
Q 6.59375 17.96875 6.59375 36.375 
Q 6.59375 54.828125 13.0625 64.515625 
Q 19.53125 74.21875 31.78125 74.21875 
z
" id="DejaVuSans-48"/>
      </defs>
      <g transform="translate(79.850966 366.30265)scale(0.08 -0.08)">
       <use xlink:href="#DejaVuSans-49"/>
       <use x="63.623047" xlink:href="#DejaVuSans-46"/>
       <use x="95.410156" xlink:href="#DejaVuSans-48"/>
      </g>
     </g>
    </g>
    <g id="xtick_2">
     <g id="text_2">
      <!-- 2.0 -->
      <defs>
       <path d="M 19.1875 8.296875 
L 53.609375 8.296875 
L 53.609375 0 
L 7.328125 0 
L 7.328125 8.296875 
Q 12.9375 14.109375 22.625 23.890625 
Q 32.328125 33.6875 34.8125 36.53125 
Q 39.546875 41.84375 41.421875 45.53125 
Q 43.3125 49.21875 43.3125 52.78125 
Q 43.3125 58.59375 39.234375 62.25 
Q 35.15625 65.921875 28.609375 65.921875 
Q 23.96875 65.921875 18.8125 64.3125 
Q 13.671875 62.703125 7.8125 59.421875 
L 7.8125 69.390625 
Q 13.765625 71.78125 18.9375 73 
Q 24.125 74.21875 28.421875 74.21875 
Q 39.75 74.21875 46.484375 68.546875 
Q 53.21875 62.890625 53.21875 53.421875 
Q 53.21875 48.921875 51.53125 44.890625 
Q 49.859375 40.875 45.40625 35.40625 
Q 44.1875 33.984375 37.640625 27.21875 
Q 31.109375 20.453125 19.1875 8.296875 
z
" id="DejaVuSans-50"/>
      </defs>
      <g transform="translate(137.269754 366.30265)scale(0.08 -0.08)">
       <use xlink:href="#DejaVuSans-50"/>
       <use x="63.623047" xlink:href="#DejaVuSans-46"/>
       <use x="95.410156" xlink:href="#DejaVuSans-48"/>
      </g>
     </g>
    </g>
    <g id="xtick_3">
     <g id="text_3">
      <!-- 3.0 -->
      <defs>
       <path d="M 40.578125 39.3125 
Q 47.65625 37.796875 51.625 33 
Q 55.609375 28.21875 55.609375 21.1875 
Q 55.609375 10.40625 48.1875 4.484375 
Q 40.765625 -1.421875 27.09375 -1.421875 
Q 22.515625 -1.421875 17.65625 -0.515625 
Q 12.796875 0.390625 7.625 2.203125 
L 7.625 11.71875 
Q 11.71875 9.328125 16.59375 8.109375 
Q 21.484375 6.890625 26.8125 6.890625 
Q 36.078125 6.890625 40.9375 10.546875 
Q 45.796875 14.203125 45.796875 21.1875 
Q 45.796875 27.640625 41.28125 31.265625 
Q 36.765625 34.90625 28.71875 34.90625 
L 20.21875 34.90625 
L 20.21875 43.015625 
L 29.109375 43.015625 
Q 36.375 43.015625 40.234375 45.921875 
Q 44.09375 48.828125 44.09375 54.296875 
Q 44.09375 59.90625 40.109375 62.90625 
Q 36.140625 65.921875 28.71875 65.921875 
Q 24.65625 65.921875 20.015625 65.03125 
Q 15.375 64.15625 9.8125 62.3125 
L 9.8125 71.09375 
Q 15.4375 72.65625 20.34375 73.4375 
Q 25.25 74.21875 29.59375 74.21875 
Q 40.828125 74.21875 47.359375 69.109375 
Q 53.90625 64.015625 53.90625 55.328125 
Q 53.90625 49.265625 50.4375 45.09375 
Q 46.96875 40.921875 40.578125 39.3125 
z
" id="DejaVuSans-51"/>
      </defs>
      <g transform="translate(194.688542 366.30265)scale(0.08 -0.08)">
       <use xlink:href="#DejaVuSans-51"/>
       <use x="63.623047" xlink:href="#DejaVuSans-46"/>
       <use x="95.410156" xlink:href="#DejaVuSans-48"/>
      </g>
     </g>
    </g>
    <g id="xtick_4">
     <g id="text_4">
      <!-- 4.0 -->
      <defs>
       <path d="M 37.796875 64.3125 
L 12.890625 25.390625 
L 37.796875 25.390625 
z
M 35.203125 72.90625 
L 47.609375 72.90625 
L 47.609375 25.390625 
L 58.015625 25.390625 
L 58.015625 17.1875 
L 47.609375 17.1875 
L 47.609375 0 
L 37.796875 0 
L 37.796875 17.1875 
L 4.890625 17.1875 
L 4.890625 26.703125 
z
" id="DejaVuSans-52"/>
      </defs>
      <g transform="translate(252.10733 366.30265)scale(0.08 -0.08)">
       <use xlink:href="#DejaVuSans-52"/>
       <use x="63.623047" xlink:href="#DejaVuSans-46"/>
       <use x="95.410156" xlink:href="#DejaVuSans-48"/>
      </g>
     </g>
    </g>
    <g id="xtick_5">
     <g id="text_5">
      <!-- 5.0 -->
      <defs>
       <path d="M 10.796875 72.90625 
L 49.515625 72.90625 
L 49.515625 64.59375 
L 19.828125 64.59375 
L 19.828125 46.734375 
Q 21.96875 47.46875 24.109375 47.828125 
Q 26.265625 48.1875 28.421875 48.1875 
Q 40.625 48.1875 47.75 41.5 
Q 54.890625 34.8125 54.890625 23.390625 
Q 54.890625 11.625 47.5625 5.09375 
Q 40.234375 -1.421875 26.90625 -1.421875 
Q 22.3125 -1.421875 17.546875 -0.640625 
Q 12.796875 0.140625 7.71875 1.703125 
L 7.71875 11.625 
Q 12.109375 9.234375 16.796875 8.0625 
Q 21.484375 6.890625 26.703125 6.890625 
Q 35.15625 6.890625 40.078125 11.328125 
Q 45.015625 15.765625 45.015625 23.390625 
Q 45.015625 31 40.078125 35.4375 
Q 35.15625 39.890625 26.703125 39.890625 
Q 22.75 39.890625 18.8125 39.015625 
Q 14.890625 38.140625 10.796875 36.28125 
z
" id="DejaVuSans-53"/>
      </defs>
      <g transform="translate(309.526117 366.30265)scale(0.08 -0.08)">
       <use xlink:href="#DejaVuSans-53"/>
       <use x="63.623047" xlink:href="#DejaVuSans-46"/>
       <use x="95.410156" xlink:href="#DejaVuSans-48"/>
      </g>
     </g>
    </g>
    <g id="xtick_6">
     <g id="text_6">
      <!-- 6.0 -->
      <defs>
       <path d="M 33.015625 40.375 
Q 26.375 40.375 22.484375 35.828125 
Q 18.609375 31.296875 18.609375 23.390625 
Q 18.609375 15.53125 22.484375 10.953125 
Q 26.375 6.390625 33.015625 6.390625 
Q 39.65625 6.390625 43.53125 10.953125 
Q 47.40625 15.53125 47.40625 23.390625 
Q 47.40625 31.296875 43.53125 35.828125 
Q 39.65625 40.375 33.015625 40.375 
z
M 52.59375 71.296875 
L 52.59375 62.3125 
Q 48.875 64.0625 45.09375 64.984375 
Q 41.3125 65.921875 37.59375 65.921875 
Q 27.828125 65.921875 22.671875 59.328125 
Q 17.53125 52.734375 16.796875 39.40625 
Q 19.671875 43.65625 24.015625 45.921875 
Q 28.375 48.1875 33.59375 48.1875 
Q 44.578125 48.1875 50.953125 41.515625 
Q 57.328125 34.859375 57.328125 23.390625 
Q 57.328125 12.15625 50.6875 5.359375 
Q 44.046875 -1.421875 33.015625 -1.421875 
Q 20.359375 -1.421875 13.671875 8.265625 
Q 6.984375 17.96875 6.984375 36.375 
Q 6.984375 53.65625 15.1875 63.9375 
Q 23.390625 74.21875 37.203125 74.21875 
Q 40.921875 74.21875 44.703125 73.484375 
Q 48.484375 72.75 52.59375 71.296875 
z
" id="DejaVuSans-54"/>
      </defs>
      <g transform="translate(366.944905 366.30265)scale(0.08 -0.08)">
       <use xlink:href="#DejaVuSans-54"/>
       <use x="63.623047" xlink:href="#DejaVuSans-46"/>
       <use x="95.410156" xlink:href="#DejaVuSans-48"/>
      </g>
     </g>
    </g>
    <g id="xtick_7">
     <g id="text_7">
      <!-- 7.0 -->
      <defs>
       <path d="M 8.203125 72.90625 
L 55.078125 72.90625 
L 55.078125 68.703125 
L 28.609375 0 
L 18.3125 0 
L 43.21875 64.59375 
L 8.203125 64.59375 
z
" id="DejaVuSans-55"/>
      </defs>
      <g transform="translate(424.363693 366.30265)scale(0.08 -0.08)">
       <use xlink:href="#DejaVuSans-55"/>
       <use x="63.623047" xlink:href="#DejaVuSans-46"/>
       <use x="95.410156" xlink:href="#DejaVuSans-48"/>
      </g>
     </g>
    </g>
    <g id="xtick_8">
     <g id="text_8">
      <!-- 8.0 -->
      <defs>
       <path d="M 31.78125 34.625 
Q 24.75 34.625 20.71875 30.859375 
Q 16.703125 27.09375 16.703125 20.515625 
Q 16.703125 13.921875 20.71875 10.15625 
Q 24.75 6.390625 31.78125 6.390625 
Q 38.8125 6.390625 42.859375 10.171875 
Q 46.921875 13.96875 46.921875 20.515625 
Q 46.921875 27.09375 42.890625 30.859375 
Q 38.875 34.625 31.78125 34.625 
z
M 21.921875 38.8125 
Q 15.578125 40.375 12.03125 44.71875 
Q 8.5 49.078125 8.5 55.328125 
Q 8.5 64.0625 14.71875 69.140625 
Q 20.953125 74.21875 31.78125 74.21875 
Q 42.671875 74.21875 48.875 69.140625 
Q 55.078125 64.0625 55.078125 55.328125 
Q 55.078125 49.078125 51.53125 44.71875 
Q 48 40.375 41.703125 38.8125 
Q 48.828125 37.15625 52.796875 32.3125 
Q 56.78125 27.484375 56.78125 20.515625 
Q 56.78125 9.90625 50.3125 4.234375 
Q 43.84375 -1.421875 31.78125 -1.421875 
Q 19.734375 -1.421875 13.25 4.234375 
Q 6.78125 9.90625 6.78125 20.515625 
Q 6.78125 27.484375 10.78125 32.3125 
Q 14.796875 37.15625 21.921875 38.8125 
z
M 18.3125 54.390625 
Q 18.3125 48.734375 21.84375 45.5625 
Q 25.390625 42.390625 31.78125 42.390625 
Q 38.140625 42.390625 41.71875 45.5625 
Q 45.3125 48.734375 45.3125 54.390625 
Q 45.3125 60.0625 41.71875 63.234375 
Q 38.140625 66.40625 31.78125 66.40625 
Q 25.390625 66.40625 21.84375 63.234375 
Q 18.3125 60.0625 18.3125 54.390625 
z
" id="DejaVuSans-56"/>
      </defs>
      <g transform="translate(481.782481 366.30265)scale(0.08 -0.08)">
       <use xlink:href="#DejaVuSans-56"/>
       <use x="63.623047" xlink:href="#DejaVuSans-46"/>
       <use x="95.410156" xlink:href="#DejaVuSans-48"/>
      </g>
     </g>
    </g>
    <g id="xtick_9">
     <g id="text_9">
      <!-- 9.0 -->
      <defs>
       <path d="M 10.984375 1.515625 
L 10.984375 10.5 
Q 14.703125 8.734375 18.5 7.8125 
Q 22.3125 6.890625 25.984375 6.890625 
Q 35.75 6.890625 40.890625 13.453125 
Q 46.046875 20.015625 46.78125 33.40625 
Q 43.953125 29.203125 39.59375 26.953125 
Q 35.25 24.703125 29.984375 24.703125 
Q 19.046875 24.703125 12.671875 31.3125 
Q 6.296875 37.9375 6.296875 49.421875 
Q 6.296875 60.640625 12.9375 67.421875 
Q 19.578125 74.21875 30.609375 74.21875 
Q 43.265625 74.21875 49.921875 64.515625 
Q 56.59375 54.828125 56.59375 36.375 
Q 56.59375 19.140625 48.40625 8.859375 
Q 40.234375 -1.421875 26.421875 -1.421875 
Q 22.703125 -1.421875 18.890625 -0.6875 
Q 15.09375 0.046875 10.984375 1.515625 
z
M 30.609375 32.421875 
Q 37.25 32.421875 41.125 36.953125 
Q 45.015625 41.5 45.015625 49.421875 
Q 45.015625 57.28125 41.125 61.84375 
Q 37.25 66.40625 30.609375 66.40625 
Q 23.96875 66.40625 20.09375 61.84375 
Q 16.21875 57.28125 16.21875 49.421875 
Q 16.21875 41.5 20.09375 36.953125 
Q 23.96875 32.421875 30.609375 32.421875 
z
" id="DejaVuSans-57"/>
      </defs>
      <g transform="translate(539.201269 366.30265)scale(0.08 -0.08)">
       <use xlink:href="#DejaVuSans-57"/>
       <use x="63.623047" xlink:href="#DejaVuSans-46"/>
       <use x="95.410156" xlink:href="#DejaVuSans-48"/>
      </g>
     </g>
    </g>
    <g id="xtick_10">
     <g id="text_10">
      <!-- &gt;10 -->
      <defs>
       <path d="M 10.59375 49.21875 
L 10.59375 58.109375 
L 73.1875 35.40625 
L 73.1875 27.296875 
L 10.59375 4.59375 
L 10.59375 13.484375 
L 60.890625 31.296875 
z
" id="DejaVuSans-62"/>
      </defs>
      <g transform="translate(594.539432 366.30265)scale(0.08 -0.08)">
       <use xlink:href="#DejaVuSans-62"/>
       <use x="83.789062" xlink:href="#DejaVuSans-49"/>
       <use x="147.412109" xlink:href="#DejaVuSans-48"/>
      </g>
     </g>
    </g>
    <g id="xtick_11">
     <g id="text_11">
      <!-- &gt;50 -->
      <g transform="translate(651.95822 366.30265)scale(0.08 -0.08)">
       <use xlink:href="#DejaVuSans-62"/>
       <use x="83.789062" xlink:href="#DejaVuSans-53"/>
       <use x="147.412109" xlink:href="#DejaVuSans-48"/>
      </g>
     </g>
    </g>
    <g id="xtick_12">
     <g id="text_12">
      <!-- &gt;100 -->
      <g transform="translate(706.832008 366.30265)scale(0.08 -0.08)">
       <use xlink:href="#DejaVuSans-62"/>
       <use x="83.789062" xlink:href="#DejaVuSans-49"/>
       <use x="147.412109" xlink:href="#DejaVuSans-48"/>
       <use x="211.035156" xlink:href="#DejaVuSans-48"/>
      </g>
     </g>
    </g>
    <g id="xtick_13">
     <g id="text_13">
      <!-- &gt;500 -->
      <g transform="translate(764.250795 366.30265)scale(0.08 -0.08)">
       <use xlink:href="#DejaVuSans-62"/>
       <use x="83.789062" xlink:href="#DejaVuSans-53"/>
       <use x="147.412109" xlink:href="#DejaVuSans-48"/>
       <use x="211.035156" xlink:href="#DejaVuSans-48"/>
      </g>
     </g>
    </g>
    <g id="xtick_14">
     <g id="text_14">
      <!-- &gt;1k -->
      <defs>
       <path d="M 9.078125 75.984375 
L 18.109375 75.984375 
L 18.109375 31.109375 
L 44.921875 54.6875 
L 56.390625 54.6875 
L 27.390625 29.109375 
L 57.625 0 
L 45.90625 0 
L 18.109375 26.703125 
L 18.109375 0 
L 9.078125 0 
z
" id="DejaVuSans-107"/>
      </defs>
      <g transform="translate(824.443333 366.30265)scale(0.08 -0.08)">
       <use xlink:href="#DejaVuSans-62"/>
       <use x="83.789062" xlink:href="#DejaVuSans-49"/>
       <use x="147.412109" xlink:href="#DejaVuSans-107"/>
      </g>
     </g>
    </g>
    <g id="xtick_15">
     <g id="text_15">
      <!-- &gt;5k -->
      <g transform="translate(881.862121 366.30265)scale(0.08 -0.08)">
       <use xlink:href="#DejaVuSans-62"/>
       <use x="83.789062" xlink:href="#DejaVuSans-53"/>
       <use x="147.412109" xlink:href="#DejaVuSans-107"/>
      </g>
     </g>
    </g>
    <g id="xtick_16">
     <g id="text_16">
      <!-- &gt;10k+ -->
      <defs>
       <path d="M 46 62.703125 
L 46 35.5 
L 73.1875 35.5 
L 73.1875 27.203125 
L 46 27.203125 
L 46 0 
L 37.796875 0 
L 37.796875 27.203125 
L 10.59375 27.203125 
L 10.59375 35.5 
L 37.796875 35.5 
L 37.796875 62.703125 
z
" id="DejaVuSans-43"/>
      </defs>
      <g transform="translate(933.384034 366.30265)scale(0.08 -0.08)">
       <use xlink:href="#DejaVuSans-62"/>
       <use x="83.789062" xlink:href="#DejaVuSans-49"/>
       <use x="147.412109" xlink:href="#DejaVuSans-48"/>
       <use x="211.035156" xlink:href="#DejaVuSans-107"/>
       <use x="268.945312" xlink:href="#DejaVuSans-43"/>
      </g>
     </g>
    </g>
    <g id="text_17">
     <!-- Sequence Duplication Level -->
     <defs>
      <path d="M 53.515625 70.515625 
L 53.515625 60.890625 
Q 47.90625 63.578125 42.921875 64.890625 
Q 37.9375 66.21875 33.296875 66.21875 
Q 25.25 66.21875 20.875 63.09375 
Q 16.5 59.96875 16.5 54.203125 
Q 16.5 49.359375 19.40625 46.890625 
Q 22.3125 44.4375 30.421875 42.921875 
L 36.375 41.703125 
Q 47.40625 39.59375 52.65625 34.296875 
Q 57.90625 29 57.90625 20.125 
Q 57.90625 9.515625 50.796875 4.046875 
Q 43.703125 -1.421875 29.984375 -1.421875 
Q 24.8125 -1.421875 18.96875 -0.25 
Q 13.140625 0.921875 6.890625 3.21875 
L 6.890625 13.375 
Q 12.890625 10.015625 18.65625 8.296875 
Q 24.421875 6.59375 29.984375 6.59375 
Q 38.421875 6.59375 43.015625 9.90625 
Q 47.609375 13.234375 47.609375 19.390625 
Q 47.609375 24.75 44.3125 27.78125 
Q 41.015625 30.8125 33.5 32.328125 
L 27.484375 33.5 
Q 16.453125 35.6875 11.515625 40.375 
Q 6.59375 45.0625 6.59375 53.421875 
Q 6.59375 63.09375 13.40625 68.65625 
Q 20.21875 74.21875 32.171875 74.21875 
Q 37.3125 74.21875 42.625 73.28125 
Q 47.953125 72.359375 53.515625 70.515625 
z
" id="DejaVuSans-83"/>
      <path d="M 56.203125 29.59375 
L 56.203125 25.203125 
L 14.890625 25.203125 
Q 15.484375 15.921875 20.484375 11.0625 
Q 25.484375 6.203125 34.421875 6.203125 
Q 39.59375 6.203125 44.453125 7.46875 
Q 49.3125 8.734375 54.109375 11.28125 
L 54.109375 2.78125 
Q 49.265625 0.734375 44.1875 -0.34375 
Q 39.109375 -1.421875 33.890625 -1.421875 
Q 20.796875 -1.421875 13.15625 6.1875 
Q 5.515625 13.8125 5.515625 26.8125 
Q 5.515625 40.234375 12.765625 48.109375 
Q 20.015625 56 32.328125 56 
Q 43.359375 56 49.78125 48.890625 
Q 56.203125 41.796875 56.203125 29.59375 
z
M 47.21875 32.234375 
Q 47.125 39.59375 43.09375 43.984375 
Q 39.0625 48.390625 32.421875 48.390625 
Q 24.90625 48.390625 20.390625 44.140625 
Q 15.875 39.890625 15.1875 32.171875 
z
" id="DejaVuSans-101"/>
      <path d="M 14.796875 27.296875 
Q 14.796875 17.390625 18.875 11.75 
Q 22.953125 6.109375 30.078125 6.109375 
Q 37.203125 6.109375 41.296875 11.75 
Q 45.40625 17.390625 45.40625 27.296875 
Q 45.40625 37.203125 41.296875 42.84375 
Q 37.203125 48.484375 30.078125 48.484375 
Q 22.953125 48.484375 18.875 42.84375 
Q 14.796875 37.203125 14.796875 27.296875 
z
M 45.40625 8.203125 
Q 42.578125 3.328125 38.25 0.953125 
Q 33.9375 -1.421875 27.875 -1.421875 
Q 17.96875 -1.421875 11.734375 6.484375 
Q 5.515625 14.40625 5.515625 27.296875 
Q 5.515625 40.1875 11.734375 48.09375 
Q 17.96875 56 27.875 56 
Q 33.9375 56 38.25 53.625 
Q 42.578125 51.265625 45.40625 46.390625 
L 45.40625 54.6875 
L 54.390625 54.6875 
L 54.390625 -20.796875 
L 45.40625 -20.796875 
z
" id="DejaVuSans-113"/>
      <path d="M 8.5 21.578125 
L 8.5 54.6875 
L 17.484375 54.6875 
L 17.484375 21.921875 
Q 17.484375 14.15625 20.5 10.265625 
Q 23.53125 6.390625 29.59375 6.390625 
Q 36.859375 6.390625 41.078125 11.03125 
Q 45.3125 15.671875 45.3125 23.6875 
L 45.3125 54.6875 
L 54.296875 54.6875 
L 54.296875 0 
L 45.3125 0 
L 45.3125 8.40625 
Q 42.046875 3.421875 37.71875 1 
Q 33.40625 -1.421875 27.6875 -1.421875 
Q 18.265625 -1.421875 13.375 4.4375 
Q 8.5 10.296875 8.5 21.578125 
z
M 31.109375 56 
z
" id="DejaVuSans-117"/>
      <path d="M 54.890625 33.015625 
L 54.890625 0 
L 45.90625 0 
L 45.90625 32.71875 
Q 45.90625 40.484375 42.875 44.328125 
Q 39.84375 48.1875 33.796875 48.1875 
Q 26.515625 48.1875 22.3125 43.546875 
Q 18.109375 38.921875 18.109375 30.90625 
L 18.109375 0 
L 9.078125 0 
L 9.078125 54.6875 
L 18.109375 54.6875 
L 18.109375 46.1875 
Q 21.34375 51.125 25.703125 53.5625 
Q 30.078125 56 35.796875 56 
Q 45.21875 56 50.046875 50.171875 
Q 54.890625 44.34375 54.890625 33.015625 
z
" id="DejaVuSans-110"/>
      <path d="M 48.78125 52.59375 
L 48.78125 44.1875 
Q 44.96875 46.296875 41.140625 47.34375 
Q 37.3125 48.390625 33.40625 48.390625 
Q 24.65625 48.390625 19.8125 42.84375 
Q 14.984375 37.3125 14.984375 27.296875 
Q 14.984375 17.28125 19.8125 11.734375 
Q 24.65625 6.203125 33.40625 6.203125 
Q 37.3125 6.203125 41.140625 7.25 
Q 44.96875 8.296875 48.78125 10.40625 
L 48.78125 2.09375 
Q 45.015625 0.34375 40.984375 -0.53125 
Q 36.96875 -1.421875 32.421875 -1.421875 
Q 20.0625 -1.421875 12.78125 6.34375 
Q 5.515625 14.109375 5.515625 27.296875 
Q 5.515625 40.671875 12.859375 48.328125 
Q 20.21875 56 33.015625 56 
Q 37.15625 56 41.109375 55.140625 
Q 45.0625 54.296875 48.78125 52.59375 
z
" id="DejaVuSans-99"/>
      <path id="DejaVuSans-32"/>
      <path d="M 19.671875 64.796875 
L 19.671875 8.109375 
L 31.59375 8.109375 
Q 46.6875 8.109375 53.6875 14.9375 
Q 60.6875 21.78125 60.6875 36.53125 
Q 60.6875 51.171875 53.6875 57.984375 
Q 46.6875 64.796875 31.59375 64.796875 
z
M 9.8125 72.90625 
L 30.078125 72.90625 
Q 51.265625 72.90625 61.171875 64.09375 
Q 71.09375 55.28125 71.09375 36.53125 
Q 71.09375 17.671875 61.125 8.828125 
Q 51.171875 0 30.078125 0 
L 9.8125 0 
z
" id="DejaVuSans-68"/>
      <path d="M 18.109375 8.203125 
L 18.109375 -20.796875 
L 9.078125 -20.796875 
L 9.078125 54.6875 
L 18.109375 54.6875 
L 18.109375 46.390625 
Q 20.953125 51.265625 25.265625 53.625 
Q 29.59375 56 35.59375 56 
Q 45.5625 56 51.78125 48.09375 
Q 58.015625 40.1875 58.015625 27.296875 
Q 58.015625 14.40625 51.78125 6.484375 
Q 45.5625 -1.421875 35.59375 -1.421875 
Q 29.59375 -1.421875 25.265625 0.953125 
Q 20.953125 3.328125 18.109375 8.203125 
z
M 48.6875 27.296875 
Q 48.6875 37.203125 44.609375 42.84375 
Q 40.53125 48.484375 33.40625 48.484375 
Q 26.265625 48.484375 22.1875 42.84375 
Q 18.109375 37.203125 18.109375 27.296875 
Q 18.109375 17.390625 22.1875 11.75 
Q 26.265625 6.109375 33.40625 6.109375 
Q 40.53125 6.109375 44.609375 11.75 
Q 48.6875 17.390625 48.6875 27.296875 
z
" id="DejaVuSans-112"/>
      <path d="M 9.421875 75.984375 
L 18.40625 75.984375 
L 18.40625 0 
L 9.421875 0 
z
" id="DejaVuSans-108"/>
      <path d="M 9.421875 54.6875 
L 18.40625 54.6875 
L 18.40625 0 
L 9.421875 0 
z
M 9.421875 75.984375 
L 18.40625 75.984375 
L 18.40625 64.59375 
L 9.421875 64.59375 
z
" id="DejaVuSans-105"/>
      <path d="M 34.28125 27.484375 
Q 23.390625 27.484375 19.1875 25 
Q 14.984375 22.515625 14.984375 16.5 
Q 14.984375 11.71875 18.140625 8.90625 
Q 21.296875 6.109375 26.703125 6.109375 
Q 34.1875 6.109375 38.703125 11.40625 
Q 43.21875 16.703125 43.21875 25.484375 
L 43.21875 27.484375 
z
M 52.203125 31.203125 
L 52.203125 0 
L 43.21875 0 
L 43.21875 8.296875 
Q 40.140625 3.328125 35.546875 0.953125 
Q 30.953125 -1.421875 24.3125 -1.421875 
Q 15.921875 -1.421875 10.953125 3.296875 
Q 6 8.015625 6 15.921875 
Q 6 25.140625 12.171875 29.828125 
Q 18.359375 34.515625 30.609375 34.515625 
L 43.21875 34.515625 
L 43.21875 35.40625 
Q 43.21875 41.609375 39.140625 45 
Q 35.0625 48.390625 27.6875 48.390625 
Q 23 48.390625 18.546875 47.265625 
Q 14.109375 46.140625 10.015625 43.890625 
L 10.015625 52.203125 
Q 14.9375 54.109375 19.578125 55.046875 
Q 24.21875 56 28.609375 56 
Q 40.484375 56 46.34375 49.84375 
Q 52.203125 43.703125 52.203125 31.203125 
z
" id="DejaVuSans-97"/>
      <path d="M 18.3125 70.21875 
L 18.3125 54.6875 
L 36.8125 54.6875 
L 36.8125 47.703125 
L 18.3125 47.703125 
L 18.3125 18.015625 
Q 18.3125 11.328125 20.140625 9.421875 
Q 21.96875 7.515625 27.59375 7.515625 
L 36.8125 7.515625 
L 36.8125 0 
L 27.59375 0 
Q 17.1875 0 13.234375 3.875 
Q 9.28125 7.765625 9.28125 18.015625 
L 9.28125 47.703125 
L 2.6875 47.703125 
L 2.6875 54.6875 
L 9.28125 54.6875 
L 9.28125 70.21875 
z
" id="DejaVuSans-116"/>
      <path d="M 30.609375 48.390625 
Q 23.390625 48.390625 19.1875 42.75 
Q 14.984375 37.109375 14.984375 27.296875 
Q 14.984375 17.484375 19.15625 11.84375 
Q 23.34375 6.203125 30.609375 6.203125 
Q 37.796875 6.203125 41.984375 11.859375 
Q 46.1875 17.53125 46.1875 27.296875 
Q 46.1875 37.015625 41.984375 42.703125 
Q 37.796875 48.390625 30.609375 48.390625 
z
M 30.609375 56 
Q 42.328125 56 49.015625 48.375 
Q 55.71875 40.765625 55.71875 27.296875 
Q 55.71875 13.875 49.015625 6.21875 
Q 42.328125 -1.421875 30.609375 -1.421875 
Q 18.84375 -1.421875 12.171875 6.21875 
Q 5.515625 13.875 5.515625 27.296875 
Q 5.515625 40.765625 12.171875 48.375 
Q 18.84375 56 30.609375 56 
z
" id="DejaVuSans-111"/>
      <path d="M 9.8125 72.90625 
L 19.671875 72.90625 
L 19.671875 8.296875 
L 55.171875 8.296875 
L 55.171875 0 
L 9.8125 0 
z
" id="DejaVuSans-76"/>
      <path d="M 2.984375 54.6875 
L 12.5 54.6875 
L 29.59375 8.796875 
L 46.6875 54.6875 
L 56.203125 54.6875 
L 35.6875 0 
L 23.484375 0 
z
" id="DejaVuSans-118"/>
     </defs>
     <g transform="translate(447.361719 379.564837)scale(0.1 -0.1)">
      <use xlink:href="#DejaVuSans-83"/>
      <use x="63.476562" xlink:href="#DejaVuSans-101"/>
      <use x="125" xlink:href="#DejaVuSans-113"/>
      <use x="188.476562" xlink:href="#DejaVuSans-117"/>
      <use x="251.855469" xlink:href="#DejaVuSans-101"/>
      <use x="313.378906" xlink:href="#DejaVuSans-110"/>
      <use x="376.757812" xlink:href="#DejaVuSans-99"/>
      <use x="431.738281" xlink:href="#DejaVuSans-101"/>
      <use x="493.261719" xlink:href="#DejaVuSans-32"/>
      <use x="525.048828" xlink:href="#DejaVuSans-68"/>
      <use x="602.050781" xlink:href="#DejaVuSans-117"/>
      <use x="665.429688" xlink:href="#DejaVuSans-112"/>
      <use x="728.90625" xlink:href="#DejaVuSans-108"/>
      <use x="756.689453" xlink:href="#DejaVuSans-105"/>
      <use x="784.472656" xlink:href="#DejaVuSans-99"/>
      <use x="839.453125" xlink:href="#DejaVuSans-97"/>
      <use x="900.732422" xlink:href="#DejaVuSans-116"/>
      <use x="939.941406" xlink:href="#DejaVuSans-105"/>
      <use x="967.724609" xlink:href="#DejaVuSans-111"/>
      <use x="1028.90625" xlink:href="#DejaVuSans-110"/>
      <use x="1092.285156" xlink:href="#DejaVuSans-32"/>
      <use x="1124.072266" xlink:href="#DejaVuSans-76"/>
      <use x="1179.769531" xlink:href="#DejaVuSans-101"/>
      <use x="1241.292969" xlink:href="#DejaVuSans-118"/>
      <use x="1300.472656" xlink:href="#DejaVuSans-101"/>
      <use x="1361.996094" xlink:href="#DejaVuSans-108"/>
     </g>
    </g>
   </g>
   <g id="matplotlib.axis_2">
    <g id="ytick_1">
     <g id="line2d_1">
      <path clip-path="url(#p46aca564b3)" d="M 43.148125 353.2239 
L 990.558125 353.2239 
" style="fill:none;stroke:#dedede;stroke-linecap:square;"/>
     </g>
     <g id="text_18">
      <!-- 0 -->
      <g transform="translate(31.058125 356.263275)scale(0.08 -0.08)">
       <use xlink:href="#DejaVuSans-48"/>
      </g>
     </g>
    </g>
    <g id="ytick_2">
     <g id="line2d_2">
      <path clip-path="url(#p46aca564b3)" d="M 43.148125 289.6303 
L 990.558125 289.6303 
" style="fill:none;stroke:#dedede;stroke-linecap:square;"/>
     </g>
     <g id="text_19">
      <!-- 20 -->
      <g transform="translate(25.968125 292.669675)scale(0.08 -0.08)">
       <use xlink:href="#DejaVuSans-50"/>
       <use x="63.623047" xlink:href="#DejaVuSans-48"/>
      </g>
     </g>
    </g>
    <g id="ytick_3">
     <g id="line2d_3">
      <path clip-path="url(#p46aca564b3)" d="M 43.148125 226.0367 
L 990.558125 226.0367 
" style="fill:none;stroke:#dedede;stroke-linecap:square;"/>
     </g>
     <g id="text_20">
      <!-- 40 -->
      <g transform="translate(25.968125 229.076075)scale(0.08 -0.08)">
       <use xlink:href="#DejaVuSans-52"/>
       <use x="63.623047" xlink:href="#DejaVuSans-48"/>
      </g>
     </g>
    </g>
    <g id="ytick_4">
     <g id="line2d_4">
      <path clip-path="url(#p46aca564b3)" d="M 43.148125 162.4431 
L 990.558125 162.4431 
" style="fill:none;stroke:#dedede;stroke-linecap:square;"/>
     </g>
     <g id="text_21">
      <!-- 60 -->
      <g transform="translate(25.968125 165.482475)scale(0.08 -0.08)">
       <use xlink:href="#DejaVuSans-54"/>
       <use x="63.623047" xlink:href="#DejaVuSans-48"/>
      </g>
     </g>
    </g>
    <g id="ytick_5">
     <g id="line2d_5">
      <path clip-path="url(#p46aca564b3)" d="M 43.148125 98.8495 
L 990.558125 98.8495 
" style="fill:none;stroke:#dedede;stroke-linecap:square;"/>
     </g>
     <g id="text_22">
      <!-- 80 -->
      <g transform="translate(25.968125 101.888875)scale(0.08 -0.08)">
       <use xlink:href="#DejaVuSans-56"/>
       <use x="63.623047" xlink:href="#DejaVuSans-48"/>
      </g>
     </g>
    </g>
    <g id="ytick_6">
     <g id="line2d_6">
      <path clip-path="url(#p46aca564b3)" d="M 43.148125 35.2559 
L 990.558125 35.2559 
" style="fill:none;stroke:#dedede;stroke-linecap:square;"/>
     </g>
     <g id="text_23">
      <!-- 100 -->
      <g transform="translate(20.878125 38.295275)scale(0.08 -0.08)">
       <use xlink:href="#DejaVuSans-49"/>
       <use x="63.623047" xlink:href="#DejaVuSans-48"/>
       <use x="127.246094" xlink:href="#DejaVuSans-48"/>
      </g>
     </g>
    </g>
    <g id="text_24">
     <!-- % of Library -->
     <defs>
      <path d="M 72.703125 32.078125 
Q 68.453125 32.078125 66.03125 28.46875 
Q 63.625 24.859375 63.625 18.40625 
Q 63.625 12.0625 66.03125 8.421875 
Q 68.453125 4.78125 72.703125 4.78125 
Q 76.859375 4.78125 79.265625 8.421875 
Q 81.6875 12.0625 81.6875 18.40625 
Q 81.6875 24.8125 79.265625 28.4375 
Q 76.859375 32.078125 72.703125 32.078125 
z
M 72.703125 38.28125 
Q 80.421875 38.28125 84.953125 32.90625 
Q 89.5 27.546875 89.5 18.40625 
Q 89.5 9.28125 84.9375 3.921875 
Q 80.375 -1.421875 72.703125 -1.421875 
Q 64.890625 -1.421875 60.34375 3.921875 
Q 55.8125 9.28125 55.8125 18.40625 
Q 55.8125 27.59375 60.375 32.9375 
Q 64.9375 38.28125 72.703125 38.28125 
z
M 22.3125 68.015625 
Q 18.109375 68.015625 15.6875 64.375 
Q 13.28125 60.75 13.28125 54.390625 
Q 13.28125 47.953125 15.671875 44.328125 
Q 18.0625 40.71875 22.3125 40.71875 
Q 26.5625 40.71875 28.96875 44.328125 
Q 31.390625 47.953125 31.390625 54.390625 
Q 31.390625 60.6875 28.953125 64.34375 
Q 26.515625 68.015625 22.3125 68.015625 
z
M 66.40625 74.21875 
L 74.21875 74.21875 
L 28.609375 -1.421875 
L 20.796875 -1.421875 
z
M 22.3125 74.21875 
Q 30.03125 74.21875 34.609375 68.875 
Q 39.203125 63.53125 39.203125 54.390625 
Q 39.203125 45.171875 34.640625 39.84375 
Q 30.078125 34.515625 22.3125 34.515625 
Q 14.546875 34.515625 10.03125 39.859375 
Q 5.515625 45.21875 5.515625 54.390625 
Q 5.515625 63.484375 10.046875 68.84375 
Q 14.59375 74.21875 22.3125 74.21875 
z
" id="DejaVuSans-37"/>
      <path d="M 37.109375 75.984375 
L 37.109375 68.5 
L 28.515625 68.5 
Q 23.6875 68.5 21.796875 66.546875 
Q 19.921875 64.59375 19.921875 59.515625 
L 19.921875 54.6875 
L 34.71875 54.6875 
L 34.71875 47.703125 
L 19.921875 47.703125 
L 19.921875 0 
L 10.890625 0 
L 10.890625 47.703125 
L 2.296875 47.703125 
L 2.296875 54.6875 
L 10.890625 54.6875 
L 10.890625 58.5 
Q 10.890625 67.625 15.140625 71.796875 
Q 19.390625 75.984375 28.609375 75.984375 
z
" id="DejaVuSans-102"/>
      <path d="M 48.6875 27.296875 
Q 48.6875 37.203125 44.609375 42.84375 
Q 40.53125 48.484375 33.40625 48.484375 
Q 26.265625 48.484375 22.1875 42.84375 
Q 18.109375 37.203125 18.109375 27.296875 
Q 18.109375 17.390625 22.1875 11.75 
Q 26.265625 6.109375 33.40625 6.109375 
Q 40.53125 6.109375 44.609375 11.75 
Q 48.6875 17.390625 48.6875 27.296875 
z
M 18.109375 46.390625 
Q 20.953125 51.265625 25.265625 53.625 
Q 29.59375 56 35.59375 56 
Q 45.5625 56 51.78125 48.09375 
Q 58.015625 40.1875 58.015625 27.296875 
Q 58.015625 14.40625 51.78125 6.484375 
Q 45.5625 -1.421875 35.59375 -1.421875 
Q 29.59375 -1.421875 25.265625 0.953125 
Q 20.953125 3.328125 18.109375 8.203125 
L 18.109375 0 
L 9.078125 0 
L 9.078125 75.984375 
L 18.109375 75.984375 
z
" id="DejaVuSans-98"/>
      <path d="M 41.109375 46.296875 
Q 39.59375 47.171875 37.8125 47.578125 
Q 36.03125 48 33.890625 48 
Q 26.265625 48 22.1875 43.046875 
Q 18.109375 38.09375 18.109375 28.8125 
L 18.109375 0 
L 9.078125 0 
L 9.078125 54.6875 
L 18.109375 54.6875 
L 18.109375 46.1875 
Q 20.953125 51.171875 25.484375 53.578125 
Q 30.03125 56 36.53125 56 
Q 37.453125 56 38.578125 55.875 
Q 39.703125 55.765625 41.0625 55.515625 
z
" id="DejaVuSans-114"/>
      <path d="M 32.171875 -5.078125 
Q 28.375 -14.84375 24.75 -17.8125 
Q 21.140625 -20.796875 15.09375 -20.796875 
L 7.90625 -20.796875 
L 7.90625 -13.28125 
L 13.1875 -13.28125 
Q 16.890625 -13.28125 18.9375 -11.515625 
Q 21 -9.765625 23.484375 -3.21875 
L 25.09375 0.875 
L 2.984375 54.6875 
L 12.5 54.6875 
L 29.59375 11.921875 
L 46.6875 54.6875 
L 56.203125 54.6875 
z
" id="DejaVuSans-121"/>
     </defs>
     <g transform="translate(14.798437 224.471931)rotate(-90)scale(0.1 -0.1)">
      <use xlink:href="#DejaVuSans-37"/>
      <use x="95.019531" xlink:href="#DejaVuSans-32"/>
      <use x="126.806641" xlink:href="#DejaVuSans-111"/>
      <use x="187.988281" xlink:href="#DejaVuSans-102"/>
      <use x="223.193359" xlink:href="#DejaVuSans-32"/>
      <use x="254.980469" xlink:href="#DejaVuSans-76"/>
      <use x="310.693359" xlink:href="#DejaVuSans-105"/>
      <use x="338.476562" xlink:href="#DejaVuSans-98"/>
      <use x="401.953125" xlink:href="#DejaVuSans-114"/>
      <use x="443.066406" xlink:href="#DejaVuSans-97"/>
      <use x="504.345703" xlink:href="#DejaVuSans-114"/>
      <use x="545.458984" xlink:href="#DejaVuSans-121"/>
     </g>
    </g>
   </g>
   <g id="line2d_7">
    <path clip-path="url(#p46aca564b3)" d="M 86.212216 302.025248 
L 143.631004 322.004787 
L 201.049792 330.712824 
L 258.46858 337.091953 
L 315.887367 341.219551 
L 373.306155 343.722005 
L 430.724943 345.683996 
L 488.143731 346.603784 
L 545.562519 347.859695 
L 602.981307 287.99896 
L 660.400095 331.704798 
L 717.818883 310.763054 
L 775.23767 339.35861 
L 832.656458 341.019111 
L 890.075246 352.76115 
L 947.494034 353.084874 
" style="fill:none;stroke:#d9534f;stroke-linecap:square;"/>
   </g>
   <g id="line2d_8">
    <path clip-path="url(#p46aca564b3)" d="M 86.212216 293.512297 
L 143.631004 322.213284 
L 201.049792 330.92301 
L 258.46858 336.860934 
L 315.887367 340.815905 
L 373.306155 343.28497 
L 430.724943 345.788029 
L 488.143731 346.964531 
L 545.562519 348.152135 
L 602.981307 290.085089 
L 660.400095 332.121192 
L 717.818883 311.025021 
L 775.23767 341.304689 
L 832.656458 345.058912 
L 890.075246 352.69476 
L 947.494034 352.809642 
" style="fill:none;stroke:#d9534f;stroke-linecap:square;"/>
   </g>
   <g id="line2d_9">
    <path clip-path="url(#p46aca564b3)" d="M 86.212216 294.584876 
L 143.631004 320.819037 
L 201.049792 331.756958 
L 258.46858 338.427348 
L 315.887367 342.126763 
L 373.306155 344.694716 
L 430.724943 345.878822 
L 488.143731 347.210735 
L 545.562519 348.034292 
L 602.981307 289.817961 
L 660.400095 331.53161 
L 717.818883 310.131621 
L 775.23767 340.059766 
L 832.656458 342.683914 
L 890.075246 352.806504 
L 947.494034 353.049478 
" style="fill:none;stroke:#d9534f;stroke-linecap:square;"/>
   </g>
   <g id="line2d_10">
    <path clip-path="url(#p46aca564b3)" d="M 86.212216 289.903354 
L 143.631004 320.465272 
L 201.049792 331.876077 
L 258.46858 338.001349 
L 315.887367 342.069347 
L 373.306155 344.594831 
L 430.724943 346.126436 
L 488.143731 347.171072 
L 545.562519 348.229995 
L 602.981307 290.012338 
L 660.400095 331.520488 
L 717.818883 309.651485 
L 775.23767 342.246457 
L 832.656458 346.026064 
L 890.075246 352.671805 
L 947.494034 353.048029 
" style="fill:none;stroke:#d9534f;stroke-linecap:square;"/>
   </g>
   <g id="line2d_11">
    <path clip-path="url(#p46aca564b3)" d="M 86.212216 295.372841 
L 143.631004 322.15286 
L 201.049792 332.844568 
L 258.46858 338.817193 
L 315.887367 342.631509 
L 373.306155 344.570805 
L 430.724943 346.150945 
L 488.143731 347.201052 
L 545.562519 348.264589 
L 602.981307 289.094418 
L 660.400095 331.692055 
L 717.818883 310.361757 
L 775.23767 339.226459 
L 832.656458 340.080167 
L 890.075246 352.439897 
L 947.494034 352.713286 
" style="fill:none;stroke:#d9534f;stroke-linecap:square;"/>
   </g>
   <g id="line2d_12">
    <path clip-path="url(#p46aca564b3)" d="M 86.212216 286.714885 
L 143.631004 321.311238 
L 201.049792 332.263338 
L 258.46858 338.630495 
L 315.887367 342.25374 
L 373.306155 344.69363 
L 430.724943 346.172819 
L 488.143731 347.447169 
L 545.562519 348.172599 
L 602.981307 291.927718 
L 660.400095 331.90619 
L 717.818883 310.920896 
L 775.23767 341.381761 
L 832.656458 344.208002 
L 890.075246 352.609757 
L 947.494034 353.000163 
" style="fill:none;stroke:#d9534f;stroke-linecap:square;"/>
   </g>
   <g id="line2d_13">
    <path clip-path="url(#p46aca564b3)" d="M 86.212216 307.256259 
L 143.631004 325.867808 
L 201.049792 333.450911 
L 258.46858 338.638536 
L 315.887367 342.276431 
L 373.306155 344.526896 
L 430.724943 346.164762 
L 488.143731 347.105281 
L 545.562519 347.917238 
L 602.981307 287.383556 
L 660.400095 331.029039 
L 717.818883 306.662686 
L 775.23767 336.259601 
L 832.656458 334.02013 
L 890.075246 351.952275 
L 947.494034 353.102988 
" style="fill:none;stroke:#d9534f;stroke-linecap:square;"/>
   </g>
   <g id="line2d_14">
    <path clip-path="url(#p46aca564b3)" d="M 86.212216 296.237317 
L 143.631004 325.878243 
L 201.049792 333.016558 
L 258.46858 338.531517 
L 315.887367 342.000133 
L 373.306155 344.44223 
L 430.724943 346.106018 
L 488.143731 347.338696 
L 545.562519 348.090465 
L 602.981307 290.700628 
L 660.400095 331.7741 
L 717.818883 306.458281 
L 775.23767 337.771461 
L 832.656458 340.213726 
L 890.075246 352.331343 
L 947.494034 352.723684 
" style="fill:none;stroke:#d9534f;stroke-linecap:square;"/>
   </g>
   <g id="line2d_15">
    <path clip-path="url(#p46aca564b3)" d="M 86.212216 289.511531 
L 143.631004 319.905932 
L 201.049792 332.259217 
L 258.46858 338.84816 
L 315.887367 342.708991 
L 373.306155 344.565081 
L 430.724943 346.25976 
L 488.143731 347.546972 
L 545.562519 348.325682 
L 602.981307 291.293238 
L 660.400095 331.9596 
L 717.818883 310.942549 
L 775.23767 340.36922 
L 832.656458 343.295074 
L 890.075246 352.953362 
L 947.494034 352.870032 
" style="fill:none;stroke:#d9534f;stroke-linecap:square;"/>
   </g>
   <g id="line2d_16">
    <path clip-path="url(#p46aca564b3)" d="M 86.212216 281.420068 
L 143.631004 319.264628 
L 201.049792 331.540574 
L 258.46858 338.56371 
L 315.887367 342.545926 
L 373.306155 344.78106 
L 430.724943 346.446683 
L 488.143731 347.71167 
L 545.562519 348.375811 
L 602.981307 293.870175 
L 660.400095 331.787781 
L 717.818883 311.114611 
L 775.23767 342.977011 
L 832.656458 347.19028 
L 890.075246 353.137838 
L 947.494034 352.886572 
" style="fill:none;stroke:#d9534f;stroke-linecap:square;"/>
   </g>
   <g id="line2d_17">
    <path clip-path="url(#p46aca564b3)" d="M 86.212216 303.057777 
L 143.631004 322.16027 
L 201.049792 331.736109 
L 258.46858 337.338986 
L 315.887367 341.649201 
L 373.306155 344.061945 
L 430.724943 345.723158 
L 488.143731 347.099472 
L 545.562519 347.893084 
L 602.981307 289.175402 
L 660.400095 331.237932 
L 717.818883 308.926965 
L 775.23767 338.420371 
L 832.656458 339.552196 
L 890.075246 352.357632 
L 947.494034 353.2239 
" style="fill:none;stroke:#d9534f;stroke-linecap:square;"/>
   </g>
   <g id="line2d_18">
    <path clip-path="url(#p46aca564b3)" d="M 86.212216 296.855499 
L 143.631004 322.39451 
L 201.049792 331.108626 
L 258.46858 337.096767 
L 315.887367 341.336072 
L 373.306155 344.078267 
L 430.724943 345.849749 
L 488.143731 346.86077 
L 545.562519 348.082171 
L 602.981307 290.871299 
L 660.400095 331.299133 
L 717.818883 307.830872 
L 775.23767 340.850204 
L 832.656458 343.174895 
L 890.075246 352.926206 
L 947.494034 352.999361 
" style="fill:none;stroke:#d9534f;stroke-linecap:square;"/>
   </g>
   <g id="line2d_19">
    <path clip-path="url(#p46aca564b3)" d="M 86.212216 292.480691 
L 143.631004 319.72995 
L 201.049792 331.392195 
L 258.46858 338.557406 
L 315.887367 342.26744 
L 373.306155 344.653579 
L 430.724943 346.171631 
L 488.143731 347.440529 
L 545.562519 348.352545 
L 602.981307 291.219232 
L 660.400095 332.184034 
L 717.818883 310.544389 
L 775.23767 340.05568 
L 832.656458 342.485253 
L 890.075246 352.855945 
L 947.494034 353.2239 
" style="fill:none;stroke:#d9534f;stroke-linecap:square;"/>
   </g>
   <g id="line2d_20">
    <path clip-path="url(#p46aca564b3)" d="M 86.212216 282.831321 
L 143.631004 318.974046 
L 201.049792 330.986007 
L 258.46858 337.91913 
L 315.887367 342.381448 
L 373.306155 344.762878 
L 430.724943 346.371398 
L 488.143731 347.607494 
L 545.562519 348.413877 
L 602.981307 293.736759 
L 660.400095 332.431009 
L 717.818883 311.032094 
L 775.23767 343.061135 
L 832.656458 347.063284 
L 890.075246 353.144847 
L 947.494034 352.897671 
" style="fill:none;stroke:#d9534f;stroke-linecap:square;"/>
   </g>
   <g id="line2d_21">
    <path clip-path="url(#p46aca564b3)" d="M 86.212216 308.693991 
L 143.631004 327.078965 
L 201.049792 333.64697 
L 258.46858 339.163604 
L 315.887367 342.190217 
L 373.306155 344.634438 
L 430.724943 346.109135 
L 488.143731 347.146155 
L 545.562519 347.950279 
L 602.981307 287.5396 
L 660.400095 330.698641 
L 717.818883 304.954016 
L 775.23767 334.893715 
L 832.656458 334.074121 
L 890.075246 351.616655 
L 947.494034 353.2239 
" style="fill:none;stroke:#d9534f;stroke-linecap:square;"/>
   </g>
   <g id="line2d_22">
    <path clip-path="url(#p46aca564b3)" d="M 86.212216 298.83198 
L 143.631004 326.21556 
L 201.049792 333.302762 
L 258.46858 338.602936 
L 315.887367 342.20765 
L 373.306155 344.280965 
L 430.724943 345.897786 
L 488.143731 347.338 
L 545.562519 348.181532 
L 602.981307 290.685462 
L 660.400095 330.95206 
L 717.818883 304.307889 
L 775.23767 337.629065 
L 832.656458 340.255315 
L 890.075246 352.261784 
L 947.494034 352.663655 
" style="fill:none;stroke:#d9534f;stroke-linecap:square;"/>
   </g>
   <g id="line2d_23">
    <path clip-path="url(#p46aca564b3)" d="M 86.212216 302.140365 
L 143.631004 322.967069 
L 201.049792 331.972688 
L 258.46858 338.339313 
L 315.887367 341.853274 
L 373.306155 344.304241 
L 430.724943 345.919816 
L 488.143731 347.249871 
L 545.562519 348.007211 
L 602.981307 289.598416 
L 660.400095 331.66984 
L 717.818883 308.547658 
L 775.23767 337.528193 
L 832.656458 338.1909 
L 890.075246 352.101646 
L 947.494034 353.2239 
" style="fill:none;stroke:#d9534f;stroke-linecap:square;"/>
   </g>
   <g id="line2d_24">
    <path clip-path="url(#p46aca564b3)" d="M 86.212216 291.626323 
L 143.631004 323.125555 
L 201.049792 331.92966 
L 258.46858 338.051993 
L 315.887367 341.820159 
L 373.306155 344.530359 
L 430.724943 346.200783 
L 488.143731 347.124517 
L 545.562519 348.086021 
L 602.981307 292.949071 
L 660.400095 331.730027 
L 717.818883 308.088452 
L 775.23767 340.067097 
L 832.656458 342.827428 
L 890.075246 352.586017 
L 947.494034 352.870937 
" style="fill:none;stroke:#d9534f;stroke-linecap:square;"/>
   </g>
   <g id="line2d_25">
    <path clip-path="url(#p46aca564b3)" d="M 86.212216 305.170877 
L 143.631004 324.694642 
L 201.049792 334.070863 
L 258.46858 339.323639 
L 315.887367 342.541045 
L 373.306155 344.870046 
L 430.724943 346.500084 
L 488.143731 347.488982 
L 545.562519 348.207207 
L 602.981307 292.189142 
L 660.400095 332.292177 
L 717.818883 307.602169 
L 775.23767 335.393029 
L 832.656458 328.939061 
L 890.075246 351.266495 
L 947.494034 353.064942 
" style="fill:none;stroke:#d9534f;stroke-linecap:square;"/>
   </g>
   <g id="line2d_26">
    <path clip-path="url(#p46aca564b3)" d="M 86.212216 300.852729 
L 143.631004 324.951626 
L 201.049792 333.286581 
L 258.46858 339.081138 
L 315.887367 341.84911 
L 373.306155 344.629881 
L 430.724943 346.479474 
L 488.143731 347.340505 
L 545.562519 348.100751 
L 602.981307 294.459318 
L 660.400095 331.996315 
L 717.818883 304.228486 
L 775.23767 335.348603 
L 832.656458 335.237947 
L 890.075246 352.685521 
L 947.494034 353.086417 
" style="fill:none;stroke:#d9534f;stroke-linecap:square;"/>
   </g>
   <g id="line2d_27">
    <path clip-path="url(#p46aca564b3)" d="M 86.212216 310.950512 
L 143.631004 331.49593 
L 201.049792 339.38032 
L 258.46858 343.791306 
L 315.887367 346.378475 
L 373.306155 347.926802 
L 430.724943 348.808815 
L 488.143731 349.494103 
L 545.562519 349.988285 
L 602.981307 312.493469 
L 660.400095 338.083628 
L 717.818883 315.236057 
L 775.23767 334.807913 
L 832.656458 303.091847 
L 890.075246 327.789517 
L 947.494034 333.897421 
" style="fill:none;stroke:#d9534f;stroke-linecap:square;"/>
   </g>
   <g id="line2d_28">
    <path clip-path="url(#p46aca564b3)" d="M 86.212216 306.837652 
L 143.631004 331.079885 
L 201.049792 339.382839 
L 258.46858 343.775298 
L 315.887367 346.22949 
L 373.306155 347.807304 
L 430.724943 348.990306 
L 488.143731 349.813181 
L 545.562519 350.334451 
L 602.981307 315.60761 
L 660.400095 338.590274 
L 717.818883 315.424121 
L 775.23767 331.787924 
L 832.656458 286.588113 
L 890.075246 335.027634 
L 947.494034 346.338319 
" style="fill:none;stroke:#d9534f;stroke-linecap:square;"/>
   </g>
   <g id="line2d_29">
    <path clip-path="url(#p46aca564b3)" d="M 86.212216 308.690907 
L 143.631004 324.42258 
L 201.049792 331.496325 
L 258.46858 336.98532 
L 315.887367 340.931978 
L 373.306155 343.83394 
L 430.724943 345.613046 
L 488.143731 346.788798 
L 545.562519 347.896631 
L 602.981307 287.356832 
L 660.400095 330.934005 
L 717.818883 307.225614 
L 775.23767 337.643517 
L 832.656458 338.367781 
L 890.075246 352.348105 
L 947.494034 353.079023 
" style="fill:none;stroke:#d9534f;stroke-linecap:square;"/>
   </g>
   <g id="line2d_30">
    <path clip-path="url(#p46aca564b3)" d="M 86.212216 300.377701 
L 143.631004 324.106962 
L 201.049792 331.346839 
L 258.46858 336.592631 
L 315.887367 340.785715 
L 373.306155 343.799236 
L 430.724943 345.563637 
L 488.143731 346.666968 
L 545.562519 347.831402 
L 602.981307 289.494343 
L 660.400095 330.91525 
L 717.818883 307.259623 
L 775.23767 340.742222 
L 832.656458 342.611464 
L 890.075246 352.510072 
L 947.494034 353.010335 
" style="fill:none;stroke:#d9534f;stroke-linecap:square;"/>
   </g>
   <g id="line2d_31">
    <path clip-path="url(#p46aca564b3)" d="M 86.212216 294.976426 
L 143.631004 322.378281 
L 201.049792 333.390022 
L 258.46858 339.875826 
L 315.887367 342.978806 
L 373.306155 345.118976 
L 430.724943 346.733126 
L 488.143731 347.664596 
L 545.562519 348.343419 
L 602.981307 291.212315 
L 660.400095 331.412372 
L 717.818883 307.566462 
L 775.23767 337.778949 
L 832.656458 339.303714 
L 890.075246 352.462656 
L 947.494034 352.418455 
" style="fill:none;stroke:#d9534f;stroke-linecap:square;"/>
   </g>
   <g id="line2d_32">
    <path clip-path="url(#p46aca564b3)" d="M 86.212216 285.347334 
L 143.631004 323.37381 
L 201.049792 333.430414 
L 258.46858 339.410998 
L 315.887367 343.203248 
L 373.306155 345.106332 
L 430.724943 346.742098 
L 488.143731 347.680739 
L 545.562519 348.590143 
L 602.981307 293.261448 
L 660.400095 331.121542 
L 717.818883 307.02344 
L 775.23767 340.196796 
L 832.656458 343.492316 
L 890.075246 352.613018 
L 947.494034 353.020725 
" style="fill:none;stroke:#d9534f;stroke-linecap:square;"/>
   </g>
   <g id="line2d_33">
    <path clip-path="url(#p46aca564b3)" d="M 86.212216 292.119073 
L 143.631004 320.523737 
L 201.049792 332.449794 
L 258.46858 338.681376 
L 315.887367 342.647785 
L 373.306155 345.028504 
L 430.724943 346.48243 
L 488.143731 347.592186 
L 545.562519 348.085854 
L 602.981307 292.055177 
L 660.400095 331.801768 
L 717.818883 309.191986 
L 775.23767 339.59282 
L 832.656458 341.71592 
L 890.075246 352.799087 
L 947.494034 352.846901 
" style="fill:none;stroke:#d9534f;stroke-linecap:square;"/>
   </g>
   <g id="line2d_34">
    <path clip-path="url(#p46aca564b3)" d="M 86.212216 286.463836 
L 143.631004 320.818506 
L 201.049792 332.202873 
L 258.46858 338.345891 
L 315.887367 342.704339 
L 373.306155 344.849084 
L 430.724943 346.531592 
L 488.143731 347.742719 
L 545.562519 348.419492 
L 602.981307 292.027196 
L 660.400095 331.2689 
L 717.818883 309.624677 
L 775.23767 341.686789 
L 832.656458 345.031577 
L 890.075246 352.673028 
L 947.494034 353.2239 
" style="fill:none;stroke:#d9534f;stroke-linecap:square;"/>
   </g>
   <g id="line2d_35">
    <path clip-path="url(#p46aca564b3)" d="M 86.212216 298.507018 
L 143.631004 322.329669 
L 201.049792 332.71674 
L 258.46858 338.507826 
L 315.887367 342.168088 
L 373.306155 344.549858 
L 430.724943 346.032012 
L 488.143731 347.300565 
L 545.562519 347.994454 
L 602.981307 288.280164 
L 660.400095 331.016678 
L 717.818883 309.351597 
L 775.23767 339.277345 
L 832.656458 340.220017 
L 890.075246 352.138469 
L 947.494034 353.2239 
" style="fill:none;stroke:#d9534f;stroke-linecap:square;"/>
   </g>
   <g id="line2d_36">
    <path clip-path="url(#p46aca564b3)" d="M 86.212216 291.801619 
L 143.631004 321.465528 
L 201.049792 331.703808 
L 258.46858 338.234131 
L 315.887367 342.05074 
L 373.306155 344.2219 
L 430.724943 346.079365 
L 488.143731 347.304767 
L 545.562519 348.202053 
L 602.981307 290.169885 
L 660.400095 330.883665 
L 717.818883 310.345863 
L 775.23767 341.776144 
L 832.656458 343.634767 
L 890.075246 352.646875 
L 947.494034 353.093287 
" style="fill:none;stroke:#d9534f;stroke-linecap:square;"/>
   </g>
   <g id="line2d_37">
    <path clip-path="url(#p46aca564b3)" d="M 86.212216 306.183057 
L 143.631004 323.779095 
L 201.049792 332.369705 
L 258.46858 338.105735 
L 315.887367 341.820236 
L 373.306155 344.224696 
L 430.724943 345.861568 
L 488.143731 347.140192 
L 545.562519 348.101491 
L 602.981307 288.619453 
L 660.400095 330.952527 
L 717.818883 306.362544 
L 775.23767 336.420232 
L 832.656458 337.951876 
L 890.075246 352.498093 
L 947.494034 353.2239 
" style="fill:none;stroke:#d9534f;stroke-linecap:square;"/>
   </g>
   <g id="line2d_38">
    <path clip-path="url(#p46aca564b3)" d="M 86.212216 295.212655 
L 143.631004 323.679397 
L 201.049792 332.052419 
L 258.46858 337.855553 
L 315.887367 341.96736 
L 373.306155 344.11552 
L 430.724943 346.181832 
L 488.143731 347.162967 
L 545.562519 348.408238 
L 602.981307 292.247217 
L 660.400095 330.880667 
L 717.818883 305.365529 
L 775.23767 339.532756 
L 832.656458 343.040131 
L 890.075246 352.996335 
L 947.494034 352.915824 
" style="fill:none;stroke:#d9534f;stroke-linecap:square;"/>
   </g>
   <g id="line2d_39">
    <path clip-path="url(#p46aca564b3)" d="M 86.212216 314.229405 
L 143.631004 327.231698 
L 201.049792 332.791236 
L 258.46858 337.480917 
L 315.887367 341.271174 
L 373.306155 343.431626 
L 430.724943 345.350866 
L 488.143731 346.49909 
L 545.562519 347.741194 
L 602.981307 286.532607 
L 660.400095 330.46156 
L 717.818883 304.833255 
L 775.23767 335.259998 
L 832.656458 335.233152 
L 890.075246 352.042722 
L 947.494034 353.2239 
" style="fill:none;stroke:#d9534f;stroke-linecap:square;"/>
   </g>
   <g id="line2d_40">
    <path clip-path="url(#p46aca564b3)" d="M 86.212216 303.320816 
L 143.631004 327.057676 
L 201.049792 332.666111 
L 258.46858 337.138359 
L 315.887367 341.028671 
L 373.306155 343.690966 
L 430.724943 345.323231 
L 488.143731 346.68952 
L 545.562519 347.676783 
L 602.981307 288.782049 
L 660.400095 330.767525 
L 717.818883 304.30355 
L 775.23767 338.172812 
L 832.656458 341.351354 
L 890.075246 352.821676 
L 947.494034 352.8233 
" style="fill:none;stroke:#d9534f;stroke-linecap:square;"/>
   </g>
   <g id="line2d_41">
    <path clip-path="url(#p46aca564b3)" d="M 86.212216 296.132803 
L 143.631004 321.645024 
L 201.049792 332.133851 
L 258.46858 338.723503 
L 315.887367 342.358328 
L 373.306155 344.942103 
L 430.724943 346.387382 
L 488.143731 347.343655 
L 545.562519 348.340587 
L 602.981307 291.349088 
L 660.400095 331.695139 
L 717.818883 308.106091 
L 775.23767 337.781431 
L 832.656458 340.909863 
L 890.075246 352.541653 
L 947.494034 353.2239 
" style="fill:none;stroke:#d9534f;stroke-linecap:square;"/>
   </g>
   <g id="line2d_42">
    <path clip-path="url(#p46aca564b3)" d="M 86.212216 285.943195 
L 143.631004 321.746697 
L 201.049792 332.022221 
L 258.46858 338.660748 
L 315.887367 342.562139 
L 373.306155 345.164421 
L 430.724943 346.572929 
L 488.143731 347.743703 
L 545.562519 348.508559 
L 602.981307 293.248842 
L 660.400095 331.962842 
L 717.818883 306.886907 
L 775.23767 341.146994 
L 832.656458 345.392962 
L 890.075246 353.064937 
L 947.494034 352.986304 
" style="fill:none;stroke:#d9534f;stroke-linecap:square;"/>
   </g>
   <g id="line2d_43">
    <path clip-path="url(#p46aca564b3)" d="M 86.212216 302.524387 
L 143.631004 324.899831 
L 201.049792 333.753672 
L 258.46858 339.202348 
L 315.887367 342.606789 
L 373.306155 344.790701 
L 430.724943 346.099486 
L 488.143731 347.322007 
L 545.562519 348.173344 
L 602.981307 290.266652 
L 660.400095 331.362266 
L 717.818883 305.79423 
L 775.23767 335.957128 
L 832.656458 335.860413 
L 890.075246 352.151939 
L 947.494034 352.849206 
" style="fill:none;stroke:#d9534f;stroke-linecap:square;"/>
   </g>
   <g id="line2d_44">
    <path clip-path="url(#p46aca564b3)" d="M 86.212216 296.007135 
L 143.631004 324.150066 
L 201.049792 332.902913 
L 258.46858 338.931176 
L 315.887367 342.411074 
L 373.306155 344.693543 
L 430.724943 346.128768 
L 488.143731 347.261572 
L 545.562519 348.251537 
L 602.981307 292.272631 
L 660.400095 330.831116 
L 717.818883 304.118246 
L 775.23767 338.085821 
L 832.656458 341.567061 
L 890.075246 352.951258 
L 947.494034 353.050484 
" style="fill:none;stroke:#d9534f;stroke-linecap:square;"/>
   </g>
   <g id="line2d_45">
    <path clip-path="url(#p46aca564b3)" d="M 86.212216 302.196931 
L 143.631004 323.96524 
L 201.049792 332.871995 
L 258.46858 338.616598 
L 315.887367 342.125129 
L 373.306155 344.416267 
L 430.724943 346.161963 
L 488.143731 347.225544 
L 545.562519 348.036393 
L 602.981307 289.348644 
L 660.400095 331.587179 
L 717.818883 306.768269 
L 775.23767 337.257059 
L 832.656458 337.6918 
L 890.075246 352.121488 
L 947.494034 353.2239 
" style="fill:none;stroke:#d9534f;stroke-linecap:square;"/>
   </g>
   <g id="line2d_46">
    <path clip-path="url(#p46aca564b3)" d="M 86.212216 291.244442 
L 143.631004 322.547687 
L 201.049792 332.310134 
L 258.46858 337.832209 
L 315.887367 342.064686 
L 373.306155 344.525558 
L 430.724943 346.153139 
L 488.143731 347.36356 
L 545.562519 348.041835 
L 602.981307 293.476982 
L 660.400095 331.757911 
L 717.818883 307.676867 
L 775.23767 339.491868 
L 832.656458 343.865301 
L 890.075246 352.416593 
L 947.494034 352.845627 
" style="fill:none;stroke:#d9534f;stroke-linecap:square;"/>
   </g>
   <g id="line2d_47">
    <path clip-path="url(#p46aca564b3)" d="M 86.212216 297.104461 
L 143.631004 321.715348 
L 201.049792 332.092784 
L 258.46858 338.565667 
L 315.887367 342.418713 
L 373.306155 344.523182 
L 430.724943 346.202571 
L 488.143731 347.245101 
L 545.562519 348.256979 
L 602.981307 290.578931 
L 660.400095 332.480749 
L 717.818883 308.89553 
L 775.23767 338.913392 
L 832.656458 339.336566 
L 890.075246 352.504849 
L 947.494034 352.779575 
" style="fill:none;stroke:#d9534f;stroke-linecap:square;"/>
   </g>
   <g id="line2d_48">
    <path clip-path="url(#p46aca564b3)" d="M 86.212216 289.389656 
L 143.631004 321.945787 
L 201.049792 332.385789 
L 258.46858 338.309244 
L 315.887367 341.897275 
L 373.306155 344.507337 
L 430.724943 346.185466 
L 488.143731 347.294669 
L 545.562519 348.187401 
L 602.981307 292.701193 
L 660.400095 332.587423 
L 717.818883 308.913314 
L 775.23767 340.417744 
L 832.656458 343.361261 
L 890.075246 352.580907 
L 947.494034 352.949935 
" style="fill:none;stroke:#d9534f;stroke-linecap:square;"/>
   </g>
   <g id="line2d_49">
    <path clip-path="url(#p46aca564b3)" d="M 86.212216 295.736051 
L 143.631004 323.36222 
L 201.049792 333.055422 
L 258.46858 339.426286 
L 315.887367 342.834609 
L 373.306155 344.62378 
L 430.724943 345.927121 
L 488.143731 347.37115 
L 545.562519 347.884497 
L 602.981307 289.164056 
L 660.400095 331.965999 
L 717.818883 310.1433 
L 775.23767 338.584147 
L 832.656458 338.951315 
L 890.075246 352.295073 
L 947.494034 352.289373 
" style="fill:none;stroke:#d9534f;stroke-linecap:square;"/>
   </g>
   <g id="line2d_50">
    <path clip-path="url(#p46aca564b3)" d="M 86.212216 290.100678 
L 143.631004 322.767959 
L 201.049792 332.731798 
L 258.46858 338.746314 
L 315.887367 342.056127 
L 373.306155 344.863857 
L 430.724943 346.203155 
L 488.143731 347.262233 
L 545.562519 348.210728 
L 602.981307 291.205548 
L 660.400095 331.520824 
L 717.818883 309.724626 
L 775.23767 340.514905 
L 832.656458 342.31385 
L 890.075246 352.379575 
L 947.494034 353.012223 
" style="fill:none;stroke:#d9534f;stroke-linecap:square;"/>
   </g>
   <g id="line2d_51">
    <path clip-path="url(#p46aca564b3)" d="M 86.212216 295.119631 
L 143.631004 321.149475 
L 201.049792 331.734901 
L 258.46858 338.202411 
L 315.887367 341.888347 
L 373.306155 344.087004 
L 430.724943 345.917112 
L 488.143731 347.148346 
L 545.562519 347.895938 
L 602.981307 290.637138 
L 660.400095 332.380891 
L 717.818883 311.585112 
L 775.23767 339.502217 
L 832.656458 340.82054 
L 890.075246 352.506525 
L 947.494034 353.038812 
" style="fill:none;stroke:#d9534f;stroke-linecap:square;"/>
   </g>
   <g id="line2d_52">
    <path clip-path="url(#p46aca564b3)" d="M 86.212216 286.198928 
L 143.631004 321.098467 
L 201.049792 331.324733 
L 258.46858 337.709877 
L 315.887367 341.848636 
L 373.306155 344.496963 
L 430.724943 345.856805 
L 488.143731 347.402127 
L 545.562519 348.225708 
L 602.981307 292.775463 
L 660.400095 332.240274 
L 717.818883 311.721117 
L 775.23767 342.070983 
L 832.656458 344.623157 
L 890.075246 352.977651 
L 947.494034 353.043512 
" style="fill:none;stroke:#d9534f;stroke-linecap:square;"/>
   </g>
   <g id="line2d_53">
    <path clip-path="url(#p46aca564b3)" d="M 86.212216 294.548654 
L 143.631004 320.652392 
L 201.049792 332.116894 
L 258.46858 338.639933 
L 315.887367 342.230592 
L 373.306155 344.57283 
L 430.724943 346.196225 
L 488.143731 347.474032 
L 545.562519 348.053595 
L 602.981307 291.988942 
L 660.400095 332.219391 
L 717.818883 309.310301 
L 775.23767 338.663872 
L 832.656458 341.202624 
L 890.075246 352.894705 
L 947.494034 352.849419 
" style="fill:none;stroke:#d9534f;stroke-linecap:square;"/>
   </g>
   <g id="line2d_54">
    <path clip-path="url(#p46aca564b3)" d="M 86.212216 287.198318 
L 143.631004 320.923423 
L 201.049792 331.35127 
L 258.46858 338.342949 
L 315.887367 342.483262 
L 373.306155 344.441456 
L 430.724943 346.468755 
L 488.143731 347.421416 
L 545.562519 348.584388 
L 602.981307 294.697856 
L 660.400095 331.865767 
L 717.818883 307.396722 
L 775.23767 341.430083 
L 832.656458 345.023116 
L 890.075246 352.930983 
L 947.494034 353.054637 
" style="fill:none;stroke:#d9534f;stroke-linecap:square;"/>
   </g>
   <g id="line2d_55">
    <path clip-path="url(#p46aca564b3)" d="M 86.212216 290.819408 
L 143.631004 320.002331 
L 201.049792 331.262905 
L 258.46858 338.122424 
L 315.887367 342.450511 
L 373.306155 344.916564 
L 430.724943 346.126611 
L 488.143731 347.830857 
L 545.562519 348.211203 
L 602.981307 292.133666 
L 660.400095 331.923795 
L 717.818883 309.374026 
L 775.23767 340.914228 
L 832.656458 343.511548 
L 890.075246 352.790424 
L 947.494034 353.2239 
" style="fill:none;stroke:#d9534f;stroke-linecap:square;"/>
   </g>
   <g id="line2d_56">
    <path clip-path="url(#p46aca564b3)" d="M 86.212216 281.140901 
L 143.631004 320.734112 
L 201.049792 331.697052 
L 258.46858 338.356021 
L 315.887367 342.079066 
L 373.306155 344.738823 
L 430.724943 346.401676 
L 488.143731 347.78666 
L 545.562519 348.373373 
L 602.981307 294.8821 
L 660.400095 331.664113 
L 717.818883 310.278441 
L 775.23767 343.046975 
L 832.656458 346.325543 
L 890.075246 353.110169 
L 947.494034 352.999373 
" style="fill:none;stroke:#d9534f;stroke-linecap:square;"/>
   </g>
   <g id="line2d_57">
    <path clip-path="url(#p46aca564b3)" d="M 86.212216 296.968388 
L 143.631004 320.852754 
L 201.049792 331.425813 
L 258.46858 337.812656 
L 315.887367 342.054516 
L 373.306155 344.56389 
L 430.724943 345.933932 
L 488.143731 347.186602 
L 545.562519 348.110461 
L 602.981307 290.831621 
L 660.400095 332.038139 
L 717.818883 309.886958 
L 775.23767 339.237366 
L 832.656458 341.045169 
L 890.075246 352.442235 
L 947.494034 353.2239 
" style="fill:none;stroke:#d9534f;stroke-linecap:square;"/>
   </g>
   <g id="line2d_58">
    <path clip-path="url(#p46aca564b3)" d="M 86.212216 289.424363 
L 143.631004 321.546545 
L 201.049792 331.154772 
L 258.46858 337.823069 
L 315.887367 341.82869 
L 373.306155 344.25069 
L 430.724943 346.204158 
L 488.143731 347.164428 
L 545.562519 348.281963 
L 602.981307 292.504642 
L 660.400095 331.580523 
L 717.818883 310.508437 
L 775.23767 341.311144 
L 832.656458 344.098969 
L 890.075246 352.904598 
L 947.494034 353.027408 
" style="fill:none;stroke:#d9534f;stroke-linecap:square;"/>
   </g>
   <g id="line2d_59">
    <path clip-path="url(#p46aca564b3)" d="M 86.212216 295.022617 
L 143.631004 320.40394 
L 201.049792 331.65855 
L 258.46858 338.248549 
L 315.887367 342.301652 
L 373.306155 344.49557 
L 430.724943 346.045813 
L 488.143731 347.343625 
L 545.562519 348.300892 
L 602.981307 290.16912 
L 660.400095 331.879472 
L 717.818883 311.06124 
L 775.23767 339.537578 
L 832.656458 341.48752 
L 890.075246 352.880608 
L 947.494034 352.777654 
" style="fill:none;stroke:#d9534f;stroke-linecap:square;"/>
   </g>
   <g id="line2d_60">
    <path clip-path="url(#p46aca564b3)" d="M 86.212216 290.371885 
L 143.631004 320.475281 
L 201.049792 330.919436 
L 258.46858 337.656329 
L 315.887367 341.7964 
L 373.306155 344.301209 
L 430.724943 346.10551 
L 488.143731 347.17285 
L 545.562519 348.299463 
L 602.981307 291.733294 
L 660.400095 331.733323 
L 717.818883 309.920738 
L 775.23767 341.895546 
L 832.656458 345.273705 
L 890.075246 352.964315 
L 947.494034 352.995117 
" style="fill:none;stroke:#d9534f;stroke-linecap:square;"/>
   </g>
   <g id="line2d_61">
    <path clip-path="url(#p46aca564b3)" d="M 86.212216 295.957645 
L 143.631004 320.540962 
L 201.049792 331.834555 
L 258.46858 338.103477 
L 315.887367 342.079633 
L 373.306155 344.575505 
L 430.724943 345.811805 
L 488.143731 347.234936 
L 545.562519 348.034222 
L 602.981307 288.576537 
L 660.400095 332.065667 
L 717.818883 311.326824 
L 775.23767 341.157093 
L 832.656458 341.137085 
L 890.075246 351.954555 
L 947.494034 353.2239 
" style="fill:none;stroke:#d9534f;stroke-linecap:square;"/>
   </g>
   <g id="line2d_62">
    <path clip-path="url(#p46aca564b3)" d="M 86.212216 289.073415 
L 143.631004 319.646577 
L 201.049792 330.459276 
L 258.46858 337.406046 
L 315.887367 341.854248 
L 373.306155 344.224134 
L 430.724943 345.895496 
L 488.143731 347.213486 
L 545.562519 347.932518 
L 602.981307 290.134093 
L 660.400095 331.671755 
L 717.818883 313.657359 
L 775.23767 343.386267 
L 832.656458 344.951003 
L 890.075246 353.034658 
L 947.494034 353.074069 
" style="fill:none;stroke:#d9534f;stroke-linecap:square;"/>
   </g>
   <g id="line2d_63">
    <path clip-path="url(#p46aca564b3)" d="M 86.212216 286.08198 
L 143.631004 321.803979 
L 201.049792 333.71073 
L 258.46858 340.142465 
L 315.887367 343.265508 
L 373.306155 345.348733 
L 430.724943 347.08137 
L 488.143731 347.941873 
L 545.562519 348.50084 
L 602.981307 293.571292 
L 660.400095 331.531517 
L 717.818883 306.910311 
L 775.23767 339.263196 
L 832.656458 342.635176 
L 890.075246 352.850931 
L 947.494034 352.9745 
" style="fill:none;stroke:#d9534f;stroke-linecap:square;"/>
   </g>
   <g id="line2d_64">
    <path clip-path="url(#p46aca564b3)" d="M 86.212216 273.177564 
L 143.631004 321.641694 
L 201.049792 333.881196 
L 258.46858 340.02475 
L 315.887367 343.386796 
L 373.306155 345.815157 
L 430.724943 347.0071 
L 488.143731 348.013367 
L 545.562519 348.933388 
L 602.981307 296.032123 
L 660.400095 331.466501 
L 717.818883 307.613989 
L 775.23767 343.314305 
L 832.656458 347.178012 
L 890.075246 353.2239 
L 947.494034 352.904557 
" style="fill:none;stroke:#d9534f;stroke-linecap:square;"/>
   </g>
   <g id="line2d_65">
    <path clip-path="url(#p46aca564b3)" d="M 86.212216 292.369835 
L 143.631004 321.039914 
L 201.049792 332.591045 
L 258.46858 338.751191 
L 315.887367 342.474463 
L 373.306155 344.758429 
L 430.724943 346.265268 
L 488.143731 347.452187 
L 545.562519 348.067143 
L 602.981307 290.057234 
L 660.400095 331.785581 
L 717.818883 309.088464 
L 775.23767 340.131828 
L 832.656458 342.884854 
L 890.075246 352.828358 
L 947.494034 353.068605 
" style="fill:none;stroke:#d9534f;stroke-linecap:square;"/>
   </g>
   <g id="line2d_66">
    <path clip-path="url(#p46aca564b3)" d="M 86.212216 280.99603 
L 143.631004 321.396012 
L 201.049792 332.214674 
L 258.46858 339.047194 
L 315.887367 342.717161 
L 373.306155 344.987414 
L 430.724943 346.730641 
L 488.143731 347.63356 
L 545.562519 348.274453 
L 602.981307 292.697363 
L 660.400095 331.149418 
L 717.818883 309.698516 
L 775.23767 343.46791 
L 832.656458 346.560014 
L 890.075246 353.044677 
L 947.494034 352.999363 
" style="fill:none;stroke:#d9534f;stroke-linecap:square;"/>
   </g>
   <g id="line2d_67">
    <path clip-path="url(#p46aca564b3)" d="M 86.212216 287.976139 
L 143.631004 321.412451 
L 201.049792 332.203513 
L 258.46858 338.588408 
L 315.887367 342.592193 
L 373.306155 344.644117 
L 430.724943 346.407541 
L 488.143731 347.322114 
L 545.562519 348.251071 
L 602.981307 293.239858 
L 660.400095 332.798779 
L 717.818883 310.622512 
L 775.23767 339.454788 
L 832.656458 342.325789 
L 890.075246 353.132495 
L 947.494034 352.642633 
" style="fill:none;stroke:#d9534f;stroke-linecap:square;"/>
   </g>
   <g id="line2d_68">
    <path clip-path="url(#p46aca564b3)" d="M 86.212216 277.096093 
L 143.631004 320.194068 
L 201.049792 331.426618 
L 258.46858 338.335184 
L 315.887367 342.64528 
L 373.306155 345.111969 
L 430.724943 346.794885 
L 488.143731 347.511837 
L 545.562519 348.473535 
L 602.981307 296.324448 
L 660.400095 332.860531 
L 717.818883 311.500985 
L 775.23767 342.532345 
L 832.656458 346.808067 
L 890.075246 353.010302 
L 947.494034 352.988251 
" style="fill:none;stroke:#d9534f;stroke-linecap:square;"/>
   </g>
   <g id="line2d_69">
    <path clip-path="url(#p46aca564b3)" d="M 86.212216 325.355433 
L 143.631004 333.919861 
L 201.049792 333.594672 
L 258.46858 334.459497 
L 315.887367 336.863746 
L 373.306155 339.510407 
L 430.724943 341.790166 
L 488.143731 343.771005 
L 545.562519 345.106736 
L 602.981307 276.621329 
L 660.400095 331.254169 
L 717.818883 308.328772 
L 775.23767 338.589429 
L 832.656458 338.820928 
L 890.075246 352.404351 
L 947.494034 353.2239 
" style="fill:none;stroke:#d9534f;stroke-linecap:square;"/>
   </g>
   <g id="line2d_70">
    <path clip-path="url(#p46aca564b3)" d="M 86.212216 308.682007 
L 143.631004 332.803767 
L 201.049792 333.039127 
L 258.46858 334.390205 
L 315.887367 337.161763 
L 373.306155 339.618341 
L 430.724943 341.746371 
L 488.143731 343.943863 
L 545.562519 345.61769 
L 602.981307 282.478827 
L 660.400095 332.143892 
L 717.818883 310.284133 
L 775.23767 341.11309 
L 832.656458 345.155059 
L 890.075246 352.653258 
L 947.494034 352.783008 
" style="fill:none;stroke:#d9534f;stroke-linecap:square;"/>
   </g>
   <g id="line2d_71">
    <path clip-path="url(#p46aca564b3)" d="M 86.212216 290.717852 
L 143.631004 320.090077 
L 201.049792 331.547614 
L 258.46858 338.299613 
L 315.887367 342.422048 
L 373.306155 344.524891 
L 430.724943 346.219583 
L 488.143731 347.579696 
L 545.562519 348.146514 
L 602.981307 292.39901 
L 660.400095 333.088938 
L 717.818883 312.248975 
L 775.23767 340.243019 
L 832.656458 340.299851 
L 890.075246 352.562819 
L 947.494034 353.2239 
" style="fill:none;stroke:#d9534f;stroke-linecap:square;"/>
   </g>
   <g id="line2d_72">
    <path clip-path="url(#p46aca564b3)" d="M 86.212216 279.144903 
L 143.631004 320.484812 
L 201.049792 331.637683 
L 258.46858 338.238182 
L 315.887367 342.257566 
L 373.306155 344.541755 
L 430.724943 346.569308 
L 488.143731 347.516196 
L 545.562519 348.476871 
L 602.981307 296.27239 
L 660.400095 333.643541 
L 717.818883 313.460463 
L 775.23767 341.765165 
L 832.656458 344.098049 
L 890.075246 352.529507 
L 947.494034 352.978009 
" style="fill:none;stroke:#d9534f;stroke-linecap:square;"/>
   </g>
   <g id="line2d_73">
    <path clip-path="url(#p46aca564b3)" d="M 86.212216 285.287279 
L 143.631004 320.781557 
L 201.049792 332.525308 
L 258.46858 338.827822 
L 315.887367 342.576089 
L 373.306155 344.780182 
L 430.724943 346.504002 
L 488.143731 347.677211 
L 545.562519 348.245116 
L 602.981307 294.779413 
L 660.400095 333.45992 
L 717.818883 311.953716 
L 775.23767 339.057164 
L 832.656458 341.747196 
L 890.075246 353.022307 
L 947.494034 352.39012 
" style="fill:none;stroke:#d9534f;stroke-linecap:square;"/>
   </g>
   <g id="line2d_74">
    <path clip-path="url(#p46aca564b3)" d="M 86.212216 272.712346 
L 143.631004 319.814567 
L 201.049792 332.592008 
L 258.46858 338.992582 
L 315.887367 343.375483 
L 373.306155 345.335849 
L 430.724943 346.704561 
L 488.143731 347.909864 
L 545.562519 348.667762 
L 602.981307 297.894986 
L 660.400095 333.995005 
L 717.818883 312.008548 
L 775.23767 341.817299 
L 832.656458 346.151523 
L 890.075246 352.692096 
L 947.494034 352.94992 
" style="fill:none;stroke:#d9534f;stroke-linecap:square;"/>
   </g>
   <g id="line2d_75">
    <path clip-path="url(#p46aca564b3)" d="M 86.212216 300.642946 
L 143.631004 319.963614 
L 201.049792 329.478136 
L 258.46858 336.594677 
L 315.887367 341.03057 
L 373.306155 343.740645 
L 430.724943 345.51981 
L 488.143731 347.115488 
L 545.562519 347.724551 
L 602.981307 288.985921 
L 660.400095 332.362026 
L 717.818883 309.879701 
L 775.23767 340.235125 
L 832.656458 344.203693 
L 890.075246 353.08694 
L 947.494034 353.050555 
" style="fill:none;stroke:#d9534f;stroke-linecap:square;"/>
   </g>
   <g id="line2d_76">
    <path clip-path="url(#p46aca564b3)" d="M 86.212216 292.153079 
L 143.631004 319.781247 
L 201.049792 329.321641 
L 258.46858 336.234532 
L 315.887367 340.901441 
L 373.306155 343.580223 
L 430.724943 345.655388 
L 488.143731 347.016691 
L 545.562519 347.990351 
L 602.981307 292.257174 
L 660.400095 332.003553 
L 717.818883 310.637666 
L 775.23767 342.839 
L 832.656458 347.333016 
L 890.075246 352.97507 
L 947.494034 352.934328 
" style="fill:none;stroke:#d9534f;stroke-linecap:square;"/>
   </g>
   <g id="line2d_77">
    <path clip-path="url(#p46aca564b3)" d="M 86.212216 302.200647 
L 143.631004 322.549959 
L 201.049792 331.119109 
L 258.46858 337.604916 
L 315.887367 341.504244 
L 373.306155 343.972633 
L 430.724943 345.890431 
L 488.143731 347.031326 
L 545.562519 348.046171 
L 602.981307 289.456605 
L 660.400095 332.001092 
L 717.818883 307.322233 
L 775.23767 338.515205 
L 832.656458 340.430449 
L 890.075246 352.745481 
L 947.494034 353.2239 
" style="fill:none;stroke:#d9534f;stroke-linecap:square;"/>
   </g>
   <g id="line2d_78">
    <path clip-path="url(#p46aca564b3)" d="M 86.212216 294.991963 
L 143.631004 322.031522 
L 201.049792 330.947458 
L 258.46858 337.163798 
L 315.887367 341.063917 
L 373.306155 343.94236 
L 430.724943 346.118822 
L 488.143731 347.391632 
L 545.562519 347.911499 
L 602.981307 291.781873 
L 660.400095 331.615013 
L 717.818883 306.947668 
L 775.23767 340.741422 
L 832.656458 345.107386 
L 890.075246 352.794937 
L 947.494034 353.063132 
" style="fill:none;stroke:#d9534f;stroke-linecap:square;"/>
   </g>
   <g id="line2d_79">
    <path clip-path="url(#p46aca564b3)" d="M 86.212216 282.426354 
L 143.631004 319.171943 
L 201.049792 331.626429 
L 258.46858 338.663973 
L 315.887367 342.587055 
L 373.306155 344.650784 
L 430.724943 346.533773 
L 488.143731 347.443886 
L 545.562519 348.391036 
L 602.981307 293.832203 
L 660.400095 332.645312 
L 717.818883 312.167785 
L 775.23767 341.79657 
L 832.656458 345.349898 
L 890.075246 353.103499 
L 947.494034 353.2239 
" style="fill:none;stroke:#d9534f;stroke-linecap:square;"/>
   </g>
   <g id="line2d_80">
    <path clip-path="url(#p46aca564b3)" d="M 86.212216 269.492073 
L 143.631004 318.760417 
L 201.049792 331.688795 
L 258.46858 338.641264 
L 315.887367 342.857974 
L 373.306155 345.362167 
L 430.724943 346.803357 
L 488.143731 347.934027 
L 545.562519 348.699456 
L 602.981307 297.183825 
L 660.400095 333.408148 
L 717.818883 313.893377 
L 775.23767 344.726432 
L 832.656458 348.291433 
L 890.075246 352.9851 
L 947.494034 352.886556 
" style="fill:none;stroke:#d9534f;stroke-linecap:square;"/>
   </g>
   <g id="line2d_81">
    <path clip-path="url(#p46aca564b3)" d="M 86.212216 283.158206 
L 143.631004 319.260032 
L 201.049792 331.316593 
L 258.46858 338.266982 
L 315.887367 342.249569 
L 373.306155 344.663344 
L 430.724943 346.272019 
L 488.143731 347.388688 
L 545.562519 348.294299 
L 602.981307 293.242157 
L 660.400095 332.793562 
L 717.818883 313.200418 
L 775.23767 341.943055 
L 832.656458 345.435384 
L 890.075246 353.098186 
L 947.494034 353.031906 
" style="fill:none;stroke:#d9534f;stroke-linecap:square;"/>
   </g>
   <g id="line2d_82">
    <path clip-path="url(#p46aca564b3)" d="M 86.212216 272.307602 
L 143.631004 318.178092 
L 201.049792 331.500433 
L 258.46858 338.557449 
L 315.887367 342.582769 
L 373.306155 345.11174 
L 430.724943 346.618847 
L 488.143731 347.736285 
L 545.562519 348.431492 
L 602.981307 296.435743 
L 660.400095 333.480848 
L 717.818883 313.848713 
L 775.23767 344.766046 
L 832.656458 348.021488 
L 890.075246 352.998156 
L 947.494034 353.038699 
" style="fill:none;stroke:#d9534f;stroke-linecap:square;"/>
   </g>
   <g id="line2d_83">
    <path clip-path="url(#p46aca564b3)" d="M 86.212216 282.026046 
L 143.631004 321.116386 
L 201.049792 334.045072 
L 258.46858 339.75998 
L 315.887367 343.439204 
L 373.306155 345.684051 
L 430.724943 347.260624 
L 488.143731 348.14864 
L 545.562519 348.716374 
L 602.981307 297.738132 
L 660.400095 332.470019 
L 717.818883 306.199254 
L 775.23767 338.05058 
L 832.656458 343.016232 
L 890.075246 353.2239 
L 947.494034 352.719904 
" style="fill:none;stroke:#d9534f;stroke-linecap:square;"/>
   </g>
   <g id="line2d_84">
    <path clip-path="url(#p46aca564b3)" d="M 86.212216 271.560651 
L 143.631004 321.197362 
L 201.049792 333.639598 
L 258.46858 340.277081 
L 315.887367 343.625498 
L 373.306155 346.039361 
L 430.724943 347.414977 
L 488.143731 348.216487 
L 545.562519 348.804927 
L 602.981307 300.943533 
L 660.400095 331.441893 
L 717.818883 304.423309 
L 775.23767 342.189763 
L 832.656458 347.704525 
L 890.075246 353.12034 
L 947.494034 353.015093 
" style="fill:none;stroke:#d9534f;stroke-linecap:square;"/>
   </g>
   <g id="line2d_85">
    <path clip-path="url(#p46aca564b3)" d="M 86.212216 300.674338 
L 143.631004 323.697614 
L 201.049792 332.748025 
L 258.46858 339.213245 
L 315.887367 343.175952 
L 373.306155 345.108802 
L 430.724943 346.719888 
L 488.143731 347.562995 
L 545.562519 348.473911 
L 602.981307 294.766189 
L 660.400095 332.262139 
L 717.818883 305.249166 
L 775.23767 334.985647 
L 832.656458 333.51004 
L 890.075246 352.391871 
L 947.494034 353.074576 
" style="fill:none;stroke:#d9534f;stroke-linecap:square;"/>
   </g>
   <g id="line2d_86">
    <path clip-path="url(#p46aca564b3)" d="M 86.212216 287.928204 
L 143.631004 323.297059 
L 201.049792 333.175527 
L 258.46858 339.379914 
L 315.887367 342.736761 
L 373.306155 345.155936 
L 430.724943 346.887774 
L 488.143731 348.185278 
L 545.562519 348.54309 
L 602.981307 298.268237 
L 660.400095 332.462338 
L 717.818883 303.270476 
L 775.23767 337.200995 
L 832.656458 341.597061 
L 890.075246 352.618425 
L 947.494034 352.907326 
" style="fill:none;stroke:#d9534f;stroke-linecap:square;"/>
   </g>
   <g id="line2d_87">
    <path clip-path="url(#p46aca564b3)" d="M 86.212216 299.763684 
L 143.631004 321.789501 
L 201.049792 331.124027 
L 258.46858 338.345558 
L 315.887367 341.971875 
L 373.306155 344.564889 
L 430.724943 346.446578 
L 488.143731 347.468243 
L 545.562519 348.182109 
L 602.981307 294.114884 
L 660.400095 332.58019 
L 717.818883 305.981805 
L 775.23767 335.949392 
L 832.656458 339.055632 
L 890.075246 353.052133 
L 947.494034 353.2239 
" style="fill:none;stroke:#d9534f;stroke-linecap:square;"/>
   </g>
   <g id="line2d_88">
    <path clip-path="url(#p46aca564b3)" d="M 86.212216 287.534376 
L 143.631004 321.51877 
L 201.049792 331.143781 
L 258.46858 338.453039 
L 315.887367 342.172416 
L 373.306155 345.128558 
L 430.724943 346.638481 
L 488.143731 347.7587 
L 545.562519 348.352248 
L 602.981307 297.421501 
L 660.400095 331.790782 
L 717.818883 304.785523 
L 775.23767 340.18743 
L 832.656458 344.943648 
L 890.075246 352.893885 
L 947.494034 352.891264 
" style="fill:none;stroke:#d9534f;stroke-linecap:square;"/>
   </g>
   <g id="line2d_89">
    <path clip-path="url(#p46aca564b3)" d="M 86.212216 297.929808 
L 143.631004 321.872738 
L 201.049792 331.724945 
L 258.46858 337.905194 
L 315.887367 341.956017 
L 373.306155 344.419213 
L 430.724943 346.099756 
L 488.143731 347.224384 
L 545.562519 348.190132 
L 602.981307 289.413427 
L 660.400095 331.477792 
L 717.818883 309.582285 
L 775.23767 339.69677 
L 832.656458 340.228402 
L 890.075246 352.669638 
L 947.494034 353.2239 
" style="fill:none;stroke:#d9534f;stroke-linecap:square;"/>
   </g>
   <g id="line2d_90">
    <path clip-path="url(#p46aca564b3)" d="M 86.212216 282.869019 
L 143.631004 320.376242 
L 201.049792 331.501846 
L 258.46858 337.973298 
L 315.887367 342.335406 
L 373.306155 344.85591 
L 430.724943 346.613111 
L 488.143731 347.654753 
L 545.562519 348.392474 
L 602.981307 293.551726 
L 660.400095 332.415684 
L 717.818883 311.685338 
L 775.23767 342.047824 
L 832.656458 345.717059 
L 890.075246 352.742563 
L 947.494034 352.882147 
" style="fill:none;stroke:#d9534f;stroke-linecap:square;"/>
   </g>
   <g id="line2d_91">
    <path clip-path="url(#p46aca564b3)" d="M 86.212216 299.384417 
L 143.631004 323.373609 
L 201.049792 331.682545 
L 258.46858 337.784378 
L 315.887367 341.959719 
L 373.306155 344.083104 
L 430.724943 346.109768 
L 488.143731 347.34341 
L 545.562519 348.227996 
L 602.981307 290.931567 
L 660.400095 331.480515 
L 717.818883 306.083888 
L 775.23767 338.663671 
L 832.656458 340.923291 
L 890.075246 352.5288 
L 947.494034 353.053724 
" style="fill:none;stroke:#d9534f;stroke-linecap:square;"/>
   </g>
   <g id="line2d_92">
    <path clip-path="url(#p46aca564b3)" d="M 86.212216 284.545495 
L 143.631004 322.675936 
L 201.049792 331.854247 
L 258.46858 338.138612 
L 315.887367 341.958732 
L 373.306155 344.703781 
L 430.724943 346.155265 
L 488.143731 347.63233 
L 545.562519 348.373937 
L 602.981307 294.704472 
L 660.400095 331.479417 
L 717.818883 307.962944 
L 775.23767 341.864722 
L 832.656458 345.988047 
L 890.075246 352.670578 
L 947.494034 352.905885 
" style="fill:none;stroke:#d9534f;stroke-linecap:square;"/>
   </g>
   <g id="line2d_93">
    <path clip-path="url(#p46aca564b3)" d="M 86.212216 284.158928 
L 143.631004 319.680418 
L 201.049792 331.308604 
L 258.46858 337.993991 
L 315.887367 342.380396 
L 373.306155 344.358649 
L 430.724943 346.084516 
L 488.143731 347.134935 
L 545.562519 348.040421 
L 602.981307 291.394623 
L 660.400095 333.150068 
L 717.818883 314.804948 
L 775.23767 342.623463 
L 832.656458 344.363193 
L 890.075246 352.913347 
L 947.494034 353.2239 
" style="fill:none;stroke:#d9534f;stroke-linecap:square;"/>
   </g>
   <g id="line2d_94">
    <path clip-path="url(#p46aca564b3)" d="M 86.212216 272.325965 
L 143.631004 318.342805 
L 201.049792 331.216097 
L 258.46858 337.769701 
L 315.887367 342.225402 
L 373.306155 344.279968 
L 430.724943 346.258825 
L 488.143731 347.22629 
L 545.562519 348.312514 
L 602.981307 295.770026 
L 660.400095 333.566354 
L 717.818883 317.811975 
L 775.23767 344.908798 
L 832.656458 347.862885 
L 890.075246 352.814364 
L 947.494034 352.922431 
" style="fill:none;stroke:#d9534f;stroke-linecap:square;"/>
   </g>
   <g id="line2d_95">
    <path clip-path="url(#p46aca564b3)" d="M 86.212216 307.682586 
L 143.631004 321.871069 
L 201.049792 326.297735 
L 258.46858 330.888153 
L 315.887367 335.448343 
L 373.306155 339.795851 
L 430.724943 342.544898 
L 488.143731 344.866566 
L 545.562519 346.118755 
L 602.981307 286.257176 
L 660.400095 334.172351 
L 717.818883 319.219857 
L 775.23767 345.310268 
L 832.656458 346.692994 
L 890.075246 353.2239 
L 947.494034 353.2239 
" style="fill:none;stroke:#d9534f;stroke-linecap:square;"/>
   </g>
   <g id="line2d_96">
    <path clip-path="url(#p46aca564b3)" d="M 86.212216 285.714609 
L 143.631004 321.988854 
L 201.049792 326.630106 
L 258.46858 331.757103 
L 315.887367 336.53816 
L 373.306155 340.238308 
L 430.724943 343.419527 
L 488.143731 345.399003 
L 545.562519 347.215166 
L 602.981307 292.943331 
L 660.400095 335.541404 
L 717.818883 324.059734 
L 775.23767 346.952508 
L 832.656458 349.442894 
L 890.075246 353.113069 
L 947.494034 352.660623 
" style="fill:none;stroke:#d9534f;stroke-linecap:square;"/>
   </g>
   <g id="line2d_97">
    <path clip-path="url(#p46aca564b3)" d="M 86.212216 319.899548 
L 143.631004 329.534757 
L 201.049792 331.931551 
L 258.46858 335.063785 
L 315.887367 338.509588 
L 373.306155 341.339361 
L 430.724943 343.626837 
L 488.143731 345.395074 
L 545.562519 346.675517 
L 602.981307 282.874559 
L 660.400095 331.204076 
L 717.818883 306.903766 
L 775.23767 337.599069 
L 832.656458 338.15796 
L 890.075246 352.077499 
L 947.494034 352.821452 
" style="fill:none;stroke:#d9534f;stroke-linecap:square;"/>
   </g>
   <g id="line2d_98">
    <path clip-path="url(#p46aca564b3)" d="M 86.212216 308.803664 
L 143.631004 328.942081 
L 201.049792 331.857107 
L 258.46858 334.67293 
L 315.887367 338.586026 
L 373.306155 341.633538 
L 430.724943 343.548152 
L 488.143731 345.416141 
L 545.562519 346.684511 
L 602.981307 285.325257 
L 660.400095 331.382816 
L 717.818883 309.004958 
L 775.23767 339.863873 
L 832.656458 342.869376 
L 890.075246 352.209573 
L 947.494034 352.814398 
" style="fill:none;stroke:#d9534f;stroke-linecap:square;"/>
   </g>
   <g id="line2d_99">
    <path clip-path="url(#p46aca564b3)" d="M 86.212216 307.234493 
L 143.631004 321.449925 
L 201.049792 328.674674 
L 258.46858 334.817867 
L 315.887367 339.771547 
L 373.306155 343.432139 
L 430.724943 345.145985 
L 488.143731 346.850005 
L 545.562519 347.648043 
L 602.981307 288.996304 
L 660.400095 331.839776 
L 717.818883 308.634139 
L 775.23767 340.045547 
L 832.656458 342.972974 
L 890.075246 352.877083 
L 947.494034 353.2239 
" style="fill:none;stroke:#d9534f;stroke-linecap:square;"/>
   </g>
   <g id="line2d_100">
    <path clip-path="url(#p46aca564b3)" d="M 86.212216 294.504288 
L 143.631004 321.526388 
L 201.049792 328.762692 
L 258.46858 335.209934 
L 315.887367 340.101591 
L 373.306155 343.094795 
L 430.724943 345.453261 
L 488.143731 346.740542 
L 545.562519 348.020539 
L 602.981307 292.836915 
L 660.400095 331.746566 
L 717.818883 310.440938 
L 775.23767 342.530019 
L 832.656458 346.758644 
L 890.075246 352.913111 
L 947.494034 352.974177 
" style="fill:none;stroke:#d9534f;stroke-linecap:square;"/>
   </g>
   <g id="line2d_101">
    <path clip-path="url(#p46aca564b3)" d="M 86.212216 286.218982 
L 143.631004 318.61516 
L 201.049792 331.166015 
L 258.46858 337.712893 
L 315.887367 342.090114 
L 373.306155 344.494143 
L 430.724943 345.720719 
L 488.143731 347.393643 
L 545.562519 348.29381 
L 602.981307 292.055382 
L 660.400095 332.30596 
L 717.818883 313.292437 
L 775.23767 342.714485 
L 832.656458 345.646655 
L 890.075246 353.125962 
L 947.494034 352.768041 
" style="fill:none;stroke:#d9534f;stroke-linecap:square;"/>
   </g>
   <g id="line2d_102">
    <path clip-path="url(#p46aca564b3)" d="M 86.212216 272.75367 
L 143.631004 317.965475 
L 201.049792 330.557745 
L 258.46858 337.795126 
L 315.887367 342.043899 
L 373.306155 344.98962 
L 430.724943 346.349637 
L 488.143731 347.484655 
L 545.562519 348.375155 
L 602.981307 295.589242 
L 660.400095 332.975292 
L 717.818883 317.175766 
L 775.23767 345.471754 
L 832.656458 348.237694 
L 890.075246 353.031553 
L 947.494034 352.818116 
" style="fill:none;stroke:#d9534f;stroke-linecap:square;"/>
   </g>
   <g id="line2d_103">
    <path clip-path="url(#p46aca564b3)" d="M 86.212216 279.594457 
L 143.631004 319.696936 
L 201.049792 332.90169 
L 258.46858 338.996079 
L 315.887367 342.415484 
L 373.306155 345.182525 
L 430.724943 346.622994 
L 488.143731 347.334117 
L 545.562519 348.433767 
L 602.981307 294.113616 
L 660.400095 333.13935 
L 717.818883 311.189559 
L 775.23767 342.02378 
L 832.656458 345.635191 
L 890.075246 353.110956 
L 947.494034 353.2239 
" style="fill:none;stroke:#d9534f;stroke-linecap:square;"/>
   </g>
   <g id="line2d_104">
    <path clip-path="url(#p46aca564b3)" d="M 86.212216 267.272294 
L 143.631004 318.802362 
L 201.049792 332.403673 
L 258.46858 339.226587 
L 315.887367 342.932384 
L 373.306155 345.229895 
L 430.724943 347.035022 
L 488.143731 347.856044 
L 545.562519 348.892318 
L 602.981307 297.409777 
L 660.400095 332.730327 
L 717.818883 314.03417 
L 775.23767 345.143858 
L 832.656458 348.81697 
L 890.075246 352.898445 
L 947.494034 352.930273 
" style="fill:none;stroke:#d9534f;stroke-linecap:square;"/>
   </g>
   <g id="line2d_105">
    <path clip-path="url(#p46aca564b3)" d="M 86.212216 283.615582 
L 143.631004 321.335779 
L 201.049792 333.875531 
L 258.46858 339.834481 
L 315.887367 343.143019 
L 373.306155 345.762553 
L 430.724943 347.227385 
L 488.143731 348.092812 
L 545.562519 348.686074 
L 602.981307 299.134719 
L 660.400095 334.007834 
L 717.818883 309.748905 
L 775.23767 336.957257 
L 832.656458 336.890194 
L 890.075246 352.078374 
L 947.494034 353.2239 
" style="fill:none;stroke:#d9534f;stroke-linecap:square;"/>
   </g>
   <g id="line2d_106">
    <path clip-path="url(#p46aca564b3)" d="M 86.212216 274.253287 
L 143.631004 320.321524 
L 201.049792 333.338619 
L 258.46858 340.143222 
L 315.887367 343.883851 
L 373.306155 345.854114 
L 430.724943 347.211541 
L 488.143731 348.059909 
L 545.562519 348.958383 
L 602.981307 301.645216 
L 660.400095 333.635406 
L 717.818883 308.131636 
L 775.23767 339.032023 
L 832.656458 343.246944 
L 890.075246 352.674825 
L 947.494034 353.2239 
" style="fill:none;stroke:#d9534f;stroke-linecap:square;"/>
   </g>
   <g id="line2d_107">
    <path clip-path="url(#p46aca564b3)" d="M 86.212216 287.270812 
L 143.631004 322.699721 
L 201.049792 333.856076 
L 258.46858 339.374267 
L 315.887367 343.145004 
L 373.306155 345.130855 
L 430.724943 346.539721 
L 488.143731 347.731127 
L 545.562519 348.359114 
L 602.981307 293.567616 
L 660.400095 332.387254 
L 717.818883 307.923211 
L 775.23767 338.848863 
L 832.656458 340.799372 
L 890.075246 352.757487 
L 947.494034 353.2239 
" style="fill:none;stroke:#d9534f;stroke-linecap:square;"/>
   </g>
   <g id="line2d_108">
    <path clip-path="url(#p46aca564b3)" d="M 86.212216 275.706683 
L 143.631004 321.24795 
L 201.049792 333.048078 
L 258.46858 339.328701 
L 315.887367 343.009718 
L 373.306155 345.293775 
L 430.724943 346.844821 
L 488.143731 348.005339 
L 545.562519 348.520839 
L 602.981307 297.27714 
L 660.400095 332.284546 
L 717.818883 308.840416 
L 775.23767 342.290442 
L 832.656458 345.946953 
L 890.075246 352.911491 
L 947.494034 353.057509 
" style="fill:none;stroke:#d9534f;stroke-linecap:square;"/>
   </g>
   <g id="line2d_109">
    <path clip-path="url(#p46aca564b3)" d="M 86.212216 302.021337 
L 143.631004 320.667469 
L 201.049792 330.188775 
L 258.46858 336.40301 
L 315.887367 340.955976 
L 373.306155 343.980036 
L 430.724943 345.664009 
L 488.143731 346.926618 
L 545.562519 347.811561 
L 602.981307 291.412048 
L 660.400095 332.790491 
L 717.818883 308.65511 
L 775.23767 338.885207 
L 832.656458 341.197618 
L 890.075246 352.831234 
L 947.494034 353.2239 
" style="fill:none;stroke:#d9534f;stroke-linecap:square;"/>
   </g>
   <g id="line2d_110">
    <path clip-path="url(#p46aca564b3)" d="M 86.212216 288.975039 
L 143.631004 320.348509 
L 201.049792 329.992759 
L 258.46858 336.184423 
L 315.887367 341.115309 
L 373.306155 343.827736 
L 430.724943 345.920168 
L 488.143731 347.28014 
L 545.562519 348.430894 
L 602.981307 294.96409 
L 660.400095 332.438963 
L 717.818883 310.539295 
L 775.23767 341.990684 
L 832.656458 346.034185 
L 890.075246 352.842678 
L 947.494034 352.729529 
" style="fill:none;stroke:#d9534f;stroke-linecap:square;"/>
   </g>
   <g id="line2d_111">
    <path clip-path="url(#p46aca564b3)" d="M 86.212216 286.64311 
L 143.631004 320.615417 
L 201.049792 332.215856 
L 258.46858 338.437603 
L 315.887367 342.398079 
L 373.306155 344.957178 
L 430.724943 346.711256 
L 488.143731 347.368496 
L 545.562519 348.256826 
L 602.981307 293.417005 
L 660.400095 332.370303 
L 717.818883 310.354605 
L 775.23767 340.44263 
L 832.656458 343.676931 
L 890.075246 353.032002 
L 947.494034 352.717103 
" style="fill:none;stroke:#d9534f;stroke-linecap:square;"/>
   </g>
   <g id="line2d_112">
    <path clip-path="url(#p46aca564b3)" d="M 86.212216 273.919469 
L 143.631004 319.692498 
L 201.049792 331.649348 
L 258.46858 338.491879 
L 315.887367 342.635207 
L 373.306155 345.019685 
L 430.724943 346.812899 
L 488.143731 347.966609 
L 545.562519 348.751292 
L 602.981307 296.646412 
L 660.400095 332.506084 
L 717.818883 312.084092 
L 775.23767 343.900916 
L 832.656458 347.624511 
L 890.075246 353.03464 
L 947.494034 352.878858 
" style="fill:none;stroke:#d9534f;stroke-linecap:square;"/>
   </g>
   <g id="line2d_113">
    <path clip-path="url(#p46aca564b3)" d="M 86.212216 301.248133 
L 143.631004 321.276347 
L 201.049792 331.453457 
L 258.46858 337.440396 
L 315.887367 341.174622 
L 373.306155 343.821708 
L 430.724943 345.635994 
L 488.143731 346.907586 
L 545.562519 347.893902 
L 602.981307 289.333708 
L 660.400095 331.812978 
L 717.818883 309.818829 
L 775.23767 339.357789 
L 832.656458 340.718403 
L 890.075246 352.49665 
L 947.494034 353.2239 
" style="fill:none;stroke:#d9534f;stroke-linecap:square;"/>
   </g>
   <g id="line2d_114">
    <path clip-path="url(#p46aca564b3)" d="M 86.212216 288.912085 
L 143.631004 321.120774 
L 201.049792 330.357926 
L 258.46858 336.871826 
L 315.887367 341.769349 
L 373.306155 344.075328 
L 430.724943 345.623126 
L 488.143731 347.068702 
L 545.562519 348.03687 
L 602.981307 292.815887 
L 660.400095 331.835752 
L 717.818883 312.316232 
L 775.23767 342.048965 
L 832.656458 345.262766 
L 890.075246 352.626986 
L 947.494034 352.871826 
" style="fill:none;stroke:#d9534f;stroke-linecap:square;"/>
   </g>
   <g id="line2d_115">
    <path clip-path="url(#p46aca564b3)" d="M 86.212216 291.375504 
L 143.631004 320.848741 
L 201.049792 331.912549 
L 258.46858 338.13306 
L 315.887367 341.784844 
L 373.306155 344.474617 
L 430.724943 345.763529 
L 488.143731 347.090665 
L 545.562519 347.970963 
L 602.981307 290.944613 
L 660.400095 333.107892 
L 717.818883 311.332564 
L 775.23767 340.015711 
L 832.656458 342.714628 
L 890.075246 352.920621 
L 947.494034 353.2239 
" style="fill:none;stroke:#d9534f;stroke-linecap:square;"/>
   </g>
   <g id="line2d_116">
    <path clip-path="url(#p46aca564b3)" d="M 86.212216 280.283494 
L 143.631004 320.388243 
L 201.049792 331.146362 
L 258.46858 337.804367 
L 315.887367 341.681224 
L 373.306155 344.340394 
L 430.724943 346.057339 
L 488.143731 347.207431 
L 545.562519 348.367125 
L 602.981307 294.467465 
L 660.400095 333.605235 
L 717.818883 312.069852 
L 775.23767 343.102459 
L 832.656458 347.180837 
L 890.075246 352.688672 
L 947.494034 353.2239 
" style="fill:none;stroke:#d9534f;stroke-linecap:square;"/>
   </g>
   <g id="line2d_117">
    <path clip-path="url(#p46aca564b3)" d="M 86.212216 293.797153 
L 143.631004 321.194957 
L 201.049792 331.537862 
L 258.46858 338.011432 
L 315.887367 341.845321 
L 373.306155 344.516673 
L 430.724943 346.023603 
L 488.143731 347.244144 
L 545.562519 348.031948 
L 602.981307 289.996881 
L 660.400095 332.5077 
L 717.818883 311.602684 
L 775.23767 339.981944 
L 832.656458 341.368123 
L 890.075246 352.730076 
L 947.494034 353.2239 
" style="fill:none;stroke:#d9534f;stroke-linecap:square;"/>
   </g>
   <g id="line2d_118">
    <path clip-path="url(#p46aca564b3)" d="M 86.212216 275.370249 
L 143.631004 320.302065 
L 201.049792 331.285172 
L 258.46858 338.098851 
L 315.887367 341.797209 
L 373.306155 344.577765 
L 430.724943 346.395796 
L 488.143731 347.632103 
L 545.562519 348.304788 
L 602.981307 296.19145 
L 660.400095 333.651159 
L 717.818883 313.988068 
L 775.23767 343.509964 
L 832.656458 346.508448 
L 890.075246 353.036576 
L 947.494034 352.964737 
" style="fill:none;stroke:#d9534f;stroke-linecap:square;"/>
   </g>
   <g id="line2d_119">
    <path clip-path="url(#p46aca564b3)" d="M 86.212216 290.179107 
L 143.631004 318.216751 
L 201.049792 329.250139 
L 258.46858 336.300637 
L 315.887367 340.602752 
L 373.306155 343.985186 
L 430.724943 345.828126 
L 488.143731 347.002457 
L 545.562519 348.088389 
L 602.981307 292.842493 
L 660.400095 333.910672 
L 717.818883 314.015926 
L 775.23767 342.062223 
L 832.656458 344.881744 
L 890.075246 353.2239 
L 947.494034 353.2239 
" style="fill:none;stroke:#d9534f;stroke-linecap:square;"/>
   </g>
   <g id="line2d_120">
    <path clip-path="url(#p46aca564b3)" d="M 86.212216 275.820351 
L 143.631004 318.372898 
L 201.049792 329.368151 
L 258.46858 336.164051 
L 315.887367 341.191526 
L 373.306155 344.333874 
L 430.724943 345.958604 
L 488.143731 347.342655 
L 545.562519 348.298786 
L 602.981307 296.987225 
L 660.400095 334.252408 
L 717.818883 316.530609 
L 775.23767 344.697635 
L 832.656458 348.290907 
L 890.075246 353.135067 
L 947.494034 352.869653 
" style="fill:none;stroke:#d9534f;stroke-linecap:square;"/>
   </g>
   <g id="line2d_121">
    <path clip-path="url(#p46aca564b3)" d="M 86.212216 288.050602 
L 143.631004 318.969008 
L 201.049792 330.83584 
L 258.46858 337.778981 
L 315.887367 341.797834 
L 373.306155 344.097851 
L 430.724943 346.10312 
L 488.143731 347.268646 
L 545.562519 348.163991 
L 602.981307 292.160273 
L 660.400095 333.333811 
L 717.818883 313.17109 
L 775.23767 341.650489 
L 832.656458 343.962752 
L 890.075246 353.04621 
L 947.494034 353.2239 
" style="fill:none;stroke:#d9534f;stroke-linecap:square;"/>
   </g>
   <g id="line2d_122">
    <path clip-path="url(#p46aca564b3)" d="M 86.212216 273.259893 
L 143.631004 318.428753 
L 201.049792 330.529217 
L 258.46858 337.759586 
L 315.887367 342.024553 
L 373.306155 344.577566 
L 430.724943 346.131201 
L 488.143731 347.61377 
L 545.562519 348.30642 
L 602.981307 296.604287 
L 660.400095 334.250996 
L 717.818883 315.558999 
L 775.23767 344.464488 
L 832.656458 348.046991 
L 890.075246 353.035013 
L 947.494034 353.022666 
" style="fill:none;stroke:#d9534f;stroke-linecap:square;"/>
   </g>
   <g id="line2d_123">
    <path clip-path="url(#p46aca564b3)" d="M 86.212216 283.952734 
L 143.631004 316.220375 
L 201.049792 329.166834 
L 258.46858 336.492107 
L 315.887367 341.421191 
L 373.306155 343.982627 
L 430.724943 345.593168 
L 488.143731 347.047429 
L 545.562519 347.963846 
L 602.981307 292.862852 
L 660.400095 334.109131 
L 717.818883 316.280816 
L 775.23767 344.034345 
L 832.656458 348.140089 
L 890.075246 353.122956 
L 947.494034 353.2239 
" style="fill:none;stroke:#d9534f;stroke-linecap:square;"/>
   </g>
   <g id="line2d_124">
    <path clip-path="url(#p46aca564b3)" d="M 86.212216 274.774291 
L 143.631004 314.983125 
L 201.049792 328.250014 
L 258.46858 336.456082 
L 315.887367 341.325083 
L 373.306155 344.383863 
L 430.724943 346.044978 
L 488.143731 347.326714 
L 545.562519 348.243169 
L 602.981307 296.59087 
L 660.400095 333.262664 
L 717.818883 318.322777 
L 775.23767 347.41644 
L 832.656458 349.897904 
L 890.075246 353.112525 
L 947.494034 353.2239 
" style="fill:none;stroke:#d9534f;stroke-linecap:square;"/>
   </g>
   <g id="line2d_125">
    <path clip-path="url(#p46aca564b3)" d="M 43.148125 353.2239 
L 990.558125 353.2239 
" style="fill:none;stroke:#dedede;stroke-linecap:square;stroke-width:2;"/>
   </g>
   <g id="text_25">
    <!-- FastQC: Sequence Duplication Levels -->
    <defs>
     <path d="M 9.8125 72.90625 
L 51.703125 72.90625 
L 51.703125 64.59375 
L 19.671875 64.59375 
L 19.671875 43.109375 
L 48.578125 43.109375 
L 48.578125 34.8125 
L 19.671875 34.8125 
L 19.671875 0 
L 9.8125 0 
z
" id="DejaVuSans-70"/>
     <path d="M 44.28125 53.078125 
L 44.28125 44.578125 
Q 40.484375 46.53125 36.375 47.5 
Q 32.28125 48.484375 27.875 48.484375 
Q 21.1875 48.484375 17.84375 46.4375 
Q 14.5 44.390625 14.5 40.28125 
Q 14.5 37.15625 16.890625 35.375 
Q 19.28125 33.59375 26.515625 31.984375 
L 29.59375 31.296875 
Q 39.15625 29.25 43.1875 25.515625 
Q 47.21875 21.78125 47.21875 15.09375 
Q 47.21875 7.46875 41.1875 3.015625 
Q 35.15625 -1.421875 24.609375 -1.421875 
Q 20.21875 -1.421875 15.453125 -0.5625 
Q 10.6875 0.296875 5.421875 2 
L 5.421875 11.28125 
Q 10.40625 8.6875 15.234375 7.390625 
Q 20.0625 6.109375 24.8125 6.109375 
Q 31.15625 6.109375 34.5625 8.28125 
Q 37.984375 10.453125 37.984375 14.40625 
Q 37.984375 18.0625 35.515625 20.015625 
Q 33.0625 21.96875 24.703125 23.78125 
L 21.578125 24.515625 
Q 13.234375 26.265625 9.515625 29.90625 
Q 5.8125 33.546875 5.8125 39.890625 
Q 5.8125 47.609375 11.28125 51.796875 
Q 16.75 56 26.8125 56 
Q 31.78125 56 36.171875 55.265625 
Q 40.578125 54.546875 44.28125 53.078125 
z
" id="DejaVuSans-115"/>
     <path d="M 39.40625 66.21875 
Q 28.65625 66.21875 22.328125 58.203125 
Q 16.015625 50.203125 16.015625 36.375 
Q 16.015625 22.609375 22.328125 14.59375 
Q 28.65625 6.59375 39.40625 6.59375 
Q 50.140625 6.59375 56.421875 14.59375 
Q 62.703125 22.609375 62.703125 36.375 
Q 62.703125 50.203125 56.421875 58.203125 
Q 50.140625 66.21875 39.40625 66.21875 
z
M 53.21875 1.3125 
L 66.21875 -12.890625 
L 54.296875 -12.890625 
L 43.5 -1.21875 
Q 41.890625 -1.3125 41.03125 -1.359375 
Q 40.1875 -1.421875 39.40625 -1.421875 
Q 24.03125 -1.421875 14.8125 8.859375 
Q 5.609375 19.140625 5.609375 36.375 
Q 5.609375 53.65625 14.8125 63.9375 
Q 24.03125 74.21875 39.40625 74.21875 
Q 54.734375 74.21875 63.90625 63.9375 
Q 73.09375 53.65625 73.09375 36.375 
Q 73.09375 23.6875 67.984375 14.640625 
Q 62.890625 5.609375 53.21875 1.3125 
z
" id="DejaVuSans-81"/>
     <path d="M 64.40625 67.28125 
L 64.40625 56.890625 
Q 59.421875 61.53125 53.78125 63.8125 
Q 48.140625 66.109375 41.796875 66.109375 
Q 29.296875 66.109375 22.65625 58.46875 
Q 16.015625 50.828125 16.015625 36.375 
Q 16.015625 21.96875 22.65625 14.328125 
Q 29.296875 6.6875 41.796875 6.6875 
Q 48.140625 6.6875 53.78125 8.984375 
Q 59.421875 11.28125 64.40625 15.921875 
L 64.40625 5.609375 
Q 59.234375 2.09375 53.4375 0.328125 
Q 47.65625 -1.421875 41.21875 -1.421875 
Q 24.65625 -1.421875 15.125 8.703125 
Q 5.609375 18.84375 5.609375 36.375 
Q 5.609375 53.953125 15.125 64.078125 
Q 24.65625 74.21875 41.21875 74.21875 
Q 47.75 74.21875 53.53125 72.484375 
Q 59.328125 70.75 64.40625 67.28125 
z
" id="DejaVuSans-67"/>
     <path d="M 11.71875 12.40625 
L 22.015625 12.40625 
L 22.015625 0 
L 11.71875 0 
z
M 11.71875 51.703125 
L 22.015625 51.703125 
L 22.015625 39.3125 
L 11.71875 39.3125 
z
" id="DejaVuSans-58"/>
    </defs>
    <g transform="translate(367.581875 19.3575)scale(0.16 -0.16)">
     <use xlink:href="#DejaVuSans-70"/>
     <use x="57.378906" xlink:href="#DejaVuSans-97"/>
     <use x="118.658203" xlink:href="#DejaVuSans-115"/>
     <use x="170.757812" xlink:href="#DejaVuSans-116"/>
     <use x="209.966797" xlink:href="#DejaVuSans-81"/>
     <use x="288.677734" xlink:href="#DejaVuSans-67"/>
     <use x="358.501953" xlink:href="#DejaVuSans-58"/>
     <use x="392.193359" xlink:href="#DejaVuSans-32"/>
     <use x="423.980469" xlink:href="#DejaVuSans-83"/>
     <use x="487.457031" xlink:href="#DejaVuSans-101"/>
     <use x="548.980469" xlink:href="#DejaVuSans-113"/>
     <use x="612.457031" xlink:href="#DejaVuSans-117"/>
     <use x="675.835938" xlink:href="#DejaVuSans-101"/>
     <use x="737.359375" xlink:href="#DejaVuSans-110"/>
     <use x="800.738281" xlink:href="#DejaVuSans-99"/>
     <use x="855.71875" xlink:href="#DejaVuSans-101"/>
     <use x="917.242188" xlink:href="#DejaVuSans-32"/>
     <use x="949.029297" xlink:href="#DejaVuSans-68"/>
     <use x="1026.03125" xlink:href="#DejaVuSans-117"/>
     <use x="1089.410156" xlink:href="#DejaVuSans-112"/>
     <use x="1152.886719" xlink:href="#DejaVuSans-108"/>
     <use x="1180.669922" xlink:href="#DejaVuSans-105"/>
     <use x="1208.453125" xlink:href="#DejaVuSans-99"/>
     <use x="1263.433594" xlink:href="#DejaVuSans-97"/>
     <use x="1324.712891" xlink:href="#DejaVuSans-116"/>
     <use x="1363.921875" xlink:href="#DejaVuSans-105"/>
     <use x="1391.705078" xlink:href="#DejaVuSans-111"/>
     <use x="1452.886719" xlink:href="#DejaVuSans-110"/>
     <use x="1516.265625" xlink:href="#DejaVuSans-32"/>
     <use x="1548.052734" xlink:href="#DejaVuSans-76"/>
     <use x="1603.75" xlink:href="#DejaVuSans-101"/>
     <use x="1665.273438" xlink:href="#DejaVuSans-118"/>
     <use x="1724.453125" xlink:href="#DejaVuSans-101"/>
     <use x="1785.976562" xlink:href="#DejaVuSans-108"/>
     <use x="1813.759766" xlink:href="#DejaVuSans-115"/>
    </g>
   </g>
  </g>
 </g>
 <defs>
  <clipPath id="p46aca564b3">
   <rect height="317.968" width="947.41" x="43.148125" y="35.2559"/>
  </clipPath>
 </defs>
</svg>
