<?xml version="1.0" encoding="utf-8" standalone="no"?>
<!DOCTYPE svg PUBLIC "-//W3C//DTD SVG 1.1//EN"
  "http://www.w3.org/Graphics/SVG/1.1/DTD/svg11.dtd">
<!-- Created with matplotlib (https://matplotlib.org/) -->
<svg height="1519.216522pt" version="1.1" viewBox="0 0 832.4175 1519.216522" width="832.4175pt" xmlns="http://www.w3.org/2000/svg" xmlns:xlink="http://www.w3.org/1999/xlink">
 <defs>
  <style type="text/css">
*{stroke-linecap:butt;stroke-linejoin:round;}
  </style>
 </defs>
 <g id="figure_1">
  <g id="patch_1">
   <path d="M 0 1519.216522 
L 832.4175 1519.216522 
L 832.4175 -0 
L 0 -0 
z
" style="fill:#ffffff;"/>
  </g>
  <g id="axes_1">
   <g id="patch_2">
    <path d="M 40.5175 1432.856522 
L 821.7175 1432.856522 
L 821.7175 10.7 
L 40.5175 10.7 
z
" style="fill:#ffffff;"/>
   </g>
   <g id="matplotlib.axis_1">
    <g id="xtick_1">
     <g id="line2d_1">
      <path clip-path="url(#p90d8e74b9a)" d="M 40.5175 1432.856522 
L 40.5175 10.7 
" style="fill:none;stroke:#dedede;stroke-linecap:square;"/>
     </g>
     <g id="text_1">
      <!-- 0.0 -->
      <defs>
       <path d="M 31.78125 66.40625 
Q 24.171875 66.40625 20.328125 58.90625 
Q 16.5 51.421875 16.5 36.375 
Q 16.5 21.390625 20.328125 13.890625 
Q 24.171875 6.390625 31.78125 6.390625 
Q 39.453125 6.390625 43.28125 13.890625 
Q 47.125 21.390625 47.125 36.375 
Q 47.125 51.421875 43.28125 58.90625 
Q 39.453125 66.40625 31.78125 66.40625 
z
M 31.78125 74.21875 
Q 44.046875 74.21875 50.515625 64.515625 
Q 56.984375 54.828125 56.984375 36.375 
Q 56.984375 17.96875 50.515625 8.265625 
Q 44.046875 -1.421875 31.78125 -1.421875 
Q 19.53125 -1.421875 13.0625 8.265625 
Q 6.59375 17.96875 6.59375 36.375 
Q 6.59375 54.828125 13.0625 64.515625 
Q 19.53125 74.21875 31.78125 74.21875 
z
" id="DejaVuSans-48"/>
       <path d="M 10.6875 12.40625 
L 21 12.40625 
L 21 0 
L 10.6875 0 
z
" id="DejaVuSans-46"/>
      </defs>
      <g transform="translate(34.15625 1445.935272)scale(0.08 -0.08)">
       <use xlink:href="#DejaVuSans-48"/>
       <use x="63.623047" xlink:href="#DejaVuSans-46"/>
       <use x="95.410156" xlink:href="#DejaVuSans-48"/>
      </g>
     </g>
    </g>
    <g id="xtick_2">
     <g id="line2d_2">
      <path clip-path="url(#p90d8e74b9a)" d="M 143.729639 1432.856522 
L 143.729639 10.7 
" style="fill:none;stroke:#dedede;stroke-linecap:square;"/>
     </g>
     <g id="text_2">
      <!-- 0.5 -->
      <defs>
       <path d="M 10.796875 72.90625 
L 49.515625 72.90625 
L 49.515625 64.59375 
L 19.828125 64.59375 
L 19.828125 46.734375 
Q 21.96875 47.46875 24.109375 47.828125 
Q 26.265625 48.1875 28.421875 48.1875 
Q 40.625 48.1875 47.75 41.5 
Q 54.890625 34.8125 54.890625 23.390625 
Q 54.890625 11.625 47.5625 5.09375 
Q 40.234375 -1.421875 26.90625 -1.421875 
Q 22.3125 -1.421875 17.546875 -0.640625 
Q 12.796875 0.140625 7.71875 1.703125 
L 7.71875 11.625 
Q 12.109375 9.234375 16.796875 8.0625 
Q 21.484375 6.890625 26.703125 6.890625 
Q 35.15625 6.890625 40.078125 11.328125 
Q 45.015625 15.765625 45.015625 23.390625 
Q 45.015625 31 40.078125 35.4375 
Q 35.15625 39.890625 26.703125 39.890625 
Q 22.75 39.890625 18.8125 39.015625 
Q 14.890625 38.140625 10.796875 36.28125 
z
" id="DejaVuSans-53"/>
      </defs>
      <g transform="translate(137.368389 1445.935272)scale(0.08 -0.08)">
       <use xlink:href="#DejaVuSans-48"/>
       <use x="63.623047" xlink:href="#DejaVuSans-46"/>
       <use x="95.410156" xlink:href="#DejaVuSans-53"/>
      </g>
     </g>
    </g>
    <g id="xtick_3">
     <g id="line2d_3">
      <path clip-path="url(#p90d8e74b9a)" d="M 246.941779 1432.856522 
L 246.941779 10.7 
" style="fill:none;stroke:#dedede;stroke-linecap:square;"/>
     </g>
     <g id="text_3">
      <!-- 1.0 -->
      <defs>
       <path d="M 12.40625 8.296875 
L 28.515625 8.296875 
L 28.515625 63.921875 
L 10.984375 60.40625 
L 10.984375 69.390625 
L 28.421875 72.90625 
L 38.28125 72.90625 
L 38.28125 8.296875 
L 54.390625 8.296875 
L 54.390625 0 
L 12.40625 0 
z
" id="DejaVuSans-49"/>
      </defs>
      <g transform="translate(240.580529 1445.935272)scale(0.08 -0.08)">
       <use xlink:href="#DejaVuSans-49"/>
       <use x="63.623047" xlink:href="#DejaVuSans-46"/>
       <use x="95.410156" xlink:href="#DejaVuSans-48"/>
      </g>
     </g>
    </g>
    <g id="xtick_4">
     <g id="line2d_4">
      <path clip-path="url(#p90d8e74b9a)" d="M 350.153918 1432.856522 
L 350.153918 10.7 
" style="fill:none;stroke:#dedede;stroke-linecap:square;"/>
     </g>
     <g id="text_4">
      <!-- 1.5 -->
      <g transform="translate(343.792668 1445.935272)scale(0.08 -0.08)">
       <use xlink:href="#DejaVuSans-49"/>
       <use x="63.623047" xlink:href="#DejaVuSans-46"/>
       <use x="95.410156" xlink:href="#DejaVuSans-53"/>
      </g>
     </g>
    </g>
    <g id="xtick_5">
     <g id="line2d_5">
      <path clip-path="url(#p90d8e74b9a)" d="M 453.366057 1432.856522 
L 453.366057 10.7 
" style="fill:none;stroke:#dedede;stroke-linecap:square;"/>
     </g>
     <g id="text_5">
      <!-- 2.0 -->
      <defs>
       <path d="M 19.1875 8.296875 
L 53.609375 8.296875 
L 53.609375 0 
L 7.328125 0 
L 7.328125 8.296875 
Q 12.9375 14.109375 22.625 23.890625 
Q 32.328125 33.6875 34.8125 36.53125 
Q 39.546875 41.84375 41.421875 45.53125 
Q 43.3125 49.21875 43.3125 52.78125 
Q 43.3125 58.59375 39.234375 62.25 
Q 35.15625 65.921875 28.609375 65.921875 
Q 23.96875 65.921875 18.8125 64.3125 
Q 13.671875 62.703125 7.8125 59.421875 
L 7.8125 69.390625 
Q 13.765625 71.78125 18.9375 73 
Q 24.125 74.21875 28.421875 74.21875 
Q 39.75 74.21875 46.484375 68.546875 
Q 53.21875 62.890625 53.21875 53.421875 
Q 53.21875 48.921875 51.53125 44.890625 
Q 49.859375 40.875 45.40625 35.40625 
Q 44.1875 33.984375 37.640625 27.21875 
Q 31.109375 20.453125 19.1875 8.296875 
z
" id="DejaVuSans-50"/>
      </defs>
      <g transform="translate(447.004807 1445.935272)scale(0.08 -0.08)">
       <use xlink:href="#DejaVuSans-50"/>
       <use x="63.623047" xlink:href="#DejaVuSans-46"/>
       <use x="95.410156" xlink:href="#DejaVuSans-48"/>
      </g>
     </g>
    </g>
    <g id="xtick_6">
     <g id="line2d_6">
      <path clip-path="url(#p90d8e74b9a)" d="M 556.578197 1432.856522 
L 556.578197 10.7 
" style="fill:none;stroke:#dedede;stroke-linecap:square;"/>
     </g>
     <g id="text_6">
      <!-- 2.5 -->
      <g transform="translate(550.216947 1445.935272)scale(0.08 -0.08)">
       <use xlink:href="#DejaVuSans-50"/>
       <use x="63.623047" xlink:href="#DejaVuSans-46"/>
       <use x="95.410156" xlink:href="#DejaVuSans-53"/>
      </g>
     </g>
    </g>
    <g id="xtick_7">
     <g id="line2d_7">
      <path clip-path="url(#p90d8e74b9a)" d="M 659.790336 1432.856522 
L 659.790336 10.7 
" style="fill:none;stroke:#dedede;stroke-linecap:square;"/>
     </g>
     <g id="text_7">
      <!-- 3.0 -->
      <defs>
       <path d="M 40.578125 39.3125 
Q 47.65625 37.796875 51.625 33 
Q 55.609375 28.21875 55.609375 21.1875 
Q 55.609375 10.40625 48.1875 4.484375 
Q 40.765625 -1.421875 27.09375 -1.421875 
Q 22.515625 -1.421875 17.65625 -0.515625 
Q 12.796875 0.390625 7.625 2.203125 
L 7.625 11.71875 
Q 11.71875 9.328125 16.59375 8.109375 
Q 21.484375 6.890625 26.8125 6.890625 
Q 36.078125 6.890625 40.9375 10.546875 
Q 45.796875 14.203125 45.796875 21.1875 
Q 45.796875 27.640625 41.28125 31.265625 
Q 36.765625 34.90625 28.71875 34.90625 
L 20.21875 34.90625 
L 20.21875 43.015625 
L 29.109375 43.015625 
Q 36.375 43.015625 40.234375 45.921875 
Q 44.09375 48.828125 44.09375 54.296875 
Q 44.09375 59.90625 40.109375 62.90625 
Q 36.140625 65.921875 28.71875 65.921875 
Q 24.65625 65.921875 20.015625 65.03125 
Q 15.375 64.15625 9.8125 62.3125 
L 9.8125 71.09375 
Q 15.4375 72.65625 20.34375 73.4375 
Q 25.25 74.21875 29.59375 74.21875 
Q 40.828125 74.21875 47.359375 69.109375 
Q 53.90625 64.015625 53.90625 55.328125 
Q 53.90625 49.265625 50.4375 45.09375 
Q 46.96875 40.921875 40.578125 39.3125 
z
" id="DejaVuSans-51"/>
      </defs>
      <g transform="translate(653.429086 1445.935272)scale(0.08 -0.08)">
       <use xlink:href="#DejaVuSans-51"/>
       <use x="63.623047" xlink:href="#DejaVuSans-46"/>
       <use x="95.410156" xlink:href="#DejaVuSans-48"/>
      </g>
     </g>
    </g>
    <g id="xtick_8">
     <g id="line2d_8">
      <path clip-path="url(#p90d8e74b9a)" d="M 763.002475 1432.856522 
L 763.002475 10.7 
" style="fill:none;stroke:#dedede;stroke-linecap:square;"/>
     </g>
     <g id="text_8">
      <!-- 3.5 -->
      <g transform="translate(756.641225 1445.935272)scale(0.08 -0.08)">
       <use xlink:href="#DejaVuSans-51"/>
       <use x="63.623047" xlink:href="#DejaVuSans-46"/>
       <use x="95.410156" xlink:href="#DejaVuSans-53"/>
      </g>
     </g>
    </g>
    <g id="text_9">
     <!-- # Reads -->
     <defs>
      <path d="M 51.125 44 
L 36.921875 44 
L 32.8125 27.6875 
L 47.125 27.6875 
z
M 43.796875 71.78125 
L 38.71875 51.515625 
L 52.984375 51.515625 
L 58.109375 71.78125 
L 65.921875 71.78125 
L 60.890625 51.515625 
L 76.125 51.515625 
L 76.125 44 
L 58.984375 44 
L 54.984375 27.6875 
L 70.515625 27.6875 
L 70.515625 20.21875 
L 53.078125 20.21875 
L 48 0 
L 40.1875 0 
L 45.21875 20.21875 
L 30.90625 20.21875 
L 25.875 0 
L 18.015625 0 
L 23.09375 20.21875 
L 7.71875 20.21875 
L 7.71875 27.6875 
L 24.90625 27.6875 
L 29 44 
L 13.28125 44 
L 13.28125 51.515625 
L 30.90625 51.515625 
L 35.890625 71.78125 
z
" id="DejaVuSans-35"/>
      <path id="DejaVuSans-32"/>
      <path d="M 44.390625 34.1875 
Q 47.5625 33.109375 50.5625 29.59375 
Q 53.5625 26.078125 56.59375 19.921875 
L 66.609375 0 
L 56 0 
L 46.6875 18.703125 
Q 43.0625 26.03125 39.671875 28.421875 
Q 36.28125 30.8125 30.421875 30.8125 
L 19.671875 30.8125 
L 19.671875 0 
L 9.8125 0 
L 9.8125 72.90625 
L 32.078125 72.90625 
Q 44.578125 72.90625 50.734375 67.671875 
Q 56.890625 62.453125 56.890625 51.90625 
Q 56.890625 45.015625 53.6875 40.46875 
Q 50.484375 35.9375 44.390625 34.1875 
z
M 19.671875 64.796875 
L 19.671875 38.921875 
L 32.078125 38.921875 
Q 39.203125 38.921875 42.84375 42.21875 
Q 46.484375 45.515625 46.484375 51.90625 
Q 46.484375 58.296875 42.84375 61.546875 
Q 39.203125 64.796875 32.078125 64.796875 
z
" id="DejaVuSans-82"/>
      <path d="M 56.203125 29.59375 
L 56.203125 25.203125 
L 14.890625 25.203125 
Q 15.484375 15.921875 20.484375 11.0625 
Q 25.484375 6.203125 34.421875 6.203125 
Q 39.59375 6.203125 44.453125 7.46875 
Q 49.3125 8.734375 54.109375 11.28125 
L 54.109375 2.78125 
Q 49.265625 0.734375 44.1875 -0.34375 
Q 39.109375 -1.421875 33.890625 -1.421875 
Q 20.796875 -1.421875 13.15625 6.1875 
Q 5.515625 13.8125 5.515625 26.8125 
Q 5.515625 40.234375 12.765625 48.109375 
Q 20.015625 56 32.328125 56 
Q 43.359375 56 49.78125 48.890625 
Q 56.203125 41.796875 56.203125 29.59375 
z
M 47.21875 32.234375 
Q 47.125 39.59375 43.09375 43.984375 
Q 39.0625 48.390625 32.421875 48.390625 
Q 24.90625 48.390625 20.390625 44.140625 
Q 15.875 39.890625 15.1875 32.171875 
z
" id="DejaVuSans-101"/>
      <path d="M 34.28125 27.484375 
Q 23.390625 27.484375 19.1875 25 
Q 14.984375 22.515625 14.984375 16.5 
Q 14.984375 11.71875 18.140625 8.90625 
Q 21.296875 6.109375 26.703125 6.109375 
Q 34.1875 6.109375 38.703125 11.40625 
Q 43.21875 16.703125 43.21875 25.484375 
L 43.21875 27.484375 
z
M 52.203125 31.203125 
L 52.203125 0 
L 43.21875 0 
L 43.21875 8.296875 
Q 40.140625 3.328125 35.546875 0.953125 
Q 30.953125 -1.421875 24.3125 -1.421875 
Q 15.921875 -1.421875 10.953125 3.296875 
Q 6 8.015625 6 15.921875 
Q 6 25.140625 12.171875 29.828125 
Q 18.359375 34.515625 30.609375 34.515625 
L 43.21875 34.515625 
L 43.21875 35.40625 
Q 43.21875 41.609375 39.140625 45 
Q 35.0625 48.390625 27.6875 48.390625 
Q 23 48.390625 18.546875 47.265625 
Q 14.109375 46.140625 10.015625 43.890625 
L 10.015625 52.203125 
Q 14.9375 54.109375 19.578125 55.046875 
Q 24.21875 56 28.609375 56 
Q 40.484375 56 46.34375 49.84375 
Q 52.203125 43.703125 52.203125 31.203125 
z
" id="DejaVuSans-97"/>
      <path d="M 45.40625 46.390625 
L 45.40625 75.984375 
L 54.390625 75.984375 
L 54.390625 0 
L 45.40625 0 
L 45.40625 8.203125 
Q 42.578125 3.328125 38.25 0.953125 
Q 33.9375 -1.421875 27.875 -1.421875 
Q 17.96875 -1.421875 11.734375 6.484375 
Q 5.515625 14.40625 5.515625 27.296875 
Q 5.515625 40.1875 11.734375 48.09375 
Q 17.96875 56 27.875 56 
Q 33.9375 56 38.25 53.625 
Q 42.578125 51.265625 45.40625 46.390625 
z
M 14.796875 27.296875 
Q 14.796875 17.390625 18.875 11.75 
Q 22.953125 6.109375 30.078125 6.109375 
Q 37.203125 6.109375 41.296875 11.75 
Q 45.40625 17.390625 45.40625 27.296875 
Q 45.40625 37.203125 41.296875 42.84375 
Q 37.203125 48.484375 30.078125 48.484375 
Q 22.953125 48.484375 18.875 42.84375 
Q 14.796875 37.203125 14.796875 27.296875 
z
" id="DejaVuSans-100"/>
      <path d="M 44.28125 53.078125 
L 44.28125 44.578125 
Q 40.484375 46.53125 36.375 47.5 
Q 32.28125 48.484375 27.875 48.484375 
Q 21.1875 48.484375 17.84375 46.4375 
Q 14.5 44.390625 14.5 40.28125 
Q 14.5 37.15625 16.890625 35.375 
Q 19.28125 33.59375 26.515625 31.984375 
L 29.59375 31.296875 
Q 39.15625 29.25 43.1875 25.515625 
Q 47.21875 21.78125 47.21875 15.09375 
Q 47.21875 7.46875 41.1875 3.015625 
Q 35.15625 -1.421875 24.609375 -1.421875 
Q 20.21875 -1.421875 15.453125 -0.5625 
Q 10.6875 0.296875 5.421875 2 
L 5.421875 11.28125 
Q 10.40625 8.6875 15.234375 7.390625 
Q 20.0625 6.109375 24.8125 6.109375 
Q 31.15625 6.109375 34.5625 8.28125 
Q 37.984375 10.453125 37.984375 14.40625 
Q 37.984375 18.0625 35.515625 20.015625 
Q 33.0625 21.96875 24.703125 23.78125 
L 21.578125 24.515625 
Q 13.234375 26.265625 9.515625 29.90625 
Q 5.8125 33.546875 5.8125 39.890625 
Q 5.8125 47.609375 11.28125 51.796875 
Q 16.75 56 26.8125 56 
Q 31.78125 56 36.171875 55.265625 
Q 40.578125 54.546875 44.28125 53.078125 
z
" id="DejaVuSans-115"/>
     </defs>
     <g transform="translate(409.947969 1459.197459)scale(0.1 -0.1)">
      <use xlink:href="#DejaVuSans-35"/>
      <use x="83.789062" xlink:href="#DejaVuSans-32"/>
      <use x="115.576172" xlink:href="#DejaVuSans-82"/>
      <use x="184.996094" xlink:href="#DejaVuSans-101"/>
      <use x="246.519531" xlink:href="#DejaVuSans-97"/>
      <use x="307.798828" xlink:href="#DejaVuSans-100"/>
      <use x="371.275391" xlink:href="#DejaVuSans-115"/>
     </g>
    </g>
    <g id="text_10">
     <!-- 1e7 -->
     <defs>
      <path d="M 8.203125 72.90625 
L 55.078125 72.90625 
L 55.078125 68.703125 
L 28.609375 0 
L 18.3125 0 
L 43.21875 64.59375 
L 8.203125 64.59375 
z
" id="DejaVuSans-55"/>
     </defs>
     <g transform="translate(802.839375 1458.197459)scale(0.1 -0.1)">
      <use xlink:href="#DejaVuSans-49"/>
      <use x="63.623047" xlink:href="#DejaVuSans-101"/>
      <use x="125.146484" xlink:href="#DejaVuSans-55"/>
     </g>
    </g>
   </g>
   <g id="matplotlib.axis_2">
    <g id="ytick_1">
     <g id="text_11">
      <!-- BR701 -->
      <defs>
       <path d="M 19.671875 34.8125 
L 19.671875 8.109375 
L 35.5 8.109375 
Q 43.453125 8.109375 47.28125 11.40625 
Q 51.125 14.703125 51.125 21.484375 
Q 51.125 28.328125 47.28125 31.5625 
Q 43.453125 34.8125 35.5 34.8125 
z
M 19.671875 64.796875 
L 19.671875 42.828125 
L 34.28125 42.828125 
Q 41.5 42.828125 45.03125 45.53125 
Q 48.578125 48.25 48.578125 53.8125 
Q 48.578125 59.328125 45.03125 62.0625 
Q 41.5 64.796875 34.28125 64.796875 
z
M 9.8125 72.90625 
L 35.015625 72.90625 
Q 46.296875 72.90625 52.390625 68.21875 
Q 58.5 63.53125 58.5 54.890625 
Q 58.5 48.1875 55.375 44.234375 
Q 52.25 40.28125 46.1875 39.3125 
Q 53.46875 37.75 57.5 32.78125 
Q 61.53125 27.828125 61.53125 20.40625 
Q 61.53125 10.640625 54.890625 5.3125 
Q 48.25 0 35.984375 0 
L 9.8125 0 
z
" id="DejaVuSans-66"/>
      </defs>
      <g transform="translate(7.2 25.791549)scale(0.08 -0.08)">
       <use xlink:href="#DejaVuSans-66"/>
       <use x="68.603516" xlink:href="#DejaVuSans-82"/>
       <use x="138.085938" xlink:href="#DejaVuSans-55"/>
       <use x="201.708984" xlink:href="#DejaVuSans-48"/>
       <use x="265.332031" xlink:href="#DejaVuSans-49"/>
      </g>
     </g>
    </g>
    <g id="ytick_2">
     <g id="text_12">
      <!-- BR702 -->
      <g transform="translate(7.2 49.895897)scale(0.08 -0.08)">
       <use xlink:href="#DejaVuSans-66"/>
       <use x="68.603516" xlink:href="#DejaVuSans-82"/>
       <use x="138.085938" xlink:href="#DejaVuSans-55"/>
       <use x="201.708984" xlink:href="#DejaVuSans-48"/>
       <use x="265.332031" xlink:href="#DejaVuSans-50"/>
      </g>
     </g>
    </g>
    <g id="ytick_3">
     <g id="text_13">
      <!-- BR703 -->
      <g transform="translate(7.2 74.000245)scale(0.08 -0.08)">
       <use xlink:href="#DejaVuSans-66"/>
       <use x="68.603516" xlink:href="#DejaVuSans-82"/>
       <use x="138.085938" xlink:href="#DejaVuSans-55"/>
       <use x="201.708984" xlink:href="#DejaVuSans-48"/>
       <use x="265.332031" xlink:href="#DejaVuSans-51"/>
      </g>
     </g>
    </g>
    <g id="ytick_4">
     <g id="text_14">
      <!-- BR704 -->
      <defs>
       <path d="M 37.796875 64.3125 
L 12.890625 25.390625 
L 37.796875 25.390625 
z
M 35.203125 72.90625 
L 47.609375 72.90625 
L 47.609375 25.390625 
L 58.015625 25.390625 
L 58.015625 17.1875 
L 47.609375 17.1875 
L 47.609375 0 
L 37.796875 0 
L 37.796875 17.1875 
L 4.890625 17.1875 
L 4.890625 26.703125 
z
" id="DejaVuSans-52"/>
      </defs>
      <g transform="translate(7.2 98.104592)scale(0.08 -0.08)">
       <use xlink:href="#DejaVuSans-66"/>
       <use x="68.603516" xlink:href="#DejaVuSans-82"/>
       <use x="138.085938" xlink:href="#DejaVuSans-55"/>
       <use x="201.708984" xlink:href="#DejaVuSans-48"/>
       <use x="265.332031" xlink:href="#DejaVuSans-52"/>
      </g>
     </g>
    </g>
    <g id="ytick_5">
     <g id="text_15">
      <!-- BR705 -->
      <g transform="translate(7.2 122.20894)scale(0.08 -0.08)">
       <use xlink:href="#DejaVuSans-66"/>
       <use x="68.603516" xlink:href="#DejaVuSans-82"/>
       <use x="138.085938" xlink:href="#DejaVuSans-55"/>
       <use x="201.708984" xlink:href="#DejaVuSans-48"/>
       <use x="265.332031" xlink:href="#DejaVuSans-53"/>
      </g>
     </g>
    </g>
    <g id="ytick_6">
     <g id="text_16">
      <!-- BR707 -->
      <g transform="translate(7.2 146.313288)scale(0.08 -0.08)">
       <use xlink:href="#DejaVuSans-66"/>
       <use x="68.603516" xlink:href="#DejaVuSans-82"/>
       <use x="138.085938" xlink:href="#DejaVuSans-55"/>
       <use x="201.708984" xlink:href="#DejaVuSans-48"/>
       <use x="265.332031" xlink:href="#DejaVuSans-55"/>
      </g>
     </g>
    </g>
    <g id="ytick_7">
     <g id="text_17">
      <!-- BR708 -->
      <defs>
       <path d="M 31.78125 34.625 
Q 24.75 34.625 20.71875 30.859375 
Q 16.703125 27.09375 16.703125 20.515625 
Q 16.703125 13.921875 20.71875 10.15625 
Q 24.75 6.390625 31.78125 6.390625 
Q 38.8125 6.390625 42.859375 10.171875 
Q 46.921875 13.96875 46.921875 20.515625 
Q 46.921875 27.09375 42.890625 30.859375 
Q 38.875 34.625 31.78125 34.625 
z
M 21.921875 38.8125 
Q 15.578125 40.375 12.03125 44.71875 
Q 8.5 49.078125 8.5 55.328125 
Q 8.5 64.0625 14.71875 69.140625 
Q 20.953125 74.21875 31.78125 74.21875 
Q 42.671875 74.21875 48.875 69.140625 
Q 55.078125 64.0625 55.078125 55.328125 
Q 55.078125 49.078125 51.53125 44.71875 
Q 48 40.375 41.703125 38.8125 
Q 48.828125 37.15625 52.796875 32.3125 
Q 56.78125 27.484375 56.78125 20.515625 
Q 56.78125 9.90625 50.3125 4.234375 
Q 43.84375 -1.421875 31.78125 -1.421875 
Q 19.734375 -1.421875 13.25 4.234375 
Q 6.78125 9.90625 6.78125 20.515625 
Q 6.78125 27.484375 10.78125 32.3125 
Q 14.796875 37.15625 21.921875 38.8125 
z
M 18.3125 54.390625 
Q 18.3125 48.734375 21.84375 45.5625 
Q 25.390625 42.390625 31.78125 42.390625 
Q 38.140625 42.390625 41.71875 45.5625 
Q 45.3125 48.734375 45.3125 54.390625 
Q 45.3125 60.0625 41.71875 63.234375 
Q 38.140625 66.40625 31.78125 66.40625 
Q 25.390625 66.40625 21.84375 63.234375 
Q 18.3125 60.0625 18.3125 54.390625 
z
" id="DejaVuSans-56"/>
      </defs>
      <g transform="translate(7.2 170.417636)scale(0.08 -0.08)">
       <use xlink:href="#DejaVuSans-66"/>
       <use x="68.603516" xlink:href="#DejaVuSans-82"/>
       <use x="138.085938" xlink:href="#DejaVuSans-55"/>
       <use x="201.708984" xlink:href="#DejaVuSans-48"/>
       <use x="265.332031" xlink:href="#DejaVuSans-56"/>
      </g>
     </g>
    </g>
    <g id="ytick_8">
     <g id="text_18">
      <!-- BR709 -->
      <defs>
       <path d="M 10.984375 1.515625 
L 10.984375 10.5 
Q 14.703125 8.734375 18.5 7.8125 
Q 22.3125 6.890625 25.984375 6.890625 
Q 35.75 6.890625 40.890625 13.453125 
Q 46.046875 20.015625 46.78125 33.40625 
Q 43.953125 29.203125 39.59375 26.953125 
Q 35.25 24.703125 29.984375 24.703125 
Q 19.046875 24.703125 12.671875 31.3125 
Q 6.296875 37.9375 6.296875 49.421875 
Q 6.296875 60.640625 12.9375 67.421875 
Q 19.578125 74.21875 30.609375 74.21875 
Q 43.265625 74.21875 49.921875 64.515625 
Q 56.59375 54.828125 56.59375 36.375 
Q 56.59375 19.140625 48.40625 8.859375 
Q 40.234375 -1.421875 26.421875 -1.421875 
Q 22.703125 -1.421875 18.890625 -0.6875 
Q 15.09375 0.046875 10.984375 1.515625 
z
M 30.609375 32.421875 
Q 37.25 32.421875 41.125 36.953125 
Q 45.015625 41.5 45.015625 49.421875 
Q 45.015625 57.28125 41.125 61.84375 
Q 37.25 66.40625 30.609375 66.40625 
Q 23.96875 66.40625 20.09375 61.84375 
Q 16.21875 57.28125 16.21875 49.421875 
Q 16.21875 41.5 20.09375 36.953125 
Q 23.96875 32.421875 30.609375 32.421875 
z
" id="DejaVuSans-57"/>
      </defs>
      <g transform="translate(7.2 194.521984)scale(0.08 -0.08)">
       <use xlink:href="#DejaVuSans-66"/>
       <use x="68.603516" xlink:href="#DejaVuSans-82"/>
       <use x="138.085938" xlink:href="#DejaVuSans-55"/>
       <use x="201.708984" xlink:href="#DejaVuSans-48"/>
       <use x="265.332031" xlink:href="#DejaVuSans-57"/>
      </g>
     </g>
    </g>
    <g id="ytick_9">
     <g id="text_19">
      <!-- BR710 -->
      <g transform="translate(7.2 218.626332)scale(0.08 -0.08)">
       <use xlink:href="#DejaVuSans-66"/>
       <use x="68.603516" xlink:href="#DejaVuSans-82"/>
       <use x="138.085938" xlink:href="#DejaVuSans-55"/>
       <use x="201.708984" xlink:href="#DejaVuSans-49"/>
       <use x="265.332031" xlink:href="#DejaVuSans-48"/>
      </g>
     </g>
    </g>
    <g id="ytick_10">
     <g id="text_20">
      <!-- BR711 -->
      <g transform="translate(7.2 242.730679)scale(0.08 -0.08)">
       <use xlink:href="#DejaVuSans-66"/>
       <use x="68.603516" xlink:href="#DejaVuSans-82"/>
       <use x="138.085938" xlink:href="#DejaVuSans-55"/>
       <use x="201.708984" xlink:href="#DejaVuSans-49"/>
       <use x="265.332031" xlink:href="#DejaVuSans-49"/>
      </g>
     </g>
    </g>
    <g id="ytick_11">
     <g id="text_21">
      <!-- BR712 -->
      <g transform="translate(7.2 266.835027)scale(0.08 -0.08)">
       <use xlink:href="#DejaVuSans-66"/>
       <use x="68.603516" xlink:href="#DejaVuSans-82"/>
       <use x="138.085938" xlink:href="#DejaVuSans-55"/>
       <use x="201.708984" xlink:href="#DejaVuSans-49"/>
       <use x="265.332031" xlink:href="#DejaVuSans-50"/>
      </g>
     </g>
    </g>
    <g id="ytick_12">
     <g id="text_22">
      <!-- BR713 -->
      <g transform="translate(7.2 290.939375)scale(0.08 -0.08)">
       <use xlink:href="#DejaVuSans-66"/>
       <use x="68.603516" xlink:href="#DejaVuSans-82"/>
       <use x="138.085938" xlink:href="#DejaVuSans-55"/>
       <use x="201.708984" xlink:href="#DejaVuSans-49"/>
       <use x="265.332031" xlink:href="#DejaVuSans-51"/>
      </g>
     </g>
    </g>
    <g id="ytick_13">
     <g id="text_23">
      <!-- BR714 -->
      <g transform="translate(7.2 315.043723)scale(0.08 -0.08)">
       <use xlink:href="#DejaVuSans-66"/>
       <use x="68.603516" xlink:href="#DejaVuSans-82"/>
       <use x="138.085938" xlink:href="#DejaVuSans-55"/>
       <use x="201.708984" xlink:href="#DejaVuSans-49"/>
       <use x="265.332031" xlink:href="#DejaVuSans-52"/>
      </g>
     </g>
    </g>
    <g id="ytick_14">
     <g id="text_24">
      <!-- BR715 -->
      <g transform="translate(7.2 339.148071)scale(0.08 -0.08)">
       <use xlink:href="#DejaVuSans-66"/>
       <use x="68.603516" xlink:href="#DejaVuSans-82"/>
       <use x="138.085938" xlink:href="#DejaVuSans-55"/>
       <use x="201.708984" xlink:href="#DejaVuSans-49"/>
       <use x="265.332031" xlink:href="#DejaVuSans-53"/>
      </g>
     </g>
    </g>
    <g id="ytick_15">
     <g id="text_25">
      <!-- BR716 -->
      <defs>
       <path d="M 33.015625 40.375 
Q 26.375 40.375 22.484375 35.828125 
Q 18.609375 31.296875 18.609375 23.390625 
Q 18.609375 15.53125 22.484375 10.953125 
Q 26.375 6.390625 33.015625 6.390625 
Q 39.65625 6.390625 43.53125 10.953125 
Q 47.40625 15.53125 47.40625 23.390625 
Q 47.40625 31.296875 43.53125 35.828125 
Q 39.65625 40.375 33.015625 40.375 
z
M 52.59375 71.296875 
L 52.59375 62.3125 
Q 48.875 64.0625 45.09375 64.984375 
Q 41.3125 65.921875 37.59375 65.921875 
Q 27.828125 65.921875 22.671875 59.328125 
Q 17.53125 52.734375 16.796875 39.40625 
Q 19.671875 43.65625 24.015625 45.921875 
Q 28.375 48.1875 33.59375 48.1875 
Q 44.578125 48.1875 50.953125 41.515625 
Q 57.328125 34.859375 57.328125 23.390625 
Q 57.328125 12.15625 50.6875 5.359375 
Q 44.046875 -1.421875 33.015625 -1.421875 
Q 20.359375 -1.421875 13.671875 8.265625 
Q 6.984375 17.96875 6.984375 36.375 
Q 6.984375 53.65625 15.1875 63.9375 
Q 23.390625 74.21875 37.203125 74.21875 
Q 40.921875 74.21875 44.703125 73.484375 
Q 48.484375 72.75 52.59375 71.296875 
z
" id="DejaVuSans-54"/>
      </defs>
      <g transform="translate(7.2 363.252418)scale(0.08 -0.08)">
       <use xlink:href="#DejaVuSans-66"/>
       <use x="68.603516" xlink:href="#DejaVuSans-82"/>
       <use x="138.085938" xlink:href="#DejaVuSans-55"/>
       <use x="201.708984" xlink:href="#DejaVuSans-49"/>
       <use x="265.332031" xlink:href="#DejaVuSans-54"/>
      </g>
     </g>
    </g>
    <g id="ytick_16">
     <g id="text_26">
      <!-- BR717 -->
      <g transform="translate(7.2 387.356766)scale(0.08 -0.08)">
       <use xlink:href="#DejaVuSans-66"/>
       <use x="68.603516" xlink:href="#DejaVuSans-82"/>
       <use x="138.085938" xlink:href="#DejaVuSans-55"/>
       <use x="201.708984" xlink:href="#DejaVuSans-49"/>
       <use x="265.332031" xlink:href="#DejaVuSans-55"/>
      </g>
     </g>
    </g>
    <g id="ytick_17">
     <g id="text_27">
      <!-- BR718 -->
      <g transform="translate(7.2 411.461114)scale(0.08 -0.08)">
       <use xlink:href="#DejaVuSans-66"/>
       <use x="68.603516" xlink:href="#DejaVuSans-82"/>
       <use x="138.085938" xlink:href="#DejaVuSans-55"/>
       <use x="201.708984" xlink:href="#DejaVuSans-49"/>
       <use x="265.332031" xlink:href="#DejaVuSans-56"/>
      </g>
     </g>
    </g>
    <g id="ytick_18">
     <g id="text_28">
      <!-- BR719 -->
      <g transform="translate(7.2 435.565462)scale(0.08 -0.08)">
       <use xlink:href="#DejaVuSans-66"/>
       <use x="68.603516" xlink:href="#DejaVuSans-82"/>
       <use x="138.085938" xlink:href="#DejaVuSans-55"/>
       <use x="201.708984" xlink:href="#DejaVuSans-49"/>
       <use x="265.332031" xlink:href="#DejaVuSans-57"/>
      </g>
     </g>
    </g>
    <g id="ytick_19">
     <g id="text_29">
      <!-- BR720 -->
      <g transform="translate(7.2 459.66981)scale(0.08 -0.08)">
       <use xlink:href="#DejaVuSans-66"/>
       <use x="68.603516" xlink:href="#DejaVuSans-82"/>
       <use x="138.085938" xlink:href="#DejaVuSans-55"/>
       <use x="201.708984" xlink:href="#DejaVuSans-50"/>
       <use x="265.332031" xlink:href="#DejaVuSans-48"/>
      </g>
     </g>
    </g>
    <g id="ytick_20">
     <g id="text_30">
      <!-- BR721 -->
      <g transform="translate(7.2 483.774158)scale(0.08 -0.08)">
       <use xlink:href="#DejaVuSans-66"/>
       <use x="68.603516" xlink:href="#DejaVuSans-82"/>
       <use x="138.085938" xlink:href="#DejaVuSans-55"/>
       <use x="201.708984" xlink:href="#DejaVuSans-50"/>
       <use x="265.332031" xlink:href="#DejaVuSans-49"/>
      </g>
     </g>
    </g>
    <g id="ytick_21">
     <g id="text_31">
      <!-- BR722 -->
      <g transform="translate(7.2 507.878505)scale(0.08 -0.08)">
       <use xlink:href="#DejaVuSans-66"/>
       <use x="68.603516" xlink:href="#DejaVuSans-82"/>
       <use x="138.085938" xlink:href="#DejaVuSans-55"/>
       <use x="201.708984" xlink:href="#DejaVuSans-50"/>
       <use x="265.332031" xlink:href="#DejaVuSans-50"/>
      </g>
     </g>
    </g>
    <g id="ytick_22">
     <g id="text_32">
      <!-- BR723 -->
      <g transform="translate(7.2 531.982853)scale(0.08 -0.08)">
       <use xlink:href="#DejaVuSans-66"/>
       <use x="68.603516" xlink:href="#DejaVuSans-82"/>
       <use x="138.085938" xlink:href="#DejaVuSans-55"/>
       <use x="201.708984" xlink:href="#DejaVuSans-50"/>
       <use x="265.332031" xlink:href="#DejaVuSans-51"/>
      </g>
     </g>
    </g>
    <g id="ytick_23">
     <g id="text_33">
      <!-- BR724 -->
      <g transform="translate(7.2 556.087201)scale(0.08 -0.08)">
       <use xlink:href="#DejaVuSans-66"/>
       <use x="68.603516" xlink:href="#DejaVuSans-82"/>
       <use x="138.085938" xlink:href="#DejaVuSans-55"/>
       <use x="201.708984" xlink:href="#DejaVuSans-50"/>
       <use x="265.332031" xlink:href="#DejaVuSans-52"/>
      </g>
     </g>
    </g>
    <g id="ytick_24">
     <g id="text_34">
      <!-- BR725 -->
      <g transform="translate(7.2 580.191549)scale(0.08 -0.08)">
       <use xlink:href="#DejaVuSans-66"/>
       <use x="68.603516" xlink:href="#DejaVuSans-82"/>
       <use x="138.085938" xlink:href="#DejaVuSans-55"/>
       <use x="201.708984" xlink:href="#DejaVuSans-50"/>
       <use x="265.332031" xlink:href="#DejaVuSans-53"/>
      </g>
     </g>
    </g>
    <g id="ytick_25">
     <g id="text_35">
      <!-- BR726 -->
      <g transform="translate(7.2 604.295897)scale(0.08 -0.08)">
       <use xlink:href="#DejaVuSans-66"/>
       <use x="68.603516" xlink:href="#DejaVuSans-82"/>
       <use x="138.085938" xlink:href="#DejaVuSans-55"/>
       <use x="201.708984" xlink:href="#DejaVuSans-50"/>
       <use x="265.332031" xlink:href="#DejaVuSans-54"/>
      </g>
     </g>
    </g>
    <g id="ytick_26">
     <g id="text_36">
      <!-- BR727 -->
      <g transform="translate(7.2 628.400245)scale(0.08 -0.08)">
       <use xlink:href="#DejaVuSans-66"/>
       <use x="68.603516" xlink:href="#DejaVuSans-82"/>
       <use x="138.085938" xlink:href="#DejaVuSans-55"/>
       <use x="201.708984" xlink:href="#DejaVuSans-50"/>
       <use x="265.332031" xlink:href="#DejaVuSans-55"/>
      </g>
     </g>
    </g>
    <g id="ytick_27">
     <g id="text_37">
      <!-- BR729 -->
      <g transform="translate(7.2 652.504592)scale(0.08 -0.08)">
       <use xlink:href="#DejaVuSans-66"/>
       <use x="68.603516" xlink:href="#DejaVuSans-82"/>
       <use x="138.085938" xlink:href="#DejaVuSans-55"/>
       <use x="201.708984" xlink:href="#DejaVuSans-50"/>
       <use x="265.332031" xlink:href="#DejaVuSans-57"/>
      </g>
     </g>
    </g>
    <g id="ytick_28">
     <g id="text_38">
      <!-- BR730 -->
      <g transform="translate(7.2 676.60894)scale(0.08 -0.08)">
       <use xlink:href="#DejaVuSans-66"/>
       <use x="68.603516" xlink:href="#DejaVuSans-82"/>
       <use x="138.085938" xlink:href="#DejaVuSans-55"/>
       <use x="201.708984" xlink:href="#DejaVuSans-51"/>
       <use x="265.332031" xlink:href="#DejaVuSans-48"/>
      </g>
     </g>
    </g>
    <g id="ytick_29">
     <g id="text_39">
      <!-- BR731 -->
      <g transform="translate(7.2 700.713288)scale(0.08 -0.08)">
       <use xlink:href="#DejaVuSans-66"/>
       <use x="68.603516" xlink:href="#DejaVuSans-82"/>
       <use x="138.085938" xlink:href="#DejaVuSans-55"/>
       <use x="201.708984" xlink:href="#DejaVuSans-51"/>
       <use x="265.332031" xlink:href="#DejaVuSans-49"/>
      </g>
     </g>
    </g>
    <g id="ytick_30">
     <g id="text_40">
      <!-- BR732 -->
      <g transform="translate(7.2 724.817636)scale(0.08 -0.08)">
       <use xlink:href="#DejaVuSans-66"/>
       <use x="68.603516" xlink:href="#DejaVuSans-82"/>
       <use x="138.085938" xlink:href="#DejaVuSans-55"/>
       <use x="201.708984" xlink:href="#DejaVuSans-51"/>
       <use x="265.332031" xlink:href="#DejaVuSans-50"/>
      </g>
     </g>
    </g>
    <g id="ytick_31">
     <g id="text_41">
      <!-- BR733 -->
      <g transform="translate(7.2 748.921984)scale(0.08 -0.08)">
       <use xlink:href="#DejaVuSans-66"/>
       <use x="68.603516" xlink:href="#DejaVuSans-82"/>
       <use x="138.085938" xlink:href="#DejaVuSans-55"/>
       <use x="201.708984" xlink:href="#DejaVuSans-51"/>
       <use x="265.332031" xlink:href="#DejaVuSans-51"/>
      </g>
     </g>
    </g>
    <g id="ytick_32">
     <g id="text_42">
      <!-- BR734 -->
      <g transform="translate(7.2 773.026332)scale(0.08 -0.08)">
       <use xlink:href="#DejaVuSans-66"/>
       <use x="68.603516" xlink:href="#DejaVuSans-82"/>
       <use x="138.085938" xlink:href="#DejaVuSans-55"/>
       <use x="201.708984" xlink:href="#DejaVuSans-51"/>
       <use x="265.332031" xlink:href="#DejaVuSans-52"/>
      </g>
     </g>
    </g>
    <g id="ytick_33">
     <g id="text_43">
      <!-- BR735 -->
      <g transform="translate(7.2 797.130679)scale(0.08 -0.08)">
       <use xlink:href="#DejaVuSans-66"/>
       <use x="68.603516" xlink:href="#DejaVuSans-82"/>
       <use x="138.085938" xlink:href="#DejaVuSans-55"/>
       <use x="201.708984" xlink:href="#DejaVuSans-51"/>
       <use x="265.332031" xlink:href="#DejaVuSans-53"/>
      </g>
     </g>
    </g>
    <g id="ytick_34">
     <g id="text_44">
      <!-- BR736 -->
      <g transform="translate(7.2 821.235027)scale(0.08 -0.08)">
       <use xlink:href="#DejaVuSans-66"/>
       <use x="68.603516" xlink:href="#DejaVuSans-82"/>
       <use x="138.085938" xlink:href="#DejaVuSans-55"/>
       <use x="201.708984" xlink:href="#DejaVuSans-51"/>
       <use x="265.332031" xlink:href="#DejaVuSans-54"/>
      </g>
     </g>
    </g>
    <g id="ytick_35">
     <g id="text_45">
      <!-- BR737 -->
      <g transform="translate(7.2 845.339375)scale(0.08 -0.08)">
       <use xlink:href="#DejaVuSans-66"/>
       <use x="68.603516" xlink:href="#DejaVuSans-82"/>
       <use x="138.085938" xlink:href="#DejaVuSans-55"/>
       <use x="201.708984" xlink:href="#DejaVuSans-51"/>
       <use x="265.332031" xlink:href="#DejaVuSans-55"/>
      </g>
     </g>
    </g>
    <g id="ytick_36">
     <g id="text_46">
      <!-- BR738 -->
      <g transform="translate(7.2 869.443723)scale(0.08 -0.08)">
       <use xlink:href="#DejaVuSans-66"/>
       <use x="68.603516" xlink:href="#DejaVuSans-82"/>
       <use x="138.085938" xlink:href="#DejaVuSans-55"/>
       <use x="201.708984" xlink:href="#DejaVuSans-51"/>
       <use x="265.332031" xlink:href="#DejaVuSans-56"/>
      </g>
     </g>
    </g>
    <g id="ytick_37">
     <g id="text_47">
      <!-- BR739 -->
      <g transform="translate(7.2 893.548071)scale(0.08 -0.08)">
       <use xlink:href="#DejaVuSans-66"/>
       <use x="68.603516" xlink:href="#DejaVuSans-82"/>
       <use x="138.085938" xlink:href="#DejaVuSans-55"/>
       <use x="201.708984" xlink:href="#DejaVuSans-51"/>
       <use x="265.332031" xlink:href="#DejaVuSans-57"/>
      </g>
     </g>
    </g>
    <g id="ytick_38">
     <g id="text_48">
      <!-- BR740 -->
      <g transform="translate(7.2 917.652418)scale(0.08 -0.08)">
       <use xlink:href="#DejaVuSans-66"/>
       <use x="68.603516" xlink:href="#DejaVuSans-82"/>
       <use x="138.085938" xlink:href="#DejaVuSans-55"/>
       <use x="201.708984" xlink:href="#DejaVuSans-52"/>
       <use x="265.332031" xlink:href="#DejaVuSans-48"/>
      </g>
     </g>
    </g>
    <g id="ytick_39">
     <g id="text_49">
      <!-- BR741 -->
      <g transform="translate(7.2 941.756766)scale(0.08 -0.08)">
       <use xlink:href="#DejaVuSans-66"/>
       <use x="68.603516" xlink:href="#DejaVuSans-82"/>
       <use x="138.085938" xlink:href="#DejaVuSans-55"/>
       <use x="201.708984" xlink:href="#DejaVuSans-52"/>
       <use x="265.332031" xlink:href="#DejaVuSans-49"/>
      </g>
     </g>
    </g>
    <g id="ytick_40">
     <g id="text_50">
      <!-- BR742 -->
      <g transform="translate(7.2 965.861114)scale(0.08 -0.08)">
       <use xlink:href="#DejaVuSans-66"/>
       <use x="68.603516" xlink:href="#DejaVuSans-82"/>
       <use x="138.085938" xlink:href="#DejaVuSans-55"/>
       <use x="201.708984" xlink:href="#DejaVuSans-52"/>
       <use x="265.332031" xlink:href="#DejaVuSans-50"/>
      </g>
     </g>
    </g>
    <g id="ytick_41">
     <g id="text_51">
      <!-- BR743 -->
      <g transform="translate(7.2 989.965462)scale(0.08 -0.08)">
       <use xlink:href="#DejaVuSans-66"/>
       <use x="68.603516" xlink:href="#DejaVuSans-82"/>
       <use x="138.085938" xlink:href="#DejaVuSans-55"/>
       <use x="201.708984" xlink:href="#DejaVuSans-52"/>
       <use x="265.332031" xlink:href="#DejaVuSans-51"/>
      </g>
     </g>
    </g>
    <g id="ytick_42">
     <g id="text_52">
      <!-- BR744 -->
      <g transform="translate(7.2 1014.06981)scale(0.08 -0.08)">
       <use xlink:href="#DejaVuSans-66"/>
       <use x="68.603516" xlink:href="#DejaVuSans-82"/>
       <use x="138.085938" xlink:href="#DejaVuSans-55"/>
       <use x="201.708984" xlink:href="#DejaVuSans-52"/>
       <use x="265.332031" xlink:href="#DejaVuSans-52"/>
      </g>
     </g>
    </g>
    <g id="ytick_43">
     <g id="text_53">
      <!-- BR745 -->
      <g transform="translate(7.2 1038.174158)scale(0.08 -0.08)">
       <use xlink:href="#DejaVuSans-66"/>
       <use x="68.603516" xlink:href="#DejaVuSans-82"/>
       <use x="138.085938" xlink:href="#DejaVuSans-55"/>
       <use x="201.708984" xlink:href="#DejaVuSans-52"/>
       <use x="265.332031" xlink:href="#DejaVuSans-53"/>
      </g>
     </g>
    </g>
    <g id="ytick_44">
     <g id="text_54">
      <!-- BR746 -->
      <g transform="translate(7.2 1062.278505)scale(0.08 -0.08)">
       <use xlink:href="#DejaVuSans-66"/>
       <use x="68.603516" xlink:href="#DejaVuSans-82"/>
       <use x="138.085938" xlink:href="#DejaVuSans-55"/>
       <use x="201.708984" xlink:href="#DejaVuSans-52"/>
       <use x="265.332031" xlink:href="#DejaVuSans-54"/>
      </g>
     </g>
    </g>
    <g id="ytick_45">
     <g id="text_55">
      <!-- BR747 -->
      <g transform="translate(7.2 1086.382853)scale(0.08 -0.08)">
       <use xlink:href="#DejaVuSans-66"/>
       <use x="68.603516" xlink:href="#DejaVuSans-82"/>
       <use x="138.085938" xlink:href="#DejaVuSans-55"/>
       <use x="201.708984" xlink:href="#DejaVuSans-52"/>
       <use x="265.332031" xlink:href="#DejaVuSans-55"/>
      </g>
     </g>
    </g>
    <g id="ytick_46">
     <g id="text_56">
      <!-- BR748 -->
      <g transform="translate(7.2 1110.487201)scale(0.08 -0.08)">
       <use xlink:href="#DejaVuSans-66"/>
       <use x="68.603516" xlink:href="#DejaVuSans-82"/>
       <use x="138.085938" xlink:href="#DejaVuSans-55"/>
       <use x="201.708984" xlink:href="#DejaVuSans-52"/>
       <use x="265.332031" xlink:href="#DejaVuSans-56"/>
      </g>
     </g>
    </g>
    <g id="ytick_47">
     <g id="text_57">
      <!-- BR749 -->
      <g transform="translate(7.2 1134.591549)scale(0.08 -0.08)">
       <use xlink:href="#DejaVuSans-66"/>
       <use x="68.603516" xlink:href="#DejaVuSans-82"/>
       <use x="138.085938" xlink:href="#DejaVuSans-55"/>
       <use x="201.708984" xlink:href="#DejaVuSans-52"/>
       <use x="265.332031" xlink:href="#DejaVuSans-57"/>
      </g>
     </g>
    </g>
    <g id="ytick_48">
     <g id="text_58">
      <!-- BR750 -->
      <g transform="translate(7.2 1158.695897)scale(0.08 -0.08)">
       <use xlink:href="#DejaVuSans-66"/>
       <use x="68.603516" xlink:href="#DejaVuSans-82"/>
       <use x="138.085938" xlink:href="#DejaVuSans-55"/>
       <use x="201.708984" xlink:href="#DejaVuSans-53"/>
       <use x="265.332031" xlink:href="#DejaVuSans-48"/>
      </g>
     </g>
    </g>
    <g id="ytick_49">
     <g id="text_59">
      <!-- BR751 -->
      <g transform="translate(7.2 1182.800245)scale(0.08 -0.08)">
       <use xlink:href="#DejaVuSans-66"/>
       <use x="68.603516" xlink:href="#DejaVuSans-82"/>
       <use x="138.085938" xlink:href="#DejaVuSans-55"/>
       <use x="201.708984" xlink:href="#DejaVuSans-53"/>
       <use x="265.332031" xlink:href="#DejaVuSans-49"/>
      </g>
     </g>
    </g>
    <g id="ytick_50">
     <g id="text_60">
      <!-- BR752 -->
      <g transform="translate(7.2 1206.904592)scale(0.08 -0.08)">
       <use xlink:href="#DejaVuSans-66"/>
       <use x="68.603516" xlink:href="#DejaVuSans-82"/>
       <use x="138.085938" xlink:href="#DejaVuSans-55"/>
       <use x="201.708984" xlink:href="#DejaVuSans-53"/>
       <use x="265.332031" xlink:href="#DejaVuSans-50"/>
      </g>
     </g>
    </g>
    <g id="ytick_51">
     <g id="text_61">
      <!-- BR753 -->
      <g transform="translate(7.2 1231.00894)scale(0.08 -0.08)">
       <use xlink:href="#DejaVuSans-66"/>
       <use x="68.603516" xlink:href="#DejaVuSans-82"/>
       <use x="138.085938" xlink:href="#DejaVuSans-55"/>
       <use x="201.708984" xlink:href="#DejaVuSans-53"/>
       <use x="265.332031" xlink:href="#DejaVuSans-51"/>
      </g>
     </g>
    </g>
    <g id="ytick_52">
     <g id="text_62">
      <!-- BR754 -->
      <g transform="translate(7.2 1255.113288)scale(0.08 -0.08)">
       <use xlink:href="#DejaVuSans-66"/>
       <use x="68.603516" xlink:href="#DejaVuSans-82"/>
       <use x="138.085938" xlink:href="#DejaVuSans-55"/>
       <use x="201.708984" xlink:href="#DejaVuSans-53"/>
       <use x="265.332031" xlink:href="#DejaVuSans-52"/>
      </g>
     </g>
    </g>
    <g id="ytick_53">
     <g id="text_63">
      <!-- BR755 -->
      <g transform="translate(7.2 1279.217636)scale(0.08 -0.08)">
       <use xlink:href="#DejaVuSans-66"/>
       <use x="68.603516" xlink:href="#DejaVuSans-82"/>
       <use x="138.085938" xlink:href="#DejaVuSans-55"/>
       <use x="201.708984" xlink:href="#DejaVuSans-53"/>
       <use x="265.332031" xlink:href="#DejaVuSans-53"/>
      </g>
     </g>
    </g>
    <g id="ytick_54">
     <g id="text_64">
      <!-- BR756 -->
      <g transform="translate(7.2 1303.321984)scale(0.08 -0.08)">
       <use xlink:href="#DejaVuSans-66"/>
       <use x="68.603516" xlink:href="#DejaVuSans-82"/>
       <use x="138.085938" xlink:href="#DejaVuSans-55"/>
       <use x="201.708984" xlink:href="#DejaVuSans-53"/>
       <use x="265.332031" xlink:href="#DejaVuSans-54"/>
      </g>
     </g>
    </g>
    <g id="ytick_55">
     <g id="text_65">
      <!-- BR757 -->
      <g transform="translate(7.2 1327.426332)scale(0.08 -0.08)">
       <use xlink:href="#DejaVuSans-66"/>
       <use x="68.603516" xlink:href="#DejaVuSans-82"/>
       <use x="138.085938" xlink:href="#DejaVuSans-55"/>
       <use x="201.708984" xlink:href="#DejaVuSans-53"/>
       <use x="265.332031" xlink:href="#DejaVuSans-55"/>
      </g>
     </g>
    </g>
    <g id="ytick_56">
     <g id="text_66">
      <!-- BR758 -->
      <g transform="translate(7.2 1351.530679)scale(0.08 -0.08)">
       <use xlink:href="#DejaVuSans-66"/>
       <use x="68.603516" xlink:href="#DejaVuSans-82"/>
       <use x="138.085938" xlink:href="#DejaVuSans-55"/>
       <use x="201.708984" xlink:href="#DejaVuSans-53"/>
       <use x="265.332031" xlink:href="#DejaVuSans-56"/>
      </g>
     </g>
    </g>
    <g id="ytick_57">
     <g id="text_67">
      <!-- BR759 -->
      <g transform="translate(7.2 1375.635027)scale(0.08 -0.08)">
       <use xlink:href="#DejaVuSans-66"/>
       <use x="68.603516" xlink:href="#DejaVuSans-82"/>
       <use x="138.085938" xlink:href="#DejaVuSans-55"/>
       <use x="201.708984" xlink:href="#DejaVuSans-53"/>
       <use x="265.332031" xlink:href="#DejaVuSans-57"/>
      </g>
     </g>
    </g>
    <g id="ytick_58">
     <g id="text_68">
      <!-- BR760 -->
      <g transform="translate(7.2 1399.739375)scale(0.08 -0.08)">
       <use xlink:href="#DejaVuSans-66"/>
       <use x="68.603516" xlink:href="#DejaVuSans-82"/>
       <use x="138.085938" xlink:href="#DejaVuSans-55"/>
       <use x="201.708984" xlink:href="#DejaVuSans-54"/>
       <use x="265.332031" xlink:href="#DejaVuSans-48"/>
      </g>
     </g>
    </g>
    <g id="ytick_59">
     <g id="text_69">
      <!-- BR761 -->
      <g transform="translate(7.2 1423.843723)scale(0.08 -0.08)">
       <use xlink:href="#DejaVuSans-66"/>
       <use x="68.603516" xlink:href="#DejaVuSans-82"/>
       <use x="138.085938" xlink:href="#DejaVuSans-55"/>
       <use x="201.708984" xlink:href="#DejaVuSans-54"/>
       <use x="265.332031" xlink:href="#DejaVuSans-49"/>
      </g>
     </g>
    </g>
   </g>
   <g id="patch_3">
    <path clip-path="url(#p90d8e74b9a)" d="M 40.5175 13.110435 
L 574.626284 13.110435 
L 574.626284 32.393913 
L 40.5175 32.393913 
z
" style="fill:#20568f;"/>
   </g>
   <g id="patch_4">
    <path clip-path="url(#p90d8e74b9a)" d="M 40.5175 37.214783 
L 495.462099 37.214783 
L 495.462099 56.498261 
L 40.5175 56.498261 
z
" style="fill:#20568f;"/>
   </g>
   <g id="patch_5">
    <path clip-path="url(#p90d8e74b9a)" d="M 40.5175 61.31913 
L 557.630094 61.31913 
L 557.630094 80.602609 
L 40.5175 80.602609 
z
" style="fill:#20568f;"/>
   </g>
   <g id="patch_6">
    <path clip-path="url(#p90d8e74b9a)" d="M 40.5175 85.423478 
L 680.690175 85.423478 
L 680.690175 104.706957 
L 40.5175 104.706957 
z
" style="fill:#20568f;"/>
   </g>
   <g id="patch_7">
    <path clip-path="url(#p90d8e74b9a)" d="M 40.5175 109.527826 
L 467.358651 109.527826 
L 467.358651 128.811304 
L 40.5175 128.811304 
z
" style="fill:#20568f;"/>
   </g>
   <g id="patch_8">
    <path clip-path="url(#p90d8e74b9a)" d="M 40.5175 133.632174 
L 606.573455 133.632174 
L 606.573455 152.915652 
L 40.5175 152.915652 
z
" style="fill:#20568f;"/>
   </g>
   <g id="patch_9">
    <path clip-path="url(#p90d8e74b9a)" d="M 40.5175 157.736522 
L 480.49124 157.736522 
L 480.49124 177.02 
L 40.5175 177.02 
z
" style="fill:#20568f;"/>
   </g>
   <g id="patch_10">
    <path clip-path="url(#p90d8e74b9a)" d="M 40.5175 181.84087 
L 699.265284 181.84087 
L 699.265284 201.124348 
L 40.5175 201.124348 
z
" style="fill:#20568f;"/>
   </g>
   <g id="patch_11">
    <path clip-path="url(#p90d8e74b9a)" d="M 40.5175 205.945217 
L 595.094985 205.945217 
L 595.094985 225.228696 
L 40.5175 225.228696 
z
" style="fill:#20568f;"/>
   </g>
   <g id="patch_12">
    <path clip-path="url(#p90d8e74b9a)" d="M 40.5175 230.049565 
L 557.933062 230.049565 
L 557.933062 249.333043 
L 40.5175 249.333043 
z
" style="fill:#20568f;"/>
   </g>
   <g id="patch_13">
    <path clip-path="url(#p90d8e74b9a)" d="M 40.5175 254.153913 
L 382.259953 254.153913 
L 382.259953 273.437391 
L 40.5175 273.437391 
z
" style="fill:#20568f;"/>
   </g>
   <g id="patch_14">
    <path clip-path="url(#p90d8e74b9a)" d="M 40.5175 278.258261 
L 576.885804 278.258261 
L 576.885804 297.541739 
L 40.5175 297.541739 
z
" style="fill:#20568f;"/>
   </g>
   <g id="patch_15">
    <path clip-path="url(#p90d8e74b9a)" d="M 40.5175 302.362609 
L 566.570577 302.362609 
L 566.570577 321.646087 
L 40.5175 321.646087 
z
" style="fill:#20568f;"/>
   </g>
   <g id="patch_16">
    <path clip-path="url(#p90d8e74b9a)" d="M 40.5175 326.466957 
L 532.835214 326.466957 
L 532.835214 345.750435 
L 40.5175 345.750435 
z
" style="fill:#20568f;"/>
   </g>
   <g id="patch_17">
    <path clip-path="url(#p90d8e74b9a)" d="M 40.5175 350.571304 
L 570.389674 350.571304 
L 570.389674 369.854783 
L 40.5175 369.854783 
z
" style="fill:#20568f;"/>
   </g>
   <g id="patch_18">
    <path clip-path="url(#p90d8e74b9a)" d="M 40.5175 374.675652 
L 564.634523 374.675652 
L 564.634523 393.95913 
L 40.5175 393.95913 
z
" style="fill:#20568f;"/>
   </g>
   <g id="patch_19">
    <path clip-path="url(#p90d8e74b9a)" d="M 40.5175 398.78 
L 666.855929 398.78 
L 666.855929 418.063478 
L 40.5175 418.063478 
z
" style="fill:#20568f;"/>
   </g>
   <g id="patch_20">
    <path clip-path="url(#p90d8e74b9a)" d="M 40.5175 422.884348 
L 511.416094 422.884348 
L 511.416094 442.167826 
L 40.5175 442.167826 
z
" style="fill:#20568f;"/>
   </g>
   <g id="patch_21">
    <path clip-path="url(#p90d8e74b9a)" d="M 40.5175 446.988696 
L 639.979014 446.988696 
L 639.979014 466.272174 
L 40.5175 466.272174 
z
" style="fill:#20568f;"/>
   </g>
   <g id="patch_22">
    <path clip-path="url(#p90d8e74b9a)" d="M 40.5175 471.093043 
L 548.218922 471.093043 
L 548.218922 490.376522 
L 40.5175 490.376522 
z
" style="fill:#20568f;"/>
   </g>
   <g id="patch_23">
    <path clip-path="url(#p90d8e74b9a)" d="M 40.5175 495.197391 
L 557.195983 495.197391 
L 557.195983 514.48087 
L 40.5175 514.48087 
z
" style="fill:#20568f;"/>
   </g>
   <g id="patch_24">
    <path clip-path="url(#p90d8e74b9a)" d="M 40.5175 519.301739 
L 598.467731 519.301739 
L 598.467731 538.585217 
L 40.5175 538.585217 
z
" style="fill:#20568f;"/>
   </g>
   <g id="patch_25">
    <path clip-path="url(#p90d8e74b9a)" d="M 40.5175 543.406087 
L 544.19274 543.406087 
L 544.19274 562.689565 
L 40.5175 562.689565 
z
" style="fill:#20568f;"/>
   </g>
   <g id="patch_26">
    <path clip-path="url(#p90d8e74b9a)" d="M 40.5175 567.510435 
L 506.038267 567.510435 
L 506.038267 586.793913 
L 40.5175 586.793913 
z
" style="fill:#20568f;"/>
   </g>
   <g id="patch_27">
    <path clip-path="url(#p90d8e74b9a)" d="M 40.5175 591.614783 
L 446.981169 591.614783 
L 446.981169 610.898261 
L 40.5175 610.898261 
z
" style="fill:#20568f;"/>
   </g>
   <g id="patch_28">
    <path clip-path="url(#p90d8e74b9a)" d="M 40.5175 615.71913 
L 547.399087 615.71913 
L 547.399087 635.002609 
L 40.5175 635.002609 
z
" style="fill:#20568f;"/>
   </g>
   <g id="patch_29">
    <path clip-path="url(#p90d8e74b9a)" d="M 40.5175 639.823478 
L 515.291359 639.823478 
L 515.291359 659.106957 
L 40.5175 659.106957 
z
" style="fill:#20568f;"/>
   </g>
   <g id="patch_30">
    <path clip-path="url(#p90d8e74b9a)" d="M 40.5175 663.927826 
L 514.947044 663.927826 
L 514.947044 683.211304 
L 40.5175 683.211304 
z
" style="fill:#20568f;"/>
   </g>
   <g id="patch_31">
    <path clip-path="url(#p90d8e74b9a)" d="M 40.5175 688.032174 
L 407.691259 688.032174 
L 407.691259 707.315652 
L 40.5175 707.315652 
z
" style="fill:#20568f;"/>
   </g>
   <g id="patch_32">
    <path clip-path="url(#p90d8e74b9a)" d="M 40.5175 712.136522 
L 467.205298 712.136522 
L 467.205298 731.42 
L 40.5175 731.42 
z
" style="fill:#20568f;"/>
   </g>
   <g id="patch_33">
    <path clip-path="url(#p90d8e74b9a)" d="M 40.5175 736.24087 
L 417.704096 736.24087 
L 417.704096 755.524348 
L 40.5175 755.524348 
z
" style="fill:#20568f;"/>
   </g>
   <g id="patch_34">
    <path clip-path="url(#p90d8e74b9a)" d="M 40.5175 760.345217 
L 541.070697 760.345217 
L 541.070697 779.628696 
L 40.5175 779.628696 
z
" style="fill:#20568f;"/>
   </g>
   <g id="patch_35">
    <path clip-path="url(#p90d8e74b9a)" d="M 40.5175 784.449565 
L 480.429023 784.449565 
L 480.429023 803.733043 
L 40.5175 803.733043 
z
" style="fill:#20568f;"/>
   </g>
   <g id="patch_36">
    <path clip-path="url(#p90d8e74b9a)" d="M 40.5175 808.553913 
L 440.947614 808.553913 
L 440.947614 827.837391 
L 40.5175 827.837391 
z
" style="fill:#20568f;"/>
   </g>
   <g id="patch_37">
    <path clip-path="url(#p90d8e74b9a)" d="M 40.5175 832.658261 
L 510.897908 832.658261 
L 510.897908 851.941739 
L 40.5175 851.941739 
z
" style="fill:#20568f;"/>
   </g>
   <g id="patch_38">
    <path clip-path="url(#p90d8e74b9a)" d="M 40.5175 856.762609 
L 551.121123 856.762609 
L 551.121123 876.046087 
L 40.5175 876.046087 
z
" style="fill:#20568f;"/>
   </g>
   <g id="patch_39">
    <path clip-path="url(#p90d8e74b9a)" d="M 40.5175 880.866957 
L 405.722322 880.866957 
L 405.722322 900.150435 
L 40.5175 900.150435 
z
" style="fill:#20568f;"/>
   </g>
   <g id="patch_40">
    <path clip-path="url(#p90d8e74b9a)" d="M 40.5175 904.971304 
L 407.753001 904.971304 
L 407.753001 924.254783 
L 40.5175 924.254783 
z
" style="fill:#20568f;"/>
   </g>
   <g id="patch_41">
    <path clip-path="url(#p90d8e74b9a)" d="M 40.5175 929.075652 
L 399.588797 929.075652 
L 399.588797 948.35913 
L 40.5175 948.35913 
z
" style="fill:#20568f;"/>
   </g>
   <g id="patch_42">
    <path clip-path="url(#p90d8e74b9a)" d="M 40.5175 953.18 
L 490.710026 953.18 
L 490.710026 972.463478 
L 40.5175 972.463478 
z
" style="fill:#20568f;"/>
   </g>
   <g id="patch_43">
    <path clip-path="url(#p90d8e74b9a)" d="M 40.5175 977.284348 
L 481.70295 977.284348 
L 481.70295 996.567826 
L 40.5175 996.567826 
z
" style="fill:#20568f;"/>
   </g>
   <g id="patch_44">
    <path clip-path="url(#p90d8e74b9a)" d="M 40.5175 1001.388696 
L 493.348108 1001.388696 
L 493.348108 1020.672174 
L 40.5175 1020.672174 
z
" style="fill:#20568f;"/>
   </g>
   <g id="patch_45">
    <path clip-path="url(#p90d8e74b9a)" d="M 40.5175 1025.493043 
L 433.985522 1025.493043 
L 433.985522 1044.776522 
L 40.5175 1044.776522 
z
" style="fill:#20568f;"/>
   </g>
   <g id="patch_46">
    <path clip-path="url(#p90d8e74b9a)" d="M 40.5175 1049.597391 
L 410.494088 1049.597391 
L 410.494088 1068.88087 
L 40.5175 1068.88087 
z
" style="fill:#20568f;"/>
   </g>
   <g id="patch_47">
    <path clip-path="url(#p90d8e74b9a)" d="M 40.5175 1073.701739 
L 375.567389 1073.701739 
L 375.567389 1092.985217 
L 40.5175 1092.985217 
z
" style="fill:#20568f;"/>
   </g>
   <g id="patch_48">
    <path clip-path="url(#p90d8e74b9a)" d="M 40.5175 1097.806087 
L 573.019436 1097.806087 
L 573.019436 1117.089565 
L 40.5175 1117.089565 
z
" style="fill:#20568f;"/>
   </g>
   <g id="patch_49">
    <path clip-path="url(#p90d8e74b9a)" d="M 40.5175 1121.910435 
L 489.365358 1121.910435 
L 489.365358 1141.193913 
L 40.5175 1141.193913 
z
" style="fill:#20568f;"/>
   </g>
   <g id="patch_50">
    <path clip-path="url(#p90d8e74b9a)" d="M 40.5175 1146.014783 
L 417.77556 1146.014783 
L 417.77556 1165.298261 
L 40.5175 1165.298261 
z
" style="fill:#20568f;"/>
   </g>
   <g id="patch_51">
    <path clip-path="url(#p90d8e74b9a)" d="M 40.5175 1170.11913 
L 389.022887 1170.11913 
L 389.022887 1189.402609 
L 40.5175 1189.402609 
z
" style="fill:#20568f;"/>
   </g>
   <g id="patch_52">
    <path clip-path="url(#p90d8e74b9a)" d="M 40.5175 1194.223478 
L 344.590763 1194.223478 
L 344.590763 1213.506957 
L 40.5175 1213.506957 
z
" style="fill:#20568f;"/>
   </g>
   <g id="patch_53">
    <path clip-path="url(#p90d8e74b9a)" d="M 40.5175 1218.327826 
L 455.295113 1218.327826 
L 455.295113 1237.611304 
L 40.5175 1237.611304 
z
" style="fill:#20568f;"/>
   </g>
   <g id="patch_54">
    <path clip-path="url(#p90d8e74b9a)" d="M 40.5175 1242.432174 
L 501.422146 1242.432174 
L 501.422146 1261.715652 
L 40.5175 1261.715652 
z
" style="fill:#20568f;"/>
   </g>
   <g id="patch_55">
    <path clip-path="url(#p90d8e74b9a)" d="M 40.5175 1266.536522 
L 416.291369 1266.536522 
L 416.291369 1285.82 
L 40.5175 1285.82 
z
" style="fill:#20568f;"/>
   </g>
   <g id="patch_56">
    <path clip-path="url(#p90d8e74b9a)" d="M 40.5175 1290.64087 
L 506.551004 1290.64087 
L 506.551004 1309.924348 
L 40.5175 1309.924348 
z
" style="fill:#20568f;"/>
   </g>
   <g id="patch_57">
    <path clip-path="url(#p90d8e74b9a)" d="M 40.5175 1314.745217 
L 446.892943 1314.745217 
L 446.892943 1334.028696 
L 40.5175 1334.028696 
z
" style="fill:#20568f;"/>
   </g>
   <g id="patch_58">
    <path clip-path="url(#p90d8e74b9a)" d="M 40.5175 1338.849565 
L 455.828018 1338.849565 
L 455.828018 1358.133043 
L 40.5175 1358.133043 
z
" style="fill:#20568f;"/>
   </g>
   <g id="patch_59">
    <path clip-path="url(#p90d8e74b9a)" d="M 40.5175 1362.953913 
L 412.208132 1362.953913 
L 412.208132 1382.237391 
L 40.5175 1382.237391 
z
" style="fill:#20568f;"/>
   </g>
   <g id="patch_60">
    <path clip-path="url(#p90d8e74b9a)" d="M 40.5175 1387.058261 
L 424.880002 1387.058261 
L 424.880002 1406.341739 
L 40.5175 1406.341739 
z
" style="fill:#20568f;"/>
   </g>
   <g id="patch_61">
    <path clip-path="url(#p90d8e74b9a)" d="M 40.5175 1411.162609 
L 418.983307 1411.162609 
L 418.983307 1430.446087 
L 40.5175 1430.446087 
z
" style="fill:#20568f;"/>
   </g>
   <g id="patch_62">
    <path clip-path="url(#p90d8e74b9a)" d="M 574.626284 13.110435 
L 602.275495 13.110435 
L 602.275495 32.393913 
L 574.626284 32.393913 
z
" style="fill:#f7a35c;"/>
   </g>
   <g id="patch_63">
    <path clip-path="url(#p90d8e74b9a)" d="M 495.462099 37.214783 
L 519.267235 37.214783 
L 519.267235 56.498261 
L 495.462099 56.498261 
z
" style="fill:#f7a35c;"/>
   </g>
   <g id="patch_64">
    <path clip-path="url(#p90d8e74b9a)" d="M 557.630094 61.31913 
L 584.648307 61.31913 
L 584.648307 80.602609 
L 557.630094 80.602609 
z
" style="fill:#f7a35c;"/>
   </g>
   <g id="patch_65">
    <path clip-path="url(#p90d8e74b9a)" d="M 680.690175 85.423478 
L 712.874858 85.423478 
L 712.874858 104.706957 
L 680.690175 104.706957 
z
" style="fill:#f7a35c;"/>
   </g>
   <g id="patch_66">
    <path clip-path="url(#p90d8e74b9a)" d="M 467.358651 109.527826 
L 489.403113 109.527826 
L 489.403113 128.811304 
L 467.358651 128.811304 
z
" style="fill:#f7a35c;"/>
   </g>
   <g id="patch_67">
    <path clip-path="url(#p90d8e74b9a)" d="M 606.573455 133.632174 
L 636.174222 133.632174 
L 636.174222 152.915652 
L 606.573455 152.915652 
z
" style="fill:#f7a35c;"/>
   </g>
   <g id="patch_68">
    <path clip-path="url(#p90d8e74b9a)" d="M 480.49124 157.736522 
L 502.273253 157.736522 
L 502.273253 177.02 
L 480.49124 177.02 
z
" style="fill:#f7a35c;"/>
   </g>
   <g id="patch_69">
    <path clip-path="url(#p90d8e74b9a)" d="M 699.265284 181.84087 
L 739.09681 181.84087 
L 739.09681 201.124348 
L 699.265284 201.124348 
z
" style="fill:#f7a35c;"/>
   </g>
   <g id="patch_70">
    <path clip-path="url(#p90d8e74b9a)" d="M 595.094985 205.945217 
L 625.071919 205.945217 
L 625.071919 225.228696 
L 595.094985 225.228696 
z
" style="fill:#f7a35c;"/>
   </g>
   <g id="patch_71">
    <path clip-path="url(#p90d8e74b9a)" d="M 557.933062 230.049565 
L 624.054351 230.049565 
L 624.054351 249.333043 
L 557.933062 249.333043 
z
" style="fill:#f7a35c;"/>
   </g>
   <g id="patch_72">
    <path clip-path="url(#p90d8e74b9a)" d="M 382.259953 254.153913 
L 552.751731 254.153913 
L 552.751731 273.437391 
L 382.259953 273.437391 
z
" style="fill:#f7a35c;"/>
   </g>
   <g id="patch_73">
    <path clip-path="url(#p90d8e74b9a)" d="M 576.885804 278.258261 
L 605.780229 278.258261 
L 605.780229 297.541739 
L 576.885804 297.541739 
z
" style="fill:#f7a35c;"/>
   </g>
   <g id="patch_74">
    <path clip-path="url(#p90d8e74b9a)" d="M 566.570577 302.362609 
L 595.155096 302.362609 
L 595.155096 321.646087 
L 566.570577 321.646087 
z
" style="fill:#f7a35c;"/>
   </g>
   <g id="patch_75">
    <path clip-path="url(#p90d8e74b9a)" d="M 532.835214 326.466957 
L 560.127992 326.466957 
L 560.127992 345.750435 
L 532.835214 345.750435 
z
" style="fill:#f7a35c;"/>
   </g>
   <g id="patch_76">
    <path clip-path="url(#p90d8e74b9a)" d="M 570.389674 350.571304 
L 599.394576 350.571304 
L 599.394576 369.854783 
L 570.389674 369.854783 
z
" style="fill:#f7a35c;"/>
   </g>
   <g id="patch_77">
    <path clip-path="url(#p90d8e74b9a)" d="M 564.634523 374.675652 
L 592.396277 374.675652 
L 592.396277 393.95913 
L 564.634523 393.95913 
z
" style="fill:#f7a35c;"/>
   </g>
   <g id="patch_78">
    <path clip-path="url(#p90d8e74b9a)" d="M 666.855929 398.78 
L 700.358734 398.78 
L 700.358734 418.063478 
L 666.855929 418.063478 
z
" style="fill:#f7a35c;"/>
   </g>
   <g id="patch_79">
    <path clip-path="url(#p90d8e74b9a)" d="M 511.416094 422.884348 
L 536.412114 422.884348 
L 536.412114 442.167826 
L 511.416094 442.167826 
z
" style="fill:#f7a35c;"/>
   </g>
   <g id="patch_80">
    <path clip-path="url(#p90d8e74b9a)" d="M 639.979014 446.988696 
L 673.443279 446.988696 
L 673.443279 466.272174 
L 639.979014 466.272174 
z
" style="fill:#f7a35c;"/>
   </g>
   <g id="patch_81">
    <path clip-path="url(#p90d8e74b9a)" d="M 548.218922 471.093043 
L 579.028055 471.093043 
L 579.028055 490.376522 
L 548.218922 490.376522 
z
" style="fill:#f7a35c;"/>
   </g>
   <g id="patch_82">
    <path clip-path="url(#p90d8e74b9a)" d="M 557.195983 495.197391 
L 585.761264 495.197391 
L 585.761264 514.48087 
L 557.195983 514.48087 
z
" style="fill:#f7a35c;"/>
   </g>
   <g id="patch_83">
    <path clip-path="url(#p90d8e74b9a)" d="M 598.467731 519.301739 
L 630.74644 519.301739 
L 630.74644 538.585217 
L 598.467731 538.585217 
z
" style="fill:#f7a35c;"/>
   </g>
   <g id="patch_84">
    <path clip-path="url(#p90d8e74b9a)" d="M 544.19274 543.406087 
L 580.65441 543.406087 
L 580.65441 562.689565 
L 544.19274 562.689565 
z
" style="fill:#f7a35c;"/>
   </g>
   <g id="patch_85">
    <path clip-path="url(#p90d8e74b9a)" d="M 506.038267 567.510435 
L 531.270188 567.510435 
L 531.270188 586.793913 
L 506.038267 586.793913 
z
" style="fill:#f7a35c;"/>
   </g>
   <g id="patch_86">
    <path clip-path="url(#p90d8e74b9a)" d="M 446.981169 591.614783 
L 470.114787 591.614783 
L 470.114787 610.898261 
L 446.981169 610.898261 
z
" style="fill:#f7a35c;"/>
   </g>
   <g id="patch_87">
    <path clip-path="url(#p90d8e74b9a)" d="M 547.399087 615.71913 
L 575.452415 615.71913 
L 575.452415 635.002609 
L 547.399087 635.002609 
z
" style="fill:#f7a35c;"/>
   </g>
   <g id="patch_88">
    <path clip-path="url(#p90d8e74b9a)" d="M 515.291359 639.823478 
L 539.727391 639.823478 
L 539.727391 659.106957 
L 515.291359 659.106957 
z
" style="fill:#f7a35c;"/>
   </g>
   <g id="patch_89">
    <path clip-path="url(#p90d8e74b9a)" d="M 514.947044 663.927826 
L 540.358843 663.927826 
L 540.358843 683.211304 
L 514.947044 683.211304 
z
" style="fill:#f7a35c;"/>
   </g>
   <g id="patch_90">
    <path clip-path="url(#p90d8e74b9a)" d="M 407.691259 688.032174 
L 428.099003 688.032174 
L 428.099003 707.315652 
L 407.691259 707.315652 
z
" style="fill:#f7a35c;"/>
   </g>
   <g id="patch_91">
    <path clip-path="url(#p90d8e74b9a)" d="M 467.205298 712.136522 
L 489.920329 712.136522 
L 489.920329 731.42 
L 467.205298 731.42 
z
" style="fill:#f7a35c;"/>
   </g>
   <g id="patch_92">
    <path clip-path="url(#p90d8e74b9a)" d="M 417.704096 736.24087 
L 435.519873 736.24087 
L 435.519873 755.524348 
L 417.704096 755.524348 
z
" style="fill:#f7a35c;"/>
   </g>
   <g id="patch_93">
    <path clip-path="url(#p90d8e74b9a)" d="M 541.070697 760.345217 
L 568.251221 760.345217 
L 568.251221 779.628696 
L 541.070697 779.628696 
z
" style="fill:#f7a35c;"/>
   </g>
   <g id="patch_94">
    <path clip-path="url(#p90d8e74b9a)" d="M 480.429023 784.449565 
L 500.878961 784.449565 
L 500.878961 803.733043 
L 480.429023 803.733043 
z
" style="fill:#f7a35c;"/>
   </g>
   <g id="patch_95">
    <path clip-path="url(#p90d8e74b9a)" d="M 440.947614 808.553913 
L 460.095344 808.553913 
L 460.095344 827.837391 
L 440.947614 827.837391 
z
" style="fill:#f7a35c;"/>
   </g>
   <g id="patch_96">
    <path clip-path="url(#p90d8e74b9a)" d="M 510.897908 832.658261 
L 535.070645 832.658261 
L 535.070645 851.941739 
L 510.897908 851.941739 
z
" style="fill:#f7a35c;"/>
   </g>
   <g id="patch_97">
    <path clip-path="url(#p90d8e74b9a)" d="M 551.121123 856.762609 
L 581.560262 856.762609 
L 581.560262 876.046087 
L 551.121123 876.046087 
z
" style="fill:#f7a35c;"/>
   </g>
   <g id="patch_98">
    <path clip-path="url(#p90d8e74b9a)" d="M 405.722322 880.866957 
L 423.40378 880.866957 
L 423.40378 900.150435 
L 405.722322 900.150435 
z
" style="fill:#f7a35c;"/>
   </g>
   <g id="patch_99">
    <path clip-path="url(#p90d8e74b9a)" d="M 407.753001 904.971304 
L 425.420132 904.971304 
L 425.420132 924.254783 
L 407.753001 924.254783 
z
" style="fill:#f7a35c;"/>
   </g>
   <g id="patch_100">
    <path clip-path="url(#p90d8e74b9a)" d="M 399.588797 929.075652 
L 429.086764 929.075652 
L 429.086764 948.35913 
L 399.588797 948.35913 
z
" style="fill:#f7a35c;"/>
   </g>
   <g id="patch_101">
    <path clip-path="url(#p90d8e74b9a)" d="M 490.710026 953.18 
L 540.807031 953.18 
L 540.807031 972.463478 
L 490.710026 972.463478 
z
" style="fill:#f7a35c;"/>
   </g>
   <g id="patch_102">
    <path clip-path="url(#p90d8e74b9a)" d="M 481.70295 977.284348 
L 515.557956 977.284348 
L 515.557956 996.567826 
L 481.70295 996.567826 
z
" style="fill:#f7a35c;"/>
   </g>
   <g id="patch_103">
    <path clip-path="url(#p90d8e74b9a)" d="M 493.348108 1001.388696 
L 515.590386 1001.388696 
L 515.590386 1020.672174 
L 493.348108 1020.672174 
z
" style="fill:#f7a35c;"/>
   </g>
   <g id="patch_104">
    <path clip-path="url(#p90d8e74b9a)" d="M 433.985522 1025.493043 
L 461.263355 1025.493043 
L 461.263355 1044.776522 
L 433.985522 1044.776522 
z
" style="fill:#f7a35c;"/>
   </g>
   <g id="patch_105">
    <path clip-path="url(#p90d8e74b9a)" d="M 410.494088 1049.597391 
L 429.43141 1049.597391 
L 429.43141 1068.88087 
L 410.494088 1068.88087 
z
" style="fill:#f7a35c;"/>
   </g>
   <g id="patch_106">
    <path clip-path="url(#p90d8e74b9a)" d="M 375.567389 1073.701739 
L 394.460082 1073.701739 
L 394.460082 1092.985217 
L 375.567389 1092.985217 
z
" style="fill:#f7a35c;"/>
   </g>
   <g id="patch_107">
    <path clip-path="url(#p90d8e74b9a)" d="M 573.019436 1097.806087 
L 601.468562 1097.806087 
L 601.468562 1117.089565 
L 573.019436 1117.089565 
z
" style="fill:#f7a35c;"/>
   </g>
   <g id="patch_108">
    <path clip-path="url(#p90d8e74b9a)" d="M 489.365358 1121.910435 
L 514.457529 1121.910435 
L 514.457529 1141.193913 
L 489.365358 1141.193913 
z
" style="fill:#f7a35c;"/>
   </g>
   <g id="patch_109">
    <path clip-path="url(#p90d8e74b9a)" d="M 417.77556 1146.014783 
L 439.466809 1146.014783 
L 439.466809 1165.298261 
L 417.77556 1165.298261 
z
" style="fill:#f7a35c;"/>
   </g>
   <g id="patch_110">
    <path clip-path="url(#p90d8e74b9a)" d="M 389.022887 1170.11913 
L 409.413023 1170.11913 
L 409.413023 1189.402609 
L 389.022887 1189.402609 
z
" style="fill:#f7a35c;"/>
   </g>
   <g id="patch_111">
    <path clip-path="url(#p90d8e74b9a)" d="M 344.590763 1194.223478 
L 387.413129 1194.223478 
L 387.413129 1213.506957 
L 344.590763 1213.506957 
z
" style="fill:#f7a35c;"/>
   </g>
   <g id="patch_112">
    <path clip-path="url(#p90d8e74b9a)" d="M 455.295113 1218.327826 
L 485.095265 1218.327826 
L 485.095265 1237.611304 
L 455.295113 1237.611304 
z
" style="fill:#f7a35c;"/>
   </g>
   <g id="patch_113">
    <path clip-path="url(#p90d8e74b9a)" d="M 501.422146 1242.432174 
L 528.518284 1242.432174 
L 528.518284 1261.715652 
L 501.422146 1261.715652 
z
" style="fill:#f7a35c;"/>
   </g>
   <g id="patch_114">
    <path clip-path="url(#p90d8e74b9a)" d="M 416.291369 1266.536522 
L 436.376493 1266.536522 
L 436.376493 1285.82 
L 416.291369 1285.82 
z
" style="fill:#f7a35c;"/>
   </g>
   <g id="patch_115">
    <path clip-path="url(#p90d8e74b9a)" d="M 506.551004 1290.64087 
L 529.422587 1290.64087 
L 529.422587 1309.924348 
L 506.551004 1309.924348 
z
" style="fill:#f7a35c;"/>
   </g>
   <g id="patch_116">
    <path clip-path="url(#p90d8e74b9a)" d="M 446.892943 1314.745217 
L 466.004466 1314.745217 
L 466.004466 1334.028696 
L 446.892943 1334.028696 
z
" style="fill:#f7a35c;"/>
   </g>
   <g id="patch_117">
    <path clip-path="url(#p90d8e74b9a)" d="M 455.828018 1338.849565 
L 475.423193 1338.849565 
L 475.423193 1358.133043 
L 455.828018 1358.133043 
z
" style="fill:#f7a35c;"/>
   </g>
   <g id="patch_118">
    <path clip-path="url(#p90d8e74b9a)" d="M 412.208132 1362.953913 
L 430.55698 1362.953913 
L 430.55698 1382.237391 
L 412.208132 1382.237391 
z
" style="fill:#f7a35c;"/>
   </g>
   <g id="patch_119">
    <path clip-path="url(#p90d8e74b9a)" d="M 424.880002 1387.058261 
L 443.861437 1387.058261 
L 443.861437 1406.341739 
L 424.880002 1406.341739 
z
" style="fill:#f7a35c;"/>
   </g>
   <g id="patch_120">
    <path clip-path="url(#p90d8e74b9a)" d="M 418.983307 1411.162609 
L 436.562811 1411.162609 
L 436.562811 1430.446087 
L 418.983307 1430.446087 
z
" style="fill:#f7a35c;"/>
   </g>
   <g id="patch_121">
    <path clip-path="url(#p90d8e74b9a)" d="M 602.275495 13.110435 
L 625.510922 13.110435 
L 625.510922 32.393913 
L 602.275495 32.393913 
z
" style="fill:#981919;"/>
   </g>
   <g id="patch_122">
    <path clip-path="url(#p90d8e74b9a)" d="M 519.267235 37.214783 
L 533.002088 37.214783 
L 533.002088 56.498261 
L 519.267235 56.498261 
z
" style="fill:#981919;"/>
   </g>
   <g id="patch_123">
    <path clip-path="url(#p90d8e74b9a)" d="M 584.648307 61.31913 
L 602.420921 61.31913 
L 602.420921 80.602609 
L 584.648307 80.602609 
z
" style="fill:#981919;"/>
   </g>
   <g id="patch_124">
    <path clip-path="url(#p90d8e74b9a)" d="M 712.874858 85.423478 
L 744.66271 85.423478 
L 744.66271 104.706957 
L 712.874858 104.706957 
z
" style="fill:#981919;"/>
   </g>
   <g id="patch_125">
    <path clip-path="url(#p90d8e74b9a)" d="M 489.403113 109.527826 
L 519.236623 109.527826 
L 519.236623 128.811304 
L 489.403113 128.811304 
z
" style="fill:#981919;"/>
   </g>
   <g id="patch_126">
    <path clip-path="url(#p90d8e74b9a)" d="M 636.174222 133.632174 
L 670.319894 133.632174 
L 670.319894 152.915652 
L 636.174222 152.915652 
z
" style="fill:#981919;"/>
   </g>
   <g id="patch_127">
    <path clip-path="url(#p90d8e74b9a)" d="M 502.273253 157.736522 
L 532.128479 157.736522 
L 532.128479 177.02 
L 502.273253 177.02 
z
" style="fill:#981919;"/>
   </g>
   <g id="patch_128">
    <path clip-path="url(#p90d8e74b9a)" d="M 739.09681 181.84087 
L 784.5175 181.84087 
L 784.5175 201.124348 
L 739.09681 201.124348 
z
" style="fill:#981919;"/>
   </g>
   <g id="patch_129">
    <path clip-path="url(#p90d8e74b9a)" d="M 625.071919 205.945217 
L 665.655387 205.945217 
L 665.655387 225.228696 
L 625.071919 225.228696 
z
" style="fill:#981919;"/>
   </g>
   <g id="patch_130">
    <path clip-path="url(#p90d8e74b9a)" d="M 624.054351 230.049565 
L 660.517817 230.049565 
L 660.517817 249.333043 
L 624.054351 249.333043 
z
" style="fill:#981919;"/>
   </g>
   <g id="patch_131">
    <path clip-path="url(#p90d8e74b9a)" d="M 552.751731 254.153913 
L 597.890858 254.153913 
L 597.890858 273.437391 
L 552.751731 273.437391 
z
" style="fill:#981919;"/>
   </g>
   <g id="patch_132">
    <path clip-path="url(#p90d8e74b9a)" d="M 605.780229 278.258261 
L 632.831098 278.258261 
L 632.831098 297.541739 
L 605.780229 297.541739 
z
" style="fill:#981919;"/>
   </g>
   <g id="patch_133">
    <path clip-path="url(#p90d8e74b9a)" d="M 595.155096 302.362609 
L 620.749581 302.362609 
L 620.749581 321.646087 
L 595.155096 321.646087 
z
" style="fill:#981919;"/>
   </g>
   <g id="patch_134">
    <path clip-path="url(#p90d8e74b9a)" d="M 560.127992 326.466957 
L 582.267265 326.466957 
L 582.267265 345.750435 
L 560.127992 345.750435 
z
" style="fill:#981919;"/>
   </g>
   <g id="patch_135">
    <path clip-path="url(#p90d8e74b9a)" d="M 599.394576 350.571304 
L 623.382625 350.571304 
L 623.382625 369.854783 
L 599.394576 369.854783 
z
" style="fill:#981919;"/>
   </g>
   <g id="patch_136">
    <path clip-path="url(#p90d8e74b9a)" d="M 592.396277 374.675652 
L 635.622491 374.675652 
L 635.622491 393.95913 
L 592.396277 393.95913 
z
" style="fill:#981919;"/>
   </g>
   <g id="patch_137">
    <path clip-path="url(#p90d8e74b9a)" d="M 700.358734 398.78 
L 756.882016 398.78 
L 756.882016 418.063478 
L 700.358734 418.063478 
z
" style="fill:#981919;"/>
   </g>
   <g id="patch_138">
    <path clip-path="url(#p90d8e74b9a)" d="M 536.412114 422.884348 
L 576.328645 422.884348 
L 576.328645 442.167826 
L 536.412114 442.167826 
z
" style="fill:#981919;"/>
   </g>
   <g id="patch_139">
    <path clip-path="url(#p90d8e74b9a)" d="M 673.443279 446.988696 
L 719.692577 446.988696 
L 719.692577 466.272174 
L 673.443279 466.272174 
z
" style="fill:#981919;"/>
   </g>
   <g id="patch_140">
    <path clip-path="url(#p90d8e74b9a)" d="M 579.028055 471.093043 
L 616.096922 471.093043 
L 616.096922 490.376522 
L 579.028055 490.376522 
z
" style="fill:#981919;"/>
   </g>
   <g id="patch_141">
    <path clip-path="url(#p90d8e74b9a)" d="M 585.761264 495.197391 
L 617.013549 495.197391 
L 617.013549 514.48087 
L 585.761264 514.48087 
z
" style="fill:#981919;"/>
   </g>
   <g id="patch_142">
    <path clip-path="url(#p90d8e74b9a)" d="M 630.74644 519.301739 
L 661.064077 519.301739 
L 661.064077 538.585217 
L 630.74644 538.585217 
z
" style="fill:#981919;"/>
   </g>
   <g id="patch_143">
    <path clip-path="url(#p90d8e74b9a)" d="M 580.65441 543.406087 
L 611.828646 543.406087 
L 611.828646 562.689565 
L 580.65441 562.689565 
z
" style="fill:#981919;"/>
   </g>
   <g id="patch_144">
    <path clip-path="url(#p90d8e74b9a)" d="M 531.270188 567.510435 
L 552.656817 567.510435 
L 552.656817 586.793913 
L 531.270188 586.793913 
z
" style="fill:#981919;"/>
   </g>
   <g id="patch_145">
    <path clip-path="url(#p90d8e74b9a)" d="M 470.114787 591.614783 
L 489.599876 591.614783 
L 489.599876 610.898261 
L 470.114787 610.898261 
z
" style="fill:#981919;"/>
   </g>
   <g id="patch_146">
    <path clip-path="url(#p90d8e74b9a)" d="M 575.452415 615.71913 
L 604.055533 615.71913 
L 604.055533 635.002609 
L 575.452415 635.002609 
z
" style="fill:#981919;"/>
   </g>
   <g id="patch_147">
    <path clip-path="url(#p90d8e74b9a)" d="M 539.727391 639.823478 
L 572.145333 639.823478 
L 572.145333 659.106957 
L 539.727391 659.106957 
z
" style="fill:#981919;"/>
   </g>
   <g id="patch_148">
    <path clip-path="url(#p90d8e74b9a)" d="M 540.358843 663.927826 
L 574.385077 663.927826 
L 574.385077 683.211304 
L 540.358843 683.211304 
z
" style="fill:#981919;"/>
   </g>
   <g id="patch_149">
    <path clip-path="url(#p90d8e74b9a)" d="M 428.099003 688.032174 
L 457.399959 688.032174 
L 457.399959 707.315652 
L 428.099003 707.315652 
z
" style="fill:#981919;"/>
   </g>
   <g id="patch_150">
    <path clip-path="url(#p90d8e74b9a)" d="M 489.920329 712.136522 
L 521.884303 712.136522 
L 521.884303 731.42 
L 489.920329 731.42 
z
" style="fill:#981919;"/>
   </g>
   <g id="patch_151">
    <path clip-path="url(#p90d8e74b9a)" d="M 435.519873 736.24087 
L 460.522519 736.24087 
L 460.522519 755.524348 
L 435.519873 755.524348 
z
" style="fill:#981919;"/>
   </g>
   <g id="patch_152">
    <path clip-path="url(#p90d8e74b9a)" d="M 568.251221 760.345217 
L 607.659495 760.345217 
L 607.659495 779.628696 
L 568.251221 779.628696 
z
" style="fill:#981919;"/>
   </g>
   <g id="patch_153">
    <path clip-path="url(#p90d8e74b9a)" d="M 500.878961 784.449565 
L 528.832771 784.449565 
L 528.832771 803.733043 
L 500.878961 803.733043 
z
" style="fill:#981919;"/>
   </g>
   <g id="patch_154">
    <path clip-path="url(#p90d8e74b9a)" d="M 460.095344 808.553913 
L 484.003817 808.553913 
L 484.003817 827.837391 
L 460.095344 827.837391 
z
" style="fill:#981919;"/>
   </g>
   <g id="patch_155">
    <path clip-path="url(#p90d8e74b9a)" d="M 535.070645 832.658261 
L 560.303432 832.658261 
L 560.303432 851.941739 
L 535.070645 851.941739 
z
" style="fill:#981919;"/>
   </g>
   <g id="patch_156">
    <path clip-path="url(#p90d8e74b9a)" d="M 581.560262 856.762609 
L 606.731886 856.762609 
L 606.731886 876.046087 
L 581.560262 876.046087 
z
" style="fill:#981919;"/>
   </g>
   <g id="patch_157">
    <path clip-path="url(#p90d8e74b9a)" d="M 423.40378 880.866957 
L 444.815138 880.866957 
L 444.815138 900.150435 
L 423.40378 900.150435 
z
" style="fill:#981919;"/>
   </g>
   <g id="patch_158">
    <path clip-path="url(#p90d8e74b9a)" d="M 425.420132 904.971304 
L 443.115358 904.971304 
L 443.115358 924.254783 
L 425.420132 924.254783 
z
" style="fill:#981919;"/>
   </g>
   <g id="patch_159">
    <path clip-path="url(#p90d8e74b9a)" d="M 429.086764 929.075652 
L 457.833099 929.075652 
L 457.833099 948.35913 
L 429.086764 948.35913 
z
" style="fill:#981919;"/>
   </g>
   <g id="patch_160">
    <path clip-path="url(#p90d8e74b9a)" d="M 540.807031 953.18 
L 583.008493 953.18 
L 583.008493 972.463478 
L 540.807031 972.463478 
z
" style="fill:#981919;"/>
   </g>
   <g id="patch_161">
    <path clip-path="url(#p90d8e74b9a)" d="M 515.557956 977.284348 
L 559.153546 977.284348 
L 559.153546 996.567826 
L 515.557956 996.567826 
z
" style="fill:#981919;"/>
   </g>
   <g id="patch_162">
    <path clip-path="url(#p90d8e74b9a)" d="M 515.590386 1001.388696 
L 555.972156 1001.388696 
L 555.972156 1020.672174 
L 515.590386 1020.672174 
z
" style="fill:#981919;"/>
   </g>
   <g id="patch_163">
    <path clip-path="url(#p90d8e74b9a)" d="M 461.263355 1025.493043 
L 488.99978 1025.493043 
L 488.99978 1044.776522 
L 461.263355 1044.776522 
z
" style="fill:#981919;"/>
   </g>
   <g id="patch_164">
    <path clip-path="url(#p90d8e74b9a)" d="M 429.43141 1049.597391 
L 454.827149 1049.597391 
L 454.827149 1068.88087 
L 429.43141 1068.88087 
z
" style="fill:#981919;"/>
   </g>
   <g id="patch_165">
    <path clip-path="url(#p90d8e74b9a)" d="M 394.460082 1073.701739 
L 419.928813 1073.701739 
L 419.928813 1092.985217 
L 394.460082 1092.985217 
z
" style="fill:#981919;"/>
   </g>
   <g id="patch_166">
    <path clip-path="url(#p90d8e74b9a)" d="M 601.468562 1097.806087 
L 635.960697 1097.806087 
L 635.960697 1117.089565 
L 601.468562 1117.089565 
z
" style="fill:#981919;"/>
   </g>
   <g id="patch_167">
    <path clip-path="url(#p90d8e74b9a)" d="M 514.457529 1121.910435 
L 537.753892 1121.910435 
L 537.753892 1141.193913 
L 514.457529 1141.193913 
z
" style="fill:#981919;"/>
   </g>
   <g id="patch_168">
    <path clip-path="url(#p90d8e74b9a)" d="M 439.466809 1146.014783 
L 462.11533 1146.014783 
L 462.11533 1165.298261 
L 439.466809 1165.298261 
z
" style="fill:#981919;"/>
   </g>
   <g id="patch_169">
    <path clip-path="url(#p90d8e74b9a)" d="M 409.413023 1170.11913 
L 429.450401 1170.11913 
L 429.450401 1189.402609 
L 409.413023 1189.402609 
z
" style="fill:#981919;"/>
   </g>
   <g id="patch_170">
    <path clip-path="url(#p90d8e74b9a)" d="M 387.413129 1194.223478 
L 405.587527 1194.223478 
L 405.587527 1213.506957 
L 387.413129 1213.506957 
z
" style="fill:#981919;"/>
   </g>
   <g id="patch_171">
    <path clip-path="url(#p90d8e74b9a)" d="M 485.095265 1218.327826 
L 517.490521 1218.327826 
L 517.490521 1237.611304 
L 485.095265 1237.611304 
z
" style="fill:#981919;"/>
   </g>
   <g id="patch_172">
    <path clip-path="url(#p90d8e74b9a)" d="M 528.518284 1242.432174 
L 572.768652 1242.432174 
L 572.768652 1261.715652 
L 528.518284 1261.715652 
z
" style="fill:#981919;"/>
   </g>
   <g id="patch_173">
    <path clip-path="url(#p90d8e74b9a)" d="M 436.376493 1266.536522 
L 467.768692 1266.536522 
L 467.768692 1285.82 
L 436.376493 1285.82 
z
" style="fill:#981919;"/>
   </g>
   <g id="patch_174">
    <path clip-path="url(#p90d8e74b9a)" d="M 529.422587 1290.64087 
L 569.294799 1290.64087 
L 569.294799 1309.924348 
L 529.422587 1309.924348 
z
" style="fill:#981919;"/>
   </g>
   <g id="patch_175">
    <path clip-path="url(#p90d8e74b9a)" d="M 466.004466 1314.745217 
L 501.189753 1314.745217 
L 501.189753 1334.028696 
L 466.004466 1334.028696 
z
" style="fill:#981919;"/>
   </g>
   <g id="patch_176">
    <path clip-path="url(#p90d8e74b9a)" d="M 475.423193 1338.849565 
L 519.559615 1338.849565 
L 519.559615 1358.133043 
L 475.423193 1358.133043 
z
" style="fill:#981919;"/>
   </g>
   <g id="patch_177">
    <path clip-path="url(#p90d8e74b9a)" d="M 430.55698 1362.953913 
L 470.003875 1362.953913 
L 470.003875 1382.237391 
L 430.55698 1382.237391 
z
" style="fill:#981919;"/>
   </g>
   <g id="patch_178">
    <path clip-path="url(#p90d8e74b9a)" d="M 443.861437 1387.058261 
L 480.484407 1387.058261 
L 480.484407 1406.341739 
L 443.861437 1406.341739 
z
" style="fill:#981919;"/>
   </g>
   <g id="patch_179">
    <path clip-path="url(#p90d8e74b9a)" d="M 436.562811 1411.162609 
L 459.485134 1411.162609 
L 459.485134 1430.446087 
L 436.562811 1430.446087 
z
" style="fill:#981919;"/>
   </g>
   <g id="text_70">
    <!-- HISAT2: PE Alignment Scores -->
    <defs>
     <path d="M 9.8125 72.90625 
L 19.671875 72.90625 
L 19.671875 43.015625 
L 55.515625 43.015625 
L 55.515625 72.90625 
L 65.375 72.90625 
L 65.375 0 
L 55.515625 0 
L 55.515625 34.71875 
L 19.671875 34.71875 
L 19.671875 0 
L 9.8125 0 
z
" id="DejaVuSans-72"/>
     <path d="M 9.8125 72.90625 
L 19.671875 72.90625 
L 19.671875 0 
L 9.8125 0 
z
" id="DejaVuSans-73"/>
     <path d="M 53.515625 70.515625 
L 53.515625 60.890625 
Q 47.90625 63.578125 42.921875 64.890625 
Q 37.9375 66.21875 33.296875 66.21875 
Q 25.25 66.21875 20.875 63.09375 
Q 16.5 59.96875 16.5 54.203125 
Q 16.5 49.359375 19.40625 46.890625 
Q 22.3125 44.4375 30.421875 42.921875 
L 36.375 41.703125 
Q 47.40625 39.59375 52.65625 34.296875 
Q 57.90625 29 57.90625 20.125 
Q 57.90625 9.515625 50.796875 4.046875 
Q 43.703125 -1.421875 29.984375 -1.421875 
Q 24.8125 -1.421875 18.96875 -0.25 
Q 13.140625 0.921875 6.890625 3.21875 
L 6.890625 13.375 
Q 12.890625 10.015625 18.65625 8.296875 
Q 24.421875 6.59375 29.984375 6.59375 
Q 38.421875 6.59375 43.015625 9.90625 
Q 47.609375 13.234375 47.609375 19.390625 
Q 47.609375 24.75 44.3125 27.78125 
Q 41.015625 30.8125 33.5 32.328125 
L 27.484375 33.5 
Q 16.453125 35.6875 11.515625 40.375 
Q 6.59375 45.0625 6.59375 53.421875 
Q 6.59375 63.09375 13.40625 68.65625 
Q 20.21875 74.21875 32.171875 74.21875 
Q 37.3125 74.21875 42.625 73.28125 
Q 47.953125 72.359375 53.515625 70.515625 
z
" id="DejaVuSans-83"/>
     <path d="M 34.1875 63.1875 
L 20.796875 26.90625 
L 47.609375 26.90625 
z
M 28.609375 72.90625 
L 39.796875 72.90625 
L 67.578125 0 
L 57.328125 0 
L 50.6875 18.703125 
L 17.828125 18.703125 
L 11.1875 0 
L 0.78125 0 
z
" id="DejaVuSans-65"/>
     <path d="M -0.296875 72.90625 
L 61.375 72.90625 
L 61.375 64.59375 
L 35.5 64.59375 
L 35.5 0 
L 25.59375 0 
L 25.59375 64.59375 
L -0.296875 64.59375 
z
" id="DejaVuSans-84"/>
     <path d="M 11.71875 12.40625 
L 22.015625 12.40625 
L 22.015625 0 
L 11.71875 0 
z
M 11.71875 51.703125 
L 22.015625 51.703125 
L 22.015625 39.3125 
L 11.71875 39.3125 
z
" id="DejaVuSans-58"/>
     <path d="M 19.671875 64.796875 
L 19.671875 37.40625 
L 32.078125 37.40625 
Q 38.96875 37.40625 42.71875 40.96875 
Q 46.484375 44.53125 46.484375 51.125 
Q 46.484375 57.671875 42.71875 61.234375 
Q 38.96875 64.796875 32.078125 64.796875 
z
M 9.8125 72.90625 
L 32.078125 72.90625 
Q 44.34375 72.90625 50.609375 67.359375 
Q 56.890625 61.8125 56.890625 51.125 
Q 56.890625 40.328125 50.609375 34.8125 
Q 44.34375 29.296875 32.078125 29.296875 
L 19.671875 29.296875 
L 19.671875 0 
L 9.8125 0 
z
" id="DejaVuSans-80"/>
     <path d="M 9.8125 72.90625 
L 55.90625 72.90625 
L 55.90625 64.59375 
L 19.671875 64.59375 
L 19.671875 43.015625 
L 54.390625 43.015625 
L 54.390625 34.71875 
L 19.671875 34.71875 
L 19.671875 8.296875 
L 56.78125 8.296875 
L 56.78125 0 
L 9.8125 0 
z
" id="DejaVuSans-69"/>
     <path d="M 9.421875 75.984375 
L 18.40625 75.984375 
L 18.40625 0 
L 9.421875 0 
z
" id="DejaVuSans-108"/>
     <path d="M 9.421875 54.6875 
L 18.40625 54.6875 
L 18.40625 0 
L 9.421875 0 
z
M 9.421875 75.984375 
L 18.40625 75.984375 
L 18.40625 64.59375 
L 9.421875 64.59375 
z
" id="DejaVuSans-105"/>
     <path d="M 45.40625 27.984375 
Q 45.40625 37.75 41.375 43.109375 
Q 37.359375 48.484375 30.078125 48.484375 
Q 22.859375 48.484375 18.828125 43.109375 
Q 14.796875 37.75 14.796875 27.984375 
Q 14.796875 18.265625 18.828125 12.890625 
Q 22.859375 7.515625 30.078125 7.515625 
Q 37.359375 7.515625 41.375 12.890625 
Q 45.40625 18.265625 45.40625 27.984375 
z
M 54.390625 6.78125 
Q 54.390625 -7.171875 48.1875 -13.984375 
Q 42 -20.796875 29.203125 -20.796875 
Q 24.46875 -20.796875 20.265625 -20.09375 
Q 16.0625 -19.390625 12.109375 -17.921875 
L 12.109375 -9.1875 
Q 16.0625 -11.328125 19.921875 -12.34375 
Q 23.78125 -13.375 27.78125 -13.375 
Q 36.625 -13.375 41.015625 -8.765625 
Q 45.40625 -4.15625 45.40625 5.171875 
L 45.40625 9.625 
Q 42.625 4.78125 38.28125 2.390625 
Q 33.9375 0 27.875 0 
Q 17.828125 0 11.671875 7.65625 
Q 5.515625 15.328125 5.515625 27.984375 
Q 5.515625 40.671875 11.671875 48.328125 
Q 17.828125 56 27.875 56 
Q 33.9375 56 38.28125 53.609375 
Q 42.625 51.21875 45.40625 46.390625 
L 45.40625 54.6875 
L 54.390625 54.6875 
z
" id="DejaVuSans-103"/>
     <path d="M 54.890625 33.015625 
L 54.890625 0 
L 45.90625 0 
L 45.90625 32.71875 
Q 45.90625 40.484375 42.875 44.328125 
Q 39.84375 48.1875 33.796875 48.1875 
Q 26.515625 48.1875 22.3125 43.546875 
Q 18.109375 38.921875 18.109375 30.90625 
L 18.109375 0 
L 9.078125 0 
L 9.078125 54.6875 
L 18.109375 54.6875 
L 18.109375 46.1875 
Q 21.34375 51.125 25.703125 53.5625 
Q 30.078125 56 35.796875 56 
Q 45.21875 56 50.046875 50.171875 
Q 54.890625 44.34375 54.890625 33.015625 
z
" id="DejaVuSans-110"/>
     <path d="M 52 44.1875 
Q 55.375 50.25 60.0625 53.125 
Q 64.75 56 71.09375 56 
Q 79.640625 56 84.28125 50.015625 
Q 88.921875 44.046875 88.921875 33.015625 
L 88.921875 0 
L 79.890625 0 
L 79.890625 32.71875 
Q 79.890625 40.578125 77.09375 44.375 
Q 74.3125 48.1875 68.609375 48.1875 
Q 61.625 48.1875 57.5625 43.546875 
Q 53.515625 38.921875 53.515625 30.90625 
L 53.515625 0 
L 44.484375 0 
L 44.484375 32.71875 
Q 44.484375 40.625 41.703125 44.40625 
Q 38.921875 48.1875 33.109375 48.1875 
Q 26.21875 48.1875 22.15625 43.53125 
Q 18.109375 38.875 18.109375 30.90625 
L 18.109375 0 
L 9.078125 0 
L 9.078125 54.6875 
L 18.109375 54.6875 
L 18.109375 46.1875 
Q 21.1875 51.21875 25.484375 53.609375 
Q 29.78125 56 35.6875 56 
Q 41.65625 56 45.828125 52.96875 
Q 50 49.953125 52 44.1875 
z
" id="DejaVuSans-109"/>
     <path d="M 18.3125 70.21875 
L 18.3125 54.6875 
L 36.8125 54.6875 
L 36.8125 47.703125 
L 18.3125 47.703125 
L 18.3125 18.015625 
Q 18.3125 11.328125 20.140625 9.421875 
Q 21.96875 7.515625 27.59375 7.515625 
L 36.8125 7.515625 
L 36.8125 0 
L 27.59375 0 
Q 17.1875 0 13.234375 3.875 
Q 9.28125 7.765625 9.28125 18.015625 
L 9.28125 47.703125 
L 2.6875 47.703125 
L 2.6875 54.6875 
L 9.28125 54.6875 
L 9.28125 70.21875 
z
" id="DejaVuSans-116"/>
     <path d="M 48.78125 52.59375 
L 48.78125 44.1875 
Q 44.96875 46.296875 41.140625 47.34375 
Q 37.3125 48.390625 33.40625 48.390625 
Q 24.65625 48.390625 19.8125 42.84375 
Q 14.984375 37.3125 14.984375 27.296875 
Q 14.984375 17.28125 19.8125 11.734375 
Q 24.65625 6.203125 33.40625 6.203125 
Q 37.3125 6.203125 41.140625 7.25 
Q 44.96875 8.296875 48.78125 10.40625 
L 48.78125 2.09375 
Q 45.015625 0.34375 40.984375 -0.53125 
Q 36.96875 -1.421875 32.421875 -1.421875 
Q 20.0625 -1.421875 12.78125 6.34375 
Q 5.515625 14.109375 5.515625 27.296875 
Q 5.515625 40.671875 12.859375 48.328125 
Q 20.21875 56 33.015625 56 
Q 37.15625 56 41.109375 55.140625 
Q 45.0625 54.296875 48.78125 52.59375 
z
" id="DejaVuSans-99"/>
     <path d="M 30.609375 48.390625 
Q 23.390625 48.390625 19.1875 42.75 
Q 14.984375 37.109375 14.984375 27.296875 
Q 14.984375 17.484375 19.15625 11.84375 
Q 23.34375 6.203125 30.609375 6.203125 
Q 37.796875 6.203125 41.984375 11.859375 
Q 46.1875 17.53125 46.1875 27.296875 
Q 46.1875 37.015625 41.984375 42.703125 
Q 37.796875 48.390625 30.609375 48.390625 
z
M 30.609375 56 
Q 42.328125 56 49.015625 48.375 
Q 55.71875 40.765625 55.71875 27.296875 
Q 55.71875 13.875 49.015625 6.21875 
Q 42.328125 -1.421875 30.609375 -1.421875 
Q 18.84375 -1.421875 12.171875 6.21875 
Q 5.515625 13.875 5.515625 27.296875 
Q 5.515625 40.765625 12.171875 48.375 
Q 18.84375 56 30.609375 56 
z
" id="DejaVuSans-111"/>
     <path d="M 41.109375 46.296875 
Q 39.59375 47.171875 37.8125 47.578125 
Q 36.03125 48 33.890625 48 
Q 26.265625 48 22.1875 43.046875 
Q 18.109375 38.09375 18.109375 28.8125 
L 18.109375 0 
L 9.078125 0 
L 9.078125 54.6875 
L 18.109375 54.6875 
L 18.109375 46.1875 
Q 20.953125 51.171875 25.484375 53.578125 
Q 30.03125 56 36.53125 56 
Q 37.453125 56 38.578125 55.875 
Q 39.703125 55.765625 41.0625 55.515625 
z
" id="DejaVuSans-114"/>
    </defs>
    <g transform="translate(314.28375 -17.02)scale(0.16 -0.16)">
     <use xlink:href="#DejaVuSans-72"/>
     <use x="75.195312" xlink:href="#DejaVuSans-73"/>
     <use x="104.6875" xlink:href="#DejaVuSans-83"/>
     <use x="168.179688" xlink:href="#DejaVuSans-65"/>
     <use x="236.478516" xlink:href="#DejaVuSans-84"/>
     <use x="297.5625" xlink:href="#DejaVuSans-50"/>
     <use x="361.185547" xlink:href="#DejaVuSans-58"/>
     <use x="394.876953" xlink:href="#DejaVuSans-32"/>
     <use x="426.664062" xlink:href="#DejaVuSans-80"/>
     <use x="486.966797" xlink:href="#DejaVuSans-69"/>
     <use x="550.150391" xlink:href="#DejaVuSans-32"/>
     <use x="581.9375" xlink:href="#DejaVuSans-65"/>
     <use x="650.345703" xlink:href="#DejaVuSans-108"/>
     <use x="678.128906" xlink:href="#DejaVuSans-105"/>
     <use x="705.912109" xlink:href="#DejaVuSans-103"/>
     <use x="769.388672" xlink:href="#DejaVuSans-110"/>
     <use x="832.767578" xlink:href="#DejaVuSans-109"/>
     <use x="930.179688" xlink:href="#DejaVuSans-101"/>
     <use x="991.703125" xlink:href="#DejaVuSans-110"/>
     <use x="1055.082031" xlink:href="#DejaVuSans-116"/>
     <use x="1094.291016" xlink:href="#DejaVuSans-32"/>
     <use x="1126.078125" xlink:href="#DejaVuSans-83"/>
     <use x="1189.554688" xlink:href="#DejaVuSans-99"/>
     <use x="1244.535156" xlink:href="#DejaVuSans-111"/>
     <use x="1305.716797" xlink:href="#DejaVuSans-114"/>
     <use x="1346.798828" xlink:href="#DejaVuSans-101"/>
     <use x="1408.322266" xlink:href="#DejaVuSans-115"/>
    </g>
   </g>
   <g id="legend_1">
    <g id="patch_180">
     <path d="M 47.7175 1507.152772 
L 63.7175 1507.152772 
L 63.7175 1501.552772 
L 47.7175 1501.552772 
z
" style="fill:#20568f;"/>
    </g>
    <g id="text_71">
     <!-- PE mapped uniquely -->
     <defs>
      <path d="M 18.109375 8.203125 
L 18.109375 -20.796875 
L 9.078125 -20.796875 
L 9.078125 54.6875 
L 18.109375 54.6875 
L 18.109375 46.390625 
Q 20.953125 51.265625 25.265625 53.625 
Q 29.59375 56 35.59375 56 
Q 45.5625 56 51.78125 48.09375 
Q 58.015625 40.1875 58.015625 27.296875 
Q 58.015625 14.40625 51.78125 6.484375 
Q 45.5625 -1.421875 35.59375 -1.421875 
Q 29.59375 -1.421875 25.265625 0.953125 
Q 20.953125 3.328125 18.109375 8.203125 
z
M 48.6875 27.296875 
Q 48.6875 37.203125 44.609375 42.84375 
Q 40.53125 48.484375 33.40625 48.484375 
Q 26.265625 48.484375 22.1875 42.84375 
Q 18.109375 37.203125 18.109375 27.296875 
Q 18.109375 17.390625 22.1875 11.75 
Q 26.265625 6.109375 33.40625 6.109375 
Q 40.53125 6.109375 44.609375 11.75 
Q 48.6875 17.390625 48.6875 27.296875 
z
" id="DejaVuSans-112"/>
      <path d="M 8.5 21.578125 
L 8.5 54.6875 
L 17.484375 54.6875 
L 17.484375 21.921875 
Q 17.484375 14.15625 20.5 10.265625 
Q 23.53125 6.390625 29.59375 6.390625 
Q 36.859375 6.390625 41.078125 11.03125 
Q 45.3125 15.671875 45.3125 23.6875 
L 45.3125 54.6875 
L 54.296875 54.6875 
L 54.296875 0 
L 45.3125 0 
L 45.3125 8.40625 
Q 42.046875 3.421875 37.71875 1 
Q 33.40625 -1.421875 27.6875 -1.421875 
Q 18.265625 -1.421875 13.375 4.4375 
Q 8.5 10.296875 8.5 21.578125 
z
M 31.109375 56 
z
" id="DejaVuSans-117"/>
      <path d="M 14.796875 27.296875 
Q 14.796875 17.390625 18.875 11.75 
Q 22.953125 6.109375 30.078125 6.109375 
Q 37.203125 6.109375 41.296875 11.75 
Q 45.40625 17.390625 45.40625 27.296875 
Q 45.40625 37.203125 41.296875 42.84375 
Q 37.203125 48.484375 30.078125 48.484375 
Q 22.953125 48.484375 18.875 42.84375 
Q 14.796875 37.203125 14.796875 27.296875 
z
M 45.40625 8.203125 
Q 42.578125 3.328125 38.25 0.953125 
Q 33.9375 -1.421875 27.875 -1.421875 
Q 17.96875 -1.421875 11.734375 6.484375 
Q 5.515625 14.40625 5.515625 27.296875 
Q 5.515625 40.1875 11.734375 48.09375 
Q 17.96875 56 27.875 56 
Q 33.9375 56 38.25 53.625 
Q 42.578125 51.265625 45.40625 46.390625 
L 45.40625 54.6875 
L 54.390625 54.6875 
L 54.390625 -20.796875 
L 45.40625 -20.796875 
z
" id="DejaVuSans-113"/>
      <path d="M 32.171875 -5.078125 
Q 28.375 -14.84375 24.75 -17.8125 
Q 21.140625 -20.796875 15.09375 -20.796875 
L 7.90625 -20.796875 
L 7.90625 -13.28125 
L 13.1875 -13.28125 
Q 16.890625 -13.28125 18.9375 -11.515625 
Q 21 -9.765625 23.484375 -3.21875 
L 25.09375 0.875 
L 2.984375 54.6875 
L 12.5 54.6875 
L 29.59375 11.921875 
L 46.6875 54.6875 
L 56.203125 54.6875 
z
" id="DejaVuSans-121"/>
     </defs>
     <g transform="translate(70.1175 1507.152772)scale(0.08 -0.08)">
      <use xlink:href="#DejaVuSans-80"/>
      <use x="60.302734" xlink:href="#DejaVuSans-69"/>
      <use x="123.486328" xlink:href="#DejaVuSans-32"/>
      <use x="155.273438" xlink:href="#DejaVuSans-109"/>
      <use x="252.685547" xlink:href="#DejaVuSans-97"/>
      <use x="313.964844" xlink:href="#DejaVuSans-112"/>
      <use x="377.441406" xlink:href="#DejaVuSans-112"/>
      <use x="440.917969" xlink:href="#DejaVuSans-101"/>
      <use x="502.441406" xlink:href="#DejaVuSans-100"/>
      <use x="565.917969" xlink:href="#DejaVuSans-32"/>
      <use x="597.705078" xlink:href="#DejaVuSans-117"/>
      <use x="661.083984" xlink:href="#DejaVuSans-110"/>
      <use x="724.462891" xlink:href="#DejaVuSans-105"/>
      <use x="752.246094" xlink:href="#DejaVuSans-113"/>
      <use x="815.722656" xlink:href="#DejaVuSans-117"/>
      <use x="879.101562" xlink:href="#DejaVuSans-101"/>
      <use x="940.625" xlink:href="#DejaVuSans-108"/>
      <use x="968.408203" xlink:href="#DejaVuSans-121"/>
     </g>
    </g>
    <g id="patch_181">
     <path d="M 379.9675 1507.152772 
L 395.9675 1507.152772 
L 395.9675 1501.552772 
L 379.9675 1501.552772 
z
" style="fill:#f7a35c;"/>
    </g>
    <g id="text_72">
     <!-- PE multimapped -->
     <g transform="translate(402.3675 1507.152772)scale(0.08 -0.08)">
      <use xlink:href="#DejaVuSans-80"/>
      <use x="60.302734" xlink:href="#DejaVuSans-69"/>
      <use x="123.486328" xlink:href="#DejaVuSans-32"/>
      <use x="155.273438" xlink:href="#DejaVuSans-109"/>
      <use x="252.685547" xlink:href="#DejaVuSans-117"/>
      <use x="316.064453" xlink:href="#DejaVuSans-108"/>
      <use x="343.847656" xlink:href="#DejaVuSans-116"/>
      <use x="383.056641" xlink:href="#DejaVuSans-105"/>
      <use x="410.839844" xlink:href="#DejaVuSans-109"/>
      <use x="508.251953" xlink:href="#DejaVuSans-97"/>
      <use x="569.53125" xlink:href="#DejaVuSans-112"/>
      <use x="633.007812" xlink:href="#DejaVuSans-112"/>
      <use x="696.484375" xlink:href="#DejaVuSans-101"/>
      <use x="758.007812" xlink:href="#DejaVuSans-100"/>
     </g>
    </g>
    <g id="patch_182">
     <path d="M 695.7275 1507.152772 
L 711.7275 1507.152772 
L 711.7275 1501.552772 
L 695.7275 1501.552772 
z
" style="fill:#981919;"/>
    </g>
    <g id="text_73">
     <!-- PE neither mate aligned -->
     <defs>
      <path d="M 54.890625 33.015625 
L 54.890625 0 
L 45.90625 0 
L 45.90625 32.71875 
Q 45.90625 40.484375 42.875 44.328125 
Q 39.84375 48.1875 33.796875 48.1875 
Q 26.515625 48.1875 22.3125 43.546875 
Q 18.109375 38.921875 18.109375 30.90625 
L 18.109375 0 
L 9.078125 0 
L 9.078125 75.984375 
L 18.109375 75.984375 
L 18.109375 46.1875 
Q 21.34375 51.125 25.703125 53.5625 
Q 30.078125 56 35.796875 56 
Q 45.21875 56 50.046875 50.171875 
Q 54.890625 44.34375 54.890625 33.015625 
z
" id="DejaVuSans-104"/>
     </defs>
     <g transform="translate(718.1275 1507.152772)scale(0.08 -0.08)">
      <use xlink:href="#DejaVuSans-80"/>
      <use x="60.302734" xlink:href="#DejaVuSans-69"/>
      <use x="123.486328" xlink:href="#DejaVuSans-32"/>
      <use x="155.273438" xlink:href="#DejaVuSans-110"/>
      <use x="218.652344" xlink:href="#DejaVuSans-101"/>
      <use x="280.175781" xlink:href="#DejaVuSans-105"/>
      <use x="307.958984" xlink:href="#DejaVuSans-116"/>
      <use x="347.167969" xlink:href="#DejaVuSans-104"/>
      <use x="410.546875" xlink:href="#DejaVuSans-101"/>
      <use x="472.070312" xlink:href="#DejaVuSans-114"/>
      <use x="513.183594" xlink:href="#DejaVuSans-32"/>
      <use x="544.970703" xlink:href="#DejaVuSans-109"/>
      <use x="642.382812" xlink:href="#DejaVuSans-97"/>
      <use x="703.662109" xlink:href="#DejaVuSans-116"/>
      <use x="742.871094" xlink:href="#DejaVuSans-101"/>
      <use x="804.394531" xlink:href="#DejaVuSans-32"/>
      <use x="836.181641" xlink:href="#DejaVuSans-97"/>
      <use x="897.460938" xlink:href="#DejaVuSans-108"/>
      <use x="925.244141" xlink:href="#DejaVuSans-105"/>
      <use x="953.027344" xlink:href="#DejaVuSans-103"/>
      <use x="1016.503906" xlink:href="#DejaVuSans-110"/>
      <use x="1079.882812" xlink:href="#DejaVuSans-101"/>
      <use x="1141.40625" xlink:href="#DejaVuSans-100"/>
     </g>
    </g>
   </g>
  </g>
 </g>
 <defs>
  <clipPath id="p90d8e74b9a">
   <rect height="1422.156522" width="781.2" x="40.5175" y="10.7"/>
  </clipPath>
 </defs>
</svg>
