<?xml version="1.0" encoding="utf-8" standalone="no"?>
<!DOCTYPE svg PUBLIC "-//W3C//DTD SVG 1.1//EN"
  "http://www.w3.org/Graphics/SVG/1.1/DTD/svg11.dtd">
<!-- Created with matplotlib (https://matplotlib.org/) -->
<svg height="388.844525pt" version="1.1" viewBox="0 0 1000.138125 388.844525" width="1000.138125pt" xmlns="http://www.w3.org/2000/svg" xmlns:xlink="http://www.w3.org/1999/xlink">
 <defs>
  <style type="text/css">
*{stroke-linecap:butt;stroke-linejoin:round;}
  </style>
 </defs>
 <g id="figure_1">
  <g id="patch_1">
   <path d="M 0 388.844525 
L 1000.138125 388.844525 
L 1000.138125 0 
L 0 0 
z
" style="fill:#ffffff;"/>
  </g>
  <g id="axes_1">
   <g id="patch_2">
    <path d="M 53.328125 353.2239 
L 985.303125 353.2239 
L 985.303125 35.2559 
L 53.328125 35.2559 
z
" style="fill:#ffffff;"/>
   </g>
   <g id="matplotlib.axis_1">
    <g id="xtick_1">
     <g id="text_1">
      <!-- 0 -->
      <defs>
       <path d="M 31.78125 66.40625 
Q 24.171875 66.40625 20.328125 58.90625 
Q 16.5 51.421875 16.5 36.375 
Q 16.5 21.390625 20.328125 13.890625 
Q 24.171875 6.390625 31.78125 6.390625 
Q 39.453125 6.390625 43.28125 13.890625 
Q 47.125 21.390625 47.125 36.375 
Q 47.125 51.421875 43.28125 58.90625 
Q 39.453125 66.40625 31.78125 66.40625 
z
M 31.78125 74.21875 
Q 44.046875 74.21875 50.515625 64.515625 
Q 56.984375 54.828125 56.984375 36.375 
Q 56.984375 17.96875 50.515625 8.265625 
Q 44.046875 -1.421875 31.78125 -1.421875 
Q 19.53125 -1.421875 13.0625 8.265625 
Q 6.59375 17.96875 6.59375 36.375 
Q 6.59375 54.828125 13.0625 64.515625 
Q 19.53125 74.21875 31.78125 74.21875 
z
" id="DejaVuSans-48"/>
      </defs>
      <g transform="translate(50.783125 366.30265)scale(0.08 -0.08)">
       <use xlink:href="#DejaVuSans-48"/>
      </g>
     </g>
    </g>
    <g id="xtick_2">
     <g id="text_2">
      <!-- 20 -->
      <defs>
       <path d="M 19.1875 8.296875 
L 53.609375 8.296875 
L 53.609375 0 
L 7.328125 0 
L 7.328125 8.296875 
Q 12.9375 14.109375 22.625 23.890625 
Q 32.328125 33.6875 34.8125 36.53125 
Q 39.546875 41.84375 41.421875 45.53125 
Q 43.3125 49.21875 43.3125 52.78125 
Q 43.3125 58.59375 39.234375 62.25 
Q 35.15625 65.921875 28.609375 65.921875 
Q 23.96875 65.921875 18.8125 64.3125 
Q 13.671875 62.703125 7.8125 59.421875 
L 7.8125 69.390625 
Q 13.765625 71.78125 18.9375 73 
Q 24.125 74.21875 28.421875 74.21875 
Q 39.75 74.21875 46.484375 68.546875 
Q 53.21875 62.890625 53.21875 53.421875 
Q 53.21875 48.921875 51.53125 44.890625 
Q 49.859375 40.875 45.40625 35.40625 
Q 44.1875 33.984375 37.640625 27.21875 
Q 31.109375 20.453125 19.1875 8.296875 
z
" id="DejaVuSans-50"/>
      </defs>
      <g transform="translate(234.633125 366.30265)scale(0.08 -0.08)">
       <use xlink:href="#DejaVuSans-50"/>
       <use x="63.623047" xlink:href="#DejaVuSans-48"/>
      </g>
     </g>
    </g>
    <g id="xtick_3">
     <g id="text_3">
      <!-- 40 -->
      <defs>
       <path d="M 37.796875 64.3125 
L 12.890625 25.390625 
L 37.796875 25.390625 
z
M 35.203125 72.90625 
L 47.609375 72.90625 
L 47.609375 25.390625 
L 58.015625 25.390625 
L 58.015625 17.1875 
L 47.609375 17.1875 
L 47.609375 0 
L 37.796875 0 
L 37.796875 17.1875 
L 4.890625 17.1875 
L 4.890625 26.703125 
z
" id="DejaVuSans-52"/>
      </defs>
      <g transform="translate(421.028125 366.30265)scale(0.08 -0.08)">
       <use xlink:href="#DejaVuSans-52"/>
       <use x="63.623047" xlink:href="#DejaVuSans-48"/>
      </g>
     </g>
    </g>
    <g id="xtick_4">
     <g id="text_4">
      <!-- 60 -->
      <defs>
       <path d="M 33.015625 40.375 
Q 26.375 40.375 22.484375 35.828125 
Q 18.609375 31.296875 18.609375 23.390625 
Q 18.609375 15.53125 22.484375 10.953125 
Q 26.375 6.390625 33.015625 6.390625 
Q 39.65625 6.390625 43.53125 10.953125 
Q 47.40625 15.53125 47.40625 23.390625 
Q 47.40625 31.296875 43.53125 35.828125 
Q 39.65625 40.375 33.015625 40.375 
z
M 52.59375 71.296875 
L 52.59375 62.3125 
Q 48.875 64.0625 45.09375 64.984375 
Q 41.3125 65.921875 37.59375 65.921875 
Q 27.828125 65.921875 22.671875 59.328125 
Q 17.53125 52.734375 16.796875 39.40625 
Q 19.671875 43.65625 24.015625 45.921875 
Q 28.375 48.1875 33.59375 48.1875 
Q 44.578125 48.1875 50.953125 41.515625 
Q 57.328125 34.859375 57.328125 23.390625 
Q 57.328125 12.15625 50.6875 5.359375 
Q 44.046875 -1.421875 33.015625 -1.421875 
Q 20.359375 -1.421875 13.671875 8.265625 
Q 6.984375 17.96875 6.984375 36.375 
Q 6.984375 53.65625 15.1875 63.9375 
Q 23.390625 74.21875 37.203125 74.21875 
Q 40.921875 74.21875 44.703125 73.484375 
Q 48.484375 72.75 52.59375 71.296875 
z
" id="DejaVuSans-54"/>
      </defs>
      <g transform="translate(607.423125 366.30265)scale(0.08 -0.08)">
       <use xlink:href="#DejaVuSans-54"/>
       <use x="63.623047" xlink:href="#DejaVuSans-48"/>
      </g>
     </g>
    </g>
    <g id="xtick_5">
     <g id="text_5">
      <!-- 80 -->
      <defs>
       <path d="M 31.78125 34.625 
Q 24.75 34.625 20.71875 30.859375 
Q 16.703125 27.09375 16.703125 20.515625 
Q 16.703125 13.921875 20.71875 10.15625 
Q 24.75 6.390625 31.78125 6.390625 
Q 38.8125 6.390625 42.859375 10.171875 
Q 46.921875 13.96875 46.921875 20.515625 
Q 46.921875 27.09375 42.890625 30.859375 
Q 38.875 34.625 31.78125 34.625 
z
M 21.921875 38.8125 
Q 15.578125 40.375 12.03125 44.71875 
Q 8.5 49.078125 8.5 55.328125 
Q 8.5 64.0625 14.71875 69.140625 
Q 20.953125 74.21875 31.78125 74.21875 
Q 42.671875 74.21875 48.875 69.140625 
Q 55.078125 64.0625 55.078125 55.328125 
Q 55.078125 49.078125 51.53125 44.71875 
Q 48 40.375 41.703125 38.8125 
Q 48.828125 37.15625 52.796875 32.3125 
Q 56.78125 27.484375 56.78125 20.515625 
Q 56.78125 9.90625 50.3125 4.234375 
Q 43.84375 -1.421875 31.78125 -1.421875 
Q 19.734375 -1.421875 13.25 4.234375 
Q 6.78125 9.90625 6.78125 20.515625 
Q 6.78125 27.484375 10.78125 32.3125 
Q 14.796875 37.15625 21.921875 38.8125 
z
M 18.3125 54.390625 
Q 18.3125 48.734375 21.84375 45.5625 
Q 25.390625 42.390625 31.78125 42.390625 
Q 38.140625 42.390625 41.71875 45.5625 
Q 45.3125 48.734375 45.3125 54.390625 
Q 45.3125 60.0625 41.71875 63.234375 
Q 38.140625 66.40625 31.78125 66.40625 
Q 25.390625 66.40625 21.84375 63.234375 
Q 18.3125 60.0625 18.3125 54.390625 
z
" id="DejaVuSans-56"/>
      </defs>
      <g transform="translate(793.818125 366.30265)scale(0.08 -0.08)">
       <use xlink:href="#DejaVuSans-56"/>
       <use x="63.623047" xlink:href="#DejaVuSans-48"/>
      </g>
     </g>
    </g>
    <g id="xtick_6">
     <g id="text_6">
      <!-- 100 -->
      <defs>
       <path d="M 12.40625 8.296875 
L 28.515625 8.296875 
L 28.515625 63.921875 
L 10.984375 60.40625 
L 10.984375 69.390625 
L 28.421875 72.90625 
L 38.28125 72.90625 
L 38.28125 8.296875 
L 54.390625 8.296875 
L 54.390625 0 
L 12.40625 0 
z
" id="DejaVuSans-49"/>
      </defs>
      <g transform="translate(977.668125 366.30265)scale(0.08 -0.08)">
       <use xlink:href="#DejaVuSans-49"/>
       <use x="63.623047" xlink:href="#DejaVuSans-48"/>
       <use x="127.246094" xlink:href="#DejaVuSans-48"/>
      </g>
     </g>
    </g>
    <g id="text_7">
     <!-- Percent of reads -->
     <defs>
      <path d="M 19.671875 64.796875 
L 19.671875 37.40625 
L 32.078125 37.40625 
Q 38.96875 37.40625 42.71875 40.96875 
Q 46.484375 44.53125 46.484375 51.125 
Q 46.484375 57.671875 42.71875 61.234375 
Q 38.96875 64.796875 32.078125 64.796875 
z
M 9.8125 72.90625 
L 32.078125 72.90625 
Q 44.34375 72.90625 50.609375 67.359375 
Q 56.890625 61.8125 56.890625 51.125 
Q 56.890625 40.328125 50.609375 34.8125 
Q 44.34375 29.296875 32.078125 29.296875 
L 19.671875 29.296875 
L 19.671875 0 
L 9.8125 0 
z
" id="DejaVuSans-80"/>
      <path d="M 56.203125 29.59375 
L 56.203125 25.203125 
L 14.890625 25.203125 
Q 15.484375 15.921875 20.484375 11.0625 
Q 25.484375 6.203125 34.421875 6.203125 
Q 39.59375 6.203125 44.453125 7.46875 
Q 49.3125 8.734375 54.109375 11.28125 
L 54.109375 2.78125 
Q 49.265625 0.734375 44.1875 -0.34375 
Q 39.109375 -1.421875 33.890625 -1.421875 
Q 20.796875 -1.421875 13.15625 6.1875 
Q 5.515625 13.8125 5.515625 26.8125 
Q 5.515625 40.234375 12.765625 48.109375 
Q 20.015625 56 32.328125 56 
Q 43.359375 56 49.78125 48.890625 
Q 56.203125 41.796875 56.203125 29.59375 
z
M 47.21875 32.234375 
Q 47.125 39.59375 43.09375 43.984375 
Q 39.0625 48.390625 32.421875 48.390625 
Q 24.90625 48.390625 20.390625 44.140625 
Q 15.875 39.890625 15.1875 32.171875 
z
" id="DejaVuSans-101"/>
      <path d="M 41.109375 46.296875 
Q 39.59375 47.171875 37.8125 47.578125 
Q 36.03125 48 33.890625 48 
Q 26.265625 48 22.1875 43.046875 
Q 18.109375 38.09375 18.109375 28.8125 
L 18.109375 0 
L 9.078125 0 
L 9.078125 54.6875 
L 18.109375 54.6875 
L 18.109375 46.1875 
Q 20.953125 51.171875 25.484375 53.578125 
Q 30.03125 56 36.53125 56 
Q 37.453125 56 38.578125 55.875 
Q 39.703125 55.765625 41.0625 55.515625 
z
" id="DejaVuSans-114"/>
      <path d="M 48.78125 52.59375 
L 48.78125 44.1875 
Q 44.96875 46.296875 41.140625 47.34375 
Q 37.3125 48.390625 33.40625 48.390625 
Q 24.65625 48.390625 19.8125 42.84375 
Q 14.984375 37.3125 14.984375 27.296875 
Q 14.984375 17.28125 19.8125 11.734375 
Q 24.65625 6.203125 33.40625 6.203125 
Q 37.3125 6.203125 41.140625 7.25 
Q 44.96875 8.296875 48.78125 10.40625 
L 48.78125 2.09375 
Q 45.015625 0.34375 40.984375 -0.53125 
Q 36.96875 -1.421875 32.421875 -1.421875 
Q 20.0625 -1.421875 12.78125 6.34375 
Q 5.515625 14.109375 5.515625 27.296875 
Q 5.515625 40.671875 12.859375 48.328125 
Q 20.21875 56 33.015625 56 
Q 37.15625 56 41.109375 55.140625 
Q 45.0625 54.296875 48.78125 52.59375 
z
" id="DejaVuSans-99"/>
      <path d="M 54.890625 33.015625 
L 54.890625 0 
L 45.90625 0 
L 45.90625 32.71875 
Q 45.90625 40.484375 42.875 44.328125 
Q 39.84375 48.1875 33.796875 48.1875 
Q 26.515625 48.1875 22.3125 43.546875 
Q 18.109375 38.921875 18.109375 30.90625 
L 18.109375 0 
L 9.078125 0 
L 9.078125 54.6875 
L 18.109375 54.6875 
L 18.109375 46.1875 
Q 21.34375 51.125 25.703125 53.5625 
Q 30.078125 56 35.796875 56 
Q 45.21875 56 50.046875 50.171875 
Q 54.890625 44.34375 54.890625 33.015625 
z
" id="DejaVuSans-110"/>
      <path d="M 18.3125 70.21875 
L 18.3125 54.6875 
L 36.8125 54.6875 
L 36.8125 47.703125 
L 18.3125 47.703125 
L 18.3125 18.015625 
Q 18.3125 11.328125 20.140625 9.421875 
Q 21.96875 7.515625 27.59375 7.515625 
L 36.8125 7.515625 
L 36.8125 0 
L 27.59375 0 
Q 17.1875 0 13.234375 3.875 
Q 9.28125 7.765625 9.28125 18.015625 
L 9.28125 47.703125 
L 2.6875 47.703125 
L 2.6875 54.6875 
L 9.28125 54.6875 
L 9.28125 70.21875 
z
" id="DejaVuSans-116"/>
      <path id="DejaVuSans-32"/>
      <path d="M 30.609375 48.390625 
Q 23.390625 48.390625 19.1875 42.75 
Q 14.984375 37.109375 14.984375 27.296875 
Q 14.984375 17.484375 19.15625 11.84375 
Q 23.34375 6.203125 30.609375 6.203125 
Q 37.796875 6.203125 41.984375 11.859375 
Q 46.1875 17.53125 46.1875 27.296875 
Q 46.1875 37.015625 41.984375 42.703125 
Q 37.796875 48.390625 30.609375 48.390625 
z
M 30.609375 56 
Q 42.328125 56 49.015625 48.375 
Q 55.71875 40.765625 55.71875 27.296875 
Q 55.71875 13.875 49.015625 6.21875 
Q 42.328125 -1.421875 30.609375 -1.421875 
Q 18.84375 -1.421875 12.171875 6.21875 
Q 5.515625 13.875 5.515625 27.296875 
Q 5.515625 40.765625 12.171875 48.375 
Q 18.84375 56 30.609375 56 
z
" id="DejaVuSans-111"/>
      <path d="M 37.109375 75.984375 
L 37.109375 68.5 
L 28.515625 68.5 
Q 23.6875 68.5 21.796875 66.546875 
Q 19.921875 64.59375 19.921875 59.515625 
L 19.921875 54.6875 
L 34.71875 54.6875 
L 34.71875 47.703125 
L 19.921875 47.703125 
L 19.921875 0 
L 10.890625 0 
L 10.890625 47.703125 
L 2.296875 47.703125 
L 2.296875 54.6875 
L 10.890625 54.6875 
L 10.890625 58.5 
Q 10.890625 67.625 15.140625 71.796875 
Q 19.390625 75.984375 28.609375 75.984375 
z
" id="DejaVuSans-102"/>
      <path d="M 34.28125 27.484375 
Q 23.390625 27.484375 19.1875 25 
Q 14.984375 22.515625 14.984375 16.5 
Q 14.984375 11.71875 18.140625 8.90625 
Q 21.296875 6.109375 26.703125 6.109375 
Q 34.1875 6.109375 38.703125 11.40625 
Q 43.21875 16.703125 43.21875 25.484375 
L 43.21875 27.484375 
z
M 52.203125 31.203125 
L 52.203125 0 
L 43.21875 0 
L 43.21875 8.296875 
Q 40.140625 3.328125 35.546875 0.953125 
Q 30.953125 -1.421875 24.3125 -1.421875 
Q 15.921875 -1.421875 10.953125 3.296875 
Q 6 8.015625 6 15.921875 
Q 6 25.140625 12.171875 29.828125 
Q 18.359375 34.515625 30.609375 34.515625 
L 43.21875 34.515625 
L 43.21875 35.40625 
Q 43.21875 41.609375 39.140625 45 
Q 35.0625 48.390625 27.6875 48.390625 
Q 23 48.390625 18.546875 47.265625 
Q 14.109375 46.140625 10.015625 43.890625 
L 10.015625 52.203125 
Q 14.9375 54.109375 19.578125 55.046875 
Q 24.21875 56 28.609375 56 
Q 40.484375 56 46.34375 49.84375 
Q 52.203125 43.703125 52.203125 31.203125 
z
" id="DejaVuSans-97"/>
      <path d="M 45.40625 46.390625 
L 45.40625 75.984375 
L 54.390625 75.984375 
L 54.390625 0 
L 45.40625 0 
L 45.40625 8.203125 
Q 42.578125 3.328125 38.25 0.953125 
Q 33.9375 -1.421875 27.875 -1.421875 
Q 17.96875 -1.421875 11.734375 6.484375 
Q 5.515625 14.40625 5.515625 27.296875 
Q 5.515625 40.1875 11.734375 48.09375 
Q 17.96875 56 27.875 56 
Q 33.9375 56 38.25 53.625 
Q 42.578125 51.265625 45.40625 46.390625 
z
M 14.796875 27.296875 
Q 14.796875 17.390625 18.875 11.75 
Q 22.953125 6.109375 30.078125 6.109375 
Q 37.203125 6.109375 41.296875 11.75 
Q 45.40625 17.390625 45.40625 27.296875 
Q 45.40625 37.203125 41.296875 42.84375 
Q 37.203125 48.484375 30.078125 48.484375 
Q 22.953125 48.484375 18.875 42.84375 
Q 14.796875 37.203125 14.796875 27.296875 
z
" id="DejaVuSans-100"/>
      <path d="M 44.28125 53.078125 
L 44.28125 44.578125 
Q 40.484375 46.53125 36.375 47.5 
Q 32.28125 48.484375 27.875 48.484375 
Q 21.1875 48.484375 17.84375 46.4375 
Q 14.5 44.390625 14.5 40.28125 
Q 14.5 37.15625 16.890625 35.375 
Q 19.28125 33.59375 26.515625 31.984375 
L 29.59375 31.296875 
Q 39.15625 29.25 43.1875 25.515625 
Q 47.21875 21.78125 47.21875 15.09375 
Q 47.21875 7.46875 41.1875 3.015625 
Q 35.15625 -1.421875 24.609375 -1.421875 
Q 20.21875 -1.421875 15.453125 -0.5625 
Q 10.6875 0.296875 5.421875 2 
L 5.421875 11.28125 
Q 10.40625 8.6875 15.234375 7.390625 
Q 20.0625 6.109375 24.8125 6.109375 
Q 31.15625 6.109375 34.5625 8.28125 
Q 37.984375 10.453125 37.984375 14.40625 
Q 37.984375 18.0625 35.515625 20.015625 
Q 33.0625 21.96875 24.703125 23.78125 
L 21.578125 24.515625 
Q 13.234375 26.265625 9.515625 29.90625 
Q 5.8125 33.546875 5.8125 39.890625 
Q 5.8125 47.609375 11.28125 51.796875 
Q 16.75 56 26.8125 56 
Q 31.78125 56 36.171875 55.265625 
Q 40.578125 54.546875 44.28125 53.078125 
z
" id="DejaVuSans-115"/>
     </defs>
     <g transform="translate(478.246875 379.564837)scale(0.1 -0.1)">
      <use xlink:href="#DejaVuSans-80"/>
      <use x="60.255859" xlink:href="#DejaVuSans-101"/>
      <use x="121.779297" xlink:href="#DejaVuSans-114"/>
      <use x="162.861328" xlink:href="#DejaVuSans-99"/>
      <use x="217.841797" xlink:href="#DejaVuSans-101"/>
      <use x="279.365234" xlink:href="#DejaVuSans-110"/>
      <use x="342.744141" xlink:href="#DejaVuSans-116"/>
      <use x="381.953125" xlink:href="#DejaVuSans-32"/>
      <use x="413.740234" xlink:href="#DejaVuSans-111"/>
      <use x="474.921875" xlink:href="#DejaVuSans-102"/>
      <use x="510.126953" xlink:href="#DejaVuSans-32"/>
      <use x="541.914062" xlink:href="#DejaVuSans-114"/>
      <use x="582.996094" xlink:href="#DejaVuSans-101"/>
      <use x="644.519531" xlink:href="#DejaVuSans-97"/>
      <use x="705.798828" xlink:href="#DejaVuSans-100"/>
      <use x="769.275391" xlink:href="#DejaVuSans-115"/>
     </g>
    </g>
   </g>
   <g id="matplotlib.axis_2">
    <g id="ytick_1">
     <g id="line2d_1">
      <path clip-path="url(#pd55ccb3347)" d="M 53.328125 353.2239 
L 985.303125 353.2239 
" style="fill:none;stroke:#dedede;stroke-linecap:square;"/>
     </g>
     <g id="text_8">
      <!-- 0 -->
      <g transform="translate(41.238125 356.263275)scale(0.08 -0.08)">
       <use xlink:href="#DejaVuSans-48"/>
      </g>
     </g>
    </g>
    <g id="ytick_2">
     <g id="line2d_2">
      <path clip-path="url(#pd55ccb3347)" d="M 53.328125 301.751779 
L 985.303125 301.751779 
" style="fill:none;stroke:#dedede;stroke-linecap:square;"/>
     </g>
     <g id="text_9">
      <!-- 10000 -->
      <g transform="translate(20.878125 304.791154)scale(0.08 -0.08)">
       <use xlink:href="#DejaVuSans-49"/>
       <use x="63.623047" xlink:href="#DejaVuSans-48"/>
       <use x="127.246094" xlink:href="#DejaVuSans-48"/>
       <use x="190.869141" xlink:href="#DejaVuSans-48"/>
       <use x="254.492188" xlink:href="#DejaVuSans-48"/>
      </g>
     </g>
    </g>
    <g id="ytick_3">
     <g id="line2d_3">
      <path clip-path="url(#pd55ccb3347)" d="M 53.328125 250.279657 
L 985.303125 250.279657 
" style="fill:none;stroke:#dedede;stroke-linecap:square;"/>
     </g>
     <g id="text_10">
      <!-- 20000 -->
      <g transform="translate(20.878125 253.319032)scale(0.08 -0.08)">
       <use xlink:href="#DejaVuSans-50"/>
       <use x="63.623047" xlink:href="#DejaVuSans-48"/>
       <use x="127.246094" xlink:href="#DejaVuSans-48"/>
       <use x="190.869141" xlink:href="#DejaVuSans-48"/>
       <use x="254.492188" xlink:href="#DejaVuSans-48"/>
      </g>
     </g>
    </g>
    <g id="ytick_4">
     <g id="line2d_4">
      <path clip-path="url(#pd55ccb3347)" d="M 53.328125 198.807536 
L 985.303125 198.807536 
" style="fill:none;stroke:#dedede;stroke-linecap:square;"/>
     </g>
     <g id="text_11">
      <!-- 30000 -->
      <defs>
       <path d="M 40.578125 39.3125 
Q 47.65625 37.796875 51.625 33 
Q 55.609375 28.21875 55.609375 21.1875 
Q 55.609375 10.40625 48.1875 4.484375 
Q 40.765625 -1.421875 27.09375 -1.421875 
Q 22.515625 -1.421875 17.65625 -0.515625 
Q 12.796875 0.390625 7.625 2.203125 
L 7.625 11.71875 
Q 11.71875 9.328125 16.59375 8.109375 
Q 21.484375 6.890625 26.8125 6.890625 
Q 36.078125 6.890625 40.9375 10.546875 
Q 45.796875 14.203125 45.796875 21.1875 
Q 45.796875 27.640625 41.28125 31.265625 
Q 36.765625 34.90625 28.71875 34.90625 
L 20.21875 34.90625 
L 20.21875 43.015625 
L 29.109375 43.015625 
Q 36.375 43.015625 40.234375 45.921875 
Q 44.09375 48.828125 44.09375 54.296875 
Q 44.09375 59.90625 40.109375 62.90625 
Q 36.140625 65.921875 28.71875 65.921875 
Q 24.65625 65.921875 20.015625 65.03125 
Q 15.375 64.15625 9.8125 62.3125 
L 9.8125 71.09375 
Q 15.4375 72.65625 20.34375 73.4375 
Q 25.25 74.21875 29.59375 74.21875 
Q 40.828125 74.21875 47.359375 69.109375 
Q 53.90625 64.015625 53.90625 55.328125 
Q 53.90625 49.265625 50.4375 45.09375 
Q 46.96875 40.921875 40.578125 39.3125 
z
" id="DejaVuSans-51"/>
      </defs>
      <g transform="translate(20.878125 201.846911)scale(0.08 -0.08)">
       <use xlink:href="#DejaVuSans-51"/>
       <use x="63.623047" xlink:href="#DejaVuSans-48"/>
       <use x="127.246094" xlink:href="#DejaVuSans-48"/>
       <use x="190.869141" xlink:href="#DejaVuSans-48"/>
       <use x="254.492188" xlink:href="#DejaVuSans-48"/>
      </g>
     </g>
    </g>
    <g id="ytick_5">
     <g id="line2d_5">
      <path clip-path="url(#pd55ccb3347)" d="M 53.328125 147.335415 
L 985.303125 147.335415 
" style="fill:none;stroke:#dedede;stroke-linecap:square;"/>
     </g>
     <g id="text_12">
      <!-- 40000 -->
      <g transform="translate(20.878125 150.37479)scale(0.08 -0.08)">
       <use xlink:href="#DejaVuSans-52"/>
       <use x="63.623047" xlink:href="#DejaVuSans-48"/>
       <use x="127.246094" xlink:href="#DejaVuSans-48"/>
       <use x="190.869141" xlink:href="#DejaVuSans-48"/>
       <use x="254.492188" xlink:href="#DejaVuSans-48"/>
      </g>
     </g>
    </g>
    <g id="ytick_6">
     <g id="line2d_6">
      <path clip-path="url(#pd55ccb3347)" d="M 53.328125 95.863293 
L 985.303125 95.863293 
" style="fill:none;stroke:#dedede;stroke-linecap:square;"/>
     </g>
     <g id="text_13">
      <!-- 50000 -->
      <defs>
       <path d="M 10.796875 72.90625 
L 49.515625 72.90625 
L 49.515625 64.59375 
L 19.828125 64.59375 
L 19.828125 46.734375 
Q 21.96875 47.46875 24.109375 47.828125 
Q 26.265625 48.1875 28.421875 48.1875 
Q 40.625 48.1875 47.75 41.5 
Q 54.890625 34.8125 54.890625 23.390625 
Q 54.890625 11.625 47.5625 5.09375 
Q 40.234375 -1.421875 26.90625 -1.421875 
Q 22.3125 -1.421875 17.546875 -0.640625 
Q 12.796875 0.140625 7.71875 1.703125 
L 7.71875 11.625 
Q 12.109375 9.234375 16.796875 8.0625 
Q 21.484375 6.890625 26.703125 6.890625 
Q 35.15625 6.890625 40.078125 11.328125 
Q 45.015625 15.765625 45.015625 23.390625 
Q 45.015625 31 40.078125 35.4375 
Q 35.15625 39.890625 26.703125 39.890625 
Q 22.75 39.890625 18.8125 39.015625 
Q 14.890625 38.140625 10.796875 36.28125 
z
" id="DejaVuSans-53"/>
      </defs>
      <g transform="translate(20.878125 98.902668)scale(0.08 -0.08)">
       <use xlink:href="#DejaVuSans-53"/>
       <use x="63.623047" xlink:href="#DejaVuSans-48"/>
       <use x="127.246094" xlink:href="#DejaVuSans-48"/>
       <use x="190.869141" xlink:href="#DejaVuSans-48"/>
       <use x="254.492188" xlink:href="#DejaVuSans-48"/>
      </g>
     </g>
    </g>
    <g id="ytick_7">
     <g id="line2d_7">
      <path clip-path="url(#pd55ccb3347)" d="M 53.328125 44.391172 
L 985.303125 44.391172 
" style="fill:none;stroke:#dedede;stroke-linecap:square;"/>
     </g>
     <g id="text_14">
      <!-- 60000 -->
      <g transform="translate(20.878125 47.430547)scale(0.08 -0.08)">
       <use xlink:href="#DejaVuSans-54"/>
       <use x="63.623047" xlink:href="#DejaVuSans-48"/>
       <use x="127.246094" xlink:href="#DejaVuSans-48"/>
       <use x="190.869141" xlink:href="#DejaVuSans-48"/>
       <use x="254.492188" xlink:href="#DejaVuSans-48"/>
      </g>
     </g>
    </g>
    <g id="text_15">
     <!-- Number of Junctions -->
     <defs>
      <path d="M 9.8125 72.90625 
L 23.09375 72.90625 
L 55.421875 11.921875 
L 55.421875 72.90625 
L 64.984375 72.90625 
L 64.984375 0 
L 51.703125 0 
L 19.390625 60.984375 
L 19.390625 0 
L 9.8125 0 
z
" id="DejaVuSans-78"/>
      <path d="M 8.5 21.578125 
L 8.5 54.6875 
L 17.484375 54.6875 
L 17.484375 21.921875 
Q 17.484375 14.15625 20.5 10.265625 
Q 23.53125 6.390625 29.59375 6.390625 
Q 36.859375 6.390625 41.078125 11.03125 
Q 45.3125 15.671875 45.3125 23.6875 
L 45.3125 54.6875 
L 54.296875 54.6875 
L 54.296875 0 
L 45.3125 0 
L 45.3125 8.40625 
Q 42.046875 3.421875 37.71875 1 
Q 33.40625 -1.421875 27.6875 -1.421875 
Q 18.265625 -1.421875 13.375 4.4375 
Q 8.5 10.296875 8.5 21.578125 
z
M 31.109375 56 
z
" id="DejaVuSans-117"/>
      <path d="M 52 44.1875 
Q 55.375 50.25 60.0625 53.125 
Q 64.75 56 71.09375 56 
Q 79.640625 56 84.28125 50.015625 
Q 88.921875 44.046875 88.921875 33.015625 
L 88.921875 0 
L 79.890625 0 
L 79.890625 32.71875 
Q 79.890625 40.578125 77.09375 44.375 
Q 74.3125 48.1875 68.609375 48.1875 
Q 61.625 48.1875 57.5625 43.546875 
Q 53.515625 38.921875 53.515625 30.90625 
L 53.515625 0 
L 44.484375 0 
L 44.484375 32.71875 
Q 44.484375 40.625 41.703125 44.40625 
Q 38.921875 48.1875 33.109375 48.1875 
Q 26.21875 48.1875 22.15625 43.53125 
Q 18.109375 38.875 18.109375 30.90625 
L 18.109375 0 
L 9.078125 0 
L 9.078125 54.6875 
L 18.109375 54.6875 
L 18.109375 46.1875 
Q 21.1875 51.21875 25.484375 53.609375 
Q 29.78125 56 35.6875 56 
Q 41.65625 56 45.828125 52.96875 
Q 50 49.953125 52 44.1875 
z
" id="DejaVuSans-109"/>
      <path d="M 48.6875 27.296875 
Q 48.6875 37.203125 44.609375 42.84375 
Q 40.53125 48.484375 33.40625 48.484375 
Q 26.265625 48.484375 22.1875 42.84375 
Q 18.109375 37.203125 18.109375 27.296875 
Q 18.109375 17.390625 22.1875 11.75 
Q 26.265625 6.109375 33.40625 6.109375 
Q 40.53125 6.109375 44.609375 11.75 
Q 48.6875 17.390625 48.6875 27.296875 
z
M 18.109375 46.390625 
Q 20.953125 51.265625 25.265625 53.625 
Q 29.59375 56 35.59375 56 
Q 45.5625 56 51.78125 48.09375 
Q 58.015625 40.1875 58.015625 27.296875 
Q 58.015625 14.40625 51.78125 6.484375 
Q 45.5625 -1.421875 35.59375 -1.421875 
Q 29.59375 -1.421875 25.265625 0.953125 
Q 20.953125 3.328125 18.109375 8.203125 
L 18.109375 0 
L 9.078125 0 
L 9.078125 75.984375 
L 18.109375 75.984375 
z
" id="DejaVuSans-98"/>
      <path d="M 9.8125 72.90625 
L 19.671875 72.90625 
L 19.671875 5.078125 
Q 19.671875 -8.109375 14.671875 -14.0625 
Q 9.671875 -20.015625 -1.421875 -20.015625 
L -5.171875 -20.015625 
L -5.171875 -11.71875 
L -2.09375 -11.71875 
Q 4.4375 -11.71875 7.125 -8.046875 
Q 9.8125 -4.390625 9.8125 5.078125 
z
" id="DejaVuSans-74"/>
      <path d="M 9.421875 54.6875 
L 18.40625 54.6875 
L 18.40625 0 
L 9.421875 0 
z
M 9.421875 75.984375 
L 18.40625 75.984375 
L 18.40625 64.59375 
L 9.421875 64.59375 
z
" id="DejaVuSans-105"/>
     </defs>
     <g transform="translate(14.798438 245.067244)rotate(-90)scale(0.1 -0.1)">
      <use xlink:href="#DejaVuSans-78"/>
      <use x="74.804688" xlink:href="#DejaVuSans-117"/>
      <use x="138.183594" xlink:href="#DejaVuSans-109"/>
      <use x="235.595703" xlink:href="#DejaVuSans-98"/>
      <use x="299.072266" xlink:href="#DejaVuSans-101"/>
      <use x="360.595703" xlink:href="#DejaVuSans-114"/>
      <use x="401.708984" xlink:href="#DejaVuSans-32"/>
      <use x="433.496094" xlink:href="#DejaVuSans-111"/>
      <use x="494.677734" xlink:href="#DejaVuSans-102"/>
      <use x="529.882812" xlink:href="#DejaVuSans-32"/>
      <use x="561.669922" xlink:href="#DejaVuSans-74"/>
      <use x="591.162109" xlink:href="#DejaVuSans-117"/>
      <use x="654.541016" xlink:href="#DejaVuSans-110"/>
      <use x="717.919922" xlink:href="#DejaVuSans-99"/>
      <use x="772.900391" xlink:href="#DejaVuSans-116"/>
      <use x="812.109375" xlink:href="#DejaVuSans-105"/>
      <use x="839.892578" xlink:href="#DejaVuSans-111"/>
      <use x="901.074219" xlink:href="#DejaVuSans-110"/>
      <use x="964.453125" xlink:href="#DejaVuSans-115"/>
     </g>
    </g>
   </g>
   <g id="line2d_8">
    <path clip-path="url(#pd55ccb3347)" d="M 99.926875 278.491527 
L 146.525625 243.516221 
L 193.124375 218.897105 
L 239.723125 199.430349 
L 286.321875 183.226925 
L 332.920625 170.379483 
L 379.519375 159.163708 
L 426.118125 149.188411 
L 472.716875 140.597714 
L 519.315625 133.602653 
L 565.914375 126.988485 
L 612.513125 121.249344 
L 659.111875 116.49332 
L 705.710625 112.010098 
L 752.309375 108.026156 
L 798.908125 104.685615 
L 845.506875 101.828912 
L 892.105625 99.440606 
L 938.704375 97.335396 
L 985.303125 95.605933 
" style="fill:none;stroke:#7cb5ec;stroke-linecap:square;"/>
   </g>
   <g id="line2d_9">
    <path clip-path="url(#pd55ccb3347)" d="M 99.926875 287.087371 
L 146.525625 255.524667 
L 193.124375 233.123999 
L 239.723125 214.594036 
L 286.321875 199.497262 
L 332.920625 186.588054 
L 379.519375 175.588462 
L 426.118125 165.911703 
L 472.716875 157.346742 
L 519.315625 150.053143 
L 565.914375 143.505889 
L 612.513125 137.802778 
L 659.111875 132.712185 
L 705.710625 127.709095 
L 752.309375 123.663386 
L 798.908125 120.539028 
L 845.506875 117.162457 
L 892.105625 114.362374 
L 938.704375 112.262311 
L 985.303125 110.39902 
" style="fill:none;stroke:#434348;stroke-linecap:square;"/>
   </g>
   <g id="line2d_10">
    <path clip-path="url(#pd55ccb3347)" d="M 99.926875 277.271638 
L 146.525625 241.632341 
L 193.124375 215.155082 
L 239.723125 194.4427 
L 286.321875 176.689966 
L 332.920625 161.732167 
L 379.519375 149.157528 
L 426.118125 137.813072 
L 472.716875 128.450293 
L 519.315625 120.080926 
L 565.914375 113.091012 
L 612.513125 106.945241 
L 659.111875 101.350222 
L 705.710625 96.012563 
L 752.309375 91.344041 
L 798.908125 87.540251 
L 845.506875 84.168827 
L 892.105625 81.090795 
L 938.704375 78.697341 
L 985.303125 76.731106 
" style="fill:none;stroke:#90ed7d;stroke-linecap:square;"/>
   </g>
   <g id="line2d_11">
    <path clip-path="url(#pd55ccb3347)" d="M 99.926875 271.47073 
L 146.525625 233.41739 
L 193.124375 206.64674 
L 239.723125 185.455668 
L 286.321875 168.047796 
L 332.920625 153.615014 
L 379.519375 141.38009 
L 426.118125 130.864336 
L 472.716875 121.27508 
L 519.315625 112.694677 
L 565.914375 105.89521 
L 612.513125 99.780322 
L 659.111875 94.164713 
L 705.710625 89.413837 
L 752.309375 85.311509 
L 798.908125 81.471688 
L 845.506875 77.950995 
L 892.105625 75.13547 
L 938.704375 72.880991 
L 985.303125 70.935345 
" style="fill:none;stroke:#f7a35c;stroke-linecap:square;"/>
   </g>
   <g id="line2d_12">
    <path clip-path="url(#pd55ccb3347)" d="M 99.926875 283.190932 
L 146.525625 249.080357 
L 193.124375 223.977403 
L 239.723125 203.445174 
L 286.321875 186.207161 
L 332.920625 172.108947 
L 379.519375 159.987262 
L 426.118125 149.636219 
L 472.716875 140.144759 
L 519.315625 131.533473 
L 565.914375 123.997955 
L 612.513125 117.584529 
L 659.111875 111.912301 
L 705.710625 106.693028 
L 752.309375 102.178923 
L 798.908125 98.220717 
L 845.506875 94.627962 
L 892.105625 91.580813 
L 938.704375 89.032943 
L 985.303125 87.08215 
" style="fill:none;stroke:#8085e9;stroke-linecap:square;"/>
   </g>
   <g id="line2d_13">
    <path clip-path="url(#pd55ccb3347)" d="M 99.926875 268.176514 
L 146.525625 228.37827 
L 193.124375 200.099486 
L 239.723125 177.755438 
L 286.321875 159.771079 
L 332.920625 144.808134 
L 379.519375 131.677595 
L 426.118125 120.142693 
L 472.716875 110.404168 
L 519.315625 101.628171 
L 565.914375 94.35516 
L 612.513125 87.627754 
L 659.111875 81.466541 
L 705.710625 76.216385 
L 752.309375 71.681691 
L 798.908125 67.599952 
L 845.506875 64.243969 
L 892.105625 61.109317 
L 938.704375 58.751894 
L 985.303125 56.801101 
" style="fill:none;stroke:#f15c80;stroke-linecap:square;"/>
   </g>
   <g id="line2d_14">
    <path clip-path="url(#pd55ccb3347)" d="M 99.926875 281.873245 
L 146.525625 246.594253 
L 193.124375 221.182467 
L 239.723125 201.386289 
L 286.321875 184.992419 
L 332.920625 170.389778 
L 379.519375 158.123971 
L 426.118125 147.968522 
L 472.716875 138.631479 
L 519.315625 130.123137 
L 565.914375 122.88101 
L 612.513125 116.374934 
L 659.111875 110.486523 
L 705.710625 105.411372 
L 752.309375 100.912709 
L 798.908125 97.067741 
L 845.506875 93.809556 
L 892.105625 90.92197 
L 938.704375 88.518222 
L 985.303125 86.788758 
" style="fill:none;stroke:#e4d354;stroke-linecap:square;"/>
   </g>
   <g id="line2d_15">
    <path clip-path="url(#pd55ccb3347)" d="M 99.926875 263.32784 
L 146.525625 222.670011 
L 193.124375 192.92942 
L 239.723125 170.183889 
L 286.321875 152.003936 
L 332.920625 136.670391 
L 379.519375 123.390584 
L 426.118125 112.0976 
L 472.716875 102.359075 
L 519.315625 93.547048 
L 565.914375 85.831377 
L 612.513125 79.037057 
L 659.111875 72.953052 
L 705.710625 67.548479 
L 752.309375 63.044669 
L 798.908125 59.282057 
L 845.506875 55.627536 
L 892.105625 52.70392 
L 938.704375 49.996486 
L 985.303125 47.788332 
" style="fill:none;stroke:#2b908f;stroke-linecap:square;"/>
   </g>
   <g id="line2d_16">
    <path clip-path="url(#pd55ccb3347)" d="M 99.926875 272.376639 
L 146.525625 236.073352 
L 193.124375 209.179168 
L 239.723125 188.322665 
L 286.321875 170.853027 
L 332.920625 156.816579 
L 379.519375 144.669159 
L 426.118125 133.901191 
L 472.716875 124.991367 
L 519.315625 117.188193 
L 565.914375 110.187985 
L 612.513125 103.774558 
L 659.111875 98.442047 
L 705.710625 93.263951 
L 752.309375 88.950588 
L 798.908125 84.987234 
L 845.506875 81.605516 
L 892.105625 78.455422 
L 938.704375 76.051674 
L 985.303125 73.987642 
" style="fill:none;stroke:#f45b5b;stroke-linecap:square;"/>
   </g>
   <g id="line2d_17">
    <path clip-path="url(#pd55ccb3347)" d="M 99.926875 274.759798 
L 146.525625 238.703577 
L 193.124375 212.452795 
L 239.723125 192.378668 
L 286.321875 176.375986 
L 332.920625 162.79764 
L 379.519375 151.12891 
L 426.118125 140.93743 
L 472.716875 132.161433 
L 519.315625 124.440615 
L 565.914375 117.646295 
L 612.513125 111.624057 
L 659.111875 106.296692 
L 705.710625 101.288455 
L 752.309375 97.294218 
L 798.908125 93.526459 
L 845.506875 90.288863 
L 892.105625 87.252008 
L 938.704375 84.75561 
L 985.303125 82.676136 
" style="fill:none;stroke:#91e8e1;stroke-linecap:square;"/>
   </g>
   <g id="line2d_18">
    <path clip-path="url(#pd55ccb3347)" d="M 99.926875 289.856571 
L 146.525625 260.229218 
L 193.124375 238.682988 
L 239.723125 221.836163 
L 286.321875 207.90266 
L 332.920625 196.203047 
L 379.519375 186.052744 
L 426.118125 177.076006 
L 472.716875 169.298569 
L 519.315625 162.627782 
L 565.914375 156.358478 
L 612.513125 150.830372 
L 659.111875 145.853018 
L 705.710625 141.421268 
L 752.309375 137.277762 
L 798.908125 133.860013 
L 845.506875 130.699625 
L 892.105625 128.053958 
L 938.704375 125.892129 
L 985.303125 123.931041 
" style="fill:none;stroke:#7cb5ec;stroke-linecap:square;"/>
   </g>
   <g id="line2d_19">
    <path clip-path="url(#pd55ccb3347)" d="M 99.926875 277.528998 
L 146.525625 243.22283 
L 193.124375 218.305176 
L 239.723125 199.013425 
L 286.321875 184.292398 
L 332.920625 171.012591 
L 379.519375 160.012998 
L 426.118125 150.68625 
L 472.716875 142.656599 
L 519.315625 135.574035 
L 565.914375 129.237817 
L 612.513125 123.884716 
L 659.111875 119.29855 
L 705.710625 115.268283 
L 752.309375 111.65494 
L 798.908125 108.278369 
L 845.506875 105.385636 
L 892.105625 103.028213 
L 938.704375 101.077419 
L 985.303125 99.389134 
" style="fill:none;stroke:#434348;stroke-linecap:square;"/>
   </g>
   <g id="line2d_20">
    <path clip-path="url(#pd55ccb3347)" d="M 99.926875 275.964246 
L 146.525625 239.23374 
L 193.124375 211.92778 
L 239.723125 190.577144 
L 286.321875 172.824409 
L 332.920625 157.357037 
L 379.519375 144.154438 
L 426.118125 132.784246 
L 472.716875 122.196431 
L 519.315625 113.137337 
L 565.914375 104.927534 
L 612.513125 97.994239 
L 659.111875 91.699199 
L 705.710625 86.253448 
L 752.309375 81.512866 
L 798.908125 77.189208 
L 845.506875 73.225854 
L 892.105625 69.905903 
L 938.704375 67.033758 
L 985.303125 64.696924 
" style="fill:none;stroke:#90ed7d;stroke-linecap:square;"/>
   </g>
   <g id="line2d_21">
    <path clip-path="url(#pd55ccb3347)" d="M 99.926875 277.554734 
L 146.525625 241.297772 
L 193.124375 214.588888 
L 239.723125 193.15075 
L 286.321875 175.490665 
L 332.920625 160.517425 
L 379.519375 147.906755 
L 426.118125 136.402736 
L 472.716875 126.787744 
L 519.315625 118.114691 
L 565.914375 110.27034 
L 612.513125 103.192923 
L 659.111875 97.08833 
L 705.710625 91.776407 
L 752.309375 86.845378 
L 798.908125 82.37245 
L 845.506875 78.568661 
L 892.105625 75.382536 
L 938.704375 72.731722 
L 985.303125 70.307385 
" style="fill:none;stroke:#f7a35c;stroke-linecap:square;"/>
   </g>
   <g id="line2d_22">
    <path clip-path="url(#pd55ccb3347)" d="M 99.926875 274.193605 
L 146.525625 237.107942 
L 193.124375 210.383616 
L 239.723125 188.888858 
L 286.321875 171.089799 
L 332.920625 156.049645 
L 379.519375 142.702924 
L 426.118125 131.430529 
L 472.716875 121.62509 
L 519.315625 112.952038 
L 565.914375 105.164306 
L 612.513125 98.38028 
L 659.111875 92.234509 
L 705.710625 86.999794 
L 752.309375 82.758491 
L 798.908125 78.980438 
L 845.506875 75.397978 
L 892.105625 72.438331 
L 938.704375 69.838989 
L 985.303125 67.76981 
" style="fill:none;stroke:#8085e9;stroke-linecap:square;"/>
   </g>
   <g id="line2d_23">
    <path clip-path="url(#pd55ccb3347)" d="M 99.926875 277.956217 
L 146.525625 243.706667 
L 193.124375 219.180202 
L 239.723125 200.320816 
L 286.321875 184.230631 
L 332.920625 170.703758 
L 379.519375 159.729902 
L 426.118125 150.073732 
L 472.716875 141.724954 
L 519.315625 134.379882 
L 565.914375 127.786303 
L 612.513125 121.985395 
L 659.111875 116.982305 
L 705.710625 112.499083 
L 752.309375 108.504846 
L 798.908125 104.850326 
L 845.506875 101.720821 
L 892.105625 98.920737 
L 938.704375 96.728025 
L 985.303125 94.926501 
" style="fill:none;stroke:#f15c80;stroke-linecap:square;"/>
   </g>
   <g id="line2d_24">
    <path clip-path="url(#pd55ccb3347)" d="M 99.926875 267.491935 
L 146.525625 229.443743 
L 193.124375 203.290758 
L 239.723125 183.123981 
L 286.321875 167.049237 
L 332.920625 153.506922 
L 379.519375 141.966872 
L 426.118125 132.207758 
L 472.716875 124.100899 
L 519.315625 116.966863 
L 565.914375 110.486523 
L 612.513125 104.973859 
L 659.111875 100.459754 
L 705.710625 96.336837 
L 752.309375 92.476428 
L 798.908125 89.274862 
L 845.506875 86.351245 
L 892.105625 83.993822 
L 938.704375 81.945232 
L 985.303125 80.401068 
" style="fill:none;stroke:#e4d354;stroke-linecap:square;"/>
   </g>
   <g id="line2d_25">
    <path clip-path="url(#pd55ccb3347)" d="M 99.926875 279.788625 
L 146.525625 244.895673 
L 193.124375 219.66404 
L 239.723125 199.708298 
L 286.321875 183.58723 
L 332.920625 169.952265 
L 379.519375 157.964408 
L 426.118125 147.989111 
L 472.716875 138.88884 
L 519.315625 130.890072 
L 565.914375 123.359701 
L 612.513125 117.141868 
L 659.111875 111.624057 
L 705.710625 106.445962 
L 752.309375 102.070831 
L 798.908125 98.529549 
L 845.506875 95.106653 
L 892.105625 92.234509 
L 938.704375 89.825614 
L 985.303125 87.715257 
" style="fill:none;stroke:#2b908f;stroke-linecap:square;"/>
   </g>
   <g id="line2d_26">
    <path clip-path="url(#pd55ccb3347)" d="M 99.926875 267.250016 
L 146.525625 227.142939 
L 193.124375 198.843567 
L 239.723125 176.267894 
L 286.321875 158.247504 
L 332.920625 143.07867 
L 379.519375 129.551797 
L 426.118125 117.764681 
L 472.716875 107.423932 
L 519.315625 98.400869 
L 565.914375 90.124152 
L 612.513125 82.8357 
L 659.111875 76.689928 
L 705.710625 71.249325 
L 752.309375 66.60654 
L 798.908125 62.318912 
L 845.506875 58.834249 
L 892.105625 55.802541 
L 938.704375 53.172316 
L 985.303125 50.845776 
" style="fill:none;stroke:#f45b5b;stroke-linecap:square;"/>
   </g>
   <g id="line2d_27">
    <path clip-path="url(#pd55ccb3347)" d="M 99.926875 281.121752 
L 146.525625 247.783259 
L 193.124375 223.478124 
L 239.723125 204.459175 
L 286.321875 189.300635 
L 332.920625 175.830381 
L 379.519375 164.269743 
L 426.118125 154.469451 
L 472.716875 146.012581 
L 519.315625 138.163083 
L 565.914375 131.631271 
L 612.513125 125.639916 
L 659.111875 120.152987 
L 705.710625 115.571969 
L 752.309375 111.330666 
L 798.908125 107.732765 
L 845.506875 104.412813 
L 892.105625 101.623024 
L 938.704375 99.281042 
L 985.303125 97.325102 
" style="fill:none;stroke:#91e8e1;stroke-linecap:square;"/>
   </g>
   <g id="line2d_28">
    <path clip-path="url(#pd55ccb3347)" d="M 99.926875 279.994513 
L 146.525625 245.817024 
L 193.124375 221.228792 
L 239.723125 201.607619 
L 286.321875 185.347576 
L 332.920625 171.877322 
L 379.519375 160.023293 
L 426.118125 149.584746 
L 472.716875 140.849927 
L 519.315625 133.067343 
L 565.914375 125.974484 
L 612.513125 119.947099 
L 659.111875 114.336638 
L 705.710625 109.441639 
L 752.309375 105.051067 
L 798.908125 101.278161 
L 845.506875 98.061153 
L 892.105625 95.327983 
L 938.704375 92.883058 
L 985.303125 90.813878 
" style="fill:none;stroke:#7cb5ec;stroke-linecap:square;"/>
   </g>
   <g id="line2d_29">
    <path clip-path="url(#pd55ccb3347)" d="M 99.926875 275.959099 
L 146.525625 241.225711 
L 193.124375 216.39556 
L 239.723125 196.069219 
L 286.321875 179.371663 
L 332.920625 165.443307 
L 379.519375 153.218678 
L 426.118125 143.073523 
L 472.716875 133.901191 
L 519.315625 125.74286 
L 565.914375 118.536763 
L 612.513125 112.334372 
L 659.111875 106.934947 
L 705.710625 101.751704 
L 752.309375 97.021416 
L 798.908125 93.305129 
L 845.506875 89.707228 
L 892.105625 86.943175 
L 938.704375 84.57031 
L 985.303125 82.52172 
" style="fill:none;stroke:#434348;stroke-linecap:square;"/>
   </g>
   <g id="line2d_30">
    <path clip-path="url(#pd55ccb3347)" d="M 99.926875 277.45179 
L 146.525625 242.157357 
L 193.124375 216.755865 
L 239.723125 196.167016 
L 286.321875 179.315044 
L 332.920625 165.165358 
L 379.519375 153.295886 
L 426.118125 142.275705 
L 472.716875 133.098226 
L 519.315625 125.094311 
L 565.914375 118.088955 
L 612.513125 111.546849 
L 659.111875 105.993007 
L 705.710625 101.077419 
L 752.309375 96.77435 
L 798.908125 92.615403 
L 845.506875 89.35207 
L 892.105625 86.45419 
L 938.704375 84.014411 
L 985.303125 81.950379 
" style="fill:none;stroke:#90ed7d;stroke-linecap:square;"/>
   </g>
   <g id="line2d_31">
    <path clip-path="url(#pd55ccb3347)" d="M 99.926875 284.359349 
L 146.525625 251.082622 
L 193.124375 227.503244 
L 239.723125 207.99531 
L 286.321875 192.383815 
L 332.920625 178.965033 
L 379.519375 167.548517 
L 426.118125 156.63128 
L 472.716875 147.448653 
L 519.315625 139.73813 
L 565.914375 133.144551 
L 612.513125 127.317907 
L 659.111875 121.537588 
L 705.710625 116.683766 
L 752.309375 112.329225 
L 798.908125 108.921771 
L 845.506875 105.874621 
L 892.105625 103.264984 
L 938.704375 101.0208 
L 985.303125 99.095743 
" style="fill:none;stroke:#f7a35c;stroke-linecap:square;"/>
   </g>
   <g id="line2d_32">
    <path clip-path="url(#pd55ccb3347)" d="M 99.926875 291.189699 
L 146.525625 260.491726 
L 193.124375 238.857994 
L 239.723125 220.744954 
L 286.321875 206.039369 
L 332.920625 193.732385 
L 379.519375 182.969564 
L 426.118125 174.172979 
L 472.716875 165.958028 
L 519.315625 158.844581 
L 565.914375 152.703957 
L 612.513125 147.19644 
L 659.111875 142.049228 
L 705.710625 137.617478 
L 752.309375 133.782805 
L 798.908125 130.359909 
L 845.506875 127.734831 
L 892.105625 124.888423 
L 938.704375 122.88101 
L 985.303125 121.002277 
" style="fill:none;stroke:#8085e9;stroke-linecap:square;"/>
   </g>
   <g id="line2d_33">
    <path clip-path="url(#pd55ccb3347)" d="M 99.926875 276.139251 
L 146.525625 239.521984 
L 193.124375 213.276349 
L 239.723125 192.502201 
L 286.321875 175.552432 
L 332.920625 161.361568 
L 379.519375 149.064878 
L 426.118125 138.554271 
L 472.716875 128.913543 
L 519.315625 120.600795 
L 565.914375 113.425581 
L 612.513125 106.729058 
L 659.111875 100.902414 
L 705.710625 95.724319 
L 752.309375 91.169036 
L 798.908125 87.195388 
L 845.506875 84.019558 
L 892.105625 81.162856 
L 938.704375 78.676752 
L 985.303125 76.684781 
" style="fill:none;stroke:#f15c80;stroke-linecap:square;"/>
   </g>
   <g id="line2d_34">
    <path clip-path="url(#pd55ccb3347)" d="M 99.926875 279.500381 
L 146.525625 244.416983 
L 193.124375 218.94343 
L 239.723125 199.172988 
L 286.321875 182.20263 
L 332.920625 167.512486 
L 379.519375 155.380507 
L 426.118125 144.839017 
L 472.716875 134.848278 
L 519.315625 126.437733 
L 565.914375 119.061778 
L 612.513125 112.447611 
L 659.111875 106.61582 
L 705.710625 101.42743 
L 752.309375 97.139802 
L 798.908125 93.197038 
L 845.506875 89.763847 
L 892.105625 86.778464 
L 938.704375 84.143091 
L 985.303125 81.970968 
" style="fill:none;stroke:#e4d354;stroke-linecap:square;"/>
   </g>
   <g id="line2d_35">
    <path clip-path="url(#pd55ccb3347)" d="M 99.926875 275.500997 
L 146.525625 238.842552 
L 193.124375 212.607212 
L 239.723125 191.724972 
L 286.321875 174.744319 
L 332.920625 160.074765 
L 379.519375 147.536156 
L 426.118125 136.515975 
L 472.716875 126.664211 
L 519.315625 118.495585 
L 565.914375 111.320371 
L 612.513125 105.102539 
L 659.111875 98.884707 
L 705.710625 93.588226 
L 752.309375 89.027796 
L 798.908125 84.827671 
L 845.506875 81.30183 
L 892.105625 78.316447 
L 938.704375 75.876669 
L 985.303125 73.683956 
" style="fill:none;stroke:#2b908f;stroke-linecap:square;"/>
   </g>
   <g id="line2d_36">
    <path clip-path="url(#pd55ccb3347)" d="M 99.926875 292.986076 
L 146.525625 263.811678 
L 193.124375 242.111032 
L 239.723125 224.862724 
L 286.321875 210.620388 
L 332.920625 198.215607 
L 379.519375 187.828533 
L 426.118125 178.470901 
L 472.716875 170.116976 
L 519.315625 162.787346 
L 565.914375 156.435686 
L 612.513125 151.03626 
L 659.111875 145.909637 
L 705.710625 141.179349 
L 752.309375 137.077021 
L 798.908125 133.623242 
L 845.506875 130.514325 
L 892.105625 127.647328 
L 938.704375 125.423733 
L 985.303125 123.529559 
" style="fill:none;stroke:#f45b5b;stroke-linecap:square;"/>
   </g>
   <g id="line2d_37">
    <path clip-path="url(#pd55ccb3347)" d="M 99.926875 284.879217 
L 146.525625 252.451781 
L 193.124375 228.965052 
L 239.723125 210.471119 
L 286.321875 194.972863 
L 332.920625 181.66732 
L 379.519375 170.461839 
L 426.118125 160.743902 
L 472.716875 152.091439 
L 519.315625 144.221351 
L 565.914375 137.174818 
L 612.513125 131.173169 
L 659.111875 125.799479 
L 705.710625 121.136105 
L 752.309375 116.791858 
L 798.908125 113.219693 
L 845.506875 109.812238 
L 892.105625 106.795972 
L 938.704375 104.448843 
L 985.303125 102.328192 
" style="fill:none;stroke:#91e8e1;stroke-linecap:square;"/>
   </g>
   <g id="line2d_38">
    <path clip-path="url(#pd55ccb3347)" d="M 99.926875 291.297791 
L 146.525625 261.413077 
L 193.124375 239.115354 
L 239.723125 221.414092 
L 286.321875 207.05337 
L 332.920625 194.525056 
L 379.519375 184.12254 
L 426.118125 174.955355 
L 472.716875 166.766141 
L 519.315625 159.354155 
L 565.914375 152.878962 
L 612.513125 147.150115 
L 659.111875 142.147025 
L 705.710625 137.648361 
L 752.309375 133.499709 
L 798.908125 129.680477 
L 845.506875 126.442881 
L 892.105625 123.82295 
L 938.704375 121.583912 
L 985.303125 119.566205 
" style="fill:none;stroke:#7cb5ec;stroke-linecap:square;"/>
   </g>
   <g id="line2d_39">
    <path clip-path="url(#pd55ccb3347)" d="M 99.926875 281.250433 
L 146.525625 251.967943 
L 193.124375 233.299005 
L 239.723125 219.468446 
L 286.321875 208.710772 
L 332.920625 200.691416 
L 379.519375 194.025776 
L 426.118125 188.399873 
L 472.716875 183.412225 
L 519.315625 179.016505 
L 565.914375 175.464929 
L 612.513125 172.217038 
L 659.111875 169.298569 
L 705.710625 166.869085 
L 752.309375 164.779317 
L 798.908125 163.049853 
L 845.506875 161.382157 
L 892.105625 159.858582 
L 938.704375 158.685017 
L 985.303125 157.5166 
" style="fill:none;stroke:#434348;stroke-linecap:square;"/>
   </g>
   <g id="line2d_40">
    <path clip-path="url(#pd55ccb3347)" d="M 99.926875 283.17549 
L 146.525625 249.811261 
L 193.124375 224.873018 
L 239.723125 205.092282 
L 286.321875 188.955772 
L 332.920625 175.310513 
L 379.519375 163.446189 
L 426.118125 153.295886 
L 472.716875 144.159585 
L 519.315625 136.449061 
L 565.914375 129.634152 
L 612.513125 123.251609 
L 659.111875 117.646295 
L 705.710625 112.59688 
L 752.309375 107.948947 
L 798.908125 104.088538 
L 845.506875 100.758292 
L 892.105625 98.009681 
L 938.704375 95.430928 
L 985.303125 93.511017 
" style="fill:none;stroke:#90ed7d;stroke-linecap:square;"/>
   </g>
   <g id="line2d_41">
    <path clip-path="url(#pd55ccb3347)" d="M 99.926875 288.688154 
L 146.525625 257.485754 
L 193.124375 234.838021 
L 239.723125 216.658068 
L 286.321875 201.046573 
L 332.920625 187.792502 
L 379.519375 176.57158 
L 426.118125 166.241125 
L 472.716875 157.161443 
L 519.315625 149.193558 
L 565.914375 142.234528 
L 612.513125 135.882868 
L 659.111875 130.498884 
L 705.710625 125.20755 
L 752.309375 120.703739 
L 798.908125 116.786711 
L 845.506875 113.363815 
L 892.105625 110.193132 
L 938.704375 107.866592 
L 985.303125 105.982712 
" style="fill:none;stroke:#f7a35c;stroke-linecap:square;"/>
   </g>
   <g id="line2d_42">
    <path clip-path="url(#pd55ccb3347)" d="M 99.926875 283.437998 
L 146.525625 251.041445 
L 193.124375 227.25103 
L 239.723125 208.654153 
L 286.321875 193.613999 
L 332.920625 180.468019 
L 379.519375 169.355188 
L 426.118125 159.858582 
L 472.716875 151.448037 
L 519.315625 143.912519 
L 565.914375 137.272615 
L 612.513125 131.600387 
L 659.111875 126.386261 
L 705.710625 121.851567 
L 752.309375 117.980864 
L 798.908125 114.64547 
L 845.506875 111.65494 
L 892.105625 109.148248 
L 938.704375 106.940094 
L 985.303125 105.190042 
" style="fill:none;stroke:#8085e9;stroke-linecap:square;"/>
   </g>
   <g id="line2d_43">
    <path clip-path="url(#pd55ccb3347)" d="M 99.926875 277.961364 
L 146.525625 242.461042 
L 193.124375 217.049256 
L 239.723125 197.165575 
L 286.321875 180.442283 
L 332.920625 166.688932 
L 379.519375 154.639309 
L 426.118125 144.422093 
L 472.716875 135.543152 
L 519.315625 127.518648 
L 565.914375 120.466967 
L 612.513125 114.141044 
L 659.111875 108.504846 
L 705.710625 103.692203 
L 752.309375 99.54355 
L 798.908125 95.971385 
L 845.506875 92.847027 
L 892.105625 90.155035 
L 938.704375 87.807906 
L 985.303125 85.779905 
" style="fill:none;stroke:#f15c80;stroke-linecap:square;"/>
   </g>
   <g id="line2d_44">
    <path clip-path="url(#pd55ccb3347)" d="M 99.926875 292.718421 
L 146.525625 262.838855 
L 193.124375 240.438188 
L 239.723125 222.793545 
L 286.321875 208.005604 
L 332.920625 195.158163 
L 379.519375 183.911504 
L 426.118125 173.869293 
L 472.716875 165.314627 
L 519.315625 157.758519 
L 565.914375 150.732575 
L 612.513125 144.406651 
L 659.111875 139.038109 
L 705.710625 134.626948 
L 752.309375 130.540062 
L 798.908125 126.792891 
L 845.506875 123.63765 
L 892.105625 120.708886 
L 938.704375 118.305138 
L 985.303125 116.385228 
" style="fill:none;stroke:#e4d354;stroke-linecap:square;"/>
   </g>
   <g id="line2d_45">
    <path clip-path="url(#pd55ccb3347)" d="M 99.926875 292.70298 
L 146.525625 263.209454 
L 193.124375 240.988939 
L 239.723125 223.359738 
L 286.321875 208.510031 
L 332.920625 195.508173 
L 379.519375 184.796825 
L 426.118125 174.950208 
L 472.716875 166.421277 
L 519.315625 159.266652 
L 565.914375 152.688515 
L 612.513125 146.619952 
L 659.111875 141.369796 
L 705.710625 136.711569 
L 752.309375 132.526885 
L 798.908125 128.820893 
L 845.506875 125.444322 
L 892.105625 122.484675 
L 938.704375 119.941952 
L 985.303125 117.883067 
" style="fill:none;stroke:#2b908f;stroke-linecap:square;"/>
   </g>
   <g id="line2d_46">
    <path clip-path="url(#pd55ccb3347)" d="M 99.926875 290.937486 
L 146.525625 260.11598 
L 193.124375 237.123383 
L 239.723125 218.809602 
L 286.321875 203.126047 
L 332.920625 189.815356 
L 379.519375 178.522373 
L 426.118125 168.799289 
L 472.716875 160.136531 
L 519.315625 151.988494 
L 565.914375 144.859606 
L 612.513125 138.868251 
L 659.111875 133.237201 
L 705.710625 128.429705 
L 752.309375 123.570736 
L 798.908125 119.602236 
L 845.506875 116.071248 
L 892.105625 113.116748 
L 938.704375 110.39902 
L 985.303125 108.309252 
" style="fill:none;stroke:#f45b5b;stroke-linecap:square;"/>
   </g>
   <g id="line2d_47">
    <path clip-path="url(#pd55ccb3347)" d="M 99.926875 280.426879 
L 146.525625 245.106709 
L 193.124375 220.034639 
L 239.723125 199.471526 
L 286.321875 183.262955 
L 332.920625 169.066944 
L 379.519375 156.826874 
L 426.118125 146.367739 
L 472.716875 136.721863 
L 519.315625 128.578974 
L 565.914375 121.604501 
L 612.513125 115.335197 
L 659.111875 109.508553 
L 705.710625 104.76797 
L 752.309375 100.351662 
L 798.908125 96.362573 
L 845.506875 92.682316 
L 892.105625 90.01606 
L 938.704375 87.463043 
L 985.303125 85.141651 
" style="fill:none;stroke:#91e8e1;stroke-linecap:square;"/>
   </g>
   <g id="line2d_48">
    <path clip-path="url(#pd55ccb3347)" d="M 99.926875 280.637915 
L 146.525625 245.528781 
L 193.124375 220.044933 
L 239.723125 200.07375 
L 286.321875 183.540905 
L 332.920625 170.286834 
L 379.519375 158.726195 
L 426.118125 148.436918 
L 472.716875 139.465327 
L 519.315625 131.832012 
L 565.914375 125.078869 
L 612.513125 119.159576 
L 659.111875 113.791033 
L 705.710625 108.890887 
L 752.309375 104.443696 
L 798.908125 100.660495 
L 845.506875 97.510401 
L 892.105625 94.674287 
L 938.704375 92.074945 
L 985.303125 90.021208 
" style="fill:none;stroke:#7cb5ec;stroke-linecap:square;"/>
   </g>
   <g id="line2d_49">
    <path clip-path="url(#pd55ccb3347)" d="M 99.926875 279.227578 
L 146.525625 242.986058 
L 193.124375 216.853662 
L 239.723125 196.295697 
L 286.321875 179.495196 
L 332.920625 164.923439 
L 379.519375 152.796607 
L 426.118125 142.105847 
L 472.716875 132.671007 
L 519.315625 124.548707 
L 565.914375 117.363198 
L 612.513125 110.831386 
L 659.111875 105.051067 
L 705.710625 100.120038 
L 752.309375 95.775791 
L 798.908125 91.735229 
L 845.506875 88.250567 
L 892.105625 85.01297 
L 938.704375 82.640105 
L 985.303125 80.493718 
" style="fill:none;stroke:#434348;stroke-linecap:square;"/>
   </g>
   <g id="line2d_50">
    <path clip-path="url(#pd55ccb3347)" d="M 99.926875 291.416177 
L 146.525625 262.828561 
L 193.124375 242.131621 
L 239.723125 225.902461 
L 286.321875 212.751334 
L 332.920625 201.23702 
L 379.519375 191.755855 
L 426.118125 183.463697 
L 472.716875 176.046564 
L 519.315625 169.823585 
L 565.914375 163.971204 
L 612.513125 159.004145 
L 659.111875 154.546659 
L 705.710625 150.717133 
L 752.309375 147.186146 
L 798.908125 144.097818 
L 845.506875 141.483035 
L 892.105625 139.187378 
L 938.704375 137.174818 
L 985.303125 135.661538 
" style="fill:none;stroke:#90ed7d;stroke-linecap:square;"/>
   </g>
   <g id="line2d_51">
    <path clip-path="url(#pd55ccb3347)" d="M 99.926875 287.782245 
L 146.525625 256.621023 
L 193.124375 233.659309 
L 239.723125 215.278615 
L 286.321875 200.07375 
L 332.920625 186.943212 
L 379.519375 175.871559 
L 426.118125 166.097003 
L 472.716875 157.542336 
L 519.315625 150.078879 
L 565.914375 143.063229 
L 612.513125 137.138787 
L 659.111875 131.770245 
L 705.710625 126.973044 
L 752.309375 122.803802 
L 798.908125 119.252225 
L 845.506875 115.968304 
L 892.105625 113.343226 
L 938.704375 110.893153 
L 985.303125 108.896035 
" style="fill:none;stroke:#f7a35c;stroke-linecap:square;"/>
   </g>
   <g id="line2d_52">
    <path clip-path="url(#pd55ccb3347)" d="M 99.926875 289.537444 
L 146.525625 261.577788 
L 193.124375 243.119885 
L 239.723125 228.954758 
L 286.321875 217.656627 
L 332.920625 208.355615 
L 379.519375 200.778918 
L 426.118125 194.396375 
L 472.716875 189.043275 
L 519.315625 184.235779 
L 565.914375 180.354781 
L 612.513125 176.88556 
L 659.111875 173.951649 
L 705.710625 171.038327 
L 752.309375 168.577959 
L 798.908125 166.277155 
L 845.506875 164.213123 
L 892.105625 162.715285 
L 938.704375 161.392451 
L 985.303125 160.347567 
" style="fill:none;stroke:#8085e9;stroke-linecap:square;"/>
   </g>
   <g id="line2d_53">
    <path clip-path="url(#pd55ccb3347)" d="M 99.926875 276.267931 
L 146.525625 244.504485 
L 193.124375 222.772956 
L 239.723125 206.01878 
L 286.321875 193.233105 
L 332.920625 182.861473 
L 379.519375 174.445781 
L 426.118125 167.244831 
L 472.716875 161.531426 
L 519.315625 156.265828 
L 565.914375 151.62819 
L 612.513125 147.469242 
L 659.111875 143.933108 
L 705.710625 140.705806 
L 752.309375 138.106463 
L 798.908125 135.759335 
L 845.506875 133.860013 
L 892.105625 132.053342 
L 938.704375 130.52462 
L 985.303125 129.242964 
" style="fill:none;stroke:#f15c80;stroke-linecap:square;"/>
   </g>
   <g id="line2d_54">
    <path clip-path="url(#pd55ccb3347)" d="M 99.926875 284.709359 
L 146.525625 252.956208 
L 193.124375 230.776871 
L 239.723125 213.605771 
L 286.321875 199.883303 
L 332.920625 188.595467 
L 379.519375 178.831206 
L 426.118125 170.544194 
L 472.716875 163.543986 
L 519.315625 157.300417 
L 565.914375 151.906139 
L 612.513125 147.186146 
L 659.111875 142.605127 
L 705.710625 138.513093 
L 752.309375 135.296086 
L 798.908125 132.362175 
L 845.506875 129.773127 
L 892.105625 127.559826 
L 938.704375 125.686241 
L 985.303125 124.08031 
" style="fill:none;stroke:#e4d354;stroke-linecap:square;"/>
   </g>
   <g id="line2d_55">
    <path clip-path="url(#pd55ccb3347)" d="M 99.926875 288.121961 
L 146.525625 255.550403 
L 193.124375 232.099704 
L 239.723125 213.827101 
L 286.321875 198.684003 
L 332.920625 185.743912 
L 379.519375 174.836969 
L 426.118125 165.278596 
L 472.716875 156.739371 
L 519.315625 149.11635 
L 565.914375 142.141878 
L 612.513125 136.057873 
L 659.111875 130.915808 
L 705.710625 126.036251 
L 752.309375 121.959659 
L 798.908125 118.32058 
L 845.506875 115.0521 
L 892.105625 112.272606 
L 938.704375 109.791649 
L 985.303125 107.871739 
" style="fill:none;stroke:#2b908f;stroke-linecap:square;"/>
   </g>
   <g id="line2d_56">
    <path clip-path="url(#pd55ccb3347)" d="M 99.926875 292.641213 
L 146.525625 262.318987 
L 193.124375 239.655812 
L 239.723125 221.800133 
L 286.321875 207.269553 
L 332.920625 194.180192 
L 379.519375 182.77397 
L 426.118125 172.63911 
L 472.716875 163.765316 
L 519.315625 156.173178 
L 565.914375 149.342827 
L 612.513125 143.377209 
L 659.111875 137.813072 
L 705.710625 132.753363 
L 752.309375 128.270141 
L 798.908125 124.61562 
L 845.506875 120.986836 
L 892.105625 117.836742 
L 938.704375 115.355786 
L 985.303125 113.22484 
" style="fill:none;stroke:#f45b5b;stroke-linecap:square;"/>
   </g>
   <g id="line2d_57">
    <path clip-path="url(#pd55ccb3347)" d="M 99.926875 298.436974 
L 146.525625 271.511907 
L 193.124375 250.737759 
L 239.723125 234.621838 
L 286.321875 220.832457 
L 332.920625 209.15858 
L 379.519375 198.833272 
L 426.118125 189.949184 
L 472.716875 181.976152 
L 519.315625 174.919325 
L 565.914375 168.732376 
L 612.513125 162.952056 
L 659.111875 158.01588 
L 705.710625 153.527511 
L 752.309375 149.404594 
L 798.908125 145.889048 
L 845.506875 142.527919 
L 892.105625 139.974901 
L 938.704375 137.792483 
L 985.303125 135.651243 
" style="fill:none;stroke:#91e8e1;stroke-linecap:square;"/>
   </g>
   <g id="line2d_58">
    <path clip-path="url(#pd55ccb3347)" d="M 99.926875 282.804891 
L 146.525625 248.884763 
L 193.124375 222.834722 
L 239.723125 202.503234 
L 286.321875 185.604937 
L 332.920625 170.971413 
L 379.519375 158.787962 
L 426.118125 147.95308 
L 472.716875 137.782189 
L 519.315625 129.603269 
L 565.914375 122.021425 
L 612.513125 115.319755 
L 659.111875 109.127659 
L 705.710625 103.877503 
L 752.309375 98.956768 
L 798.908125 94.710318 
L 845.506875 90.911675 
L 892.105625 87.720404 
L 938.704375 84.853407 
L 985.303125 82.511425 
" style="fill:none;stroke:#7cb5ec;stroke-linecap:square;"/>
   </g>
   <g id="line2d_59">
    <path clip-path="url(#pd55ccb3347)" d="M 99.926875 276.901039 
L 146.525625 241.421305 
L 193.124375 216.30291 
L 239.723125 195.88392 
L 286.321875 179.34078 
L 332.920625 165.674932 
L 379.519375 154.428273 
L 426.118125 144.746367 
L 472.716875 136.310086 
L 519.315625 129.057664 
L 565.914375 122.43835 
L 612.513125 116.606558 
L 659.111875 111.387285 
L 705.710625 106.713617 
L 752.309375 102.858355 
L 798.908125 99.35825 
L 845.506875 96.136096 
L 892.105625 93.69117 
L 938.704375 91.405808 
L 985.303125 89.465309 
" style="fill:none;stroke:#434348;stroke-linecap:square;"/>
   </g>
   <g id="line2d_60">
    <path clip-path="url(#pd55ccb3347)" d="M 99.926875 287.725626 
L 146.525625 256.409987 
L 193.124375 234.158589 
L 239.723125 215.644067 
L 286.321875 200.38773 
L 332.920625 187.756472 
L 379.519375 176.648788 
L 426.118125 167.111004 
L 472.716875 158.741637 
L 519.315625 151.185529 
L 565.914375 144.782398 
L 612.513125 139.01752 
L 659.111875 133.674714 
L 705.710625 129.042223 
L 752.309375 124.888423 
L 798.908125 121.362582 
L 845.506875 118.315433 
L 892.105625 115.741827 
L 938.704375 113.302048 
L 985.303125 111.418168 
" style="fill:none;stroke:#90ed7d;stroke-linecap:square;"/>
   </g>
   <g id="line2d_61">
    <path clip-path="url(#pd55ccb3347)" d="M 99.926875 277.395171 
L 146.525625 241.441894 
L 193.124375 216.534535 
L 239.723125 196.928804 
L 286.321875 180.66876 
L 332.920625 167.275715 
L 379.519375 155.195208 
L 426.118125 144.864753 
L 472.716875 136.24832 
L 519.315625 128.810598 
L 565.914375 121.90304 
L 612.513125 115.798446 
L 659.111875 110.476229 
L 705.710625 105.555494 
L 752.309375 101.360516 
L 798.908125 97.644229 
L 845.506875 94.375749 
L 892.105625 91.54993 
L 938.704375 89.341776 
L 985.303125 87.30348 
" style="fill:none;stroke:#f7a35c;stroke-linecap:square;"/>
   </g>
   <g id="line2d_62">
    <path clip-path="url(#pd55ccb3347)" d="M 99.926875 285.713066 
L 146.525625 254.073153 
L 193.124375 231.759988 
L 239.723125 213.446207 
L 286.321875 198.879597 
L 332.920625 186.145394 
L 379.519375 175.027416 
L 426.118125 165.21683 
L 472.716875 156.713635 
L 519.315625 149.347975 
L 565.914375 142.76469 
L 612.513125 137.061579 
L 659.111875 131.584946 
L 705.710625 127.019368 
L 752.309375 122.896452 
L 798.908125 119.226489 
L 845.506875 116.256548 
L 892.105625 113.610881 
L 938.704375 111.469641 
L 985.303125 109.493111 
" style="fill:none;stroke:#8085e9;stroke-linecap:square;"/>
   </g>
   <g id="line2d_63">
    <path clip-path="url(#pd55ccb3347)" d="M 99.926875 285.136578 
L 146.525625 252.482664 
L 193.124375 229.165793 
L 239.723125 211.253495 
L 286.321875 196.074366 
L 332.920625 183.031331 
L 379.519375 171.794967 
L 426.118125 162.658665 
L 472.716875 153.928993 
L 519.315625 146.295678 
L 565.914375 139.455033 
L 612.513125 133.705597 
L 659.111875 128.403969 
L 705.710625 123.838391 
L 752.309375 119.710327 
L 798.908125 115.921979 
L 845.506875 112.735855 
L 892.105625 110.043863 
L 938.704375 107.737912 
L 985.303125 105.993007 
" style="fill:none;stroke:#f15c80;stroke-linecap:square;"/>
   </g>
   <g id="line2d_64">
    <path clip-path="url(#pd55ccb3347)" d="M 99.926875 287.401351 
L 146.525625 256.451165 
L 193.124375 234.621838 
L 239.723125 217.425002 
L 286.321875 202.976778 
L 332.920625 190.767591 
L 379.519375 180.581258 
L 426.118125 171.856733 
L 472.716875 163.883702 
L 519.315625 157.07394 
L 565.914375 150.995083 
L 612.513125 145.611099 
L 659.111875 140.906547 
L 705.710625 136.299792 
L 752.309375 132.542327 
L 798.908125 129.206934 
L 845.506875 126.242139 
L 892.105625 123.812655 
L 938.704375 121.71774 
L 985.303125 119.947099 
" style="fill:none;stroke:#e4d354;stroke-linecap:square;"/>
   </g>
   <g id="line2d_65">
    <path clip-path="url(#pd55ccb3347)" d="M 99.926875 284.961573 
L 146.525625 252.935619 
L 193.124375 230.015083 
L 239.723125 211.320409 
L 286.321875 196.203047 
L 332.920625 183.540905 
L 379.519375 172.134683 
L 426.118125 162.720432 
L 472.716875 154.572395 
L 519.315625 146.517008 
L 565.914375 139.763866 
L 612.513125 134.096785 
L 659.111875 128.738537 
L 705.710625 123.668533 
L 752.309375 119.535322 
L 798.908125 115.721238 
L 845.506875 112.215986 
L 892.105625 109.379872 
L 938.704375 106.852591 
L 985.303125 104.716498 
" style="fill:none;stroke:#2b908f;stroke-linecap:square;"/>
   </g>
   <g id="line2d_66">
    <path clip-path="url(#pd55ccb3347)" d="M 99.926875 285.157167 
L 146.525625 251.329689 
L 193.124375 227.410594 
L 239.723125 207.861482 
L 286.321875 191.956597 
L 332.920625 178.208393 
L 379.519375 166.709521 
L 426.118125 156.584955 
L 472.716875 148.184705 
L 519.315625 140.340353 
L 565.914375 133.695303 
L 612.513125 127.554679 
L 659.111875 122.047162 
L 705.710625 117.038924 
L 752.309375 112.797621 
L 798.908125 108.890887 
L 845.506875 105.905504 
L 892.105625 103.182629 
L 938.704375 100.989917 
L 985.303125 99.039123 
" style="fill:none;stroke:#f45b5b;stroke-linecap:square;"/>
   </g>
   <g id="line2d_67">
    <path clip-path="url(#pd55ccb3347)" d="M 53.328125 353.2239 
L 985.303125 353.2239 
" style="fill:none;stroke:#dedede;stroke-linecap:square;stroke-width:2;"/>
   </g>
   <g id="text_16">
    <!-- RSeQC: Junction Saturation -->
    <defs>
     <path d="M 44.390625 34.1875 
Q 47.5625 33.109375 50.5625 29.59375 
Q 53.5625 26.078125 56.59375 19.921875 
L 66.609375 0 
L 56 0 
L 46.6875 18.703125 
Q 43.0625 26.03125 39.671875 28.421875 
Q 36.28125 30.8125 30.421875 30.8125 
L 19.671875 30.8125 
L 19.671875 0 
L 9.8125 0 
L 9.8125 72.90625 
L 32.078125 72.90625 
Q 44.578125 72.90625 50.734375 67.671875 
Q 56.890625 62.453125 56.890625 51.90625 
Q 56.890625 45.015625 53.6875 40.46875 
Q 50.484375 35.9375 44.390625 34.1875 
z
M 19.671875 64.796875 
L 19.671875 38.921875 
L 32.078125 38.921875 
Q 39.203125 38.921875 42.84375 42.21875 
Q 46.484375 45.515625 46.484375 51.90625 
Q 46.484375 58.296875 42.84375 61.546875 
Q 39.203125 64.796875 32.078125 64.796875 
z
" id="DejaVuSans-82"/>
     <path d="M 53.515625 70.515625 
L 53.515625 60.890625 
Q 47.90625 63.578125 42.921875 64.890625 
Q 37.9375 66.21875 33.296875 66.21875 
Q 25.25 66.21875 20.875 63.09375 
Q 16.5 59.96875 16.5 54.203125 
Q 16.5 49.359375 19.40625 46.890625 
Q 22.3125 44.4375 30.421875 42.921875 
L 36.375 41.703125 
Q 47.40625 39.59375 52.65625 34.296875 
Q 57.90625 29 57.90625 20.125 
Q 57.90625 9.515625 50.796875 4.046875 
Q 43.703125 -1.421875 29.984375 -1.421875 
Q 24.8125 -1.421875 18.96875 -0.25 
Q 13.140625 0.921875 6.890625 3.21875 
L 6.890625 13.375 
Q 12.890625 10.015625 18.65625 8.296875 
Q 24.421875 6.59375 29.984375 6.59375 
Q 38.421875 6.59375 43.015625 9.90625 
Q 47.609375 13.234375 47.609375 19.390625 
Q 47.609375 24.75 44.3125 27.78125 
Q 41.015625 30.8125 33.5 32.328125 
L 27.484375 33.5 
Q 16.453125 35.6875 11.515625 40.375 
Q 6.59375 45.0625 6.59375 53.421875 
Q 6.59375 63.09375 13.40625 68.65625 
Q 20.21875 74.21875 32.171875 74.21875 
Q 37.3125 74.21875 42.625 73.28125 
Q 47.953125 72.359375 53.515625 70.515625 
z
" id="DejaVuSans-83"/>
     <path d="M 39.40625 66.21875 
Q 28.65625 66.21875 22.328125 58.203125 
Q 16.015625 50.203125 16.015625 36.375 
Q 16.015625 22.609375 22.328125 14.59375 
Q 28.65625 6.59375 39.40625 6.59375 
Q 50.140625 6.59375 56.421875 14.59375 
Q 62.703125 22.609375 62.703125 36.375 
Q 62.703125 50.203125 56.421875 58.203125 
Q 50.140625 66.21875 39.40625 66.21875 
z
M 53.21875 1.3125 
L 66.21875 -12.890625 
L 54.296875 -12.890625 
L 43.5 -1.21875 
Q 41.890625 -1.3125 41.03125 -1.359375 
Q 40.1875 -1.421875 39.40625 -1.421875 
Q 24.03125 -1.421875 14.8125 8.859375 
Q 5.609375 19.140625 5.609375 36.375 
Q 5.609375 53.65625 14.8125 63.9375 
Q 24.03125 74.21875 39.40625 74.21875 
Q 54.734375 74.21875 63.90625 63.9375 
Q 73.09375 53.65625 73.09375 36.375 
Q 73.09375 23.6875 67.984375 14.640625 
Q 62.890625 5.609375 53.21875 1.3125 
z
" id="DejaVuSans-81"/>
     <path d="M 64.40625 67.28125 
L 64.40625 56.890625 
Q 59.421875 61.53125 53.78125 63.8125 
Q 48.140625 66.109375 41.796875 66.109375 
Q 29.296875 66.109375 22.65625 58.46875 
Q 16.015625 50.828125 16.015625 36.375 
Q 16.015625 21.96875 22.65625 14.328125 
Q 29.296875 6.6875 41.796875 6.6875 
Q 48.140625 6.6875 53.78125 8.984375 
Q 59.421875 11.28125 64.40625 15.921875 
L 64.40625 5.609375 
Q 59.234375 2.09375 53.4375 0.328125 
Q 47.65625 -1.421875 41.21875 -1.421875 
Q 24.65625 -1.421875 15.125 8.703125 
Q 5.609375 18.84375 5.609375 36.375 
Q 5.609375 53.953125 15.125 64.078125 
Q 24.65625 74.21875 41.21875 74.21875 
Q 47.75 74.21875 53.53125 72.484375 
Q 59.328125 70.75 64.40625 67.28125 
z
" id="DejaVuSans-67"/>
     <path d="M 11.71875 12.40625 
L 22.015625 12.40625 
L 22.015625 0 
L 11.71875 0 
z
M 11.71875 51.703125 
L 22.015625 51.703125 
L 22.015625 39.3125 
L 11.71875 39.3125 
z
" id="DejaVuSans-58"/>
    </defs>
    <g transform="translate(410.166875 19.3575)scale(0.16 -0.16)">
     <use xlink:href="#DejaVuSans-82"/>
     <use x="69.482422" xlink:href="#DejaVuSans-83"/>
     <use x="132.958984" xlink:href="#DejaVuSans-101"/>
     <use x="194.482422" xlink:href="#DejaVuSans-81"/>
     <use x="273.193359" xlink:href="#DejaVuSans-67"/>
     <use x="343.017578" xlink:href="#DejaVuSans-58"/>
     <use x="376.708984" xlink:href="#DejaVuSans-32"/>
     <use x="408.496094" xlink:href="#DejaVuSans-74"/>
     <use x="437.988281" xlink:href="#DejaVuSans-117"/>
     <use x="501.367188" xlink:href="#DejaVuSans-110"/>
     <use x="564.746094" xlink:href="#DejaVuSans-99"/>
     <use x="619.726562" xlink:href="#DejaVuSans-116"/>
     <use x="658.935547" xlink:href="#DejaVuSans-105"/>
     <use x="686.71875" xlink:href="#DejaVuSans-111"/>
     <use x="747.900391" xlink:href="#DejaVuSans-110"/>
     <use x="811.279297" xlink:href="#DejaVuSans-32"/>
     <use x="843.066406" xlink:href="#DejaVuSans-83"/>
     <use x="906.542969" xlink:href="#DejaVuSans-97"/>
     <use x="967.822266" xlink:href="#DejaVuSans-116"/>
     <use x="1007.03125" xlink:href="#DejaVuSans-117"/>
     <use x="1070.410156" xlink:href="#DejaVuSans-114"/>
     <use x="1111.523438" xlink:href="#DejaVuSans-97"/>
     <use x="1172.802734" xlink:href="#DejaVuSans-116"/>
     <use x="1212.011719" xlink:href="#DejaVuSans-105"/>
     <use x="1239.794922" xlink:href="#DejaVuSans-111"/>
     <use x="1300.976562" xlink:href="#DejaVuSans-110"/>
    </g>
   </g>
  </g>
 </g>
 <defs>
  <clipPath id="pd55ccb3347">
   <rect height="317.968" width="931.975" x="53.328125" y="35.2559"/>
  </clipPath>
 </defs>
</svg>
