<?xml version="1.0" encoding="utf-8" standalone="no"?>
<!DOCTYPE svg PUBLIC "-//W3C//DTD SVG 1.1//EN"
  "http://www.w3.org/Graphics/SVG/1.1/DTD/svg11.dtd">
<!-- Created with matplotlib (https://matplotlib.org/) -->
<svg height="388.844525pt" version="1.1" viewBox="0 0 1001.258125 388.844525" width="1001.258125pt" xmlns="http://www.w3.org/2000/svg" xmlns:xlink="http://www.w3.org/1999/xlink">
 <defs>
  <style type="text/css">
*{stroke-linecap:butt;stroke-linejoin:round;}
  </style>
 </defs>
 <g id="figure_1">
  <g id="patch_1">
   <path d="M 0 388.844525 
L 1001.258125 388.844525 
L 1001.258125 0 
L 0 0 
z
" style="fill:#ffffff;"/>
  </g>
  <g id="axes_1">
   <g id="patch_2">
    <path d="M 43.148125 353.2239 
L 990.558125 353.2239 
L 990.558125 35.2559 
L 43.148125 35.2559 
z
" style="fill:#ffffff;"/>
   </g>
   <g id="matplotlib.axis_1">
    <g id="xtick_1">
     <g id="text_1">
      <!-- 0 -->
      <defs>
       <path d="M 31.78125 66.40625 
Q 24.171875 66.40625 20.328125 58.90625 
Q 16.5 51.421875 16.5 36.375 
Q 16.5 21.390625 20.328125 13.890625 
Q 24.171875 6.390625 31.78125 6.390625 
Q 39.453125 6.390625 43.28125 13.890625 
Q 47.125 21.390625 47.125 36.375 
Q 47.125 51.421875 43.28125 58.90625 
Q 39.453125 66.40625 31.78125 66.40625 
z
M 31.78125 74.21875 
Q 44.046875 74.21875 50.515625 64.515625 
Q 56.984375 54.828125 56.984375 36.375 
Q 56.984375 17.96875 50.515625 8.265625 
Q 44.046875 -1.421875 31.78125 -1.421875 
Q 19.53125 -1.421875 13.0625 8.265625 
Q 6.59375 17.96875 6.59375 36.375 
Q 6.59375 54.828125 13.0625 64.515625 
Q 19.53125 74.21875 31.78125 74.21875 
z
" id="DejaVuSans-48"/>
      </defs>
      <g transform="translate(83.667131 366.30265)scale(0.08 -0.08)">
       <use xlink:href="#DejaVuSans-48"/>
      </g>
     </g>
    </g>
    <g id="xtick_2">
     <g id="text_2">
      <!-- 100000 -->
      <defs>
       <path d="M 12.40625 8.296875 
L 28.515625 8.296875 
L 28.515625 63.921875 
L 10.984375 60.40625 
L 10.984375 69.390625 
L 28.421875 72.90625 
L 38.28125 72.90625 
L 38.28125 8.296875 
L 54.390625 8.296875 
L 54.390625 0 
L 12.40625 0 
z
" id="DejaVuSans-49"/>
      </defs>
      <g transform="translate(208.631002 366.30265)scale(0.08 -0.08)">
       <use xlink:href="#DejaVuSans-49"/>
       <use x="63.623047" xlink:href="#DejaVuSans-48"/>
       <use x="127.246094" xlink:href="#DejaVuSans-48"/>
       <use x="190.869141" xlink:href="#DejaVuSans-48"/>
       <use x="254.492188" xlink:href="#DejaVuSans-48"/>
       <use x="318.115234" xlink:href="#DejaVuSans-48"/>
      </g>
     </g>
    </g>
    <g id="xtick_3">
     <g id="text_3">
      <!-- 200000 -->
      <defs>
       <path d="M 19.1875 8.296875 
L 53.609375 8.296875 
L 53.609375 0 
L 7.328125 0 
L 7.328125 8.296875 
Q 12.9375 14.109375 22.625 23.890625 
Q 32.328125 33.6875 34.8125 36.53125 
Q 39.546875 41.84375 41.421875 45.53125 
Q 43.3125 49.21875 43.3125 52.78125 
Q 43.3125 58.59375 39.234375 62.25 
Q 35.15625 65.921875 28.609375 65.921875 
Q 23.96875 65.921875 18.8125 64.3125 
Q 13.671875 62.703125 7.8125 59.421875 
L 7.8125 69.390625 
Q 13.765625 71.78125 18.9375 73 
Q 24.125 74.21875 28.421875 74.21875 
Q 39.75 74.21875 46.484375 68.546875 
Q 53.21875 62.890625 53.21875 53.421875 
Q 53.21875 48.921875 51.53125 44.890625 
Q 49.859375 40.875 45.40625 35.40625 
Q 44.1875 33.984375 37.640625 27.21875 
Q 31.109375 20.453125 19.1875 8.296875 
z
" id="DejaVuSans-50"/>
      </defs>
      <g transform="translate(346.319874 366.30265)scale(0.08 -0.08)">
       <use xlink:href="#DejaVuSans-50"/>
       <use x="63.623047" xlink:href="#DejaVuSans-48"/>
       <use x="127.246094" xlink:href="#DejaVuSans-48"/>
       <use x="190.869141" xlink:href="#DejaVuSans-48"/>
       <use x="254.492188" xlink:href="#DejaVuSans-48"/>
       <use x="318.115234" xlink:href="#DejaVuSans-48"/>
      </g>
     </g>
    </g>
    <g id="xtick_4">
     <g id="text_4">
      <!-- 300000 -->
      <defs>
       <path d="M 40.578125 39.3125 
Q 47.65625 37.796875 51.625 33 
Q 55.609375 28.21875 55.609375 21.1875 
Q 55.609375 10.40625 48.1875 4.484375 
Q 40.765625 -1.421875 27.09375 -1.421875 
Q 22.515625 -1.421875 17.65625 -0.515625 
Q 12.796875 0.390625 7.625 2.203125 
L 7.625 11.71875 
Q 11.71875 9.328125 16.59375 8.109375 
Q 21.484375 6.890625 26.8125 6.890625 
Q 36.078125 6.890625 40.9375 10.546875 
Q 45.796875 14.203125 45.796875 21.1875 
Q 45.796875 27.640625 41.28125 31.265625 
Q 36.765625 34.90625 28.71875 34.90625 
L 20.21875 34.90625 
L 20.21875 43.015625 
L 29.109375 43.015625 
Q 36.375 43.015625 40.234375 45.921875 
Q 44.09375 48.828125 44.09375 54.296875 
Q 44.09375 59.90625 40.109375 62.90625 
Q 36.140625 65.921875 28.71875 65.921875 
Q 24.65625 65.921875 20.015625 65.03125 
Q 15.375 64.15625 9.8125 62.3125 
L 9.8125 71.09375 
Q 15.4375 72.65625 20.34375 73.4375 
Q 25.25 74.21875 29.59375 74.21875 
Q 40.828125 74.21875 47.359375 69.109375 
Q 53.90625 64.015625 53.90625 55.328125 
Q 53.90625 49.265625 50.4375 45.09375 
Q 46.96875 40.921875 40.578125 39.3125 
z
" id="DejaVuSans-51"/>
      </defs>
      <g transform="translate(484.008745 366.30265)scale(0.08 -0.08)">
       <use xlink:href="#DejaVuSans-51"/>
       <use x="63.623047" xlink:href="#DejaVuSans-48"/>
       <use x="127.246094" xlink:href="#DejaVuSans-48"/>
       <use x="190.869141" xlink:href="#DejaVuSans-48"/>
       <use x="254.492188" xlink:href="#DejaVuSans-48"/>
       <use x="318.115234" xlink:href="#DejaVuSans-48"/>
      </g>
     </g>
    </g>
    <g id="xtick_5">
     <g id="text_5">
      <!-- 400000 -->
      <defs>
       <path d="M 37.796875 64.3125 
L 12.890625 25.390625 
L 37.796875 25.390625 
z
M 35.203125 72.90625 
L 47.609375 72.90625 
L 47.609375 25.390625 
L 58.015625 25.390625 
L 58.015625 17.1875 
L 47.609375 17.1875 
L 47.609375 0 
L 37.796875 0 
L 37.796875 17.1875 
L 4.890625 17.1875 
L 4.890625 26.703125 
z
" id="DejaVuSans-52"/>
      </defs>
      <g transform="translate(621.697617 366.30265)scale(0.08 -0.08)">
       <use xlink:href="#DejaVuSans-52"/>
       <use x="63.623047" xlink:href="#DejaVuSans-48"/>
       <use x="127.246094" xlink:href="#DejaVuSans-48"/>
       <use x="190.869141" xlink:href="#DejaVuSans-48"/>
       <use x="254.492188" xlink:href="#DejaVuSans-48"/>
       <use x="318.115234" xlink:href="#DejaVuSans-48"/>
      </g>
     </g>
    </g>
    <g id="xtick_6">
     <g id="text_6">
      <!-- 500000 -->
      <defs>
       <path d="M 10.796875 72.90625 
L 49.515625 72.90625 
L 49.515625 64.59375 
L 19.828125 64.59375 
L 19.828125 46.734375 
Q 21.96875 47.46875 24.109375 47.828125 
Q 26.265625 48.1875 28.421875 48.1875 
Q 40.625 48.1875 47.75 41.5 
Q 54.890625 34.8125 54.890625 23.390625 
Q 54.890625 11.625 47.5625 5.09375 
Q 40.234375 -1.421875 26.90625 -1.421875 
Q 22.3125 -1.421875 17.546875 -0.640625 
Q 12.796875 0.140625 7.71875 1.703125 
L 7.71875 11.625 
Q 12.109375 9.234375 16.796875 8.0625 
Q 21.484375 6.890625 26.703125 6.890625 
Q 35.15625 6.890625 40.078125 11.328125 
Q 45.015625 15.765625 45.015625 23.390625 
Q 45.015625 31 40.078125 35.4375 
Q 35.15625 39.890625 26.703125 39.890625 
Q 22.75 39.890625 18.8125 39.015625 
Q 14.890625 38.140625 10.796875 36.28125 
z
" id="DejaVuSans-53"/>
      </defs>
      <g transform="translate(759.386488 366.30265)scale(0.08 -0.08)">
       <use xlink:href="#DejaVuSans-53"/>
       <use x="63.623047" xlink:href="#DejaVuSans-48"/>
       <use x="127.246094" xlink:href="#DejaVuSans-48"/>
       <use x="190.869141" xlink:href="#DejaVuSans-48"/>
       <use x="254.492188" xlink:href="#DejaVuSans-48"/>
       <use x="318.115234" xlink:href="#DejaVuSans-48"/>
      </g>
     </g>
    </g>
    <g id="xtick_7">
     <g id="text_7">
      <!-- 600000 -->
      <defs>
       <path d="M 33.015625 40.375 
Q 26.375 40.375 22.484375 35.828125 
Q 18.609375 31.296875 18.609375 23.390625 
Q 18.609375 15.53125 22.484375 10.953125 
Q 26.375 6.390625 33.015625 6.390625 
Q 39.65625 6.390625 43.53125 10.953125 
Q 47.40625 15.53125 47.40625 23.390625 
Q 47.40625 31.296875 43.53125 35.828125 
Q 39.65625 40.375 33.015625 40.375 
z
M 52.59375 71.296875 
L 52.59375 62.3125 
Q 48.875 64.0625 45.09375 64.984375 
Q 41.3125 65.921875 37.59375 65.921875 
Q 27.828125 65.921875 22.671875 59.328125 
Q 17.53125 52.734375 16.796875 39.40625 
Q 19.671875 43.65625 24.015625 45.921875 
Q 28.375 48.1875 33.59375 48.1875 
Q 44.578125 48.1875 50.953125 41.515625 
Q 57.328125 34.859375 57.328125 23.390625 
Q 57.328125 12.15625 50.6875 5.359375 
Q 44.046875 -1.421875 33.015625 -1.421875 
Q 20.359375 -1.421875 13.671875 8.265625 
Q 6.984375 17.96875 6.984375 36.375 
Q 6.984375 53.65625 15.1875 63.9375 
Q 23.390625 74.21875 37.203125 74.21875 
Q 40.921875 74.21875 44.703125 73.484375 
Q 48.484375 72.75 52.59375 71.296875 
z
" id="DejaVuSans-54"/>
      </defs>
      <g transform="translate(897.07536 366.30265)scale(0.08 -0.08)">
       <use xlink:href="#DejaVuSans-54"/>
       <use x="63.623047" xlink:href="#DejaVuSans-48"/>
       <use x="127.246094" xlink:href="#DejaVuSans-48"/>
       <use x="190.869141" xlink:href="#DejaVuSans-48"/>
       <use x="254.492188" xlink:href="#DejaVuSans-48"/>
       <use x="318.115234" xlink:href="#DejaVuSans-48"/>
      </g>
     </g>
    </g>
    <g id="text_8">
     <!-- expression (reads/kbp) -->
     <defs>
      <path d="M 56.203125 29.59375 
L 56.203125 25.203125 
L 14.890625 25.203125 
Q 15.484375 15.921875 20.484375 11.0625 
Q 25.484375 6.203125 34.421875 6.203125 
Q 39.59375 6.203125 44.453125 7.46875 
Q 49.3125 8.734375 54.109375 11.28125 
L 54.109375 2.78125 
Q 49.265625 0.734375 44.1875 -0.34375 
Q 39.109375 -1.421875 33.890625 -1.421875 
Q 20.796875 -1.421875 13.15625 6.1875 
Q 5.515625 13.8125 5.515625 26.8125 
Q 5.515625 40.234375 12.765625 48.109375 
Q 20.015625 56 32.328125 56 
Q 43.359375 56 49.78125 48.890625 
Q 56.203125 41.796875 56.203125 29.59375 
z
M 47.21875 32.234375 
Q 47.125 39.59375 43.09375 43.984375 
Q 39.0625 48.390625 32.421875 48.390625 
Q 24.90625 48.390625 20.390625 44.140625 
Q 15.875 39.890625 15.1875 32.171875 
z
" id="DejaVuSans-101"/>
      <path d="M 54.890625 54.6875 
L 35.109375 28.078125 
L 55.90625 0 
L 45.3125 0 
L 29.390625 21.484375 
L 13.484375 0 
L 2.875 0 
L 24.125 28.609375 
L 4.6875 54.6875 
L 15.28125 54.6875 
L 29.78125 35.203125 
L 44.28125 54.6875 
z
" id="DejaVuSans-120"/>
      <path d="M 18.109375 8.203125 
L 18.109375 -20.796875 
L 9.078125 -20.796875 
L 9.078125 54.6875 
L 18.109375 54.6875 
L 18.109375 46.390625 
Q 20.953125 51.265625 25.265625 53.625 
Q 29.59375 56 35.59375 56 
Q 45.5625 56 51.78125 48.09375 
Q 58.015625 40.1875 58.015625 27.296875 
Q 58.015625 14.40625 51.78125 6.484375 
Q 45.5625 -1.421875 35.59375 -1.421875 
Q 29.59375 -1.421875 25.265625 0.953125 
Q 20.953125 3.328125 18.109375 8.203125 
z
M 48.6875 27.296875 
Q 48.6875 37.203125 44.609375 42.84375 
Q 40.53125 48.484375 33.40625 48.484375 
Q 26.265625 48.484375 22.1875 42.84375 
Q 18.109375 37.203125 18.109375 27.296875 
Q 18.109375 17.390625 22.1875 11.75 
Q 26.265625 6.109375 33.40625 6.109375 
Q 40.53125 6.109375 44.609375 11.75 
Q 48.6875 17.390625 48.6875 27.296875 
z
" id="DejaVuSans-112"/>
      <path d="M 41.109375 46.296875 
Q 39.59375 47.171875 37.8125 47.578125 
Q 36.03125 48 33.890625 48 
Q 26.265625 48 22.1875 43.046875 
Q 18.109375 38.09375 18.109375 28.8125 
L 18.109375 0 
L 9.078125 0 
L 9.078125 54.6875 
L 18.109375 54.6875 
L 18.109375 46.1875 
Q 20.953125 51.171875 25.484375 53.578125 
Q 30.03125 56 36.53125 56 
Q 37.453125 56 38.578125 55.875 
Q 39.703125 55.765625 41.0625 55.515625 
z
" id="DejaVuSans-114"/>
      <path d="M 44.28125 53.078125 
L 44.28125 44.578125 
Q 40.484375 46.53125 36.375 47.5 
Q 32.28125 48.484375 27.875 48.484375 
Q 21.1875 48.484375 17.84375 46.4375 
Q 14.5 44.390625 14.5 40.28125 
Q 14.5 37.15625 16.890625 35.375 
Q 19.28125 33.59375 26.515625 31.984375 
L 29.59375 31.296875 
Q 39.15625 29.25 43.1875 25.515625 
Q 47.21875 21.78125 47.21875 15.09375 
Q 47.21875 7.46875 41.1875 3.015625 
Q 35.15625 -1.421875 24.609375 -1.421875 
Q 20.21875 -1.421875 15.453125 -0.5625 
Q 10.6875 0.296875 5.421875 2 
L 5.421875 11.28125 
Q 10.40625 8.6875 15.234375 7.390625 
Q 20.0625 6.109375 24.8125 6.109375 
Q 31.15625 6.109375 34.5625 8.28125 
Q 37.984375 10.453125 37.984375 14.40625 
Q 37.984375 18.0625 35.515625 20.015625 
Q 33.0625 21.96875 24.703125 23.78125 
L 21.578125 24.515625 
Q 13.234375 26.265625 9.515625 29.90625 
Q 5.8125 33.546875 5.8125 39.890625 
Q 5.8125 47.609375 11.28125 51.796875 
Q 16.75 56 26.8125 56 
Q 31.78125 56 36.171875 55.265625 
Q 40.578125 54.546875 44.28125 53.078125 
z
" id="DejaVuSans-115"/>
      <path d="M 9.421875 54.6875 
L 18.40625 54.6875 
L 18.40625 0 
L 9.421875 0 
z
M 9.421875 75.984375 
L 18.40625 75.984375 
L 18.40625 64.59375 
L 9.421875 64.59375 
z
" id="DejaVuSans-105"/>
      <path d="M 30.609375 48.390625 
Q 23.390625 48.390625 19.1875 42.75 
Q 14.984375 37.109375 14.984375 27.296875 
Q 14.984375 17.484375 19.15625 11.84375 
Q 23.34375 6.203125 30.609375 6.203125 
Q 37.796875 6.203125 41.984375 11.859375 
Q 46.1875 17.53125 46.1875 27.296875 
Q 46.1875 37.015625 41.984375 42.703125 
Q 37.796875 48.390625 30.609375 48.390625 
z
M 30.609375 56 
Q 42.328125 56 49.015625 48.375 
Q 55.71875 40.765625 55.71875 27.296875 
Q 55.71875 13.875 49.015625 6.21875 
Q 42.328125 -1.421875 30.609375 -1.421875 
Q 18.84375 -1.421875 12.171875 6.21875 
Q 5.515625 13.875 5.515625 27.296875 
Q 5.515625 40.765625 12.171875 48.375 
Q 18.84375 56 30.609375 56 
z
" id="DejaVuSans-111"/>
      <path d="M 54.890625 33.015625 
L 54.890625 0 
L 45.90625 0 
L 45.90625 32.71875 
Q 45.90625 40.484375 42.875 44.328125 
Q 39.84375 48.1875 33.796875 48.1875 
Q 26.515625 48.1875 22.3125 43.546875 
Q 18.109375 38.921875 18.109375 30.90625 
L 18.109375 0 
L 9.078125 0 
L 9.078125 54.6875 
L 18.109375 54.6875 
L 18.109375 46.1875 
Q 21.34375 51.125 25.703125 53.5625 
Q 30.078125 56 35.796875 56 
Q 45.21875 56 50.046875 50.171875 
Q 54.890625 44.34375 54.890625 33.015625 
z
" id="DejaVuSans-110"/>
      <path id="DejaVuSans-32"/>
      <path d="M 31 75.875 
Q 24.46875 64.65625 21.28125 53.65625 
Q 18.109375 42.671875 18.109375 31.390625 
Q 18.109375 20.125 21.3125 9.0625 
Q 24.515625 -2 31 -13.1875 
L 23.1875 -13.1875 
Q 15.875 -1.703125 12.234375 9.375 
Q 8.59375 20.453125 8.59375 31.390625 
Q 8.59375 42.28125 12.203125 53.3125 
Q 15.828125 64.359375 23.1875 75.875 
z
" id="DejaVuSans-40"/>
      <path d="M 34.28125 27.484375 
Q 23.390625 27.484375 19.1875 25 
Q 14.984375 22.515625 14.984375 16.5 
Q 14.984375 11.71875 18.140625 8.90625 
Q 21.296875 6.109375 26.703125 6.109375 
Q 34.1875 6.109375 38.703125 11.40625 
Q 43.21875 16.703125 43.21875 25.484375 
L 43.21875 27.484375 
z
M 52.203125 31.203125 
L 52.203125 0 
L 43.21875 0 
L 43.21875 8.296875 
Q 40.140625 3.328125 35.546875 0.953125 
Q 30.953125 -1.421875 24.3125 -1.421875 
Q 15.921875 -1.421875 10.953125 3.296875 
Q 6 8.015625 6 15.921875 
Q 6 25.140625 12.171875 29.828125 
Q 18.359375 34.515625 30.609375 34.515625 
L 43.21875 34.515625 
L 43.21875 35.40625 
Q 43.21875 41.609375 39.140625 45 
Q 35.0625 48.390625 27.6875 48.390625 
Q 23 48.390625 18.546875 47.265625 
Q 14.109375 46.140625 10.015625 43.890625 
L 10.015625 52.203125 
Q 14.9375 54.109375 19.578125 55.046875 
Q 24.21875 56 28.609375 56 
Q 40.484375 56 46.34375 49.84375 
Q 52.203125 43.703125 52.203125 31.203125 
z
" id="DejaVuSans-97"/>
      <path d="M 45.40625 46.390625 
L 45.40625 75.984375 
L 54.390625 75.984375 
L 54.390625 0 
L 45.40625 0 
L 45.40625 8.203125 
Q 42.578125 3.328125 38.25 0.953125 
Q 33.9375 -1.421875 27.875 -1.421875 
Q 17.96875 -1.421875 11.734375 6.484375 
Q 5.515625 14.40625 5.515625 27.296875 
Q 5.515625 40.1875 11.734375 48.09375 
Q 17.96875 56 27.875 56 
Q 33.9375 56 38.25 53.625 
Q 42.578125 51.265625 45.40625 46.390625 
z
M 14.796875 27.296875 
Q 14.796875 17.390625 18.875 11.75 
Q 22.953125 6.109375 30.078125 6.109375 
Q 37.203125 6.109375 41.296875 11.75 
Q 45.40625 17.390625 45.40625 27.296875 
Q 45.40625 37.203125 41.296875 42.84375 
Q 37.203125 48.484375 30.078125 48.484375 
Q 22.953125 48.484375 18.875 42.84375 
Q 14.796875 37.203125 14.796875 27.296875 
z
" id="DejaVuSans-100"/>
      <path d="M 25.390625 72.90625 
L 33.6875 72.90625 
L 8.296875 -9.28125 
L 0 -9.28125 
z
" id="DejaVuSans-47"/>
      <path d="M 9.078125 75.984375 
L 18.109375 75.984375 
L 18.109375 31.109375 
L 44.921875 54.6875 
L 56.390625 54.6875 
L 27.390625 29.109375 
L 57.625 0 
L 45.90625 0 
L 18.109375 26.703125 
L 18.109375 0 
L 9.078125 0 
z
" id="DejaVuSans-107"/>
      <path d="M 48.6875 27.296875 
Q 48.6875 37.203125 44.609375 42.84375 
Q 40.53125 48.484375 33.40625 48.484375 
Q 26.265625 48.484375 22.1875 42.84375 
Q 18.109375 37.203125 18.109375 27.296875 
Q 18.109375 17.390625 22.1875 11.75 
Q 26.265625 6.109375 33.40625 6.109375 
Q 40.53125 6.109375 44.609375 11.75 
Q 48.6875 17.390625 48.6875 27.296875 
z
M 18.109375 46.390625 
Q 20.953125 51.265625 25.265625 53.625 
Q 29.59375 56 35.59375 56 
Q 45.5625 56 51.78125 48.09375 
Q 58.015625 40.1875 58.015625 27.296875 
Q 58.015625 14.40625 51.78125 6.484375 
Q 45.5625 -1.421875 35.59375 -1.421875 
Q 29.59375 -1.421875 25.265625 0.953125 
Q 20.953125 3.328125 18.109375 8.203125 
L 18.109375 0 
L 9.078125 0 
L 9.078125 75.984375 
L 18.109375 75.984375 
z
" id="DejaVuSans-98"/>
      <path d="M 8.015625 75.875 
L 15.828125 75.875 
Q 23.140625 64.359375 26.78125 53.3125 
Q 30.421875 42.28125 30.421875 31.390625 
Q 30.421875 20.453125 26.78125 9.375 
Q 23.140625 -1.703125 15.828125 -13.1875 
L 8.015625 -13.1875 
Q 14.5 -2 17.703125 9.0625 
Q 20.90625 20.125 20.90625 31.390625 
Q 20.90625 42.671875 17.703125 53.65625 
Q 14.5 64.65625 8.015625 75.875 
z
" id="DejaVuSans-41"/>
     </defs>
     <g transform="translate(459.294531 379.564837)scale(0.1 -0.1)">
      <use xlink:href="#DejaVuSans-101"/>
      <use x="61.507812" xlink:href="#DejaVuSans-120"/>
      <use x="120.6875" xlink:href="#DejaVuSans-112"/>
      <use x="184.164062" xlink:href="#DejaVuSans-114"/>
      <use x="225.246094" xlink:href="#DejaVuSans-101"/>
      <use x="286.769531" xlink:href="#DejaVuSans-115"/>
      <use x="338.869141" xlink:href="#DejaVuSans-115"/>
      <use x="390.96875" xlink:href="#DejaVuSans-105"/>
      <use x="418.751953" xlink:href="#DejaVuSans-111"/>
      <use x="479.933594" xlink:href="#DejaVuSans-110"/>
      <use x="543.3125" xlink:href="#DejaVuSans-32"/>
      <use x="575.099609" xlink:href="#DejaVuSans-40"/>
      <use x="614.113281" xlink:href="#DejaVuSans-114"/>
      <use x="655.195312" xlink:href="#DejaVuSans-101"/>
      <use x="716.71875" xlink:href="#DejaVuSans-97"/>
      <use x="777.998047" xlink:href="#DejaVuSans-100"/>
      <use x="841.474609" xlink:href="#DejaVuSans-115"/>
      <use x="893.574219" xlink:href="#DejaVuSans-47"/>
      <use x="927.265625" xlink:href="#DejaVuSans-107"/>
      <use x="985.175781" xlink:href="#DejaVuSans-98"/>
      <use x="1048.652344" xlink:href="#DejaVuSans-112"/>
      <use x="1112.128906" xlink:href="#DejaVuSans-41"/>
     </g>
    </g>
   </g>
   <g id="matplotlib.axis_2">
    <g id="ytick_1">
     <g id="line2d_1">
      <path clip-path="url(#p10d51d2154)" d="M 43.148125 353.2239 
L 990.558125 353.2239 
" style="fill:none;stroke:#dedede;stroke-linecap:square;"/>
     </g>
     <g id="text_9">
      <!-- 0 -->
      <g transform="translate(31.058125 356.263275)scale(0.08 -0.08)">
       <use xlink:href="#DejaVuSans-48"/>
      </g>
     </g>
    </g>
    <g id="ytick_2">
     <g id="line2d_2">
      <path clip-path="url(#p10d51d2154)" d="M 43.148125 289.6303 
L 990.558125 289.6303 
" style="fill:none;stroke:#dedede;stroke-linecap:square;"/>
     </g>
     <g id="text_10">
      <!-- 20 -->
      <g transform="translate(25.968125 292.669675)scale(0.08 -0.08)">
       <use xlink:href="#DejaVuSans-50"/>
       <use x="63.623047" xlink:href="#DejaVuSans-48"/>
      </g>
     </g>
    </g>
    <g id="ytick_3">
     <g id="line2d_3">
      <path clip-path="url(#p10d51d2154)" d="M 43.148125 226.0367 
L 990.558125 226.0367 
" style="fill:none;stroke:#dedede;stroke-linecap:square;"/>
     </g>
     <g id="text_11">
      <!-- 40 -->
      <g transform="translate(25.968125 229.076075)scale(0.08 -0.08)">
       <use xlink:href="#DejaVuSans-52"/>
       <use x="63.623047" xlink:href="#DejaVuSans-48"/>
      </g>
     </g>
    </g>
    <g id="ytick_4">
     <g id="line2d_4">
      <path clip-path="url(#p10d51d2154)" d="M 43.148125 162.4431 
L 990.558125 162.4431 
" style="fill:none;stroke:#dedede;stroke-linecap:square;"/>
     </g>
     <g id="text_12">
      <!-- 60 -->
      <g transform="translate(25.968125 165.482475)scale(0.08 -0.08)">
       <use xlink:href="#DejaVuSans-54"/>
       <use x="63.623047" xlink:href="#DejaVuSans-48"/>
      </g>
     </g>
    </g>
    <g id="ytick_5">
     <g id="line2d_5">
      <path clip-path="url(#p10d51d2154)" d="M 43.148125 98.8495 
L 990.558125 98.8495 
" style="fill:none;stroke:#dedede;stroke-linecap:square;"/>
     </g>
     <g id="text_13">
      <!-- 80 -->
      <defs>
       <path d="M 31.78125 34.625 
Q 24.75 34.625 20.71875 30.859375 
Q 16.703125 27.09375 16.703125 20.515625 
Q 16.703125 13.921875 20.71875 10.15625 
Q 24.75 6.390625 31.78125 6.390625 
Q 38.8125 6.390625 42.859375 10.171875 
Q 46.921875 13.96875 46.921875 20.515625 
Q 46.921875 27.09375 42.890625 30.859375 
Q 38.875 34.625 31.78125 34.625 
z
M 21.921875 38.8125 
Q 15.578125 40.375 12.03125 44.71875 
Q 8.5 49.078125 8.5 55.328125 
Q 8.5 64.0625 14.71875 69.140625 
Q 20.953125 74.21875 31.78125 74.21875 
Q 42.671875 74.21875 48.875 69.140625 
Q 55.078125 64.0625 55.078125 55.328125 
Q 55.078125 49.078125 51.53125 44.71875 
Q 48 40.375 41.703125 38.8125 
Q 48.828125 37.15625 52.796875 32.3125 
Q 56.78125 27.484375 56.78125 20.515625 
Q 56.78125 9.90625 50.3125 4.234375 
Q 43.84375 -1.421875 31.78125 -1.421875 
Q 19.734375 -1.421875 13.25 4.234375 
Q 6.78125 9.90625 6.78125 20.515625 
Q 6.78125 27.484375 10.78125 32.3125 
Q 14.796875 37.15625 21.921875 38.8125 
z
M 18.3125 54.390625 
Q 18.3125 48.734375 21.84375 45.5625 
Q 25.390625 42.390625 31.78125 42.390625 
Q 38.140625 42.390625 41.71875 45.5625 
Q 45.3125 48.734375 45.3125 54.390625 
Q 45.3125 60.0625 41.71875 63.234375 
Q 38.140625 66.40625 31.78125 66.40625 
Q 25.390625 66.40625 21.84375 63.234375 
Q 18.3125 60.0625 18.3125 54.390625 
z
" id="DejaVuSans-56"/>
      </defs>
      <g transform="translate(25.968125 101.888875)scale(0.08 -0.08)">
       <use xlink:href="#DejaVuSans-56"/>
       <use x="63.623047" xlink:href="#DejaVuSans-48"/>
      </g>
     </g>
    </g>
    <g id="ytick_6">
     <g id="line2d_6">
      <path clip-path="url(#p10d51d2154)" d="M 43.148125 35.2559 
L 990.558125 35.2559 
" style="fill:none;stroke:#dedede;stroke-linecap:square;"/>
     </g>
     <g id="text_14">
      <!-- 100 -->
      <g transform="translate(20.878125 38.295275)scale(0.08 -0.08)">
       <use xlink:href="#DejaVuSans-49"/>
       <use x="63.623047" xlink:href="#DejaVuSans-48"/>
       <use x="127.246094" xlink:href="#DejaVuSans-48"/>
      </g>
     </g>
    </g>
    <g id="text_15">
     <!-- % duplicate reads -->
     <defs>
      <path d="M 72.703125 32.078125 
Q 68.453125 32.078125 66.03125 28.46875 
Q 63.625 24.859375 63.625 18.40625 
Q 63.625 12.0625 66.03125 8.421875 
Q 68.453125 4.78125 72.703125 4.78125 
Q 76.859375 4.78125 79.265625 8.421875 
Q 81.6875 12.0625 81.6875 18.40625 
Q 81.6875 24.8125 79.265625 28.4375 
Q 76.859375 32.078125 72.703125 32.078125 
z
M 72.703125 38.28125 
Q 80.421875 38.28125 84.953125 32.90625 
Q 89.5 27.546875 89.5 18.40625 
Q 89.5 9.28125 84.9375 3.921875 
Q 80.375 -1.421875 72.703125 -1.421875 
Q 64.890625 -1.421875 60.34375 3.921875 
Q 55.8125 9.28125 55.8125 18.40625 
Q 55.8125 27.59375 60.375 32.9375 
Q 64.9375 38.28125 72.703125 38.28125 
z
M 22.3125 68.015625 
Q 18.109375 68.015625 15.6875 64.375 
Q 13.28125 60.75 13.28125 54.390625 
Q 13.28125 47.953125 15.671875 44.328125 
Q 18.0625 40.71875 22.3125 40.71875 
Q 26.5625 40.71875 28.96875 44.328125 
Q 31.390625 47.953125 31.390625 54.390625 
Q 31.390625 60.6875 28.953125 64.34375 
Q 26.515625 68.015625 22.3125 68.015625 
z
M 66.40625 74.21875 
L 74.21875 74.21875 
L 28.609375 -1.421875 
L 20.796875 -1.421875 
z
M 22.3125 74.21875 
Q 30.03125 74.21875 34.609375 68.875 
Q 39.203125 63.53125 39.203125 54.390625 
Q 39.203125 45.171875 34.640625 39.84375 
Q 30.078125 34.515625 22.3125 34.515625 
Q 14.546875 34.515625 10.03125 39.859375 
Q 5.515625 45.21875 5.515625 54.390625 
Q 5.515625 63.484375 10.046875 68.84375 
Q 14.59375 74.21875 22.3125 74.21875 
z
" id="DejaVuSans-37"/>
      <path d="M 8.5 21.578125 
L 8.5 54.6875 
L 17.484375 54.6875 
L 17.484375 21.921875 
Q 17.484375 14.15625 20.5 10.265625 
Q 23.53125 6.390625 29.59375 6.390625 
Q 36.859375 6.390625 41.078125 11.03125 
Q 45.3125 15.671875 45.3125 23.6875 
L 45.3125 54.6875 
L 54.296875 54.6875 
L 54.296875 0 
L 45.3125 0 
L 45.3125 8.40625 
Q 42.046875 3.421875 37.71875 1 
Q 33.40625 -1.421875 27.6875 -1.421875 
Q 18.265625 -1.421875 13.375 4.4375 
Q 8.5 10.296875 8.5 21.578125 
z
M 31.109375 56 
z
" id="DejaVuSans-117"/>
      <path d="M 9.421875 75.984375 
L 18.40625 75.984375 
L 18.40625 0 
L 9.421875 0 
z
" id="DejaVuSans-108"/>
      <path d="M 48.78125 52.59375 
L 48.78125 44.1875 
Q 44.96875 46.296875 41.140625 47.34375 
Q 37.3125 48.390625 33.40625 48.390625 
Q 24.65625 48.390625 19.8125 42.84375 
Q 14.984375 37.3125 14.984375 27.296875 
Q 14.984375 17.28125 19.8125 11.734375 
Q 24.65625 6.203125 33.40625 6.203125 
Q 37.3125 6.203125 41.140625 7.25 
Q 44.96875 8.296875 48.78125 10.40625 
L 48.78125 2.09375 
Q 45.015625 0.34375 40.984375 -0.53125 
Q 36.96875 -1.421875 32.421875 -1.421875 
Q 20.0625 -1.421875 12.78125 6.34375 
Q 5.515625 14.109375 5.515625 27.296875 
Q 5.515625 40.671875 12.859375 48.328125 
Q 20.21875 56 33.015625 56 
Q 37.15625 56 41.109375 55.140625 
Q 45.0625 54.296875 48.78125 52.59375 
z
" id="DejaVuSans-99"/>
      <path d="M 18.3125 70.21875 
L 18.3125 54.6875 
L 36.8125 54.6875 
L 36.8125 47.703125 
L 18.3125 47.703125 
L 18.3125 18.015625 
Q 18.3125 11.328125 20.140625 9.421875 
Q 21.96875 7.515625 27.59375 7.515625 
L 36.8125 7.515625 
L 36.8125 0 
L 27.59375 0 
Q 17.1875 0 13.234375 3.875 
Q 9.28125 7.765625 9.28125 18.015625 
L 9.28125 47.703125 
L 2.6875 47.703125 
L 2.6875 54.6875 
L 9.28125 54.6875 
L 9.28125 70.21875 
z
" id="DejaVuSans-116"/>
     </defs>
     <g transform="translate(14.798438 239.287556)rotate(-90)scale(0.1 -0.1)">
      <use xlink:href="#DejaVuSans-37"/>
      <use x="95.019531" xlink:href="#DejaVuSans-32"/>
      <use x="126.806641" xlink:href="#DejaVuSans-100"/>
      <use x="190.283203" xlink:href="#DejaVuSans-117"/>
      <use x="253.662109" xlink:href="#DejaVuSans-112"/>
      <use x="317.138672" xlink:href="#DejaVuSans-108"/>
      <use x="344.921875" xlink:href="#DejaVuSans-105"/>
      <use x="372.705078" xlink:href="#DejaVuSans-99"/>
      <use x="427.685547" xlink:href="#DejaVuSans-97"/>
      <use x="488.964844" xlink:href="#DejaVuSans-116"/>
      <use x="528.173828" xlink:href="#DejaVuSans-101"/>
      <use x="589.697266" xlink:href="#DejaVuSans-32"/>
      <use x="621.484375" xlink:href="#DejaVuSans-114"/>
      <use x="662.566406" xlink:href="#DejaVuSans-101"/>
      <use x="724.089844" xlink:href="#DejaVuSans-97"/>
      <use x="785.369141" xlink:href="#DejaVuSans-100"/>
      <use x="848.845703" xlink:href="#DejaVuSans-115"/>
     </g>
    </g>
   </g>
   <g id="line2d_7">
    <path clip-path="url(#p10d51d2154)" d="M 86.212256 299.244648 
L 86.324774 251.990836 
L 86.568758 242.106791 
L 86.935685 235.82416 
L 87.419493 231.187296 
L 88.020082 227.48294 
L 88.747027 224.352782 
L 89.593441 221.66495 
L 90.615063 219.18767 
L 91.679426 217.146678 
L 92.913875 215.220493 
L 94.088695 213.687752 
L 95.691046 211.926041 
L 96.82697 210.847064 
L 98.555288 209.406626 
L 101.12756 207.595544 
L 103.825749 206.001789 
L 106.508835 204.640877 
L 110.545534 202.897613 
L 112.818072 202.03875 
L 116.82419 200.688635 
L 124.527317 198.526236 
L 133.700144 196.456959 
L 146.94365 194.084509 
L 157.082609 192.595425 
L 168.304259 191.178007 
L 200.370056 188.0004 
L 266.469425 183.607112 
L 266.469425 183.607112 
" style="fill:none;stroke:#7cb5ec;stroke-linecap:square;"/>
   </g>
   <g id="line2d_8">
    <path clip-path="url(#p10d51d2154)" d="M 86.212251 318.542329 
L 86.324863 276.576381 
L 86.571282 266.807331 
L 86.942245 260.454866 
L 87.432074 255.691151 
L 88.048437 251.800514 
L 88.784318 248.533349 
L 89.638127 245.712855 
L 90.625373 243.190645 
L 91.66481 241.062853 
L 92.867093 239.041258 
L 94.357963 236.97416 
L 95.871772 235.218935 
L 97.680094 233.440986 
L 99.10975 232.217643 
L 100.895864 230.861584 
L 104.187748 228.735467 
L 106.567206 227.422297 
L 110.109333 225.720613 
L 113.679685 224.237531 
L 120.264009 221.938286 
L 127.354611 219.904318 
L 141.269443 216.754932 
L 149.742768 215.200676 
L 169.795094 212.211041 
L 191.137569 209.722728 
L 259.796124 204.188854 
L 259.796124 204.188854 
" style="fill:none;stroke:#434348;stroke-linecap:square;"/>
   </g>
   <g id="line2d_9">
    <path clip-path="url(#p10d51d2154)" d="M 86.212276 320.277318 
L 86.325006 280.923864 
L 86.572881 271.409427 
L 86.946472 265.200485 
L 87.440505 260.529327 
L 88.060387 256.717879 
L 88.798966 253.516174 
L 89.677512 250.685358 
L 90.697347 248.153264 
L 91.839504 245.900627 
L 93.115606 243.851062 
L 94.532013 241.963471 
L 96.028489 240.278046 
L 98.437128 238.024565 
L 100.372556 236.504475 
L 102.98919 234.740334 
L 104.963612 233.57691 
L 109.023513 231.516634 
L 112.342455 230.080811 
L 114.62184 229.193686 
L 121.686328 226.827117 
L 129.162176 224.777031 
L 142.373519 221.8842 
L 151.231876 220.296262 
L 165.395079 218.151225 
L 189.671724 215.226295 
L 246.832206 210.384599 
L 246.832206 210.384599 
" style="fill:none;stroke:#90ed7d;stroke-linecap:square;"/>
   </g>
   <g id="line2d_10">
    <path clip-path="url(#p10d51d2154)" d="M 86.212287 300.806706 
L 86.324827 254.490672 
L 86.569479 244.392208 
L 86.934967 237.991353 
L 87.419049 233.233516 
L 88.025974 229.398397 
L 88.75858 226.171245 
L 89.613525 223.395528 
L 90.574082 220.995703 
L 91.612664 218.924961 
L 92.946587 216.775741 
L 94.454857 214.800641 
L 96.054856 213.061508 
L 98.044933 211.251447 
L 100.397759 209.464429 
L 102.88892 207.866905 
L 105.919323 206.215352 
L 108.459933 205.014252 
L 111.950577 203.569019 
L 114.734073 202.549787 
L 120.472511 200.728629 
L 125.722294 199.311075 
L 133.733755 197.474165 
L 148.524493 194.776726 
L 165.963153 192.32013 
L 180.572951 190.645851 
L 204.717369 188.37956 
L 232.697028 186.273213 
L 327.614495 181.321527 
L 327.614495 181.321527 
" style="fill:none;stroke:#f7a35c;stroke-linecap:square;"/>
   </g>
   <g id="line2d_11">
    <path clip-path="url(#p10d51d2154)" d="M 86.21227 321.538276 
L 86.325014 282.138269 
L 86.572919 272.569675 
L 86.945932 266.32043 
L 87.444433 261.57106 
L 88.065018 257.727896 
L 88.8173 254.447654 
L 89.684471 251.63421 
L 90.728657 249.023052 
L 91.8958 246.712364 
L 93.180325 244.642945 
L 94.705224 242.614711 
L 96.362272 240.773003 
L 98.47755 238.801933 
L 100.070596 237.522439 
L 101.774299 236.301918 
L 104.489144 234.600395 
L 106.624594 233.425336 
L 111.230172 231.249978 
L 115.913375 229.403775 
L 121.887353 227.420889 
L 134.332018 224.160177 
L 142.336578 222.47303 
L 155.934307 220.08324 
L 170.365288 218.001197 
L 202.860171 214.367902 
L 394.978217 203.423847 
L 394.978217 203.423847 
" style="fill:none;stroke:#8085e9;stroke-linecap:square;"/>
   </g>
   <g id="line2d_12">
    <path clip-path="url(#p10d51d2154)" d="M 86.212285 303.614389 
L 86.324829 254.106646 
L 86.569701 243.100405 
L 86.936396 236.09838 
L 87.420126 230.910178 
L 88.020537 226.758405 
L 88.73977 223.277189 
L 89.59144 220.234515 
L 90.549001 217.604624 
L 91.621592 215.263992 
L 92.942339 212.941102 
L 94.4272 210.814112 
L 95.702038 209.27124 
L 97.729424 207.195983 
L 99.089581 205.997468 
L 101.64767 204.049232 
L 105.020589 201.920881 
L 108.212418 200.230828 
L 111.758969 198.618115 
L 115.68428 197.074969 
L 119.558448 195.741161 
L 124.994496 194.109908 
L 139.294908 190.719879 
L 150.797029 188.603094 
L 163.506683 186.665967 
L 176.981853 184.934971 
L 198.704754 182.627347 
L 251.329665 178.512753 
L 251.329665 178.512753 
" style="fill:none;stroke:#f15c80;stroke-linecap:square;"/>
   </g>
   <g id="line2d_13">
    <path clip-path="url(#p10d51d2154)" d="M 86.212256 316.724683 
L 86.324588 274.081729 
L 86.571433 264.186681 
L 86.942025 257.791402 
L 87.430269 253.010346 
L 88.046435 249.098034 
L 88.773979 245.84802 
L 89.635674 242.987444 
L 90.636015 240.428986 
L 91.748812 238.167849 
L 92.884746 236.272424 
L 94.482082 234.076646 
L 96.195384 232.136842 
L 97.696109 230.686168 
L 100.190016 228.639641 
L 102.586994 226.982687 
L 104.788572 225.656683 
L 108.335843 223.812218 
L 109.964442 223.060137 
L 112.994396 221.78589 
L 119.052392 219.613355 
L 131.327832 216.210721 
L 142.089849 213.906699 
L 150.548024 212.384026 
L 164.510278 210.256717 
L 188.67945 207.333639 
L 253.456053 201.988882 
L 253.456053 201.988882 
" style="fill:none;stroke:#e4d354;stroke-linecap:square;"/>
   </g>
   <g id="line2d_14">
    <path clip-path="url(#p10d51d2154)" d="M 86.212256 300.352933 
L 86.324696 251.494767 
L 86.568947 241.180854 
L 86.935106 234.639557 
L 87.417365 229.81099 
L 88.022913 225.914189 
L 88.750711 222.649574 
L 89.58579 219.882037 
L 90.557936 217.404366 
L 91.628587 215.239992 
L 92.903316 213.155417 
L 94.181661 211.42596 
L 95.737688 209.65745 
L 97.355046 208.099199 
L 98.884454 206.819219 
L 101.487358 204.9572 
L 104.410596 203.209174 
L 106.375818 202.184445 
L 110.22173 200.438509 
L 114.194461 198.905863 
L 117.328323 197.842779 
L 121.08404 196.701245 
L 127.672161 194.967276 
L 140.066909 192.346199 
L 155.451398 189.82913 
L 174.837868 187.358512 
L 187.649628 186.008502 
L 208.698853 184.125209 
L 236.40514 182.091735 
L 347.427108 176.59501 
L 347.427108 176.59501 
" style="fill:none;stroke:#2b908f;stroke-linecap:square;"/>
   </g>
   <g id="line2d_15">
    <path clip-path="url(#p10d51d2154)" d="M 86.212277 306.831909 
L 86.324789 259.505083 
L 86.570319 248.904502 
L 86.939205 242.123795 
L 87.428322 237.071531 
L 88.037149 233.018099 
L 88.759964 229.644961 
L 89.614405 226.693708 
L 90.591548 224.097973 
L 91.58908 221.975898 
L 92.849542 219.787384 
L 94.297488 217.727675 
L 95.765994 215.979366 
L 97.444869 214.278338 
L 99.51929 212.492633 
L 101.555966 210.988403 
L 103.517144 209.715535 
L 105.929013 208.332501 
L 109.595323 206.521596 
L 112.531067 205.263817 
L 115.08823 204.27673 
L 122.768655 201.762768 
L 132.724027 199.191589 
L 147.604112 196.225243 
L 161.695565 194.015975 
L 168.191956 193.133245 
L 180.500667 191.637766 
L 218.89626 187.988179 
L 366.303972 180.034306 
L 366.303972 180.034306 
" style="fill:none;stroke:#f45b5b;stroke-linecap:square;"/>
   </g>
   <g id="line2d_16">
    <path clip-path="url(#p10d51d2154)" d="M 86.212251 306.848077 
L 86.324707 259.039384 
L 86.569932 248.638904 
L 86.93866 241.988597 
L 87.426881 237.04292 
L 88.029412 233.103273 
L 88.765708 229.736134 
L 89.594562 226.92789 
L 90.56733 224.384234 
L 91.723482 222.000515 
L 92.926137 219.992049 
L 94.356558 218.0186 
L 95.982262 216.152102 
L 97.501621 214.665292 
L 99.415283 213.050522 
L 102.266045 211.028953 
L 104.087676 209.915142 
L 107.602752 208.051396 
L 110.593743 206.690203 
L 114.20364 205.252186 
L 116.243095 204.519012 
L 127.844459 201.108411 
L 137.224478 198.983452 
L 155.539211 195.772317 
L 169.912996 193.799283 
L 182.955652 192.282877 
L 210.523184 189.658452 
L 302.85634 183.855073 
L 302.85634 183.855073 
" style="fill:none;stroke:#91e8e1;stroke-linecap:square;"/>
   </g>
   <g id="line2d_17">
    <path clip-path="url(#p10d51d2154)" d="M 86.212251 318.352684 
L 86.324797 273.823374 
L 86.57221 263.360444 
L 86.943037 256.59113 
L 87.429166 251.542243 
L 88.038243 247.426408 
L 88.78161 243.898701 
L 89.603278 240.99193 
L 90.567171 238.341424 
L 91.719686 235.829423 
L 92.977981 233.609375 
L 94.600953 231.271989 
L 96.267297 229.289043 
L 97.693528 227.830043 
L 99.646368 226.094574 
L 101.626329 224.569074 
L 104.736763 222.520462 
L 108.450555 220.47436 
L 113.645389 218.112478 
L 120.787736 215.496676 
L 131.021939 212.551713 
L 137.749923 210.95738 
L 145.590884 209.339829 
L 164.144495 206.225645 
L 213.645322 200.571597 
L 213.645322 200.571597 
" style="fill:none;stroke:#7cb5ec;stroke-linecap:square;"/>
   </g>
   <g id="line2d_18">
    <path clip-path="url(#p10d51d2154)" d="M 86.212268 292.032375 
L 86.324591 236.911444 
L 86.567256 225.530415 
L 86.931239 218.369459 
L 87.411148 213.115332 
L 88.012376 208.907865 
L 88.703293 205.529845 
L 89.547856 202.484962 
L 90.467649 199.940288 
L 91.45942 197.748824 
L 92.718684 195.497367 
L 94.175803 193.381693 
L 95.869171 191.363484 
L 97.96178 189.311274 
L 99.489607 188.032983 
L 101.251216 186.731073 
L 103.712623 185.14846 
L 107.463504 183.123574 
L 111.134469 181.464744 
L 114.354991 180.201433 
L 117.455219 179.116516 
L 123.699288 177.228452 
L 134.3414 174.646904 
L 148.983667 171.914454 
L 157.784597 170.5695 
L 173.740589 168.513333 
L 200.045164 165.842023 
L 247.831328 162.304604 
L 947.494034 145.922666 
L 947.494034 145.922666 
" style="fill:none;stroke:#434348;stroke-linecap:square;"/>
   </g>
   <g id="line2d_19">
    <path clip-path="url(#p10d51d2154)" d="M 86.212281 320.844533 
L 86.324927 280.6174 
L 86.573209 270.74364 
L 86.945138 264.324137 
L 87.439964 259.459549 
L 88.059326 255.50035 
L 88.80384 252.148083 
L 89.699828 249.159036 
L 90.6597 246.678261 
L 91.837759 244.252998 
L 93.086597 242.163075 
L 94.471894 240.233185 
L 96.311718 238.102062 
L 98.406601 236.08895 
L 100.401717 234.460049 
L 104.060688 231.976685 
L 107.284092 230.167212 
L 109.892036 228.88954 
L 114.991115 226.743659 
L 119.893862 225.003607 
L 126.145084 223.111812 
L 139.9792 219.786343 
L 152.309528 217.464358 
L 166.648024 215.24693 
L 177.482376 213.81526 
L 223.133122 209.199491 
L 291.911951 204.541683 
L 291.911951 204.541683 
" style="fill:none;stroke:#90ed7d;stroke-linecap:square;"/>
   </g>
   <g id="line2d_20">
    <path clip-path="url(#p10d51d2154)" d="M 86.212276 319.57628 
L 86.325038 278.992232 
L 86.572772 269.200125 
L 86.946083 262.815821 
L 87.44239 257.99577 
L 88.048397 254.159066 
L 88.785046 250.863203 
L 89.635939 248.027001 
L 90.595815 245.542078 
L 91.654544 243.343613 
L 93.011005 241.060267 
L 94.441011 239.084541 
L 96.211872 237.051604 
L 97.999544 235.324267 
L 99.696345 233.904058 
L 101.770441 232.385719 
L 104.113697 230.889697 
L 106.951403 229.31326 
L 109.801019 227.927911 
L 114.304671 226.039225 
L 118.844262 224.412568 
L 125.220723 222.465779 
L 136.614623 219.655477 
L 150.251134 217.01464 
L 161.665958 215.198092 
L 179.748966 212.810514 
L 224.532697 208.441542 
L 415.433469 198.689654 
L 415.433469 198.689654 
" style="fill:none;stroke:#f7a35c;stroke-linecap:square;"/>
   </g>
   <g id="line2d_21">
    <path clip-path="url(#p10d51d2154)" d="M 86.212256 316.141261 
L 86.324718 272.842338 
L 86.571342 262.83437 
L 86.943072 256.348758 
L 87.433287 251.504706 
L 88.028685 247.669838 
L 88.773377 244.294712 
L 89.618765 241.453809 
L 90.585294 238.938645 
L 91.742025 236.552962 
L 92.980675 234.481702 
L 94.23284 232.730847 
L 95.732613 230.952564 
L 97.891614 228.819542 
L 100.039561 227.04776 
L 102.623466 225.241027 
L 104.730287 223.962226 
L 107.91662 222.275153 
L 111.272676 220.741731 
L 114.57268 219.418293 
L 120.080577 217.513269 
L 127.205863 215.456235 
L 135.943715 213.367191 
L 144.709593 211.606762 
L 159.53402 209.150297 
L 169.827988 207.718178 
L 218.412346 202.70881 
L 279.289883 198.553506 
L 279.289883 198.553506 
" style="fill:none;stroke:#8085e9;stroke-linecap:square;"/>
   </g>
   <g id="line2d_22">
    <path clip-path="url(#p10d51d2154)" d="M 86.212256 300.355674 
L 86.324465 249.114734 
L 86.568487 238.250823 
L 86.933773 231.375868 
L 87.416734 226.288056 
L 88.019688 222.208536 
L 88.734561 218.829689 
L 89.573984 215.898515 
L 90.526702 213.340359 
L 91.609603 211.035784 
L 92.85963 208.885537 
L 94.24472 206.927151 
L 95.795762 205.096834 
L 97.533782 203.366374 
L 99.39725 201.782363 
L 101.595265 200.177997 
L 103.595733 198.904976 
L 106.64496 197.221217 
L 109.976578 195.646944 
L 113.248637 194.302257 
L 116.313607 193.182833 
L 120.948775 191.690039 
L 125.994102 190.276895 
L 136.892693 187.755621 
L 149.728749 185.407715 
L 168.717115 182.6924 
L 178.271132 181.556823 
L 191.456329 180.171362 
L 264.312891 174.749067 
L 264.312891 174.749067 
" style="fill:none;stroke:#f15c80;stroke-linecap:square;"/>
   </g>
   <g id="line2d_23">
    <path clip-path="url(#p10d51d2154)" d="M 86.212268 283.017535 
L 86.324711 225.445904 
L 86.566102 214.040963 
L 86.927259 206.927424 
L 87.406866 201.701934 
L 88.001159 197.579084 
L 88.707116 194.179035 
L 89.550384 191.202589 
L 90.510209 188.620796 
L 91.615403 186.285518 
L 92.803385 184.26014 
L 94.212724 182.288503 
L 95.731963 180.522578 
L 97.547802 178.752809 
L 99.273578 177.319049 
L 101.335596 175.838921 
L 104.370625 173.99672 
L 106.630078 172.818307 
L 110.361725 171.135875 
L 113.719383 169.83464 
L 118.575616 168.21427 
L 123.34541 166.848352 
L 130.681693 165.063448 
L 138.011045 163.55895 
L 156.665933 160.543248 
L 177.474613 158.025472 
L 189.137841 156.861751 
L 204.675809 155.506667 
L 242.824696 152.833888 
L 435.681466 145.292528 
L 435.681466 145.292528 
" style="fill:none;stroke:#e4d354;stroke-linecap:square;"/>
   </g>
   <g id="line2d_24">
    <path clip-path="url(#p10d51d2154)" d="M 86.212281 314.535638 
L 86.324766 270.829477 
L 86.571495 260.547705 
L 86.9433 253.893703 
L 87.429991 248.957251 
L 88.048203 244.895729 
L 88.793271 241.468953 
L 89.645458 238.560896 
L 90.635174 235.951716 
L 91.760183 233.596669 
L 93.051937 231.404976 
L 94.641871 229.201476 
L 96.277158 227.321072 
L 98.207282 225.450875 
L 100.130257 223.858712 
L 101.396185 222.923656 
L 104.624496 220.84579 
L 107.258251 219.399198 
L 111.652798 217.340041 
L 116.535744 215.426401 
L 122.318491 213.51783 
L 131.07395 211.135874 
L 144.721439 208.211688 
L 162.842371 205.231406 
L 172.423918 203.927453 
L 187.658491 202.124349 
L 251.446948 196.708378 
L 251.446948 196.708378 
" style="fill:none;stroke:#2b908f;stroke-linecap:square;"/>
   </g>
   <g id="line2d_25">
    <path clip-path="url(#p10d51d2154)" d="M 86.212245 308.94186 
L 86.324679 261.106826 
L 86.569955 250.643275 
L 86.938604 243.940178 
L 87.427496 238.94141 
L 88.027596 234.974869 
L 88.75219 231.612776 
L 89.600708 228.698805 
L 90.532253 226.224224 
L 91.649844 223.865032 
L 92.981768 221.60584 
L 94.373111 219.669314 
L 95.963839 217.817121 
L 98.011245 215.827611 
L 100.139072 214.091154 
L 102.75296 212.284606 
L 104.985444 210.951857 
L 108.025094 209.369044 
L 111.773536 207.693173 
L 116.705222 205.825267 
L 120.21851 204.669019 
L 127.658563 202.568407 
L 132.551826 201.382245 
L 148.372108 198.25692 
L 163.097461 195.992575 
L 178.33322 194.06648 
L 193.207312 192.471828 
L 223.539004 189.813813 
L 298.90931 185.161272 
L 298.90931 185.161272 
" style="fill:none;stroke:#f45b5b;stroke-linecap:square;"/>
   </g>
   <g id="line2d_26">
    <path clip-path="url(#p10d51d2154)" d="M 86.212251 310.738164 
L 86.324776 264.912937 
L 86.570633 254.732402 
L 86.939055 248.208971 
L 87.426544 243.339019 
L 88.032369 239.424767 
L 88.763089 236.114052 
L 89.604111 233.288035 
L 90.55489 230.815877 
L 91.63363 228.580107 
L 92.969173 226.346781 
L 94.304372 224.508097 
L 95.581852 223.007239 
L 97.482547 221.108512 
L 99.388522 219.496074 
L 100.692411 218.519666 
L 103.223854 216.848213 
L 107.179979 214.671504 
L 111.454373 212.733486 
L 116.679328 210.762572 
L 126.826459 207.741227 
L 134.730556 205.867218 
L 158.467014 201.659115 
L 167.150695 200.457768 
L 181.314283 198.749557 
L 216.486207 195.413471 
L 331.440597 188.707538 
L 331.440597 188.707538 
" style="fill:none;stroke:#91e8e1;stroke-linecap:square;"/>
   </g>
   <g id="line2d_27">
    <path clip-path="url(#p10d51d2154)" d="M 86.212251 314.935402 
L 86.324614 271.983986 
L 86.57071 262.220526 
L 86.941415 255.907195 
L 87.434972 251.160251 
L 88.04585 247.355347 
L 88.778151 244.146843 
L 89.634935 241.359272 
L 90.636061 238.849735 
L 91.807244 236.531092 
L 93.02608 234.570386 
L 94.344969 232.79879 
L 95.765994 231.177513 
L 97.708322 229.3042 
L 99.708792 227.671991 
L 101.124877 226.653115 
L 104.080616 224.799543 
L 106.927694 223.277534 
L 110.4755 221.644047 
L 115.559773 219.670322 
L 122.653008 217.41463 
L 130.58671 215.353818 
L 149.373636 211.642662 
L 158.376891 210.236586 
L 170.672582 208.573239 
L 198.830585 205.523431 
L 253.171123 201.33671 
L 253.171123 201.33671 
" style="fill:none;stroke:#7cb5ec;stroke-linecap:square;"/>
   </g>
   <g id="line2d_28">
    <path clip-path="url(#p10d51d2154)" d="M 86.212251 318.153556 
L 86.324753 275.633616 
L 86.57189 265.723982 
L 86.944224 259.289035 
L 87.437266 254.457891 
L 88.052533 250.544995 
L 88.788898 247.248555 
L 89.661558 244.349468 
L 90.660819 241.790184 
L 91.803557 239.466833 
L 93.167213 237.229238 
L 94.650061 235.232204 
L 96.332731 233.340512 
L 98.473259 231.33168 
L 100.35704 229.827038 
L 102.284564 228.476389 
L 105.922711 226.308352 
L 109.531219 224.512678 
L 114.317317 222.509292 
L 116.485486 221.709163 
L 125.193862 218.9765 
L 131.163231 217.429743 
L 146.317615 214.262225 
L 159.045407 212.159053 
L 173.241475 210.203465 
L 202.625851 206.998497 
L 257.4649 202.730227 
L 257.4649 202.730227 
" style="fill:none;stroke:#434348;stroke-linecap:square;"/>
   </g>
   <g id="line2d_29">
    <path clip-path="url(#p10d51d2154)" d="M 86.212276 315.026778 
L 86.324617 273.812542 
L 86.57071 264.204133 
L 86.942148 257.972957 
L 87.433269 253.31158 
L 88.044129 249.550852 
L 88.777336 246.375132 
L 89.628076 243.635797 
L 90.583925 241.249735 
L 91.720348 238.993776 
L 93.036333 236.884501 
L 94.530367 234.920806 
L 96.295759 232.998958 
L 98.111299 231.336081 
L 100.455807 229.519913 
L 102.561096 228.121198 
L 105.552318 226.408933 
L 108.164823 225.11252 
L 112.589935 223.226074 
L 118.199567 221.236131 
L 126.68758 218.795454 
L 138.551386 216.11618 
L 145.55476 214.802512 
L 164.432523 211.90342 
L 188.174005 209.109938 
L 233.066811 205.250099 
L 233.066811 205.250099 
" style="fill:none;stroke:#90ed7d;stroke-linecap:square;"/>
   </g>
   <g id="line2d_30">
    <path clip-path="url(#p10d51d2154)" d="M 86.212268 315.987882 
L 86.32474 274.133615 
L 86.570696 264.38931 
L 86.941346 258.066611 
L 87.433565 253.314398 
L 88.048461 249.468502 
L 88.784218 246.233633 
L 89.65205 243.403068 
L 90.652655 240.888388 
L 91.659914 238.856248 
L 92.931398 236.754512 
L 94.424045 234.729491 
L 96.228132 232.710814 
L 97.641546 231.361639 
L 100.089367 229.367991 
L 102.441934 227.75064 
L 105.206373 226.118851 
L 108.952702 224.242663 
L 114.398923 221.993598 
L 119.612265 220.20769 
L 135.020889 216.191819 
L 148.202958 213.645809 
L 156.232659 212.344715 
L 178.212555 209.419786 
L 200.437485 207.094033 
L 261.67147 202.464969 
L 261.67147 202.464969 
" style="fill:none;stroke:#f7a35c;stroke-linecap:square;"/>
   </g>
   <g id="line2d_31">
    <path clip-path="url(#p10d51d2154)" d="M 86.212285 312.637374 
L 86.324939 269.108161 
L 86.571026 258.996078 
L 86.939173 252.494631 
L 87.432673 247.574158 
L 88.04493 243.629865 
L 88.76253 240.373675 
L 89.635096 237.437608 
L 90.584176 234.971203 
L 91.739409 232.588328 
L 93.078013 230.367842 
L 94.329888 228.642664 
L 95.879572 226.834018 
L 96.756804 225.931525 
L 99.351604 223.636196 
L 101.574018 221.997992 
L 103.808506 220.569362 
L 107.374722 218.621023 
L 109.250556 217.721811 
L 113.525855 215.914904 
L 121.004805 213.336203 
L 131.679545 210.473178 
L 144.654682 207.777383 
L 151.643101 206.561836 
L 168.235021 204.125453 
L 189.176121 201.669502 
L 294.740719 194.029831 
L 294.740719 194.029831 
" style="fill:none;stroke:#8085e9;stroke-linecap:square;"/>
   </g>
   <g id="line2d_32">
    <path clip-path="url(#p10d51d2154)" d="M 86.212256 309.507598 
L 86.32458 263.147633 
L 86.5703 252.844085 
L 86.939108 246.246411 
L 87.426671 241.332468 
L 88.038018 237.356733 
L 88.766306 234.038928 
L 89.609076 231.190953 
L 90.579298 228.660636 
L 91.650657 226.435924 
L 92.944249 224.259476 
L 94.303344 222.37441 
L 95.983812 220.4314 
L 97.768744 218.697202 
L 100.135448 216.76439 
L 102.706785 215.0003 
L 104.530375 213.906122 
L 108.019696 212.082616 
L 112.272514 210.214449 
L 117.135543 208.416123 
L 126.319327 205.676073 
L 134.398865 203.738033 
L 151.236222 200.567661 
L 158.437378 199.455163 
L 176.647504 197.072015 
L 198.759579 194.752357 
L 325.535614 186.756269 
L 325.535614 186.756269 
" style="fill:none;stroke:#f15c80;stroke-linecap:square;"/>
   </g>
   <g id="line2d_33">
    <path clip-path="url(#p10d51d2154)" d="M 86.212262 316.222329 
L 86.3246 275.193115 
L 86.571465 265.683687 
L 86.942366 259.537547 
L 87.436509 254.903442 
L 88.047983 251.184401 
L 88.777619 248.056896 
L 89.627987 245.343378 
L 90.655116 242.821836 
L 91.691955 240.79049 
L 93.008173 238.688253 
L 94.573966 236.647379 
L 96.318654 234.768778 
L 97.593035 233.585277 
L 99.5063 232.029674 
L 102.133182 230.214873 
L 104.932267 228.576366 
L 108.68352 226.719378 
L 113.216943 224.841532 
L 117.626957 223.28915 
L 124.612867 221.219601 
L 137.757024 218.168652 
L 150.522742 215.863308 
L 165.571434 213.664043 
L 186.309168 211.227018 
L 232.767356 207.207697 
L 232.767356 207.207697 
" style="fill:none;stroke:#e4d354;stroke-linecap:square;"/>
   </g>
   <g id="line2d_34">
    <path clip-path="url(#p10d51d2154)" d="M 86.212262 313.656237 
L 86.324734 269.391663 
L 86.57107 259.247019 
L 86.941582 252.702748 
L 87.435116 247.783234 
L 88.044913 243.848954 
L 88.782187 240.508178 
L 89.642968 237.617767 
L 90.593741 235.145697 
L 91.663486 232.919949 
L 92.794502 230.985943 
L 94.244924 228.930594 
L 95.741446 227.157515 
L 97.63317 225.268744 
L 99.425177 223.74188 
L 102.495587 221.543152 
L 105.552955 219.724319 
L 107.172922 218.871697 
L 112.326342 216.534252 
L 114.230914 215.783591 
L 122.722689 212.952186 
L 132.371227 210.433997 
L 138.306606 209.131669 
L 153.599381 206.353987 
L 164.888716 204.678802 
L 184.372822 202.281846 
L 362.290396 191.048578 
L 362.290396 191.048578 
" style="fill:none;stroke:#2b908f;stroke-linecap:square;"/>
   </g>
   <g id="line2d_35">
    <path clip-path="url(#p10d51d2154)" d="M 86.212251 323.207175 
L 86.324707 283.341844 
L 86.573335 273.679111 
L 86.946883 267.3739 
L 87.442857 262.601037 
L 88.063422 258.712289 
L 88.819588 255.377048 
L 89.650978 252.634777 
L 90.636635 250.102134 
L 91.70582 247.900853 
L 93.065036 245.628254 
L 94.516592 243.63401 
L 96.063929 241.845843 
L 97.569222 240.347574 
L 99.37625 238.782209 
L 101.534431 237.162895 
L 104.022398 235.548429 
L 106.100524 234.358419 
L 108.899413 232.932361 
L 111.429128 231.782586 
L 118.431663 229.101436 
L 125.82282 226.825465 
L 144.11418 222.605649 
L 154.682205 220.728687 
L 162.205797 219.557577 
L 183.429439 216.779825 
L 240.709774 211.518631 
L 240.709774 211.518631 
" style="fill:none;stroke:#f45b5b;stroke-linecap:square;"/>
   </g>
   <g id="line2d_36">
    <path clip-path="url(#p10d51d2154)" d="M 86.212216 318.838172 
L 86.324646 275.364379 
L 86.571319 265.654257 
L 86.9424 259.362065 
L 87.433081 254.644135 
L 88.052259 250.786743 
L 88.77309 247.621676 
L 89.641728 244.784756 
L 90.648772 242.253853 
L 91.779871 239.998933 
L 92.993185 238.024935 
L 94.513143 235.984565 
L 96.085811 234.222362 
L 97.964167 232.442858 
L 100.344313 230.547241 
L 101.460997 229.762348 
L 104.691806 227.771004 
L 108.317938 225.904362 
L 110.266483 225.021066 
L 114.388407 223.361985 
L 118.845178 221.815733 
L 128.897196 218.974475 
L 141.632801 216.196097 
L 155.659205 213.784251 
L 165.847554 212.316283 
L 186.838506 209.800381 
L 243.925122 204.946987 
L 243.925122 204.946987 
" style="fill:none;stroke:#91e8e1;stroke-linecap:square;"/>
   </g>
   <g id="line2d_37">
    <path clip-path="url(#p10d51d2154)" d="M 86.212256 319.031164 
L 86.324413 279.135244 
L 86.57078 269.792572 
L 86.943734 263.694927 
L 87.437744 259.11666 
L 88.053792 255.409109 
L 88.798879 252.25487 
L 89.614917 249.669966 
L 90.58104 247.284429 
L 91.735205 245.022097 
L 93.129495 242.827934 
L 94.508404 241.041041 
L 96.337859 239.067131 
L 98.304929 237.295834 
L 100.891571 235.348587 
L 103.689691 233.58451 
L 105.251899 232.715058 
L 110.628801 230.175233 
L 119.582686 226.957818 
L 130.956953 223.91143 
L 139.856768 222.015732 
L 151.251791 219.993944 
L 177.039756 216.468487 
L 241.80702 210.740352 
L 241.80702 210.740352 
" style="fill:none;stroke:#7cb5ec;stroke-linecap:square;"/>
   </g>
   <g id="line2d_38">
    <path clip-path="url(#p10d51d2154)" d="M 86.21227 241.16055 
L 86.324461 167.831929 
L 86.560811 155.677338 
L 86.910358 148.446255 
L 87.368835 143.314299 
L 87.943343 139.297277 
L 88.626954 136.040652 
L 89.411424 133.331126 
L 90.30847 130.984108 
L 91.286992 128.976163 
L 92.551197 126.91728 
L 93.986401 125.05207 
L 95.590285 123.358337 
L 97.185037 121.955435 
L 98.878573 120.685584 
L 101.066023 119.289987 
L 104.342377 117.564558 
L 107.667813 116.124808 
L 109.935162 115.273927 
L 112.89061 114.287002 
L 116.407583 113.254949 
L 126.594967 110.868052 
L 138.839537 108.737809 
L 152.425353 106.924883 
L 168.424834 105.245508 
L 199.689895 102.797368 
L 253.393419 99.937738 
L 253.393419 99.937738 
" style="fill:none;stroke:#434348;stroke-linecap:square;"/>
   </g>
   <g id="line2d_39">
    <path clip-path="url(#p10d51d2154)" d="M 86.212256 314.371477 
L 86.324731 273.149265 
L 86.571516 263.799387 
L 86.943192 257.76197 
L 87.433223 253.258772 
L 88.052305 249.577483 
L 88.779842 246.536214 
L 89.660743 243.807247 
L 90.675063 241.394876 
L 91.90109 239.101911 
L 93.273089 237.043638 
L 94.53285 235.469206 
L 96.278304 233.63199 
L 98.260805 231.887241 
L 100.43752 230.266864 
L 103.292994 228.472853 
L 105.944202 227.05132 
L 109.484142 225.418925 
L 114.988165 223.308688 
L 123.719662 220.659663 
L 136.183321 217.774597 
L 142.85714 216.508913 
L 167.001296 212.909086 
L 214.00139 208.231493 
L 403.287862 198.896585 
L 403.287862 198.896585 
" style="fill:none;stroke:#90ed7d;stroke-linecap:square;"/>
   </g>
   <g id="line2d_40">
    <path clip-path="url(#p10d51d2154)" d="M 86.212256 321.472224 
L 86.324811 283.536 
L 86.572745 274.523117 
L 86.947026 268.635061 
L 87.441629 264.20783 
L 88.054098 260.632813 
L 88.782254 257.624014 
L 89.628855 255.008658 
L 90.57125 252.740126 
L 91.780135 250.432521 
L 93.056814 248.464978 
L 94.315847 246.841525 
L 96.279557 244.737116 
L 98.04206 243.159563 
L 100.582489 241.243067 
L 102.594331 239.94369 
L 104.799551 238.684966 
L 108.192844 237.004342 
L 111.947232 235.414379 
L 119.311456 232.858703 
L 130.118263 229.963963 
L 140.082902 227.852627 
L 148.889121 226.28163 
L 182.923853 221.745896 
L 222.730331 218.107419 
L 222.730331 218.107419 
" style="fill:none;stroke:#f7a35c;stroke-linecap:square;"/>
   </g>
   <g id="line2d_41">
    <path clip-path="url(#p10d51d2154)" d="M 86.212256 303.206525 
L 86.32472 254.85231 
L 86.568838 244.504365 
L 86.934391 237.923987 
L 87.421399 233.01052 
L 88.030772 229.062888 
L 88.756382 225.780515 
L 89.610532 222.92781 
L 90.584357 220.428971 
L 91.562543 218.416941 
L 92.853269 216.254518 
L 94.202429 214.397285 
L 95.922458 212.433396 
L 97.6424 210.786351 
L 100.043506 208.856016 
L 102.206384 207.382187 
L 104.126866 206.230316 
L 107.941611 204.266477 
L 110.93795 202.950607 
L 116.351992 200.931415 
L 121.928116 199.198573 
L 136.37903 195.727131 
L 143.67992 194.338315 
L 156.320596 192.306076 
L 177.340681 189.626777 
L 234.791922 184.640123 
L 429.773468 176.138707 
L 429.773468 176.138707 
" style="fill:none;stroke:#8085e9;stroke-linecap:square;"/>
   </g>
   <g id="line2d_42">
    <path clip-path="url(#p10d51d2154)" d="M 86.212256 302.824961 
L 86.324748 254.087637 
L 86.569395 243.660783 
L 86.936873 237.023317 
L 87.422874 232.103431 
L 88.032597 228.137074 
L 88.728833 224.955544 
L 89.569727 222.101805 
L 90.492399 219.683807 
L 91.632641 217.320039 
L 92.850884 215.282569 
L 94.223408 213.387603 
L 95.936507 211.427757 
L 97.730469 209.711141 
L 99.340183 208.382301 
L 101.58272 206.777628 
L 104.48511 205.014702 
L 108.116646 203.164308 
L 112.898966 201.145715 
L 114.792773 200.444354 
L 121.341695 198.332421 
L 127.898055 196.579612 
L 142.343182 193.530914 
L 155.832371 191.324287 
L 172.523198 189.12353 
L 199.851115 186.309603 
L 258.808189 182.044342 
L 258.808189 182.044342 
" style="fill:none;stroke:#f15c80;stroke-linecap:square;"/>
   </g>
   <g id="line2d_43">
    <path clip-path="url(#p10d51d2154)" d="M 86.212281 320.640418 
L 86.324914 284.017377 
L 86.572019 275.195937 
L 86.944827 269.429264 
L 87.438086 265.087022 
L 88.050731 261.572222 
L 88.804422 258.528546 
L 89.639829 256.011194 
L 90.638844 253.673831 
L 91.758672 251.5878 
L 93.088943 249.577856 
L 94.66676 247.627492 
L 96.410993 245.840649 
L 98.72652 243.874723 
L 100.545387 242.561428 
L 103.707055 240.619188 
L 106.35727 239.235542 
L 109.384499 237.854875 
L 114.437525 235.897372 
L 121.8775 233.558057 
L 131.939869 231.053094 
L 139.769087 229.449953 
L 160.848659 226.059114 
L 194.885368 222.183896 
L 384.703094 211.603861 
L 384.703094 211.603861 
" style="fill:none;stroke:#e4d354;stroke-linecap:square;"/>
   </g>
   <g id="line2d_44">
    <path clip-path="url(#p10d51d2154)" d="M 86.212245 321.762809 
L 86.32476 283.467304 
L 86.572745 274.453819 
L 86.946017 268.579867 
L 87.440767 264.149327 
L 88.051308 260.58369 
L 88.792337 257.527429 
L 89.665328 254.851132 
L 90.718312 252.371322 
L 91.765639 250.400945 
L 93.192861 248.221606 
L 94.717931 246.320187 
L 96.632056 244.349503 
L 98.345655 242.85991 
L 101.075954 240.85953 
L 103.939214 239.110023 
L 106.633718 237.696147 
L 110.599431 235.91231 
L 114.477529 234.420301 
L 125.812623 230.983018 
L 134.422934 228.960392 
L 146.932782 226.573569 
L 171.664551 223.010795 
L 212.89815 218.867862 
L 212.89815 218.867862 
" style="fill:none;stroke:#2b908f;stroke-linecap:square;"/>
   </g>
   <g id="line2d_45">
    <path clip-path="url(#p10d51d2154)" d="M 86.21227 324.993871 
L 86.324693 288.840084 
L 86.573884 279.836898 
L 86.950308 273.919144 
L 87.448746 269.444275 
L 88.07384 265.782761 
L 88.809077 262.731702 
L 89.700607 259.973402 
L 90.712404 257.554116 
L 91.857875 255.370171 
L 93.154507 253.35515 
L 94.639319 251.445835 
L 96.474304 249.485553 
L 98.140795 247.975167 
L 100.216337 246.352933 
L 102.000455 245.132256 
L 103.560372 244.168399 
L 106.075164 242.776455 
L 109.479217 241.139521 
L 111.996022 240.070723 
L 120.62196 237.043644 
L 134.733116 233.395054 
L 142.099121 231.881386 
L 150.281872 230.411088 
L 169.949325 227.511652 
L 223.674245 222.083185 
L 223.674245 222.083185 
" style="fill:none;stroke:#f45b5b;stroke-linecap:square;"/>
   </g>
   <g id="line2d_46">
    <path clip-path="url(#p10d51d2154)" d="M 86.212251 311.286369 
L 86.324806 264.452926 
L 86.570577 253.990881 
L 86.94031 247.262485 
L 87.42556 242.276685 
L 88.038295 238.208743 
L 88.770678 234.804924 
L 89.628725 231.853603 
L 90.596289 229.286639 
L 91.785057 226.798476 
L 93.072268 224.629786 
L 94.641066 222.468904 
L 96.326609 220.54707 
L 98.723859 218.294745 
L 101.198214 216.376032 
L 104.39154 214.314858 
L 108.088561 212.333088 
L 110.650957 211.144561 
L 113.762275 209.856544 
L 120.151486 207.609955 
L 131.410148 204.515548 
L 140.658245 202.5004 
L 149.303859 200.903122 
L 160.336918 199.154942 
L 175.348305 197.153069 
L 231.874291 191.818998 
L 231.874291 191.818998 
" style="fill:none;stroke:#91e8e1;stroke-linecap:square;"/>
   </g>
   <g id="line2d_47">
    <path clip-path="url(#p10d51d2154)" d="M 86.21228 306.873281 
L 86.324653 259.903213 
L 86.569852 249.347723 
L 86.936809 242.612892 
L 87.423151 237.589311 
L 88.018015 233.613654 
L 88.726872 230.278724 
L 89.586781 227.288012 
L 90.563697 224.682853 
L 91.567329 222.543615 
L 92.836064 220.340887 
L 94.365688 218.178471 
L 95.922758 216.352422 
L 97.752044 214.543247 
L 100.172647 212.540963 
L 102.176597 211.126979 
L 105.184424 209.303377 
L 110.271649 206.787288 
L 115.741732 204.612291 
L 119.202564 203.434003 
L 131.180518 200.135849 
L 147.097955 196.904107 
L 157.181217 195.268848 
L 169.455113 193.566397 
L 199.221918 190.304504 
L 317.899377 182.662304 
L 317.899377 182.662304 
" style="fill:none;stroke:#7cb5ec;stroke-linecap:square;"/>
   </g>
   <g id="line2d_48">
    <path clip-path="url(#p10d51d2154)" d="M 86.212262 312.750514 
L 86.324669 267.399688 
L 86.571036 257.036961 
L 86.938204 250.407588 
L 87.430243 245.391187 
L 88.029197 241.433732 
L 88.770045 237.997863 
L 89.62307 235.071454 
L 90.591089 232.506829 
L 91.635815 230.293327 
L 92.823276 228.231938 
L 94.208564 226.239813 
L 95.707089 224.432073 
L 97.454655 222.646104 
L 99.034235 221.251136 
L 100.490361 220.106579 
L 103.584513 218.012453 
L 106.644338 216.273984 
L 110.868958 214.253288 
L 114.912592 212.615691 
L 122.944311 209.946641 
L 134.947548 206.87709 
L 145.762568 204.695472 
L 154.843108 203.148173 
L 168.195857 201.207591 
L 215.076762 196.26295 
L 382.248036 187.166026 
L 382.248036 187.166026 
" style="fill:none;stroke:#434348;stroke-linecap:square;"/>
   </g>
   <g id="line2d_49">
    <path clip-path="url(#p10d51d2154)" d="M 86.21227 301.81455 
L 86.324743 252.260226 
L 86.569337 241.520202 
L 86.936545 234.691215 
L 87.424029 229.617044 
L 88.020122 225.618737 
L 88.733073 222.264258 
L 89.55945 219.38251 
L 90.546498 216.741097 
L 91.687591 214.341302 
L 92.789366 212.452067 
L 93.945542 210.779013 
L 95.612156 208.757777 
L 96.737215 207.584751 
L 98.685624 205.819687 
L 101.21963 203.89445 
L 104.053761 202.091123 
L 106.928148 200.532296 
L 110.575314 198.838597 
L 113.419079 197.68494 
L 117.617809 196.18469 
L 132.759556 192.070429 
L 142.357916 190.110821 
L 154.208578 188.110453 
L 179.133775 184.852738 
L 214.672873 181.482749 
L 214.672873 181.482749 
" style="fill:none;stroke:#90ed7d;stroke-linecap:square;"/>
   </g>
   <g id="line2d_50">
    <path clip-path="url(#p10d51d2154)" d="M 86.212216 321.250022 
L 86.324469 280.290569 
L 86.571854 271.000876 
L 86.944107 264.96512 
L 87.441041 260.394941 
L 88.064046 256.68092 
L 88.808041 253.560389 
L 89.644581 250.938382 
L 90.703105 248.381497 
L 91.910986 246.08884 
L 93.187435 244.124346 
L 94.659664 242.247268 
L 96.468091 240.33069 
L 99.032495 238.107501 
L 101.701131 236.209122 
L 104.046936 234.784906 
L 105.564484 233.956967 
L 108.310707 232.60669 
L 113.702739 230.372305 
L 122.856193 227.408038 
L 130.535018 225.432338 
L 138.166595 223.774807 
L 154.665498 220.881754 
L 184.709647 217.036934 
L 681.43352 197.715024 
L 681.43352 197.715024 
" style="fill:none;stroke:#f7a35c;stroke-linecap:square;"/>
   </g>
   <g id="line2d_51">
    <path clip-path="url(#p10d51d2154)" d="M 86.212272 270.50584 
L 86.324554 201.717643 
L 86.563572 188.827766 
L 86.920597 180.923859 
L 87.392991 175.203156 
L 87.973996 170.756638 
L 88.692184 166.986387 
L 89.538111 163.774927 
L 90.378154 161.327931 
L 91.482291 158.790627 
L 92.587694 156.74938 
L 93.764449 154.944485 
L 95.520054 152.732134 
L 97.511522 150.695205 
L 100.016192 148.607867 
L 102.988767 146.590977 
L 106.100524 144.844971 
L 111.01279 142.599439 
L 115.632431 140.877348 
L 121.604943 139.029798 
L 127.167352 137.582491 
L 142.681134 134.435516 
L 185.127985 129.073045 
L 185.127985 129.073045 
" style="fill:none;stroke:#8085e9;stroke-linecap:square;"/>
   </g>
   <g id="line2d_52">
    <path clip-path="url(#p10d51d2154)" d="M 86.212216 264.231951 
L 86.324377 193.44711 
L 86.563109 181.433164 
L 86.918228 174.13004 
L 87.384763 168.882168 
L 87.970984 164.727734 
L 88.657598 161.380644 
L 89.486638 158.440945 
L 90.430809 155.91036 
L 91.47901 153.710555 
L 92.681069 151.687428 
L 94.054674 149.805819 
L 95.758634 147.898367 
L 97.223368 146.522583 
L 99.537457 144.696299 
L 101.415693 143.442184 
L 103.792411 142.068879 
L 107.188239 140.410783 
L 110.992991 138.857842 
L 114.131078 137.754309 
L 117.271563 136.772976 
L 124.49895 134.861673 
L 141.377066 131.572525 
L 153.513152 129.807793 
L 162.652316 128.68759 
L 185.962206 126.371318 
L 224.296221 123.588451 
L 374.418103 117.488566 
L 374.418103 117.488566 
" style="fill:none;stroke:#f15c80;stroke-linecap:square;"/>
   </g>
   <g id="line2d_53">
    <path clip-path="url(#p10d51d2154)" d="M 86.212281 286.19731 
L 86.324788 229.844922 
L 86.566797 218.37308 
L 86.928069 211.20897 
L 87.407935 205.930823 
L 88.004873 201.745477 
L 88.720881 198.263987 
L 89.520707 195.393869 
L 90.441029 192.847789 
L 91.551927 190.428684 
L 92.804897 188.244014 
L 94.170154 186.295241 
L 95.692113 184.485338 
L 97.733651 182.471263 
L 100.005576 180.616031 
L 102.994298 178.598622 
L 104.642485 177.636719 
L 107.749935 176.039648 
L 110.156483 174.956033 
L 115.421282 172.927754 
L 125.204077 169.992473 
L 140.899131 166.576782 
L 147.722214 165.395535 
L 164.669407 162.9612 
L 185.675949 160.602607 
L 235.029974 156.632562 
L 235.029974 156.632562 
" style="fill:none;stroke:#e4d354;stroke-linecap:square;"/>
   </g>
   <g id="line2d_54">
    <path clip-path="url(#p10d51d2154)" d="M 86.21227 313.29626 
L 86.324875 270.380963 
L 86.571013 260.530936 
L 86.941372 254.171031 
L 87.433032 249.401943 
L 88.050148 245.533378 
L 88.777809 242.328098 
L 89.661102 239.44837 
L 90.65561 236.956229 
L 91.69699 234.867738 
L 92.888759 232.903783 
L 94.318398 230.953394 
L 95.634146 229.433305 
L 97.590449 227.517086 
L 99.955508 225.58879 
L 101.824433 224.281395 
L 104.00084 222.938835 
L 106.119916 221.7776 
L 108.738769 220.498954 
L 113.313245 218.579726 
L 119.44861 216.452767 
L 127.532459 214.174757 
L 142.311422 210.961413 
L 151.586573 209.348066 
L 178.635786 205.686027 
L 308.480619 196.359447 
L 308.480619 196.359447 
" style="fill:none;stroke:#2b908f;stroke-linecap:square;"/>
   </g>
   <g id="line2d_55">
    <path clip-path="url(#p10d51d2154)" d="M 86.212251 326.499147 
L 86.324707 290.967715 
L 86.573522 282.224768 
L 86.950284 276.455109 
L 87.451331 272.074451 
L 88.072241 268.527104 
L 88.816813 265.51291 
L 89.706066 262.829741 
L 90.612775 260.687713 
L 91.828411 258.390959 
L 93.096575 256.449029 
L 94.781741 254.335833 
L 96.673086 252.3893 
L 98.861949 250.515928 
L 101.389484 248.702833 
L 103.494565 247.400133 
L 106.261413 245.900818 
L 109.183595 244.518047 
L 114.685244 242.31875 
L 127.679885 238.418976 
L 132.878098 237.181665 
L 141.299072 235.434085 
L 162.625408 231.955766 
L 200.709592 227.604291 
L 200.709592 227.604291 
" style="fill:none;stroke:#f45b5b;stroke-linecap:square;"/>
   </g>
   <g id="line2d_56">
    <path clip-path="url(#p10d51d2154)" d="M 86.21227 326.076434 
L 86.324941 288.738495 
L 86.574607 279.291867 
L 86.947879 273.110918 
L 87.449808 268.356901 
L 88.06666 264.538905 
L 88.816536 261.252806 
L 89.670739 258.453153 
L 90.639295 255.976947 
L 91.613408 253.95626 
L 93.018577 251.57827 
L 94.398047 249.65896 
L 96.194112 247.575214 
L 97.913495 245.890718 
L 99.664003 244.402258 
L 101.854734 242.780298 
L 103.581655 241.647953 
L 106.542824 239.935857 
L 112.403026 237.156833 
L 119.850457 234.382934 
L 124.389681 232.969728 
L 139.308242 229.256907 
L 151.391588 226.928291 
L 212.851164 219.288949 
L 212.851164 219.288949 
" style="fill:none;stroke:#91e8e1;stroke-linecap:square;"/>
   </g>
   <g id="line2d_57">
    <path clip-path="url(#p10d51d2154)" d="M 86.212262 325.229435 
L 86.324826 284.516028 
L 86.573327 274.278668 
L 86.94934 267.523877 
L 87.449335 262.399741 
L 88.075302 258.220044 
L 88.833319 254.652377 
L 89.734352 251.505584 
L 90.756295 248.750232 
L 91.833912 246.419677 
L 93.131502 244.120784 
L 94.56111 242.021607 
L 95.994388 240.236451 
L 97.467275 238.645446 
L 99.005031 237.184235 
L 101.51466 235.127253 
L 103.777034 233.53379 
L 107.303491 231.406406 
L 109.228483 230.385798 
L 111.914054 229.091704 
L 118.409122 226.434806 
L 127.960735 223.347889 
L 138.516886 220.650766 
L 145.767 219.090372 
L 160.637673 216.399662 
L 180.771581 213.494983 
L 357.589103 200.575321 
L 357.589103 200.575321 
" style="fill:none;stroke:#7cb5ec;stroke-linecap:square;"/>
   </g>
   <g id="line2d_58">
    <path clip-path="url(#p10d51d2154)" d="M 86.212256 299.564378 
L 86.324432 248.19912 
L 86.568506 237.347658 
L 86.933207 230.49682 
L 87.415193 225.428558 
L 88.023264 221.329618 
L 88.752013 217.912766 
L 89.558639 215.109247 
L 90.492604 212.595903 
L 91.58358 210.269404 
L 92.851623 208.091304 
L 94.373326 205.965524 
L 96.134568 203.948611 
L 98.149166 202.037798 
L 99.302308 201.083655 
L 101.758245 199.303272 
L 104.269688 197.751647 
L 107.325525 196.131035 
L 111.947812 194.078402 
L 115.17424 192.853778 
L 121.305095 190.863312 
L 133.974546 187.670482 
L 150.113791 184.659933 
L 156.834307 183.627249 
L 185.979624 180.066765 
L 210.094858 177.842778 
L 610.271744 163.232041 
L 610.271744 163.232041 
" style="fill:none;stroke:#434348;stroke-linecap:square;"/>
   </g>
   <g id="line2d_59">
    <path clip-path="url(#p10d51d2154)" d="M 86.212251 315.461775 
L 86.324483 272.815381 
L 86.570486 263.086327 
L 86.94147 256.786676 
L 87.433705 252.062413 
L 88.042439 248.273915 
L 88.778543 245.052402 
L 89.652363 242.221464 
L 90.67092 239.68771 
L 91.897349 237.290592 
L 93.196357 235.24382 
L 94.699816 233.291153 
L 96.604558 231.25003 
L 97.803548 230.143821 
L 100.040095 228.348656 
L 101.874075 227.075901 
L 103.366979 226.14264 
L 107.508979 223.916625 
L 110.763036 222.4465 
L 115.969545 220.450063 
L 126.320456 217.334813 
L 136.762231 214.907427 
L 142.410674 213.792821 
L 160.477761 210.850536 
L 179.206201 208.468336 
L 274.446891 200.961826 
L 274.446891 200.961826 
" style="fill:none;stroke:#90ed7d;stroke-linecap:square;"/>
   </g>
   <g id="line2d_60">
    <path clip-path="url(#p10d51d2154)" d="M 86.212256 304.884219 
L 86.324604 254.670672 
L 86.569528 243.76016 
L 86.937456 236.80688 
L 87.425763 231.635373 
L 88.031243 227.508872 
L 88.754535 224.059692 
L 89.605578 221.061047 
L 90.548063 218.500082 
L 91.676992 216.070237 
L 92.986191 213.805755 
L 94.382864 211.822527 
L 95.961371 209.948753 
L 97.766723 208.142274 
L 99.465923 206.680752 
L 101.465531 205.181691 
L 104.174077 203.435521 
L 107.011472 201.866779 
L 111.124721 199.934647 
L 113.744761 198.863182 
L 118.038093 197.309774 
L 129.736135 193.95255 
L 141.348962 191.416057 
L 149.410672 189.953075 
L 162.524438 187.932902 
L 188.034659 184.847153 
L 252.965424 179.586872 
L 252.965424 179.586872 
" style="fill:none;stroke:#f7a35c;stroke-linecap:square;"/>
   </g>
   <g id="line2d_61">
    <path clip-path="url(#p10d51d2154)" d="M 86.212262 315.02333 
L 86.324686 271.001662 
L 86.571431 260.806023 
L 86.941839 254.229313 
L 87.435918 249.271639 
L 88.046621 245.302762 
L 88.777376 241.960654 
L 89.618595 239.096749 
L 90.562783 236.600592 
L 91.492847 234.607765 
L 92.865406 232.213341 
L 94.265576 230.220094 
L 95.868046 228.315083 
L 97.7131 226.469699 
L 99.555963 224.894039 
L 102.315839 222.892008 
L 105.952381 220.713063 
L 107.425127 219.940541 
L 111.365632 218.106347 
L 115.913452 216.310957 
L 124.319685 213.607984 
L 134.810044 210.959645 
L 148.16529 208.305942 
L 159.651639 206.442178 
L 184.913403 203.194876 
L 287.10835 195.363034 
L 287.10835 195.363034 
" style="fill:none;stroke:#8085e9;stroke-linecap:square;"/>
   </g>
   <g id="line2d_62">
    <path clip-path="url(#p10d51d2154)" d="M 86.212251 318.740184 
L 86.324566 273.046551 
L 86.571822 262.226149 
L 86.943763 255.206073 
L 87.432589 249.965577 
L 88.043286 245.709201 
L 88.782952 242.085108 
L 89.659825 238.905316 
L 90.621453 236.209438 
L 91.636755 233.918216 
L 92.935986 231.525559 
L 94.441811 229.25715 
L 96.155629 227.120009 
L 98.14044 225.052148 
L 99.95879 223.432482 
L 100.97089 222.619119 
L 103.183853 221.015082 
L 106.036728 219.224619 
L 108.097561 218.081546 
L 112.068198 216.148865 
L 116.486878 214.313888 
L 125.108477 211.388356 
L 135.479099 208.618143 
L 144.283663 206.685708 
L 154.361289 204.801403 
L 172.923963 201.959397 
L 253.084929 194.216275 
L 253.084929 194.216275 
" style="fill:none;stroke:#f15c80;stroke-linecap:square;"/>
   </g>
   <g id="line2d_63">
    <path clip-path="url(#p10d51d2154)" d="M 86.212251 308.732619 
L 86.324579 261.326741 
L 86.569856 250.893357 
L 86.937545 244.223691 
L 87.428033 239.222637 
L 88.020136 235.313684 
L 88.753579 231.915539 
L 89.558683 229.142119 
L 90.497671 226.630437 
L 91.64164 224.211648 
L 92.984384 221.939421 
L 94.530869 219.814038 
L 96.215087 217.900798 
L 98.469191 215.783806 
L 101.113406 213.741494 
L 103.329236 212.288099 
L 105.628862 210.963868 
L 108.870001 209.339003 
L 112.906846 207.609751 
L 118.193337 205.700427 
L 133.273788 201.607718 
L 139.242323 200.340484 
L 149.474585 198.466633 
L 166.653607 195.913301 
L 324.970804 184.359056 
L 324.970804 184.359056 
" style="fill:none;stroke:#e4d354;stroke-linecap:square;"/>
   </g>
   <g id="line2d_64">
    <path clip-path="url(#p10d51d2154)" d="M 86.212251 316.257974 
L 86.324773 272.761913 
L 86.571562 262.754659 
L 86.941317 256.298958 
L 87.436185 251.411722 
L 88.047983 247.498169 
L 88.781699 244.19549 
L 89.618777 241.388049 
L 90.563334 238.925133 
L 91.737198 236.498726 
L 92.968299 234.438514 
L 94.302523 232.580401 
L 95.644633 230.989111 
L 97.367156 229.24121 
L 98.887319 227.903842 
L 101.229971 226.120826 
L 104.653592 223.950541 
L 106.049971 223.176362 
L 108.860489 221.767409 
L 112.694519 220.098606 
L 117.112438 218.446522 
L 131.206168 214.401115 
L 137.364779 213.013651 
L 151.043583 210.443135 
L 164.423697 208.401765 
L 248.087681 200.449096 
L 248.087681 200.449096 
" style="fill:none;stroke:#2b908f;stroke-linecap:square;"/>
   </g>
   <g id="line2d_65">
    <path clip-path="url(#p10d51d2154)" d="M 86.212256 312.522788 
L 86.324718 269.552527 
L 86.570122 259.911817 
L 86.938188 253.709628 
L 87.429137 249.040609 
L 88.044953 245.260944 
L 88.787403 242.071683 
L 89.663745 239.290683 
L 90.716918 236.735796 
L 91.854035 234.557702 
L 93.279223 232.361876 
L 94.88116 230.356542 
L 96.651959 228.52156 
L 98.176398 227.169851 
L 100.267904 225.565643 
L 103.040418 223.765182 
L 104.788843 222.773228 
L 109.841066 220.349667 
L 114.487987 218.532694 
L 119.115649 216.993641 
L 129.379418 214.226073 
L 136.469885 212.670318 
L 147.744208 210.594376 
L 175.212149 206.794712 
L 236.342309 201.388031 
L 236.342309 201.388031 
" style="fill:none;stroke:#f45b5b;stroke-linecap:square;"/>
   </g>
   <g id="line2d_66">
    <path clip-path="url(#p10d51d2154)" d="M 43.148125 353.2239 
L 990.558125 353.2239 
" style="fill:none;stroke:#dedede;stroke-linecap:square;stroke-width:2;"/>
   </g>
   <g id="text_16">
    <!-- DupRadar General Linear Model -->
    <defs>
     <path d="M 19.671875 64.796875 
L 19.671875 8.109375 
L 31.59375 8.109375 
Q 46.6875 8.109375 53.6875 14.9375 
Q 60.6875 21.78125 60.6875 36.53125 
Q 60.6875 51.171875 53.6875 57.984375 
Q 46.6875 64.796875 31.59375 64.796875 
z
M 9.8125 72.90625 
L 30.078125 72.90625 
Q 51.265625 72.90625 61.171875 64.09375 
Q 71.09375 55.28125 71.09375 36.53125 
Q 71.09375 17.671875 61.125 8.828125 
Q 51.171875 0 30.078125 0 
L 9.8125 0 
z
" id="DejaVuSans-68"/>
     <path d="M 44.390625 34.1875 
Q 47.5625 33.109375 50.5625 29.59375 
Q 53.5625 26.078125 56.59375 19.921875 
L 66.609375 0 
L 56 0 
L 46.6875 18.703125 
Q 43.0625 26.03125 39.671875 28.421875 
Q 36.28125 30.8125 30.421875 30.8125 
L 19.671875 30.8125 
L 19.671875 0 
L 9.8125 0 
L 9.8125 72.90625 
L 32.078125 72.90625 
Q 44.578125 72.90625 50.734375 67.671875 
Q 56.890625 62.453125 56.890625 51.90625 
Q 56.890625 45.015625 53.6875 40.46875 
Q 50.484375 35.9375 44.390625 34.1875 
z
M 19.671875 64.796875 
L 19.671875 38.921875 
L 32.078125 38.921875 
Q 39.203125 38.921875 42.84375 42.21875 
Q 46.484375 45.515625 46.484375 51.90625 
Q 46.484375 58.296875 42.84375 61.546875 
Q 39.203125 64.796875 32.078125 64.796875 
z
" id="DejaVuSans-82"/>
     <path d="M 59.515625 10.40625 
L 59.515625 29.984375 
L 43.40625 29.984375 
L 43.40625 38.09375 
L 69.28125 38.09375 
L 69.28125 6.78125 
Q 63.578125 2.734375 56.6875 0.65625 
Q 49.8125 -1.421875 42 -1.421875 
Q 24.90625 -1.421875 15.25 8.5625 
Q 5.609375 18.5625 5.609375 36.375 
Q 5.609375 54.25 15.25 64.234375 
Q 24.90625 74.21875 42 74.21875 
Q 49.125 74.21875 55.546875 72.453125 
Q 61.96875 70.703125 67.390625 67.28125 
L 67.390625 56.78125 
Q 61.921875 61.421875 55.765625 63.765625 
Q 49.609375 66.109375 42.828125 66.109375 
Q 29.4375 66.109375 22.71875 58.640625 
Q 16.015625 51.171875 16.015625 36.375 
Q 16.015625 21.625 22.71875 14.15625 
Q 29.4375 6.6875 42.828125 6.6875 
Q 48.046875 6.6875 52.140625 7.59375 
Q 56.25 8.5 59.515625 10.40625 
z
" id="DejaVuSans-71"/>
     <path d="M 9.8125 72.90625 
L 19.671875 72.90625 
L 19.671875 8.296875 
L 55.171875 8.296875 
L 55.171875 0 
L 9.8125 0 
z
" id="DejaVuSans-76"/>
     <path d="M 9.8125 72.90625 
L 24.515625 72.90625 
L 43.109375 23.296875 
L 61.8125 72.90625 
L 76.515625 72.90625 
L 76.515625 0 
L 66.890625 0 
L 66.890625 64.015625 
L 48.09375 14.015625 
L 38.1875 14.015625 
L 19.390625 64.015625 
L 19.390625 0 
L 9.8125 0 
z
" id="DejaVuSans-77"/>
    </defs>
    <g transform="translate(388.775625 19.3575)scale(0.16 -0.16)">
     <use xlink:href="#DejaVuSans-68"/>
     <use x="77.001953" xlink:href="#DejaVuSans-117"/>
     <use x="140.380859" xlink:href="#DejaVuSans-112"/>
     <use x="203.857422" xlink:href="#DejaVuSans-82"/>
     <use x="273.308594" xlink:href="#DejaVuSans-97"/>
     <use x="334.587891" xlink:href="#DejaVuSans-100"/>
     <use x="398.064453" xlink:href="#DejaVuSans-97"/>
     <use x="459.34375" xlink:href="#DejaVuSans-114"/>
     <use x="500.457031" xlink:href="#DejaVuSans-32"/>
     <use x="532.244141" xlink:href="#DejaVuSans-71"/>
     <use x="609.734375" xlink:href="#DejaVuSans-101"/>
     <use x="671.257812" xlink:href="#DejaVuSans-110"/>
     <use x="734.636719" xlink:href="#DejaVuSans-101"/>
     <use x="796.160156" xlink:href="#DejaVuSans-114"/>
     <use x="837.273438" xlink:href="#DejaVuSans-97"/>
     <use x="898.552734" xlink:href="#DejaVuSans-108"/>
     <use x="926.335938" xlink:href="#DejaVuSans-32"/>
     <use x="958.123047" xlink:href="#DejaVuSans-76"/>
     <use x="1013.835938" xlink:href="#DejaVuSans-105"/>
     <use x="1041.619141" xlink:href="#DejaVuSans-110"/>
     <use x="1104.998047" xlink:href="#DejaVuSans-101"/>
     <use x="1166.521484" xlink:href="#DejaVuSans-97"/>
     <use x="1227.800781" xlink:href="#DejaVuSans-114"/>
     <use x="1268.914062" xlink:href="#DejaVuSans-32"/>
     <use x="1300.701172" xlink:href="#DejaVuSans-77"/>
     <use x="1386.980469" xlink:href="#DejaVuSans-111"/>
     <use x="1448.162109" xlink:href="#DejaVuSans-100"/>
     <use x="1511.638672" xlink:href="#DejaVuSans-101"/>
     <use x="1573.162109" xlink:href="#DejaVuSans-108"/>
    </g>
   </g>
  </g>
 </g>
 <defs>
  <clipPath id="p10d51d2154">
   <rect height="317.968" width="947.41" x="43.148125" y="35.2559"/>
  </clipPath>
 </defs>
</svg>
