<?xml version="1.0" encoding="utf-8" standalone="no"?>
<!DOCTYPE svg PUBLIC "-//W3C//DTD SVG 1.1//EN"
  "http://www.w3.org/Graphics/SVG/1.1/DTD/svg11.dtd">
<!-- Created with matplotlib (https://matplotlib.org/) -->
<svg height="388.844525pt" version="1.1" viewBox="0 0 1000.098125 388.844525" width="1000.098125pt" xmlns="http://www.w3.org/2000/svg" xmlns:xlink="http://www.w3.org/1999/xlink">
 <defs>
  <style type="text/css">
*{stroke-linecap:butt;stroke-linejoin:round;}
  </style>
 </defs>
 <g id="figure_1">
  <g id="patch_1">
   <path d="M 0 388.844525 
L 1000.098125 388.844525 
L 1000.098125 0 
L 0 0 
z
" style="fill:#ffffff;"/>
  </g>
  <g id="axes_1">
   <g id="patch_2">
    <path d="M 58.418125 353.2239 
L 985.263125 353.2239 
L 985.263125 35.2559 
L 58.418125 35.2559 
z
" style="fill:#ffffff;"/>
   </g>
   <g id="matplotlib.axis_1">
    <g id="xtick_1">
     <g id="text_1">
      <!-- 0 -->
      <defs>
       <path d="M 31.78125 66.40625 
Q 24.171875 66.40625 20.328125 58.90625 
Q 16.5 51.421875 16.5 36.375 
Q 16.5 21.390625 20.328125 13.890625 
Q 24.171875 6.390625 31.78125 6.390625 
Q 39.453125 6.390625 43.28125 13.890625 
Q 47.125 21.390625 47.125 36.375 
Q 47.125 51.421875 43.28125 58.90625 
Q 39.453125 66.40625 31.78125 66.40625 
z
M 31.78125 74.21875 
Q 44.046875 74.21875 50.515625 64.515625 
Q 56.984375 54.828125 56.984375 36.375 
Q 56.984375 17.96875 50.515625 8.265625 
Q 44.046875 -1.421875 31.78125 -1.421875 
Q 19.53125 -1.421875 13.0625 8.265625 
Q 6.59375 17.96875 6.59375 36.375 
Q 6.59375 54.828125 13.0625 64.515625 
Q 19.53125 74.21875 31.78125 74.21875 
z
" id="DejaVuSans-48"/>
      </defs>
      <g transform="translate(55.873125 366.30265)scale(0.08 -0.08)">
       <use xlink:href="#DejaVuSans-48"/>
      </g>
     </g>
    </g>
    <g id="xtick_2">
     <g id="text_2">
      <!-- 20 -->
      <defs>
       <path d="M 19.1875 8.296875 
L 53.609375 8.296875 
L 53.609375 0 
L 7.328125 0 
L 7.328125 8.296875 
Q 12.9375 14.109375 22.625 23.890625 
Q 32.328125 33.6875 34.8125 36.53125 
Q 39.546875 41.84375 41.421875 45.53125 
Q 43.3125 49.21875 43.3125 52.78125 
Q 43.3125 58.59375 39.234375 62.25 
Q 35.15625 65.921875 28.609375 65.921875 
Q 23.96875 65.921875 18.8125 64.3125 
Q 13.671875 62.703125 7.8125 59.421875 
L 7.8125 69.390625 
Q 13.765625 71.78125 18.9375 73 
Q 24.125 74.21875 28.421875 74.21875 
Q 39.75 74.21875 46.484375 68.546875 
Q 53.21875 62.890625 53.21875 53.421875 
Q 53.21875 48.921875 51.53125 44.890625 
Q 49.859375 40.875 45.40625 35.40625 
Q 44.1875 33.984375 37.640625 27.21875 
Q 31.109375 20.453125 19.1875 8.296875 
z
" id="DejaVuSans-50"/>
      </defs>
      <g transform="translate(238.697125 366.30265)scale(0.08 -0.08)">
       <use xlink:href="#DejaVuSans-50"/>
       <use x="63.623047" xlink:href="#DejaVuSans-48"/>
      </g>
     </g>
    </g>
    <g id="xtick_3">
     <g id="text_3">
      <!-- 40 -->
      <defs>
       <path d="M 37.796875 64.3125 
L 12.890625 25.390625 
L 37.796875 25.390625 
z
M 35.203125 72.90625 
L 47.609375 72.90625 
L 47.609375 25.390625 
L 58.015625 25.390625 
L 58.015625 17.1875 
L 47.609375 17.1875 
L 47.609375 0 
L 37.796875 0 
L 37.796875 17.1875 
L 4.890625 17.1875 
L 4.890625 26.703125 
z
" id="DejaVuSans-52"/>
      </defs>
      <g transform="translate(424.066125 366.30265)scale(0.08 -0.08)">
       <use xlink:href="#DejaVuSans-52"/>
       <use x="63.623047" xlink:href="#DejaVuSans-48"/>
      </g>
     </g>
    </g>
    <g id="xtick_4">
     <g id="text_4">
      <!-- 60 -->
      <defs>
       <path d="M 33.015625 40.375 
Q 26.375 40.375 22.484375 35.828125 
Q 18.609375 31.296875 18.609375 23.390625 
Q 18.609375 15.53125 22.484375 10.953125 
Q 26.375 6.390625 33.015625 6.390625 
Q 39.65625 6.390625 43.53125 10.953125 
Q 47.40625 15.53125 47.40625 23.390625 
Q 47.40625 31.296875 43.53125 35.828125 
Q 39.65625 40.375 33.015625 40.375 
z
M 52.59375 71.296875 
L 52.59375 62.3125 
Q 48.875 64.0625 45.09375 64.984375 
Q 41.3125 65.921875 37.59375 65.921875 
Q 27.828125 65.921875 22.671875 59.328125 
Q 17.53125 52.734375 16.796875 39.40625 
Q 19.671875 43.65625 24.015625 45.921875 
Q 28.375 48.1875 33.59375 48.1875 
Q 44.578125 48.1875 50.953125 41.515625 
Q 57.328125 34.859375 57.328125 23.390625 
Q 57.328125 12.15625 50.6875 5.359375 
Q 44.046875 -1.421875 33.015625 -1.421875 
Q 20.359375 -1.421875 13.671875 8.265625 
Q 6.984375 17.96875 6.984375 36.375 
Q 6.984375 53.65625 15.1875 63.9375 
Q 23.390625 74.21875 37.203125 74.21875 
Q 40.921875 74.21875 44.703125 73.484375 
Q 48.484375 72.75 52.59375 71.296875 
z
" id="DejaVuSans-54"/>
      </defs>
      <g transform="translate(609.435125 366.30265)scale(0.08 -0.08)">
       <use xlink:href="#DejaVuSans-54"/>
       <use x="63.623047" xlink:href="#DejaVuSans-48"/>
      </g>
     </g>
    </g>
    <g id="xtick_5">
     <g id="text_5">
      <!-- 80 -->
      <defs>
       <path d="M 31.78125 34.625 
Q 24.75 34.625 20.71875 30.859375 
Q 16.703125 27.09375 16.703125 20.515625 
Q 16.703125 13.921875 20.71875 10.15625 
Q 24.75 6.390625 31.78125 6.390625 
Q 38.8125 6.390625 42.859375 10.171875 
Q 46.921875 13.96875 46.921875 20.515625 
Q 46.921875 27.09375 42.890625 30.859375 
Q 38.875 34.625 31.78125 34.625 
z
M 21.921875 38.8125 
Q 15.578125 40.375 12.03125 44.71875 
Q 8.5 49.078125 8.5 55.328125 
Q 8.5 64.0625 14.71875 69.140625 
Q 20.953125 74.21875 31.78125 74.21875 
Q 42.671875 74.21875 48.875 69.140625 
Q 55.078125 64.0625 55.078125 55.328125 
Q 55.078125 49.078125 51.53125 44.71875 
Q 48 40.375 41.703125 38.8125 
Q 48.828125 37.15625 52.796875 32.3125 
Q 56.78125 27.484375 56.78125 20.515625 
Q 56.78125 9.90625 50.3125 4.234375 
Q 43.84375 -1.421875 31.78125 -1.421875 
Q 19.734375 -1.421875 13.25 4.234375 
Q 6.78125 9.90625 6.78125 20.515625 
Q 6.78125 27.484375 10.78125 32.3125 
Q 14.796875 37.15625 21.921875 38.8125 
z
M 18.3125 54.390625 
Q 18.3125 48.734375 21.84375 45.5625 
Q 25.390625 42.390625 31.78125 42.390625 
Q 38.140625 42.390625 41.71875 45.5625 
Q 45.3125 48.734375 45.3125 54.390625 
Q 45.3125 60.0625 41.71875 63.234375 
Q 38.140625 66.40625 31.78125 66.40625 
Q 25.390625 66.40625 21.84375 63.234375 
Q 18.3125 60.0625 18.3125 54.390625 
z
" id="DejaVuSans-56"/>
      </defs>
      <g transform="translate(794.804125 366.30265)scale(0.08 -0.08)">
       <use xlink:href="#DejaVuSans-56"/>
       <use x="63.623047" xlink:href="#DejaVuSans-48"/>
      </g>
     </g>
    </g>
    <g id="xtick_6">
     <g id="text_6">
      <!-- 100 -->
      <defs>
       <path d="M 12.40625 8.296875 
L 28.515625 8.296875 
L 28.515625 63.921875 
L 10.984375 60.40625 
L 10.984375 69.390625 
L 28.421875 72.90625 
L 38.28125 72.90625 
L 38.28125 8.296875 
L 54.390625 8.296875 
L 54.390625 0 
L 12.40625 0 
z
" id="DejaVuSans-49"/>
      </defs>
      <g transform="translate(977.628125 366.30265)scale(0.08 -0.08)">
       <use xlink:href="#DejaVuSans-49"/>
       <use x="63.623047" xlink:href="#DejaVuSans-48"/>
       <use x="127.246094" xlink:href="#DejaVuSans-48"/>
      </g>
     </g>
    </g>
    <g id="text_7">
     <!-- Percent of reads -->
     <defs>
      <path d="M 19.671875 64.796875 
L 19.671875 37.40625 
L 32.078125 37.40625 
Q 38.96875 37.40625 42.71875 40.96875 
Q 46.484375 44.53125 46.484375 51.125 
Q 46.484375 57.671875 42.71875 61.234375 
Q 38.96875 64.796875 32.078125 64.796875 
z
M 9.8125 72.90625 
L 32.078125 72.90625 
Q 44.34375 72.90625 50.609375 67.359375 
Q 56.890625 61.8125 56.890625 51.125 
Q 56.890625 40.328125 50.609375 34.8125 
Q 44.34375 29.296875 32.078125 29.296875 
L 19.671875 29.296875 
L 19.671875 0 
L 9.8125 0 
z
" id="DejaVuSans-80"/>
      <path d="M 56.203125 29.59375 
L 56.203125 25.203125 
L 14.890625 25.203125 
Q 15.484375 15.921875 20.484375 11.0625 
Q 25.484375 6.203125 34.421875 6.203125 
Q 39.59375 6.203125 44.453125 7.46875 
Q 49.3125 8.734375 54.109375 11.28125 
L 54.109375 2.78125 
Q 49.265625 0.734375 44.1875 -0.34375 
Q 39.109375 -1.421875 33.890625 -1.421875 
Q 20.796875 -1.421875 13.15625 6.1875 
Q 5.515625 13.8125 5.515625 26.8125 
Q 5.515625 40.234375 12.765625 48.109375 
Q 20.015625 56 32.328125 56 
Q 43.359375 56 49.78125 48.890625 
Q 56.203125 41.796875 56.203125 29.59375 
z
M 47.21875 32.234375 
Q 47.125 39.59375 43.09375 43.984375 
Q 39.0625 48.390625 32.421875 48.390625 
Q 24.90625 48.390625 20.390625 44.140625 
Q 15.875 39.890625 15.1875 32.171875 
z
" id="DejaVuSans-101"/>
      <path d="M 41.109375 46.296875 
Q 39.59375 47.171875 37.8125 47.578125 
Q 36.03125 48 33.890625 48 
Q 26.265625 48 22.1875 43.046875 
Q 18.109375 38.09375 18.109375 28.8125 
L 18.109375 0 
L 9.078125 0 
L 9.078125 54.6875 
L 18.109375 54.6875 
L 18.109375 46.1875 
Q 20.953125 51.171875 25.484375 53.578125 
Q 30.03125 56 36.53125 56 
Q 37.453125 56 38.578125 55.875 
Q 39.703125 55.765625 41.0625 55.515625 
z
" id="DejaVuSans-114"/>
      <path d="M 48.78125 52.59375 
L 48.78125 44.1875 
Q 44.96875 46.296875 41.140625 47.34375 
Q 37.3125 48.390625 33.40625 48.390625 
Q 24.65625 48.390625 19.8125 42.84375 
Q 14.984375 37.3125 14.984375 27.296875 
Q 14.984375 17.28125 19.8125 11.734375 
Q 24.65625 6.203125 33.40625 6.203125 
Q 37.3125 6.203125 41.140625 7.25 
Q 44.96875 8.296875 48.78125 10.40625 
L 48.78125 2.09375 
Q 45.015625 0.34375 40.984375 -0.53125 
Q 36.96875 -1.421875 32.421875 -1.421875 
Q 20.0625 -1.421875 12.78125 6.34375 
Q 5.515625 14.109375 5.515625 27.296875 
Q 5.515625 40.671875 12.859375 48.328125 
Q 20.21875 56 33.015625 56 
Q 37.15625 56 41.109375 55.140625 
Q 45.0625 54.296875 48.78125 52.59375 
z
" id="DejaVuSans-99"/>
      <path d="M 54.890625 33.015625 
L 54.890625 0 
L 45.90625 0 
L 45.90625 32.71875 
Q 45.90625 40.484375 42.875 44.328125 
Q 39.84375 48.1875 33.796875 48.1875 
Q 26.515625 48.1875 22.3125 43.546875 
Q 18.109375 38.921875 18.109375 30.90625 
L 18.109375 0 
L 9.078125 0 
L 9.078125 54.6875 
L 18.109375 54.6875 
L 18.109375 46.1875 
Q 21.34375 51.125 25.703125 53.5625 
Q 30.078125 56 35.796875 56 
Q 45.21875 56 50.046875 50.171875 
Q 54.890625 44.34375 54.890625 33.015625 
z
" id="DejaVuSans-110"/>
      <path d="M 18.3125 70.21875 
L 18.3125 54.6875 
L 36.8125 54.6875 
L 36.8125 47.703125 
L 18.3125 47.703125 
L 18.3125 18.015625 
Q 18.3125 11.328125 20.140625 9.421875 
Q 21.96875 7.515625 27.59375 7.515625 
L 36.8125 7.515625 
L 36.8125 0 
L 27.59375 0 
Q 17.1875 0 13.234375 3.875 
Q 9.28125 7.765625 9.28125 18.015625 
L 9.28125 47.703125 
L 2.6875 47.703125 
L 2.6875 54.6875 
L 9.28125 54.6875 
L 9.28125 70.21875 
z
" id="DejaVuSans-116"/>
      <path id="DejaVuSans-32"/>
      <path d="M 30.609375 48.390625 
Q 23.390625 48.390625 19.1875 42.75 
Q 14.984375 37.109375 14.984375 27.296875 
Q 14.984375 17.484375 19.15625 11.84375 
Q 23.34375 6.203125 30.609375 6.203125 
Q 37.796875 6.203125 41.984375 11.859375 
Q 46.1875 17.53125 46.1875 27.296875 
Q 46.1875 37.015625 41.984375 42.703125 
Q 37.796875 48.390625 30.609375 48.390625 
z
M 30.609375 56 
Q 42.328125 56 49.015625 48.375 
Q 55.71875 40.765625 55.71875 27.296875 
Q 55.71875 13.875 49.015625 6.21875 
Q 42.328125 -1.421875 30.609375 -1.421875 
Q 18.84375 -1.421875 12.171875 6.21875 
Q 5.515625 13.875 5.515625 27.296875 
Q 5.515625 40.765625 12.171875 48.375 
Q 18.84375 56 30.609375 56 
z
" id="DejaVuSans-111"/>
      <path d="M 37.109375 75.984375 
L 37.109375 68.5 
L 28.515625 68.5 
Q 23.6875 68.5 21.796875 66.546875 
Q 19.921875 64.59375 19.921875 59.515625 
L 19.921875 54.6875 
L 34.71875 54.6875 
L 34.71875 47.703125 
L 19.921875 47.703125 
L 19.921875 0 
L 10.890625 0 
L 10.890625 47.703125 
L 2.296875 47.703125 
L 2.296875 54.6875 
L 10.890625 54.6875 
L 10.890625 58.5 
Q 10.890625 67.625 15.140625 71.796875 
Q 19.390625 75.984375 28.609375 75.984375 
z
" id="DejaVuSans-102"/>
      <path d="M 34.28125 27.484375 
Q 23.390625 27.484375 19.1875 25 
Q 14.984375 22.515625 14.984375 16.5 
Q 14.984375 11.71875 18.140625 8.90625 
Q 21.296875 6.109375 26.703125 6.109375 
Q 34.1875 6.109375 38.703125 11.40625 
Q 43.21875 16.703125 43.21875 25.484375 
L 43.21875 27.484375 
z
M 52.203125 31.203125 
L 52.203125 0 
L 43.21875 0 
L 43.21875 8.296875 
Q 40.140625 3.328125 35.546875 0.953125 
Q 30.953125 -1.421875 24.3125 -1.421875 
Q 15.921875 -1.421875 10.953125 3.296875 
Q 6 8.015625 6 15.921875 
Q 6 25.140625 12.171875 29.828125 
Q 18.359375 34.515625 30.609375 34.515625 
L 43.21875 34.515625 
L 43.21875 35.40625 
Q 43.21875 41.609375 39.140625 45 
Q 35.0625 48.390625 27.6875 48.390625 
Q 23 48.390625 18.546875 47.265625 
Q 14.109375 46.140625 10.015625 43.890625 
L 10.015625 52.203125 
Q 14.9375 54.109375 19.578125 55.046875 
Q 24.21875 56 28.609375 56 
Q 40.484375 56 46.34375 49.84375 
Q 52.203125 43.703125 52.203125 31.203125 
z
" id="DejaVuSans-97"/>
      <path d="M 45.40625 46.390625 
L 45.40625 75.984375 
L 54.390625 75.984375 
L 54.390625 0 
L 45.40625 0 
L 45.40625 8.203125 
Q 42.578125 3.328125 38.25 0.953125 
Q 33.9375 -1.421875 27.875 -1.421875 
Q 17.96875 -1.421875 11.734375 6.484375 
Q 5.515625 14.40625 5.515625 27.296875 
Q 5.515625 40.1875 11.734375 48.09375 
Q 17.96875 56 27.875 56 
Q 33.9375 56 38.25 53.625 
Q 42.578125 51.265625 45.40625 46.390625 
z
M 14.796875 27.296875 
Q 14.796875 17.390625 18.875 11.75 
Q 22.953125 6.109375 30.078125 6.109375 
Q 37.203125 6.109375 41.296875 11.75 
Q 45.40625 17.390625 45.40625 27.296875 
Q 45.40625 37.203125 41.296875 42.84375 
Q 37.203125 48.484375 30.078125 48.484375 
Q 22.953125 48.484375 18.875 42.84375 
Q 14.796875 37.203125 14.796875 27.296875 
z
" id="DejaVuSans-100"/>
      <path d="M 44.28125 53.078125 
L 44.28125 44.578125 
Q 40.484375 46.53125 36.375 47.5 
Q 32.28125 48.484375 27.875 48.484375 
Q 21.1875 48.484375 17.84375 46.4375 
Q 14.5 44.390625 14.5 40.28125 
Q 14.5 37.15625 16.890625 35.375 
Q 19.28125 33.59375 26.515625 31.984375 
L 29.59375 31.296875 
Q 39.15625 29.25 43.1875 25.515625 
Q 47.21875 21.78125 47.21875 15.09375 
Q 47.21875 7.46875 41.1875 3.015625 
Q 35.15625 -1.421875 24.609375 -1.421875 
Q 20.21875 -1.421875 15.453125 -0.5625 
Q 10.6875 0.296875 5.421875 2 
L 5.421875 11.28125 
Q 10.40625 8.6875 15.234375 7.390625 
Q 20.0625 6.109375 24.8125 6.109375 
Q 31.15625 6.109375 34.5625 8.28125 
Q 37.984375 10.453125 37.984375 14.40625 
Q 37.984375 18.0625 35.515625 20.015625 
Q 33.0625 21.96875 24.703125 23.78125 
L 21.578125 24.515625 
Q 13.234375 26.265625 9.515625 29.90625 
Q 5.8125 33.546875 5.8125 39.890625 
Q 5.8125 47.609375 11.28125 51.796875 
Q 16.75 56 26.8125 56 
Q 31.78125 56 36.171875 55.265625 
Q 40.578125 54.546875 44.28125 53.078125 
z
" id="DejaVuSans-115"/>
     </defs>
     <g transform="translate(480.771875 379.564837)scale(0.1 -0.1)">
      <use xlink:href="#DejaVuSans-80"/>
      <use x="60.255859" xlink:href="#DejaVuSans-101"/>
      <use x="121.779297" xlink:href="#DejaVuSans-114"/>
      <use x="162.861328" xlink:href="#DejaVuSans-99"/>
      <use x="217.841797" xlink:href="#DejaVuSans-101"/>
      <use x="279.365234" xlink:href="#DejaVuSans-110"/>
      <use x="342.744141" xlink:href="#DejaVuSans-116"/>
      <use x="381.953125" xlink:href="#DejaVuSans-32"/>
      <use x="413.740234" xlink:href="#DejaVuSans-111"/>
      <use x="474.921875" xlink:href="#DejaVuSans-102"/>
      <use x="510.126953" xlink:href="#DejaVuSans-32"/>
      <use x="541.914062" xlink:href="#DejaVuSans-114"/>
      <use x="582.996094" xlink:href="#DejaVuSans-101"/>
      <use x="644.519531" xlink:href="#DejaVuSans-97"/>
      <use x="705.798828" xlink:href="#DejaVuSans-100"/>
      <use x="769.275391" xlink:href="#DejaVuSans-115"/>
     </g>
    </g>
   </g>
   <g id="matplotlib.axis_2">
    <g id="ytick_1">
     <g id="line2d_1">
      <path clip-path="url(#p1a9408694c)" d="M 58.418125 353.2239 
L 985.263125 353.2239 
" style="fill:none;stroke:#dedede;stroke-linecap:square;"/>
     </g>
     <g id="text_8">
      <!-- 0 -->
      <g transform="translate(46.328125 356.263275)scale(0.08 -0.08)">
       <use xlink:href="#DejaVuSans-48"/>
      </g>
     </g>
    </g>
    <g id="ytick_2">
     <g id="line2d_2">
      <path clip-path="url(#p1a9408694c)" d="M 58.418125 309.995448 
L 985.263125 309.995448 
" style="fill:none;stroke:#dedede;stroke-linecap:square;"/>
     </g>
     <g id="text_9">
      <!-- 25000 -->
      <defs>
       <path d="M 10.796875 72.90625 
L 49.515625 72.90625 
L 49.515625 64.59375 
L 19.828125 64.59375 
L 19.828125 46.734375 
Q 21.96875 47.46875 24.109375 47.828125 
Q 26.265625 48.1875 28.421875 48.1875 
Q 40.625 48.1875 47.75 41.5 
Q 54.890625 34.8125 54.890625 23.390625 
Q 54.890625 11.625 47.5625 5.09375 
Q 40.234375 -1.421875 26.90625 -1.421875 
Q 22.3125 -1.421875 17.546875 -0.640625 
Q 12.796875 0.140625 7.71875 1.703125 
L 7.71875 11.625 
Q 12.109375 9.234375 16.796875 8.0625 
Q 21.484375 6.890625 26.703125 6.890625 
Q 35.15625 6.890625 40.078125 11.328125 
Q 45.015625 15.765625 45.015625 23.390625 
Q 45.015625 31 40.078125 35.4375 
Q 35.15625 39.890625 26.703125 39.890625 
Q 22.75 39.890625 18.8125 39.015625 
Q 14.890625 38.140625 10.796875 36.28125 
z
" id="DejaVuSans-53"/>
      </defs>
      <g transform="translate(25.968125 313.034823)scale(0.08 -0.08)">
       <use xlink:href="#DejaVuSans-50"/>
       <use x="63.623047" xlink:href="#DejaVuSans-53"/>
       <use x="127.246094" xlink:href="#DejaVuSans-48"/>
       <use x="190.869141" xlink:href="#DejaVuSans-48"/>
       <use x="254.492188" xlink:href="#DejaVuSans-48"/>
      </g>
     </g>
    </g>
    <g id="ytick_3">
     <g id="line2d_3">
      <path clip-path="url(#p1a9408694c)" d="M 58.418125 266.766997 
L 985.263125 266.766997 
" style="fill:none;stroke:#dedede;stroke-linecap:square;"/>
     </g>
     <g id="text_10">
      <!-- 50000 -->
      <g transform="translate(25.968125 269.806372)scale(0.08 -0.08)">
       <use xlink:href="#DejaVuSans-53"/>
       <use x="63.623047" xlink:href="#DejaVuSans-48"/>
       <use x="127.246094" xlink:href="#DejaVuSans-48"/>
       <use x="190.869141" xlink:href="#DejaVuSans-48"/>
       <use x="254.492188" xlink:href="#DejaVuSans-48"/>
      </g>
     </g>
    </g>
    <g id="ytick_4">
     <g id="line2d_4">
      <path clip-path="url(#p1a9408694c)" d="M 58.418125 223.538545 
L 985.263125 223.538545 
" style="fill:none;stroke:#dedede;stroke-linecap:square;"/>
     </g>
     <g id="text_11">
      <!-- 75000 -->
      <defs>
       <path d="M 8.203125 72.90625 
L 55.078125 72.90625 
L 55.078125 68.703125 
L 28.609375 0 
L 18.3125 0 
L 43.21875 64.59375 
L 8.203125 64.59375 
z
" id="DejaVuSans-55"/>
      </defs>
      <g transform="translate(25.968125 226.57792)scale(0.08 -0.08)">
       <use xlink:href="#DejaVuSans-55"/>
       <use x="63.623047" xlink:href="#DejaVuSans-53"/>
       <use x="127.246094" xlink:href="#DejaVuSans-48"/>
       <use x="190.869141" xlink:href="#DejaVuSans-48"/>
       <use x="254.492188" xlink:href="#DejaVuSans-48"/>
      </g>
     </g>
    </g>
    <g id="ytick_5">
     <g id="line2d_5">
      <path clip-path="url(#p1a9408694c)" d="M 58.418125 180.310093 
L 985.263125 180.310093 
" style="fill:none;stroke:#dedede;stroke-linecap:square;"/>
     </g>
     <g id="text_12">
      <!-- 100000 -->
      <g transform="translate(20.878125 183.349468)scale(0.08 -0.08)">
       <use xlink:href="#DejaVuSans-49"/>
       <use x="63.623047" xlink:href="#DejaVuSans-48"/>
       <use x="127.246094" xlink:href="#DejaVuSans-48"/>
       <use x="190.869141" xlink:href="#DejaVuSans-48"/>
       <use x="254.492188" xlink:href="#DejaVuSans-48"/>
       <use x="318.115234" xlink:href="#DejaVuSans-48"/>
      </g>
     </g>
    </g>
    <g id="ytick_6">
     <g id="line2d_6">
      <path clip-path="url(#p1a9408694c)" d="M 58.418125 137.081642 
L 985.263125 137.081642 
" style="fill:none;stroke:#dedede;stroke-linecap:square;"/>
     </g>
     <g id="text_13">
      <!-- 125000 -->
      <g transform="translate(20.878125 140.121017)scale(0.08 -0.08)">
       <use xlink:href="#DejaVuSans-49"/>
       <use x="63.623047" xlink:href="#DejaVuSans-50"/>
       <use x="127.246094" xlink:href="#DejaVuSans-53"/>
       <use x="190.869141" xlink:href="#DejaVuSans-48"/>
       <use x="254.492188" xlink:href="#DejaVuSans-48"/>
       <use x="318.115234" xlink:href="#DejaVuSans-48"/>
      </g>
     </g>
    </g>
    <g id="ytick_7">
     <g id="line2d_7">
      <path clip-path="url(#p1a9408694c)" d="M 58.418125 93.85319 
L 985.263125 93.85319 
" style="fill:none;stroke:#dedede;stroke-linecap:square;"/>
     </g>
     <g id="text_14">
      <!-- 150000 -->
      <g transform="translate(20.878125 96.892565)scale(0.08 -0.08)">
       <use xlink:href="#DejaVuSans-49"/>
       <use x="63.623047" xlink:href="#DejaVuSans-53"/>
       <use x="127.246094" xlink:href="#DejaVuSans-48"/>
       <use x="190.869141" xlink:href="#DejaVuSans-48"/>
       <use x="254.492188" xlink:href="#DejaVuSans-48"/>
       <use x="318.115234" xlink:href="#DejaVuSans-48"/>
      </g>
     </g>
    </g>
    <g id="ytick_8">
     <g id="line2d_8">
      <path clip-path="url(#p1a9408694c)" d="M 58.418125 50.624738 
L 985.263125 50.624738 
" style="fill:none;stroke:#dedede;stroke-linecap:square;"/>
     </g>
     <g id="text_15">
      <!-- 175000 -->
      <g transform="translate(20.878125 53.664113)scale(0.08 -0.08)">
       <use xlink:href="#DejaVuSans-49"/>
       <use x="63.623047" xlink:href="#DejaVuSans-55"/>
       <use x="127.246094" xlink:href="#DejaVuSans-53"/>
       <use x="190.869141" xlink:href="#DejaVuSans-48"/>
       <use x="254.492188" xlink:href="#DejaVuSans-48"/>
       <use x="318.115234" xlink:href="#DejaVuSans-48"/>
      </g>
     </g>
    </g>
    <g id="text_16">
     <!-- Number of Junctions -->
     <defs>
      <path d="M 9.8125 72.90625 
L 23.09375 72.90625 
L 55.421875 11.921875 
L 55.421875 72.90625 
L 64.984375 72.90625 
L 64.984375 0 
L 51.703125 0 
L 19.390625 60.984375 
L 19.390625 0 
L 9.8125 0 
z
" id="DejaVuSans-78"/>
      <path d="M 8.5 21.578125 
L 8.5 54.6875 
L 17.484375 54.6875 
L 17.484375 21.921875 
Q 17.484375 14.15625 20.5 10.265625 
Q 23.53125 6.390625 29.59375 6.390625 
Q 36.859375 6.390625 41.078125 11.03125 
Q 45.3125 15.671875 45.3125 23.6875 
L 45.3125 54.6875 
L 54.296875 54.6875 
L 54.296875 0 
L 45.3125 0 
L 45.3125 8.40625 
Q 42.046875 3.421875 37.71875 1 
Q 33.40625 -1.421875 27.6875 -1.421875 
Q 18.265625 -1.421875 13.375 4.4375 
Q 8.5 10.296875 8.5 21.578125 
z
M 31.109375 56 
z
" id="DejaVuSans-117"/>
      <path d="M 52 44.1875 
Q 55.375 50.25 60.0625 53.125 
Q 64.75 56 71.09375 56 
Q 79.640625 56 84.28125 50.015625 
Q 88.921875 44.046875 88.921875 33.015625 
L 88.921875 0 
L 79.890625 0 
L 79.890625 32.71875 
Q 79.890625 40.578125 77.09375 44.375 
Q 74.3125 48.1875 68.609375 48.1875 
Q 61.625 48.1875 57.5625 43.546875 
Q 53.515625 38.921875 53.515625 30.90625 
L 53.515625 0 
L 44.484375 0 
L 44.484375 32.71875 
Q 44.484375 40.625 41.703125 44.40625 
Q 38.921875 48.1875 33.109375 48.1875 
Q 26.21875 48.1875 22.15625 43.53125 
Q 18.109375 38.875 18.109375 30.90625 
L 18.109375 0 
L 9.078125 0 
L 9.078125 54.6875 
L 18.109375 54.6875 
L 18.109375 46.1875 
Q 21.1875 51.21875 25.484375 53.609375 
Q 29.78125 56 35.6875 56 
Q 41.65625 56 45.828125 52.96875 
Q 50 49.953125 52 44.1875 
z
" id="DejaVuSans-109"/>
      <path d="M 48.6875 27.296875 
Q 48.6875 37.203125 44.609375 42.84375 
Q 40.53125 48.484375 33.40625 48.484375 
Q 26.265625 48.484375 22.1875 42.84375 
Q 18.109375 37.203125 18.109375 27.296875 
Q 18.109375 17.390625 22.1875 11.75 
Q 26.265625 6.109375 33.40625 6.109375 
Q 40.53125 6.109375 44.609375 11.75 
Q 48.6875 17.390625 48.6875 27.296875 
z
M 18.109375 46.390625 
Q 20.953125 51.265625 25.265625 53.625 
Q 29.59375 56 35.59375 56 
Q 45.5625 56 51.78125 48.09375 
Q 58.015625 40.1875 58.015625 27.296875 
Q 58.015625 14.40625 51.78125 6.484375 
Q 45.5625 -1.421875 35.59375 -1.421875 
Q 29.59375 -1.421875 25.265625 0.953125 
Q 20.953125 3.328125 18.109375 8.203125 
L 18.109375 0 
L 9.078125 0 
L 9.078125 75.984375 
L 18.109375 75.984375 
z
" id="DejaVuSans-98"/>
      <path d="M 9.8125 72.90625 
L 19.671875 72.90625 
L 19.671875 5.078125 
Q 19.671875 -8.109375 14.671875 -14.0625 
Q 9.671875 -20.015625 -1.421875 -20.015625 
L -5.171875 -20.015625 
L -5.171875 -11.71875 
L -2.09375 -11.71875 
Q 4.4375 -11.71875 7.125 -8.046875 
Q 9.8125 -4.390625 9.8125 5.078125 
z
" id="DejaVuSans-74"/>
      <path d="M 9.421875 54.6875 
L 18.40625 54.6875 
L 18.40625 0 
L 9.421875 0 
z
M 9.421875 75.984375 
L 18.40625 75.984375 
L 18.40625 64.59375 
L 9.421875 64.59375 
z
" id="DejaVuSans-105"/>
     </defs>
     <g transform="translate(14.798438 245.067244)rotate(-90)scale(0.1 -0.1)">
      <use xlink:href="#DejaVuSans-78"/>
      <use x="74.804688" xlink:href="#DejaVuSans-117"/>
      <use x="138.183594" xlink:href="#DejaVuSans-109"/>
      <use x="235.595703" xlink:href="#DejaVuSans-98"/>
      <use x="299.072266" xlink:href="#DejaVuSans-101"/>
      <use x="360.595703" xlink:href="#DejaVuSans-114"/>
      <use x="401.708984" xlink:href="#DejaVuSans-32"/>
      <use x="433.496094" xlink:href="#DejaVuSans-111"/>
      <use x="494.677734" xlink:href="#DejaVuSans-102"/>
      <use x="529.882812" xlink:href="#DejaVuSans-32"/>
      <use x="561.669922" xlink:href="#DejaVuSans-74"/>
      <use x="591.162109" xlink:href="#DejaVuSans-117"/>
      <use x="654.541016" xlink:href="#DejaVuSans-110"/>
      <use x="717.919922" xlink:href="#DejaVuSans-99"/>
      <use x="772.900391" xlink:href="#DejaVuSans-116"/>
      <use x="812.109375" xlink:href="#DejaVuSans-105"/>
      <use x="839.892578" xlink:href="#DejaVuSans-111"/>
      <use x="901.074219" xlink:href="#DejaVuSans-110"/>
      <use x="964.453125" xlink:href="#DejaVuSans-115"/>
     </g>
    </g>
   </g>
   <g id="line2d_9">
    <path clip-path="url(#p1a9408694c)" d="M 104.760375 175.933645 
L 151.102625 145.111759 
L 197.444875 127.813462 
L 243.787125 115.572893 
L 290.129375 106.292609 
L 336.471625 99.080375 
L 382.813875 93.03185 
L 429.156125 87.910143 
L 475.498375 83.464529 
L 521.840625 79.895588 
L 568.182875 76.503019 
L 614.525125 73.639566 
L 660.867375 71.277564 
L 707.209625 69.0781 
L 753.551875 67.143194 
L 799.894125 65.502242 
L 846.236375 64.096453 
L 892.578625 62.922368 
L 938.920875 61.850303 
L 985.263125 61.020317 
" style="fill:none;stroke:#7cb5ec;stroke-linecap:square;"/>
   </g>
   <g id="line2d_10">
    <path clip-path="url(#p1a9408694c)" d="M 104.760375 184.019095 
L 151.102625 153.300957 
L 197.444875 136.293155 
L 243.787125 124.287749 
L 290.129375 115.109484 
L 336.471625 107.662087 
L 382.813875 101.547855 
L 429.156125 96.291275 
L 475.498375 91.679664 
L 521.840625 87.861727 
L 568.182875 84.479533 
L 614.525125 81.538269 
L 660.867375 78.967041 
L 707.209625 76.475353 
L 753.551875 74.388283 
L 799.894125 72.672978 
L 846.236375 70.995714 
L 892.578625 69.660819 
L 938.920875 68.571462 
L 985.263125 67.632541 
" style="fill:none;stroke:#434348;stroke-linecap:square;"/>
   </g>
   <g id="line2d_11">
    <path clip-path="url(#p1a9408694c)" d="M 104.760375 176.065059 
L 151.102625 144.703682 
L 197.444875 126.879727 
L 243.787125 114.006294 
L 290.129375 103.953086 
L 336.471625 95.853803 
L 382.813875 89.272703 
L 429.156125 83.497382 
L 475.498375 78.633317 
L 521.840625 74.45399 
L 568.182875 70.902341 
L 614.525125 67.801996 
L 660.867375 65.018084 
L 707.209625 62.431293 
L 753.551875 60.205893 
L 799.894125 58.362631 
L 846.236375 56.690555 
L 892.578625 55.231162 
L 938.920875 54.065723 
L 985.263125 53.085302 
" style="fill:none;stroke:#90ed7d;stroke-linecap:square;"/>
   </g>
   <g id="line2d_12">
    <path clip-path="url(#p1a9408694c)" d="M 104.760375 169.857454 
L 151.102625 139.089171 
L 197.444875 121.434671 
L 243.787125 108.90015 
L 290.129375 99.161644 
L 336.471625 91.503292 
L 382.813875 85.114126 
L 429.156125 79.791839 
L 475.498375 75.003856 
L 521.840625 70.814155 
L 568.182875 67.340316 
L 614.525125 64.331616 
L 660.867375 61.608223 
L 707.209625 59.272158 
L 753.551875 57.275003 
L 799.894125 55.405805 
L 846.236375 53.747562 
L 892.578625 52.369439 
L 938.920875 51.309477 
L 985.263125 50.349806 
" style="fill:none;stroke:#f7a35c;stroke-linecap:square;"/>
   </g>
   <g id="line2d_13">
    <path clip-path="url(#p1a9408694c)" d="M 104.760375 186.57649 
L 151.102625 153.821427 
L 197.444875 135.350775 
L 243.787125 122.086556 
L 290.129375 111.938245 
L 336.471625 103.792276 
L 382.813875 97.216364 
L 429.156125 91.524041 
L 475.498375 86.538936 
L 521.840625 82.148655 
L 568.182875 78.30651 
L 614.525125 75.104146 
L 660.867375 72.256256 
L 707.209625 69.721339 
L 753.551875 67.489022 
L 799.894125 65.505701 
L 846.236375 63.726418 
L 892.578625 62.249734 
L 938.920875 60.996109 
L 985.263125 60.041624 
" style="fill:none;stroke:#8085e9;stroke-linecap:square;"/>
   </g>
   <g id="line2d_14">
    <path clip-path="url(#p1a9408694c)" d="M 104.760375 171.252868 
L 151.102625 139.21194 
L 197.444875 120.763766 
L 243.787125 107.639608 
L 290.129375 97.650377 
L 336.471625 89.525158 
L 382.813875 82.783248 
L 429.156125 76.947407 
L 475.498375 71.998614 
L 521.840625 67.637728 
L 568.182875 63.989247 
L 614.525125 60.81282 
L 660.867375 57.849077 
L 707.209625 55.322807 
L 753.551875 53.12853 
L 799.894125 51.184979 
L 846.236375 49.575152 
L 892.578625 48.115759 
L 938.920875 46.995278 
L 985.263125 46.085751 
" style="fill:none;stroke:#f15c80;stroke-linecap:square;"/>
   </g>
   <g id="line2d_15">
    <path clip-path="url(#p1a9408694c)" d="M 104.760375 185.426613 
L 151.102625 152.763195 
L 197.444875 134.359978 
L 243.787125 121.336111 
L 290.129375 111.364171 
L 336.471625 103.192265 
L 382.813875 96.488397 
L 429.156125 90.917114 
L 475.498375 85.959675 
L 521.840625 81.569393 
L 568.182875 77.860392 
L 614.525125 74.59405 
L 660.867375 71.626849 
L 707.209625 69.085016 
L 753.551875 66.857887 
L 799.894125 64.962751 
L 846.236375 63.302779 
L 892.578625 61.850303 
L 938.920875 60.693509 
L 985.263125 59.83067 
" style="fill:none;stroke:#e4d354;stroke-linecap:square;"/>
   </g>
   <g id="line2d_16">
    <path clip-path="url(#p1a9408694c)" d="M 104.760375 165.911561 
L 151.102625 134.71791 
L 197.444875 116.473774 
L 243.787125 103.698902 
L 290.129375 93.811691 
L 336.471625 85.883593 
L 382.813875 79.240244 
L 429.156125 73.585963 
L 475.498375 68.855041 
L 521.840625 64.592716 
L 568.182875 60.935589 
L 614.525125 57.760891 
L 660.867375 54.918188 
L 707.209625 52.469729 
L 753.551875 50.34116 
L 799.894125 48.530752 
L 846.236375 46.900175 
L 892.578625 45.468449 
L 938.920875 44.223469 
L 985.263125 43.182528 
" style="fill:none;stroke:#2b908f;stroke-linecap:square;"/>
   </g>
   <g id="line2d_17">
    <path clip-path="url(#p1a9408694c)" d="M 104.760375 174.043697 
L 151.102625 143.455245 
L 197.444875 125.849161 
L 243.787125 113.439137 
L 290.129375 103.795734 
L 336.471625 96.182339 
L 382.813875 89.879631 
L 429.156125 84.519303 
L 475.498375 79.999336 
L 521.840625 76.212524 
L 568.182875 72.726581 
L 614.525125 69.666007 
L 660.867375 67.041175 
L 707.209625 64.501071 
L 753.551875 62.436481 
L 799.894125 60.548262 
L 846.236375 58.865811 
L 892.578625 57.378752 
L 938.920875 56.216771 
L 985.263125 55.206954 
" style="fill:none;stroke:#f45b5b;stroke-linecap:square;"/>
   </g>
   <g id="line2d_18">
    <path clip-path="url(#p1a9408694c)" d="M 104.760375 181.043248 
L 151.102625 148.585597 
L 197.444875 130.540312 
L 243.787125 118.259974 
L 290.129375 108.805047 
L 336.471625 101.207214 
L 382.813875 94.878569 
L 429.156125 89.55974 
L 475.498375 85.070898 
L 521.840625 81.263336 
L 568.182875 77.856934 
L 614.525125 74.837859 
L 660.867375 72.22686 
L 707.209625 69.797421 
L 753.551875 67.841766 
L 799.894125 65.993318 
L 846.236375 64.471676 
L 892.578625 63.07972 
L 938.920875 61.865865 
L 985.263125 60.875069 
" style="fill:none;stroke:#91e8e1;stroke-linecap:square;"/>
   </g>
   <g id="line2d_19">
    <path clip-path="url(#p1a9408694c)" d="M 104.760375 201.715094 
L 151.102625 169.10355 
L 197.444875 151.110139 
L 243.787125 139.128941 
L 290.129375 129.907448 
L 336.471625 122.593194 
L 382.813875 116.439192 
L 429.156125 111.405671 
L 475.498375 107.127783 
L 521.840625 103.436073 
L 568.182875 100.09192 
L 614.525125 97.180052 
L 660.867375 94.622657 
L 707.209625 92.398985 
L 753.551875 90.368977 
L 799.894125 88.63811 
L 846.236375 87.076698 
L 892.578625 85.752178 
L 938.920875 84.678384 
L 985.263125 83.749836 
" style="fill:none;stroke:#7cb5ec;stroke-linecap:square;"/>
   </g>
   <g id="line2d_20">
    <path clip-path="url(#p1a9408694c)" d="M 104.760375 177.239144 
L 151.102625 146.476049 
L 197.444875 129.203689 
L 243.787125 117.251886 
L 290.129375 108.512823 
L 336.471625 101.214131 
L 382.813875 95.284916 
L 429.156125 90.360331 
L 475.498375 86.098006 
L 521.840625 82.337131 
L 568.182875 79.117476 
L 614.525125 76.349126 
L 660.867375 74.014789 
L 707.209625 71.92599 
L 753.551875 70.093104 
L 799.894125 68.493651 
L 846.236375 67.117257 
L 892.578625 65.922423 
L 938.920875 64.952377 
L 985.263125 64.148327 
" style="fill:none;stroke:#434348;stroke-linecap:square;"/>
   </g>
   <g id="line2d_21">
    <path clip-path="url(#p1a9408694c)" d="M 104.760375 176.964211 
L 151.102625 144.32673 
L 197.444875 125.320045 
L 243.787125 112.441424 
L 290.129375 102.232593 
L 336.471625 93.830711 
L 382.813875 86.865743 
L 429.156125 81.059298 
L 475.498375 75.769864 
L 521.840625 71.293126 
L 568.182875 67.290171 
L 614.525125 63.897602 
L 660.867375 60.857778 
L 707.209625 58.146489 
L 753.551875 55.815611 
L 799.894125 53.759666 
L 846.236375 51.881822 
L 892.578625 50.26162 
L 938.920875 48.821247 
L 985.263125 47.775119 
" style="fill:none;stroke:#90ed7d;stroke-linecap:square;"/>
   </g>
   <g id="line2d_22">
    <path clip-path="url(#p1a9408694c)" d="M 104.760375 178.857617 
L 151.102625 146.074889 
L 197.444875 127.388094 
L 243.787125 114.123876 
L 290.129375 103.868358 
L 336.471625 95.601349 
L 382.813875 88.859439 
L 429.156125 82.835122 
L 475.498375 77.990078 
L 521.840625 73.570401 
L 568.182875 69.709235 
L 614.525125 66.185252 
L 660.867375 63.226697 
L 707.209625 60.608782 
L 753.551875 58.26407 
L 799.894125 56.113023 
L 846.236375 54.262845 
L 892.578625 52.815556 
L 938.920875 51.50487 
L 985.263125 50.365368 
" style="fill:none;stroke:#f7a35c;stroke-linecap:square;"/>
   </g>
   <g id="line2d_23">
    <path clip-path="url(#p1a9408694c)" d="M 104.760375 174.242548 
L 151.102625 142.239661 
L 197.444875 124.189188 
L 243.787125 111.232757 
L 290.129375 101.347275 
L 336.471625 93.225513 
L 382.813875 86.279565 
L 429.156125 80.495599 
L 475.498375 75.631533 
L 521.840625 71.274105 
L 568.182875 67.464814 
L 614.525125 64.191556 
L 660.867375 61.224355 
L 707.209625 58.675605 
L 753.551875 56.574703 
L 799.894125 54.660547 
L 846.236375 52.938325 
L 892.578625 51.506599 
L 938.920875 50.30139 
L 985.263125 49.281198 
" style="fill:none;stroke:#8085e9;stroke-linecap:square;"/>
   </g>
   <g id="line2d_24">
    <path clip-path="url(#p1a9408694c)" d="M 104.760375 180.425946 
L 151.102625 149.730287 
L 197.444875 132.523634 
L 243.787125 120.696329 
L 290.129375 111.277714 
L 336.471625 103.828588 
L 382.813875 97.94606 
L 429.156125 92.938476 
L 475.498375 88.581048 
L 521.840625 84.76657 
L 568.182875 81.377459 
L 614.525125 78.496715 
L 660.867375 75.89782 
L 707.209625 73.719107 
L 753.551875 71.775555 
L 799.894125 70.008376 
L 846.236375 68.505755 
L 892.578625 67.165673 
L 938.920875 66.091878 
L 985.263125 65.242872 
" style="fill:none;stroke:#f15c80;stroke-linecap:square;"/>
   </g>
   <g id="line2d_25">
    <path clip-path="url(#p1a9408694c)" d="M 104.760375 172.238477 
L 151.102625 141.515152 
L 197.444875 124.490058 
L 243.787125 112.533069 
L 290.129375 103.525988 
L 336.471625 96.254963 
L 382.813875 90.285978 
L 429.156125 85.281853 
L 475.498375 81.228753 
L 521.840625 77.639062 
L 568.182875 74.464365 
L 614.525125 71.784201 
L 660.867375 69.487906 
L 707.209625 67.438877 
L 753.551875 65.571408 
L 799.894125 64.054954 
L 846.236375 62.680289 
L 892.578625 61.578828 
L 938.920875 60.608782 
L 985.263125 59.860065 
" style="fill:none;stroke:#e4d354;stroke-linecap:square;"/>
   </g>
   <g id="line2d_26">
    <path clip-path="url(#p1a9408694c)" d="M 104.760375 184.216216 
L 151.102625 152.353389 
L 197.444875 134.494851 
L 243.787125 121.960329 
L 290.129375 112.441424 
L 336.471625 104.8678 
L 382.813875 98.381803 
L 429.156125 93.019746 
L 475.498375 88.323407 
L 521.840625 84.208058 
L 568.182875 80.523265 
L 614.525125 77.435024 
L 660.867375 74.697799 
L 707.209625 72.206111 
L 753.551875 70.056792 
L 799.894125 68.274051 
L 846.236375 66.634828 
L 892.578625 65.279184 
L 938.920875 64.110286 
L 985.263125 63.103928 
" style="fill:none;stroke:#2b908f;stroke-linecap:square;"/>
   </g>
   <g id="line2d_27">
    <path clip-path="url(#p1a9408694c)" d="M 104.760375 172.335309 
L 151.102625 140.432711 
L 197.444875 122.235262 
L 243.787125 109.38085 
L 290.129375 99.540325 
L 336.471625 91.588019 
L 382.813875 84.681842 
L 429.156125 78.896146 
L 475.498375 73.874729 
L 521.840625 69.487906 
L 568.182875 65.531638 
L 614.525125 62.018029 
L 660.867375 59.088869 
L 707.209625 56.557411 
L 753.551875 54.328552 
L 799.894125 52.293357 
L 846.236375 50.638572 
L 892.578625 49.269094 
L 938.920875 47.987803 
L 985.263125 46.926112 
" style="fill:none;stroke:#f45b5b;stroke-linecap:square;"/>
   </g>
   <g id="line2d_28">
    <path clip-path="url(#p1a9408694c)" d="M 104.760375 181.012123 
L 151.102625 150.56546 
L 197.444875 133.628553 
L 243.787125 121.820269 
L 290.129375 112.840855 
L 336.471625 105.400374 
L 382.813875 99.223893 
L 429.156125 94.112561 
L 475.498375 89.644468 
L 521.840625 85.693388 
L 568.182875 82.382088 
L 614.525125 79.406242 
L 660.867375 76.696682 
L 707.209625 74.429782 
L 753.551875 72.42917 
L 799.894125 70.670636 
L 846.236375 69.048705 
L 892.578625 67.725914 
L 938.920875 66.641744 
L 985.263125 65.711468 
" style="fill:none;stroke:#91e8e1;stroke-linecap:square;"/>
   </g>
   <g id="line2d_29">
    <path clip-path="url(#p1a9408694c)" d="M 104.760375 177.540014 
L 151.102625 147.795381 
L 197.444875 131.06597 
L 243.787125 119.197167 
L 290.129375 109.918612 
L 336.471625 102.466027 
L 382.813875 96.229026 
L 429.156125 90.906739 
L 475.498375 86.414438 
L 521.840625 82.574023 
L 568.182875 79.034477 
L 614.525125 76.027506 
L 660.867375 73.305843 
L 707.209625 70.954215 
L 753.551875 68.861958 
L 799.894125 67.010051 
L 846.236375 65.433077 
L 892.578625 64.092995 
L 938.920875 62.875682 
L 985.263125 61.874511 
" style="fill:none;stroke:#7cb5ec;stroke-linecap:square;"/>
   </g>
   <g id="line2d_30">
    <path clip-path="url(#p1a9408694c)" d="M 104.760375 173.825826 
L 151.102625 144.020673 
L 197.444875 127.284346 
L 243.787125 115.154442 
L 290.129375 105.894908 
L 336.471625 98.24693 
L 382.813875 91.843932 
L 429.156125 86.485333 
L 475.498375 81.913492 
L 521.840625 77.915725 
L 568.182875 74.417678 
L 614.525125 71.332896 
L 660.867375 68.687315 
L 707.209625 66.237126 
L 753.551875 63.96158 
L 799.894125 62.206505 
L 846.236375 60.470451 
L 892.578625 59.092328 
L 938.920875 57.940722 
L 985.263125 56.9603 
" style="fill:none;stroke:#434348;stroke-linecap:square;"/>
   </g>
   <g id="line2d_31">
    <path clip-path="url(#p1a9408694c)" d="M 104.760375 174.565897 
L 151.102625 144.831639 
L 197.444875 127.922397 
L 243.787125 115.849555 
L 290.129375 106.394629 
L 336.471625 98.732818 
L 382.813875 92.405902 
L 429.156125 86.853639 
L 475.498375 82.134821 
L 521.840625 78.112846 
L 568.182875 74.592321 
L 614.525125 71.427999 
L 660.867375 68.720168 
L 707.209625 66.385832 
L 753.551875 64.279742 
L 799.894125 62.336191 
L 846.236375 60.715988 
L 892.578625 59.313657 
L 938.920875 58.134385 
L 985.263125 57.122839 
" style="fill:none;stroke:#90ed7d;stroke-linecap:square;"/>
   </g>
   <g id="line2d_32">
    <path clip-path="url(#p1a9408694c)" d="M 104.760375 182.217333 
L 151.102625 150.657105 
L 197.444875 132.987043 
L 243.787125 120.601227 
L 290.129375 111.22584 
L 336.471625 103.525988 
L 382.813875 97.26478 
L 429.156125 91.581103 
L 475.498375 86.801765 
L 521.840625 82.809185 
L 568.182875 79.38895 
L 614.525125 76.361229 
L 660.867375 73.466652 
L 707.209625 71.052776 
L 753.551875 68.906915 
L 799.894125 67.15184 
L 846.236375 65.588699 
L 892.578625 64.260721 
L 938.920875 63.124678 
L 985.263125 62.182297 
" style="fill:none;stroke:#f7a35c;stroke-linecap:square;"/>
   </g>
   <g id="line2d_33">
    <path clip-path="url(#p1a9408694c)" d="M 104.760375 191.99215 
L 151.102625 160.193301 
L 197.444875 142.607967 
L 243.787125 130.294775 
L 290.129375 120.898639 
L 336.471625 113.390721 
L 382.813875 107.198678 
L 429.156125 102.115012 
L 475.498375 97.612336 
L 521.840625 93.799587 
L 568.182875 90.429497 
L 614.525125 87.540107 
L 660.867375 84.827089 
L 707.209625 82.496211 
L 753.551875 80.538827 
L 799.894125 78.780294 
L 846.236375 77.460961 
L 892.578625 76.072463 
L 938.920875 75.048814 
L 985.263125 74.123725 
" style="fill:none;stroke:#8085e9;stroke-linecap:square;"/>
   </g>
   <g id="line2d_34">
    <path clip-path="url(#p1a9408694c)" d="M 104.760375 176.326159 
L 151.102625 144.138254 
L 197.444875 126.008242 
L 243.787125 113.190141 
L 290.129375 103.36345 
L 336.471625 95.419789 
L 382.813875 88.890564 
L 429.156125 83.295073 
L 475.498375 78.458674 
L 521.840625 74.287993 
L 568.182875 70.675824 
L 614.525125 67.41294 
L 660.867375 64.559862 
L 707.209625 62.085466 
L 753.551875 59.903293 
L 799.894125 57.999512 
L 846.236375 56.387956 
L 892.578625 54.980437 
L 938.920875 53.806353 
L 985.263125 52.812098 
" style="fill:none;stroke:#f15c80;stroke-linecap:square;"/>
   </g>
   <g id="line2d_35">
    <path clip-path="url(#p1a9408694c)" d="M 104.760375 180.512403 
L 151.102625 149.434604 
L 197.444875 131.863103 
L 243.787125 119.670951 
L 290.129375 110.034464 
L 336.471625 102.012993 
L 382.813875 95.596161 
L 429.156125 90.090586 
L 475.498375 85.053607 
L 521.840625 80.820677 
L 568.182875 77.168737 
L 614.525125 73.898937 
L 660.867375 71.026839 
L 707.209625 68.504026 
L 753.551875 66.342604 
L 799.894125 64.469947 
L 846.236375 62.832453 
L 892.578625 61.452601 
L 938.920875 60.217996 
L 985.263125 59.204722 
" style="fill:none;stroke:#e4d354;stroke-linecap:square;"/>
   </g>
   <g id="line2d_36">
    <path clip-path="url(#p1a9408694c)" d="M 104.760375 178.122734 
L 151.102625 146.825335 
L 197.444875 129.068816 
L 243.787125 116.485878 
L 290.129375 106.97389 
L 336.471625 99.07 
L 382.813875 92.499275 
L 429.156125 86.817327 
L 475.498375 81.967095 
L 521.840625 77.808518 
L 568.182875 74.206723 
L 614.525125 71.108108 
L 660.867375 68.104595 
L 707.209625 65.522992 
L 753.551875 63.32007 
L 799.894125 61.359228 
L 846.236375 59.657756 
L 892.578625 58.222571 
L 938.920875 57.045028 
L 985.263125 56.016191 
" style="fill:none;stroke:#2b908f;stroke-linecap:square;"/>
   </g>
   <g id="line2d_37">
    <path clip-path="url(#p1a9408694c)" d="M 104.760375 199.430902 
L 151.102625 167.293142 
L 197.444875 149.434604 
L 243.787125 137.090287 
L 290.129375 127.792712 
L 336.471625 120.103235 
L 382.813875 113.968253 
L 429.156125 108.741069 
L 475.498375 104.153666 
L 521.840625 100.287313 
L 568.182875 96.908577 
L 614.525125 94.043395 
L 660.867375 91.373606 
L 707.209625 88.91823 
L 753.551875 86.815598 
L 799.894125 85.093377 
L 846.236375 83.507757 
L 892.578625 82.11753 
L 938.920875 80.964195 
L 985.263125 80.046023 
" style="fill:none;stroke:#f45b5b;stroke-linecap:square;"/>
   </g>
   <g id="line2d_38">
    <path clip-path="url(#p1a9408694c)" d="M 104.760375 186.649114 
L 151.102625 155.623189 
L 197.444875 138.245352 
L 243.787125 126.153489 
L 290.129375 116.757353 
L 336.471625 109.092084 
L 382.813875 102.858541 
L 429.156125 97.681502 
L 475.498375 93.121765 
L 521.840625 89.006416 
L 568.182875 85.497995 
L 614.525125 82.406296 
L 660.867375 79.693279 
L 707.209625 77.400441 
L 753.551875 75.221727 
L 799.894125 73.444174 
L 846.236375 71.753077 
L 892.578625 70.234893 
L 938.920875 69.05735 
L 985.263125 68.030242 
" style="fill:none;stroke:#91e8e1;stroke-linecap:square;"/>
   </g>
   <g id="line2d_39">
    <path clip-path="url(#p1a9408694c)" d="M 104.760375 193.221567 
L 151.102625 162.508617 
L 197.444875 145.319256 
L 243.787125 133.543825 
L 290.129375 124.720034 
L 336.471625 117.355635 
L 382.813875 111.523252 
L 429.156125 106.510481 
L 475.498375 102.123658 
L 521.840625 98.2867 
L 568.182875 94.802487 
L 614.525125 91.873327 
L 660.867375 89.269245 
L 707.209625 86.988512 
L 753.551875 84.889338 
L 799.894125 83.018411 
L 846.236375 81.432791 
L 892.578625 80.13248 
L 938.920875 79.034477 
L 985.263125 78.067889 
" style="fill:none;stroke:#7cb5ec;stroke-linecap:square;"/>
   </g>
   <g id="line2d_40">
    <path clip-path="url(#p1a9408694c)" d="M 104.760375 184.394318 
L 151.102625 156.800732 
L 197.444875 142.576843 
L 243.787125 133.336329 
L 290.129375 126.644564 
L 336.471625 121.59721 
L 382.813875 117.594256 
L 429.156125 114.310623 
L 475.498375 111.571668 
L 521.840625 109.118021 
L 568.182875 107.136429 
L 614.525125 105.376166 
L 660.867375 103.849337 
L 707.209625 102.510984 
L 753.551875 101.393961 
L 799.894125 100.446394 
L 846.236375 99.587012 
L 892.578625 98.817546 
L 938.920875 98.191598 
L 985.263125 97.577754 
" style="fill:none;stroke:#434348;stroke-linecap:square;"/>
   </g>
   <g id="line2d_41">
    <path clip-path="url(#p1a9408694c)" d="M 104.760375 185.2122 
L 151.102625 154.521728 
L 197.444875 136.919103 
L 243.787125 124.86701 
L 290.129375 115.451854 
L 336.471625 107.892062 
L 382.813875 101.480418 
L 429.156125 96.10107 
L 475.498375 91.387439 
L 521.840625 87.462296 
L 568.182875 83.984999 
L 614.525125 80.77399 
L 660.867375 78.022931 
L 707.209625 75.489744 
L 753.551875 73.264343 
L 799.894125 71.36402 
L 846.236375 69.754193 
L 892.578625 68.379528 
L 938.920875 67.184694 
L 985.263125 66.24923 
" style="fill:none;stroke:#90ed7d;stroke-linecap:square;"/>
   </g>
   <g id="line2d_42">
    <path clip-path="url(#p1a9408694c)" d="M 104.760375 188.865869 
L 151.102625 158.384623 
L 197.444875 141.210823 
L 243.787125 129.271125 
L 290.129375 119.921676 
L 336.471625 112.325572 
L 382.813875 106.100675 
L 429.156125 100.596829 
L 475.498375 95.857261 
L 521.840625 91.757475 
L 568.182875 88.226575 
L 614.525125 85.174646 
L 660.867375 82.485836 
L 707.209625 79.93017 
L 753.551875 77.775664 
L 799.894125 75.890904 
L 846.236375 74.198078 
L 892.578625 72.695457 
L 938.920875 71.562871 
L 985.263125 70.653345 
" style="fill:none;stroke:#f7a35c;stroke-linecap:square;"/>
   </g>
   <g id="line2d_43">
    <path clip-path="url(#p1a9408694c)" d="M 104.760375 181.534323 
L 151.102625 150.643272 
L 197.444875 133.459098 
L 243.787125 121.573002 
L 290.129375 112.584943 
L 336.471625 105.166941 
L 382.813875 99.031959 
L 429.156125 93.946564 
L 475.498375 89.533803 
L 521.840625 85.50837 
L 568.182875 82.081218 
L 614.525125 79.200474 
L 660.867375 76.625788 
L 707.209625 74.345054 
L 753.551875 72.42744 
L 799.894125 70.729427 
L 846.236375 69.308075 
L 892.578625 68.061367 
L 938.920875 67.015238 
L 985.263125 66.183523 
" style="fill:none;stroke:#8085e9;stroke-linecap:square;"/>
   </g>
   <g id="line2d_44">
    <path clip-path="url(#p1a9408694c)" d="M 104.760375 176.76536 
L 151.102625 145.761915 
L 197.444875 128.25785 
L 243.787125 116.034573 
L 290.129375 106.576188 
L 336.471625 99.052708 
L 382.813875 92.805332 
L 429.156125 87.460567 
L 475.498375 82.805727 
L 521.840625 78.811418 
L 568.182875 75.271872 
L 614.525125 72.119654 
L 660.867375 69.351304 
L 707.209625 67.003134 
L 753.551875 64.997334 
L 799.894125 63.254363 
L 846.236375 61.71543 
L 892.578625 60.439326 
L 938.920875 59.298095 
L 985.263125 58.343611 
" style="fill:none;stroke:#f15c80;stroke-linecap:square;"/>
   </g>
   <g id="line2d_45">
    <path clip-path="url(#p1a9408694c)" d="M 104.760375 193.664227 
L 151.102625 161.69938 
L 197.444875 143.8858 
L 243.787125 131.634857 
L 290.129375 122.207596 
L 336.471625 114.566535 
L 382.813875 108.122037 
L 429.156125 102.523088 
L 475.498375 97.876894 
L 521.840625 93.894689 
L 568.182875 90.209896 
L 614.525125 87.042115 
L 660.867375 84.189037 
L 707.209625 81.85643 
L 753.551875 79.752069 
L 799.894125 77.860392 
L 846.236375 76.292064 
L 892.578625 74.867254 
L 938.920875 73.63265 
L 985.263125 72.719665 
" style="fill:none;stroke:#e4d354;stroke-linecap:square;"/>
   </g>
   <g id="line2d_46">
    <path clip-path="url(#p1a9408694c)" d="M 104.760375 192.583515 
L 151.102625 160.886686 
L 197.444875 143.520952 
L 243.787125 131.396236 
L 290.129375 121.936121 
L 336.471625 114.232811 
L 382.813875 107.973332 
L 429.156125 102.469485 
L 475.498375 97.933956 
L 521.840625 94.048583 
L 568.182875 90.526329 
L 614.525125 87.337798 
L 660.867375 84.604031 
L 707.209625 82.202258 
L 753.551875 80.021815 
L 799.894125 78.062701 
L 846.236375 76.432124 
L 892.578625 74.964086 
L 938.920875 73.734669 
L 985.263125 72.704102 
" style="fill:none;stroke:#2b908f;stroke-linecap:square;"/>
   </g>
   <g id="line2d_47">
    <path clip-path="url(#p1a9408694c)" d="M 104.760375 196.522492 
L 151.102625 164.134007 
L 197.444875 145.8916 
L 243.787125 133.301746 
L 290.129375 123.533845 
L 336.471625 115.655892 
L 382.813875 109.188916 
L 429.156125 103.735214 
L 475.498375 99.059625 
L 521.840625 94.771362 
L 568.182875 91.098673 
L 614.525125 87.958558 
L 660.867375 85.102022 
L 707.209625 82.620709 
L 753.551875 80.224124 
L 799.894125 78.275385 
L 846.236375 76.572184 
L 892.578625 75.109334 
L 938.920875 73.784814 
L 985.263125 72.714477 
" style="fill:none;stroke:#f45b5b;stroke-linecap:square;"/>
   </g>
   <g id="line2d_48">
    <path clip-path="url(#p1a9408694c)" d="M 104.760375 184.266361 
L 151.102625 152.681925 
L 197.444875 135.082758 
L 243.787125 122.332094 
L 290.129375 112.806272 
L 336.471625 105.058005 
L 382.813875 98.452697 
L 429.156125 92.744813 
L 475.498375 87.873831 
L 521.840625 83.786148 
L 568.182875 80.250061 
L 614.525125 77.175653 
L 660.867375 74.376179 
L 707.209625 72.081613 
L 753.551875 69.939211 
L 799.894125 68.030242 
L 846.236375 66.32877 
L 892.578625 64.967939 
L 938.920875 63.776563 
L 985.263125 62.704497 
" style="fill:none;stroke:#91e8e1;stroke-linecap:square;"/>
   </g>
   <g id="line2d_49">
    <path clip-path="url(#p1a9408694c)" d="M 104.760375 186.854881 
L 151.102625 154.452563 
L 197.444875 136.395174 
L 243.787125 123.601281 
L 290.129375 113.980357 
L 336.471625 106.323734 
L 382.813875 100.038317 
L 429.156125 94.731592 
L 475.498375 90.132085 
L 521.840625 86.125672 
L 568.182875 82.710624 
L 614.525125 79.717486 
L 660.867375 76.990636 
L 707.209625 74.652841 
L 753.551875 72.531189 
L 799.894125 70.72251 
L 846.236375 69.162828 
L 892.578625 67.769142 
L 938.920875 66.53108 
L 985.263125 65.605991 
" style="fill:none;stroke:#7cb5ec;stroke-linecap:square;"/>
   </g>
   <g id="line2d_50">
    <path clip-path="url(#p1a9408694c)" d="M 104.760375 182.618493 
L 151.102625 150.612147 
L 197.444875 132.527092 
L 243.787125 119.736658 
L 290.129375 110.005069 
L 336.471625 102.132303 
L 382.813875 95.653223 
L 429.156125 90.057732 
L 475.498375 85.243812 
L 521.840625 81.268523 
L 568.182875 77.658083 
L 614.525125 74.471282 
L 660.867375 71.668349 
L 707.209625 69.237181 
L 753.551875 67.118987 
L 799.894125 65.241143 
L 846.236375 63.589816 
L 892.578625 62.102757 
L 938.920875 60.95288 
L 985.263125 59.934418 
" style="fill:none;stroke:#434348;stroke-linecap:square;"/>
   </g>
   <g id="line2d_51">
    <path clip-path="url(#p1a9408694c)" d="M 104.760375 196.494826 
L 151.102625 165.308092 
L 197.444875 148.272623 
L 243.787125 136.929478 
L 290.129375 128.475722 
L 336.471625 121.656001 
L 382.813875 116.034573 
L 429.156125 111.256965 
L 475.498375 107.115679 
L 521.840625 103.591696 
L 568.182875 100.43256 
L 614.525125 97.754126 
L 660.867375 95.485496 
L 707.209625 93.488342 
L 753.551875 91.645081 
L 799.894125 90.050816 
L 846.236375 88.707275 
L 892.578625 87.557398 
L 938.920875 86.570061 
L 985.263125 85.791948 
" style="fill:none;stroke:#90ed7d;stroke-linecap:square;"/>
   </g>
   <g id="line2d_52">
    <path clip-path="url(#p1a9408694c)" d="M 104.760375 189.621502 
L 151.102625 158.140814 
L 197.444875 140.806205 
L 243.787125 128.849215 
L 290.129375 119.529161 
L 336.471625 111.90885 
L 382.813875 105.905282 
L 429.156125 100.558788 
L 475.498375 96.038821 
L 521.840625 92.10849 
L 568.182875 88.565486 
L 614.525125 85.556786 
L 660.867375 82.923308 
L 707.209625 80.595889 
L 753.551875 78.500173 
L 799.894125 76.748556 
L 846.236375 75.169853 
L 892.578625 73.81248 
L 938.920875 72.64877 
L 985.263125 71.651057 
" style="fill:none;stroke:#f7a35c;stroke-linecap:square;"/>
   </g>
   <g id="line2d_53">
    <path clip-path="url(#p1a9408694c)" d="M 104.760375 192.279187 
L 151.102625 163.582412 
L 197.444875 148.48012 
L 243.787125 138.497806 
L 290.129375 131.0677 
L 336.471625 125.313128 
L 382.813875 120.672122 
L 429.156125 116.933725 
L 475.498375 113.71407 
L 521.840625 111.002781 
L 568.182875 108.792943 
L 614.525125 106.816538 
L 660.867375 105.191148 
L 707.209625 103.671236 
L 753.551875 102.372653 
L 799.894125 101.143236 
L 846.236375 100.098837 
L 892.578625 99.27058 
L 938.920875 98.596216 
L 985.263125 98.039433 
" style="fill:none;stroke:#8085e9;stroke-linecap:square;"/>
   </g>
   <g id="line2d_54">
    <path clip-path="url(#p1a9408694c)" d="M 104.760375 178.214378 
L 151.102625 149.692246 
L 197.444875 134.51733 
L 243.787125 124.007629 
L 290.129375 116.387317 
L 336.471625 110.449457 
L 382.813875 105.727181 
L 429.156125 101.689644 
L 475.498375 98.566821 
L 521.840625 95.713743 
L 568.182875 93.2307 
L 614.525125 91.140173 
L 660.867375 89.34014 
L 707.209625 87.702646 
L 753.551875 86.369481 
L 799.894125 85.122772 
L 846.236375 84.112955 
L 892.578625 83.212074 
L 938.920875 82.43915 
L 985.263125 81.844326 
" style="fill:none;stroke:#f15c80;stroke-linecap:square;"/>
   </g>
   <g id="line2d_55">
    <path clip-path="url(#p1a9408694c)" d="M 104.760375 186.05429 
L 151.102625 154.632393 
L 197.444875 137.728339 
L 243.787125 126.175968 
L 290.129375 117.54584 
L 336.471625 110.736494 
L 382.813875 105.194607 
L 429.156125 100.510372 
L 475.498375 96.588687 
L 521.840625 93.156348 
L 568.182875 90.241021 
L 614.525125 87.652501 
L 660.867375 85.290498 
L 707.209625 83.258761 
L 753.551875 81.557289 
L 799.894125 80.073689 
L 846.236375 78.761273 
L 892.578625 77.635604 
L 938.920875 76.682849 
L 985.263125 75.883987 
" style="fill:none;stroke:#e4d354;stroke-linecap:square;"/>
   </g>
   <g id="line2d_56">
    <path clip-path="url(#p1a9408694c)" d="M 104.760375 189.647439 
L 151.102625 156.86644 
L 197.444875 138.786572 
L 243.787125 126.516608 
L 290.129375 117.308948 
L 336.471625 109.671345 
L 382.813875 103.313304 
L 429.156125 98.029059 
L 475.498375 93.39151 
L 521.840625 89.364348 
L 568.182875 85.752178 
L 614.525125 82.708895 
L 660.867375 80.158417 
L 707.209625 77.647708 
L 753.551875 75.603867 
L 799.894125 73.779626 
L 846.236375 72.149049 
L 892.578625 70.746718 
L 938.920875 69.589925 
L 985.263125 68.664836 
" style="fill:none;stroke:#2b908f;stroke-linecap:square;"/>
   </g>
   <g id="line2d_57">
    <path clip-path="url(#p1a9408694c)" d="M 104.760375 194.864249 
L 151.102625 161.918981 
L 197.444875 143.719803 
L 243.787125 131.190468 
L 290.129375 121.605856 
L 336.471625 113.745194 
L 382.813875 107.079367 
L 429.156125 101.485606 
L 475.498375 96.652665 
L 521.840625 92.563253 
L 568.182875 88.933792 
L 614.525125 85.722783 
L 660.867375 82.885267 
L 707.209625 80.314039 
L 753.551875 78.112846 
L 799.894125 76.228086 
L 846.236375 74.466094 
L 892.578625 72.937536 
L 938.920875 71.657974 
L 985.263125 70.618762 
" style="fill:none;stroke:#f45b5b;stroke-linecap:square;"/>
   </g>
   <g id="line2d_58">
    <path clip-path="url(#p1a9408694c)" d="M 104.760375 200.617091 
L 151.102625 168.266647 
L 197.444875 150.375255 
L 243.787125 138.160624 
L 290.129375 128.812904 
L 336.471625 121.344756 
L 382.813875 115.194212 
L 429.156125 110.06386 
L 475.498375 105.642453 
L 521.840625 101.725956 
L 568.182875 98.276325 
L 614.525125 95.193272 
L 660.867375 92.564982 
L 707.209625 90.277333 
L 753.551875 88.160868 
L 799.894125 86.347002 
L 846.236375 84.695675 
L 892.578625 83.357322 
L 938.920875 82.176321 
L 985.263125 81.156129 
" style="fill:none;stroke:#91e8e1;stroke-linecap:square;"/>
   </g>
   <g id="line2d_59">
    <path clip-path="url(#p1a9408694c)" d="M 104.760375 184.096906 
L 151.102625 152.745904 
L 197.444875 134.659119 
L 243.787125 121.9586 
L 290.129375 112.31001 
L 336.471625 104.362891 
L 382.813875 97.792167 
L 429.156125 92.105032 
L 475.498375 86.997158 
L 521.840625 82.821289 
L 568.182875 79.062143 
L 614.525125 75.69897 
L 660.867375 72.716206 
L 707.209625 70.10175 
L 753.551875 67.77433 
L 799.894125 65.732218 
L 846.236375 63.918352 
L 892.578625 62.384606 
L 938.920875 61.015129 
L 985.263125 59.91021 
" style="fill:none;stroke:#7cb5ec;stroke-linecap:square;"/>
   </g>
   <g id="line2d_60">
    <path clip-path="url(#p1a9408694c)" d="M 104.760375 180.642088 
L 151.102625 148.891655 
L 197.444875 131.365111 
L 243.787125 119.076127 
L 290.129375 109.524368 
L 336.471625 102.087346 
L 382.813875 95.988676 
L 429.156125 90.922301 
L 475.498375 86.570061 
L 521.840625 82.838581 
L 568.182875 79.579155 
L 614.525125 76.674203 
L 660.867375 74.135829 
L 707.209625 71.842992 
L 753.551875 69.930565 
L 799.894125 68.222177 
L 846.236375 66.773159 
L 892.578625 65.592158 
L 938.920875 64.456114 
L 985.263125 63.525838 
" style="fill:none;stroke:#434348;stroke-linecap:square;"/>
   </g>
   <g id="line2d_61">
    <path clip-path="url(#p1a9408694c)" d="M 104.760375 191.331619 
L 151.102625 159.731621 
L 197.444875 142.168766 
L 243.787125 129.86249 
L 290.129375 120.518228 
L 336.471625 113.069101 
L 382.813875 106.970432 
L 429.156125 101.746705 
L 475.498375 97.30455 
L 521.840625 93.325803 
L 568.182875 89.948796 
L 614.525125 86.983325 
L 660.867375 84.329098 
L 707.209625 82.012053 
L 753.551875 80.023544 
L 799.894125 78.258094 
L 846.236375 76.717432 
L 892.578625 75.467265 
L 938.920875 74.284535 
L 985.263125 73.394029 
" style="fill:none;stroke:#90ed7d;stroke-linecap:square;"/>
   </g>
   <g id="line2d_62">
    <path clip-path="url(#p1a9408694c)" d="M 104.760375 180.13718 
L 151.102625 148.827677 
L 197.444875 131.328799 
L 243.787125 119.143563 
L 290.129375 109.851176 
L 336.471625 102.415882 
L 382.813875 96.049195 
L 429.156125 90.62316 
L 475.498375 86.091089 
L 521.840625 82.221278 
L 568.182875 78.771648 
L 614.525125 75.73874 
L 660.867375 73.117366 
L 707.209625 70.750176 
L 753.551875 68.678669 
L 799.894125 66.840595 
L 846.236375 65.260163 
L 892.578625 63.849186 
L 938.920875 62.803058 
L 985.263125 61.858949 
" style="fill:none;stroke:#f7a35c;stroke-linecap:square;"/>
   </g>
   <g id="line2d_63">
    <path clip-path="url(#p1a9408694c)" d="M 104.760375 186.038728 
L 151.102625 156.473925 
L 197.444875 140.107633 
L 243.787125 128.653823 
L 290.129375 120.05309 
L 336.471625 112.958437 
L 382.813875 106.868412 
L 429.156125 101.734601 
L 475.498375 97.416944 
L 521.840625 93.650881 
L 568.182875 90.304999 
L 614.525125 87.339527 
L 660.867375 84.693946 
L 707.209625 82.482378 
L 753.551875 80.519807 
L 799.894125 78.776835 
L 846.236375 77.239632 
L 892.578625 75.973903 
L 938.920875 74.900108 
L 985.263125 73.916228 
" style="fill:none;stroke:#8085e9;stroke-linecap:square;"/>
   </g>
   <g id="line2d_64">
    <path clip-path="url(#p1a9408694c)" d="M 104.760375 185.955729 
L 151.102625 156.550007 
L 197.444875 139.971031 
L 243.787125 128.517221 
L 290.129375 119.726283 
L 336.471625 112.322114 
L 382.813875 106.252839 
L 429.156125 101.373212 
L 475.498375 96.946618 
L 521.840625 93.102744 
L 568.182875 89.668676 
L 614.525125 86.703204 
L 660.867375 84.038602 
L 707.209625 81.792452 
L 753.551875 79.767631 
L 799.894125 77.936474 
L 846.236375 76.407916 
L 892.578625 75.092042 
L 938.920875 74.009602 
L 985.263125 73.132929 
" style="fill:none;stroke:#f15c80;stroke-linecap:square;"/>
   </g>
   <g id="line2d_65">
    <path clip-path="url(#p1a9408694c)" d="M 104.760375 192.204834 
L 151.102625 161.815233 
L 197.444875 145.288131 
L 243.787125 134.233751 
L 290.129375 125.397856 
L 336.471625 118.391388 
L 382.813875 112.688691 
L 429.156125 107.871312 
L 475.498375 103.697173 
L 521.840625 100.135149 
L 568.182875 96.998492 
L 614.525125 94.237059 
L 660.867375 91.838744 
L 707.209625 89.566657 
L 753.551875 87.611002 
L 799.894125 86.02884 
L 846.236375 84.583281 
L 892.578625 83.409196 
L 938.920875 82.359609 
L 985.263125 81.49504 
" style="fill:none;stroke:#e4d354;stroke-linecap:square;"/>
   </g>
   <g id="line2d_66">
    <path clip-path="url(#p1a9408694c)" d="M 104.760375 188.347127 
L 151.102625 158.229 
L 197.444875 141.485756 
L 243.787125 129.552975 
L 290.129375 120.478458 
L 336.471625 113.347493 
L 382.813875 107.141616 
L 429.156125 102.121928 
L 475.498375 97.837124 
L 521.840625 93.803045 
L 568.182875 90.346498 
L 614.525125 87.467483 
L 660.867375 84.818444 
L 707.209625 82.349235 
L 753.551875 80.301935 
L 799.894125 78.432737 
L 846.236375 76.777952 
L 892.578625 75.405016 
L 938.920875 74.237848 
L 985.263125 73.221115 
" style="fill:none;stroke:#2b908f;stroke-linecap:square;"/>
   </g>
   <g id="line2d_67">
    <path clip-path="url(#p1a9408694c)" d="M 104.760375 183.88768 
L 151.102625 151.530319 
L 197.444875 133.846424 
L 243.787125 121.303257 
L 290.129375 111.810289 
L 336.471625 104.081042 
L 382.813875 97.714355 
L 429.156125 92.205322 
L 475.498375 87.782186 
L 521.840625 83.758482 
L 568.182875 80.334789 
L 614.525125 77.301881 
L 660.867375 74.562926 
L 707.209625 72.135216 
L 753.551875 69.992814 
L 799.894125 68.087304 
L 846.236375 66.557017 
L 892.578625 65.254976 
L 938.920875 64.124119 
L 985.263125 63.173093 
" style="fill:none;stroke:#f45b5b;stroke-linecap:square;"/>
   </g>
   <g id="line2d_68">
    <path clip-path="url(#p1a9408694c)" d="M 58.418125 353.2239 
L 985.263125 353.2239 
" style="fill:none;stroke:#dedede;stroke-linecap:square;stroke-width:2;"/>
   </g>
   <g id="text_17">
    <!-- RSeQC: Junction Saturation -->
    <defs>
     <path d="M 44.390625 34.1875 
Q 47.5625 33.109375 50.5625 29.59375 
Q 53.5625 26.078125 56.59375 19.921875 
L 66.609375 0 
L 56 0 
L 46.6875 18.703125 
Q 43.0625 26.03125 39.671875 28.421875 
Q 36.28125 30.8125 30.421875 30.8125 
L 19.671875 30.8125 
L 19.671875 0 
L 9.8125 0 
L 9.8125 72.90625 
L 32.078125 72.90625 
Q 44.578125 72.90625 50.734375 67.671875 
Q 56.890625 62.453125 56.890625 51.90625 
Q 56.890625 45.015625 53.6875 40.46875 
Q 50.484375 35.9375 44.390625 34.1875 
z
M 19.671875 64.796875 
L 19.671875 38.921875 
L 32.078125 38.921875 
Q 39.203125 38.921875 42.84375 42.21875 
Q 46.484375 45.515625 46.484375 51.90625 
Q 46.484375 58.296875 42.84375 61.546875 
Q 39.203125 64.796875 32.078125 64.796875 
z
" id="DejaVuSans-82"/>
     <path d="M 53.515625 70.515625 
L 53.515625 60.890625 
Q 47.90625 63.578125 42.921875 64.890625 
Q 37.9375 66.21875 33.296875 66.21875 
Q 25.25 66.21875 20.875 63.09375 
Q 16.5 59.96875 16.5 54.203125 
Q 16.5 49.359375 19.40625 46.890625 
Q 22.3125 44.4375 30.421875 42.921875 
L 36.375 41.703125 
Q 47.40625 39.59375 52.65625 34.296875 
Q 57.90625 29 57.90625 20.125 
Q 57.90625 9.515625 50.796875 4.046875 
Q 43.703125 -1.421875 29.984375 -1.421875 
Q 24.8125 -1.421875 18.96875 -0.25 
Q 13.140625 0.921875 6.890625 3.21875 
L 6.890625 13.375 
Q 12.890625 10.015625 18.65625 8.296875 
Q 24.421875 6.59375 29.984375 6.59375 
Q 38.421875 6.59375 43.015625 9.90625 
Q 47.609375 13.234375 47.609375 19.390625 
Q 47.609375 24.75 44.3125 27.78125 
Q 41.015625 30.8125 33.5 32.328125 
L 27.484375 33.5 
Q 16.453125 35.6875 11.515625 40.375 
Q 6.59375 45.0625 6.59375 53.421875 
Q 6.59375 63.09375 13.40625 68.65625 
Q 20.21875 74.21875 32.171875 74.21875 
Q 37.3125 74.21875 42.625 73.28125 
Q 47.953125 72.359375 53.515625 70.515625 
z
" id="DejaVuSans-83"/>
     <path d="M 39.40625 66.21875 
Q 28.65625 66.21875 22.328125 58.203125 
Q 16.015625 50.203125 16.015625 36.375 
Q 16.015625 22.609375 22.328125 14.59375 
Q 28.65625 6.59375 39.40625 6.59375 
Q 50.140625 6.59375 56.421875 14.59375 
Q 62.703125 22.609375 62.703125 36.375 
Q 62.703125 50.203125 56.421875 58.203125 
Q 50.140625 66.21875 39.40625 66.21875 
z
M 53.21875 1.3125 
L 66.21875 -12.890625 
L 54.296875 -12.890625 
L 43.5 -1.21875 
Q 41.890625 -1.3125 41.03125 -1.359375 
Q 40.1875 -1.421875 39.40625 -1.421875 
Q 24.03125 -1.421875 14.8125 8.859375 
Q 5.609375 19.140625 5.609375 36.375 
Q 5.609375 53.65625 14.8125 63.9375 
Q 24.03125 74.21875 39.40625 74.21875 
Q 54.734375 74.21875 63.90625 63.9375 
Q 73.09375 53.65625 73.09375 36.375 
Q 73.09375 23.6875 67.984375 14.640625 
Q 62.890625 5.609375 53.21875 1.3125 
z
" id="DejaVuSans-81"/>
     <path d="M 64.40625 67.28125 
L 64.40625 56.890625 
Q 59.421875 61.53125 53.78125 63.8125 
Q 48.140625 66.109375 41.796875 66.109375 
Q 29.296875 66.109375 22.65625 58.46875 
Q 16.015625 50.828125 16.015625 36.375 
Q 16.015625 21.96875 22.65625 14.328125 
Q 29.296875 6.6875 41.796875 6.6875 
Q 48.140625 6.6875 53.78125 8.984375 
Q 59.421875 11.28125 64.40625 15.921875 
L 64.40625 5.609375 
Q 59.234375 2.09375 53.4375 0.328125 
Q 47.65625 -1.421875 41.21875 -1.421875 
Q 24.65625 -1.421875 15.125 8.703125 
Q 5.609375 18.84375 5.609375 36.375 
Q 5.609375 53.953125 15.125 64.078125 
Q 24.65625 74.21875 41.21875 74.21875 
Q 47.75 74.21875 53.53125 72.484375 
Q 59.328125 70.75 64.40625 67.28125 
z
" id="DejaVuSans-67"/>
     <path d="M 11.71875 12.40625 
L 22.015625 12.40625 
L 22.015625 0 
L 11.71875 0 
z
M 11.71875 51.703125 
L 22.015625 51.703125 
L 22.015625 39.3125 
L 11.71875 39.3125 
z
" id="DejaVuSans-58"/>
    </defs>
    <g transform="translate(412.691875 19.3575)scale(0.16 -0.16)">
     <use xlink:href="#DejaVuSans-82"/>
     <use x="69.482422" xlink:href="#DejaVuSans-83"/>
     <use x="132.958984" xlink:href="#DejaVuSans-101"/>
     <use x="194.482422" xlink:href="#DejaVuSans-81"/>
     <use x="273.193359" xlink:href="#DejaVuSans-67"/>
     <use x="343.017578" xlink:href="#DejaVuSans-58"/>
     <use x="376.708984" xlink:href="#DejaVuSans-32"/>
     <use x="408.496094" xlink:href="#DejaVuSans-74"/>
     <use x="437.988281" xlink:href="#DejaVuSans-117"/>
     <use x="501.367188" xlink:href="#DejaVuSans-110"/>
     <use x="564.746094" xlink:href="#DejaVuSans-99"/>
     <use x="619.726562" xlink:href="#DejaVuSans-116"/>
     <use x="658.935547" xlink:href="#DejaVuSans-105"/>
     <use x="686.71875" xlink:href="#DejaVuSans-111"/>
     <use x="747.900391" xlink:href="#DejaVuSans-110"/>
     <use x="811.279297" xlink:href="#DejaVuSans-32"/>
     <use x="843.066406" xlink:href="#DejaVuSans-83"/>
     <use x="906.542969" xlink:href="#DejaVuSans-97"/>
     <use x="967.822266" xlink:href="#DejaVuSans-116"/>
     <use x="1007.03125" xlink:href="#DejaVuSans-117"/>
     <use x="1070.410156" xlink:href="#DejaVuSans-114"/>
     <use x="1111.523438" xlink:href="#DejaVuSans-97"/>
     <use x="1172.802734" xlink:href="#DejaVuSans-116"/>
     <use x="1212.011719" xlink:href="#DejaVuSans-105"/>
     <use x="1239.794922" xlink:href="#DejaVuSans-111"/>
     <use x="1300.976562" xlink:href="#DejaVuSans-110"/>
    </g>
   </g>
  </g>
 </g>
 <defs>
  <clipPath id="p1a9408694c">
   <rect height="317.968" width="926.845" x="58.418125" y="35.2559"/>
  </clipPath>
 </defs>
</svg>
