<?xml version="1.0" encoding="utf-8" standalone="no"?>
<!DOCTYPE svg PUBLIC "-//W3C//DTD SVG 1.1//EN"
  "http://www.w3.org/Graphics/SVG/1.1/DTD/svg11.dtd">
<!-- Created with matplotlib (https://matplotlib.org/) -->
<svg height="388.844525pt" version="1.1" viewBox="0 0 1001.258125 388.844525" width="1001.258125pt" xmlns="http://www.w3.org/2000/svg" xmlns:xlink="http://www.w3.org/1999/xlink">
 <defs>
  <style type="text/css">
*{stroke-linecap:butt;stroke-linejoin:round;}
  </style>
 </defs>
 <g id="figure_1">
  <g id="patch_1">
   <path d="M 0 388.844525 
L 1001.258125 388.844525 
L 1001.258125 0 
L 0 0 
z
" style="fill:#ffffff;"/>
  </g>
  <g id="axes_1">
   <g id="patch_2">
    <path d="M 43.148125 353.2239 
L 990.558125 353.2239 
L 990.558125 35.2559 
L 43.148125 35.2559 
z
" style="fill:#ffffff;"/>
   </g>
   <g id="matplotlib.axis_1">
    <g id="xtick_1">
     <g id="text_1">
      <!-- 1.0 -->
      <defs>
       <path d="M 12.40625 8.296875 
L 28.515625 8.296875 
L 28.515625 63.921875 
L 10.984375 60.40625 
L 10.984375 69.390625 
L 28.421875 72.90625 
L 38.28125 72.90625 
L 38.28125 8.296875 
L 54.390625 8.296875 
L 54.390625 0 
L 12.40625 0 
z
" id="DejaVuSans-49"/>
       <path d="M 10.6875 12.40625 
L 21 12.40625 
L 21 0 
L 10.6875 0 
z
" id="DejaVuSans-46"/>
       <path d="M 31.78125 66.40625 
Q 24.171875 66.40625 20.328125 58.90625 
Q 16.5 51.421875 16.5 36.375 
Q 16.5 21.390625 20.328125 13.890625 
Q 24.171875 6.390625 31.78125 6.390625 
Q 39.453125 6.390625 43.28125 13.890625 
Q 47.125 21.390625 47.125 36.375 
Q 47.125 51.421875 43.28125 58.90625 
Q 39.453125 66.40625 31.78125 66.40625 
z
M 31.78125 74.21875 
Q 44.046875 74.21875 50.515625 64.515625 
Q 56.984375 54.828125 56.984375 36.375 
Q 56.984375 17.96875 50.515625 8.265625 
Q 44.046875 -1.421875 31.78125 -1.421875 
Q 19.53125 -1.421875 13.0625 8.265625 
Q 6.59375 17.96875 6.59375 36.375 
Q 6.59375 54.828125 13.0625 64.515625 
Q 19.53125 74.21875 31.78125 74.21875 
z
" id="DejaVuSans-48"/>
      </defs>
      <g transform="translate(79.850966 366.30265)scale(0.08 -0.08)">
       <use xlink:href="#DejaVuSans-49"/>
       <use x="63.623047" xlink:href="#DejaVuSans-46"/>
       <use x="95.410156" xlink:href="#DejaVuSans-48"/>
      </g>
     </g>
    </g>
    <g id="xtick_2">
     <g id="text_2">
      <!-- 2.0 -->
      <defs>
       <path d="M 19.1875 8.296875 
L 53.609375 8.296875 
L 53.609375 0 
L 7.328125 0 
L 7.328125 8.296875 
Q 12.9375 14.109375 22.625 23.890625 
Q 32.328125 33.6875 34.8125 36.53125 
Q 39.546875 41.84375 41.421875 45.53125 
Q 43.3125 49.21875 43.3125 52.78125 
Q 43.3125 58.59375 39.234375 62.25 
Q 35.15625 65.921875 28.609375 65.921875 
Q 23.96875 65.921875 18.8125 64.3125 
Q 13.671875 62.703125 7.8125 59.421875 
L 7.8125 69.390625 
Q 13.765625 71.78125 18.9375 73 
Q 24.125 74.21875 28.421875 74.21875 
Q 39.75 74.21875 46.484375 68.546875 
Q 53.21875 62.890625 53.21875 53.421875 
Q 53.21875 48.921875 51.53125 44.890625 
Q 49.859375 40.875 45.40625 35.40625 
Q 44.1875 33.984375 37.640625 27.21875 
Q 31.109375 20.453125 19.1875 8.296875 
z
" id="DejaVuSans-50"/>
      </defs>
      <g transform="translate(137.269754 366.30265)scale(0.08 -0.08)">
       <use xlink:href="#DejaVuSans-50"/>
       <use x="63.623047" xlink:href="#DejaVuSans-46"/>
       <use x="95.410156" xlink:href="#DejaVuSans-48"/>
      </g>
     </g>
    </g>
    <g id="xtick_3">
     <g id="text_3">
      <!-- 3.0 -->
      <defs>
       <path d="M 40.578125 39.3125 
Q 47.65625 37.796875 51.625 33 
Q 55.609375 28.21875 55.609375 21.1875 
Q 55.609375 10.40625 48.1875 4.484375 
Q 40.765625 -1.421875 27.09375 -1.421875 
Q 22.515625 -1.421875 17.65625 -0.515625 
Q 12.796875 0.390625 7.625 2.203125 
L 7.625 11.71875 
Q 11.71875 9.328125 16.59375 8.109375 
Q 21.484375 6.890625 26.8125 6.890625 
Q 36.078125 6.890625 40.9375 10.546875 
Q 45.796875 14.203125 45.796875 21.1875 
Q 45.796875 27.640625 41.28125 31.265625 
Q 36.765625 34.90625 28.71875 34.90625 
L 20.21875 34.90625 
L 20.21875 43.015625 
L 29.109375 43.015625 
Q 36.375 43.015625 40.234375 45.921875 
Q 44.09375 48.828125 44.09375 54.296875 
Q 44.09375 59.90625 40.109375 62.90625 
Q 36.140625 65.921875 28.71875 65.921875 
Q 24.65625 65.921875 20.015625 65.03125 
Q 15.375 64.15625 9.8125 62.3125 
L 9.8125 71.09375 
Q 15.4375 72.65625 20.34375 73.4375 
Q 25.25 74.21875 29.59375 74.21875 
Q 40.828125 74.21875 47.359375 69.109375 
Q 53.90625 64.015625 53.90625 55.328125 
Q 53.90625 49.265625 50.4375 45.09375 
Q 46.96875 40.921875 40.578125 39.3125 
z
" id="DejaVuSans-51"/>
      </defs>
      <g transform="translate(194.688542 366.30265)scale(0.08 -0.08)">
       <use xlink:href="#DejaVuSans-51"/>
       <use x="63.623047" xlink:href="#DejaVuSans-46"/>
       <use x="95.410156" xlink:href="#DejaVuSans-48"/>
      </g>
     </g>
    </g>
    <g id="xtick_4">
     <g id="text_4">
      <!-- 4.0 -->
      <defs>
       <path d="M 37.796875 64.3125 
L 12.890625 25.390625 
L 37.796875 25.390625 
z
M 35.203125 72.90625 
L 47.609375 72.90625 
L 47.609375 25.390625 
L 58.015625 25.390625 
L 58.015625 17.1875 
L 47.609375 17.1875 
L 47.609375 0 
L 37.796875 0 
L 37.796875 17.1875 
L 4.890625 17.1875 
L 4.890625 26.703125 
z
" id="DejaVuSans-52"/>
      </defs>
      <g transform="translate(252.10733 366.30265)scale(0.08 -0.08)">
       <use xlink:href="#DejaVuSans-52"/>
       <use x="63.623047" xlink:href="#DejaVuSans-46"/>
       <use x="95.410156" xlink:href="#DejaVuSans-48"/>
      </g>
     </g>
    </g>
    <g id="xtick_5">
     <g id="text_5">
      <!-- 5.0 -->
      <defs>
       <path d="M 10.796875 72.90625 
L 49.515625 72.90625 
L 49.515625 64.59375 
L 19.828125 64.59375 
L 19.828125 46.734375 
Q 21.96875 47.46875 24.109375 47.828125 
Q 26.265625 48.1875 28.421875 48.1875 
Q 40.625 48.1875 47.75 41.5 
Q 54.890625 34.8125 54.890625 23.390625 
Q 54.890625 11.625 47.5625 5.09375 
Q 40.234375 -1.421875 26.90625 -1.421875 
Q 22.3125 -1.421875 17.546875 -0.640625 
Q 12.796875 0.140625 7.71875 1.703125 
L 7.71875 11.625 
Q 12.109375 9.234375 16.796875 8.0625 
Q 21.484375 6.890625 26.703125 6.890625 
Q 35.15625 6.890625 40.078125 11.328125 
Q 45.015625 15.765625 45.015625 23.390625 
Q 45.015625 31 40.078125 35.4375 
Q 35.15625 39.890625 26.703125 39.890625 
Q 22.75 39.890625 18.8125 39.015625 
Q 14.890625 38.140625 10.796875 36.28125 
z
" id="DejaVuSans-53"/>
      </defs>
      <g transform="translate(309.526117 366.30265)scale(0.08 -0.08)">
       <use xlink:href="#DejaVuSans-53"/>
       <use x="63.623047" xlink:href="#DejaVuSans-46"/>
       <use x="95.410156" xlink:href="#DejaVuSans-48"/>
      </g>
     </g>
    </g>
    <g id="xtick_6">
     <g id="text_6">
      <!-- 6.0 -->
      <defs>
       <path d="M 33.015625 40.375 
Q 26.375 40.375 22.484375 35.828125 
Q 18.609375 31.296875 18.609375 23.390625 
Q 18.609375 15.53125 22.484375 10.953125 
Q 26.375 6.390625 33.015625 6.390625 
Q 39.65625 6.390625 43.53125 10.953125 
Q 47.40625 15.53125 47.40625 23.390625 
Q 47.40625 31.296875 43.53125 35.828125 
Q 39.65625 40.375 33.015625 40.375 
z
M 52.59375 71.296875 
L 52.59375 62.3125 
Q 48.875 64.0625 45.09375 64.984375 
Q 41.3125 65.921875 37.59375 65.921875 
Q 27.828125 65.921875 22.671875 59.328125 
Q 17.53125 52.734375 16.796875 39.40625 
Q 19.671875 43.65625 24.015625 45.921875 
Q 28.375 48.1875 33.59375 48.1875 
Q 44.578125 48.1875 50.953125 41.515625 
Q 57.328125 34.859375 57.328125 23.390625 
Q 57.328125 12.15625 50.6875 5.359375 
Q 44.046875 -1.421875 33.015625 -1.421875 
Q 20.359375 -1.421875 13.671875 8.265625 
Q 6.984375 17.96875 6.984375 36.375 
Q 6.984375 53.65625 15.1875 63.9375 
Q 23.390625 74.21875 37.203125 74.21875 
Q 40.921875 74.21875 44.703125 73.484375 
Q 48.484375 72.75 52.59375 71.296875 
z
" id="DejaVuSans-54"/>
      </defs>
      <g transform="translate(366.944905 366.30265)scale(0.08 -0.08)">
       <use xlink:href="#DejaVuSans-54"/>
       <use x="63.623047" xlink:href="#DejaVuSans-46"/>
       <use x="95.410156" xlink:href="#DejaVuSans-48"/>
      </g>
     </g>
    </g>
    <g id="xtick_7">
     <g id="text_7">
      <!-- 7.0 -->
      <defs>
       <path d="M 8.203125 72.90625 
L 55.078125 72.90625 
L 55.078125 68.703125 
L 28.609375 0 
L 18.3125 0 
L 43.21875 64.59375 
L 8.203125 64.59375 
z
" id="DejaVuSans-55"/>
      </defs>
      <g transform="translate(424.363693 366.30265)scale(0.08 -0.08)">
       <use xlink:href="#DejaVuSans-55"/>
       <use x="63.623047" xlink:href="#DejaVuSans-46"/>
       <use x="95.410156" xlink:href="#DejaVuSans-48"/>
      </g>
     </g>
    </g>
    <g id="xtick_8">
     <g id="text_8">
      <!-- 8.0 -->
      <defs>
       <path d="M 31.78125 34.625 
Q 24.75 34.625 20.71875 30.859375 
Q 16.703125 27.09375 16.703125 20.515625 
Q 16.703125 13.921875 20.71875 10.15625 
Q 24.75 6.390625 31.78125 6.390625 
Q 38.8125 6.390625 42.859375 10.171875 
Q 46.921875 13.96875 46.921875 20.515625 
Q 46.921875 27.09375 42.890625 30.859375 
Q 38.875 34.625 31.78125 34.625 
z
M 21.921875 38.8125 
Q 15.578125 40.375 12.03125 44.71875 
Q 8.5 49.078125 8.5 55.328125 
Q 8.5 64.0625 14.71875 69.140625 
Q 20.953125 74.21875 31.78125 74.21875 
Q 42.671875 74.21875 48.875 69.140625 
Q 55.078125 64.0625 55.078125 55.328125 
Q 55.078125 49.078125 51.53125 44.71875 
Q 48 40.375 41.703125 38.8125 
Q 48.828125 37.15625 52.796875 32.3125 
Q 56.78125 27.484375 56.78125 20.515625 
Q 56.78125 9.90625 50.3125 4.234375 
Q 43.84375 -1.421875 31.78125 -1.421875 
Q 19.734375 -1.421875 13.25 4.234375 
Q 6.78125 9.90625 6.78125 20.515625 
Q 6.78125 27.484375 10.78125 32.3125 
Q 14.796875 37.15625 21.921875 38.8125 
z
M 18.3125 54.390625 
Q 18.3125 48.734375 21.84375 45.5625 
Q 25.390625 42.390625 31.78125 42.390625 
Q 38.140625 42.390625 41.71875 45.5625 
Q 45.3125 48.734375 45.3125 54.390625 
Q 45.3125 60.0625 41.71875 63.234375 
Q 38.140625 66.40625 31.78125 66.40625 
Q 25.390625 66.40625 21.84375 63.234375 
Q 18.3125 60.0625 18.3125 54.390625 
z
" id="DejaVuSans-56"/>
      </defs>
      <g transform="translate(481.782481 366.30265)scale(0.08 -0.08)">
       <use xlink:href="#DejaVuSans-56"/>
       <use x="63.623047" xlink:href="#DejaVuSans-46"/>
       <use x="95.410156" xlink:href="#DejaVuSans-48"/>
      </g>
     </g>
    </g>
    <g id="xtick_9">
     <g id="text_9">
      <!-- 9.0 -->
      <defs>
       <path d="M 10.984375 1.515625 
L 10.984375 10.5 
Q 14.703125 8.734375 18.5 7.8125 
Q 22.3125 6.890625 25.984375 6.890625 
Q 35.75 6.890625 40.890625 13.453125 
Q 46.046875 20.015625 46.78125 33.40625 
Q 43.953125 29.203125 39.59375 26.953125 
Q 35.25 24.703125 29.984375 24.703125 
Q 19.046875 24.703125 12.671875 31.3125 
Q 6.296875 37.9375 6.296875 49.421875 
Q 6.296875 60.640625 12.9375 67.421875 
Q 19.578125 74.21875 30.609375 74.21875 
Q 43.265625 74.21875 49.921875 64.515625 
Q 56.59375 54.828125 56.59375 36.375 
Q 56.59375 19.140625 48.40625 8.859375 
Q 40.234375 -1.421875 26.421875 -1.421875 
Q 22.703125 -1.421875 18.890625 -0.6875 
Q 15.09375 0.046875 10.984375 1.515625 
z
M 30.609375 32.421875 
Q 37.25 32.421875 41.125 36.953125 
Q 45.015625 41.5 45.015625 49.421875 
Q 45.015625 57.28125 41.125 61.84375 
Q 37.25 66.40625 30.609375 66.40625 
Q 23.96875 66.40625 20.09375 61.84375 
Q 16.21875 57.28125 16.21875 49.421875 
Q 16.21875 41.5 20.09375 36.953125 
Q 23.96875 32.421875 30.609375 32.421875 
z
" id="DejaVuSans-57"/>
      </defs>
      <g transform="translate(539.201269 366.30265)scale(0.08 -0.08)">
       <use xlink:href="#DejaVuSans-57"/>
       <use x="63.623047" xlink:href="#DejaVuSans-46"/>
       <use x="95.410156" xlink:href="#DejaVuSans-48"/>
      </g>
     </g>
    </g>
    <g id="xtick_10">
     <g id="text_10">
      <!-- &gt;10 -->
      <defs>
       <path d="M 10.59375 49.21875 
L 10.59375 58.109375 
L 73.1875 35.40625 
L 73.1875 27.296875 
L 10.59375 4.59375 
L 10.59375 13.484375 
L 60.890625 31.296875 
z
" id="DejaVuSans-62"/>
      </defs>
      <g transform="translate(594.539432 366.30265)scale(0.08 -0.08)">
       <use xlink:href="#DejaVuSans-62"/>
       <use x="83.789062" xlink:href="#DejaVuSans-49"/>
       <use x="147.412109" xlink:href="#DejaVuSans-48"/>
      </g>
     </g>
    </g>
    <g id="xtick_11">
     <g id="text_11">
      <!-- &gt;50 -->
      <g transform="translate(651.95822 366.30265)scale(0.08 -0.08)">
       <use xlink:href="#DejaVuSans-62"/>
       <use x="83.789062" xlink:href="#DejaVuSans-53"/>
       <use x="147.412109" xlink:href="#DejaVuSans-48"/>
      </g>
     </g>
    </g>
    <g id="xtick_12">
     <g id="text_12">
      <!-- &gt;100 -->
      <g transform="translate(706.832008 366.30265)scale(0.08 -0.08)">
       <use xlink:href="#DejaVuSans-62"/>
       <use x="83.789062" xlink:href="#DejaVuSans-49"/>
       <use x="147.412109" xlink:href="#DejaVuSans-48"/>
       <use x="211.035156" xlink:href="#DejaVuSans-48"/>
      </g>
     </g>
    </g>
    <g id="xtick_13">
     <g id="text_13">
      <!-- &gt;500 -->
      <g transform="translate(764.250795 366.30265)scale(0.08 -0.08)">
       <use xlink:href="#DejaVuSans-62"/>
       <use x="83.789062" xlink:href="#DejaVuSans-53"/>
       <use x="147.412109" xlink:href="#DejaVuSans-48"/>
       <use x="211.035156" xlink:href="#DejaVuSans-48"/>
      </g>
     </g>
    </g>
    <g id="xtick_14">
     <g id="text_14">
      <!-- &gt;1k -->
      <defs>
       <path d="M 9.078125 75.984375 
L 18.109375 75.984375 
L 18.109375 31.109375 
L 44.921875 54.6875 
L 56.390625 54.6875 
L 27.390625 29.109375 
L 57.625 0 
L 45.90625 0 
L 18.109375 26.703125 
L 18.109375 0 
L 9.078125 0 
z
" id="DejaVuSans-107"/>
      </defs>
      <g transform="translate(824.443333 366.30265)scale(0.08 -0.08)">
       <use xlink:href="#DejaVuSans-62"/>
       <use x="83.789062" xlink:href="#DejaVuSans-49"/>
       <use x="147.412109" xlink:href="#DejaVuSans-107"/>
      </g>
     </g>
    </g>
    <g id="xtick_15">
     <g id="text_15">
      <!-- &gt;5k -->
      <g transform="translate(881.862121 366.30265)scale(0.08 -0.08)">
       <use xlink:href="#DejaVuSans-62"/>
       <use x="83.789062" xlink:href="#DejaVuSans-53"/>
       <use x="147.412109" xlink:href="#DejaVuSans-107"/>
      </g>
     </g>
    </g>
    <g id="xtick_16">
     <g id="text_16">
      <!-- &gt;10k+ -->
      <defs>
       <path d="M 46 62.703125 
L 46 35.5 
L 73.1875 35.5 
L 73.1875 27.203125 
L 46 27.203125 
L 46 0 
L 37.796875 0 
L 37.796875 27.203125 
L 10.59375 27.203125 
L 10.59375 35.5 
L 37.796875 35.5 
L 37.796875 62.703125 
z
" id="DejaVuSans-43"/>
      </defs>
      <g transform="translate(933.384034 366.30265)scale(0.08 -0.08)">
       <use xlink:href="#DejaVuSans-62"/>
       <use x="83.789062" xlink:href="#DejaVuSans-49"/>
       <use x="147.412109" xlink:href="#DejaVuSans-48"/>
       <use x="211.035156" xlink:href="#DejaVuSans-107"/>
       <use x="268.945312" xlink:href="#DejaVuSans-43"/>
      </g>
     </g>
    </g>
    <g id="text_17">
     <!-- Sequence Duplication Level -->
     <defs>
      <path d="M 53.515625 70.515625 
L 53.515625 60.890625 
Q 47.90625 63.578125 42.921875 64.890625 
Q 37.9375 66.21875 33.296875 66.21875 
Q 25.25 66.21875 20.875 63.09375 
Q 16.5 59.96875 16.5 54.203125 
Q 16.5 49.359375 19.40625 46.890625 
Q 22.3125 44.4375 30.421875 42.921875 
L 36.375 41.703125 
Q 47.40625 39.59375 52.65625 34.296875 
Q 57.90625 29 57.90625 20.125 
Q 57.90625 9.515625 50.796875 4.046875 
Q 43.703125 -1.421875 29.984375 -1.421875 
Q 24.8125 -1.421875 18.96875 -0.25 
Q 13.140625 0.921875 6.890625 3.21875 
L 6.890625 13.375 
Q 12.890625 10.015625 18.65625 8.296875 
Q 24.421875 6.59375 29.984375 6.59375 
Q 38.421875 6.59375 43.015625 9.90625 
Q 47.609375 13.234375 47.609375 19.390625 
Q 47.609375 24.75 44.3125 27.78125 
Q 41.015625 30.8125 33.5 32.328125 
L 27.484375 33.5 
Q 16.453125 35.6875 11.515625 40.375 
Q 6.59375 45.0625 6.59375 53.421875 
Q 6.59375 63.09375 13.40625 68.65625 
Q 20.21875 74.21875 32.171875 74.21875 
Q 37.3125 74.21875 42.625 73.28125 
Q 47.953125 72.359375 53.515625 70.515625 
z
" id="DejaVuSans-83"/>
      <path d="M 56.203125 29.59375 
L 56.203125 25.203125 
L 14.890625 25.203125 
Q 15.484375 15.921875 20.484375 11.0625 
Q 25.484375 6.203125 34.421875 6.203125 
Q 39.59375 6.203125 44.453125 7.46875 
Q 49.3125 8.734375 54.109375 11.28125 
L 54.109375 2.78125 
Q 49.265625 0.734375 44.1875 -0.34375 
Q 39.109375 -1.421875 33.890625 -1.421875 
Q 20.796875 -1.421875 13.15625 6.1875 
Q 5.515625 13.8125 5.515625 26.8125 
Q 5.515625 40.234375 12.765625 48.109375 
Q 20.015625 56 32.328125 56 
Q 43.359375 56 49.78125 48.890625 
Q 56.203125 41.796875 56.203125 29.59375 
z
M 47.21875 32.234375 
Q 47.125 39.59375 43.09375 43.984375 
Q 39.0625 48.390625 32.421875 48.390625 
Q 24.90625 48.390625 20.390625 44.140625 
Q 15.875 39.890625 15.1875 32.171875 
z
" id="DejaVuSans-101"/>
      <path d="M 14.796875 27.296875 
Q 14.796875 17.390625 18.875 11.75 
Q 22.953125 6.109375 30.078125 6.109375 
Q 37.203125 6.109375 41.296875 11.75 
Q 45.40625 17.390625 45.40625 27.296875 
Q 45.40625 37.203125 41.296875 42.84375 
Q 37.203125 48.484375 30.078125 48.484375 
Q 22.953125 48.484375 18.875 42.84375 
Q 14.796875 37.203125 14.796875 27.296875 
z
M 45.40625 8.203125 
Q 42.578125 3.328125 38.25 0.953125 
Q 33.9375 -1.421875 27.875 -1.421875 
Q 17.96875 -1.421875 11.734375 6.484375 
Q 5.515625 14.40625 5.515625 27.296875 
Q 5.515625 40.1875 11.734375 48.09375 
Q 17.96875 56 27.875 56 
Q 33.9375 56 38.25 53.625 
Q 42.578125 51.265625 45.40625 46.390625 
L 45.40625 54.6875 
L 54.390625 54.6875 
L 54.390625 -20.796875 
L 45.40625 -20.796875 
z
" id="DejaVuSans-113"/>
      <path d="M 8.5 21.578125 
L 8.5 54.6875 
L 17.484375 54.6875 
L 17.484375 21.921875 
Q 17.484375 14.15625 20.5 10.265625 
Q 23.53125 6.390625 29.59375 6.390625 
Q 36.859375 6.390625 41.078125 11.03125 
Q 45.3125 15.671875 45.3125 23.6875 
L 45.3125 54.6875 
L 54.296875 54.6875 
L 54.296875 0 
L 45.3125 0 
L 45.3125 8.40625 
Q 42.046875 3.421875 37.71875 1 
Q 33.40625 -1.421875 27.6875 -1.421875 
Q 18.265625 -1.421875 13.375 4.4375 
Q 8.5 10.296875 8.5 21.578125 
z
M 31.109375 56 
z
" id="DejaVuSans-117"/>
      <path d="M 54.890625 33.015625 
L 54.890625 0 
L 45.90625 0 
L 45.90625 32.71875 
Q 45.90625 40.484375 42.875 44.328125 
Q 39.84375 48.1875 33.796875 48.1875 
Q 26.515625 48.1875 22.3125 43.546875 
Q 18.109375 38.921875 18.109375 30.90625 
L 18.109375 0 
L 9.078125 0 
L 9.078125 54.6875 
L 18.109375 54.6875 
L 18.109375 46.1875 
Q 21.34375 51.125 25.703125 53.5625 
Q 30.078125 56 35.796875 56 
Q 45.21875 56 50.046875 50.171875 
Q 54.890625 44.34375 54.890625 33.015625 
z
" id="DejaVuSans-110"/>
      <path d="M 48.78125 52.59375 
L 48.78125 44.1875 
Q 44.96875 46.296875 41.140625 47.34375 
Q 37.3125 48.390625 33.40625 48.390625 
Q 24.65625 48.390625 19.8125 42.84375 
Q 14.984375 37.3125 14.984375 27.296875 
Q 14.984375 17.28125 19.8125 11.734375 
Q 24.65625 6.203125 33.40625 6.203125 
Q 37.3125 6.203125 41.140625 7.25 
Q 44.96875 8.296875 48.78125 10.40625 
L 48.78125 2.09375 
Q 45.015625 0.34375 40.984375 -0.53125 
Q 36.96875 -1.421875 32.421875 -1.421875 
Q 20.0625 -1.421875 12.78125 6.34375 
Q 5.515625 14.109375 5.515625 27.296875 
Q 5.515625 40.671875 12.859375 48.328125 
Q 20.21875 56 33.015625 56 
Q 37.15625 56 41.109375 55.140625 
Q 45.0625 54.296875 48.78125 52.59375 
z
" id="DejaVuSans-99"/>
      <path id="DejaVuSans-32"/>
      <path d="M 19.671875 64.796875 
L 19.671875 8.109375 
L 31.59375 8.109375 
Q 46.6875 8.109375 53.6875 14.9375 
Q 60.6875 21.78125 60.6875 36.53125 
Q 60.6875 51.171875 53.6875 57.984375 
Q 46.6875 64.796875 31.59375 64.796875 
z
M 9.8125 72.90625 
L 30.078125 72.90625 
Q 51.265625 72.90625 61.171875 64.09375 
Q 71.09375 55.28125 71.09375 36.53125 
Q 71.09375 17.671875 61.125 8.828125 
Q 51.171875 0 30.078125 0 
L 9.8125 0 
z
" id="DejaVuSans-68"/>
      <path d="M 18.109375 8.203125 
L 18.109375 -20.796875 
L 9.078125 -20.796875 
L 9.078125 54.6875 
L 18.109375 54.6875 
L 18.109375 46.390625 
Q 20.953125 51.265625 25.265625 53.625 
Q 29.59375 56 35.59375 56 
Q 45.5625 56 51.78125 48.09375 
Q 58.015625 40.1875 58.015625 27.296875 
Q 58.015625 14.40625 51.78125 6.484375 
Q 45.5625 -1.421875 35.59375 -1.421875 
Q 29.59375 -1.421875 25.265625 0.953125 
Q 20.953125 3.328125 18.109375 8.203125 
z
M 48.6875 27.296875 
Q 48.6875 37.203125 44.609375 42.84375 
Q 40.53125 48.484375 33.40625 48.484375 
Q 26.265625 48.484375 22.1875 42.84375 
Q 18.109375 37.203125 18.109375 27.296875 
Q 18.109375 17.390625 22.1875 11.75 
Q 26.265625 6.109375 33.40625 6.109375 
Q 40.53125 6.109375 44.609375 11.75 
Q 48.6875 17.390625 48.6875 27.296875 
z
" id="DejaVuSans-112"/>
      <path d="M 9.421875 75.984375 
L 18.40625 75.984375 
L 18.40625 0 
L 9.421875 0 
z
" id="DejaVuSans-108"/>
      <path d="M 9.421875 54.6875 
L 18.40625 54.6875 
L 18.40625 0 
L 9.421875 0 
z
M 9.421875 75.984375 
L 18.40625 75.984375 
L 18.40625 64.59375 
L 9.421875 64.59375 
z
" id="DejaVuSans-105"/>
      <path d="M 34.28125 27.484375 
Q 23.390625 27.484375 19.1875 25 
Q 14.984375 22.515625 14.984375 16.5 
Q 14.984375 11.71875 18.140625 8.90625 
Q 21.296875 6.109375 26.703125 6.109375 
Q 34.1875 6.109375 38.703125 11.40625 
Q 43.21875 16.703125 43.21875 25.484375 
L 43.21875 27.484375 
z
M 52.203125 31.203125 
L 52.203125 0 
L 43.21875 0 
L 43.21875 8.296875 
Q 40.140625 3.328125 35.546875 0.953125 
Q 30.953125 -1.421875 24.3125 -1.421875 
Q 15.921875 -1.421875 10.953125 3.296875 
Q 6 8.015625 6 15.921875 
Q 6 25.140625 12.171875 29.828125 
Q 18.359375 34.515625 30.609375 34.515625 
L 43.21875 34.515625 
L 43.21875 35.40625 
Q 43.21875 41.609375 39.140625 45 
Q 35.0625 48.390625 27.6875 48.390625 
Q 23 48.390625 18.546875 47.265625 
Q 14.109375 46.140625 10.015625 43.890625 
L 10.015625 52.203125 
Q 14.9375 54.109375 19.578125 55.046875 
Q 24.21875 56 28.609375 56 
Q 40.484375 56 46.34375 49.84375 
Q 52.203125 43.703125 52.203125 31.203125 
z
" id="DejaVuSans-97"/>
      <path d="M 18.3125 70.21875 
L 18.3125 54.6875 
L 36.8125 54.6875 
L 36.8125 47.703125 
L 18.3125 47.703125 
L 18.3125 18.015625 
Q 18.3125 11.328125 20.140625 9.421875 
Q 21.96875 7.515625 27.59375 7.515625 
L 36.8125 7.515625 
L 36.8125 0 
L 27.59375 0 
Q 17.1875 0 13.234375 3.875 
Q 9.28125 7.765625 9.28125 18.015625 
L 9.28125 47.703125 
L 2.6875 47.703125 
L 2.6875 54.6875 
L 9.28125 54.6875 
L 9.28125 70.21875 
z
" id="DejaVuSans-116"/>
      <path d="M 30.609375 48.390625 
Q 23.390625 48.390625 19.1875 42.75 
Q 14.984375 37.109375 14.984375 27.296875 
Q 14.984375 17.484375 19.15625 11.84375 
Q 23.34375 6.203125 30.609375 6.203125 
Q 37.796875 6.203125 41.984375 11.859375 
Q 46.1875 17.53125 46.1875 27.296875 
Q 46.1875 37.015625 41.984375 42.703125 
Q 37.796875 48.390625 30.609375 48.390625 
z
M 30.609375 56 
Q 42.328125 56 49.015625 48.375 
Q 55.71875 40.765625 55.71875 27.296875 
Q 55.71875 13.875 49.015625 6.21875 
Q 42.328125 -1.421875 30.609375 -1.421875 
Q 18.84375 -1.421875 12.171875 6.21875 
Q 5.515625 13.875 5.515625 27.296875 
Q 5.515625 40.765625 12.171875 48.375 
Q 18.84375 56 30.609375 56 
z
" id="DejaVuSans-111"/>
      <path d="M 9.8125 72.90625 
L 19.671875 72.90625 
L 19.671875 8.296875 
L 55.171875 8.296875 
L 55.171875 0 
L 9.8125 0 
z
" id="DejaVuSans-76"/>
      <path d="M 2.984375 54.6875 
L 12.5 54.6875 
L 29.59375 8.796875 
L 46.6875 54.6875 
L 56.203125 54.6875 
L 35.6875 0 
L 23.484375 0 
z
" id="DejaVuSans-118"/>
     </defs>
     <g transform="translate(447.361719 379.564837)scale(0.1 -0.1)">
      <use xlink:href="#DejaVuSans-83"/>
      <use x="63.476562" xlink:href="#DejaVuSans-101"/>
      <use x="125" xlink:href="#DejaVuSans-113"/>
      <use x="188.476562" xlink:href="#DejaVuSans-117"/>
      <use x="251.855469" xlink:href="#DejaVuSans-101"/>
      <use x="313.378906" xlink:href="#DejaVuSans-110"/>
      <use x="376.757812" xlink:href="#DejaVuSans-99"/>
      <use x="431.738281" xlink:href="#DejaVuSans-101"/>
      <use x="493.261719" xlink:href="#DejaVuSans-32"/>
      <use x="525.048828" xlink:href="#DejaVuSans-68"/>
      <use x="602.050781" xlink:href="#DejaVuSans-117"/>
      <use x="665.429688" xlink:href="#DejaVuSans-112"/>
      <use x="728.90625" xlink:href="#DejaVuSans-108"/>
      <use x="756.689453" xlink:href="#DejaVuSans-105"/>
      <use x="784.472656" xlink:href="#DejaVuSans-99"/>
      <use x="839.453125" xlink:href="#DejaVuSans-97"/>
      <use x="900.732422" xlink:href="#DejaVuSans-116"/>
      <use x="939.941406" xlink:href="#DejaVuSans-105"/>
      <use x="967.724609" xlink:href="#DejaVuSans-111"/>
      <use x="1028.90625" xlink:href="#DejaVuSans-110"/>
      <use x="1092.285156" xlink:href="#DejaVuSans-32"/>
      <use x="1124.072266" xlink:href="#DejaVuSans-76"/>
      <use x="1179.769531" xlink:href="#DejaVuSans-101"/>
      <use x="1241.292969" xlink:href="#DejaVuSans-118"/>
      <use x="1300.472656" xlink:href="#DejaVuSans-101"/>
      <use x="1361.996094" xlink:href="#DejaVuSans-108"/>
     </g>
    </g>
   </g>
   <g id="matplotlib.axis_2">
    <g id="ytick_1">
     <g id="line2d_1">
      <path clip-path="url(#p925900c39c)" d="M 43.148125 353.2239 
L 990.558125 353.2239 
" style="fill:none;stroke:#dedede;stroke-linecap:square;"/>
     </g>
     <g id="text_18">
      <!-- 0 -->
      <g transform="translate(31.058125 356.263275)scale(0.08 -0.08)">
       <use xlink:href="#DejaVuSans-48"/>
      </g>
     </g>
    </g>
    <g id="ytick_2">
     <g id="line2d_2">
      <path clip-path="url(#p925900c39c)" d="M 43.148125 289.6303 
L 990.558125 289.6303 
" style="fill:none;stroke:#dedede;stroke-linecap:square;"/>
     </g>
     <g id="text_19">
      <!-- 20 -->
      <g transform="translate(25.968125 292.669675)scale(0.08 -0.08)">
       <use xlink:href="#DejaVuSans-50"/>
       <use x="63.623047" xlink:href="#DejaVuSans-48"/>
      </g>
     </g>
    </g>
    <g id="ytick_3">
     <g id="line2d_3">
      <path clip-path="url(#p925900c39c)" d="M 43.148125 226.0367 
L 990.558125 226.0367 
" style="fill:none;stroke:#dedede;stroke-linecap:square;"/>
     </g>
     <g id="text_20">
      <!-- 40 -->
      <g transform="translate(25.968125 229.076075)scale(0.08 -0.08)">
       <use xlink:href="#DejaVuSans-52"/>
       <use x="63.623047" xlink:href="#DejaVuSans-48"/>
      </g>
     </g>
    </g>
    <g id="ytick_4">
     <g id="line2d_4">
      <path clip-path="url(#p925900c39c)" d="M 43.148125 162.4431 
L 990.558125 162.4431 
" style="fill:none;stroke:#dedede;stroke-linecap:square;"/>
     </g>
     <g id="text_21">
      <!-- 60 -->
      <g transform="translate(25.968125 165.482475)scale(0.08 -0.08)">
       <use xlink:href="#DejaVuSans-54"/>
       <use x="63.623047" xlink:href="#DejaVuSans-48"/>
      </g>
     </g>
    </g>
    <g id="ytick_5">
     <g id="line2d_5">
      <path clip-path="url(#p925900c39c)" d="M 43.148125 98.8495 
L 990.558125 98.8495 
" style="fill:none;stroke:#dedede;stroke-linecap:square;"/>
     </g>
     <g id="text_22">
      <!-- 80 -->
      <g transform="translate(25.968125 101.888875)scale(0.08 -0.08)">
       <use xlink:href="#DejaVuSans-56"/>
       <use x="63.623047" xlink:href="#DejaVuSans-48"/>
      </g>
     </g>
    </g>
    <g id="ytick_6">
     <g id="line2d_6">
      <path clip-path="url(#p925900c39c)" d="M 43.148125 35.2559 
L 990.558125 35.2559 
" style="fill:none;stroke:#dedede;stroke-linecap:square;"/>
     </g>
     <g id="text_23">
      <!-- 100 -->
      <g transform="translate(20.878125 38.295275)scale(0.08 -0.08)">
       <use xlink:href="#DejaVuSans-49"/>
       <use x="63.623047" xlink:href="#DejaVuSans-48"/>
       <use x="127.246094" xlink:href="#DejaVuSans-48"/>
      </g>
     </g>
    </g>
    <g id="text_24">
     <!-- % of Library -->
     <defs>
      <path d="M 72.703125 32.078125 
Q 68.453125 32.078125 66.03125 28.46875 
Q 63.625 24.859375 63.625 18.40625 
Q 63.625 12.0625 66.03125 8.421875 
Q 68.453125 4.78125 72.703125 4.78125 
Q 76.859375 4.78125 79.265625 8.421875 
Q 81.6875 12.0625 81.6875 18.40625 
Q 81.6875 24.8125 79.265625 28.4375 
Q 76.859375 32.078125 72.703125 32.078125 
z
M 72.703125 38.28125 
Q 80.421875 38.28125 84.953125 32.90625 
Q 89.5 27.546875 89.5 18.40625 
Q 89.5 9.28125 84.9375 3.921875 
Q 80.375 -1.421875 72.703125 -1.421875 
Q 64.890625 -1.421875 60.34375 3.921875 
Q 55.8125 9.28125 55.8125 18.40625 
Q 55.8125 27.59375 60.375 32.9375 
Q 64.9375 38.28125 72.703125 38.28125 
z
M 22.3125 68.015625 
Q 18.109375 68.015625 15.6875 64.375 
Q 13.28125 60.75 13.28125 54.390625 
Q 13.28125 47.953125 15.671875 44.328125 
Q 18.0625 40.71875 22.3125 40.71875 
Q 26.5625 40.71875 28.96875 44.328125 
Q 31.390625 47.953125 31.390625 54.390625 
Q 31.390625 60.6875 28.953125 64.34375 
Q 26.515625 68.015625 22.3125 68.015625 
z
M 66.40625 74.21875 
L 74.21875 74.21875 
L 28.609375 -1.421875 
L 20.796875 -1.421875 
z
M 22.3125 74.21875 
Q 30.03125 74.21875 34.609375 68.875 
Q 39.203125 63.53125 39.203125 54.390625 
Q 39.203125 45.171875 34.640625 39.84375 
Q 30.078125 34.515625 22.3125 34.515625 
Q 14.546875 34.515625 10.03125 39.859375 
Q 5.515625 45.21875 5.515625 54.390625 
Q 5.515625 63.484375 10.046875 68.84375 
Q 14.59375 74.21875 22.3125 74.21875 
z
" id="DejaVuSans-37"/>
      <path d="M 37.109375 75.984375 
L 37.109375 68.5 
L 28.515625 68.5 
Q 23.6875 68.5 21.796875 66.546875 
Q 19.921875 64.59375 19.921875 59.515625 
L 19.921875 54.6875 
L 34.71875 54.6875 
L 34.71875 47.703125 
L 19.921875 47.703125 
L 19.921875 0 
L 10.890625 0 
L 10.890625 47.703125 
L 2.296875 47.703125 
L 2.296875 54.6875 
L 10.890625 54.6875 
L 10.890625 58.5 
Q 10.890625 67.625 15.140625 71.796875 
Q 19.390625 75.984375 28.609375 75.984375 
z
" id="DejaVuSans-102"/>
      <path d="M 48.6875 27.296875 
Q 48.6875 37.203125 44.609375 42.84375 
Q 40.53125 48.484375 33.40625 48.484375 
Q 26.265625 48.484375 22.1875 42.84375 
Q 18.109375 37.203125 18.109375 27.296875 
Q 18.109375 17.390625 22.1875 11.75 
Q 26.265625 6.109375 33.40625 6.109375 
Q 40.53125 6.109375 44.609375 11.75 
Q 48.6875 17.390625 48.6875 27.296875 
z
M 18.109375 46.390625 
Q 20.953125 51.265625 25.265625 53.625 
Q 29.59375 56 35.59375 56 
Q 45.5625 56 51.78125 48.09375 
Q 58.015625 40.1875 58.015625 27.296875 
Q 58.015625 14.40625 51.78125 6.484375 
Q 45.5625 -1.421875 35.59375 -1.421875 
Q 29.59375 -1.421875 25.265625 0.953125 
Q 20.953125 3.328125 18.109375 8.203125 
L 18.109375 0 
L 9.078125 0 
L 9.078125 75.984375 
L 18.109375 75.984375 
z
" id="DejaVuSans-98"/>
      <path d="M 41.109375 46.296875 
Q 39.59375 47.171875 37.8125 47.578125 
Q 36.03125 48 33.890625 48 
Q 26.265625 48 22.1875 43.046875 
Q 18.109375 38.09375 18.109375 28.8125 
L 18.109375 0 
L 9.078125 0 
L 9.078125 54.6875 
L 18.109375 54.6875 
L 18.109375 46.1875 
Q 20.953125 51.171875 25.484375 53.578125 
Q 30.03125 56 36.53125 56 
Q 37.453125 56 38.578125 55.875 
Q 39.703125 55.765625 41.0625 55.515625 
z
" id="DejaVuSans-114"/>
      <path d="M 32.171875 -5.078125 
Q 28.375 -14.84375 24.75 -17.8125 
Q 21.140625 -20.796875 15.09375 -20.796875 
L 7.90625 -20.796875 
L 7.90625 -13.28125 
L 13.1875 -13.28125 
Q 16.890625 -13.28125 18.9375 -11.515625 
Q 21 -9.765625 23.484375 -3.21875 
L 25.09375 0.875 
L 2.984375 54.6875 
L 12.5 54.6875 
L 29.59375 11.921875 
L 46.6875 54.6875 
L 56.203125 54.6875 
z
" id="DejaVuSans-121"/>
     </defs>
     <g transform="translate(14.798437 224.471931)rotate(-90)scale(0.1 -0.1)">
      <use xlink:href="#DejaVuSans-37"/>
      <use x="95.019531" xlink:href="#DejaVuSans-32"/>
      <use x="126.806641" xlink:href="#DejaVuSans-111"/>
      <use x="187.988281" xlink:href="#DejaVuSans-102"/>
      <use x="223.193359" xlink:href="#DejaVuSans-32"/>
      <use x="254.980469" xlink:href="#DejaVuSans-76"/>
      <use x="310.693359" xlink:href="#DejaVuSans-105"/>
      <use x="338.476562" xlink:href="#DejaVuSans-98"/>
      <use x="401.953125" xlink:href="#DejaVuSans-114"/>
      <use x="443.066406" xlink:href="#DejaVuSans-97"/>
      <use x="504.345703" xlink:href="#DejaVuSans-114"/>
      <use x="545.458984" xlink:href="#DejaVuSans-121"/>
     </g>
    </g>
   </g>
   <g id="line2d_7">
    <path clip-path="url(#p925900c39c)" d="M 86.212216 320.918228 
L 143.631004 329.737686 
L 201.049792 330.751887 
L 258.46858 333.248976 
L 315.887367 336.988457 
L 373.306155 340.176957 
L 430.724943 342.692623 
L 488.143731 344.703717 
L 545.562519 345.807277 
L 602.981307 281.037846 
L 660.400095 332.027579 
L 717.818883 313.428644 
L 775.23767 339.42445 
L 832.656458 337.101217 
L 890.075246 352.478647 
L 947.494034 353.090208 
" style="fill:none;stroke:#d9534f;stroke-linecap:square;"/>
   </g>
   <g id="line2d_8">
    <path clip-path="url(#p925900c39c)" d="M 86.212216 314.850001 
L 143.631004 331.549489 
L 201.049792 332.741637 
L 258.46858 335.109202 
L 315.887367 338.037333 
L 373.306155 340.656092 
L 430.724943 342.955001 
L 488.143731 344.805161 
L 545.562519 346.084752 
L 602.981307 281.325559 
L 660.400095 331.554263 
L 717.818883 310.210123 
L 775.23767 338.793202 
L 832.656458 339.555205 
L 890.075246 352.434264 
L 947.494034 352.953116 
" style="fill:none;stroke:#d9534f;stroke-linecap:square;"/>
   </g>
   <g id="line2d_9">
    <path clip-path="url(#p925900c39c)" d="M 86.212216 322.691664 
L 143.631004 330.843456 
L 201.049792 331.806597 
L 258.46858 334.30449 
L 315.887367 337.642557 
L 373.306155 340.709718 
L 430.724943 343.263635 
L 488.143731 345.147867 
L 545.562519 346.786263 
L 602.981307 286.877181 
L 660.400095 334.313756 
L 717.818883 316.698735 
L 775.23767 338.307737 
L 832.656458 323.983523 
L 890.075246 347.977194 
L 947.494034 352.260027 
" style="fill:none;stroke:#d9534f;stroke-linecap:square;"/>
   </g>
   <g id="line2d_10">
    <path clip-path="url(#p925900c39c)" d="M 86.212216 312.085363 
L 143.631004 332.95062 
L 201.049792 333.383141 
L 258.46858 336.130409 
L 315.887367 338.655097 
L 373.306155 341.414048 
L 430.724943 343.705355 
L 488.143731 345.343681 
L 545.562519 346.92167 
L 602.981307 289.011034 
L 660.400095 335.49819 
L 717.818883 315.820367 
L 775.23767 335.953721 
L 832.656458 324.219523 
L 890.075246 350.099809 
L 947.494034 352.422371 
" style="fill:none;stroke:#d9534f;stroke-linecap:square;"/>
   </g>
   <g id="line2d_11">
    <path clip-path="url(#p925900c39c)" d="M 86.212216 308.576873 
L 143.631004 324.308846 
L 201.049792 332.548009 
L 258.46858 338.256276 
L 315.887367 342.09488 
L 373.306155 344.85357 
L 430.724943 346.380954 
L 488.143731 347.758168 
L 545.562519 348.450541 
L 602.981307 302.825529 
L 660.400095 338.446902 
L 717.818883 323.525298 
L 775.23767 339.308492 
L 832.656458 312.913079 
L 890.075246 338.297351 
L 947.494034 345.069634 
" style="fill:none;stroke:#d9534f;stroke-linecap:square;"/>
   </g>
   <g id="line2d_12">
    <path clip-path="url(#p925900c39c)" d="M 86.212216 306.519775 
L 143.631004 325.612022 
L 201.049792 332.793419 
L 258.46858 338.033183 
L 315.887367 342.011342 
L 373.306155 344.59802 
L 430.724943 346.58298 
L 488.143731 347.87563 
L 545.562519 348.689888 
L 602.981307 305.048433 
L 660.400095 340.318427 
L 717.818883 324.837719 
L 775.23767 336.721074 
L 832.656458 305.297591 
L 890.075246 340.523683 
L 947.494034 348.151212 
" style="fill:none;stroke:#d9534f;stroke-linecap:square;"/>
   </g>
   <g id="line2d_13">
    <path clip-path="url(#p925900c39c)" d="M 86.212216 317.786828 
L 143.631004 330.963464 
L 201.049792 334.897867 
L 258.46858 339.456508 
L 315.887367 342.850367 
L 373.306155 345.188406 
L 430.724943 347.306855 
L 488.143731 348.473685 
L 545.562519 349.173975 
L 602.981307 311.291817 
L 660.400095 340.422998 
L 717.818883 324.608571 
L 775.23767 338.671739 
L 832.656458 303.788334 
L 890.075246 327.669042 
L 947.494034 331.063943 
" style="fill:none;stroke:#d9534f;stroke-linecap:square;"/>
   </g>
   <g id="line2d_14">
    <path clip-path="url(#p925900c39c)" d="M 86.212216 310.340034 
L 143.631004 332.437446 
L 201.049792 336.33754 
L 258.46858 340.295699 
L 315.887367 343.215395 
L 373.306155 345.648182 
L 430.724943 347.395678 
L 488.143731 348.473419 
L 545.562519 349.232267 
L 602.981307 314.200271 
L 660.400095 342.740036 
L 717.818883 329.767039 
L 775.23767 336.862755 
L 832.656458 288.122975 
L 890.075246 328.81095 
L 947.494034 339.734714 
" style="fill:none;stroke:#d9534f;stroke-linecap:square;"/>
   </g>
   <g id="line2d_15">
    <path clip-path="url(#p925900c39c)" d="M 86.212216 336.294607 
L 143.631004 346.369482 
L 201.049792 346.297329 
L 258.46858 345.748744 
L 315.887367 346.013307 
L 373.306155 346.304154 
L 430.724943 346.659658 
L 488.143731 347.275956 
L 545.562519 347.910408 
L 602.981307 309.168627 
L 660.400095 341.903674 
L 717.818883 325.358907 
L 775.23767 336.859799 
L 832.656458 292.518244 
L 890.075246 315.913921 
L 947.494034 303.017583 
" style="fill:none;stroke:#d9534f;stroke-linecap:square;"/>
   </g>
   <g id="line2d_16">
    <path clip-path="url(#p925900c39c)" d="M 86.212216 331.42031 
L 143.631004 346.25798 
L 201.049792 346.421434 
L 258.46858 346.115261 
L 315.887367 346.302678 
L 373.306155 346.51077 
L 430.724943 346.870988 
L 488.143731 347.726277 
L 545.562519 348.238534 
L 602.981307 312.439909 
L 660.400095 344.801083 
L 717.818883 334.12114 
L 775.23767 337.13239 
L 832.656458 272.142829 
L 890.075246 311.154049 
L 947.494034 315.958769 
" style="fill:none;stroke:#d9534f;stroke-linecap:square;"/>
   </g>
   <g id="line2d_17">
    <path clip-path="url(#p925900c39c)" d="M 86.212216 309.265799 
L 143.631004 326.056811 
L 201.049792 332.366126 
L 258.46858 337.717335 
L 315.887367 341.920882 
L 373.306155 344.489387 
L 430.724943 346.500678 
L 488.143731 347.805284 
L 545.562519 348.618835 
L 602.981307 301.587632 
L 660.400095 336.313461 
L 717.818883 317.098588 
L 775.23767 337.017371 
L 832.656458 314.14113 
L 890.075246 341.777621 
L 947.494034 350.93746 
" style="fill:none;stroke:#d9534f;stroke-linecap:square;"/>
   </g>
   <g id="line2d_18">
    <path clip-path="url(#p925900c39c)" d="M 86.212216 303.838576 
L 143.631004 328.179758 
L 201.049792 333.528685 
L 258.46858 338.551595 
L 315.887367 342.139951 
L 373.306155 345.1694 
L 430.724943 346.702011 
L 488.143731 348.01488 
L 545.562519 348.880041 
L 602.981307 303.719212 
L 660.400095 337.12022 
L 717.818883 316.474081 
L 775.23767 332.669147 
L 832.656458 310.392289 
L 890.075246 346.844283 
L 947.494034 351.39027 
" style="fill:none;stroke:#d9534f;stroke-linecap:square;"/>
   </g>
   <g id="line2d_19">
    <path clip-path="url(#p925900c39c)" d="M 86.212216 321.030522 
L 143.631004 332.619432 
L 201.049792 337.836646 
L 258.46858 342.038249 
L 315.887367 344.905118 
L 373.306155 346.891158 
L 430.724943 348.51252 
L 488.143731 349.341667 
L 545.562519 349.99496 
L 602.981307 314.455969 
L 660.400095 339.55882 
L 717.818883 319.779571 
L 775.23767 336.495006 
L 832.656458 304.002909 
L 890.075246 325.636796 
L 947.494034 320.515056 
" style="fill:none;stroke:#d9534f;stroke-linecap:square;"/>
   </g>
   <g id="line2d_20">
    <path clip-path="url(#p925900c39c)" d="M 86.212216 314.825112 
L 143.631004 334.084325 
L 201.049792 338.648421 
L 258.46858 342.477664 
L 315.887367 345.152548 
L 373.306155 347.256417 
L 430.724943 348.633282 
L 488.143731 349.529503 
L 545.562519 349.954012 
L 602.981307 317.890745 
L 660.400095 341.188678 
L 717.818883 322.861603 
L 775.23767 335.983816 
L 832.656458 287.864532 
L 890.075246 325.560893 
L 947.494034 331.702849 
" style="fill:none;stroke:#d9534f;stroke-linecap:square;"/>
   </g>
   <g id="line2d_21">
    <path clip-path="url(#p925900c39c)" d="M 86.212216 312.902453 
L 143.631004 327.904102 
L 201.049792 335.024467 
L 258.46858 339.893784 
L 315.887367 343.509393 
L 373.306155 345.706427 
L 430.724943 347.284354 
L 488.143731 348.042098 
L 545.562519 349.134472 
L 602.981307 300.042579 
L 660.400095 333.793973 
L 717.818883 313.837633 
L 775.23767 336.831893 
L 832.656458 313.686741 
L 890.075246 339.558078 
L 947.494034 346.461954 
" style="fill:none;stroke:#d9534f;stroke-linecap:square;"/>
   </g>
   <g id="line2d_22">
    <path clip-path="url(#p925900c39c)" d="M 86.212216 311.094785 
L 143.631004 330.042787 
L 201.049792 335.837841 
L 258.46858 340.597629 
L 315.887367 343.694173 
L 373.306155 345.969699 
L 430.724943 347.30731 
L 488.143731 348.314066 
L 545.562519 348.966747 
L 602.981307 300.328025 
L 660.400095 334.696524 
L 717.818883 313.556104 
L 775.23767 334.208007 
L 832.656458 307.222293 
L 890.075246 342.338401 
L 947.494034 349.44001 
" style="fill:none;stroke:#d9534f;stroke-linecap:square;"/>
   </g>
   <g id="line2d_23">
    <path clip-path="url(#p925900c39c)" d="M 86.212216 318.258982 
L 143.631004 326.718265 
L 201.049792 328.92658 
L 258.46858 332.989817 
L 315.887367 336.645552 
L 373.306155 340.326693 
L 430.724943 342.431514 
L 488.143731 344.805093 
L 545.562519 346.284391 
L 602.981307 283.902201 
L 660.400095 334.11167 
L 717.818883 317.686188 
L 775.23767 340.491614 
L 832.656458 334.755034 
L 890.075246 352.218268 
L 947.494034 353.062539 
" style="fill:none;stroke:#d9534f;stroke-linecap:square;"/>
   </g>
   <g id="line2d_24">
    <path clip-path="url(#p925900c39c)" d="M 86.212216 315.778485 
L 143.631004 328.560986 
L 201.049792 329.907495 
L 258.46858 333.442276 
L 315.887367 337.051256 
L 373.306155 340.437845 
L 430.724943 343.040818 
L 488.143731 344.6944 
L 545.562519 346.305859 
L 602.981307 283.771253 
L 660.400095 334.361115 
L 717.818883 313.530268 
L 775.23767 338.459571 
L 832.656458 338.411145 
L 890.075246 352.779877 
L 947.494034 353.081752 
" style="fill:none;stroke:#d9534f;stroke-linecap:square;"/>
   </g>
   <g id="line2d_25">
    <path clip-path="url(#p925900c39c)" d="M 86.212216 323.950488 
L 143.631004 333.073102 
L 201.049792 336.52077 
L 258.46858 340.351501 
L 315.887367 343.41745 
L 373.306155 345.845189 
L 430.724943 347.347377 
L 488.143731 348.375477 
L 545.562519 349.335409 
L 602.981307 309.74416 
L 660.400095 339.457886 
L 717.818883 320.763589 
L 775.23767 337.479108 
L 832.656458 304.749206 
L 890.075246 326.861922 
L 947.494034 326.341766 
" style="fill:none;stroke:#d9534f;stroke-linecap:square;"/>
   </g>
   <g id="line2d_26">
    <path clip-path="url(#p925900c39c)" d="M 86.212216 315.999797 
L 143.631004 334.560023 
L 201.049792 337.874889 
L 258.46858 340.98114 
L 315.887367 343.956599 
L 373.306155 345.919899 
L 430.724943 347.43266 
L 488.143731 348.63833 
L 545.562519 349.338865 
L 602.981307 313.737949 
L 660.400095 340.970151 
L 717.818883 325.010335 
L 775.23767 336.383492 
L 832.656458 289.819006 
L 890.075246 327.537862 
L 947.494034 335.453402 
" style="fill:none;stroke:#d9534f;stroke-linecap:square;"/>
   </g>
   <g id="line2d_27">
    <path clip-path="url(#p925900c39c)" d="M 86.212216 311.76377 
L 143.631004 324.210182 
L 201.049792 330.265283 
L 258.46858 335.737487 
L 315.887367 339.889592 
L 373.306155 343.201317 
L 430.724943 344.831898 
L 488.143731 346.383065 
L 545.562519 347.342029 
L 602.981307 285.926482 
L 660.400095 332.35208 
L 717.818883 312.078508 
L 775.23767 339.312072 
L 832.656458 335.025229 
L 890.075246 352.292471 
L 947.494034 353.002936 
" style="fill:none;stroke:#d9534f;stroke-linecap:square;"/>
   </g>
   <g id="line2d_28">
    <path clip-path="url(#p925900c39c)" d="M 86.212216 307.186621 
L 143.631004 326.206453 
L 201.049792 331.218239 
L 258.46858 335.818127 
L 315.887367 339.696453 
L 373.306155 342.957218 
L 430.724943 344.832772 
L 488.143731 346.478838 
L 545.562519 347.353019 
L 602.981307 287.800646 
L 660.400095 332.224253 
L 717.818883 309.529779 
L 775.23767 338.128219 
L 832.656458 338.555622 
L 890.075246 352.569046 
L 947.494034 353.059095 
" style="fill:none;stroke:#d9534f;stroke-linecap:square;"/>
   </g>
   <g id="line2d_29">
    <path clip-path="url(#p925900c39c)" d="M 86.212216 316.958896 
L 143.631004 329.136832 
L 201.049792 334.898914 
L 258.46858 339.505921 
L 315.887367 342.979777 
L 373.306155 345.46444 
L 430.724943 347.035036 
L 488.143731 348.07993 
L 545.562519 348.743347 
L 602.981307 302.20672 
L 660.400095 336.867779 
L 717.818883 315.995715 
L 775.23767 336.460347 
L 832.656458 312.534138 
L 890.075246 336.816949 
L 947.494034 339.929658 
" style="fill:none;stroke:#d9534f;stroke-linecap:square;"/>
   </g>
   <g id="line2d_30">
    <path clip-path="url(#p925900c39c)" d="M 86.212216 313.671386 
L 143.631004 330.335667 
L 201.049792 335.308783 
L 258.46858 339.458318 
L 315.887367 343.005145 
L 373.306155 345.348587 
L 430.724943 346.681134 
L 488.143731 348.064361 
L 545.562519 348.805422 
L 602.981307 305.699832 
L 660.400095 338.202894 
L 717.818883 316.345566 
L 775.23767 334.71079 
L 832.656458 302.547413 
L 890.075246 339.19612 
L 947.494034 346.232982 
" style="fill:none;stroke:#d9534f;stroke-linecap:square;"/>
   </g>
   <g id="line2d_31">
    <path clip-path="url(#p925900c39c)" d="M 86.212216 333.815153 
L 143.631004 343.585947 
L 201.049792 342.249291 
L 258.46858 341.557315 
L 315.887367 341.248704 
L 373.306155 341.700463 
L 430.724943 343.125844 
L 488.143731 343.776569 
L 545.562519 345.226758 
L 602.981307 278.326659 
L 660.400095 331.756567 
L 717.818883 303.887047 
L 775.23767 331.334095 
L 832.656458 314.396942 
L 890.075246 345.786983 
L 947.494034 351.840062 
" style="fill:none;stroke:#d9534f;stroke-linecap:square;"/>
   </g>
   <g id="line2d_32">
    <path clip-path="url(#p925900c39c)" d="M 86.212216 325.992148 
L 143.631004 344.002793 
L 201.049792 343.357549 
L 258.46858 342.319231 
L 315.887367 342.061803 
L 373.306155 342.795435 
L 430.724943 343.856103 
L 488.143731 344.735949 
L 545.562519 345.744305 
L 602.981307 283.179367 
L 660.400095 332.083317 
L 717.818883 300.304901 
L 775.23767 328.117005 
L 832.656458 313.881857 
L 890.075246 348.886658 
L 947.494034 352.29598 
" style="fill:none;stroke:#d9534f;stroke-linecap:square;"/>
   </g>
   <g id="line2d_33">
    <path clip-path="url(#p925900c39c)" d="M 86.212216 315.172959 
L 143.631004 325.818843 
L 201.049792 330.312042 
L 258.46858 334.762037 
L 315.887367 338.868324 
L 373.306155 342.516881 
L 430.724943 344.298227 
L 488.143731 346.140103 
L 545.562519 347.416161 
L 602.981307 292.247794 
L 660.400095 335.367979 
L 717.818883 316.382402 
L 775.23767 338.487097 
L 832.656458 324.656806 
L 890.075246 348.625003 
L 947.494034 352.541743 
" style="fill:none;stroke:#d9534f;stroke-linecap:square;"/>
   </g>
   <g id="line2d_34">
    <path clip-path="url(#p925900c39c)" d="M 86.212216 311.54595 
L 143.631004 327.632652 
L 201.049792 331.058069 
L 258.46858 335.279787 
L 315.887367 339.498203 
L 373.306155 342.45097 
L 430.724943 344.751343 
L 488.143731 346.280347 
L 545.562519 347.754035 
L 602.981307 293.968863 
L 660.400095 335.61077 
L 717.818883 314.262449 
L 775.23767 335.566811 
L 832.656458 324.924594 
L 890.075246 350.292488 
L 947.494034 352.737068 
" style="fill:none;stroke:#d9534f;stroke-linecap:square;"/>
   </g>
   <g id="line2d_35">
    <path clip-path="url(#p925900c39c)" d="M 86.212216 314.770254 
L 143.631004 329.282011 
L 201.049792 334.497438 
L 258.46858 339.044348 
L 315.887367 342.575419 
L 373.306155 344.988605 
L 430.724943 346.85242 
L 488.143731 348.181086 
L 545.562519 349.016736 
L 602.981307 307.761998 
L 660.400095 339.384971 
L 717.818883 321.927874 
L 775.23767 338.237329 
L 832.656458 306.277073 
L 890.075246 332.822778 
L 947.494034 337.994058 
" style="fill:none;stroke:#d9534f;stroke-linecap:square;"/>
   </g>
   <g id="line2d_36">
    <path clip-path="url(#p925900c39c)" d="M 86.212216 307.310163 
L 143.631004 330.319663 
L 201.049792 334.975847 
L 258.46858 339.50352 
L 315.887367 343.135648 
L 373.306155 345.148554 
L 430.724943 347.108265 
L 488.143731 348.281766 
L 545.562519 349.096977 
L 602.981307 312.108993 
L 660.400095 341.187891 
L 717.818883 325.691288 
L 775.23767 336.434646 
L 832.656458 294.629699 
L 890.075246 334.306047 
L 947.494034 344.375434 
" style="fill:none;stroke:#d9534f;stroke-linecap:square;"/>
   </g>
   <g id="line2d_37">
    <path clip-path="url(#p925900c39c)" d="M 86.212216 319.133559 
L 143.631004 330.971021 
L 201.049792 334.645987 
L 258.46858 338.890047 
L 315.887367 342.629205 
L 373.306155 344.889241 
L 430.724943 346.717387 
L 488.143731 348.047413 
L 545.562519 348.956569 
L 602.981307 306.70344 
L 660.400095 339.081073 
L 717.818883 322.446068 
L 775.23767 338.593161 
L 832.656458 305.714212 
L 890.075246 331.608247 
L 947.494034 334.587769 
" style="fill:none;stroke:#d9534f;stroke-linecap:square;"/>
   </g>
   <g id="line2d_38">
    <path clip-path="url(#p925900c39c)" d="M 86.212216 308.101158 
L 143.631004 332.393043 
L 201.049792 335.866322 
L 258.46858 339.65475 
L 315.887367 342.879798 
L 373.306155 345.480918 
L 430.724943 347.225121 
L 488.143731 348.069912 
L 545.562519 349.075554 
L 602.981307 311.437599 
L 660.400095 341.232618 
L 717.818883 326.898922 
L 775.23767 336.456361 
L 832.656458 292.223119 
L 890.075246 333.016244 
L 947.494034 343.602959 
" style="fill:none;stroke:#d9534f;stroke-linecap:square;"/>
   </g>
   <g id="line2d_39">
    <path clip-path="url(#p925900c39c)" d="M 86.212216 315.256302 
L 143.631004 331.489745 
L 201.049792 337.865686 
L 258.46858 342.652005 
L 315.887367 345.596176 
L 373.306155 347.610461 
L 430.724943 348.675149 
L 488.143731 349.579759 
L 545.562519 350.240403 
L 602.981307 318.959189 
L 660.400095 341.890889 
L 717.818883 325.946982 
L 775.23767 338.261173 
L 832.656458 295.383071 
L 890.075246 320.412224 
L 947.494034 323.795186 
" style="fill:none;stroke:#d9534f;stroke-linecap:square;"/>
   </g>
   <g id="line2d_40">
    <path clip-path="url(#p925900c39c)" d="M 86.212216 303.669135 
L 143.631004 332.480769 
L 201.049792 338.660703 
L 258.46858 342.698975 
L 315.887367 345.874095 
L 373.306155 347.700845 
L 430.724943 348.956569 
L 488.143731 349.674936 
L 545.562519 350.32495 
L 602.981307 322.987739 
L 660.400095 344.489847 
L 717.818883 332.902226 
L 775.23767 336.250733 
L 832.656458 274.314887 
L 890.075246 326.257379 
L 947.494034 336.370611 
" style="fill:none;stroke:#d9534f;stroke-linecap:square;"/>
   </g>
   <g id="line2d_41">
    <path clip-path="url(#p925900c39c)" d="M 86.212216 337.214971 
L 143.631004 345.449676 
L 201.049792 344.588797 
L 258.46858 344.070044 
L 315.887367 343.393834 
L 373.306155 343.706232 
L 430.724943 343.861008 
L 488.143731 344.49431 
L 545.562519 345.250846 
L 602.981307 284.558437 
L 660.400095 338.905268 
L 717.818883 323.629042 
L 775.23767 339.243436 
L 832.656458 303.756231 
L 890.075246 326.289746 
L 947.494034 325.20252 
" style="fill:none;stroke:#d9534f;stroke-linecap:square;"/>
   </g>
   <g id="line2d_42">
    <path clip-path="url(#p925900c39c)" d="M 86.212216 323.911938 
L 143.631004 345.312179 
L 201.049792 345.082277 
L 258.46858 344.658991 
L 315.887367 344.069409 
L 373.306155 344.236413 
L 430.724943 344.91664 
L 488.143731 345.12735 
L 545.562519 346.041313 
L 602.981307 290.189832 
L 660.400095 341.185244 
L 717.818883 329.362219 
L 775.23767 338.354543 
L 832.656458 289.034722 
L 890.075246 326.582743 
L 947.494034 335.548589 
" style="fill:none;stroke:#d9534f;stroke-linecap:square;"/>
   </g>
   <g id="line2d_43">
    <path clip-path="url(#p925900c39c)" d="M 86.212216 321.743944 
L 143.631004 331.14712 
L 201.049792 335.016246 
L 258.46858 339.053328 
L 315.887367 342.125663 
L 373.306155 344.454116 
L 430.724943 346.669966 
L 488.143731 347.947551 
L 545.562519 348.547439 
L 602.981307 305.604425 
L 660.400095 338.887717 
L 717.818883 323.764561 
L 775.23767 339.892459 
L 832.656458 309.250618 
L 890.075246 328.871277 
L 947.494034 330.637971 
" style="fill:none;stroke:#d9534f;stroke-linecap:square;"/>
   </g>
   <g id="line2d_44">
    <path clip-path="url(#p925900c39c)" d="M 86.212216 317.960735 
L 143.631004 332.459703 
L 201.049792 335.529231 
L 258.46858 339.231656 
L 315.887367 342.475635 
L 373.306155 344.710726 
L 430.724943 346.218356 
L 488.143731 347.741416 
L 545.562519 348.728994 
L 602.981307 307.855981 
L 660.400095 341.042687 
L 717.818883 327.512086 
L 775.23767 338.728002 
L 832.656458 293.731388 
L 890.075246 330.104938 
L 947.494034 339.582869 
" style="fill:none;stroke:#d9534f;stroke-linecap:square;"/>
   </g>
   <g id="line2d_45">
    <path clip-path="url(#p925900c39c)" d="M 86.212216 334.140629 
L 143.631004 341.709373 
L 201.049792 340.91418 
L 258.46858 340.629805 
L 315.887367 341.768112 
L 373.306155 342.535383 
L 430.724943 343.702343 
L 488.143731 345.497901 
L 545.562519 346.650101 
L 602.981307 290.824743 
L 660.400095 334.187433 
L 717.818883 313.249913 
L 775.23767 336.049968 
L 832.656458 307.215946 
L 890.075246 334.456717 
L 947.494034 340.081853 
" style="fill:none;stroke:#d9534f;stroke-linecap:square;"/>
   </g>
   <g id="line2d_46">
    <path clip-path="url(#p925900c39c)" d="M 86.212216 323.042178 
L 143.631004 342.121766 
L 201.049792 342.209484 
L 258.46858 342.083638 
L 315.887367 342.730703 
L 373.306155 343.701282 
L 430.724943 344.64583 
L 488.143731 346.001326 
L 545.562519 347.094513 
L 602.981307 294.558879 
L 660.400095 335.996347 
L 717.818883 315.340021 
L 775.23767 334.181082 
L 832.656458 296.401019 
L 890.075246 336.96223 
L 947.494034 346.544102 
" style="fill:none;stroke:#d9534f;stroke-linecap:square;"/>
   </g>
   <g id="line2d_47">
    <path clip-path="url(#p925900c39c)" d="M 86.212216 322.128356 
L 143.631004 330.407781 
L 201.049792 333.911484 
L 258.46858 337.557372 
L 315.887367 341.207067 
L 373.306155 343.861931 
L 430.724943 345.932351 
L 488.143731 347.233951 
L 545.562519 348.377749 
L 602.981307 298.198435 
L 660.400095 334.394781 
L 717.818883 311.999587 
L 775.23767 336.922106 
L 832.656458 313.610137 
L 890.075246 340.09767 
L 947.494034 347.773644 
" style="fill:none;stroke:#d9534f;stroke-linecap:square;"/>
   </g>
   <g id="line2d_48">
    <path clip-path="url(#p925900c39c)" d="M 86.212216 318.458982 
L 143.631004 332.169375 
L 201.049792 335.211815 
L 258.46858 338.630132 
L 315.887367 341.989725 
L 373.306155 344.323887 
L 430.724943 346.248504 
L 488.143731 347.48148 
L 545.562519 348.540189 
L 602.981307 300.043546 
L 660.400095 334.728791 
L 717.818883 311.864642 
L 775.23767 333.999684 
L 832.656458 306.544033 
L 890.075246 343.377779 
L 947.494034 350.001836 
" style="fill:none;stroke:#d9534f;stroke-linecap:square;"/>
   </g>
   <g id="line2d_49">
    <path clip-path="url(#p925900c39c)" d="M 86.212216 324.095394 
L 143.631004 332.876281 
L 201.049792 334.830246 
L 258.46858 337.528171 
L 315.887367 340.607853 
L 373.306155 343.437791 
L 430.724943 344.978618 
L 488.143731 346.588428 
L 545.562519 347.506441 
L 602.981307 288.610628 
L 660.400095 331.145317 
L 717.818883 307.207999 
L 775.23767 335.652436 
L 832.656458 320.54002 
L 890.075246 346.31807 
L 947.494034 351.690706 
" style="fill:none;stroke:#d9534f;stroke-linecap:square;"/>
   </g>
   <g id="line2d_50">
    <path clip-path="url(#p925900c39c)" d="M 86.212216 319.930248 
L 143.631004 334.729369 
L 201.049792 335.967592 
L 258.46858 338.77432 
L 315.887367 341.589206 
L 373.306155 343.841249 
L 430.724943 345.517145 
L 488.143731 346.886304 
L 545.562519 347.699059 
L 602.981307 289.398038 
L 660.400095 330.503416 
L 717.818883 304.265895 
L 775.23767 333.566587 
L 832.656458 319.615486 
L 890.075246 349.344469 
L 947.494034 351.986017 
" style="fill:none;stroke:#d9534f;stroke-linecap:square;"/>
   </g>
   <g id="line2d_51">
    <path clip-path="url(#p925900c39c)" d="M 86.212216 320.110367 
L 143.631004 329.475007 
L 201.049792 331.079593 
L 258.46858 334.371908 
L 315.887367 337.286535 
L 373.306155 341.067612 
L 430.724943 343.31496 
L 488.143731 345.099719 
L 545.562519 346.615939 
L 602.981307 278.169046 
L 660.400095 329.618661 
L 717.818883 312.17918 
L 775.23767 340.314201 
L 832.656458 339.31705 
L 890.075246 352.485595 
L 947.494034 353.109028 
" style="fill:none;stroke:#d9534f;stroke-linecap:square;"/>
   </g>
   <g id="line2d_52">
    <path clip-path="url(#p925900c39c)" d="M 86.212216 310.073643 
L 143.631004 330.770796 
L 201.049792 332.007827 
L 258.46858 334.882321 
L 315.887367 338.07676 
L 373.306155 341.135625 
L 430.724943 343.463366 
L 488.143731 345.118536 
L 545.562519 346.143009 
L 602.981307 279.411608 
L 660.400095 330.614659 
L 717.818883 311.714209 
L 775.23767 341.095291 
L 832.656458 343.565399 
L 890.075246 352.658372 
L 947.494034 352.882982 
" style="fill:none;stroke:#d9534f;stroke-linecap:square;"/>
   </g>
   <g id="line2d_53">
    <path clip-path="url(#p925900c39c)" d="M 86.212216 296.863463 
L 143.631004 317.246357 
L 201.049792 328.146738 
L 258.46858 335.729934 
L 315.887367 340.256233 
L 373.306155 342.976763 
L 430.724943 345.630903 
L 488.143731 346.246331 
L 545.562519 347.391787 
L 602.981307 285.198737 
L 660.400095 332.765329 
L 717.818883 317.803921 
L 775.23767 344.633476 
L 832.656458 346.68275 
L 890.075246 352.817779 
L 947.494034 353.2239 
" style="fill:none;stroke:#d9534f;stroke-linecap:square;"/>
   </g>
   <g id="line2d_54">
    <path clip-path="url(#p925900c39c)" d="M 86.212216 287.714808 
L 143.631004 315.164079 
L 201.049792 326.990747 
L 258.46858 335.251042 
L 315.887367 339.847148 
L 373.306155 342.729375 
L 430.724943 345.033947 
L 488.143731 346.431408 
L 545.562519 347.572385 
L 602.981307 289.18749 
L 660.400095 333.372083 
L 717.818883 321.816487 
L 775.23767 346.565525 
L 832.656458 349.753776 
L 890.075246 352.960201 
L 947.494034 353.2239 
" style="fill:none;stroke:#d9534f;stroke-linecap:square;"/>
   </g>
   <g id="line2d_55">
    <path clip-path="url(#p925900c39c)" d="M 86.212216 319.775524 
L 143.631004 330.842047 
L 201.049792 335.210694 
L 258.46858 339.024978 
L 315.887367 342.562135 
L 373.306155 344.800479 
L 430.724943 346.307552 
L 488.143731 347.511515 
L 545.562519 348.35499 
L 602.981307 295.174498 
L 660.400095 334.467438 
L 717.818883 311.043814 
L 775.23767 335.120044 
L 832.656458 315.037893 
L 890.075246 341.238021 
L 947.494034 347.142778 
" style="fill:none;stroke:#d9534f;stroke-linecap:square;"/>
   </g>
   <g id="line2d_56">
    <path clip-path="url(#p925900c39c)" d="M 86.212216 314.227109 
L 143.631004 332.543 
L 201.049792 336.280937 
L 258.46858 339.700178 
L 315.887367 342.80155 
L 373.306155 344.56814 
L 430.724943 346.539521 
L 488.143731 347.396589 
L 545.562519 348.056784 
L 602.981307 298.589999 
L 660.400095 335.310995 
L 717.818883 310.118271 
L 775.23767 333.113588 
L 832.656458 310.25436 
L 890.075246 344.167573 
L 947.494034 349.945805 
" style="fill:none;stroke:#d9534f;stroke-linecap:square;"/>
   </g>
   <g id="line2d_57">
    <path clip-path="url(#p925900c39c)" d="M 86.212216 311.451855 
L 143.631004 326.344908 
L 201.049792 333.885056 
L 258.46858 339.690558 
L 315.887367 343.445841 
L 373.306155 345.675706 
L 430.724943 347.193716 
L 488.143731 348.319434 
L 545.562519 349.0567 
L 602.981307 305.391886 
L 660.400095 337.045375 
L 717.818883 315.717649 
L 775.23767 337.178474 
L 832.656458 310.609896 
L 890.075246 337.787822 
L 947.494034 344.819524 
" style="fill:none;stroke:#d9534f;stroke-linecap:square;"/>
   </g>
   <g id="line2d_58">
    <path clip-path="url(#p925900c39c)" d="M 86.212216 309.444967 
L 143.631004 328.257288 
L 201.049792 334.612093 
L 258.46858 339.946245 
L 315.887367 343.431487 
L 373.306155 345.737774 
L 430.724943 347.374395 
L 488.143731 348.374268 
L 545.562519 349.206346 
L 602.981307 307.89255 
L 660.400095 337.814633 
L 717.818883 316.00463 
L 775.23767 334.301067 
L 832.656458 302.967142 
L 890.075246 340.2312 
L 947.494034 348.018314 
" style="fill:none;stroke:#d9534f;stroke-linecap:square;"/>
   </g>
   <g id="line2d_59">
    <path clip-path="url(#p925900c39c)" d="M 86.212216 312.306507 
L 143.631004 326.132997 
L 201.049792 332.087956 
L 258.46858 337.873006 
L 315.887367 342.175211 
L 373.306155 344.435936 
L 430.724943 346.05165 
L 488.143731 347.326237 
L 545.562519 348.337779 
L 602.981307 297.299707 
L 660.400095 335.01525 
L 717.818883 311.055563 
L 775.23767 335.491482 
L 832.656458 319.686545 
L 890.075246 346.610561 
L 947.494034 351.728014 
" style="fill:none;stroke:#d9534f;stroke-linecap:square;"/>
   </g>
   <g id="line2d_60">
    <path clip-path="url(#p925900c39c)" d="M 86.212216 304.691339 
L 143.631004 328.16011 
L 201.049792 333.616948 
L 258.46858 338.036476 
L 315.887367 341.931001 
L 373.306155 344.510389 
L 430.724943 346.264764 
L 488.143731 347.54212 
L 545.562519 348.579652 
L 602.981307 301.584547 
L 660.400095 335.122129 
L 717.818883 308.739454 
L 775.23767 332.427231 
L 832.656458 320.345807 
L 890.075246 349.912807 
L 947.494034 352.149626 
" style="fill:none;stroke:#d9534f;stroke-linecap:square;"/>
   </g>
   <g id="line2d_61">
    <path clip-path="url(#p925900c39c)" d="M 86.212216 295.969995 
L 143.631004 321.338603 
L 201.049792 332.471894 
L 258.46858 338.293368 
L 315.887367 342.161921 
L 373.306155 344.240802 
L 430.724943 346.090318 
L 488.143731 347.122852 
L 545.562519 348.069238 
L 602.981307 288.245265 
L 660.400095 331.190184 
L 717.818883 308.477013 
L 775.23767 340.514283 
L 832.656458 343.226079 
L 890.075246 352.978687 
L 947.494034 353.2239 
" style="fill:none;stroke:#d9534f;stroke-linecap:square;"/>
   </g>
   <g id="line2d_62">
    <path clip-path="url(#p925900c39c)" d="M 86.212216 292.559366 
L 143.631004 322.972579 
L 201.049792 332.215863 
L 258.46858 338.489732 
L 315.887367 342.209602 
L 373.306155 344.437301 
L 430.724943 345.815368 
L 488.143731 347.055047 
L 545.562519 348.186126 
L 602.981307 289.374084 
L 660.400095 330.003184 
L 717.818883 306.118468 
L 775.23767 341.704109 
L 832.656458 346.183133 
L 890.075246 353.2239 
L 947.494034 353.066539 
" style="fill:none;stroke:#d9534f;stroke-linecap:square;"/>
   </g>
   <g id="line2d_63">
    <path clip-path="url(#p925900c39c)" d="M 86.212216 321.310504 
L 143.631004 331.165242 
L 201.049792 335.648369 
L 258.46858 340.397932 
L 315.887367 343.392827 
L 373.306155 345.651525 
L 430.724943 347.434872 
L 488.143731 348.657191 
L 545.562519 349.320541 
L 602.981307 306.672113 
L 660.400095 337.155353 
L 717.818883 312.893947 
L 775.23767 335.51107 
L 832.656458 306.99558 
L 890.075246 333.840392 
L 947.494034 337.566941 
" style="fill:none;stroke:#d9534f;stroke-linecap:square;"/>
   </g>
   <g id="line2d_64">
    <path clip-path="url(#p925900c39c)" d="M 86.212216 312.078437 
L 143.631004 331.965218 
L 201.049792 336.599731 
L 258.46858 340.899206 
L 315.887367 343.863454 
L 373.306155 346.14352 
L 430.724943 347.480976 
L 488.143731 348.575446 
L 545.562519 349.427215 
L 602.981307 311.641568 
L 660.400095 337.801966 
L 717.818883 314.446674 
L 775.23767 334.569435 
L 832.656458 296.383937 
L 890.075246 336.090953 
L 947.494034 345.646664 
" style="fill:none;stroke:#d9534f;stroke-linecap:square;"/>
   </g>
   <g id="line2d_65">
    <path clip-path="url(#p925900c39c)" d="M 86.212216 325.456384 
L 143.631004 334.17437 
L 201.049792 337.926835 
L 258.46858 341.727122 
L 315.887367 344.67591 
L 373.306155 346.675158 
L 430.724943 347.976835 
L 488.143731 349.012793 
L 545.562519 349.842188 
L 602.981307 314.976013 
L 660.400095 340.747111 
L 717.818883 324.597824 
L 775.23767 338.253404 
L 832.656458 302.800672 
L 890.075246 321.827162 
L 947.494034 312.944617 
" style="fill:none;stroke:#d9534f;stroke-linecap:square;"/>
   </g>
   <g id="line2d_66">
    <path clip-path="url(#p925900c39c)" d="M 86.212216 312.93399 
L 143.631004 335.386541 
L 201.049792 338.804408 
L 258.46858 342.253912 
L 315.887367 344.97412 
L 373.306155 346.771464 
L 430.724943 348.356054 
L 488.143731 349.10111 
L 545.562519 349.785079 
L 602.981307 319.665296 
L 660.400095 343.3434 
L 717.818883 330.262108 
L 775.23767 338.458741 
L 832.656458 284.482982 
L 890.075246 322.401794 
L 947.494034 326.6334 
" style="fill:none;stroke:#d9534f;stroke-linecap:square;"/>
   </g>
   <g id="line2d_67">
    <path clip-path="url(#p925900c39c)" d="M 86.212216 323.493297 
L 143.631004 332.506614 
L 201.049792 335.792306 
L 258.46858 339.596867 
L 315.887367 342.652799 
L 373.306155 345.00497 
L 430.724943 346.859235 
L 488.143731 347.999945 
L 545.562519 348.815707 
L 602.981307 306.044962 
L 660.400095 338.864586 
L 717.818883 322.149393 
L 775.23767 338.231444 
L 832.656458 306.210945 
L 890.075246 328.001453 
L 947.494034 331.389877 
" style="fill:none;stroke:#d9534f;stroke-linecap:square;"/>
   </g>
   <g id="line2d_68">
    <path clip-path="url(#p925900c39c)" d="M 86.212216 318.356878 
L 143.631004 333.845931 
L 201.049792 336.784277 
L 258.46858 339.719917 
L 315.887367 342.846189 
L 373.306155 345.162842 
L 430.724943 346.73776 
L 488.143731 347.987202 
L 545.562519 348.910654 
L 602.981307 308.841511 
L 660.400095 340.666999 
L 717.818883 326.188851 
L 775.23767 336.545918 
L 832.656458 290.24969 
L 890.075246 331.26121 
L 947.494034 339.50857 
" style="fill:none;stroke:#d9534f;stroke-linecap:square;"/>
   </g>
   <g id="line2d_69">
    <path clip-path="url(#p925900c39c)" d="M 86.212216 293.437566 
L 143.631004 318.764829 
L 201.049792 329.821872 
L 258.46858 336.263984 
L 315.887367 340.930146 
L 373.306155 343.115664 
L 430.724943 344.643044 
L 488.143731 346.409262 
L 545.562519 347.303233 
L 602.981307 283.228496 
L 660.400095 333.796869 
L 717.818883 320.708023 
L 775.23767 344.581521 
L 832.656458 344.902454 
L 890.075246 352.483535 
L 947.494034 353.2239 
" style="fill:none;stroke:#d9534f;stroke-linecap:square;"/>
   </g>
   <g id="line2d_70">
    <path clip-path="url(#p925900c39c)" d="M 86.212216 286.165765 
L 143.631004 316.647404 
L 201.049792 327.764998 
L 258.46858 335.05989 
L 315.887367 339.497253 
L 373.306155 342.448717 
L 430.724943 344.707554 
L 488.143731 346.269117 
L 545.562519 347.039768 
L 602.981307 288.720831 
L 660.400095 335.109256 
L 717.818883 324.148012 
L 775.23767 346.06168 
L 832.656458 347.832981 
L 890.075246 353.2239 
L 947.494034 352.917276 
" style="fill:none;stroke:#d9534f;stroke-linecap:square;"/>
   </g>
   <g id="line2d_71">
    <path clip-path="url(#p925900c39c)" d="M 86.212216 334.953818 
L 143.631004 342.121397 
L 201.049792 341.875673 
L 258.46858 342.427357 
L 315.887367 343.458816 
L 373.306155 344.718722 
L 430.724943 346.011028 
L 488.143731 347.190596 
L 545.562519 347.898121 
L 602.981307 306.417941 
L 660.400095 340.644713 
L 717.818883 325.022794 
L 775.23767 338.647222 
L 832.656458 304.553093 
L 890.075246 323.498985 
L 947.494034 304.174124 
" style="fill:none;stroke:#d9534f;stroke-linecap:square;"/>
   </g>
   <g id="line2d_72">
    <path clip-path="url(#p925900c39c)" d="M 86.212216 328.517114 
L 143.631004 342.459509 
L 201.049792 342.50168 
L 258.46858 342.825054 
L 315.887367 343.501896 
L 373.306155 345.048032 
L 430.724943 346.23232 
L 488.143731 347.248349 
L 545.562519 348.286753 
L 602.981307 309.610026 
L 660.400095 342.494349 
L 717.818883 331.167792 
L 775.23767 339.170656 
L 832.656458 287.42342 
L 890.075246 317.057578 
L 947.494034 320.069873 
" style="fill:none;stroke:#d9534f;stroke-linecap:square;"/>
   </g>
   <g id="line2d_73">
    <path clip-path="url(#p925900c39c)" d="M 86.212216 312.682118 
L 143.631004 325.072001 
L 201.049792 330.871492 
L 258.46858 335.697105 
L 315.887367 340.093508 
L 373.306155 343.237673 
L 430.724943 345.121667 
L 488.143731 346.613517 
L 545.562519 347.506349 
L 602.981307 290.834895 
L 660.400095 334.694763 
L 717.818883 318.337857 
L 775.23767 339.746859 
L 832.656458 324.54398 
L 890.075246 346.731167 
L 947.494034 351.829449 
" style="fill:none;stroke:#d9534f;stroke-linecap:square;"/>
   </g>
   <g id="line2d_74">
    <path clip-path="url(#p925900c39c)" d="M 86.212216 305.672717 
L 143.631004 326.466139 
L 201.049792 331.461949 
L 258.46858 336.353047 
L 315.887367 340.132691 
L 373.306155 342.95931 
L 430.724943 344.942698 
L 488.143731 346.275301 
L 545.562519 347.433814 
L 602.981307 294.201524 
L 660.400095 336.394074 
L 717.818883 317.549671 
L 775.23767 337.134225 
L 832.656458 324.093387 
L 890.075246 350.185458 
L 947.494034 352.358396 
" style="fill:none;stroke:#d9534f;stroke-linecap:square;"/>
   </g>
   <g id="line2d_75">
    <path clip-path="url(#p925900c39c)" d="M 86.212216 314.988541 
L 143.631004 327.583914 
L 201.049792 333.566468 
L 258.46858 338.688199 
L 315.887367 342.038791 
L 373.306155 344.600603 
L 430.724943 346.323802 
L 488.143731 347.380146 
L 545.562519 348.213092 
L 602.981307 290.812995 
L 660.400095 333.209643 
L 717.818883 313.932683 
L 775.23767 338.24412 
L 832.656458 320.310658 
L 890.075246 343.771723 
L 947.494034 349.949023 
" style="fill:none;stroke:#d9534f;stroke-linecap:square;"/>
   </g>
   <g id="line2d_76">
    <path clip-path="url(#p925900c39c)" d="M 86.212216 309.492267 
L 143.631004 328.679701 
L 201.049792 334.313199 
L 258.46858 338.291493 
L 315.887367 341.764627 
L 373.306155 344.28748 
L 430.724943 345.872522 
L 488.143731 347.124202 
L 545.562519 348.349898 
L 602.981307 292.820768 
L 660.400095 333.884489 
L 717.818883 315.158093 
L 775.23767 336.617738 
L 832.656458 317.765458 
L 890.075246 348.206979 
L 947.494034 350.985486 
" style="fill:none;stroke:#d9534f;stroke-linecap:square;"/>
   </g>
   <g id="line2d_77">
    <path clip-path="url(#p925900c39c)" d="M 86.212216 317.468723 
L 143.631004 327.849957 
L 201.049792 330.677308 
L 258.46858 334.597936 
L 315.887367 338.898622 
L 373.306155 341.949288 
L 430.724943 344.064483 
L 488.143731 345.667481 
L 545.562519 346.721388 
L 602.981307 279.978303 
L 660.400095 328.965807 
L 717.818883 310.088348 
L 775.23767 340.846777 
L 832.656458 340.358225 
L 890.075246 352.257854 
L 947.494034 353.2239 
" style="fill:none;stroke:#d9534f;stroke-linecap:square;"/>
   </g>
   <g id="line2d_78">
    <path clip-path="url(#p925900c39c)" d="M 86.212216 315.245279 
L 143.631004 330.192535 
L 201.049792 331.937987 
L 258.46858 335.517993 
L 315.887367 339.085814 
L 373.306155 342.223678 
L 430.724943 344.189344 
L 488.143731 345.783269 
L 545.562519 346.874115 
L 602.981307 276.727147 
L 660.400095 328.086437 
L 717.818883 309.640211 
L 775.23767 341.194753 
L 832.656458 341.679968 
L 890.075246 352.528447 
L 947.494034 352.707423 
" style="fill:none;stroke:#d9534f;stroke-linecap:square;"/>
   </g>
   <g id="line2d_79">
    <path clip-path="url(#p925900c39c)" d="M 86.212216 325.016 
L 143.631004 331.747098 
L 201.049792 332.602529 
L 258.46858 334.1321 
L 315.887367 337.513195 
L 373.306155 339.934383 
L 430.724943 342.895613 
L 488.143731 344.97649 
L 545.562519 346.033887 
L 602.981307 286.586959 
L 660.400095 336.036052 
L 717.818883 323.788678 
L 775.23767 340.852628 
L 832.656458 321.010883 
L 890.075246 341.661554 
L 947.494034 348.826351 
" style="fill:none;stroke:#d9534f;stroke-linecap:square;"/>
   </g>
   <g id="line2d_80">
    <path clip-path="url(#p925900c39c)" d="M 86.212216 317.024984 
L 143.631004 332.990197 
L 201.049792 333.944633 
L 258.46858 335.441418 
L 315.887367 338.000335 
L 373.306155 340.392211 
L 430.724943 342.97391 
L 488.143731 344.724988 
L 545.562519 346.523222 
L 602.981307 288.607424 
L 660.400095 338.029872 
L 717.818883 324.657379 
L 775.23767 338.888561 
L 832.656458 315.640391 
L 890.075246 345.300218 
L 947.494034 350.474658 
" style="fill:none;stroke:#d9534f;stroke-linecap:square;"/>
   </g>
   <g id="line2d_81">
    <path clip-path="url(#p925900c39c)" d="M 86.212216 308.502536 
L 143.631004 326.578856 
L 201.049792 334.558299 
L 258.46858 340.442471 
L 315.887367 343.956031 
L 373.306155 346.35514 
L 430.724943 347.840925 
L 488.143731 348.725457 
L 545.562519 349.332825 
L 602.981307 309.542945 
L 660.400095 339.522696 
L 717.818883 324.628872 
L 775.23767 339.102895 
L 832.656458 307.340893 
L 890.075246 331.03165 
L 947.494034 336.15191 
" style="fill:none;stroke:#d9534f;stroke-linecap:square;"/>
   </g>
   <g id="line2d_82">
    <path clip-path="url(#p925900c39c)" d="M 86.212216 300.835591 
L 143.631004 328.441898 
L 201.049792 335.916733 
L 258.46858 340.814142 
L 315.887367 344.237183 
L 373.306155 346.305917 
L 430.724943 347.977593 
L 488.143731 348.839373 
L 545.562519 349.498453 
L 602.981307 311.928035 
L 660.400095 341.884815 
L 717.818883 329.259311 
L 775.23767 337.459029 
L 832.656458 294.110659 
L 890.075246 332.595836 
L 947.494034 343.509831 
" style="fill:none;stroke:#d9534f;stroke-linecap:square;"/>
   </g>
   <g id="line2d_83">
    <path clip-path="url(#p925900c39c)" d="M 86.212216 326.838046 
L 143.631004 334.79942 
L 201.049792 337.230184 
L 258.46858 340.316647 
L 315.887367 343.019247 
L 373.306155 345.398617 
L 430.724943 347.216747 
L 488.143731 348.270833 
L 545.562519 349.022145 
L 602.981307 309.646774 
L 660.400095 339.247553 
L 717.818883 323.404244 
L 775.23767 338.138051 
L 832.656458 303.397148 
L 890.075246 324.595546 
L 947.494034 323.073199 
" style="fill:none;stroke:#d9534f;stroke-linecap:square;"/>
   </g>
   <g id="line2d_84">
    <path clip-path="url(#p925900c39c)" d="M 86.212216 322.048136 
L 143.631004 335.621121 
L 201.049792 338.098893 
L 258.46858 340.918003 
L 315.887367 343.512281 
L 373.306155 345.830114 
L 430.724943 347.134775 
L 488.143731 348.182044 
L 545.562519 349.069963 
L 602.981307 311.28794 
L 660.400095 341.584069 
L 717.818883 328.661362 
L 775.23767 336.999507 
L 832.656458 286.694993 
L 890.075246 324.851798 
L 947.494034 333.119402 
" style="fill:none;stroke:#d9534f;stroke-linecap:square;"/>
   </g>
   <g id="line2d_85">
    <path clip-path="url(#p925900c39c)" d="M 86.212216 320.194379 
L 143.631004 332.724645 
L 201.049792 336.9232 
L 258.46858 341.157185 
L 315.887367 344.23044 
L 373.306155 346.556524 
L 430.724943 348.057902 
L 488.143731 348.829667 
L 545.562519 349.659953 
L 602.981307 311.641885 
L 660.400095 339.222463 
L 717.818883 319.084677 
L 775.23767 336.488379 
L 832.656458 304.035097 
L 890.075246 324.974654 
L 947.494034 329.833349 
" style="fill:none;stroke:#d9534f;stroke-linecap:square;"/>
   </g>
   <g id="line2d_86">
    <path clip-path="url(#p925900c39c)" d="M 86.212216 312.16057 
L 143.631004 333.799385 
L 201.049792 337.997822 
L 258.46858 341.68745 
L 315.887367 344.693955 
L 373.306155 346.945204 
L 430.724943 348.174676 
L 488.143731 349.199827 
L 545.562519 349.747838 
L 602.981307 316.143881 
L 660.400095 340.782534 
L 717.818883 322.944965 
L 775.23767 335.084061 
L 832.656458 287.169634 
L 890.075246 328.399749 
L 947.494034 338.682849 
" style="fill:none;stroke:#d9534f;stroke-linecap:square;"/>
   </g>
   <g id="line2d_87">
    <path clip-path="url(#p925900c39c)" d="M 86.212216 318.34697 
L 143.631004 330.919324 
L 201.049792 335.703064 
L 258.46858 340.525577 
L 315.887367 343.766551 
L 373.306155 345.853042 
L 430.724943 347.317416 
L 488.143731 348.361355 
L 545.562519 348.941224 
L 602.981307 306.642317 
L 660.400095 337.412951 
L 717.818883 314.691703 
L 775.23767 335.413277 
L 832.656458 305.537179 
L 890.075246 333.3367 
L 947.494034 340.845752 
" style="fill:none;stroke:#d9534f;stroke-linecap:square;"/>
   </g>
   <g id="line2d_88">
    <path clip-path="url(#p925900c39c)" d="M 86.212216 307.168184 
L 143.631004 332.058301 
L 201.049792 336.726817 
L 258.46858 340.611065 
L 315.887367 344.047181 
L 373.306155 346.198342 
L 430.724943 347.732908 
L 488.143731 348.666601 
L 545.562519 349.305245 
L 602.981307 311.570445 
L 660.400095 338.847071 
L 717.818883 316.893948 
L 775.23767 333.380536 
L 832.656458 295.853092 
L 890.075246 337.788722 
L 947.494034 346.76594 
" style="fill:none;stroke:#d9534f;stroke-linecap:square;"/>
   </g>
   <g id="line2d_89">
    <path clip-path="url(#p925900c39c)" d="M 86.212216 319.111145 
L 143.631004 332.085832 
L 201.049792 337.40875 
L 258.46858 342.101469 
L 315.887367 344.61204 
L 373.306155 346.723508 
L 430.724943 348.089863 
L 488.143731 349.085298 
L 545.562519 349.64516 
L 602.981307 313.492967 
L 660.400095 340.556977 
L 717.818883 324.482625 
L 775.23767 338.14352 
L 832.656458 302.687603 
L 890.075246 323.92647 
L 947.494034 321.461173 
" style="fill:none;stroke:#d9534f;stroke-linecap:square;"/>
   </g>
   <g id="line2d_90">
    <path clip-path="url(#p925900c39c)" d="M 86.212216 309.131557 
L 143.631004 332.608111 
L 201.049792 337.917329 
L 258.46858 342.24804 
L 315.887367 344.881938 
L 373.306155 346.853934 
L 430.724943 348.260083 
L 488.143731 349.123377 
L 545.562519 349.876257 
L 602.981307 318.144054 
L 660.400095 343.247295 
L 717.818883 330.231623 
L 775.23767 336.958979 
L 832.656458 285.379125 
L 890.075246 325.16244 
L 947.494034 333.590259 
" style="fill:none;stroke:#d9534f;stroke-linecap:square;"/>
   </g>
   <g id="line2d_91">
    <path clip-path="url(#p925900c39c)" d="M 86.212216 322.191231 
L 143.631004 332.600731 
L 201.049792 336.366343 
L 258.46858 340.604864 
L 315.887367 343.13794 
L 373.306155 345.569699 
L 430.724943 346.977219 
L 488.143731 348.081615 
L 545.562519 348.90046 
L 602.981307 304.468517 
L 660.400095 338.266474 
L 717.818883 320.471183 
L 775.23767 337.883099 
L 832.656458 310.195722 
L 890.075246 332.217646 
L 947.494034 325.681655 
" style="fill:none;stroke:#d9534f;stroke-linecap:square;"/>
   </g>
   <g id="line2d_92">
    <path clip-path="url(#p925900c39c)" d="M 86.212216 318.392791 
L 143.631004 333.732573 
L 201.049792 337.200999 
L 258.46858 340.60832 
L 315.887367 343.085602 
L 373.306155 345.35551 
L 430.724943 346.721791 
L 488.143731 348.019166 
L 545.562519 348.819465 
L 602.981307 307.724334 
L 660.400095 339.784828 
L 717.818883 322.896792 
L 775.23767 336.893899 
L 832.656458 298.843512 
L 890.075246 330.996668 
L 947.494034 334.53815 
" style="fill:none;stroke:#d9534f;stroke-linecap:square;"/>
   </g>
   <g id="line2d_93">
    <path clip-path="url(#p925900c39c)" d="M 86.212216 326.426456 
L 143.631004 333.765048 
L 201.049792 334.974436 
L 258.46858 337.429922 
L 315.887367 340.014516 
L 373.306155 342.706758 
L 430.724943 344.697114 
L 488.143731 345.991643 
L 545.562519 347.234008 
L 602.981307 288.438215 
L 660.400095 333.765669 
L 717.818883 312.904115 
L 775.23767 336.869323 
L 832.656458 316.612103 
L 890.075246 342.666121 
L 947.494034 349.118953 
" style="fill:none;stroke:#d9534f;stroke-linecap:square;"/>
   </g>
   <g id="line2d_94">
    <path clip-path="url(#p925900c39c)" d="M 86.212216 316.854125 
L 143.631004 335.163449 
L 201.049792 335.926792 
L 258.46858 337.962044 
L 315.887367 340.475423 
L 373.306155 342.630282 
L 430.724943 344.648531 
L 488.143731 346.362497 
L 545.562519 347.431119 
L 602.981307 291.678853 
L 660.400095 335.205148 
L 717.818883 313.490546 
L 775.23767 334.743157 
L 832.656458 313.953239 
L 890.075246 346.382087 
L 947.494034 350.707108 
" style="fill:none;stroke:#d9534f;stroke-linecap:square;"/>
   </g>
   <g id="line2d_95">
    <path clip-path="url(#p925900c39c)" d="M 86.212216 326.37026 
L 143.631004 334.744395 
L 201.049792 337.263239 
L 258.46858 340.357835 
L 315.887367 343.298236 
L 373.306155 345.216671 
L 430.724943 346.875464 
L 488.143731 347.998415 
L 545.562519 348.888617 
L 602.981307 303.550779 
L 660.400095 337.080486 
L 717.818883 318.20945 
L 775.23767 337.427096 
L 832.656458 307.687231 
L 890.075246 328.636008 
L 947.494034 330.010218 
" style="fill:none;stroke:#d9534f;stroke-linecap:square;"/>
   </g>
   <g id="line2d_96">
    <path clip-path="url(#p925900c39c)" d="M 86.212216 321.992476 
L 143.631004 336.066814 
L 201.049792 337.739434 
L 258.46858 340.942618 
L 315.887367 343.373753 
L 373.306155 345.423117 
L 430.724943 346.990388 
L 488.143731 347.998135 
L 545.562519 348.775473 
L 602.981307 305.823676 
L 660.400095 338.409521 
L 717.818883 321.882574 
L 775.23767 336.481579 
L 832.656458 291.707337 
L 890.075246 330.980133 
L 947.494034 339.027371 
" style="fill:none;stroke:#d9534f;stroke-linecap:square;"/>
   </g>
   <g id="line2d_97">
    <path clip-path="url(#p925900c39c)" d="M 86.212216 307.525229 
L 143.631004 325.405762 
L 201.049792 333.942749 
L 258.46858 340.03936 
L 315.887367 343.478109 
L 373.306155 345.783807 
L 430.724943 347.066065 
L 488.143731 348.209984 
L 545.562519 349.010673 
L 602.981307 301.800098 
L 660.400095 335.268521 
L 717.818883 315.550865 
L 775.23767 337.335026 
L 832.656458 313.231868 
L 890.075246 340.544045 
L 947.494034 349.422238 
" style="fill:none;stroke:#d9534f;stroke-linecap:square;"/>
   </g>
   <g id="line2d_98">
    <path clip-path="url(#p925900c39c)" d="M 86.212216 303.282346 
L 143.631004 326.765653 
L 201.049792 334.377851 
L 258.46858 340.049954 
L 315.887367 343.8388 
L 373.306155 345.911958 
L 430.724943 347.166816 
L 488.143731 348.343008 
L 545.562519 349.051529 
L 602.981307 303.655419 
L 660.400095 336.720236 
L 717.818883 315.639606 
L 775.23767 333.369773 
L 832.656458 307.931291 
L 890.075246 346.511602 
L 947.494034 350.998559 
" style="fill:none;stroke:#d9534f;stroke-linecap:square;"/>
   </g>
   <g id="line2d_99">
    <path clip-path="url(#p925900c39c)" d="M 86.212216 323.619931 
L 143.631004 331.766579 
L 201.049792 335.03909 
L 258.46858 338.080438 
L 315.887367 341.452935 
L 373.306155 343.922291 
L 430.724943 345.770641 
L 488.143731 347.032779 
L 545.562519 347.862893 
L 602.981307 290.083223 
L 660.400095 332.591899 
L 717.818883 310.451522 
L 775.23767 337.005787 
L 832.656458 317.845901 
L 890.075246 342.577939 
L 947.494034 348.510552 
" style="fill:none;stroke:#d9534f;stroke-linecap:square;"/>
   </g>
   <g id="line2d_100">
    <path clip-path="url(#p925900c39c)" d="M 86.212216 320.519596 
L 143.631004 333.310813 
L 201.049792 335.556872 
L 258.46858 338.695168 
L 315.887367 341.513413 
L 373.306155 343.965924 
L 430.724943 345.523711 
L 488.143731 346.864415 
L 545.562519 347.80385 
L 602.981307 290.97049 
L 660.400095 333.114874 
L 717.818883 310.403908 
L 775.23767 335.283957 
L 832.656458 313.050404 
L 890.075246 346.428788 
L 947.494034 350.608215 
" style="fill:none;stroke:#d9534f;stroke-linecap:square;"/>
   </g>
   <g id="line2d_101">
    <path clip-path="url(#p925900c39c)" d="M 86.212216 323.722606 
L 143.631004 332.069331 
L 201.049792 333.645886 
L 258.46858 336.723423 
L 315.887367 340.083382 
L 373.306155 342.830063 
L 430.724943 344.361098 
L 488.143731 345.875867 
L 545.562519 347.076367 
L 602.981307 280.326241 
L 660.400095 329.035934 
L 717.818883 304.681161 
L 775.23767 336.182041 
L 832.656458 331.640664 
L 890.075246 352.37154 
L 947.494034 352.988794 
" style="fill:none;stroke:#d9534f;stroke-linecap:square;"/>
   </g>
   <g id="line2d_102">
    <path clip-path="url(#p925900c39c)" d="M 86.212216 317.89718 
L 143.631004 334.468205 
L 201.049792 335.738925 
L 258.46858 337.772316 
L 315.887367 340.496343 
L 373.306155 342.933607 
L 430.724943 344.919283 
L 488.143731 345.845713 
L 545.562519 347.179581 
L 602.981307 279.784996 
L 660.400095 329.001963 
L 717.818883 300.742863 
L 775.23767 335.551954 
L 832.656458 335.782038 
L 890.075246 352.443118 
L 947.494034 353.056316 
" style="fill:none;stroke:#d9534f;stroke-linecap:square;"/>
   </g>
   <g id="line2d_103">
    <path clip-path="url(#p925900c39c)" d="M 86.212216 329.214076 
L 143.631004 338.188666 
L 201.049792 337.802116 
L 258.46858 339.414469 
L 315.887367 341.344037 
L 373.306155 343.308431 
L 430.724943 344.827721 
L 488.143731 346.263017 
L 545.562519 347.220961 
L 602.981307 284.67013 
L 660.400095 331.536726 
L 717.818883 309.99546 
L 775.23767 336.840704 
L 832.656458 318.585895 
L 890.075246 340.411742 
L 947.494034 343.990249 
" style="fill:none;stroke:#d9534f;stroke-linecap:square;"/>
   </g>
   <g id="line2d_104">
    <path clip-path="url(#p925900c39c)" d="M 86.212216 322.403264 
L 143.631004 339.444311 
L 201.049792 339.111862 
L 258.46858 340.479421 
L 315.887367 341.897451 
L 373.306155 343.793786 
L 430.724943 345.126906 
L 488.143731 346.466216 
L 545.562519 347.184878 
L 602.981307 285.48739 
L 660.400095 332.274449 
L 717.818883 311.072784 
L 775.23767 335.909605 
L 832.656458 311.381712 
L 890.075246 343.318822 
L 947.494034 348.261541 
" style="fill:none;stroke:#d9534f;stroke-linecap:square;"/>
   </g>
   <g id="line2d_105">
    <path clip-path="url(#p925900c39c)" d="M 86.212216 309.97293 
L 143.631004 325.295658 
L 201.049792 332.814865 
L 258.46858 338.278899 
L 315.887367 341.799781 
L 373.306155 344.507509 
L 430.724943 346.139158 
L 488.143731 347.531801 
L 545.562519 348.364893 
L 602.981307 294.073783 
L 660.400095 333.468116 
L 717.818883 313.344301 
L 775.23767 336.876457 
L 832.656458 321.952009 
L 890.075246 347.144998 
L 947.494034 352.049242 
" style="fill:none;stroke:#d9534f;stroke-linecap:square;"/>
   </g>
   <g id="line2d_106">
    <path clip-path="url(#p925900c39c)" d="M 86.212216 306.525406 
L 143.631004 327.469541 
L 201.049792 333.306434 
L 258.46858 338.554515 
L 315.887367 342.268484 
L 373.306155 344.399041 
L 430.724943 346.386486 
L 488.143731 347.640808 
L 545.562519 348.359198 
L 602.981307 295.346852 
L 660.400095 333.74292 
L 717.818883 311.242528 
L 775.23767 334.410213 
L 832.656458 321.705354 
L 890.075246 349.768503 
L 947.494034 352.488116 
" style="fill:none;stroke:#d9534f;stroke-linecap:square;"/>
   </g>
   <g id="line2d_107">
    <path clip-path="url(#p925900c39c)" d="M 86.212216 316.999086 
L 143.631004 329.496833 
L 201.049792 333.997767 
L 258.46858 338.454723 
L 315.887367 341.928434 
L 373.306155 344.171127 
L 430.724943 345.990614 
L 488.143731 347.15163 
L 545.562519 347.996558 
L 602.981307 290.018023 
L 660.400095 331.322166 
L 717.818883 308.58623 
L 775.23767 336.728729 
L 832.656458 322.235744 
L 890.075246 346.675144 
L 947.494034 351.861592 
" style="fill:none;stroke:#d9534f;stroke-linecap:square;"/>
   </g>
   <g id="line2d_108">
    <path clip-path="url(#p925900c39c)" d="M 86.212216 311.691615 
L 143.631004 331.310093 
L 201.049792 335.144653 
L 258.46858 339.345467 
L 315.887367 342.276485 
L 373.306155 344.5425 
L 430.724943 346.019246 
L 488.143731 347.272778 
L 545.562519 348.098474 
L 602.981307 291.437819 
L 660.400095 331.425859 
L 717.818883 307.257715 
L 775.23767 334.599718 
L 832.656458 321.537349 
L 890.075246 349.558295 
L 947.494034 352.096335 
" style="fill:none;stroke:#d9534f;stroke-linecap:square;"/>
   </g>
   <g id="line2d_109">
    <path clip-path="url(#p925900c39c)" d="M 86.212216 307.291133 
L 143.631004 324.192045 
L 201.049792 331.844746 
L 258.46858 338.012673 
L 315.887367 342.118944 
L 373.306155 344.873776 
L 430.724943 346.354277 
L 488.143731 347.525245 
L 545.562519 348.492802 
L 602.981307 296.244117 
L 660.400095 333.96561 
L 717.818883 314.562662 
L 775.23767 337.313119 
L 832.656458 322.032673 
L 890.075246 347.142559 
L 947.494034 351.648019 
" style="fill:none;stroke:#d9534f;stroke-linecap:square;"/>
   </g>
   <g id="line2d_110">
    <path clip-path="url(#p925900c39c)" d="M 86.212216 305.359989 
L 143.631004 325.507083 
L 201.049792 332.774783 
L 258.46858 338.221764 
L 315.887367 342.240199 
L 373.306155 344.625951 
L 430.724943 346.357013 
L 488.143731 347.825598 
L 545.562519 348.565511 
L 602.981307 296.797547 
L 660.400095 335.084821 
L 717.818883 312.637847 
L 775.23767 334.830979 
L 832.656458 321.151593 
L 890.075246 349.192557 
L 947.494034 352.441165 
" style="fill:none;stroke:#d9534f;stroke-linecap:square;"/>
   </g>
   <g id="line2d_111">
    <path clip-path="url(#p925900c39c)" d="M 86.212216 321.196265 
L 143.631004 331.601642 
L 201.049792 336.805308 
L 258.46858 340.847337 
L 315.887367 344.166839 
L 373.306155 346.131108 
L 430.724943 347.632603 
L 488.143731 348.733975 
L 545.562519 349.41334 
L 602.981307 306.137396 
L 660.400095 336.695404 
L 717.818883 315.855085 
L 775.23767 336.321344 
L 832.656458 304.577878 
L 890.075246 331.111775 
L 947.494034 336.387102 
" style="fill:none;stroke:#d9534f;stroke-linecap:square;"/>
   </g>
   <g id="line2d_112">
    <path clip-path="url(#p925900c39c)" d="M 86.212216 316.14356 
L 143.631004 333.221115 
L 201.049792 337.569848 
L 258.46858 341.385024 
L 315.887367 344.538348 
L 373.306155 346.478853 
L 430.724943 347.844332 
L 488.143731 348.868572 
L 545.562519 349.322942 
L 602.981307 308.130062 
L 660.400095 337.978837 
L 717.818883 318.573808 
L 775.23767 334.157928 
L 832.656458 290.460068 
L 890.075246 334.525932 
L 947.494034 344.415171 
" style="fill:none;stroke:#d9534f;stroke-linecap:square;"/>
   </g>
   <g id="line2d_113">
    <path clip-path="url(#p925900c39c)" d="M 86.212216 325.017878 
L 143.631004 334.295873 
L 201.049792 337.993054 
L 258.46858 341.98494 
L 315.887367 344.673202 
L 373.306155 346.701151 
L 430.724943 348.045715 
L 488.143731 349.027039 
L 545.562519 349.616579 
L 602.981307 312.679559 
L 660.400095 339.301026 
L 717.818883 320.324308 
L 775.23767 337.527915 
L 832.656458 305.939197 
L 890.075246 326.078861 
L 947.494034 314.408103 
" style="fill:none;stroke:#d9534f;stroke-linecap:square;"/>
   </g>
   <g id="line2d_114">
    <path clip-path="url(#p925900c39c)" d="M 86.212216 320.510885 
L 143.631004 335.298471 
L 201.049792 338.568082 
L 258.46858 342.232022 
L 315.887367 344.675112 
L 373.306155 347.015236 
L 430.724943 348.099038 
L 488.143731 349.08035 
L 545.562519 349.753895 
L 602.981307 315.436627 
L 660.400095 341.01142 
L 717.818883 324.518886 
L 775.23767 337.362071 
L 832.656458 290.978517 
L 890.075246 323.249041 
L 947.494034 325.824746 
" style="fill:none;stroke:#d9534f;stroke-linecap:square;"/>
   </g>
   <g id="line2d_115">
    <path clip-path="url(#p925900c39c)" d="M 86.212216 325.529867 
L 143.631004 335.147111 
L 201.049792 337.88485 
L 258.46858 341.094863 
L 315.887367 343.725244 
L 373.306155 345.788043 
L 430.724943 347.301956 
L 488.143731 348.169976 
L 545.562519 348.95138 
L 602.981307 301.646081 
L 660.400095 334.589971 
L 717.818883 308.257112 
L 775.23767 331.622377 
L 832.656458 307.974685 
L 890.075246 336.782733 
L 947.494034 339.14815 
" style="fill:none;stroke:#d9534f;stroke-linecap:square;"/>
   </g>
   <g id="line2d_116">
    <path clip-path="url(#p925900c39c)" d="M 86.212216 316.590763 
L 143.631004 336.254824 
L 201.049792 338.681431 
L 258.46858 341.379785 
L 315.887367 344.191027 
L 373.306155 346.178714 
L 430.724943 347.439767 
L 488.143731 348.603803 
L 545.562519 349.166102 
L 602.981307 305.68647 
L 660.400095 336.496924 
L 717.818883 306.754411 
L 775.23767 330.629902 
L 832.656458 300.862183 
L 890.075246 339.231082 
L 947.494034 345.467212 
" style="fill:none;stroke:#d9534f;stroke-linecap:square;"/>
   </g>
   <g id="line2d_117">
    <path clip-path="url(#p925900c39c)" d="M 86.212216 328.798027 
L 143.631004 337.081958 
L 201.049792 337.709065 
L 258.46858 338.957405 
L 315.887367 341.202359 
L 373.306155 343.388299 
L 430.724943 344.892374 
L 488.143731 346.755318 
L 545.562519 347.619457 
L 602.981307 291.634002 
L 660.400095 331.774034 
L 717.818883 300.522027 
L 775.23767 330.370942 
L 832.656458 314.659371 
L 890.075246 346.735616 
L 947.494034 351.514146 
" style="fill:none;stroke:#d9534f;stroke-linecap:square;"/>
   </g>
   <g id="line2d_118">
    <path clip-path="url(#p925900c39c)" d="M 86.212216 323.336921 
L 143.631004 338.457814 
L 201.049792 338.822398 
L 258.46858 340.013544 
L 315.887367 341.939435 
L 373.306155 344.016074 
L 430.724943 345.57118 
L 488.143731 347.02571 
L 545.562519 348.013473 
L 602.981307 294.893851 
L 660.400095 332.079356 
L 717.818883 295.20688 
L 775.23767 327.449078 
L 832.656458 315.254189 
L 890.075246 349.313977 
L 947.494034 352.220518 
" style="fill:none;stroke:#d9534f;stroke-linecap:square;"/>
   </g>
   <g id="line2d_119">
    <path clip-path="url(#p925900c39c)" d="M 86.212216 322.454437 
L 143.631004 332.135422 
L 201.049792 335.638482 
L 258.46858 340.09642 
L 315.887367 342.669416 
L 373.306155 344.804189 
L 430.724943 346.420068 
L 488.143731 347.511862 
L 545.562519 348.423225 
L 602.981307 293.283523 
L 660.400095 332.036713 
L 717.818883 303.172812 
L 775.23767 333.096126 
L 832.656458 315.781906 
L 890.075246 345.456827 
L 947.494034 350.632971 
" style="fill:none;stroke:#d9534f;stroke-linecap:square;"/>
   </g>
   <g id="line2d_120">
    <path clip-path="url(#p925900c39c)" d="M 86.212216 319.910965 
L 143.631004 333.643239 
L 201.049792 336.803037 
L 258.46858 340.464854 
L 315.887367 343.168183 
L 373.306155 345.086886 
L 430.724943 346.410791 
L 488.143731 347.490932 
L 545.562519 348.362977 
L 602.981307 295.027661 
L 660.400095 331.95197 
L 717.818883 300.317604 
L 775.23767 329.97842 
L 832.656458 314.344007 
L 890.075246 348.90094 
L 947.494034 351.751932 
" style="fill:none;stroke:#d9534f;stroke-linecap:square;"/>
   </g>
   <g id="line2d_121">
    <path clip-path="url(#p925900c39c)" d="M 86.212216 319.096805 
L 143.631004 330.552826 
L 201.049792 335.493182 
L 258.46858 339.4212 
L 315.887367 342.976196 
L 373.306155 344.952308 
L 430.724943 346.701865 
L 488.143731 347.629384 
L 545.562519 348.463975 
L 602.981307 294.087099 
L 660.400095 332.028247 
L 717.818883 305.096998 
L 775.23767 333.955686 
L 832.656458 316.665312 
L 890.075246 345.423193 
L 947.494034 351.070124 
" style="fill:none;stroke:#d9534f;stroke-linecap:square;"/>
   </g>
   <g id="line2d_122">
    <path clip-path="url(#p925900c39c)" d="M 86.212216 309.574739 
L 143.631004 332.096237 
L 201.049792 336.635725 
L 258.46858 340.21265 
L 315.887367 343.677632 
L 373.306155 345.265348 
L 430.724943 346.608354 
L 488.143731 347.815696 
L 545.562519 348.575034 
L 602.981307 297.063566 
L 660.400095 332.512509 
L 717.818883 303.118171 
L 775.23767 331.48255 
L 832.656458 317.748194 
L 890.075246 349.407945 
L 947.494034 351.820049 
" style="fill:none;stroke:#d9534f;stroke-linecap:square;"/>
   </g>
   <g id="line2d_123">
    <path clip-path="url(#p925900c39c)" d="M 86.212216 327.583629 
L 143.631004 337.437864 
L 201.049792 339.45979 
L 258.46858 341.766494 
L 315.887367 344.162605 
L 373.306155 345.948219 
L 430.724943 347.259571 
L 488.143731 348.226963 
L 545.562519 348.709569 
L 602.981307 298.360788 
L 660.400095 333.259813 
L 717.818883 305.564057 
L 775.23767 331.064787 
L 832.656458 306.7121 
L 890.075246 337.286073 
L 947.494034 340.812078 
" style="fill:none;stroke:#d9534f;stroke-linecap:square;"/>
   </g>
   <g id="line2d_124">
    <path clip-path="url(#p925900c39c)" d="M 86.212216 323.163884 
L 143.631004 338.750817 
L 201.049792 340.555429 
L 258.46858 342.445922 
L 315.887367 344.485471 
L 373.306155 346.005178 
L 430.724943 347.30653 
L 488.143731 348.219586 
L 545.562519 349.015688 
L 602.981307 300.386644 
L 660.400095 334.012644 
L 717.818883 304.048846 
L 775.23767 329.235594 
L 832.656458 299.381253 
L 890.075246 340.519767 
L 947.494034 346.081149 
" style="fill:none;stroke:#d9534f;stroke-linecap:square;"/>
   </g>
   <g id="line2d_125">
    <path clip-path="url(#p925900c39c)" d="M 43.148125 353.2239 
L 990.558125 353.2239 
" style="fill:none;stroke:#dedede;stroke-linecap:square;stroke-width:2;"/>
   </g>
   <g id="text_25">
    <!-- FastQC: Sequence Duplication Levels -->
    <defs>
     <path d="M 9.8125 72.90625 
L 51.703125 72.90625 
L 51.703125 64.59375 
L 19.671875 64.59375 
L 19.671875 43.109375 
L 48.578125 43.109375 
L 48.578125 34.8125 
L 19.671875 34.8125 
L 19.671875 0 
L 9.8125 0 
z
" id="DejaVuSans-70"/>
     <path d="M 44.28125 53.078125 
L 44.28125 44.578125 
Q 40.484375 46.53125 36.375 47.5 
Q 32.28125 48.484375 27.875 48.484375 
Q 21.1875 48.484375 17.84375 46.4375 
Q 14.5 44.390625 14.5 40.28125 
Q 14.5 37.15625 16.890625 35.375 
Q 19.28125 33.59375 26.515625 31.984375 
L 29.59375 31.296875 
Q 39.15625 29.25 43.1875 25.515625 
Q 47.21875 21.78125 47.21875 15.09375 
Q 47.21875 7.46875 41.1875 3.015625 
Q 35.15625 -1.421875 24.609375 -1.421875 
Q 20.21875 -1.421875 15.453125 -0.5625 
Q 10.6875 0.296875 5.421875 2 
L 5.421875 11.28125 
Q 10.40625 8.6875 15.234375 7.390625 
Q 20.0625 6.109375 24.8125 6.109375 
Q 31.15625 6.109375 34.5625 8.28125 
Q 37.984375 10.453125 37.984375 14.40625 
Q 37.984375 18.0625 35.515625 20.015625 
Q 33.0625 21.96875 24.703125 23.78125 
L 21.578125 24.515625 
Q 13.234375 26.265625 9.515625 29.90625 
Q 5.8125 33.546875 5.8125 39.890625 
Q 5.8125 47.609375 11.28125 51.796875 
Q 16.75 56 26.8125 56 
Q 31.78125 56 36.171875 55.265625 
Q 40.578125 54.546875 44.28125 53.078125 
z
" id="DejaVuSans-115"/>
     <path d="M 39.40625 66.21875 
Q 28.65625 66.21875 22.328125 58.203125 
Q 16.015625 50.203125 16.015625 36.375 
Q 16.015625 22.609375 22.328125 14.59375 
Q 28.65625 6.59375 39.40625 6.59375 
Q 50.140625 6.59375 56.421875 14.59375 
Q 62.703125 22.609375 62.703125 36.375 
Q 62.703125 50.203125 56.421875 58.203125 
Q 50.140625 66.21875 39.40625 66.21875 
z
M 53.21875 1.3125 
L 66.21875 -12.890625 
L 54.296875 -12.890625 
L 43.5 -1.21875 
Q 41.890625 -1.3125 41.03125 -1.359375 
Q 40.1875 -1.421875 39.40625 -1.421875 
Q 24.03125 -1.421875 14.8125 8.859375 
Q 5.609375 19.140625 5.609375 36.375 
Q 5.609375 53.65625 14.8125 63.9375 
Q 24.03125 74.21875 39.40625 74.21875 
Q 54.734375 74.21875 63.90625 63.9375 
Q 73.09375 53.65625 73.09375 36.375 
Q 73.09375 23.6875 67.984375 14.640625 
Q 62.890625 5.609375 53.21875 1.3125 
z
" id="DejaVuSans-81"/>
     <path d="M 64.40625 67.28125 
L 64.40625 56.890625 
Q 59.421875 61.53125 53.78125 63.8125 
Q 48.140625 66.109375 41.796875 66.109375 
Q 29.296875 66.109375 22.65625 58.46875 
Q 16.015625 50.828125 16.015625 36.375 
Q 16.015625 21.96875 22.65625 14.328125 
Q 29.296875 6.6875 41.796875 6.6875 
Q 48.140625 6.6875 53.78125 8.984375 
Q 59.421875 11.28125 64.40625 15.921875 
L 64.40625 5.609375 
Q 59.234375 2.09375 53.4375 0.328125 
Q 47.65625 -1.421875 41.21875 -1.421875 
Q 24.65625 -1.421875 15.125 8.703125 
Q 5.609375 18.84375 5.609375 36.375 
Q 5.609375 53.953125 15.125 64.078125 
Q 24.65625 74.21875 41.21875 74.21875 
Q 47.75 74.21875 53.53125 72.484375 
Q 59.328125 70.75 64.40625 67.28125 
z
" id="DejaVuSans-67"/>
     <path d="M 11.71875 12.40625 
L 22.015625 12.40625 
L 22.015625 0 
L 11.71875 0 
z
M 11.71875 51.703125 
L 22.015625 51.703125 
L 22.015625 39.3125 
L 11.71875 39.3125 
z
" id="DejaVuSans-58"/>
    </defs>
    <g transform="translate(367.581875 19.3575)scale(0.16 -0.16)">
     <use xlink:href="#DejaVuSans-70"/>
     <use x="57.378906" xlink:href="#DejaVuSans-97"/>
     <use x="118.658203" xlink:href="#DejaVuSans-115"/>
     <use x="170.757812" xlink:href="#DejaVuSans-116"/>
     <use x="209.966797" xlink:href="#DejaVuSans-81"/>
     <use x="288.677734" xlink:href="#DejaVuSans-67"/>
     <use x="358.501953" xlink:href="#DejaVuSans-58"/>
     <use x="392.193359" xlink:href="#DejaVuSans-32"/>
     <use x="423.980469" xlink:href="#DejaVuSans-83"/>
     <use x="487.457031" xlink:href="#DejaVuSans-101"/>
     <use x="548.980469" xlink:href="#DejaVuSans-113"/>
     <use x="612.457031" xlink:href="#DejaVuSans-117"/>
     <use x="675.835938" xlink:href="#DejaVuSans-101"/>
     <use x="737.359375" xlink:href="#DejaVuSans-110"/>
     <use x="800.738281" xlink:href="#DejaVuSans-99"/>
     <use x="855.71875" xlink:href="#DejaVuSans-101"/>
     <use x="917.242188" xlink:href="#DejaVuSans-32"/>
     <use x="949.029297" xlink:href="#DejaVuSans-68"/>
     <use x="1026.03125" xlink:href="#DejaVuSans-117"/>
     <use x="1089.410156" xlink:href="#DejaVuSans-112"/>
     <use x="1152.886719" xlink:href="#DejaVuSans-108"/>
     <use x="1180.669922" xlink:href="#DejaVuSans-105"/>
     <use x="1208.453125" xlink:href="#DejaVuSans-99"/>
     <use x="1263.433594" xlink:href="#DejaVuSans-97"/>
     <use x="1324.712891" xlink:href="#DejaVuSans-116"/>
     <use x="1363.921875" xlink:href="#DejaVuSans-105"/>
     <use x="1391.705078" xlink:href="#DejaVuSans-111"/>
     <use x="1452.886719" xlink:href="#DejaVuSans-110"/>
     <use x="1516.265625" xlink:href="#DejaVuSans-32"/>
     <use x="1548.052734" xlink:href="#DejaVuSans-76"/>
     <use x="1603.75" xlink:href="#DejaVuSans-101"/>
     <use x="1665.273438" xlink:href="#DejaVuSans-118"/>
     <use x="1724.453125" xlink:href="#DejaVuSans-101"/>
     <use x="1785.976562" xlink:href="#DejaVuSans-108"/>
     <use x="1813.759766" xlink:href="#DejaVuSans-115"/>
    </g>
   </g>
  </g>
 </g>
 <defs>
  <clipPath id="p925900c39c">
   <rect height="317.968" width="947.41" x="43.148125" y="35.2559"/>
  </clipPath>
 </defs>
</svg>
