<?xml version="1.0" encoding="utf-8" standalone="no"?>
<!DOCTYPE svg PUBLIC "-//W3C//DTD SVG 1.1//EN"
  "http://www.w3.org/Graphics/SVG/1.1/DTD/svg11.dtd">
<!-- Created with matplotlib (https://matplotlib.org/) -->
<svg height="388.844525pt" version="1.1" viewBox="0 0 1000.138125 388.844525" width="1000.138125pt" xmlns="http://www.w3.org/2000/svg" xmlns:xlink="http://www.w3.org/1999/xlink">
 <defs>
  <style type="text/css">
*{stroke-linecap:butt;stroke-linejoin:round;}
  </style>
 </defs>
 <g id="figure_1">
  <g id="patch_1">
   <path d="M 0 388.844525 
L 1000.138125 388.844525 
L 1000.138125 0 
L 0 0 
z
" style="fill:#ffffff;"/>
  </g>
  <g id="axes_1">
   <g id="patch_2">
    <path d="M 53.328125 353.2239 
L 985.303125 353.2239 
L 985.303125 35.2559 
L 53.328125 35.2559 
z
" style="fill:#ffffff;"/>
   </g>
   <g id="matplotlib.axis_1">
    <g id="xtick_1">
     <g id="text_1">
      <!-- 0 -->
      <defs>
       <path d="M 31.78125 66.40625 
Q 24.171875 66.40625 20.328125 58.90625 
Q 16.5 51.421875 16.5 36.375 
Q 16.5 21.390625 20.328125 13.890625 
Q 24.171875 6.390625 31.78125 6.390625 
Q 39.453125 6.390625 43.28125 13.890625 
Q 47.125 21.390625 47.125 36.375 
Q 47.125 51.421875 43.28125 58.90625 
Q 39.453125 66.40625 31.78125 66.40625 
z
M 31.78125 74.21875 
Q 44.046875 74.21875 50.515625 64.515625 
Q 56.984375 54.828125 56.984375 36.375 
Q 56.984375 17.96875 50.515625 8.265625 
Q 44.046875 -1.421875 31.78125 -1.421875 
Q 19.53125 -1.421875 13.0625 8.265625 
Q 6.59375 17.96875 6.59375 36.375 
Q 6.59375 54.828125 13.0625 64.515625 
Q 19.53125 74.21875 31.78125 74.21875 
z
" id="DejaVuSans-48"/>
      </defs>
      <g transform="translate(50.783125 366.30265)scale(0.08 -0.08)">
       <use xlink:href="#DejaVuSans-48"/>
      </g>
     </g>
    </g>
    <g id="xtick_2">
     <g id="text_2">
      <!-- 20 -->
      <defs>
       <path d="M 19.1875 8.296875 
L 53.609375 8.296875 
L 53.609375 0 
L 7.328125 0 
L 7.328125 8.296875 
Q 12.9375 14.109375 22.625 23.890625 
Q 32.328125 33.6875 34.8125 36.53125 
Q 39.546875 41.84375 41.421875 45.53125 
Q 43.3125 49.21875 43.3125 52.78125 
Q 43.3125 58.59375 39.234375 62.25 
Q 35.15625 65.921875 28.609375 65.921875 
Q 23.96875 65.921875 18.8125 64.3125 
Q 13.671875 62.703125 7.8125 59.421875 
L 7.8125 69.390625 
Q 13.765625 71.78125 18.9375 73 
Q 24.125 74.21875 28.421875 74.21875 
Q 39.75 74.21875 46.484375 68.546875 
Q 53.21875 62.890625 53.21875 53.421875 
Q 53.21875 48.921875 51.53125 44.890625 
Q 49.859375 40.875 45.40625 35.40625 
Q 44.1875 33.984375 37.640625 27.21875 
Q 31.109375 20.453125 19.1875 8.296875 
z
" id="DejaVuSans-50"/>
      </defs>
      <g transform="translate(234.633125 366.30265)scale(0.08 -0.08)">
       <use xlink:href="#DejaVuSans-50"/>
       <use x="63.623047" xlink:href="#DejaVuSans-48"/>
      </g>
     </g>
    </g>
    <g id="xtick_3">
     <g id="text_3">
      <!-- 40 -->
      <defs>
       <path d="M 37.796875 64.3125 
L 12.890625 25.390625 
L 37.796875 25.390625 
z
M 35.203125 72.90625 
L 47.609375 72.90625 
L 47.609375 25.390625 
L 58.015625 25.390625 
L 58.015625 17.1875 
L 47.609375 17.1875 
L 47.609375 0 
L 37.796875 0 
L 37.796875 17.1875 
L 4.890625 17.1875 
L 4.890625 26.703125 
z
" id="DejaVuSans-52"/>
      </defs>
      <g transform="translate(421.028125 366.30265)scale(0.08 -0.08)">
       <use xlink:href="#DejaVuSans-52"/>
       <use x="63.623047" xlink:href="#DejaVuSans-48"/>
      </g>
     </g>
    </g>
    <g id="xtick_4">
     <g id="text_4">
      <!-- 60 -->
      <defs>
       <path d="M 33.015625 40.375 
Q 26.375 40.375 22.484375 35.828125 
Q 18.609375 31.296875 18.609375 23.390625 
Q 18.609375 15.53125 22.484375 10.953125 
Q 26.375 6.390625 33.015625 6.390625 
Q 39.65625 6.390625 43.53125 10.953125 
Q 47.40625 15.53125 47.40625 23.390625 
Q 47.40625 31.296875 43.53125 35.828125 
Q 39.65625 40.375 33.015625 40.375 
z
M 52.59375 71.296875 
L 52.59375 62.3125 
Q 48.875 64.0625 45.09375 64.984375 
Q 41.3125 65.921875 37.59375 65.921875 
Q 27.828125 65.921875 22.671875 59.328125 
Q 17.53125 52.734375 16.796875 39.40625 
Q 19.671875 43.65625 24.015625 45.921875 
Q 28.375 48.1875 33.59375 48.1875 
Q 44.578125 48.1875 50.953125 41.515625 
Q 57.328125 34.859375 57.328125 23.390625 
Q 57.328125 12.15625 50.6875 5.359375 
Q 44.046875 -1.421875 33.015625 -1.421875 
Q 20.359375 -1.421875 13.671875 8.265625 
Q 6.984375 17.96875 6.984375 36.375 
Q 6.984375 53.65625 15.1875 63.9375 
Q 23.390625 74.21875 37.203125 74.21875 
Q 40.921875 74.21875 44.703125 73.484375 
Q 48.484375 72.75 52.59375 71.296875 
z
" id="DejaVuSans-54"/>
      </defs>
      <g transform="translate(607.423125 366.30265)scale(0.08 -0.08)">
       <use xlink:href="#DejaVuSans-54"/>
       <use x="63.623047" xlink:href="#DejaVuSans-48"/>
      </g>
     </g>
    </g>
    <g id="xtick_5">
     <g id="text_5">
      <!-- 80 -->
      <defs>
       <path d="M 31.78125 34.625 
Q 24.75 34.625 20.71875 30.859375 
Q 16.703125 27.09375 16.703125 20.515625 
Q 16.703125 13.921875 20.71875 10.15625 
Q 24.75 6.390625 31.78125 6.390625 
Q 38.8125 6.390625 42.859375 10.171875 
Q 46.921875 13.96875 46.921875 20.515625 
Q 46.921875 27.09375 42.890625 30.859375 
Q 38.875 34.625 31.78125 34.625 
z
M 21.921875 38.8125 
Q 15.578125 40.375 12.03125 44.71875 
Q 8.5 49.078125 8.5 55.328125 
Q 8.5 64.0625 14.71875 69.140625 
Q 20.953125 74.21875 31.78125 74.21875 
Q 42.671875 74.21875 48.875 69.140625 
Q 55.078125 64.0625 55.078125 55.328125 
Q 55.078125 49.078125 51.53125 44.71875 
Q 48 40.375 41.703125 38.8125 
Q 48.828125 37.15625 52.796875 32.3125 
Q 56.78125 27.484375 56.78125 20.515625 
Q 56.78125 9.90625 50.3125 4.234375 
Q 43.84375 -1.421875 31.78125 -1.421875 
Q 19.734375 -1.421875 13.25 4.234375 
Q 6.78125 9.90625 6.78125 20.515625 
Q 6.78125 27.484375 10.78125 32.3125 
Q 14.796875 37.15625 21.921875 38.8125 
z
M 18.3125 54.390625 
Q 18.3125 48.734375 21.84375 45.5625 
Q 25.390625 42.390625 31.78125 42.390625 
Q 38.140625 42.390625 41.71875 45.5625 
Q 45.3125 48.734375 45.3125 54.390625 
Q 45.3125 60.0625 41.71875 63.234375 
Q 38.140625 66.40625 31.78125 66.40625 
Q 25.390625 66.40625 21.84375 63.234375 
Q 18.3125 60.0625 18.3125 54.390625 
z
" id="DejaVuSans-56"/>
      </defs>
      <g transform="translate(793.818125 366.30265)scale(0.08 -0.08)">
       <use xlink:href="#DejaVuSans-56"/>
       <use x="63.623047" xlink:href="#DejaVuSans-48"/>
      </g>
     </g>
    </g>
    <g id="xtick_6">
     <g id="text_6">
      <!-- 100 -->
      <defs>
       <path d="M 12.40625 8.296875 
L 28.515625 8.296875 
L 28.515625 63.921875 
L 10.984375 60.40625 
L 10.984375 69.390625 
L 28.421875 72.90625 
L 38.28125 72.90625 
L 38.28125 8.296875 
L 54.390625 8.296875 
L 54.390625 0 
L 12.40625 0 
z
" id="DejaVuSans-49"/>
      </defs>
      <g transform="translate(977.668125 366.30265)scale(0.08 -0.08)">
       <use xlink:href="#DejaVuSans-49"/>
       <use x="63.623047" xlink:href="#DejaVuSans-48"/>
       <use x="127.246094" xlink:href="#DejaVuSans-48"/>
      </g>
     </g>
    </g>
    <g id="text_7">
     <!-- Percent of reads -->
     <defs>
      <path d="M 19.671875 64.796875 
L 19.671875 37.40625 
L 32.078125 37.40625 
Q 38.96875 37.40625 42.71875 40.96875 
Q 46.484375 44.53125 46.484375 51.125 
Q 46.484375 57.671875 42.71875 61.234375 
Q 38.96875 64.796875 32.078125 64.796875 
z
M 9.8125 72.90625 
L 32.078125 72.90625 
Q 44.34375 72.90625 50.609375 67.359375 
Q 56.890625 61.8125 56.890625 51.125 
Q 56.890625 40.328125 50.609375 34.8125 
Q 44.34375 29.296875 32.078125 29.296875 
L 19.671875 29.296875 
L 19.671875 0 
L 9.8125 0 
z
" id="DejaVuSans-80"/>
      <path d="M 56.203125 29.59375 
L 56.203125 25.203125 
L 14.890625 25.203125 
Q 15.484375 15.921875 20.484375 11.0625 
Q 25.484375 6.203125 34.421875 6.203125 
Q 39.59375 6.203125 44.453125 7.46875 
Q 49.3125 8.734375 54.109375 11.28125 
L 54.109375 2.78125 
Q 49.265625 0.734375 44.1875 -0.34375 
Q 39.109375 -1.421875 33.890625 -1.421875 
Q 20.796875 -1.421875 13.15625 6.1875 
Q 5.515625 13.8125 5.515625 26.8125 
Q 5.515625 40.234375 12.765625 48.109375 
Q 20.015625 56 32.328125 56 
Q 43.359375 56 49.78125 48.890625 
Q 56.203125 41.796875 56.203125 29.59375 
z
M 47.21875 32.234375 
Q 47.125 39.59375 43.09375 43.984375 
Q 39.0625 48.390625 32.421875 48.390625 
Q 24.90625 48.390625 20.390625 44.140625 
Q 15.875 39.890625 15.1875 32.171875 
z
" id="DejaVuSans-101"/>
      <path d="M 41.109375 46.296875 
Q 39.59375 47.171875 37.8125 47.578125 
Q 36.03125 48 33.890625 48 
Q 26.265625 48 22.1875 43.046875 
Q 18.109375 38.09375 18.109375 28.8125 
L 18.109375 0 
L 9.078125 0 
L 9.078125 54.6875 
L 18.109375 54.6875 
L 18.109375 46.1875 
Q 20.953125 51.171875 25.484375 53.578125 
Q 30.03125 56 36.53125 56 
Q 37.453125 56 38.578125 55.875 
Q 39.703125 55.765625 41.0625 55.515625 
z
" id="DejaVuSans-114"/>
      <path d="M 48.78125 52.59375 
L 48.78125 44.1875 
Q 44.96875 46.296875 41.140625 47.34375 
Q 37.3125 48.390625 33.40625 48.390625 
Q 24.65625 48.390625 19.8125 42.84375 
Q 14.984375 37.3125 14.984375 27.296875 
Q 14.984375 17.28125 19.8125 11.734375 
Q 24.65625 6.203125 33.40625 6.203125 
Q 37.3125 6.203125 41.140625 7.25 
Q 44.96875 8.296875 48.78125 10.40625 
L 48.78125 2.09375 
Q 45.015625 0.34375 40.984375 -0.53125 
Q 36.96875 -1.421875 32.421875 -1.421875 
Q 20.0625 -1.421875 12.78125 6.34375 
Q 5.515625 14.109375 5.515625 27.296875 
Q 5.515625 40.671875 12.859375 48.328125 
Q 20.21875 56 33.015625 56 
Q 37.15625 56 41.109375 55.140625 
Q 45.0625 54.296875 48.78125 52.59375 
z
" id="DejaVuSans-99"/>
      <path d="M 54.890625 33.015625 
L 54.890625 0 
L 45.90625 0 
L 45.90625 32.71875 
Q 45.90625 40.484375 42.875 44.328125 
Q 39.84375 48.1875 33.796875 48.1875 
Q 26.515625 48.1875 22.3125 43.546875 
Q 18.109375 38.921875 18.109375 30.90625 
L 18.109375 0 
L 9.078125 0 
L 9.078125 54.6875 
L 18.109375 54.6875 
L 18.109375 46.1875 
Q 21.34375 51.125 25.703125 53.5625 
Q 30.078125 56 35.796875 56 
Q 45.21875 56 50.046875 50.171875 
Q 54.890625 44.34375 54.890625 33.015625 
z
" id="DejaVuSans-110"/>
      <path d="M 18.3125 70.21875 
L 18.3125 54.6875 
L 36.8125 54.6875 
L 36.8125 47.703125 
L 18.3125 47.703125 
L 18.3125 18.015625 
Q 18.3125 11.328125 20.140625 9.421875 
Q 21.96875 7.515625 27.59375 7.515625 
L 36.8125 7.515625 
L 36.8125 0 
L 27.59375 0 
Q 17.1875 0 13.234375 3.875 
Q 9.28125 7.765625 9.28125 18.015625 
L 9.28125 47.703125 
L 2.6875 47.703125 
L 2.6875 54.6875 
L 9.28125 54.6875 
L 9.28125 70.21875 
z
" id="DejaVuSans-116"/>
      <path id="DejaVuSans-32"/>
      <path d="M 30.609375 48.390625 
Q 23.390625 48.390625 19.1875 42.75 
Q 14.984375 37.109375 14.984375 27.296875 
Q 14.984375 17.484375 19.15625 11.84375 
Q 23.34375 6.203125 30.609375 6.203125 
Q 37.796875 6.203125 41.984375 11.859375 
Q 46.1875 17.53125 46.1875 27.296875 
Q 46.1875 37.015625 41.984375 42.703125 
Q 37.796875 48.390625 30.609375 48.390625 
z
M 30.609375 56 
Q 42.328125 56 49.015625 48.375 
Q 55.71875 40.765625 55.71875 27.296875 
Q 55.71875 13.875 49.015625 6.21875 
Q 42.328125 -1.421875 30.609375 -1.421875 
Q 18.84375 -1.421875 12.171875 6.21875 
Q 5.515625 13.875 5.515625 27.296875 
Q 5.515625 40.765625 12.171875 48.375 
Q 18.84375 56 30.609375 56 
z
" id="DejaVuSans-111"/>
      <path d="M 37.109375 75.984375 
L 37.109375 68.5 
L 28.515625 68.5 
Q 23.6875 68.5 21.796875 66.546875 
Q 19.921875 64.59375 19.921875 59.515625 
L 19.921875 54.6875 
L 34.71875 54.6875 
L 34.71875 47.703125 
L 19.921875 47.703125 
L 19.921875 0 
L 10.890625 0 
L 10.890625 47.703125 
L 2.296875 47.703125 
L 2.296875 54.6875 
L 10.890625 54.6875 
L 10.890625 58.5 
Q 10.890625 67.625 15.140625 71.796875 
Q 19.390625 75.984375 28.609375 75.984375 
z
" id="DejaVuSans-102"/>
      <path d="M 34.28125 27.484375 
Q 23.390625 27.484375 19.1875 25 
Q 14.984375 22.515625 14.984375 16.5 
Q 14.984375 11.71875 18.140625 8.90625 
Q 21.296875 6.109375 26.703125 6.109375 
Q 34.1875 6.109375 38.703125 11.40625 
Q 43.21875 16.703125 43.21875 25.484375 
L 43.21875 27.484375 
z
M 52.203125 31.203125 
L 52.203125 0 
L 43.21875 0 
L 43.21875 8.296875 
Q 40.140625 3.328125 35.546875 0.953125 
Q 30.953125 -1.421875 24.3125 -1.421875 
Q 15.921875 -1.421875 10.953125 3.296875 
Q 6 8.015625 6 15.921875 
Q 6 25.140625 12.171875 29.828125 
Q 18.359375 34.515625 30.609375 34.515625 
L 43.21875 34.515625 
L 43.21875 35.40625 
Q 43.21875 41.609375 39.140625 45 
Q 35.0625 48.390625 27.6875 48.390625 
Q 23 48.390625 18.546875 47.265625 
Q 14.109375 46.140625 10.015625 43.890625 
L 10.015625 52.203125 
Q 14.9375 54.109375 19.578125 55.046875 
Q 24.21875 56 28.609375 56 
Q 40.484375 56 46.34375 49.84375 
Q 52.203125 43.703125 52.203125 31.203125 
z
" id="DejaVuSans-97"/>
      <path d="M 45.40625 46.390625 
L 45.40625 75.984375 
L 54.390625 75.984375 
L 54.390625 0 
L 45.40625 0 
L 45.40625 8.203125 
Q 42.578125 3.328125 38.25 0.953125 
Q 33.9375 -1.421875 27.875 -1.421875 
Q 17.96875 -1.421875 11.734375 6.484375 
Q 5.515625 14.40625 5.515625 27.296875 
Q 5.515625 40.1875 11.734375 48.09375 
Q 17.96875 56 27.875 56 
Q 33.9375 56 38.25 53.625 
Q 42.578125 51.265625 45.40625 46.390625 
z
M 14.796875 27.296875 
Q 14.796875 17.390625 18.875 11.75 
Q 22.953125 6.109375 30.078125 6.109375 
Q 37.203125 6.109375 41.296875 11.75 
Q 45.40625 17.390625 45.40625 27.296875 
Q 45.40625 37.203125 41.296875 42.84375 
Q 37.203125 48.484375 30.078125 48.484375 
Q 22.953125 48.484375 18.875 42.84375 
Q 14.796875 37.203125 14.796875 27.296875 
z
" id="DejaVuSans-100"/>
      <path d="M 44.28125 53.078125 
L 44.28125 44.578125 
Q 40.484375 46.53125 36.375 47.5 
Q 32.28125 48.484375 27.875 48.484375 
Q 21.1875 48.484375 17.84375 46.4375 
Q 14.5 44.390625 14.5 40.28125 
Q 14.5 37.15625 16.890625 35.375 
Q 19.28125 33.59375 26.515625 31.984375 
L 29.59375 31.296875 
Q 39.15625 29.25 43.1875 25.515625 
Q 47.21875 21.78125 47.21875 15.09375 
Q 47.21875 7.46875 41.1875 3.015625 
Q 35.15625 -1.421875 24.609375 -1.421875 
Q 20.21875 -1.421875 15.453125 -0.5625 
Q 10.6875 0.296875 5.421875 2 
L 5.421875 11.28125 
Q 10.40625 8.6875 15.234375 7.390625 
Q 20.0625 6.109375 24.8125 6.109375 
Q 31.15625 6.109375 34.5625 8.28125 
Q 37.984375 10.453125 37.984375 14.40625 
Q 37.984375 18.0625 35.515625 20.015625 
Q 33.0625 21.96875 24.703125 23.78125 
L 21.578125 24.515625 
Q 13.234375 26.265625 9.515625 29.90625 
Q 5.8125 33.546875 5.8125 39.890625 
Q 5.8125 47.609375 11.28125 51.796875 
Q 16.75 56 26.8125 56 
Q 31.78125 56 36.171875 55.265625 
Q 40.578125 54.546875 44.28125 53.078125 
z
" id="DejaVuSans-115"/>
     </defs>
     <g transform="translate(478.246875 379.564837)scale(0.1 -0.1)">
      <use xlink:href="#DejaVuSans-80"/>
      <use x="60.255859" xlink:href="#DejaVuSans-101"/>
      <use x="121.779297" xlink:href="#DejaVuSans-114"/>
      <use x="162.861328" xlink:href="#DejaVuSans-99"/>
      <use x="217.841797" xlink:href="#DejaVuSans-101"/>
      <use x="279.365234" xlink:href="#DejaVuSans-110"/>
      <use x="342.744141" xlink:href="#DejaVuSans-116"/>
      <use x="381.953125" xlink:href="#DejaVuSans-32"/>
      <use x="413.740234" xlink:href="#DejaVuSans-111"/>
      <use x="474.921875" xlink:href="#DejaVuSans-102"/>
      <use x="510.126953" xlink:href="#DejaVuSans-32"/>
      <use x="541.914062" xlink:href="#DejaVuSans-114"/>
      <use x="582.996094" xlink:href="#DejaVuSans-101"/>
      <use x="644.519531" xlink:href="#DejaVuSans-97"/>
      <use x="705.798828" xlink:href="#DejaVuSans-100"/>
      <use x="769.275391" xlink:href="#DejaVuSans-115"/>
     </g>
    </g>
   </g>
   <g id="matplotlib.axis_2">
    <g id="ytick_1">
     <g id="line2d_1">
      <path clip-path="url(#p6516630993)" d="M 53.328125 353.2239 
L 985.303125 353.2239 
" style="fill:none;stroke:#dedede;stroke-linecap:square;"/>
     </g>
     <g id="text_8">
      <!-- 0 -->
      <g transform="translate(41.238125 356.263275)scale(0.08 -0.08)">
       <use xlink:href="#DejaVuSans-48"/>
      </g>
     </g>
    </g>
    <g id="ytick_2">
     <g id="line2d_2">
      <path clip-path="url(#p6516630993)" d="M 53.328125 313.240096 
L 985.303125 313.240096 
" style="fill:none;stroke:#dedede;stroke-linecap:square;"/>
     </g>
     <g id="text_9">
      <!-- 10000 -->
      <g transform="translate(20.878125 316.279471)scale(0.08 -0.08)">
       <use xlink:href="#DejaVuSans-49"/>
       <use x="63.623047" xlink:href="#DejaVuSans-48"/>
       <use x="127.246094" xlink:href="#DejaVuSans-48"/>
       <use x="190.869141" xlink:href="#DejaVuSans-48"/>
       <use x="254.492188" xlink:href="#DejaVuSans-48"/>
      </g>
     </g>
    </g>
    <g id="ytick_3">
     <g id="line2d_3">
      <path clip-path="url(#p6516630993)" d="M 53.328125 273.256293 
L 985.303125 273.256293 
" style="fill:none;stroke:#dedede;stroke-linecap:square;"/>
     </g>
     <g id="text_10">
      <!-- 20000 -->
      <g transform="translate(20.878125 276.295668)scale(0.08 -0.08)">
       <use xlink:href="#DejaVuSans-50"/>
       <use x="63.623047" xlink:href="#DejaVuSans-48"/>
       <use x="127.246094" xlink:href="#DejaVuSans-48"/>
       <use x="190.869141" xlink:href="#DejaVuSans-48"/>
       <use x="254.492188" xlink:href="#DejaVuSans-48"/>
      </g>
     </g>
    </g>
    <g id="ytick_4">
     <g id="line2d_4">
      <path clip-path="url(#p6516630993)" d="M 53.328125 233.272489 
L 985.303125 233.272489 
" style="fill:none;stroke:#dedede;stroke-linecap:square;"/>
     </g>
     <g id="text_11">
      <!-- 30000 -->
      <defs>
       <path d="M 40.578125 39.3125 
Q 47.65625 37.796875 51.625 33 
Q 55.609375 28.21875 55.609375 21.1875 
Q 55.609375 10.40625 48.1875 4.484375 
Q 40.765625 -1.421875 27.09375 -1.421875 
Q 22.515625 -1.421875 17.65625 -0.515625 
Q 12.796875 0.390625 7.625 2.203125 
L 7.625 11.71875 
Q 11.71875 9.328125 16.59375 8.109375 
Q 21.484375 6.890625 26.8125 6.890625 
Q 36.078125 6.890625 40.9375 10.546875 
Q 45.796875 14.203125 45.796875 21.1875 
Q 45.796875 27.640625 41.28125 31.265625 
Q 36.765625 34.90625 28.71875 34.90625 
L 20.21875 34.90625 
L 20.21875 43.015625 
L 29.109375 43.015625 
Q 36.375 43.015625 40.234375 45.921875 
Q 44.09375 48.828125 44.09375 54.296875 
Q 44.09375 59.90625 40.109375 62.90625 
Q 36.140625 65.921875 28.71875 65.921875 
Q 24.65625 65.921875 20.015625 65.03125 
Q 15.375 64.15625 9.8125 62.3125 
L 9.8125 71.09375 
Q 15.4375 72.65625 20.34375 73.4375 
Q 25.25 74.21875 29.59375 74.21875 
Q 40.828125 74.21875 47.359375 69.109375 
Q 53.90625 64.015625 53.90625 55.328125 
Q 53.90625 49.265625 50.4375 45.09375 
Q 46.96875 40.921875 40.578125 39.3125 
z
" id="DejaVuSans-51"/>
      </defs>
      <g transform="translate(20.878125 236.311864)scale(0.08 -0.08)">
       <use xlink:href="#DejaVuSans-51"/>
       <use x="63.623047" xlink:href="#DejaVuSans-48"/>
       <use x="127.246094" xlink:href="#DejaVuSans-48"/>
       <use x="190.869141" xlink:href="#DejaVuSans-48"/>
       <use x="254.492188" xlink:href="#DejaVuSans-48"/>
      </g>
     </g>
    </g>
    <g id="ytick_5">
     <g id="line2d_5">
      <path clip-path="url(#p6516630993)" d="M 53.328125 193.288685 
L 985.303125 193.288685 
" style="fill:none;stroke:#dedede;stroke-linecap:square;"/>
     </g>
     <g id="text_12">
      <!-- 40000 -->
      <g transform="translate(20.878125 196.32806)scale(0.08 -0.08)">
       <use xlink:href="#DejaVuSans-52"/>
       <use x="63.623047" xlink:href="#DejaVuSans-48"/>
       <use x="127.246094" xlink:href="#DejaVuSans-48"/>
       <use x="190.869141" xlink:href="#DejaVuSans-48"/>
       <use x="254.492188" xlink:href="#DejaVuSans-48"/>
      </g>
     </g>
    </g>
    <g id="ytick_6">
     <g id="line2d_6">
      <path clip-path="url(#p6516630993)" d="M 53.328125 153.304882 
L 985.303125 153.304882 
" style="fill:none;stroke:#dedede;stroke-linecap:square;"/>
     </g>
     <g id="text_13">
      <!-- 50000 -->
      <defs>
       <path d="M 10.796875 72.90625 
L 49.515625 72.90625 
L 49.515625 64.59375 
L 19.828125 64.59375 
L 19.828125 46.734375 
Q 21.96875 47.46875 24.109375 47.828125 
Q 26.265625 48.1875 28.421875 48.1875 
Q 40.625 48.1875 47.75 41.5 
Q 54.890625 34.8125 54.890625 23.390625 
Q 54.890625 11.625 47.5625 5.09375 
Q 40.234375 -1.421875 26.90625 -1.421875 
Q 22.3125 -1.421875 17.546875 -0.640625 
Q 12.796875 0.140625 7.71875 1.703125 
L 7.71875 11.625 
Q 12.109375 9.234375 16.796875 8.0625 
Q 21.484375 6.890625 26.703125 6.890625 
Q 35.15625 6.890625 40.078125 11.328125 
Q 45.015625 15.765625 45.015625 23.390625 
Q 45.015625 31 40.078125 35.4375 
Q 35.15625 39.890625 26.703125 39.890625 
Q 22.75 39.890625 18.8125 39.015625 
Q 14.890625 38.140625 10.796875 36.28125 
z
" id="DejaVuSans-53"/>
      </defs>
      <g transform="translate(20.878125 156.344257)scale(0.08 -0.08)">
       <use xlink:href="#DejaVuSans-53"/>
       <use x="63.623047" xlink:href="#DejaVuSans-48"/>
       <use x="127.246094" xlink:href="#DejaVuSans-48"/>
       <use x="190.869141" xlink:href="#DejaVuSans-48"/>
       <use x="254.492188" xlink:href="#DejaVuSans-48"/>
      </g>
     </g>
    </g>
    <g id="ytick_7">
     <g id="line2d_7">
      <path clip-path="url(#p6516630993)" d="M 53.328125 113.321078 
L 985.303125 113.321078 
" style="fill:none;stroke:#dedede;stroke-linecap:square;"/>
     </g>
     <g id="text_14">
      <!-- 60000 -->
      <g transform="translate(20.878125 116.360453)scale(0.08 -0.08)">
       <use xlink:href="#DejaVuSans-54"/>
       <use x="63.623047" xlink:href="#DejaVuSans-48"/>
       <use x="127.246094" xlink:href="#DejaVuSans-48"/>
       <use x="190.869141" xlink:href="#DejaVuSans-48"/>
       <use x="254.492188" xlink:href="#DejaVuSans-48"/>
      </g>
     </g>
    </g>
    <g id="ytick_8">
     <g id="line2d_8">
      <path clip-path="url(#p6516630993)" d="M 53.328125 73.337274 
L 985.303125 73.337274 
" style="fill:none;stroke:#dedede;stroke-linecap:square;"/>
     </g>
     <g id="text_15">
      <!-- 70000 -->
      <defs>
       <path d="M 8.203125 72.90625 
L 55.078125 72.90625 
L 55.078125 68.703125 
L 28.609375 0 
L 18.3125 0 
L 43.21875 64.59375 
L 8.203125 64.59375 
z
" id="DejaVuSans-55"/>
      </defs>
      <g transform="translate(20.878125 76.376649)scale(0.08 -0.08)">
       <use xlink:href="#DejaVuSans-55"/>
       <use x="63.623047" xlink:href="#DejaVuSans-48"/>
       <use x="127.246094" xlink:href="#DejaVuSans-48"/>
       <use x="190.869141" xlink:href="#DejaVuSans-48"/>
       <use x="254.492188" xlink:href="#DejaVuSans-48"/>
      </g>
     </g>
    </g>
    <g id="text_16">
     <!-- Number of Junctions -->
     <defs>
      <path d="M 9.8125 72.90625 
L 23.09375 72.90625 
L 55.421875 11.921875 
L 55.421875 72.90625 
L 64.984375 72.90625 
L 64.984375 0 
L 51.703125 0 
L 19.390625 60.984375 
L 19.390625 0 
L 9.8125 0 
z
" id="DejaVuSans-78"/>
      <path d="M 8.5 21.578125 
L 8.5 54.6875 
L 17.484375 54.6875 
L 17.484375 21.921875 
Q 17.484375 14.15625 20.5 10.265625 
Q 23.53125 6.390625 29.59375 6.390625 
Q 36.859375 6.390625 41.078125 11.03125 
Q 45.3125 15.671875 45.3125 23.6875 
L 45.3125 54.6875 
L 54.296875 54.6875 
L 54.296875 0 
L 45.3125 0 
L 45.3125 8.40625 
Q 42.046875 3.421875 37.71875 1 
Q 33.40625 -1.421875 27.6875 -1.421875 
Q 18.265625 -1.421875 13.375 4.4375 
Q 8.5 10.296875 8.5 21.578125 
z
M 31.109375 56 
z
" id="DejaVuSans-117"/>
      <path d="M 52 44.1875 
Q 55.375 50.25 60.0625 53.125 
Q 64.75 56 71.09375 56 
Q 79.640625 56 84.28125 50.015625 
Q 88.921875 44.046875 88.921875 33.015625 
L 88.921875 0 
L 79.890625 0 
L 79.890625 32.71875 
Q 79.890625 40.578125 77.09375 44.375 
Q 74.3125 48.1875 68.609375 48.1875 
Q 61.625 48.1875 57.5625 43.546875 
Q 53.515625 38.921875 53.515625 30.90625 
L 53.515625 0 
L 44.484375 0 
L 44.484375 32.71875 
Q 44.484375 40.625 41.703125 44.40625 
Q 38.921875 48.1875 33.109375 48.1875 
Q 26.21875 48.1875 22.15625 43.53125 
Q 18.109375 38.875 18.109375 30.90625 
L 18.109375 0 
L 9.078125 0 
L 9.078125 54.6875 
L 18.109375 54.6875 
L 18.109375 46.1875 
Q 21.1875 51.21875 25.484375 53.609375 
Q 29.78125 56 35.6875 56 
Q 41.65625 56 45.828125 52.96875 
Q 50 49.953125 52 44.1875 
z
" id="DejaVuSans-109"/>
      <path d="M 48.6875 27.296875 
Q 48.6875 37.203125 44.609375 42.84375 
Q 40.53125 48.484375 33.40625 48.484375 
Q 26.265625 48.484375 22.1875 42.84375 
Q 18.109375 37.203125 18.109375 27.296875 
Q 18.109375 17.390625 22.1875 11.75 
Q 26.265625 6.109375 33.40625 6.109375 
Q 40.53125 6.109375 44.609375 11.75 
Q 48.6875 17.390625 48.6875 27.296875 
z
M 18.109375 46.390625 
Q 20.953125 51.265625 25.265625 53.625 
Q 29.59375 56 35.59375 56 
Q 45.5625 56 51.78125 48.09375 
Q 58.015625 40.1875 58.015625 27.296875 
Q 58.015625 14.40625 51.78125 6.484375 
Q 45.5625 -1.421875 35.59375 -1.421875 
Q 29.59375 -1.421875 25.265625 0.953125 
Q 20.953125 3.328125 18.109375 8.203125 
L 18.109375 0 
L 9.078125 0 
L 9.078125 75.984375 
L 18.109375 75.984375 
z
" id="DejaVuSans-98"/>
      <path d="M 9.8125 72.90625 
L 19.671875 72.90625 
L 19.671875 5.078125 
Q 19.671875 -8.109375 14.671875 -14.0625 
Q 9.671875 -20.015625 -1.421875 -20.015625 
L -5.171875 -20.015625 
L -5.171875 -11.71875 
L -2.09375 -11.71875 
Q 4.4375 -11.71875 7.125 -8.046875 
Q 9.8125 -4.390625 9.8125 5.078125 
z
" id="DejaVuSans-74"/>
      <path d="M 9.421875 54.6875 
L 18.40625 54.6875 
L 18.40625 0 
L 9.421875 0 
z
M 9.421875 75.984375 
L 18.40625 75.984375 
L 18.40625 64.59375 
L 9.421875 64.59375 
z
" id="DejaVuSans-105"/>
     </defs>
     <g transform="translate(14.798438 245.067244)rotate(-90)scale(0.1 -0.1)">
      <use xlink:href="#DejaVuSans-78"/>
      <use x="74.804688" xlink:href="#DejaVuSans-117"/>
      <use x="138.183594" xlink:href="#DejaVuSans-109"/>
      <use x="235.595703" xlink:href="#DejaVuSans-98"/>
      <use x="299.072266" xlink:href="#DejaVuSans-101"/>
      <use x="360.595703" xlink:href="#DejaVuSans-114"/>
      <use x="401.708984" xlink:href="#DejaVuSans-32"/>
      <use x="433.496094" xlink:href="#DejaVuSans-111"/>
      <use x="494.677734" xlink:href="#DejaVuSans-102"/>
      <use x="529.882812" xlink:href="#DejaVuSans-32"/>
      <use x="561.669922" xlink:href="#DejaVuSans-74"/>
      <use x="591.162109" xlink:href="#DejaVuSans-117"/>
      <use x="654.541016" xlink:href="#DejaVuSans-110"/>
      <use x="717.919922" xlink:href="#DejaVuSans-99"/>
      <use x="772.900391" xlink:href="#DejaVuSans-116"/>
      <use x="812.109375" xlink:href="#DejaVuSans-105"/>
      <use x="839.892578" xlink:href="#DejaVuSans-111"/>
      <use x="901.074219" xlink:href="#DejaVuSans-110"/>
      <use x="964.453125" xlink:href="#DejaVuSans-115"/>
     </g>
    </g>
   </g>
   <g id="line2d_9">
    <path clip-path="url(#p6516630993)" d="M 99.926875 302.328516 
L 146.525625 281.053134 
L 193.124375 267.430652 
L 239.723125 257.214791 
L 286.321875 249.178046 
L 332.920625 242.900589 
L 379.519375 237.906612 
L 426.118125 233.716309 
L 472.716875 230.041798 
L 519.315625 226.927059 
L 565.914375 224.348104 
L 612.513125 222.065029 
L 659.111875 220.049845 
L 705.710625 218.31055 
L 752.309375 216.623233 
L 798.908125 215.267782 
L 845.506875 214.192218 
L 892.105625 213.136645 
L 938.704375 212.292987 
L 985.303125 211.66924 
" style="fill:none;stroke:#7cb5ec;stroke-linecap:square;"/>
   </g>
   <g id="line2d_10">
    <path clip-path="url(#p6516630993)" d="M 99.926875 294.879534 
L 146.525625 270.489413 
L 193.124375 254.447911 
L 239.723125 242.832616 
L 286.321875 233.824265 
L 332.920625 226.499233 
L 379.519375 220.465677 
L 426.118125 215.391732 
L 472.716875 211.409345 
L 519.315625 207.858783 
L 565.914375 204.552123 
L 612.513125 201.749258 
L 659.111875 199.334236 
L 705.710625 197.255079 
L 752.309375 195.307867 
L 798.908125 193.608556 
L 845.506875 192.28909 
L 892.105625 191.189536 
L 938.704375 190.233923 
L 985.303125 189.330289 
" style="fill:none;stroke:#434348;stroke-linecap:square;"/>
   </g>
   <g id="line2d_11">
    <path clip-path="url(#p6516630993)" d="M 99.926875 290.145451 
L 146.525625 260.709375 
L 193.124375 239.669898 
L 239.723125 223.88829 
L 286.321875 210.577682 
L 332.920625 199.786053 
L 379.519375 190.969625 
L 426.118125 183.068825 
L 472.716875 176.587451 
L 519.315625 170.577885 
L 565.914375 165.032131 
L 612.513125 160.230076 
L 659.111875 156.12374 
L 705.710625 152.605165 
L 752.309375 149.23453 
L 798.908125 146.283726 
L 845.506875 143.784738 
L 892.105625 141.777551 
L 938.704375 140.02626 
L 985.303125 138.57085 
" style="fill:none;stroke:#90ed7d;stroke-linecap:square;"/>
   </g>
   <g id="line2d_12">
    <path clip-path="url(#p6516630993)" d="M 99.926875 299.625611 
L 146.525625 275.26348 
L 193.124375 258.690193 
L 239.723125 246.179261 
L 286.321875 236.115337 
L 332.920625 227.810701 
L 379.519375 220.653601 
L 426.118125 214.53208 
L 472.716875 209.426148 
L 519.315625 205.103899 
L 565.914375 201.441383 
L 612.513125 197.914811 
L 659.111875 194.736099 
L 705.710625 191.84527 
L 752.309375 189.534206 
L 798.908125 187.267124 
L 845.506875 185.491844 
L 892.105625 183.956466 
L 938.704375 182.585021 
L 985.303125 181.389505 
" style="fill:none;stroke:#f7a35c;stroke-linecap:square;"/>
   </g>
   <g id="line2d_13">
    <path clip-path="url(#p6516630993)" d="M 99.926875 323.947759 
L 146.525625 313.476001 
L 193.124375 306.818697 
L 239.723125 302.228557 
L 286.321875 298.825935 
L 332.920625 296.218991 
L 379.519375 294.175819 
L 426.118125 292.328567 
L 472.716875 290.861161 
L 519.315625 289.517706 
L 565.914375 288.306196 
L 612.513125 287.274614 
L 659.111875 286.311005 
L 705.710625 285.611288 
L 752.309375 284.867589 
L 798.908125 284.275829 
L 845.506875 283.676072 
L 892.105625 283.216258 
L 938.704375 282.828415 
L 985.303125 282.448569 
" style="fill:none;stroke:#8085e9;stroke-linecap:square;"/>
   </g>
   <g id="line2d_14">
    <path clip-path="url(#p6516630993)" d="M 99.926875 293.927919 
L 146.525625 267.186751 
L 193.124375 248.890163 
L 239.723125 235.059765 
L 286.321875 223.69237 
L 332.920625 214.26019 
L 379.519375 206.571305 
L 426.118125 200.077935 
L 472.716875 194.208313 
L 519.315625 189.158358 
L 565.914375 184.672176 
L 612.513125 180.913698 
L 659.111875 177.491084 
L 705.710625 174.424327 
L 752.309375 172.009305 
L 798.908125 169.590285 
L 845.506875 167.523122 
L 892.105625 165.983746 
L 938.704375 164.572318 
L 985.303125 163.440776 
" style="fill:none;stroke:#f15c80;stroke-linecap:square;"/>
   </g>
   <g id="line2d_15">
    <path clip-path="url(#p6516630993)" d="M 99.926875 288.646059 
L 146.525625 258.022463 
L 193.124375 236.883026 
L 239.723125 220.593625 
L 286.321875 207.442952 
L 332.920625 196.563359 
L 379.519375 187.411066 
L 426.118125 179.690194 
L 472.716875 172.761001 
L 519.315625 166.63948 
L 565.914375 161.353621 
L 612.513125 156.771477 
L 659.111875 152.613162 
L 705.710625 148.994628 
L 752.309375 145.811917 
L 798.908125 142.797138 
L 845.506875 140.318142 
L 892.105625 138.238984 
L 938.704375 136.54767 
L 985.303125 134.920329 
" style="fill:none;stroke:#e4d354;stroke-linecap:square;"/>
   </g>
   <g id="line2d_16">
    <path clip-path="url(#p6516630993)" d="M 99.926875 274.419821 
L 146.525625 238.682298 
L 193.124375 212.792785 
L 239.723125 193.452619 
L 286.321875 177.35514 
L 332.920625 164.264442 
L 379.519375 153.352862 
L 426.118125 143.70477 
L 472.716875 135.056274 
L 519.315625 127.587299 
L 565.914375 121.097928 
L 612.513125 115.276286 
L 659.111875 110.374272 
L 705.710625 105.768137 
L 752.309375 101.649806 
L 798.908125 98.15922 
L 845.506875 95.07247 
L 892.105625 92.493515 
L 938.704375 90.178452 
L 985.303125 88.223244 
" style="fill:none;stroke:#2b908f;stroke-linecap:square;"/>
   </g>
   <g id="line2d_17">
    <path clip-path="url(#p6516630993)" d="M 99.926875 272.824468 
L 146.525625 238.878218 
L 193.124375 216.011481 
L 239.723125 199.182298 
L 286.321875 186.387481 
L 332.920625 176.159624 
L 379.519375 167.735036 
L 426.118125 160.817838 
L 472.716875 154.700316 
L 519.315625 149.318496 
L 565.914375 144.872297 
L 612.513125 140.753966 
L 659.111875 137.135431 
L 705.710625 134.244602 
L 752.309375 131.505712 
L 798.908125 129.122677 
L 845.506875 127.0915 
L 892.105625 125.408182 
L 938.704375 123.960768 
L 985.303125 122.677288 
" style="fill:none;stroke:#f45b5b;stroke-linecap:square;"/>
   </g>
   <g id="line2d_18">
    <path clip-path="url(#p6516630993)" d="M 99.926875 284.243842 
L 146.525625 254.084059 
L 193.124375 233.428426 
L 239.723125 217.610833 
L 286.321875 205.159877 
L 332.920625 195.099952 
L 379.519375 186.079606 
L 426.118125 179.198393 
L 472.716875 172.856962 
L 519.315625 167.335198 
L 565.914375 162.717069 
L 612.513125 158.646718 
L 659.111875 155.180122 
L 705.710625 151.893453 
L 752.309375 149.110581 
L 798.908125 146.695559 
L 845.506875 144.552427 
L 892.105625 142.733164 
L 938.704375 141.209781 
L 985.303125 139.83034 
" style="fill:none;stroke:#91e8e1;stroke-linecap:square;"/>
   </g>
   <g id="line2d_19">
    <path clip-path="url(#p6516630993)" d="M 99.926875 287.782409 
L 146.525625 259.941686 
L 193.124375 240.87341 
L 239.723125 226.027424 
L 286.321875 214.324164 
L 332.920625 204.616097 
L 379.519375 196.503383 
L 426.118125 189.730127 
L 472.716875 183.732556 
L 519.315625 178.63862 
L 565.914375 173.904537 
L 612.513125 169.870171 
L 659.111875 166.31961 
L 705.710625 163.172884 
L 752.309375 160.410004 
L 798.908125 157.863035 
L 845.506875 155.627941 
L 892.105625 153.648742 
L 938.704375 152.125359 
L 985.303125 150.805894 
" style="fill:none;stroke:#7cb5ec;stroke-linecap:square;"/>
   </g>
   <g id="line2d_20">
    <path clip-path="url(#p6516630993)" d="M 99.926875 294.975495 
L 146.525625 270.149551 
L 193.124375 252.760595 
L 239.723125 239.445988 
L 286.321875 228.866274 
L 332.920625 220.221775 
L 379.519375 212.720814 
L 426.118125 206.463349 
L 472.716875 200.997563 
L 519.315625 196.251485 
L 565.914375 192.193129 
L 612.513125 188.682551 
L 659.111875 185.395882 
L 705.710625 182.517049 
L 752.309375 180.026058 
L 798.908125 177.774969 
L 845.506875 175.57586 
L 892.105625 173.7486 
L 938.704375 172.337172 
L 985.303125 171.097674 
" style="fill:none;stroke:#434348;stroke-linecap:square;"/>
   </g>
   <g id="line2d_21">
    <path clip-path="url(#p6516630993)" d="M 99.926875 314.343649 
L 146.525625 300.581224 
L 193.124375 292.428527 
L 239.723125 286.946747 
L 286.321875 282.736453 
L 332.920625 279.489768 
L 379.519375 277.042759 
L 426.118125 274.803666 
L 472.716875 272.976406 
L 519.315625 271.301085 
L 565.914375 269.957629 
L 612.513125 268.966031 
L 659.111875 267.986427 
L 705.710625 267.150766 
L 752.309375 266.343093 
L 798.908125 265.699354 
L 845.506875 265.107593 
L 892.105625 264.511835 
L 938.704375 264.032029 
L 985.303125 263.620196 
" style="fill:none;stroke:#90ed7d;stroke-linecap:square;"/>
   </g>
   <g id="line2d_22">
    <path clip-path="url(#p6516630993)" d="M 99.926875 295.447304 
L 146.525625 271.808879 
L 193.124375 255.399526 
L 239.723125 243.216461 
L 286.321875 233.284484 
L 332.920625 225.315712 
L 379.519375 218.554451 
L 426.118125 212.984707 
L 472.716875 208.070698 
L 519.315625 204.148286 
L 565.914375 200.1659 
L 612.513125 197.015176 
L 659.111875 194.208313 
L 705.710625 191.609366 
L 752.309375 189.246323 
L 798.908125 187.259128 
L 845.506875 185.559816 
L 892.105625 184.072419 
L 938.704375 182.704972 
L 985.303125 181.6494 
" style="fill:none;stroke:#f7a35c;stroke-linecap:square;"/>
   </g>
   <g id="line2d_23">
    <path clip-path="url(#p6516630993)" d="M 99.926875 298.905903 
L 146.525625 275.135531 
L 193.124375 258.774159 
L 239.723125 246.175262 
L 286.321875 236.243286 
L 332.920625 227.59079 
L 379.519375 220.58163 
L 426.118125 214.456111 
L 472.716875 209.354178 
L 519.315625 204.640087 
L 565.914375 200.797644 
L 612.513125 197.279069 
L 659.111875 193.984403 
L 705.710625 191.185537 
L 752.309375 188.554603 
L 798.908125 186.163571 
L 845.506875 184.160383 
L 892.105625 182.565029 
L 938.704375 180.965677 
L 985.303125 179.722181 
" style="fill:none;stroke:#8085e9;stroke-linecap:square;"/>
   </g>
   <g id="line2d_24">
    <path clip-path="url(#p6516630993)" d="M 99.926875 298.570039 
L 146.525625 274.771679 
L 193.124375 258.13042 
L 239.723125 245.763429 
L 286.321875 235.899425 
L 332.920625 227.726735 
L 379.519375 220.905499 
L 426.118125 215.179818 
L 472.716875 210.277803 
L 519.315625 205.851596 
L 565.914375 202.161091 
L 612.513125 198.674504 
L 659.111875 195.723699 
L 705.710625 193.136747 
L 752.309375 190.905651 
L 798.908125 188.770515 
L 845.506875 187.043215 
L 892.105625 185.459857 
L 938.704375 184.072419 
L 985.303125 182.8849 
" style="fill:none;stroke:#f15c80;stroke-linecap:square;"/>
   </g>
   <g id="line2d_25">
    <path clip-path="url(#p6516630993)" d="M 99.926875 309.885455 
L 146.525625 289.953529 
L 193.124375 275.911217 
L 239.723125 264.607796 
L 286.321875 255.567458 
L 332.920625 247.694647 
L 379.519375 241.133305 
L 426.118125 235.391631 
L 472.716875 230.20973 
L 519.315625 225.899476 
L 565.914375 221.957073 
L 612.513125 218.406511 
L 659.111875 215.2238 
L 705.710625 212.472914 
L 752.309375 210.073886 
L 798.908125 207.8188 
L 845.506875 205.839601 
L 892.105625 204.280233 
L 938.704375 202.672884 
L 985.303125 201.305438 
" style="fill:none;stroke:#e4d354;stroke-linecap:square;"/>
   </g>
   <g id="line2d_26">
    <path clip-path="url(#p6516630993)" d="M 99.926875 303.484048 
L 146.525625 285.843194 
L 193.124375 275.651322 
L 239.723125 268.682146 
L 286.321875 263.484251 
L 332.920625 259.365919 
L 379.519375 256.15522 
L 426.118125 253.404334 
L 472.716875 251.181235 
L 519.315625 249.297997 
L 565.914375 247.63867 
L 612.513125 246.135279 
L 659.111875 244.867792 
L 705.710625 243.728254 
L 752.309375 242.764644 
L 798.908125 241.86101 
L 845.506875 241.02135 
L 892.105625 240.377611 
L 938.704375 239.729873 
L 985.303125 239.110124 
" style="fill:none;stroke:#2b908f;stroke-linecap:square;"/>
   </g>
   <g id="line2d_27">
    <path clip-path="url(#p6516630993)" d="M 99.926875 286.546909 
L 146.525625 257.494677 
L 193.124375 238.01057 
L 239.723125 222.760747 
L 286.321875 210.921543 
L 332.920625 200.997563 
L 379.519375 192.548985 
L 426.118125 185.491844 
L 472.716875 179.270364 
L 519.315625 173.716613 
L 565.914375 168.790609 
L 612.513125 164.78823 
L 659.111875 161.297644 
L 705.710625 158.206896 
L 752.309375 155.344056 
L 798.908125 152.845068 
L 845.506875 150.542001 
L 892.105625 148.474838 
L 938.704375 146.671569 
L 985.303125 145.216158 
" style="fill:none;stroke:#f45b5b;stroke-linecap:square;"/>
   </g>
   <g id="line2d_28">
    <path clip-path="url(#p6516630993)" d="M 99.926875 292.084666 
L 146.525625 269.229924 
L 193.124375 254.62384 
L 239.723125 244.375991 
L 286.321875 236.787065 
L 332.920625 230.50561 
L 379.519375 225.555615 
L 426.118125 221.333325 
L 472.716875 217.822747 
L 519.315625 214.979899 
L 565.914375 212.504901 
L 612.513125 210.209831 
L 659.111875 208.146667 
L 705.710625 206.491337 
L 752.309375 205.05192 
L 798.908125 203.740452 
L 845.506875 202.365009 
L 892.105625 201.365414 
L 938.704375 200.425794 
L 985.303125 199.630117 
" style="fill:none;stroke:#91e8e1;stroke-linecap:square;"/>
   </g>
   <g id="line2d_29">
    <path clip-path="url(#p6516630993)" d="M 99.926875 278.470181 
L 146.525625 245.679463 
L 193.124375 223.232556 
L 239.723125 206.551313 
L 286.321875 193.12875 
L 332.920625 182.401096 
L 379.519375 173.288787 
L 426.118125 165.867793 
L 472.716875 159.222485 
L 519.315625 153.420835 
L 565.914375 148.442851 
L 612.513125 144.320521 
L 659.111875 140.506066 
L 705.710625 136.963501 
L 752.309375 133.800782 
L 798.908125 131.269807 
L 845.506875 128.842791 
L 892.105625 126.99154 
L 938.704375 125.320217 
L 985.303125 123.83282 
" style="fill:none;stroke:#7cb5ec;stroke-linecap:square;"/>
   </g>
   <g id="line2d_30">
    <path clip-path="url(#p6516630993)" d="M 99.926875 269.205933 
L 146.525625 234.460008 
L 193.124375 211.221421 
L 239.723125 193.72051 
L 286.321875 180.122019 
L 332.920625 169.246424 
L 379.519375 160.346029 
L 426.118125 152.729115 
L 472.716875 146.239744 
L 519.315625 140.885912 
L 565.914375 135.959908 
L 612.513125 131.813587 
L 659.111875 128.135077 
L 705.710625 124.704467 
L 752.309375 121.849623 
L 798.908125 119.342639 
L 845.506875 117.075557 
L 892.105625 114.984404 
L 938.704375 113.209123 
L 985.303125 111.7857 
" style="fill:none;stroke:#434348;stroke-linecap:square;"/>
   </g>
   <g id="line2d_31">
    <path clip-path="url(#p6516630993)" d="M 99.926875 261.185182 
L 146.525625 222.58082 
L 193.124375 196.795265 
L 239.723125 178.210793 
L 286.321875 163.636697 
L 332.920625 151.889455 
L 379.519375 142.341323 
L 426.118125 133.848763 
L 472.716875 126.887583 
L 519.315625 121.105925 
L 565.914375 115.656132 
L 612.513125 110.978027 
L 659.111875 107.083605 
L 705.710625 103.557033 
L 752.309375 100.558248 
L 798.908125 97.795367 
L 845.506875 95.496298 
L 892.105625 93.449128 
L 938.704375 91.705834 
L 985.303125 90.138469 
" style="fill:none;stroke:#90ed7d;stroke-linecap:square;"/>
   </g>
   <g id="line2d_32">
    <path clip-path="url(#p6516630993)" d="M 99.926875 269.329883 
L 146.525625 229.214133 
L 193.124375 200.073937 
L 239.723125 177.235188 
L 286.321875 159.286459 
L 332.920625 143.664787 
L 379.519375 130.566092 
L 426.118125 119.4386 
L 472.716875 109.554604 
L 519.315625 101.010065 
L 565.914375 93.421139 
L 612.513125 86.523933 
L 659.111875 80.386419 
L 705.710625 75.196521 
L 752.309375 70.694345 
L 798.908125 66.396086 
L 845.506875 62.841526 
L 892.105625 59.502878 
L 938.704375 57.023882 
L 985.303125 54.720815 
" style="fill:none;stroke:#f7a35c;stroke-linecap:square;"/>
   </g>
   <g id="line2d_33">
    <path clip-path="url(#p6516630993)" d="M 99.926875 279.101925 
L 146.525625 248.758216 
L 193.124375 228.090588 
L 239.723125 212.412939 
L 286.321875 199.502168 
L 332.920625 189.238326 
L 379.519375 180.561841 
L 426.118125 173.488706 
L 472.716875 167.195255 
L 519.315625 161.781448 
L 565.914375 156.563562 
L 612.513125 152.349269 
L 659.111875 148.550807 
L 705.710625 145.272135 
L 752.309375 142.321331 
L 798.908125 139.490477 
L 845.506875 137.123436 
L 892.105625 135.112251 
L 938.704375 133.412939 
L 985.303125 131.941535 
" style="fill:none;stroke:#8085e9;stroke-linecap:square;"/>
   </g>
   <g id="line2d_34">
    <path clip-path="url(#p6516630993)" d="M 99.926875 293.248194 
L 146.525625 267.48663 
L 193.124375 249.473926 
L 239.723125 235.895427 
L 286.321875 224.176174 
L 332.920625 214.664027 
L 379.519375 206.663268 
L 426.118125 199.502168 
L 472.716875 193.396642 
L 519.315625 187.786914 
L 565.914375 182.876903 
L 612.513125 178.51467 
L 659.111875 174.54028 
L 705.710625 171.005712 
L 752.309375 168.02292 
L 798.908125 165.304021 
L 845.506875 162.928983 
L 892.105625 160.865819 
L 938.704375 159.038559 
L 985.303125 157.515176 
" style="fill:none;stroke:#f15c80;stroke-linecap:square;"/>
   </g>
   <g id="line2d_35">
    <path clip-path="url(#p6516630993)" d="M 99.926875 288.534104 
L 146.525625 261.996854 
L 193.124375 243.156485 
L 239.723125 228.682348 
L 286.321875 217.202998 
L 332.920625 208.090689 
L 379.519375 199.886013 
L 426.118125 192.988807 
L 472.716875 187.331099 
L 519.315625 182.077227 
L 565.914375 177.351141 
L 612.513125 173.440725 
L 659.111875 169.866173 
L 705.710625 166.731443 
L 752.309375 163.740654 
L 798.908125 160.925795 
L 845.506875 158.550757 
L 892.105625 156.683513 
L 938.704375 154.848256 
L 985.303125 153.336869 
" style="fill:none;stroke:#e4d354;stroke-linecap:square;"/>
   </g>
   <g id="line2d_36">
    <path clip-path="url(#p6516630993)" d="M 99.926875 300.101418 
L 146.525625 276.343042 
L 193.124375 259.517858 
L 239.723125 246.079301 
L 286.321875 235.415621 
L 332.920625 226.167367 
L 379.519375 218.078644 
L 426.118125 211.269402 
L 472.716875 205.267833 
L 519.315625 200.045948 
L 565.914375 195.379838 
L 612.513125 191.221523 
L 659.111875 187.515024 
L 705.710625 184.324317 
L 752.309375 181.425491 
L 798.908125 178.782561 
L 845.506875 176.479494 
L 892.105625 174.360353 
L 938.704375 172.557083 
L 985.303125 171.029702 
" style="fill:none;stroke:#2b908f;stroke-linecap:square;"/>
   </g>
   <g id="line2d_37">
    <path clip-path="url(#p6516630993)" d="M 99.926875 297.886316 
L 146.525625 273.928021 
L 193.124375 257.634621 
L 239.723125 244.991742 
L 286.321875 234.823861 
L 332.920625 226.903069 
L 379.519375 220.065839 
L 426.118125 213.880344 
L 472.716875 208.750422 
L 519.315625 204.012341 
L 565.914375 199.698089 
L 612.513125 196.315459 
L 659.111875 193.348661 
L 705.710625 190.489819 
L 752.309375 187.906865 
L 798.908125 185.607797 
L 845.506875 183.568623 
L 892.105625 181.841322 
L 938.704375 180.405904 
L 985.303125 178.870526 
" style="fill:none;stroke:#f45b5b;stroke-linecap:square;"/>
   </g>
   <g id="line2d_38">
    <path clip-path="url(#p6516630993)" d="M 99.926875 297.790355 
L 146.525625 273.760089 
L 193.124375 257.510671 
L 239.723125 244.835805 
L 286.321875 234.77588 
L 332.920625 226.299314 
L 379.519375 219.362124 
L 426.118125 213.356556 
L 472.716875 208.154664 
L 519.315625 203.456567 
L 565.914375 199.414204 
L 612.513125 196.019579 
L 659.111875 192.780891 
L 705.710625 189.966031 
L 752.309375 187.515024 
L 798.908125 185.131989 
L 845.506875 183.144794 
L 892.105625 181.437486 
L 938.704375 179.918101 
L 985.303125 178.694597 
" style="fill:none;stroke:#91e8e1;stroke-linecap:square;"/>
   </g>
   <g id="line2d_39">
    <path clip-path="url(#p6516630993)" d="M 99.926875 295.747182 
L 146.525625 270.425439 
L 193.124375 253.400336 
L 239.723125 240.565535 
L 286.321875 230.541595 
L 332.920625 222.240958 
L 379.519375 215.115844 
L 426.118125 209.106278 
L 472.716875 203.636494 
L 519.315625 199.142314 
L 565.914375 195.095953 
L 612.513125 191.477419 
L 659.111875 188.250726 
L 705.710625 185.403879 
L 752.309375 182.972864 
L 798.908125 180.713779 
L 845.506875 178.598636 
L 892.105625 176.763379 
L 938.704375 175.192016 
L 985.303125 173.808576 
" style="fill:none;stroke:#7cb5ec;stroke-linecap:square;"/>
   </g>
   <g id="line2d_40">
    <path clip-path="url(#p6516630993)" d="M 99.926875 282.444571 
L 146.525625 248.510317 
L 193.124375 224.55602 
L 239.723125 205.27583 
L 286.321875 189.962033 
L 332.920625 177.247183 
L 379.519375 165.835806 
L 426.118125 156.035775 
L 472.716875 147.67916 
L 519.315625 140.354128 
L 565.914375 133.980709 
L 612.513125 128.406967 
L 659.111875 122.949178 
L 705.710625 118.187107 
L 752.309375 114.20472 
L 798.908125 110.614174 
L 845.506875 107.363491 
L 892.105625 104.612606 
L 938.704375 102.253561 
L 985.303125 100.150413 
" style="fill:none;stroke:#434348;stroke-linecap:square;"/>
   </g>
   <g id="line2d_41">
    <path clip-path="url(#p6516630993)" d="M 99.926875 300.381305 
L 146.525625 279.345826 
L 193.124375 266.051211 
L 239.723125 256.559056 
L 286.321875 249.042101 
L 332.920625 243.128497 
L 379.519375 238.198494 
L 426.118125 234.276082 
L 472.716875 230.937435 
L 519.315625 228.058601 
L 565.914375 225.519629 
L 612.513125 223.280536 
L 659.111875 221.329327 
L 705.710625 219.574038 
L 752.309375 218.030663 
L 798.908125 216.635228 
L 845.506875 215.267782 
L 892.105625 214.132242 
L 938.704375 213.088665 
L 985.303125 212.209021 
" style="fill:none;stroke:#90ed7d;stroke-linecap:square;"/>
   </g>
   <g id="line2d_42">
    <path clip-path="url(#p6516630993)" d="M 99.926875 279.72967 
L 146.525625 247.102887 
L 193.124375 224.488047 
L 239.723125 207.366983 
L 286.321875 193.420632 
L 332.920625 182.041241 
L 379.519375 172.649046 
L 426.118125 164.524337 
L 472.716875 157.471194 
L 519.315625 151.377662 
L 565.914375 146.079808 
L 612.513125 141.357721 
L 659.111875 137.211401 
L 705.710625 133.46092 
L 752.309375 130.038306 
L 798.908125 127.219448 
L 845.506875 124.69647 
L 892.105625 122.529348 
L 938.704375 120.614124 
L 985.303125 118.922809 
" style="fill:none;stroke:#f7a35c;stroke-linecap:square;"/>
   </g>
   <g id="line2d_43">
    <path clip-path="url(#p6516630993)" d="M 99.926875 259.853722 
L 146.525625 217.606835 
L 193.124375 188.046809 
L 239.723125 165.671872 
L 286.321875 148.090994 
L 332.920625 133.448925 
L 379.519375 120.818041 
L 426.118125 110.102382 
L 472.716875 100.89811 
L 519.315625 92.681439 
L 565.914375 85.240453 
L 612.513125 78.611138 
L 659.111875 72.997412 
L 705.710625 68.043419 
L 752.309375 63.637204 
L 798.908125 59.814752 
L 845.506875 56.680022 
L 892.105625 53.873159 
L 938.704375 51.262216 
L 985.303125 49.003131 
" style="fill:none;stroke:#8085e9;stroke-linecap:square;"/>
   </g>
   <g id="line2d_44">
    <path clip-path="url(#p6516630993)" d="M 99.926875 272.160736 
L 146.525625 237.02297 
L 193.124375 213.304577 
L 239.723125 195.855646 
L 286.321875 182.137202 
L 332.920625 170.597877 
L 379.519375 161.301642 
L 426.118125 153.428831 
L 472.716875 146.795518 
L 519.315625 140.937891 
L 565.914375 136.063865 
L 612.513125 131.573684 
L 659.111875 127.667267 
L 705.710625 124.372601 
L 752.309375 121.393808 
L 798.908125 118.838843 
L 845.506875 116.611745 
L 892.105625 114.684526 
L 938.704375 112.901248 
L 985.303125 111.577784 
" style="fill:none;stroke:#f15c80;stroke-linecap:square;"/>
   </g>
   <g id="line2d_45">
    <path clip-path="url(#p6516630993)" d="M 99.926875 253.604253 
L 146.525625 214.252194 
L 193.124375 188.022818 
L 239.723125 169.13447 
L 286.321875 155.048175 
L 332.920625 143.424884 
L 379.519375 134.100661 
L 426.118125 126.25184 
L 472.716875 119.738478 
L 519.315625 114.196723 
L 565.914375 109.254725 
L 612.513125 105.09641 
L 659.111875 101.241971 
L 705.710625 97.827354 
L 752.309375 94.932527 
L 798.908125 92.353571 
L 845.506875 90.198444 
L 892.105625 88.183261 
L 938.704375 86.403981 
L 985.303125 84.884597 
" style="fill:none;stroke:#e4d354;stroke-linecap:square;"/>
   </g>
   <g id="line2d_46">
    <path clip-path="url(#p6516630993)" d="M 99.926875 277.722484 
L 146.525625 240.721472 
L 193.124375 214.668025 
L 239.723125 193.808475 
L 286.321875 177.55106 
L 332.920625 163.556729 
L 379.519375 152.033397 
L 426.118125 142.105418 
L 472.716875 133.029095 
L 519.315625 125.38819 
L 565.914375 118.678908 
L 612.513125 112.64935 
L 659.111875 107.347498 
L 705.710625 102.517454 
L 752.309375 98.275173 
L 798.908125 94.416736 
L 845.506875 91.078088 
L 892.105625 88.271225 
L 938.704375 86.01214 
L 985.303125 83.984961 
" style="fill:none;stroke:#2b908f;stroke-linecap:square;"/>
   </g>
   <g id="line2d_47">
    <path clip-path="url(#p6516630993)" d="M 99.926875 283.456161 
L 146.525625 252.172833 
L 193.124375 230.745513 
L 239.723125 214.672024 
L 286.321875 202.025146 
L 332.920625 191.769301 
L 379.519375 183.3767 
L 426.118125 175.9717 
L 472.716875 169.866173 
L 519.315625 164.300428 
L 565.914375 159.526361 
L 612.513125 155.292077 
L 659.111875 151.805489 
L 705.710625 148.34689 
L 752.309375 145.304123 
L 798.908125 142.713172 
L 845.506875 140.482076 
L 892.105625 138.318952 
L 938.704375 136.723598 
L 985.303125 135.236201 
" style="fill:none;stroke:#f45b5b;stroke-linecap:square;"/>
   </g>
   <g id="line2d_48">
    <path clip-path="url(#p6516630993)" d="M 99.926875 303.404081 
L 146.525625 282.284636 
L 193.124375 267.646565 
L 239.723125 256.730987 
L 286.321875 247.990527 
L 332.920625 240.573532 
L 379.519375 234.344055 
L 426.118125 228.798301 
L 472.716875 223.912281 
L 519.315625 219.917899 
L 565.914375 216.283371 
L 612.513125 213.104658 
L 659.111875 210.325784 
L 705.710625 207.86678 
L 752.309375 205.535724 
L 798.908125 203.476558 
L 845.506875 201.733265 
L 892.105625 200.069938 
L 938.704375 198.698494 
L 985.303125 197.502978 
" style="fill:none;stroke:#91e8e1;stroke-linecap:square;"/>
   </g>
   <g id="line2d_49">
    <path clip-path="url(#p6516630993)" d="M 99.926875 304.135784 
L 146.525625 284.039925 
L 193.124375 269.305893 
L 239.723125 258.318344 
L 286.321875 249.429944 
L 332.920625 241.896995 
L 379.519375 235.727495 
L 426.118125 230.401652 
L 472.716875 225.803514 
L 519.315625 221.945077 
L 565.914375 218.346535 
L 612.513125 215.263784 
L 659.111875 212.516896 
L 705.710625 210.021907 
L 752.309375 207.802806 
L 798.908125 205.819609 
L 845.506875 204.024337 
L 892.105625 202.48496 
L 938.704375 201.153499 
L 985.303125 200.033953 
" style="fill:none;stroke:#7cb5ec;stroke-linecap:square;"/>
   </g>
   <g id="line2d_50">
    <path clip-path="url(#p6516630993)" d="M 99.926875 300.597218 
L 146.525625 278.174301 
L 193.124375 262.620601 
L 239.723125 250.417544 
L 286.321875 240.653499 
L 332.920625 232.460818 
L 379.519375 225.559613 
L 426.118125 219.526057 
L 472.716875 214.284181 
L 519.315625 209.873967 
L 565.914375 205.811613 
L 612.513125 202.141099 
L 659.111875 198.842436 
L 705.710625 196.043569 
L 752.309375 193.380648 
L 798.908125 191.041596 
L 845.506875 189.038407 
L 892.105625 187.235137 
L 938.704375 185.739743 
L 985.303125 184.344308 
" style="fill:none;stroke:#434348;stroke-linecap:square;"/>
   </g>
   <g id="line2d_51">
    <path clip-path="url(#p6516630993)" d="M 99.926875 275.68331 
L 146.525625 244.383988 
L 193.124375 222.708768 
L 239.723125 206.443357 
L 286.321875 193.624549 
L 332.920625 183.176781 
L 379.519375 174.360353 
L 426.118125 166.579504 
L 472.716875 159.978178 
L 519.315625 153.792684 
L 565.914375 148.690751 
L 612.513125 144.148591 
L 659.111875 140.198191 
L 705.710625 136.811563 
L 752.309375 133.480912 
L 798.908125 130.698039 
L 845.506875 128.183058 
L 892.105625 126.195863 
L 938.704375 124.244653 
L 985.303125 122.657296 
" style="fill:none;stroke:#90ed7d;stroke-linecap:square;"/>
   </g>
   <g id="line2d_52">
    <path clip-path="url(#p6516630993)" d="M 99.926875 283.592106 
L 146.525625 256.443103 
L 193.124375 238.754268 
L 239.723125 225.711552 
L 286.321875 215.503687 
L 332.920625 207.155068 
L 379.519375 200.225875 
L 426.118125 194.544177 
L 472.716875 189.770111 
L 519.315625 185.687764 
L 565.914375 181.849319 
L 612.513125 178.678603 
L 659.111875 175.671821 
L 705.710625 173.052882 
L 752.309375 170.829783 
L 798.908125 168.894567 
L 845.506875 167.075304 
L 892.105625 165.447963 
L 938.704375 164.07252 
L 985.303125 162.900995 
" style="fill:none;stroke:#f7a35c;stroke-linecap:square;"/>
   </g>
   <g id="line2d_53">
    <path clip-path="url(#p6516630993)" d="M 99.926875 301.08502 
L 146.525625 278.882014 
L 193.124375 263.764138 
L 239.723125 252.460716 
L 286.321875 243.068521 
L 332.920625 235.76348 
L 379.519375 229.597977 
L 426.118125 224.420075 
L 472.716875 219.86592 
L 519.315625 215.823557 
L 565.914375 212.40894 
L 612.513125 209.342182 
L 659.111875 206.555311 
L 705.710625 204.14029 
L 752.309375 201.865211 
L 798.908125 199.874018 
L 845.506875 198.134722 
L 892.105625 196.547365 
L 938.704375 195.335856 
L 985.303125 194.296277 
" style="fill:none;stroke:#8085e9;stroke-linecap:square;"/>
   </g>
   <g id="line2d_54">
    <path clip-path="url(#p6516630993)" d="M 99.926875 308.438042 
L 146.525625 288.134266 
L 193.124375 273.532181 
L 239.723125 261.457072 
L 286.321875 252.448721 
L 332.920625 244.435967 
L 379.519375 237.662711 
L 426.118125 231.845067 
L 472.716875 226.471244 
L 519.315625 221.993058 
L 565.914375 217.9387 
L 612.513125 214.448114 
L 659.111875 211.277399 
L 705.710625 208.258621 
L 752.309375 205.819609 
L 798.908125 203.628497 
L 845.506875 201.681286 
L 892.105625 200.021958 
L 938.704375 198.478583 
L 985.303125 197.179109 
" style="fill:none;stroke:#f15c80;stroke-linecap:square;"/>
   </g>
   <g id="line2d_55">
    <path clip-path="url(#p6516630993)" d="M 99.926875 295.167417 
L 146.525625 271.013201 
L 193.124375 254.016086 
L 239.723125 241.537141 
L 286.321875 231.537192 
L 332.920625 223.504446 
L 379.519375 216.763176 
L 426.118125 211.213424 
L 472.716875 206.255433 
L 519.315625 201.817231 
L 565.914375 197.830845 
L 612.513125 194.508191 
L 659.111875 191.67334 
L 705.710625 189.062397 
L 752.309375 186.931261 
L 798.908125 184.952062 
L 845.506875 183.292734 
L 892.105625 181.801339 
L 938.704375 180.553844 
L 985.303125 179.490275 
" style="fill:none;stroke:#e4d354;stroke-linecap:square;"/>
   </g>
   <g id="line2d_56">
    <path clip-path="url(#p6516630993)" d="M 99.926875 287.35858 
L 146.525625 261.097218 
L 193.124375 243.188472 
L 239.723125 230.269705 
L 286.321875 219.410104 
L 332.920625 211.061486 
L 379.519375 203.952366 
L 426.118125 198.026766 
L 472.716875 193.000802 
L 519.315625 188.770515 
L 565.914375 184.980051 
L 612.513125 181.781347 
L 659.111875 178.854532 
L 705.710625 176.443509 
L 752.309375 174.16843 
L 798.908125 172.409143 
L 845.506875 170.745817 
L 892.105625 169.202442 
L 938.704375 168.058905 
L 985.303125 166.959351 
" style="fill:none;stroke:#2b908f;stroke-linecap:square;"/>
   </g>
   <g id="line2d_57">
    <path clip-path="url(#p6516630993)" d="M 99.926875 274.715701 
L 146.525625 243.96016 
L 193.124375 223.520439 
L 239.723125 209.054299 
L 286.321875 197.734884 
L 332.920625 188.598585 
L 379.519375 181.285547 
L 426.118125 174.992097 
L 472.716875 169.794202 
L 519.315625 165.252042 
L 565.914375 161.425592 
L 612.513125 158.034966 
L 659.111875 155.008192 
L 705.710625 152.249309 
L 752.309375 149.962236 
L 798.908125 147.963045 
L 845.506875 146.287724 
L 892.105625 144.676377 
L 938.704375 143.416887 
L 985.303125 142.313334 
" style="fill:none;stroke:#f45b5b;stroke-linecap:square;"/>
   </g>
   <g id="line2d_58">
    <path clip-path="url(#p6516630993)" d="M 99.926875 278.330237 
L 146.525625 245.323607 
L 193.124375 221.957073 
L 239.723125 203.808424 
L 286.321875 189.350281 
L 332.920625 177.267175 
L 379.519375 167.191257 
L 426.118125 158.398818 
L 472.716875 150.74192 
L 519.315625 144.280537 
L 565.914375 138.430907 
L 612.513125 133.324975 
L 659.111875 128.730836 
L 705.710625 124.768441 
L 752.309375 121.145908 
L 798.908125 118.115136 
L 845.506875 115.460211 
L 892.105625 112.989212 
L 938.704375 111.11797 
L 985.303125 109.434652 
" style="fill:none;stroke:#91e8e1;stroke-linecap:square;"/>
   </g>
   <g id="line2d_59">
    <path clip-path="url(#p6516630993)" d="M 99.926875 264.923668 
L 146.525625 227.39487 
L 193.124375 201.365414 
L 239.723125 181.333528 
L 286.321875 165.367995 
L 332.920625 152.897047 
L 379.519375 142.365313 
L 426.118125 132.757205 
L 472.716875 124.864402 
L 519.315625 118.075152 
L 565.914375 112.369463 
L 612.513125 106.819711 
L 659.111875 101.98567 
L 705.710625 97.819357 
L 752.309375 93.93693 
L 798.908125 90.910156 
L 845.506875 88.083301 
L 892.105625 85.780234 
L 938.704375 83.56913 
L 985.303125 81.725876 
" style="fill:none;stroke:#7cb5ec;stroke-linecap:square;"/>
   </g>
   <g id="line2d_60">
    <path clip-path="url(#p6516630993)" d="M 99.926875 278.925996 
L 146.525625 245.159674 
L 193.124375 222.328922 
L 239.723125 204.432171 
L 286.321875 190.097978 
L 332.920625 178.438701 
L 379.519375 167.950949 
L 426.118125 159.230481 
L 472.716875 151.785497 
L 519.315625 145.33611 
L 565.914375 139.710388 
L 612.513125 134.336565 
L 659.111875 129.626473 
L 705.710625 125.70806 
L 752.309375 122.357418 
L 798.908125 119.238681 
L 845.506875 116.471802 
L 892.105625 114.116756 
L 938.704375 112.033599 
L 985.303125 110.25432 
" style="fill:none;stroke:#434348;stroke-linecap:square;"/>
   </g>
   <g id="line2d_61">
    <path clip-path="url(#p6516630993)" d="M 99.926875 293.416126 
L 146.525625 266.750928 
L 193.124375 247.890568 
L 239.723125 233.660332 
L 286.321875 222.144996 
L 332.920625 212.968713 
L 379.519375 205.207857 
L 426.118125 198.566547 
L 472.716875 192.58497 
L 519.315625 187.507027 
L 565.914375 182.648995 
L 612.513125 178.582642 
L 659.111875 174.948115 
L 705.710625 171.805388 
L 752.309375 169.126473 
L 798.908125 166.579504 
L 845.506875 164.352407 
L 892.105625 162.489161 
L 938.704375 160.745868 
L 985.303125 159.298454 
" style="fill:none;stroke:#90ed7d;stroke-linecap:square;"/>
   </g>
   <g id="line2d_62">
    <path clip-path="url(#p6516630993)" d="M 99.926875 275.911217 
L 146.525625 240.893402 
L 193.124375 216.691206 
L 239.723125 198.51057 
L 286.321875 184.504244 
L 332.920625 172.593069 
L 379.519375 162.477166 
L 426.118125 154.044582 
L 472.716875 146.659573 
L 519.315625 140.410105 
L 565.914375 134.752397 
L 612.513125 129.706441 
L 659.111875 125.484151 
L 705.710625 121.633711 
L 752.309375 118.359037 
L 798.908125 115.416229 
L 845.506875 112.941232 
L 892.105625 110.594183 
L 938.704375 108.786915 
L 985.303125 107.011634 
" style="fill:none;stroke:#f7a35c;stroke-linecap:square;"/>
   </g>
   <g id="line2d_63">
    <path clip-path="url(#p6516630993)" d="M 99.926875 292.700416 
L 146.525625 267.150766 
L 193.124375 249.885759 
L 239.723125 236.986984 
L 286.321875 226.5792 
L 332.920625 218.026665 
L 379.519375 210.613667 
L 426.118125 204.684069 
L 472.716875 199.538154 
L 519.315625 194.780081 
L 565.914375 190.621766 
L 612.513125 186.787319 
L 659.111875 183.380699 
L 705.710625 180.749764 
L 752.309375 178.282764 
L 798.908125 176.027677 
L 845.506875 174.052477 
L 892.105625 172.233214 
L 938.704375 170.61387 
L 985.303125 169.310398 
" style="fill:none;stroke:#8085e9;stroke-linecap:square;"/>
   </g>
   <g id="line2d_64">
    <path clip-path="url(#p6516630993)" d="M 99.926875 303.564016 
L 146.525625 284.239844 
L 193.124375 271.524994 
L 239.723125 261.896894 
L 286.321875 254.819761 
L 332.920625 249.030106 
L 379.519375 244.324012 
L 426.118125 240.137708 
L 472.716875 236.739085 
L 519.315625 233.432424 
L 565.914375 230.853469 
L 612.513125 228.522413 
L 659.111875 226.443255 
L 705.710625 224.655979 
L 752.309375 223.02464 
L 798.908125 221.589222 
L 845.506875 220.30974 
L 892.105625 219.130218 
L 938.704375 218.058652 
L 985.303125 217.087045 
" style="fill:none;stroke:#f15c80;stroke-linecap:square;"/>
   </g>
   <g id="line2d_65">
    <path clip-path="url(#p6516630993)" d="M 99.926875 287.942344 
L 146.525625 261.636999 
L 193.124375 243.224458 
L 239.723125 229.190143 
L 286.321875 218.08664 
L 332.920625 209.078289 
L 379.519375 201.241464 
L 426.118125 194.716107 
L 472.716875 188.930451 
L 519.315625 184.06842 
L 565.914375 180.014062 
L 612.513125 176.26758 
L 659.111875 172.944926 
L 705.710625 169.994121 
L 752.309375 167.347193 
L 798.908125 164.78823 
L 845.506875 162.645098 
L 892.105625 160.81384 
L 938.704375 159.23448 
L 985.303125 157.978988 
" style="fill:none;stroke:#e4d354;stroke-linecap:square;"/>
   </g>
   <g id="line2d_66">
    <path clip-path="url(#p6516630993)" d="M 99.926875 289.201834 
L 146.525625 262.144794 
L 193.124375 243.732252 
L 239.723125 229.585982 
L 286.321875 218.082642 
L 332.920625 209.42215 
L 379.519375 201.44938 
L 426.118125 194.628143 
L 472.716875 188.738528 
L 519.315625 183.832516 
L 565.914375 179.262367 
L 612.513125 175.164027 
L 659.111875 171.525501 
L 705.710625 168.306805 
L 752.309375 165.535927 
L 798.908125 163.136899 
L 845.506875 160.905803 
L 892.105625 159.138519 
L 938.704375 157.379231 
L 985.303125 155.859847 
" style="fill:none;stroke:#2b908f;stroke-linecap:square;"/>
   </g>
   <g id="line2d_67">
    <path clip-path="url(#p6516630993)" d="M 99.926875 282.652487 
L 146.525625 255.075657 
L 193.124375 236.171315 
L 239.723125 221.825126 
L 286.321875 211.085476 
L 332.920625 202.301035 
L 379.519375 195.007989 
L 426.118125 188.578593 
L 472.716875 182.988857 
L 519.315625 178.026867 
L 565.914375 173.984505 
L 612.513125 170.377966 
L 659.111875 167.291216 
L 705.710625 164.460363 
L 752.309375 161.877409 
L 798.908125 159.566345 
L 845.506875 157.587147 
L 892.105625 155.959806 
L 938.704375 154.476407 
L 985.303125 153.244906 
" style="fill:none;stroke:#f45b5b;stroke-linecap:square;"/>
   </g>
   <g id="line2d_68">
    <path clip-path="url(#p6516630993)" d="M 53.328125 353.2239 
L 985.303125 353.2239 
" style="fill:none;stroke:#dedede;stroke-linecap:square;stroke-width:2;"/>
   </g>
   <g id="text_17">
    <!-- RSeQC: Junction Saturation -->
    <defs>
     <path d="M 44.390625 34.1875 
Q 47.5625 33.109375 50.5625 29.59375 
Q 53.5625 26.078125 56.59375 19.921875 
L 66.609375 0 
L 56 0 
L 46.6875 18.703125 
Q 43.0625 26.03125 39.671875 28.421875 
Q 36.28125 30.8125 30.421875 30.8125 
L 19.671875 30.8125 
L 19.671875 0 
L 9.8125 0 
L 9.8125 72.90625 
L 32.078125 72.90625 
Q 44.578125 72.90625 50.734375 67.671875 
Q 56.890625 62.453125 56.890625 51.90625 
Q 56.890625 45.015625 53.6875 40.46875 
Q 50.484375 35.9375 44.390625 34.1875 
z
M 19.671875 64.796875 
L 19.671875 38.921875 
L 32.078125 38.921875 
Q 39.203125 38.921875 42.84375 42.21875 
Q 46.484375 45.515625 46.484375 51.90625 
Q 46.484375 58.296875 42.84375 61.546875 
Q 39.203125 64.796875 32.078125 64.796875 
z
" id="DejaVuSans-82"/>
     <path d="M 53.515625 70.515625 
L 53.515625 60.890625 
Q 47.90625 63.578125 42.921875 64.890625 
Q 37.9375 66.21875 33.296875 66.21875 
Q 25.25 66.21875 20.875 63.09375 
Q 16.5 59.96875 16.5 54.203125 
Q 16.5 49.359375 19.40625 46.890625 
Q 22.3125 44.4375 30.421875 42.921875 
L 36.375 41.703125 
Q 47.40625 39.59375 52.65625 34.296875 
Q 57.90625 29 57.90625 20.125 
Q 57.90625 9.515625 50.796875 4.046875 
Q 43.703125 -1.421875 29.984375 -1.421875 
Q 24.8125 -1.421875 18.96875 -0.25 
Q 13.140625 0.921875 6.890625 3.21875 
L 6.890625 13.375 
Q 12.890625 10.015625 18.65625 8.296875 
Q 24.421875 6.59375 29.984375 6.59375 
Q 38.421875 6.59375 43.015625 9.90625 
Q 47.609375 13.234375 47.609375 19.390625 
Q 47.609375 24.75 44.3125 27.78125 
Q 41.015625 30.8125 33.5 32.328125 
L 27.484375 33.5 
Q 16.453125 35.6875 11.515625 40.375 
Q 6.59375 45.0625 6.59375 53.421875 
Q 6.59375 63.09375 13.40625 68.65625 
Q 20.21875 74.21875 32.171875 74.21875 
Q 37.3125 74.21875 42.625 73.28125 
Q 47.953125 72.359375 53.515625 70.515625 
z
" id="DejaVuSans-83"/>
     <path d="M 39.40625 66.21875 
Q 28.65625 66.21875 22.328125 58.203125 
Q 16.015625 50.203125 16.015625 36.375 
Q 16.015625 22.609375 22.328125 14.59375 
Q 28.65625 6.59375 39.40625 6.59375 
Q 50.140625 6.59375 56.421875 14.59375 
Q 62.703125 22.609375 62.703125 36.375 
Q 62.703125 50.203125 56.421875 58.203125 
Q 50.140625 66.21875 39.40625 66.21875 
z
M 53.21875 1.3125 
L 66.21875 -12.890625 
L 54.296875 -12.890625 
L 43.5 -1.21875 
Q 41.890625 -1.3125 41.03125 -1.359375 
Q 40.1875 -1.421875 39.40625 -1.421875 
Q 24.03125 -1.421875 14.8125 8.859375 
Q 5.609375 19.140625 5.609375 36.375 
Q 5.609375 53.65625 14.8125 63.9375 
Q 24.03125 74.21875 39.40625 74.21875 
Q 54.734375 74.21875 63.90625 63.9375 
Q 73.09375 53.65625 73.09375 36.375 
Q 73.09375 23.6875 67.984375 14.640625 
Q 62.890625 5.609375 53.21875 1.3125 
z
" id="DejaVuSans-81"/>
     <path d="M 64.40625 67.28125 
L 64.40625 56.890625 
Q 59.421875 61.53125 53.78125 63.8125 
Q 48.140625 66.109375 41.796875 66.109375 
Q 29.296875 66.109375 22.65625 58.46875 
Q 16.015625 50.828125 16.015625 36.375 
Q 16.015625 21.96875 22.65625 14.328125 
Q 29.296875 6.6875 41.796875 6.6875 
Q 48.140625 6.6875 53.78125 8.984375 
Q 59.421875 11.28125 64.40625 15.921875 
L 64.40625 5.609375 
Q 59.234375 2.09375 53.4375 0.328125 
Q 47.65625 -1.421875 41.21875 -1.421875 
Q 24.65625 -1.421875 15.125 8.703125 
Q 5.609375 18.84375 5.609375 36.375 
Q 5.609375 53.953125 15.125 64.078125 
Q 24.65625 74.21875 41.21875 74.21875 
Q 47.75 74.21875 53.53125 72.484375 
Q 59.328125 70.75 64.40625 67.28125 
z
" id="DejaVuSans-67"/>
     <path d="M 11.71875 12.40625 
L 22.015625 12.40625 
L 22.015625 0 
L 11.71875 0 
z
M 11.71875 51.703125 
L 22.015625 51.703125 
L 22.015625 39.3125 
L 11.71875 39.3125 
z
" id="DejaVuSans-58"/>
    </defs>
    <g transform="translate(410.166875 19.3575)scale(0.16 -0.16)">
     <use xlink:href="#DejaVuSans-82"/>
     <use x="69.482422" xlink:href="#DejaVuSans-83"/>
     <use x="132.958984" xlink:href="#DejaVuSans-101"/>
     <use x="194.482422" xlink:href="#DejaVuSans-81"/>
     <use x="273.193359" xlink:href="#DejaVuSans-67"/>
     <use x="343.017578" xlink:href="#DejaVuSans-58"/>
     <use x="376.708984" xlink:href="#DejaVuSans-32"/>
     <use x="408.496094" xlink:href="#DejaVuSans-74"/>
     <use x="437.988281" xlink:href="#DejaVuSans-117"/>
     <use x="501.367188" xlink:href="#DejaVuSans-110"/>
     <use x="564.746094" xlink:href="#DejaVuSans-99"/>
     <use x="619.726562" xlink:href="#DejaVuSans-116"/>
     <use x="658.935547" xlink:href="#DejaVuSans-105"/>
     <use x="686.71875" xlink:href="#DejaVuSans-111"/>
     <use x="747.900391" xlink:href="#DejaVuSans-110"/>
     <use x="811.279297" xlink:href="#DejaVuSans-32"/>
     <use x="843.066406" xlink:href="#DejaVuSans-83"/>
     <use x="906.542969" xlink:href="#DejaVuSans-97"/>
     <use x="967.822266" xlink:href="#DejaVuSans-116"/>
     <use x="1007.03125" xlink:href="#DejaVuSans-117"/>
     <use x="1070.410156" xlink:href="#DejaVuSans-114"/>
     <use x="1111.523438" xlink:href="#DejaVuSans-97"/>
     <use x="1172.802734" xlink:href="#DejaVuSans-116"/>
     <use x="1212.011719" xlink:href="#DejaVuSans-105"/>
     <use x="1239.794922" xlink:href="#DejaVuSans-111"/>
     <use x="1300.976562" xlink:href="#DejaVuSans-110"/>
    </g>
   </g>
  </g>
 </g>
 <defs>
  <clipPath id="p6516630993">
   <rect height="317.968" width="931.975" x="53.328125" y="35.2559"/>
  </clipPath>
 </defs>
</svg>
