<?xml version="1.0" encoding="utf-8" standalone="no"?>
<!DOCTYPE svg PUBLIC "-//W3C//DTD SVG 1.1//EN"
  "http://www.w3.org/Graphics/SVG/1.1/DTD/svg11.dtd">
<!-- Created with matplotlib (https://matplotlib.org/) -->
<svg height="1519.216522pt" version="1.1" viewBox="0 0 833.051875 1519.216522" width="833.051875pt" xmlns="http://www.w3.org/2000/svg" xmlns:xlink="http://www.w3.org/1999/xlink">
 <defs>
  <style type="text/css">
*{stroke-linecap:butt;stroke-linejoin:round;}
  </style>
 </defs>
 <g id="figure_1">
  <g id="patch_1">
   <path d="M 0 1519.216522 
L 833.051875 1519.216522 
L 833.051875 -0 
L 0 -0 
z
" style="fill:#ffffff;"/>
  </g>
  <g id="axes_1">
   <g id="patch_2">
    <path d="M 33.21625 1432.856522 
L 814.41625 1432.856522 
L 814.41625 10.7 
L 33.21625 10.7 
z
" style="fill:#ffffff;"/>
   </g>
   <g id="matplotlib.axis_1">
    <g id="xtick_1">
     <g id="line2d_1">
      <path clip-path="url(#p30828a5c2d)" d="M 33.21625 1432.856522 
L 33.21625 10.7 
" style="fill:none;stroke:#dedede;stroke-linecap:square;"/>
     </g>
     <g id="text_1">
      <!-- 0% -->
      <defs>
       <path d="M 31.78125 66.40625 
Q 24.171875 66.40625 20.328125 58.90625 
Q 16.5 51.421875 16.5 36.375 
Q 16.5 21.390625 20.328125 13.890625 
Q 24.171875 6.390625 31.78125 6.390625 
Q 39.453125 6.390625 43.28125 13.890625 
Q 47.125 21.390625 47.125 36.375 
Q 47.125 51.421875 43.28125 58.90625 
Q 39.453125 66.40625 31.78125 66.40625 
z
M 31.78125 74.21875 
Q 44.046875 74.21875 50.515625 64.515625 
Q 56.984375 54.828125 56.984375 36.375 
Q 56.984375 17.96875 50.515625 8.265625 
Q 44.046875 -1.421875 31.78125 -1.421875 
Q 19.53125 -1.421875 13.0625 8.265625 
Q 6.59375 17.96875 6.59375 36.375 
Q 6.59375 54.828125 13.0625 64.515625 
Q 19.53125 74.21875 31.78125 74.21875 
z
" id="DejaVuSans-48"/>
       <path d="M 72.703125 32.078125 
Q 68.453125 32.078125 66.03125 28.46875 
Q 63.625 24.859375 63.625 18.40625 
Q 63.625 12.0625 66.03125 8.421875 
Q 68.453125 4.78125 72.703125 4.78125 
Q 76.859375 4.78125 79.265625 8.421875 
Q 81.6875 12.0625 81.6875 18.40625 
Q 81.6875 24.8125 79.265625 28.4375 
Q 76.859375 32.078125 72.703125 32.078125 
z
M 72.703125 38.28125 
Q 80.421875 38.28125 84.953125 32.90625 
Q 89.5 27.546875 89.5 18.40625 
Q 89.5 9.28125 84.9375 3.921875 
Q 80.375 -1.421875 72.703125 -1.421875 
Q 64.890625 -1.421875 60.34375 3.921875 
Q 55.8125 9.28125 55.8125 18.40625 
Q 55.8125 27.59375 60.375 32.9375 
Q 64.9375 38.28125 72.703125 38.28125 
z
M 22.3125 68.015625 
Q 18.109375 68.015625 15.6875 64.375 
Q 13.28125 60.75 13.28125 54.390625 
Q 13.28125 47.953125 15.671875 44.328125 
Q 18.0625 40.71875 22.3125 40.71875 
Q 26.5625 40.71875 28.96875 44.328125 
Q 31.390625 47.953125 31.390625 54.390625 
Q 31.390625 60.6875 28.953125 64.34375 
Q 26.515625 68.015625 22.3125 68.015625 
z
M 66.40625 74.21875 
L 74.21875 74.21875 
L 28.609375 -1.421875 
L 20.796875 -1.421875 
z
M 22.3125 74.21875 
Q 30.03125 74.21875 34.609375 68.875 
Q 39.203125 63.53125 39.203125 54.390625 
Q 39.203125 45.171875 34.640625 39.84375 
Q 30.078125 34.515625 22.3125 34.515625 
Q 14.546875 34.515625 10.03125 39.859375 
Q 5.515625 45.21875 5.515625 54.390625 
Q 5.515625 63.484375 10.046875 68.84375 
Q 14.59375 74.21875 22.3125 74.21875 
z
" id="DejaVuSans-37"/>
      </defs>
      <g transform="translate(26.870625 1445.935272)scale(0.08 -0.08)">
       <use xlink:href="#DejaVuSans-48"/>
       <use x="63.623047" xlink:href="#DejaVuSans-37"/>
      </g>
     </g>
    </g>
    <g id="xtick_2">
     <g id="line2d_2">
      <path clip-path="url(#p30828a5c2d)" d="M 189.45625 1432.856522 
L 189.45625 10.7 
" style="fill:none;stroke:#dedede;stroke-linecap:square;"/>
     </g>
     <g id="text_2">
      <!-- 20% -->
      <defs>
       <path d="M 19.1875 8.296875 
L 53.609375 8.296875 
L 53.609375 0 
L 7.328125 0 
L 7.328125 8.296875 
Q 12.9375 14.109375 22.625 23.890625 
Q 32.328125 33.6875 34.8125 36.53125 
Q 39.546875 41.84375 41.421875 45.53125 
Q 43.3125 49.21875 43.3125 52.78125 
Q 43.3125 58.59375 39.234375 62.25 
Q 35.15625 65.921875 28.609375 65.921875 
Q 23.96875 65.921875 18.8125 64.3125 
Q 13.671875 62.703125 7.8125 59.421875 
L 7.8125 69.390625 
Q 13.765625 71.78125 18.9375 73 
Q 24.125 74.21875 28.421875 74.21875 
Q 39.75 74.21875 46.484375 68.546875 
Q 53.21875 62.890625 53.21875 53.421875 
Q 53.21875 48.921875 51.53125 44.890625 
Q 49.859375 40.875 45.40625 35.40625 
Q 44.1875 33.984375 37.640625 27.21875 
Q 31.109375 20.453125 19.1875 8.296875 
z
" id="DejaVuSans-50"/>
      </defs>
      <g transform="translate(180.565625 1445.935272)scale(0.08 -0.08)">
       <use xlink:href="#DejaVuSans-50"/>
       <use x="63.623047" xlink:href="#DejaVuSans-48"/>
       <use x="127.246094" xlink:href="#DejaVuSans-37"/>
      </g>
     </g>
    </g>
    <g id="xtick_3">
     <g id="line2d_3">
      <path clip-path="url(#p30828a5c2d)" d="M 345.69625 1432.856522 
L 345.69625 10.7 
" style="fill:none;stroke:#dedede;stroke-linecap:square;"/>
     </g>
     <g id="text_3">
      <!-- 40% -->
      <defs>
       <path d="M 37.796875 64.3125 
L 12.890625 25.390625 
L 37.796875 25.390625 
z
M 35.203125 72.90625 
L 47.609375 72.90625 
L 47.609375 25.390625 
L 58.015625 25.390625 
L 58.015625 17.1875 
L 47.609375 17.1875 
L 47.609375 0 
L 37.796875 0 
L 37.796875 17.1875 
L 4.890625 17.1875 
L 4.890625 26.703125 
z
" id="DejaVuSans-52"/>
      </defs>
      <g transform="translate(336.805625 1445.935272)scale(0.08 -0.08)">
       <use xlink:href="#DejaVuSans-52"/>
       <use x="63.623047" xlink:href="#DejaVuSans-48"/>
       <use x="127.246094" xlink:href="#DejaVuSans-37"/>
      </g>
     </g>
    </g>
    <g id="xtick_4">
     <g id="line2d_4">
      <path clip-path="url(#p30828a5c2d)" d="M 501.93625 1432.856522 
L 501.93625 10.7 
" style="fill:none;stroke:#dedede;stroke-linecap:square;"/>
     </g>
     <g id="text_4">
      <!-- 60% -->
      <defs>
       <path d="M 33.015625 40.375 
Q 26.375 40.375 22.484375 35.828125 
Q 18.609375 31.296875 18.609375 23.390625 
Q 18.609375 15.53125 22.484375 10.953125 
Q 26.375 6.390625 33.015625 6.390625 
Q 39.65625 6.390625 43.53125 10.953125 
Q 47.40625 15.53125 47.40625 23.390625 
Q 47.40625 31.296875 43.53125 35.828125 
Q 39.65625 40.375 33.015625 40.375 
z
M 52.59375 71.296875 
L 52.59375 62.3125 
Q 48.875 64.0625 45.09375 64.984375 
Q 41.3125 65.921875 37.59375 65.921875 
Q 27.828125 65.921875 22.671875 59.328125 
Q 17.53125 52.734375 16.796875 39.40625 
Q 19.671875 43.65625 24.015625 45.921875 
Q 28.375 48.1875 33.59375 48.1875 
Q 44.578125 48.1875 50.953125 41.515625 
Q 57.328125 34.859375 57.328125 23.390625 
Q 57.328125 12.15625 50.6875 5.359375 
Q 44.046875 -1.421875 33.015625 -1.421875 
Q 20.359375 -1.421875 13.671875 8.265625 
Q 6.984375 17.96875 6.984375 36.375 
Q 6.984375 53.65625 15.1875 63.9375 
Q 23.390625 74.21875 37.203125 74.21875 
Q 40.921875 74.21875 44.703125 73.484375 
Q 48.484375 72.75 52.59375 71.296875 
z
" id="DejaVuSans-54"/>
      </defs>
      <g transform="translate(493.045625 1445.935272)scale(0.08 -0.08)">
       <use xlink:href="#DejaVuSans-54"/>
       <use x="63.623047" xlink:href="#DejaVuSans-48"/>
       <use x="127.246094" xlink:href="#DejaVuSans-37"/>
      </g>
     </g>
    </g>
    <g id="xtick_5">
     <g id="line2d_5">
      <path clip-path="url(#p30828a5c2d)" d="M 658.17625 1432.856522 
L 658.17625 10.7 
" style="fill:none;stroke:#dedede;stroke-linecap:square;"/>
     </g>
     <g id="text_5">
      <!-- 80% -->
      <defs>
       <path d="M 31.78125 34.625 
Q 24.75 34.625 20.71875 30.859375 
Q 16.703125 27.09375 16.703125 20.515625 
Q 16.703125 13.921875 20.71875 10.15625 
Q 24.75 6.390625 31.78125 6.390625 
Q 38.8125 6.390625 42.859375 10.171875 
Q 46.921875 13.96875 46.921875 20.515625 
Q 46.921875 27.09375 42.890625 30.859375 
Q 38.875 34.625 31.78125 34.625 
z
M 21.921875 38.8125 
Q 15.578125 40.375 12.03125 44.71875 
Q 8.5 49.078125 8.5 55.328125 
Q 8.5 64.0625 14.71875 69.140625 
Q 20.953125 74.21875 31.78125 74.21875 
Q 42.671875 74.21875 48.875 69.140625 
Q 55.078125 64.0625 55.078125 55.328125 
Q 55.078125 49.078125 51.53125 44.71875 
Q 48 40.375 41.703125 38.8125 
Q 48.828125 37.15625 52.796875 32.3125 
Q 56.78125 27.484375 56.78125 20.515625 
Q 56.78125 9.90625 50.3125 4.234375 
Q 43.84375 -1.421875 31.78125 -1.421875 
Q 19.734375 -1.421875 13.25 4.234375 
Q 6.78125 9.90625 6.78125 20.515625 
Q 6.78125 27.484375 10.78125 32.3125 
Q 14.796875 37.15625 21.921875 38.8125 
z
M 18.3125 54.390625 
Q 18.3125 48.734375 21.84375 45.5625 
Q 25.390625 42.390625 31.78125 42.390625 
Q 38.140625 42.390625 41.71875 45.5625 
Q 45.3125 48.734375 45.3125 54.390625 
Q 45.3125 60.0625 41.71875 63.234375 
Q 38.140625 66.40625 31.78125 66.40625 
Q 25.390625 66.40625 21.84375 63.234375 
Q 18.3125 60.0625 18.3125 54.390625 
z
" id="DejaVuSans-56"/>
      </defs>
      <g transform="translate(649.285625 1445.935272)scale(0.08 -0.08)">
       <use xlink:href="#DejaVuSans-56"/>
       <use x="63.623047" xlink:href="#DejaVuSans-48"/>
       <use x="127.246094" xlink:href="#DejaVuSans-37"/>
      </g>
     </g>
    </g>
    <g id="xtick_6">
     <g id="line2d_6">
      <path clip-path="url(#p30828a5c2d)" d="M 814.41625 1432.856522 
L 814.41625 10.7 
" style="fill:none;stroke:#dedede;stroke-linecap:square;"/>
     </g>
     <g id="text_6">
      <!-- 100% -->
      <defs>
       <path d="M 12.40625 8.296875 
L 28.515625 8.296875 
L 28.515625 63.921875 
L 10.984375 60.40625 
L 10.984375 69.390625 
L 28.421875 72.90625 
L 38.28125 72.90625 
L 38.28125 8.296875 
L 54.390625 8.296875 
L 54.390625 0 
L 12.40625 0 
z
" id="DejaVuSans-49"/>
      </defs>
      <g transform="translate(802.980625 1445.935272)scale(0.08 -0.08)">
       <use xlink:href="#DejaVuSans-49"/>
       <use x="63.623047" xlink:href="#DejaVuSans-48"/>
       <use x="127.246094" xlink:href="#DejaVuSans-48"/>
       <use x="190.869141" xlink:href="#DejaVuSans-37"/>
      </g>
     </g>
    </g>
    <g id="text_7">
     <!-- # Reads -->
     <defs>
      <path d="M 51.125 44 
L 36.921875 44 
L 32.8125 27.6875 
L 47.125 27.6875 
z
M 43.796875 71.78125 
L 38.71875 51.515625 
L 52.984375 51.515625 
L 58.109375 71.78125 
L 65.921875 71.78125 
L 60.890625 51.515625 
L 76.125 51.515625 
L 76.125 44 
L 58.984375 44 
L 54.984375 27.6875 
L 70.515625 27.6875 
L 70.515625 20.21875 
L 53.078125 20.21875 
L 48 0 
L 40.1875 0 
L 45.21875 20.21875 
L 30.90625 20.21875 
L 25.875 0 
L 18.015625 0 
L 23.09375 20.21875 
L 7.71875 20.21875 
L 7.71875 27.6875 
L 24.90625 27.6875 
L 29 44 
L 13.28125 44 
L 13.28125 51.515625 
L 30.90625 51.515625 
L 35.890625 71.78125 
z
" id="DejaVuSans-35"/>
      <path id="DejaVuSans-32"/>
      <path d="M 44.390625 34.1875 
Q 47.5625 33.109375 50.5625 29.59375 
Q 53.5625 26.078125 56.59375 19.921875 
L 66.609375 0 
L 56 0 
L 46.6875 18.703125 
Q 43.0625 26.03125 39.671875 28.421875 
Q 36.28125 30.8125 30.421875 30.8125 
L 19.671875 30.8125 
L 19.671875 0 
L 9.8125 0 
L 9.8125 72.90625 
L 32.078125 72.90625 
Q 44.578125 72.90625 50.734375 67.671875 
Q 56.890625 62.453125 56.890625 51.90625 
Q 56.890625 45.015625 53.6875 40.46875 
Q 50.484375 35.9375 44.390625 34.1875 
z
M 19.671875 64.796875 
L 19.671875 38.921875 
L 32.078125 38.921875 
Q 39.203125 38.921875 42.84375 42.21875 
Q 46.484375 45.515625 46.484375 51.90625 
Q 46.484375 58.296875 42.84375 61.546875 
Q 39.203125 64.796875 32.078125 64.796875 
z
" id="DejaVuSans-82"/>
      <path d="M 56.203125 29.59375 
L 56.203125 25.203125 
L 14.890625 25.203125 
Q 15.484375 15.921875 20.484375 11.0625 
Q 25.484375 6.203125 34.421875 6.203125 
Q 39.59375 6.203125 44.453125 7.46875 
Q 49.3125 8.734375 54.109375 11.28125 
L 54.109375 2.78125 
Q 49.265625 0.734375 44.1875 -0.34375 
Q 39.109375 -1.421875 33.890625 -1.421875 
Q 20.796875 -1.421875 13.15625 6.1875 
Q 5.515625 13.8125 5.515625 26.8125 
Q 5.515625 40.234375 12.765625 48.109375 
Q 20.015625 56 32.328125 56 
Q 43.359375 56 49.78125 48.890625 
Q 56.203125 41.796875 56.203125 29.59375 
z
M 47.21875 32.234375 
Q 47.125 39.59375 43.09375 43.984375 
Q 39.0625 48.390625 32.421875 48.390625 
Q 24.90625 48.390625 20.390625 44.140625 
Q 15.875 39.890625 15.1875 32.171875 
z
" id="DejaVuSans-101"/>
      <path d="M 34.28125 27.484375 
Q 23.390625 27.484375 19.1875 25 
Q 14.984375 22.515625 14.984375 16.5 
Q 14.984375 11.71875 18.140625 8.90625 
Q 21.296875 6.109375 26.703125 6.109375 
Q 34.1875 6.109375 38.703125 11.40625 
Q 43.21875 16.703125 43.21875 25.484375 
L 43.21875 27.484375 
z
M 52.203125 31.203125 
L 52.203125 0 
L 43.21875 0 
L 43.21875 8.296875 
Q 40.140625 3.328125 35.546875 0.953125 
Q 30.953125 -1.421875 24.3125 -1.421875 
Q 15.921875 -1.421875 10.953125 3.296875 
Q 6 8.015625 6 15.921875 
Q 6 25.140625 12.171875 29.828125 
Q 18.359375 34.515625 30.609375 34.515625 
L 43.21875 34.515625 
L 43.21875 35.40625 
Q 43.21875 41.609375 39.140625 45 
Q 35.0625 48.390625 27.6875 48.390625 
Q 23 48.390625 18.546875 47.265625 
Q 14.109375 46.140625 10.015625 43.890625 
L 10.015625 52.203125 
Q 14.9375 54.109375 19.578125 55.046875 
Q 24.21875 56 28.609375 56 
Q 40.484375 56 46.34375 49.84375 
Q 52.203125 43.703125 52.203125 31.203125 
z
" id="DejaVuSans-97"/>
      <path d="M 45.40625 46.390625 
L 45.40625 75.984375 
L 54.390625 75.984375 
L 54.390625 0 
L 45.40625 0 
L 45.40625 8.203125 
Q 42.578125 3.328125 38.25 0.953125 
Q 33.9375 -1.421875 27.875 -1.421875 
Q 17.96875 -1.421875 11.734375 6.484375 
Q 5.515625 14.40625 5.515625 27.296875 
Q 5.515625 40.1875 11.734375 48.09375 
Q 17.96875 56 27.875 56 
Q 33.9375 56 38.25 53.625 
Q 42.578125 51.265625 45.40625 46.390625 
z
M 14.796875 27.296875 
Q 14.796875 17.390625 18.875 11.75 
Q 22.953125 6.109375 30.078125 6.109375 
Q 37.203125 6.109375 41.296875 11.75 
Q 45.40625 17.390625 45.40625 27.296875 
Q 45.40625 37.203125 41.296875 42.84375 
Q 37.203125 48.484375 30.078125 48.484375 
Q 22.953125 48.484375 18.875 42.84375 
Q 14.796875 37.203125 14.796875 27.296875 
z
" id="DejaVuSans-100"/>
      <path d="M 44.28125 53.078125 
L 44.28125 44.578125 
Q 40.484375 46.53125 36.375 47.5 
Q 32.28125 48.484375 27.875 48.484375 
Q 21.1875 48.484375 17.84375 46.4375 
Q 14.5 44.390625 14.5 40.28125 
Q 14.5 37.15625 16.890625 35.375 
Q 19.28125 33.59375 26.515625 31.984375 
L 29.59375 31.296875 
Q 39.15625 29.25 43.1875 25.515625 
Q 47.21875 21.78125 47.21875 15.09375 
Q 47.21875 7.46875 41.1875 3.015625 
Q 35.15625 -1.421875 24.609375 -1.421875 
Q 20.21875 -1.421875 15.453125 -0.5625 
Q 10.6875 0.296875 5.421875 2 
L 5.421875 11.28125 
Q 10.40625 8.6875 15.234375 7.390625 
Q 20.0625 6.109375 24.8125 6.109375 
Q 31.15625 6.109375 34.5625 8.28125 
Q 37.984375 10.453125 37.984375 14.40625 
Q 37.984375 18.0625 35.515625 20.015625 
Q 33.0625 21.96875 24.703125 23.78125 
L 21.578125 24.515625 
Q 13.234375 26.265625 9.515625 29.90625 
Q 5.8125 33.546875 5.8125 39.890625 
Q 5.8125 47.609375 11.28125 51.796875 
Q 16.75 56 26.8125 56 
Q 31.78125 56 36.171875 55.265625 
Q 40.578125 54.546875 44.28125 53.078125 
z
" id="DejaVuSans-115"/>
     </defs>
     <g transform="translate(402.646719 1459.197459)scale(0.1 -0.1)">
      <use xlink:href="#DejaVuSans-35"/>
      <use x="83.789062" xlink:href="#DejaVuSans-32"/>
      <use x="115.576172" xlink:href="#DejaVuSans-82"/>
      <use x="184.996094" xlink:href="#DejaVuSans-101"/>
      <use x="246.519531" xlink:href="#DejaVuSans-97"/>
      <use x="307.798828" xlink:href="#DejaVuSans-100"/>
      <use x="371.275391" xlink:href="#DejaVuSans-115"/>
     </g>
    </g>
   </g>
   <g id="matplotlib.axis_2">
    <g id="ytick_1">
     <g id="text_8">
      <!-- BC1 -->
      <defs>
       <path d="M 19.671875 34.8125 
L 19.671875 8.109375 
L 35.5 8.109375 
Q 43.453125 8.109375 47.28125 11.40625 
Q 51.125 14.703125 51.125 21.484375 
Q 51.125 28.328125 47.28125 31.5625 
Q 43.453125 34.8125 35.5 34.8125 
z
M 19.671875 64.796875 
L 19.671875 42.828125 
L 34.28125 42.828125 
Q 41.5 42.828125 45.03125 45.53125 
Q 48.578125 48.25 48.578125 53.8125 
Q 48.578125 59.328125 45.03125 62.0625 
Q 41.5 64.796875 34.28125 64.796875 
z
M 9.8125 72.90625 
L 35.015625 72.90625 
Q 46.296875 72.90625 52.390625 68.21875 
Q 58.5 63.53125 58.5 54.890625 
Q 58.5 48.1875 55.375 44.234375 
Q 52.25 40.28125 46.1875 39.3125 
Q 53.46875 37.75 57.5 32.78125 
Q 61.53125 27.828125 61.53125 20.40625 
Q 61.53125 10.640625 54.890625 5.3125 
Q 48.25 0 35.984375 0 
L 9.8125 0 
z
" id="DejaVuSans-66"/>
       <path d="M 64.40625 67.28125 
L 64.40625 56.890625 
Q 59.421875 61.53125 53.78125 63.8125 
Q 48.140625 66.109375 41.796875 66.109375 
Q 29.296875 66.109375 22.65625 58.46875 
Q 16.015625 50.828125 16.015625 36.375 
Q 16.015625 21.96875 22.65625 14.328125 
Q 29.296875 6.6875 41.796875 6.6875 
Q 48.140625 6.6875 53.78125 8.984375 
Q 59.421875 11.28125 64.40625 15.921875 
L 64.40625 5.609375 
Q 59.234375 2.09375 53.4375 0.328125 
Q 47.65625 -1.421875 41.21875 -1.421875 
Q 24.65625 -1.421875 15.125 8.703125 
Q 5.609375 18.84375 5.609375 36.375 
Q 5.609375 53.953125 15.125 64.078125 
Q 24.65625 74.21875 41.21875 74.21875 
Q 47.75 74.21875 53.53125 72.484375 
Q 59.328125 70.75 64.40625 67.28125 
z
" id="DejaVuSans-67"/>
      </defs>
      <g transform="translate(10.0525 25.791549)scale(0.08 -0.08)">
       <use xlink:href="#DejaVuSans-66"/>
       <use x="68.587891" xlink:href="#DejaVuSans-67"/>
       <use x="138.412109" xlink:href="#DejaVuSans-49"/>
      </g>
     </g>
    </g>
    <g id="ytick_2">
     <g id="text_9">
      <!-- BC2 -->
      <g transform="translate(10.0525 49.895897)scale(0.08 -0.08)">
       <use xlink:href="#DejaVuSans-66"/>
       <use x="68.587891" xlink:href="#DejaVuSans-67"/>
       <use x="138.412109" xlink:href="#DejaVuSans-50"/>
      </g>
     </g>
    </g>
    <g id="ytick_3">
     <g id="text_10">
      <!-- BC3 -->
      <defs>
       <path d="M 40.578125 39.3125 
Q 47.65625 37.796875 51.625 33 
Q 55.609375 28.21875 55.609375 21.1875 
Q 55.609375 10.40625 48.1875 4.484375 
Q 40.765625 -1.421875 27.09375 -1.421875 
Q 22.515625 -1.421875 17.65625 -0.515625 
Q 12.796875 0.390625 7.625 2.203125 
L 7.625 11.71875 
Q 11.71875 9.328125 16.59375 8.109375 
Q 21.484375 6.890625 26.8125 6.890625 
Q 36.078125 6.890625 40.9375 10.546875 
Q 45.796875 14.203125 45.796875 21.1875 
Q 45.796875 27.640625 41.28125 31.265625 
Q 36.765625 34.90625 28.71875 34.90625 
L 20.21875 34.90625 
L 20.21875 43.015625 
L 29.109375 43.015625 
Q 36.375 43.015625 40.234375 45.921875 
Q 44.09375 48.828125 44.09375 54.296875 
Q 44.09375 59.90625 40.109375 62.90625 
Q 36.140625 65.921875 28.71875 65.921875 
Q 24.65625 65.921875 20.015625 65.03125 
Q 15.375 64.15625 9.8125 62.3125 
L 9.8125 71.09375 
Q 15.4375 72.65625 20.34375 73.4375 
Q 25.25 74.21875 29.59375 74.21875 
Q 40.828125 74.21875 47.359375 69.109375 
Q 53.90625 64.015625 53.90625 55.328125 
Q 53.90625 49.265625 50.4375 45.09375 
Q 46.96875 40.921875 40.578125 39.3125 
z
" id="DejaVuSans-51"/>
      </defs>
      <g transform="translate(10.0525 74.000245)scale(0.08 -0.08)">
       <use xlink:href="#DejaVuSans-66"/>
       <use x="68.587891" xlink:href="#DejaVuSans-67"/>
       <use x="138.412109" xlink:href="#DejaVuSans-51"/>
      </g>
     </g>
    </g>
    <g id="ytick_4">
     <g id="text_11">
      <!-- BC4 -->
      <g transform="translate(10.0525 98.104592)scale(0.08 -0.08)">
       <use xlink:href="#DejaVuSans-66"/>
       <use x="68.587891" xlink:href="#DejaVuSans-67"/>
       <use x="138.412109" xlink:href="#DejaVuSans-52"/>
      </g>
     </g>
    </g>
    <g id="ytick_5">
     <g id="text_12">
      <!-- BC5 -->
      <defs>
       <path d="M 10.796875 72.90625 
L 49.515625 72.90625 
L 49.515625 64.59375 
L 19.828125 64.59375 
L 19.828125 46.734375 
Q 21.96875 47.46875 24.109375 47.828125 
Q 26.265625 48.1875 28.421875 48.1875 
Q 40.625 48.1875 47.75 41.5 
Q 54.890625 34.8125 54.890625 23.390625 
Q 54.890625 11.625 47.5625 5.09375 
Q 40.234375 -1.421875 26.90625 -1.421875 
Q 22.3125 -1.421875 17.546875 -0.640625 
Q 12.796875 0.140625 7.71875 1.703125 
L 7.71875 11.625 
Q 12.109375 9.234375 16.796875 8.0625 
Q 21.484375 6.890625 26.703125 6.890625 
Q 35.15625 6.890625 40.078125 11.328125 
Q 45.015625 15.765625 45.015625 23.390625 
Q 45.015625 31 40.078125 35.4375 
Q 35.15625 39.890625 26.703125 39.890625 
Q 22.75 39.890625 18.8125 39.015625 
Q 14.890625 38.140625 10.796875 36.28125 
z
" id="DejaVuSans-53"/>
      </defs>
      <g transform="translate(10.0525 122.20894)scale(0.08 -0.08)">
       <use xlink:href="#DejaVuSans-66"/>
       <use x="68.587891" xlink:href="#DejaVuSans-67"/>
       <use x="138.412109" xlink:href="#DejaVuSans-53"/>
      </g>
     </g>
    </g>
    <g id="ytick_6">
     <g id="text_13">
      <!-- BH1 -->
      <defs>
       <path d="M 9.8125 72.90625 
L 19.671875 72.90625 
L 19.671875 43.015625 
L 55.515625 43.015625 
L 55.515625 72.90625 
L 65.375 72.90625 
L 65.375 0 
L 55.515625 0 
L 55.515625 34.71875 
L 19.671875 34.71875 
L 19.671875 0 
L 9.8125 0 
z
" id="DejaVuSans-72"/>
      </defs>
      <g transform="translate(9.62125 146.313288)scale(0.08 -0.08)">
       <use xlink:href="#DejaVuSans-66"/>
       <use x="68.603516" xlink:href="#DejaVuSans-72"/>
       <use x="143.798828" xlink:href="#DejaVuSans-49"/>
      </g>
     </g>
    </g>
    <g id="ytick_7">
     <g id="text_14">
      <!-- BH2 -->
      <g transform="translate(9.62125 170.417636)scale(0.08 -0.08)">
       <use xlink:href="#DejaVuSans-66"/>
       <use x="68.603516" xlink:href="#DejaVuSans-72"/>
       <use x="143.798828" xlink:href="#DejaVuSans-50"/>
      </g>
     </g>
    </g>
    <g id="ytick_8">
     <g id="text_15">
      <!-- BH3 -->
      <g transform="translate(9.62125 194.521984)scale(0.08 -0.08)">
       <use xlink:href="#DejaVuSans-66"/>
       <use x="68.603516" xlink:href="#DejaVuSans-72"/>
       <use x="143.798828" xlink:href="#DejaVuSans-51"/>
      </g>
     </g>
    </g>
    <g id="ytick_9">
     <g id="text_16">
      <!-- BH4 -->
      <g transform="translate(9.62125 218.626332)scale(0.08 -0.08)">
       <use xlink:href="#DejaVuSans-66"/>
       <use x="68.603516" xlink:href="#DejaVuSans-72"/>
       <use x="143.798828" xlink:href="#DejaVuSans-52"/>
      </g>
     </g>
    </g>
    <g id="ytick_10">
     <g id="text_17">
      <!-- BH5 -->
      <g transform="translate(9.62125 242.730679)scale(0.08 -0.08)">
       <use xlink:href="#DejaVuSans-66"/>
       <use x="68.603516" xlink:href="#DejaVuSans-72"/>
       <use x="143.798828" xlink:href="#DejaVuSans-53"/>
      </g>
     </g>
    </g>
    <g id="ytick_11">
     <g id="text_18">
      <!-- BN1 -->
      <defs>
       <path d="M 9.8125 72.90625 
L 23.09375 72.90625 
L 55.421875 11.921875 
L 55.421875 72.90625 
L 64.984375 72.90625 
L 64.984375 0 
L 51.703125 0 
L 19.390625 60.984375 
L 19.390625 0 
L 9.8125 0 
z
" id="DejaVuSans-78"/>
      </defs>
      <g transform="translate(9.6525 266.835027)scale(0.08 -0.08)">
       <use xlink:href="#DejaVuSans-66"/>
       <use x="68.603516" xlink:href="#DejaVuSans-78"/>
       <use x="143.408203" xlink:href="#DejaVuSans-49"/>
      </g>
     </g>
    </g>
    <g id="ytick_12">
     <g id="text_19">
      <!-- BN2 -->
      <g transform="translate(9.6525 290.939375)scale(0.08 -0.08)">
       <use xlink:href="#DejaVuSans-66"/>
       <use x="68.603516" xlink:href="#DejaVuSans-78"/>
       <use x="143.408203" xlink:href="#DejaVuSans-50"/>
      </g>
     </g>
    </g>
    <g id="ytick_13">
     <g id="text_20">
      <!-- BN3 -->
      <g transform="translate(9.6525 315.043723)scale(0.08 -0.08)">
       <use xlink:href="#DejaVuSans-66"/>
       <use x="68.603516" xlink:href="#DejaVuSans-78"/>
       <use x="143.408203" xlink:href="#DejaVuSans-51"/>
      </g>
     </g>
    </g>
    <g id="ytick_14">
     <g id="text_21">
      <!-- BN5 -->
      <g transform="translate(9.6525 339.148071)scale(0.08 -0.08)">
       <use xlink:href="#DejaVuSans-66"/>
       <use x="68.603516" xlink:href="#DejaVuSans-78"/>
       <use x="143.408203" xlink:href="#DejaVuSans-53"/>
      </g>
     </g>
    </g>
    <g id="ytick_15">
     <g id="text_22">
      <!-- MC1 -->
      <defs>
       <path d="M 9.8125 72.90625 
L 24.515625 72.90625 
L 43.109375 23.296875 
L 61.8125 72.90625 
L 76.515625 72.90625 
L 76.515625 0 
L 66.890625 0 
L 66.890625 64.015625 
L 48.09375 14.015625 
L 38.1875 14.015625 
L 19.390625 64.015625 
L 19.390625 0 
L 9.8125 0 
z
" id="DejaVuSans-77"/>
      </defs>
      <g transform="translate(8.6375 363.252418)scale(0.08 -0.08)">
       <use xlink:href="#DejaVuSans-77"/>
       <use x="86.279297" xlink:href="#DejaVuSans-67"/>
       <use x="156.103516" xlink:href="#DejaVuSans-49"/>
      </g>
     </g>
    </g>
    <g id="ytick_16">
     <g id="text_23">
      <!-- MC2 -->
      <g transform="translate(8.6375 387.356766)scale(0.08 -0.08)">
       <use xlink:href="#DejaVuSans-77"/>
       <use x="86.279297" xlink:href="#DejaVuSans-67"/>
       <use x="156.103516" xlink:href="#DejaVuSans-50"/>
      </g>
     </g>
    </g>
    <g id="ytick_17">
     <g id="text_24">
      <!-- MC3 -->
      <g transform="translate(8.6375 411.461114)scale(0.08 -0.08)">
       <use xlink:href="#DejaVuSans-77"/>
       <use x="86.279297" xlink:href="#DejaVuSans-67"/>
       <use x="156.103516" xlink:href="#DejaVuSans-51"/>
      </g>
     </g>
    </g>
    <g id="ytick_18">
     <g id="text_25">
      <!-- MC4 -->
      <g transform="translate(8.6375 435.565462)scale(0.08 -0.08)">
       <use xlink:href="#DejaVuSans-77"/>
       <use x="86.279297" xlink:href="#DejaVuSans-67"/>
       <use x="156.103516" xlink:href="#DejaVuSans-52"/>
      </g>
     </g>
    </g>
    <g id="ytick_19">
     <g id="text_26">
      <!-- MC5 -->
      <g transform="translate(8.6375 459.66981)scale(0.08 -0.08)">
       <use xlink:href="#DejaVuSans-77"/>
       <use x="86.279297" xlink:href="#DejaVuSans-67"/>
       <use x="156.103516" xlink:href="#DejaVuSans-53"/>
      </g>
     </g>
    </g>
    <g id="ytick_20">
     <g id="text_27">
      <!-- MH1 -->
      <g transform="translate(8.2075 483.774158)scale(0.08 -0.08)">
       <use xlink:href="#DejaVuSans-77"/>
       <use x="86.279297" xlink:href="#DejaVuSans-72"/>
       <use x="161.474609" xlink:href="#DejaVuSans-49"/>
      </g>
     </g>
    </g>
    <g id="ytick_21">
     <g id="text_28">
      <!-- MH2 -->
      <g transform="translate(8.2075 507.878505)scale(0.08 -0.08)">
       <use xlink:href="#DejaVuSans-77"/>
       <use x="86.279297" xlink:href="#DejaVuSans-72"/>
       <use x="161.474609" xlink:href="#DejaVuSans-50"/>
      </g>
     </g>
    </g>
    <g id="ytick_22">
     <g id="text_29">
      <!-- MH3 -->
      <g transform="translate(8.2075 531.982853)scale(0.08 -0.08)">
       <use xlink:href="#DejaVuSans-77"/>
       <use x="86.279297" xlink:href="#DejaVuSans-72"/>
       <use x="161.474609" xlink:href="#DejaVuSans-51"/>
      </g>
     </g>
    </g>
    <g id="ytick_23">
     <g id="text_30">
      <!-- MH4 -->
      <g transform="translate(8.2075 556.087201)scale(0.08 -0.08)">
       <use xlink:href="#DejaVuSans-77"/>
       <use x="86.279297" xlink:href="#DejaVuSans-72"/>
       <use x="161.474609" xlink:href="#DejaVuSans-52"/>
      </g>
     </g>
    </g>
    <g id="ytick_24">
     <g id="text_31">
      <!-- MH5 -->
      <g transform="translate(8.2075 580.191549)scale(0.08 -0.08)">
       <use xlink:href="#DejaVuSans-77"/>
       <use x="86.279297" xlink:href="#DejaVuSans-72"/>
       <use x="161.474609" xlink:href="#DejaVuSans-53"/>
      </g>
     </g>
    </g>
    <g id="ytick_25">
     <g id="text_32">
      <!-- MN1 -->
      <g transform="translate(8.23875 604.295897)scale(0.08 -0.08)">
       <use xlink:href="#DejaVuSans-77"/>
       <use x="86.279297" xlink:href="#DejaVuSans-78"/>
       <use x="161.083984" xlink:href="#DejaVuSans-49"/>
      </g>
     </g>
    </g>
    <g id="ytick_26">
     <g id="text_33">
      <!-- MN2 -->
      <g transform="translate(8.23875 628.400245)scale(0.08 -0.08)">
       <use xlink:href="#DejaVuSans-77"/>
       <use x="86.279297" xlink:href="#DejaVuSans-78"/>
       <use x="161.083984" xlink:href="#DejaVuSans-50"/>
      </g>
     </g>
    </g>
    <g id="ytick_27">
     <g id="text_34">
      <!-- MN3 -->
      <g transform="translate(8.23875 652.504592)scale(0.08 -0.08)">
       <use xlink:href="#DejaVuSans-77"/>
       <use x="86.279297" xlink:href="#DejaVuSans-78"/>
       <use x="161.083984" xlink:href="#DejaVuSans-51"/>
      </g>
     </g>
    </g>
    <g id="ytick_28">
     <g id="text_35">
      <!-- MN4 -->
      <g transform="translate(8.23875 676.60894)scale(0.08 -0.08)">
       <use xlink:href="#DejaVuSans-77"/>
       <use x="86.279297" xlink:href="#DejaVuSans-78"/>
       <use x="161.083984" xlink:href="#DejaVuSans-52"/>
      </g>
     </g>
    </g>
    <g id="ytick_29">
     <g id="text_36">
      <!-- MN5 -->
      <g transform="translate(8.23875 700.713288)scale(0.08 -0.08)">
       <use xlink:href="#DejaVuSans-77"/>
       <use x="86.279297" xlink:href="#DejaVuSans-78"/>
       <use x="161.083984" xlink:href="#DejaVuSans-53"/>
      </g>
     </g>
    </g>
    <g id="ytick_30">
     <g id="text_37">
      <!-- OC1 -->
      <defs>
       <path d="M 39.40625 66.21875 
Q 28.65625 66.21875 22.328125 58.203125 
Q 16.015625 50.203125 16.015625 36.375 
Q 16.015625 22.609375 22.328125 14.59375 
Q 28.65625 6.59375 39.40625 6.59375 
Q 50.140625 6.59375 56.421875 14.59375 
Q 62.703125 22.609375 62.703125 36.375 
Q 62.703125 50.203125 56.421875 58.203125 
Q 50.140625 66.21875 39.40625 66.21875 
z
M 39.40625 74.21875 
Q 54.734375 74.21875 63.90625 63.9375 
Q 73.09375 53.65625 73.09375 36.375 
Q 73.09375 19.140625 63.90625 8.859375 
Q 54.734375 -1.421875 39.40625 -1.421875 
Q 24.03125 -1.421875 14.8125 8.828125 
Q 5.609375 19.09375 5.609375 36.375 
Q 5.609375 53.65625 14.8125 63.9375 
Q 24.03125 74.21875 39.40625 74.21875 
z
" id="DejaVuSans-79"/>
      </defs>
      <g transform="translate(9.2425 724.817636)scale(0.08 -0.08)">
       <use xlink:href="#DejaVuSans-79"/>
       <use x="78.710938" xlink:href="#DejaVuSans-67"/>
       <use x="148.535156" xlink:href="#DejaVuSans-49"/>
      </g>
     </g>
    </g>
    <g id="ytick_31">
     <g id="text_38">
      <!-- OC2 -->
      <g transform="translate(9.2425 748.921984)scale(0.08 -0.08)">
       <use xlink:href="#DejaVuSans-79"/>
       <use x="78.710938" xlink:href="#DejaVuSans-67"/>
       <use x="148.535156" xlink:href="#DejaVuSans-50"/>
      </g>
     </g>
    </g>
    <g id="ytick_32">
     <g id="text_39">
      <!-- OC3 -->
      <g transform="translate(9.2425 773.026332)scale(0.08 -0.08)">
       <use xlink:href="#DejaVuSans-79"/>
       <use x="78.710938" xlink:href="#DejaVuSans-67"/>
       <use x="148.535156" xlink:href="#DejaVuSans-51"/>
      </g>
     </g>
    </g>
    <g id="ytick_33">
     <g id="text_40">
      <!-- OC4 -->
      <g transform="translate(9.2425 797.130679)scale(0.08 -0.08)">
       <use xlink:href="#DejaVuSans-79"/>
       <use x="78.710938" xlink:href="#DejaVuSans-67"/>
       <use x="148.535156" xlink:href="#DejaVuSans-52"/>
      </g>
     </g>
    </g>
    <g id="ytick_34">
     <g id="text_41">
      <!-- OC5 -->
      <g transform="translate(9.2425 821.235027)scale(0.08 -0.08)">
       <use xlink:href="#DejaVuSans-79"/>
       <use x="78.710938" xlink:href="#DejaVuSans-67"/>
       <use x="148.535156" xlink:href="#DejaVuSans-53"/>
      </g>
     </g>
    </g>
    <g id="ytick_35">
     <g id="text_42">
      <!-- OH1 -->
      <g transform="translate(8.8125 845.339375)scale(0.08 -0.08)">
       <use xlink:href="#DejaVuSans-79"/>
       <use x="78.710938" xlink:href="#DejaVuSans-72"/>
       <use x="153.90625" xlink:href="#DejaVuSans-49"/>
      </g>
     </g>
    </g>
    <g id="ytick_36">
     <g id="text_43">
      <!-- OH2 -->
      <g transform="translate(8.8125 869.443723)scale(0.08 -0.08)">
       <use xlink:href="#DejaVuSans-79"/>
       <use x="78.710938" xlink:href="#DejaVuSans-72"/>
       <use x="153.90625" xlink:href="#DejaVuSans-50"/>
      </g>
     </g>
    </g>
    <g id="ytick_37">
     <g id="text_44">
      <!-- OH3 -->
      <g transform="translate(8.8125 893.548071)scale(0.08 -0.08)">
       <use xlink:href="#DejaVuSans-79"/>
       <use x="78.710938" xlink:href="#DejaVuSans-72"/>
       <use x="153.90625" xlink:href="#DejaVuSans-51"/>
      </g>
     </g>
    </g>
    <g id="ytick_38">
     <g id="text_45">
      <!-- OH4 -->
      <g transform="translate(8.8125 917.652418)scale(0.08 -0.08)">
       <use xlink:href="#DejaVuSans-79"/>
       <use x="78.710938" xlink:href="#DejaVuSans-72"/>
       <use x="153.90625" xlink:href="#DejaVuSans-52"/>
      </g>
     </g>
    </g>
    <g id="ytick_39">
     <g id="text_46">
      <!-- OH5 -->
      <g transform="translate(8.8125 941.756766)scale(0.08 -0.08)">
       <use xlink:href="#DejaVuSans-79"/>
       <use x="78.710938" xlink:href="#DejaVuSans-72"/>
       <use x="153.90625" xlink:href="#DejaVuSans-53"/>
      </g>
     </g>
    </g>
    <g id="ytick_40">
     <g id="text_47">
      <!-- ON1 -->
      <g transform="translate(8.84375 965.861114)scale(0.08 -0.08)">
       <use xlink:href="#DejaVuSans-79"/>
       <use x="78.710938" xlink:href="#DejaVuSans-78"/>
       <use x="153.515625" xlink:href="#DejaVuSans-49"/>
      </g>
     </g>
    </g>
    <g id="ytick_41">
     <g id="text_48">
      <!-- ON2 -->
      <g transform="translate(8.84375 989.965462)scale(0.08 -0.08)">
       <use xlink:href="#DejaVuSans-79"/>
       <use x="78.710938" xlink:href="#DejaVuSans-78"/>
       <use x="153.515625" xlink:href="#DejaVuSans-50"/>
      </g>
     </g>
    </g>
    <g id="ytick_42">
     <g id="text_49">
      <!-- ON3 -->
      <g transform="translate(8.84375 1014.06981)scale(0.08 -0.08)">
       <use xlink:href="#DejaVuSans-79"/>
       <use x="78.710938" xlink:href="#DejaVuSans-78"/>
       <use x="153.515625" xlink:href="#DejaVuSans-51"/>
      </g>
     </g>
    </g>
    <g id="ytick_43">
     <g id="text_50">
      <!-- ON4 -->
      <g transform="translate(8.84375 1038.174158)scale(0.08 -0.08)">
       <use xlink:href="#DejaVuSans-79"/>
       <use x="78.710938" xlink:href="#DejaVuSans-78"/>
       <use x="153.515625" xlink:href="#DejaVuSans-52"/>
      </g>
     </g>
    </g>
    <g id="ytick_44">
     <g id="text_51">
      <!-- ON5 -->
      <g transform="translate(8.84375 1062.278505)scale(0.08 -0.08)">
       <use xlink:href="#DejaVuSans-79"/>
       <use x="78.710938" xlink:href="#DejaVuSans-78"/>
       <use x="153.515625" xlink:href="#DejaVuSans-53"/>
      </g>
     </g>
    </g>
    <g id="ytick_45">
     <g id="text_52">
      <!-- WC1 -->
      <defs>
       <path d="M 3.328125 72.90625 
L 13.28125 72.90625 
L 28.609375 11.28125 
L 43.890625 72.90625 
L 54.984375 72.90625 
L 70.3125 11.28125 
L 85.59375 72.90625 
L 95.609375 72.90625 
L 77.296875 0 
L 64.890625 0 
L 49.515625 63.28125 
L 33.984375 0 
L 21.578125 0 
z
" id="DejaVuSans-87"/>
      </defs>
      <g transform="translate(7.63 1086.382853)scale(0.08 -0.08)">
       <use xlink:href="#DejaVuSans-87"/>
       <use x="98.876953" xlink:href="#DejaVuSans-67"/>
       <use x="168.701172" xlink:href="#DejaVuSans-49"/>
      </g>
     </g>
    </g>
    <g id="ytick_46">
     <g id="text_53">
      <!-- WC2 -->
      <g transform="translate(7.63 1110.487201)scale(0.08 -0.08)">
       <use xlink:href="#DejaVuSans-87"/>
       <use x="98.876953" xlink:href="#DejaVuSans-67"/>
       <use x="168.701172" xlink:href="#DejaVuSans-50"/>
      </g>
     </g>
    </g>
    <g id="ytick_47">
     <g id="text_54">
      <!-- WC3 -->
      <g transform="translate(7.63 1134.591549)scale(0.08 -0.08)">
       <use xlink:href="#DejaVuSans-87"/>
       <use x="98.876953" xlink:href="#DejaVuSans-67"/>
       <use x="168.701172" xlink:href="#DejaVuSans-51"/>
      </g>
     </g>
    </g>
    <g id="ytick_48">
     <g id="text_55">
      <!-- WC4 -->
      <g transform="translate(7.63 1158.695897)scale(0.08 -0.08)">
       <use xlink:href="#DejaVuSans-87"/>
       <use x="98.876953" xlink:href="#DejaVuSans-67"/>
       <use x="168.701172" xlink:href="#DejaVuSans-52"/>
      </g>
     </g>
    </g>
    <g id="ytick_49">
     <g id="text_56">
      <!-- WC5 -->
      <g transform="translate(7.63 1182.800245)scale(0.08 -0.08)">
       <use xlink:href="#DejaVuSans-87"/>
       <use x="98.876953" xlink:href="#DejaVuSans-67"/>
       <use x="168.701172" xlink:href="#DejaVuSans-53"/>
      </g>
     </g>
    </g>
    <g id="ytick_50">
     <g id="text_57">
      <!-- WH1 -->
      <g transform="translate(7.2 1206.904592)scale(0.08 -0.08)">
       <use xlink:href="#DejaVuSans-87"/>
       <use x="98.876953" xlink:href="#DejaVuSans-72"/>
       <use x="174.072266" xlink:href="#DejaVuSans-49"/>
      </g>
     </g>
    </g>
    <g id="ytick_51">
     <g id="text_58">
      <!-- WH2 -->
      <g transform="translate(7.2 1231.00894)scale(0.08 -0.08)">
       <use xlink:href="#DejaVuSans-87"/>
       <use x="98.876953" xlink:href="#DejaVuSans-72"/>
       <use x="174.072266" xlink:href="#DejaVuSans-50"/>
      </g>
     </g>
    </g>
    <g id="ytick_52">
     <g id="text_59">
      <!-- WH3 -->
      <g transform="translate(7.2 1255.113288)scale(0.08 -0.08)">
       <use xlink:href="#DejaVuSans-87"/>
       <use x="98.876953" xlink:href="#DejaVuSans-72"/>
       <use x="174.072266" xlink:href="#DejaVuSans-51"/>
      </g>
     </g>
    </g>
    <g id="ytick_53">
     <g id="text_60">
      <!-- WH4 -->
      <g transform="translate(7.2 1279.217636)scale(0.08 -0.08)">
       <use xlink:href="#DejaVuSans-87"/>
       <use x="98.876953" xlink:href="#DejaVuSans-72"/>
       <use x="174.072266" xlink:href="#DejaVuSans-52"/>
      </g>
     </g>
    </g>
    <g id="ytick_54">
     <g id="text_61">
      <!-- WH5 -->
      <g transform="translate(7.2 1303.321984)scale(0.08 -0.08)">
       <use xlink:href="#DejaVuSans-87"/>
       <use x="98.876953" xlink:href="#DejaVuSans-72"/>
       <use x="174.072266" xlink:href="#DejaVuSans-53"/>
      </g>
     </g>
    </g>
    <g id="ytick_55">
     <g id="text_62">
      <!-- WN1 -->
      <g transform="translate(7.23125 1327.426332)scale(0.08 -0.08)">
       <use xlink:href="#DejaVuSans-87"/>
       <use x="98.876953" xlink:href="#DejaVuSans-78"/>
       <use x="173.681641" xlink:href="#DejaVuSans-49"/>
      </g>
     </g>
    </g>
    <g id="ytick_56">
     <g id="text_63">
      <!-- WN2 -->
      <g transform="translate(7.23125 1351.530679)scale(0.08 -0.08)">
       <use xlink:href="#DejaVuSans-87"/>
       <use x="98.876953" xlink:href="#DejaVuSans-78"/>
       <use x="173.681641" xlink:href="#DejaVuSans-50"/>
      </g>
     </g>
    </g>
    <g id="ytick_57">
     <g id="text_64">
      <!-- WN3 -->
      <g transform="translate(7.23125 1375.635027)scale(0.08 -0.08)">
       <use xlink:href="#DejaVuSans-87"/>
       <use x="98.876953" xlink:href="#DejaVuSans-78"/>
       <use x="173.681641" xlink:href="#DejaVuSans-51"/>
      </g>
     </g>
    </g>
    <g id="ytick_58">
     <g id="text_65">
      <!-- WN4 -->
      <g transform="translate(7.23125 1399.739375)scale(0.08 -0.08)">
       <use xlink:href="#DejaVuSans-87"/>
       <use x="98.876953" xlink:href="#DejaVuSans-78"/>
       <use x="173.681641" xlink:href="#DejaVuSans-52"/>
      </g>
     </g>
    </g>
    <g id="ytick_59">
     <g id="text_66">
      <!-- WN5 -->
      <g transform="translate(7.23125 1423.843723)scale(0.08 -0.08)">
       <use xlink:href="#DejaVuSans-87"/>
       <use x="98.876953" xlink:href="#DejaVuSans-78"/>
       <use x="173.681641" xlink:href="#DejaVuSans-53"/>
      </g>
     </g>
    </g>
   </g>
   <g id="patch_3">
    <path clip-path="url(#p30828a5c2d)" d="M 33.21625 13.110435 
L 714.975618 13.110435 
L 714.975618 32.393913 
L 33.21625 32.393913 
z
" style="fill:#20568f;"/>
   </g>
   <g id="patch_4">
    <path clip-path="url(#p30828a5c2d)" d="M 33.21625 37.214783 
L 655.629181 37.214783 
L 655.629181 56.498261 
L 33.21625 56.498261 
z
" style="fill:#20568f;"/>
   </g>
   <g id="patch_5">
    <path clip-path="url(#p30828a5c2d)" d="M 33.21625 61.31913 
L 600.498389 61.31913 
L 600.498389 80.602609 
L 33.21625 80.602609 
z
" style="fill:#20568f;"/>
   </g>
   <g id="patch_6">
    <path clip-path="url(#p30828a5c2d)" d="M 33.21625 85.423478 
L 516.393535 85.423478 
L 516.393535 104.706957 
L 33.21625 104.706957 
z
" style="fill:#20568f;"/>
   </g>
   <g id="patch_7">
    <path clip-path="url(#p30828a5c2d)" d="M 33.21625 109.527826 
L 389.299941 109.527826 
L 389.299941 128.811304 
L 33.21625 128.811304 
z
" style="fill:#20568f;"/>
   </g>
   <g id="patch_8">
    <path clip-path="url(#p30828a5c2d)" d="M 33.21625 133.632174 
L 610.277622 133.632174 
L 610.277622 152.915652 
L 33.21625 152.915652 
z
" style="fill:#20568f;"/>
   </g>
   <g id="patch_9">
    <path clip-path="url(#p30828a5c2d)" d="M 33.21625 157.736522 
L 505.752353 157.736522 
L 505.752353 177.02 
L 33.21625 177.02 
z
" style="fill:#20568f;"/>
   </g>
   <g id="patch_10">
    <path clip-path="url(#p30828a5c2d)" d="M 33.21625 181.84087 
L 617.572825 181.84087 
L 617.572825 201.124348 
L 33.21625 201.124348 
z
" style="fill:#20568f;"/>
   </g>
   <g id="patch_11">
    <path clip-path="url(#p30828a5c2d)" d="M 33.21625 205.945217 
L 708.634972 205.945217 
L 708.634972 225.228696 
L 33.21625 225.228696 
z
" style="fill:#20568f;"/>
   </g>
   <g id="patch_12">
    <path clip-path="url(#p30828a5c2d)" d="M 33.21625 230.049565 
L 517.4135 230.049565 
L 517.4135 249.333043 
L 33.21625 249.333043 
z
" style="fill:#20568f;"/>
   </g>
   <g id="patch_13">
    <path clip-path="url(#p30828a5c2d)" d="M 33.21625 254.153913 
L 723.513346 254.153913 
L 723.513346 273.437391 
L 33.21625 273.437391 
z
" style="fill:#20568f;"/>
   </g>
   <g id="patch_14">
    <path clip-path="url(#p30828a5c2d)" d="M 33.21625 278.258261 
L 602.080771 278.258261 
L 602.080771 297.541739 
L 33.21625 297.541739 
z
" style="fill:#20568f;"/>
   </g>
   <g id="patch_15">
    <path clip-path="url(#p30828a5c2d)" d="M 33.21625 302.362609 
L 645.353271 302.362609 
L 645.353271 321.646087 
L 33.21625 321.646087 
z
" style="fill:#20568f;"/>
   </g>
   <g id="patch_16">
    <path clip-path="url(#p30828a5c2d)" d="M 33.21625 326.466957 
L 670.934514 326.466957 
L 670.934514 345.750435 
L 33.21625 345.750435 
z
" style="fill:#20568f;"/>
   </g>
   <g id="patch_17">
    <path clip-path="url(#p30828a5c2d)" d="M 33.21625 350.571304 
L 523.358793 350.571304 
L 523.358793 369.854783 
L 33.21625 369.854783 
z
" style="fill:#20568f;"/>
   </g>
   <g id="patch_18">
    <path clip-path="url(#p30828a5c2d)" d="M 33.21625 374.675652 
L 514.981903 374.675652 
L 514.981903 393.95913 
L 33.21625 393.95913 
z
" style="fill:#20568f;"/>
   </g>
   <g id="patch_19">
    <path clip-path="url(#p30828a5c2d)" d="M 33.21625 398.78 
L 425.576678 398.78 
L 425.576678 418.063478 
L 33.21625 418.063478 
z
" style="fill:#20568f;"/>
   </g>
   <g id="patch_20">
    <path clip-path="url(#p30828a5c2d)" d="M 33.21625 422.884348 
L 477.832721 422.884348 
L 477.832721 442.167826 
L 33.21625 442.167826 
z
" style="fill:#20568f;"/>
   </g>
   <g id="patch_21">
    <path clip-path="url(#p30828a5c2d)" d="M 33.21625 446.988696 
L 521.136789 446.988696 
L 521.136789 466.272174 
L 33.21625 466.272174 
z
" style="fill:#20568f;"/>
   </g>
   <g id="patch_22">
    <path clip-path="url(#p30828a5c2d)" d="M 33.21625 471.093043 
L 535.902058 471.093043 
L 535.902058 490.376522 
L 33.21625 490.376522 
z
" style="fill:#20568f;"/>
   </g>
   <g id="patch_23">
    <path clip-path="url(#p30828a5c2d)" d="M 33.21625 495.197391 
L 574.907163 495.197391 
L 574.907163 514.48087 
L 33.21625 514.48087 
z
" style="fill:#20568f;"/>
   </g>
   <g id="patch_24">
    <path clip-path="url(#p30828a5c2d)" d="M 33.21625 519.301739 
L 629.394142 519.301739 
L 629.394142 538.585217 
L 33.21625 538.585217 
z
" style="fill:#20568f;"/>
   </g>
   <g id="patch_25">
    <path clip-path="url(#p30828a5c2d)" d="M 33.21625 543.406087 
L 670.69752 543.406087 
L 670.69752 562.689565 
L 33.21625 562.689565 
z
" style="fill:#20568f;"/>
   </g>
   <g id="patch_26">
    <path clip-path="url(#p30828a5c2d)" d="M 33.21625 567.510435 
L 712.682058 567.510435 
L 712.682058 586.793913 
L 33.21625 586.793913 
z
" style="fill:#20568f;"/>
   </g>
   <g id="patch_27">
    <path clip-path="url(#p30828a5c2d)" d="M 33.21625 591.614783 
L 613.47554 591.614783 
L 613.47554 610.898261 
L 33.21625 610.898261 
z
" style="fill:#20568f;"/>
   </g>
   <g id="patch_28">
    <path clip-path="url(#p30828a5c2d)" d="M 33.21625 615.71913 
L 563.69731 615.71913 
L 563.69731 635.002609 
L 33.21625 635.002609 
z
" style="fill:#20568f;"/>
   </g>
   <g id="patch_29">
    <path clip-path="url(#p30828a5c2d)" d="M 33.21625 639.823478 
L 625.7087 639.823478 
L 625.7087 659.106957 
L 33.21625 659.106957 
z
" style="fill:#20568f;"/>
   </g>
   <g id="patch_30">
    <path clip-path="url(#p30828a5c2d)" d="M 33.21625 663.927826 
L 713.283611 663.927826 
L 713.283611 683.211304 
L 33.21625 683.211304 
z
" style="fill:#20568f;"/>
   </g>
   <g id="patch_31">
    <path clip-path="url(#p30828a5c2d)" d="M 33.21625 688.032174 
L 531.582287 688.032174 
L 531.582287 707.315652 
L 33.21625 707.315652 
z
" style="fill:#20568f;"/>
   </g>
   <g id="patch_32">
    <path clip-path="url(#p30828a5c2d)" d="M 33.21625 712.136522 
L 457.262353 712.136522 
L 457.262353 731.42 
L 33.21625 731.42 
z
" style="fill:#20568f;"/>
   </g>
   <g id="patch_33">
    <path clip-path="url(#p30828a5c2d)" d="M 33.21625 736.24087 
L 504.976549 736.24087 
L 504.976549 755.524348 
L 33.21625 755.524348 
z
" style="fill:#20568f;"/>
   </g>
   <g id="patch_34">
    <path clip-path="url(#p30828a5c2d)" d="M 33.21625 760.345217 
L 715.94715 760.345217 
L 715.94715 779.628696 
L 33.21625 779.628696 
z
" style="fill:#20568f;"/>
   </g>
   <g id="patch_35">
    <path clip-path="url(#p30828a5c2d)" d="M 33.21625 784.449565 
L 447.396311 784.449565 
L 447.396311 803.733043 
L 33.21625 803.733043 
z
" style="fill:#20568f;"/>
   </g>
   <g id="patch_36">
    <path clip-path="url(#p30828a5c2d)" d="M 33.21625 808.553913 
L 633.812372 808.553913 
L 633.812372 827.837391 
L 33.21625 827.837391 
z
" style="fill:#20568f;"/>
   </g>
   <g id="patch_37">
    <path clip-path="url(#p30828a5c2d)" d="M 33.21625 832.658261 
L 609.434889 832.658261 
L 609.434889 851.941739 
L 33.21625 851.941739 
z
" style="fill:#20568f;"/>
   </g>
   <g id="patch_38">
    <path clip-path="url(#p30828a5c2d)" d="M 33.21625 856.762609 
L 697.801446 856.762609 
L 697.801446 876.046087 
L 33.21625 876.046087 
z
" style="fill:#20568f;"/>
   </g>
   <g id="patch_39">
    <path clip-path="url(#p30828a5c2d)" d="M 33.21625 880.866957 
L 589.12033 880.866957 
L 589.12033 900.150435 
L 33.21625 900.150435 
z
" style="fill:#20568f;"/>
   </g>
   <g id="patch_40">
    <path clip-path="url(#p30828a5c2d)" d="M 33.21625 904.971304 
L 502.614507 904.971304 
L 502.614507 924.254783 
L 33.21625 924.254783 
z
" style="fill:#20568f;"/>
   </g>
   <g id="patch_41">
    <path clip-path="url(#p30828a5c2d)" d="M 33.21625 929.075652 
L 472.754828 929.075652 
L 472.754828 948.35913 
L 33.21625 948.35913 
z
" style="fill:#20568f;"/>
   </g>
   <g id="patch_42">
    <path clip-path="url(#p30828a5c2d)" d="M 33.21625 953.18 
L 493.24996 953.18 
L 493.24996 972.463478 
L 33.21625 972.463478 
z
" style="fill:#20568f;"/>
   </g>
   <g id="patch_43">
    <path clip-path="url(#p30828a5c2d)" d="M 33.21625 977.284348 
L 535.926803 977.284348 
L 535.926803 996.567826 
L 33.21625 996.567826 
z
" style="fill:#20568f;"/>
   </g>
   <g id="patch_44">
    <path clip-path="url(#p30828a5c2d)" d="M 33.21625 1001.388696 
L 465.166321 1001.388696 
L 465.166321 1020.672174 
L 33.21625 1020.672174 
z
" style="fill:#20568f;"/>
   </g>
   <g id="patch_45">
    <path clip-path="url(#p30828a5c2d)" d="M 33.21625 1025.493043 
L 545.201331 1025.493043 
L 545.201331 1044.776522 
L 33.21625 1044.776522 
z
" style="fill:#20568f;"/>
   </g>
   <g id="patch_46">
    <path clip-path="url(#p30828a5c2d)" d="M 33.21625 1049.597391 
L 618.916867 1049.597391 
L 618.916867 1068.88087 
L 33.21625 1068.88087 
z
" style="fill:#20568f;"/>
   </g>
   <g id="patch_47">
    <path clip-path="url(#p30828a5c2d)" d="M 33.21625 1073.701739 
L 512.258379 1073.701739 
L 512.258379 1092.985217 
L 33.21625 1092.985217 
z
" style="fill:#20568f;"/>
   </g>
   <g id="patch_48">
    <path clip-path="url(#p30828a5c2d)" d="M 33.21625 1097.806087 
L 577.21269 1097.806087 
L 577.21269 1117.089565 
L 33.21625 1117.089565 
z
" style="fill:#20568f;"/>
   </g>
   <g id="patch_49">
    <path clip-path="url(#p30828a5c2d)" d="M 33.21625 1121.910435 
L 606.538789 1121.910435 
L 606.538789 1141.193913 
L 33.21625 1141.193913 
z
" style="fill:#20568f;"/>
   </g>
   <g id="patch_50">
    <path clip-path="url(#p30828a5c2d)" d="M 33.21625 1146.014783 
L 678.923175 1146.014783 
L 678.923175 1165.298261 
L 33.21625 1165.298261 
z
" style="fill:#20568f;"/>
   </g>
   <g id="patch_51">
    <path clip-path="url(#p30828a5c2d)" d="M 33.21625 1170.11913 
L 616.838291 1170.11913 
L 616.838291 1189.402609 
L 33.21625 1189.402609 
z
" style="fill:#20568f;"/>
   </g>
   <g id="patch_52">
    <path clip-path="url(#p30828a5c2d)" d="M 33.21625 1194.223478 
L 614.765047 1194.223478 
L 614.765047 1213.506957 
L 33.21625 1213.506957 
z
" style="fill:#20568f;"/>
   </g>
   <g id="patch_53">
    <path clip-path="url(#p30828a5c2d)" d="M 33.21625 1218.327826 
L 626.188132 1218.327826 
L 626.188132 1237.611304 
L 33.21625 1237.611304 
z
" style="fill:#20568f;"/>
   </g>
   <g id="patch_54">
    <path clip-path="url(#p30828a5c2d)" d="M 33.21625 1242.432174 
L 607.732878 1242.432174 
L 607.732878 1261.715652 
L 33.21625 1261.715652 
z
" style="fill:#20568f;"/>
   </g>
   <g id="patch_55">
    <path clip-path="url(#p30828a5c2d)" d="M 33.21625 1266.536522 
L 504.362984 1266.536522 
L 504.362984 1285.82 
L 33.21625 1285.82 
z
" style="fill:#20568f;"/>
   </g>
   <g id="patch_56">
    <path clip-path="url(#p30828a5c2d)" d="M 33.21625 1290.64087 
L 473.912525 1290.64087 
L 473.912525 1309.924348 
L 33.21625 1309.924348 
z
" style="fill:#20568f;"/>
   </g>
   <g id="patch_57">
    <path clip-path="url(#p30828a5c2d)" d="M 33.21625 1314.745217 
L 576.823423 1314.745217 
L 576.823423 1334.028696 
L 33.21625 1334.028696 
z
" style="fill:#20568f;"/>
   </g>
   <g id="patch_58">
    <path clip-path="url(#p30828a5c2d)" d="M 33.21625 1338.849565 
L 629.749454 1338.849565 
L 629.749454 1358.133043 
L 33.21625 1358.133043 
z
" style="fill:#20568f;"/>
   </g>
   <g id="patch_59">
    <path clip-path="url(#p30828a5c2d)" d="M 33.21625 1362.953913 
L 633.217491 1362.953913 
L 633.217491 1382.237391 
L 33.21625 1382.237391 
z
" style="fill:#20568f;"/>
   </g>
   <g id="patch_60">
    <path clip-path="url(#p30828a5c2d)" d="M 33.21625 1387.058261 
L 632.905012 1387.058261 
L 632.905012 1406.341739 
L 33.21625 1406.341739 
z
" style="fill:#20568f;"/>
   </g>
   <g id="patch_61">
    <path clip-path="url(#p30828a5c2d)" d="M 33.21625 1411.162609 
L 602.067398 1411.162609 
L 602.067398 1430.446087 
L 33.21625 1430.446087 
z
" style="fill:#20568f;"/>
   </g>
   <g id="patch_62">
    <path clip-path="url(#p30828a5c2d)" d="M 714.975618 13.110435 
L 785.625997 13.110435 
L 785.625997 32.393913 
L 714.975618 32.393913 
z
" style="fill:#f7a35c;"/>
   </g>
   <g id="patch_63">
    <path clip-path="url(#p30828a5c2d)" d="M 655.629181 37.214783 
L 774.595526 37.214783 
L 774.595526 56.498261 
L 655.629181 56.498261 
z
" style="fill:#f7a35c;"/>
   </g>
   <g id="patch_64">
    <path clip-path="url(#p30828a5c2d)" d="M 600.498389 61.31913 
L 781.098277 61.31913 
L 781.098277 80.602609 
L 600.498389 80.602609 
z
" style="fill:#f7a35c;"/>
   </g>
   <g id="patch_65">
    <path clip-path="url(#p30828a5c2d)" d="M 516.393535 85.423478 
L 771.484597 85.423478 
L 771.484597 104.706957 
L 516.393535 104.706957 
z
" style="fill:#f7a35c;"/>
   </g>
   <g id="patch_66">
    <path clip-path="url(#p30828a5c2d)" d="M 389.299941 109.527826 
L 761.816186 109.527826 
L 761.816186 128.811304 
L 389.299941 128.811304 
z
" style="fill:#f7a35c;"/>
   </g>
   <g id="patch_67">
    <path clip-path="url(#p30828a5c2d)" d="M 610.277622 133.632174 
L 781.373713 133.632174 
L 781.373713 152.915652 
L 610.277622 152.915652 
z
" style="fill:#f7a35c;"/>
   </g>
   <g id="patch_68">
    <path clip-path="url(#p30828a5c2d)" d="M 505.752353 157.736522 
L 767.896263 157.736522 
L 767.896263 177.02 
L 505.752353 177.02 
z
" style="fill:#f7a35c;"/>
   </g>
   <g id="patch_69">
    <path clip-path="url(#p30828a5c2d)" d="M 617.572825 181.84087 
L 781.783042 181.84087 
L 781.783042 201.124348 
L 617.572825 201.124348 
z
" style="fill:#f7a35c;"/>
   </g>
   <g id="patch_70">
    <path clip-path="url(#p30828a5c2d)" d="M 708.634972 205.945217 
L 791.341126 205.945217 
L 791.341126 225.228696 
L 708.634972 225.228696 
z
" style="fill:#f7a35c;"/>
   </g>
   <g id="patch_71">
    <path clip-path="url(#p30828a5c2d)" d="M 517.4135 230.049565 
L 771.746903 230.049565 
L 771.746903 249.333043 
L 517.4135 249.333043 
z
" style="fill:#f7a35c;"/>
   </g>
   <g id="patch_72">
    <path clip-path="url(#p30828a5c2d)" d="M 723.513346 254.153913 
L 790.670354 254.153913 
L 790.670354 273.437391 
L 723.513346 273.437391 
z
" style="fill:#f7a35c;"/>
   </g>
   <g id="patch_73">
    <path clip-path="url(#p30828a5c2d)" d="M 602.080771 278.258261 
L 779.082073 278.258261 
L 779.082073 297.541739 
L 602.080771 297.541739 
z
" style="fill:#f7a35c;"/>
   </g>
   <g id="patch_74">
    <path clip-path="url(#p30828a5c2d)" d="M 645.353271 302.362609 
L 778.123661 302.362609 
L 778.123661 321.646087 
L 645.353271 321.646087 
z
" style="fill:#f7a35c;"/>
   </g>
   <g id="patch_75">
    <path clip-path="url(#p30828a5c2d)" d="M 670.934514 326.466957 
L 785.838615 326.466957 
L 785.838615 345.750435 
L 670.934514 345.750435 
z
" style="fill:#f7a35c;"/>
   </g>
   <g id="patch_76">
    <path clip-path="url(#p30828a5c2d)" d="M 523.358793 350.571304 
L 749.565204 350.571304 
L 749.565204 369.854783 
L 523.358793 369.854783 
z
" style="fill:#f7a35c;"/>
   </g>
   <g id="patch_77">
    <path clip-path="url(#p30828a5c2d)" d="M 514.981903 374.675652 
L 745.106521 374.675652 
L 745.106521 393.95913 
L 514.981903 393.95913 
z
" style="fill:#f7a35c;"/>
   </g>
   <g id="patch_78">
    <path clip-path="url(#p30828a5c2d)" d="M 425.576678 398.78 
L 731.126859 398.78 
L 731.126859 418.063478 
L 425.576678 418.063478 
z
" style="fill:#f7a35c;"/>
   </g>
   <g id="patch_79">
    <path clip-path="url(#p30828a5c2d)" d="M 477.832721 422.884348 
L 738.063609 422.884348 
L 738.063609 442.167826 
L 477.832721 442.167826 
z
" style="fill:#f7a35c;"/>
   </g>
   <g id="patch_80">
    <path clip-path="url(#p30828a5c2d)" d="M 521.136789 446.988696 
L 746.09717 446.988696 
L 746.09717 466.272174 
L 521.136789 466.272174 
z
" style="fill:#f7a35c;"/>
   </g>
   <g id="patch_81">
    <path clip-path="url(#p30828a5c2d)" d="M 535.902058 471.093043 
L 738.165578 471.093043 
L 738.165578 490.376522 
L 535.902058 490.376522 
z
" style="fill:#f7a35c;"/>
   </g>
   <g id="patch_82">
    <path clip-path="url(#p30828a5c2d)" d="M 574.907163 495.197391 
L 742.886159 495.197391 
L 742.886159 514.48087 
L 574.907163 514.48087 
z
" style="fill:#f7a35c;"/>
   </g>
   <g id="patch_83">
    <path clip-path="url(#p30828a5c2d)" d="M 629.394142 519.301739 
L 739.206984 519.301739 
L 739.206984 538.585217 
L 629.394142 538.585217 
z
" style="fill:#f7a35c;"/>
   </g>
   <g id="patch_84">
    <path clip-path="url(#p30828a5c2d)" d="M 670.69752 543.406087 
L 730.816378 543.406087 
L 730.816378 562.689565 
L 670.69752 562.689565 
z
" style="fill:#f7a35c;"/>
   </g>
   <g id="patch_85">
    <path clip-path="url(#p30828a5c2d)" d="M 712.682058 567.510435 
L 744.872305 567.510435 
L 744.872305 586.793913 
L 712.682058 586.793913 
z
" style="fill:#f7a35c;"/>
   </g>
   <g id="patch_86">
    <path clip-path="url(#p30828a5c2d)" d="M 613.47554 591.614783 
L 745.790678 591.614783 
L 745.790678 610.898261 
L 613.47554 610.898261 
z
" style="fill:#f7a35c;"/>
   </g>
   <g id="patch_87">
    <path clip-path="url(#p30828a5c2d)" d="M 563.69731 615.71913 
L 747.271832 615.71913 
L 747.271832 635.002609 
L 563.69731 635.002609 
z
" style="fill:#f7a35c;"/>
   </g>
   <g id="patch_88">
    <path clip-path="url(#p30828a5c2d)" d="M 625.7087 639.823478 
L 743.716113 639.823478 
L 743.716113 659.106957 
L 625.7087 659.106957 
z
" style="fill:#f7a35c;"/>
   </g>
   <g id="patch_89">
    <path clip-path="url(#p30828a5c2d)" d="M 713.283611 663.927826 
L 749.971124 663.927826 
L 749.971124 683.211304 
L 713.283611 683.211304 
z
" style="fill:#f7a35c;"/>
   </g>
   <g id="patch_90">
    <path clip-path="url(#p30828a5c2d)" d="M 531.582287 688.032174 
L 739.996556 688.032174 
L 739.996556 707.315652 
L 531.582287 707.315652 
z
" style="fill:#f7a35c;"/>
   </g>
   <g id="patch_91">
    <path clip-path="url(#p30828a5c2d)" d="M 457.262353 712.136522 
L 738.33122 712.136522 
L 738.33122 731.42 
L 457.262353 731.42 
z
" style="fill:#f7a35c;"/>
   </g>
   <g id="patch_92">
    <path clip-path="url(#p30828a5c2d)" d="M 504.976549 736.24087 
L 739.471434 736.24087 
L 739.471434 755.524348 
L 504.976549 755.524348 
z
" style="fill:#f7a35c;"/>
   </g>
   <g id="patch_93">
    <path clip-path="url(#p30828a5c2d)" d="M 715.94715 760.345217 
L 744.302186 760.345217 
L 744.302186 779.628696 
L 715.94715 779.628696 
z
" style="fill:#f7a35c;"/>
   </g>
   <g id="patch_94">
    <path clip-path="url(#p30828a5c2d)" d="M 447.396311 784.449565 
L 739.841741 784.449565 
L 739.841741 803.733043 
L 447.396311 803.733043 
z
" style="fill:#f7a35c;"/>
   </g>
   <g id="patch_95">
    <path clip-path="url(#p30828a5c2d)" d="M 633.812372 808.553913 
L 743.302236 808.553913 
L 743.302236 827.837391 
L 633.812372 827.837391 
z
" style="fill:#f7a35c;"/>
   </g>
   <g id="patch_96">
    <path clip-path="url(#p30828a5c2d)" d="M 609.434889 832.658261 
L 733.655463 832.658261 
L 733.655463 851.941739 
L 609.434889 851.941739 
z
" style="fill:#f7a35c;"/>
   </g>
   <g id="patch_97">
    <path clip-path="url(#p30828a5c2d)" d="M 697.801446 856.762609 
L 733.172855 856.762609 
L 733.172855 876.046087 
L 697.801446 876.046087 
z
" style="fill:#f7a35c;"/>
   </g>
   <g id="patch_98">
    <path clip-path="url(#p30828a5c2d)" d="M 589.12033 880.866957 
L 730.244391 880.866957 
L 730.244391 900.150435 
L 589.12033 900.150435 
z
" style="fill:#f7a35c;"/>
   </g>
   <g id="patch_99">
    <path clip-path="url(#p30828a5c2d)" d="M 502.614507 904.971304 
L 735.046318 904.971304 
L 735.046318 924.254783 
L 502.614507 924.254783 
z
" style="fill:#f7a35c;"/>
   </g>
   <g id="patch_100">
    <path clip-path="url(#p30828a5c2d)" d="M 472.754828 929.075652 
L 733.979556 929.075652 
L 733.979556 948.35913 
L 472.754828 948.35913 
z
" style="fill:#f7a35c;"/>
   </g>
   <g id="patch_101">
    <path clip-path="url(#p30828a5c2d)" d="M 493.24996 953.18 
L 744.825886 953.18 
L 744.825886 972.463478 
L 493.24996 972.463478 
z
" style="fill:#f7a35c;"/>
   </g>
   <g id="patch_102">
    <path clip-path="url(#p30828a5c2d)" d="M 535.926803 977.284348 
L 742.638638 977.284348 
L 742.638638 996.567826 
L 535.926803 996.567826 
z
" style="fill:#f7a35c;"/>
   </g>
   <g id="patch_103">
    <path clip-path="url(#p30828a5c2d)" d="M 465.166321 1001.388696 
L 738.112781 1001.388696 
L 738.112781 1020.672174 
L 465.166321 1020.672174 
z
" style="fill:#f7a35c;"/>
   </g>
   <g id="patch_104">
    <path clip-path="url(#p30828a5c2d)" d="M 545.201331 1025.493043 
L 746.796048 1025.493043 
L 746.796048 1044.776522 
L 545.201331 1044.776522 
z
" style="fill:#f7a35c;"/>
   </g>
   <g id="patch_105">
    <path clip-path="url(#p30828a5c2d)" d="M 618.916867 1049.597391 
L 745.755484 1049.597391 
L 745.755484 1068.88087 
L 618.916867 1068.88087 
z
" style="fill:#f7a35c;"/>
   </g>
   <g id="patch_106">
    <path clip-path="url(#p30828a5c2d)" d="M 512.258379 1073.701739 
L 747.319644 1073.701739 
L 747.319644 1092.985217 
L 512.258379 1092.985217 
z
" style="fill:#f7a35c;"/>
   </g>
   <g id="patch_107">
    <path clip-path="url(#p30828a5c2d)" d="M 577.21269 1097.806087 
L 751.271438 1097.806087 
L 751.271438 1117.089565 
L 577.21269 1117.089565 
z
" style="fill:#f7a35c;"/>
   </g>
   <g id="patch_108">
    <path clip-path="url(#p30828a5c2d)" d="M 606.538789 1121.910435 
L 750.454777 1121.910435 
L 750.454777 1141.193913 
L 606.538789 1141.193913 
z
" style="fill:#f7a35c;"/>
   </g>
   <g id="patch_109">
    <path clip-path="url(#p30828a5c2d)" d="M 678.923175 1146.014783 
L 750.62676 1146.014783 
L 750.62676 1165.298261 
L 678.923175 1165.298261 
z
" style="fill:#f7a35c;"/>
   </g>
   <g id="patch_110">
    <path clip-path="url(#p30828a5c2d)" d="M 616.838291 1170.11913 
L 748.129167 1170.11913 
L 748.129167 1189.402609 
L 616.838291 1189.402609 
z
" style="fill:#f7a35c;"/>
   </g>
   <g id="patch_111">
    <path clip-path="url(#p30828a5c2d)" d="M 614.765047 1194.223478 
L 737.829391 1194.223478 
L 737.829391 1213.506957 
L 614.765047 1213.506957 
z
" style="fill:#f7a35c;"/>
   </g>
   <g id="patch_112">
    <path clip-path="url(#p30828a5c2d)" d="M 626.188132 1218.327826 
L 735.188441 1218.327826 
L 735.188441 1237.611304 
L 626.188132 1237.611304 
z
" style="fill:#f7a35c;"/>
   </g>
   <g id="patch_113">
    <path clip-path="url(#p30828a5c2d)" d="M 607.732878 1242.432174 
L 741.254705 1242.432174 
L 741.254705 1261.715652 
L 607.732878 1261.715652 
z
" style="fill:#f7a35c;"/>
   </g>
   <g id="patch_114">
    <path clip-path="url(#p30828a5c2d)" d="M 504.362984 1266.536522 
L 733.770363 1266.536522 
L 733.770363 1285.82 
L 504.362984 1285.82 
z
" style="fill:#f7a35c;"/>
   </g>
   <g id="patch_115">
    <path clip-path="url(#p30828a5c2d)" d="M 473.912525 1290.64087 
L 738.971152 1290.64087 
L 738.971152 1309.924348 
L 473.912525 1309.924348 
z
" style="fill:#f7a35c;"/>
   </g>
   <g id="patch_116">
    <path clip-path="url(#p30828a5c2d)" d="M 576.823423 1314.745217 
L 749.952481 1314.745217 
L 749.952481 1334.028696 
L 576.823423 1334.028696 
z
" style="fill:#f7a35c;"/>
   </g>
   <g id="patch_117">
    <path clip-path="url(#p30828a5c2d)" d="M 629.749454 1338.849565 
L 753.47827 1338.849565 
L 753.47827 1358.133043 
L 629.749454 1358.133043 
z
" style="fill:#f7a35c;"/>
   </g>
   <g id="patch_118">
    <path clip-path="url(#p30828a5c2d)" d="M 633.217491 1362.953913 
L 753.487994 1362.953913 
L 753.487994 1382.237391 
L 633.217491 1382.237391 
z
" style="fill:#f7a35c;"/>
   </g>
   <g id="patch_119">
    <path clip-path="url(#p30828a5c2d)" d="M 632.905012 1387.058261 
L 749.311354 1387.058261 
L 749.311354 1406.341739 
L 632.905012 1406.341739 
z
" style="fill:#f7a35c;"/>
   </g>
   <g id="patch_120">
    <path clip-path="url(#p30828a5c2d)" d="M 602.067398 1411.162609 
L 748.89547 1411.162609 
L 748.89547 1430.446087 
L 602.067398 1430.446087 
z
" style="fill:#f7a35c;"/>
   </g>
   <g id="patch_121">
    <path clip-path="url(#p30828a5c2d)" d="M 785.625997 13.110435 
L 814.41625 13.110435 
L 814.41625 32.393913 
L 785.625997 32.393913 
z
" style="fill:#981919;"/>
   </g>
   <g id="patch_122">
    <path clip-path="url(#p30828a5c2d)" d="M 774.595526 37.214783 
L 814.41625 37.214783 
L 814.41625 56.498261 
L 774.595526 56.498261 
z
" style="fill:#981919;"/>
   </g>
   <g id="patch_123">
    <path clip-path="url(#p30828a5c2d)" d="M 781.098277 61.31913 
L 814.41625 61.31913 
L 814.41625 80.602609 
L 781.098277 80.602609 
z
" style="fill:#981919;"/>
   </g>
   <g id="patch_124">
    <path clip-path="url(#p30828a5c2d)" d="M 771.484597 85.423478 
L 814.41625 85.423478 
L 814.41625 104.706957 
L 771.484597 104.706957 
z
" style="fill:#981919;"/>
   </g>
   <g id="patch_125">
    <path clip-path="url(#p30828a5c2d)" d="M 761.816186 109.527826 
L 814.41625 109.527826 
L 814.41625 128.811304 
L 761.816186 128.811304 
z
" style="fill:#981919;"/>
   </g>
   <g id="patch_126">
    <path clip-path="url(#p30828a5c2d)" d="M 781.373713 133.632174 
L 814.41625 133.632174 
L 814.41625 152.915652 
L 781.373713 152.915652 
z
" style="fill:#981919;"/>
   </g>
   <g id="patch_127">
    <path clip-path="url(#p30828a5c2d)" d="M 767.896263 157.736522 
L 814.41625 157.736522 
L 814.41625 177.02 
L 767.896263 177.02 
z
" style="fill:#981919;"/>
   </g>
   <g id="patch_128">
    <path clip-path="url(#p30828a5c2d)" d="M 781.783042 181.84087 
L 814.41625 181.84087 
L 814.41625 201.124348 
L 781.783042 201.124348 
z
" style="fill:#981919;"/>
   </g>
   <g id="patch_129">
    <path clip-path="url(#p30828a5c2d)" d="M 791.341126 205.945217 
L 814.41625 205.945217 
L 814.41625 225.228696 
L 791.341126 225.228696 
z
" style="fill:#981919;"/>
   </g>
   <g id="patch_130">
    <path clip-path="url(#p30828a5c2d)" d="M 771.746903 230.049565 
L 814.41625 230.049565 
L 814.41625 249.333043 
L 771.746903 249.333043 
z
" style="fill:#981919;"/>
   </g>
   <g id="patch_131">
    <path clip-path="url(#p30828a5c2d)" d="M 790.670354 254.153913 
L 814.41625 254.153913 
L 814.41625 273.437391 
L 790.670354 273.437391 
z
" style="fill:#981919;"/>
   </g>
   <g id="patch_132">
    <path clip-path="url(#p30828a5c2d)" d="M 779.082073 278.258261 
L 814.41625 278.258261 
L 814.41625 297.541739 
L 779.082073 297.541739 
z
" style="fill:#981919;"/>
   </g>
   <g id="patch_133">
    <path clip-path="url(#p30828a5c2d)" d="M 778.123661 302.362609 
L 814.41625 302.362609 
L 814.41625 321.646087 
L 778.123661 321.646087 
z
" style="fill:#981919;"/>
   </g>
   <g id="patch_134">
    <path clip-path="url(#p30828a5c2d)" d="M 785.838615 326.466957 
L 814.41625 326.466957 
L 814.41625 345.750435 
L 785.838615 345.750435 
z
" style="fill:#981919;"/>
   </g>
   <g id="patch_135">
    <path clip-path="url(#p30828a5c2d)" d="M 749.565204 350.571304 
L 814.41625 350.571304 
L 814.41625 369.854783 
L 749.565204 369.854783 
z
" style="fill:#981919;"/>
   </g>
   <g id="patch_136">
    <path clip-path="url(#p30828a5c2d)" d="M 745.106521 374.675652 
L 814.41625 374.675652 
L 814.41625 393.95913 
L 745.106521 393.95913 
z
" style="fill:#981919;"/>
   </g>
   <g id="patch_137">
    <path clip-path="url(#p30828a5c2d)" d="M 731.126859 398.78 
L 814.41625 398.78 
L 814.41625 418.063478 
L 731.126859 418.063478 
z
" style="fill:#981919;"/>
   </g>
   <g id="patch_138">
    <path clip-path="url(#p30828a5c2d)" d="M 738.063609 422.884348 
L 814.41625 422.884348 
L 814.41625 442.167826 
L 738.063609 442.167826 
z
" style="fill:#981919;"/>
   </g>
   <g id="patch_139">
    <path clip-path="url(#p30828a5c2d)" d="M 746.09717 446.988696 
L 814.41625 446.988696 
L 814.41625 466.272174 
L 746.09717 466.272174 
z
" style="fill:#981919;"/>
   </g>
   <g id="patch_140">
    <path clip-path="url(#p30828a5c2d)" d="M 738.165578 471.093043 
L 814.41625 471.093043 
L 814.41625 490.376522 
L 738.165578 490.376522 
z
" style="fill:#981919;"/>
   </g>
   <g id="patch_141">
    <path clip-path="url(#p30828a5c2d)" d="M 742.886159 495.197391 
L 814.41625 495.197391 
L 814.41625 514.48087 
L 742.886159 514.48087 
z
" style="fill:#981919;"/>
   </g>
   <g id="patch_142">
    <path clip-path="url(#p30828a5c2d)" d="M 739.206984 519.301739 
L 814.41625 519.301739 
L 814.41625 538.585217 
L 739.206984 538.585217 
z
" style="fill:#981919;"/>
   </g>
   <g id="patch_143">
    <path clip-path="url(#p30828a5c2d)" d="M 730.816378 543.406087 
L 814.41625 543.406087 
L 814.41625 562.689565 
L 730.816378 562.689565 
z
" style="fill:#981919;"/>
   </g>
   <g id="patch_144">
    <path clip-path="url(#p30828a5c2d)" d="M 744.872305 567.510435 
L 814.41625 567.510435 
L 814.41625 586.793913 
L 744.872305 586.793913 
z
" style="fill:#981919;"/>
   </g>
   <g id="patch_145">
    <path clip-path="url(#p30828a5c2d)" d="M 745.790678 591.614783 
L 814.41625 591.614783 
L 814.41625 610.898261 
L 745.790678 610.898261 
z
" style="fill:#981919;"/>
   </g>
   <g id="patch_146">
    <path clip-path="url(#p30828a5c2d)" d="M 747.271832 615.71913 
L 814.41625 615.71913 
L 814.41625 635.002609 
L 747.271832 635.002609 
z
" style="fill:#981919;"/>
   </g>
   <g id="patch_147">
    <path clip-path="url(#p30828a5c2d)" d="M 743.716113 639.823478 
L 814.41625 639.823478 
L 814.41625 659.106957 
L 743.716113 659.106957 
z
" style="fill:#981919;"/>
   </g>
   <g id="patch_148">
    <path clip-path="url(#p30828a5c2d)" d="M 749.971124 663.927826 
L 814.41625 663.927826 
L 814.41625 683.211304 
L 749.971124 683.211304 
z
" style="fill:#981919;"/>
   </g>
   <g id="patch_149">
    <path clip-path="url(#p30828a5c2d)" d="M 739.996556 688.032174 
L 814.41625 688.032174 
L 814.41625 707.315652 
L 739.996556 707.315652 
z
" style="fill:#981919;"/>
   </g>
   <g id="patch_150">
    <path clip-path="url(#p30828a5c2d)" d="M 738.33122 712.136522 
L 814.41625 712.136522 
L 814.41625 731.42 
L 738.33122 731.42 
z
" style="fill:#981919;"/>
   </g>
   <g id="patch_151">
    <path clip-path="url(#p30828a5c2d)" d="M 739.471434 736.24087 
L 814.41625 736.24087 
L 814.41625 755.524348 
L 739.471434 755.524348 
z
" style="fill:#981919;"/>
   </g>
   <g id="patch_152">
    <path clip-path="url(#p30828a5c2d)" d="M 744.302186 760.345217 
L 814.41625 760.345217 
L 814.41625 779.628696 
L 744.302186 779.628696 
z
" style="fill:#981919;"/>
   </g>
   <g id="patch_153">
    <path clip-path="url(#p30828a5c2d)" d="M 739.841741 784.449565 
L 814.41625 784.449565 
L 814.41625 803.733043 
L 739.841741 803.733043 
z
" style="fill:#981919;"/>
   </g>
   <g id="patch_154">
    <path clip-path="url(#p30828a5c2d)" d="M 743.302236 808.553913 
L 814.41625 808.553913 
L 814.41625 827.837391 
L 743.302236 827.837391 
z
" style="fill:#981919;"/>
   </g>
   <g id="patch_155">
    <path clip-path="url(#p30828a5c2d)" d="M 733.655463 832.658261 
L 814.41625 832.658261 
L 814.41625 851.941739 
L 733.655463 851.941739 
z
" style="fill:#981919;"/>
   </g>
   <g id="patch_156">
    <path clip-path="url(#p30828a5c2d)" d="M 733.172855 856.762609 
L 814.41625 856.762609 
L 814.41625 876.046087 
L 733.172855 876.046087 
z
" style="fill:#981919;"/>
   </g>
   <g id="patch_157">
    <path clip-path="url(#p30828a5c2d)" d="M 730.244391 880.866957 
L 814.41625 880.866957 
L 814.41625 900.150435 
L 730.244391 900.150435 
z
" style="fill:#981919;"/>
   </g>
   <g id="patch_158">
    <path clip-path="url(#p30828a5c2d)" d="M 735.046318 904.971304 
L 814.41625 904.971304 
L 814.41625 924.254783 
L 735.046318 924.254783 
z
" style="fill:#981919;"/>
   </g>
   <g id="patch_159">
    <path clip-path="url(#p30828a5c2d)" d="M 733.979556 929.075652 
L 814.41625 929.075652 
L 814.41625 948.35913 
L 733.979556 948.35913 
z
" style="fill:#981919;"/>
   </g>
   <g id="patch_160">
    <path clip-path="url(#p30828a5c2d)" d="M 744.825886 953.18 
L 814.41625 953.18 
L 814.41625 972.463478 
L 744.825886 972.463478 
z
" style="fill:#981919;"/>
   </g>
   <g id="patch_161">
    <path clip-path="url(#p30828a5c2d)" d="M 742.638638 977.284348 
L 814.41625 977.284348 
L 814.41625 996.567826 
L 742.638638 996.567826 
z
" style="fill:#981919;"/>
   </g>
   <g id="patch_162">
    <path clip-path="url(#p30828a5c2d)" d="M 738.112781 1001.388696 
L 814.41625 1001.388696 
L 814.41625 1020.672174 
L 738.112781 1020.672174 
z
" style="fill:#981919;"/>
   </g>
   <g id="patch_163">
    <path clip-path="url(#p30828a5c2d)" d="M 746.796048 1025.493043 
L 814.41625 1025.493043 
L 814.41625 1044.776522 
L 746.796048 1044.776522 
z
" style="fill:#981919;"/>
   </g>
   <g id="patch_164">
    <path clip-path="url(#p30828a5c2d)" d="M 745.755484 1049.597391 
L 814.41625 1049.597391 
L 814.41625 1068.88087 
L 745.755484 1068.88087 
z
" style="fill:#981919;"/>
   </g>
   <g id="patch_165">
    <path clip-path="url(#p30828a5c2d)" d="M 747.319644 1073.701739 
L 814.41625 1073.701739 
L 814.41625 1092.985217 
L 747.319644 1092.985217 
z
" style="fill:#981919;"/>
   </g>
   <g id="patch_166">
    <path clip-path="url(#p30828a5c2d)" d="M 751.271438 1097.806087 
L 814.41625 1097.806087 
L 814.41625 1117.089565 
L 751.271438 1117.089565 
z
" style="fill:#981919;"/>
   </g>
   <g id="patch_167">
    <path clip-path="url(#p30828a5c2d)" d="M 750.454777 1121.910435 
L 814.41625 1121.910435 
L 814.41625 1141.193913 
L 750.454777 1141.193913 
z
" style="fill:#981919;"/>
   </g>
   <g id="patch_168">
    <path clip-path="url(#p30828a5c2d)" d="M 750.62676 1146.014783 
L 814.41625 1146.014783 
L 814.41625 1165.298261 
L 750.62676 1165.298261 
z
" style="fill:#981919;"/>
   </g>
   <g id="patch_169">
    <path clip-path="url(#p30828a5c2d)" d="M 748.129167 1170.11913 
L 814.41625 1170.11913 
L 814.41625 1189.402609 
L 748.129167 1189.402609 
z
" style="fill:#981919;"/>
   </g>
   <g id="patch_170">
    <path clip-path="url(#p30828a5c2d)" d="M 737.829391 1194.223478 
L 814.41625 1194.223478 
L 814.41625 1213.506957 
L 737.829391 1213.506957 
z
" style="fill:#981919;"/>
   </g>
   <g id="patch_171">
    <path clip-path="url(#p30828a5c2d)" d="M 735.188441 1218.327826 
L 814.41625 1218.327826 
L 814.41625 1237.611304 
L 735.188441 1237.611304 
z
" style="fill:#981919;"/>
   </g>
   <g id="patch_172">
    <path clip-path="url(#p30828a5c2d)" d="M 741.254705 1242.432174 
L 814.41625 1242.432174 
L 814.41625 1261.715652 
L 741.254705 1261.715652 
z
" style="fill:#981919;"/>
   </g>
   <g id="patch_173">
    <path clip-path="url(#p30828a5c2d)" d="M 733.770363 1266.536522 
L 814.41625 1266.536522 
L 814.41625 1285.82 
L 733.770363 1285.82 
z
" style="fill:#981919;"/>
   </g>
   <g id="patch_174">
    <path clip-path="url(#p30828a5c2d)" d="M 738.971152 1290.64087 
L 814.41625 1290.64087 
L 814.41625 1309.924348 
L 738.971152 1309.924348 
z
" style="fill:#981919;"/>
   </g>
   <g id="patch_175">
    <path clip-path="url(#p30828a5c2d)" d="M 749.952481 1314.745217 
L 814.41625 1314.745217 
L 814.41625 1334.028696 
L 749.952481 1334.028696 
z
" style="fill:#981919;"/>
   </g>
   <g id="patch_176">
    <path clip-path="url(#p30828a5c2d)" d="M 753.47827 1338.849565 
L 814.41625 1338.849565 
L 814.41625 1358.133043 
L 753.47827 1358.133043 
z
" style="fill:#981919;"/>
   </g>
   <g id="patch_177">
    <path clip-path="url(#p30828a5c2d)" d="M 753.487994 1362.953913 
L 814.41625 1362.953913 
L 814.41625 1382.237391 
L 753.487994 1382.237391 
z
" style="fill:#981919;"/>
   </g>
   <g id="patch_178">
    <path clip-path="url(#p30828a5c2d)" d="M 749.311354 1387.058261 
L 814.41625 1387.058261 
L 814.41625 1406.341739 
L 749.311354 1406.341739 
z
" style="fill:#981919;"/>
   </g>
   <g id="patch_179">
    <path clip-path="url(#p30828a5c2d)" d="M 748.89547 1411.162609 
L 814.41625 1411.162609 
L 814.41625 1430.446087 
L 748.89547 1430.446087 
z
" style="fill:#981919;"/>
   </g>
   <g id="text_67">
    <!-- HISAT2: PE Alignment Scores -->
    <defs>
     <path d="M 9.8125 72.90625 
L 19.671875 72.90625 
L 19.671875 0 
L 9.8125 0 
z
" id="DejaVuSans-73"/>
     <path d="M 53.515625 70.515625 
L 53.515625 60.890625 
Q 47.90625 63.578125 42.921875 64.890625 
Q 37.9375 66.21875 33.296875 66.21875 
Q 25.25 66.21875 20.875 63.09375 
Q 16.5 59.96875 16.5 54.203125 
Q 16.5 49.359375 19.40625 46.890625 
Q 22.3125 44.4375 30.421875 42.921875 
L 36.375 41.703125 
Q 47.40625 39.59375 52.65625 34.296875 
Q 57.90625 29 57.90625 20.125 
Q 57.90625 9.515625 50.796875 4.046875 
Q 43.703125 -1.421875 29.984375 -1.421875 
Q 24.8125 -1.421875 18.96875 -0.25 
Q 13.140625 0.921875 6.890625 3.21875 
L 6.890625 13.375 
Q 12.890625 10.015625 18.65625 8.296875 
Q 24.421875 6.59375 29.984375 6.59375 
Q 38.421875 6.59375 43.015625 9.90625 
Q 47.609375 13.234375 47.609375 19.390625 
Q 47.609375 24.75 44.3125 27.78125 
Q 41.015625 30.8125 33.5 32.328125 
L 27.484375 33.5 
Q 16.453125 35.6875 11.515625 40.375 
Q 6.59375 45.0625 6.59375 53.421875 
Q 6.59375 63.09375 13.40625 68.65625 
Q 20.21875 74.21875 32.171875 74.21875 
Q 37.3125 74.21875 42.625 73.28125 
Q 47.953125 72.359375 53.515625 70.515625 
z
" id="DejaVuSans-83"/>
     <path d="M 34.1875 63.1875 
L 20.796875 26.90625 
L 47.609375 26.90625 
z
M 28.609375 72.90625 
L 39.796875 72.90625 
L 67.578125 0 
L 57.328125 0 
L 50.6875 18.703125 
L 17.828125 18.703125 
L 11.1875 0 
L 0.78125 0 
z
" id="DejaVuSans-65"/>
     <path d="M -0.296875 72.90625 
L 61.375 72.90625 
L 61.375 64.59375 
L 35.5 64.59375 
L 35.5 0 
L 25.59375 0 
L 25.59375 64.59375 
L -0.296875 64.59375 
z
" id="DejaVuSans-84"/>
     <path d="M 11.71875 12.40625 
L 22.015625 12.40625 
L 22.015625 0 
L 11.71875 0 
z
M 11.71875 51.703125 
L 22.015625 51.703125 
L 22.015625 39.3125 
L 11.71875 39.3125 
z
" id="DejaVuSans-58"/>
     <path d="M 19.671875 64.796875 
L 19.671875 37.40625 
L 32.078125 37.40625 
Q 38.96875 37.40625 42.71875 40.96875 
Q 46.484375 44.53125 46.484375 51.125 
Q 46.484375 57.671875 42.71875 61.234375 
Q 38.96875 64.796875 32.078125 64.796875 
z
M 9.8125 72.90625 
L 32.078125 72.90625 
Q 44.34375 72.90625 50.609375 67.359375 
Q 56.890625 61.8125 56.890625 51.125 
Q 56.890625 40.328125 50.609375 34.8125 
Q 44.34375 29.296875 32.078125 29.296875 
L 19.671875 29.296875 
L 19.671875 0 
L 9.8125 0 
z
" id="DejaVuSans-80"/>
     <path d="M 9.8125 72.90625 
L 55.90625 72.90625 
L 55.90625 64.59375 
L 19.671875 64.59375 
L 19.671875 43.015625 
L 54.390625 43.015625 
L 54.390625 34.71875 
L 19.671875 34.71875 
L 19.671875 8.296875 
L 56.78125 8.296875 
L 56.78125 0 
L 9.8125 0 
z
" id="DejaVuSans-69"/>
     <path d="M 9.421875 75.984375 
L 18.40625 75.984375 
L 18.40625 0 
L 9.421875 0 
z
" id="DejaVuSans-108"/>
     <path d="M 9.421875 54.6875 
L 18.40625 54.6875 
L 18.40625 0 
L 9.421875 0 
z
M 9.421875 75.984375 
L 18.40625 75.984375 
L 18.40625 64.59375 
L 9.421875 64.59375 
z
" id="DejaVuSans-105"/>
     <path d="M 45.40625 27.984375 
Q 45.40625 37.75 41.375 43.109375 
Q 37.359375 48.484375 30.078125 48.484375 
Q 22.859375 48.484375 18.828125 43.109375 
Q 14.796875 37.75 14.796875 27.984375 
Q 14.796875 18.265625 18.828125 12.890625 
Q 22.859375 7.515625 30.078125 7.515625 
Q 37.359375 7.515625 41.375 12.890625 
Q 45.40625 18.265625 45.40625 27.984375 
z
M 54.390625 6.78125 
Q 54.390625 -7.171875 48.1875 -13.984375 
Q 42 -20.796875 29.203125 -20.796875 
Q 24.46875 -20.796875 20.265625 -20.09375 
Q 16.0625 -19.390625 12.109375 -17.921875 
L 12.109375 -9.1875 
Q 16.0625 -11.328125 19.921875 -12.34375 
Q 23.78125 -13.375 27.78125 -13.375 
Q 36.625 -13.375 41.015625 -8.765625 
Q 45.40625 -4.15625 45.40625 5.171875 
L 45.40625 9.625 
Q 42.625 4.78125 38.28125 2.390625 
Q 33.9375 0 27.875 0 
Q 17.828125 0 11.671875 7.65625 
Q 5.515625 15.328125 5.515625 27.984375 
Q 5.515625 40.671875 11.671875 48.328125 
Q 17.828125 56 27.875 56 
Q 33.9375 56 38.28125 53.609375 
Q 42.625 51.21875 45.40625 46.390625 
L 45.40625 54.6875 
L 54.390625 54.6875 
z
" id="DejaVuSans-103"/>
     <path d="M 54.890625 33.015625 
L 54.890625 0 
L 45.90625 0 
L 45.90625 32.71875 
Q 45.90625 40.484375 42.875 44.328125 
Q 39.84375 48.1875 33.796875 48.1875 
Q 26.515625 48.1875 22.3125 43.546875 
Q 18.109375 38.921875 18.109375 30.90625 
L 18.109375 0 
L 9.078125 0 
L 9.078125 54.6875 
L 18.109375 54.6875 
L 18.109375 46.1875 
Q 21.34375 51.125 25.703125 53.5625 
Q 30.078125 56 35.796875 56 
Q 45.21875 56 50.046875 50.171875 
Q 54.890625 44.34375 54.890625 33.015625 
z
" id="DejaVuSans-110"/>
     <path d="M 52 44.1875 
Q 55.375 50.25 60.0625 53.125 
Q 64.75 56 71.09375 56 
Q 79.640625 56 84.28125 50.015625 
Q 88.921875 44.046875 88.921875 33.015625 
L 88.921875 0 
L 79.890625 0 
L 79.890625 32.71875 
Q 79.890625 40.578125 77.09375 44.375 
Q 74.3125 48.1875 68.609375 48.1875 
Q 61.625 48.1875 57.5625 43.546875 
Q 53.515625 38.921875 53.515625 30.90625 
L 53.515625 0 
L 44.484375 0 
L 44.484375 32.71875 
Q 44.484375 40.625 41.703125 44.40625 
Q 38.921875 48.1875 33.109375 48.1875 
Q 26.21875 48.1875 22.15625 43.53125 
Q 18.109375 38.875 18.109375 30.90625 
L 18.109375 0 
L 9.078125 0 
L 9.078125 54.6875 
L 18.109375 54.6875 
L 18.109375 46.1875 
Q 21.1875 51.21875 25.484375 53.609375 
Q 29.78125 56 35.6875 56 
Q 41.65625 56 45.828125 52.96875 
Q 50 49.953125 52 44.1875 
z
" id="DejaVuSans-109"/>
     <path d="M 18.3125 70.21875 
L 18.3125 54.6875 
L 36.8125 54.6875 
L 36.8125 47.703125 
L 18.3125 47.703125 
L 18.3125 18.015625 
Q 18.3125 11.328125 20.140625 9.421875 
Q 21.96875 7.515625 27.59375 7.515625 
L 36.8125 7.515625 
L 36.8125 0 
L 27.59375 0 
Q 17.1875 0 13.234375 3.875 
Q 9.28125 7.765625 9.28125 18.015625 
L 9.28125 47.703125 
L 2.6875 47.703125 
L 2.6875 54.6875 
L 9.28125 54.6875 
L 9.28125 70.21875 
z
" id="DejaVuSans-116"/>
     <path d="M 48.78125 52.59375 
L 48.78125 44.1875 
Q 44.96875 46.296875 41.140625 47.34375 
Q 37.3125 48.390625 33.40625 48.390625 
Q 24.65625 48.390625 19.8125 42.84375 
Q 14.984375 37.3125 14.984375 27.296875 
Q 14.984375 17.28125 19.8125 11.734375 
Q 24.65625 6.203125 33.40625 6.203125 
Q 37.3125 6.203125 41.140625 7.25 
Q 44.96875 8.296875 48.78125 10.40625 
L 48.78125 2.09375 
Q 45.015625 0.34375 40.984375 -0.53125 
Q 36.96875 -1.421875 32.421875 -1.421875 
Q 20.0625 -1.421875 12.78125 6.34375 
Q 5.515625 14.109375 5.515625 27.296875 
Q 5.515625 40.671875 12.859375 48.328125 
Q 20.21875 56 33.015625 56 
Q 37.15625 56 41.109375 55.140625 
Q 45.0625 54.296875 48.78125 52.59375 
z
" id="DejaVuSans-99"/>
     <path d="M 30.609375 48.390625 
Q 23.390625 48.390625 19.1875 42.75 
Q 14.984375 37.109375 14.984375 27.296875 
Q 14.984375 17.484375 19.15625 11.84375 
Q 23.34375 6.203125 30.609375 6.203125 
Q 37.796875 6.203125 41.984375 11.859375 
Q 46.1875 17.53125 46.1875 27.296875 
Q 46.1875 37.015625 41.984375 42.703125 
Q 37.796875 48.390625 30.609375 48.390625 
z
M 30.609375 56 
Q 42.328125 56 49.015625 48.375 
Q 55.71875 40.765625 55.71875 27.296875 
Q 55.71875 13.875 49.015625 6.21875 
Q 42.328125 -1.421875 30.609375 -1.421875 
Q 18.84375 -1.421875 12.171875 6.21875 
Q 5.515625 13.875 5.515625 27.296875 
Q 5.515625 40.765625 12.171875 48.375 
Q 18.84375 56 30.609375 56 
z
" id="DejaVuSans-111"/>
     <path d="M 41.109375 46.296875 
Q 39.59375 47.171875 37.8125 47.578125 
Q 36.03125 48 33.890625 48 
Q 26.265625 48 22.1875 43.046875 
Q 18.109375 38.09375 18.109375 28.8125 
L 18.109375 0 
L 9.078125 0 
L 9.078125 54.6875 
L 18.109375 54.6875 
L 18.109375 46.1875 
Q 20.953125 51.171875 25.484375 53.578125 
Q 30.03125 56 36.53125 56 
Q 37.453125 56 38.578125 55.875 
Q 39.703125 55.765625 41.0625 55.515625 
z
" id="DejaVuSans-114"/>
    </defs>
    <g transform="translate(306.9825 -17.02)scale(0.16 -0.16)">
     <use xlink:href="#DejaVuSans-72"/>
     <use x="75.195312" xlink:href="#DejaVuSans-73"/>
     <use x="104.6875" xlink:href="#DejaVuSans-83"/>
     <use x="168.179688" xlink:href="#DejaVuSans-65"/>
     <use x="236.478516" xlink:href="#DejaVuSans-84"/>
     <use x="297.5625" xlink:href="#DejaVuSans-50"/>
     <use x="361.185547" xlink:href="#DejaVuSans-58"/>
     <use x="394.876953" xlink:href="#DejaVuSans-32"/>
     <use x="426.664062" xlink:href="#DejaVuSans-80"/>
     <use x="486.966797" xlink:href="#DejaVuSans-69"/>
     <use x="550.150391" xlink:href="#DejaVuSans-32"/>
     <use x="581.9375" xlink:href="#DejaVuSans-65"/>
     <use x="650.345703" xlink:href="#DejaVuSans-108"/>
     <use x="678.128906" xlink:href="#DejaVuSans-105"/>
     <use x="705.912109" xlink:href="#DejaVuSans-103"/>
     <use x="769.388672" xlink:href="#DejaVuSans-110"/>
     <use x="832.767578" xlink:href="#DejaVuSans-109"/>
     <use x="930.179688" xlink:href="#DejaVuSans-101"/>
     <use x="991.703125" xlink:href="#DejaVuSans-110"/>
     <use x="1055.082031" xlink:href="#DejaVuSans-116"/>
     <use x="1094.291016" xlink:href="#DejaVuSans-32"/>
     <use x="1126.078125" xlink:href="#DejaVuSans-83"/>
     <use x="1189.554688" xlink:href="#DejaVuSans-99"/>
     <use x="1244.535156" xlink:href="#DejaVuSans-111"/>
     <use x="1305.716797" xlink:href="#DejaVuSans-114"/>
     <use x="1346.798828" xlink:href="#DejaVuSans-101"/>
     <use x="1408.322266" xlink:href="#DejaVuSans-115"/>
    </g>
   </g>
   <g id="legend_1">
    <g id="patch_180">
     <path d="M 40.41625 1507.152772 
L 56.41625 1507.152772 
L 56.41625 1501.552772 
L 40.41625 1501.552772 
z
" style="fill:#20568f;"/>
    </g>
    <g id="text_68">
     <!-- PE mapped uniquely -->
     <defs>
      <path d="M 18.109375 8.203125 
L 18.109375 -20.796875 
L 9.078125 -20.796875 
L 9.078125 54.6875 
L 18.109375 54.6875 
L 18.109375 46.390625 
Q 20.953125 51.265625 25.265625 53.625 
Q 29.59375 56 35.59375 56 
Q 45.5625 56 51.78125 48.09375 
Q 58.015625 40.1875 58.015625 27.296875 
Q 58.015625 14.40625 51.78125 6.484375 
Q 45.5625 -1.421875 35.59375 -1.421875 
Q 29.59375 -1.421875 25.265625 0.953125 
Q 20.953125 3.328125 18.109375 8.203125 
z
M 48.6875 27.296875 
Q 48.6875 37.203125 44.609375 42.84375 
Q 40.53125 48.484375 33.40625 48.484375 
Q 26.265625 48.484375 22.1875 42.84375 
Q 18.109375 37.203125 18.109375 27.296875 
Q 18.109375 17.390625 22.1875 11.75 
Q 26.265625 6.109375 33.40625 6.109375 
Q 40.53125 6.109375 44.609375 11.75 
Q 48.6875 17.390625 48.6875 27.296875 
z
" id="DejaVuSans-112"/>
      <path d="M 8.5 21.578125 
L 8.5 54.6875 
L 17.484375 54.6875 
L 17.484375 21.921875 
Q 17.484375 14.15625 20.5 10.265625 
Q 23.53125 6.390625 29.59375 6.390625 
Q 36.859375 6.390625 41.078125 11.03125 
Q 45.3125 15.671875 45.3125 23.6875 
L 45.3125 54.6875 
L 54.296875 54.6875 
L 54.296875 0 
L 45.3125 0 
L 45.3125 8.40625 
Q 42.046875 3.421875 37.71875 1 
Q 33.40625 -1.421875 27.6875 -1.421875 
Q 18.265625 -1.421875 13.375 4.4375 
Q 8.5 10.296875 8.5 21.578125 
z
M 31.109375 56 
z
" id="DejaVuSans-117"/>
      <path d="M 14.796875 27.296875 
Q 14.796875 17.390625 18.875 11.75 
Q 22.953125 6.109375 30.078125 6.109375 
Q 37.203125 6.109375 41.296875 11.75 
Q 45.40625 17.390625 45.40625 27.296875 
Q 45.40625 37.203125 41.296875 42.84375 
Q 37.203125 48.484375 30.078125 48.484375 
Q 22.953125 48.484375 18.875 42.84375 
Q 14.796875 37.203125 14.796875 27.296875 
z
M 45.40625 8.203125 
Q 42.578125 3.328125 38.25 0.953125 
Q 33.9375 -1.421875 27.875 -1.421875 
Q 17.96875 -1.421875 11.734375 6.484375 
Q 5.515625 14.40625 5.515625 27.296875 
Q 5.515625 40.1875 11.734375 48.09375 
Q 17.96875 56 27.875 56 
Q 33.9375 56 38.25 53.625 
Q 42.578125 51.265625 45.40625 46.390625 
L 45.40625 54.6875 
L 54.390625 54.6875 
L 54.390625 -20.796875 
L 45.40625 -20.796875 
z
" id="DejaVuSans-113"/>
      <path d="M 32.171875 -5.078125 
Q 28.375 -14.84375 24.75 -17.8125 
Q 21.140625 -20.796875 15.09375 -20.796875 
L 7.90625 -20.796875 
L 7.90625 -13.28125 
L 13.1875 -13.28125 
Q 16.890625 -13.28125 18.9375 -11.515625 
Q 21 -9.765625 23.484375 -3.21875 
L 25.09375 0.875 
L 2.984375 54.6875 
L 12.5 54.6875 
L 29.59375 11.921875 
L 46.6875 54.6875 
L 56.203125 54.6875 
z
" id="DejaVuSans-121"/>
     </defs>
     <g transform="translate(62.81625 1507.152772)scale(0.08 -0.08)">
      <use xlink:href="#DejaVuSans-80"/>
      <use x="60.302734" xlink:href="#DejaVuSans-69"/>
      <use x="123.486328" xlink:href="#DejaVuSans-32"/>
      <use x="155.273438" xlink:href="#DejaVuSans-109"/>
      <use x="252.685547" xlink:href="#DejaVuSans-97"/>
      <use x="313.964844" xlink:href="#DejaVuSans-112"/>
      <use x="377.441406" xlink:href="#DejaVuSans-112"/>
      <use x="440.917969" xlink:href="#DejaVuSans-101"/>
      <use x="502.441406" xlink:href="#DejaVuSans-100"/>
      <use x="565.917969" xlink:href="#DejaVuSans-32"/>
      <use x="597.705078" xlink:href="#DejaVuSans-117"/>
      <use x="661.083984" xlink:href="#DejaVuSans-110"/>
      <use x="724.462891" xlink:href="#DejaVuSans-105"/>
      <use x="752.246094" xlink:href="#DejaVuSans-113"/>
      <use x="815.722656" xlink:href="#DejaVuSans-117"/>
      <use x="879.101562" xlink:href="#DejaVuSans-101"/>
      <use x="940.625" xlink:href="#DejaVuSans-108"/>
      <use x="968.408203" xlink:href="#DejaVuSans-121"/>
     </g>
    </g>
    <g id="patch_181">
     <path d="M 372.66625 1507.152772 
L 388.66625 1507.152772 
L 388.66625 1501.552772 
L 372.66625 1501.552772 
z
" style="fill:#f7a35c;"/>
    </g>
    <g id="text_69">
     <!-- PE multimapped -->
     <g transform="translate(395.06625 1507.152772)scale(0.08 -0.08)">
      <use xlink:href="#DejaVuSans-80"/>
      <use x="60.302734" xlink:href="#DejaVuSans-69"/>
      <use x="123.486328" xlink:href="#DejaVuSans-32"/>
      <use x="155.273438" xlink:href="#DejaVuSans-109"/>
      <use x="252.685547" xlink:href="#DejaVuSans-117"/>
      <use x="316.064453" xlink:href="#DejaVuSans-108"/>
      <use x="343.847656" xlink:href="#DejaVuSans-116"/>
      <use x="383.056641" xlink:href="#DejaVuSans-105"/>
      <use x="410.839844" xlink:href="#DejaVuSans-109"/>
      <use x="508.251953" xlink:href="#DejaVuSans-97"/>
      <use x="569.53125" xlink:href="#DejaVuSans-112"/>
      <use x="633.007812" xlink:href="#DejaVuSans-112"/>
      <use x="696.484375" xlink:href="#DejaVuSans-101"/>
      <use x="758.007812" xlink:href="#DejaVuSans-100"/>
     </g>
    </g>
    <g id="patch_182">
     <path d="M 688.42625 1507.152772 
L 704.42625 1507.152772 
L 704.42625 1501.552772 
L 688.42625 1501.552772 
z
" style="fill:#981919;"/>
    </g>
    <g id="text_70">
     <!-- PE neither mate aligned -->
     <defs>
      <path d="M 54.890625 33.015625 
L 54.890625 0 
L 45.90625 0 
L 45.90625 32.71875 
Q 45.90625 40.484375 42.875 44.328125 
Q 39.84375 48.1875 33.796875 48.1875 
Q 26.515625 48.1875 22.3125 43.546875 
Q 18.109375 38.921875 18.109375 30.90625 
L 18.109375 0 
L 9.078125 0 
L 9.078125 75.984375 
L 18.109375 75.984375 
L 18.109375 46.1875 
Q 21.34375 51.125 25.703125 53.5625 
Q 30.078125 56 35.796875 56 
Q 45.21875 56 50.046875 50.171875 
Q 54.890625 44.34375 54.890625 33.015625 
z
" id="DejaVuSans-104"/>
     </defs>
     <g transform="translate(710.82625 1507.152772)scale(0.08 -0.08)">
      <use xlink:href="#DejaVuSans-80"/>
      <use x="60.302734" xlink:href="#DejaVuSans-69"/>
      <use x="123.486328" xlink:href="#DejaVuSans-32"/>
      <use x="155.273438" xlink:href="#DejaVuSans-110"/>
      <use x="218.652344" xlink:href="#DejaVuSans-101"/>
      <use x="280.175781" xlink:href="#DejaVuSans-105"/>
      <use x="307.958984" xlink:href="#DejaVuSans-116"/>
      <use x="347.167969" xlink:href="#DejaVuSans-104"/>
      <use x="410.546875" xlink:href="#DejaVuSans-101"/>
      <use x="472.070312" xlink:href="#DejaVuSans-114"/>
      <use x="513.183594" xlink:href="#DejaVuSans-32"/>
      <use x="544.970703" xlink:href="#DejaVuSans-109"/>
      <use x="642.382812" xlink:href="#DejaVuSans-97"/>
      <use x="703.662109" xlink:href="#DejaVuSans-116"/>
      <use x="742.871094" xlink:href="#DejaVuSans-101"/>
      <use x="804.394531" xlink:href="#DejaVuSans-32"/>
      <use x="836.181641" xlink:href="#DejaVuSans-97"/>
      <use x="897.460938" xlink:href="#DejaVuSans-108"/>
      <use x="925.244141" xlink:href="#DejaVuSans-105"/>
      <use x="953.027344" xlink:href="#DejaVuSans-103"/>
      <use x="1016.503906" xlink:href="#DejaVuSans-110"/>
      <use x="1079.882812" xlink:href="#DejaVuSans-101"/>
      <use x="1141.40625" xlink:href="#DejaVuSans-100"/>
     </g>
    </g>
   </g>
  </g>
 </g>
 <defs>
  <clipPath id="p30828a5c2d">
   <rect height="1422.156522" width="781.2" x="33.21625" y="10.7"/>
  </clipPath>
 </defs>
</svg>
