<?xml version="1.0" encoding="utf-8" standalone="no"?>
<!DOCTYPE svg PUBLIC "-//W3C//DTD SVG 1.1//EN"
  "http://www.w3.org/Graphics/SVG/1.1/DTD/svg11.dtd">
<!-- Created with matplotlib (https://matplotlib.org/) -->
<svg height="1519.216522pt" version="1.1" viewBox="0 0 825.11625 1519.216522" width="825.11625pt" xmlns="http://www.w3.org/2000/svg" xmlns:xlink="http://www.w3.org/1999/xlink">
 <defs>
  <style type="text/css">
*{stroke-linecap:butt;stroke-linejoin:round;}
  </style>
 </defs>
 <g id="figure_1">
  <g id="patch_1">
   <path d="M 0 1519.216522 
L 825.11625 1519.216522 
L 825.11625 -0 
L 0 -0 
z
" style="fill:#ffffff;"/>
  </g>
  <g id="axes_1">
   <g id="patch_2">
    <path d="M 33.21625 1432.856522 
L 814.41625 1432.856522 
L 814.41625 10.7 
L 33.21625 10.7 
z
" style="fill:#ffffff;"/>
   </g>
   <g id="matplotlib.axis_1">
    <g id="xtick_1">
     <g id="line2d_1">
      <path clip-path="url(#pae65ea3f7f)" d="M 33.21625 1432.856522 
L 33.21625 10.7 
" style="fill:none;stroke:#dedede;stroke-linecap:square;"/>
     </g>
     <g id="text_1">
      <!-- 0 -->
      <defs>
       <path d="M 31.78125 66.40625 
Q 24.171875 66.40625 20.328125 58.90625 
Q 16.5 51.421875 16.5 36.375 
Q 16.5 21.390625 20.328125 13.890625 
Q 24.171875 6.390625 31.78125 6.390625 
Q 39.453125 6.390625 43.28125 13.890625 
Q 47.125 21.390625 47.125 36.375 
Q 47.125 51.421875 43.28125 58.90625 
Q 39.453125 66.40625 31.78125 66.40625 
z
M 31.78125 74.21875 
Q 44.046875 74.21875 50.515625 64.515625 
Q 56.984375 54.828125 56.984375 36.375 
Q 56.984375 17.96875 50.515625 8.265625 
Q 44.046875 -1.421875 31.78125 -1.421875 
Q 19.53125 -1.421875 13.0625 8.265625 
Q 6.59375 17.96875 6.59375 36.375 
Q 6.59375 54.828125 13.0625 64.515625 
Q 19.53125 74.21875 31.78125 74.21875 
z
" id="DejaVuSans-48"/>
      </defs>
      <g transform="translate(30.67125 1445.935272)scale(0.08 -0.08)">
       <use xlink:href="#DejaVuSans-48"/>
      </g>
     </g>
    </g>
    <g id="xtick_2">
     <g id="line2d_2">
      <path clip-path="url(#pae65ea3f7f)" d="M 176.403444 1432.856522 
L 176.403444 10.7 
" style="fill:none;stroke:#dedede;stroke-linecap:square;"/>
     </g>
     <g id="text_2">
      <!-- 1 -->
      <defs>
       <path d="M 12.40625 8.296875 
L 28.515625 8.296875 
L 28.515625 63.921875 
L 10.984375 60.40625 
L 10.984375 69.390625 
L 28.421875 72.90625 
L 38.28125 72.90625 
L 38.28125 8.296875 
L 54.390625 8.296875 
L 54.390625 0 
L 12.40625 0 
z
" id="DejaVuSans-49"/>
      </defs>
      <g transform="translate(173.858444 1445.935272)scale(0.08 -0.08)">
       <use xlink:href="#DejaVuSans-49"/>
      </g>
     </g>
    </g>
    <g id="xtick_3">
     <g id="line2d_3">
      <path clip-path="url(#pae65ea3f7f)" d="M 319.590637 1432.856522 
L 319.590637 10.7 
" style="fill:none;stroke:#dedede;stroke-linecap:square;"/>
     </g>
     <g id="text_3">
      <!-- 2 -->
      <defs>
       <path d="M 19.1875 8.296875 
L 53.609375 8.296875 
L 53.609375 0 
L 7.328125 0 
L 7.328125 8.296875 
Q 12.9375 14.109375 22.625 23.890625 
Q 32.328125 33.6875 34.8125 36.53125 
Q 39.546875 41.84375 41.421875 45.53125 
Q 43.3125 49.21875 43.3125 52.78125 
Q 43.3125 58.59375 39.234375 62.25 
Q 35.15625 65.921875 28.609375 65.921875 
Q 23.96875 65.921875 18.8125 64.3125 
Q 13.671875 62.703125 7.8125 59.421875 
L 7.8125 69.390625 
Q 13.765625 71.78125 18.9375 73 
Q 24.125 74.21875 28.421875 74.21875 
Q 39.75 74.21875 46.484375 68.546875 
Q 53.21875 62.890625 53.21875 53.421875 
Q 53.21875 48.921875 51.53125 44.890625 
Q 49.859375 40.875 45.40625 35.40625 
Q 44.1875 33.984375 37.640625 27.21875 
Q 31.109375 20.453125 19.1875 8.296875 
z
" id="DejaVuSans-50"/>
      </defs>
      <g transform="translate(317.045637 1445.935272)scale(0.08 -0.08)">
       <use xlink:href="#DejaVuSans-50"/>
      </g>
     </g>
    </g>
    <g id="xtick_4">
     <g id="line2d_4">
      <path clip-path="url(#pae65ea3f7f)" d="M 462.777831 1432.856522 
L 462.777831 10.7 
" style="fill:none;stroke:#dedede;stroke-linecap:square;"/>
     </g>
     <g id="text_4">
      <!-- 3 -->
      <defs>
       <path d="M 40.578125 39.3125 
Q 47.65625 37.796875 51.625 33 
Q 55.609375 28.21875 55.609375 21.1875 
Q 55.609375 10.40625 48.1875 4.484375 
Q 40.765625 -1.421875 27.09375 -1.421875 
Q 22.515625 -1.421875 17.65625 -0.515625 
Q 12.796875 0.390625 7.625 2.203125 
L 7.625 11.71875 
Q 11.71875 9.328125 16.59375 8.109375 
Q 21.484375 6.890625 26.8125 6.890625 
Q 36.078125 6.890625 40.9375 10.546875 
Q 45.796875 14.203125 45.796875 21.1875 
Q 45.796875 27.640625 41.28125 31.265625 
Q 36.765625 34.90625 28.71875 34.90625 
L 20.21875 34.90625 
L 20.21875 43.015625 
L 29.109375 43.015625 
Q 36.375 43.015625 40.234375 45.921875 
Q 44.09375 48.828125 44.09375 54.296875 
Q 44.09375 59.90625 40.109375 62.90625 
Q 36.140625 65.921875 28.71875 65.921875 
Q 24.65625 65.921875 20.015625 65.03125 
Q 15.375 64.15625 9.8125 62.3125 
L 9.8125 71.09375 
Q 15.4375 72.65625 20.34375 73.4375 
Q 25.25 74.21875 29.59375 74.21875 
Q 40.828125 74.21875 47.359375 69.109375 
Q 53.90625 64.015625 53.90625 55.328125 
Q 53.90625 49.265625 50.4375 45.09375 
Q 46.96875 40.921875 40.578125 39.3125 
z
" id="DejaVuSans-51"/>
      </defs>
      <g transform="translate(460.232831 1445.935272)scale(0.08 -0.08)">
       <use xlink:href="#DejaVuSans-51"/>
      </g>
     </g>
    </g>
    <g id="xtick_5">
     <g id="line2d_5">
      <path clip-path="url(#pae65ea3f7f)" d="M 605.965025 1432.856522 
L 605.965025 10.7 
" style="fill:none;stroke:#dedede;stroke-linecap:square;"/>
     </g>
     <g id="text_5">
      <!-- 4 -->
      <defs>
       <path d="M 37.796875 64.3125 
L 12.890625 25.390625 
L 37.796875 25.390625 
z
M 35.203125 72.90625 
L 47.609375 72.90625 
L 47.609375 25.390625 
L 58.015625 25.390625 
L 58.015625 17.1875 
L 47.609375 17.1875 
L 47.609375 0 
L 37.796875 0 
L 37.796875 17.1875 
L 4.890625 17.1875 
L 4.890625 26.703125 
z
" id="DejaVuSans-52"/>
      </defs>
      <g transform="translate(603.420025 1445.935272)scale(0.08 -0.08)">
       <use xlink:href="#DejaVuSans-52"/>
      </g>
     </g>
    </g>
    <g id="xtick_6">
     <g id="line2d_6">
      <path clip-path="url(#pae65ea3f7f)" d="M 749.152219 1432.856522 
L 749.152219 10.7 
" style="fill:none;stroke:#dedede;stroke-linecap:square;"/>
     </g>
     <g id="text_6">
      <!-- 5 -->
      <defs>
       <path d="M 10.796875 72.90625 
L 49.515625 72.90625 
L 49.515625 64.59375 
L 19.828125 64.59375 
L 19.828125 46.734375 
Q 21.96875 47.46875 24.109375 47.828125 
Q 26.265625 48.1875 28.421875 48.1875 
Q 40.625 48.1875 47.75 41.5 
Q 54.890625 34.8125 54.890625 23.390625 
Q 54.890625 11.625 47.5625 5.09375 
Q 40.234375 -1.421875 26.90625 -1.421875 
Q 22.3125 -1.421875 17.546875 -0.640625 
Q 12.796875 0.140625 7.71875 1.703125 
L 7.71875 11.625 
Q 12.109375 9.234375 16.796875 8.0625 
Q 21.484375 6.890625 26.703125 6.890625 
Q 35.15625 6.890625 40.078125 11.328125 
Q 45.015625 15.765625 45.015625 23.390625 
Q 45.015625 31 40.078125 35.4375 
Q 35.15625 39.890625 26.703125 39.890625 
Q 22.75 39.890625 18.8125 39.015625 
Q 14.890625 38.140625 10.796875 36.28125 
z
" id="DejaVuSans-53"/>
      </defs>
      <g transform="translate(746.607219 1445.935272)scale(0.08 -0.08)">
       <use xlink:href="#DejaVuSans-53"/>
      </g>
     </g>
    </g>
    <g id="text_7">
     <!-- # Reads -->
     <defs>
      <path d="M 51.125 44 
L 36.921875 44 
L 32.8125 27.6875 
L 47.125 27.6875 
z
M 43.796875 71.78125 
L 38.71875 51.515625 
L 52.984375 51.515625 
L 58.109375 71.78125 
L 65.921875 71.78125 
L 60.890625 51.515625 
L 76.125 51.515625 
L 76.125 44 
L 58.984375 44 
L 54.984375 27.6875 
L 70.515625 27.6875 
L 70.515625 20.21875 
L 53.078125 20.21875 
L 48 0 
L 40.1875 0 
L 45.21875 20.21875 
L 30.90625 20.21875 
L 25.875 0 
L 18.015625 0 
L 23.09375 20.21875 
L 7.71875 20.21875 
L 7.71875 27.6875 
L 24.90625 27.6875 
L 29 44 
L 13.28125 44 
L 13.28125 51.515625 
L 30.90625 51.515625 
L 35.890625 71.78125 
z
" id="DejaVuSans-35"/>
      <path id="DejaVuSans-32"/>
      <path d="M 44.390625 34.1875 
Q 47.5625 33.109375 50.5625 29.59375 
Q 53.5625 26.078125 56.59375 19.921875 
L 66.609375 0 
L 56 0 
L 46.6875 18.703125 
Q 43.0625 26.03125 39.671875 28.421875 
Q 36.28125 30.8125 30.421875 30.8125 
L 19.671875 30.8125 
L 19.671875 0 
L 9.8125 0 
L 9.8125 72.90625 
L 32.078125 72.90625 
Q 44.578125 72.90625 50.734375 67.671875 
Q 56.890625 62.453125 56.890625 51.90625 
Q 56.890625 45.015625 53.6875 40.46875 
Q 50.484375 35.9375 44.390625 34.1875 
z
M 19.671875 64.796875 
L 19.671875 38.921875 
L 32.078125 38.921875 
Q 39.203125 38.921875 42.84375 42.21875 
Q 46.484375 45.515625 46.484375 51.90625 
Q 46.484375 58.296875 42.84375 61.546875 
Q 39.203125 64.796875 32.078125 64.796875 
z
" id="DejaVuSans-82"/>
      <path d="M 56.203125 29.59375 
L 56.203125 25.203125 
L 14.890625 25.203125 
Q 15.484375 15.921875 20.484375 11.0625 
Q 25.484375 6.203125 34.421875 6.203125 
Q 39.59375 6.203125 44.453125 7.46875 
Q 49.3125 8.734375 54.109375 11.28125 
L 54.109375 2.78125 
Q 49.265625 0.734375 44.1875 -0.34375 
Q 39.109375 -1.421875 33.890625 -1.421875 
Q 20.796875 -1.421875 13.15625 6.1875 
Q 5.515625 13.8125 5.515625 26.8125 
Q 5.515625 40.234375 12.765625 48.109375 
Q 20.015625 56 32.328125 56 
Q 43.359375 56 49.78125 48.890625 
Q 56.203125 41.796875 56.203125 29.59375 
z
M 47.21875 32.234375 
Q 47.125 39.59375 43.09375 43.984375 
Q 39.0625 48.390625 32.421875 48.390625 
Q 24.90625 48.390625 20.390625 44.140625 
Q 15.875 39.890625 15.1875 32.171875 
z
" id="DejaVuSans-101"/>
      <path d="M 34.28125 27.484375 
Q 23.390625 27.484375 19.1875 25 
Q 14.984375 22.515625 14.984375 16.5 
Q 14.984375 11.71875 18.140625 8.90625 
Q 21.296875 6.109375 26.703125 6.109375 
Q 34.1875 6.109375 38.703125 11.40625 
Q 43.21875 16.703125 43.21875 25.484375 
L 43.21875 27.484375 
z
M 52.203125 31.203125 
L 52.203125 0 
L 43.21875 0 
L 43.21875 8.296875 
Q 40.140625 3.328125 35.546875 0.953125 
Q 30.953125 -1.421875 24.3125 -1.421875 
Q 15.921875 -1.421875 10.953125 3.296875 
Q 6 8.015625 6 15.921875 
Q 6 25.140625 12.171875 29.828125 
Q 18.359375 34.515625 30.609375 34.515625 
L 43.21875 34.515625 
L 43.21875 35.40625 
Q 43.21875 41.609375 39.140625 45 
Q 35.0625 48.390625 27.6875 48.390625 
Q 23 48.390625 18.546875 47.265625 
Q 14.109375 46.140625 10.015625 43.890625 
L 10.015625 52.203125 
Q 14.9375 54.109375 19.578125 55.046875 
Q 24.21875 56 28.609375 56 
Q 40.484375 56 46.34375 49.84375 
Q 52.203125 43.703125 52.203125 31.203125 
z
" id="DejaVuSans-97"/>
      <path d="M 45.40625 46.390625 
L 45.40625 75.984375 
L 54.390625 75.984375 
L 54.390625 0 
L 45.40625 0 
L 45.40625 8.203125 
Q 42.578125 3.328125 38.25 0.953125 
Q 33.9375 -1.421875 27.875 -1.421875 
Q 17.96875 -1.421875 11.734375 6.484375 
Q 5.515625 14.40625 5.515625 27.296875 
Q 5.515625 40.1875 11.734375 48.09375 
Q 17.96875 56 27.875 56 
Q 33.9375 56 38.25 53.625 
Q 42.578125 51.265625 45.40625 46.390625 
z
M 14.796875 27.296875 
Q 14.796875 17.390625 18.875 11.75 
Q 22.953125 6.109375 30.078125 6.109375 
Q 37.203125 6.109375 41.296875 11.75 
Q 45.40625 17.390625 45.40625 27.296875 
Q 45.40625 37.203125 41.296875 42.84375 
Q 37.203125 48.484375 30.078125 48.484375 
Q 22.953125 48.484375 18.875 42.84375 
Q 14.796875 37.203125 14.796875 27.296875 
z
" id="DejaVuSans-100"/>
      <path d="M 44.28125 53.078125 
L 44.28125 44.578125 
Q 40.484375 46.53125 36.375 47.5 
Q 32.28125 48.484375 27.875 48.484375 
Q 21.1875 48.484375 17.84375 46.4375 
Q 14.5 44.390625 14.5 40.28125 
Q 14.5 37.15625 16.890625 35.375 
Q 19.28125 33.59375 26.515625 31.984375 
L 29.59375 31.296875 
Q 39.15625 29.25 43.1875 25.515625 
Q 47.21875 21.78125 47.21875 15.09375 
Q 47.21875 7.46875 41.1875 3.015625 
Q 35.15625 -1.421875 24.609375 -1.421875 
Q 20.21875 -1.421875 15.453125 -0.5625 
Q 10.6875 0.296875 5.421875 2 
L 5.421875 11.28125 
Q 10.40625 8.6875 15.234375 7.390625 
Q 20.0625 6.109375 24.8125 6.109375 
Q 31.15625 6.109375 34.5625 8.28125 
Q 37.984375 10.453125 37.984375 14.40625 
Q 37.984375 18.0625 35.515625 20.015625 
Q 33.0625 21.96875 24.703125 23.78125 
L 21.578125 24.515625 
Q 13.234375 26.265625 9.515625 29.90625 
Q 5.8125 33.546875 5.8125 39.890625 
Q 5.8125 47.609375 11.28125 51.796875 
Q 16.75 56 26.8125 56 
Q 31.78125 56 36.171875 55.265625 
Q 40.578125 54.546875 44.28125 53.078125 
z
" id="DejaVuSans-115"/>
     </defs>
     <g transform="translate(402.646719 1459.197459)scale(0.1 -0.1)">
      <use xlink:href="#DejaVuSans-35"/>
      <use x="83.789062" xlink:href="#DejaVuSans-32"/>
      <use x="115.576172" xlink:href="#DejaVuSans-82"/>
      <use x="184.996094" xlink:href="#DejaVuSans-101"/>
      <use x="246.519531" xlink:href="#DejaVuSans-97"/>
      <use x="307.798828" xlink:href="#DejaVuSans-100"/>
      <use x="371.275391" xlink:href="#DejaVuSans-115"/>
     </g>
    </g>
    <g id="text_8">
     <!-- 1e7 -->
     <defs>
      <path d="M 8.203125 72.90625 
L 55.078125 72.90625 
L 55.078125 68.703125 
L 28.609375 0 
L 18.3125 0 
L 43.21875 64.59375 
L 8.203125 64.59375 
z
" id="DejaVuSans-55"/>
     </defs>
     <g transform="translate(795.538125 1458.197459)scale(0.1 -0.1)">
      <use xlink:href="#DejaVuSans-49"/>
      <use x="63.623047" xlink:href="#DejaVuSans-101"/>
      <use x="125.146484" xlink:href="#DejaVuSans-55"/>
     </g>
    </g>
   </g>
   <g id="matplotlib.axis_2">
    <g id="ytick_1">
     <g id="text_9">
      <!-- BC1 -->
      <defs>
       <path d="M 19.671875 34.8125 
L 19.671875 8.109375 
L 35.5 8.109375 
Q 43.453125 8.109375 47.28125 11.40625 
Q 51.125 14.703125 51.125 21.484375 
Q 51.125 28.328125 47.28125 31.5625 
Q 43.453125 34.8125 35.5 34.8125 
z
M 19.671875 64.796875 
L 19.671875 42.828125 
L 34.28125 42.828125 
Q 41.5 42.828125 45.03125 45.53125 
Q 48.578125 48.25 48.578125 53.8125 
Q 48.578125 59.328125 45.03125 62.0625 
Q 41.5 64.796875 34.28125 64.796875 
z
M 9.8125 72.90625 
L 35.015625 72.90625 
Q 46.296875 72.90625 52.390625 68.21875 
Q 58.5 63.53125 58.5 54.890625 
Q 58.5 48.1875 55.375 44.234375 
Q 52.25 40.28125 46.1875 39.3125 
Q 53.46875 37.75 57.5 32.78125 
Q 61.53125 27.828125 61.53125 20.40625 
Q 61.53125 10.640625 54.890625 5.3125 
Q 48.25 0 35.984375 0 
L 9.8125 0 
z
" id="DejaVuSans-66"/>
       <path d="M 64.40625 67.28125 
L 64.40625 56.890625 
Q 59.421875 61.53125 53.78125 63.8125 
Q 48.140625 66.109375 41.796875 66.109375 
Q 29.296875 66.109375 22.65625 58.46875 
Q 16.015625 50.828125 16.015625 36.375 
Q 16.015625 21.96875 22.65625 14.328125 
Q 29.296875 6.6875 41.796875 6.6875 
Q 48.140625 6.6875 53.78125 8.984375 
Q 59.421875 11.28125 64.40625 15.921875 
L 64.40625 5.609375 
Q 59.234375 2.09375 53.4375 0.328125 
Q 47.65625 -1.421875 41.21875 -1.421875 
Q 24.65625 -1.421875 15.125 8.703125 
Q 5.609375 18.84375 5.609375 36.375 
Q 5.609375 53.953125 15.125 64.078125 
Q 24.65625 74.21875 41.21875 74.21875 
Q 47.75 74.21875 53.53125 72.484375 
Q 59.328125 70.75 64.40625 67.28125 
z
" id="DejaVuSans-67"/>
      </defs>
      <g transform="translate(10.0525 25.791549)scale(0.08 -0.08)">
       <use xlink:href="#DejaVuSans-66"/>
       <use x="68.587891" xlink:href="#DejaVuSans-67"/>
       <use x="138.412109" xlink:href="#DejaVuSans-49"/>
      </g>
     </g>
    </g>
    <g id="ytick_2">
     <g id="text_10">
      <!-- BC2 -->
      <g transform="translate(10.0525 49.895897)scale(0.08 -0.08)">
       <use xlink:href="#DejaVuSans-66"/>
       <use x="68.587891" xlink:href="#DejaVuSans-67"/>
       <use x="138.412109" xlink:href="#DejaVuSans-50"/>
      </g>
     </g>
    </g>
    <g id="ytick_3">
     <g id="text_11">
      <!-- BC3 -->
      <g transform="translate(10.0525 74.000245)scale(0.08 -0.08)">
       <use xlink:href="#DejaVuSans-66"/>
       <use x="68.587891" xlink:href="#DejaVuSans-67"/>
       <use x="138.412109" xlink:href="#DejaVuSans-51"/>
      </g>
     </g>
    </g>
    <g id="ytick_4">
     <g id="text_12">
      <!-- BC4 -->
      <g transform="translate(10.0525 98.104592)scale(0.08 -0.08)">
       <use xlink:href="#DejaVuSans-66"/>
       <use x="68.587891" xlink:href="#DejaVuSans-67"/>
       <use x="138.412109" xlink:href="#DejaVuSans-52"/>
      </g>
     </g>
    </g>
    <g id="ytick_5">
     <g id="text_13">
      <!-- BC5 -->
      <g transform="translate(10.0525 122.20894)scale(0.08 -0.08)">
       <use xlink:href="#DejaVuSans-66"/>
       <use x="68.587891" xlink:href="#DejaVuSans-67"/>
       <use x="138.412109" xlink:href="#DejaVuSans-53"/>
      </g>
     </g>
    </g>
    <g id="ytick_6">
     <g id="text_14">
      <!-- BH1 -->
      <defs>
       <path d="M 9.8125 72.90625 
L 19.671875 72.90625 
L 19.671875 43.015625 
L 55.515625 43.015625 
L 55.515625 72.90625 
L 65.375 72.90625 
L 65.375 0 
L 55.515625 0 
L 55.515625 34.71875 
L 19.671875 34.71875 
L 19.671875 0 
L 9.8125 0 
z
" id="DejaVuSans-72"/>
      </defs>
      <g transform="translate(9.62125 146.313288)scale(0.08 -0.08)">
       <use xlink:href="#DejaVuSans-66"/>
       <use x="68.603516" xlink:href="#DejaVuSans-72"/>
       <use x="143.798828" xlink:href="#DejaVuSans-49"/>
      </g>
     </g>
    </g>
    <g id="ytick_7">
     <g id="text_15">
      <!-- BH2 -->
      <g transform="translate(9.62125 170.417636)scale(0.08 -0.08)">
       <use xlink:href="#DejaVuSans-66"/>
       <use x="68.603516" xlink:href="#DejaVuSans-72"/>
       <use x="143.798828" xlink:href="#DejaVuSans-50"/>
      </g>
     </g>
    </g>
    <g id="ytick_8">
     <g id="text_16">
      <!-- BH3 -->
      <g transform="translate(9.62125 194.521984)scale(0.08 -0.08)">
       <use xlink:href="#DejaVuSans-66"/>
       <use x="68.603516" xlink:href="#DejaVuSans-72"/>
       <use x="143.798828" xlink:href="#DejaVuSans-51"/>
      </g>
     </g>
    </g>
    <g id="ytick_9">
     <g id="text_17">
      <!-- BH4 -->
      <g transform="translate(9.62125 218.626332)scale(0.08 -0.08)">
       <use xlink:href="#DejaVuSans-66"/>
       <use x="68.603516" xlink:href="#DejaVuSans-72"/>
       <use x="143.798828" xlink:href="#DejaVuSans-52"/>
      </g>
     </g>
    </g>
    <g id="ytick_10">
     <g id="text_18">
      <!-- BH5 -->
      <g transform="translate(9.62125 242.730679)scale(0.08 -0.08)">
       <use xlink:href="#DejaVuSans-66"/>
       <use x="68.603516" xlink:href="#DejaVuSans-72"/>
       <use x="143.798828" xlink:href="#DejaVuSans-53"/>
      </g>
     </g>
    </g>
    <g id="ytick_11">
     <g id="text_19">
      <!-- BN1 -->
      <defs>
       <path d="M 9.8125 72.90625 
L 23.09375 72.90625 
L 55.421875 11.921875 
L 55.421875 72.90625 
L 64.984375 72.90625 
L 64.984375 0 
L 51.703125 0 
L 19.390625 60.984375 
L 19.390625 0 
L 9.8125 0 
z
" id="DejaVuSans-78"/>
      </defs>
      <g transform="translate(9.6525 266.835027)scale(0.08 -0.08)">
       <use xlink:href="#DejaVuSans-66"/>
       <use x="68.603516" xlink:href="#DejaVuSans-78"/>
       <use x="143.408203" xlink:href="#DejaVuSans-49"/>
      </g>
     </g>
    </g>
    <g id="ytick_12">
     <g id="text_20">
      <!-- BN2 -->
      <g transform="translate(9.6525 290.939375)scale(0.08 -0.08)">
       <use xlink:href="#DejaVuSans-66"/>
       <use x="68.603516" xlink:href="#DejaVuSans-78"/>
       <use x="143.408203" xlink:href="#DejaVuSans-50"/>
      </g>
     </g>
    </g>
    <g id="ytick_13">
     <g id="text_21">
      <!-- BN3 -->
      <g transform="translate(9.6525 315.043723)scale(0.08 -0.08)">
       <use xlink:href="#DejaVuSans-66"/>
       <use x="68.603516" xlink:href="#DejaVuSans-78"/>
       <use x="143.408203" xlink:href="#DejaVuSans-51"/>
      </g>
     </g>
    </g>
    <g id="ytick_14">
     <g id="text_22">
      <!-- BN5 -->
      <g transform="translate(9.6525 339.148071)scale(0.08 -0.08)">
       <use xlink:href="#DejaVuSans-66"/>
       <use x="68.603516" xlink:href="#DejaVuSans-78"/>
       <use x="143.408203" xlink:href="#DejaVuSans-53"/>
      </g>
     </g>
    </g>
    <g id="ytick_15">
     <g id="text_23">
      <!-- MC1 -->
      <defs>
       <path d="M 9.8125 72.90625 
L 24.515625 72.90625 
L 43.109375 23.296875 
L 61.8125 72.90625 
L 76.515625 72.90625 
L 76.515625 0 
L 66.890625 0 
L 66.890625 64.015625 
L 48.09375 14.015625 
L 38.1875 14.015625 
L 19.390625 64.015625 
L 19.390625 0 
L 9.8125 0 
z
" id="DejaVuSans-77"/>
      </defs>
      <g transform="translate(8.6375 363.252418)scale(0.08 -0.08)">
       <use xlink:href="#DejaVuSans-77"/>
       <use x="86.279297" xlink:href="#DejaVuSans-67"/>
       <use x="156.103516" xlink:href="#DejaVuSans-49"/>
      </g>
     </g>
    </g>
    <g id="ytick_16">
     <g id="text_24">
      <!-- MC2 -->
      <g transform="translate(8.6375 387.356766)scale(0.08 -0.08)">
       <use xlink:href="#DejaVuSans-77"/>
       <use x="86.279297" xlink:href="#DejaVuSans-67"/>
       <use x="156.103516" xlink:href="#DejaVuSans-50"/>
      </g>
     </g>
    </g>
    <g id="ytick_17">
     <g id="text_25">
      <!-- MC3 -->
      <g transform="translate(8.6375 411.461114)scale(0.08 -0.08)">
       <use xlink:href="#DejaVuSans-77"/>
       <use x="86.279297" xlink:href="#DejaVuSans-67"/>
       <use x="156.103516" xlink:href="#DejaVuSans-51"/>
      </g>
     </g>
    </g>
    <g id="ytick_18">
     <g id="text_26">
      <!-- MC4 -->
      <g transform="translate(8.6375 435.565462)scale(0.08 -0.08)">
       <use xlink:href="#DejaVuSans-77"/>
       <use x="86.279297" xlink:href="#DejaVuSans-67"/>
       <use x="156.103516" xlink:href="#DejaVuSans-52"/>
      </g>
     </g>
    </g>
    <g id="ytick_19">
     <g id="text_27">
      <!-- MC5 -->
      <g transform="translate(8.6375 459.66981)scale(0.08 -0.08)">
       <use xlink:href="#DejaVuSans-77"/>
       <use x="86.279297" xlink:href="#DejaVuSans-67"/>
       <use x="156.103516" xlink:href="#DejaVuSans-53"/>
      </g>
     </g>
    </g>
    <g id="ytick_20">
     <g id="text_28">
      <!-- MH1 -->
      <g transform="translate(8.2075 483.774158)scale(0.08 -0.08)">
       <use xlink:href="#DejaVuSans-77"/>
       <use x="86.279297" xlink:href="#DejaVuSans-72"/>
       <use x="161.474609" xlink:href="#DejaVuSans-49"/>
      </g>
     </g>
    </g>
    <g id="ytick_21">
     <g id="text_29">
      <!-- MH2 -->
      <g transform="translate(8.2075 507.878505)scale(0.08 -0.08)">
       <use xlink:href="#DejaVuSans-77"/>
       <use x="86.279297" xlink:href="#DejaVuSans-72"/>
       <use x="161.474609" xlink:href="#DejaVuSans-50"/>
      </g>
     </g>
    </g>
    <g id="ytick_22">
     <g id="text_30">
      <!-- MH3 -->
      <g transform="translate(8.2075 531.982853)scale(0.08 -0.08)">
       <use xlink:href="#DejaVuSans-77"/>
       <use x="86.279297" xlink:href="#DejaVuSans-72"/>
       <use x="161.474609" xlink:href="#DejaVuSans-51"/>
      </g>
     </g>
    </g>
    <g id="ytick_23">
     <g id="text_31">
      <!-- MH4 -->
      <g transform="translate(8.2075 556.087201)scale(0.08 -0.08)">
       <use xlink:href="#DejaVuSans-77"/>
       <use x="86.279297" xlink:href="#DejaVuSans-72"/>
       <use x="161.474609" xlink:href="#DejaVuSans-52"/>
      </g>
     </g>
    </g>
    <g id="ytick_24">
     <g id="text_32">
      <!-- MH5 -->
      <g transform="translate(8.2075 580.191549)scale(0.08 -0.08)">
       <use xlink:href="#DejaVuSans-77"/>
       <use x="86.279297" xlink:href="#DejaVuSans-72"/>
       <use x="161.474609" xlink:href="#DejaVuSans-53"/>
      </g>
     </g>
    </g>
    <g id="ytick_25">
     <g id="text_33">
      <!-- MN1 -->
      <g transform="translate(8.23875 604.295897)scale(0.08 -0.08)">
       <use xlink:href="#DejaVuSans-77"/>
       <use x="86.279297" xlink:href="#DejaVuSans-78"/>
       <use x="161.083984" xlink:href="#DejaVuSans-49"/>
      </g>
     </g>
    </g>
    <g id="ytick_26">
     <g id="text_34">
      <!-- MN2 -->
      <g transform="translate(8.23875 628.400245)scale(0.08 -0.08)">
       <use xlink:href="#DejaVuSans-77"/>
       <use x="86.279297" xlink:href="#DejaVuSans-78"/>
       <use x="161.083984" xlink:href="#DejaVuSans-50"/>
      </g>
     </g>
    </g>
    <g id="ytick_27">
     <g id="text_35">
      <!-- MN3 -->
      <g transform="translate(8.23875 652.504592)scale(0.08 -0.08)">
       <use xlink:href="#DejaVuSans-77"/>
       <use x="86.279297" xlink:href="#DejaVuSans-78"/>
       <use x="161.083984" xlink:href="#DejaVuSans-51"/>
      </g>
     </g>
    </g>
    <g id="ytick_28">
     <g id="text_36">
      <!-- MN4 -->
      <g transform="translate(8.23875 676.60894)scale(0.08 -0.08)">
       <use xlink:href="#DejaVuSans-77"/>
       <use x="86.279297" xlink:href="#DejaVuSans-78"/>
       <use x="161.083984" xlink:href="#DejaVuSans-52"/>
      </g>
     </g>
    </g>
    <g id="ytick_29">
     <g id="text_37">
      <!-- MN5 -->
      <g transform="translate(8.23875 700.713288)scale(0.08 -0.08)">
       <use xlink:href="#DejaVuSans-77"/>
       <use x="86.279297" xlink:href="#DejaVuSans-78"/>
       <use x="161.083984" xlink:href="#DejaVuSans-53"/>
      </g>
     </g>
    </g>
    <g id="ytick_30">
     <g id="text_38">
      <!-- OC1 -->
      <defs>
       <path d="M 39.40625 66.21875 
Q 28.65625 66.21875 22.328125 58.203125 
Q 16.015625 50.203125 16.015625 36.375 
Q 16.015625 22.609375 22.328125 14.59375 
Q 28.65625 6.59375 39.40625 6.59375 
Q 50.140625 6.59375 56.421875 14.59375 
Q 62.703125 22.609375 62.703125 36.375 
Q 62.703125 50.203125 56.421875 58.203125 
Q 50.140625 66.21875 39.40625 66.21875 
z
M 39.40625 74.21875 
Q 54.734375 74.21875 63.90625 63.9375 
Q 73.09375 53.65625 73.09375 36.375 
Q 73.09375 19.140625 63.90625 8.859375 
Q 54.734375 -1.421875 39.40625 -1.421875 
Q 24.03125 -1.421875 14.8125 8.828125 
Q 5.609375 19.09375 5.609375 36.375 
Q 5.609375 53.65625 14.8125 63.9375 
Q 24.03125 74.21875 39.40625 74.21875 
z
" id="DejaVuSans-79"/>
      </defs>
      <g transform="translate(9.2425 724.817636)scale(0.08 -0.08)">
       <use xlink:href="#DejaVuSans-79"/>
       <use x="78.710938" xlink:href="#DejaVuSans-67"/>
       <use x="148.535156" xlink:href="#DejaVuSans-49"/>
      </g>
     </g>
    </g>
    <g id="ytick_31">
     <g id="text_39">
      <!-- OC2 -->
      <g transform="translate(9.2425 748.921984)scale(0.08 -0.08)">
       <use xlink:href="#DejaVuSans-79"/>
       <use x="78.710938" xlink:href="#DejaVuSans-67"/>
       <use x="148.535156" xlink:href="#DejaVuSans-50"/>
      </g>
     </g>
    </g>
    <g id="ytick_32">
     <g id="text_40">
      <!-- OC3 -->
      <g transform="translate(9.2425 773.026332)scale(0.08 -0.08)">
       <use xlink:href="#DejaVuSans-79"/>
       <use x="78.710938" xlink:href="#DejaVuSans-67"/>
       <use x="148.535156" xlink:href="#DejaVuSans-51"/>
      </g>
     </g>
    </g>
    <g id="ytick_33">
     <g id="text_41">
      <!-- OC4 -->
      <g transform="translate(9.2425 797.130679)scale(0.08 -0.08)">
       <use xlink:href="#DejaVuSans-79"/>
       <use x="78.710938" xlink:href="#DejaVuSans-67"/>
       <use x="148.535156" xlink:href="#DejaVuSans-52"/>
      </g>
     </g>
    </g>
    <g id="ytick_34">
     <g id="text_42">
      <!-- OC5 -->
      <g transform="translate(9.2425 821.235027)scale(0.08 -0.08)">
       <use xlink:href="#DejaVuSans-79"/>
       <use x="78.710938" xlink:href="#DejaVuSans-67"/>
       <use x="148.535156" xlink:href="#DejaVuSans-53"/>
      </g>
     </g>
    </g>
    <g id="ytick_35">
     <g id="text_43">
      <!-- OH1 -->
      <g transform="translate(8.8125 845.339375)scale(0.08 -0.08)">
       <use xlink:href="#DejaVuSans-79"/>
       <use x="78.710938" xlink:href="#DejaVuSans-72"/>
       <use x="153.90625" xlink:href="#DejaVuSans-49"/>
      </g>
     </g>
    </g>
    <g id="ytick_36">
     <g id="text_44">
      <!-- OH2 -->
      <g transform="translate(8.8125 869.443723)scale(0.08 -0.08)">
       <use xlink:href="#DejaVuSans-79"/>
       <use x="78.710938" xlink:href="#DejaVuSans-72"/>
       <use x="153.90625" xlink:href="#DejaVuSans-50"/>
      </g>
     </g>
    </g>
    <g id="ytick_37">
     <g id="text_45">
      <!-- OH3 -->
      <g transform="translate(8.8125 893.548071)scale(0.08 -0.08)">
       <use xlink:href="#DejaVuSans-79"/>
       <use x="78.710938" xlink:href="#DejaVuSans-72"/>
       <use x="153.90625" xlink:href="#DejaVuSans-51"/>
      </g>
     </g>
    </g>
    <g id="ytick_38">
     <g id="text_46">
      <!-- OH4 -->
      <g transform="translate(8.8125 917.652418)scale(0.08 -0.08)">
       <use xlink:href="#DejaVuSans-79"/>
       <use x="78.710938" xlink:href="#DejaVuSans-72"/>
       <use x="153.90625" xlink:href="#DejaVuSans-52"/>
      </g>
     </g>
    </g>
    <g id="ytick_39">
     <g id="text_47">
      <!-- OH5 -->
      <g transform="translate(8.8125 941.756766)scale(0.08 -0.08)">
       <use xlink:href="#DejaVuSans-79"/>
       <use x="78.710938" xlink:href="#DejaVuSans-72"/>
       <use x="153.90625" xlink:href="#DejaVuSans-53"/>
      </g>
     </g>
    </g>
    <g id="ytick_40">
     <g id="text_48">
      <!-- ON1 -->
      <g transform="translate(8.84375 965.861114)scale(0.08 -0.08)">
       <use xlink:href="#DejaVuSans-79"/>
       <use x="78.710938" xlink:href="#DejaVuSans-78"/>
       <use x="153.515625" xlink:href="#DejaVuSans-49"/>
      </g>
     </g>
    </g>
    <g id="ytick_41">
     <g id="text_49">
      <!-- ON2 -->
      <g transform="translate(8.84375 989.965462)scale(0.08 -0.08)">
       <use xlink:href="#DejaVuSans-79"/>
       <use x="78.710938" xlink:href="#DejaVuSans-78"/>
       <use x="153.515625" xlink:href="#DejaVuSans-50"/>
      </g>
     </g>
    </g>
    <g id="ytick_42">
     <g id="text_50">
      <!-- ON3 -->
      <g transform="translate(8.84375 1014.06981)scale(0.08 -0.08)">
       <use xlink:href="#DejaVuSans-79"/>
       <use x="78.710938" xlink:href="#DejaVuSans-78"/>
       <use x="153.515625" xlink:href="#DejaVuSans-51"/>
      </g>
     </g>
    </g>
    <g id="ytick_43">
     <g id="text_51">
      <!-- ON4 -->
      <g transform="translate(8.84375 1038.174158)scale(0.08 -0.08)">
       <use xlink:href="#DejaVuSans-79"/>
       <use x="78.710938" xlink:href="#DejaVuSans-78"/>
       <use x="153.515625" xlink:href="#DejaVuSans-52"/>
      </g>
     </g>
    </g>
    <g id="ytick_44">
     <g id="text_52">
      <!-- ON5 -->
      <g transform="translate(8.84375 1062.278505)scale(0.08 -0.08)">
       <use xlink:href="#DejaVuSans-79"/>
       <use x="78.710938" xlink:href="#DejaVuSans-78"/>
       <use x="153.515625" xlink:href="#DejaVuSans-53"/>
      </g>
     </g>
    </g>
    <g id="ytick_45">
     <g id="text_53">
      <!-- WC1 -->
      <defs>
       <path d="M 3.328125 72.90625 
L 13.28125 72.90625 
L 28.609375 11.28125 
L 43.890625 72.90625 
L 54.984375 72.90625 
L 70.3125 11.28125 
L 85.59375 72.90625 
L 95.609375 72.90625 
L 77.296875 0 
L 64.890625 0 
L 49.515625 63.28125 
L 33.984375 0 
L 21.578125 0 
z
" id="DejaVuSans-87"/>
      </defs>
      <g transform="translate(7.63 1086.382853)scale(0.08 -0.08)">
       <use xlink:href="#DejaVuSans-87"/>
       <use x="98.876953" xlink:href="#DejaVuSans-67"/>
       <use x="168.701172" xlink:href="#DejaVuSans-49"/>
      </g>
     </g>
    </g>
    <g id="ytick_46">
     <g id="text_54">
      <!-- WC2 -->
      <g transform="translate(7.63 1110.487201)scale(0.08 -0.08)">
       <use xlink:href="#DejaVuSans-87"/>
       <use x="98.876953" xlink:href="#DejaVuSans-67"/>
       <use x="168.701172" xlink:href="#DejaVuSans-50"/>
      </g>
     </g>
    </g>
    <g id="ytick_47">
     <g id="text_55">
      <!-- WC3 -->
      <g transform="translate(7.63 1134.591549)scale(0.08 -0.08)">
       <use xlink:href="#DejaVuSans-87"/>
       <use x="98.876953" xlink:href="#DejaVuSans-67"/>
       <use x="168.701172" xlink:href="#DejaVuSans-51"/>
      </g>
     </g>
    </g>
    <g id="ytick_48">
     <g id="text_56">
      <!-- WC4 -->
      <g transform="translate(7.63 1158.695897)scale(0.08 -0.08)">
       <use xlink:href="#DejaVuSans-87"/>
       <use x="98.876953" xlink:href="#DejaVuSans-67"/>
       <use x="168.701172" xlink:href="#DejaVuSans-52"/>
      </g>
     </g>
    </g>
    <g id="ytick_49">
     <g id="text_57">
      <!-- WC5 -->
      <g transform="translate(7.63 1182.800245)scale(0.08 -0.08)">
       <use xlink:href="#DejaVuSans-87"/>
       <use x="98.876953" xlink:href="#DejaVuSans-67"/>
       <use x="168.701172" xlink:href="#DejaVuSans-53"/>
      </g>
     </g>
    </g>
    <g id="ytick_50">
     <g id="text_58">
      <!-- WH1 -->
      <g transform="translate(7.2 1206.904592)scale(0.08 -0.08)">
       <use xlink:href="#DejaVuSans-87"/>
       <use x="98.876953" xlink:href="#DejaVuSans-72"/>
       <use x="174.072266" xlink:href="#DejaVuSans-49"/>
      </g>
     </g>
    </g>
    <g id="ytick_51">
     <g id="text_59">
      <!-- WH2 -->
      <g transform="translate(7.2 1231.00894)scale(0.08 -0.08)">
       <use xlink:href="#DejaVuSans-87"/>
       <use x="98.876953" xlink:href="#DejaVuSans-72"/>
       <use x="174.072266" xlink:href="#DejaVuSans-50"/>
      </g>
     </g>
    </g>
    <g id="ytick_52">
     <g id="text_60">
      <!-- WH3 -->
      <g transform="translate(7.2 1255.113288)scale(0.08 -0.08)">
       <use xlink:href="#DejaVuSans-87"/>
       <use x="98.876953" xlink:href="#DejaVuSans-72"/>
       <use x="174.072266" xlink:href="#DejaVuSans-51"/>
      </g>
     </g>
    </g>
    <g id="ytick_53">
     <g id="text_61">
      <!-- WH4 -->
      <g transform="translate(7.2 1279.217636)scale(0.08 -0.08)">
       <use xlink:href="#DejaVuSans-87"/>
       <use x="98.876953" xlink:href="#DejaVuSans-72"/>
       <use x="174.072266" xlink:href="#DejaVuSans-52"/>
      </g>
     </g>
    </g>
    <g id="ytick_54">
     <g id="text_62">
      <!-- WH5 -->
      <g transform="translate(7.2 1303.321984)scale(0.08 -0.08)">
       <use xlink:href="#DejaVuSans-87"/>
       <use x="98.876953" xlink:href="#DejaVuSans-72"/>
       <use x="174.072266" xlink:href="#DejaVuSans-53"/>
      </g>
     </g>
    </g>
    <g id="ytick_55">
     <g id="text_63">
      <!-- WN1 -->
      <g transform="translate(7.23125 1327.426332)scale(0.08 -0.08)">
       <use xlink:href="#DejaVuSans-87"/>
       <use x="98.876953" xlink:href="#DejaVuSans-78"/>
       <use x="173.681641" xlink:href="#DejaVuSans-49"/>
      </g>
     </g>
    </g>
    <g id="ytick_56">
     <g id="text_64">
      <!-- WN2 -->
      <g transform="translate(7.23125 1351.530679)scale(0.08 -0.08)">
       <use xlink:href="#DejaVuSans-87"/>
       <use x="98.876953" xlink:href="#DejaVuSans-78"/>
       <use x="173.681641" xlink:href="#DejaVuSans-50"/>
      </g>
     </g>
    </g>
    <g id="ytick_57">
     <g id="text_65">
      <!-- WN3 -->
      <g transform="translate(7.23125 1375.635027)scale(0.08 -0.08)">
       <use xlink:href="#DejaVuSans-87"/>
       <use x="98.876953" xlink:href="#DejaVuSans-78"/>
       <use x="173.681641" xlink:href="#DejaVuSans-51"/>
      </g>
     </g>
    </g>
    <g id="ytick_58">
     <g id="text_66">
      <!-- WN4 -->
      <g transform="translate(7.23125 1399.739375)scale(0.08 -0.08)">
       <use xlink:href="#DejaVuSans-87"/>
       <use x="98.876953" xlink:href="#DejaVuSans-78"/>
       <use x="173.681641" xlink:href="#DejaVuSans-52"/>
      </g>
     </g>
    </g>
    <g id="ytick_59">
     <g id="text_67">
      <!-- WN5 -->
      <g transform="translate(7.23125 1423.843723)scale(0.08 -0.08)">
       <use xlink:href="#DejaVuSans-87"/>
       <use x="98.876953" xlink:href="#DejaVuSans-78"/>
       <use x="173.681641" xlink:href="#DejaVuSans-53"/>
      </g>
     </g>
    </g>
   </g>
   <g id="patch_3">
    <path clip-path="url(#pae65ea3f7f)" d="M 33.21625 13.110435 
L 363.624723 13.110435 
L 363.624723 32.393913 
L 33.21625 32.393913 
z
" style="fill:#7cb5ec;"/>
   </g>
   <g id="patch_4">
    <path clip-path="url(#pae65ea3f7f)" d="M 33.21625 37.214783 
L 350.756934 37.214783 
L 350.756934 56.498261 
L 33.21625 56.498261 
z
" style="fill:#7cb5ec;"/>
   </g>
   <g id="patch_5">
    <path clip-path="url(#pae65ea3f7f)" d="M 33.21625 61.31913 
L 325.702626 61.31913 
L 325.702626 80.602609 
L 33.21625 80.602609 
z
" style="fill:#7cb5ec;"/>
   </g>
   <g id="patch_6">
    <path clip-path="url(#pae65ea3f7f)" d="M 33.21625 85.423478 
L 272.761423 85.423478 
L 272.761423 104.706957 
L 33.21625 104.706957 
z
" style="fill:#7cb5ec;"/>
   </g>
   <g id="patch_7">
    <path clip-path="url(#pae65ea3f7f)" d="M 33.21625 109.527826 
L 194.844308 109.527826 
L 194.844308 128.811304 
L 33.21625 128.811304 
z
" style="fill:#7cb5ec;"/>
   </g>
   <g id="patch_8">
    <path clip-path="url(#pae65ea3f7f)" d="M 33.21625 133.632174 
L 257.340363 133.632174 
L 257.340363 152.915652 
L 33.21625 152.915652 
z
" style="fill:#7cb5ec;"/>
   </g>
   <g id="patch_9">
    <path clip-path="url(#pae65ea3f7f)" d="M 33.21625 157.736522 
L 305.809772 157.736522 
L 305.809772 177.02 
L 33.21625 177.02 
z
" style="fill:#7cb5ec;"/>
   </g>
   <g id="patch_10">
    <path clip-path="url(#pae65ea3f7f)" d="M 33.21625 181.84087 
L 359.787521 181.84087 
L 359.787521 201.124348 
L 33.21625 201.124348 
z
" style="fill:#7cb5ec;"/>
   </g>
   <g id="patch_11">
    <path clip-path="url(#pae65ea3f7f)" d="M 33.21625 205.945217 
L 359.311094 205.945217 
L 359.311094 225.228696 
L 33.21625 225.228696 
z
" style="fill:#7cb5ec;"/>
   </g>
   <g id="patch_12">
    <path clip-path="url(#pae65ea3f7f)" d="M 33.21625 230.049565 
L 297.767578 230.049565 
L 297.767578 249.333043 
L 33.21625 249.333043 
z
" style="fill:#7cb5ec;"/>
   </g>
   <g id="patch_13">
    <path clip-path="url(#pae65ea3f7f)" d="M 33.21625 254.153913 
L 440.125503 254.153913 
L 440.125503 273.437391 
L 33.21625 273.437391 
z
" style="fill:#7cb5ec;"/>
   </g>
   <g id="patch_14">
    <path clip-path="url(#pae65ea3f7f)" d="M 33.21625 278.258261 
L 394.184164 278.258261 
L 394.184164 297.541739 
L 33.21625 297.541739 
z
" style="fill:#7cb5ec;"/>
   </g>
   <g id="patch_15">
    <path clip-path="url(#pae65ea3f7f)" d="M 33.21625 302.362609 
L 341.755714 302.362609 
L 341.755714 321.646087 
L 33.21625 321.646087 
z
" style="fill:#7cb5ec;"/>
   </g>
   <g id="patch_16">
    <path clip-path="url(#pae65ea3f7f)" d="M 33.21625 326.466957 
L 361.495444 326.466957 
L 361.495444 345.750435 
L 33.21625 345.750435 
z
" style="fill:#7cb5ec;"/>
   </g>
   <g id="patch_17">
    <path clip-path="url(#pae65ea3f7f)" d="M 33.21625 350.571304 
L 263.166464 350.571304 
L 263.166464 369.854783 
L 33.21625 369.854783 
z
" style="fill:#7cb5ec;"/>
   </g>
   <g id="patch_18">
    <path clip-path="url(#pae65ea3f7f)" d="M 33.21625 374.675652 
L 275.822007 374.675652 
L 275.822007 393.95913 
L 33.21625 393.95913 
z
" style="fill:#7cb5ec;"/>
   </g>
   <g id="patch_19">
    <path clip-path="url(#pae65ea3f7f)" d="M 33.21625 398.78 
L 191.932768 398.78 
L 191.932768 418.063478 
L 33.21625 418.063478 
z
" style="fill:#7cb5ec;"/>
   </g>
   <g id="patch_20">
    <path clip-path="url(#pae65ea3f7f)" d="M 33.21625 422.884348 
L 276.340015 422.884348 
L 276.340015 442.167826 
L 33.21625 442.167826 
z
" style="fill:#7cb5ec;"/>
   </g>
   <g id="patch_21">
    <path clip-path="url(#pae65ea3f7f)" d="M 33.21625 446.988696 
L 329.700455 446.988696 
L 329.700455 466.272174 
L 33.21625 466.272174 
z
" style="fill:#7cb5ec;"/>
   </g>
   <g id="patch_22">
    <path clip-path="url(#pae65ea3f7f)" d="M 33.21625 471.093043 
L 286.182001 471.093043 
L 286.182001 490.376522 
L 33.21625 490.376522 
z
" style="fill:#7cb5ec;"/>
   </g>
   <g id="patch_23">
    <path clip-path="url(#pae65ea3f7f)" d="M 33.21625 495.197391 
L 315.841624 495.197391 
L 315.841624 514.48087 
L 33.21625 514.48087 
z
" style="fill:#7cb5ec;"/>
   </g>
   <g id="patch_24">
    <path clip-path="url(#pae65ea3f7f)" d="M 33.21625 519.301739 
L 413.18519 519.301739 
L 413.18519 538.585217 
L 33.21625 538.585217 
z
" style="fill:#7cb5ec;"/>
   </g>
   <g id="patch_25">
    <path clip-path="url(#pae65ea3f7f)" d="M 33.21625 543.406087 
L 387.88092 543.406087 
L 387.88092 562.689565 
L 33.21625 562.689565 
z
" style="fill:#7cb5ec;"/>
   </g>
   <g id="patch_26">
    <path clip-path="url(#pae65ea3f7f)" d="M 33.21625 567.510435 
L 311.541556 567.510435 
L 311.541556 586.793913 
L 33.21625 586.793913 
z
" style="fill:#7cb5ec;"/>
   </g>
   <g id="patch_27">
    <path clip-path="url(#pae65ea3f7f)" d="M 33.21625 591.614783 
L 493.449989 591.614783 
L 493.449989 610.898261 
L 33.21625 610.898261 
z
" style="fill:#7cb5ec;"/>
   </g>
   <g id="patch_28">
    <path clip-path="url(#pae65ea3f7f)" d="M 33.21625 615.71913 
L 309.903566 615.71913 
L 309.903566 635.002609 
L 33.21625 635.002609 
z
" style="fill:#7cb5ec;"/>
   </g>
   <g id="patch_29">
    <path clip-path="url(#pae65ea3f7f)" d="M 33.21625 639.823478 
L 372.39418 639.823478 
L 372.39418 659.106957 
L 33.21625 659.106957 
z
" style="fill:#7cb5ec;"/>
   </g>
   <g id="patch_30">
    <path clip-path="url(#pae65ea3f7f)" d="M 33.21625 663.927826 
L 318.323016 663.927826 
L 318.323016 683.211304 
L 33.21625 683.211304 
z
" style="fill:#7cb5ec;"/>
   </g>
   <g id="patch_31">
    <path clip-path="url(#pae65ea3f7f)" d="M 33.21625 688.032174 
L 312.009477 688.032174 
L 312.009477 707.315652 
L 33.21625 707.315652 
z
" style="fill:#7cb5ec;"/>
   </g>
   <g id="patch_32">
    <path clip-path="url(#pae65ea3f7f)" d="M 33.21625 712.136522 
L 271.805749 712.136522 
L 271.805749 731.42 
L 33.21625 731.42 
z
" style="fill:#7cb5ec;"/>
   </g>
   <g id="patch_33">
    <path clip-path="url(#pae65ea3f7f)" d="M 33.21625 736.24087 
L 299.459406 736.24087 
L 299.459406 755.524348 
L 33.21625 755.524348 
z
" style="fill:#7cb5ec;"/>
   </g>
   <g id="patch_34">
    <path clip-path="url(#pae65ea3f7f)" d="M 33.21625 760.345217 
L 364.558275 760.345217 
L 364.558275 779.628696 
L 33.21625 779.628696 
z
" style="fill:#7cb5ec;"/>
   </g>
   <g id="patch_35">
    <path clip-path="url(#pae65ea3f7f)" d="M 33.21625 784.449565 
L 294.90538 784.449565 
L 294.90538 803.733043 
L 33.21625 803.733043 
z
" style="fill:#7cb5ec;"/>
   </g>
   <g id="patch_36">
    <path clip-path="url(#pae65ea3f7f)" d="M 33.21625 808.553913 
L 372.252725 808.553913 
L 372.252725 827.837391 
L 33.21625 827.837391 
z
" style="fill:#7cb5ec;"/>
   </g>
   <g id="patch_37">
    <path clip-path="url(#pae65ea3f7f)" d="M 33.21625 832.658261 
L 392.295868 832.658261 
L 392.295868 851.941739 
L 33.21625 851.941739 
z
" style="fill:#7cb5ec;"/>
   </g>
   <g id="patch_38">
    <path clip-path="url(#pae65ea3f7f)" d="M 33.21625 856.762609 
L 372.089077 856.762609 
L 372.089077 876.046087 
L 33.21625 876.046087 
z
" style="fill:#7cb5ec;"/>
   </g>
   <g id="patch_39">
    <path clip-path="url(#pae65ea3f7f)" d="M 33.21625 880.866957 
L 398.312694 880.866957 
L 398.312694 900.150435 
L 33.21625 900.150435 
z
" style="fill:#7cb5ec;"/>
   </g>
   <g id="patch_40">
    <path clip-path="url(#pae65ea3f7f)" d="M 33.21625 904.971304 
L 254.556847 904.971304 
L 254.556847 924.254783 
L 33.21625 924.254783 
z
" style="fill:#7cb5ec;"/>
   </g>
   <g id="patch_41">
    <path clip-path="url(#pae65ea3f7f)" d="M 33.21625 929.075652 
L 278.648536 929.075652 
L 278.648536 948.35913 
L 33.21625 948.35913 
z
" style="fill:#7cb5ec;"/>
   </g>
   <g id="patch_42">
    <path clip-path="url(#pae65ea3f7f)" d="M 33.21625 953.18 
L 278.738458 953.18 
L 278.738458 972.463478 
L 33.21625 972.463478 
z
" style="fill:#7cb5ec;"/>
   </g>
   <g id="patch_43">
    <path clip-path="url(#pae65ea3f7f)" d="M 33.21625 977.284348 
L 278.64709 977.284348 
L 278.64709 996.567826 
L 33.21625 996.567826 
z
" style="fill:#7cb5ec;"/>
   </g>
   <g id="patch_44">
    <path clip-path="url(#pae65ea3f7f)" d="M 33.21625 1001.388696 
L 264.745804 1001.388696 
L 264.745804 1020.672174 
L 33.21625 1020.672174 
z
" style="fill:#7cb5ec;"/>
   </g>
   <g id="patch_45">
    <path clip-path="url(#pae65ea3f7f)" d="M 33.21625 1025.493043 
L 462.44777 1025.493043 
L 462.44777 1044.776522 
L 33.21625 1044.776522 
z
" style="fill:#7cb5ec;"/>
   </g>
   <g id="patch_46">
    <path clip-path="url(#pae65ea3f7f)" d="M 33.21625 1049.597391 
L 442.928263 1049.597391 
L 442.928263 1068.88087 
L 33.21625 1068.88087 
z
" style="fill:#7cb5ec;"/>
   </g>
   <g id="patch_47">
    <path clip-path="url(#pae65ea3f7f)" d="M 33.21625 1073.701739 
L 308.831494 1073.701739 
L 308.831494 1092.985217 
L 33.21625 1092.985217 
z
" style="fill:#7cb5ec;"/>
   </g>
   <g id="patch_48">
    <path clip-path="url(#pae65ea3f7f)" d="M 33.21625 1097.806087 
L 240.662076 1097.806087 
L 240.662076 1117.089565 
L 33.21625 1117.089565 
z
" style="fill:#7cb5ec;"/>
   </g>
   <g id="patch_49">
    <path clip-path="url(#pae65ea3f7f)" d="M 33.21625 1121.910435 
L 372.455936 1121.910435 
L 372.455936 1141.193913 
L 33.21625 1141.193913 
z
" style="fill:#7cb5ec;"/>
   </g>
   <g id="patch_50">
    <path clip-path="url(#pae65ea3f7f)" d="M 33.21625 1146.014783 
L 469.145795 1146.014783 
L 469.145795 1165.298261 
L 33.21625 1165.298261 
z
" style="fill:#7cb5ec;"/>
   </g>
   <g id="patch_51">
    <path clip-path="url(#pae65ea3f7f)" d="M 33.21625 1170.11913 
L 564.896819 1170.11913 
L 564.896819 1189.402609 
L 33.21625 1189.402609 
z
" style="fill:#7cb5ec;"/>
   </g>
   <g id="patch_52">
    <path clip-path="url(#pae65ea3f7f)" d="M 33.21625 1194.223478 
L 311.587017 1194.223478 
L 311.587017 1213.506957 
L 33.21625 1213.506957 
z
" style="fill:#7cb5ec;"/>
   </g>
   <g id="patch_53">
    <path clip-path="url(#pae65ea3f7f)" d="M 33.21625 1218.327826 
L 409.432798 1218.327826 
L 409.432798 1237.611304 
L 33.21625 1237.611304 
z
" style="fill:#7cb5ec;"/>
   </g>
   <g id="patch_54">
    <path clip-path="url(#pae65ea3f7f)" d="M 33.21625 1242.432174 
L 293.451457 1242.432174 
L 293.451457 1261.715652 
L 33.21625 1261.715652 
z
" style="fill:#7cb5ec;"/>
   </g>
   <g id="patch_55">
    <path clip-path="url(#pae65ea3f7f)" d="M 33.21625 1266.536522 
L 260.369459 1266.536522 
L 260.369459 1285.82 
L 33.21625 1285.82 
z
" style="fill:#7cb5ec;"/>
   </g>
   <g id="patch_56">
    <path clip-path="url(#pae65ea3f7f)" d="M 33.21625 1290.64087 
L 326.481464 1290.64087 
L 326.481464 1309.924348 
L 33.21625 1309.924348 
z
" style="fill:#7cb5ec;"/>
   </g>
   <g id="patch_57">
    <path clip-path="url(#pae65ea3f7f)" d="M 33.21625 1314.745217 
L 447.575976 1314.745217 
L 447.575976 1334.028696 
L 33.21625 1334.028696 
z
" style="fill:#7cb5ec;"/>
   </g>
   <g id="patch_58">
    <path clip-path="url(#pae65ea3f7f)" d="M 33.21625 1338.849565 
L 393.615381 1338.849565 
L 393.615381 1358.133043 
L 33.21625 1358.133043 
z
" style="fill:#7cb5ec;"/>
   </g>
   <g id="patch_59">
    <path clip-path="url(#pae65ea3f7f)" d="M 33.21625 1362.953913 
L 466.570717 1362.953913 
L 466.570717 1382.237391 
L 33.21625 1382.237391 
z
" style="fill:#7cb5ec;"/>
   </g>
   <g id="patch_60">
    <path clip-path="url(#pae65ea3f7f)" d="M 33.21625 1387.058261 
L 440.547676 1387.058261 
L 440.547676 1406.341739 
L 33.21625 1406.341739 
z
" style="fill:#7cb5ec;"/>
   </g>
   <g id="patch_61">
    <path clip-path="url(#pae65ea3f7f)" d="M 33.21625 1411.162609 
L 582.711239 1411.162609 
L 582.711239 1430.446087 
L 33.21625 1430.446087 
z
" style="fill:#7cb5ec;"/>
   </g>
   <g id="patch_62">
    <path clip-path="url(#pae65ea3f7f)" d="M 363.624723 13.110435 
L 400.489183 13.110435 
L 400.489183 32.393913 
L 363.624723 32.393913 
z
" style="fill:#434348;"/>
   </g>
   <g id="patch_63">
    <path clip-path="url(#pae65ea3f7f)" d="M 350.756934 37.214783 
L 416.458521 37.214783 
L 416.458521 56.498261 
L 350.756934 56.498261 
z
" style="fill:#434348;"/>
   </g>
   <g id="patch_64">
    <path clip-path="url(#pae65ea3f7f)" d="M 325.702626 61.31913 
L 428.916924 61.31913 
L 428.916924 80.602609 
L 325.702626 80.602609 
z
" style="fill:#434348;"/>
   </g>
   <g id="patch_65">
    <path clip-path="url(#pae65ea3f7f)" d="M 272.761423 85.423478 
L 415.163149 85.423478 
L 415.163149 104.706957 
L 272.761423 104.706957 
z
" style="fill:#434348;"/>
   </g>
   <g id="patch_66">
    <path clip-path="url(#pae65ea3f7f)" d="M 194.844308 109.527826 
L 391.970031 109.527826 
L 391.970031 128.811304 
L 194.844308 128.811304 
z
" style="fill:#434348;"/>
   </g>
   <g id="patch_67">
    <path clip-path="url(#pae65ea3f7f)" d="M 257.340363 133.632174 
L 331.058944 133.632174 
L 331.058944 152.915652 
L 257.340363 152.915652 
z
" style="fill:#434348;"/>
   </g>
   <g id="patch_68">
    <path clip-path="url(#pae65ea3f7f)" d="M 305.809772 157.736522 
L 477.731571 157.736522 
L 477.731571 177.02 
L 305.809772 177.02 
z
" style="fill:#434348;"/>
   </g>
   <g id="patch_69">
    <path clip-path="url(#pae65ea3f7f)" d="M 359.787521 181.84087 
L 463.640763 181.84087 
L 463.640763 201.124348 
L 359.787521 201.124348 
z
" style="fill:#434348;"/>
   </g>
   <g id="patch_70">
    <path clip-path="url(#pae65ea3f7f)" d="M 359.311094 205.945217 
L 403.421885 205.945217 
L 403.421885 225.228696 
L 359.311094 225.228696 
z
" style="fill:#434348;"/>
   </g>
   <g id="patch_71">
    <path clip-path="url(#pae65ea3f7f)" d="M 297.767578 230.049565 
L 456.201415 230.049565 
L 456.201415 249.333043 
L 297.767578 249.333043 
z
" style="fill:#434348;"/>
   </g>
   <g id="patch_72">
    <path clip-path="url(#pae65ea3f7f)" d="M 440.125503 254.153913 
L 482.387962 254.153913 
L 482.387962 273.437391 
L 440.125503 273.437391 
z
" style="fill:#434348;"/>
   </g>
   <g id="patch_73">
    <path clip-path="url(#pae65ea3f7f)" d="M 394.184164 278.258261 
L 517.195165 278.258261 
L 517.195165 297.541739 
L 394.184164 297.541739 
z
" style="fill:#434348;"/>
   </g>
   <g id="patch_74">
    <path clip-path="url(#pae65ea3f7f)" d="M 341.755714 302.362609 
L 413.589823 302.362609 
L 413.589823 321.646087 
L 341.755714 321.646087 
z
" style="fill:#434348;"/>
   </g>
   <g id="patch_75">
    <path clip-path="url(#pae65ea3f7f)" d="M 361.495444 326.466957 
L 425.190534 326.466957 
L 425.190534 345.750435 
L 361.495444 345.750435 
z
" style="fill:#434348;"/>
   </g>
   <g id="patch_76">
    <path clip-path="url(#pae65ea3f7f)" d="M 263.166464 350.571304 
L 381.298648 350.571304 
L 381.298648 369.854783 
L 263.166464 369.854783 
z
" style="fill:#434348;"/>
   </g>
   <g id="patch_77">
    <path clip-path="url(#pae65ea3f7f)" d="M 275.822007 374.675652 
L 404.677637 374.675652 
L 404.677637 393.95913 
L 275.822007 393.95913 
z
" style="fill:#434348;"/>
   </g>
   <g id="patch_78">
    <path clip-path="url(#pae65ea3f7f)" d="M 191.932768 398.78 
L 334.261297 398.78 
L 334.261297 418.063478 
L 191.932768 418.063478 
z
" style="fill:#434348;"/>
   </g>
   <g id="patch_79">
    <path clip-path="url(#pae65ea3f7f)" d="M 276.340015 422.884348 
L 438.244223 422.884348 
L 438.244223 442.167826 
L 276.340015 442.167826 
z
" style="fill:#434348;"/>
   </g>
   <g id="patch_80">
    <path clip-path="url(#pae65ea3f7f)" d="M 329.700455 446.988696 
L 482.882888 446.988696 
L 482.882888 466.272174 
L 329.700455 466.272174 
z
" style="fill:#434348;"/>
   </g>
   <g id="patch_81">
    <path clip-path="url(#pae65ea3f7f)" d="M 286.182001 471.093043 
L 400.345623 471.093043 
L 400.345623 490.376522 
L 286.182001 490.376522 
z
" style="fill:#434348;"/>
   </g>
   <g id="patch_82">
    <path clip-path="url(#pae65ea3f7f)" d="M 315.841624 495.197391 
L 413.057209 495.197391 
L 413.057209 514.48087 
L 315.841624 514.48087 
z
" style="fill:#434348;"/>
   </g>
   <g id="patch_83">
    <path clip-path="url(#pae65ea3f7f)" d="M 413.18519 519.301739 
L 490.636088 519.301739 
L 490.636088 538.585217 
L 413.18519 538.585217 
z
" style="fill:#434348;"/>
   </g>
   <g id="patch_84">
    <path clip-path="url(#pae65ea3f7f)" d="M 387.88092 543.406087 
L 425.205426 543.406087 
L 425.205426 562.689565 
L 387.88092 562.689565 
z
" style="fill:#434348;"/>
   </g>
   <g id="patch_85">
    <path clip-path="url(#pae65ea3f7f)" d="M 311.541556 567.510435 
L 326.221164 567.510435 
L 326.221164 586.793913 
L 311.541556 586.793913 
z
" style="fill:#434348;"/>
   </g>
   <g id="patch_86">
    <path clip-path="url(#pae65ea3f7f)" d="M 493.449989 591.614783 
L 606.408619 591.614783 
L 606.408619 610.898261 
L 493.449989 610.898261 
z
" style="fill:#434348;"/>
   </g>
   <g id="patch_87">
    <path clip-path="url(#pae65ea3f7f)" d="M 309.903566 615.71913 
L 415.104185 615.71913 
L 415.104185 635.002609 
L 309.903566 635.002609 
z
" style="fill:#434348;"/>
   </g>
   <g id="patch_88">
    <path clip-path="url(#pae65ea3f7f)" d="M 372.39418 639.823478 
L 445.473401 639.823478 
L 445.473401 659.106957 
L 372.39418 659.106957 
z
" style="fill:#434348;"/>
   </g>
   <g id="patch_89">
    <path clip-path="url(#pae65ea3f7f)" d="M 318.323016 663.927826 
L 334.661891 663.927826 
L 334.661891 683.211304 
L 318.323016 683.211304 
z
" style="fill:#434348;"/>
   </g>
   <g id="patch_90">
    <path clip-path="url(#pae65ea3f7f)" d="M 312.009477 688.032174 
L 440.679766 688.032174 
L 440.679766 707.315652 
L 312.009477 707.315652 
z
" style="fill:#434348;"/>
   </g>
   <g id="patch_91">
    <path clip-path="url(#pae65ea3f7f)" d="M 271.805749 712.136522 
L 453.055192 712.136522 
L 453.055192 731.42 
L 271.805749 731.42 
z
" style="fill:#434348;"/>
   </g>
   <g id="patch_92">
    <path clip-path="url(#pae65ea3f7f)" d="M 299.459406 736.24087 
L 446.143174 736.24087 
L 446.143174 755.524348 
L 299.459406 755.524348 
z
" style="fill:#434348;"/>
   </g>
   <g id="patch_93">
    <path clip-path="url(#pae65ea3f7f)" d="M 364.558275 760.345217 
L 379.541984 760.345217 
L 379.541984 779.628696 
L 364.558275 779.628696 
z
" style="fill:#434348;"/>
   </g>
   <g id="patch_94">
    <path clip-path="url(#pae65ea3f7f)" d="M 294.90538 784.449565 
L 503.686398 784.449565 
L 503.686398 803.733043 
L 294.90538 803.733043 
z
" style="fill:#434348;"/>
   </g>
   <g id="patch_95">
    <path clip-path="url(#pae65ea3f7f)" d="M 372.252725 808.553913 
L 439.083472 808.553913 
L 439.083472 827.837391 
L 372.252725 827.837391 
z
" style="fill:#434348;"/>
   </g>
   <g id="patch_96">
    <path clip-path="url(#pae65ea3f7f)" d="M 392.295868 832.658261 
L 479.221706 832.658261 
L 479.221706 851.941739 
L 392.295868 851.941739 
z
" style="fill:#434348;"/>
   </g>
   <g id="patch_97">
    <path clip-path="url(#pae65ea3f7f)" d="M 372.089077 856.762609 
L 391.876816 856.762609 
L 391.876816 876.046087 
L 372.089077 876.046087 
z
" style="fill:#434348;"/>
   </g>
   <g id="patch_98">
    <path clip-path="url(#pae65ea3f7f)" d="M 398.312694 880.866957 
L 503.631099 880.866957 
L 503.631099 900.150435 
L 398.312694 900.150435 
z
" style="fill:#434348;"/>
   </g>
   <g id="patch_99">
    <path clip-path="url(#pae65ea3f7f)" d="M 254.556847 904.971304 
L 382.727584 904.971304 
L 382.727584 924.254783 
L 254.556847 924.254783 
z
" style="fill:#434348;"/>
   </g>
   <g id="patch_100">
    <path clip-path="url(#pae65ea3f7f)" d="M 278.648536 929.075652 
L 447.019279 929.075652 
L 447.019279 948.35913 
L 278.648536 948.35913 
z
" style="fill:#434348;"/>
   </g>
   <g id="patch_101">
    <path clip-path="url(#pae65ea3f7f)" d="M 278.738458 953.18 
L 428.285769 953.18 
L 428.285769 972.463478 
L 278.738458 972.463478 
z
" style="fill:#434348;"/>
   </g>
   <g id="patch_102">
    <path clip-path="url(#pae65ea3f7f)" d="M 278.64709 977.284348 
L 389.303055 977.284348 
L 389.303055 996.567826 
L 278.64709 996.567826 
z
" style="fill:#434348;"/>
   </g>
   <g id="patch_103">
    <path clip-path="url(#pae65ea3f7f)" d="M 264.745804 1001.388696 
L 429.773498 1001.388696 
L 429.773498 1020.672174 
L 264.745804 1020.672174 
z
" style="fill:#434348;"/>
   </g>
   <g id="patch_104">
    <path clip-path="url(#pae65ea3f7f)" d="M 462.44777 1025.493043 
L 650.15086 1025.493043 
L 650.15086 1044.776522 
L 462.44777 1044.776522 
z
" style="fill:#434348;"/>
   </g>
   <g id="patch_105">
    <path clip-path="url(#pae65ea3f7f)" d="M 442.928263 1049.597391 
L 538.713079 1049.597391 
L 538.713079 1068.88087 
L 442.928263 1068.88087 
z
" style="fill:#434348;"/>
   </g>
   <g id="patch_106">
    <path clip-path="url(#pae65ea3f7f)" d="M 308.831494 1073.701739 
L 457.831916 1073.701739 
L 457.831916 1092.985217 
L 308.831494 1092.985217 
z
" style="fill:#434348;"/>
   </g>
   <g id="patch_107">
    <path clip-path="url(#pae65ea3f7f)" d="M 240.662076 1097.806087 
L 312.691707 1097.806087 
L 312.691707 1117.089565 
L 240.662076 1117.089565 
z
" style="fill:#434348;"/>
   </g>
   <g id="patch_108">
    <path clip-path="url(#pae65ea3f7f)" d="M 372.455936 1121.910435 
L 464.344313 1121.910435 
L 464.344313 1141.193913 
L 372.455936 1141.193913 
z
" style="fill:#434348;"/>
   </g>
   <g id="patch_109">
    <path clip-path="url(#pae65ea3f7f)" d="M 469.145795 1146.014783 
L 520.836344 1146.014783 
L 520.836344 1165.298261 
L 469.145795 1165.298261 
z
" style="fill:#434348;"/>
   </g>
   <g id="patch_110">
    <path clip-path="url(#pae65ea3f7f)" d="M 564.896819 1170.11913 
L 693.634076 1170.11913 
L 693.634076 1189.402609 
L 564.896819 1189.402609 
z
" style="fill:#434348;"/>
   </g>
   <g id="patch_111">
    <path clip-path="url(#pae65ea3f7f)" d="M 311.587017 1194.223478 
L 376.819609 1194.223478 
L 376.819609 1213.506957 
L 311.587017 1213.506957 
z
" style="fill:#434348;"/>
   </g>
   <g id="patch_112">
    <path clip-path="url(#pae65ea3f7f)" d="M 409.432798 1218.327826 
L 486.610838 1218.327826 
L 486.610838 1237.611304 
L 409.432798 1237.611304 
z
" style="fill:#434348;"/>
   </g>
   <g id="patch_113">
    <path clip-path="url(#pae65ea3f7f)" d="M 293.451457 1242.432174 
L 360.95696 1242.432174 
L 360.95696 1261.715652 
L 293.451457 1261.715652 
z
" style="fill:#434348;"/>
   </g>
   <g id="patch_114">
    <path clip-path="url(#pae65ea3f7f)" d="M 260.369459 1266.536522 
L 385.563894 1266.536522 
L 385.563894 1285.82 
L 260.369459 1285.82 
z
" style="fill:#434348;"/>
   </g>
   <g id="patch_115">
    <path clip-path="url(#pae65ea3f7f)" d="M 326.481464 1290.64087 
L 528.991613 1290.64087 
L 528.991613 1309.924348 
L 326.481464 1309.924348 
z
" style="fill:#434348;"/>
   </g>
   <g id="patch_116">
    <path clip-path="url(#pae65ea3f7f)" d="M 447.575976 1314.745217 
L 590.340324 1314.745217 
L 590.340324 1334.028696 
L 447.575976 1334.028696 
z
" style="fill:#434348;"/>
   </g>
   <g id="patch_117">
    <path clip-path="url(#pae65ea3f7f)" d="M 393.615381 1338.849565 
L 473.236267 1338.849565 
L 473.236267 1358.133043 
L 393.615381 1358.133043 
z
" style="fill:#434348;"/>
   </g>
   <g id="patch_118">
    <path clip-path="url(#pae65ea3f7f)" d="M 466.570717 1362.953913 
L 559.62007 1362.953913 
L 559.62007 1382.237391 
L 466.570717 1382.237391 
z
" style="fill:#434348;"/>
   </g>
   <g id="patch_119">
    <path clip-path="url(#pae65ea3f7f)" d="M 440.547676 1387.058261 
L 525.313535 1387.058261 
L 525.313535 1406.341739 
L 440.547676 1406.341739 
z
" style="fill:#434348;"/>
   </g>
   <g id="patch_120">
    <path clip-path="url(#pae65ea3f7f)" d="M 582.711239 1411.162609 
L 735.349575 1411.162609 
L 735.349575 1430.446087 
L 582.711239 1430.446087 
z
" style="fill:#434348;"/>
   </g>
   <g id="patch_121">
    <path clip-path="url(#pae65ea3f7f)" d="M 400.489183 13.110435 
L 421.516795 13.110435 
L 421.516795 32.393913 
L 400.489183 32.393913 
z
" style="fill:#90ed7d;"/>
   </g>
   <g id="patch_122">
    <path clip-path="url(#pae65ea3f7f)" d="M 416.458521 37.214783 
L 438.036387 37.214783 
L 438.036387 56.498261 
L 416.458521 56.498261 
z
" style="fill:#90ed7d;"/>
   </g>
   <g id="patch_123">
    <path clip-path="url(#pae65ea3f7f)" d="M 428.916924 61.31913 
L 456.0708 61.31913 
L 456.0708 80.602609 
L 428.916924 80.602609 
z
" style="fill:#90ed7d;"/>
   </g>
   <g id="patch_124">
    <path clip-path="url(#pae65ea3f7f)" d="M 415.163149 85.423478 
L 440.716336 85.423478 
L 440.716336 104.706957 
L 415.163149 104.706957 
z
" style="fill:#90ed7d;"/>
   </g>
   <g id="patch_125">
    <path clip-path="url(#pae65ea3f7f)" d="M 391.970031 109.527826 
L 414.58589 109.527826 
L 414.58589 128.811304 
L 391.970031 128.811304 
z
" style="fill:#90ed7d;"/>
   </g>
   <g id="patch_126">
    <path clip-path="url(#pae65ea3f7f)" d="M 331.058944 133.632174 
L 351.166134 133.632174 
L 351.166134 152.915652 
L 331.058944 152.915652 
z
" style="fill:#90ed7d;"/>
   </g>
   <g id="patch_127">
    <path clip-path="url(#pae65ea3f7f)" d="M 477.731571 157.736522 
L 508.519911 157.736522 
L 508.519911 177.02 
L 477.731571 177.02 
z
" style="fill:#90ed7d;"/>
   </g>
   <g id="patch_128">
    <path clip-path="url(#pae65ea3f7f)" d="M 463.640763 181.84087 
L 500.268004 181.84087 
L 500.268004 201.124348 
L 463.640763 201.124348 
z
" style="fill:#90ed7d;"/>
   </g>
   <g id="patch_129">
    <path clip-path="url(#pae65ea3f7f)" d="M 403.421885 205.945217 
L 432.165383 205.945217 
L 432.165383 225.228696 
L 403.421885 225.228696 
z
" style="fill:#90ed7d;"/>
   </g>
   <g id="patch_130">
    <path clip-path="url(#pae65ea3f7f)" d="M 456.201415 230.049565 
L 487.469976 230.049565 
L 487.469976 249.333043 
L 456.201415 249.333043 
z
" style="fill:#90ed7d;"/>
   </g>
   <g id="patch_131">
    <path clip-path="url(#pae65ea3f7f)" d="M 482.387962 254.153913 
L 504.52433 254.153913 
L 504.52433 273.437391 
L 482.387962 273.437391 
z
" style="fill:#90ed7d;"/>
   </g>
   <g id="patch_132">
    <path clip-path="url(#pae65ea3f7f)" d="M 517.195165 278.258261 
L 545.535748 278.258261 
L 545.535748 297.541739 
L 517.195165 297.541739 
z
" style="fill:#90ed7d;"/>
   </g>
   <g id="patch_133">
    <path clip-path="url(#pae65ea3f7f)" d="M 413.589823 302.362609 
L 431.080267 302.362609 
L 431.080267 321.646087 
L 413.589823 321.646087 
z
" style="fill:#90ed7d;"/>
   </g>
   <g id="patch_134">
    <path clip-path="url(#pae65ea3f7f)" d="M 425.190534 326.466957 
L 445.803347 326.466957 
L 445.803347 345.750435 
L 425.190534 345.750435 
z
" style="fill:#90ed7d;"/>
   </g>
   <g id="patch_135">
    <path clip-path="url(#pae65ea3f7f)" d="M 381.298648 350.571304 
L 403.133377 350.571304 
L 403.133377 369.854783 
L 381.298648 369.854783 
z
" style="fill:#90ed7d;"/>
   </g>
   <g id="patch_136">
    <path clip-path="url(#pae65ea3f7f)" d="M 404.677637 374.675652 
L 427.451546 374.675652 
L 427.451546 393.95913 
L 404.677637 393.95913 
z
" style="fill:#90ed7d;"/>
   </g>
   <g id="patch_137">
    <path clip-path="url(#pae65ea3f7f)" d="M 334.261297 398.78 
L 353.953473 398.78 
L 353.953473 418.063478 
L 334.261297 418.063478 
z
" style="fill:#90ed7d;"/>
   </g>
   <g id="patch_138">
    <path clip-path="url(#pae65ea3f7f)" d="M 438.244223 422.884348 
L 466.026505 422.884348 
L 466.026505 442.167826 
L 438.244223 442.167826 
z
" style="fill:#90ed7d;"/>
   </g>
   <g id="patch_139">
    <path clip-path="url(#pae65ea3f7f)" d="M 482.882888 446.988696 
L 512.774146 446.988696 
L 512.774146 466.272174 
L 482.882888 466.272174 
z
" style="fill:#90ed7d;"/>
   </g>
   <g id="patch_140">
    <path clip-path="url(#pae65ea3f7f)" d="M 400.345623 471.093043 
L 424.894996 471.093043 
L 424.894996 490.376522 
L 400.345623 490.376522 
z
" style="fill:#90ed7d;"/>
   </g>
   <g id="patch_141">
    <path clip-path="url(#pae65ea3f7f)" d="M 413.057209 495.197391 
L 437.519324 495.197391 
L 437.519324 514.48087 
L 413.057209 514.48087 
z
" style="fill:#90ed7d;"/>
   </g>
   <g id="patch_142">
    <path clip-path="url(#pae65ea3f7f)" d="M 490.636088 519.301739 
L 521.928103 519.301739 
L 521.928103 538.585217 
L 490.636088 538.585217 
z
" style="fill:#90ed7d;"/>
   </g>
   <g id="patch_143">
    <path clip-path="url(#pae65ea3f7f)" d="M 425.205426 543.406087 
L 459.013955 543.406087 
L 459.013955 562.689565 
L 425.205426 562.689565 
z
" style="fill:#90ed7d;"/>
   </g>
   <g id="patch_144">
    <path clip-path="url(#pae65ea3f7f)" d="M 326.221164 567.510435 
L 352.774714 567.510435 
L 352.774714 586.793913 
L 326.221164 586.793913 
z
" style="fill:#90ed7d;"/>
   </g>
   <g id="patch_145">
    <path clip-path="url(#pae65ea3f7f)" d="M 606.408619 591.614783 
L 633.89257 591.614783 
L 633.89257 610.898261 
L 606.408619 610.898261 
z
" style="fill:#90ed7d;"/>
   </g>
   <g id="patch_146">
    <path clip-path="url(#pae65ea3f7f)" d="M 415.104185 615.71913 
L 437.584417 615.71913 
L 437.584417 635.002609 
L 415.104185 635.002609 
z
" style="fill:#90ed7d;"/>
   </g>
   <g id="patch_147">
    <path clip-path="url(#pae65ea3f7f)" d="M 445.473401 639.823478 
L 467.80973 639.823478 
L 467.80973 659.106957 
L 445.473401 659.106957 
z
" style="fill:#90ed7d;"/>
   </g>
   <g id="patch_148">
    <path clip-path="url(#pae65ea3f7f)" d="M 334.661891 663.927826 
L 348.138011 663.927826 
L 348.138011 683.211304 
L 334.661891 683.211304 
z
" style="fill:#90ed7d;"/>
   </g>
   <g id="patch_149">
    <path clip-path="url(#pae65ea3f7f)" d="M 440.679766 688.032174 
L 464.107482 688.032174 
L 464.107482 707.315652 
L 440.679766 707.315652 
z
" style="fill:#90ed7d;"/>
   </g>
   <g id="patch_150">
    <path clip-path="url(#pae65ea3f7f)" d="M 453.055192 712.136522 
L 482.51159 712.136522 
L 482.51159 731.42 
L 453.055192 731.42 
z
" style="fill:#90ed7d;"/>
   </g>
   <g id="patch_151">
    <path clip-path="url(#pae65ea3f7f)" d="M 446.143174 736.24087 
L 469.789465 736.24087 
L 469.789465 755.524348 
L 446.143174 755.524348 
z
" style="fill:#90ed7d;"/>
   </g>
   <g id="patch_152">
    <path clip-path="url(#pae65ea3f7f)" d="M 379.541984 760.345217 
L 405.027443 760.345217 
L 405.027443 779.628696 
L 379.541984 779.628696 
z
" style="fill:#90ed7d;"/>
   </g>
   <g id="patch_153">
    <path clip-path="url(#pae65ea3f7f)" d="M 503.686398 784.449565 
L 531.139307 784.449565 
L 531.139307 803.733043 
L 503.686398 803.733043 
z
" style="fill:#90ed7d;"/>
   </g>
   <g id="patch_154">
    <path clip-path="url(#pae65ea3f7f)" d="M 439.083472 808.553913 
L 461.962838 808.553913 
L 461.962838 827.837391 
L 439.083472 827.837391 
z
" style="fill:#90ed7d;"/>
   </g>
   <g id="patch_155">
    <path clip-path="url(#pae65ea3f7f)" d="M 479.221706 832.658261 
L 516.55214 832.658261 
L 516.55214 851.941739 
L 479.221706 851.941739 
z
" style="fill:#90ed7d;"/>
   </g>
   <g id="patch_156">
    <path clip-path="url(#pae65ea3f7f)" d="M 391.876816 856.762609 
L 419.018465 856.762609 
L 419.018465 876.046087 
L 391.876816 876.046087 
z
" style="fill:#90ed7d;"/>
   </g>
   <g id="patch_157">
    <path clip-path="url(#pae65ea3f7f)" d="M 503.631099 880.866957 
L 547.276288 880.866957 
L 547.276288 900.150435 
L 503.631099 900.150435 
z
" style="fill:#90ed7d;"/>
   </g>
   <g id="patch_158">
    <path clip-path="url(#pae65ea3f7f)" d="M 382.727584 904.971304 
L 415.583461 904.971304 
L 415.583461 924.254783 
L 382.727584 924.254783 
z
" style="fill:#90ed7d;"/>
   </g>
   <g id="patch_159">
    <path clip-path="url(#pae65ea3f7f)" d="M 447.019279 929.075652 
L 478.340547 929.075652 
L 478.340547 948.35913 
L 447.019279 948.35913 
z
" style="fill:#90ed7d;"/>
   </g>
   <g id="patch_160">
    <path clip-path="url(#pae65ea3f7f)" d="M 428.285769 953.18 
L 450.791388 953.18 
L 450.791388 972.463478 
L 428.285769 972.463478 
z
" style="fill:#90ed7d;"/>
   </g>
   <g id="patch_161">
    <path clip-path="url(#pae65ea3f7f)" d="M 389.303055 977.284348 
L 408.269259 977.284348 
L 408.269259 996.567826 
L 389.303055 996.567826 
z
" style="fill:#90ed7d;"/>
   </g>
   <g id="patch_162">
    <path clip-path="url(#pae65ea3f7f)" d="M 429.773498 1001.388696 
L 453.963872 1001.388696 
L 453.963872 1020.672174 
L 429.773498 1020.672174 
z
" style="fill:#90ed7d;"/>
   </g>
   <g id="patch_163">
    <path clip-path="url(#pae65ea3f7f)" d="M 650.15086 1025.493043 
L 690.053938 1025.493043 
L 690.053938 1044.776522 
L 650.15086 1044.776522 
z
" style="fill:#90ed7d;"/>
   </g>
   <g id="patch_164">
    <path clip-path="url(#pae65ea3f7f)" d="M 538.713079 1049.597391 
L 565.165237 1049.597391 
L 565.165237 1068.88087 
L 538.713079 1068.88087 
z
" style="fill:#90ed7d;"/>
   </g>
   <g id="patch_165">
    <path clip-path="url(#pae65ea3f7f)" d="M 457.831916 1073.701739 
L 480.23729 1073.701739 
L 480.23729 1092.985217 
L 457.831916 1092.985217 
z
" style="fill:#90ed7d;"/>
   </g>
   <g id="patch_166">
    <path clip-path="url(#pae65ea3f7f)" d="M 312.691707 1097.806087 
L 327.036271 1097.806087 
L 327.036271 1117.089565 
L 312.691707 1117.089565 
z
" style="fill:#90ed7d;"/>
   </g>
   <g id="patch_167">
    <path clip-path="url(#pae65ea3f7f)" d="M 464.344313 1121.910435 
L 485.21104 1121.910435 
L 485.21104 1141.193913 
L 464.344313 1141.193913 
z
" style="fill:#90ed7d;"/>
   </g>
   <g id="patch_168">
    <path clip-path="url(#pae65ea3f7f)" d="M 520.836344 1146.014783 
L 543.580684 1146.014783 
L 543.580684 1165.298261 
L 520.836344 1165.298261 
z
" style="fill:#90ed7d;"/>
   </g>
   <g id="patch_169">
    <path clip-path="url(#pae65ea3f7f)" d="M 693.634076 1170.11913 
L 724.892542 1170.11913 
L 724.892542 1189.402609 
L 693.634076 1189.402609 
z
" style="fill:#90ed7d;"/>
   </g>
   <g id="patch_170">
    <path clip-path="url(#pae65ea3f7f)" d="M 376.819609 1194.223478 
L 401.581457 1194.223478 
L 401.581457 1213.506957 
L 376.819609 1213.506957 
z
" style="fill:#90ed7d;"/>
   </g>
   <g id="patch_171">
    <path clip-path="url(#pae65ea3f7f)" d="M 486.610838 1218.327826 
L 523.176724 1218.327826 
L 523.176724 1237.611304 
L 486.610838 1237.611304 
z
" style="fill:#90ed7d;"/>
   </g>
   <g id="patch_172">
    <path clip-path="url(#pae65ea3f7f)" d="M 360.95696 1242.432174 
L 386.608516 1242.432174 
L 386.608516 1261.715652 
L 360.95696 1261.715652 
z
" style="fill:#90ed7d;"/>
   </g>
   <g id="patch_173">
    <path clip-path="url(#pae65ea3f7f)" d="M 385.563894 1266.536522 
L 410.298951 1266.536522 
L 410.298951 1285.82 
L 385.563894 1285.82 
z
" style="fill:#90ed7d;"/>
   </g>
   <g id="patch_174">
    <path clip-path="url(#pae65ea3f7f)" d="M 528.991613 1290.64087 
L 564.720584 1290.64087 
L 564.720584 1309.924348 
L 528.991613 1309.924348 
z
" style="fill:#90ed7d;"/>
   </g>
   <g id="patch_175">
    <path clip-path="url(#pae65ea3f7f)" d="M 590.340324 1314.745217 
L 616.877536 1314.745217 
L 616.877536 1334.028696 
L 590.340324 1334.028696 
z
" style="fill:#90ed7d;"/>
   </g>
   <g id="patch_176">
    <path clip-path="url(#pae65ea3f7f)" d="M 473.236267 1338.849565 
L 490.366553 1338.849565 
L 490.366553 1358.133043 
L 473.236267 1358.133043 
z
" style="fill:#90ed7d;"/>
   </g>
   <g id="patch_177">
    <path clip-path="url(#pae65ea3f7f)" d="M 559.62007 1362.953913 
L 582.855757 1362.953913 
L 582.855757 1382.237391 
L 559.62007 1382.237391 
z
" style="fill:#90ed7d;"/>
   </g>
   <g id="patch_178">
    <path clip-path="url(#pae65ea3f7f)" d="M 525.313535 1387.058261 
L 547.648575 1387.058261 
L 547.648575 1406.341739 
L 525.313535 1406.341739 
z
" style="fill:#90ed7d;"/>
   </g>
   <g id="patch_179">
    <path clip-path="url(#pae65ea3f7f)" d="M 735.349575 1411.162609 
L 766.56918 1411.162609 
L 766.56918 1430.446087 
L 735.349575 1430.446087 
z
" style="fill:#90ed7d;"/>
   </g>
   <g id="patch_180">
    <path clip-path="url(#pae65ea3f7f)" d="M 421.516795 13.110435 
L 425.813986 13.110435 
L 425.813986 32.393913 
L 421.516795 32.393913 
z
" style="fill:#f7a35c;"/>
   </g>
   <g id="patch_181">
    <path clip-path="url(#pae65ea3f7f)" d="M 438.036387 37.214783 
L 442.658055 37.214783 
L 442.658055 56.498261 
L 438.036387 56.498261 
z
" style="fill:#f7a35c;"/>
   </g>
   <g id="patch_182">
    <path clip-path="url(#pae65ea3f7f)" d="M 456.0708 61.31913 
L 460.636882 61.31913 
L 460.636882 80.602609 
L 456.0708 80.602609 
z
" style="fill:#f7a35c;"/>
   </g>
   <g id="patch_183">
    <path clip-path="url(#pae65ea3f7f)" d="M 440.716336 85.423478 
L 445.34628 85.423478 
L 445.34628 104.706957 
L 440.716336 104.706957 
z
" style="fill:#f7a35c;"/>
   </g>
   <g id="patch_184">
    <path clip-path="url(#pae65ea3f7f)" d="M 414.58589 109.527826 
L 418.772025 109.527826 
L 418.772025 128.811304 
L 414.58589 128.811304 
z
" style="fill:#f7a35c;"/>
   </g>
   <g id="patch_185">
    <path clip-path="url(#pae65ea3f7f)" d="M 351.166134 133.632174 
L 355.567895 133.632174 
L 355.567895 152.915652 
L 351.166134 152.915652 
z
" style="fill:#f7a35c;"/>
   </g>
   <g id="patch_186">
    <path clip-path="url(#pae65ea3f7f)" d="M 508.519911 157.736522 
L 515.041329 157.736522 
L 515.041329 177.02 
L 508.519911 177.02 
z
" style="fill:#f7a35c;"/>
   </g>
   <g id="patch_187">
    <path clip-path="url(#pae65ea3f7f)" d="M 500.268004 181.84087 
L 506.640436 181.84087 
L 506.640436 201.124348 
L 500.268004 201.124348 
z
" style="fill:#f7a35c;"/>
   </g>
   <g id="patch_188">
    <path clip-path="url(#pae65ea3f7f)" d="M 432.165383 205.945217 
L 437.55724 205.945217 
L 437.55724 225.228696 
L 432.165383 225.228696 
z
" style="fill:#f7a35c;"/>
   </g>
   <g id="patch_189">
    <path clip-path="url(#pae65ea3f7f)" d="M 487.469976 230.049565 
L 493.274756 230.049565 
L 493.274756 249.333043 
L 487.469976 249.333043 
z
" style="fill:#f7a35c;"/>
   </g>
   <g id="patch_190">
    <path clip-path="url(#pae65ea3f7f)" d="M 504.52433 254.153913 
L 509.888365 254.153913 
L 509.888365 273.437391 
L 504.52433 273.437391 
z
" style="fill:#f7a35c;"/>
   </g>
   <g id="patch_191">
    <path clip-path="url(#pae65ea3f7f)" d="M 545.535748 278.258261 
L 551.572334 278.258261 
L 551.572334 297.541739 
L 545.535748 297.541739 
z
" style="fill:#f7a35c;"/>
   </g>
   <g id="patch_192">
    <path clip-path="url(#pae65ea3f7f)" d="M 431.080267 302.362609 
L 436.241049 302.362609 
L 436.241049 321.646087 
L 431.080267 321.646087 
z
" style="fill:#f7a35c;"/>
   </g>
   <g id="patch_193">
    <path clip-path="url(#pae65ea3f7f)" d="M 445.803347 326.466957 
L 450.419373 326.466957 
L 450.419373 345.750435 
L 445.803347 345.750435 
z
" style="fill:#f7a35c;"/>
   </g>
   <g id="patch_194">
    <path clip-path="url(#pae65ea3f7f)" d="M 403.133377 350.571304 
L 407.316462 350.571304 
L 407.316462 369.854783 
L 403.133377 369.854783 
z
" style="fill:#f7a35c;"/>
   </g>
   <g id="patch_195">
    <path clip-path="url(#pae65ea3f7f)" d="M 427.451546 374.675652 
L 431.831012 374.675652 
L 431.831012 393.95913 
L 427.451546 393.95913 
z
" style="fill:#f7a35c;"/>
   </g>
   <g id="patch_196">
    <path clip-path="url(#pae65ea3f7f)" d="M 353.953473 398.78 
L 358.310445 398.78 
L 358.310445 418.063478 
L 353.953473 418.063478 
z
" style="fill:#f7a35c;"/>
   </g>
   <g id="patch_197">
    <path clip-path="url(#pae65ea3f7f)" d="M 466.026505 422.884348 
L 471.741264 422.884348 
L 471.741264 442.167826 
L 466.026505 442.167826 
z
" style="fill:#f7a35c;"/>
   </g>
   <g id="patch_198">
    <path clip-path="url(#pae65ea3f7f)" d="M 512.774146 446.988696 
L 518.638764 446.988696 
L 518.638764 466.272174 
L 512.774146 466.272174 
z
" style="fill:#f7a35c;"/>
   </g>
   <g id="patch_199">
    <path clip-path="url(#pae65ea3f7f)" d="M 424.894996 471.093043 
L 431.110881 471.093043 
L 431.110881 490.376522 
L 424.894996 490.376522 
z
" style="fill:#f7a35c;"/>
   </g>
   <g id="patch_200">
    <path clip-path="url(#pae65ea3f7f)" d="M 437.519324 495.197391 
L 443.928168 495.197391 
L 443.928168 514.48087 
L 437.519324 514.48087 
z
" style="fill:#f7a35c;"/>
   </g>
   <g id="patch_201">
    <path clip-path="url(#pae65ea3f7f)" d="M 521.928103 519.301739 
L 531.150876 519.301739 
L 531.150876 538.585217 
L 521.928103 538.585217 
z
" style="fill:#f7a35c;"/>
   </g>
   <g id="patch_202">
    <path clip-path="url(#pae65ea3f7f)" d="M 459.013955 543.406087 
L 466.317948 543.406087 
L 466.317948 562.689565 
L 459.013955 562.689565 
z
" style="fill:#f7a35c;"/>
   </g>
   <g id="patch_203">
    <path clip-path="url(#pae65ea3f7f)" d="M 352.774714 567.510435 
L 357.750325 567.510435 
L 357.750325 586.793913 
L 352.774714 586.793913 
z
" style="fill:#f7a35c;"/>
   </g>
   <g id="patch_204">
    <path clip-path="url(#pae65ea3f7f)" d="M 633.89257 591.614783 
L 641.547486 591.614783 
L 641.547486 610.898261 
L 633.89257 610.898261 
z
" style="fill:#f7a35c;"/>
   </g>
   <g id="patch_205">
    <path clip-path="url(#pae65ea3f7f)" d="M 437.584417 615.71913 
L 442.418402 615.71913 
L 442.418402 635.002609 
L 437.584417 635.002609 
z
" style="fill:#f7a35c;"/>
   </g>
   <g id="patch_206">
    <path clip-path="url(#pae65ea3f7f)" d="M 467.80973 639.823478 
L 473.21214 639.823478 
L 473.21214 659.106957 
L 467.80973 659.106957 
z
" style="fill:#f7a35c;"/>
   </g>
   <g id="patch_207">
    <path clip-path="url(#pae65ea3f7f)" d="M 348.138011 663.927826 
L 352.424836 663.927826 
L 352.424836 683.211304 
L 348.138011 683.211304 
z
" style="fill:#f7a35c;"/>
   </g>
   <g id="patch_208">
    <path clip-path="url(#pae65ea3f7f)" d="M 464.107482 688.032174 
L 469.566537 688.032174 
L 469.566537 707.315652 
L 464.107482 707.315652 
z
" style="fill:#f7a35c;"/>
   </g>
   <g id="patch_209">
    <path clip-path="url(#pae65ea3f7f)" d="M 482.51159 712.136522 
L 487.915116 712.136522 
L 487.915116 731.42 
L 482.51159 731.42 
z
" style="fill:#f7a35c;"/>
   </g>
   <g id="patch_210">
    <path clip-path="url(#pae65ea3f7f)" d="M 469.789465 736.24087 
L 475.000605 736.24087 
L 475.000605 755.524348 
L 469.789465 755.524348 
z
" style="fill:#f7a35c;"/>
   </g>
   <g id="patch_211">
    <path clip-path="url(#pae65ea3f7f)" d="M 405.027443 760.345217 
L 408.976833 760.345217 
L 408.976833 779.628696 
L 405.027443 779.628696 
z
" style="fill:#f7a35c;"/>
   </g>
   <g id="patch_212">
    <path clip-path="url(#pae65ea3f7f)" d="M 531.139307 784.449565 
L 537.686398 784.449565 
L 537.686398 803.733043 
L 531.139307 803.733043 
z
" style="fill:#f7a35c;"/>
   </g>
   <g id="patch_213">
    <path clip-path="url(#pae65ea3f7f)" d="M 461.962838 808.553913 
L 466.640635 808.553913 
L 466.640635 827.837391 
L 461.962838 827.837391 
z
" style="fill:#f7a35c;"/>
   </g>
   <g id="patch_214">
    <path clip-path="url(#pae65ea3f7f)" d="M 516.55214 832.658261 
L 523.362638 832.658261 
L 523.362638 851.941739 
L 516.55214 851.941739 
z
" style="fill:#f7a35c;"/>
   </g>
   <g id="patch_215">
    <path clip-path="url(#pae65ea3f7f)" d="M 419.018465 856.762609 
L 424.791242 856.762609 
L 424.791242 876.046087 
L 419.018465 876.046087 
z
" style="fill:#f7a35c;"/>
   </g>
   <g id="patch_216">
    <path clip-path="url(#pae65ea3f7f)" d="M 547.276288 880.866957 
L 553.396095 880.866957 
L 553.396095 900.150435 
L 547.276288 900.150435 
z
" style="fill:#f7a35c;"/>
   </g>
   <g id="patch_217">
    <path clip-path="url(#pae65ea3f7f)" d="M 415.583461 904.971304 
L 420.229012 904.971304 
L 420.229012 924.254783 
L 415.583461 924.254783 
z
" style="fill:#f7a35c;"/>
   </g>
   <g id="patch_218">
    <path clip-path="url(#pae65ea3f7f)" d="M 478.340547 929.075652 
L 484.888798 929.075652 
L 484.888798 948.35913 
L 478.340547 948.35913 
z
" style="fill:#f7a35c;"/>
   </g>
   <g id="patch_219">
    <path clip-path="url(#pae65ea3f7f)" d="M 450.791388 953.18 
L 456.226946 953.18 
L 456.226946 972.463478 
L 450.791388 972.463478 
z
" style="fill:#f7a35c;"/>
   </g>
   <g id="patch_220">
    <path clip-path="url(#pae65ea3f7f)" d="M 408.269259 977.284348 
L 412.980762 977.284348 
L 412.980762 996.567826 
L 408.269259 996.567826 
z
" style="fill:#f7a35c;"/>
   </g>
   <g id="patch_221">
    <path clip-path="url(#pae65ea3f7f)" d="M 453.963872 1001.388696 
L 459.407706 1001.388696 
L 459.407706 1020.672174 
L 453.963872 1020.672174 
z
" style="fill:#f7a35c;"/>
   </g>
   <g id="patch_222">
    <path clip-path="url(#pae65ea3f7f)" d="M 690.053938 1025.493043 
L 697.624202 1025.493043 
L 697.624202 1044.776522 
L 690.053938 1044.776522 
z
" style="fill:#f7a35c;"/>
   </g>
   <g id="patch_223">
    <path clip-path="url(#pae65ea3f7f)" d="M 565.165237 1049.597391 
L 571.305047 1049.597391 
L 571.305047 1068.88087 
L 565.165237 1068.88087 
z
" style="fill:#f7a35c;"/>
   </g>
   <g id="patch_224">
    <path clip-path="url(#pae65ea3f7f)" d="M 480.23729 1073.701739 
L 485.871463 1073.701739 
L 485.871463 1092.985217 
L 480.23729 1092.985217 
z
" style="fill:#f7a35c;"/>
   </g>
   <g id="patch_225">
    <path clip-path="url(#pae65ea3f7f)" d="M 327.036271 1097.806087 
L 330.364486 1097.806087 
L 330.364486 1117.089565 
L 327.036271 1117.089565 
z
" style="fill:#f7a35c;"/>
   </g>
   <g id="patch_226">
    <path clip-path="url(#pae65ea3f7f)" d="M 485.21104 1121.910435 
L 491.163175 1121.910435 
L 491.163175 1141.193913 
L 485.21104 1141.193913 
z
" style="fill:#f7a35c;"/>
   </g>
   <g id="patch_227">
    <path clip-path="url(#pae65ea3f7f)" d="M 543.580684 1146.014783 
L 550.391827 1146.014783 
L 550.391827 1165.298261 
L 543.580684 1165.298261 
z
" style="fill:#f7a35c;"/>
   </g>
   <g id="patch_228">
    <path clip-path="url(#pae65ea3f7f)" d="M 724.892542 1170.11913 
L 734.224052 1170.11913 
L 734.224052 1189.402609 
L 724.892542 1189.402609 
z
" style="fill:#f7a35c;"/>
   </g>
   <g id="patch_229">
    <path clip-path="url(#pae65ea3f7f)" d="M 401.581457 1194.223478 
L 406.709821 1194.223478 
L 406.709821 1213.506957 
L 401.581457 1213.506957 
z
" style="fill:#f7a35c;"/>
   </g>
   <g id="patch_230">
    <path clip-path="url(#pae65ea3f7f)" d="M 523.176724 1218.327826 
L 530.250057 1218.327826 
L 530.250057 1237.611304 
L 523.176724 1237.611304 
z
" style="fill:#f7a35c;"/>
   </g>
   <g id="patch_231">
    <path clip-path="url(#pae65ea3f7f)" d="M 386.608516 1242.432174 
L 391.183876 1242.432174 
L 391.183876 1261.715652 
L 386.608516 1261.715652 
z
" style="fill:#f7a35c;"/>
   </g>
   <g id="patch_232">
    <path clip-path="url(#pae65ea3f7f)" d="M 410.298951 1266.536522 
L 415.529479 1266.536522 
L 415.529479 1285.82 
L 410.298951 1285.82 
z
" style="fill:#f7a35c;"/>
   </g>
   <g id="patch_233">
    <path clip-path="url(#pae65ea3f7f)" d="M 564.720584 1290.64087 
L 572.427262 1290.64087 
L 572.427262 1309.924348 
L 564.720584 1309.924348 
z
" style="fill:#f7a35c;"/>
   </g>
   <g id="patch_234">
    <path clip-path="url(#pae65ea3f7f)" d="M 616.877536 1314.745217 
L 624.245748 1314.745217 
L 624.245748 1334.028696 
L 616.877536 1334.028696 
z
" style="fill:#f7a35c;"/>
   </g>
   <g id="patch_235">
    <path clip-path="url(#pae65ea3f7f)" d="M 490.366553 1338.849565 
L 496.712967 1338.849565 
L 496.712967 1358.133043 
L 490.366553 1358.133043 
z
" style="fill:#f7a35c;"/>
   </g>
   <g id="patch_236">
    <path clip-path="url(#pae65ea3f7f)" d="M 582.855757 1362.953913 
L 590.46693 1362.953913 
L 590.46693 1382.237391 
L 582.855757 1382.237391 
z
" style="fill:#f7a35c;"/>
   </g>
   <g id="patch_237">
    <path clip-path="url(#pae65ea3f7f)" d="M 547.648575 1387.058261 
L 554.669086 1387.058261 
L 554.669086 1406.341739 
L 547.648575 1406.341739 
z
" style="fill:#f7a35c;"/>
   </g>
   <g id="patch_238">
    <path clip-path="url(#pae65ea3f7f)" d="M 766.56918 1411.162609 
L 777.21625 1411.162609 
L 777.21625 1430.446087 
L 766.56918 1430.446087 
z
" style="fill:#f7a35c;"/>
   </g>
   <g id="text_68">
    <!-- featureCounts: Assignments -->
    <defs>
     <path d="M 37.109375 75.984375 
L 37.109375 68.5 
L 28.515625 68.5 
Q 23.6875 68.5 21.796875 66.546875 
Q 19.921875 64.59375 19.921875 59.515625 
L 19.921875 54.6875 
L 34.71875 54.6875 
L 34.71875 47.703125 
L 19.921875 47.703125 
L 19.921875 0 
L 10.890625 0 
L 10.890625 47.703125 
L 2.296875 47.703125 
L 2.296875 54.6875 
L 10.890625 54.6875 
L 10.890625 58.5 
Q 10.890625 67.625 15.140625 71.796875 
Q 19.390625 75.984375 28.609375 75.984375 
z
" id="DejaVuSans-102"/>
     <path d="M 18.3125 70.21875 
L 18.3125 54.6875 
L 36.8125 54.6875 
L 36.8125 47.703125 
L 18.3125 47.703125 
L 18.3125 18.015625 
Q 18.3125 11.328125 20.140625 9.421875 
Q 21.96875 7.515625 27.59375 7.515625 
L 36.8125 7.515625 
L 36.8125 0 
L 27.59375 0 
Q 17.1875 0 13.234375 3.875 
Q 9.28125 7.765625 9.28125 18.015625 
L 9.28125 47.703125 
L 2.6875 47.703125 
L 2.6875 54.6875 
L 9.28125 54.6875 
L 9.28125 70.21875 
z
" id="DejaVuSans-116"/>
     <path d="M 8.5 21.578125 
L 8.5 54.6875 
L 17.484375 54.6875 
L 17.484375 21.921875 
Q 17.484375 14.15625 20.5 10.265625 
Q 23.53125 6.390625 29.59375 6.390625 
Q 36.859375 6.390625 41.078125 11.03125 
Q 45.3125 15.671875 45.3125 23.6875 
L 45.3125 54.6875 
L 54.296875 54.6875 
L 54.296875 0 
L 45.3125 0 
L 45.3125 8.40625 
Q 42.046875 3.421875 37.71875 1 
Q 33.40625 -1.421875 27.6875 -1.421875 
Q 18.265625 -1.421875 13.375 4.4375 
Q 8.5 10.296875 8.5 21.578125 
z
M 31.109375 56 
z
" id="DejaVuSans-117"/>
     <path d="M 41.109375 46.296875 
Q 39.59375 47.171875 37.8125 47.578125 
Q 36.03125 48 33.890625 48 
Q 26.265625 48 22.1875 43.046875 
Q 18.109375 38.09375 18.109375 28.8125 
L 18.109375 0 
L 9.078125 0 
L 9.078125 54.6875 
L 18.109375 54.6875 
L 18.109375 46.1875 
Q 20.953125 51.171875 25.484375 53.578125 
Q 30.03125 56 36.53125 56 
Q 37.453125 56 38.578125 55.875 
Q 39.703125 55.765625 41.0625 55.515625 
z
" id="DejaVuSans-114"/>
     <path d="M 30.609375 48.390625 
Q 23.390625 48.390625 19.1875 42.75 
Q 14.984375 37.109375 14.984375 27.296875 
Q 14.984375 17.484375 19.15625 11.84375 
Q 23.34375 6.203125 30.609375 6.203125 
Q 37.796875 6.203125 41.984375 11.859375 
Q 46.1875 17.53125 46.1875 27.296875 
Q 46.1875 37.015625 41.984375 42.703125 
Q 37.796875 48.390625 30.609375 48.390625 
z
M 30.609375 56 
Q 42.328125 56 49.015625 48.375 
Q 55.71875 40.765625 55.71875 27.296875 
Q 55.71875 13.875 49.015625 6.21875 
Q 42.328125 -1.421875 30.609375 -1.421875 
Q 18.84375 -1.421875 12.171875 6.21875 
Q 5.515625 13.875 5.515625 27.296875 
Q 5.515625 40.765625 12.171875 48.375 
Q 18.84375 56 30.609375 56 
z
" id="DejaVuSans-111"/>
     <path d="M 54.890625 33.015625 
L 54.890625 0 
L 45.90625 0 
L 45.90625 32.71875 
Q 45.90625 40.484375 42.875 44.328125 
Q 39.84375 48.1875 33.796875 48.1875 
Q 26.515625 48.1875 22.3125 43.546875 
Q 18.109375 38.921875 18.109375 30.90625 
L 18.109375 0 
L 9.078125 0 
L 9.078125 54.6875 
L 18.109375 54.6875 
L 18.109375 46.1875 
Q 21.34375 51.125 25.703125 53.5625 
Q 30.078125 56 35.796875 56 
Q 45.21875 56 50.046875 50.171875 
Q 54.890625 44.34375 54.890625 33.015625 
z
" id="DejaVuSans-110"/>
     <path d="M 11.71875 12.40625 
L 22.015625 12.40625 
L 22.015625 0 
L 11.71875 0 
z
M 11.71875 51.703125 
L 22.015625 51.703125 
L 22.015625 39.3125 
L 11.71875 39.3125 
z
" id="DejaVuSans-58"/>
     <path d="M 34.1875 63.1875 
L 20.796875 26.90625 
L 47.609375 26.90625 
z
M 28.609375 72.90625 
L 39.796875 72.90625 
L 67.578125 0 
L 57.328125 0 
L 50.6875 18.703125 
L 17.828125 18.703125 
L 11.1875 0 
L 0.78125 0 
z
" id="DejaVuSans-65"/>
     <path d="M 9.421875 54.6875 
L 18.40625 54.6875 
L 18.40625 0 
L 9.421875 0 
z
M 9.421875 75.984375 
L 18.40625 75.984375 
L 18.40625 64.59375 
L 9.421875 64.59375 
z
" id="DejaVuSans-105"/>
     <path d="M 45.40625 27.984375 
Q 45.40625 37.75 41.375 43.109375 
Q 37.359375 48.484375 30.078125 48.484375 
Q 22.859375 48.484375 18.828125 43.109375 
Q 14.796875 37.75 14.796875 27.984375 
Q 14.796875 18.265625 18.828125 12.890625 
Q 22.859375 7.515625 30.078125 7.515625 
Q 37.359375 7.515625 41.375 12.890625 
Q 45.40625 18.265625 45.40625 27.984375 
z
M 54.390625 6.78125 
Q 54.390625 -7.171875 48.1875 -13.984375 
Q 42 -20.796875 29.203125 -20.796875 
Q 24.46875 -20.796875 20.265625 -20.09375 
Q 16.0625 -19.390625 12.109375 -17.921875 
L 12.109375 -9.1875 
Q 16.0625 -11.328125 19.921875 -12.34375 
Q 23.78125 -13.375 27.78125 -13.375 
Q 36.625 -13.375 41.015625 -8.765625 
Q 45.40625 -4.15625 45.40625 5.171875 
L 45.40625 9.625 
Q 42.625 4.78125 38.28125 2.390625 
Q 33.9375 0 27.875 0 
Q 17.828125 0 11.671875 7.65625 
Q 5.515625 15.328125 5.515625 27.984375 
Q 5.515625 40.671875 11.671875 48.328125 
Q 17.828125 56 27.875 56 
Q 33.9375 56 38.28125 53.609375 
Q 42.625 51.21875 45.40625 46.390625 
L 45.40625 54.6875 
L 54.390625 54.6875 
z
" id="DejaVuSans-103"/>
     <path d="M 52 44.1875 
Q 55.375 50.25 60.0625 53.125 
Q 64.75 56 71.09375 56 
Q 79.640625 56 84.28125 50.015625 
Q 88.921875 44.046875 88.921875 33.015625 
L 88.921875 0 
L 79.890625 0 
L 79.890625 32.71875 
Q 79.890625 40.578125 77.09375 44.375 
Q 74.3125 48.1875 68.609375 48.1875 
Q 61.625 48.1875 57.5625 43.546875 
Q 53.515625 38.921875 53.515625 30.90625 
L 53.515625 0 
L 44.484375 0 
L 44.484375 32.71875 
Q 44.484375 40.625 41.703125 44.40625 
Q 38.921875 48.1875 33.109375 48.1875 
Q 26.21875 48.1875 22.15625 43.53125 
Q 18.109375 38.875 18.109375 30.90625 
L 18.109375 0 
L 9.078125 0 
L 9.078125 54.6875 
L 18.109375 54.6875 
L 18.109375 46.1875 
Q 21.1875 51.21875 25.484375 53.609375 
Q 29.78125 56 35.6875 56 
Q 41.65625 56 45.828125 52.96875 
Q 50 49.953125 52 44.1875 
z
" id="DejaVuSans-109"/>
    </defs>
    <g transform="translate(310.33 -17.02)scale(0.16 -0.16)">
     <use xlink:href="#DejaVuSans-102"/>
     <use x="35.205078" xlink:href="#DejaVuSans-101"/>
     <use x="96.728516" xlink:href="#DejaVuSans-97"/>
     <use x="158.007812" xlink:href="#DejaVuSans-116"/>
     <use x="197.216797" xlink:href="#DejaVuSans-117"/>
     <use x="260.595703" xlink:href="#DejaVuSans-114"/>
     <use x="301.677734" xlink:href="#DejaVuSans-101"/>
     <use x="363.201172" xlink:href="#DejaVuSans-67"/>
     <use x="433.025391" xlink:href="#DejaVuSans-111"/>
     <use x="494.207031" xlink:href="#DejaVuSans-117"/>
     <use x="557.585938" xlink:href="#DejaVuSans-110"/>
     <use x="620.964844" xlink:href="#DejaVuSans-116"/>
     <use x="660.173828" xlink:href="#DejaVuSans-115"/>
     <use x="712.273438" xlink:href="#DejaVuSans-58"/>
     <use x="745.964844" xlink:href="#DejaVuSans-32"/>
     <use x="777.751953" xlink:href="#DejaVuSans-65"/>
     <use x="846.160156" xlink:href="#DejaVuSans-115"/>
     <use x="898.259766" xlink:href="#DejaVuSans-115"/>
     <use x="950.359375" xlink:href="#DejaVuSans-105"/>
     <use x="978.142578" xlink:href="#DejaVuSans-103"/>
     <use x="1041.619141" xlink:href="#DejaVuSans-110"/>
     <use x="1104.998047" xlink:href="#DejaVuSans-109"/>
     <use x="1202.410156" xlink:href="#DejaVuSans-101"/>
     <use x="1263.933594" xlink:href="#DejaVuSans-110"/>
     <use x="1327.3125" xlink:href="#DejaVuSans-116"/>
     <use x="1366.521484" xlink:href="#DejaVuSans-115"/>
    </g>
   </g>
   <g id="legend_1">
    <g id="patch_239">
     <path d="M 40.41625 1506.930272 
L 56.41625 1506.930272 
L 56.41625 1501.330272 
L 40.41625 1501.330272 
z
" style="fill:#7cb5ec;"/>
    </g>
    <g id="text_69">
     <!-- Assigned -->
     <g transform="translate(62.81625 1506.930272)scale(0.08 -0.08)">
      <use xlink:href="#DejaVuSans-65"/>
      <use x="68.408203" xlink:href="#DejaVuSans-115"/>
      <use x="120.507812" xlink:href="#DejaVuSans-115"/>
      <use x="172.607422" xlink:href="#DejaVuSans-105"/>
      <use x="200.390625" xlink:href="#DejaVuSans-103"/>
      <use x="263.867188" xlink:href="#DejaVuSans-110"/>
      <use x="327.246094" xlink:href="#DejaVuSans-101"/>
      <use x="388.769531" xlink:href="#DejaVuSans-100"/>
     </g>
    </g>
    <g id="patch_240">
     <path d="M 215.275 1506.930272 
L 231.275 1506.930272 
L 231.275 1501.330272 
L 215.275 1501.330272 
z
" style="fill:#434348;"/>
    </g>
    <g id="text_70">
     <!-- Unassigned_MultiMapping -->
     <defs>
      <path d="M 8.6875 72.90625 
L 18.609375 72.90625 
L 18.609375 28.609375 
Q 18.609375 16.890625 22.84375 11.734375 
Q 27.09375 6.59375 36.625 6.59375 
Q 46.09375 6.59375 50.34375 11.734375 
Q 54.59375 16.890625 54.59375 28.609375 
L 54.59375 72.90625 
L 64.5 72.90625 
L 64.5 27.390625 
Q 64.5 13.140625 57.4375 5.859375 
Q 50.390625 -1.421875 36.625 -1.421875 
Q 22.796875 -1.421875 15.734375 5.859375 
Q 8.6875 13.140625 8.6875 27.390625 
z
" id="DejaVuSans-85"/>
      <path d="M 50.984375 -16.609375 
L 50.984375 -23.578125 
L -0.984375 -23.578125 
L -0.984375 -16.609375 
z
" id="DejaVuSans-95"/>
      <path d="M 9.421875 75.984375 
L 18.40625 75.984375 
L 18.40625 0 
L 9.421875 0 
z
" id="DejaVuSans-108"/>
      <path d="M 18.109375 8.203125 
L 18.109375 -20.796875 
L 9.078125 -20.796875 
L 9.078125 54.6875 
L 18.109375 54.6875 
L 18.109375 46.390625 
Q 20.953125 51.265625 25.265625 53.625 
Q 29.59375 56 35.59375 56 
Q 45.5625 56 51.78125 48.09375 
Q 58.015625 40.1875 58.015625 27.296875 
Q 58.015625 14.40625 51.78125 6.484375 
Q 45.5625 -1.421875 35.59375 -1.421875 
Q 29.59375 -1.421875 25.265625 0.953125 
Q 20.953125 3.328125 18.109375 8.203125 
z
M 48.6875 27.296875 
Q 48.6875 37.203125 44.609375 42.84375 
Q 40.53125 48.484375 33.40625 48.484375 
Q 26.265625 48.484375 22.1875 42.84375 
Q 18.109375 37.203125 18.109375 27.296875 
Q 18.109375 17.390625 22.1875 11.75 
Q 26.265625 6.109375 33.40625 6.109375 
Q 40.53125 6.109375 44.609375 11.75 
Q 48.6875 17.390625 48.6875 27.296875 
z
" id="DejaVuSans-112"/>
     </defs>
     <g transform="translate(237.675 1506.930272)scale(0.08 -0.08)">
      <use xlink:href="#DejaVuSans-85"/>
      <use x="73.193359" xlink:href="#DejaVuSans-110"/>
      <use x="136.572266" xlink:href="#DejaVuSans-97"/>
      <use x="197.851562" xlink:href="#DejaVuSans-115"/>
      <use x="249.951172" xlink:href="#DejaVuSans-115"/>
      <use x="302.050781" xlink:href="#DejaVuSans-105"/>
      <use x="329.833984" xlink:href="#DejaVuSans-103"/>
      <use x="393.310547" xlink:href="#DejaVuSans-110"/>
      <use x="456.689453" xlink:href="#DejaVuSans-101"/>
      <use x="518.212891" xlink:href="#DejaVuSans-100"/>
      <use x="581.689453" xlink:href="#DejaVuSans-95"/>
      <use x="631.689453" xlink:href="#DejaVuSans-77"/>
      <use x="717.96875" xlink:href="#DejaVuSans-117"/>
      <use x="781.347656" xlink:href="#DejaVuSans-108"/>
      <use x="809.130859" xlink:href="#DejaVuSans-116"/>
      <use x="848.339844" xlink:href="#DejaVuSans-105"/>
      <use x="876.123047" xlink:href="#DejaVuSans-77"/>
      <use x="962.402344" xlink:href="#DejaVuSans-97"/>
      <use x="1023.681641" xlink:href="#DejaVuSans-112"/>
      <use x="1087.158203" xlink:href="#DejaVuSans-112"/>
      <use x="1150.634766" xlink:href="#DejaVuSans-105"/>
      <use x="1178.417969" xlink:href="#DejaVuSans-110"/>
      <use x="1241.796875" xlink:href="#DejaVuSans-103"/>
     </g>
    </g>
    <g id="patch_241">
     <path d="M 458.37625 1506.930272 
L 474.37625 1506.930272 
L 474.37625 1501.330272 
L 458.37625 1501.330272 
z
" style="fill:#90ed7d;"/>
    </g>
    <g id="text_71">
     <!-- Unassigned_NoFeatures -->
     <defs>
      <path d="M 9.8125 72.90625 
L 51.703125 72.90625 
L 51.703125 64.59375 
L 19.671875 64.59375 
L 19.671875 43.109375 
L 48.578125 43.109375 
L 48.578125 34.8125 
L 19.671875 34.8125 
L 19.671875 0 
L 9.8125 0 
z
" id="DejaVuSans-70"/>
     </defs>
     <g transform="translate(480.77625 1506.930272)scale(0.08 -0.08)">
      <use xlink:href="#DejaVuSans-85"/>
      <use x="73.193359" xlink:href="#DejaVuSans-110"/>
      <use x="136.572266" xlink:href="#DejaVuSans-97"/>
      <use x="197.851562" xlink:href="#DejaVuSans-115"/>
      <use x="249.951172" xlink:href="#DejaVuSans-115"/>
      <use x="302.050781" xlink:href="#DejaVuSans-105"/>
      <use x="329.833984" xlink:href="#DejaVuSans-103"/>
      <use x="393.310547" xlink:href="#DejaVuSans-110"/>
      <use x="456.689453" xlink:href="#DejaVuSans-101"/>
      <use x="518.212891" xlink:href="#DejaVuSans-100"/>
      <use x="581.689453" xlink:href="#DejaVuSans-95"/>
      <use x="631.689453" xlink:href="#DejaVuSans-78"/>
      <use x="706.494141" xlink:href="#DejaVuSans-111"/>
      <use x="767.675781" xlink:href="#DejaVuSans-70"/>
      <use x="825.117188" xlink:href="#DejaVuSans-101"/>
      <use x="886.640625" xlink:href="#DejaVuSans-97"/>
      <use x="947.919922" xlink:href="#DejaVuSans-116"/>
      <use x="987.128906" xlink:href="#DejaVuSans-117"/>
      <use x="1050.507812" xlink:href="#DejaVuSans-114"/>
      <use x="1091.589844" xlink:href="#DejaVuSans-101"/>
      <use x="1153.113281" xlink:href="#DejaVuSans-115"/>
     </g>
    </g>
    <g id="patch_242">
     <path d="M 693.4725 1506.930272 
L 709.4725 1506.930272 
L 709.4725 1501.330272 
L 693.4725 1501.330272 
z
" style="fill:#f7a35c;"/>
    </g>
    <g id="text_72">
     <!-- Unassigned_Ambiguity -->
     <defs>
      <path d="M 48.6875 27.296875 
Q 48.6875 37.203125 44.609375 42.84375 
Q 40.53125 48.484375 33.40625 48.484375 
Q 26.265625 48.484375 22.1875 42.84375 
Q 18.109375 37.203125 18.109375 27.296875 
Q 18.109375 17.390625 22.1875 11.75 
Q 26.265625 6.109375 33.40625 6.109375 
Q 40.53125 6.109375 44.609375 11.75 
Q 48.6875 17.390625 48.6875 27.296875 
z
M 18.109375 46.390625 
Q 20.953125 51.265625 25.265625 53.625 
Q 29.59375 56 35.59375 56 
Q 45.5625 56 51.78125 48.09375 
Q 58.015625 40.1875 58.015625 27.296875 
Q 58.015625 14.40625 51.78125 6.484375 
Q 45.5625 -1.421875 35.59375 -1.421875 
Q 29.59375 -1.421875 25.265625 0.953125 
Q 20.953125 3.328125 18.109375 8.203125 
L 18.109375 0 
L 9.078125 0 
L 9.078125 75.984375 
L 18.109375 75.984375 
z
" id="DejaVuSans-98"/>
      <path d="M 32.171875 -5.078125 
Q 28.375 -14.84375 24.75 -17.8125 
Q 21.140625 -20.796875 15.09375 -20.796875 
L 7.90625 -20.796875 
L 7.90625 -13.28125 
L 13.1875 -13.28125 
Q 16.890625 -13.28125 18.9375 -11.515625 
Q 21 -9.765625 23.484375 -3.21875 
L 25.09375 0.875 
L 2.984375 54.6875 
L 12.5 54.6875 
L 29.59375 11.921875 
L 46.6875 54.6875 
L 56.203125 54.6875 
z
" id="DejaVuSans-121"/>
     </defs>
     <g transform="translate(715.8725 1506.930272)scale(0.08 -0.08)">
      <use xlink:href="#DejaVuSans-85"/>
      <use x="73.193359" xlink:href="#DejaVuSans-110"/>
      <use x="136.572266" xlink:href="#DejaVuSans-97"/>
      <use x="197.851562" xlink:href="#DejaVuSans-115"/>
      <use x="249.951172" xlink:href="#DejaVuSans-115"/>
      <use x="302.050781" xlink:href="#DejaVuSans-105"/>
      <use x="329.833984" xlink:href="#DejaVuSans-103"/>
      <use x="393.310547" xlink:href="#DejaVuSans-110"/>
      <use x="456.689453" xlink:href="#DejaVuSans-101"/>
      <use x="518.212891" xlink:href="#DejaVuSans-100"/>
      <use x="581.689453" xlink:href="#DejaVuSans-95"/>
      <use x="631.689453" xlink:href="#DejaVuSans-65"/>
      <use x="700.097656" xlink:href="#DejaVuSans-109"/>
      <use x="797.509766" xlink:href="#DejaVuSans-98"/>
      <use x="860.986328" xlink:href="#DejaVuSans-105"/>
      <use x="888.769531" xlink:href="#DejaVuSans-103"/>
      <use x="952.246094" xlink:href="#DejaVuSans-117"/>
      <use x="1015.625" xlink:href="#DejaVuSans-105"/>
      <use x="1043.408203" xlink:href="#DejaVuSans-116"/>
      <use x="1082.617188" xlink:href="#DejaVuSans-121"/>
     </g>
    </g>
   </g>
  </g>
 </g>
 <defs>
  <clipPath id="pae65ea3f7f">
   <rect height="1422.156522" width="781.2" x="33.21625" y="10.7"/>
  </clipPath>
 </defs>
</svg>
