<?xml version="1.0" encoding="utf-8" standalone="no"?>
<!DOCTYPE svg PUBLIC "-//W3C//DTD SVG 1.1//EN"
  "http://www.w3.org/Graphics/SVG/1.1/DTD/svg11.dtd">
<!-- Created with matplotlib (https://matplotlib.org/) -->
<svg height="388.844525pt" version="1.1" viewBox="0 0 1000.098125 388.844525" width="1000.098125pt" xmlns="http://www.w3.org/2000/svg" xmlns:xlink="http://www.w3.org/1999/xlink">
 <defs>
  <style type="text/css">
*{stroke-linecap:butt;stroke-linejoin:round;}
  </style>
 </defs>
 <g id="figure_1">
  <g id="patch_1">
   <path d="M 0 388.844525 
L 1000.098125 388.844525 
L 1000.098125 0 
L 0 0 
z
" style="fill:#ffffff;"/>
  </g>
  <g id="axes_1">
   <g id="patch_2">
    <path d="M 58.418125 353.2239 
L 985.263125 353.2239 
L 985.263125 35.2559 
L 58.418125 35.2559 
z
" style="fill:#ffffff;"/>
   </g>
   <g id="matplotlib.axis_1">
    <g id="xtick_1">
     <g id="text_1">
      <!-- 0 -->
      <defs>
       <path d="M 31.78125 66.40625 
Q 24.171875 66.40625 20.328125 58.90625 
Q 16.5 51.421875 16.5 36.375 
Q 16.5 21.390625 20.328125 13.890625 
Q 24.171875 6.390625 31.78125 6.390625 
Q 39.453125 6.390625 43.28125 13.890625 
Q 47.125 21.390625 47.125 36.375 
Q 47.125 51.421875 43.28125 58.90625 
Q 39.453125 66.40625 31.78125 66.40625 
z
M 31.78125 74.21875 
Q 44.046875 74.21875 50.515625 64.515625 
Q 56.984375 54.828125 56.984375 36.375 
Q 56.984375 17.96875 50.515625 8.265625 
Q 44.046875 -1.421875 31.78125 -1.421875 
Q 19.53125 -1.421875 13.0625 8.265625 
Q 6.59375 17.96875 6.59375 36.375 
Q 6.59375 54.828125 13.0625 64.515625 
Q 19.53125 74.21875 31.78125 74.21875 
z
" id="DejaVuSans-48"/>
      </defs>
      <g transform="translate(55.873125 366.30265)scale(0.08 -0.08)">
       <use xlink:href="#DejaVuSans-48"/>
      </g>
     </g>
    </g>
    <g id="xtick_2">
     <g id="text_2">
      <!-- 20 -->
      <defs>
       <path d="M 19.1875 8.296875 
L 53.609375 8.296875 
L 53.609375 0 
L 7.328125 0 
L 7.328125 8.296875 
Q 12.9375 14.109375 22.625 23.890625 
Q 32.328125 33.6875 34.8125 36.53125 
Q 39.546875 41.84375 41.421875 45.53125 
Q 43.3125 49.21875 43.3125 52.78125 
Q 43.3125 58.59375 39.234375 62.25 
Q 35.15625 65.921875 28.609375 65.921875 
Q 23.96875 65.921875 18.8125 64.3125 
Q 13.671875 62.703125 7.8125 59.421875 
L 7.8125 69.390625 
Q 13.765625 71.78125 18.9375 73 
Q 24.125 74.21875 28.421875 74.21875 
Q 39.75 74.21875 46.484375 68.546875 
Q 53.21875 62.890625 53.21875 53.421875 
Q 53.21875 48.921875 51.53125 44.890625 
Q 49.859375 40.875 45.40625 35.40625 
Q 44.1875 33.984375 37.640625 27.21875 
Q 31.109375 20.453125 19.1875 8.296875 
z
" id="DejaVuSans-50"/>
      </defs>
      <g transform="translate(238.697125 366.30265)scale(0.08 -0.08)">
       <use xlink:href="#DejaVuSans-50"/>
       <use x="63.623047" xlink:href="#DejaVuSans-48"/>
      </g>
     </g>
    </g>
    <g id="xtick_3">
     <g id="text_3">
      <!-- 40 -->
      <defs>
       <path d="M 37.796875 64.3125 
L 12.890625 25.390625 
L 37.796875 25.390625 
z
M 35.203125 72.90625 
L 47.609375 72.90625 
L 47.609375 25.390625 
L 58.015625 25.390625 
L 58.015625 17.1875 
L 47.609375 17.1875 
L 47.609375 0 
L 37.796875 0 
L 37.796875 17.1875 
L 4.890625 17.1875 
L 4.890625 26.703125 
z
" id="DejaVuSans-52"/>
      </defs>
      <g transform="translate(424.066125 366.30265)scale(0.08 -0.08)">
       <use xlink:href="#DejaVuSans-52"/>
       <use x="63.623047" xlink:href="#DejaVuSans-48"/>
      </g>
     </g>
    </g>
    <g id="xtick_4">
     <g id="text_4">
      <!-- 60 -->
      <defs>
       <path d="M 33.015625 40.375 
Q 26.375 40.375 22.484375 35.828125 
Q 18.609375 31.296875 18.609375 23.390625 
Q 18.609375 15.53125 22.484375 10.953125 
Q 26.375 6.390625 33.015625 6.390625 
Q 39.65625 6.390625 43.53125 10.953125 
Q 47.40625 15.53125 47.40625 23.390625 
Q 47.40625 31.296875 43.53125 35.828125 
Q 39.65625 40.375 33.015625 40.375 
z
M 52.59375 71.296875 
L 52.59375 62.3125 
Q 48.875 64.0625 45.09375 64.984375 
Q 41.3125 65.921875 37.59375 65.921875 
Q 27.828125 65.921875 22.671875 59.328125 
Q 17.53125 52.734375 16.796875 39.40625 
Q 19.671875 43.65625 24.015625 45.921875 
Q 28.375 48.1875 33.59375 48.1875 
Q 44.578125 48.1875 50.953125 41.515625 
Q 57.328125 34.859375 57.328125 23.390625 
Q 57.328125 12.15625 50.6875 5.359375 
Q 44.046875 -1.421875 33.015625 -1.421875 
Q 20.359375 -1.421875 13.671875 8.265625 
Q 6.984375 17.96875 6.984375 36.375 
Q 6.984375 53.65625 15.1875 63.9375 
Q 23.390625 74.21875 37.203125 74.21875 
Q 40.921875 74.21875 44.703125 73.484375 
Q 48.484375 72.75 52.59375 71.296875 
z
" id="DejaVuSans-54"/>
      </defs>
      <g transform="translate(609.435125 366.30265)scale(0.08 -0.08)">
       <use xlink:href="#DejaVuSans-54"/>
       <use x="63.623047" xlink:href="#DejaVuSans-48"/>
      </g>
     </g>
    </g>
    <g id="xtick_5">
     <g id="text_5">
      <!-- 80 -->
      <defs>
       <path d="M 31.78125 34.625 
Q 24.75 34.625 20.71875 30.859375 
Q 16.703125 27.09375 16.703125 20.515625 
Q 16.703125 13.921875 20.71875 10.15625 
Q 24.75 6.390625 31.78125 6.390625 
Q 38.8125 6.390625 42.859375 10.171875 
Q 46.921875 13.96875 46.921875 20.515625 
Q 46.921875 27.09375 42.890625 30.859375 
Q 38.875 34.625 31.78125 34.625 
z
M 21.921875 38.8125 
Q 15.578125 40.375 12.03125 44.71875 
Q 8.5 49.078125 8.5 55.328125 
Q 8.5 64.0625 14.71875 69.140625 
Q 20.953125 74.21875 31.78125 74.21875 
Q 42.671875 74.21875 48.875 69.140625 
Q 55.078125 64.0625 55.078125 55.328125 
Q 55.078125 49.078125 51.53125 44.71875 
Q 48 40.375 41.703125 38.8125 
Q 48.828125 37.15625 52.796875 32.3125 
Q 56.78125 27.484375 56.78125 20.515625 
Q 56.78125 9.90625 50.3125 4.234375 
Q 43.84375 -1.421875 31.78125 -1.421875 
Q 19.734375 -1.421875 13.25 4.234375 
Q 6.78125 9.90625 6.78125 20.515625 
Q 6.78125 27.484375 10.78125 32.3125 
Q 14.796875 37.15625 21.921875 38.8125 
z
M 18.3125 54.390625 
Q 18.3125 48.734375 21.84375 45.5625 
Q 25.390625 42.390625 31.78125 42.390625 
Q 38.140625 42.390625 41.71875 45.5625 
Q 45.3125 48.734375 45.3125 54.390625 
Q 45.3125 60.0625 41.71875 63.234375 
Q 38.140625 66.40625 31.78125 66.40625 
Q 25.390625 66.40625 21.84375 63.234375 
Q 18.3125 60.0625 18.3125 54.390625 
z
" id="DejaVuSans-56"/>
      </defs>
      <g transform="translate(794.804125 366.30265)scale(0.08 -0.08)">
       <use xlink:href="#DejaVuSans-56"/>
       <use x="63.623047" xlink:href="#DejaVuSans-48"/>
      </g>
     </g>
    </g>
    <g id="xtick_6">
     <g id="text_6">
      <!-- 100 -->
      <defs>
       <path d="M 12.40625 8.296875 
L 28.515625 8.296875 
L 28.515625 63.921875 
L 10.984375 60.40625 
L 10.984375 69.390625 
L 28.421875 72.90625 
L 38.28125 72.90625 
L 38.28125 8.296875 
L 54.390625 8.296875 
L 54.390625 0 
L 12.40625 0 
z
" id="DejaVuSans-49"/>
      </defs>
      <g transform="translate(977.628125 366.30265)scale(0.08 -0.08)">
       <use xlink:href="#DejaVuSans-49"/>
       <use x="63.623047" xlink:href="#DejaVuSans-48"/>
       <use x="127.246094" xlink:href="#DejaVuSans-48"/>
      </g>
     </g>
    </g>
    <g id="text_7">
     <!-- Percent of reads -->
     <defs>
      <path d="M 19.671875 64.796875 
L 19.671875 37.40625 
L 32.078125 37.40625 
Q 38.96875 37.40625 42.71875 40.96875 
Q 46.484375 44.53125 46.484375 51.125 
Q 46.484375 57.671875 42.71875 61.234375 
Q 38.96875 64.796875 32.078125 64.796875 
z
M 9.8125 72.90625 
L 32.078125 72.90625 
Q 44.34375 72.90625 50.609375 67.359375 
Q 56.890625 61.8125 56.890625 51.125 
Q 56.890625 40.328125 50.609375 34.8125 
Q 44.34375 29.296875 32.078125 29.296875 
L 19.671875 29.296875 
L 19.671875 0 
L 9.8125 0 
z
" id="DejaVuSans-80"/>
      <path d="M 56.203125 29.59375 
L 56.203125 25.203125 
L 14.890625 25.203125 
Q 15.484375 15.921875 20.484375 11.0625 
Q 25.484375 6.203125 34.421875 6.203125 
Q 39.59375 6.203125 44.453125 7.46875 
Q 49.3125 8.734375 54.109375 11.28125 
L 54.109375 2.78125 
Q 49.265625 0.734375 44.1875 -0.34375 
Q 39.109375 -1.421875 33.890625 -1.421875 
Q 20.796875 -1.421875 13.15625 6.1875 
Q 5.515625 13.8125 5.515625 26.8125 
Q 5.515625 40.234375 12.765625 48.109375 
Q 20.015625 56 32.328125 56 
Q 43.359375 56 49.78125 48.890625 
Q 56.203125 41.796875 56.203125 29.59375 
z
M 47.21875 32.234375 
Q 47.125 39.59375 43.09375 43.984375 
Q 39.0625 48.390625 32.421875 48.390625 
Q 24.90625 48.390625 20.390625 44.140625 
Q 15.875 39.890625 15.1875 32.171875 
z
" id="DejaVuSans-101"/>
      <path d="M 41.109375 46.296875 
Q 39.59375 47.171875 37.8125 47.578125 
Q 36.03125 48 33.890625 48 
Q 26.265625 48 22.1875 43.046875 
Q 18.109375 38.09375 18.109375 28.8125 
L 18.109375 0 
L 9.078125 0 
L 9.078125 54.6875 
L 18.109375 54.6875 
L 18.109375 46.1875 
Q 20.953125 51.171875 25.484375 53.578125 
Q 30.03125 56 36.53125 56 
Q 37.453125 56 38.578125 55.875 
Q 39.703125 55.765625 41.0625 55.515625 
z
" id="DejaVuSans-114"/>
      <path d="M 48.78125 52.59375 
L 48.78125 44.1875 
Q 44.96875 46.296875 41.140625 47.34375 
Q 37.3125 48.390625 33.40625 48.390625 
Q 24.65625 48.390625 19.8125 42.84375 
Q 14.984375 37.3125 14.984375 27.296875 
Q 14.984375 17.28125 19.8125 11.734375 
Q 24.65625 6.203125 33.40625 6.203125 
Q 37.3125 6.203125 41.140625 7.25 
Q 44.96875 8.296875 48.78125 10.40625 
L 48.78125 2.09375 
Q 45.015625 0.34375 40.984375 -0.53125 
Q 36.96875 -1.421875 32.421875 -1.421875 
Q 20.0625 -1.421875 12.78125 6.34375 
Q 5.515625 14.109375 5.515625 27.296875 
Q 5.515625 40.671875 12.859375 48.328125 
Q 20.21875 56 33.015625 56 
Q 37.15625 56 41.109375 55.140625 
Q 45.0625 54.296875 48.78125 52.59375 
z
" id="DejaVuSans-99"/>
      <path d="M 54.890625 33.015625 
L 54.890625 0 
L 45.90625 0 
L 45.90625 32.71875 
Q 45.90625 40.484375 42.875 44.328125 
Q 39.84375 48.1875 33.796875 48.1875 
Q 26.515625 48.1875 22.3125 43.546875 
Q 18.109375 38.921875 18.109375 30.90625 
L 18.109375 0 
L 9.078125 0 
L 9.078125 54.6875 
L 18.109375 54.6875 
L 18.109375 46.1875 
Q 21.34375 51.125 25.703125 53.5625 
Q 30.078125 56 35.796875 56 
Q 45.21875 56 50.046875 50.171875 
Q 54.890625 44.34375 54.890625 33.015625 
z
" id="DejaVuSans-110"/>
      <path d="M 18.3125 70.21875 
L 18.3125 54.6875 
L 36.8125 54.6875 
L 36.8125 47.703125 
L 18.3125 47.703125 
L 18.3125 18.015625 
Q 18.3125 11.328125 20.140625 9.421875 
Q 21.96875 7.515625 27.59375 7.515625 
L 36.8125 7.515625 
L 36.8125 0 
L 27.59375 0 
Q 17.1875 0 13.234375 3.875 
Q 9.28125 7.765625 9.28125 18.015625 
L 9.28125 47.703125 
L 2.6875 47.703125 
L 2.6875 54.6875 
L 9.28125 54.6875 
L 9.28125 70.21875 
z
" id="DejaVuSans-116"/>
      <path id="DejaVuSans-32"/>
      <path d="M 30.609375 48.390625 
Q 23.390625 48.390625 19.1875 42.75 
Q 14.984375 37.109375 14.984375 27.296875 
Q 14.984375 17.484375 19.15625 11.84375 
Q 23.34375 6.203125 30.609375 6.203125 
Q 37.796875 6.203125 41.984375 11.859375 
Q 46.1875 17.53125 46.1875 27.296875 
Q 46.1875 37.015625 41.984375 42.703125 
Q 37.796875 48.390625 30.609375 48.390625 
z
M 30.609375 56 
Q 42.328125 56 49.015625 48.375 
Q 55.71875 40.765625 55.71875 27.296875 
Q 55.71875 13.875 49.015625 6.21875 
Q 42.328125 -1.421875 30.609375 -1.421875 
Q 18.84375 -1.421875 12.171875 6.21875 
Q 5.515625 13.875 5.515625 27.296875 
Q 5.515625 40.765625 12.171875 48.375 
Q 18.84375 56 30.609375 56 
z
" id="DejaVuSans-111"/>
      <path d="M 37.109375 75.984375 
L 37.109375 68.5 
L 28.515625 68.5 
Q 23.6875 68.5 21.796875 66.546875 
Q 19.921875 64.59375 19.921875 59.515625 
L 19.921875 54.6875 
L 34.71875 54.6875 
L 34.71875 47.703125 
L 19.921875 47.703125 
L 19.921875 0 
L 10.890625 0 
L 10.890625 47.703125 
L 2.296875 47.703125 
L 2.296875 54.6875 
L 10.890625 54.6875 
L 10.890625 58.5 
Q 10.890625 67.625 15.140625 71.796875 
Q 19.390625 75.984375 28.609375 75.984375 
z
" id="DejaVuSans-102"/>
      <path d="M 34.28125 27.484375 
Q 23.390625 27.484375 19.1875 25 
Q 14.984375 22.515625 14.984375 16.5 
Q 14.984375 11.71875 18.140625 8.90625 
Q 21.296875 6.109375 26.703125 6.109375 
Q 34.1875 6.109375 38.703125 11.40625 
Q 43.21875 16.703125 43.21875 25.484375 
L 43.21875 27.484375 
z
M 52.203125 31.203125 
L 52.203125 0 
L 43.21875 0 
L 43.21875 8.296875 
Q 40.140625 3.328125 35.546875 0.953125 
Q 30.953125 -1.421875 24.3125 -1.421875 
Q 15.921875 -1.421875 10.953125 3.296875 
Q 6 8.015625 6 15.921875 
Q 6 25.140625 12.171875 29.828125 
Q 18.359375 34.515625 30.609375 34.515625 
L 43.21875 34.515625 
L 43.21875 35.40625 
Q 43.21875 41.609375 39.140625 45 
Q 35.0625 48.390625 27.6875 48.390625 
Q 23 48.390625 18.546875 47.265625 
Q 14.109375 46.140625 10.015625 43.890625 
L 10.015625 52.203125 
Q 14.9375 54.109375 19.578125 55.046875 
Q 24.21875 56 28.609375 56 
Q 40.484375 56 46.34375 49.84375 
Q 52.203125 43.703125 52.203125 31.203125 
z
" id="DejaVuSans-97"/>
      <path d="M 45.40625 46.390625 
L 45.40625 75.984375 
L 54.390625 75.984375 
L 54.390625 0 
L 45.40625 0 
L 45.40625 8.203125 
Q 42.578125 3.328125 38.25 0.953125 
Q 33.9375 -1.421875 27.875 -1.421875 
Q 17.96875 -1.421875 11.734375 6.484375 
Q 5.515625 14.40625 5.515625 27.296875 
Q 5.515625 40.1875 11.734375 48.09375 
Q 17.96875 56 27.875 56 
Q 33.9375 56 38.25 53.625 
Q 42.578125 51.265625 45.40625 46.390625 
z
M 14.796875 27.296875 
Q 14.796875 17.390625 18.875 11.75 
Q 22.953125 6.109375 30.078125 6.109375 
Q 37.203125 6.109375 41.296875 11.75 
Q 45.40625 17.390625 45.40625 27.296875 
Q 45.40625 37.203125 41.296875 42.84375 
Q 37.203125 48.484375 30.078125 48.484375 
Q 22.953125 48.484375 18.875 42.84375 
Q 14.796875 37.203125 14.796875 27.296875 
z
" id="DejaVuSans-100"/>
      <path d="M 44.28125 53.078125 
L 44.28125 44.578125 
Q 40.484375 46.53125 36.375 47.5 
Q 32.28125 48.484375 27.875 48.484375 
Q 21.1875 48.484375 17.84375 46.4375 
Q 14.5 44.390625 14.5 40.28125 
Q 14.5 37.15625 16.890625 35.375 
Q 19.28125 33.59375 26.515625 31.984375 
L 29.59375 31.296875 
Q 39.15625 29.25 43.1875 25.515625 
Q 47.21875 21.78125 47.21875 15.09375 
Q 47.21875 7.46875 41.1875 3.015625 
Q 35.15625 -1.421875 24.609375 -1.421875 
Q 20.21875 -1.421875 15.453125 -0.5625 
Q 10.6875 0.296875 5.421875 2 
L 5.421875 11.28125 
Q 10.40625 8.6875 15.234375 7.390625 
Q 20.0625 6.109375 24.8125 6.109375 
Q 31.15625 6.109375 34.5625 8.28125 
Q 37.984375 10.453125 37.984375 14.40625 
Q 37.984375 18.0625 35.515625 20.015625 
Q 33.0625 21.96875 24.703125 23.78125 
L 21.578125 24.515625 
Q 13.234375 26.265625 9.515625 29.90625 
Q 5.8125 33.546875 5.8125 39.890625 
Q 5.8125 47.609375 11.28125 51.796875 
Q 16.75 56 26.8125 56 
Q 31.78125 56 36.171875 55.265625 
Q 40.578125 54.546875 44.28125 53.078125 
z
" id="DejaVuSans-115"/>
     </defs>
     <g transform="translate(480.771875 379.564837)scale(0.1 -0.1)">
      <use xlink:href="#DejaVuSans-80"/>
      <use x="60.255859" xlink:href="#DejaVuSans-101"/>
      <use x="121.779297" xlink:href="#DejaVuSans-114"/>
      <use x="162.861328" xlink:href="#DejaVuSans-99"/>
      <use x="217.841797" xlink:href="#DejaVuSans-101"/>
      <use x="279.365234" xlink:href="#DejaVuSans-110"/>
      <use x="342.744141" xlink:href="#DejaVuSans-116"/>
      <use x="381.953125" xlink:href="#DejaVuSans-32"/>
      <use x="413.740234" xlink:href="#DejaVuSans-111"/>
      <use x="474.921875" xlink:href="#DejaVuSans-102"/>
      <use x="510.126953" xlink:href="#DejaVuSans-32"/>
      <use x="541.914062" xlink:href="#DejaVuSans-114"/>
      <use x="582.996094" xlink:href="#DejaVuSans-101"/>
      <use x="644.519531" xlink:href="#DejaVuSans-97"/>
      <use x="705.798828" xlink:href="#DejaVuSans-100"/>
      <use x="769.275391" xlink:href="#DejaVuSans-115"/>
     </g>
    </g>
   </g>
   <g id="matplotlib.axis_2">
    <g id="ytick_1">
     <g id="line2d_1">
      <path clip-path="url(#pa9bb49abd5)" d="M 58.418125 353.2239 
L 985.263125 353.2239 
" style="fill:none;stroke:#dedede;stroke-linecap:square;"/>
     </g>
     <g id="text_8">
      <!-- 0 -->
      <g transform="translate(46.328125 356.263275)scale(0.08 -0.08)">
       <use xlink:href="#DejaVuSans-48"/>
      </g>
     </g>
    </g>
    <g id="ytick_2">
     <g id="line2d_2">
      <path clip-path="url(#pa9bb49abd5)" d="M 58.418125 302.425238 
L 985.263125 302.425238 
" style="fill:none;stroke:#dedede;stroke-linecap:square;"/>
     </g>
     <g id="text_9">
      <!-- 20000 -->
      <g transform="translate(25.968125 305.464613)scale(0.08 -0.08)">
       <use xlink:href="#DejaVuSans-50"/>
       <use x="63.623047" xlink:href="#DejaVuSans-48"/>
       <use x="127.246094" xlink:href="#DejaVuSans-48"/>
       <use x="190.869141" xlink:href="#DejaVuSans-48"/>
       <use x="254.492188" xlink:href="#DejaVuSans-48"/>
      </g>
     </g>
    </g>
    <g id="ytick_3">
     <g id="line2d_3">
      <path clip-path="url(#pa9bb49abd5)" d="M 58.418125 251.626577 
L 985.263125 251.626577 
" style="fill:none;stroke:#dedede;stroke-linecap:square;"/>
     </g>
     <g id="text_10">
      <!-- 40000 -->
      <g transform="translate(25.968125 254.665952)scale(0.08 -0.08)">
       <use xlink:href="#DejaVuSans-52"/>
       <use x="63.623047" xlink:href="#DejaVuSans-48"/>
       <use x="127.246094" xlink:href="#DejaVuSans-48"/>
       <use x="190.869141" xlink:href="#DejaVuSans-48"/>
       <use x="254.492188" xlink:href="#DejaVuSans-48"/>
      </g>
     </g>
    </g>
    <g id="ytick_4">
     <g id="line2d_4">
      <path clip-path="url(#pa9bb49abd5)" d="M 58.418125 200.827915 
L 985.263125 200.827915 
" style="fill:none;stroke:#dedede;stroke-linecap:square;"/>
     </g>
     <g id="text_11">
      <!-- 60000 -->
      <g transform="translate(25.968125 203.86729)scale(0.08 -0.08)">
       <use xlink:href="#DejaVuSans-54"/>
       <use x="63.623047" xlink:href="#DejaVuSans-48"/>
       <use x="127.246094" xlink:href="#DejaVuSans-48"/>
       <use x="190.869141" xlink:href="#DejaVuSans-48"/>
       <use x="254.492188" xlink:href="#DejaVuSans-48"/>
      </g>
     </g>
    </g>
    <g id="ytick_5">
     <g id="line2d_5">
      <path clip-path="url(#pa9bb49abd5)" d="M 58.418125 150.029253 
L 985.263125 150.029253 
" style="fill:none;stroke:#dedede;stroke-linecap:square;"/>
     </g>
     <g id="text_12">
      <!-- 80000 -->
      <g transform="translate(25.968125 153.068628)scale(0.08 -0.08)">
       <use xlink:href="#DejaVuSans-56"/>
       <use x="63.623047" xlink:href="#DejaVuSans-48"/>
       <use x="127.246094" xlink:href="#DejaVuSans-48"/>
       <use x="190.869141" xlink:href="#DejaVuSans-48"/>
       <use x="254.492188" xlink:href="#DejaVuSans-48"/>
      </g>
     </g>
    </g>
    <g id="ytick_6">
     <g id="line2d_6">
      <path clip-path="url(#pa9bb49abd5)" d="M 58.418125 99.230592 
L 985.263125 99.230592 
" style="fill:none;stroke:#dedede;stroke-linecap:square;"/>
     </g>
     <g id="text_13">
      <!-- 100000 -->
      <g transform="translate(20.878125 102.269967)scale(0.08 -0.08)">
       <use xlink:href="#DejaVuSans-49"/>
       <use x="63.623047" xlink:href="#DejaVuSans-48"/>
       <use x="127.246094" xlink:href="#DejaVuSans-48"/>
       <use x="190.869141" xlink:href="#DejaVuSans-48"/>
       <use x="254.492188" xlink:href="#DejaVuSans-48"/>
       <use x="318.115234" xlink:href="#DejaVuSans-48"/>
      </g>
     </g>
    </g>
    <g id="ytick_7">
     <g id="line2d_7">
      <path clip-path="url(#pa9bb49abd5)" d="M 58.418125 48.43193 
L 985.263125 48.43193 
" style="fill:none;stroke:#dedede;stroke-linecap:square;"/>
     </g>
     <g id="text_14">
      <!-- 120000 -->
      <g transform="translate(20.878125 51.471305)scale(0.08 -0.08)">
       <use xlink:href="#DejaVuSans-49"/>
       <use x="63.623047" xlink:href="#DejaVuSans-50"/>
       <use x="127.246094" xlink:href="#DejaVuSans-48"/>
       <use x="190.869141" xlink:href="#DejaVuSans-48"/>
       <use x="254.492188" xlink:href="#DejaVuSans-48"/>
       <use x="318.115234" xlink:href="#DejaVuSans-48"/>
      </g>
     </g>
    </g>
    <g id="text_15">
     <!-- Number of Junctions -->
     <defs>
      <path d="M 9.8125 72.90625 
L 23.09375 72.90625 
L 55.421875 11.921875 
L 55.421875 72.90625 
L 64.984375 72.90625 
L 64.984375 0 
L 51.703125 0 
L 19.390625 60.984375 
L 19.390625 0 
L 9.8125 0 
z
" id="DejaVuSans-78"/>
      <path d="M 8.5 21.578125 
L 8.5 54.6875 
L 17.484375 54.6875 
L 17.484375 21.921875 
Q 17.484375 14.15625 20.5 10.265625 
Q 23.53125 6.390625 29.59375 6.390625 
Q 36.859375 6.390625 41.078125 11.03125 
Q 45.3125 15.671875 45.3125 23.6875 
L 45.3125 54.6875 
L 54.296875 54.6875 
L 54.296875 0 
L 45.3125 0 
L 45.3125 8.40625 
Q 42.046875 3.421875 37.71875 1 
Q 33.40625 -1.421875 27.6875 -1.421875 
Q 18.265625 -1.421875 13.375 4.4375 
Q 8.5 10.296875 8.5 21.578125 
z
M 31.109375 56 
z
" id="DejaVuSans-117"/>
      <path d="M 52 44.1875 
Q 55.375 50.25 60.0625 53.125 
Q 64.75 56 71.09375 56 
Q 79.640625 56 84.28125 50.015625 
Q 88.921875 44.046875 88.921875 33.015625 
L 88.921875 0 
L 79.890625 0 
L 79.890625 32.71875 
Q 79.890625 40.578125 77.09375 44.375 
Q 74.3125 48.1875 68.609375 48.1875 
Q 61.625 48.1875 57.5625 43.546875 
Q 53.515625 38.921875 53.515625 30.90625 
L 53.515625 0 
L 44.484375 0 
L 44.484375 32.71875 
Q 44.484375 40.625 41.703125 44.40625 
Q 38.921875 48.1875 33.109375 48.1875 
Q 26.21875 48.1875 22.15625 43.53125 
Q 18.109375 38.875 18.109375 30.90625 
L 18.109375 0 
L 9.078125 0 
L 9.078125 54.6875 
L 18.109375 54.6875 
L 18.109375 46.1875 
Q 21.1875 51.21875 25.484375 53.609375 
Q 29.78125 56 35.6875 56 
Q 41.65625 56 45.828125 52.96875 
Q 50 49.953125 52 44.1875 
z
" id="DejaVuSans-109"/>
      <path d="M 48.6875 27.296875 
Q 48.6875 37.203125 44.609375 42.84375 
Q 40.53125 48.484375 33.40625 48.484375 
Q 26.265625 48.484375 22.1875 42.84375 
Q 18.109375 37.203125 18.109375 27.296875 
Q 18.109375 17.390625 22.1875 11.75 
Q 26.265625 6.109375 33.40625 6.109375 
Q 40.53125 6.109375 44.609375 11.75 
Q 48.6875 17.390625 48.6875 27.296875 
z
M 18.109375 46.390625 
Q 20.953125 51.265625 25.265625 53.625 
Q 29.59375 56 35.59375 56 
Q 45.5625 56 51.78125 48.09375 
Q 58.015625 40.1875 58.015625 27.296875 
Q 58.015625 14.40625 51.78125 6.484375 
Q 45.5625 -1.421875 35.59375 -1.421875 
Q 29.59375 -1.421875 25.265625 0.953125 
Q 20.953125 3.328125 18.109375 8.203125 
L 18.109375 0 
L 9.078125 0 
L 9.078125 75.984375 
L 18.109375 75.984375 
z
" id="DejaVuSans-98"/>
      <path d="M 9.8125 72.90625 
L 19.671875 72.90625 
L 19.671875 5.078125 
Q 19.671875 -8.109375 14.671875 -14.0625 
Q 9.671875 -20.015625 -1.421875 -20.015625 
L -5.171875 -20.015625 
L -5.171875 -11.71875 
L -2.09375 -11.71875 
Q 4.4375 -11.71875 7.125 -8.046875 
Q 9.8125 -4.390625 9.8125 5.078125 
z
" id="DejaVuSans-74"/>
      <path d="M 9.421875 54.6875 
L 18.40625 54.6875 
L 18.40625 0 
L 9.421875 0 
z
M 9.421875 75.984375 
L 18.40625 75.984375 
L 18.40625 64.59375 
L 9.421875 64.59375 
z
" id="DejaVuSans-105"/>
     </defs>
     <g transform="translate(14.798438 245.067244)rotate(-90)scale(0.1 -0.1)">
      <use xlink:href="#DejaVuSans-78"/>
      <use x="74.804688" xlink:href="#DejaVuSans-117"/>
      <use x="138.183594" xlink:href="#DejaVuSans-109"/>
      <use x="235.595703" xlink:href="#DejaVuSans-98"/>
      <use x="299.072266" xlink:href="#DejaVuSans-101"/>
      <use x="360.595703" xlink:href="#DejaVuSans-114"/>
      <use x="401.708984" xlink:href="#DejaVuSans-32"/>
      <use x="433.496094" xlink:href="#DejaVuSans-111"/>
      <use x="494.677734" xlink:href="#DejaVuSans-102"/>
      <use x="529.882812" xlink:href="#DejaVuSans-32"/>
      <use x="561.669922" xlink:href="#DejaVuSans-74"/>
      <use x="591.162109" xlink:href="#DejaVuSans-117"/>
      <use x="654.541016" xlink:href="#DejaVuSans-110"/>
      <use x="717.919922" xlink:href="#DejaVuSans-99"/>
      <use x="772.900391" xlink:href="#DejaVuSans-116"/>
      <use x="812.109375" xlink:href="#DejaVuSans-105"/>
      <use x="839.892578" xlink:href="#DejaVuSans-111"/>
      <use x="901.074219" xlink:href="#DejaVuSans-110"/>
      <use x="964.453125" xlink:href="#DejaVuSans-115"/>
     </g>
    </g>
   </g>
   <g id="line2d_8">
    <path clip-path="url(#pa9bb49abd5)" d="M 104.760375 146.138076 
L 151.102625 118.562022 
L 197.444875 105.509306 
L 243.787125 97.556776 
L 290.129375 92.233076 
L 336.471625 88.451116 
L 382.813875 85.484474 
L 429.156125 83.147735 
L 475.498375 81.308824 
L 521.840625 79.731525 
L 568.182875 78.448859 
L 614.525125 77.237311 
L 660.867375 76.239117 
L 707.209625 75.411099 
L 753.551875 74.654199 
L 799.894125 74.044615 
L 846.236375 73.48837 
L 892.578625 73.08452 
L 938.920875 72.73401 
L 985.263125 72.398738 
" style="fill:none;stroke:#7cb5ec;stroke-linecap:square;"/>
   </g>
   <g id="line2d_9">
    <path clip-path="url(#pa9bb49abd5)" d="M 104.760375 141.187746 
L 151.102625 113.477076 
L 197.444875 100.391341 
L 243.787125 92.489609 
L 290.129375 87.097331 
L 336.471625 83.152815 
L 382.813875 80.015998 
L 429.156125 77.64624 
L 475.498375 75.593974 
L 521.840625 73.838881 
L 568.182875 72.469857 
L 614.525125 71.237989 
L 660.867375 70.295674 
L 707.209625 69.434637 
L 753.551875 68.715835 
L 799.894125 68.065613 
L 846.236375 67.598265 
L 892.578625 67.146157 
L 938.920875 66.721988 
L 985.263125 66.386717 
" style="fill:none;stroke:#434348;stroke-linecap:square;"/>
   </g>
   <g id="line2d_10">
    <path clip-path="url(#pa9bb49abd5)" d="M 104.760375 130.771481 
L 151.102625 101.529231 
L 197.444875 88.085365 
L 243.787125 79.820423 
L 290.129375 73.940478 
L 336.471625 69.589572 
L 382.813875 66.201302 
L 429.156125 63.404835 
L 475.498375 60.95634 
L 521.840625 58.873595 
L 568.182875 57.296296 
L 614.525125 55.853614 
L 660.867375 54.568408 
L 707.209625 53.445758 
L 753.551875 52.505983 
L 799.894125 51.693204 
L 846.236375 50.956623 
L 892.578625 50.344499 
L 938.920875 49.816193 
L 985.263125 49.348846 
" style="fill:none;stroke:#90ed7d;stroke-linecap:square;"/>
   </g>
   <g id="line2d_11">
    <path clip-path="url(#pa9bb49abd5)" d="M 104.760375 147.456301 
L 151.102625 116.720571 
L 197.444875 102.212473 
L 243.787125 93.368426 
L 290.129375 87.176069 
L 336.471625 82.718487 
L 382.813875 79.429273 
L 429.156125 76.721705 
L 475.498375 74.387506 
L 521.840625 72.485096 
L 568.182875 70.83668 
L 614.525125 69.409237 
L 660.867375 68.256108 
L 707.209625 67.171556 
L 753.551875 66.229241 
L 799.894125 65.444402 
L 846.236375 64.839898 
L 892.578625 64.309052 
L 938.920875 63.806145 
L 985.263125 63.412455 
" style="fill:none;stroke:#f7a35c;stroke-linecap:square;"/>
   </g>
   <g id="line2d_12">
    <path clip-path="url(#pa9bb49abd5)" d="M 104.760375 225.117295 
L 151.102625 200.525663 
L 197.444875 188.565118 
L 243.787125 181.486324 
L 290.129375 176.789988 
L 336.471625 173.162964 
L 382.813875 170.419836 
L 429.156125 168.291372 
L 475.498375 166.48802 
L 521.840625 165.065657 
L 568.182875 163.866809 
L 614.525125 162.942273 
L 660.867375 162.065996 
L 707.209625 161.278617 
L 753.551875 160.747771 
L 799.894125 160.222005 
L 846.236375 159.772437 
L 892.578625 159.424466 
L 938.920875 159.129833 
L 985.263125 158.855521 
" style="fill:none;stroke:#8085e9;stroke-linecap:square;"/>
   </g>
   <g id="line2d_13">
    <path clip-path="url(#pa9bb49abd5)" d="M 104.760375 161.070342 
L 151.102625 129.625971 
L 197.444875 114.261916 
L 243.787125 104.927661 
L 290.129375 98.567669 
L 336.471625 93.769735 
L 382.813875 90.130011 
L 429.156125 87.066852 
L 475.498375 84.531999 
L 521.840625 82.373056 
L 568.182875 80.630662 
L 614.525125 79.121941 
L 660.867375 77.925633 
L 707.209625 76.792823 
L 753.551875 75.870827 
L 799.894125 75.101227 
L 846.236375 74.453544 
L 892.578625 73.816021 
L 938.920875 73.328354 
L 985.263125 72.904185 
" style="fill:none;stroke:#f15c80;stroke-linecap:square;"/>
   </g>
   <g id="line2d_14">
    <path clip-path="url(#pa9bb49abd5)" d="M 104.760375 157.527136 
L 151.102625 125.341104 
L 197.444875 109.877991 
L 243.787125 100.503098 
L 290.129375 94.013569 
L 336.471625 89.093719 
L 382.813875 85.347317 
L 429.156125 82.413695 
L 475.498375 79.962659 
L 521.840625 77.834195 
L 568.182875 76.170539 
L 614.525125 74.659279 
L 660.867375 73.302955 
L 707.209625 72.152365 
L 753.551875 71.19989 
L 799.894125 70.384572 
L 846.236375 69.67085 
L 892.578625 69.048567 
L 938.920875 68.5355 
L 985.263125 68.093552 
" style="fill:none;stroke:#e4d354;stroke-linecap:square;"/>
   </g>
   <g id="line2d_15">
    <path clip-path="url(#pa9bb49abd5)" d="M 104.760375 153.379425 
L 151.102625 122.399861 
L 197.444875 107.26186 
L 243.787125 97.909826 
L 290.129375 91.415217 
L 336.471625 86.596964 
L 382.813875 82.820084 
L 429.156125 79.728985 
L 475.498375 77.097615 
L 521.840625 74.890413 
L 568.182875 72.982923 
L 614.525125 71.324347 
L 660.867375 69.955323 
L 707.209625 68.792033 
L 753.551875 67.816699 
L 799.894125 66.922643 
L 846.236375 66.104784 
L 892.578625 65.444402 
L 938.920875 64.842438 
L 985.263125 64.36493 
" style="fill:none;stroke:#2b908f;stroke-linecap:square;"/>
   </g>
   <g id="line2d_16">
    <path clip-path="url(#pa9bb49abd5)" d="M 104.760375 136.430452 
L 151.102625 109.037273 
L 197.444875 96.098854 
L 243.787125 88.349518 
L 290.129375 83.046138 
L 336.471625 79.251478 
L 382.813875 76.218798 
L 429.156125 73.678865 
L 475.498375 71.621519 
L 521.840625 70.023901 
L 568.182875 68.5482 
L 614.525125 67.349351 
L 660.867375 66.2648 
L 707.209625 65.335185 
L 753.551875 64.540185 
L 799.894125 63.877263 
L 846.236375 63.366736 
L 892.578625 62.86129 
L 938.920875 62.419341 
L 985.263125 62.122169 
" style="fill:none;stroke:#f45b5b;stroke-linecap:square;"/>
   </g>
   <g id="line2d_17">
    <path clip-path="url(#pa9bb49abd5)" d="M 104.760375 155.520589 
L 151.102625 125.038852 
L 197.444875 110.518054 
L 243.787125 101.359055 
L 290.129375 95.032082 
L 336.471625 90.607519 
L 382.813875 87.026213 
L 429.156125 84.191648 
L 475.498375 81.910788 
L 521.840625 80.064257 
L 568.182875 78.471718 
L 614.525125 77.054436 
L 660.867375 75.830188 
L 707.209625 74.781196 
L 753.551875 73.86174 
L 799.894125 73.125159 
L 846.236375 72.485096 
L 892.578625 71.834873 
L 938.920875 71.352286 
L 985.263125 70.999235 
" style="fill:none;stroke:#91e8e1;stroke-linecap:square;"/>
   </g>
   <g id="line2d_18">
    <path clip-path="url(#pa9bb49abd5)" d="M 104.760375 118.943012 
L 151.102625 92.44897 
L 197.444875 80.30809 
L 243.787125 72.71623 
L 290.129375 67.40269 
L 336.471625 63.22958 
L 382.813875 60.014025 
L 429.156125 57.425833 
L 475.498375 55.24657 
L 521.840625 53.334001 
L 568.182875 51.660185 
L 614.525125 50.268301 
L 660.867375 49.107552 
L 707.209625 48.028081 
L 753.551875 47.184823 
L 799.894125 46.412683 
L 846.236375 45.734521 
L 892.578625 45.201135 
L 938.920875 44.733787 
L 985.263125 44.296919 
" style="fill:none;stroke:#7cb5ec;stroke-linecap:square;"/>
   </g>
   <g id="line2d_19">
    <path clip-path="url(#pa9bb49abd5)" d="M 104.760375 129.28816 
L 151.102625 100.81805 
L 197.444875 87.826292 
L 243.787125 79.91694 
L 290.129375 74.23511 
L 336.471625 69.935003 
L 382.813875 66.434976 
L 429.156125 63.823924 
L 475.498375 61.769118 
L 521.840625 59.881948 
L 568.182875 58.261471 
L 614.525125 56.905147 
L 660.867375 55.683439 
L 707.209625 54.647146 
L 753.551875 53.783569 
L 799.894125 53.077467 
L 846.236375 52.495823 
L 892.578625 51.883699 
L 938.920875 51.406192 
L 985.263125 50.997262 
" style="fill:none;stroke:#434348;stroke-linecap:square;"/>
   </g>
   <g id="line2d_20">
    <path clip-path="url(#pa9bb49abd5)" d="M 104.760375 187.572004 
L 151.102625 161.636747 
L 197.444875 149.333312 
L 243.787125 142.013224 
L 290.129375 137.283869 
L 336.471625 133.799081 
L 382.813875 131.228669 
L 429.156125 129.191642 
L 475.498375 127.647363 
L 521.840625 126.25802 
L 568.182875 125.10489 
L 614.525125 124.045738 
L 660.867375 123.240579 
L 707.209625 122.468439 
L 753.551875 121.894414 
L 799.894125 121.361029 
L 846.236375 120.947019 
L 892.578625 120.591429 
L 938.920875 120.319656 
L 985.263125 120.085982 
" style="fill:none;stroke:#90ed7d;stroke-linecap:square;"/>
   </g>
   <g id="line2d_21">
    <path clip-path="url(#pa9bb49abd5)" d="M 104.760375 126.514553 
L 151.102625 99.250911 
L 197.444875 86.500447 
L 243.787125 78.79683 
L 290.129375 73.455351 
L 336.471625 69.536234 
L 382.813875 66.541653 
L 429.156125 63.9941 
L 475.498375 61.982473 
L 521.840625 60.270558 
L 568.182875 58.843116 
L 614.525125 57.52997 
L 660.867375 56.465738 
L 707.209625 55.454845 
L 753.551875 54.593808 
L 799.894125 53.941045 
L 846.236375 53.306061 
L 892.578625 52.732037 
L 938.920875 52.267229 
L 985.263125 51.931958 
" style="fill:none;stroke:#f7a35c;stroke-linecap:square;"/>
   </g>
   <g id="line2d_22">
    <path clip-path="url(#pa9bb49abd5)" d="M 104.760375 152.569186 
L 151.102625 123.550451 
L 197.444875 109.91863 
L 243.787125 101.587649 
L 290.129375 95.748343 
L 336.471625 91.290761 
L 382.813875 87.874551 
L 429.156125 85.136503 
L 475.498375 82.995339 
L 521.840625 81.171667 
L 568.182875 79.56643 
L 614.525125 78.205025 
L 660.867375 76.985858 
L 707.209625 76.030843 
L 753.551875 75.164726 
L 799.894125 74.372266 
L 846.236375 73.706804 
L 892.578625 73.148019 
L 938.920875 72.642572 
L 985.263125 72.276822 
" style="fill:none;stroke:#8085e9;stroke-linecap:square;"/>
   </g>
   <g id="line2d_23">
    <path clip-path="url(#pa9bb49abd5)" d="M 104.760375 150.51946 
L 151.102625 122.06459 
L 197.444875 108.7909 
L 243.787125 100.696133 
L 290.129375 95.220037 
L 336.471625 90.94279 
L 382.813875 87.651037 
L 429.156125 84.923148 
L 475.498375 82.688007 
L 521.840625 80.798297 
L 568.182875 79.350535 
L 614.525125 78.098348 
L 660.867375 76.993477 
L 707.209625 75.974964 
L 753.551875 75.141866 
L 799.894125 74.463704 
L 846.236375 73.87444 
L 892.578625 73.358833 
L 938.920875 72.916885 
L 985.263125 72.584154 
" style="fill:none;stroke:#f15c80;stroke-linecap:square;"/>
   </g>
   <g id="line2d_24">
    <path clip-path="url(#pa9bb49abd5)" d="M 104.760375 174.895198 
L 151.102625 141.779551 
L 197.444875 125.579857 
L 243.787125 115.735077 
L 290.129375 108.834079 
L 336.471625 103.792311 
L 382.813875 99.951933 
L 429.156125 96.731297 
L 475.498375 94.117706 
L 521.840625 91.907964 
L 568.182875 89.949676 
L 614.525125 88.334279 
L 660.867375 87.018593 
L 707.209625 85.758786 
L 753.551875 84.763133 
L 799.894125 83.924955 
L 846.236375 83.183294 
L 892.578625 82.540691 
L 938.920875 82.007305 
L 985.263125 81.555197 
" style="fill:none;stroke:#e4d354;stroke-linecap:square;"/>
   </g>
   <g id="line2d_25">
    <path clip-path="url(#pa9bb49abd5)" d="M 104.760375 168.227874 
L 151.102625 142.749805 
L 197.444875 131.16263 
L 243.787125 124.629922 
L 290.129375 120.210439 
L 336.471625 117.170139 
L 382.813875 114.8588 
L 429.156125 113.014808 
L 475.498375 111.567047 
L 521.840625 110.352959 
L 568.182875 109.385244 
L 614.525125 108.473408 
L 660.867375 107.769847 
L 707.209625 107.167882 
L 753.551875 106.695455 
L 799.894125 106.243347 
L 846.236375 105.816638 
L 892.578625 105.461047 
L 938.920875 105.234993 
L 985.263125 105.021639 
" style="fill:none;stroke:#2b908f;stroke-linecap:square;"/>
   </g>
   <g id="line2d_26">
    <path clip-path="url(#pa9bb49abd5)" d="M 104.760375 136.130739 
L 151.102625 108.844238 
L 197.444875 96.512863 
L 243.787125 88.67463 
L 290.129375 83.302671 
L 336.471625 79.485152 
L 382.813875 76.350874 
L 429.156125 73.8465 
L 475.498375 71.745976 
L 521.840625 69.998502 
L 568.182875 68.522801 
L 614.525125 67.242674 
L 660.867375 66.239401 
L 707.209625 65.325025 
L 753.551875 64.507166 
L 799.894125 63.745186 
L 846.236375 63.089884 
L 892.578625 62.543798 
L 938.920875 62.117089 
L 985.263125 61.738639 
" style="fill:none;stroke:#f45b5b;stroke-linecap:square;"/>
   </g>
   <g id="line2d_27">
    <path clip-path="url(#pa9bb49abd5)" d="M 104.760375 183.287137 
L 151.102625 156.147952 
L 197.444875 143.443207 
L 243.787125 135.71927 
L 290.129375 130.657184 
L 336.471625 126.819345 
L 382.813875 124.088917 
L 429.156125 121.988392 
L 475.498375 120.245998 
L 521.840625 118.818556 
L 568.182875 117.624787 
L 614.525125 116.596114 
L 660.867375 115.702058 
L 707.209625 114.965477 
L 753.551875 114.300015 
L 799.894125 113.738689 
L 846.236375 113.179904 
L 892.578625 112.765895 
L 938.920875 112.445863 
L 985.263125 112.151231 
" style="fill:none;stroke:#91e8e1;stroke-linecap:square;"/>
   </g>
   <g id="line2d_28">
    <path clip-path="url(#pa9bb49abd5)" d="M 104.760375 155.591707 
L 151.102625 127.141916 
L 197.444875 113.548194 
L 243.787125 105.328971 
L 290.129375 99.837636 
L 336.471625 95.545149 
L 382.813875 92.375312 
L 429.156125 89.81252 
L 475.498375 87.656116 
L 521.840625 85.964521 
L 568.182875 84.394842 
L 614.525125 83.140115 
L 660.867375 82.022545 
L 707.209625 80.991332 
L 753.551875 80.089656 
L 799.894125 79.355615 
L 846.236375 78.751111 
L 892.578625 78.210105 
L 938.920875 77.793556 
L 985.263125 77.422726 
" style="fill:none;stroke:#7cb5ec;stroke-linecap:square;"/>
   </g>
   <g id="line2d_29">
    <path clip-path="url(#pa9bb49abd5)" d="M 104.760375 154.273481 
L 151.102625 126.99714 
L 197.444875 114.058721 
L 243.787125 106.156989 
L 290.129375 100.566596 
L 336.471625 96.403646 
L 382.813875 93.299848 
L 429.156125 90.747215 
L 475.498375 88.570492 
L 521.840625 86.800159 
L 568.182875 85.357477 
L 614.525125 84.201807 
L 660.867375 83.094397 
L 707.209625 82.177481 
L 753.551875 81.390102 
L 799.894125 80.684 
L 846.236375 80.049017 
L 892.578625 79.55881 
L 938.920875 79.127021 
L 985.263125 78.78413 
" style="fill:none;stroke:#434348;stroke-linecap:square;"/>
   </g>
   <g id="line2d_30">
    <path clip-path="url(#pa9bb49abd5)" d="M 104.760375 145.010345 
L 151.102625 119.01159 
L 197.444875 106.581158 
L 243.787125 99.009617 
L 290.129375 93.894192 
L 336.471625 90.046194 
L 382.813875 87.079552 
L 429.156125 84.577718 
L 475.498375 82.522912 
L 521.840625 80.958313 
L 568.182875 79.56897 
L 614.525125 78.319322 
L 660.867375 77.298269 
L 707.209625 76.368654 
L 753.551875 75.672712 
L 799.894125 75.083448 
L 846.236375 74.458624 
L 892.578625 73.968417 
L 938.920875 73.562028 
L 985.263125 73.211517 
" style="fill:none;stroke:#90ed7d;stroke-linecap:square;"/>
   </g>
   <g id="line2d_31">
    <path clip-path="url(#pa9bb49abd5)" d="M 104.760375 145.942501 
L 151.102625 117.1168 
L 197.444875 103.769452 
L 243.787125 95.11844 
L 290.129375 89.309613 
L 336.471625 85.027286 
L 382.813875 81.499319 
L 429.156125 78.728252 
L 475.498375 76.315315 
L 521.840625 74.456084 
L 568.182875 72.678131 
L 614.525125 71.20751 
L 660.867375 69.922304 
L 707.209625 68.804733 
L 753.551875 67.837019 
L 799.894125 66.970901 
L 846.236375 66.27242 
L 892.578625 65.624737 
L 938.920875 65.055792 
L 985.263125 64.677342 
" style="fill:none;stroke:#f7a35c;stroke-linecap:square;"/>
   </g>
   <g id="line2d_32">
    <path clip-path="url(#pa9bb49abd5)" d="M 104.760375 121.587083 
L 151.102625 97.315482 
L 197.444875 85.807045 
L 243.787125 78.682533 
L 290.129375 73.722044 
L 336.471625 70.209316 
L 382.813875 67.130917 
L 429.156125 64.768779 
L 475.498375 62.757152 
L 521.840625 61.035078 
L 568.182875 59.645734 
L 614.525125 58.479905 
L 660.867375 57.428373 
L 707.209625 56.519077 
L 753.551875 55.762177 
L 799.894125 55.111954 
L 846.236375 54.50745 
L 892.578625 53.961364 
L 938.920875 53.509256 
L 985.263125 53.148586 
" style="fill:none;stroke:#8085e9;stroke-linecap:square;"/>
   </g>
   <g id="line2d_33">
    <path clip-path="url(#pa9bb49abd5)" d="M 104.760375 143.135875 
L 151.102625 114.11206 
L 197.444875 100.165287 
L 243.787125 91.747949 
L 290.129375 85.984841 
L 336.471625 81.364702 
L 382.813875 77.945952 
L 429.156125 75.202825 
L 475.498375 72.904185 
L 521.840625 71.088133 
L 568.182875 69.454956 
L 614.525125 68.075772 
L 660.867375 66.813426 
L 707.209625 65.805072 
L 753.551875 64.875457 
L 799.894125 64.108397 
L 846.236375 63.470874 
L 892.578625 62.84859 
L 938.920875 62.338064 
L 985.263125 61.863096 
" style="fill:none;stroke:#f15c80;stroke-linecap:square;"/>
   </g>
   <g id="line2d_34">
    <path clip-path="url(#pa9bb49abd5)" d="M 104.760375 129.28308 
L 151.102625 103.304644 
L 197.444875 91.252662 
L 243.787125 83.696361 
L 290.129375 78.674913 
L 336.471625 74.694838 
L 382.813875 71.552941 
L 429.156125 68.858072 
L 475.498375 66.757547 
L 521.840625 65.002453 
L 568.182875 63.544532 
L 614.525125 62.188207 
L 660.867375 61.070637 
L 707.209625 60.085143 
L 753.551875 59.272364 
L 799.894125 58.533244 
L 846.236375 57.850002 
L 892.578625 57.242958 
L 938.920875 56.803549 
L 985.263125 56.427639 
" style="fill:none;stroke:#e4d354;stroke-linecap:square;"/>
   </g>
   <g id="line2d_35">
    <path clip-path="url(#pa9bb49abd5)" d="M 104.760375 154.895765 
L 151.102625 124.601983 
L 197.444875 109.646857 
L 243.787125 100.490398 
L 290.129375 94.242163 
L 336.471625 89.441689 
L 382.813875 85.545432 
L 429.156125 82.365436 
L 475.498375 79.94234 
L 521.840625 77.821496 
L 568.182875 76.018143 
L 614.525125 74.458624 
L 660.867375 72.985463 
L 707.209625 71.857733 
L 753.551875 70.765561 
L 799.894125 69.848646 
L 846.236375 69.068886 
L 892.578625 68.459302 
L 938.920875 67.890357 
L 985.263125 67.461109 
" style="fill:none;stroke:#2b908f;stroke-linecap:square;"/>
   </g>
   <g id="line2d_36">
    <path clip-path="url(#pa9bb49abd5)" d="M 104.760375 147.565518 
L 151.102625 117.87878 
L 197.444875 103.810091 
L 243.787125 95.326714 
L 290.129375 89.550907 
L 336.471625 85.052685 
L 382.813875 81.720293 
L 429.156125 79.043203 
L 475.498375 76.805522 
L 521.840625 74.900573 
L 568.182875 73.297875 
L 614.525125 71.96695 
L 660.867375 70.770641 
L 707.209625 69.703869 
L 753.551875 68.868231 
L 799.894125 68.126571 
L 846.236375 67.466188 
L 892.578625 66.935342 
L 938.920875 66.356238 
L 985.263125 65.962548 
" style="fill:none;stroke:#f45b5b;stroke-linecap:square;"/>
   </g>
   <g id="line2d_37">
    <path clip-path="url(#pa9bb49abd5)" d="M 104.760375 156.544182 
L 151.102625 127.210494 
L 197.444875 112.890352 
L 243.787125 104.61525 
L 290.129375 98.882621 
L 336.471625 94.511396 
L 382.813875 91.161224 
L 429.156125 88.377457 
L 475.498375 86.081358 
L 521.840625 84.244986 
L 568.182875 82.632129 
L 614.525125 81.298664 
L 660.867375 80.165854 
L 707.209625 79.104162 
L 753.551875 78.085649 
L 799.894125 77.305889 
L 846.236375 76.724244 
L 892.578625 76.190859 
L 938.920875 75.76415 
L 985.263125 75.38062 
" style="fill:none;stroke:#91e8e1;stroke-linecap:square;"/>
   </g>
   <g id="line2d_38">
    <path clip-path="url(#pa9bb49abd5)" d="M 104.760375 153.031454 
L 151.102625 124.797558 
L 197.444875 111.033661 
L 243.787125 102.606163 
L 290.129375 96.952272 
L 336.471625 92.725823 
L 382.813875 89.479788 
L 429.156125 86.647763 
L 475.498375 84.417702 
L 521.840625 82.627049 
L 568.182875 81.146268 
L 614.525125 79.883921 
L 660.867375 78.766351 
L 707.209625 77.722438 
L 753.551875 76.823302 
L 799.894125 76.063862 
L 846.236375 75.446658 
L 892.578625 74.890413 
L 938.920875 74.357027 
L 985.263125 73.983657 
" style="fill:none;stroke:#7cb5ec;stroke-linecap:square;"/>
   </g>
   <g id="line2d_39">
    <path clip-path="url(#pa9bb49abd5)" d="M 104.760375 132.054147 
L 151.102625 105.575344 
L 197.444875 92.959497 
L 243.787125 84.798692 
L 290.129375 78.923827 
L 336.471625 74.517043 
L 382.813875 71.060194 
L 429.156125 68.121491 
L 475.498375 65.690775 
L 521.840625 63.643589 
L 568.182875 61.944374 
L 614.525125 60.433114 
L 660.867375 59.097109 
L 707.209625 57.829682 
L 753.551875 56.757831 
L 799.894125 55.919653 
L 846.236375 55.147513 
L 892.578625 54.466811 
L 938.920875 53.869927 
L 985.263125 53.412739 
" style="fill:none;stroke:#434348;stroke-linecap:square;"/>
   </g>
   <g id="line2d_40">
    <path clip-path="url(#pa9bb49abd5)" d="M 104.760375 159.889273 
L 151.102625 133.156478 
L 197.444875 120.779384 
L 243.787125 113.461837 
L 290.129375 108.478488 
L 336.471625 104.757486 
L 382.813875 101.96356 
L 429.156125 99.934153 
L 475.498375 98.115561 
L 521.840625 96.655099 
L 568.182875 95.425772 
L 614.525125 94.303121 
L 660.867375 93.470023 
L 707.209625 92.735983 
L 753.551875 92.057821 
L 799.894125 91.466016 
L 846.236375 90.95549 
L 892.578625 90.498302 
L 938.920875 90.221449 
L 985.263125 89.924277 
" style="fill:none;stroke:#90ed7d;stroke-linecap:square;"/>
   </g>
   <g id="line2d_41">
    <path clip-path="url(#pa9bb49abd5)" d="M 104.760375 132.620552 
L 151.102625 105.831878 
L 197.444875 93.340487 
L 243.787125 85.517493 
L 290.129375 79.998218 
L 336.471625 75.914006 
L 382.813875 72.568914 
L 429.156125 69.904524 
L 475.498375 67.646524 
L 521.840625 65.827932 
L 568.182875 64.207454 
L 614.525125 62.83843 
L 660.867375 61.659901 
L 707.209625 60.839503 
L 753.551875 59.927667 
L 799.894125 59.097109 
L 846.236375 58.418947 
L 892.578625 57.794123 
L 938.920875 57.306456 
L 985.263125 56.943246 
" style="fill:none;stroke:#f7a35c;stroke-linecap:square;"/>
   </g>
   <g id="line2d_42">
    <path clip-path="url(#pa9bb49abd5)" d="M 104.760375 148.324958 
L 151.102625 120.832722 
L 197.444875 107.769847 
L 243.787125 99.210272 
L 290.129375 93.083953 
L 336.471625 88.67717 
L 382.813875 85.133963 
L 429.156125 82.174941 
L 475.498375 79.782324 
L 521.840625 77.752917 
L 568.182875 76.074022 
L 614.525125 74.669439 
L 660.867375 73.335974 
L 707.209625 72.231103 
L 753.551875 71.367526 
L 799.894125 70.559827 
L 846.236375 69.833406 
L 892.578625 69.165404 
L 938.920875 68.619318 
L 985.263125 68.195149 
" style="fill:none;stroke:#8085e9;stroke-linecap:square;"/>
   </g>
   <g id="line2d_43">
    <path clip-path="url(#pa9bb49abd5)" d="M 104.760375 161.768824 
L 151.102625 133.903218 
L 197.444875 120.187579 
L 243.787125 111.457829 
L 290.129375 105.565185 
L 336.471625 101.1965 
L 382.813875 97.810769 
L 429.156125 95.072721 
L 475.498375 93.030615 
L 521.840625 91.176464 
L 568.182875 89.713462 
L 614.525125 88.494294 
L 660.867375 87.389424 
L 707.209625 86.36837 
L 753.551875 85.494633 
L 799.894125 84.821551 
L 846.236375 84.262766 
L 892.578625 83.792878 
L 938.920875 83.396649 
L 985.263125 83.043598 
" style="fill:none;stroke:#f15c80;stroke-linecap:square;"/>
   </g>
   <g id="line2d_44">
    <path clip-path="url(#pa9bb49abd5)" d="M 104.760375 125.254746 
L 151.102625 102.375029 
L 197.444875 91.516815 
L 243.787125 85.121263 
L 290.129375 80.595103 
L 336.471625 77.295729 
L 382.813875 74.595781 
L 429.156125 72.568914 
L 475.498375 70.856999 
L 521.840625 69.510835 
L 568.182875 68.266267 
L 614.525125 67.204575 
L 660.867375 66.333378 
L 707.209625 65.604417 
L 753.551875 64.931335 
L 799.894125 64.390329 
L 846.236375 63.935681 
L 892.578625 63.475954 
L 938.920875 63.084804 
L 985.263125 62.762232 
" style="fill:none;stroke:#e4d354;stroke-linecap:square;"/>
   </g>
   <g id="line2d_45">
    <path clip-path="url(#pa9bb49abd5)" d="M 104.760375 170.752567 
L 151.102625 138.810369 
L 197.444875 123.489492 
L 243.787125 113.812347 
L 290.129375 106.634497 
L 336.471625 101.595269 
L 382.813875 97.566935 
L 429.156125 94.232003 
L 475.498375 91.595553 
L 521.840625 89.378191 
L 568.182875 87.371644 
L 614.525125 85.741007 
L 660.867375 84.300865 
L 707.209625 83.168055 
L 753.551875 82.103823 
L 799.894125 81.171667 
L 846.236375 80.404608 
L 892.578625 79.723905 
L 938.920875 79.15496 
L 985.263125 78.690153 
" style="fill:none;stroke:#2b908f;stroke-linecap:square;"/>
   </g>
   <g id="line2d_46">
    <path clip-path="url(#pa9bb49abd5)" d="M 104.760375 172.106352 
L 151.102625 142.55169 
L 197.444875 128.411883 
L 243.787125 119.834529 
L 290.129375 113.883466 
L 336.471625 109.441123 
L 382.813875 106.050312 
L 429.156125 103.152248 
L 475.498375 100.840909 
L 521.840625 98.961359 
L 568.182875 97.345961 
L 614.525125 96.007416 
L 660.867375 94.892386 
L 707.209625 93.914512 
L 753.551875 93.045854 
L 799.894125 92.311814 
L 846.236375 91.730169 
L 892.578625 91.252662 
L 938.920875 90.787854 
L 985.263125 90.409404 
" style="fill:none;stroke:#f45b5b;stroke-linecap:square;"/>
   </g>
   <g id="line2d_47">
    <path clip-path="url(#pa9bb49abd5)" d="M 104.760375 157.341721 
L 151.102625 127.657523 
L 197.444875 113.924104 
L 243.787125 105.047038 
L 290.129375 98.92072 
L 336.471625 94.473297 
L 382.813875 91.049467 
L 429.156125 88.560333 
L 475.498375 86.254073 
L 521.840625 84.321184 
L 568.182875 82.690547 
L 614.525125 81.199607 
L 660.867375 79.957579 
L 707.209625 78.974625 
L 753.551875 78.108508 
L 799.894125 77.333828 
L 846.236375 76.681066 
L 892.578625 76.1172 
L 938.920875 75.665092 
L 985.263125 75.279023 
" style="fill:none;stroke:#91e8e1;stroke-linecap:square;"/>
   </g>
   <g id="line2d_48">
    <path clip-path="url(#pa9bb49abd5)" d="M 104.760375 159.536223 
L 151.102625 129.788526 
L 197.444875 115.516642 
L 243.787125 106.710694 
L 290.129375 100.759631 
L 336.471625 96.26395 
L 382.813875 92.85282 
L 429.156125 89.81252 
L 475.498375 87.450382 
L 521.840625 85.390496 
L 568.182875 83.813198 
L 614.525125 82.416235 
L 660.867375 81.161508 
L 707.209625 80.023618 
L 753.551875 79.15496 
L 799.894125 78.352342 
L 846.236375 77.699579 
L 892.578625 77.097615 
L 938.920875 76.584548 
L 985.263125 76.183239 
" style="fill:none;stroke:#7cb5ec;stroke-linecap:square;"/>
   </g>
   <g id="line2d_49">
    <path clip-path="url(#pa9bb49abd5)" d="M 104.760375 157.443318 
L 151.102625 127.566085 
L 197.444875 112.989409 
L 243.787125 104.127583 
L 290.129375 98.130801 
L 336.471625 93.487803 
L 382.813875 89.934436 
L 429.156125 87.13289 
L 475.498375 84.686935 
L 521.840625 82.637209 
L 568.182875 81.004032 
L 614.525125 79.645168 
L 660.867375 78.332022 
L 707.209625 77.27033 
L 753.551875 76.399133 
L 799.894125 75.619374 
L 846.236375 74.971691 
L 892.578625 74.400206 
L 938.920875 73.907459 
L 985.263125 73.516309 
" style="fill:none;stroke:#434348;stroke-linecap:square;"/>
   </g>
   <g id="line2d_50">
    <path clip-path="url(#pa9bb49abd5)" d="M 104.760375 120.947019 
L 151.102625 97.122447 
L 197.444875 85.575911 
L 243.787125 78.517437 
L 290.129375 73.622986 
L 336.471625 70.011201 
L 382.813875 67.146157 
L 429.156125 64.651943 
L 475.498375 62.630156 
L 521.840625 60.9665 
L 568.182875 59.531437 
L 614.525125 58.238612 
L 660.867375 57.136281 
L 707.209625 56.120307 
L 753.551875 55.284669 
L 799.894125 54.50999 
L 846.236375 53.892786 
L 892.578625 53.3467 
L 938.920875 52.838714 
L 985.263125 52.490743 
" style="fill:none;stroke:#90ed7d;stroke-linecap:square;"/>
   </g>
   <g id="line2d_51">
    <path clip-path="url(#pa9bb49abd5)" d="M 104.760375 129.961242 
L 151.102625 105.885216 
L 197.444875 94.689191 
L 243.787125 87.816132 
L 290.129375 83.020739 
L 336.471625 79.523251 
L 382.813875 76.813142 
L 429.156125 74.659279 
L 475.498375 72.749249 
L 521.840625 71.235449 
L 568.182875 69.909604 
L 614.525125 68.761554 
L 660.867375 67.79384 
L 707.209625 66.983601 
L 753.551875 66.295279 
L 799.894125 65.698395 
L 846.236375 65.198028 
L 892.578625 64.702741 
L 938.920875 64.250633 
L 985.263125 63.935681 
" style="fill:none;stroke:#f7a35c;stroke-linecap:square;"/>
   </g>
   <g id="line2d_52">
    <path clip-path="url(#pa9bb49abd5)" d="M 104.760375 159.543843 
L 151.102625 131.223589 
L 197.444875 118.003237 
L 243.787125 109.786553 
L 290.129375 104.21902 
L 336.471625 100.147507 
L 382.813875 96.779556 
L 429.156125 94.036428 
L 475.498375 91.956223 
L 521.840625 90.259548 
L 568.182875 88.684789 
L 614.525125 87.53674 
L 660.867375 86.442028 
L 707.209625 85.553052 
L 753.551875 84.671695 
L 799.894125 83.922415 
L 846.236375 83.254412 
L 892.578625 82.695627 
L 938.920875 82.296858 
L 985.263125 81.966666 
" style="fill:none;stroke:#8085e9;stroke-linecap:square;"/>
   </g>
   <g id="line2d_53">
    <path clip-path="url(#pa9bb49abd5)" d="M 104.760375 166.691214 
L 151.102625 136.067241 
L 197.444875 121.127355 
L 243.787125 111.940417 
L 290.129375 105.382309 
L 336.471625 100.701213 
L 382.813875 97.046249 
L 429.156125 94.084687 
L 475.498375 91.580313 
L 521.840625 89.42137 
L 568.182875 87.549439 
L 614.525125 86.073738 
L 660.867375 84.796152 
L 707.209625 83.648102 
L 753.551875 82.642289 
L 799.894125 81.82443 
L 846.236375 81.108169 
L 892.578625 80.445246 
L 938.920875 79.94742 
L 985.263125 79.56135 
" style="fill:none;stroke:#f15c80;stroke-linecap:square;"/>
   </g>
   <g id="line2d_54">
    <path clip-path="url(#pa9bb49abd5)" d="M 104.760375 149.346011 
L 151.102625 122.661474 
L 197.444875 109.794173 
L 243.787125 102.082936 
L 290.129375 96.944652 
L 336.471625 92.8198 
L 382.813875 89.840459 
L 429.156125 87.308146 
L 475.498375 85.172062 
L 521.840625 83.432208 
L 568.182875 82.050484 
L 614.525125 80.844016 
L 660.867375 79.805183 
L 707.209625 78.895887 
L 753.551875 78.088189 
L 799.894125 77.437966 
L 846.236375 76.841081 
L 892.578625 76.358494 
L 938.920875 75.987664 
L 985.263125 75.665092 
" style="fill:none;stroke:#e4d354;stroke-linecap:square;"/>
   </g>
   <g id="line2d_55">
    <path clip-path="url(#pa9bb49abd5)" d="M 104.760375 140.730558 
L 151.102625 115.051835 
L 197.444875 103.10145 
L 243.787125 95.428312 
L 290.129375 90.353525 
L 336.471625 86.670622 
L 382.813875 83.73954 
L 429.156125 81.402801 
L 475.498375 79.622308 
L 521.840625 77.976432 
L 568.182875 76.561689 
L 614.525125 75.339981 
L 660.867375 74.191931 
L 707.209625 73.363913 
L 753.551875 72.670511 
L 799.894125 72.015209 
L 846.236375 71.481823 
L 892.578625 70.996695 
L 938.920875 70.625865 
L 985.263125 70.318533 
" style="fill:none;stroke:#2b908f;stroke-linecap:square;"/>
   </g>
   <g id="line2d_56">
    <path clip-path="url(#pa9bb49abd5)" d="M 104.760375 129.549773 
L 151.102625 106.007133 
L 197.444875 94.986363 
L 243.787125 88.456195 
L 290.129375 83.851297 
L 336.471625 80.516365 
L 382.813875 77.818956 
L 429.156125 75.74383 
L 475.498375 74.062395 
L 521.840625 72.513035 
L 568.182875 71.21259 
L 614.525125 70.092479 
L 660.867375 69.200963 
L 707.209625 68.520261 
L 753.551875 67.839559 
L 799.894125 67.237594 
L 846.236375 66.724528 
L 892.578625 66.292739 
L 938.920875 65.932069 
L 985.263125 65.660296 
" style="fill:none;stroke:#f45b5b;stroke-linecap:square;"/>
   </g>
   <g id="line2d_57">
    <path clip-path="url(#pa9bb49abd5)" d="M 104.760375 159.358427 
L 151.102625 129.806306 
L 197.444875 115.97891 
L 243.787125 107.211061 
L 290.129375 101.160941 
L 336.471625 96.62462 
L 382.813875 93.160151 
L 429.156125 90.236689 
L 475.498375 88.001547 
L 521.840625 85.936582 
L 568.182875 84.219587 
L 614.525125 82.855643 
L 660.867375 81.580597 
L 707.209625 80.529064 
L 753.551875 79.619768 
L 799.894125 78.817149 
L 846.236375 78.095808 
L 892.578625 77.595442 
L 938.920875 77.143333 
L 985.263125 76.706465 
" style="fill:none;stroke:#91e8e1;stroke-linecap:square;"/>
   </g>
   <g id="line2d_58">
    <path clip-path="url(#pa9bb49abd5)" d="M 104.760375 147.49694 
L 151.102625 120.520311 
L 197.444875 107.490454 
L 243.787125 99.543003 
L 290.129375 93.899272 
L 336.471625 89.662664 
L 382.813875 86.248994 
L 429.156125 83.457607 
L 475.498375 81.164048 
L 521.840625 79.269257 
L 568.182875 77.66402 
L 614.525125 76.244197 
L 660.867375 75.101227 
L 707.209625 74.176692 
L 753.551875 73.323274 
L 799.894125 72.576534 
L 846.236375 71.987269 
L 892.578625 71.362446 
L 938.920875 70.890018 
L 985.263125 70.534428 
" style="fill:none;stroke:#7cb5ec;stroke-linecap:square;"/>
   </g>
   <g id="line2d_59">
    <path clip-path="url(#pa9bb49abd5)" d="M 104.760375 154.446197 
L 151.102625 125.259826 
L 197.444875 111.272414 
L 243.787125 102.781418 
L 290.129375 96.698278 
L 336.471625 92.352453 
L 382.813875 88.801626 
L 429.156125 86.0204 
L 475.498375 83.813198 
L 521.840625 81.898088 
L 568.182875 80.181093 
L 614.525125 78.78159 
L 660.867375 77.509084 
L 707.209625 76.460091 
L 753.551875 75.606674 
L 799.894125 74.788815 
L 846.236375 74.123353 
L 892.578625 73.546788 
L 938.920875 73.09722 
L 985.263125 72.601933 
" style="fill:none;stroke:#434348;stroke-linecap:square;"/>
   </g>
   <g id="line2d_60">
    <path clip-path="url(#pa9bb49abd5)" d="M 104.760375 178.065035 
L 151.102625 147.176908 
L 197.444875 132.132885 
L 243.787125 122.82149 
L 290.129375 116.263383 
L 336.471625 111.513708 
L 382.813875 107.589511 
L 429.156125 104.577151 
L 475.498375 102.176914 
L 521.840625 100.05353 
L 568.182875 98.392414 
L 614.525125 96.906553 
L 660.867375 95.634046 
L 707.209625 94.531715 
L 753.551875 93.59702 
L 799.894125 92.799481 
L 846.236375 92.0756 
L 892.578625 91.499035 
L 938.920875 91.013908 
L 985.263125 90.610059 
" style="fill:none;stroke:#90ed7d;stroke-linecap:square;"/>
   </g>
   <g id="line2d_61">
    <path clip-path="url(#pa9bb49abd5)" d="M 104.760375 152.686023 
L 151.102625 124.177814 
L 197.444875 110.436776 
L 243.787125 102.362329 
L 290.129375 96.695738 
L 336.471625 92.250855 
L 382.813875 88.862585 
L 429.156125 86.215974 
L 475.498375 84.051951 
L 521.840625 82.276538 
L 568.182875 80.783058 
L 614.525125 79.530871 
L 660.867375 78.492038 
L 707.209625 77.529403 
L 753.551875 76.698845 
L 799.894125 75.980044 
L 846.236375 75.334901 
L 892.578625 74.821835 
L 938.920875 74.387506 
L 985.263125 74.019216 
" style="fill:none;stroke:#f7a35c;stroke-linecap:square;"/>
   </g>
   <g id="line2d_62">
    <path clip-path="url(#pa9bb49abd5)" d="M 104.760375 137.786776 
L 151.102625 110.332639 
L 197.444875 97.935226 
L 243.787125 90.345906 
L 290.129375 85.161902 
L 336.471625 81.357082 
L 382.813875 78.41076 
L 429.156125 75.911466 
L 475.498375 73.719504 
L 521.840625 71.97203 
L 568.182875 70.44807 
L 614.525125 69.124765 
L 660.867375 68.007194 
L 707.209625 67.128377 
L 753.551875 66.2648 
L 799.894125 65.604417 
L 846.236375 64.977054 
L 892.578625 64.479227 
L 938.920875 64.052518 
L 985.263125 63.674068 
" style="fill:none;stroke:#8085e9;stroke-linecap:square;"/>
   </g>
   <g id="line2d_63">
    <path clip-path="url(#pa9bb49abd5)" d="M 104.760375 155.434231 
L 151.102625 127.428929 
L 197.444875 114.424471 
L 243.787125 106.827531 
L 290.129375 101.430174 
L 336.471625 97.75743 
L 382.813875 94.701891 
L 429.156125 92.415951 
L 475.498375 90.511001 
L 521.840625 88.989581 
L 568.182875 87.752634 
L 614.525125 86.76968 
L 660.867375 85.761326 
L 707.209625 84.961247 
L 753.551875 84.285625 
L 799.894125 83.683661 
L 846.236375 83.122336 
L 892.578625 82.682928 
L 938.920875 82.307017 
L 985.263125 82.035245 
" style="fill:none;stroke:#f15c80;stroke-linecap:square;"/>
   </g>
   <g id="line2d_64">
    <path clip-path="url(#pa9bb49abd5)" d="M 104.760375 140.590862 
L 151.102625 113.141805 
L 197.444875 100.44722 
L 243.787125 92.44897 
L 290.129375 86.876357 
L 336.471625 82.794685 
L 382.813875 79.624848 
L 429.156125 76.9122 
L 475.498375 74.679598 
L 521.840625 72.924505 
L 568.182875 71.461503 
L 614.525125 70.219476 
L 660.867375 69.119685 
L 707.209625 68.068153 
L 753.551875 67.285853 
L 799.894125 66.551812 
L 846.236375 65.89905 
L 892.578625 65.408843 
L 938.920875 64.944035 
L 985.263125 64.542725 
" style="fill:none;stroke:#e4d354;stroke-linecap:square;"/>
   </g>
   <g id="line2d_65">
    <path clip-path="url(#pa9bb49abd5)" d="M 104.760375 139.778083 
L 151.102625 112.331566 
L 197.444875 99.324569 
L 243.787125 91.397438 
L 290.129375 85.913722 
L 336.471625 81.725373 
L 382.813875 78.547916 
L 429.156125 75.949565 
L 475.498375 73.823641 
L 521.840625 72.032988 
L 568.182875 70.514108 
L 614.525125 69.165404 
L 660.867375 67.971635 
L 707.209625 66.996301 
L 753.551875 66.064145 
L 799.894125 65.322485 
L 846.236375 64.667182 
L 892.578625 64.019499 
L 938.920875 63.544532 
L 985.263125 63.155922 
" style="fill:none;stroke:#2b908f;stroke-linecap:square;"/>
   </g>
   <g id="line2d_66">
    <path clip-path="url(#pa9bb49abd5)" d="M 104.760375 135.566874 
L 151.102625 110.248821 
L 197.444875 98.222238 
L 243.787125 90.762455 
L 290.129375 85.535272 
L 336.471625 81.717753 
L 382.813875 78.692693 
L 429.156125 76.416913 
L 475.498375 74.417985 
L 521.840625 72.894025 
L 568.182875 71.486902 
L 614.525125 70.275354 
L 660.867375 69.127305 
L 707.209625 68.245948 
L 753.551875 67.499208 
L 799.894125 66.782946 
L 846.236375 66.241941 
L 892.578625 65.728874 
L 938.920875 65.276766 
L 985.263125 64.961814 
" style="fill:none;stroke:#f45b5b;stroke-linecap:square;"/>
   </g>
   <g id="line2d_67">
    <path clip-path="url(#pa9bb49abd5)" d="M 58.418125 353.2239 
L 985.263125 353.2239 
" style="fill:none;stroke:#dedede;stroke-linecap:square;stroke-width:2;"/>
   </g>
   <g id="text_16">
    <!-- RSeQC: Junction Saturation -->
    <defs>
     <path d="M 44.390625 34.1875 
Q 47.5625 33.109375 50.5625 29.59375 
Q 53.5625 26.078125 56.59375 19.921875 
L 66.609375 0 
L 56 0 
L 46.6875 18.703125 
Q 43.0625 26.03125 39.671875 28.421875 
Q 36.28125 30.8125 30.421875 30.8125 
L 19.671875 30.8125 
L 19.671875 0 
L 9.8125 0 
L 9.8125 72.90625 
L 32.078125 72.90625 
Q 44.578125 72.90625 50.734375 67.671875 
Q 56.890625 62.453125 56.890625 51.90625 
Q 56.890625 45.015625 53.6875 40.46875 
Q 50.484375 35.9375 44.390625 34.1875 
z
M 19.671875 64.796875 
L 19.671875 38.921875 
L 32.078125 38.921875 
Q 39.203125 38.921875 42.84375 42.21875 
Q 46.484375 45.515625 46.484375 51.90625 
Q 46.484375 58.296875 42.84375 61.546875 
Q 39.203125 64.796875 32.078125 64.796875 
z
" id="DejaVuSans-82"/>
     <path d="M 53.515625 70.515625 
L 53.515625 60.890625 
Q 47.90625 63.578125 42.921875 64.890625 
Q 37.9375 66.21875 33.296875 66.21875 
Q 25.25 66.21875 20.875 63.09375 
Q 16.5 59.96875 16.5 54.203125 
Q 16.5 49.359375 19.40625 46.890625 
Q 22.3125 44.4375 30.421875 42.921875 
L 36.375 41.703125 
Q 47.40625 39.59375 52.65625 34.296875 
Q 57.90625 29 57.90625 20.125 
Q 57.90625 9.515625 50.796875 4.046875 
Q 43.703125 -1.421875 29.984375 -1.421875 
Q 24.8125 -1.421875 18.96875 -0.25 
Q 13.140625 0.921875 6.890625 3.21875 
L 6.890625 13.375 
Q 12.890625 10.015625 18.65625 8.296875 
Q 24.421875 6.59375 29.984375 6.59375 
Q 38.421875 6.59375 43.015625 9.90625 
Q 47.609375 13.234375 47.609375 19.390625 
Q 47.609375 24.75 44.3125 27.78125 
Q 41.015625 30.8125 33.5 32.328125 
L 27.484375 33.5 
Q 16.453125 35.6875 11.515625 40.375 
Q 6.59375 45.0625 6.59375 53.421875 
Q 6.59375 63.09375 13.40625 68.65625 
Q 20.21875 74.21875 32.171875 74.21875 
Q 37.3125 74.21875 42.625 73.28125 
Q 47.953125 72.359375 53.515625 70.515625 
z
" id="DejaVuSans-83"/>
     <path d="M 39.40625 66.21875 
Q 28.65625 66.21875 22.328125 58.203125 
Q 16.015625 50.203125 16.015625 36.375 
Q 16.015625 22.609375 22.328125 14.59375 
Q 28.65625 6.59375 39.40625 6.59375 
Q 50.140625 6.59375 56.421875 14.59375 
Q 62.703125 22.609375 62.703125 36.375 
Q 62.703125 50.203125 56.421875 58.203125 
Q 50.140625 66.21875 39.40625 66.21875 
z
M 53.21875 1.3125 
L 66.21875 -12.890625 
L 54.296875 -12.890625 
L 43.5 -1.21875 
Q 41.890625 -1.3125 41.03125 -1.359375 
Q 40.1875 -1.421875 39.40625 -1.421875 
Q 24.03125 -1.421875 14.8125 8.859375 
Q 5.609375 19.140625 5.609375 36.375 
Q 5.609375 53.65625 14.8125 63.9375 
Q 24.03125 74.21875 39.40625 74.21875 
Q 54.734375 74.21875 63.90625 63.9375 
Q 73.09375 53.65625 73.09375 36.375 
Q 73.09375 23.6875 67.984375 14.640625 
Q 62.890625 5.609375 53.21875 1.3125 
z
" id="DejaVuSans-81"/>
     <path d="M 64.40625 67.28125 
L 64.40625 56.890625 
Q 59.421875 61.53125 53.78125 63.8125 
Q 48.140625 66.109375 41.796875 66.109375 
Q 29.296875 66.109375 22.65625 58.46875 
Q 16.015625 50.828125 16.015625 36.375 
Q 16.015625 21.96875 22.65625 14.328125 
Q 29.296875 6.6875 41.796875 6.6875 
Q 48.140625 6.6875 53.78125 8.984375 
Q 59.421875 11.28125 64.40625 15.921875 
L 64.40625 5.609375 
Q 59.234375 2.09375 53.4375 0.328125 
Q 47.65625 -1.421875 41.21875 -1.421875 
Q 24.65625 -1.421875 15.125 8.703125 
Q 5.609375 18.84375 5.609375 36.375 
Q 5.609375 53.953125 15.125 64.078125 
Q 24.65625 74.21875 41.21875 74.21875 
Q 47.75 74.21875 53.53125 72.484375 
Q 59.328125 70.75 64.40625 67.28125 
z
" id="DejaVuSans-67"/>
     <path d="M 11.71875 12.40625 
L 22.015625 12.40625 
L 22.015625 0 
L 11.71875 0 
z
M 11.71875 51.703125 
L 22.015625 51.703125 
L 22.015625 39.3125 
L 11.71875 39.3125 
z
" id="DejaVuSans-58"/>
    </defs>
    <g transform="translate(412.691875 19.3575)scale(0.16 -0.16)">
     <use xlink:href="#DejaVuSans-82"/>
     <use x="69.482422" xlink:href="#DejaVuSans-83"/>
     <use x="132.958984" xlink:href="#DejaVuSans-101"/>
     <use x="194.482422" xlink:href="#DejaVuSans-81"/>
     <use x="273.193359" xlink:href="#DejaVuSans-67"/>
     <use x="343.017578" xlink:href="#DejaVuSans-58"/>
     <use x="376.708984" xlink:href="#DejaVuSans-32"/>
     <use x="408.496094" xlink:href="#DejaVuSans-74"/>
     <use x="437.988281" xlink:href="#DejaVuSans-117"/>
     <use x="501.367188" xlink:href="#DejaVuSans-110"/>
     <use x="564.746094" xlink:href="#DejaVuSans-99"/>
     <use x="619.726562" xlink:href="#DejaVuSans-116"/>
     <use x="658.935547" xlink:href="#DejaVuSans-105"/>
     <use x="686.71875" xlink:href="#DejaVuSans-111"/>
     <use x="747.900391" xlink:href="#DejaVuSans-110"/>
     <use x="811.279297" xlink:href="#DejaVuSans-32"/>
     <use x="843.066406" xlink:href="#DejaVuSans-83"/>
     <use x="906.542969" xlink:href="#DejaVuSans-97"/>
     <use x="967.822266" xlink:href="#DejaVuSans-116"/>
     <use x="1007.03125" xlink:href="#DejaVuSans-117"/>
     <use x="1070.410156" xlink:href="#DejaVuSans-114"/>
     <use x="1111.523438" xlink:href="#DejaVuSans-97"/>
     <use x="1172.802734" xlink:href="#DejaVuSans-116"/>
     <use x="1212.011719" xlink:href="#DejaVuSans-105"/>
     <use x="1239.794922" xlink:href="#DejaVuSans-111"/>
     <use x="1300.976562" xlink:href="#DejaVuSans-110"/>
    </g>
   </g>
  </g>
 </g>
 <defs>
  <clipPath id="pa9bb49abd5">
   <rect height="317.968" width="926.845" x="58.418125" y="35.2559"/>
  </clipPath>
 </defs>
</svg>
