<?xml version="1.0" encoding="utf-8" standalone="no"?>
<!DOCTYPE svg PUBLIC "-//W3C//DTD SVG 1.1//EN"
  "http://www.w3.org/Graphics/SVG/1.1/DTD/svg11.dtd">
<!-- Created with matplotlib (https://matplotlib.org/) -->
<svg height="1519.216522pt" version="1.1" viewBox="0 0 825.11625 1519.216522" width="825.11625pt" xmlns="http://www.w3.org/2000/svg" xmlns:xlink="http://www.w3.org/1999/xlink">
 <defs>
  <style type="text/css">
*{stroke-linecap:butt;stroke-linejoin:round;}
  </style>
 </defs>
 <g id="figure_1">
  <g id="patch_1">
   <path d="M 0 1519.216522 
L 825.11625 1519.216522 
L 825.11625 -0 
L 0 -0 
z
" style="fill:#ffffff;"/>
  </g>
  <g id="axes_1">
   <g id="patch_2">
    <path d="M 33.21625 1432.856522 
L 814.41625 1432.856522 
L 814.41625 10.7 
L 33.21625 10.7 
z
" style="fill:#ffffff;"/>
   </g>
   <g id="matplotlib.axis_1">
    <g id="xtick_1">
     <g id="line2d_1">
      <path clip-path="url(#pa502519a5f)" d="M 33.21625 1432.856522 
L 33.21625 10.7 
" style="fill:none;stroke:#dedede;stroke-linecap:square;"/>
     </g>
     <g id="text_1">
      <!-- 0 -->
      <defs>
       <path d="M 31.78125 66.40625 
Q 24.171875 66.40625 20.328125 58.90625 
Q 16.5 51.421875 16.5 36.375 
Q 16.5 21.390625 20.328125 13.890625 
Q 24.171875 6.390625 31.78125 6.390625 
Q 39.453125 6.390625 43.28125 13.890625 
Q 47.125 21.390625 47.125 36.375 
Q 47.125 51.421875 43.28125 58.90625 
Q 39.453125 66.40625 31.78125 66.40625 
z
M 31.78125 74.21875 
Q 44.046875 74.21875 50.515625 64.515625 
Q 56.984375 54.828125 56.984375 36.375 
Q 56.984375 17.96875 50.515625 8.265625 
Q 44.046875 -1.421875 31.78125 -1.421875 
Q 19.53125 -1.421875 13.0625 8.265625 
Q 6.59375 17.96875 6.59375 36.375 
Q 6.59375 54.828125 13.0625 64.515625 
Q 19.53125 74.21875 31.78125 74.21875 
z
" id="DejaVuSans-48"/>
      </defs>
      <g transform="translate(30.67125 1445.935272)scale(0.08 -0.08)">
       <use xlink:href="#DejaVuSans-48"/>
      </g>
     </g>
    </g>
    <g id="xtick_2">
     <g id="line2d_2">
      <path clip-path="url(#pa502519a5f)" d="M 190.486578 1432.856522 
L 190.486578 10.7 
" style="fill:none;stroke:#dedede;stroke-linecap:square;"/>
     </g>
     <g id="text_2">
      <!-- 500000 -->
      <defs>
       <path d="M 10.796875 72.90625 
L 49.515625 72.90625 
L 49.515625 64.59375 
L 19.828125 64.59375 
L 19.828125 46.734375 
Q 21.96875 47.46875 24.109375 47.828125 
Q 26.265625 48.1875 28.421875 48.1875 
Q 40.625 48.1875 47.75 41.5 
Q 54.890625 34.8125 54.890625 23.390625 
Q 54.890625 11.625 47.5625 5.09375 
Q 40.234375 -1.421875 26.90625 -1.421875 
Q 22.3125 -1.421875 17.546875 -0.640625 
Q 12.796875 0.140625 7.71875 1.703125 
L 7.71875 11.625 
Q 12.109375 9.234375 16.796875 8.0625 
Q 21.484375 6.890625 26.703125 6.890625 
Q 35.15625 6.890625 40.078125 11.328125 
Q 45.015625 15.765625 45.015625 23.390625 
Q 45.015625 31 40.078125 35.4375 
Q 35.15625 39.890625 26.703125 39.890625 
Q 22.75 39.890625 18.8125 39.015625 
Q 14.890625 38.140625 10.796875 36.28125 
z
" id="DejaVuSans-53"/>
      </defs>
      <g transform="translate(175.216578 1445.935272)scale(0.08 -0.08)">
       <use xlink:href="#DejaVuSans-53"/>
       <use x="63.623047" xlink:href="#DejaVuSans-48"/>
       <use x="127.246094" xlink:href="#DejaVuSans-48"/>
       <use x="190.869141" xlink:href="#DejaVuSans-48"/>
       <use x="254.492188" xlink:href="#DejaVuSans-48"/>
       <use x="318.115234" xlink:href="#DejaVuSans-48"/>
      </g>
     </g>
    </g>
    <g id="xtick_3">
     <g id="line2d_3">
      <path clip-path="url(#pa502519a5f)" d="M 347.756906 1432.856522 
L 347.756906 10.7 
" style="fill:none;stroke:#dedede;stroke-linecap:square;"/>
     </g>
     <g id="text_3">
      <!-- 1000000 -->
      <defs>
       <path d="M 12.40625 8.296875 
L 28.515625 8.296875 
L 28.515625 63.921875 
L 10.984375 60.40625 
L 10.984375 69.390625 
L 28.421875 72.90625 
L 38.28125 72.90625 
L 38.28125 8.296875 
L 54.390625 8.296875 
L 54.390625 0 
L 12.40625 0 
z
" id="DejaVuSans-49"/>
      </defs>
      <g transform="translate(329.941906 1445.935272)scale(0.08 -0.08)">
       <use xlink:href="#DejaVuSans-49"/>
       <use x="63.623047" xlink:href="#DejaVuSans-48"/>
       <use x="127.246094" xlink:href="#DejaVuSans-48"/>
       <use x="190.869141" xlink:href="#DejaVuSans-48"/>
       <use x="254.492188" xlink:href="#DejaVuSans-48"/>
       <use x="318.115234" xlink:href="#DejaVuSans-48"/>
       <use x="381.738281" xlink:href="#DejaVuSans-48"/>
      </g>
     </g>
    </g>
    <g id="xtick_4">
     <g id="line2d_4">
      <path clip-path="url(#pa502519a5f)" d="M 505.027235 1432.856522 
L 505.027235 10.7 
" style="fill:none;stroke:#dedede;stroke-linecap:square;"/>
     </g>
     <g id="text_4">
      <!-- 1500000 -->
      <g transform="translate(487.212235 1445.935272)scale(0.08 -0.08)">
       <use xlink:href="#DejaVuSans-49"/>
       <use x="63.623047" xlink:href="#DejaVuSans-53"/>
       <use x="127.246094" xlink:href="#DejaVuSans-48"/>
       <use x="190.869141" xlink:href="#DejaVuSans-48"/>
       <use x="254.492188" xlink:href="#DejaVuSans-48"/>
       <use x="318.115234" xlink:href="#DejaVuSans-48"/>
       <use x="381.738281" xlink:href="#DejaVuSans-48"/>
      </g>
     </g>
    </g>
    <g id="xtick_5">
     <g id="line2d_5">
      <path clip-path="url(#pa502519a5f)" d="M 662.297563 1432.856522 
L 662.297563 10.7 
" style="fill:none;stroke:#dedede;stroke-linecap:square;"/>
     </g>
     <g id="text_5">
      <!-- 2000000 -->
      <defs>
       <path d="M 19.1875 8.296875 
L 53.609375 8.296875 
L 53.609375 0 
L 7.328125 0 
L 7.328125 8.296875 
Q 12.9375 14.109375 22.625 23.890625 
Q 32.328125 33.6875 34.8125 36.53125 
Q 39.546875 41.84375 41.421875 45.53125 
Q 43.3125 49.21875 43.3125 52.78125 
Q 43.3125 58.59375 39.234375 62.25 
Q 35.15625 65.921875 28.609375 65.921875 
Q 23.96875 65.921875 18.8125 64.3125 
Q 13.671875 62.703125 7.8125 59.421875 
L 7.8125 69.390625 
Q 13.765625 71.78125 18.9375 73 
Q 24.125 74.21875 28.421875 74.21875 
Q 39.75 74.21875 46.484375 68.546875 
Q 53.21875 62.890625 53.21875 53.421875 
Q 53.21875 48.921875 51.53125 44.890625 
Q 49.859375 40.875 45.40625 35.40625 
Q 44.1875 33.984375 37.640625 27.21875 
Q 31.109375 20.453125 19.1875 8.296875 
z
" id="DejaVuSans-50"/>
      </defs>
      <g transform="translate(644.482563 1445.935272)scale(0.08 -0.08)">
       <use xlink:href="#DejaVuSans-50"/>
       <use x="63.623047" xlink:href="#DejaVuSans-48"/>
       <use x="127.246094" xlink:href="#DejaVuSans-48"/>
       <use x="190.869141" xlink:href="#DejaVuSans-48"/>
       <use x="254.492188" xlink:href="#DejaVuSans-48"/>
       <use x="318.115234" xlink:href="#DejaVuSans-48"/>
       <use x="381.738281" xlink:href="#DejaVuSans-48"/>
      </g>
     </g>
    </g>
    <g id="text_6">
     <!-- Number of reads -->
     <defs>
      <path d="M 9.8125 72.90625 
L 23.09375 72.90625 
L 55.421875 11.921875 
L 55.421875 72.90625 
L 64.984375 72.90625 
L 64.984375 0 
L 51.703125 0 
L 19.390625 60.984375 
L 19.390625 0 
L 9.8125 0 
z
" id="DejaVuSans-78"/>
      <path d="M 8.5 21.578125 
L 8.5 54.6875 
L 17.484375 54.6875 
L 17.484375 21.921875 
Q 17.484375 14.15625 20.5 10.265625 
Q 23.53125 6.390625 29.59375 6.390625 
Q 36.859375 6.390625 41.078125 11.03125 
Q 45.3125 15.671875 45.3125 23.6875 
L 45.3125 54.6875 
L 54.296875 54.6875 
L 54.296875 0 
L 45.3125 0 
L 45.3125 8.40625 
Q 42.046875 3.421875 37.71875 1 
Q 33.40625 -1.421875 27.6875 -1.421875 
Q 18.265625 -1.421875 13.375 4.4375 
Q 8.5 10.296875 8.5 21.578125 
z
M 31.109375 56 
z
" id="DejaVuSans-117"/>
      <path d="M 52 44.1875 
Q 55.375 50.25 60.0625 53.125 
Q 64.75 56 71.09375 56 
Q 79.640625 56 84.28125 50.015625 
Q 88.921875 44.046875 88.921875 33.015625 
L 88.921875 0 
L 79.890625 0 
L 79.890625 32.71875 
Q 79.890625 40.578125 77.09375 44.375 
Q 74.3125 48.1875 68.609375 48.1875 
Q 61.625 48.1875 57.5625 43.546875 
Q 53.515625 38.921875 53.515625 30.90625 
L 53.515625 0 
L 44.484375 0 
L 44.484375 32.71875 
Q 44.484375 40.625 41.703125 44.40625 
Q 38.921875 48.1875 33.109375 48.1875 
Q 26.21875 48.1875 22.15625 43.53125 
Q 18.109375 38.875 18.109375 30.90625 
L 18.109375 0 
L 9.078125 0 
L 9.078125 54.6875 
L 18.109375 54.6875 
L 18.109375 46.1875 
Q 21.1875 51.21875 25.484375 53.609375 
Q 29.78125 56 35.6875 56 
Q 41.65625 56 45.828125 52.96875 
Q 50 49.953125 52 44.1875 
z
" id="DejaVuSans-109"/>
      <path d="M 48.6875 27.296875 
Q 48.6875 37.203125 44.609375 42.84375 
Q 40.53125 48.484375 33.40625 48.484375 
Q 26.265625 48.484375 22.1875 42.84375 
Q 18.109375 37.203125 18.109375 27.296875 
Q 18.109375 17.390625 22.1875 11.75 
Q 26.265625 6.109375 33.40625 6.109375 
Q 40.53125 6.109375 44.609375 11.75 
Q 48.6875 17.390625 48.6875 27.296875 
z
M 18.109375 46.390625 
Q 20.953125 51.265625 25.265625 53.625 
Q 29.59375 56 35.59375 56 
Q 45.5625 56 51.78125 48.09375 
Q 58.015625 40.1875 58.015625 27.296875 
Q 58.015625 14.40625 51.78125 6.484375 
Q 45.5625 -1.421875 35.59375 -1.421875 
Q 29.59375 -1.421875 25.265625 0.953125 
Q 20.953125 3.328125 18.109375 8.203125 
L 18.109375 0 
L 9.078125 0 
L 9.078125 75.984375 
L 18.109375 75.984375 
z
" id="DejaVuSans-98"/>
      <path d="M 56.203125 29.59375 
L 56.203125 25.203125 
L 14.890625 25.203125 
Q 15.484375 15.921875 20.484375 11.0625 
Q 25.484375 6.203125 34.421875 6.203125 
Q 39.59375 6.203125 44.453125 7.46875 
Q 49.3125 8.734375 54.109375 11.28125 
L 54.109375 2.78125 
Q 49.265625 0.734375 44.1875 -0.34375 
Q 39.109375 -1.421875 33.890625 -1.421875 
Q 20.796875 -1.421875 13.15625 6.1875 
Q 5.515625 13.8125 5.515625 26.8125 
Q 5.515625 40.234375 12.765625 48.109375 
Q 20.015625 56 32.328125 56 
Q 43.359375 56 49.78125 48.890625 
Q 56.203125 41.796875 56.203125 29.59375 
z
M 47.21875 32.234375 
Q 47.125 39.59375 43.09375 43.984375 
Q 39.0625 48.390625 32.421875 48.390625 
Q 24.90625 48.390625 20.390625 44.140625 
Q 15.875 39.890625 15.1875 32.171875 
z
" id="DejaVuSans-101"/>
      <path d="M 41.109375 46.296875 
Q 39.59375 47.171875 37.8125 47.578125 
Q 36.03125 48 33.890625 48 
Q 26.265625 48 22.1875 43.046875 
Q 18.109375 38.09375 18.109375 28.8125 
L 18.109375 0 
L 9.078125 0 
L 9.078125 54.6875 
L 18.109375 54.6875 
L 18.109375 46.1875 
Q 20.953125 51.171875 25.484375 53.578125 
Q 30.03125 56 36.53125 56 
Q 37.453125 56 38.578125 55.875 
Q 39.703125 55.765625 41.0625 55.515625 
z
" id="DejaVuSans-114"/>
      <path id="DejaVuSans-32"/>
      <path d="M 30.609375 48.390625 
Q 23.390625 48.390625 19.1875 42.75 
Q 14.984375 37.109375 14.984375 27.296875 
Q 14.984375 17.484375 19.15625 11.84375 
Q 23.34375 6.203125 30.609375 6.203125 
Q 37.796875 6.203125 41.984375 11.859375 
Q 46.1875 17.53125 46.1875 27.296875 
Q 46.1875 37.015625 41.984375 42.703125 
Q 37.796875 48.390625 30.609375 48.390625 
z
M 30.609375 56 
Q 42.328125 56 49.015625 48.375 
Q 55.71875 40.765625 55.71875 27.296875 
Q 55.71875 13.875 49.015625 6.21875 
Q 42.328125 -1.421875 30.609375 -1.421875 
Q 18.84375 -1.421875 12.171875 6.21875 
Q 5.515625 13.875 5.515625 27.296875 
Q 5.515625 40.765625 12.171875 48.375 
Q 18.84375 56 30.609375 56 
z
" id="DejaVuSans-111"/>
      <path d="M 37.109375 75.984375 
L 37.109375 68.5 
L 28.515625 68.5 
Q 23.6875 68.5 21.796875 66.546875 
Q 19.921875 64.59375 19.921875 59.515625 
L 19.921875 54.6875 
L 34.71875 54.6875 
L 34.71875 47.703125 
L 19.921875 47.703125 
L 19.921875 0 
L 10.890625 0 
L 10.890625 47.703125 
L 2.296875 47.703125 
L 2.296875 54.6875 
L 10.890625 54.6875 
L 10.890625 58.5 
Q 10.890625 67.625 15.140625 71.796875 
Q 19.390625 75.984375 28.609375 75.984375 
z
" id="DejaVuSans-102"/>
      <path d="M 34.28125 27.484375 
Q 23.390625 27.484375 19.1875 25 
Q 14.984375 22.515625 14.984375 16.5 
Q 14.984375 11.71875 18.140625 8.90625 
Q 21.296875 6.109375 26.703125 6.109375 
Q 34.1875 6.109375 38.703125 11.40625 
Q 43.21875 16.703125 43.21875 25.484375 
L 43.21875 27.484375 
z
M 52.203125 31.203125 
L 52.203125 0 
L 43.21875 0 
L 43.21875 8.296875 
Q 40.140625 3.328125 35.546875 0.953125 
Q 30.953125 -1.421875 24.3125 -1.421875 
Q 15.921875 -1.421875 10.953125 3.296875 
Q 6 8.015625 6 15.921875 
Q 6 25.140625 12.171875 29.828125 
Q 18.359375 34.515625 30.609375 34.515625 
L 43.21875 34.515625 
L 43.21875 35.40625 
Q 43.21875 41.609375 39.140625 45 
Q 35.0625 48.390625 27.6875 48.390625 
Q 23 48.390625 18.546875 47.265625 
Q 14.109375 46.140625 10.015625 43.890625 
L 10.015625 52.203125 
Q 14.9375 54.109375 19.578125 55.046875 
Q 24.21875 56 28.609375 56 
Q 40.484375 56 46.34375 49.84375 
Q 52.203125 43.703125 52.203125 31.203125 
z
" id="DejaVuSans-97"/>
      <path d="M 45.40625 46.390625 
L 45.40625 75.984375 
L 54.390625 75.984375 
L 54.390625 0 
L 45.40625 0 
L 45.40625 8.203125 
Q 42.578125 3.328125 38.25 0.953125 
Q 33.9375 -1.421875 27.875 -1.421875 
Q 17.96875 -1.421875 11.734375 6.484375 
Q 5.515625 14.40625 5.515625 27.296875 
Q 5.515625 40.1875 11.734375 48.09375 
Q 17.96875 56 27.875 56 
Q 33.9375 56 38.25 53.625 
Q 42.578125 51.265625 45.40625 46.390625 
z
M 14.796875 27.296875 
Q 14.796875 17.390625 18.875 11.75 
Q 22.953125 6.109375 30.078125 6.109375 
Q 37.203125 6.109375 41.296875 11.75 
Q 45.40625 17.390625 45.40625 27.296875 
Q 45.40625 37.203125 41.296875 42.84375 
Q 37.203125 48.484375 30.078125 48.484375 
Q 22.953125 48.484375 18.875 42.84375 
Q 14.796875 37.203125 14.796875 27.296875 
z
" id="DejaVuSans-100"/>
      <path d="M 44.28125 53.078125 
L 44.28125 44.578125 
Q 40.484375 46.53125 36.375 47.5 
Q 32.28125 48.484375 27.875 48.484375 
Q 21.1875 48.484375 17.84375 46.4375 
Q 14.5 44.390625 14.5 40.28125 
Q 14.5 37.15625 16.890625 35.375 
Q 19.28125 33.59375 26.515625 31.984375 
L 29.59375 31.296875 
Q 39.15625 29.25 43.1875 25.515625 
Q 47.21875 21.78125 47.21875 15.09375 
Q 47.21875 7.46875 41.1875 3.015625 
Q 35.15625 -1.421875 24.609375 -1.421875 
Q 20.21875 -1.421875 15.453125 -0.5625 
Q 10.6875 0.296875 5.421875 2 
L 5.421875 11.28125 
Q 10.40625 8.6875 15.234375 7.390625 
Q 20.0625 6.109375 24.8125 6.109375 
Q 31.15625 6.109375 34.5625 8.28125 
Q 37.984375 10.453125 37.984375 14.40625 
Q 37.984375 18.0625 35.515625 20.015625 
Q 33.0625 21.96875 24.703125 23.78125 
L 21.578125 24.515625 
Q 13.234375 26.265625 9.515625 29.90625 
Q 5.8125 33.546875 5.8125 39.890625 
Q 5.8125 47.609375 11.28125 51.796875 
Q 16.75 56 26.8125 56 
Q 31.78125 56 36.171875 55.265625 
Q 40.578125 54.546875 44.28125 53.078125 
z
" id="DejaVuSans-115"/>
     </defs>
     <g transform="translate(381.759219 1459.197459)scale(0.1 -0.1)">
      <use xlink:href="#DejaVuSans-78"/>
      <use x="74.804688" xlink:href="#DejaVuSans-117"/>
      <use x="138.183594" xlink:href="#DejaVuSans-109"/>
      <use x="235.595703" xlink:href="#DejaVuSans-98"/>
      <use x="299.072266" xlink:href="#DejaVuSans-101"/>
      <use x="360.595703" xlink:href="#DejaVuSans-114"/>
      <use x="401.708984" xlink:href="#DejaVuSans-32"/>
      <use x="433.496094" xlink:href="#DejaVuSans-111"/>
      <use x="494.677734" xlink:href="#DejaVuSans-102"/>
      <use x="529.882812" xlink:href="#DejaVuSans-32"/>
      <use x="561.669922" xlink:href="#DejaVuSans-114"/>
      <use x="602.751953" xlink:href="#DejaVuSans-101"/>
      <use x="664.275391" xlink:href="#DejaVuSans-97"/>
      <use x="725.554688" xlink:href="#DejaVuSans-100"/>
      <use x="789.03125" xlink:href="#DejaVuSans-115"/>
     </g>
    </g>
   </g>
   <g id="matplotlib.axis_2">
    <g id="ytick_1">
     <g id="text_7">
      <!-- BC1 -->
      <defs>
       <path d="M 19.671875 34.8125 
L 19.671875 8.109375 
L 35.5 8.109375 
Q 43.453125 8.109375 47.28125 11.40625 
Q 51.125 14.703125 51.125 21.484375 
Q 51.125 28.328125 47.28125 31.5625 
Q 43.453125 34.8125 35.5 34.8125 
z
M 19.671875 64.796875 
L 19.671875 42.828125 
L 34.28125 42.828125 
Q 41.5 42.828125 45.03125 45.53125 
Q 48.578125 48.25 48.578125 53.8125 
Q 48.578125 59.328125 45.03125 62.0625 
Q 41.5 64.796875 34.28125 64.796875 
z
M 9.8125 72.90625 
L 35.015625 72.90625 
Q 46.296875 72.90625 52.390625 68.21875 
Q 58.5 63.53125 58.5 54.890625 
Q 58.5 48.1875 55.375 44.234375 
Q 52.25 40.28125 46.1875 39.3125 
Q 53.46875 37.75 57.5 32.78125 
Q 61.53125 27.828125 61.53125 20.40625 
Q 61.53125 10.640625 54.890625 5.3125 
Q 48.25 0 35.984375 0 
L 9.8125 0 
z
" id="DejaVuSans-66"/>
       <path d="M 64.40625 67.28125 
L 64.40625 56.890625 
Q 59.421875 61.53125 53.78125 63.8125 
Q 48.140625 66.109375 41.796875 66.109375 
Q 29.296875 66.109375 22.65625 58.46875 
Q 16.015625 50.828125 16.015625 36.375 
Q 16.015625 21.96875 22.65625 14.328125 
Q 29.296875 6.6875 41.796875 6.6875 
Q 48.140625 6.6875 53.78125 8.984375 
Q 59.421875 11.28125 64.40625 15.921875 
L 64.40625 5.609375 
Q 59.234375 2.09375 53.4375 0.328125 
Q 47.65625 -1.421875 41.21875 -1.421875 
Q 24.65625 -1.421875 15.125 8.703125 
Q 5.609375 18.84375 5.609375 36.375 
Q 5.609375 53.953125 15.125 64.078125 
Q 24.65625 74.21875 41.21875 74.21875 
Q 47.75 74.21875 53.53125 72.484375 
Q 59.328125 70.75 64.40625 67.28125 
z
" id="DejaVuSans-67"/>
      </defs>
      <g transform="translate(10.0525 25.791549)scale(0.08 -0.08)">
       <use xlink:href="#DejaVuSans-66"/>
       <use x="68.587891" xlink:href="#DejaVuSans-67"/>
       <use x="138.412109" xlink:href="#DejaVuSans-49"/>
      </g>
     </g>
    </g>
    <g id="ytick_2">
     <g id="text_8">
      <!-- BC2 -->
      <g transform="translate(10.0525 49.895897)scale(0.08 -0.08)">
       <use xlink:href="#DejaVuSans-66"/>
       <use x="68.587891" xlink:href="#DejaVuSans-67"/>
       <use x="138.412109" xlink:href="#DejaVuSans-50"/>
      </g>
     </g>
    </g>
    <g id="ytick_3">
     <g id="text_9">
      <!-- BC3 -->
      <defs>
       <path d="M 40.578125 39.3125 
Q 47.65625 37.796875 51.625 33 
Q 55.609375 28.21875 55.609375 21.1875 
Q 55.609375 10.40625 48.1875 4.484375 
Q 40.765625 -1.421875 27.09375 -1.421875 
Q 22.515625 -1.421875 17.65625 -0.515625 
Q 12.796875 0.390625 7.625 2.203125 
L 7.625 11.71875 
Q 11.71875 9.328125 16.59375 8.109375 
Q 21.484375 6.890625 26.8125 6.890625 
Q 36.078125 6.890625 40.9375 10.546875 
Q 45.796875 14.203125 45.796875 21.1875 
Q 45.796875 27.640625 41.28125 31.265625 
Q 36.765625 34.90625 28.71875 34.90625 
L 20.21875 34.90625 
L 20.21875 43.015625 
L 29.109375 43.015625 
Q 36.375 43.015625 40.234375 45.921875 
Q 44.09375 48.828125 44.09375 54.296875 
Q 44.09375 59.90625 40.109375 62.90625 
Q 36.140625 65.921875 28.71875 65.921875 
Q 24.65625 65.921875 20.015625 65.03125 
Q 15.375 64.15625 9.8125 62.3125 
L 9.8125 71.09375 
Q 15.4375 72.65625 20.34375 73.4375 
Q 25.25 74.21875 29.59375 74.21875 
Q 40.828125 74.21875 47.359375 69.109375 
Q 53.90625 64.015625 53.90625 55.328125 
Q 53.90625 49.265625 50.4375 45.09375 
Q 46.96875 40.921875 40.578125 39.3125 
z
" id="DejaVuSans-51"/>
      </defs>
      <g transform="translate(10.0525 74.000245)scale(0.08 -0.08)">
       <use xlink:href="#DejaVuSans-66"/>
       <use x="68.587891" xlink:href="#DejaVuSans-67"/>
       <use x="138.412109" xlink:href="#DejaVuSans-51"/>
      </g>
     </g>
    </g>
    <g id="ytick_4">
     <g id="text_10">
      <!-- BC4 -->
      <defs>
       <path d="M 37.796875 64.3125 
L 12.890625 25.390625 
L 37.796875 25.390625 
z
M 35.203125 72.90625 
L 47.609375 72.90625 
L 47.609375 25.390625 
L 58.015625 25.390625 
L 58.015625 17.1875 
L 47.609375 17.1875 
L 47.609375 0 
L 37.796875 0 
L 37.796875 17.1875 
L 4.890625 17.1875 
L 4.890625 26.703125 
z
" id="DejaVuSans-52"/>
      </defs>
      <g transform="translate(10.0525 98.104592)scale(0.08 -0.08)">
       <use xlink:href="#DejaVuSans-66"/>
       <use x="68.587891" xlink:href="#DejaVuSans-67"/>
       <use x="138.412109" xlink:href="#DejaVuSans-52"/>
      </g>
     </g>
    </g>
    <g id="ytick_5">
     <g id="text_11">
      <!-- BC5 -->
      <g transform="translate(10.0525 122.20894)scale(0.08 -0.08)">
       <use xlink:href="#DejaVuSans-66"/>
       <use x="68.587891" xlink:href="#DejaVuSans-67"/>
       <use x="138.412109" xlink:href="#DejaVuSans-53"/>
      </g>
     </g>
    </g>
    <g id="ytick_6">
     <g id="text_12">
      <!-- BH1 -->
      <defs>
       <path d="M 9.8125 72.90625 
L 19.671875 72.90625 
L 19.671875 43.015625 
L 55.515625 43.015625 
L 55.515625 72.90625 
L 65.375 72.90625 
L 65.375 0 
L 55.515625 0 
L 55.515625 34.71875 
L 19.671875 34.71875 
L 19.671875 0 
L 9.8125 0 
z
" id="DejaVuSans-72"/>
      </defs>
      <g transform="translate(9.62125 146.313288)scale(0.08 -0.08)">
       <use xlink:href="#DejaVuSans-66"/>
       <use x="68.603516" xlink:href="#DejaVuSans-72"/>
       <use x="143.798828" xlink:href="#DejaVuSans-49"/>
      </g>
     </g>
    </g>
    <g id="ytick_7">
     <g id="text_13">
      <!-- BH2 -->
      <g transform="translate(9.62125 170.417636)scale(0.08 -0.08)">
       <use xlink:href="#DejaVuSans-66"/>
       <use x="68.603516" xlink:href="#DejaVuSans-72"/>
       <use x="143.798828" xlink:href="#DejaVuSans-50"/>
      </g>
     </g>
    </g>
    <g id="ytick_8">
     <g id="text_14">
      <!-- BH3 -->
      <g transform="translate(9.62125 194.521984)scale(0.08 -0.08)">
       <use xlink:href="#DejaVuSans-66"/>
       <use x="68.603516" xlink:href="#DejaVuSans-72"/>
       <use x="143.798828" xlink:href="#DejaVuSans-51"/>
      </g>
     </g>
    </g>
    <g id="ytick_9">
     <g id="text_15">
      <!-- BH4 -->
      <g transform="translate(9.62125 218.626332)scale(0.08 -0.08)">
       <use xlink:href="#DejaVuSans-66"/>
       <use x="68.603516" xlink:href="#DejaVuSans-72"/>
       <use x="143.798828" xlink:href="#DejaVuSans-52"/>
      </g>
     </g>
    </g>
    <g id="ytick_10">
     <g id="text_16">
      <!-- BH5 -->
      <g transform="translate(9.62125 242.730679)scale(0.08 -0.08)">
       <use xlink:href="#DejaVuSans-66"/>
       <use x="68.603516" xlink:href="#DejaVuSans-72"/>
       <use x="143.798828" xlink:href="#DejaVuSans-53"/>
      </g>
     </g>
    </g>
    <g id="ytick_11">
     <g id="text_17">
      <!-- BN1 -->
      <g transform="translate(9.6525 266.835027)scale(0.08 -0.08)">
       <use xlink:href="#DejaVuSans-66"/>
       <use x="68.603516" xlink:href="#DejaVuSans-78"/>
       <use x="143.408203" xlink:href="#DejaVuSans-49"/>
      </g>
     </g>
    </g>
    <g id="ytick_12">
     <g id="text_18">
      <!-- BN2 -->
      <g transform="translate(9.6525 290.939375)scale(0.08 -0.08)">
       <use xlink:href="#DejaVuSans-66"/>
       <use x="68.603516" xlink:href="#DejaVuSans-78"/>
       <use x="143.408203" xlink:href="#DejaVuSans-50"/>
      </g>
     </g>
    </g>
    <g id="ytick_13">
     <g id="text_19">
      <!-- BN3 -->
      <g transform="translate(9.6525 315.043723)scale(0.08 -0.08)">
       <use xlink:href="#DejaVuSans-66"/>
       <use x="68.603516" xlink:href="#DejaVuSans-78"/>
       <use x="143.408203" xlink:href="#DejaVuSans-51"/>
      </g>
     </g>
    </g>
    <g id="ytick_14">
     <g id="text_20">
      <!-- BN5 -->
      <g transform="translate(9.6525 339.148071)scale(0.08 -0.08)">
       <use xlink:href="#DejaVuSans-66"/>
       <use x="68.603516" xlink:href="#DejaVuSans-78"/>
       <use x="143.408203" xlink:href="#DejaVuSans-53"/>
      </g>
     </g>
    </g>
    <g id="ytick_15">
     <g id="text_21">
      <!-- MC1 -->
      <defs>
       <path d="M 9.8125 72.90625 
L 24.515625 72.90625 
L 43.109375 23.296875 
L 61.8125 72.90625 
L 76.515625 72.90625 
L 76.515625 0 
L 66.890625 0 
L 66.890625 64.015625 
L 48.09375 14.015625 
L 38.1875 14.015625 
L 19.390625 64.015625 
L 19.390625 0 
L 9.8125 0 
z
" id="DejaVuSans-77"/>
      </defs>
      <g transform="translate(8.6375 363.252418)scale(0.08 -0.08)">
       <use xlink:href="#DejaVuSans-77"/>
       <use x="86.279297" xlink:href="#DejaVuSans-67"/>
       <use x="156.103516" xlink:href="#DejaVuSans-49"/>
      </g>
     </g>
    </g>
    <g id="ytick_16">
     <g id="text_22">
      <!-- MC2 -->
      <g transform="translate(8.6375 387.356766)scale(0.08 -0.08)">
       <use xlink:href="#DejaVuSans-77"/>
       <use x="86.279297" xlink:href="#DejaVuSans-67"/>
       <use x="156.103516" xlink:href="#DejaVuSans-50"/>
      </g>
     </g>
    </g>
    <g id="ytick_17">
     <g id="text_23">
      <!-- MC3 -->
      <g transform="translate(8.6375 411.461114)scale(0.08 -0.08)">
       <use xlink:href="#DejaVuSans-77"/>
       <use x="86.279297" xlink:href="#DejaVuSans-67"/>
       <use x="156.103516" xlink:href="#DejaVuSans-51"/>
      </g>
     </g>
    </g>
    <g id="ytick_18">
     <g id="text_24">
      <!-- MC4 -->
      <g transform="translate(8.6375 435.565462)scale(0.08 -0.08)">
       <use xlink:href="#DejaVuSans-77"/>
       <use x="86.279297" xlink:href="#DejaVuSans-67"/>
       <use x="156.103516" xlink:href="#DejaVuSans-52"/>
      </g>
     </g>
    </g>
    <g id="ytick_19">
     <g id="text_25">
      <!-- MC5 -->
      <g transform="translate(8.6375 459.66981)scale(0.08 -0.08)">
       <use xlink:href="#DejaVuSans-77"/>
       <use x="86.279297" xlink:href="#DejaVuSans-67"/>
       <use x="156.103516" xlink:href="#DejaVuSans-53"/>
      </g>
     </g>
    </g>
    <g id="ytick_20">
     <g id="text_26">
      <!-- MH1 -->
      <g transform="translate(8.2075 483.774158)scale(0.08 -0.08)">
       <use xlink:href="#DejaVuSans-77"/>
       <use x="86.279297" xlink:href="#DejaVuSans-72"/>
       <use x="161.474609" xlink:href="#DejaVuSans-49"/>
      </g>
     </g>
    </g>
    <g id="ytick_21">
     <g id="text_27">
      <!-- MH2 -->
      <g transform="translate(8.2075 507.878505)scale(0.08 -0.08)">
       <use xlink:href="#DejaVuSans-77"/>
       <use x="86.279297" xlink:href="#DejaVuSans-72"/>
       <use x="161.474609" xlink:href="#DejaVuSans-50"/>
      </g>
     </g>
    </g>
    <g id="ytick_22">
     <g id="text_28">
      <!-- MH3 -->
      <g transform="translate(8.2075 531.982853)scale(0.08 -0.08)">
       <use xlink:href="#DejaVuSans-77"/>
       <use x="86.279297" xlink:href="#DejaVuSans-72"/>
       <use x="161.474609" xlink:href="#DejaVuSans-51"/>
      </g>
     </g>
    </g>
    <g id="ytick_23">
     <g id="text_29">
      <!-- MH4 -->
      <g transform="translate(8.2075 556.087201)scale(0.08 -0.08)">
       <use xlink:href="#DejaVuSans-77"/>
       <use x="86.279297" xlink:href="#DejaVuSans-72"/>
       <use x="161.474609" xlink:href="#DejaVuSans-52"/>
      </g>
     </g>
    </g>
    <g id="ytick_24">
     <g id="text_30">
      <!-- MH5 -->
      <g transform="translate(8.2075 580.191549)scale(0.08 -0.08)">
       <use xlink:href="#DejaVuSans-77"/>
       <use x="86.279297" xlink:href="#DejaVuSans-72"/>
       <use x="161.474609" xlink:href="#DejaVuSans-53"/>
      </g>
     </g>
    </g>
    <g id="ytick_25">
     <g id="text_31">
      <!-- MN1 -->
      <g transform="translate(8.23875 604.295897)scale(0.08 -0.08)">
       <use xlink:href="#DejaVuSans-77"/>
       <use x="86.279297" xlink:href="#DejaVuSans-78"/>
       <use x="161.083984" xlink:href="#DejaVuSans-49"/>
      </g>
     </g>
    </g>
    <g id="ytick_26">
     <g id="text_32">
      <!-- MN2 -->
      <g transform="translate(8.23875 628.400245)scale(0.08 -0.08)">
       <use xlink:href="#DejaVuSans-77"/>
       <use x="86.279297" xlink:href="#DejaVuSans-78"/>
       <use x="161.083984" xlink:href="#DejaVuSans-50"/>
      </g>
     </g>
    </g>
    <g id="ytick_27">
     <g id="text_33">
      <!-- MN3 -->
      <g transform="translate(8.23875 652.504592)scale(0.08 -0.08)">
       <use xlink:href="#DejaVuSans-77"/>
       <use x="86.279297" xlink:href="#DejaVuSans-78"/>
       <use x="161.083984" xlink:href="#DejaVuSans-51"/>
      </g>
     </g>
    </g>
    <g id="ytick_28">
     <g id="text_34">
      <!-- MN4 -->
      <g transform="translate(8.23875 676.60894)scale(0.08 -0.08)">
       <use xlink:href="#DejaVuSans-77"/>
       <use x="86.279297" xlink:href="#DejaVuSans-78"/>
       <use x="161.083984" xlink:href="#DejaVuSans-52"/>
      </g>
     </g>
    </g>
    <g id="ytick_29">
     <g id="text_35">
      <!-- MN5 -->
      <g transform="translate(8.23875 700.713288)scale(0.08 -0.08)">
       <use xlink:href="#DejaVuSans-77"/>
       <use x="86.279297" xlink:href="#DejaVuSans-78"/>
       <use x="161.083984" xlink:href="#DejaVuSans-53"/>
      </g>
     </g>
    </g>
    <g id="ytick_30">
     <g id="text_36">
      <!-- OC1 -->
      <defs>
       <path d="M 39.40625 66.21875 
Q 28.65625 66.21875 22.328125 58.203125 
Q 16.015625 50.203125 16.015625 36.375 
Q 16.015625 22.609375 22.328125 14.59375 
Q 28.65625 6.59375 39.40625 6.59375 
Q 50.140625 6.59375 56.421875 14.59375 
Q 62.703125 22.609375 62.703125 36.375 
Q 62.703125 50.203125 56.421875 58.203125 
Q 50.140625 66.21875 39.40625 66.21875 
z
M 39.40625 74.21875 
Q 54.734375 74.21875 63.90625 63.9375 
Q 73.09375 53.65625 73.09375 36.375 
Q 73.09375 19.140625 63.90625 8.859375 
Q 54.734375 -1.421875 39.40625 -1.421875 
Q 24.03125 -1.421875 14.8125 8.828125 
Q 5.609375 19.09375 5.609375 36.375 
Q 5.609375 53.65625 14.8125 63.9375 
Q 24.03125 74.21875 39.40625 74.21875 
z
" id="DejaVuSans-79"/>
      </defs>
      <g transform="translate(9.2425 724.817636)scale(0.08 -0.08)">
       <use xlink:href="#DejaVuSans-79"/>
       <use x="78.710938" xlink:href="#DejaVuSans-67"/>
       <use x="148.535156" xlink:href="#DejaVuSans-49"/>
      </g>
     </g>
    </g>
    <g id="ytick_31">
     <g id="text_37">
      <!-- OC2 -->
      <g transform="translate(9.2425 748.921984)scale(0.08 -0.08)">
       <use xlink:href="#DejaVuSans-79"/>
       <use x="78.710938" xlink:href="#DejaVuSans-67"/>
       <use x="148.535156" xlink:href="#DejaVuSans-50"/>
      </g>
     </g>
    </g>
    <g id="ytick_32">
     <g id="text_38">
      <!-- OC3 -->
      <g transform="translate(9.2425 773.026332)scale(0.08 -0.08)">
       <use xlink:href="#DejaVuSans-79"/>
       <use x="78.710938" xlink:href="#DejaVuSans-67"/>
       <use x="148.535156" xlink:href="#DejaVuSans-51"/>
      </g>
     </g>
    </g>
    <g id="ytick_33">
     <g id="text_39">
      <!-- OC4 -->
      <g transform="translate(9.2425 797.130679)scale(0.08 -0.08)">
       <use xlink:href="#DejaVuSans-79"/>
       <use x="78.710938" xlink:href="#DejaVuSans-67"/>
       <use x="148.535156" xlink:href="#DejaVuSans-52"/>
      </g>
     </g>
    </g>
    <g id="ytick_34">
     <g id="text_40">
      <!-- OC5 -->
      <g transform="translate(9.2425 821.235027)scale(0.08 -0.08)">
       <use xlink:href="#DejaVuSans-79"/>
       <use x="78.710938" xlink:href="#DejaVuSans-67"/>
       <use x="148.535156" xlink:href="#DejaVuSans-53"/>
      </g>
     </g>
    </g>
    <g id="ytick_35">
     <g id="text_41">
      <!-- OH1 -->
      <g transform="translate(8.8125 845.339375)scale(0.08 -0.08)">
       <use xlink:href="#DejaVuSans-79"/>
       <use x="78.710938" xlink:href="#DejaVuSans-72"/>
       <use x="153.90625" xlink:href="#DejaVuSans-49"/>
      </g>
     </g>
    </g>
    <g id="ytick_36">
     <g id="text_42">
      <!-- OH2 -->
      <g transform="translate(8.8125 869.443723)scale(0.08 -0.08)">
       <use xlink:href="#DejaVuSans-79"/>
       <use x="78.710938" xlink:href="#DejaVuSans-72"/>
       <use x="153.90625" xlink:href="#DejaVuSans-50"/>
      </g>
     </g>
    </g>
    <g id="ytick_37">
     <g id="text_43">
      <!-- OH3 -->
      <g transform="translate(8.8125 893.548071)scale(0.08 -0.08)">
       <use xlink:href="#DejaVuSans-79"/>
       <use x="78.710938" xlink:href="#DejaVuSans-72"/>
       <use x="153.90625" xlink:href="#DejaVuSans-51"/>
      </g>
     </g>
    </g>
    <g id="ytick_38">
     <g id="text_44">
      <!-- OH4 -->
      <g transform="translate(8.8125 917.652418)scale(0.08 -0.08)">
       <use xlink:href="#DejaVuSans-79"/>
       <use x="78.710938" xlink:href="#DejaVuSans-72"/>
       <use x="153.90625" xlink:href="#DejaVuSans-52"/>
      </g>
     </g>
    </g>
    <g id="ytick_39">
     <g id="text_45">
      <!-- OH5 -->
      <g transform="translate(8.8125 941.756766)scale(0.08 -0.08)">
       <use xlink:href="#DejaVuSans-79"/>
       <use x="78.710938" xlink:href="#DejaVuSans-72"/>
       <use x="153.90625" xlink:href="#DejaVuSans-53"/>
      </g>
     </g>
    </g>
    <g id="ytick_40">
     <g id="text_46">
      <!-- ON1 -->
      <g transform="translate(8.84375 965.861114)scale(0.08 -0.08)">
       <use xlink:href="#DejaVuSans-79"/>
       <use x="78.710938" xlink:href="#DejaVuSans-78"/>
       <use x="153.515625" xlink:href="#DejaVuSans-49"/>
      </g>
     </g>
    </g>
    <g id="ytick_41">
     <g id="text_47">
      <!-- ON2 -->
      <g transform="translate(8.84375 989.965462)scale(0.08 -0.08)">
       <use xlink:href="#DejaVuSans-79"/>
       <use x="78.710938" xlink:href="#DejaVuSans-78"/>
       <use x="153.515625" xlink:href="#DejaVuSans-50"/>
      </g>
     </g>
    </g>
    <g id="ytick_42">
     <g id="text_48">
      <!-- ON3 -->
      <g transform="translate(8.84375 1014.06981)scale(0.08 -0.08)">
       <use xlink:href="#DejaVuSans-79"/>
       <use x="78.710938" xlink:href="#DejaVuSans-78"/>
       <use x="153.515625" xlink:href="#DejaVuSans-51"/>
      </g>
     </g>
    </g>
    <g id="ytick_43">
     <g id="text_49">
      <!-- ON4 -->
      <g transform="translate(8.84375 1038.174158)scale(0.08 -0.08)">
       <use xlink:href="#DejaVuSans-79"/>
       <use x="78.710938" xlink:href="#DejaVuSans-78"/>
       <use x="153.515625" xlink:href="#DejaVuSans-52"/>
      </g>
     </g>
    </g>
    <g id="ytick_44">
     <g id="text_50">
      <!-- ON5 -->
      <g transform="translate(8.84375 1062.278505)scale(0.08 -0.08)">
       <use xlink:href="#DejaVuSans-79"/>
       <use x="78.710938" xlink:href="#DejaVuSans-78"/>
       <use x="153.515625" xlink:href="#DejaVuSans-53"/>
      </g>
     </g>
    </g>
    <g id="ytick_45">
     <g id="text_51">
      <!-- WC1 -->
      <defs>
       <path d="M 3.328125 72.90625 
L 13.28125 72.90625 
L 28.609375 11.28125 
L 43.890625 72.90625 
L 54.984375 72.90625 
L 70.3125 11.28125 
L 85.59375 72.90625 
L 95.609375 72.90625 
L 77.296875 0 
L 64.890625 0 
L 49.515625 63.28125 
L 33.984375 0 
L 21.578125 0 
z
" id="DejaVuSans-87"/>
      </defs>
      <g transform="translate(7.63 1086.382853)scale(0.08 -0.08)">
       <use xlink:href="#DejaVuSans-87"/>
       <use x="98.876953" xlink:href="#DejaVuSans-67"/>
       <use x="168.701172" xlink:href="#DejaVuSans-49"/>
      </g>
     </g>
    </g>
    <g id="ytick_46">
     <g id="text_52">
      <!-- WC2 -->
      <g transform="translate(7.63 1110.487201)scale(0.08 -0.08)">
       <use xlink:href="#DejaVuSans-87"/>
       <use x="98.876953" xlink:href="#DejaVuSans-67"/>
       <use x="168.701172" xlink:href="#DejaVuSans-50"/>
      </g>
     </g>
    </g>
    <g id="ytick_47">
     <g id="text_53">
      <!-- WC3 -->
      <g transform="translate(7.63 1134.591549)scale(0.08 -0.08)">
       <use xlink:href="#DejaVuSans-87"/>
       <use x="98.876953" xlink:href="#DejaVuSans-67"/>
       <use x="168.701172" xlink:href="#DejaVuSans-51"/>
      </g>
     </g>
    </g>
    <g id="ytick_48">
     <g id="text_54">
      <!-- WC4 -->
      <g transform="translate(7.63 1158.695897)scale(0.08 -0.08)">
       <use xlink:href="#DejaVuSans-87"/>
       <use x="98.876953" xlink:href="#DejaVuSans-67"/>
       <use x="168.701172" xlink:href="#DejaVuSans-52"/>
      </g>
     </g>
    </g>
    <g id="ytick_49">
     <g id="text_55">
      <!-- WC5 -->
      <g transform="translate(7.63 1182.800245)scale(0.08 -0.08)">
       <use xlink:href="#DejaVuSans-87"/>
       <use x="98.876953" xlink:href="#DejaVuSans-67"/>
       <use x="168.701172" xlink:href="#DejaVuSans-53"/>
      </g>
     </g>
    </g>
    <g id="ytick_50">
     <g id="text_56">
      <!-- WH1 -->
      <g transform="translate(7.2 1206.904592)scale(0.08 -0.08)">
       <use xlink:href="#DejaVuSans-87"/>
       <use x="98.876953" xlink:href="#DejaVuSans-72"/>
       <use x="174.072266" xlink:href="#DejaVuSans-49"/>
      </g>
     </g>
    </g>
    <g id="ytick_51">
     <g id="text_57">
      <!-- WH2 -->
      <g transform="translate(7.2 1231.00894)scale(0.08 -0.08)">
       <use xlink:href="#DejaVuSans-87"/>
       <use x="98.876953" xlink:href="#DejaVuSans-72"/>
       <use x="174.072266" xlink:href="#DejaVuSans-50"/>
      </g>
     </g>
    </g>
    <g id="ytick_52">
     <g id="text_58">
      <!-- WH3 -->
      <g transform="translate(7.2 1255.113288)scale(0.08 -0.08)">
       <use xlink:href="#DejaVuSans-87"/>
       <use x="98.876953" xlink:href="#DejaVuSans-72"/>
       <use x="174.072266" xlink:href="#DejaVuSans-51"/>
      </g>
     </g>
    </g>
    <g id="ytick_53">
     <g id="text_59">
      <!-- WH4 -->
      <g transform="translate(7.2 1279.217636)scale(0.08 -0.08)">
       <use xlink:href="#DejaVuSans-87"/>
       <use x="98.876953" xlink:href="#DejaVuSans-72"/>
       <use x="174.072266" xlink:href="#DejaVuSans-52"/>
      </g>
     </g>
    </g>
    <g id="ytick_54">
     <g id="text_60">
      <!-- WH5 -->
      <g transform="translate(7.2 1303.321984)scale(0.08 -0.08)">
       <use xlink:href="#DejaVuSans-87"/>
       <use x="98.876953" xlink:href="#DejaVuSans-72"/>
       <use x="174.072266" xlink:href="#DejaVuSans-53"/>
      </g>
     </g>
    </g>
    <g id="ytick_55">
     <g id="text_61">
      <!-- WN1 -->
      <g transform="translate(7.23125 1327.426332)scale(0.08 -0.08)">
       <use xlink:href="#DejaVuSans-87"/>
       <use x="98.876953" xlink:href="#DejaVuSans-78"/>
       <use x="173.681641" xlink:href="#DejaVuSans-49"/>
      </g>
     </g>
    </g>
    <g id="ytick_56">
     <g id="text_62">
      <!-- WN2 -->
      <g transform="translate(7.23125 1351.530679)scale(0.08 -0.08)">
       <use xlink:href="#DejaVuSans-87"/>
       <use x="98.876953" xlink:href="#DejaVuSans-78"/>
       <use x="173.681641" xlink:href="#DejaVuSans-50"/>
      </g>
     </g>
    </g>
    <g id="ytick_57">
     <g id="text_63">
      <!-- WN3 -->
      <g transform="translate(7.23125 1375.635027)scale(0.08 -0.08)">
       <use xlink:href="#DejaVuSans-87"/>
       <use x="98.876953" xlink:href="#DejaVuSans-78"/>
       <use x="173.681641" xlink:href="#DejaVuSans-51"/>
      </g>
     </g>
    </g>
    <g id="ytick_58">
     <g id="text_64">
      <!-- WN4 -->
      <g transform="translate(7.23125 1399.739375)scale(0.08 -0.08)">
       <use xlink:href="#DejaVuSans-87"/>
       <use x="98.876953" xlink:href="#DejaVuSans-78"/>
       <use x="173.681641" xlink:href="#DejaVuSans-52"/>
      </g>
     </g>
    </g>
    <g id="ytick_59">
     <g id="text_65">
      <!-- WN5 -->
      <g transform="translate(7.23125 1423.843723)scale(0.08 -0.08)">
       <use xlink:href="#DejaVuSans-87"/>
       <use x="98.876953" xlink:href="#DejaVuSans-78"/>
       <use x="173.681641" xlink:href="#DejaVuSans-53"/>
      </g>
     </g>
    </g>
   </g>
   <g id="patch_3">
    <path clip-path="url(#pa502519a5f)" d="M 33.21625 13.110435 
L 322.20614 13.110435 
L 322.20614 32.393913 
L 33.21625 32.393913 
z
" style="fill:#7cb5ec;"/>
   </g>
   <g id="patch_4">
    <path clip-path="url(#pa502519a5f)" d="M 33.21625 37.214783 
L 324.177681 37.214783 
L 324.177681 56.498261 
L 33.21625 56.498261 
z
" style="fill:#7cb5ec;"/>
   </g>
   <g id="patch_5">
    <path clip-path="url(#pa502519a5f)" d="M 33.21625 61.31913 
L 426.232913 61.31913 
L 426.232913 80.602609 
L 33.21625 80.602609 
z
" style="fill:#7cb5ec;"/>
   </g>
   <g id="patch_6">
    <path clip-path="url(#pa502519a5f)" d="M 33.21625 85.423478 
L 308.053698 85.423478 
L 308.053698 104.706957 
L 33.21625 104.706957 
z
" style="fill:#7cb5ec;"/>
   </g>
   <g id="patch_7">
    <path clip-path="url(#pa502519a5f)" d="M 33.21625 109.527826 
L 137.377647 109.527826 
L 137.377647 128.811304 
L 33.21625 128.811304 
z
" style="fill:#7cb5ec;"/>
   </g>
   <g id="patch_8">
    <path clip-path="url(#pa502519a5f)" d="M 33.21625 133.632174 
L 309.539588 133.632174 
L 309.539588 152.915652 
L 33.21625 152.915652 
z
" style="fill:#7cb5ec;"/>
   </g>
   <g id="patch_9">
    <path clip-path="url(#pa502519a5f)" d="M 33.21625 157.736522 
L 371.660109 157.736522 
L 371.660109 177.02 
L 33.21625 177.02 
z
" style="fill:#7cb5ec;"/>
   </g>
   <g id="patch_10">
    <path clip-path="url(#pa502519a5f)" d="M 33.21625 181.84087 
L 338.321945 181.84087 
L 338.321945 201.124348 
L 33.21625 201.124348 
z
" style="fill:#7cb5ec;"/>
   </g>
   <g id="patch_11">
    <path clip-path="url(#pa502519a5f)" d="M 33.21625 205.945217 
L 320.244664 205.945217 
L 320.244664 225.228696 
L 33.21625 225.228696 
z
" style="fill:#7cb5ec;"/>
   </g>
   <g id="patch_12">
    <path clip-path="url(#pa502519a5f)" d="M 33.21625 230.049565 
L 310.796492 230.049565 
L 310.796492 249.333043 
L 33.21625 249.333043 
z
" style="fill:#7cb5ec;"/>
   </g>
   <g id="patch_13">
    <path clip-path="url(#pa502519a5f)" d="M 33.21625 254.153913 
L 422.17408 254.153913 
L 422.17408 273.437391 
L 33.21625 273.437391 
z
" style="fill:#7cb5ec;"/>
   </g>
   <g id="patch_14">
    <path clip-path="url(#pa502519a5f)" d="M 33.21625 278.258261 
L 435.306153 278.258261 
L 435.306153 297.541739 
L 33.21625 297.541739 
z
" style="fill:#7cb5ec;"/>
   </g>
   <g id="patch_15">
    <path clip-path="url(#pa502519a5f)" d="M 33.21625 302.362609 
L 177.927599 302.362609 
L 177.927599 321.646087 
L 33.21625 321.646087 
z
" style="fill:#7cb5ec;"/>
   </g>
   <g id="patch_16">
    <path clip-path="url(#pa502519a5f)" d="M 33.21625 326.466957 
L 366.794794 326.466957 
L 366.794794 345.750435 
L 33.21625 345.750435 
z
" style="fill:#7cb5ec;"/>
   </g>
   <g id="patch_17">
    <path clip-path="url(#pa502519a5f)" d="M 33.21625 350.571304 
L 294.186229 350.571304 
L 294.186229 369.854783 
L 33.21625 369.854783 
z
" style="fill:#7cb5ec;"/>
   </g>
   <g id="patch_18">
    <path clip-path="url(#pa502519a5f)" d="M 33.21625 374.675652 
L 320.453519 374.675652 
L 320.453519 393.95913 
L 33.21625 393.95913 
z
" style="fill:#7cb5ec;"/>
   </g>
   <g id="patch_19">
    <path clip-path="url(#pa502519a5f)" d="M 33.21625 398.78 
L 282.339999 398.78 
L 282.339999 418.063478 
L 33.21625 418.063478 
z
" style="fill:#7cb5ec;"/>
   </g>
   <g id="patch_20">
    <path clip-path="url(#pa502519a5f)" d="M 33.21625 422.884348 
L 150.112769 422.884348 
L 150.112769 442.167826 
L 33.21625 442.167826 
z
" style="fill:#7cb5ec;"/>
   </g>
   <g id="patch_21">
    <path clip-path="url(#pa502519a5f)" d="M 33.21625 446.988696 
L 322.704372 446.988696 
L 322.704372 466.272174 
L 33.21625 466.272174 
z
" style="fill:#7cb5ec;"/>
   </g>
   <g id="patch_22">
    <path clip-path="url(#pa502519a5f)" d="M 33.21625 471.093043 
L 171.840608 471.093043 
L 171.840608 490.376522 
L 33.21625 490.376522 
z
" style="fill:#7cb5ec;"/>
   </g>
   <g id="patch_23">
    <path clip-path="url(#pa502519a5f)" d="M 33.21625 495.197391 
L 292.121584 495.197391 
L 292.121584 514.48087 
L 33.21625 514.48087 
z
" style="fill:#7cb5ec;"/>
   </g>
   <g id="patch_24">
    <path clip-path="url(#pa502519a5f)" d="M 33.21625 519.301739 
L 282.37334 519.301739 
L 282.37334 538.585217 
L 33.21625 538.585217 
z
" style="fill:#7cb5ec;"/>
   </g>
   <g id="patch_25">
    <path clip-path="url(#pa502519a5f)" d="M 33.21625 543.406087 
L 315.157913 543.406087 
L 315.157913 562.689565 
L 33.21625 562.689565 
z
" style="fill:#7cb5ec;"/>
   </g>
   <g id="patch_26">
    <path clip-path="url(#pa502519a5f)" d="M 33.21625 567.510435 
L 448.335685 567.510435 
L 448.335685 586.793913 
L 33.21625 586.793913 
z
" style="fill:#7cb5ec;"/>
   </g>
   <g id="patch_27">
    <path clip-path="url(#pa502519a5f)" d="M 33.21625 591.614783 
L 444.841767 591.614783 
L 444.841767 610.898261 
L 33.21625 610.898261 
z
" style="fill:#7cb5ec;"/>
   </g>
   <g id="patch_28">
    <path clip-path="url(#pa502519a5f)" d="M 33.21625 615.71913 
L 376.054871 615.71913 
L 376.054871 635.002609 
L 33.21625 635.002609 
z
" style="fill:#7cb5ec;"/>
   </g>
   <g id="patch_29">
    <path clip-path="url(#pa502519a5f)" d="M 33.21625 639.823478 
L 363.677696 639.823478 
L 363.677696 659.106957 
L 33.21625 659.106957 
z
" style="fill:#7cb5ec;"/>
   </g>
   <g id="patch_30">
    <path clip-path="url(#pa502519a5f)" d="M 33.21625 663.927826 
L 425.496888 663.927826 
L 425.496888 683.211304 
L 33.21625 683.211304 
z
" style="fill:#7cb5ec;"/>
   </g>
   <g id="patch_31">
    <path clip-path="url(#pa502519a5f)" d="M 33.21625 688.032174 
L 335.765359 688.032174 
L 335.765359 707.315652 
L 33.21625 707.315652 
z
" style="fill:#7cb5ec;"/>
   </g>
   <g id="patch_32">
    <path clip-path="url(#pa502519a5f)" d="M 33.21625 712.136522 
L 296.018743 712.136522 
L 296.018743 731.42 
L 33.21625 731.42 
z
" style="fill:#7cb5ec;"/>
   </g>
   <g id="patch_33">
    <path clip-path="url(#pa502519a5f)" d="M 33.21625 736.24087 
L 281.7776 736.24087 
L 281.7776 755.524348 
L 33.21625 755.524348 
z
" style="fill:#7cb5ec;"/>
   </g>
   <g id="patch_34">
    <path clip-path="url(#pa502519a5f)" d="M 33.21625 760.345217 
L 524.899284 760.345217 
L 524.899284 779.628696 
L 33.21625 779.628696 
z
" style="fill:#7cb5ec;"/>
   </g>
   <g id="patch_35">
    <path clip-path="url(#pa502519a5f)" d="M 33.21625 784.449565 
L 197.478188 784.449565 
L 197.478188 803.733043 
L 33.21625 803.733043 
z
" style="fill:#7cb5ec;"/>
   </g>
   <g id="patch_36">
    <path clip-path="url(#pa502519a5f)" d="M 33.21625 808.553913 
L 360.083755 808.553913 
L 360.083755 827.837391 
L 33.21625 827.837391 
z
" style="fill:#7cb5ec;"/>
   </g>
   <g id="patch_37">
    <path clip-path="url(#pa502519a5f)" d="M 33.21625 832.658261 
L 369.512426 832.658261 
L 369.512426 851.941739 
L 33.21625 851.941739 
z
" style="fill:#7cb5ec;"/>
   </g>
   <g id="patch_38">
    <path clip-path="url(#pa502519a5f)" d="M 33.21625 856.762609 
L 322.698081 856.762609 
L 322.698081 876.046087 
L 33.21625 876.046087 
z
" style="fill:#7cb5ec;"/>
   </g>
   <g id="patch_39">
    <path clip-path="url(#pa502519a5f)" d="M 33.21625 880.866957 
L 326.957591 880.866957 
L 326.957591 900.150435 
L 33.21625 900.150435 
z
" style="fill:#7cb5ec;"/>
   </g>
   <g id="patch_40">
    <path clip-path="url(#pa502519a5f)" d="M 33.21625 904.971304 
L 354.71832 904.971304 
L 354.71832 924.254783 
L 33.21625 924.254783 
z
" style="fill:#7cb5ec;"/>
   </g>
   <g id="patch_41">
    <path clip-path="url(#pa502519a5f)" d="M 33.21625 929.075652 
L 255.743699 929.075652 
L 255.743699 948.35913 
L 33.21625 948.35913 
z
" style="fill:#7cb5ec;"/>
   </g>
   <g id="patch_42">
    <path clip-path="url(#pa502519a5f)" d="M 33.21625 953.18 
L 329.638107 953.18 
L 329.638107 972.463478 
L 33.21625 972.463478 
z
" style="fill:#7cb5ec;"/>
   </g>
   <g id="patch_43">
    <path clip-path="url(#pa502519a5f)" d="M 33.21625 977.284348 
L 300.378276 977.284348 
L 300.378276 996.567826 
L 33.21625 996.567826 
z
" style="fill:#7cb5ec;"/>
   </g>
   <g id="patch_44">
    <path clip-path="url(#pa502519a5f)" d="M 33.21625 1001.388696 
L 343.948448 1001.388696 
L 343.948448 1020.672174 
L 33.21625 1020.672174 
z
" style="fill:#7cb5ec;"/>
   </g>
   <g id="patch_45">
    <path clip-path="url(#pa502519a5f)" d="M 33.21625 1025.493043 
L 371.141117 1025.493043 
L 371.141117 1044.776522 
L 33.21625 1044.776522 
z
" style="fill:#7cb5ec;"/>
   </g>
   <g id="patch_46">
    <path clip-path="url(#pa502519a5f)" d="M 33.21625 1049.597391 
L 305.980875 1049.597391 
L 305.980875 1068.88087 
L 33.21625 1068.88087 
z
" style="fill:#7cb5ec;"/>
   </g>
   <g id="patch_47">
    <path clip-path="url(#pa502519a5f)" d="M 33.21625 1073.701739 
L 270.406955 1073.701739 
L 270.406955 1092.985217 
L 33.21625 1092.985217 
z
" style="fill:#7cb5ec;"/>
   </g>
   <g id="patch_48">
    <path clip-path="url(#pa502519a5f)" d="M 33.21625 1097.806087 
L 330.721385 1097.806087 
L 330.721385 1117.089565 
L 33.21625 1117.089565 
z
" style="fill:#7cb5ec;"/>
   </g>
   <g id="patch_49">
    <path clip-path="url(#pa502519a5f)" d="M 33.21625 1121.910435 
L 321.19269 1121.910435 
L 321.19269 1141.193913 
L 33.21625 1141.193913 
z
" style="fill:#7cb5ec;"/>
   </g>
   <g id="patch_50">
    <path clip-path="url(#pa502519a5f)" d="M 33.21625 1146.014783 
L 352.88329 1146.014783 
L 352.88329 1165.298261 
L 33.21625 1165.298261 
z
" style="fill:#7cb5ec;"/>
   </g>
   <g id="patch_51">
    <path clip-path="url(#pa502519a5f)" d="M 33.21625 1170.11913 
L 343.896234 1170.11913 
L 343.896234 1189.402609 
L 33.21625 1189.402609 
z
" style="fill:#7cb5ec;"/>
   </g>
   <g id="patch_52">
    <path clip-path="url(#pa502519a5f)" d="M 33.21625 1194.223478 
L 383.577426 1194.223478 
L 383.577426 1213.506957 
L 33.21625 1213.506957 
z
" style="fill:#7cb5ec;"/>
   </g>
   <g id="patch_53">
    <path clip-path="url(#pa502519a5f)" d="M 33.21625 1218.327826 
L 327.798044 1218.327826 
L 327.798044 1237.611304 
L 33.21625 1237.611304 
z
" style="fill:#7cb5ec;"/>
   </g>
   <g id="patch_54">
    <path clip-path="url(#pa502519a5f)" d="M 33.21625 1242.432174 
L 393.70878 1242.432174 
L 393.70878 1261.715652 
L 33.21625 1261.715652 
z
" style="fill:#7cb5ec;"/>
   </g>
   <g id="patch_55">
    <path clip-path="url(#pa502519a5f)" d="M 33.21625 1266.536522 
L 287.065658 1266.536522 
L 287.065658 1285.82 
L 33.21625 1285.82 
z
" style="fill:#7cb5ec;"/>
   </g>
   <g id="patch_56">
    <path clip-path="url(#pa502519a5f)" d="M 33.21625 1290.64087 
L 352.645497 1290.64087 
L 352.645497 1309.924348 
L 33.21625 1309.924348 
z
" style="fill:#7cb5ec;"/>
   </g>
   <g id="patch_57">
    <path clip-path="url(#pa502519a5f)" d="M 33.21625 1314.745217 
L 316.852029 1314.745217 
L 316.852029 1334.028696 
L 33.21625 1334.028696 
z
" style="fill:#7cb5ec;"/>
   </g>
   <g id="patch_58">
    <path clip-path="url(#pa502519a5f)" d="M 33.21625 1338.849565 
L 248.499199 1338.849565 
L 248.499199 1358.133043 
L 33.21625 1358.133043 
z
" style="fill:#7cb5ec;"/>
   </g>
   <g id="patch_59">
    <path clip-path="url(#pa502519a5f)" d="M 33.21625 1362.953913 
L 352.043467 1362.953913 
L 352.043467 1382.237391 
L 33.21625 1382.237391 
z
" style="fill:#7cb5ec;"/>
   </g>
   <g id="patch_60">
    <path clip-path="url(#pa502519a5f)" d="M 33.21625 1387.058261 
L 386.153514 1387.058261 
L 386.153514 1406.341739 
L 33.21625 1406.341739 
z
" style="fill:#7cb5ec;"/>
   </g>
   <g id="patch_61">
    <path clip-path="url(#pa502519a5f)" d="M 33.21625 1411.162609 
L 391.86683 1411.162609 
L 391.86683 1430.446087 
L 33.21625 1430.446087 
z
" style="fill:#7cb5ec;"/>
   </g>
   <g id="patch_62">
    <path clip-path="url(#pa502519a5f)" d="M 322.20614 13.110435 
L 372.252704 13.110435 
L 372.252704 32.393913 
L 322.20614 32.393913 
z
" style="fill:#434348;"/>
   </g>
   <g id="patch_63">
    <path clip-path="url(#pa502519a5f)" d="M 324.177681 37.214783 
L 372.453381 37.214783 
L 372.453381 56.498261 
L 324.177681 56.498261 
z
" style="fill:#434348;"/>
   </g>
   <g id="patch_64">
    <path clip-path="url(#pa502519a5f)" d="M 426.232913 61.31913 
L 520.045922 61.31913 
L 520.045922 80.602609 
L 426.232913 80.602609 
z
" style="fill:#434348;"/>
   </g>
   <g id="patch_65">
    <path clip-path="url(#pa502519a5f)" d="M 308.053698 85.423478 
L 364.613769 85.423478 
L 364.613769 104.706957 
L 308.053698 104.706957 
z
" style="fill:#434348;"/>
   </g>
   <g id="patch_66">
    <path clip-path="url(#pa502519a5f)" d="M 137.377647 109.527826 
L 147.961311 109.527826 
L 147.961311 128.811304 
L 137.377647 128.811304 
z
" style="fill:#434348;"/>
   </g>
   <g id="patch_67">
    <path clip-path="url(#pa502519a5f)" d="M 309.539588 133.632174 
L 356.962253 133.632174 
L 356.962253 152.915652 
L 309.539588 152.915652 
z
" style="fill:#434348;"/>
   </g>
   <g id="patch_68">
    <path clip-path="url(#pa502519a5f)" d="M 371.660109 157.736522 
L 445.687253 157.736522 
L 445.687253 177.02 
L 371.660109 177.02 
z
" style="fill:#434348;"/>
   </g>
   <g id="patch_69">
    <path clip-path="url(#pa502519a5f)" d="M 338.321945 181.84087 
L 415.084963 181.84087 
L 415.084963 201.124348 
L 338.321945 201.124348 
z
" style="fill:#434348;"/>
   </g>
   <g id="patch_70">
    <path clip-path="url(#pa502519a5f)" d="M 320.244664 205.945217 
L 369.920699 205.945217 
L 369.920699 225.228696 
L 320.244664 225.228696 
z
" style="fill:#434348;"/>
   </g>
   <g id="patch_71">
    <path clip-path="url(#pa502519a5f)" d="M 310.796492 230.049565 
L 359.949131 230.049565 
L 359.949131 249.333043 
L 310.796492 249.333043 
z
" style="fill:#434348;"/>
   </g>
   <g id="patch_72">
    <path clip-path="url(#pa502519a5f)" d="M 422.17408 254.153913 
L 492.707306 254.153913 
L 492.707306 273.437391 
L 422.17408 273.437391 
z
" style="fill:#434348;"/>
   </g>
   <g id="patch_73">
    <path clip-path="url(#pa502519a5f)" d="M 435.306153 278.258261 
L 514.773592 278.258261 
L 514.773592 297.541739 
L 435.306153 297.541739 
z
" style="fill:#434348;"/>
   </g>
   <g id="patch_74">
    <path clip-path="url(#pa502519a5f)" d="M 177.927599 302.362609 
L 191.976243 302.362609 
L 191.976243 321.646087 
L 177.927599 321.646087 
z
" style="fill:#434348;"/>
   </g>
   <g id="patch_75">
    <path clip-path="url(#pa502519a5f)" d="M 366.794794 326.466957 
L 425.074145 326.466957 
L 425.074145 345.750435 
L 366.794794 345.750435 
z
" style="fill:#434348;"/>
   </g>
   <g id="patch_76">
    <path clip-path="url(#pa502519a5f)" d="M 294.186229 350.571304 
L 347.501499 350.571304 
L 347.501499 369.854783 
L 294.186229 369.854783 
z
" style="fill:#434348;"/>
   </g>
   <g id="patch_77">
    <path clip-path="url(#pa502519a5f)" d="M 320.453519 374.675652 
L 373.327175 374.675652 
L 373.327175 393.95913 
L 320.453519 393.95913 
z
" style="fill:#434348;"/>
   </g>
   <g id="patch_78">
    <path clip-path="url(#pa502519a5f)" d="M 282.339999 398.78 
L 325.159677 398.78 
L 325.159677 418.063478 
L 282.339999 418.063478 
z
" style="fill:#434348;"/>
   </g>
   <g id="patch_79">
    <path clip-path="url(#pa502519a5f)" d="M 150.112769 422.884348 
L 167.048267 422.884348 
L 167.048267 442.167826 
L 150.112769 442.167826 
z
" style="fill:#434348;"/>
   </g>
   <g id="patch_80">
    <path clip-path="url(#pa502519a5f)" d="M 322.704372 446.988696 
L 383.734696 446.988696 
L 383.734696 466.272174 
L 322.704372 466.272174 
z
" style="fill:#434348;"/>
   </g>
   <g id="patch_81">
    <path clip-path="url(#pa502519a5f)" d="M 171.840608 471.093043 
L 188.401803 471.093043 
L 188.401803 490.376522 
L 171.840608 490.376522 
z
" style="fill:#434348;"/>
   </g>
   <g id="patch_82">
    <path clip-path="url(#pa502519a5f)" d="M 292.121584 495.197391 
L 334.923648 495.197391 
L 334.923648 514.48087 
L 292.121584 514.48087 
z
" style="fill:#434348;"/>
   </g>
   <g id="patch_83">
    <path clip-path="url(#pa502519a5f)" d="M 282.37334 519.301739 
L 331.578193 519.301739 
L 331.578193 538.585217 
L 282.37334 538.585217 
z
" style="fill:#434348;"/>
   </g>
   <g id="patch_84">
    <path clip-path="url(#pa502519a5f)" d="M 315.157913 543.406087 
L 370.856772 543.406087 
L 370.856772 562.689565 
L 315.157913 562.689565 
z
" style="fill:#434348;"/>
   </g>
   <g id="patch_85">
    <path clip-path="url(#pa502519a5f)" d="M 448.335685 567.510435 
L 548.151388 567.510435 
L 548.151388 586.793913 
L 448.335685 586.793913 
z
" style="fill:#434348;"/>
   </g>
   <g id="patch_86">
    <path clip-path="url(#pa502519a5f)" d="M 444.841767 591.614783 
L 513.321672 591.614783 
L 513.321672 610.898261 
L 444.841767 610.898261 
z
" style="fill:#434348;"/>
   </g>
   <g id="patch_87">
    <path clip-path="url(#pa502519a5f)" d="M 376.054871 615.71913 
L 441.81337 615.71913 
L 441.81337 635.002609 
L 376.054871 635.002609 
z
" style="fill:#434348;"/>
   </g>
   <g id="patch_88">
    <path clip-path="url(#pa502519a5f)" d="M 363.677696 639.823478 
L 431.955666 639.823478 
L 431.955666 659.106957 
L 363.677696 659.106957 
z
" style="fill:#434348;"/>
   </g>
   <g id="patch_89">
    <path clip-path="url(#pa502519a5f)" d="M 425.496888 663.927826 
L 493.545872 663.927826 
L 493.545872 683.211304 
L 425.496888 683.211304 
z
" style="fill:#434348;"/>
   </g>
   <g id="patch_90">
    <path clip-path="url(#pa502519a5f)" d="M 335.765359 688.032174 
L 390.903077 688.032174 
L 390.903077 707.315652 
L 335.765359 707.315652 
z
" style="fill:#434348;"/>
   </g>
   <g id="patch_91">
    <path clip-path="url(#pa502519a5f)" d="M 296.018743 712.136522 
L 346.208737 712.136522 
L 346.208737 731.42 
L 296.018743 731.42 
z
" style="fill:#434348;"/>
   </g>
   <g id="patch_92">
    <path clip-path="url(#pa502519a5f)" d="M 281.7776 736.24087 
L 327.174624 736.24087 
L 327.174624 755.524348 
L 281.7776 755.524348 
z
" style="fill:#434348;"/>
   </g>
   <g id="patch_93">
    <path clip-path="url(#pa502519a5f)" d="M 524.899284 760.345217 
L 667.788185 760.345217 
L 667.788185 779.628696 
L 524.899284 779.628696 
z
" style="fill:#434348;"/>
   </g>
   <g id="patch_94">
    <path clip-path="url(#pa502519a5f)" d="M 197.478188 784.449565 
L 220.501935 784.449565 
L 220.501935 803.733043 
L 197.478188 803.733043 
z
" style="fill:#434348;"/>
   </g>
   <g id="patch_95">
    <path clip-path="url(#pa502519a5f)" d="M 360.083755 808.553913 
L 429.085797 808.553913 
L 429.085797 827.837391 
L 360.083755 827.837391 
z
" style="fill:#434348;"/>
   </g>
   <g id="patch_96">
    <path clip-path="url(#pa502519a5f)" d="M 369.512426 832.658261 
L 450.669577 832.658261 
L 450.669577 851.941739 
L 369.512426 851.941739 
z
" style="fill:#434348;"/>
   </g>
   <g id="patch_97">
    <path clip-path="url(#pa502519a5f)" d="M 322.698081 856.762609 
L 374.651391 856.762609 
L 374.651391 876.046087 
L 322.698081 876.046087 
z
" style="fill:#434348;"/>
   </g>
   <g id="patch_98">
    <path clip-path="url(#pa502519a5f)" d="M 326.957591 880.866957 
L 380.555948 880.866957 
L 380.555948 900.150435 
L 326.957591 900.150435 
z
" style="fill:#434348;"/>
   </g>
   <g id="patch_99">
    <path clip-path="url(#pa502519a5f)" d="M 354.71832 904.971304 
L 437.520519 904.971304 
L 437.520519 924.254783 
L 354.71832 924.254783 
z
" style="fill:#434348;"/>
   </g>
   <g id="patch_100">
    <path clip-path="url(#pa502519a5f)" d="M 255.743699 929.075652 
L 299.722774 929.075652 
L 299.722774 948.35913 
L 255.743699 948.35913 
z
" style="fill:#434348;"/>
   </g>
   <g id="patch_101">
    <path clip-path="url(#pa502519a5f)" d="M 329.638107 953.18 
L 377.012333 953.18 
L 377.012333 972.463478 
L 329.638107 972.463478 
z
" style="fill:#434348;"/>
   </g>
   <g id="patch_102">
    <path clip-path="url(#pa502519a5f)" d="M 300.378276 977.284348 
L 343.293575 977.284348 
L 343.293575 996.567826 
L 300.378276 996.567826 
z
" style="fill:#434348;"/>
   </g>
   <g id="patch_103">
    <path clip-path="url(#pa502519a5f)" d="M 343.948448 1001.388696 
L 395.847027 1001.388696 
L 395.847027 1020.672174 
L 343.948448 1020.672174 
z
" style="fill:#434348;"/>
   </g>
   <g id="patch_104">
    <path clip-path="url(#pa502519a5f)" d="M 371.141117 1025.493043 
L 448.711247 1025.493043 
L 448.711247 1044.776522 
L 371.141117 1044.776522 
z
" style="fill:#434348;"/>
   </g>
   <g id="patch_105">
    <path clip-path="url(#pa502519a5f)" d="M 305.980875 1049.597391 
L 352.276856 1049.597391 
L 352.276856 1068.88087 
L 305.980875 1068.88087 
z
" style="fill:#434348;"/>
   </g>
   <g id="patch_106">
    <path clip-path="url(#pa502519a5f)" d="M 270.406955 1073.701739 
L 307.023262 1073.701739 
L 307.023262 1092.985217 
L 270.406955 1092.985217 
z
" style="fill:#434348;"/>
   </g>
   <g id="patch_107">
    <path clip-path="url(#pa502519a5f)" d="M 330.721385 1097.806087 
L 383.643479 1097.806087 
L 383.643479 1117.089565 
L 330.721385 1117.089565 
z
" style="fill:#434348;"/>
   </g>
   <g id="patch_108">
    <path clip-path="url(#pa502519a5f)" d="M 321.19269 1121.910435 
L 370.480582 1121.910435 
L 370.480582 1141.193913 
L 321.19269 1141.193913 
z
" style="fill:#434348;"/>
   </g>
   <g id="patch_109">
    <path clip-path="url(#pa502519a5f)" d="M 352.88329 1146.014783 
L 406.774799 1146.014783 
L 406.774799 1165.298261 
L 352.88329 1165.298261 
z
" style="fill:#434348;"/>
   </g>
   <g id="patch_110">
    <path clip-path="url(#pa502519a5f)" d="M 343.896234 1170.11913 
L 392.181371 1170.11913 
L 392.181371 1189.402609 
L 343.896234 1189.402609 
z
" style="fill:#434348;"/>
   </g>
   <g id="patch_111">
    <path clip-path="url(#pa502519a5f)" d="M 383.577426 1194.223478 
L 449.596364 1194.223478 
L 449.596364 1213.506957 
L 383.577426 1213.506957 
z
" style="fill:#434348;"/>
   </g>
   <g id="patch_112">
    <path clip-path="url(#pa502519a5f)" d="M 327.798044 1218.327826 
L 385.575388 1218.327826 
L 385.575388 1237.611304 
L 327.798044 1237.611304 
z
" style="fill:#434348;"/>
   </g>
   <g id="patch_113">
    <path clip-path="url(#pa502519a5f)" d="M 393.70878 1242.432174 
L 452.032167 1242.432174 
L 452.032167 1261.715652 
L 393.70878 1261.715652 
z
" style="fill:#434348;"/>
   </g>
   <g id="patch_114">
    <path clip-path="url(#pa502519a5f)" d="M 287.065658 1266.536522 
L 323.67127 1266.536522 
L 323.67127 1285.82 
L 287.065658 1285.82 
z
" style="fill:#434348;"/>
   </g>
   <g id="patch_115">
    <path clip-path="url(#pa502519a5f)" d="M 352.645497 1290.64087 
L 413.599702 1290.64087 
L 413.599702 1309.924348 
L 352.645497 1309.924348 
z
" style="fill:#434348;"/>
   </g>
   <g id="patch_116">
    <path clip-path="url(#pa502519a5f)" d="M 316.852029 1314.745217 
L 366.212265 1314.745217 
L 366.212265 1334.028696 
L 316.852029 1334.028696 
z
" style="fill:#434348;"/>
   </g>
   <g id="patch_117">
    <path clip-path="url(#pa502519a5f)" d="M 248.499199 1338.849565 
L 278.181142 1338.849565 
L 278.181142 1358.133043 
L 248.499199 1358.133043 
z
" style="fill:#434348;"/>
   </g>
   <g id="patch_118">
    <path clip-path="url(#pa502519a5f)" d="M 352.043467 1362.953913 
L 405.713539 1362.953913 
L 405.713539 1382.237391 
L 352.043467 1382.237391 
z
" style="fill:#434348;"/>
   </g>
   <g id="patch_119">
    <path clip-path="url(#pa502519a5f)" d="M 386.153514 1387.058261 
L 446.496251 1387.058261 
L 446.496251 1406.341739 
L 386.153514 1406.341739 
z
" style="fill:#434348;"/>
   </g>
   <g id="patch_120">
    <path clip-path="url(#pa502519a5f)" d="M 391.86683 1411.162609 
L 450.089564 1411.162609 
L 450.089564 1430.446087 
L 391.86683 1430.446087 
z
" style="fill:#434348;"/>
   </g>
   <g id="patch_121">
    <path clip-path="url(#pa502519a5f)" d="M 372.252704 13.110435 
L 418.32599 13.110435 
L 418.32599 32.393913 
L 372.252704 32.393913 
z
" style="fill:#90ed7d;"/>
   </g>
   <g id="patch_122">
    <path clip-path="url(#pa502519a5f)" d="M 372.453381 37.214783 
L 419.833898 37.214783 
L 419.833898 56.498261 
L 372.453381 56.498261 
z
" style="fill:#90ed7d;"/>
   </g>
   <g id="patch_123">
    <path clip-path="url(#pa502519a5f)" d="M 520.045922 61.31913 
L 598.840873 61.31913 
L 598.840873 80.602609 
L 520.045922 80.602609 
z
" style="fill:#90ed7d;"/>
   </g>
   <g id="patch_124">
    <path clip-path="url(#pa502519a5f)" d="M 364.613769 85.423478 
L 414.174682 85.423478 
L 414.174682 104.706957 
L 364.613769 104.706957 
z
" style="fill:#90ed7d;"/>
   </g>
   <g id="patch_125">
    <path clip-path="url(#pa502519a5f)" d="M 147.961311 109.527826 
L 165.447255 109.527826 
L 165.447255 128.811304 
L 147.961311 128.811304 
z
" style="fill:#90ed7d;"/>
   </g>
   <g id="patch_126">
    <path clip-path="url(#pa502519a5f)" d="M 356.962253 133.632174 
L 414.191668 133.632174 
L 414.191668 152.915652 
L 356.962253 152.915652 
z
" style="fill:#90ed7d;"/>
   </g>
   <g id="patch_127">
    <path clip-path="url(#pa502519a5f)" d="M 445.687253 157.736522 
L 519.381612 157.736522 
L 519.381612 177.02 
L 445.687253 177.02 
z
" style="fill:#90ed7d;"/>
   </g>
   <g id="patch_128">
    <path clip-path="url(#pa502519a5f)" d="M 415.084963 181.84087 
L 503.714342 181.84087 
L 503.714342 201.124348 
L 415.084963 201.124348 
z
" style="fill:#90ed7d;"/>
   </g>
   <g id="patch_129">
    <path clip-path="url(#pa502519a5f)" d="M 369.920699 205.945217 
L 433.954886 205.945217 
L 433.954886 225.228696 
L 369.920699 225.228696 
z
" style="fill:#90ed7d;"/>
   </g>
   <g id="patch_130">
    <path clip-path="url(#pa502519a5f)" d="M 359.949131 230.049565 
L 424.050001 230.049565 
L 424.050001 249.333043 
L 359.949131 249.333043 
z
" style="fill:#90ed7d;"/>
   </g>
   <g id="patch_131">
    <path clip-path="url(#pa502519a5f)" d="M 492.707306 254.153913 
L 561.948399 254.153913 
L 561.948399 273.437391 
L 492.707306 273.437391 
z
" style="fill:#90ed7d;"/>
   </g>
   <g id="patch_132">
    <path clip-path="url(#pa502519a5f)" d="M 514.773592 278.258261 
L 588.71518 278.258261 
L 588.71518 297.541739 
L 514.773592 297.541739 
z
" style="fill:#90ed7d;"/>
   </g>
   <g id="patch_133">
    <path clip-path="url(#pa502519a5f)" d="M 191.976243 302.362609 
L 213.90413 302.362609 
L 213.90413 321.646087 
L 191.976243 321.646087 
z
" style="fill:#90ed7d;"/>
   </g>
   <g id="patch_134">
    <path clip-path="url(#pa502519a5f)" d="M 425.074145 326.466957 
L 480.542132 326.466957 
L 480.542132 345.750435 
L 425.074145 345.750435 
z
" style="fill:#90ed7d;"/>
   </g>
   <g id="patch_135">
    <path clip-path="url(#pa502519a5f)" d="M 347.501499 350.571304 
L 397.007682 350.571304 
L 397.007682 369.854783 
L 347.501499 369.854783 
z
" style="fill:#90ed7d;"/>
   </g>
   <g id="patch_136">
    <path clip-path="url(#pa502519a5f)" d="M 373.327175 374.675652 
L 423.494522 374.675652 
L 423.494522 393.95913 
L 373.327175 393.95913 
z
" style="fill:#90ed7d;"/>
   </g>
   <g id="patch_137">
    <path clip-path="url(#pa502519a5f)" d="M 325.159677 398.78 
L 366.038009 398.78 
L 366.038009 418.063478 
L 325.159677 418.063478 
z
" style="fill:#90ed7d;"/>
   </g>
   <g id="patch_138">
    <path clip-path="url(#pa502519a5f)" d="M 167.048267 422.884348 
L 187.051165 422.884348 
L 187.051165 442.167826 
L 167.048267 442.167826 
z
" style="fill:#90ed7d;"/>
   </g>
   <g id="patch_139">
    <path clip-path="url(#pa502519a5f)" d="M 383.734696 446.988696 
L 440.51935 446.988696 
L 440.51935 466.272174 
L 383.734696 466.272174 
z
" style="fill:#90ed7d;"/>
   </g>
   <g id="patch_140">
    <path clip-path="url(#pa502519a5f)" d="M 188.401803 471.093043 
L 215.905238 471.093043 
L 215.905238 490.376522 
L 188.401803 490.376522 
z
" style="fill:#90ed7d;"/>
   </g>
   <g id="patch_141">
    <path clip-path="url(#pa502519a5f)" d="M 334.923648 495.197391 
L 390.401071 495.197391 
L 390.401071 514.48087 
L 334.923648 514.48087 
z
" style="fill:#90ed7d;"/>
   </g>
   <g id="patch_142">
    <path clip-path="url(#pa502519a5f)" d="M 331.578193 519.301739 
L 388.291761 519.301739 
L 388.291761 538.585217 
L 331.578193 538.585217 
z
" style="fill:#90ed7d;"/>
   </g>
   <g id="patch_143">
    <path clip-path="url(#pa502519a5f)" d="M 370.856772 543.406087 
L 438.4308 543.406087 
L 438.4308 562.689565 
L 370.856772 562.689565 
z
" style="fill:#90ed7d;"/>
   </g>
   <g id="patch_144">
    <path clip-path="url(#pa502519a5f)" d="M 548.151388 567.510435 
L 659.758591 567.510435 
L 659.758591 586.793913 
L 548.151388 586.793913 
z
" style="fill:#90ed7d;"/>
   </g>
   <g id="patch_145">
    <path clip-path="url(#pa502519a5f)" d="M 513.321672 591.614783 
L 585.833358 591.614783 
L 585.833358 610.898261 
L 513.321672 610.898261 
z
" style="fill:#90ed7d;"/>
   </g>
   <g id="patch_146">
    <path clip-path="url(#pa502519a5f)" d="M 441.81337 615.71913 
L 510.554972 615.71913 
L 510.554972 635.002609 
L 441.81337 635.002609 
z
" style="fill:#90ed7d;"/>
   </g>
   <g id="patch_147">
    <path clip-path="url(#pa502519a5f)" d="M 431.955666 639.823478 
L 499.357325 639.823478 
L 499.357325 659.106957 
L 431.955666 659.106957 
z
" style="fill:#90ed7d;"/>
   </g>
   <g id="patch_148">
    <path clip-path="url(#pa502519a5f)" d="M 493.545872 663.927826 
L 561.97545 663.927826 
L 561.97545 683.211304 
L 493.545872 683.211304 
z
" style="fill:#90ed7d;"/>
   </g>
   <g id="patch_149">
    <path clip-path="url(#pa502519a5f)" d="M 390.903077 688.032174 
L 447.804111 688.032174 
L 447.804111 707.315652 
L 390.903077 707.315652 
z
" style="fill:#90ed7d;"/>
   </g>
   <g id="patch_150">
    <path clip-path="url(#pa502519a5f)" d="M 346.208737 712.136522 
L 395.535632 712.136522 
L 395.535632 731.42 
L 346.208737 731.42 
z
" style="fill:#90ed7d;"/>
   </g>
   <g id="patch_151">
    <path clip-path="url(#pa502519a5f)" d="M 327.174624 736.24087 
L 372.08411 736.24087 
L 372.08411 755.524348 
L 327.174624 755.524348 
z
" style="fill:#90ed7d;"/>
   </g>
   <g id="patch_152">
    <path clip-path="url(#pa502519a5f)" d="M 667.788185 760.345217 
L 777.21625 760.345217 
L 777.21625 779.628696 
L 667.788185 779.628696 
z
" style="fill:#90ed7d;"/>
   </g>
   <g id="patch_153">
    <path clip-path="url(#pa502519a5f)" d="M 220.501935 784.449565 
L 247.399565 784.449565 
L 247.399565 803.733043 
L 220.501935 803.733043 
z
" style="fill:#90ed7d;"/>
   </g>
   <g id="patch_154">
    <path clip-path="url(#pa502519a5f)" d="M 429.085797 808.553913 
L 496.101829 808.553913 
L 496.101829 827.837391 
L 429.085797 827.837391 
z
" style="fill:#90ed7d;"/>
   </g>
   <g id="patch_155">
    <path clip-path="url(#pa502519a5f)" d="M 450.669577 832.658261 
L 547.686497 832.658261 
L 547.686497 851.941739 
L 450.669577 851.941739 
z
" style="fill:#90ed7d;"/>
   </g>
   <g id="patch_156">
    <path clip-path="url(#pa502519a5f)" d="M 374.651391 856.762609 
L 448.067067 856.762609 
L 448.067067 876.046087 
L 374.651391 876.046087 
z
" style="fill:#90ed7d;"/>
   </g>
   <g id="patch_157">
    <path clip-path="url(#pa502519a5f)" d="M 380.555948 880.866957 
L 457.229637 880.866957 
L 457.229637 900.150435 
L 380.555948 900.150435 
z
" style="fill:#90ed7d;"/>
   </g>
   <g id="patch_158">
    <path clip-path="url(#pa502519a5f)" d="M 437.520519 904.971304 
L 535.806296 904.971304 
L 535.806296 924.254783 
L 437.520519 924.254783 
z
" style="fill:#90ed7d;"/>
   </g>
   <g id="patch_159">
    <path clip-path="url(#pa502519a5f)" d="M 299.722774 929.075652 
L 356.698039 929.075652 
L 356.698039 948.35913 
L 299.722774 948.35913 
z
" style="fill:#90ed7d;"/>
   </g>
   <g id="patch_160">
    <path clip-path="url(#pa502519a5f)" d="M 377.012333 953.18 
L 427.553355 953.18 
L 427.553355 972.463478 
L 377.012333 972.463478 
z
" style="fill:#90ed7d;"/>
   </g>
   <g id="patch_161">
    <path clip-path="url(#pa502519a5f)" d="M 343.293575 977.284348 
L 389.618493 977.284348 
L 389.618493 996.567826 
L 343.293575 996.567826 
z
" style="fill:#90ed7d;"/>
   </g>
   <g id="patch_162">
    <path clip-path="url(#pa502519a5f)" d="M 395.847027 1001.388696 
L 451.301174 1001.388696 
L 451.301174 1020.672174 
L 395.847027 1020.672174 
z
" style="fill:#90ed7d;"/>
   </g>
   <g id="patch_163">
    <path clip-path="url(#pa502519a5f)" d="M 448.711247 1025.493043 
L 526.9979 1025.493043 
L 526.9979 1044.776522 
L 448.711247 1044.776522 
z
" style="fill:#90ed7d;"/>
   </g>
   <g id="patch_164">
    <path clip-path="url(#pa502519a5f)" d="M 352.276856 1049.597391 
L 401.872368 1049.597391 
L 401.872368 1068.88087 
L 352.276856 1068.88087 
z
" style="fill:#90ed7d;"/>
   </g>
   <g id="patch_165">
    <path clip-path="url(#pa502519a5f)" d="M 307.023262 1073.701739 
L 346.730875 1073.701739 
L 346.730875 1092.985217 
L 307.023262 1092.985217 
z
" style="fill:#90ed7d;"/>
   </g>
   <g id="patch_166">
    <path clip-path="url(#pa502519a5f)" d="M 383.643479 1097.806087 
L 435.72575 1097.806087 
L 435.72575 1117.089565 
L 383.643479 1117.089565 
z
" style="fill:#90ed7d;"/>
   </g>
   <g id="patch_167">
    <path clip-path="url(#pa502519a5f)" d="M 370.480582 1121.910435 
L 418.749362 1121.910435 
L 418.749362 1141.193913 
L 370.480582 1141.193913 
z
" style="fill:#90ed7d;"/>
   </g>
   <g id="patch_168">
    <path clip-path="url(#pa502519a5f)" d="M 406.774799 1146.014783 
L 461.68542 1146.014783 
L 461.68542 1165.298261 
L 406.774799 1165.298261 
z
" style="fill:#90ed7d;"/>
   </g>
   <g id="patch_169">
    <path clip-path="url(#pa502519a5f)" d="M 392.181371 1170.11913 
L 444.983311 1170.11913 
L 444.983311 1189.402609 
L 392.181371 1189.402609 
z
" style="fill:#90ed7d;"/>
   </g>
   <g id="patch_170">
    <path clip-path="url(#pa502519a5f)" d="M 449.596364 1194.223478 
L 533.561734 1194.223478 
L 533.561734 1213.506957 
L 449.596364 1213.506957 
z
" style="fill:#90ed7d;"/>
   </g>
   <g id="patch_171">
    <path clip-path="url(#pa502519a5f)" d="M 385.575388 1218.327826 
L 467.248386 1218.327826 
L 467.248386 1237.611304 
L 385.575388 1237.611304 
z
" style="fill:#90ed7d;"/>
   </g>
   <g id="patch_172">
    <path clip-path="url(#pa502519a5f)" d="M 452.032167 1242.432174 
L 539.858838 1242.432174 
L 539.858838 1261.715652 
L 452.032167 1261.715652 
z
" style="fill:#90ed7d;"/>
   </g>
   <g id="patch_173">
    <path clip-path="url(#pa502519a5f)" d="M 323.67127 1266.536522 
L 383.805782 1266.536522 
L 383.805782 1285.82 
L 323.67127 1285.82 
z
" style="fill:#90ed7d;"/>
   </g>
   <g id="patch_174">
    <path clip-path="url(#pa502519a5f)" d="M 413.599702 1290.64087 
L 490.241308 1290.64087 
L 490.241308 1309.924348 
L 413.599702 1309.924348 
z
" style="fill:#90ed7d;"/>
   </g>
   <g id="patch_175">
    <path clip-path="url(#pa502519a5f)" d="M 366.212265 1314.745217 
L 419.437577 1314.745217 
L 419.437577 1334.028696 
L 366.212265 1334.028696 
z
" style="fill:#90ed7d;"/>
   </g>
   <g id="patch_176">
    <path clip-path="url(#pa502519a5f)" d="M 278.181142 1338.849565 
L 311.291579 1338.849565 
L 311.291579 1358.133043 
L 278.181142 1358.133043 
z
" style="fill:#90ed7d;"/>
   </g>
   <g id="patch_177">
    <path clip-path="url(#pa502519a5f)" d="M 405.713539 1362.953913 
L 464.345175 1362.953913 
L 464.345175 1382.237391 
L 405.713539 1382.237391 
z
" style="fill:#90ed7d;"/>
   </g>
   <g id="patch_178">
    <path clip-path="url(#pa502519a5f)" d="M 446.496251 1387.058261 
L 511.98739 1387.058261 
L 511.98739 1406.341739 
L 446.496251 1406.341739 
z
" style="fill:#90ed7d;"/>
   </g>
   <g id="patch_179">
    <path clip-path="url(#pa502519a5f)" d="M 450.089564 1411.162609 
L 514.145768 1411.162609 
L 514.145768 1430.446087 
L 450.089564 1430.446087 
z
" style="fill:#90ed7d;"/>
   </g>
   <g id="text_66">
    <!-- Qualimap RNAseq: Genomic Origin -->
    <defs>
     <path d="M 39.40625 66.21875 
Q 28.65625 66.21875 22.328125 58.203125 
Q 16.015625 50.203125 16.015625 36.375 
Q 16.015625 22.609375 22.328125 14.59375 
Q 28.65625 6.59375 39.40625 6.59375 
Q 50.140625 6.59375 56.421875 14.59375 
Q 62.703125 22.609375 62.703125 36.375 
Q 62.703125 50.203125 56.421875 58.203125 
Q 50.140625 66.21875 39.40625 66.21875 
z
M 53.21875 1.3125 
L 66.21875 -12.890625 
L 54.296875 -12.890625 
L 43.5 -1.21875 
Q 41.890625 -1.3125 41.03125 -1.359375 
Q 40.1875 -1.421875 39.40625 -1.421875 
Q 24.03125 -1.421875 14.8125 8.859375 
Q 5.609375 19.140625 5.609375 36.375 
Q 5.609375 53.65625 14.8125 63.9375 
Q 24.03125 74.21875 39.40625 74.21875 
Q 54.734375 74.21875 63.90625 63.9375 
Q 73.09375 53.65625 73.09375 36.375 
Q 73.09375 23.6875 67.984375 14.640625 
Q 62.890625 5.609375 53.21875 1.3125 
z
" id="DejaVuSans-81"/>
     <path d="M 9.421875 75.984375 
L 18.40625 75.984375 
L 18.40625 0 
L 9.421875 0 
z
" id="DejaVuSans-108"/>
     <path d="M 9.421875 54.6875 
L 18.40625 54.6875 
L 18.40625 0 
L 9.421875 0 
z
M 9.421875 75.984375 
L 18.40625 75.984375 
L 18.40625 64.59375 
L 9.421875 64.59375 
z
" id="DejaVuSans-105"/>
     <path d="M 18.109375 8.203125 
L 18.109375 -20.796875 
L 9.078125 -20.796875 
L 9.078125 54.6875 
L 18.109375 54.6875 
L 18.109375 46.390625 
Q 20.953125 51.265625 25.265625 53.625 
Q 29.59375 56 35.59375 56 
Q 45.5625 56 51.78125 48.09375 
Q 58.015625 40.1875 58.015625 27.296875 
Q 58.015625 14.40625 51.78125 6.484375 
Q 45.5625 -1.421875 35.59375 -1.421875 
Q 29.59375 -1.421875 25.265625 0.953125 
Q 20.953125 3.328125 18.109375 8.203125 
z
M 48.6875 27.296875 
Q 48.6875 37.203125 44.609375 42.84375 
Q 40.53125 48.484375 33.40625 48.484375 
Q 26.265625 48.484375 22.1875 42.84375 
Q 18.109375 37.203125 18.109375 27.296875 
Q 18.109375 17.390625 22.1875 11.75 
Q 26.265625 6.109375 33.40625 6.109375 
Q 40.53125 6.109375 44.609375 11.75 
Q 48.6875 17.390625 48.6875 27.296875 
z
" id="DejaVuSans-112"/>
     <path d="M 44.390625 34.1875 
Q 47.5625 33.109375 50.5625 29.59375 
Q 53.5625 26.078125 56.59375 19.921875 
L 66.609375 0 
L 56 0 
L 46.6875 18.703125 
Q 43.0625 26.03125 39.671875 28.421875 
Q 36.28125 30.8125 30.421875 30.8125 
L 19.671875 30.8125 
L 19.671875 0 
L 9.8125 0 
L 9.8125 72.90625 
L 32.078125 72.90625 
Q 44.578125 72.90625 50.734375 67.671875 
Q 56.890625 62.453125 56.890625 51.90625 
Q 56.890625 45.015625 53.6875 40.46875 
Q 50.484375 35.9375 44.390625 34.1875 
z
M 19.671875 64.796875 
L 19.671875 38.921875 
L 32.078125 38.921875 
Q 39.203125 38.921875 42.84375 42.21875 
Q 46.484375 45.515625 46.484375 51.90625 
Q 46.484375 58.296875 42.84375 61.546875 
Q 39.203125 64.796875 32.078125 64.796875 
z
" id="DejaVuSans-82"/>
     <path d="M 34.1875 63.1875 
L 20.796875 26.90625 
L 47.609375 26.90625 
z
M 28.609375 72.90625 
L 39.796875 72.90625 
L 67.578125 0 
L 57.328125 0 
L 50.6875 18.703125 
L 17.828125 18.703125 
L 11.1875 0 
L 0.78125 0 
z
" id="DejaVuSans-65"/>
     <path d="M 14.796875 27.296875 
Q 14.796875 17.390625 18.875 11.75 
Q 22.953125 6.109375 30.078125 6.109375 
Q 37.203125 6.109375 41.296875 11.75 
Q 45.40625 17.390625 45.40625 27.296875 
Q 45.40625 37.203125 41.296875 42.84375 
Q 37.203125 48.484375 30.078125 48.484375 
Q 22.953125 48.484375 18.875 42.84375 
Q 14.796875 37.203125 14.796875 27.296875 
z
M 45.40625 8.203125 
Q 42.578125 3.328125 38.25 0.953125 
Q 33.9375 -1.421875 27.875 -1.421875 
Q 17.96875 -1.421875 11.734375 6.484375 
Q 5.515625 14.40625 5.515625 27.296875 
Q 5.515625 40.1875 11.734375 48.09375 
Q 17.96875 56 27.875 56 
Q 33.9375 56 38.25 53.625 
Q 42.578125 51.265625 45.40625 46.390625 
L 45.40625 54.6875 
L 54.390625 54.6875 
L 54.390625 -20.796875 
L 45.40625 -20.796875 
z
" id="DejaVuSans-113"/>
     <path d="M 11.71875 12.40625 
L 22.015625 12.40625 
L 22.015625 0 
L 11.71875 0 
z
M 11.71875 51.703125 
L 22.015625 51.703125 
L 22.015625 39.3125 
L 11.71875 39.3125 
z
" id="DejaVuSans-58"/>
     <path d="M 59.515625 10.40625 
L 59.515625 29.984375 
L 43.40625 29.984375 
L 43.40625 38.09375 
L 69.28125 38.09375 
L 69.28125 6.78125 
Q 63.578125 2.734375 56.6875 0.65625 
Q 49.8125 -1.421875 42 -1.421875 
Q 24.90625 -1.421875 15.25 8.5625 
Q 5.609375 18.5625 5.609375 36.375 
Q 5.609375 54.25 15.25 64.234375 
Q 24.90625 74.21875 42 74.21875 
Q 49.125 74.21875 55.546875 72.453125 
Q 61.96875 70.703125 67.390625 67.28125 
L 67.390625 56.78125 
Q 61.921875 61.421875 55.765625 63.765625 
Q 49.609375 66.109375 42.828125 66.109375 
Q 29.4375 66.109375 22.71875 58.640625 
Q 16.015625 51.171875 16.015625 36.375 
Q 16.015625 21.625 22.71875 14.15625 
Q 29.4375 6.6875 42.828125 6.6875 
Q 48.046875 6.6875 52.140625 7.59375 
Q 56.25 8.5 59.515625 10.40625 
z
" id="DejaVuSans-71"/>
     <path d="M 54.890625 33.015625 
L 54.890625 0 
L 45.90625 0 
L 45.90625 32.71875 
Q 45.90625 40.484375 42.875 44.328125 
Q 39.84375 48.1875 33.796875 48.1875 
Q 26.515625 48.1875 22.3125 43.546875 
Q 18.109375 38.921875 18.109375 30.90625 
L 18.109375 0 
L 9.078125 0 
L 9.078125 54.6875 
L 18.109375 54.6875 
L 18.109375 46.1875 
Q 21.34375 51.125 25.703125 53.5625 
Q 30.078125 56 35.796875 56 
Q 45.21875 56 50.046875 50.171875 
Q 54.890625 44.34375 54.890625 33.015625 
z
" id="DejaVuSans-110"/>
     <path d="M 48.78125 52.59375 
L 48.78125 44.1875 
Q 44.96875 46.296875 41.140625 47.34375 
Q 37.3125 48.390625 33.40625 48.390625 
Q 24.65625 48.390625 19.8125 42.84375 
Q 14.984375 37.3125 14.984375 27.296875 
Q 14.984375 17.28125 19.8125 11.734375 
Q 24.65625 6.203125 33.40625 6.203125 
Q 37.3125 6.203125 41.140625 7.25 
Q 44.96875 8.296875 48.78125 10.40625 
L 48.78125 2.09375 
Q 45.015625 0.34375 40.984375 -0.53125 
Q 36.96875 -1.421875 32.421875 -1.421875 
Q 20.0625 -1.421875 12.78125 6.34375 
Q 5.515625 14.109375 5.515625 27.296875 
Q 5.515625 40.671875 12.859375 48.328125 
Q 20.21875 56 33.015625 56 
Q 37.15625 56 41.109375 55.140625 
Q 45.0625 54.296875 48.78125 52.59375 
z
" id="DejaVuSans-99"/>
     <path d="M 45.40625 27.984375 
Q 45.40625 37.75 41.375 43.109375 
Q 37.359375 48.484375 30.078125 48.484375 
Q 22.859375 48.484375 18.828125 43.109375 
Q 14.796875 37.75 14.796875 27.984375 
Q 14.796875 18.265625 18.828125 12.890625 
Q 22.859375 7.515625 30.078125 7.515625 
Q 37.359375 7.515625 41.375 12.890625 
Q 45.40625 18.265625 45.40625 27.984375 
z
M 54.390625 6.78125 
Q 54.390625 -7.171875 48.1875 -13.984375 
Q 42 -20.796875 29.203125 -20.796875 
Q 24.46875 -20.796875 20.265625 -20.09375 
Q 16.0625 -19.390625 12.109375 -17.921875 
L 12.109375 -9.1875 
Q 16.0625 -11.328125 19.921875 -12.34375 
Q 23.78125 -13.375 27.78125 -13.375 
Q 36.625 -13.375 41.015625 -8.765625 
Q 45.40625 -4.15625 45.40625 5.171875 
L 45.40625 9.625 
Q 42.625 4.78125 38.28125 2.390625 
Q 33.9375 0 27.875 0 
Q 17.828125 0 11.671875 7.65625 
Q 5.515625 15.328125 5.515625 27.984375 
Q 5.515625 40.671875 11.671875 48.328125 
Q 17.828125 56 27.875 56 
Q 33.9375 56 38.28125 53.609375 
Q 42.625 51.21875 45.40625 46.390625 
L 45.40625 54.6875 
L 54.390625 54.6875 
z
" id="DejaVuSans-103"/>
    </defs>
    <g transform="translate(284.14 -17.02)scale(0.16 -0.16)">
     <use xlink:href="#DejaVuSans-81"/>
     <use x="78.710938" xlink:href="#DejaVuSans-117"/>
     <use x="142.089844" xlink:href="#DejaVuSans-97"/>
     <use x="203.369141" xlink:href="#DejaVuSans-108"/>
     <use x="231.152344" xlink:href="#DejaVuSans-105"/>
     <use x="258.935547" xlink:href="#DejaVuSans-109"/>
     <use x="356.347656" xlink:href="#DejaVuSans-97"/>
     <use x="417.626953" xlink:href="#DejaVuSans-112"/>
     <use x="481.103516" xlink:href="#DejaVuSans-32"/>
     <use x="512.890625" xlink:href="#DejaVuSans-82"/>
     <use x="582.373047" xlink:href="#DejaVuSans-78"/>
     <use x="657.177734" xlink:href="#DejaVuSans-65"/>
     <use x="725.585938" xlink:href="#DejaVuSans-115"/>
     <use x="777.685547" xlink:href="#DejaVuSans-101"/>
     <use x="839.208984" xlink:href="#DejaVuSans-113"/>
     <use x="902.685547" xlink:href="#DejaVuSans-58"/>
     <use x="936.376953" xlink:href="#DejaVuSans-32"/>
     <use x="968.164062" xlink:href="#DejaVuSans-71"/>
     <use x="1045.654297" xlink:href="#DejaVuSans-101"/>
     <use x="1107.177734" xlink:href="#DejaVuSans-110"/>
     <use x="1170.556641" xlink:href="#DejaVuSans-111"/>
     <use x="1231.738281" xlink:href="#DejaVuSans-109"/>
     <use x="1329.150391" xlink:href="#DejaVuSans-105"/>
     <use x="1356.933594" xlink:href="#DejaVuSans-99"/>
     <use x="1411.914062" xlink:href="#DejaVuSans-32"/>
     <use x="1443.701172" xlink:href="#DejaVuSans-79"/>
     <use x="1522.412109" xlink:href="#DejaVuSans-114"/>
     <use x="1563.525391" xlink:href="#DejaVuSans-105"/>
     <use x="1591.308594" xlink:href="#DejaVuSans-103"/>
     <use x="1654.785156" xlink:href="#DejaVuSans-105"/>
     <use x="1682.568359" xlink:href="#DejaVuSans-110"/>
    </g>
   </g>
   <g id="legend_1">
    <g id="patch_180">
     <path d="M 40.41625 1507.152772 
L 56.41625 1507.152772 
L 56.41625 1501.552772 
L 40.41625 1501.552772 
z
" style="fill:#7cb5ec;"/>
    </g>
    <g id="text_67">
     <!-- Exonic -->
     <defs>
      <path d="M 9.8125 72.90625 
L 55.90625 72.90625 
L 55.90625 64.59375 
L 19.671875 64.59375 
L 19.671875 43.015625 
L 54.390625 43.015625 
L 54.390625 34.71875 
L 19.671875 34.71875 
L 19.671875 8.296875 
L 56.78125 8.296875 
L 56.78125 0 
L 9.8125 0 
z
" id="DejaVuSans-69"/>
      <path d="M 54.890625 54.6875 
L 35.109375 28.078125 
L 55.90625 0 
L 45.3125 0 
L 29.390625 21.484375 
L 13.484375 0 
L 2.875 0 
L 24.125 28.609375 
L 4.6875 54.6875 
L 15.28125 54.6875 
L 29.78125 35.203125 
L 44.28125 54.6875 
z
" id="DejaVuSans-120"/>
     </defs>
     <g transform="translate(62.81625 1507.152772)scale(0.08 -0.08)">
      <use xlink:href="#DejaVuSans-69"/>
      <use x="63.183594" xlink:href="#DejaVuSans-120"/>
      <use x="122.316406" xlink:href="#DejaVuSans-111"/>
      <use x="183.498047" xlink:href="#DejaVuSans-110"/>
      <use x="246.876953" xlink:href="#DejaVuSans-105"/>
      <use x="274.660156" xlink:href="#DejaVuSans-99"/>
     </g>
    </g>
    <g id="patch_181">
     <path d="M 390.34875 1507.152772 
L 406.34875 1507.152772 
L 406.34875 1501.552772 
L 390.34875 1501.552772 
z
" style="fill:#434348;"/>
    </g>
    <g id="text_68">
     <!-- Intronic -->
     <defs>
      <path d="M 9.8125 72.90625 
L 19.671875 72.90625 
L 19.671875 0 
L 9.8125 0 
z
" id="DejaVuSans-73"/>
      <path d="M 18.3125 70.21875 
L 18.3125 54.6875 
L 36.8125 54.6875 
L 36.8125 47.703125 
L 18.3125 47.703125 
L 18.3125 18.015625 
Q 18.3125 11.328125 20.140625 9.421875 
Q 21.96875 7.515625 27.59375 7.515625 
L 36.8125 7.515625 
L 36.8125 0 
L 27.59375 0 
Q 17.1875 0 13.234375 3.875 
Q 9.28125 7.765625 9.28125 18.015625 
L 9.28125 47.703125 
L 2.6875 47.703125 
L 2.6875 54.6875 
L 9.28125 54.6875 
L 9.28125 70.21875 
z
" id="DejaVuSans-116"/>
     </defs>
     <g transform="translate(412.74875 1507.152772)scale(0.08 -0.08)">
      <use xlink:href="#DejaVuSans-73"/>
      <use x="29.492188" xlink:href="#DejaVuSans-110"/>
      <use x="92.871094" xlink:href="#DejaVuSans-116"/>
      <use x="132.080078" xlink:href="#DejaVuSans-114"/>
      <use x="173.162109" xlink:href="#DejaVuSans-111"/>
      <use x="234.34375" xlink:href="#DejaVuSans-110"/>
      <use x="297.722656" xlink:href="#DejaVuSans-105"/>
      <use x="325.505859" xlink:href="#DejaVuSans-99"/>
     </g>
    </g>
    <g id="patch_182">
     <path d="M 744.3475 1507.152772 
L 760.3475 1507.152772 
L 760.3475 1501.552772 
L 744.3475 1501.552772 
z
" style="fill:#90ed7d;"/>
    </g>
    <g id="text_69">
     <!-- Intergenic -->
     <g transform="translate(766.7475 1507.152772)scale(0.08 -0.08)">
      <use xlink:href="#DejaVuSans-73"/>
      <use x="29.492188" xlink:href="#DejaVuSans-110"/>
      <use x="92.871094" xlink:href="#DejaVuSans-116"/>
      <use x="132.080078" xlink:href="#DejaVuSans-101"/>
      <use x="193.603516" xlink:href="#DejaVuSans-114"/>
      <use x="234.701172" xlink:href="#DejaVuSans-103"/>
      <use x="298.177734" xlink:href="#DejaVuSans-101"/>
      <use x="359.701172" xlink:href="#DejaVuSans-110"/>
      <use x="423.080078" xlink:href="#DejaVuSans-105"/>
      <use x="450.863281" xlink:href="#DejaVuSans-99"/>
     </g>
    </g>
   </g>
  </g>
 </g>
 <defs>
  <clipPath id="pa502519a5f">
   <rect height="1422.156522" width="781.2" x="33.21625" y="10.7"/>
  </clipPath>
 </defs>
</svg>
