<?xml version="1.0" encoding="utf-8" standalone="no"?>
<!DOCTYPE svg PUBLIC "-//W3C//DTD SVG 1.1//EN"
  "http://www.w3.org/Graphics/SVG/1.1/DTD/svg11.dtd">
<!-- Created with matplotlib (https://matplotlib.org/) -->
<svg height="388.844525pt" version="1.1" viewBox="0 0 1001.258125 388.844525" width="1001.258125pt" xmlns="http://www.w3.org/2000/svg" xmlns:xlink="http://www.w3.org/1999/xlink">
 <defs>
  <style type="text/css">
*{stroke-linecap:butt;stroke-linejoin:round;}
  </style>
 </defs>
 <g id="figure_1">
  <g id="patch_1">
   <path d="M 0 388.844525 
L 1001.258125 388.844525 
L 1001.258125 0 
L 0 0 
z
" style="fill:#ffffff;"/>
  </g>
  <g id="axes_1">
   <g id="patch_2">
    <path d="M 43.148125 353.2239 
L 990.558125 353.2239 
L 990.558125 35.2559 
L 43.148125 35.2559 
z
" style="fill:#ffffff;"/>
   </g>
   <g id="matplotlib.axis_1">
    <g id="xtick_1">
     <g id="text_1">
      <!-- 0 -->
      <defs>
       <path d="M 31.78125 66.40625 
Q 24.171875 66.40625 20.328125 58.90625 
Q 16.5 51.421875 16.5 36.375 
Q 16.5 21.390625 20.328125 13.890625 
Q 24.171875 6.390625 31.78125 6.390625 
Q 39.453125 6.390625 43.28125 13.890625 
Q 47.125 21.390625 47.125 36.375 
Q 47.125 51.421875 43.28125 58.90625 
Q 39.453125 66.40625 31.78125 66.40625 
z
M 31.78125 74.21875 
Q 44.046875 74.21875 50.515625 64.515625 
Q 56.984375 54.828125 56.984375 36.375 
Q 56.984375 17.96875 50.515625 8.265625 
Q 44.046875 -1.421875 31.78125 -1.421875 
Q 19.53125 -1.421875 13.0625 8.265625 
Q 6.59375 17.96875 6.59375 36.375 
Q 6.59375 54.828125 13.0625 64.515625 
Q 19.53125 74.21875 31.78125 74.21875 
z
" id="DejaVuSans-48"/>
      </defs>
      <g transform="translate(83.66715 366.30265)scale(0.08 -0.08)">
       <use xlink:href="#DejaVuSans-48"/>
      </g>
     </g>
    </g>
    <g id="xtick_2">
     <g id="text_2">
      <!-- 100000 -->
      <defs>
       <path d="M 12.40625 8.296875 
L 28.515625 8.296875 
L 28.515625 63.921875 
L 10.984375 60.40625 
L 10.984375 69.390625 
L 28.421875 72.90625 
L 38.28125 72.90625 
L 38.28125 8.296875 
L 54.390625 8.296875 
L 54.390625 0 
L 12.40625 0 
z
" id="DejaVuSans-49"/>
      </defs>
      <g transform="translate(178.294923 366.30265)scale(0.08 -0.08)">
       <use xlink:href="#DejaVuSans-49"/>
       <use x="63.623047" xlink:href="#DejaVuSans-48"/>
       <use x="127.246094" xlink:href="#DejaVuSans-48"/>
       <use x="190.869141" xlink:href="#DejaVuSans-48"/>
       <use x="254.492188" xlink:href="#DejaVuSans-48"/>
       <use x="318.115234" xlink:href="#DejaVuSans-48"/>
      </g>
     </g>
    </g>
    <g id="xtick_3">
     <g id="text_3">
      <!-- 200000 -->
      <defs>
       <path d="M 19.1875 8.296875 
L 53.609375 8.296875 
L 53.609375 0 
L 7.328125 0 
L 7.328125 8.296875 
Q 12.9375 14.109375 22.625 23.890625 
Q 32.328125 33.6875 34.8125 36.53125 
Q 39.546875 41.84375 41.421875 45.53125 
Q 43.3125 49.21875 43.3125 52.78125 
Q 43.3125 58.59375 39.234375 62.25 
Q 35.15625 65.921875 28.609375 65.921875 
Q 23.96875 65.921875 18.8125 64.3125 
Q 13.671875 62.703125 7.8125 59.421875 
L 7.8125 69.390625 
Q 13.765625 71.78125 18.9375 73 
Q 24.125 74.21875 28.421875 74.21875 
Q 39.75 74.21875 46.484375 68.546875 
Q 53.21875 62.890625 53.21875 53.421875 
Q 53.21875 48.921875 51.53125 44.890625 
Q 49.859375 40.875 45.40625 35.40625 
Q 44.1875 33.984375 37.640625 27.21875 
Q 31.109375 20.453125 19.1875 8.296875 
z
" id="DejaVuSans-50"/>
      </defs>
      <g transform="translate(285.647697 366.30265)scale(0.08 -0.08)">
       <use xlink:href="#DejaVuSans-50"/>
       <use x="63.623047" xlink:href="#DejaVuSans-48"/>
       <use x="127.246094" xlink:href="#DejaVuSans-48"/>
       <use x="190.869141" xlink:href="#DejaVuSans-48"/>
       <use x="254.492188" xlink:href="#DejaVuSans-48"/>
       <use x="318.115234" xlink:href="#DejaVuSans-48"/>
      </g>
     </g>
    </g>
    <g id="xtick_4">
     <g id="text_4">
      <!-- 300000 -->
      <defs>
       <path d="M 40.578125 39.3125 
Q 47.65625 37.796875 51.625 33 
Q 55.609375 28.21875 55.609375 21.1875 
Q 55.609375 10.40625 48.1875 4.484375 
Q 40.765625 -1.421875 27.09375 -1.421875 
Q 22.515625 -1.421875 17.65625 -0.515625 
Q 12.796875 0.390625 7.625 2.203125 
L 7.625 11.71875 
Q 11.71875 9.328125 16.59375 8.109375 
Q 21.484375 6.890625 26.8125 6.890625 
Q 36.078125 6.890625 40.9375 10.546875 
Q 45.796875 14.203125 45.796875 21.1875 
Q 45.796875 27.640625 41.28125 31.265625 
Q 36.765625 34.90625 28.71875 34.90625 
L 20.21875 34.90625 
L 20.21875 43.015625 
L 29.109375 43.015625 
Q 36.375 43.015625 40.234375 45.921875 
Q 44.09375 48.828125 44.09375 54.296875 
Q 44.09375 59.90625 40.109375 62.90625 
Q 36.140625 65.921875 28.71875 65.921875 
Q 24.65625 65.921875 20.015625 65.03125 
Q 15.375 64.15625 9.8125 62.3125 
L 9.8125 71.09375 
Q 15.4375 72.65625 20.34375 73.4375 
Q 25.25 74.21875 29.59375 74.21875 
Q 40.828125 74.21875 47.359375 69.109375 
Q 53.90625 64.015625 53.90625 55.328125 
Q 53.90625 49.265625 50.4375 45.09375 
Q 46.96875 40.921875 40.578125 39.3125 
z
" id="DejaVuSans-51"/>
      </defs>
      <g transform="translate(393.00047 366.30265)scale(0.08 -0.08)">
       <use xlink:href="#DejaVuSans-51"/>
       <use x="63.623047" xlink:href="#DejaVuSans-48"/>
       <use x="127.246094" xlink:href="#DejaVuSans-48"/>
       <use x="190.869141" xlink:href="#DejaVuSans-48"/>
       <use x="254.492188" xlink:href="#DejaVuSans-48"/>
       <use x="318.115234" xlink:href="#DejaVuSans-48"/>
      </g>
     </g>
    </g>
    <g id="xtick_5">
     <g id="text_5">
      <!-- 400000 -->
      <defs>
       <path d="M 37.796875 64.3125 
L 12.890625 25.390625 
L 37.796875 25.390625 
z
M 35.203125 72.90625 
L 47.609375 72.90625 
L 47.609375 25.390625 
L 58.015625 25.390625 
L 58.015625 17.1875 
L 47.609375 17.1875 
L 47.609375 0 
L 37.796875 0 
L 37.796875 17.1875 
L 4.890625 17.1875 
L 4.890625 26.703125 
z
" id="DejaVuSans-52"/>
      </defs>
      <g transform="translate(500.353243 366.30265)scale(0.08 -0.08)">
       <use xlink:href="#DejaVuSans-52"/>
       <use x="63.623047" xlink:href="#DejaVuSans-48"/>
       <use x="127.246094" xlink:href="#DejaVuSans-48"/>
       <use x="190.869141" xlink:href="#DejaVuSans-48"/>
       <use x="254.492188" xlink:href="#DejaVuSans-48"/>
       <use x="318.115234" xlink:href="#DejaVuSans-48"/>
      </g>
     </g>
    </g>
    <g id="xtick_6">
     <g id="text_6">
      <!-- 500000 -->
      <defs>
       <path d="M 10.796875 72.90625 
L 49.515625 72.90625 
L 49.515625 64.59375 
L 19.828125 64.59375 
L 19.828125 46.734375 
Q 21.96875 47.46875 24.109375 47.828125 
Q 26.265625 48.1875 28.421875 48.1875 
Q 40.625 48.1875 47.75 41.5 
Q 54.890625 34.8125 54.890625 23.390625 
Q 54.890625 11.625 47.5625 5.09375 
Q 40.234375 -1.421875 26.90625 -1.421875 
Q 22.3125 -1.421875 17.546875 -0.640625 
Q 12.796875 0.140625 7.71875 1.703125 
L 7.71875 11.625 
Q 12.109375 9.234375 16.796875 8.0625 
Q 21.484375 6.890625 26.703125 6.890625 
Q 35.15625 6.890625 40.078125 11.328125 
Q 45.015625 15.765625 45.015625 23.390625 
Q 45.015625 31 40.078125 35.4375 
Q 35.15625 39.890625 26.703125 39.890625 
Q 22.75 39.890625 18.8125 39.015625 
Q 14.890625 38.140625 10.796875 36.28125 
z
" id="DejaVuSans-53"/>
      </defs>
      <g transform="translate(607.706017 366.30265)scale(0.08 -0.08)">
       <use xlink:href="#DejaVuSans-53"/>
       <use x="63.623047" xlink:href="#DejaVuSans-48"/>
       <use x="127.246094" xlink:href="#DejaVuSans-48"/>
       <use x="190.869141" xlink:href="#DejaVuSans-48"/>
       <use x="254.492188" xlink:href="#DejaVuSans-48"/>
       <use x="318.115234" xlink:href="#DejaVuSans-48"/>
      </g>
     </g>
    </g>
    <g id="xtick_7">
     <g id="text_7">
      <!-- 600000 -->
      <defs>
       <path d="M 33.015625 40.375 
Q 26.375 40.375 22.484375 35.828125 
Q 18.609375 31.296875 18.609375 23.390625 
Q 18.609375 15.53125 22.484375 10.953125 
Q 26.375 6.390625 33.015625 6.390625 
Q 39.65625 6.390625 43.53125 10.953125 
Q 47.40625 15.53125 47.40625 23.390625 
Q 47.40625 31.296875 43.53125 35.828125 
Q 39.65625 40.375 33.015625 40.375 
z
M 52.59375 71.296875 
L 52.59375 62.3125 
Q 48.875 64.0625 45.09375 64.984375 
Q 41.3125 65.921875 37.59375 65.921875 
Q 27.828125 65.921875 22.671875 59.328125 
Q 17.53125 52.734375 16.796875 39.40625 
Q 19.671875 43.65625 24.015625 45.921875 
Q 28.375 48.1875 33.59375 48.1875 
Q 44.578125 48.1875 50.953125 41.515625 
Q 57.328125 34.859375 57.328125 23.390625 
Q 57.328125 12.15625 50.6875 5.359375 
Q 44.046875 -1.421875 33.015625 -1.421875 
Q 20.359375 -1.421875 13.671875 8.265625 
Q 6.984375 17.96875 6.984375 36.375 
Q 6.984375 53.65625 15.1875 63.9375 
Q 23.390625 74.21875 37.203125 74.21875 
Q 40.921875 74.21875 44.703125 73.484375 
Q 48.484375 72.75 52.59375 71.296875 
z
" id="DejaVuSans-54"/>
      </defs>
      <g transform="translate(715.05879 366.30265)scale(0.08 -0.08)">
       <use xlink:href="#DejaVuSans-54"/>
       <use x="63.623047" xlink:href="#DejaVuSans-48"/>
       <use x="127.246094" xlink:href="#DejaVuSans-48"/>
       <use x="190.869141" xlink:href="#DejaVuSans-48"/>
       <use x="254.492188" xlink:href="#DejaVuSans-48"/>
       <use x="318.115234" xlink:href="#DejaVuSans-48"/>
      </g>
     </g>
    </g>
    <g id="xtick_8">
     <g id="text_8">
      <!-- 700000 -->
      <defs>
       <path d="M 8.203125 72.90625 
L 55.078125 72.90625 
L 55.078125 68.703125 
L 28.609375 0 
L 18.3125 0 
L 43.21875 64.59375 
L 8.203125 64.59375 
z
" id="DejaVuSans-55"/>
      </defs>
      <g transform="translate(822.411564 366.30265)scale(0.08 -0.08)">
       <use xlink:href="#DejaVuSans-55"/>
       <use x="63.623047" xlink:href="#DejaVuSans-48"/>
       <use x="127.246094" xlink:href="#DejaVuSans-48"/>
       <use x="190.869141" xlink:href="#DejaVuSans-48"/>
       <use x="254.492188" xlink:href="#DejaVuSans-48"/>
       <use x="318.115234" xlink:href="#DejaVuSans-48"/>
      </g>
     </g>
    </g>
    <g id="xtick_9">
     <g id="text_9">
      <!-- 800000 -->
      <defs>
       <path d="M 31.78125 34.625 
Q 24.75 34.625 20.71875 30.859375 
Q 16.703125 27.09375 16.703125 20.515625 
Q 16.703125 13.921875 20.71875 10.15625 
Q 24.75 6.390625 31.78125 6.390625 
Q 38.8125 6.390625 42.859375 10.171875 
Q 46.921875 13.96875 46.921875 20.515625 
Q 46.921875 27.09375 42.890625 30.859375 
Q 38.875 34.625 31.78125 34.625 
z
M 21.921875 38.8125 
Q 15.578125 40.375 12.03125 44.71875 
Q 8.5 49.078125 8.5 55.328125 
Q 8.5 64.0625 14.71875 69.140625 
Q 20.953125 74.21875 31.78125 74.21875 
Q 42.671875 74.21875 48.875 69.140625 
Q 55.078125 64.0625 55.078125 55.328125 
Q 55.078125 49.078125 51.53125 44.71875 
Q 48 40.375 41.703125 38.8125 
Q 48.828125 37.15625 52.796875 32.3125 
Q 56.78125 27.484375 56.78125 20.515625 
Q 56.78125 9.90625 50.3125 4.234375 
Q 43.84375 -1.421875 31.78125 -1.421875 
Q 19.734375 -1.421875 13.25 4.234375 
Q 6.78125 9.90625 6.78125 20.515625 
Q 6.78125 27.484375 10.78125 32.3125 
Q 14.796875 37.15625 21.921875 38.8125 
z
M 18.3125 54.390625 
Q 18.3125 48.734375 21.84375 45.5625 
Q 25.390625 42.390625 31.78125 42.390625 
Q 38.140625 42.390625 41.71875 45.5625 
Q 45.3125 48.734375 45.3125 54.390625 
Q 45.3125 60.0625 41.71875 63.234375 
Q 38.140625 66.40625 31.78125 66.40625 
Q 25.390625 66.40625 21.84375 63.234375 
Q 18.3125 60.0625 18.3125 54.390625 
z
" id="DejaVuSans-56"/>
      </defs>
      <g transform="translate(929.764337 366.30265)scale(0.08 -0.08)">
       <use xlink:href="#DejaVuSans-56"/>
       <use x="63.623047" xlink:href="#DejaVuSans-48"/>
       <use x="127.246094" xlink:href="#DejaVuSans-48"/>
       <use x="190.869141" xlink:href="#DejaVuSans-48"/>
       <use x="254.492188" xlink:href="#DejaVuSans-48"/>
       <use x="318.115234" xlink:href="#DejaVuSans-48"/>
      </g>
     </g>
    </g>
    <g id="text_10">
     <!-- expression (reads/kbp) -->
     <defs>
      <path d="M 56.203125 29.59375 
L 56.203125 25.203125 
L 14.890625 25.203125 
Q 15.484375 15.921875 20.484375 11.0625 
Q 25.484375 6.203125 34.421875 6.203125 
Q 39.59375 6.203125 44.453125 7.46875 
Q 49.3125 8.734375 54.109375 11.28125 
L 54.109375 2.78125 
Q 49.265625 0.734375 44.1875 -0.34375 
Q 39.109375 -1.421875 33.890625 -1.421875 
Q 20.796875 -1.421875 13.15625 6.1875 
Q 5.515625 13.8125 5.515625 26.8125 
Q 5.515625 40.234375 12.765625 48.109375 
Q 20.015625 56 32.328125 56 
Q 43.359375 56 49.78125 48.890625 
Q 56.203125 41.796875 56.203125 29.59375 
z
M 47.21875 32.234375 
Q 47.125 39.59375 43.09375 43.984375 
Q 39.0625 48.390625 32.421875 48.390625 
Q 24.90625 48.390625 20.390625 44.140625 
Q 15.875 39.890625 15.1875 32.171875 
z
" id="DejaVuSans-101"/>
      <path d="M 54.890625 54.6875 
L 35.109375 28.078125 
L 55.90625 0 
L 45.3125 0 
L 29.390625 21.484375 
L 13.484375 0 
L 2.875 0 
L 24.125 28.609375 
L 4.6875 54.6875 
L 15.28125 54.6875 
L 29.78125 35.203125 
L 44.28125 54.6875 
z
" id="DejaVuSans-120"/>
      <path d="M 18.109375 8.203125 
L 18.109375 -20.796875 
L 9.078125 -20.796875 
L 9.078125 54.6875 
L 18.109375 54.6875 
L 18.109375 46.390625 
Q 20.953125 51.265625 25.265625 53.625 
Q 29.59375 56 35.59375 56 
Q 45.5625 56 51.78125 48.09375 
Q 58.015625 40.1875 58.015625 27.296875 
Q 58.015625 14.40625 51.78125 6.484375 
Q 45.5625 -1.421875 35.59375 -1.421875 
Q 29.59375 -1.421875 25.265625 0.953125 
Q 20.953125 3.328125 18.109375 8.203125 
z
M 48.6875 27.296875 
Q 48.6875 37.203125 44.609375 42.84375 
Q 40.53125 48.484375 33.40625 48.484375 
Q 26.265625 48.484375 22.1875 42.84375 
Q 18.109375 37.203125 18.109375 27.296875 
Q 18.109375 17.390625 22.1875 11.75 
Q 26.265625 6.109375 33.40625 6.109375 
Q 40.53125 6.109375 44.609375 11.75 
Q 48.6875 17.390625 48.6875 27.296875 
z
" id="DejaVuSans-112"/>
      <path d="M 41.109375 46.296875 
Q 39.59375 47.171875 37.8125 47.578125 
Q 36.03125 48 33.890625 48 
Q 26.265625 48 22.1875 43.046875 
Q 18.109375 38.09375 18.109375 28.8125 
L 18.109375 0 
L 9.078125 0 
L 9.078125 54.6875 
L 18.109375 54.6875 
L 18.109375 46.1875 
Q 20.953125 51.171875 25.484375 53.578125 
Q 30.03125 56 36.53125 56 
Q 37.453125 56 38.578125 55.875 
Q 39.703125 55.765625 41.0625 55.515625 
z
" id="DejaVuSans-114"/>
      <path d="M 44.28125 53.078125 
L 44.28125 44.578125 
Q 40.484375 46.53125 36.375 47.5 
Q 32.28125 48.484375 27.875 48.484375 
Q 21.1875 48.484375 17.84375 46.4375 
Q 14.5 44.390625 14.5 40.28125 
Q 14.5 37.15625 16.890625 35.375 
Q 19.28125 33.59375 26.515625 31.984375 
L 29.59375 31.296875 
Q 39.15625 29.25 43.1875 25.515625 
Q 47.21875 21.78125 47.21875 15.09375 
Q 47.21875 7.46875 41.1875 3.015625 
Q 35.15625 -1.421875 24.609375 -1.421875 
Q 20.21875 -1.421875 15.453125 -0.5625 
Q 10.6875 0.296875 5.421875 2 
L 5.421875 11.28125 
Q 10.40625 8.6875 15.234375 7.390625 
Q 20.0625 6.109375 24.8125 6.109375 
Q 31.15625 6.109375 34.5625 8.28125 
Q 37.984375 10.453125 37.984375 14.40625 
Q 37.984375 18.0625 35.515625 20.015625 
Q 33.0625 21.96875 24.703125 23.78125 
L 21.578125 24.515625 
Q 13.234375 26.265625 9.515625 29.90625 
Q 5.8125 33.546875 5.8125 39.890625 
Q 5.8125 47.609375 11.28125 51.796875 
Q 16.75 56 26.8125 56 
Q 31.78125 56 36.171875 55.265625 
Q 40.578125 54.546875 44.28125 53.078125 
z
" id="DejaVuSans-115"/>
      <path d="M 9.421875 54.6875 
L 18.40625 54.6875 
L 18.40625 0 
L 9.421875 0 
z
M 9.421875 75.984375 
L 18.40625 75.984375 
L 18.40625 64.59375 
L 9.421875 64.59375 
z
" id="DejaVuSans-105"/>
      <path d="M 30.609375 48.390625 
Q 23.390625 48.390625 19.1875 42.75 
Q 14.984375 37.109375 14.984375 27.296875 
Q 14.984375 17.484375 19.15625 11.84375 
Q 23.34375 6.203125 30.609375 6.203125 
Q 37.796875 6.203125 41.984375 11.859375 
Q 46.1875 17.53125 46.1875 27.296875 
Q 46.1875 37.015625 41.984375 42.703125 
Q 37.796875 48.390625 30.609375 48.390625 
z
M 30.609375 56 
Q 42.328125 56 49.015625 48.375 
Q 55.71875 40.765625 55.71875 27.296875 
Q 55.71875 13.875 49.015625 6.21875 
Q 42.328125 -1.421875 30.609375 -1.421875 
Q 18.84375 -1.421875 12.171875 6.21875 
Q 5.515625 13.875 5.515625 27.296875 
Q 5.515625 40.765625 12.171875 48.375 
Q 18.84375 56 30.609375 56 
z
" id="DejaVuSans-111"/>
      <path d="M 54.890625 33.015625 
L 54.890625 0 
L 45.90625 0 
L 45.90625 32.71875 
Q 45.90625 40.484375 42.875 44.328125 
Q 39.84375 48.1875 33.796875 48.1875 
Q 26.515625 48.1875 22.3125 43.546875 
Q 18.109375 38.921875 18.109375 30.90625 
L 18.109375 0 
L 9.078125 0 
L 9.078125 54.6875 
L 18.109375 54.6875 
L 18.109375 46.1875 
Q 21.34375 51.125 25.703125 53.5625 
Q 30.078125 56 35.796875 56 
Q 45.21875 56 50.046875 50.171875 
Q 54.890625 44.34375 54.890625 33.015625 
z
" id="DejaVuSans-110"/>
      <path id="DejaVuSans-32"/>
      <path d="M 31 75.875 
Q 24.46875 64.65625 21.28125 53.65625 
Q 18.109375 42.671875 18.109375 31.390625 
Q 18.109375 20.125 21.3125 9.0625 
Q 24.515625 -2 31 -13.1875 
L 23.1875 -13.1875 
Q 15.875 -1.703125 12.234375 9.375 
Q 8.59375 20.453125 8.59375 31.390625 
Q 8.59375 42.28125 12.203125 53.3125 
Q 15.828125 64.359375 23.1875 75.875 
z
" id="DejaVuSans-40"/>
      <path d="M 34.28125 27.484375 
Q 23.390625 27.484375 19.1875 25 
Q 14.984375 22.515625 14.984375 16.5 
Q 14.984375 11.71875 18.140625 8.90625 
Q 21.296875 6.109375 26.703125 6.109375 
Q 34.1875 6.109375 38.703125 11.40625 
Q 43.21875 16.703125 43.21875 25.484375 
L 43.21875 27.484375 
z
M 52.203125 31.203125 
L 52.203125 0 
L 43.21875 0 
L 43.21875 8.296875 
Q 40.140625 3.328125 35.546875 0.953125 
Q 30.953125 -1.421875 24.3125 -1.421875 
Q 15.921875 -1.421875 10.953125 3.296875 
Q 6 8.015625 6 15.921875 
Q 6 25.140625 12.171875 29.828125 
Q 18.359375 34.515625 30.609375 34.515625 
L 43.21875 34.515625 
L 43.21875 35.40625 
Q 43.21875 41.609375 39.140625 45 
Q 35.0625 48.390625 27.6875 48.390625 
Q 23 48.390625 18.546875 47.265625 
Q 14.109375 46.140625 10.015625 43.890625 
L 10.015625 52.203125 
Q 14.9375 54.109375 19.578125 55.046875 
Q 24.21875 56 28.609375 56 
Q 40.484375 56 46.34375 49.84375 
Q 52.203125 43.703125 52.203125 31.203125 
z
" id="DejaVuSans-97"/>
      <path d="M 45.40625 46.390625 
L 45.40625 75.984375 
L 54.390625 75.984375 
L 54.390625 0 
L 45.40625 0 
L 45.40625 8.203125 
Q 42.578125 3.328125 38.25 0.953125 
Q 33.9375 -1.421875 27.875 -1.421875 
Q 17.96875 -1.421875 11.734375 6.484375 
Q 5.515625 14.40625 5.515625 27.296875 
Q 5.515625 40.1875 11.734375 48.09375 
Q 17.96875 56 27.875 56 
Q 33.9375 56 38.25 53.625 
Q 42.578125 51.265625 45.40625 46.390625 
z
M 14.796875 27.296875 
Q 14.796875 17.390625 18.875 11.75 
Q 22.953125 6.109375 30.078125 6.109375 
Q 37.203125 6.109375 41.296875 11.75 
Q 45.40625 17.390625 45.40625 27.296875 
Q 45.40625 37.203125 41.296875 42.84375 
Q 37.203125 48.484375 30.078125 48.484375 
Q 22.953125 48.484375 18.875 42.84375 
Q 14.796875 37.203125 14.796875 27.296875 
z
" id="DejaVuSans-100"/>
      <path d="M 25.390625 72.90625 
L 33.6875 72.90625 
L 8.296875 -9.28125 
L 0 -9.28125 
z
" id="DejaVuSans-47"/>
      <path d="M 9.078125 75.984375 
L 18.109375 75.984375 
L 18.109375 31.109375 
L 44.921875 54.6875 
L 56.390625 54.6875 
L 27.390625 29.109375 
L 57.625 0 
L 45.90625 0 
L 18.109375 26.703125 
L 18.109375 0 
L 9.078125 0 
z
" id="DejaVuSans-107"/>
      <path d="M 48.6875 27.296875 
Q 48.6875 37.203125 44.609375 42.84375 
Q 40.53125 48.484375 33.40625 48.484375 
Q 26.265625 48.484375 22.1875 42.84375 
Q 18.109375 37.203125 18.109375 27.296875 
Q 18.109375 17.390625 22.1875 11.75 
Q 26.265625 6.109375 33.40625 6.109375 
Q 40.53125 6.109375 44.609375 11.75 
Q 48.6875 17.390625 48.6875 27.296875 
z
M 18.109375 46.390625 
Q 20.953125 51.265625 25.265625 53.625 
Q 29.59375 56 35.59375 56 
Q 45.5625 56 51.78125 48.09375 
Q 58.015625 40.1875 58.015625 27.296875 
Q 58.015625 14.40625 51.78125 6.484375 
Q 45.5625 -1.421875 35.59375 -1.421875 
Q 29.59375 -1.421875 25.265625 0.953125 
Q 20.953125 3.328125 18.109375 8.203125 
L 18.109375 0 
L 9.078125 0 
L 9.078125 75.984375 
L 18.109375 75.984375 
z
" id="DejaVuSans-98"/>
      <path d="M 8.015625 75.875 
L 15.828125 75.875 
Q 23.140625 64.359375 26.78125 53.3125 
Q 30.421875 42.28125 30.421875 31.390625 
Q 30.421875 20.453125 26.78125 9.375 
Q 23.140625 -1.703125 15.828125 -13.1875 
L 8.015625 -13.1875 
Q 14.5 -2 17.703125 9.0625 
Q 20.90625 20.125 20.90625 31.390625 
Q 20.90625 42.671875 17.703125 53.65625 
Q 14.5 64.65625 8.015625 75.875 
z
" id="DejaVuSans-41"/>
     </defs>
     <g transform="translate(459.294531 379.564837)scale(0.1 -0.1)">
      <use xlink:href="#DejaVuSans-101"/>
      <use x="61.507812" xlink:href="#DejaVuSans-120"/>
      <use x="120.6875" xlink:href="#DejaVuSans-112"/>
      <use x="184.164062" xlink:href="#DejaVuSans-114"/>
      <use x="225.246094" xlink:href="#DejaVuSans-101"/>
      <use x="286.769531" xlink:href="#DejaVuSans-115"/>
      <use x="338.869141" xlink:href="#DejaVuSans-115"/>
      <use x="390.96875" xlink:href="#DejaVuSans-105"/>
      <use x="418.751953" xlink:href="#DejaVuSans-111"/>
      <use x="479.933594" xlink:href="#DejaVuSans-110"/>
      <use x="543.3125" xlink:href="#DejaVuSans-32"/>
      <use x="575.099609" xlink:href="#DejaVuSans-40"/>
      <use x="614.113281" xlink:href="#DejaVuSans-114"/>
      <use x="655.195312" xlink:href="#DejaVuSans-101"/>
      <use x="716.71875" xlink:href="#DejaVuSans-97"/>
      <use x="777.998047" xlink:href="#DejaVuSans-100"/>
      <use x="841.474609" xlink:href="#DejaVuSans-115"/>
      <use x="893.574219" xlink:href="#DejaVuSans-47"/>
      <use x="927.265625" xlink:href="#DejaVuSans-107"/>
      <use x="985.175781" xlink:href="#DejaVuSans-98"/>
      <use x="1048.652344" xlink:href="#DejaVuSans-112"/>
      <use x="1112.128906" xlink:href="#DejaVuSans-41"/>
     </g>
    </g>
   </g>
   <g id="matplotlib.axis_2">
    <g id="ytick_1">
     <g id="line2d_1">
      <path clip-path="url(#pe0cd098297)" d="M 43.148125 353.2239 
L 990.558125 353.2239 
" style="fill:none;stroke:#dedede;stroke-linecap:square;"/>
     </g>
     <g id="text_11">
      <!-- 0 -->
      <g transform="translate(31.058125 356.263275)scale(0.08 -0.08)">
       <use xlink:href="#DejaVuSans-48"/>
      </g>
     </g>
    </g>
    <g id="ytick_2">
     <g id="line2d_2">
      <path clip-path="url(#pe0cd098297)" d="M 43.148125 289.6303 
L 990.558125 289.6303 
" style="fill:none;stroke:#dedede;stroke-linecap:square;"/>
     </g>
     <g id="text_12">
      <!-- 20 -->
      <g transform="translate(25.968125 292.669675)scale(0.08 -0.08)">
       <use xlink:href="#DejaVuSans-50"/>
       <use x="63.623047" xlink:href="#DejaVuSans-48"/>
      </g>
     </g>
    </g>
    <g id="ytick_3">
     <g id="line2d_3">
      <path clip-path="url(#pe0cd098297)" d="M 43.148125 226.0367 
L 990.558125 226.0367 
" style="fill:none;stroke:#dedede;stroke-linecap:square;"/>
     </g>
     <g id="text_13">
      <!-- 40 -->
      <g transform="translate(25.968125 229.076075)scale(0.08 -0.08)">
       <use xlink:href="#DejaVuSans-52"/>
       <use x="63.623047" xlink:href="#DejaVuSans-48"/>
      </g>
     </g>
    </g>
    <g id="ytick_4">
     <g id="line2d_4">
      <path clip-path="url(#pe0cd098297)" d="M 43.148125 162.4431 
L 990.558125 162.4431 
" style="fill:none;stroke:#dedede;stroke-linecap:square;"/>
     </g>
     <g id="text_14">
      <!-- 60 -->
      <g transform="translate(25.968125 165.482475)scale(0.08 -0.08)">
       <use xlink:href="#DejaVuSans-54"/>
       <use x="63.623047" xlink:href="#DejaVuSans-48"/>
      </g>
     </g>
    </g>
    <g id="ytick_5">
     <g id="line2d_5">
      <path clip-path="url(#pe0cd098297)" d="M 43.148125 98.8495 
L 990.558125 98.8495 
" style="fill:none;stroke:#dedede;stroke-linecap:square;"/>
     </g>
     <g id="text_15">
      <!-- 80 -->
      <g transform="translate(25.968125 101.888875)scale(0.08 -0.08)">
       <use xlink:href="#DejaVuSans-56"/>
       <use x="63.623047" xlink:href="#DejaVuSans-48"/>
      </g>
     </g>
    </g>
    <g id="ytick_6">
     <g id="line2d_6">
      <path clip-path="url(#pe0cd098297)" d="M 43.148125 35.2559 
L 990.558125 35.2559 
" style="fill:none;stroke:#dedede;stroke-linecap:square;"/>
     </g>
     <g id="text_16">
      <!-- 100 -->
      <g transform="translate(20.878125 38.295275)scale(0.08 -0.08)">
       <use xlink:href="#DejaVuSans-49"/>
       <use x="63.623047" xlink:href="#DejaVuSans-48"/>
       <use x="127.246094" xlink:href="#DejaVuSans-48"/>
      </g>
     </g>
    </g>
    <g id="text_17">
     <!-- % duplicate reads -->
     <defs>
      <path d="M 72.703125 32.078125 
Q 68.453125 32.078125 66.03125 28.46875 
Q 63.625 24.859375 63.625 18.40625 
Q 63.625 12.0625 66.03125 8.421875 
Q 68.453125 4.78125 72.703125 4.78125 
Q 76.859375 4.78125 79.265625 8.421875 
Q 81.6875 12.0625 81.6875 18.40625 
Q 81.6875 24.8125 79.265625 28.4375 
Q 76.859375 32.078125 72.703125 32.078125 
z
M 72.703125 38.28125 
Q 80.421875 38.28125 84.953125 32.90625 
Q 89.5 27.546875 89.5 18.40625 
Q 89.5 9.28125 84.9375 3.921875 
Q 80.375 -1.421875 72.703125 -1.421875 
Q 64.890625 -1.421875 60.34375 3.921875 
Q 55.8125 9.28125 55.8125 18.40625 
Q 55.8125 27.59375 60.375 32.9375 
Q 64.9375 38.28125 72.703125 38.28125 
z
M 22.3125 68.015625 
Q 18.109375 68.015625 15.6875 64.375 
Q 13.28125 60.75 13.28125 54.390625 
Q 13.28125 47.953125 15.671875 44.328125 
Q 18.0625 40.71875 22.3125 40.71875 
Q 26.5625 40.71875 28.96875 44.328125 
Q 31.390625 47.953125 31.390625 54.390625 
Q 31.390625 60.6875 28.953125 64.34375 
Q 26.515625 68.015625 22.3125 68.015625 
z
M 66.40625 74.21875 
L 74.21875 74.21875 
L 28.609375 -1.421875 
L 20.796875 -1.421875 
z
M 22.3125 74.21875 
Q 30.03125 74.21875 34.609375 68.875 
Q 39.203125 63.53125 39.203125 54.390625 
Q 39.203125 45.171875 34.640625 39.84375 
Q 30.078125 34.515625 22.3125 34.515625 
Q 14.546875 34.515625 10.03125 39.859375 
Q 5.515625 45.21875 5.515625 54.390625 
Q 5.515625 63.484375 10.046875 68.84375 
Q 14.59375 74.21875 22.3125 74.21875 
z
" id="DejaVuSans-37"/>
      <path d="M 8.5 21.578125 
L 8.5 54.6875 
L 17.484375 54.6875 
L 17.484375 21.921875 
Q 17.484375 14.15625 20.5 10.265625 
Q 23.53125 6.390625 29.59375 6.390625 
Q 36.859375 6.390625 41.078125 11.03125 
Q 45.3125 15.671875 45.3125 23.6875 
L 45.3125 54.6875 
L 54.296875 54.6875 
L 54.296875 0 
L 45.3125 0 
L 45.3125 8.40625 
Q 42.046875 3.421875 37.71875 1 
Q 33.40625 -1.421875 27.6875 -1.421875 
Q 18.265625 -1.421875 13.375 4.4375 
Q 8.5 10.296875 8.5 21.578125 
z
M 31.109375 56 
z
" id="DejaVuSans-117"/>
      <path d="M 9.421875 75.984375 
L 18.40625 75.984375 
L 18.40625 0 
L 9.421875 0 
z
" id="DejaVuSans-108"/>
      <path d="M 48.78125 52.59375 
L 48.78125 44.1875 
Q 44.96875 46.296875 41.140625 47.34375 
Q 37.3125 48.390625 33.40625 48.390625 
Q 24.65625 48.390625 19.8125 42.84375 
Q 14.984375 37.3125 14.984375 27.296875 
Q 14.984375 17.28125 19.8125 11.734375 
Q 24.65625 6.203125 33.40625 6.203125 
Q 37.3125 6.203125 41.140625 7.25 
Q 44.96875 8.296875 48.78125 10.40625 
L 48.78125 2.09375 
Q 45.015625 0.34375 40.984375 -0.53125 
Q 36.96875 -1.421875 32.421875 -1.421875 
Q 20.0625 -1.421875 12.78125 6.34375 
Q 5.515625 14.109375 5.515625 27.296875 
Q 5.515625 40.671875 12.859375 48.328125 
Q 20.21875 56 33.015625 56 
Q 37.15625 56 41.109375 55.140625 
Q 45.0625 54.296875 48.78125 52.59375 
z
" id="DejaVuSans-99"/>
      <path d="M 18.3125 70.21875 
L 18.3125 54.6875 
L 36.8125 54.6875 
L 36.8125 47.703125 
L 18.3125 47.703125 
L 18.3125 18.015625 
Q 18.3125 11.328125 20.140625 9.421875 
Q 21.96875 7.515625 27.59375 7.515625 
L 36.8125 7.515625 
L 36.8125 0 
L 27.59375 0 
Q 17.1875 0 13.234375 3.875 
Q 9.28125 7.765625 9.28125 18.015625 
L 9.28125 47.703125 
L 2.6875 47.703125 
L 2.6875 54.6875 
L 9.28125 54.6875 
L 9.28125 70.21875 
z
" id="DejaVuSans-116"/>
     </defs>
     <g transform="translate(14.798438 239.287556)rotate(-90)scale(0.1 -0.1)">
      <use xlink:href="#DejaVuSans-37"/>
      <use x="95.019531" xlink:href="#DejaVuSans-32"/>
      <use x="126.806641" xlink:href="#DejaVuSans-100"/>
      <use x="190.283203" xlink:href="#DejaVuSans-117"/>
      <use x="253.662109" xlink:href="#DejaVuSans-112"/>
      <use x="317.138672" xlink:href="#DejaVuSans-108"/>
      <use x="344.921875" xlink:href="#DejaVuSans-105"/>
      <use x="372.705078" xlink:href="#DejaVuSans-99"/>
      <use x="427.685547" xlink:href="#DejaVuSans-97"/>
      <use x="488.964844" xlink:href="#DejaVuSans-116"/>
      <use x="528.173828" xlink:href="#DejaVuSans-101"/>
      <use x="589.697266" xlink:href="#DejaVuSans-32"/>
      <use x="621.484375" xlink:href="#DejaVuSans-114"/>
      <use x="662.566406" xlink:href="#DejaVuSans-101"/>
      <use x="724.089844" xlink:href="#DejaVuSans-97"/>
      <use x="785.369141" xlink:href="#DejaVuSans-100"/>
      <use x="848.845703" xlink:href="#DejaVuSans-115"/>
     </g>
    </g>
   </g>
   <g id="line2d_7">
    <path clip-path="url(#pe0cd098297)" d="M 86.212243 253.962715 
L 86.324357 180.747687 
L 86.561307 168.723646 
L 86.91333 161.475064 
L 87.376803 156.286111 
L 87.948763 152.259442 
L 88.60817 149.056608 
L 89.413732 146.206207 
L 90.372975 143.657759 
L 91.413914 141.508978 
L 92.558146 139.613589 
L 93.634947 138.131756 
L 95.089867 136.453025 
L 97.123495 134.536798 
L 99.188577 132.941915 
L 101.435993 131.484906 
L 103.303898 130.43694 
L 107.527397 128.455619 
L 112.672882 126.539057 
L 116.003523 125.498318 
L 120.563927 124.257492 
L 126.772696 122.823395 
L 139.12128 120.559277 
L 168.196416 116.910362 
L 265.040527 110.670185 
L 265.040527 110.670185 
" style="fill:none;stroke:#7cb5ec;stroke-linecap:square;"/>
   </g>
   <g id="line2d_8">
    <path clip-path="url(#pe0cd098297)" d="M 86.212243 252.74959 
L 86.324309 181.775193 
L 86.562005 170.088754 
L 86.914196 163.055265 
L 87.38189 157.97731 
L 87.961772 154.026504 
L 88.665471 150.749613 
L 89.478192 148.006632 
L 90.37846 145.696195 
L 91.351941 143.721358 
L 92.630518 141.65079 
L 93.988426 139.878006 
L 95.138659 138.613081 
L 97.149045 136.765138 
L 98.924801 135.407686 
L 101.499185 133.757386 
L 103.652427 132.58732 
L 106.978037 131.049687 
L 110.487509 129.685763 
L 113.337993 128.722849 
L 116.912746 127.655969 
L 125.432303 125.566663 
L 134.27979 123.853153 
L 163.494947 119.931757 
L 264.847582 113.288119 
L 264.847582 113.288119 
" style="fill:none;stroke:#434348;stroke-linecap:square;"/>
   </g>
   <g id="line2d_9">
    <path clip-path="url(#pe0cd098297)" d="M 86.212276 291.728524 
L 86.324621 239.048311 
L 86.566964 228.339111 
L 86.928769 221.615483 
L 87.41138 216.624257 
L 88.005678 212.690339 
L 88.708898 209.439727 
L 89.547943 206.582147 
L 90.528552 204.033466 
L 91.685186 201.681036 
L 92.845203 199.773834 
L 94.412471 197.667599 
L 95.731692 196.185542 
L 97.459217 194.528364 
L 99.510262 192.863631 
L 101.507693 191.473152 
L 105.257613 189.295378 
L 108.01312 187.954178 
L 111.207472 186.597922 
L 116.74729 184.614324 
L 131.180016 180.788058 
L 164.990313 175.274419 
L 164.990313 175.274419 
" style="fill:none;stroke:#90ed7d;stroke-linecap:square;"/>
   </g>
   <g id="line2d_10">
    <path clip-path="url(#pe0cd098297)" d="M 86.212256 274.086283 
L 86.324599 209.478202 
L 86.564848 197.614785 
L 86.923619 190.305042 
L 87.39868 184.985963 
L 87.982911 180.835963 
L 88.660347 177.491364 
L 89.417318 174.721011 
L 90.344122 172.12019 
L 91.423834 169.753506 
L 92.691847 167.543435 
L 94.032598 165.643277 
L 95.941658 163.447027 
L 97.255887 162.178558 
L 99.440195 160.379071 
L 102.231963 158.479688 
L 104.474788 157.186106 
L 109.308877 154.880785 
L 112.672712 153.553986 
L 125.360443 149.76593 
L 147.205294 145.543227 
L 470.717293 128.857547 
L 470.717293 128.857547 
" style="fill:none;stroke:#f7a35c;stroke-linecap:square;"/>
   </g>
   <g id="line2d_11">
    <path clip-path="url(#pe0cd098297)" d="M 86.212238 220.179184 
L 86.324046 122.683031 
L 86.553467 110.426855 
L 86.891764 103.475452 
L 87.332218 98.732648 
L 87.865454 95.210994 
L 88.503696 92.375693 
L 89.26774 89.96433 
L 90.115729 87.975982 
L 91.128392 86.156822 
L 92.316721 84.495866 
L 93.895756 82.779686 
L 95.433536 81.454015 
L 96.682495 80.549248 
L 99.647567 78.816155 
L 102.585324 77.481648 
L 105.927498 76.259796 
L 110.990566 74.797734 
L 129.775664 71.379206 
L 173.254355 67.540058 
L 173.254355 67.540058 
" style="fill:none;stroke:#8085e9;stroke-linecap:square;"/>
   </g>
   <g id="line2d_12">
    <path clip-path="url(#pe0cd098297)" d="M 86.212256 283.80201 
L 86.324437 223.21499 
L 86.565986 211.583266 
L 86.923606 204.403138 
L 87.395418 199.145615 
L 87.98536 194.956847 
L 88.653428 191.645007 
L 89.520531 188.498794 
L 90.452462 185.932998 
L 91.520395 183.614409 
L 92.663468 181.605008 
L 94.246754 179.348566 
L 95.586675 177.766376 
L 97.96457 175.453432 
L 100.607939 173.384535 
L 102.592576 172.071161 
L 106.153421 170.076798 
L 108.351277 169.019844 
L 110.973453 167.890811 
L 115.296956 166.272364 
L 123.503113 163.784771 
L 141.967658 159.791985 
L 248.090897 149.441409 
L 248.090897 149.441409 
" style="fill:none;stroke:#f15c80;stroke-linecap:square;"/>
   </g>
   <g id="line2d_13">
    <path clip-path="url(#pe0cd098297)" d="M 86.212224 289.621723 
L 86.324211 228.858271 
L 86.56545 217.496721 
L 86.926849 210.395256 
L 87.404574 205.192867 
L 88.000068 201.058756 
L 88.704477 197.661501 
L 89.550475 194.669766 
L 90.499788 192.107505 
L 91.624519 189.723495 
L 92.962988 187.463857 
L 93.963217 186.05239 
L 95.496619 184.210276 
L 97.380818 182.327522 
L 99.278718 180.73091 
L 101.972897 178.827422 
L 104.84382 177.132025 
L 108.839095 175.168657 
L 110.722113 174.362481 
L 114.758228 172.828036 
L 123.127153 170.249432 
L 136.61619 167.143007 
L 165.98235 162.603408 
L 218.295482 157.678249 
L 337.908796 151.48828 
L 337.908796 151.48828 
" style="fill:none;stroke:#e4d354;stroke-linecap:square;"/>
   </g>
   <g id="line2d_14">
    <path clip-path="url(#pe0cd098297)" d="M 86.212266 293.396476 
L 86.324408 238.47615 
L 86.56722 227.323985 
L 86.931562 220.304594 
L 87.411824 215.153401 
L 88.007589 211.059528 
L 88.702076 207.722399 
L 89.565847 204.672669 
L 90.563515 201.999352 
L 91.601874 199.799201 
L 92.895189 197.585855 
L 94.102518 195.87592 
L 95.509822 194.185675 
L 97.161127 192.502025 
L 99.376351 190.604927 
L 101.418426 189.120859 
L 104.046065 187.481551 
L 107.225025 185.796031 
L 111.647224 183.835903 
L 113.87894 182.973736 
L 118.358341 181.437107 
L 127.010762 179.001414 
L 136.244378 176.922257 
L 147.388565 174.878753 
L 160.172202 172.956319 
L 442.176837 157.330164 
L 442.176837 157.330164 
" style="fill:none;stroke:#2b908f;stroke-linecap:square;"/>
   </g>
   <g id="line2d_15">
    <path clip-path="url(#pe0cd098297)" d="M 86.212256 260.077496 
L 86.324303 189.195088 
L 86.562736 176.961658 
L 86.917116 169.555623 
L 87.38415 164.232647 
L 87.960691 160.091083 
L 88.655335 156.664736 
L 89.486586 153.695204 
L 90.40571 151.209702 
L 91.450296 148.994393 
L 92.47738 147.224789 
L 93.899876 145.218085 
L 95.739454 143.132411 
L 96.745639 142.163007 
L 98.868852 140.401186 
L 100.307274 139.375272 
L 102.744116 137.864932 
L 106.190975 136.086328 
L 109.525388 134.649007 
L 112.00439 133.714068 
L 119.129137 131.477519 
L 124.403844 130.128883 
L 135.731281 127.798359 
L 170.503008 123.132864 
L 280.769276 116.097735 
L 280.769276 116.097735 
" style="fill:none;stroke:#f45b5b;stroke-linecap:square;"/>
   </g>
   <g id="line2d_16">
    <path clip-path="url(#pe0cd098297)" d="M 86.212256 273.48085 
L 86.324272 207.600145 
L 86.563803 195.538431 
L 86.921815 188.112935 
L 87.390474 182.76535 
L 87.974185 178.539654 
L 88.658666 175.109221 
L 89.424419 172.27642 
L 90.362682 169.623505 
L 91.404297 167.316864 
L 92.625994 165.150648 
L 94.152851 162.972856 
L 95.997642 160.85416 
L 97.802209 159.146637 
L 99.219801 157.987306 
L 101.863145 156.137137 
L 104.224758 154.738859 
L 107.307406 153.174825 
L 111.665556 151.326551 
L 116.508864 149.623337 
L 126.765549 146.797177 
L 145.023184 143.241736 
L 194.676284 137.51035 
L 517.339921 125.207066 
L 517.339921 125.207066 
" style="fill:none;stroke:#91e8e1;stroke-linecap:square;"/>
   </g>
   <g id="line2d_17">
    <path clip-path="url(#pe0cd098297)" d="M 86.212238 289.671464 
L 86.324421 227.357486 
L 86.566518 215.391511 
L 86.92884 207.927431 
L 87.407023 202.470077 
L 87.987274 198.229885 
L 88.709712 194.567491 
L 89.51799 191.559698 
L 90.418524 188.976729 
L 91.570057 186.385173 
L 92.756902 184.245276 
L 94.202585 182.114433 
L 95.669045 180.318821 
L 97.608254 178.33527 
L 98.946132 177.157188 
L 101.704973 175.080638 
L 103.397271 173.985526 
L 106.860524 172.050949 
L 111.035397 170.117272 
L 116.165993 168.151899 
L 121.64958 166.400198 
L 127.649793 164.776534 
L 136.76691 162.72147 
L 148.842341 160.520278 
L 176.849949 156.753812 
L 210.453668 153.574999 
L 210.453668 153.574999 
" style="fill:none;stroke:#7cb5ec;stroke-linecap:square;"/>
   </g>
   <g id="line2d_18">
    <path clip-path="url(#pe0cd098297)" d="M 86.212238 289.09496 
L 86.324423 228.412852 
L 86.566364 216.796372 
L 86.92884 209.538772 
L 87.405604 204.244796 
L 87.999345 200.036508 
L 88.715818 196.516717 
L 89.535984 193.55624 
L 90.528909 190.825735 
L 91.622528 188.468385 
L 92.938962 186.197274 
L 94.329982 184.239752 
L 96.215849 182.067845 
L 97.732519 180.602679 
L 100.127218 178.64617 
L 103.216829 176.57408 
L 106.7 174.653865 
L 109.583572 173.300377 
L 113.511011 171.707789 
L 117.66376 170.259932 
L 127.090348 167.590472 
L 134.510321 165.899878 
L 148.323894 163.362929 
L 171.489031 160.18938 
L 203.971073 156.987058 
L 525.062754 144.285773 
L 525.062754 144.285773 
" style="fill:none;stroke:#434348;stroke-linecap:square;"/>
   </g>
   <g id="line2d_19">
    <path clip-path="url(#pe0cd098297)" d="M 86.212254 217.565676 
L 86.324293 130.169235 
L 86.556464 118.336399 
L 86.898868 111.546487 
L 87.347099 106.849774 
L 87.902683 103.273367 
L 88.571836 100.381463 
L 89.333694 98.026324 
L 90.235714 95.94575 
L 91.184155 94.251559 
L 92.23059 92.754219 
L 93.689127 91.089219 
L 95.193901 89.71206 
L 96.702023 88.567502 
L 98.410796 87.473157 
L 100.260756 86.465682 
L 103.656452 84.951568 
L 107.619666 83.553456 
L 113.288975 81.989024 
L 118.547487 80.835173 
L 124.647467 79.73455 
L 135.011355 78.250792 
L 145.69758 77.051985 
L 168.302135 75.162743 
L 189.476572 73.861722 
L 221.731084 72.368099 
L 565.642102 66.068767 
L 565.642102 66.068767 
" style="fill:none;stroke:#90ed7d;stroke-linecap:square;"/>
   </g>
   <g id="line2d_20">
    <path clip-path="url(#pe0cd098297)" d="M 86.212272 276.914999 
L 86.324553 210.017386 
L 86.564228 197.385223 
L 86.921904 189.598793 
L 87.392862 183.957848 
L 87.971062 179.557612 
L 88.671086 175.876087 
L 89.495162 172.715854 
L 90.410019 170.041613 
L 91.457247 167.630665 
L 92.700886 165.339035 
L 93.980719 163.409805 
L 95.625404 161.362178 
L 97.444989 159.487797 
L 99.422305 157.776906 
L 101.388873 156.319607 
L 102.970405 155.282766 
L 105.159611 154.003428 
L 108.776024 152.192876 
L 112.346241 150.679363 
L 117.190727 148.937787 
L 121.486042 147.615885 
L 127.920008 145.920578 
L 148.295513 141.944333 
L 180.431059 137.85207 
L 180.431059 137.85207 
" style="fill:none;stroke:#f7a35c;stroke-linecap:square;"/>
   </g>
   <g id="line2d_21">
    <path clip-path="url(#pe0cd098297)" d="M 86.212216 284.896287 
L 86.324082 215.930031 
L 86.564912 203.520695 
L 86.924723 195.853622 
L 87.401089 190.264303 
L 87.995651 185.843132 
L 88.712721 182.16835 
L 89.563827 178.993211 
L 90.552936 176.200435 
L 91.648972 173.778058 
L 92.910784 171.541035 
L 94.64759 169.08069 
L 96.179773 167.307112 
L 98.060715 165.477405 
L 100.342881 163.621047 
L 102.348424 162.228035 
L 104.437009 160.954973 
L 108.775169 158.732502 
L 111.801419 157.429232 
L 117.807544 155.257781 
L 131.90149 151.496303 
L 165.311747 145.994632 
L 165.311747 145.994632 
" style="fill:none;stroke:#8085e9;stroke-linecap:square;"/>
   </g>
   <g id="line2d_22">
    <path clip-path="url(#pe0cd098297)" d="M 86.212243 280.398817 
L 86.324405 210.53204 
L 86.564374 197.671138 
L 86.921616 189.762343 
L 87.394373 184.006749 
L 87.980062 179.489274 
L 88.674473 175.787574 
L 89.479764 172.641923 
L 90.367528 169.983353 
L 91.402548 167.535463 
L 92.535069 165.373953 
L 93.870845 163.285475 
L 95.462288 161.239 
L 97.472713 159.119297 
L 99.780828 157.121684 
L 102.288978 155.315197 
L 104.801768 153.776914 
L 107.630144 152.284482 
L 111.225188 150.658479 
L 116.587348 148.636971 
L 123.368545 146.556547 
L 138.168429 143.13491 
L 332.13287 127.986971 
L 332.13287 127.986971 
" style="fill:none;stroke:#f15c80;stroke-linecap:square;"/>
   </g>
   <g id="line2d_23">
    <path clip-path="url(#pe0cd098297)" d="M 86.212243 295.033004 
L 86.324187 235.509409 
L 86.565882 223.698349 
L 86.927463 216.284559 
L 87.406105 210.82675 
L 88.007869 206.449616 
L 88.672994 203.057119 
L 89.525453 199.847273 
L 90.469466 197.138242 
L 91.486814 194.821347 
L 92.906227 192.244352 
L 94.207864 190.323554 
L 95.628728 188.556356 
L 97.375019 186.719831 
L 99.201529 185.085585 
L 102.755956 182.481234 
L 105.731349 180.704053 
L 108.888744 179.095841 
L 113.819834 176.990155 
L 137.723911 170.359098 
L 137.723911 170.359098 
" style="fill:none;stroke:#e4d354;stroke-linecap:square;"/>
   </g>
   <g id="line2d_24">
    <path clip-path="url(#pe0cd098297)" d="M 86.212224 224.996871 
L 86.324118 117.03523 
L 86.5533 104.3334 
L 86.889357 97.25664 
L 87.327251 92.463657 
L 87.868175 88.872377 
L 88.51185 86.029049 
L 89.280928 83.632756 
L 90.153378 81.630334 
L 91.242735 79.743974 
L 92.530446 78.040728 
L 93.893219 76.625258 
L 95.459414 75.317467 
L 97.421222 73.999088 
L 99.907761 72.666077 
L 103.47387 71.176035 
L 105.393981 70.514264 
L 111.347633 68.866749 
L 115.977396 67.871188 
L 125.275106 66.325162 
L 138.314207 64.758645 
L 196.060796 61.027087 
L 196.060796 61.027087 
" style="fill:none;stroke:#2b908f;stroke-linecap:square;"/>
   </g>
   <g id="line2d_25">
    <path clip-path="url(#pe0cd098297)" d="M 86.212262 276.048666 
L 86.324418 207.920223 
L 86.563793 195.273506 
L 86.921936 187.476943 
L 87.396716 181.809858 
L 87.977756 177.414852 
L 88.687487 173.714098 
L 89.489821 170.655969 
L 90.357805 168.110571 
L 91.361467 165.773669 
L 92.446511 163.723072 
L 93.514731 162.034916 
L 95.28634 159.728755 
L 96.684727 158.215246 
L 98.651439 156.406963 
L 101.078967 154.544715 
L 103.494733 152.980842 
L 106.609177 151.269752 
L 108.994988 150.133308 
L 111.906992 148.903097 
L 117.480633 146.907893 
L 121.630786 145.64969 
L 128.003446 143.989694 
L 146.386537 140.375075 
L 219.286584 132.723646 
L 219.286584 132.723646 
" style="fill:none;stroke:#f45b5b;stroke-linecap:square;"/>
   </g>
   <g id="line2d_26">
    <path clip-path="url(#pe0cd098297)" d="M 86.212249 230.57631 
L 86.324146 143.96814 
L 86.557167 131.526553 
L 86.900787 124.298311 
L 87.352773 119.235473 
L 87.907522 115.390929 
L 88.58816 112.210215 
L 89.369584 109.598207 
L 90.224475 107.44538 
L 91.302814 105.350664 
L 92.589331 103.408373 
L 93.981206 101.73896 
L 95.734514 100.049892 
L 97.785532 98.460963 
L 98.918076 97.710914 
L 102.566405 95.716747 
L 105.795478 94.32325 
L 110.013896 92.842694 
L 114.410467 91.579858 
L 118.648366 90.553201 
L 127.626951 88.796881 
L 137.06158 87.356431 
L 148.514862 85.961528 
L 208.529725 81.545624 
L 490.342149 74.509363 
L 490.342149 74.509363 
" style="fill:none;stroke:#91e8e1;stroke-linecap:square;"/>
   </g>
   <g id="line2d_27">
    <path clip-path="url(#pe0cd098297)" d="M 86.212252 270.421447 
L 86.32417 201.636604 
L 86.563753 189.295382 
L 86.918528 181.787902 
L 87.388726 176.330681 
L 87.973548 172.044278 
L 88.673981 168.512236 
L 89.509413 165.450762 
L 90.365656 163.047257 
L 91.48509 160.578303 
L 92.762934 158.347853 
L 94.054866 156.508862 
L 95.517828 154.771272 
L 97.026809 153.252832 
L 99.446734 151.225071 
L 100.56172 150.416991 
L 103.733538 148.432447 
L 107.577999 146.476419 
L 111.391255 144.86904 
L 116.80907 142.975938 
L 123.76415 141.003602 
L 131.739555 139.165793 
L 138.523828 137.850528 
L 149.867301 136.00716 
L 192.980274 131.236331 
L 355.696823 123.026321 
L 355.696823 123.026321 
" style="fill:none;stroke:#7cb5ec;stroke-linecap:square;"/>
   </g>
   <g id="line2d_28">
    <path clip-path="url(#pe0cd098297)" d="M 86.212249 260.668408 
L 86.324146 190.802922 
L 86.56208 178.817799 
L 86.917444 171.522807 
L 87.38551 166.28357 
L 87.963166 162.206016 
L 88.649323 158.870766 
L 89.455978 156.01274 
L 90.3569 153.583442 
L 91.400079 151.375946 
L 92.683642 149.219354 
L 94.075695 147.333534 
L 95.476776 145.757565 
L 97.279009 144.060891 
L 99.642862 142.22739 
L 101.712943 140.879612 
L 104.621326 139.274174 
L 106.8183 138.228444 
L 108.612275 137.457691 
L 111.486211 136.348539 
L 116.836232 134.597632 
L 119.256675 133.908556 
L 124.160357 132.661937 
L 131.177626 131.145347 
L 138.887205 129.743055 
L 157.143938 127.138481 
L 169.879702 125.711676 
L 220.760959 121.68225 
L 414.487985 114.428355 
L 414.487985 114.428355 
" style="fill:none;stroke:#434348;stroke-linecap:square;"/>
   </g>
   <g id="line2d_29">
    <path clip-path="url(#pe0cd098297)" d="M 86.212266 263.525697 
L 86.324428 190.775781 
L 86.563157 177.938255 
L 86.918605 170.15495 
L 87.381451 164.617777 
L 87.954751 160.285122 
L 88.655544 156.655116 
L 89.448739 153.667048 
L 90.388543 150.983682 
L 91.469264 148.583891 
L 92.756303 146.321155 
L 93.98132 144.562911 
L 95.301686 142.966277 
L 97.09761 141.14635 
L 99.336743 139.274648 
L 100.83871 138.198312 
L 103.7023 136.43496 
L 107.71019 134.420353 
L 111.120162 132.99628 
L 116.797401 131.029377 
L 120.208401 130.025368 
L 130.65262 127.508816 
L 137.81445 126.12256 
L 151.596642 123.952111 
L 208.740077 118.350298 
L 780.905487 104.105749 
L 780.905487 104.105749 
" style="fill:none;stroke:#90ed7d;stroke-linecap:square;"/>
   </g>
   <g id="line2d_30">
    <path clip-path="url(#pe0cd098297)" d="M 86.212238 304.975273 
L 86.324437 252.900425 
L 86.568919 242.099711 
L 86.936125 235.230763 
L 87.423928 230.124061 
L 88.037233 226.00677 
L 88.756808 222.632035 
L 89.603066 219.695369 
L 90.593539 217.058923 
L 91.698872 214.733834 
L 92.843813 212.768049 
L 94.095697 210.969425 
L 95.842091 208.882738 
L 97.641425 207.092287 
L 99.199514 205.754357 
L 101.879151 203.787659 
L 104.842983 201.968462 
L 108.484703 200.091749 
L 110.765871 199.066056 
L 115.933496 197.055814 
L 122.743887 194.883405 
L 126.113779 193.954203 
L 142.343859 190.360935 
L 184.537681 184.469031 
L 352.575098 174.071073 
L 352.575098 174.071073 
" style="fill:none;stroke:#f7a35c;stroke-linecap:square;"/>
   </g>
   <g id="line2d_31">
    <path clip-path="url(#pe0cd098297)" d="M 86.212252 287.100652 
L 86.324309 222.042065 
L 86.565272 209.472586 
L 86.923625 201.688795 
L 87.403481 195.935968 
L 87.997828 191.415335 
L 88.717048 187.63819 
L 89.537153 184.482939 
L 90.485972 181.692597 
L 91.553431 179.220832 
L 92.681703 177.102033 
L 93.788821 175.360127 
L 95.362969 173.284609 
L 96.901939 171.580896 
L 98.886158 169.720856 
L 101.171047 167.916678 
L 102.409805 167.053124 
L 106.230668 164.762494 
L 110.152072 162.837494 
L 114.398164 161.088792 
L 118.35435 159.688146 
L 123.679155 158.060563 
L 130.999796 156.175669 
L 144.840147 153.353232 
L 157.621198 151.303414 
L 173.060636 149.284005 
L 187.670957 147.690995 
L 233.199567 143.934637 
L 556.083604 132.571793 
L 556.083604 132.571793 
" style="fill:none;stroke:#8085e9;stroke-linecap:square;"/>
   </g>
   <g id="line2d_32">
    <path clip-path="url(#pe0cd098297)" d="M 86.212256 299.796309 
L 86.324378 242.691186 
L 86.567843 230.8377 
L 86.930837 223.382767 
L 87.410989 217.872691 
L 87.999687 213.52937 
L 88.717048 209.837767 
L 89.552014 206.676603 
L 90.4938 203.938915 
L 91.42284 201.770523 
L 92.534203 199.632971 
L 93.797746 197.616613 
L 95.451159 195.433319 
L 97.218625 193.494702 
L 99.130756 191.720882 
L 101.570464 189.805999 
L 105.601346 187.228303 
L 107.782263 186.050507 
L 113.715702 183.368979 
L 120.02624 181.09442 
L 129.089924 178.486191 
L 135.32959 176.997768 
L 148.71589 174.365026 
L 182.824056 169.636945 
L 182.824056 169.636945 
" style="fill:none;stroke:#f15c80;stroke-linecap:square;"/>
   </g>
   <g id="line2d_33">
    <path clip-path="url(#pe0cd098297)" d="M 86.212243 290.848475 
L 86.32425 226.78175 
L 86.56629 214.309903 
L 86.927835 206.545488 
L 87.401247 200.903232 
L 87.989699 196.422617 
L 88.685185 192.739613 
L 89.52451 189.481616 
L 90.485003 186.645925 
L 91.432598 184.418492 
L 92.53557 182.290574 
L 93.853787 180.192687 
L 94.913811 178.756261 
L 96.83017 176.560362 
L 98.689603 174.784996 
L 100.866324 173.020772 
L 102.920022 171.585728 
L 106.39574 169.524543 
L 108.410925 168.489787 
L 111.413653 167.113854 
L 116.317361 165.192645 
L 125.687757 162.281431 
L 133.255947 160.408835 
L 146.186873 157.832385 
L 156.482804 156.16223 
L 175.920975 153.605246 
L 298.209393 144.786067 
L 298.209393 144.786067 
" style="fill:none;stroke:#e4d354;stroke-linecap:square;"/>
   </g>
   <g id="line2d_34">
    <path clip-path="url(#pe0cd098297)" d="M 86.212262 316.123522 
L 86.324645 267.957101 
L 86.571446 256.848937 
L 86.941861 249.685337 
L 87.426291 244.371762 
L 88.039211 240.014082 
L 88.778982 236.330639 
L 89.655361 233.108317 
L 90.610536 230.396092 
L 91.737097 227.849786 
L 93.011677 225.516066 
L 94.518505 223.2523 
L 96.155591 221.207373 
L 97.509057 219.751063 
L 100.183244 217.316864 
L 102.704488 215.408286 
L 104.490272 214.22241 
L 107.674361 212.365574 
L 111.496077 210.465565 
L 113.766712 209.466556 
L 120.740926 206.840013 
L 128.789193 204.394681 
L 139.166014 201.84405 
L 148.096603 200.019008 
L 159.258711 198.07543 
L 192.980156 193.623426 
L 192.980156 193.623426 
" style="fill:none;stroke:#2b908f;stroke-linecap:square;"/>
   </g>
   <g id="line2d_35">
    <path clip-path="url(#pe0cd098297)" d="M 86.212243 289.160833 
L 86.3243 221.778385 
L 86.565877 208.794943 
L 86.924318 200.776506 
L 87.393647 194.952794 
L 87.98923 190.254768 
L 88.690231 186.432495 
L 89.528097 183.091708 
L 90.469951 180.231817 
L 91.564185 177.623346 
L 92.651277 175.521004 
L 94.14296 173.160066 
L 95.628224 171.222002 
L 98.050824 168.648065 
L 99.975326 166.962101 
L 102.011915 165.422986 
L 105.763091 163.058076 
L 108.685475 161.519243 
L 114.91956 158.830396 
L 120.243941 156.974175 
L 131.056966 153.986898 
L 143.41617 151.376359 
L 148.898547 150.40116 
L 167.738372 147.62109 
L 212.710956 143.043065 
L 212.710956 143.043065 
" style="fill:none;stroke:#f45b5b;stroke-linecap:square;"/>
   </g>
   <g id="line2d_36">
    <path clip-path="url(#pe0cd098297)" d="M 86.212243 282.887044 
L 86.324249 212.656779 
L 86.564875 199.556917 
L 86.922714 191.505889 
L 87.394352 185.660297 
L 87.985763 181.018262 
L 88.698456 177.169711 
L 89.514237 173.952055 
L 90.437726 171.169288 
L 91.46001 168.736135 
L 92.57274 166.586778 
L 94.190885 164.066775 
L 95.4115 162.492002 
L 97.217317 160.518483 
L 99.757603 158.245231 
L 101.041576 157.258741 
L 104.913866 154.745427 
L 107.468123 153.367396 
L 112.901711 150.93343 
L 117.9284 149.102808 
L 125.413766 146.872643 
L 149.084819 141.974699 
L 447.000337 124.857832 
L 447.000337 124.857832 
" style="fill:none;stroke:#91e8e1;stroke-linecap:square;"/>
   </g>
   <g id="line2d_37">
    <path clip-path="url(#pe0cd098297)" d="M 86.212243 277.246408 
L 86.32433 209.068731 
L 86.563574 196.680961 
L 86.919743 189.064006 
L 87.394586 183.488962 
L 87.969076 179.206771 
L 88.67435 175.574236 
L 89.488572 172.514381 
L 90.454543 169.761125 
L 91.549968 167.32606 
L 92.899589 164.948887 
L 94.286623 162.971556 
L 96.05913 160.900347 
L 98.014056 159.020583 
L 99.74314 157.608219 
L 100.872759 156.78274 
L 102.835151 155.493741 
L 106.943907 153.240504 
L 111.676269 151.158813 
L 115.250859 149.837072 
L 120.606469 148.143747 
L 128.352662 146.126717 
L 163.099436 140.256516 
L 947.494034 118.413091 
L 947.494034 118.413091 
" style="fill:none;stroke:#7cb5ec;stroke-linecap:square;"/>
   </g>
   <g id="line2d_38">
    <path clip-path="url(#pe0cd098297)" d="M 86.212224 313.738304 
L 86.324268 265.131152 
L 86.569992 254.757369 
L 86.938526 248.109732 
L 87.422854 243.174894 
L 88.029559 239.174821 
L 88.770487 235.758699 
L 89.617494 232.869496 
L 90.595591 230.295925 
L 91.699329 227.989902 
L 92.998444 225.794219 
L 94.233773 224.057256 
L 95.621188 222.393417 
L 97.405071 220.57547 
L 99.222487 218.99415 
L 102.167421 216.841706 
L 103.796395 215.813175 
L 106.583545 214.253068 
L 108.731871 213.187676 
L 112.883007 211.386043 
L 115.658465 210.329699 
L 121.391454 208.427996 
L 126.971228 206.851025 
L 144.327393 203.04141 
L 199.466202 195.852323 
L 199.466202 195.852323 
" style="fill:none;stroke:#434348;stroke-linecap:square;"/>
   </g>
   <g id="line2d_39">
    <path clip-path="url(#pe0cd098297)" d="M 86.212267 237.892812 
L 86.324368 152.501812 
L 86.558509 139.468733 
L 86.904671 131.837989 
L 87.362082 126.457782 
L 87.921497 122.379391 
L 88.604045 119.013076 
L 89.382228 116.25609 
L 90.300455 113.818168 
L 91.341227 111.686535 
L 92.531576 109.760179 
L 93.96098 107.910824 
L 95.658473 106.145505 
L 96.854653 105.097774 
L 98.418836 103.90658 
L 101.212403 102.144213 
L 102.784606 101.30381 
L 105.184688 100.175954 
L 110.823075 98.046593 
L 113.49318 97.218348 
L 118.852283 95.795981 
L 127.665562 93.939355 
L 158.676423 89.773491 
L 515.697885 78.060149 
L 515.697885 78.060149 
" style="fill:none;stroke:#90ed7d;stroke-linecap:square;"/>
   </g>
   <g id="line2d_40">
    <path clip-path="url(#pe0cd098297)" d="M 86.212243 285.605703 
L 86.324204 220.891953 
L 86.56509 208.625757 
L 86.924273 201.025127 
L 87.397496 195.486363 
L 87.986025 191.101448 
L 88.700259 187.424512 
L 89.52887 184.306317 
L 90.500183 181.52648 
L 91.484988 179.294569 
L 92.636906 177.166977 
L 93.948739 175.171922 
L 95.385209 173.348539 
L 97.359856 171.268087 
L 99.119238 169.709556 
L 101.624941 167.829097 
L 104.975633 165.753016 
L 108.142063 164.114339 
L 111.446933 162.644895 
L 116.260297 160.825213 
L 120.313896 159.511838 
L 123.833451 158.495851 
L 132.272036 156.412306 
L 157.178457 152.008546 
L 284.687501 141.817494 
L 284.687501 141.817494 
" style="fill:none;stroke:#f7a35c;stroke-linecap:square;"/>
   </g>
   <g id="line2d_41">
    <path clip-path="url(#pe0cd098297)" d="M 86.212267 293.275105 
L 86.324414 231.252555 
L 86.566739 218.630014 
L 86.928978 210.735101 
L 87.40569 204.962367 
L 87.997331 200.383015 
L 88.695283 196.621425 
L 89.529396 193.317857 
L 90.47218 190.46508 
L 91.556594 187.88077 
L 92.855491 185.404712 
L 94.186927 183.328993 
L 95.786498 181.255475 
L 97.431671 179.460432 
L 99.485284 177.561781 
L 101.23695 176.164614 
L 103.692282 174.462438 
L 107.306563 172.355325 
L 112.053496 170.088558 
L 117.893596 167.823059 
L 124.009976 165.869223 
L 133.589188 163.381906 
L 148.330172 160.419613 
L 253.601673 149.801827 
L 731.731146 136.02378 
L 731.731146 136.02378 
" style="fill:none;stroke:#8085e9;stroke-linecap:square;"/>
   </g>
   <g id="line2d_42">
    <path clip-path="url(#pe0cd098297)" d="M 86.212247 268.863759 
L 86.324095 200.441455 
L 86.563074 188.33218 
L 86.916675 180.970262 
L 87.388785 175.587191 
L 87.97134 171.395415 
L 88.681916 167.884255 
L 89.497179 164.95231 
L 90.367175 162.552756 
L 91.403452 160.292363 
L 92.55077 158.277475 
L 94.00798 156.202194 
L 95.37929 154.586633 
L 97.307564 152.694394 
L 99.063626 151.246596 
L 101.613323 149.473736 
L 104.00822 148.066543 
L 106.610492 146.745012 
L 110.826948 144.937344 
L 118.793656 142.265884 
L 123.288242 141.045532 
L 131.154369 139.241603 
L 141.353244 137.341604 
L 163.013439 134.302895 
L 335.738016 123.913395 
L 335.738016 123.913395 
" style="fill:none;stroke:#f15c80;stroke-linecap:square;"/>
   </g>
   <g id="line2d_43">
    <path clip-path="url(#pe0cd098297)" d="M 86.212243 254.173851 
L 86.324292 177.147084 
L 86.561206 164.592343 
L 86.913916 157.046186 
L 87.378251 151.666016 
L 87.952005 147.498766 
L 88.637779 144.090452 
L 89.413409 141.283116 
L 90.334255 138.756915 
L 91.420194 136.448381 
L 92.496156 134.614391 
L 93.804133 132.786352 
L 95.263992 131.102986 
L 96.824975 129.59456 
L 98.585536 128.152418 
L 100.74186 126.656931 
L 103.489797 125.060628 
L 105.996528 123.823964 
L 110.1627 122.097491 
L 114.002638 120.768674 
L 120.22804 118.983136 
L 132.206104 116.36321 
L 163.482311 111.98554 
L 390.909367 101.202734 
L 390.909367 101.202734 
" style="fill:none;stroke:#e4d354;stroke-linecap:square;"/>
   </g>
   <g id="line2d_44">
    <path clip-path="url(#pe0cd098297)" d="M 86.212243 300.421174 
L 86.324241 243.315078 
L 86.56701 231.653318 
L 86.929998 224.297788 
L 87.403213 218.92564 
L 87.99416 214.60873 
L 88.685098 211.074888 
L 89.472493 208.080448 
L 90.475962 205.164136 
L 91.497714 202.824014 
L 92.577797 200.795439 
L 94.368569 198.087743 
L 95.936612 196.165601 
L 97.653835 194.387462 
L 99.943592 192.392732 
L 103.02554 190.179337 
L 106.373363 188.19574 
L 110.324321 186.242699 
L 116.936911 183.601748 
L 158.069176 174.399337 
L 420.338327 158.130897 
L 420.338327 158.130897 
" style="fill:none;stroke:#2b908f;stroke-linecap:square;"/>
   </g>
   <g id="line2d_45">
    <path clip-path="url(#pe0cd098297)" d="M 86.212256 267.310369 
L 86.32424 196.123142 
L 86.561979 183.535361 
L 86.917046 175.843216 
L 87.38742 170.283055 
L 87.957777 166.02015 
L 88.639862 162.497525 
L 89.460878 159.412947 
L 90.430211 156.671301 
L 91.526411 154.265149 
L 92.508759 152.510804 
L 93.898608 150.461817 
L 95.25284 148.806216 
L 96.276943 147.717252 
L 98.463267 145.734812 
L 100.375728 144.282465 
L 102.297695 143.015993 
L 105.120552 141.417187 
L 107.061391 140.456743 
L 110.332611 139.032392 
L 113.381991 137.876357 
L 125.574237 134.320474 
L 140.766186 131.246248 
L 233.025838 122.263833 
L 233.025838 122.263833 
" style="fill:none;stroke:#f45b5b;stroke-linecap:square;"/>
   </g>
   <g id="line2d_46">
    <path clip-path="url(#pe0cd098297)" d="M 86.212243 285.720228 
L 86.324386 219.595194 
L 86.565313 207.075455 
L 86.923979 199.330287 
L 87.400203 193.652561 
L 87.985405 189.213609 
L 88.695491 185.486603 
L 89.549498 182.223505 
L 90.518737 179.41671 
L 91.606729 176.944761 
L 92.749312 174.843122 
L 93.660512 173.419437 
L 95.440807 171.088626 
L 96.908811 169.489048 
L 98.917789 167.630518 
L 101.278435 165.797692 
L 102.810754 164.759392 
L 105.096758 163.380296 
L 107.690411 162.009566 
L 111.62382 160.225937 
L 117.638024 157.985734 
L 126.749143 155.320852 
L 138.010263 152.776613 
L 161.606828 148.924768 
L 239.917302 141.775761 
L 239.917302 141.775761 
" style="fill:none;stroke:#91e8e1;stroke-linecap:square;"/>
   </g>
   <g id="line2d_47">
    <path clip-path="url(#pe0cd098297)" d="M 86.212224 287.699883 
L 86.324245 221.759163 
L 86.565505 209.545121 
L 86.92478 201.981983 
L 87.401808 196.432606 
L 87.991034 192.071474 
L 88.687984 188.490039 
L 89.51654 185.367352 
L 90.41143 182.779958 
L 91.439713 180.420569 
L 92.671512 178.147194 
L 93.961167 176.196587 
L 95.444633 174.324808 
L 97.177469 172.492156 
L 98.193598 171.550206 
L 101.424175 169.021072 
L 104.450506 167.107489 
L 107.30059 165.581923 
L 110.306883 164.18648 
L 115.299498 162.222905 
L 120.069018 160.64698 
L 130.339758 157.91379 
L 141.796481 155.55093 
L 171.05931 151.268657 
L 423.378104 137.786861 
L 423.378104 137.786861 
" style="fill:none;stroke:#7cb5ec;stroke-linecap:square;"/>
   </g>
   <g id="line2d_48">
    <path clip-path="url(#pe0cd098297)" d="M 86.212231 297.989383 
L 86.324277 234.426157 
L 86.566671 221.839104 
L 86.927411 213.973862 
L 87.399759 208.227818 
L 87.99283 203.610264 
L 88.694232 199.812114 
L 89.55019 196.418072 
L 90.452481 193.67571 
L 91.526112 191.089065 
L 92.640286 188.908792 
L 94.175385 186.458305 
L 95.015659 185.311619 
L 96.872877 183.126255 
L 98.28771 181.705738 
L 100.635991 179.68367 
L 103.293047 177.764087 
L 107.011056 175.534333 
L 111.394799 173.376052 
L 116.134408 171.436673 
L 136.708908 165.59603 
L 189.806745 157.70738 
L 189.806745 157.70738 
" style="fill:none;stroke:#434348;stroke-linecap:square;"/>
   </g>
   <g id="line2d_49">
    <path clip-path="url(#pe0cd098297)" d="M 86.212224 280.585076 
L 86.324221 213.60121 
L 86.564423 201.59502 
L 86.923444 194.177867 
L 87.39914 188.770814 
L 87.990453 184.510844 
L 88.703051 180.970038 
L 89.516042 178.012208 
L 90.466249 175.374659 
L 91.524261 173.06579 
L 92.824787 170.798148 
L 94.284889 168.740675 
L 95.911385 166.855447 
L 98.040298 164.826287 
L 99.498652 163.641914 
L 101.395002 162.287165 
L 104.487853 160.412564 
L 105.519014 159.859458 
L 110.704605 157.472346 
L 112.110293 156.914873 
L 115.85956 155.568309 
L 120.026424 154.26418 
L 124.366055 153.071816 
L 129.554674 151.818057 
L 145.068706 148.832816 
L 173.659455 145.021236 
L 229.865763 140.330191 
L 754.98863 126.479928 
L 754.98863 126.479928 
" style="fill:none;stroke:#90ed7d;stroke-linecap:square;"/>
   </g>
   <g id="line2d_50">
    <path clip-path="url(#pe0cd098297)" d="M 86.212231 265.213346 
L 86.324128 187.733898 
L 86.562024 174.773162 
L 86.916449 166.931166 
L 87.379656 161.347672 
L 87.956726 156.969589 
L 88.641992 153.402251 
L 89.459858 150.314039 
L 90.406297 147.621165 
L 91.459763 145.285381 
L 92.72435 143.056714 
L 94.090752 141.10898 
L 95.607798 139.324076 
L 97.388721 137.579994 
L 99.402097 135.930104 
L 101.492995 134.476452 
L 103.491535 133.271021 
L 107.411612 131.283977 
L 111.28633 129.669831 
L 114.046803 128.673472 
L 118.601476 127.238734 
L 122.669786 126.12768 
L 129.231454 124.587225 
L 137.020491 123.054417 
L 153.718452 120.474978 
L 176.841967 117.852383 
L 232.815781 113.684446 
L 232.815781 113.684446 
" style="fill:none;stroke:#f7a35c;stroke-linecap:square;"/>
   </g>
   <g id="line2d_51">
    <path clip-path="url(#pe0cd098297)" d="M 86.212243 271.569487 
L 86.324202 201.267354 
L 86.562993 188.810694 
L 86.917198 181.216727 
L 87.384352 175.720677 
L 87.955572 171.459366 
L 88.642558 167.918438 
L 89.453578 164.870643 
L 90.39776 162.183418 
L 91.515312 159.712655 
L 92.673541 157.663479 
L 94.129519 155.568768 
L 95.244631 154.21805 
L 96.90189 152.500207 
L 98.429772 151.145254 
L 101.418452 148.940426 
L 104.817016 146.924701 
L 106.878343 145.881195 
L 110.593552 144.248679 
L 114.924047 142.645662 
L 120.110943 141.029296 
L 124.634335 139.818281 
L 129.966055 138.569436 
L 155.723737 134.184694 
L 196.579217 129.909417 
L 196.579217 129.909417 
" style="fill:none;stroke:#8085e9;stroke-linecap:square;"/>
   </g>
   <g id="line2d_52">
    <path clip-path="url(#pe0cd098297)" d="M 86.212243 305.611376 
L 86.32414 249.358876 
L 86.566606 237.534127 
L 86.932342 229.981114 
L 87.418133 224.377515 
L 88.0268 219.87962 
L 88.732513 216.232142 
L 89.528472 213.16649 
L 90.444165 210.430887 
L 91.626251 207.657295 
L 92.93689 205.209459 
L 94.096419 203.409856 
L 95.389656 201.689388 
L 96.835878 200.030142 
L 98.125326 198.730335 
L 100.729526 196.485788 
L 102.22639 195.371284 
L 106.328124 192.781195 
L 109.357325 191.188246 
L 112.331141 189.816038 
L 118.435372 187.433491 
L 132.620226 183.3032 
L 153.768846 179.067167 
L 153.768846 179.067167 
" style="fill:none;stroke:#f15c80;stroke-linecap:square;"/>
   </g>
   <g id="line2d_53">
    <path clip-path="url(#pe0cd098297)" d="M 86.212243 275.058508 
L 86.324352 203.942259 
L 86.563854 191.166797 
L 86.920005 183.354492 
L 87.387748 177.719144 
L 87.972948 173.260467 
L 88.663475 169.633411 
L 89.47362 166.523904 
L 90.422204 163.762145 
L 91.49787 161.316666 
L 92.643236 159.221592 
L 93.914856 157.305494 
L 95.300062 155.559165 
L 96.788386 153.966264 
L 98.890129 152.073857 
L 101.331641 150.247325 
L 104.463531 148.308732 
L 107.118471 146.919354 
L 110.229293 145.508395 
L 113.322649 144.282963 
L 117.766764 142.75682 
L 124.424795 140.847107 
L 135.28859 138.377209 
L 146.237896 136.41123 
L 172.382063 132.932787 
L 227.198738 128.305137 
L 227.198738 128.305137 
" style="fill:none;stroke:#e4d354;stroke-linecap:square;"/>
   </g>
   <g id="line2d_54">
    <path clip-path="url(#pe0cd098297)" d="M 86.212253 264.681615 
L 86.324373 194.12724 
L 86.563326 181.786874 
L 86.915496 174.337415 
L 87.383136 168.924153 
L 87.965569 164.67856 
L 88.66394 161.185622 
L 89.460524 158.279778 
L 90.302281 155.918429 
L 91.353842 153.591279 
L 92.514586 151.536468 
L 93.712568 149.791845 
L 95.329885 147.848037 
L 97.038326 146.150756 
L 98.763028 144.699464 
L 100.649093 143.333361 
L 102.544446 142.136578 
L 105.422778 140.571798 
L 108.28636 139.241579 
L 112.188742 137.694195 
L 116.18809 136.343046 
L 120.673782 135.036459 
L 124.965448 133.943911 
L 133.163646 132.171868 
L 141.343265 130.702686 
L 151.48115 129.172259 
L 161.007875 127.947482 
L 177.229523 126.199556 
L 193.418241 124.757025 
L 261.431604 120.512525 
L 261.431604 120.512525 
" style="fill:none;stroke:#2b908f;stroke-linecap:square;"/>
   </g>
   <g id="line2d_55">
    <path clip-path="url(#pe0cd098297)" d="M 86.212238 251.853909 
L 86.324105 175.440158 
L 86.561146 163.141266 
L 86.913048 155.775507 
L 87.376489 150.520315 
L 87.954058 146.421063 
L 88.636552 143.107921 
L 89.441679 140.273681 
L 90.388036 137.766055 
L 91.391902 135.688377 
L 92.565604 133.739733 
L 93.863666 131.984302 
L 95.437779 130.235679 
L 96.956795 128.824519 
L 99.041859 127.198008 
L 101.449396 125.636935 
L 104.446563 124.024153 
L 106.675712 122.997625 
L 110.900645 121.342897 
L 114.430297 120.176834 
L 116.042996 119.694819 
L 124.571297 117.535984 
L 128.461834 116.716204 
L 136.831837 115.196861 
L 146.708129 113.717141 
L 156.739669 112.458233 
L 164.771687 111.581511 
L 189.64637 109.376443 
L 230.746241 106.754726 
L 628.918838 97.040069 
L 628.918838 97.040069 
" style="fill:none;stroke:#f45b5b;stroke-linecap:square;"/>
   </g>
   <g id="line2d_56">
    <path clip-path="url(#pe0cd098297)" d="M 86.212243 295.132508 
L 86.324347 234.827734 
L 86.566853 222.840671 
L 86.929578 215.325494 
L 87.404786 209.84067 
L 87.999439 205.447476 
L 88.709675 201.800404 
L 89.558266 198.605538 
L 90.411349 196.122514 
L 91.511049 193.578282 
L 92.796165 191.203428 
L 94.145382 189.165696 
L 95.966504 186.908724 
L 97.860427 184.973082 
L 99.528979 183.514558 
L 101.495127 182.016081 
L 104.702585 179.946691 
L 106.374314 179.008095 
L 110.93275 176.802109 
L 114.727157 175.26068 
L 118.104274 174.054943 
L 126.550687 171.531815 
L 147.233062 167.115841 
L 163.275234 164.644038 
L 317.284286 153.231019 
L 317.284286 153.231019 
" style="fill:none;stroke:#91e8e1;stroke-linecap:square;"/>
   </g>
   <g id="line2d_57">
    <path clip-path="url(#pe0cd098297)" d="M 86.21226 280.24627 
L 86.324505 216.52763 
L 86.565575 204.450405 
L 86.923292 197.014033 
L 87.400723 191.541667 
L 87.989023 187.26141 
L 88.701676 183.67916 
L 89.523579 180.656975 
L 90.44076 178.074704 
L 91.525792 175.670095 
L 92.702845 173.570569 
L 93.832344 171.892432 
L 95.362696 169.984315 
L 97.081889 168.195742 
L 99.078884 166.450139 
L 101.513454 164.663787 
L 104.541538 162.810646 
L 107.019013 161.514805 
L 108.716897 160.715259 
L 115.263384 158.125184 
L 118.255722 157.135984 
L 122.886923 155.778854 
L 131.481292 153.674152 
L 137.642178 152.405894 
L 157.779009 149.148577 
L 188.010467 145.719704 
L 270.08609 140.077695 
L 270.08609 140.077695 
" style="fill:none;stroke:#7cb5ec;stroke-linecap:square;"/>
   </g>
   <g id="line2d_58">
    <path clip-path="url(#pe0cd098297)" d="M 86.21224 297.084307 
L 86.324333 238.93065 
L 86.56696 227.309903 
L 86.931546 219.979353 
L 87.413338 214.58938 
L 88.008134 210.326049 
L 88.738299 206.691643 
L 89.57587 203.63066 
L 90.454362 201.145032 
L 91.591382 198.597811 
L 92.913409 196.238546 
L 94.188816 194.367366 
L 95.788135 192.404728 
L 97.345385 190.786833 
L 99.424113 188.949578 
L 101.614537 187.304419 
L 103.77801 185.895997 
L 107.957485 183.611699 
L 112.201991 181.706761 
L 118.170003 179.50291 
L 134.348603 175.153387 
L 150.040183 172.173748 
L 191.755305 166.902937 
L 716.33908 148.744017 
L 716.33908 148.744017 
" style="fill:none;stroke:#434348;stroke-linecap:square;"/>
   </g>
   <g id="line2d_59">
    <path clip-path="url(#pe0cd098297)" d="M 86.21224 287.376802 
L 86.32433 222.811807 
L 86.565681 210.520192 
L 86.927605 202.862777 
L 87.405219 197.280826 
L 87.971264 193.036678 
L 88.655438 189.446694 
L 89.438299 186.41319 
L 90.340203 183.727395 
L 91.40585 181.230844 
L 92.616134 178.959121 
L 93.667109 177.315019 
L 94.832143 175.747403 
L 96.222625 174.136705 
L 98.303796 172.108371 
L 99.650617 170.977455 
L 101.92993 169.304154 
L 104.99361 167.4091 
L 108.380624 165.651706 
L 115.200348 162.824159 
L 119.881466 161.254861 
L 132.65635 157.905822 
L 152.339336 154.266033 
L 177.041109 151.033954 
L 456.560439 137.210695 
L 456.560439 137.210695 
" style="fill:none;stroke:#90ed7d;stroke-linecap:square;"/>
   </g>
   <g id="line2d_60">
    <path clip-path="url(#pe0cd098297)" d="M 86.21224 284.875084 
L 86.323963 218.640938 
L 86.564807 206.164273 
L 86.922907 198.468427 
L 87.399224 192.821452 
L 87.994285 188.349876 
L 88.677624 184.784304 
L 89.428724 181.869851 
L 90.388121 179.017221 
L 91.42306 176.605257 
L 92.605692 174.384366 
L 94.106936 172.102421 
L 95.352298 170.523068 
L 97.152321 168.591314 
L 99.236616 166.724732 
L 101.866136 164.764828 
L 105.505538 162.548226 
L 107.601988 161.459048 
L 110.181688 160.260465 
L 117.032529 157.628752 
L 123.090449 155.762979 
L 139.633606 151.94578 
L 147.804139 150.493385 
L 169.860782 147.396547 
L 244.530446 141.067757 
L 733.105983 127.777306 
L 733.105983 127.777306 
" style="fill:none;stroke:#f7a35c;stroke-linecap:square;"/>
   </g>
   <g id="line2d_61">
    <path clip-path="url(#pe0cd098297)" d="M 86.212238 278.889946 
L 86.324181 208.083081 
L 86.564028 195.219966 
L 86.921727 187.319975 
L 87.394053 181.592454 
L 87.973455 177.136308 
L 88.674345 173.41488 
L 89.503622 170.208717 
L 90.408667 167.540839 
L 91.42786 165.166018 
L 92.694919 162.803977 
L 93.927396 160.92385 
L 95.496609 158.934551 
L 96.947427 157.382561 
L 98.991762 155.529061 
L 101.708235 153.492658 
L 104.354093 151.83762 
L 108.385108 149.745318 
L 111.579716 148.351016 
L 116.345081 146.578929 
L 121.542904 144.952269 
L 128.719691 143.076223 
L 146.67629 139.545517 
L 152.248524 138.671506 
L 170.58247 136.262506 
L 192.822439 133.990398 
L 222.89502 131.608382 
L 246.850486 130.077836 
L 379.544843 124.49657 
L 379.544843 124.49657 
" style="fill:none;stroke:#8085e9;stroke-linecap:square;"/>
   </g>
   <g id="line2d_62">
    <path clip-path="url(#pe0cd098297)" d="M 86.212247 251.962219 
L 86.324321 172.468158 
L 86.560379 159.65808 
L 86.910253 152.009253 
L 87.372411 146.549815 
L 87.948578 142.302584 
L 88.619128 138.922163 
L 89.417977 136.001284 
L 90.282734 133.60146 
L 91.330639 131.32952 
L 92.491936 129.326897 
L 93.736076 127.576949 
L 95.294528 125.775039 
L 96.474463 124.617288 
L 97.712758 123.545627 
L 99.902604 121.9214 
L 101.584992 120.85174 
L 104.521992 119.254064 
L 109.000144 117.281817 
L 111.374372 116.398433 
L 116.864628 114.657964 
L 121.131262 113.522493 
L 128.82234 111.809337 
L 141.315319 109.634729 
L 153.332516 107.995517 
L 172.192087 105.974185 
L 190.250908 104.445485 
L 228.319278 101.996946 
L 256.225184 100.618136 
L 256.225184 100.618136 
" style="fill:none;stroke:#f15c80;stroke-linecap:square;"/>
   </g>
   <g id="line2d_63">
    <path clip-path="url(#pe0cd098297)" d="M 86.212231 284.303843 
L 86.324242 216.793468 
L 86.56524 204.325321 
L 86.925511 196.611182 
L 87.401051 190.999138 
L 87.985509 186.611024 
L 88.694533 182.928541 
L 89.515525 179.809647 
L 90.434042 177.140426 
L 91.517142 174.664572 
L 92.698128 172.49337 
L 94.063294 170.437569 
L 95.518208 168.614691 
L 97.084405 166.95286 
L 98.612953 165.552217 
L 101.125131 163.595845 
L 103.856226 161.820712 
L 105.548172 160.857633 
L 107.263102 159.966187 
L 110.500284 158.470713 
L 113.493436 157.260607 
L 117.190141 155.942558 
L 121.888428 154.484454 
L 127.704071 152.93298 
L 139.221984 150.434084 
L 148.130135 148.861566 
L 163.790921 146.596052 
L 180.711573 144.630955 
L 199.382733 142.8497 
L 226.723612 140.730801 
L 275.853349 137.829957 
L 275.853349 137.829957 
" style="fill:none;stroke:#e4d354;stroke-linecap:square;"/>
   </g>
   <g id="line2d_64">
    <path clip-path="url(#pe0cd098297)" d="M 86.212238 291.287204 
L 86.324131 226.02552 
L 86.565707 213.391005 
L 86.926922 205.521382 
L 87.403122 199.776201 
L 87.997097 195.212103 
L 88.691887 191.502124 
L 89.510323 188.285833 
L 90.471798 185.40513 
L 91.49617 182.982857 
L 92.690868 180.696508 
L 93.972126 178.677059 
L 95.410668 176.778539 
L 97.300813 174.698091 
L 99.963027 172.311042 
L 102.192196 170.650293 
L 104.529128 169.146084 
L 106.154584 168.211381 
L 109.268134 166.620754 
L 112.597465 165.146978 
L 115.459988 164.025039 
L 119.942937 162.476827 
L 129.923856 159.678934 
L 137.374514 157.990838 
L 143.212486 156.836841 
L 163.870462 153.557314 
L 178.344914 151.760454 
L 196.330439 149.898048 
L 223.607475 147.605006 
L 348.088353 141.044773 
L 348.088353 141.044773 
" style="fill:none;stroke:#2b908f;stroke-linecap:square;"/>
   </g>
   <g id="line2d_65">
    <path clip-path="url(#pe0cd098297)" d="M 86.212238 276.741062 
L 86.324309 204.62379 
L 86.563542 191.689584 
L 86.919893 183.765025 
L 87.392952 178.002429 
L 87.979422 173.492126 
L 88.683531 169.766712 
L 89.486849 166.66092 
L 90.358558 164.072997 
L 91.423424 161.582288 
L 92.688234 159.229998 
L 94.009174 157.23314 
L 95.512147 155.348256 
L 97.104228 153.668334 
L 99.305843 151.723403 
L 101.150526 150.339259 
L 104.234943 148.380482 
L 107.256714 146.774268 
L 111.892234 144.726944 
L 114.259325 143.825883 
L 120.269065 141.854562 
L 127.767454 139.852613 
L 133.200824 138.625999 
L 146.591032 136.146545 
L 154.654006 134.919038 
L 168.453656 133.135075 
L 195.989541 130.36641 
L 222.578992 128.316867 
L 250.365935 126.585108 
L 295.925793 124.327644 
L 389.734469 120.98558 
L 389.734469 120.98558 
" style="fill:none;stroke:#f45b5b;stroke-linecap:square;"/>
   </g>
   <g id="line2d_66">
    <path clip-path="url(#pe0cd098297)" d="M 43.148125 353.2239 
L 990.558125 353.2239 
" style="fill:none;stroke:#dedede;stroke-linecap:square;stroke-width:2;"/>
   </g>
   <g id="text_18">
    <!-- DupRadar General Linear Model -->
    <defs>
     <path d="M 19.671875 64.796875 
L 19.671875 8.109375 
L 31.59375 8.109375 
Q 46.6875 8.109375 53.6875 14.9375 
Q 60.6875 21.78125 60.6875 36.53125 
Q 60.6875 51.171875 53.6875 57.984375 
Q 46.6875 64.796875 31.59375 64.796875 
z
M 9.8125 72.90625 
L 30.078125 72.90625 
Q 51.265625 72.90625 61.171875 64.09375 
Q 71.09375 55.28125 71.09375 36.53125 
Q 71.09375 17.671875 61.125 8.828125 
Q 51.171875 0 30.078125 0 
L 9.8125 0 
z
" id="DejaVuSans-68"/>
     <path d="M 44.390625 34.1875 
Q 47.5625 33.109375 50.5625 29.59375 
Q 53.5625 26.078125 56.59375 19.921875 
L 66.609375 0 
L 56 0 
L 46.6875 18.703125 
Q 43.0625 26.03125 39.671875 28.421875 
Q 36.28125 30.8125 30.421875 30.8125 
L 19.671875 30.8125 
L 19.671875 0 
L 9.8125 0 
L 9.8125 72.90625 
L 32.078125 72.90625 
Q 44.578125 72.90625 50.734375 67.671875 
Q 56.890625 62.453125 56.890625 51.90625 
Q 56.890625 45.015625 53.6875 40.46875 
Q 50.484375 35.9375 44.390625 34.1875 
z
M 19.671875 64.796875 
L 19.671875 38.921875 
L 32.078125 38.921875 
Q 39.203125 38.921875 42.84375 42.21875 
Q 46.484375 45.515625 46.484375 51.90625 
Q 46.484375 58.296875 42.84375 61.546875 
Q 39.203125 64.796875 32.078125 64.796875 
z
" id="DejaVuSans-82"/>
     <path d="M 59.515625 10.40625 
L 59.515625 29.984375 
L 43.40625 29.984375 
L 43.40625 38.09375 
L 69.28125 38.09375 
L 69.28125 6.78125 
Q 63.578125 2.734375 56.6875 0.65625 
Q 49.8125 -1.421875 42 -1.421875 
Q 24.90625 -1.421875 15.25 8.5625 
Q 5.609375 18.5625 5.609375 36.375 
Q 5.609375 54.25 15.25 64.234375 
Q 24.90625 74.21875 42 74.21875 
Q 49.125 74.21875 55.546875 72.453125 
Q 61.96875 70.703125 67.390625 67.28125 
L 67.390625 56.78125 
Q 61.921875 61.421875 55.765625 63.765625 
Q 49.609375 66.109375 42.828125 66.109375 
Q 29.4375 66.109375 22.71875 58.640625 
Q 16.015625 51.171875 16.015625 36.375 
Q 16.015625 21.625 22.71875 14.15625 
Q 29.4375 6.6875 42.828125 6.6875 
Q 48.046875 6.6875 52.140625 7.59375 
Q 56.25 8.5 59.515625 10.40625 
z
" id="DejaVuSans-71"/>
     <path d="M 9.8125 72.90625 
L 19.671875 72.90625 
L 19.671875 8.296875 
L 55.171875 8.296875 
L 55.171875 0 
L 9.8125 0 
z
" id="DejaVuSans-76"/>
     <path d="M 9.8125 72.90625 
L 24.515625 72.90625 
L 43.109375 23.296875 
L 61.8125 72.90625 
L 76.515625 72.90625 
L 76.515625 0 
L 66.890625 0 
L 66.890625 64.015625 
L 48.09375 14.015625 
L 38.1875 14.015625 
L 19.390625 64.015625 
L 19.390625 0 
L 9.8125 0 
z
" id="DejaVuSans-77"/>
    </defs>
    <g transform="translate(388.775625 19.3575)scale(0.16 -0.16)">
     <use xlink:href="#DejaVuSans-68"/>
     <use x="77.001953" xlink:href="#DejaVuSans-117"/>
     <use x="140.380859" xlink:href="#DejaVuSans-112"/>
     <use x="203.857422" xlink:href="#DejaVuSans-82"/>
     <use x="273.308594" xlink:href="#DejaVuSans-97"/>
     <use x="334.587891" xlink:href="#DejaVuSans-100"/>
     <use x="398.064453" xlink:href="#DejaVuSans-97"/>
     <use x="459.34375" xlink:href="#DejaVuSans-114"/>
     <use x="500.457031" xlink:href="#DejaVuSans-32"/>
     <use x="532.244141" xlink:href="#DejaVuSans-71"/>
     <use x="609.734375" xlink:href="#DejaVuSans-101"/>
     <use x="671.257812" xlink:href="#DejaVuSans-110"/>
     <use x="734.636719" xlink:href="#DejaVuSans-101"/>
     <use x="796.160156" xlink:href="#DejaVuSans-114"/>
     <use x="837.273438" xlink:href="#DejaVuSans-97"/>
     <use x="898.552734" xlink:href="#DejaVuSans-108"/>
     <use x="926.335938" xlink:href="#DejaVuSans-32"/>
     <use x="958.123047" xlink:href="#DejaVuSans-76"/>
     <use x="1013.835938" xlink:href="#DejaVuSans-105"/>
     <use x="1041.619141" xlink:href="#DejaVuSans-110"/>
     <use x="1104.998047" xlink:href="#DejaVuSans-101"/>
     <use x="1166.521484" xlink:href="#DejaVuSans-97"/>
     <use x="1227.800781" xlink:href="#DejaVuSans-114"/>
     <use x="1268.914062" xlink:href="#DejaVuSans-32"/>
     <use x="1300.701172" xlink:href="#DejaVuSans-77"/>
     <use x="1386.980469" xlink:href="#DejaVuSans-111"/>
     <use x="1448.162109" xlink:href="#DejaVuSans-100"/>
     <use x="1511.638672" xlink:href="#DejaVuSans-101"/>
     <use x="1573.162109" xlink:href="#DejaVuSans-108"/>
    </g>
   </g>
  </g>
 </g>
 <defs>
  <clipPath id="pe0cd098297">
   <rect height="317.968" width="947.41" x="43.148125" y="35.2559"/>
  </clipPath>
 </defs>
</svg>
