<?xml version="1.0" encoding="utf-8" standalone="no"?>
<!DOCTYPE svg PUBLIC "-//W3C//DTD SVG 1.1//EN"
  "http://www.w3.org/Graphics/SVG/1.1/DTD/svg11.dtd">
<!-- Created with matplotlib (https://matplotlib.org/) -->
<svg height="388.844525pt" version="1.1" viewBox="0 0 1000.098125 388.844525" width="1000.098125pt" xmlns="http://www.w3.org/2000/svg" xmlns:xlink="http://www.w3.org/1999/xlink">
 <defs>
  <style type="text/css">
*{stroke-linecap:butt;stroke-linejoin:round;}
  </style>
 </defs>
 <g id="figure_1">
  <g id="patch_1">
   <path d="M 0 388.844525 
L 1000.098125 388.844525 
L 1000.098125 0 
L 0 0 
z
" style="fill:#ffffff;"/>
  </g>
  <g id="axes_1">
   <g id="patch_2">
    <path d="M 58.418125 353.2239 
L 985.263125 353.2239 
L 985.263125 35.2559 
L 58.418125 35.2559 
z
" style="fill:#ffffff;"/>
   </g>
   <g id="matplotlib.axis_1">
    <g id="xtick_1">
     <g id="text_1">
      <!-- 0 -->
      <defs>
       <path d="M 31.78125 66.40625 
Q 24.171875 66.40625 20.328125 58.90625 
Q 16.5 51.421875 16.5 36.375 
Q 16.5 21.390625 20.328125 13.890625 
Q 24.171875 6.390625 31.78125 6.390625 
Q 39.453125 6.390625 43.28125 13.890625 
Q 47.125 21.390625 47.125 36.375 
Q 47.125 51.421875 43.28125 58.90625 
Q 39.453125 66.40625 31.78125 66.40625 
z
M 31.78125 74.21875 
Q 44.046875 74.21875 50.515625 64.515625 
Q 56.984375 54.828125 56.984375 36.375 
Q 56.984375 17.96875 50.515625 8.265625 
Q 44.046875 -1.421875 31.78125 -1.421875 
Q 19.53125 -1.421875 13.0625 8.265625 
Q 6.59375 17.96875 6.59375 36.375 
Q 6.59375 54.828125 13.0625 64.515625 
Q 19.53125 74.21875 31.78125 74.21875 
z
" id="DejaVuSans-48"/>
      </defs>
      <g transform="translate(55.873125 366.30265)scale(0.08 -0.08)">
       <use xlink:href="#DejaVuSans-48"/>
      </g>
     </g>
    </g>
    <g id="xtick_2">
     <g id="text_2">
      <!-- 20 -->
      <defs>
       <path d="M 19.1875 8.296875 
L 53.609375 8.296875 
L 53.609375 0 
L 7.328125 0 
L 7.328125 8.296875 
Q 12.9375 14.109375 22.625 23.890625 
Q 32.328125 33.6875 34.8125 36.53125 
Q 39.546875 41.84375 41.421875 45.53125 
Q 43.3125 49.21875 43.3125 52.78125 
Q 43.3125 58.59375 39.234375 62.25 
Q 35.15625 65.921875 28.609375 65.921875 
Q 23.96875 65.921875 18.8125 64.3125 
Q 13.671875 62.703125 7.8125 59.421875 
L 7.8125 69.390625 
Q 13.765625 71.78125 18.9375 73 
Q 24.125 74.21875 28.421875 74.21875 
Q 39.75 74.21875 46.484375 68.546875 
Q 53.21875 62.890625 53.21875 53.421875 
Q 53.21875 48.921875 51.53125 44.890625 
Q 49.859375 40.875 45.40625 35.40625 
Q 44.1875 33.984375 37.640625 27.21875 
Q 31.109375 20.453125 19.1875 8.296875 
z
" id="DejaVuSans-50"/>
      </defs>
      <g transform="translate(238.697125 366.30265)scale(0.08 -0.08)">
       <use xlink:href="#DejaVuSans-50"/>
       <use x="63.623047" xlink:href="#DejaVuSans-48"/>
      </g>
     </g>
    </g>
    <g id="xtick_3">
     <g id="text_3">
      <!-- 40 -->
      <defs>
       <path d="M 37.796875 64.3125 
L 12.890625 25.390625 
L 37.796875 25.390625 
z
M 35.203125 72.90625 
L 47.609375 72.90625 
L 47.609375 25.390625 
L 58.015625 25.390625 
L 58.015625 17.1875 
L 47.609375 17.1875 
L 47.609375 0 
L 37.796875 0 
L 37.796875 17.1875 
L 4.890625 17.1875 
L 4.890625 26.703125 
z
" id="DejaVuSans-52"/>
      </defs>
      <g transform="translate(424.066125 366.30265)scale(0.08 -0.08)">
       <use xlink:href="#DejaVuSans-52"/>
       <use x="63.623047" xlink:href="#DejaVuSans-48"/>
      </g>
     </g>
    </g>
    <g id="xtick_4">
     <g id="text_4">
      <!-- 60 -->
      <defs>
       <path d="M 33.015625 40.375 
Q 26.375 40.375 22.484375 35.828125 
Q 18.609375 31.296875 18.609375 23.390625 
Q 18.609375 15.53125 22.484375 10.953125 
Q 26.375 6.390625 33.015625 6.390625 
Q 39.65625 6.390625 43.53125 10.953125 
Q 47.40625 15.53125 47.40625 23.390625 
Q 47.40625 31.296875 43.53125 35.828125 
Q 39.65625 40.375 33.015625 40.375 
z
M 52.59375 71.296875 
L 52.59375 62.3125 
Q 48.875 64.0625 45.09375 64.984375 
Q 41.3125 65.921875 37.59375 65.921875 
Q 27.828125 65.921875 22.671875 59.328125 
Q 17.53125 52.734375 16.796875 39.40625 
Q 19.671875 43.65625 24.015625 45.921875 
Q 28.375 48.1875 33.59375 48.1875 
Q 44.578125 48.1875 50.953125 41.515625 
Q 57.328125 34.859375 57.328125 23.390625 
Q 57.328125 12.15625 50.6875 5.359375 
Q 44.046875 -1.421875 33.015625 -1.421875 
Q 20.359375 -1.421875 13.671875 8.265625 
Q 6.984375 17.96875 6.984375 36.375 
Q 6.984375 53.65625 15.1875 63.9375 
Q 23.390625 74.21875 37.203125 74.21875 
Q 40.921875 74.21875 44.703125 73.484375 
Q 48.484375 72.75 52.59375 71.296875 
z
" id="DejaVuSans-54"/>
      </defs>
      <g transform="translate(609.435125 366.30265)scale(0.08 -0.08)">
       <use xlink:href="#DejaVuSans-54"/>
       <use x="63.623047" xlink:href="#DejaVuSans-48"/>
      </g>
     </g>
    </g>
    <g id="xtick_5">
     <g id="text_5">
      <!-- 80 -->
      <defs>
       <path d="M 31.78125 34.625 
Q 24.75 34.625 20.71875 30.859375 
Q 16.703125 27.09375 16.703125 20.515625 
Q 16.703125 13.921875 20.71875 10.15625 
Q 24.75 6.390625 31.78125 6.390625 
Q 38.8125 6.390625 42.859375 10.171875 
Q 46.921875 13.96875 46.921875 20.515625 
Q 46.921875 27.09375 42.890625 30.859375 
Q 38.875 34.625 31.78125 34.625 
z
M 21.921875 38.8125 
Q 15.578125 40.375 12.03125 44.71875 
Q 8.5 49.078125 8.5 55.328125 
Q 8.5 64.0625 14.71875 69.140625 
Q 20.953125 74.21875 31.78125 74.21875 
Q 42.671875 74.21875 48.875 69.140625 
Q 55.078125 64.0625 55.078125 55.328125 
Q 55.078125 49.078125 51.53125 44.71875 
Q 48 40.375 41.703125 38.8125 
Q 48.828125 37.15625 52.796875 32.3125 
Q 56.78125 27.484375 56.78125 20.515625 
Q 56.78125 9.90625 50.3125 4.234375 
Q 43.84375 -1.421875 31.78125 -1.421875 
Q 19.734375 -1.421875 13.25 4.234375 
Q 6.78125 9.90625 6.78125 20.515625 
Q 6.78125 27.484375 10.78125 32.3125 
Q 14.796875 37.15625 21.921875 38.8125 
z
M 18.3125 54.390625 
Q 18.3125 48.734375 21.84375 45.5625 
Q 25.390625 42.390625 31.78125 42.390625 
Q 38.140625 42.390625 41.71875 45.5625 
Q 45.3125 48.734375 45.3125 54.390625 
Q 45.3125 60.0625 41.71875 63.234375 
Q 38.140625 66.40625 31.78125 66.40625 
Q 25.390625 66.40625 21.84375 63.234375 
Q 18.3125 60.0625 18.3125 54.390625 
z
" id="DejaVuSans-56"/>
      </defs>
      <g transform="translate(794.804125 366.30265)scale(0.08 -0.08)">
       <use xlink:href="#DejaVuSans-56"/>
       <use x="63.623047" xlink:href="#DejaVuSans-48"/>
      </g>
     </g>
    </g>
    <g id="xtick_6">
     <g id="text_6">
      <!-- 100 -->
      <defs>
       <path d="M 12.40625 8.296875 
L 28.515625 8.296875 
L 28.515625 63.921875 
L 10.984375 60.40625 
L 10.984375 69.390625 
L 28.421875 72.90625 
L 38.28125 72.90625 
L 38.28125 8.296875 
L 54.390625 8.296875 
L 54.390625 0 
L 12.40625 0 
z
" id="DejaVuSans-49"/>
      </defs>
      <g transform="translate(977.628125 366.30265)scale(0.08 -0.08)">
       <use xlink:href="#DejaVuSans-49"/>
       <use x="63.623047" xlink:href="#DejaVuSans-48"/>
       <use x="127.246094" xlink:href="#DejaVuSans-48"/>
      </g>
     </g>
    </g>
    <g id="text_7">
     <!-- Percent of reads -->
     <defs>
      <path d="M 19.671875 64.796875 
L 19.671875 37.40625 
L 32.078125 37.40625 
Q 38.96875 37.40625 42.71875 40.96875 
Q 46.484375 44.53125 46.484375 51.125 
Q 46.484375 57.671875 42.71875 61.234375 
Q 38.96875 64.796875 32.078125 64.796875 
z
M 9.8125 72.90625 
L 32.078125 72.90625 
Q 44.34375 72.90625 50.609375 67.359375 
Q 56.890625 61.8125 56.890625 51.125 
Q 56.890625 40.328125 50.609375 34.8125 
Q 44.34375 29.296875 32.078125 29.296875 
L 19.671875 29.296875 
L 19.671875 0 
L 9.8125 0 
z
" id="DejaVuSans-80"/>
      <path d="M 56.203125 29.59375 
L 56.203125 25.203125 
L 14.890625 25.203125 
Q 15.484375 15.921875 20.484375 11.0625 
Q 25.484375 6.203125 34.421875 6.203125 
Q 39.59375 6.203125 44.453125 7.46875 
Q 49.3125 8.734375 54.109375 11.28125 
L 54.109375 2.78125 
Q 49.265625 0.734375 44.1875 -0.34375 
Q 39.109375 -1.421875 33.890625 -1.421875 
Q 20.796875 -1.421875 13.15625 6.1875 
Q 5.515625 13.8125 5.515625 26.8125 
Q 5.515625 40.234375 12.765625 48.109375 
Q 20.015625 56 32.328125 56 
Q 43.359375 56 49.78125 48.890625 
Q 56.203125 41.796875 56.203125 29.59375 
z
M 47.21875 32.234375 
Q 47.125 39.59375 43.09375 43.984375 
Q 39.0625 48.390625 32.421875 48.390625 
Q 24.90625 48.390625 20.390625 44.140625 
Q 15.875 39.890625 15.1875 32.171875 
z
" id="DejaVuSans-101"/>
      <path d="M 41.109375 46.296875 
Q 39.59375 47.171875 37.8125 47.578125 
Q 36.03125 48 33.890625 48 
Q 26.265625 48 22.1875 43.046875 
Q 18.109375 38.09375 18.109375 28.8125 
L 18.109375 0 
L 9.078125 0 
L 9.078125 54.6875 
L 18.109375 54.6875 
L 18.109375 46.1875 
Q 20.953125 51.171875 25.484375 53.578125 
Q 30.03125 56 36.53125 56 
Q 37.453125 56 38.578125 55.875 
Q 39.703125 55.765625 41.0625 55.515625 
z
" id="DejaVuSans-114"/>
      <path d="M 48.78125 52.59375 
L 48.78125 44.1875 
Q 44.96875 46.296875 41.140625 47.34375 
Q 37.3125 48.390625 33.40625 48.390625 
Q 24.65625 48.390625 19.8125 42.84375 
Q 14.984375 37.3125 14.984375 27.296875 
Q 14.984375 17.28125 19.8125 11.734375 
Q 24.65625 6.203125 33.40625 6.203125 
Q 37.3125 6.203125 41.140625 7.25 
Q 44.96875 8.296875 48.78125 10.40625 
L 48.78125 2.09375 
Q 45.015625 0.34375 40.984375 -0.53125 
Q 36.96875 -1.421875 32.421875 -1.421875 
Q 20.0625 -1.421875 12.78125 6.34375 
Q 5.515625 14.109375 5.515625 27.296875 
Q 5.515625 40.671875 12.859375 48.328125 
Q 20.21875 56 33.015625 56 
Q 37.15625 56 41.109375 55.140625 
Q 45.0625 54.296875 48.78125 52.59375 
z
" id="DejaVuSans-99"/>
      <path d="M 54.890625 33.015625 
L 54.890625 0 
L 45.90625 0 
L 45.90625 32.71875 
Q 45.90625 40.484375 42.875 44.328125 
Q 39.84375 48.1875 33.796875 48.1875 
Q 26.515625 48.1875 22.3125 43.546875 
Q 18.109375 38.921875 18.109375 30.90625 
L 18.109375 0 
L 9.078125 0 
L 9.078125 54.6875 
L 18.109375 54.6875 
L 18.109375 46.1875 
Q 21.34375 51.125 25.703125 53.5625 
Q 30.078125 56 35.796875 56 
Q 45.21875 56 50.046875 50.171875 
Q 54.890625 44.34375 54.890625 33.015625 
z
" id="DejaVuSans-110"/>
      <path d="M 18.3125 70.21875 
L 18.3125 54.6875 
L 36.8125 54.6875 
L 36.8125 47.703125 
L 18.3125 47.703125 
L 18.3125 18.015625 
Q 18.3125 11.328125 20.140625 9.421875 
Q 21.96875 7.515625 27.59375 7.515625 
L 36.8125 7.515625 
L 36.8125 0 
L 27.59375 0 
Q 17.1875 0 13.234375 3.875 
Q 9.28125 7.765625 9.28125 18.015625 
L 9.28125 47.703125 
L 2.6875 47.703125 
L 2.6875 54.6875 
L 9.28125 54.6875 
L 9.28125 70.21875 
z
" id="DejaVuSans-116"/>
      <path id="DejaVuSans-32"/>
      <path d="M 30.609375 48.390625 
Q 23.390625 48.390625 19.1875 42.75 
Q 14.984375 37.109375 14.984375 27.296875 
Q 14.984375 17.484375 19.15625 11.84375 
Q 23.34375 6.203125 30.609375 6.203125 
Q 37.796875 6.203125 41.984375 11.859375 
Q 46.1875 17.53125 46.1875 27.296875 
Q 46.1875 37.015625 41.984375 42.703125 
Q 37.796875 48.390625 30.609375 48.390625 
z
M 30.609375 56 
Q 42.328125 56 49.015625 48.375 
Q 55.71875 40.765625 55.71875 27.296875 
Q 55.71875 13.875 49.015625 6.21875 
Q 42.328125 -1.421875 30.609375 -1.421875 
Q 18.84375 -1.421875 12.171875 6.21875 
Q 5.515625 13.875 5.515625 27.296875 
Q 5.515625 40.765625 12.171875 48.375 
Q 18.84375 56 30.609375 56 
z
" id="DejaVuSans-111"/>
      <path d="M 37.109375 75.984375 
L 37.109375 68.5 
L 28.515625 68.5 
Q 23.6875 68.5 21.796875 66.546875 
Q 19.921875 64.59375 19.921875 59.515625 
L 19.921875 54.6875 
L 34.71875 54.6875 
L 34.71875 47.703125 
L 19.921875 47.703125 
L 19.921875 0 
L 10.890625 0 
L 10.890625 47.703125 
L 2.296875 47.703125 
L 2.296875 54.6875 
L 10.890625 54.6875 
L 10.890625 58.5 
Q 10.890625 67.625 15.140625 71.796875 
Q 19.390625 75.984375 28.609375 75.984375 
z
" id="DejaVuSans-102"/>
      <path d="M 34.28125 27.484375 
Q 23.390625 27.484375 19.1875 25 
Q 14.984375 22.515625 14.984375 16.5 
Q 14.984375 11.71875 18.140625 8.90625 
Q 21.296875 6.109375 26.703125 6.109375 
Q 34.1875 6.109375 38.703125 11.40625 
Q 43.21875 16.703125 43.21875 25.484375 
L 43.21875 27.484375 
z
M 52.203125 31.203125 
L 52.203125 0 
L 43.21875 0 
L 43.21875 8.296875 
Q 40.140625 3.328125 35.546875 0.953125 
Q 30.953125 -1.421875 24.3125 -1.421875 
Q 15.921875 -1.421875 10.953125 3.296875 
Q 6 8.015625 6 15.921875 
Q 6 25.140625 12.171875 29.828125 
Q 18.359375 34.515625 30.609375 34.515625 
L 43.21875 34.515625 
L 43.21875 35.40625 
Q 43.21875 41.609375 39.140625 45 
Q 35.0625 48.390625 27.6875 48.390625 
Q 23 48.390625 18.546875 47.265625 
Q 14.109375 46.140625 10.015625 43.890625 
L 10.015625 52.203125 
Q 14.9375 54.109375 19.578125 55.046875 
Q 24.21875 56 28.609375 56 
Q 40.484375 56 46.34375 49.84375 
Q 52.203125 43.703125 52.203125 31.203125 
z
" id="DejaVuSans-97"/>
      <path d="M 45.40625 46.390625 
L 45.40625 75.984375 
L 54.390625 75.984375 
L 54.390625 0 
L 45.40625 0 
L 45.40625 8.203125 
Q 42.578125 3.328125 38.25 0.953125 
Q 33.9375 -1.421875 27.875 -1.421875 
Q 17.96875 -1.421875 11.734375 6.484375 
Q 5.515625 14.40625 5.515625 27.296875 
Q 5.515625 40.1875 11.734375 48.09375 
Q 17.96875 56 27.875 56 
Q 33.9375 56 38.25 53.625 
Q 42.578125 51.265625 45.40625 46.390625 
z
M 14.796875 27.296875 
Q 14.796875 17.390625 18.875 11.75 
Q 22.953125 6.109375 30.078125 6.109375 
Q 37.203125 6.109375 41.296875 11.75 
Q 45.40625 17.390625 45.40625 27.296875 
Q 45.40625 37.203125 41.296875 42.84375 
Q 37.203125 48.484375 30.078125 48.484375 
Q 22.953125 48.484375 18.875 42.84375 
Q 14.796875 37.203125 14.796875 27.296875 
z
" id="DejaVuSans-100"/>
      <path d="M 44.28125 53.078125 
L 44.28125 44.578125 
Q 40.484375 46.53125 36.375 47.5 
Q 32.28125 48.484375 27.875 48.484375 
Q 21.1875 48.484375 17.84375 46.4375 
Q 14.5 44.390625 14.5 40.28125 
Q 14.5 37.15625 16.890625 35.375 
Q 19.28125 33.59375 26.515625 31.984375 
L 29.59375 31.296875 
Q 39.15625 29.25 43.1875 25.515625 
Q 47.21875 21.78125 47.21875 15.09375 
Q 47.21875 7.46875 41.1875 3.015625 
Q 35.15625 -1.421875 24.609375 -1.421875 
Q 20.21875 -1.421875 15.453125 -0.5625 
Q 10.6875 0.296875 5.421875 2 
L 5.421875 11.28125 
Q 10.40625 8.6875 15.234375 7.390625 
Q 20.0625 6.109375 24.8125 6.109375 
Q 31.15625 6.109375 34.5625 8.28125 
Q 37.984375 10.453125 37.984375 14.40625 
Q 37.984375 18.0625 35.515625 20.015625 
Q 33.0625 21.96875 24.703125 23.78125 
L 21.578125 24.515625 
Q 13.234375 26.265625 9.515625 29.90625 
Q 5.8125 33.546875 5.8125 39.890625 
Q 5.8125 47.609375 11.28125 51.796875 
Q 16.75 56 26.8125 56 
Q 31.78125 56 36.171875 55.265625 
Q 40.578125 54.546875 44.28125 53.078125 
z
" id="DejaVuSans-115"/>
     </defs>
     <g transform="translate(480.771875 379.564837)scale(0.1 -0.1)">
      <use xlink:href="#DejaVuSans-80"/>
      <use x="60.255859" xlink:href="#DejaVuSans-101"/>
      <use x="121.779297" xlink:href="#DejaVuSans-114"/>
      <use x="162.861328" xlink:href="#DejaVuSans-99"/>
      <use x="217.841797" xlink:href="#DejaVuSans-101"/>
      <use x="279.365234" xlink:href="#DejaVuSans-110"/>
      <use x="342.744141" xlink:href="#DejaVuSans-116"/>
      <use x="381.953125" xlink:href="#DejaVuSans-32"/>
      <use x="413.740234" xlink:href="#DejaVuSans-111"/>
      <use x="474.921875" xlink:href="#DejaVuSans-102"/>
      <use x="510.126953" xlink:href="#DejaVuSans-32"/>
      <use x="541.914062" xlink:href="#DejaVuSans-114"/>
      <use x="582.996094" xlink:href="#DejaVuSans-101"/>
      <use x="644.519531" xlink:href="#DejaVuSans-97"/>
      <use x="705.798828" xlink:href="#DejaVuSans-100"/>
      <use x="769.275391" xlink:href="#DejaVuSans-115"/>
     </g>
    </g>
   </g>
   <g id="matplotlib.axis_2">
    <g id="ytick_1">
     <g id="line2d_1">
      <path clip-path="url(#pb1178076cb)" d="M 58.418125 353.2239 
L 985.263125 353.2239 
" style="fill:none;stroke:#dedede;stroke-linecap:square;"/>
     </g>
     <g id="text_8">
      <!-- 0 -->
      <g transform="translate(46.328125 356.263275)scale(0.08 -0.08)">
       <use xlink:href="#DejaVuSans-48"/>
      </g>
     </g>
    </g>
    <g id="ytick_2">
     <g id="line2d_2">
      <path clip-path="url(#pb1178076cb)" d="M 58.418125 312.423684 
L 985.263125 312.423684 
" style="fill:none;stroke:#dedede;stroke-linecap:square;"/>
     </g>
     <g id="text_9">
      <!-- 25000 -->
      <defs>
       <path d="M 10.796875 72.90625 
L 49.515625 72.90625 
L 49.515625 64.59375 
L 19.828125 64.59375 
L 19.828125 46.734375 
Q 21.96875 47.46875 24.109375 47.828125 
Q 26.265625 48.1875 28.421875 48.1875 
Q 40.625 48.1875 47.75 41.5 
Q 54.890625 34.8125 54.890625 23.390625 
Q 54.890625 11.625 47.5625 5.09375 
Q 40.234375 -1.421875 26.90625 -1.421875 
Q 22.3125 -1.421875 17.546875 -0.640625 
Q 12.796875 0.140625 7.71875 1.703125 
L 7.71875 11.625 
Q 12.109375 9.234375 16.796875 8.0625 
Q 21.484375 6.890625 26.703125 6.890625 
Q 35.15625 6.890625 40.078125 11.328125 
Q 45.015625 15.765625 45.015625 23.390625 
Q 45.015625 31 40.078125 35.4375 
Q 35.15625 39.890625 26.703125 39.890625 
Q 22.75 39.890625 18.8125 39.015625 
Q 14.890625 38.140625 10.796875 36.28125 
z
" id="DejaVuSans-53"/>
      </defs>
      <g transform="translate(25.968125 315.463059)scale(0.08 -0.08)">
       <use xlink:href="#DejaVuSans-50"/>
       <use x="63.623047" xlink:href="#DejaVuSans-53"/>
       <use x="127.246094" xlink:href="#DejaVuSans-48"/>
       <use x="190.869141" xlink:href="#DejaVuSans-48"/>
       <use x="254.492188" xlink:href="#DejaVuSans-48"/>
      </g>
     </g>
    </g>
    <g id="ytick_3">
     <g id="line2d_3">
      <path clip-path="url(#pb1178076cb)" d="M 58.418125 271.623467 
L 985.263125 271.623467 
" style="fill:none;stroke:#dedede;stroke-linecap:square;"/>
     </g>
     <g id="text_10">
      <!-- 50000 -->
      <g transform="translate(25.968125 274.662842)scale(0.08 -0.08)">
       <use xlink:href="#DejaVuSans-53"/>
       <use x="63.623047" xlink:href="#DejaVuSans-48"/>
       <use x="127.246094" xlink:href="#DejaVuSans-48"/>
       <use x="190.869141" xlink:href="#DejaVuSans-48"/>
       <use x="254.492188" xlink:href="#DejaVuSans-48"/>
      </g>
     </g>
    </g>
    <g id="ytick_4">
     <g id="line2d_4">
      <path clip-path="url(#pb1178076cb)" d="M 58.418125 230.823251 
L 985.263125 230.823251 
" style="fill:none;stroke:#dedede;stroke-linecap:square;"/>
     </g>
     <g id="text_11">
      <!-- 75000 -->
      <defs>
       <path d="M 8.203125 72.90625 
L 55.078125 72.90625 
L 55.078125 68.703125 
L 28.609375 0 
L 18.3125 0 
L 43.21875 64.59375 
L 8.203125 64.59375 
z
" id="DejaVuSans-55"/>
      </defs>
      <g transform="translate(25.968125 233.862626)scale(0.08 -0.08)">
       <use xlink:href="#DejaVuSans-55"/>
       <use x="63.623047" xlink:href="#DejaVuSans-53"/>
       <use x="127.246094" xlink:href="#DejaVuSans-48"/>
       <use x="190.869141" xlink:href="#DejaVuSans-48"/>
       <use x="254.492188" xlink:href="#DejaVuSans-48"/>
      </g>
     </g>
    </g>
    <g id="ytick_5">
     <g id="line2d_5">
      <path clip-path="url(#pb1178076cb)" d="M 58.418125 190.023034 
L 985.263125 190.023034 
" style="fill:none;stroke:#dedede;stroke-linecap:square;"/>
     </g>
     <g id="text_12">
      <!-- 100000 -->
      <g transform="translate(20.878125 193.062409)scale(0.08 -0.08)">
       <use xlink:href="#DejaVuSans-49"/>
       <use x="63.623047" xlink:href="#DejaVuSans-48"/>
       <use x="127.246094" xlink:href="#DejaVuSans-48"/>
       <use x="190.869141" xlink:href="#DejaVuSans-48"/>
       <use x="254.492188" xlink:href="#DejaVuSans-48"/>
       <use x="318.115234" xlink:href="#DejaVuSans-48"/>
      </g>
     </g>
    </g>
    <g id="ytick_6">
     <g id="line2d_6">
      <path clip-path="url(#pb1178076cb)" d="M 58.418125 149.222818 
L 985.263125 149.222818 
" style="fill:none;stroke:#dedede;stroke-linecap:square;"/>
     </g>
     <g id="text_13">
      <!-- 125000 -->
      <g transform="translate(20.878125 152.262193)scale(0.08 -0.08)">
       <use xlink:href="#DejaVuSans-49"/>
       <use x="63.623047" xlink:href="#DejaVuSans-50"/>
       <use x="127.246094" xlink:href="#DejaVuSans-53"/>
       <use x="190.869141" xlink:href="#DejaVuSans-48"/>
       <use x="254.492188" xlink:href="#DejaVuSans-48"/>
       <use x="318.115234" xlink:href="#DejaVuSans-48"/>
      </g>
     </g>
    </g>
    <g id="ytick_7">
     <g id="line2d_7">
      <path clip-path="url(#pb1178076cb)" d="M 58.418125 108.422602 
L 985.263125 108.422602 
" style="fill:none;stroke:#dedede;stroke-linecap:square;"/>
     </g>
     <g id="text_14">
      <!-- 150000 -->
      <g transform="translate(20.878125 111.461977)scale(0.08 -0.08)">
       <use xlink:href="#DejaVuSans-49"/>
       <use x="63.623047" xlink:href="#DejaVuSans-53"/>
       <use x="127.246094" xlink:href="#DejaVuSans-48"/>
       <use x="190.869141" xlink:href="#DejaVuSans-48"/>
       <use x="254.492188" xlink:href="#DejaVuSans-48"/>
       <use x="318.115234" xlink:href="#DejaVuSans-48"/>
      </g>
     </g>
    </g>
    <g id="ytick_8">
     <g id="line2d_8">
      <path clip-path="url(#pb1178076cb)" d="M 58.418125 67.622385 
L 985.263125 67.622385 
" style="fill:none;stroke:#dedede;stroke-linecap:square;"/>
     </g>
     <g id="text_15">
      <!-- 175000 -->
      <g transform="translate(20.878125 70.66176)scale(0.08 -0.08)">
       <use xlink:href="#DejaVuSans-49"/>
       <use x="63.623047" xlink:href="#DejaVuSans-55"/>
       <use x="127.246094" xlink:href="#DejaVuSans-53"/>
       <use x="190.869141" xlink:href="#DejaVuSans-48"/>
       <use x="254.492188" xlink:href="#DejaVuSans-48"/>
       <use x="318.115234" xlink:href="#DejaVuSans-48"/>
      </g>
     </g>
    </g>
    <g id="text_16">
     <!-- Number of Junctions -->
     <defs>
      <path d="M 9.8125 72.90625 
L 23.09375 72.90625 
L 55.421875 11.921875 
L 55.421875 72.90625 
L 64.984375 72.90625 
L 64.984375 0 
L 51.703125 0 
L 19.390625 60.984375 
L 19.390625 0 
L 9.8125 0 
z
" id="DejaVuSans-78"/>
      <path d="M 8.5 21.578125 
L 8.5 54.6875 
L 17.484375 54.6875 
L 17.484375 21.921875 
Q 17.484375 14.15625 20.5 10.265625 
Q 23.53125 6.390625 29.59375 6.390625 
Q 36.859375 6.390625 41.078125 11.03125 
Q 45.3125 15.671875 45.3125 23.6875 
L 45.3125 54.6875 
L 54.296875 54.6875 
L 54.296875 0 
L 45.3125 0 
L 45.3125 8.40625 
Q 42.046875 3.421875 37.71875 1 
Q 33.40625 -1.421875 27.6875 -1.421875 
Q 18.265625 -1.421875 13.375 4.4375 
Q 8.5 10.296875 8.5 21.578125 
z
M 31.109375 56 
z
" id="DejaVuSans-117"/>
      <path d="M 52 44.1875 
Q 55.375 50.25 60.0625 53.125 
Q 64.75 56 71.09375 56 
Q 79.640625 56 84.28125 50.015625 
Q 88.921875 44.046875 88.921875 33.015625 
L 88.921875 0 
L 79.890625 0 
L 79.890625 32.71875 
Q 79.890625 40.578125 77.09375 44.375 
Q 74.3125 48.1875 68.609375 48.1875 
Q 61.625 48.1875 57.5625 43.546875 
Q 53.515625 38.921875 53.515625 30.90625 
L 53.515625 0 
L 44.484375 0 
L 44.484375 32.71875 
Q 44.484375 40.625 41.703125 44.40625 
Q 38.921875 48.1875 33.109375 48.1875 
Q 26.21875 48.1875 22.15625 43.53125 
Q 18.109375 38.875 18.109375 30.90625 
L 18.109375 0 
L 9.078125 0 
L 9.078125 54.6875 
L 18.109375 54.6875 
L 18.109375 46.1875 
Q 21.1875 51.21875 25.484375 53.609375 
Q 29.78125 56 35.6875 56 
Q 41.65625 56 45.828125 52.96875 
Q 50 49.953125 52 44.1875 
z
" id="DejaVuSans-109"/>
      <path d="M 48.6875 27.296875 
Q 48.6875 37.203125 44.609375 42.84375 
Q 40.53125 48.484375 33.40625 48.484375 
Q 26.265625 48.484375 22.1875 42.84375 
Q 18.109375 37.203125 18.109375 27.296875 
Q 18.109375 17.390625 22.1875 11.75 
Q 26.265625 6.109375 33.40625 6.109375 
Q 40.53125 6.109375 44.609375 11.75 
Q 48.6875 17.390625 48.6875 27.296875 
z
M 18.109375 46.390625 
Q 20.953125 51.265625 25.265625 53.625 
Q 29.59375 56 35.59375 56 
Q 45.5625 56 51.78125 48.09375 
Q 58.015625 40.1875 58.015625 27.296875 
Q 58.015625 14.40625 51.78125 6.484375 
Q 45.5625 -1.421875 35.59375 -1.421875 
Q 29.59375 -1.421875 25.265625 0.953125 
Q 20.953125 3.328125 18.109375 8.203125 
L 18.109375 0 
L 9.078125 0 
L 9.078125 75.984375 
L 18.109375 75.984375 
z
" id="DejaVuSans-98"/>
      <path d="M 9.8125 72.90625 
L 19.671875 72.90625 
L 19.671875 5.078125 
Q 19.671875 -8.109375 14.671875 -14.0625 
Q 9.671875 -20.015625 -1.421875 -20.015625 
L -5.171875 -20.015625 
L -5.171875 -11.71875 
L -2.09375 -11.71875 
Q 4.4375 -11.71875 7.125 -8.046875 
Q 9.8125 -4.390625 9.8125 5.078125 
z
" id="DejaVuSans-74"/>
      <path d="M 9.421875 54.6875 
L 18.40625 54.6875 
L 18.40625 0 
L 9.421875 0 
z
M 9.421875 75.984375 
L 18.40625 75.984375 
L 18.40625 64.59375 
L 9.421875 64.59375 
z
" id="DejaVuSans-105"/>
     </defs>
     <g transform="translate(14.798438 245.067244)rotate(-90)scale(0.1 -0.1)">
      <use xlink:href="#DejaVuSans-78"/>
      <use x="74.804688" xlink:href="#DejaVuSans-117"/>
      <use x="138.183594" xlink:href="#DejaVuSans-109"/>
      <use x="235.595703" xlink:href="#DejaVuSans-98"/>
      <use x="299.072266" xlink:href="#DejaVuSans-101"/>
      <use x="360.595703" xlink:href="#DejaVuSans-114"/>
      <use x="401.708984" xlink:href="#DejaVuSans-32"/>
      <use x="433.496094" xlink:href="#DejaVuSans-111"/>
      <use x="494.677734" xlink:href="#DejaVuSans-102"/>
      <use x="529.882812" xlink:href="#DejaVuSans-32"/>
      <use x="561.669922" xlink:href="#DejaVuSans-74"/>
      <use x="591.162109" xlink:href="#DejaVuSans-117"/>
      <use x="654.541016" xlink:href="#DejaVuSans-110"/>
      <use x="717.919922" xlink:href="#DejaVuSans-99"/>
      <use x="772.900391" xlink:href="#DejaVuSans-116"/>
      <use x="812.109375" xlink:href="#DejaVuSans-105"/>
      <use x="839.892578" xlink:href="#DejaVuSans-111"/>
      <use x="901.074219" xlink:href="#DejaVuSans-110"/>
      <use x="964.453125" xlink:href="#DejaVuSans-115"/>
     </g>
    </g>
   </g>
   <g id="line2d_9">
    <path clip-path="url(#pb1178076cb)" d="M 104.760375 199.389132 
L 151.102625 172.986496 
L 197.444875 159.03935 
L 243.787125 149.759749 
L 290.129375 143.058721 
L 336.471625 138.066407 
L 382.813875 134.121842 
L 429.156125 130.910049 
L 475.498375 128.228659 
L 521.840625 125.943847 
L 568.182875 124.067037 
L 614.525125 122.356692 
L 660.867375 120.89278 
L 707.209625 119.650821 
L 753.551875 118.475775 
L 799.894125 117.530842 
L 846.236375 116.734422 
L 892.578625 116.044082 
L 938.920875 115.474511 
L 985.263125 115.004493 
" style="fill:none;stroke:#7cb5ec;stroke-linecap:square;"/>
   </g>
   <g id="line2d_10">
    <path clip-path="url(#pb1178076cb)" d="M 104.760375 193.167915 
L 151.102625 165.407448 
L 197.444875 150.451721 
L 243.787125 140.633556 
L 290.129375 133.491887 
L 336.471625 127.967537 
L 382.813875 123.489306 
L 429.156125 119.895623 
L 475.498375 116.951479 
L 521.840625 114.374537 
L 568.182875 112.145213 
L 614.525125 110.209651 
L 660.867375 108.618443 
L 707.209625 107.216547 
L 753.551875 105.959901 
L 799.894125 104.848503 
L 846.236375 104.00965 
L 892.578625 103.27035 
L 938.920875 102.607755 
L 985.263125 102.023496 
" style="fill:none;stroke:#434348;stroke-linecap:square;"/>
   </g>
   <g id="line2d_11">
    <path clip-path="url(#pb1178076cb)" d="M 104.760375 184.542749 
L 151.102625 153.738586 
L 197.444875 136.512735 
L 243.787125 124.76064 
L 290.129375 115.549583 
L 336.471625 108.349161 
L 382.813875 102.573483 
L 429.156125 97.551792 
L 475.498375 93.33305 
L 521.840625 89.541894 
L 568.182875 86.26482 
L 614.525125 83.377797 
L 660.867375 80.875928 
L 707.209625 78.718412 
L 753.551875 76.738786 
L 799.894125 75.01212 
L 846.236375 73.518833 
L 892.578625 72.30625 
L 938.920875 71.251973 
L 985.263125 70.357632 
" style="fill:none;stroke:#90ed7d;stroke-linecap:square;"/>
   </g>
   <g id="line2d_12">
    <path clip-path="url(#pb1178076cb)" d="M 104.760375 199.132907 
L 151.102625 169.440141 
L 197.444875 153.353432 
L 243.787125 142.564223 
L 290.129375 134.47762 
L 336.471625 128.223763 
L 382.813875 123.189016 
L 429.156125 118.950689 
L 475.498375 115.366798 
L 521.840625 112.380223 
L 568.182875 109.826129 
L 614.525125 107.469509 
L 660.867375 105.43113 
L 707.209625 103.55432 
L 753.551875 102.005544 
L 799.894125 100.575904 
L 846.236375 99.462874 
L 892.578625 98.495093 
L 938.920875 97.612176 
L 985.263125 96.871244 
" style="fill:none;stroke:#f7a35c;stroke-linecap:square;"/>
   </g>
   <g id="line2d_13">
    <path clip-path="url(#pb1178076cb)" d="M 104.760375 258.960712 
L 151.102625 238.885374 
L 197.444875 228.48295 
L 243.787125 222.060996 
L 290.129375 217.654573 
L 336.471625 214.259995 
L 382.813875 211.663469 
L 429.156125 209.541858 
L 475.498375 207.784185 
L 521.840625 206.321905 
L 568.182875 205.057098 
L 614.525125 204.041989 
L 660.867375 203.085632 
L 707.209625 202.294108 
L 753.551875 201.649464 
L 799.894125 201.070101 
L 846.236375 200.536434 
L 892.578625 200.125168 
L 938.920875 199.77755 
L 985.263125 199.446252 
" style="fill:none;stroke:#8085e9;stroke-linecap:square;"/>
   </g>
   <g id="line2d_14">
    <path clip-path="url(#pb1178076cb)" d="M 104.760375 205.554861 
L 151.102625 174.43572 
L 197.444875 157.095628 
L 243.787125 145.452878 
L 290.129375 136.726528 
L 336.471625 129.793755 
L 382.813875 124.316734 
L 429.156125 119.698149 
L 475.498375 115.673616 
L 521.840625 112.225182 
L 568.182875 109.27451 
L 614.525125 106.771009 
L 660.867375 104.605333 
L 707.209625 102.625707 
L 753.551875 101.047555 
L 799.894125 99.565691 
L 846.236375 98.30578 
L 892.578625 97.267822 
L 938.920875 96.378378 
L 985.263125 95.643974 
" style="fill:none;stroke:#f15c80;stroke-linecap:square;"/>
   </g>
   <g id="line2d_15">
    <path clip-path="url(#pb1178076cb)" d="M 104.760375 201.122325 
L 151.102625 167.941957 
L 197.444875 149.377859 
L 243.787125 136.705312 
L 290.129375 127.167853 
L 336.471625 119.565957 
L 382.813875 113.423076 
L 429.156125 108.386697 
L 475.498375 103.983538 
L 521.840625 100.11731 
L 568.182875 96.890828 
L 614.525125 94.049501 
L 660.867375 91.48072 
L 707.209625 89.264452 
L 753.551875 87.35337 
L 799.894125 85.598961 
L 846.236375 84.128521 
L 892.578625 82.880034 
L 938.920875 81.860029 
L 985.263125 80.911832 
" style="fill:none;stroke:#e4d354;stroke-linecap:square;"/>
   </g>
   <g id="line2d_16">
    <path clip-path="url(#pb1178076cb)" d="M 104.760375 192.650568 
L 151.102625 158.158065 
L 197.444875 137.864038 
L 243.787125 123.960956 
L 290.129375 113.217443 
L 336.471625 104.778326 
L 382.813875 97.897778 
L 429.156125 91.973586 
L 475.498375 86.752791 
L 521.840625 82.285983 
L 568.182875 78.411594 
L 614.525125 74.969688 
L 660.867375 72.089193 
L 707.209625 69.461659 
L 753.551875 67.153999 
L 799.894125 65.154788 
L 846.236375 63.369371 
L 892.578625 61.892403 
L 938.920875 60.560684 
L 985.263125 59.455814 
" style="fill:none;stroke:#2b908f;stroke-linecap:square;"/>
   </g>
   <g id="line2d_17">
    <path clip-path="url(#pb1178076cb)" d="M 104.760375 181.109003 
L 151.102625 149.652036 
L 197.444875 132.005127 
L 243.787125 120.156744 
L 290.129375 111.526682 
L 336.471625 104.913783 
L 382.813875 99.526522 
L 429.156125 95.071139 
L 475.498375 91.252239 
L 521.840625 88.029021 
L 568.182875 85.266031 
L 614.525125 82.814754 
L 660.867375 80.640918 
L 707.209625 78.863661 
L 753.551875 77.234916 
L 799.894125 75.836285 
L 846.236375 74.679191 
L 892.578625 73.667345 
L 938.920875 72.792589 
L 985.263125 72.077769 
" style="fill:none;stroke:#f45b5b;stroke-linecap:square;"/>
   </g>
   <g id="line2d_18">
    <path clip-path="url(#pb1178076cb)" d="M 104.760375 198.036197 
L 151.102625 166.14022 
L 197.444875 148.37907 
L 243.787125 136.03782 
L 290.129375 126.890412 
L 336.471625 119.941319 
L 382.813875 113.958375 
L 429.156125 109.328366 
L 475.498375 105.274457 
L 521.840625 101.834183 
L 568.182875 98.925943 
L 614.525125 96.353898 
L 660.867375 94.152318 
L 707.209625 92.136787 
L 753.551875 90.410122 
L 799.894125 88.951106 
L 846.236375 87.665084 
L 892.578625 86.504725 
L 938.920875 85.572848 
L 985.263125 84.782956 
" style="fill:none;stroke:#91e8e1;stroke-linecap:square;"/>
   </g>
   <g id="line2d_19">
    <path clip-path="url(#pb1178076cb)" d="M 104.760375 175.977968 
L 151.102625 147.590809 
L 197.444875 132.006759 
L 243.787125 121.069037 
L 290.129375 112.877985 
L 336.471625 106.234078 
L 382.813875 100.85661 
L 429.156125 96.42897 
L 475.498375 92.580694 
L 521.840625 89.272612 
L 568.182875 86.26482 
L 614.525125 83.723783 
L 660.867375 81.528731 
L 707.209625 79.550737 
L 753.551875 77.881192 
L 799.894125 76.345472 
L 846.236375 74.997432 
L 892.578625 73.846866 
L 938.920875 72.924781 
L 985.263125 72.105513 
" style="fill:none;stroke:#7cb5ec;stroke-linecap:square;"/>
   </g>
   <g id="line2d_20">
    <path clip-path="url(#pb1178076cb)" d="M 104.760375 185.561123 
L 151.102625 157.134796 
L 197.444875 141.689466 
L 243.787125 131.172802 
L 290.129375 123.203704 
L 336.471625 116.912311 
L 382.813875 111.601755 
L 429.156125 107.369956 
L 475.498375 103.818705 
L 521.840625 100.668929 
L 568.182875 97.971218 
L 614.525125 95.666822 
L 660.867375 93.540315 
L 707.209625 91.699409 
L 753.551875 90.127785 
L 799.894125 88.755265 
L 846.236375 87.483931 
L 892.578625 86.344789 
L 938.920875 85.461872 
L 985.263125 84.693196 
" style="fill:none;stroke:#434348;stroke-linecap:square;"/>
   </g>
   <g id="line2d_21">
    <path clip-path="url(#pb1178076cb)" d="M 104.760375 230.916275 
L 151.102625 208.634461 
L 197.444875 197.401346 
L 243.787125 190.460413 
L 290.129375 185.703108 
L 336.471625 182.138801 
L 382.813875 179.488419 
L 429.156125 177.265623 
L 475.498375 175.527534 
L 521.840625 173.951013 
L 568.182875 172.661726 
L 614.525125 171.576441 
L 660.867375 170.659252 
L 707.209625 169.822031 
L 753.551875 169.123532 
L 799.894125 168.518056 
L 846.236375 168.010502 
L 892.578625 167.538851 
L 938.920875 167.168385 
L 985.263125 166.850144 
" style="fill:none;stroke:#90ed7d;stroke-linecap:square;"/>
   </g>
   <g id="line2d_22">
    <path clip-path="url(#pb1178076cb)" d="M 104.760375 183.971546 
L 151.102625 156.80513 
L 197.444875 141.914683 
L 243.787125 131.992071 
L 290.129375 124.506047 
L 336.471625 118.735264 
L 382.813875 114.0514 
L 429.156125 110.141107 
L 475.498375 106.842817 
L 521.840625 104.141843 
L 568.182875 101.599173 
L 614.525125 99.469402 
L 660.867375 97.63992 
L 707.209625 95.929575 
L 753.551875 94.411807 
L 799.894125 93.181273 
L 846.236375 92.079667 
L 892.578625 91.103726 
L 938.920875 90.246921 
L 985.263125 89.600646 
" style="fill:none;stroke:#f7a35c;stroke-linecap:square;"/>
   </g>
   <g id="line2d_23">
    <path clip-path="url(#pb1178076cb)" d="M 104.760375 202.124379 
L 151.102625 173.776388 
L 197.444875 158.339218 
L 243.787125 147.843771 
L 290.129375 140.037873 
L 336.471625 133.642031 
L 382.813875 128.586069 
L 429.156125 124.326526 
L 475.498375 120.8683 
L 521.840625 117.772379 
L 568.182875 115.172589 
L 614.525125 112.861665 
L 660.867375 110.733526 
L 707.209625 108.977485 
L 753.551875 107.347108 
L 799.894125 105.86198 
L 846.236375 104.616757 
L 892.578625 103.606544 
L 938.920875 102.628971 
L 985.263125 101.886407 
" style="fill:none;stroke:#8085e9;stroke-linecap:square;"/>
   </g>
   <g id="line2d_24">
    <path clip-path="url(#pb1178076cb)" d="M 104.760375 200.670259 
L 151.102625 172.67315 
L 197.444875 157.351853 
L 243.787125 147.102839 
L 290.129375 139.558063 
L 336.471625 133.473935 
L 382.813875 128.574645 
L 429.156125 124.484831 
L 475.498375 121.047821 
L 521.840625 118.026973 
L 568.182875 115.590384 
L 614.525125 113.362692 
L 660.867375 111.448346 
L 707.209625 109.738001 
L 753.551875 108.292041 
L 799.894125 106.984802 
L 846.236375 105.901148 
L 892.578625 104.923575 
L 938.920875 104.073299 
L 985.263125 103.374799 
" style="fill:none;stroke:#f15c80;stroke-linecap:square;"/>
   </g>
   <g id="line2d_25">
    <path clip-path="url(#pb1178076cb)" d="M 104.760375 220.95123 
L 151.102625 191.537538 
L 197.444875 175.396973 
L 243.787125 164.457619 
L 290.129375 156.33348 
L 336.471625 149.880518 
L 382.813875 144.734794 
L 429.156125 140.321843 
L 475.498375 136.527423 
L 521.840625 133.34827 
L 568.182875 130.480831 
L 614.525125 127.993649 
L 660.867375 125.84919 
L 707.209625 123.916892 
L 753.551875 122.297939 
L 799.894125 120.838924 
L 846.236375 119.554533 
L 892.578625 118.505151 
L 938.920875 117.506362 
L 985.263125 116.657717 
" style="fill:none;stroke:#e4d354;stroke-linecap:square;"/>
   </g>
   <g id="line2d_26">
    <path clip-path="url(#pb1178076cb)" d="M 104.760375 214.054362 
L 151.102625 190.483261 
L 197.444875 178.878047 
L 243.787125 171.83593 
L 290.129375 166.874624 
L 336.471625 163.24014 
L 382.813875 160.44451 
L 429.156125 158.136849 
L 475.498375 156.299208 
L 521.840625 154.750431 
L 568.182875 153.451352 
L 614.525125 152.251826 
L 660.867375 151.282413 
L 707.209625 150.430504 
L 753.551875 149.733637 
L 799.894125 149.074305 
L 846.236375 148.457406 
L 892.578625 147.966171 
L 938.920875 147.556537 
L 985.263125 147.166487 
" style="fill:none;stroke:#2b908f;stroke-linecap:square;"/>
   </g>
   <g id="line2d_27">
    <path clip-path="url(#pb1178076cb)" d="M 104.760375 186.51748 
L 151.102625 157.126636 
L 197.444875 141.250456 
L 243.787125 129.989596 
L 290.129375 121.70552 
L 336.471625 115.201966 
L 382.813875 109.739633 
L 429.156125 105.249977 
L 475.498375 101.3609 
L 521.840625 97.971218 
L 568.182875 95.012387 
L 614.525125 92.556214 
L 660.867375 90.486827 
L 707.209625 88.637761 
L 753.551875 86.943736 
L 799.894125 85.434128 
L 846.236375 84.073033 
L 892.578625 82.878402 
L 938.920875 81.868189 
L 985.263125 81.030968 
" style="fill:none;stroke:#f45b5b;stroke-linecap:square;"/>
   </g>
   <g id="line2d_28">
    <path clip-path="url(#pb1178076cb)" d="M 104.760375 219.077685 
L 151.102625 192.311111 
L 197.444875 178.186076 
L 243.787125 169.040299 
L 290.129375 162.690153 
L 336.471625 157.660303 
L 382.813875 153.885467 
L 429.156125 150.812394 
L 475.498375 148.259933 
L 521.840625 146.182386 
L 568.182875 144.405128 
L 614.525125 142.807392 
L 660.867375 141.390809 
L 707.209625 140.241874 
L 753.551875 139.226765 
L 799.894125 138.330792 
L 846.236375 137.410339 
L 892.578625 136.73632 
L 938.920875 136.147165 
L 985.263125 135.633082 
" style="fill:none;stroke:#91e8e1;stroke-linecap:square;"/>
   </g>
   <g id="line2d_29">
    <path clip-path="url(#pb1178076cb)" d="M 104.760375 195.725273 
L 151.102625 164.061041 
L 197.444875 146.164434 
L 243.787125 134.074514 
L 290.129375 125.067458 
L 336.471625 117.930684 
L 382.813875 112.17459 
L 429.156125 107.498885 
L 475.498375 103.400911 
L 521.840625 99.945949 
L 568.182875 96.905517 
L 614.525125 94.416703 
L 660.867375 92.141683 
L 707.209625 90.033128 
L 753.551875 88.162846 
L 799.894125 86.658134 
L 846.236375 85.279087 
L 892.578625 84.175849 
L 938.920875 83.22602 
L 985.263125 82.38064 
" style="fill:none;stroke:#7cb5ec;stroke-linecap:square;"/>
   </g>
   <g id="line2d_30">
    <path clip-path="url(#pb1178076cb)" d="M 104.760375 191.096896 
L 151.102625 159.3886 
L 197.444875 141.589914 
L 243.787125 129.369433 
L 290.129375 120.22692 
L 336.471625 113.112995 
L 382.813875 107.485829 
L 429.156125 102.736683 
L 475.498375 98.689302 
L 521.840625 95.366532 
L 568.182875 92.428917 
L 614.525125 89.99396 
L 660.867375 87.780956 
L 707.209625 85.791538 
L 753.551875 84.120361 
L 799.894125 82.643393 
L 846.236375 81.310042 
L 892.578625 80.141524 
L 938.920875 79.13947 
L 985.263125 78.338154 
" style="fill:none;stroke:#434348;stroke-linecap:square;"/>
   </g>
   <g id="line2d_31">
    <path clip-path="url(#pb1178076cb)" d="M 104.760375 181.871151 
L 151.102625 149.408867 
L 197.444875 130.896993 
L 243.787125 118.446399 
L 290.129375 109.210862 
L 336.471625 101.943527 
L 382.813875 96.140105 
L 429.156125 91.06619 
L 475.498375 86.904568 
L 521.840625 83.539366 
L 568.182875 80.422229 
L 614.525125 77.709831 
L 660.867375 75.464187 
L 707.209625 73.42744 
L 753.551875 71.756263 
L 799.894125 70.249919 
L 846.236375 68.91004 
L 892.578625 67.759474 
L 938.920875 66.786797 
L 985.263125 65.921832 
" style="fill:none;stroke:#90ed7d;stroke-linecap:square;"/>
   </g>
   <g id="line2d_32">
    <path clip-path="url(#pb1178076cb)" d="M 104.760375 185.7945 
L 151.102625 150.898891 
L 197.444875 130.428606 
L 243.787125 115.547951 
L 290.129375 104.489461 
L 336.471625 95.361636 
L 382.813875 87.748316 
L 429.156125 81.425914 
L 475.498375 75.841181 
L 521.840625 71.158948 
L 568.182875 66.91899 
L 614.525125 63.158842 
L 660.867375 59.827912 
L 707.209625 56.991481 
L 753.551875 54.532044 
L 799.894125 52.22112 
L 846.236375 50.321462 
L 892.578625 48.542572 
L 938.920875 47.165157 
L 985.263125 45.98195 
" style="fill:none;stroke:#f7a35c;stroke-linecap:square;"/>
   </g>
   <g id="line2d_33">
    <path clip-path="url(#pb1178076cb)" d="M 104.760375 174.133798 
L 151.102625 146.15301 
L 197.444875 130.322526 
L 243.787125 119.345636 
L 290.129375 110.888567 
L 336.471625 104.442133 
L 382.813875 98.922679 
L 429.156125 94.517888 
L 475.498375 90.656555 
L 521.840625 87.340314 
L 568.182875 84.317834 
L 614.525125 81.848605 
L 660.867375 79.622545 
L 707.209625 77.700039 
L 753.551875 76.009278 
L 799.894125 74.436021 
L 846.236375 73.081454 
L 892.578625 71.909672 
L 938.920875 70.925571 
L 985.263125 70.093246 
" style="fill:none;stroke:#8085e9;stroke-linecap:square;"/>
   </g>
   <g id="line2d_34">
    <path clip-path="url(#pb1178076cb)" d="M 104.760375 193.753806 
L 151.102625 164.589812 
L 197.444875 148.276253 
L 243.787125 137.325475 
L 290.129375 128.83903 
L 336.471625 121.987858 
L 382.813875 116.525525 
L 429.156125 111.840028 
L 475.498375 107.870983 
L 521.840625 104.414388 
L 568.182875 101.3609 
L 614.525125 98.694198 
L 660.867375 96.260873 
L 707.209625 94.17027 
L 753.551875 92.355476 
L 799.894125 90.752844 
L 846.236375 89.373797 
L 892.578625 88.131838 
L 938.920875 87.057976 
L 985.263125 86.130995 
" style="fill:none;stroke:#f15c80;stroke-linecap:square;"/>
   </g>
   <g id="line2d_35">
    <path clip-path="url(#pb1178076cb)" d="M 104.760375 182.928693 
L 151.102625 155.404867 
L 197.444875 139.970961 
L 243.787125 129.207864 
L 290.129375 121.295886 
L 336.471625 115.019181 
L 382.813875 109.651504 
L 429.156125 105.104728 
L 475.498375 101.445765 
L 521.840625 98.173587 
L 568.182875 95.30778 
L 614.525125 92.840183 
L 660.867375 90.663083 
L 707.209625 88.750369 
L 753.551875 87.007384 
L 799.894125 85.383535 
L 846.236375 83.975112 
L 892.578625 82.822914 
L 938.920875 81.791484 
L 985.263125 80.933048 
" style="fill:none;stroke:#e4d354;stroke-linecap:square;"/>
   </g>
   <g id="line2d_36">
    <path clip-path="url(#pb1178076cb)" d="M 104.760375 204.107269 
L 151.102625 174.944906 
L 197.444875 158.468147 
L 243.787125 147.099575 
L 290.129375 138.732266 
L 336.471625 131.872934 
L 382.813875 126.067879 
L 429.156125 121.245294 
L 475.498375 117.238712 
L 521.840625 113.744582 
L 568.182875 110.681302 
L 614.525125 107.981959 
L 660.867375 105.522522 
L 707.209625 103.495568 
L 753.551875 101.610598 
L 799.894125 99.942685 
L 846.236375 98.501621 
L 892.578625 97.244974 
L 938.920875 96.143369 
L 985.263125 95.244132 
" style="fill:none;stroke:#2b908f;stroke-linecap:square;"/>
   </g>
   <g id="line2d_37">
    <path clip-path="url(#pb1178076cb)" d="M 104.760375 198.493159 
L 151.102625 169.639246 
L 197.444875 153.949115 
L 243.787125 143.337795 
L 290.129375 135.476409 
L 336.471625 129.353113 
L 382.813875 124.421183 
L 429.156125 120.176328 
L 475.498375 116.644661 
L 521.840625 113.486725 
L 568.182875 110.69599 
L 614.525125 108.460138 
L 660.867375 106.480511 
L 707.209625 104.628182 
L 753.551875 103.036973 
L 799.894125 101.622022 
L 846.236375 100.365375 
L 892.578625 99.319257 
L 938.920875 98.361268 
L 985.263125 97.481616 
" style="fill:none;stroke:#f45b5b;stroke-linecap:square;"/>
   </g>
   <g id="line2d_38">
    <path clip-path="url(#pb1178076cb)" d="M 104.760375 204.223142 
L 151.102625 175.566702 
L 197.444875 159.732954 
L 243.787125 149.242402 
L 290.129375 141.452825 
L 336.471625 135.18428 
L 382.813875 130.200125 
L 429.156125 125.960167 
L 475.498375 122.361588 
L 521.840625 119.264035 
L 568.182875 116.577749 
L 614.525125 114.335369 
L 660.867375 112.285566 
L 707.209625 110.454452 
L 753.551875 108.799596 
L 799.894125 107.325892 
L 846.236375 106.141054 
L 892.578625 105.101464 
L 938.920875 104.207123 
L 985.263125 103.461295 
" style="fill:none;stroke:#91e8e1;stroke-linecap:square;"/>
   </g>
   <g id="line2d_39">
    <path clip-path="url(#pb1178076cb)" d="M 104.760375 201.132117 
L 151.102625 172.655198 
L 197.444875 156.862251 
L 243.787125 146.208498 
L 290.129375 138.484201 
L 336.471625 132.380489 
L 382.813875 127.386542 
L 429.156125 123.113944 
L 475.498375 119.448452 
L 521.840625 116.463508 
L 568.182875 113.860454 
L 614.525125 111.572378 
L 660.867375 109.537264 
L 707.209625 107.704518 
L 753.551875 106.134526 
L 799.894125 104.72447 
L 846.236375 103.464559 
L 892.578625 102.358057 
L 938.920875 101.373956 
L 985.263125 100.569376 
" style="fill:none;stroke:#7cb5ec;stroke-linecap:square;"/>
   </g>
   <g id="line2d_40">
    <path clip-path="url(#pb1178076cb)" d="M 104.760375 182.223665 
L 151.102625 151.359117 
L 197.444875 133.475567 
L 243.787125 120.362377 
L 290.129375 110.336948 
L 336.471625 102.315625 
L 382.813875 95.436709 
L 429.156125 89.548422 
L 475.498375 84.575691 
L 521.840625 80.270452 
L 568.182875 76.577217 
L 614.525125 73.331152 
L 660.867375 70.245023 
L 707.209625 67.486929 
L 753.551875 65.17274 
L 799.894125 63.168634 
L 846.236375 61.34568 
L 892.578625 59.78548 
L 938.920875 58.439073 
L 985.263125 57.286874 
" style="fill:none;stroke:#434348;stroke-linecap:square;"/>
   </g>
   <g id="line2d_41">
    <path clip-path="url(#pb1178076cb)" d="M 104.760375 207.430039 
L 151.102625 181.66715 
L 197.444875 168.287943 
L 243.787125 159.711738 
L 290.129375 153.44156 
L 336.471625 148.636927 
L 382.813875 144.829451 
L 429.156125 141.924475 
L 475.498375 139.39323 
L 521.840625 137.279779 
L 568.182875 135.453561 
L 614.525125 133.818288 
L 660.867375 132.486569 
L 707.209625 131.298467 
L 753.551875 130.232765 
L 799.894125 129.282936 
L 846.236375 128.396756 
L 892.578625 127.639504 
L 938.920875 127.03566 
L 985.263125 126.485673 
" style="fill:none;stroke:#90ed7d;stroke-linecap:square;"/>
   </g>
   <g id="line2d_42">
    <path clip-path="url(#pb1178076cb)" d="M 104.760375 181.479469 
L 151.102625 150.949483 
L 197.444875 133.692624 
L 243.787125 121.677776 
L 290.129375 112.438975 
L 336.471625 105.170008 
L 382.813875 99.187065 
L 429.156125 94.158846 
L 475.498375 89.829127 
L 521.840625 86.173428 
L 568.182875 82.969795 
L 614.525125 80.16274 
L 660.867375 77.713095 
L 707.209625 75.655132 
L 753.551875 73.672241 
L 799.894125 71.988008 
L 846.236375 70.522465 
L 892.578625 69.236442 
L 938.920875 68.141364 
L 985.263125 67.217647 
" style="fill:none;stroke:#f7a35c;stroke-linecap:square;"/>
   </g>
   <g id="line2d_43">
    <path clip-path="url(#pb1178076cb)" d="M 104.760375 183.457464 
L 151.102625 148.548798 
L 197.444875 128.089938 
L 243.787125 113.457348 
L 290.129375 102.345001 
L 336.471625 93.537051 
L 382.813875 86.104883 
L 429.156125 79.82981 
L 475.498375 74.535574 
L 521.840625 69.877821 
L 568.182875 65.761895 
L 614.525125 62.153524 
L 660.867375 59.00538 
L 707.209625 56.273397 
L 753.551875 53.920041 
L 799.894125 51.840862 
L 846.236375 50.094612 
L 892.578625 48.519724 
L 938.920875 47.10314 
L 985.263125 45.90851 
" style="fill:none;stroke:#8085e9;stroke-linecap:square;"/>
   </g>
   <g id="line2d_44">
    <path clip-path="url(#pb1178076cb)" d="M 104.760375 197.119008 
L 151.102625 164.872149 
L 197.444875 146.378227 
L 243.787125 133.646927 
L 290.129375 124.261246 
L 336.471625 116.744214 
L 382.813875 110.774326 
L 429.156125 105.801596 
L 475.498375 101.781958 
L 521.840625 98.199699 
L 568.182875 95.270244 
L 614.525125 92.654134 
L 660.867375 90.349738 
L 707.209625 88.348895 
L 753.551875 86.571638 
L 799.894125 85.096302 
L 846.236375 83.828231 
L 892.578625 82.739681 
L 938.920875 81.757212 
L 985.263125 80.990168 
" style="fill:none;stroke:#f15c80;stroke-linecap:square;"/>
   </g>
   <g id="line2d_45">
    <path clip-path="url(#pb1178076cb)" d="M 104.760375 166.083099 
L 151.102625 135.319736 
L 197.444875 117.636923 
L 243.787125 105.817916 
L 290.129375 97.16011 
L 336.471625 90.295882 
L 382.813875 84.755212 
L 429.156125 80.249236 
L 475.498375 76.49072 
L 521.840625 73.363792 
L 568.182875 70.546945 
L 614.525125 68.167476 
L 660.867375 66.034441 
L 707.209625 64.172319 
L 753.551875 62.558262 
L 799.894125 61.157999 
L 846.236375 59.986217 
L 892.578625 58.868291 
L 938.920875 57.890718 
L 985.263125 57.063289 
" style="fill:none;stroke:#e4d354;stroke-linecap:square;"/>
   </g>
   <g id="line2d_46">
    <path clip-path="url(#pb1178076cb)" d="M 104.760375 205.161547 
L 151.102625 169.534798 
L 197.444875 149.056353 
L 243.787125 134.324211 
L 290.129375 123.076407 
L 336.471625 114.126472 
L 382.813875 106.834657 
L 429.156125 100.639552 
L 475.498375 95.240868 
L 521.840625 90.697356 
L 568.182875 86.669558 
L 614.525125 83.16074 
L 660.867375 80.071347 
L 707.209625 77.372005 
L 753.551875 74.956632 
L 799.894125 72.782797 
L 846.236375 70.927203 
L 892.578625 69.344154 
L 938.920875 68.0565 
L 985.263125 66.930414 
" style="fill:none;stroke:#2b908f;stroke-linecap:square;"/>
   </g>
   <g id="line2d_47">
    <path clip-path="url(#pb1178076cb)" d="M 104.760375 208.371708 
L 151.102625 176.612819 
L 197.444875 158.781493 
L 243.787125 146.709525 
L 290.129375 137.723685 
L 336.471625 130.6832 
L 382.813875 125.078882 
L 429.156125 120.19428 
L 475.498375 116.217075 
L 521.840625 112.737633 
L 568.182875 109.751057 
L 614.525125 107.162691 
L 660.867375 105.023128 
L 707.209625 102.983117 
L 753.551875 101.183011 
L 799.894125 99.653819 
L 846.236375 98.369428 
L 892.578625 97.179694 
L 938.920875 96.229865 
L 985.263125 95.379588 
" style="fill:none;stroke:#f45b5b;stroke-linecap:square;"/>
   </g>
   <g id="line2d_48">
    <path clip-path="url(#pb1178076cb)" d="M 104.760375 207.026933 
L 151.102625 179.333378 
L 197.444875 164.534323 
L 243.787125 154.375069 
L 290.129375 146.871094 
L 336.471625 140.98607 
L 382.813875 136.243453 
L 429.156125 132.380489 
L 475.498375 128.90431 
L 521.840625 126.031975 
L 568.182875 123.50073 
L 614.525125 121.245294 
L 660.867375 119.312995 
L 707.209625 117.677723 
L 753.551875 116.169747 
L 799.894125 114.8315 
L 846.236375 113.700518 
L 892.578625 112.659296 
L 938.920875 111.80902 
L 985.263125 111.072984 
" style="fill:none;stroke:#91e8e1;stroke-linecap:square;"/>
   </g>
   <g id="line2d_49">
    <path clip-path="url(#pb1178076cb)" d="M 104.760375 208.735646 
L 151.102625 181.419085 
L 197.444875 166.234876 
L 243.787125 156.091942 
L 290.129375 148.640191 
L 336.471625 142.676831 
L 382.813875 137.966854 
L 429.156125 133.839504 
L 475.498375 130.444926 
L 521.840625 127.546479 
L 568.182875 125.064194 
L 614.525125 122.90831 
L 660.867375 120.980908 
L 707.209625 119.231395 
L 753.551875 117.767483 
L 799.894125 116.442292 
L 846.236375 115.290094 
L 892.578625 114.274985 
L 938.920875 113.40186 
L 985.263125 112.68704 
" style="fill:none;stroke:#7cb5ec;stroke-linecap:square;"/>
   </g>
   <g id="line2d_50">
    <path clip-path="url(#pb1178076cb)" d="M 104.760375 205.946543 
L 151.102625 177.596921 
L 197.444875 161.882309 
L 243.787125 151.207341 
L 290.129375 143.368803 
L 336.471625 137.041505 
L 382.813875 131.941478 
L 429.156125 127.678672 
L 475.498375 123.967484 
L 521.840625 120.850348 
L 568.182875 118.142845 
L 614.525125 115.771537 
L 660.867375 113.581381 
L 707.209625 111.756795 
L 753.551875 110.110099 
L 799.894125 108.654347 
L 846.236375 107.420548 
L 892.578625 106.31731 
L 938.920875 105.39033 
L 985.263125 104.569429 
" style="fill:none;stroke:#434348;stroke-linecap:square;"/>
   </g>
   <g id="line2d_51">
    <path clip-path="url(#pb1178076cb)" d="M 104.760375 172.327165 
L 151.102625 144.24356 
L 197.444875 127.977329 
L 243.787125 116.802966 
L 290.129375 108.425866 
L 336.471625 101.840711 
L 382.813875 96.401226 
L 429.156125 91.622705 
L 475.498375 87.629179 
L 521.840625 84.035496 
L 568.182875 81.030968 
L 614.525125 78.346314 
L 660.867375 76.025598 
L 707.209625 73.990483 
L 753.551875 72.094089 
L 799.894125 70.460448 
L 846.236375 69.037337 
L 892.578625 67.875347 
L 938.920875 66.752525 
L 985.263125 65.881032 
" style="fill:none;stroke:#90ed7d;stroke-linecap:square;"/>
   </g>
   <g id="line2d_52">
    <path clip-path="url(#pb1178076cb)" d="M 104.760375 181.347276 
L 151.102625 154.796128 
L 197.444875 140.382227 
L 243.787125 130.642399 
L 290.129375 123.394649 
L 336.471625 117.739739 
L 382.813875 113.170115 
L 429.156125 109.467087 
L 475.498375 106.291198 
L 521.840625 103.65224 
L 568.182875 101.233604 
L 614.525125 99.201753 
L 660.867375 97.352687 
L 707.209625 95.763111 
L 753.551875 94.413439 
L 799.894125 93.240025 
L 846.236375 92.175955 
L 892.578625 91.193486 
L 938.920875 90.341578 
L 985.263125 89.66103 
" style="fill:none;stroke:#f7a35c;stroke-linecap:square;"/>
   </g>
   <g id="line2d_53">
    <path clip-path="url(#pb1178076cb)" d="M 104.760375 207.495319 
L 151.102625 180.235879 
L 197.444875 165.570649 
L 243.787125 155.677412 
L 290.129375 148.266461 
L 336.471625 142.668671 
L 382.813875 137.98807 
L 429.156125 134.11205 
L 475.498375 130.916577 
L 521.840625 128.176434 
L 568.182875 125.770854 
L 614.525125 123.781435 
L 660.867375 121.940529 
L 707.209625 120.383593 
L 753.551875 118.888673 
L 799.894125 117.59449 
L 846.236375 116.455348 
L 892.578625 115.448399 
L 938.920875 114.697675 
L 985.263125 114.061192 
" style="fill:none;stroke:#8085e9;stroke-linecap:square;"/>
   </g>
   <g id="line2d_54">
    <path clip-path="url(#pb1178076cb)" d="M 104.760375 215.089055 
L 151.102625 187.124587 
L 197.444875 171.565017 
L 243.787125 160.733375 
L 290.129375 152.842613 
L 336.471625 146.564276 
L 382.813875 141.451193 
L 429.156125 137.173698 
L 475.498375 133.371118 
L 521.840625 130.156061 
L 568.182875 127.298414 
L 614.525125 124.925473 
L 660.867375 122.81039 
L 707.209625 120.840556 
L 753.551875 119.198755 
L 799.894125 117.778907 
L 846.236375 116.523893 
L 892.578625 115.420655 
L 938.920875 114.470826 
L 985.263125 113.692358 
" style="fill:none;stroke:#f15c80;stroke-linecap:square;"/>
   </g>
   <g id="line2d_55">
    <path clip-path="url(#pb1178076cb)" d="M 104.760375 198.527432 
L 151.102625 171.522584 
L 197.444875 156.31716 
L 243.787125 146.268882 
L 290.129375 138.885675 
L 336.471625 132.956588 
L 382.813875 128.290675 
L 429.156125 124.398334 
L 475.498375 121.002124 
L 521.840625 118.072669 
L 568.182875 115.557743 
L 614.525125 113.42634 
L 660.867375 111.601755 
L 707.209625 109.951794 
L 753.551875 108.562954 
L 799.894125 107.337316 
L 846.236375 106.27651 
L 892.578625 105.357689 
L 938.920875 104.610229 
L 985.263125 103.96885 
" style="fill:none;stroke:#e4d354;stroke-linecap:square;"/>
   </g>
   <g id="line2d_56">
    <path clip-path="url(#pb1178076cb)" d="M 104.760375 189.804345 
L 151.102625 162.585705 
L 197.444875 147.597337 
L 243.787125 137.394019 
L 290.129375 129.700731 
L 336.471625 123.926684 
L 382.813875 119.141635 
L 429.156125 115.22155 
L 475.498375 112.026077 
L 521.840625 109.24187 
L 568.182875 106.785697 
L 614.525125 104.695094 
L 660.867375 102.762796 
L 707.209625 101.24666 
L 753.551875 99.872508 
L 799.894125 98.733366 
L 846.236375 97.711729 
L 892.578625 96.77006 
L 938.920875 96.065032 
L 985.263125 95.418757 
" style="fill:none;stroke:#2b908f;stroke-linecap:square;"/>
   </g>
   <g id="line2d_57">
    <path clip-path="url(#pb1178076cb)" d="M 104.760375 177.459832 
L 151.102625 149.779333 
L 197.444875 134.355219 
L 243.787125 124.254718 
L 290.129375 116.675669 
L 336.471625 110.803702 
L 382.813875 106.085565 
L 429.156125 102.183433 
L 475.498375 98.981432 
L 521.840625 96.131944 
L 568.182875 93.734524 
L 614.525125 91.630865 
L 660.867375 89.822599 
L 707.209625 88.259135 
L 753.551875 86.888247 
L 799.894125 85.685457 
L 846.236375 84.67198 
L 892.578625 83.736839 
L 938.920875 82.991011 
L 985.263125 82.365951 
" style="fill:none;stroke:#f45b5b;stroke-linecap:square;"/>
   </g>
   <g id="line2d_58">
    <path clip-path="url(#pb1178076cb)" d="M 104.760375 198.088421 
L 151.102625 165.627769 
L 197.444875 147.205655 
L 243.787125 134.164274 
L 290.129375 124.375486 
L 336.471625 116.528789 
L 382.813875 110.190067 
L 429.156125 104.722838 
L 475.498375 100.161374 
L 521.840625 96.197225 
L 568.182875 92.706358 
L 614.525125 89.745895 
L 660.867375 87.051448 
L 707.209625 84.758476 
L 753.551875 82.695617 
L 799.894125 80.94284 
L 846.236375 79.395696 
L 892.578625 78.065609 
L 938.920875 77.011331 
L 985.263125 76.04355 
" style="fill:none;stroke:#91e8e1;stroke-linecap:square;"/>
   </g>
   <g id="line2d_59">
    <path clip-path="url(#pb1178076cb)" d="M 104.760375 184.994816 
L 151.102625 152.343219 
L 197.444875 133.346638 
L 243.787125 120.063719 
L 290.129375 109.920786 
L 336.471625 102.10836 
L 382.813875 95.61623 
L 429.156125 89.900935 
L 475.498375 85.205647 
L 521.840625 81.217017 
L 568.182875 77.856712 
L 614.525125 74.679191 
L 660.867375 71.971688 
L 707.209625 69.677084 
L 753.551875 67.544049 
L 799.894125 65.828808 
L 846.236375 64.296352 
L 892.578625 62.954841 
L 938.920875 61.748786 
L 985.263125 60.767949 
" style="fill:none;stroke:#7cb5ec;stroke-linecap:square;"/>
   </g>
   <g id="line2d_60">
    <path clip-path="url(#pb1178076cb)" d="M 104.760375 195.175286 
L 151.102625 162.639561 
L 197.444875 144.33332 
L 243.787125 131.572644 
L 290.129375 121.813233 
L 336.471625 114.261929 
L 382.813875 107.699622 
L 429.156125 102.353161 
L 475.498375 97.896146 
L 521.840625 94.033181 
L 568.182875 90.633707 
L 614.525125 87.541051 
L 660.867375 84.800908 
L 707.209625 82.52752 
L 753.551875 80.611542 
L 799.894125 78.813069 
L 846.236375 77.256132 
L 892.578625 75.924413 
L 938.920875 74.785271 
L 985.263125 73.740786 
" style="fill:none;stroke:#434348;stroke-linecap:square;"/>
   </g>
   <g id="line2d_61">
    <path clip-path="url(#pb1178076cb)" d="M 104.760375 216.265734 
L 151.102625 185.535011 
L 197.444875 168.170439 
L 243.787125 156.379176 
L 290.129375 147.465145 
L 336.471625 140.667829 
L 382.813875 134.978646 
L 429.156125 130.332318 
L 475.498375 126.348585 
L 521.840625 122.911574 
L 568.182875 119.86135 
L 614.525125 117.246872 
L 660.867375 114.94574 
L 707.209625 112.95469 
L 753.551875 111.260665 
L 799.894125 109.708624 
L 846.236375 108.334473 
L 892.578625 107.203491 
L 938.920875 106.180222 
L 985.263125 105.329945 
" style="fill:none;stroke:#90ed7d;stroke-linecap:square;"/>
   </g>
   <g id="line2d_62">
    <path clip-path="url(#pb1178076cb)" d="M 104.760375 192.813769 
L 151.102625 160.202972 
L 197.444875 141.495257 
L 243.787125 128.886358 
L 290.129375 119.528421 
L 336.471625 111.810652 
L 382.813875 105.50457 
L 429.156125 100.362111 
L 475.498375 95.95732 
L 521.840625 92.265716 
L 568.182875 88.996803 
L 614.525125 86.132627 
L 660.867375 83.741735 
L 707.209625 81.551579 
L 753.551875 79.681297 
L 799.894125 78.01828 
L 846.236375 76.593537 
L 892.578625 75.305882 
L 938.920875 74.289141 
L 985.263125 73.327888 
" style="fill:none;stroke:#f7a35c;stroke-linecap:square;"/>
   </g>
   <g id="line2d_63">
    <path clip-path="url(#pb1178076cb)" d="M 104.760375 190.093211 
L 151.102625 162.024294 
L 197.444875 147.011446 
L 243.787125 136.870145 
L 290.129375 129.291096 
L 336.471625 123.355481 
L 382.813875 118.436607 
L 429.156125 114.410441 
L 475.498375 110.901623 
L 521.840625 107.836711 
L 568.182875 105.160216 
L 614.525125 102.744844 
L 660.867375 100.636288 
L 707.209625 98.997752 
L 753.551875 97.435919 
L 799.894125 96.091144 
L 846.236375 94.881826 
L 892.578625 93.819388 
L 938.920875 92.884247 
L 985.263125 92.109043 
" style="fill:none;stroke:#8085e9;stroke-linecap:square;"/>
   </g>
   <g id="line2d_64">
    <path clip-path="url(#pb1178076cb)" d="M 104.760375 205.866574 
L 151.102625 179.984549 
L 197.444875 166.438877 
L 243.787125 157.627663 
L 290.129375 151.270989 
L 336.471625 146.547956 
L 382.813875 142.663775 
L 429.156125 139.486254 
L 475.498375 136.875041 
L 521.840625 134.547796 
L 568.182875 132.700362 
L 614.525125 131.117314 
L 660.867375 129.620762 
L 707.209625 128.377171 
L 753.551875 127.277198 
L 799.894125 126.30452 
L 846.236375 125.421604 
L 892.578625 124.657824 
L 938.920875 123.978908 
L 985.263125 123.407705 
" style="fill:none;stroke:#f15c80;stroke-linecap:square;"/>
   </g>
   <g id="line2d_65">
    <path clip-path="url(#pb1178076cb)" d="M 104.760375 189.952858 
L 151.102625 161.578756 
L 197.444875 145.906576 
L 243.787125 135.039031 
L 290.129375 126.926316 
L 336.471625 120.626762 
L 382.813875 115.391279 
L 429.156125 110.984855 
L 475.498375 107.188803 
L 521.840625 104.076563 
L 568.182875 101.481669 
L 614.525125 99.154424 
L 660.867375 97.091566 
L 707.209625 95.211492 
L 753.551875 93.628443 
L 799.894125 92.112307 
L 846.236375 90.818124 
L 892.578625 89.755687 
L 938.920875 88.812386 
L 985.263125 88.042078 
" style="fill:none;stroke:#e4d354;stroke-linecap:square;"/>
   </g>
   <g id="line2d_66">
    <path clip-path="url(#pb1178076cb)" d="M 104.760375 189.944698 
L 151.102625 161.26541 
L 197.444875 145.392494 
L 243.787125 134.524948 
L 290.129375 126.306153 
L 336.471625 120.080039 
L 382.813875 114.784171 
L 429.156125 110.33042 
L 475.498375 106.56048 
L 521.840625 103.407439 
L 568.182875 100.566112 
L 614.525125 98.026707 
L 660.867375 95.774535 
L 707.209625 93.834076 
L 753.551875 92.104147 
L 799.894125 90.648395 
L 846.236375 89.316676 
L 892.578625 88.179166 
L 938.920875 87.155897 
L 985.263125 86.286036 
" style="fill:none;stroke:#2b908f;stroke-linecap:square;"/>
   </g>
   <g id="line2d_67">
    <path clip-path="url(#pb1178076cb)" d="M 104.760375 184.565597 
L 151.102625 157.041772 
L 197.444875 141.598074 
L 243.787125 130.949217 
L 290.129375 123.206968 
L 336.471625 117.168536 
L 382.813875 112.24803 
L 429.156125 108.16148 
L 475.498375 104.595541 
L 521.840625 101.591013 
L 568.182875 99.03692 
L 614.525125 96.78638 
L 660.867375 94.788801 
L 707.209625 93.067032 
L 753.551875 91.532944 
L 799.894125 90.129417 
L 846.236375 88.973955 
L 892.578625 87.980061 
L 938.920875 87.084088 
L 985.263125 86.379061 
" style="fill:none;stroke:#f45b5b;stroke-linecap:square;"/>
   </g>
   <g id="line2d_68">
    <path clip-path="url(#pb1178076cb)" d="M 58.418125 353.2239 
L 985.263125 353.2239 
" style="fill:none;stroke:#dedede;stroke-linecap:square;stroke-width:2;"/>
   </g>
   <g id="text_17">
    <!-- RSeQC: Junction Saturation -->
    <defs>
     <path d="M 44.390625 34.1875 
Q 47.5625 33.109375 50.5625 29.59375 
Q 53.5625 26.078125 56.59375 19.921875 
L 66.609375 0 
L 56 0 
L 46.6875 18.703125 
Q 43.0625 26.03125 39.671875 28.421875 
Q 36.28125 30.8125 30.421875 30.8125 
L 19.671875 30.8125 
L 19.671875 0 
L 9.8125 0 
L 9.8125 72.90625 
L 32.078125 72.90625 
Q 44.578125 72.90625 50.734375 67.671875 
Q 56.890625 62.453125 56.890625 51.90625 
Q 56.890625 45.015625 53.6875 40.46875 
Q 50.484375 35.9375 44.390625 34.1875 
z
M 19.671875 64.796875 
L 19.671875 38.921875 
L 32.078125 38.921875 
Q 39.203125 38.921875 42.84375 42.21875 
Q 46.484375 45.515625 46.484375 51.90625 
Q 46.484375 58.296875 42.84375 61.546875 
Q 39.203125 64.796875 32.078125 64.796875 
z
" id="DejaVuSans-82"/>
     <path d="M 53.515625 70.515625 
L 53.515625 60.890625 
Q 47.90625 63.578125 42.921875 64.890625 
Q 37.9375 66.21875 33.296875 66.21875 
Q 25.25 66.21875 20.875 63.09375 
Q 16.5 59.96875 16.5 54.203125 
Q 16.5 49.359375 19.40625 46.890625 
Q 22.3125 44.4375 30.421875 42.921875 
L 36.375 41.703125 
Q 47.40625 39.59375 52.65625 34.296875 
Q 57.90625 29 57.90625 20.125 
Q 57.90625 9.515625 50.796875 4.046875 
Q 43.703125 -1.421875 29.984375 -1.421875 
Q 24.8125 -1.421875 18.96875 -0.25 
Q 13.140625 0.921875 6.890625 3.21875 
L 6.890625 13.375 
Q 12.890625 10.015625 18.65625 8.296875 
Q 24.421875 6.59375 29.984375 6.59375 
Q 38.421875 6.59375 43.015625 9.90625 
Q 47.609375 13.234375 47.609375 19.390625 
Q 47.609375 24.75 44.3125 27.78125 
Q 41.015625 30.8125 33.5 32.328125 
L 27.484375 33.5 
Q 16.453125 35.6875 11.515625 40.375 
Q 6.59375 45.0625 6.59375 53.421875 
Q 6.59375 63.09375 13.40625 68.65625 
Q 20.21875 74.21875 32.171875 74.21875 
Q 37.3125 74.21875 42.625 73.28125 
Q 47.953125 72.359375 53.515625 70.515625 
z
" id="DejaVuSans-83"/>
     <path d="M 39.40625 66.21875 
Q 28.65625 66.21875 22.328125 58.203125 
Q 16.015625 50.203125 16.015625 36.375 
Q 16.015625 22.609375 22.328125 14.59375 
Q 28.65625 6.59375 39.40625 6.59375 
Q 50.140625 6.59375 56.421875 14.59375 
Q 62.703125 22.609375 62.703125 36.375 
Q 62.703125 50.203125 56.421875 58.203125 
Q 50.140625 66.21875 39.40625 66.21875 
z
M 53.21875 1.3125 
L 66.21875 -12.890625 
L 54.296875 -12.890625 
L 43.5 -1.21875 
Q 41.890625 -1.3125 41.03125 -1.359375 
Q 40.1875 -1.421875 39.40625 -1.421875 
Q 24.03125 -1.421875 14.8125 8.859375 
Q 5.609375 19.140625 5.609375 36.375 
Q 5.609375 53.65625 14.8125 63.9375 
Q 24.03125 74.21875 39.40625 74.21875 
Q 54.734375 74.21875 63.90625 63.9375 
Q 73.09375 53.65625 73.09375 36.375 
Q 73.09375 23.6875 67.984375 14.640625 
Q 62.890625 5.609375 53.21875 1.3125 
z
" id="DejaVuSans-81"/>
     <path d="M 64.40625 67.28125 
L 64.40625 56.890625 
Q 59.421875 61.53125 53.78125 63.8125 
Q 48.140625 66.109375 41.796875 66.109375 
Q 29.296875 66.109375 22.65625 58.46875 
Q 16.015625 50.828125 16.015625 36.375 
Q 16.015625 21.96875 22.65625 14.328125 
Q 29.296875 6.6875 41.796875 6.6875 
Q 48.140625 6.6875 53.78125 8.984375 
Q 59.421875 11.28125 64.40625 15.921875 
L 64.40625 5.609375 
Q 59.234375 2.09375 53.4375 0.328125 
Q 47.65625 -1.421875 41.21875 -1.421875 
Q 24.65625 -1.421875 15.125 8.703125 
Q 5.609375 18.84375 5.609375 36.375 
Q 5.609375 53.953125 15.125 64.078125 
Q 24.65625 74.21875 41.21875 74.21875 
Q 47.75 74.21875 53.53125 72.484375 
Q 59.328125 70.75 64.40625 67.28125 
z
" id="DejaVuSans-67"/>
     <path d="M 11.71875 12.40625 
L 22.015625 12.40625 
L 22.015625 0 
L 11.71875 0 
z
M 11.71875 51.703125 
L 22.015625 51.703125 
L 22.015625 39.3125 
L 11.71875 39.3125 
z
" id="DejaVuSans-58"/>
    </defs>
    <g transform="translate(412.691875 19.3575)scale(0.16 -0.16)">
     <use xlink:href="#DejaVuSans-82"/>
     <use x="69.482422" xlink:href="#DejaVuSans-83"/>
     <use x="132.958984" xlink:href="#DejaVuSans-101"/>
     <use x="194.482422" xlink:href="#DejaVuSans-81"/>
     <use x="273.193359" xlink:href="#DejaVuSans-67"/>
     <use x="343.017578" xlink:href="#DejaVuSans-58"/>
     <use x="376.708984" xlink:href="#DejaVuSans-32"/>
     <use x="408.496094" xlink:href="#DejaVuSans-74"/>
     <use x="437.988281" xlink:href="#DejaVuSans-117"/>
     <use x="501.367188" xlink:href="#DejaVuSans-110"/>
     <use x="564.746094" xlink:href="#DejaVuSans-99"/>
     <use x="619.726562" xlink:href="#DejaVuSans-116"/>
     <use x="658.935547" xlink:href="#DejaVuSans-105"/>
     <use x="686.71875" xlink:href="#DejaVuSans-111"/>
     <use x="747.900391" xlink:href="#DejaVuSans-110"/>
     <use x="811.279297" xlink:href="#DejaVuSans-32"/>
     <use x="843.066406" xlink:href="#DejaVuSans-83"/>
     <use x="906.542969" xlink:href="#DejaVuSans-97"/>
     <use x="967.822266" xlink:href="#DejaVuSans-116"/>
     <use x="1007.03125" xlink:href="#DejaVuSans-117"/>
     <use x="1070.410156" xlink:href="#DejaVuSans-114"/>
     <use x="1111.523438" xlink:href="#DejaVuSans-97"/>
     <use x="1172.802734" xlink:href="#DejaVuSans-116"/>
     <use x="1212.011719" xlink:href="#DejaVuSans-105"/>
     <use x="1239.794922" xlink:href="#DejaVuSans-111"/>
     <use x="1300.976562" xlink:href="#DejaVuSans-110"/>
    </g>
   </g>
  </g>
 </g>
 <defs>
  <clipPath id="pb1178076cb">
   <rect height="317.968" width="926.845" x="58.418125" y="35.2559"/>
  </clipPath>
 </defs>
</svg>
