<?xml version="1.0" encoding="utf-8" standalone="no"?>
<!DOCTYPE svg PUBLIC "-//W3C//DTD SVG 1.1//EN"
  "http://www.w3.org/Graphics/SVG/1.1/DTD/svg11.dtd">
<!-- Created with matplotlib (https://matplotlib.org/) -->
<svg height="388.844525pt" version="1.1" viewBox="0 0 1000.138125 388.844525" width="1000.138125pt" xmlns="http://www.w3.org/2000/svg" xmlns:xlink="http://www.w3.org/1999/xlink">
 <defs>
  <style type="text/css">
*{stroke-linecap:butt;stroke-linejoin:round;}
  </style>
 </defs>
 <g id="figure_1">
  <g id="patch_1">
   <path d="M 0 388.844525 
L 1000.138125 388.844525 
L 1000.138125 0 
L 0 0 
z
" style="fill:#ffffff;"/>
  </g>
  <g id="axes_1">
   <g id="patch_2">
    <path d="M 53.328125 353.2239 
L 985.303125 353.2239 
L 985.303125 35.2559 
L 53.328125 35.2559 
z
" style="fill:#ffffff;"/>
   </g>
   <g id="matplotlib.axis_1">
    <g id="xtick_1">
     <g id="text_1">
      <!-- 0 -->
      <defs>
       <path d="M 31.78125 66.40625 
Q 24.171875 66.40625 20.328125 58.90625 
Q 16.5 51.421875 16.5 36.375 
Q 16.5 21.390625 20.328125 13.890625 
Q 24.171875 6.390625 31.78125 6.390625 
Q 39.453125 6.390625 43.28125 13.890625 
Q 47.125 21.390625 47.125 36.375 
Q 47.125 51.421875 43.28125 58.90625 
Q 39.453125 66.40625 31.78125 66.40625 
z
M 31.78125 74.21875 
Q 44.046875 74.21875 50.515625 64.515625 
Q 56.984375 54.828125 56.984375 36.375 
Q 56.984375 17.96875 50.515625 8.265625 
Q 44.046875 -1.421875 31.78125 -1.421875 
Q 19.53125 -1.421875 13.0625 8.265625 
Q 6.59375 17.96875 6.59375 36.375 
Q 6.59375 54.828125 13.0625 64.515625 
Q 19.53125 74.21875 31.78125 74.21875 
z
" id="DejaVuSans-48"/>
      </defs>
      <g transform="translate(50.783125 366.30265)scale(0.08 -0.08)">
       <use xlink:href="#DejaVuSans-48"/>
      </g>
     </g>
    </g>
    <g id="xtick_2">
     <g id="text_2">
      <!-- 20 -->
      <defs>
       <path d="M 19.1875 8.296875 
L 53.609375 8.296875 
L 53.609375 0 
L 7.328125 0 
L 7.328125 8.296875 
Q 12.9375 14.109375 22.625 23.890625 
Q 32.328125 33.6875 34.8125 36.53125 
Q 39.546875 41.84375 41.421875 45.53125 
Q 43.3125 49.21875 43.3125 52.78125 
Q 43.3125 58.59375 39.234375 62.25 
Q 35.15625 65.921875 28.609375 65.921875 
Q 23.96875 65.921875 18.8125 64.3125 
Q 13.671875 62.703125 7.8125 59.421875 
L 7.8125 69.390625 
Q 13.765625 71.78125 18.9375 73 
Q 24.125 74.21875 28.421875 74.21875 
Q 39.75 74.21875 46.484375 68.546875 
Q 53.21875 62.890625 53.21875 53.421875 
Q 53.21875 48.921875 51.53125 44.890625 
Q 49.859375 40.875 45.40625 35.40625 
Q 44.1875 33.984375 37.640625 27.21875 
Q 31.109375 20.453125 19.1875 8.296875 
z
" id="DejaVuSans-50"/>
      </defs>
      <g transform="translate(234.633125 366.30265)scale(0.08 -0.08)">
       <use xlink:href="#DejaVuSans-50"/>
       <use x="63.623047" xlink:href="#DejaVuSans-48"/>
      </g>
     </g>
    </g>
    <g id="xtick_3">
     <g id="text_3">
      <!-- 40 -->
      <defs>
       <path d="M 37.796875 64.3125 
L 12.890625 25.390625 
L 37.796875 25.390625 
z
M 35.203125 72.90625 
L 47.609375 72.90625 
L 47.609375 25.390625 
L 58.015625 25.390625 
L 58.015625 17.1875 
L 47.609375 17.1875 
L 47.609375 0 
L 37.796875 0 
L 37.796875 17.1875 
L 4.890625 17.1875 
L 4.890625 26.703125 
z
" id="DejaVuSans-52"/>
      </defs>
      <g transform="translate(421.028125 366.30265)scale(0.08 -0.08)">
       <use xlink:href="#DejaVuSans-52"/>
       <use x="63.623047" xlink:href="#DejaVuSans-48"/>
      </g>
     </g>
    </g>
    <g id="xtick_4">
     <g id="text_4">
      <!-- 60 -->
      <defs>
       <path d="M 33.015625 40.375 
Q 26.375 40.375 22.484375 35.828125 
Q 18.609375 31.296875 18.609375 23.390625 
Q 18.609375 15.53125 22.484375 10.953125 
Q 26.375 6.390625 33.015625 6.390625 
Q 39.65625 6.390625 43.53125 10.953125 
Q 47.40625 15.53125 47.40625 23.390625 
Q 47.40625 31.296875 43.53125 35.828125 
Q 39.65625 40.375 33.015625 40.375 
z
M 52.59375 71.296875 
L 52.59375 62.3125 
Q 48.875 64.0625 45.09375 64.984375 
Q 41.3125 65.921875 37.59375 65.921875 
Q 27.828125 65.921875 22.671875 59.328125 
Q 17.53125 52.734375 16.796875 39.40625 
Q 19.671875 43.65625 24.015625 45.921875 
Q 28.375 48.1875 33.59375 48.1875 
Q 44.578125 48.1875 50.953125 41.515625 
Q 57.328125 34.859375 57.328125 23.390625 
Q 57.328125 12.15625 50.6875 5.359375 
Q 44.046875 -1.421875 33.015625 -1.421875 
Q 20.359375 -1.421875 13.671875 8.265625 
Q 6.984375 17.96875 6.984375 36.375 
Q 6.984375 53.65625 15.1875 63.9375 
Q 23.390625 74.21875 37.203125 74.21875 
Q 40.921875 74.21875 44.703125 73.484375 
Q 48.484375 72.75 52.59375 71.296875 
z
" id="DejaVuSans-54"/>
      </defs>
      <g transform="translate(607.423125 366.30265)scale(0.08 -0.08)">
       <use xlink:href="#DejaVuSans-54"/>
       <use x="63.623047" xlink:href="#DejaVuSans-48"/>
      </g>
     </g>
    </g>
    <g id="xtick_5">
     <g id="text_5">
      <!-- 80 -->
      <defs>
       <path d="M 31.78125 34.625 
Q 24.75 34.625 20.71875 30.859375 
Q 16.703125 27.09375 16.703125 20.515625 
Q 16.703125 13.921875 20.71875 10.15625 
Q 24.75 6.390625 31.78125 6.390625 
Q 38.8125 6.390625 42.859375 10.171875 
Q 46.921875 13.96875 46.921875 20.515625 
Q 46.921875 27.09375 42.890625 30.859375 
Q 38.875 34.625 31.78125 34.625 
z
M 21.921875 38.8125 
Q 15.578125 40.375 12.03125 44.71875 
Q 8.5 49.078125 8.5 55.328125 
Q 8.5 64.0625 14.71875 69.140625 
Q 20.953125 74.21875 31.78125 74.21875 
Q 42.671875 74.21875 48.875 69.140625 
Q 55.078125 64.0625 55.078125 55.328125 
Q 55.078125 49.078125 51.53125 44.71875 
Q 48 40.375 41.703125 38.8125 
Q 48.828125 37.15625 52.796875 32.3125 
Q 56.78125 27.484375 56.78125 20.515625 
Q 56.78125 9.90625 50.3125 4.234375 
Q 43.84375 -1.421875 31.78125 -1.421875 
Q 19.734375 -1.421875 13.25 4.234375 
Q 6.78125 9.90625 6.78125 20.515625 
Q 6.78125 27.484375 10.78125 32.3125 
Q 14.796875 37.15625 21.921875 38.8125 
z
M 18.3125 54.390625 
Q 18.3125 48.734375 21.84375 45.5625 
Q 25.390625 42.390625 31.78125 42.390625 
Q 38.140625 42.390625 41.71875 45.5625 
Q 45.3125 48.734375 45.3125 54.390625 
Q 45.3125 60.0625 41.71875 63.234375 
Q 38.140625 66.40625 31.78125 66.40625 
Q 25.390625 66.40625 21.84375 63.234375 
Q 18.3125 60.0625 18.3125 54.390625 
z
" id="DejaVuSans-56"/>
      </defs>
      <g transform="translate(793.818125 366.30265)scale(0.08 -0.08)">
       <use xlink:href="#DejaVuSans-56"/>
       <use x="63.623047" xlink:href="#DejaVuSans-48"/>
      </g>
     </g>
    </g>
    <g id="xtick_6">
     <g id="text_6">
      <!-- 100 -->
      <defs>
       <path d="M 12.40625 8.296875 
L 28.515625 8.296875 
L 28.515625 63.921875 
L 10.984375 60.40625 
L 10.984375 69.390625 
L 28.421875 72.90625 
L 38.28125 72.90625 
L 38.28125 8.296875 
L 54.390625 8.296875 
L 54.390625 0 
L 12.40625 0 
z
" id="DejaVuSans-49"/>
      </defs>
      <g transform="translate(977.668125 366.30265)scale(0.08 -0.08)">
       <use xlink:href="#DejaVuSans-49"/>
       <use x="63.623047" xlink:href="#DejaVuSans-48"/>
       <use x="127.246094" xlink:href="#DejaVuSans-48"/>
      </g>
     </g>
    </g>
    <g id="text_7">
     <!-- Percent of reads -->
     <defs>
      <path d="M 19.671875 64.796875 
L 19.671875 37.40625 
L 32.078125 37.40625 
Q 38.96875 37.40625 42.71875 40.96875 
Q 46.484375 44.53125 46.484375 51.125 
Q 46.484375 57.671875 42.71875 61.234375 
Q 38.96875 64.796875 32.078125 64.796875 
z
M 9.8125 72.90625 
L 32.078125 72.90625 
Q 44.34375 72.90625 50.609375 67.359375 
Q 56.890625 61.8125 56.890625 51.125 
Q 56.890625 40.328125 50.609375 34.8125 
Q 44.34375 29.296875 32.078125 29.296875 
L 19.671875 29.296875 
L 19.671875 0 
L 9.8125 0 
z
" id="DejaVuSans-80"/>
      <path d="M 56.203125 29.59375 
L 56.203125 25.203125 
L 14.890625 25.203125 
Q 15.484375 15.921875 20.484375 11.0625 
Q 25.484375 6.203125 34.421875 6.203125 
Q 39.59375 6.203125 44.453125 7.46875 
Q 49.3125 8.734375 54.109375 11.28125 
L 54.109375 2.78125 
Q 49.265625 0.734375 44.1875 -0.34375 
Q 39.109375 -1.421875 33.890625 -1.421875 
Q 20.796875 -1.421875 13.15625 6.1875 
Q 5.515625 13.8125 5.515625 26.8125 
Q 5.515625 40.234375 12.765625 48.109375 
Q 20.015625 56 32.328125 56 
Q 43.359375 56 49.78125 48.890625 
Q 56.203125 41.796875 56.203125 29.59375 
z
M 47.21875 32.234375 
Q 47.125 39.59375 43.09375 43.984375 
Q 39.0625 48.390625 32.421875 48.390625 
Q 24.90625 48.390625 20.390625 44.140625 
Q 15.875 39.890625 15.1875 32.171875 
z
" id="DejaVuSans-101"/>
      <path d="M 41.109375 46.296875 
Q 39.59375 47.171875 37.8125 47.578125 
Q 36.03125 48 33.890625 48 
Q 26.265625 48 22.1875 43.046875 
Q 18.109375 38.09375 18.109375 28.8125 
L 18.109375 0 
L 9.078125 0 
L 9.078125 54.6875 
L 18.109375 54.6875 
L 18.109375 46.1875 
Q 20.953125 51.171875 25.484375 53.578125 
Q 30.03125 56 36.53125 56 
Q 37.453125 56 38.578125 55.875 
Q 39.703125 55.765625 41.0625 55.515625 
z
" id="DejaVuSans-114"/>
      <path d="M 48.78125 52.59375 
L 48.78125 44.1875 
Q 44.96875 46.296875 41.140625 47.34375 
Q 37.3125 48.390625 33.40625 48.390625 
Q 24.65625 48.390625 19.8125 42.84375 
Q 14.984375 37.3125 14.984375 27.296875 
Q 14.984375 17.28125 19.8125 11.734375 
Q 24.65625 6.203125 33.40625 6.203125 
Q 37.3125 6.203125 41.140625 7.25 
Q 44.96875 8.296875 48.78125 10.40625 
L 48.78125 2.09375 
Q 45.015625 0.34375 40.984375 -0.53125 
Q 36.96875 -1.421875 32.421875 -1.421875 
Q 20.0625 -1.421875 12.78125 6.34375 
Q 5.515625 14.109375 5.515625 27.296875 
Q 5.515625 40.671875 12.859375 48.328125 
Q 20.21875 56 33.015625 56 
Q 37.15625 56 41.109375 55.140625 
Q 45.0625 54.296875 48.78125 52.59375 
z
" id="DejaVuSans-99"/>
      <path d="M 54.890625 33.015625 
L 54.890625 0 
L 45.90625 0 
L 45.90625 32.71875 
Q 45.90625 40.484375 42.875 44.328125 
Q 39.84375 48.1875 33.796875 48.1875 
Q 26.515625 48.1875 22.3125 43.546875 
Q 18.109375 38.921875 18.109375 30.90625 
L 18.109375 0 
L 9.078125 0 
L 9.078125 54.6875 
L 18.109375 54.6875 
L 18.109375 46.1875 
Q 21.34375 51.125 25.703125 53.5625 
Q 30.078125 56 35.796875 56 
Q 45.21875 56 50.046875 50.171875 
Q 54.890625 44.34375 54.890625 33.015625 
z
" id="DejaVuSans-110"/>
      <path d="M 18.3125 70.21875 
L 18.3125 54.6875 
L 36.8125 54.6875 
L 36.8125 47.703125 
L 18.3125 47.703125 
L 18.3125 18.015625 
Q 18.3125 11.328125 20.140625 9.421875 
Q 21.96875 7.515625 27.59375 7.515625 
L 36.8125 7.515625 
L 36.8125 0 
L 27.59375 0 
Q 17.1875 0 13.234375 3.875 
Q 9.28125 7.765625 9.28125 18.015625 
L 9.28125 47.703125 
L 2.6875 47.703125 
L 2.6875 54.6875 
L 9.28125 54.6875 
L 9.28125 70.21875 
z
" id="DejaVuSans-116"/>
      <path id="DejaVuSans-32"/>
      <path d="M 30.609375 48.390625 
Q 23.390625 48.390625 19.1875 42.75 
Q 14.984375 37.109375 14.984375 27.296875 
Q 14.984375 17.484375 19.15625 11.84375 
Q 23.34375 6.203125 30.609375 6.203125 
Q 37.796875 6.203125 41.984375 11.859375 
Q 46.1875 17.53125 46.1875 27.296875 
Q 46.1875 37.015625 41.984375 42.703125 
Q 37.796875 48.390625 30.609375 48.390625 
z
M 30.609375 56 
Q 42.328125 56 49.015625 48.375 
Q 55.71875 40.765625 55.71875 27.296875 
Q 55.71875 13.875 49.015625 6.21875 
Q 42.328125 -1.421875 30.609375 -1.421875 
Q 18.84375 -1.421875 12.171875 6.21875 
Q 5.515625 13.875 5.515625 27.296875 
Q 5.515625 40.765625 12.171875 48.375 
Q 18.84375 56 30.609375 56 
z
" id="DejaVuSans-111"/>
      <path d="M 37.109375 75.984375 
L 37.109375 68.5 
L 28.515625 68.5 
Q 23.6875 68.5 21.796875 66.546875 
Q 19.921875 64.59375 19.921875 59.515625 
L 19.921875 54.6875 
L 34.71875 54.6875 
L 34.71875 47.703125 
L 19.921875 47.703125 
L 19.921875 0 
L 10.890625 0 
L 10.890625 47.703125 
L 2.296875 47.703125 
L 2.296875 54.6875 
L 10.890625 54.6875 
L 10.890625 58.5 
Q 10.890625 67.625 15.140625 71.796875 
Q 19.390625 75.984375 28.609375 75.984375 
z
" id="DejaVuSans-102"/>
      <path d="M 34.28125 27.484375 
Q 23.390625 27.484375 19.1875 25 
Q 14.984375 22.515625 14.984375 16.5 
Q 14.984375 11.71875 18.140625 8.90625 
Q 21.296875 6.109375 26.703125 6.109375 
Q 34.1875 6.109375 38.703125 11.40625 
Q 43.21875 16.703125 43.21875 25.484375 
L 43.21875 27.484375 
z
M 52.203125 31.203125 
L 52.203125 0 
L 43.21875 0 
L 43.21875 8.296875 
Q 40.140625 3.328125 35.546875 0.953125 
Q 30.953125 -1.421875 24.3125 -1.421875 
Q 15.921875 -1.421875 10.953125 3.296875 
Q 6 8.015625 6 15.921875 
Q 6 25.140625 12.171875 29.828125 
Q 18.359375 34.515625 30.609375 34.515625 
L 43.21875 34.515625 
L 43.21875 35.40625 
Q 43.21875 41.609375 39.140625 45 
Q 35.0625 48.390625 27.6875 48.390625 
Q 23 48.390625 18.546875 47.265625 
Q 14.109375 46.140625 10.015625 43.890625 
L 10.015625 52.203125 
Q 14.9375 54.109375 19.578125 55.046875 
Q 24.21875 56 28.609375 56 
Q 40.484375 56 46.34375 49.84375 
Q 52.203125 43.703125 52.203125 31.203125 
z
" id="DejaVuSans-97"/>
      <path d="M 45.40625 46.390625 
L 45.40625 75.984375 
L 54.390625 75.984375 
L 54.390625 0 
L 45.40625 0 
L 45.40625 8.203125 
Q 42.578125 3.328125 38.25 0.953125 
Q 33.9375 -1.421875 27.875 -1.421875 
Q 17.96875 -1.421875 11.734375 6.484375 
Q 5.515625 14.40625 5.515625 27.296875 
Q 5.515625 40.1875 11.734375 48.09375 
Q 17.96875 56 27.875 56 
Q 33.9375 56 38.25 53.625 
Q 42.578125 51.265625 45.40625 46.390625 
z
M 14.796875 27.296875 
Q 14.796875 17.390625 18.875 11.75 
Q 22.953125 6.109375 30.078125 6.109375 
Q 37.203125 6.109375 41.296875 11.75 
Q 45.40625 17.390625 45.40625 27.296875 
Q 45.40625 37.203125 41.296875 42.84375 
Q 37.203125 48.484375 30.078125 48.484375 
Q 22.953125 48.484375 18.875 42.84375 
Q 14.796875 37.203125 14.796875 27.296875 
z
" id="DejaVuSans-100"/>
      <path d="M 44.28125 53.078125 
L 44.28125 44.578125 
Q 40.484375 46.53125 36.375 47.5 
Q 32.28125 48.484375 27.875 48.484375 
Q 21.1875 48.484375 17.84375 46.4375 
Q 14.5 44.390625 14.5 40.28125 
Q 14.5 37.15625 16.890625 35.375 
Q 19.28125 33.59375 26.515625 31.984375 
L 29.59375 31.296875 
Q 39.15625 29.25 43.1875 25.515625 
Q 47.21875 21.78125 47.21875 15.09375 
Q 47.21875 7.46875 41.1875 3.015625 
Q 35.15625 -1.421875 24.609375 -1.421875 
Q 20.21875 -1.421875 15.453125 -0.5625 
Q 10.6875 0.296875 5.421875 2 
L 5.421875 11.28125 
Q 10.40625 8.6875 15.234375 7.390625 
Q 20.0625 6.109375 24.8125 6.109375 
Q 31.15625 6.109375 34.5625 8.28125 
Q 37.984375 10.453125 37.984375 14.40625 
Q 37.984375 18.0625 35.515625 20.015625 
Q 33.0625 21.96875 24.703125 23.78125 
L 21.578125 24.515625 
Q 13.234375 26.265625 9.515625 29.90625 
Q 5.8125 33.546875 5.8125 39.890625 
Q 5.8125 47.609375 11.28125 51.796875 
Q 16.75 56 26.8125 56 
Q 31.78125 56 36.171875 55.265625 
Q 40.578125 54.546875 44.28125 53.078125 
z
" id="DejaVuSans-115"/>
     </defs>
     <g transform="translate(478.246875 379.564837)scale(0.1 -0.1)">
      <use xlink:href="#DejaVuSans-80"/>
      <use x="60.255859" xlink:href="#DejaVuSans-101"/>
      <use x="121.779297" xlink:href="#DejaVuSans-114"/>
      <use x="162.861328" xlink:href="#DejaVuSans-99"/>
      <use x="217.841797" xlink:href="#DejaVuSans-101"/>
      <use x="279.365234" xlink:href="#DejaVuSans-110"/>
      <use x="342.744141" xlink:href="#DejaVuSans-116"/>
      <use x="381.953125" xlink:href="#DejaVuSans-32"/>
      <use x="413.740234" xlink:href="#DejaVuSans-111"/>
      <use x="474.921875" xlink:href="#DejaVuSans-102"/>
      <use x="510.126953" xlink:href="#DejaVuSans-32"/>
      <use x="541.914062" xlink:href="#DejaVuSans-114"/>
      <use x="582.996094" xlink:href="#DejaVuSans-101"/>
      <use x="644.519531" xlink:href="#DejaVuSans-97"/>
      <use x="705.798828" xlink:href="#DejaVuSans-100"/>
      <use x="769.275391" xlink:href="#DejaVuSans-115"/>
     </g>
    </g>
   </g>
   <g id="matplotlib.axis_2">
    <g id="ytick_1">
     <g id="line2d_1">
      <path clip-path="url(#pb9ac63f1f1)" d="M 53.328125 353.2239 
L 985.303125 353.2239 
" style="fill:none;stroke:#dedede;stroke-linecap:square;"/>
     </g>
     <g id="text_8">
      <!-- 0 -->
      <g transform="translate(41.238125 356.263275)scale(0.08 -0.08)">
       <use xlink:href="#DejaVuSans-48"/>
      </g>
     </g>
    </g>
    <g id="ytick_2">
     <g id="line2d_2">
      <path clip-path="url(#pb9ac63f1f1)" d="M 53.328125 294.862194 
L 985.303125 294.862194 
" style="fill:none;stroke:#dedede;stroke-linecap:square;"/>
     </g>
     <g id="text_9">
      <!-- 10000 -->
      <g transform="translate(20.878125 297.901569)scale(0.08 -0.08)">
       <use xlink:href="#DejaVuSans-49"/>
       <use x="63.623047" xlink:href="#DejaVuSans-48"/>
       <use x="127.246094" xlink:href="#DejaVuSans-48"/>
       <use x="190.869141" xlink:href="#DejaVuSans-48"/>
       <use x="254.492188" xlink:href="#DejaVuSans-48"/>
      </g>
     </g>
    </g>
    <g id="ytick_3">
     <g id="line2d_3">
      <path clip-path="url(#pb9ac63f1f1)" d="M 53.328125 236.500487 
L 985.303125 236.500487 
" style="fill:none;stroke:#dedede;stroke-linecap:square;"/>
     </g>
     <g id="text_10">
      <!-- 20000 -->
      <g transform="translate(20.878125 239.539862)scale(0.08 -0.08)">
       <use xlink:href="#DejaVuSans-50"/>
       <use x="63.623047" xlink:href="#DejaVuSans-48"/>
       <use x="127.246094" xlink:href="#DejaVuSans-48"/>
       <use x="190.869141" xlink:href="#DejaVuSans-48"/>
       <use x="254.492188" xlink:href="#DejaVuSans-48"/>
      </g>
     </g>
    </g>
    <g id="ytick_4">
     <g id="line2d_4">
      <path clip-path="url(#pb9ac63f1f1)" d="M 53.328125 178.138781 
L 985.303125 178.138781 
" style="fill:none;stroke:#dedede;stroke-linecap:square;"/>
     </g>
     <g id="text_11">
      <!-- 30000 -->
      <defs>
       <path d="M 40.578125 39.3125 
Q 47.65625 37.796875 51.625 33 
Q 55.609375 28.21875 55.609375 21.1875 
Q 55.609375 10.40625 48.1875 4.484375 
Q 40.765625 -1.421875 27.09375 -1.421875 
Q 22.515625 -1.421875 17.65625 -0.515625 
Q 12.796875 0.390625 7.625 2.203125 
L 7.625 11.71875 
Q 11.71875 9.328125 16.59375 8.109375 
Q 21.484375 6.890625 26.8125 6.890625 
Q 36.078125 6.890625 40.9375 10.546875 
Q 45.796875 14.203125 45.796875 21.1875 
Q 45.796875 27.640625 41.28125 31.265625 
Q 36.765625 34.90625 28.71875 34.90625 
L 20.21875 34.90625 
L 20.21875 43.015625 
L 29.109375 43.015625 
Q 36.375 43.015625 40.234375 45.921875 
Q 44.09375 48.828125 44.09375 54.296875 
Q 44.09375 59.90625 40.109375 62.90625 
Q 36.140625 65.921875 28.71875 65.921875 
Q 24.65625 65.921875 20.015625 65.03125 
Q 15.375 64.15625 9.8125 62.3125 
L 9.8125 71.09375 
Q 15.4375 72.65625 20.34375 73.4375 
Q 25.25 74.21875 29.59375 74.21875 
Q 40.828125 74.21875 47.359375 69.109375 
Q 53.90625 64.015625 53.90625 55.328125 
Q 53.90625 49.265625 50.4375 45.09375 
Q 46.96875 40.921875 40.578125 39.3125 
z
" id="DejaVuSans-51"/>
      </defs>
      <g transform="translate(20.878125 181.178156)scale(0.08 -0.08)">
       <use xlink:href="#DejaVuSans-51"/>
       <use x="63.623047" xlink:href="#DejaVuSans-48"/>
       <use x="127.246094" xlink:href="#DejaVuSans-48"/>
       <use x="190.869141" xlink:href="#DejaVuSans-48"/>
       <use x="254.492188" xlink:href="#DejaVuSans-48"/>
      </g>
     </g>
    </g>
    <g id="ytick_5">
     <g id="line2d_5">
      <path clip-path="url(#pb9ac63f1f1)" d="M 53.328125 119.777074 
L 985.303125 119.777074 
" style="fill:none;stroke:#dedede;stroke-linecap:square;"/>
     </g>
     <g id="text_12">
      <!-- 40000 -->
      <g transform="translate(20.878125 122.816449)scale(0.08 -0.08)">
       <use xlink:href="#DejaVuSans-52"/>
       <use x="63.623047" xlink:href="#DejaVuSans-48"/>
       <use x="127.246094" xlink:href="#DejaVuSans-48"/>
       <use x="190.869141" xlink:href="#DejaVuSans-48"/>
       <use x="254.492188" xlink:href="#DejaVuSans-48"/>
      </g>
     </g>
    </g>
    <g id="ytick_6">
     <g id="line2d_6">
      <path clip-path="url(#pb9ac63f1f1)" d="M 53.328125 61.415368 
L 985.303125 61.415368 
" style="fill:none;stroke:#dedede;stroke-linecap:square;"/>
     </g>
     <g id="text_13">
      <!-- 50000 -->
      <defs>
       <path d="M 10.796875 72.90625 
L 49.515625 72.90625 
L 49.515625 64.59375 
L 19.828125 64.59375 
L 19.828125 46.734375 
Q 21.96875 47.46875 24.109375 47.828125 
Q 26.265625 48.1875 28.421875 48.1875 
Q 40.625 48.1875 47.75 41.5 
Q 54.890625 34.8125 54.890625 23.390625 
Q 54.890625 11.625 47.5625 5.09375 
Q 40.234375 -1.421875 26.90625 -1.421875 
Q 22.3125 -1.421875 17.546875 -0.640625 
Q 12.796875 0.140625 7.71875 1.703125 
L 7.71875 11.625 
Q 12.109375 9.234375 16.796875 8.0625 
Q 21.484375 6.890625 26.703125 6.890625 
Q 35.15625 6.890625 40.078125 11.328125 
Q 45.015625 15.765625 45.015625 23.390625 
Q 45.015625 31 40.078125 35.4375 
Q 35.15625 39.890625 26.703125 39.890625 
Q 22.75 39.890625 18.8125 39.015625 
Q 14.890625 38.140625 10.796875 36.28125 
z
" id="DejaVuSans-53"/>
      </defs>
      <g transform="translate(20.878125 64.454743)scale(0.08 -0.08)">
       <use xlink:href="#DejaVuSans-53"/>
       <use x="63.623047" xlink:href="#DejaVuSans-48"/>
       <use x="127.246094" xlink:href="#DejaVuSans-48"/>
       <use x="190.869141" xlink:href="#DejaVuSans-48"/>
       <use x="254.492188" xlink:href="#DejaVuSans-48"/>
      </g>
     </g>
    </g>
    <g id="text_14">
     <!-- Number of Junctions -->
     <defs>
      <path d="M 9.8125 72.90625 
L 23.09375 72.90625 
L 55.421875 11.921875 
L 55.421875 72.90625 
L 64.984375 72.90625 
L 64.984375 0 
L 51.703125 0 
L 19.390625 60.984375 
L 19.390625 0 
L 9.8125 0 
z
" id="DejaVuSans-78"/>
      <path d="M 8.5 21.578125 
L 8.5 54.6875 
L 17.484375 54.6875 
L 17.484375 21.921875 
Q 17.484375 14.15625 20.5 10.265625 
Q 23.53125 6.390625 29.59375 6.390625 
Q 36.859375 6.390625 41.078125 11.03125 
Q 45.3125 15.671875 45.3125 23.6875 
L 45.3125 54.6875 
L 54.296875 54.6875 
L 54.296875 0 
L 45.3125 0 
L 45.3125 8.40625 
Q 42.046875 3.421875 37.71875 1 
Q 33.40625 -1.421875 27.6875 -1.421875 
Q 18.265625 -1.421875 13.375 4.4375 
Q 8.5 10.296875 8.5 21.578125 
z
M 31.109375 56 
z
" id="DejaVuSans-117"/>
      <path d="M 52 44.1875 
Q 55.375 50.25 60.0625 53.125 
Q 64.75 56 71.09375 56 
Q 79.640625 56 84.28125 50.015625 
Q 88.921875 44.046875 88.921875 33.015625 
L 88.921875 0 
L 79.890625 0 
L 79.890625 32.71875 
Q 79.890625 40.578125 77.09375 44.375 
Q 74.3125 48.1875 68.609375 48.1875 
Q 61.625 48.1875 57.5625 43.546875 
Q 53.515625 38.921875 53.515625 30.90625 
L 53.515625 0 
L 44.484375 0 
L 44.484375 32.71875 
Q 44.484375 40.625 41.703125 44.40625 
Q 38.921875 48.1875 33.109375 48.1875 
Q 26.21875 48.1875 22.15625 43.53125 
Q 18.109375 38.875 18.109375 30.90625 
L 18.109375 0 
L 9.078125 0 
L 9.078125 54.6875 
L 18.109375 54.6875 
L 18.109375 46.1875 
Q 21.1875 51.21875 25.484375 53.609375 
Q 29.78125 56 35.6875 56 
Q 41.65625 56 45.828125 52.96875 
Q 50 49.953125 52 44.1875 
z
" id="DejaVuSans-109"/>
      <path d="M 48.6875 27.296875 
Q 48.6875 37.203125 44.609375 42.84375 
Q 40.53125 48.484375 33.40625 48.484375 
Q 26.265625 48.484375 22.1875 42.84375 
Q 18.109375 37.203125 18.109375 27.296875 
Q 18.109375 17.390625 22.1875 11.75 
Q 26.265625 6.109375 33.40625 6.109375 
Q 40.53125 6.109375 44.609375 11.75 
Q 48.6875 17.390625 48.6875 27.296875 
z
M 18.109375 46.390625 
Q 20.953125 51.265625 25.265625 53.625 
Q 29.59375 56 35.59375 56 
Q 45.5625 56 51.78125 48.09375 
Q 58.015625 40.1875 58.015625 27.296875 
Q 58.015625 14.40625 51.78125 6.484375 
Q 45.5625 -1.421875 35.59375 -1.421875 
Q 29.59375 -1.421875 25.265625 0.953125 
Q 20.953125 3.328125 18.109375 8.203125 
L 18.109375 0 
L 9.078125 0 
L 9.078125 75.984375 
L 18.109375 75.984375 
z
" id="DejaVuSans-98"/>
      <path d="M 9.8125 72.90625 
L 19.671875 72.90625 
L 19.671875 5.078125 
Q 19.671875 -8.109375 14.671875 -14.0625 
Q 9.671875 -20.015625 -1.421875 -20.015625 
L -5.171875 -20.015625 
L -5.171875 -11.71875 
L -2.09375 -11.71875 
Q 4.4375 -11.71875 7.125 -8.046875 
Q 9.8125 -4.390625 9.8125 5.078125 
z
" id="DejaVuSans-74"/>
      <path d="M 9.421875 54.6875 
L 18.40625 54.6875 
L 18.40625 0 
L 9.421875 0 
z
M 9.421875 75.984375 
L 18.40625 75.984375 
L 18.40625 64.59375 
L 9.421875 64.59375 
z
" id="DejaVuSans-105"/>
     </defs>
     <g transform="translate(14.798438 245.067244)rotate(-90)scale(0.1 -0.1)">
      <use xlink:href="#DejaVuSans-78"/>
      <use x="74.804688" xlink:href="#DejaVuSans-117"/>
      <use x="138.183594" xlink:href="#DejaVuSans-109"/>
      <use x="235.595703" xlink:href="#DejaVuSans-98"/>
      <use x="299.072266" xlink:href="#DejaVuSans-101"/>
      <use x="360.595703" xlink:href="#DejaVuSans-114"/>
      <use x="401.708984" xlink:href="#DejaVuSans-32"/>
      <use x="433.496094" xlink:href="#DejaVuSans-111"/>
      <use x="494.677734" xlink:href="#DejaVuSans-102"/>
      <use x="529.882812" xlink:href="#DejaVuSans-32"/>
      <use x="561.669922" xlink:href="#DejaVuSans-74"/>
      <use x="591.162109" xlink:href="#DejaVuSans-117"/>
      <use x="654.541016" xlink:href="#DejaVuSans-110"/>
      <use x="717.919922" xlink:href="#DejaVuSans-99"/>
      <use x="772.900391" xlink:href="#DejaVuSans-116"/>
      <use x="812.109375" xlink:href="#DejaVuSans-105"/>
      <use x="839.892578" xlink:href="#DejaVuSans-111"/>
      <use x="901.074219" xlink:href="#DejaVuSans-110"/>
      <use x="964.453125" xlink:href="#DejaVuSans-115"/>
     </g>
    </g>
   </g>
   <g id="line2d_7">
    <path clip-path="url(#pb9ac63f1f1)" d="M 99.926875 315.673978 
L 146.525625 295.533353 
L 193.124375 278.684329 
L 239.723125 265.115232 
L 286.321875 252.917635 
L 332.920625 242.132392 
L 379.519375 232.041653 
L 426.118125 222.143507 
L 472.716875 213.225839 
L 519.315625 204.699193 
L 565.914375 196.645278 
L 612.513125 188.877335 
L 659.111875 181.535432 
L 705.710625 174.607897 
L 752.309375 167.446916 
L 798.908125 160.636105 
L 845.506875 154.227989 
L 892.105625 147.878236 
L 938.704375 142.01872 
L 985.303125 135.919922 
" style="fill:none;stroke:#7cb5ec;stroke-linecap:square;"/>
   </g>
   <g id="line2d_8">
    <path clip-path="url(#pb9ac63f1f1)" d="M 99.926875 312.98934 
L 146.525625 289.306159 
L 193.124375 269.562394 
L 239.723125 253.238624 
L 286.321875 237.88366 
L 332.920625 223.812652 
L 379.519375 211.16567 
L 426.118125 199.855172 
L 472.716875 188.824809 
L 519.315625 178.173798 
L 565.914375 168.544116 
L 612.513125 159.381328 
L 659.111875 150.055127 
L 705.710625 141.189984 
L 752.309375 132.855933 
L 798.908125 125.152187 
L 845.506875 117.722742 
L 892.105625 109.832239 
L 938.704375 102.496173 
L 985.303125 95.247649 
" style="fill:none;stroke:#434348;stroke-linecap:square;"/>
   </g>
   <g id="line2d_9">
    <path clip-path="url(#pb9ac63f1f1)" d="M 99.926875 313.41538 
L 146.525625 291.967453 
L 193.124375 274.966688 
L 239.723125 261.053257 
L 286.321875 248.272043 
L 332.920625 237.119121 
L 379.519375 226.958348 
L 426.118125 217.211943 
L 472.716875 207.827381 
L 519.315625 199.20152 
L 565.914375 190.838288 
L 612.513125 182.877751 
L 659.111875 175.471651 
L 705.710625 168.223127 
L 752.309375 161.248903 
L 798.908125 154.344713 
L 845.506875 147.679806 
L 892.105625 141.51681 
L 938.704375 135.108694 
L 985.303125 129.272524 
" style="fill:none;stroke:#90ed7d;stroke-linecap:square;"/>
   </g>
   <g id="line2d_10">
    <path clip-path="url(#pb9ac63f1f1)" d="M 99.926875 314.594286 
L 146.525625 291.72817 
L 193.124375 273.624369 
L 239.723125 258.222714 
L 286.321875 244.548566 
L 332.920625 231.014487 
L 379.519375 218.834399 
L 426.118125 207.780691 
L 472.716875 197.12968 
L 519.315625 187.412456 
L 565.914375 178.214651 
L 612.513125 169.273637 
L 659.111875 160.881224 
L 705.710625 152.366251 
L 752.309375 144.399878 
L 798.908125 136.766167 
L 845.506875 129.1558 
L 892.105625 122.304136 
L 938.704375 115.399946 
L 985.303125 108.454903 
" style="fill:none;stroke:#f7a35c;stroke-linecap:square;"/>
   </g>
   <g id="line2d_11">
    <path clip-path="url(#pb9ac63f1f1)" d="M 99.926875 318.650425 
L 146.525625 297.033249 
L 193.124375 279.022826 
L 239.723125 264.006359 
L 286.321875 249.853646 
L 332.920625 236.955708 
L 379.519375 225.359237 
L 426.118125 214.375564 
L 472.716875 204.267317 
L 519.315625 194.503403 
L 565.914375 185.025462 
L 612.513125 176.242025 
L 659.111875 167.71538 
L 705.710625 159.749007 
L 752.309375 152.027753 
L 798.908125 144.143087 
L 845.506875 136.713641 
L 892.105625 129.260851 
L 938.704375 122.22243 
L 985.303125 115.224861 
" style="fill:none;stroke:#8085e9;stroke-linecap:square;"/>
   </g>
   <g id="line2d_12">
    <path clip-path="url(#pb9ac63f1f1)" d="M 99.926875 327.17707 
L 146.525625 312.341525 
L 193.124375 300.820924 
L 239.723125 290.665987 
L 286.321875 281.88255 
L 332.920625 274.114607 
L 379.519375 266.55093 
L 426.118125 259.635068 
L 472.716875 253.186099 
L 519.315625 246.85969 
L 565.914375 240.801745 
L 612.513125 234.948066 
L 659.111875 229.216946 
L 705.710625 223.841833 
L 752.309375 218.128222 
L 798.908125 213.190822 
L 845.506875 208.410998 
L 892.105625 203.578648 
L 938.704375 198.863023 
L 985.303125 194.561765 
" style="fill:none;stroke:#f15c80;stroke-linecap:square;"/>
   </g>
   <g id="line2d_13">
    <path clip-path="url(#pb9ac63f1f1)" d="M 99.926875 317.144693 
L 146.525625 297.389255 
L 193.124375 281.748318 
L 239.723125 268.506047 
L 286.321875 256.62944 
L 332.920625 245.83836 
L 379.519375 235.969396 
L 426.118125 226.864969 
L 472.716875 218.157403 
L 519.315625 210.074306 
L 565.914375 202.358889 
L 612.513125 195.16289 
L 659.111875 188.089452 
L 705.710625 181.442053 
L 752.309375 174.759638 
L 798.908125 168.374867 
L 845.506875 162.25856 
L 892.105625 156.14809 
L 938.704375 150.621236 
L 985.303125 145.129399 
" style="fill:none;stroke:#e4d354;stroke-linecap:square;"/>
   </g>
   <g id="line2d_14">
    <path clip-path="url(#pb9ac63f1f1)" d="M 99.926875 320.191174 
L 146.525625 301.398705 
L 193.124375 286.767425 
L 239.723125 274.032901 
L 286.321875 262.576498 
L 332.920625 252.001356 
L 379.519375 242.686828 
L 426.118125 233.67578 
L 472.716875 224.647224 
L 519.315625 216.394879 
L 565.914375 208.475196 
L 612.513125 200.870665 
L 659.111875 193.452892 
L 705.710625 186.787986 
L 752.309375 180.117242 
L 798.908125 173.656602 
L 845.506875 167.36521 
L 892.105625 161.400643 
L 938.704375 155.377715 
L 985.303125 149.704957 
" style="fill:none;stroke:#2b908f;stroke-linecap:square;"/>
   </g>
   <g id="line2d_15">
    <path clip-path="url(#pb9ac63f1f1)" d="M 99.926875 315.843227 
L 146.525625 294.879702 
L 193.124375 279.390505 
L 239.723125 265.716357 
L 286.321875 253.938965 
L 332.920625 243.352151 
L 379.519375 233.903391 
L 426.118125 224.886507 
L 472.716875 216.033037 
L 519.315625 208.101681 
L 565.914375 200.648891 
L 612.513125 193.604633 
L 659.111875 186.525358 
L 705.710625 179.901304 
L 752.309375 173.487353 
L 798.908125 167.283503 
L 845.506875 160.96293 
L 892.105625 155.441913 
L 938.704375 149.821681 
L 985.303125 144.166431 
" style="fill:none;stroke:#f45b5b;stroke-linecap:square;"/>
   </g>
   <g id="line2d_16">
    <path clip-path="url(#pb9ac63f1f1)" d="M 99.926875 340.320127 
L 146.525625 332.838156 
L 193.124375 326.990313 
L 239.723125 322.035404 
L 286.321875 317.739982 
L 332.920625 314.022342 
L 379.519375 309.837807 
L 426.118125 306.277743 
L 472.716875 303.038669 
L 519.315625 299.507785 
L 565.914375 296.531338 
L 612.513125 293.549055 
L 659.111875 290.806055 
L 705.710625 288.325682 
L 752.309375 285.664389 
L 798.908125 283.25405 
L 845.506875 280.750333 
L 892.105625 278.54426 
L 938.704375 276.244809 
L 985.303125 274.015392 
" style="fill:none;stroke:#91e8e1;stroke-linecap:square;"/>
   </g>
   <g id="line2d_17">
    <path clip-path="url(#pb9ac63f1f1)" d="M 99.926875 310.444769 
L 146.525625 286.294695 
L 193.124375 267.093694 
L 239.723125 250.816614 
L 286.321875 235.969396 
L 332.920625 222.330265 
L 379.519375 210.173521 
L 426.118125 198.757972 
L 472.716875 187.815152 
L 519.315625 176.924857 
L 565.914375 167.248486 
L 612.513125 157.828907 
L 659.111875 148.520215 
L 705.710625 139.865174 
L 752.309375 131.005866 
L 798.908125 122.788538 
L 845.506875 115.24237 
L 892.105625 107.596986 
L 938.704375 99.805698 
L 985.303125 92.778949 
" style="fill:none;stroke:#7cb5ec;stroke-linecap:square;"/>
   </g>
   <g id="line2d_18">
    <path clip-path="url(#pb9ac63f1f1)" d="M 99.926875 314.401693 
L 146.525625 290.199093 
L 193.124375 270.455328 
L 239.723125 253.250297 
L 286.321875 237.95953 
L 332.920625 223.60255 
L 379.519375 209.963419 
L 426.118125 197.47985 
L 472.716875 186.070137 
L 519.315625 175.04561 
L 565.914375 164.593029 
L 612.513125 154.37973 
L 659.111875 144.860936 
L 705.710625 135.663131 
L 752.309375 127.013926 
L 798.908125 118.639021 
L 845.506875 110.386676 
L 892.105625 102.251054 
L 938.704375 94.413077 
L 985.303125 86.808546 
" style="fill:none;stroke:#434348;stroke-linecap:square;"/>
   </g>
   <g id="line2d_19">
    <path clip-path="url(#pb9ac63f1f1)" d="M 99.926875 331.881024 
L 146.525625 320.342915 
L 193.124375 311.314359 
L 239.723125 303.750681 
L 286.321875 297.120792 
L 332.920625 290.788546 
L 379.519375 285.384252 
L 426.118125 280.277603 
L 472.716875 275.276005 
L 519.315625 270.735464 
L 565.914375 266.089872 
L 612.513125 261.753597 
L 659.111875 257.45234 
L 705.710625 253.180263 
L 752.309375 249.40426 
L 798.908125 245.622422 
L 845.506875 241.869764 
L 892.105625 238.473113 
L 938.704375 235.023936 
L 985.303125 231.609776 
" style="fill:none;stroke:#90ed7d;stroke-linecap:square;"/>
   </g>
   <g id="line2d_20">
    <path clip-path="url(#pb9ac63f1f1)" d="M 99.926875 326.716013 
L 146.525625 312.843435 
L 193.124375 301.737203 
L 239.723125 292.516053 
L 286.321875 284.74811 
L 332.920625 277.581292 
L 379.519375 270.910549 
L 426.118125 264.747553 
L 472.716875 259.138993 
L 519.315625 254.020671 
L 565.914375 248.884841 
L 612.513125 244.034983 
L 659.111875 239.319357 
L 705.710625 234.586223 
L 752.309375 230.255784 
L 798.908125 226.14712 
L 845.506875 222.219378 
L 892.105625 218.122386 
L 938.704375 214.737407 
L 985.303125 211.078128 
" style="fill:none;stroke:#f7a35c;stroke-linecap:square;"/>
   </g>
   <g id="line2d_21">
    <path clip-path="url(#pb9ac63f1f1)" d="M 99.926875 330.095156 
L 146.525625 317.629095 
L 193.124375 307.637571 
L 239.723125 299.215977 
L 286.321875 291.716498 
L 332.920625 285.29671 
L 379.519375 279.297126 
L 426.118125 273.694403 
L 472.716875 268.651951 
L 519.315625 263.282674 
L 565.914375 258.619574 
L 612.513125 254.219101 
L 659.111875 249.853646 
L 705.710625 245.873377 
L 752.309375 241.741368 
L 798.908125 237.918677 
L 845.506875 234.306087 
L 892.105625 230.722678 
L 938.704375 227.010874 
L 985.303125 223.351595 
" style="fill:none;stroke:#8085e9;stroke-linecap:square;"/>
   </g>
   <g id="line2d_22">
    <path clip-path="url(#pb9ac63f1f1)" d="M 99.926875 331.058124 
L 146.525625 319.257387 
L 193.124375 310.07709 
L 239.723125 302.507577 
L 286.321875 295.638404 
L 332.920625 289.522097 
L 379.519375 284.036097 
L 426.118125 278.725182 
L 472.716875 274.038737 
L 519.315625 269.71997 
L 565.914375 265.447893 
L 612.513125 261.391755 
L 659.111875 257.522374 
L 705.710625 253.711354 
L 752.309375 250.238833 
L 798.908125 246.888871 
L 845.506875 243.620615 
L 892.105625 240.130585 
L 938.704375 236.996562 
L 985.303125 234.060968 
" style="fill:none;stroke:#f15c80;stroke-linecap:square;"/>
   </g>
   <g id="line2d_23">
    <path clip-path="url(#pb9ac63f1f1)" d="M 99.926875 329.476522 
L 146.525625 316.882065 
L 193.124375 306.820507 
L 239.723125 299.023383 
L 286.321875 291.961617 
L 332.920625 285.681897 
L 379.519375 279.950778 
L 426.118125 274.540647 
L 472.716875 269.71997 
L 519.315625 265.383696 
L 565.914375 260.965714 
L 612.513125 256.787016 
L 659.111875 252.625827 
L 705.710625 248.546343 
L 752.309375 244.606928 
L 798.908125 240.848434 
L 845.506875 236.909019 
L 892.105625 233.442334 
L 938.704375 230.372508 
L 985.303125 227.080908 
" style="fill:none;stroke:#e4d354;stroke-linecap:square;"/>
   </g>
   <g id="line2d_24">
    <path clip-path="url(#pb9ac63f1f1)" d="M 99.926875 334.594843 
L 146.525625 323.132604 
L 193.124375 313.864765 
L 239.723125 305.76416 
L 286.321875 298.58567 
L 332.920625 292.037487 
L 379.519375 285.798621 
L 426.118125 280.353473 
L 472.716875 274.931671 
L 519.315625 269.661609 
L 565.914375 265.05687 
L 612.513125 260.522165 
L 659.111875 256.407665 
L 705.710625 251.779582 
L 752.309375 247.694262 
L 798.908125 243.416349 
L 845.506875 239.640347 
L 892.105625 235.630898 
L 938.704375 231.843223 
L 985.303125 228.172272 
" style="fill:none;stroke:#2b908f;stroke-linecap:square;"/>
   </g>
   <g id="line2d_25">
    <path clip-path="url(#pb9ac63f1f1)" d="M 99.926875 340.83371 
L 146.525625 334.233001 
L 193.124375 328.904577 
L 239.723125 324.329019 
L 286.321875 320.564689 
L 332.920625 317.389812 
L 379.519375 314.109884 
L 426.118125 311.063403 
L 472.716875 308.186171 
L 519.315625 305.425662 
L 565.914375 302.776041 
L 612.513125 300.196454 
L 659.111875 297.908675 
L 705.710625 295.655913 
L 752.309375 293.72414 
L 798.908125 291.442198 
L 845.506875 289.317831 
L 892.105625 287.41524 
L 938.704375 285.524321 
L 985.303125 283.685927 
" style="fill:none;stroke:#f45b5b;stroke-linecap:square;"/>
   </g>
   <g id="line2d_26">
    <path clip-path="url(#pb9ac63f1f1)" d="M 99.926875 334.909997 
L 146.525625 323.056734 
L 193.124375 313.427052 
L 239.723125 305.629928 
L 286.321875 298.299698 
L 332.920625 291.576429 
L 379.519375 285.337563 
L 426.118125 279.606443 
L 472.716875 274.137952 
L 519.315625 269.066319 
L 565.914375 263.95967 
L 612.513125 259.220699 
L 659.111875 254.38835 
L 705.710625 249.614363 
L 752.309375 245.085494 
L 798.908125 240.930141 
L 845.506875 236.967381 
L 892.105625 233.062983 
L 938.704375 229.100223 
L 985.303125 225.265859 
" style="fill:none;stroke:#91e8e1;stroke-linecap:square;"/>
   </g>
   <g id="line2d_27">
    <path clip-path="url(#pb9ac63f1f1)" d="M 99.926875 331.326588 
L 146.525625 319.84684 
L 193.124375 310.602346 
L 239.723125 303.044505 
L 286.321875 296.227857 
L 332.920625 290.426704 
L 379.519375 284.724765 
L 426.118125 279.676478 
L 472.716875 274.90249 
L 519.315625 270.467 
L 565.914375 265.920623 
L 612.513125 261.905338 
L 659.111875 257.860872 
L 705.710625 254.31248 
L 752.309375 250.723235 
L 798.908125 247.239041 
L 845.506875 243.56809 
L 892.105625 240.171438 
L 938.704375 236.879838 
L 985.303125 233.868374 
" style="fill:none;stroke:#7cb5ec;stroke-linecap:square;"/>
   </g>
   <g id="line2d_28">
    <path clip-path="url(#pb9ac63f1f1)" d="M 99.926875 326.850245 
L 146.525625 312.650842 
L 193.124375 301.194439 
L 239.723125 291.798204 
L 286.321875 283.475825 
L 332.920625 275.754571 
L 379.519375 268.692804 
L 426.118125 261.911174 
L 472.716875 255.602274 
L 519.315625 249.836137 
L 565.914375 244.385154 
L 612.513125 238.916662 
L 659.111875 233.810012 
L 705.710625 229.076878 
L 752.309375 223.824324 
L 798.908125 219.429688 
L 845.506875 215.256826 
L 892.105625 211.153998 
L 938.704375 206.946119 
L 985.303125 202.995031 
" style="fill:none;stroke:#434348;stroke-linecap:square;"/>
   </g>
   <g id="line2d_29">
    <path clip-path="url(#pb9ac63f1f1)" d="M 99.926875 331.53669 
L 146.525625 320.465474 
L 193.124375 311.366884 
L 239.723125 304.083343 
L 286.321875 297.797787 
L 332.920625 291.844893 
L 379.519375 286.183808 
L 426.118125 281.147193 
L 472.716875 276.67085 
L 519.315625 272.118637 
L 565.914375 268.044989 
L 612.513125 263.918817 
L 659.111875 260.183668 
L 705.710625 256.676129 
L 752.309375 253.244461 
L 798.908125 250.174635 
L 845.506875 246.947233 
L 892.105625 243.99413 
L 938.704375 240.947649 
L 985.303125 238.175468 
" style="fill:none;stroke:#90ed7d;stroke-linecap:square;"/>
   </g>
   <g id="line2d_30">
    <path clip-path="url(#pb9ac63f1f1)" d="M 99.926875 324.253149 
L 146.525625 308.658901 
L 193.124375 296.543011 
L 239.723125 286.061248 
L 286.321875 277.178596 
L 332.920625 268.996285 
L 379.519375 261.350902 
L 426.118125 254.545927 
L 472.716875 248.026924 
L 519.315625 242.260788 
L 565.914375 236.26704 
L 612.513125 230.65848 
L 659.111875 225.306712 
L 705.710625 220.328458 
L 752.309375 215.408566 
L 798.908125 210.371951 
L 845.506875 205.907281 
L 892.105625 201.16831 
L 938.704375 196.557735 
L 985.303125 192.320675 
" style="fill:none;stroke:#f7a35c;stroke-linecap:square;"/>
   </g>
   <g id="line2d_31">
    <path clip-path="url(#pb9ac63f1f1)" d="M 99.926875 331.670922 
L 146.525625 319.782642 
L 193.124375 310.602346 
L 239.723125 302.846075 
L 286.321875 296.006083 
L 332.920625 290.053189 
L 379.519375 284.479646 
L 426.118125 279.518901 
L 472.716875 274.616518 
L 519.315625 269.865875 
L 565.914375 265.488747 
L 612.513125 261.333393 
L 659.111875 257.341452 
L 705.710625 253.372856 
L 752.309375 249.392588 
L 798.908125 245.721637 
L 845.506875 242.249115 
L 892.105625 238.724068 
L 938.704375 235.105642 
L 985.303125 232.035817 
" style="fill:none;stroke:#8085e9;stroke-linecap:square;"/>
   </g>
   <g id="line2d_32">
    <path clip-path="url(#pb9ac63f1f1)" d="M 99.926875 335.114262 
L 146.525625 325.327004 
L 193.124375 317.903395 
L 239.723125 311.717054 
L 286.321875 305.997607 
L 332.920625 300.873449 
L 379.519375 296.035264 
L 426.118125 291.535576 
L 472.716875 287.421076 
L 519.315625 283.464152 
L 565.914375 279.670641 
L 612.513125 276.466584 
L 659.111875 272.98239 
L 705.710625 269.877547 
L 752.309375 266.42837 
L 798.908125 263.434415 
L 845.506875 260.714759 
L 892.105625 257.767493 
L 938.704375 254.761865 
L 985.303125 252.135588 
" style="fill:none;stroke:#f15c80;stroke-linecap:square;"/>
   </g>
   <g id="line2d_33">
    <path clip-path="url(#pb9ac63f1f1)" d="M 99.926875 333.246688 
L 146.525625 320.284553 
L 193.124375 309.890333 
L 239.723125 301.334507 
L 286.321875 293.817519 
L 332.920625 286.714899 
L 379.519375 280.219241 
L 426.118125 274.458941 
L 472.716875 268.757002 
L 519.315625 263.428578 
L 565.914375 257.767493 
L 612.513125 252.841765 
L 659.111875 248.336241 
L 705.710625 243.929932 
L 752.309375 239.541132 
L 798.908125 235.263219 
L 845.506875 230.938616 
L 892.105625 226.783263 
L 938.704375 222.954735 
L 985.303125 219.097026 
" style="fill:none;stroke:#e4d354;stroke-linecap:square;"/>
   </g>
   <g id="line2d_34">
    <path clip-path="url(#pb9ac63f1f1)" d="M 99.926875 337.186103 
L 146.525625 328.110858 
L 193.124375 321.685234 
L 239.723125 315.703159 
L 286.321875 310.876646 
L 332.920625 306.411975 
L 379.519375 302.361673 
L 426.118125 298.468947 
L 472.716875 294.681272 
L 519.315625 291.319638 
L 565.914375 288.080563 
L 612.513125 285.127461 
L 659.111875 282.314427 
L 705.710625 279.390505 
L 752.309375 276.735048 
L 798.908125 274.102935 
L 845.506875 271.429968 
L 892.105625 269.013794 
L 938.704375 266.416698 
L 985.303125 264.257315 
" style="fill:none;stroke:#2b908f;stroke-linecap:square;"/>
   </g>
   <g id="line2d_35">
    <path clip-path="url(#pb9ac63f1f1)" d="M 99.926875 319.327421 
L 146.525625 300.931811 
L 193.124375 286.201316 
L 239.723125 273.997883 
L 286.321875 263.130934 
L 332.920625 253.699682 
L 379.519375 245.13802 
L 426.118125 237.124957 
L 472.716875 229.800563 
L 519.315625 223.059786 
L 565.914375 216.033037 
L 612.513125 209.286423 
L 659.111875 202.919161 
L 705.710625 197.345618 
L 752.309375 191.620335 
L 798.908125 185.982594 
L 845.506875 181.1269 
L 892.105625 175.94438 
L 938.704375 171.415512 
L 985.303125 166.431422 
" style="fill:none;stroke:#f45b5b;stroke-linecap:square;"/>
   </g>
   <g id="line2d_36">
    <path clip-path="url(#pb9ac63f1f1)" d="M 99.926875 323.290181 
L 146.525625 307.585046 
L 193.124375 295.364104 
L 239.723125 285.471795 
L 286.321875 276.454911 
L 332.920625 268.529392 
L 379.519375 261.397591 
L 426.118125 254.283299 
L 472.716875 247.857675 
L 519.315625 241.968979 
L 565.914375 235.969396 
L 612.513125 230.483395 
L 659.111875 225.347565 
L 705.710625 220.211735 
L 752.309375 215.233481 
L 798.908125 210.669596 
L 845.506875 206.1524 
L 892.105625 202.020391 
L 938.704375 197.824184 
L 985.303125 193.820571 
" style="fill:none;stroke:#91e8e1;stroke-linecap:square;"/>
   </g>
   <g id="line2d_37">
    <path clip-path="url(#pb9ac63f1f1)" d="M 99.926875 325.198609 
L 146.525625 310.269684 
L 193.124375 298.807445 
L 239.723125 289.382029 
L 286.321875 281.304769 
L 332.920625 273.741092 
L 379.519375 266.842738 
L 426.118125 260.551346 
L 472.716875 254.306644 
L 519.315625 248.727265 
L 565.914375 242.961128 
L 612.513125 237.854479 
L 659.111875 233.068819 
L 705.710625 228.399882 
L 752.309375 223.655075 
L 798.908125 219.237094 
L 845.506875 214.696554 
L 892.105625 210.547036 
L 938.704375 206.677655 
L 985.303125 202.609844 
" style="fill:none;stroke:#7cb5ec;stroke-linecap:square;"/>
   </g>
   <g id="line2d_38">
    <path clip-path="url(#pb9ac63f1f1)" d="M 99.926875 323.93216 
L 146.525625 306.073477 
L 193.124375 292.282606 
L 239.723125 280.58692 
L 286.321875 270.431983 
L 332.920625 260.773121 
L 379.519375 251.802927 
L 426.118125 243.533073 
L 472.716875 236.021921 
L 519.315625 228.825923 
L 565.914375 221.600743 
L 612.513125 214.70239 
L 659.111875 208.160042 
L 705.710625 201.676057 
L 752.309375 195.705654 
L 798.908125 190.178801 
L 845.506875 184.406828 
L 892.105625 179.259325 
L 938.704375 174.228546 
L 985.303125 169.110225 
" style="fill:none;stroke:#434348;stroke-linecap:square;"/>
   </g>
   <g id="line2d_39">
    <path clip-path="url(#pb9ac63f1f1)" d="M 99.926875 328.542734 
L 146.525625 315.253774 
L 193.124375 305.717471 
L 239.723125 297.202498 
L 286.321875 290.380014 
L 332.920625 283.884357 
L 379.519375 278.223271 
L 426.118125 272.626383 
L 472.716875 267.484717 
L 519.315625 262.360559 
L 565.914375 257.668278 
L 612.513125 253.384529 
L 659.111875 248.960711 
L 705.710625 244.752832 
L 752.309375 240.597479 
L 798.908125 236.979053 
L 845.506875 233.313938 
L 892.105625 229.654659 
L 938.704375 226.322205 
L 985.303125 222.750469 
" style="fill:none;stroke:#90ed7d;stroke-linecap:square;"/>
   </g>
   <g id="line2d_40">
    <path clip-path="url(#pb9ac63f1f1)" d="M 99.926875 327.352156 
L 146.525625 311.320195 
L 193.124375 298.562326 
L 239.723125 287.794591 
L 286.321875 277.91979 
L 332.920625 268.827036 
L 379.519375 260.854827 
L 426.118125 252.958488 
L 472.716875 245.750818 
L 519.315625 239.511951 
L 565.914375 233.267249 
L 612.513125 227.436914 
L 659.111875 221.501529 
L 705.710625 216.003856 
L 752.309375 210.290245 
L 798.908125 204.93264 
L 845.506875 199.650906 
L 892.105625 194.678488 
L 938.704375 189.863647 
L 985.303125 185.04297 
" style="fill:none;stroke:#f7a35c;stroke-linecap:square;"/>
   </g>
   <g id="line2d_41">
    <path clip-path="url(#pb9ac63f1f1)" d="M 99.926875 330.054303 
L 146.525625 317.961757 
L 193.124375 308.565522 
L 239.723125 300.581641 
L 286.321875 293.566564 
L 332.920625 287.403567 
L 379.519375 281.946748 
L 426.118125 276.647505 
L 472.716875 271.704268 
L 519.315625 267.087857 
L 565.914375 262.599842 
L 612.513125 258.450325 
L 659.111875 254.090705 
L 705.710625 250.139618 
L 752.309375 246.538701 
L 798.908125 242.949456 
L 845.506875 239.511951 
L 892.105625 236.19117 
L 938.704375 232.759502 
L 985.303125 229.578789 
" style="fill:none;stroke:#8085e9;stroke-linecap:square;"/>
   </g>
   <g id="line2d_42">
    <path clip-path="url(#pb9ac63f1f1)" d="M 99.926875 314.535925 
L 146.525625 292.568578 
L 193.124375 275.637847 
L 239.723125 260.860663 
L 286.321875 248.785626 
L 332.920625 237.049087 
L 379.519375 226.450601 
L 426.118125 216.949315 
L 472.716875 207.377996 
L 519.315625 199.096469 
L 565.914375 191.071735 
L 612.513125 183.292119 
L 659.111875 175.897691 
L 705.710625 168.625822 
L 752.309375 161.569892 
L 798.908125 154.85246 
L 845.506875 148.1467 
L 892.105625 141.977867 
L 938.704375 135.896577 
L 985.303125 130.194639 
" style="fill:none;stroke:#f15c80;stroke-linecap:square;"/>
   </g>
   <g id="line2d_43">
    <path clip-path="url(#pb9ac63f1f1)" d="M 99.926875 321.200832 
L 146.525625 304.497711 
L 193.124375 292.142538 
L 239.723125 281.818352 
L 286.321875 272.106964 
L 332.920625 263.597827 
L 379.519375 256.092512 
L 426.118125 248.569688 
L 472.716875 241.898945 
L 519.315625 235.630898 
L 565.914375 229.83558 
L 612.513125 223.795144 
L 659.111875 218.250781 
L 705.710625 212.986556 
L 752.309375 207.5239 
L 798.908125 202.790765 
L 845.506875 198.320259 
L 892.105625 194.024837 
L 938.704375 189.682726 
L 985.303125 185.591571 
" style="fill:none;stroke:#e4d354;stroke-linecap:square;"/>
   </g>
   <g id="line2d_44">
    <path clip-path="url(#pb9ac63f1f1)" d="M 99.926875 326.716013 
L 146.525625 312.248146 
L 193.124375 300.990173 
L 239.723125 291.372163 
L 286.321875 283.10231 
L 332.920625 275.99969 
L 379.519375 269.404817 
L 426.118125 263.165951 
L 472.716875 257.417323 
L 519.315625 251.738729 
L 565.914375 246.416141 
L 612.513125 241.408707 
L 659.111875 236.31373 
L 705.710625 231.317968 
L 752.309375 227.104252 
L 798.908125 222.499514 
L 845.506875 218.122386 
L 892.105625 214.002049 
L 938.704375 210.103487 
L 985.303125 206.450044 
" style="fill:none;stroke:#2b908f;stroke-linecap:square;"/>
   </g>
   <g id="line2d_45">
    <path clip-path="url(#pb9ac63f1f1)" d="M 99.926875 328.175056 
L 146.525625 313.742206 
L 193.124375 301.871434 
L 239.723125 291.378 
L 286.321875 282.203539 
L 332.920625 274.184641 
L 379.519375 266.650145 
L 426.118125 259.430802 
L 472.716875 252.853437 
L 519.315625 246.702113 
L 565.914375 240.708366 
L 612.513125 235.152332 
L 659.111875 229.783055 
L 705.710625 224.804801 
L 752.309375 219.908254 
L 798.908125 214.754915 
L 845.506875 209.7183 
L 892.105625 205.434551 
L 938.704375 200.911518 
L 985.303125 196.674459 
" style="fill:none;stroke:#f45b5b;stroke-linecap:square;"/>
   </g>
   <g id="line2d_46">
    <path clip-path="url(#pb9ac63f1f1)" d="M 99.926875 328.210073 
L 146.525625 314.903604 
L 193.124375 304.649452 
L 239.723125 296.362089 
L 286.321875 289.107729 
L 332.920625 282.55371 
L 379.519375 276.227301 
L 426.118125 270.601232 
L 472.716875 265.465402 
L 519.315625 260.317899 
L 565.914375 255.695652 
L 612.513125 251.271835 
L 659.111875 246.807164 
L 705.710625 242.587613 
L 752.309375 238.484785 
L 798.908125 234.504517 
L 845.506875 230.938616 
L 892.105625 227.337699 
L 938.704375 223.742618 
L 985.303125 219.984124 
" style="fill:none;stroke:#91e8e1;stroke-linecap:square;"/>
   </g>
   <g id="line2d_47">
    <path clip-path="url(#pb9ac63f1f1)" d="M 99.926875 308.944873 
L 146.525625 286.265514 
L 193.124375 267.770689 
L 239.723125 252.462414 
L 286.321875 238.811611 
L 332.920625 227.343535 
L 379.519375 216.371535 
L 426.118125 206.409191 
L 472.716875 197.018793 
L 519.315625 188.071943 
L 565.914375 179.784581 
L 612.513125 171.55558 
L 659.111875 164.166988 
L 705.710625 156.965154 
L 752.309375 150.136834 
L 798.908125 143.576978 
L 845.506875 137.186371 
L 892.105625 130.562318 
L 938.704375 124.440174 
L 985.303125 118.493117 
" style="fill:none;stroke:#7cb5ec;stroke-linecap:square;"/>
   </g>
   <g id="line2d_48">
    <path clip-path="url(#pb9ac63f1f1)" d="M 99.926875 319.37411 
L 146.525625 302.54843 
L 193.124375 289.895612 
L 239.723125 280.049992 
L 286.321875 271.068126 
L 332.920625 262.914995 
L 379.519375 255.456369 
L 426.118125 248.797299 
L 472.716875 242.062358 
L 519.315625 236.290385 
L 565.914375 230.495067 
L 612.513125 225.254186 
L 659.111875 220.095011 
L 705.710625 215.12843 
L 752.309375 210.38946 
L 798.908125 205.48124 
L 845.506875 201.004897 
L 892.105625 196.802854 
L 938.704375 192.548286 
L 985.303125 188.299554 
" style="fill:none;stroke:#434348;stroke-linecap:square;"/>
   </g>
   <g id="line2d_49">
    <path clip-path="url(#pb9ac63f1f1)" d="M 99.926875 308.612212 
L 146.525625 283.347429 
L 193.124375 262.54148 
L 239.723125 245.48819 
L 286.321875 230.85691 
L 332.920625 216.826756 
L 379.519375 203.993017 
L 426.118125 191.859618 
L 472.716875 181.167753 
L 519.315625 170.756025 
L 565.914375 161.260575 
L 612.513125 151.7126 
L 659.111875 143.092576 
L 705.710625 134.606784 
L 752.309375 126.587885 
L 798.908125 118.726563 
L 845.506875 111.051999 
L 892.105625 103.937707 
L 938.704375 96.811743 
L 985.303125 89.580727 
" style="fill:none;stroke:#90ed7d;stroke-linecap:square;"/>
   </g>
   <g id="line2d_50">
    <path clip-path="url(#pb9ac63f1f1)" d="M 99.926875 316.975444 
L 146.525625 297.850313 
L 193.124375 283.592548 
L 239.723125 271.645907 
L 286.321875 260.650561 
L 332.920625 251.166784 
L 379.519375 242.249115 
L 426.118125 234.189363 
L 472.716875 226.882478 
L 519.315625 219.709824 
L 565.914375 212.869832 
L 612.513125 206.736017 
L 659.111875 200.432952 
L 705.710625 194.637635 
L 752.309375 189.209996 
L 798.908125 183.735668 
L 845.506875 178.010385 
L 892.105625 173.00295 
L 938.704375 168.135584 
L 985.303125 163.27989 
" style="fill:none;stroke:#f7a35c;stroke-linecap:square;"/>
   </g>
   <g id="line2d_51">
    <path clip-path="url(#pb9ac63f1f1)" d="M 99.926875 324.095572 
L 146.525625 309.569344 
L 193.124375 298.568162 
L 239.723125 289.218617 
L 286.321875 281.246407 
L 332.920625 274.219658 
L 379.519375 267.508062 
L 426.118125 261.543495 
L 472.716875 255.748178 
L 519.315625 250.122109 
L 565.914375 244.962935 
L 612.513125 240.253145 
L 659.111875 235.595881 
L 705.710625 231.218753 
L 752.309375 226.97002 
L 798.908125 223.024769 
L 845.506875 218.904433 
L 892.105625 215.145939 
L 938.704375 211.346592 
L 985.303125 207.891579 
" style="fill:none;stroke:#8085e9;stroke-linecap:square;"/>
   </g>
   <g id="line2d_52">
    <path clip-path="url(#pb9ac63f1f1)" d="M 99.926875 318.20104 
L 146.525625 300.698364 
L 193.124375 287.514455 
L 239.723125 276.419894 
L 286.321875 266.381681 
L 332.920625 257.919233 
L 379.519375 249.690233 
L 426.118125 242.570105 
L 472.716875 235.660079 
L 519.315625 229.13524 
L 565.914375 223.001424 
L 612.513125 217.165254 
L 659.111875 211.813485 
L 705.710625 206.736017 
L 752.309375 201.530153 
L 798.908125 196.890397 
L 845.506875 192.180607 
L 892.105625 187.587541 
L 938.704375 183.117034 
L 985.303125 178.442261 
" style="fill:none;stroke:#f15c80;stroke-linecap:square;"/>
   </g>
   <g id="line2d_53">
    <path clip-path="url(#pb9ac63f1f1)" d="M 99.926875 310.935007 
L 146.525625 289.417046 
L 193.124375 272.748943 
L 239.723125 258.969744 
L 286.321875 247.046447 
L 332.920625 236.319566 
L 379.519375 226.835788 
L 426.118125 217.91812 
L 472.716875 209.899221 
L 519.315625 201.962029 
L 565.914375 194.503403 
L 612.513125 187.453309 
L 659.111875 180.677515 
L 705.710625 173.820014 
L 752.309375 167.884629 
L 798.908125 161.797503 
L 845.506875 156.270649 
L 892.105625 150.650417 
L 938.704375 145.20527 
L 985.303125 139.911863 
" style="fill:none;stroke:#e4d354;stroke-linecap:square;"/>
   </g>
   <g id="line2d_54">
    <path clip-path="url(#pb9ac63f1f1)" d="M 99.926875 316.800359 
L 146.525625 298.293862 
L 193.124375 284.532171 
L 239.723125 272.865666 
L 286.321875 262.979193 
L 332.920625 253.880603 
L 379.519375 245.482354 
L 426.118125 238.105434 
L 472.716875 231.078685 
L 519.315625 224.606371 
L 565.914375 218.554262 
L 612.513125 212.834815 
L 659.111875 206.92861 
L 705.710625 201.197491 
L 752.309375 196.067497 
L 798.908125 190.69822 
L 845.506875 185.778328 
L 892.105625 181.074374 
L 938.704375 176.335404 
L 985.303125 171.969948 
" style="fill:none;stroke:#2b908f;stroke-linecap:square;"/>
   </g>
   <g id="line2d_55">
    <path clip-path="url(#pb9ac63f1f1)" d="M 99.926875 313.934799 
L 146.525625 292.510217 
L 193.124375 275.812933 
L 239.723125 261.204997 
L 286.321875 248.417948 
L 332.920625 236.757279 
L 379.519375 226.205482 
L 426.118125 216.739213 
L 472.716875 207.500555 
L 519.315625 199.04978 
L 565.914375 190.744909 
L 612.513125 183.006147 
L 659.111875 175.541685 
L 705.710625 168.649167 
L 752.309375 161.569892 
L 798.908125 155.074234 
L 845.506875 148.747825 
L 892.105625 142.736569 
L 938.704375 136.591082 
L 985.303125 130.749075 
" style="fill:none;stroke:#f45b5b;stroke-linecap:square;"/>
   </g>
   <g id="line2d_56">
    <path clip-path="url(#pb9ac63f1f1)" d="M 99.926875 317.477355 
L 146.525625 300.068058 
L 193.124375 286.81995 
L 239.723125 276.110577 
L 286.321875 266.994479 
L 332.920625 258.602065 
L 379.519375 250.874975 
L 426.118125 243.7957 
L 472.716875 237.084104 
L 519.315625 231.014487 
L 565.914375 225.067429 
L 612.513125 219.447196 
L 659.111875 214.054575 
L 705.710625 208.918745 
L 752.309375 204.133085 
L 798.908125 199.499165 
L 845.506875 194.742686 
L 892.105625 190.278016 
L 938.704375 186.373617 
L 985.303125 182.212428 
" style="fill:none;stroke:#91e8e1;stroke-linecap:square;"/>
   </g>
   <g id="line2d_57">
    <path clip-path="url(#pb9ac63f1f1)" d="M 99.926875 330.100992 
L 146.525625 317.582406 
L 193.124375 307.818492 
L 239.723125 299.402734 
L 286.321875 292.265098 
L 332.920625 285.699406 
L 379.519375 279.734839 
L 426.118125 274.651535 
L 472.716875 269.323111 
L 519.315625 264.794242 
L 565.914375 259.926876 
L 612.513125 255.48555 
L 659.111875 251.277671 
L 705.710625 247.507505 
L 752.309375 243.457202 
L 798.908125 240.002189 
L 845.506875 236.325402 
L 892.105625 232.981276 
L 938.704375 229.537935 
L 985.303125 226.199646 
" style="fill:none;stroke:#7cb5ec;stroke-linecap:square;"/>
   </g>
   <g id="line2d_58">
    <path clip-path="url(#pb9ac63f1f1)" d="M 99.926875 328.700311 
L 146.525625 313.998997 
L 193.124375 302.67099 
L 239.723125 292.813698 
L 286.321875 284.047769 
L 332.920625 276.192284 
L 379.519375 268.558572 
L 426.118125 261.327557 
L 472.716875 254.668486 
L 519.315625 248.254535 
L 565.914375 242.266624 
L 612.513125 236.576357 
L 659.111875 230.576774 
L 705.710625 225.435108 
L 752.309375 220.380984 
L 798.908125 215.163447 
L 845.506875 210.325262 
L 892.105625 205.574619 
L 938.704375 201.273361 
L 985.303125 197.077154 
" style="fill:none;stroke:#434348;stroke-linecap:square;"/>
   </g>
   <g id="line2d_59">
    <path clip-path="url(#pb9ac63f1f1)" d="M 99.926875 325.939802 
L 146.525625 311.156782 
L 193.124375 299.904645 
L 239.723125 290.946123 
L 286.321875 282.909716 
L 332.920625 275.270169 
L 379.519375 268.710313 
L 426.118125 262.471446 
L 472.716875 256.454355 
L 519.315625 250.810777 
L 565.914375 245.540715 
L 612.513125 240.194783 
L 659.111875 235.502502 
L 705.710625 231.218753 
L 752.309375 226.503127 
L 798.908125 222.10849 
L 845.506875 217.696345 
L 892.105625 213.640207 
L 938.704375 209.665774 
L 985.303125 206.02984 
" style="fill:none;stroke:#90ed7d;stroke-linecap:square;"/>
   </g>
   <g id="line2d_60">
    <path clip-path="url(#pb9ac63f1f1)" d="M 99.926875 324.842602 
L 146.525625 308.448799 
L 193.124375 295.836834 
L 239.723125 285.635208 
L 286.321875 276.314843 
L 332.920625 267.607277 
L 379.519375 259.494999 
L 426.118125 252.04221 
L 472.716875 245.272252 
L 519.315625 238.496457 
L 565.914375 232.298444 
L 612.513125 226.07125 
L 659.111875 220.468526 
L 705.710625 215.180956 
L 752.309375 209.677447 
L 798.908125 204.319842 
L 845.506875 199.329916 
L 892.105625 194.316646 
L 938.704375 189.507641 
L 985.303125 185.01379 
" style="fill:none;stroke:#f7a35c;stroke-linecap:square;"/>
   </g>
   <g id="line2d_61">
    <path clip-path="url(#pb9ac63f1f1)" d="M 99.926875 328.303451 
L 146.525625 314.675993 
L 193.124375 304.275937 
L 239.723125 295.381613 
L 286.321875 287.193465 
L 332.920625 280.341801 
L 379.519375 273.723583 
L 426.118125 268.027481 
L 472.716875 262.763255 
L 519.315625 257.627425 
L 565.914375 252.678352 
L 612.513125 247.863511 
L 659.111875 243.36966 
L 705.710625 239.272668 
L 752.309375 235.128987 
L 798.908125 231.13121 
L 845.506875 226.923331 
L 892.105625 223.351595 
L 938.704375 219.330473 
L 985.303125 215.583651 
" style="fill:none;stroke:#8085e9;stroke-linecap:square;"/>
   </g>
   <g id="line2d_62">
    <path clip-path="url(#pb9ac63f1f1)" d="M 99.926875 323.342706 
L 146.525625 306.762145 
L 193.124375 294.535368 
L 239.723125 283.697599 
L 286.321875 274.663207 
L 332.920625 266.247449 
L 379.519375 258.257731 
L 426.118125 251.143439 
L 472.716875 244.496041 
L 519.315625 238.169632 
L 565.914375 232.105851 
L 612.513125 226.333878 
L 659.111875 220.596922 
L 705.710625 215.151775 
L 752.309375 209.741645 
L 798.908125 204.950149 
L 845.506875 200.22285 
L 892.105625 195.612276 
L 938.704375 190.844124 
L 985.303125 186.472832 
" style="fill:none;stroke:#f15c80;stroke-linecap:square;"/>
   </g>
   <g id="line2d_63">
    <path clip-path="url(#pb9ac63f1f1)" d="M 99.926875 325.011851 
L 146.525625 307.783475 
L 193.124375 294.652091 
L 239.723125 283.230705 
L 286.321875 272.90652 
L 332.920625 263.743732 
L 379.519375 255.398008 
L 426.118125 247.589211 
L 472.716875 240.638332 
L 519.315625 233.716634 
L 565.914375 227.145106 
L 612.513125 220.626103 
L 659.111875 214.830785 
L 705.710625 208.907072 
L 752.309375 203.16428 
L 798.908125 197.748314 
L 845.506875 192.437399 
L 892.105625 187.068122 
L 938.704375 182.130721 
L 985.303125 177.129123 
" style="fill:none;stroke:#e4d354;stroke-linecap:square;"/>
   </g>
   <g id="line2d_64">
    <path clip-path="url(#pb9ac63f1f1)" d="M 99.926875 327.72567 
L 146.525625 313.823912 
L 193.124375 303.231262 
L 239.723125 294.161853 
L 286.321875 286.411418 
L 332.920625 279.285454 
L 379.519375 272.959045 
L 426.118125 267.029496 
L 472.716875 261.385919 
L 519.315625 255.987461 
L 565.914375 250.962518 
L 612.513125 246.223547 
L 659.111875 241.327 
L 705.710625 236.827313 
L 752.309375 232.666123 
L 798.908125 228.726708 
L 845.506875 224.816473 
L 892.105625 220.900403 
L 938.704375 217.316994 
L 985.303125 213.692732 
" style="fill:none;stroke:#2b908f;stroke-linecap:square;"/>
   </g>
   <g id="line2d_65">
    <path clip-path="url(#pb9ac63f1f1)" d="M 99.926875 320.628887 
L 146.525625 303.505562 
L 193.124375 290.380014 
L 239.723125 279.729003 
L 286.321875 270.478673 
L 332.920625 261.829468 
L 379.519375 254.102378 
L 426.118125 247.005594 
L 472.716875 240.136421 
L 519.315625 233.512368 
L 565.914375 227.209303 
L 612.513125 220.93542 
L 659.111875 214.97669 
L 705.710625 209.479017 
L 752.309375 204.220627 
L 798.908125 199.224865 
L 845.506875 194.33999 
L 892.105625 189.805286 
L 938.704375 185.136349 
L 985.303125 181.185262 
" style="fill:none;stroke:#f45b5b;stroke-linecap:square;"/>
   </g>
   <g id="line2d_66">
    <path clip-path="url(#pb9ac63f1f1)" d="M 99.926875 322.858304 
L 146.525625 305.069656 
L 193.124375 291.185406 
L 239.723125 279.116205 
L 286.321875 268.301781 
L 332.920625 258.905546 
L 379.519375 250.133782 
L 426.118125 241.828911 
L 472.716875 233.273085 
L 519.315625 225.785278 
L 565.914375 218.764364 
L 612.513125 211.936045 
L 659.111875 205.276974 
L 705.710625 199.113978 
L 752.309375 193.038524 
L 798.908125 187.307405 
L 845.506875 181.728026 
L 892.105625 176.382093 
L 938.704375 171.030325 
L 985.303125 166.14545 
" style="fill:none;stroke:#91e8e1;stroke-linecap:square;"/>
   </g>
   <g id="line2d_67">
    <path clip-path="url(#pb9ac63f1f1)" d="M 99.926875 326.529255 
L 146.525625 312.423231 
L 193.124375 301.486247 
L 239.723125 292.761172 
L 286.321875 285.232512 
L 332.920625 278.264124 
L 379.519375 271.832664 
L 426.118125 266.008166 
L 472.716875 260.533838 
L 519.315625 255.141216 
L 565.914375 250.07542 
L 612.513125 245.359794 
L 659.111875 240.97683 
L 705.710625 236.494651 
L 752.309375 232.129195 
L 798.908125 228.236469 
L 845.506875 224.215348 
L 892.105625 220.421837 
L 938.704375 216.371535 
L 985.303125 212.706419 
" style="fill:none;stroke:#7cb5ec;stroke-linecap:square;"/>
   </g>
   <g id="line2d_68">
    <path clip-path="url(#pb9ac63f1f1)" d="M 99.926875 325.006015 
L 146.525625 309.312552 
L 193.124375 297.085775 
L 239.723125 287.01838 
L 286.321875 277.978152 
L 332.920625 269.714134 
L 379.519375 262.734074 
L 426.118125 255.75985 
L 472.716875 248.773954 
L 519.315625 242.873585 
L 565.914375 236.780623 
L 612.513125 231.364657 
L 659.111875 225.890329 
L 705.710625 220.713645 
L 752.309375 215.688703 
L 798.908125 210.932223 
L 845.506875 206.415027 
L 892.105625 201.769436 
L 938.704375 197.520703 
L 985.303125 192.898456 
" style="fill:none;stroke:#434348;stroke-linecap:square;"/>
   </g>
   <g id="line2d_69">
    <path clip-path="url(#pb9ac63f1f1)" d="M 99.926875 326.214102 
L 146.525625 312.300671 
L 193.124375 301.258637 
L 239.723125 291.856566 
L 286.321875 283.656746 
L 332.920625 276.186447 
L 379.519375 269.375636 
L 426.118125 263.113425 
L 472.716875 257.510701 
L 519.315625 251.79709 
L 565.914375 246.106824 
L 612.513125 241.140243 
L 659.111875 236.144481 
L 705.710625 231.60394 
L 752.309375 227.24432 
L 798.908125 222.873029 
L 845.506875 218.688494 
L 892.105625 214.883311 
L 938.704375 211.083964 
L 985.303125 207.057006 
" style="fill:none;stroke:#90ed7d;stroke-linecap:square;"/>
   </g>
   <g id="line2d_70">
    <path clip-path="url(#pb9ac63f1f1)" d="M 99.926875 319.344929 
L 146.525625 300.931811 
L 193.124375 287.426912 
L 239.723125 275.993854 
L 286.321875 265.337006 
L 332.920625 255.578929 
L 379.519375 246.713786 
L 426.118125 238.338881 
L 472.716875 230.640972 
L 519.315625 223.264052 
L 565.914375 216.190613 
L 612.513125 209.327277 
L 659.111875 203.01254 
L 705.710625 197.20555 
L 752.309375 191.655352 
L 798.908125 186.297747 
L 845.506875 180.969323 
L 892.105625 175.629227 
L 938.704375 170.861076 
L 985.303125 165.94702 
" style="fill:none;stroke:#f7a35c;stroke-linecap:square;"/>
   </g>
   <g id="line2d_71">
    <path clip-path="url(#pb9ac63f1f1)" d="M 99.926875 312.86678 
L 146.525625 289.988991 
L 193.124375 272.696417 
L 239.723125 256.90374 
L 286.321875 243.217919 
L 332.920625 231.107865 
L 379.519375 220.024977 
L 426.118125 209.659938 
L 472.716875 199.621725 
L 519.315625 190.464773 
L 565.914375 181.208606 
L 612.513125 172.571074 
L 659.111875 164.231186 
L 705.710625 156.469079 
L 752.309375 148.438508 
L 798.908125 141.236674 
L 845.506875 134.011494 
L 892.105625 126.552868 
L 938.704375 119.619498 
L 985.303125 112.814523 
" style="fill:none;stroke:#8085e9;stroke-linecap:square;"/>
   </g>
   <g id="line2d_72">
    <path clip-path="url(#pb9ac63f1f1)" d="M 99.926875 303.733173 
L 146.525625 274.342218 
L 193.124375 250.933337 
L 239.723125 230.862746 
L 286.321875 213.231675 
L 332.920625 196.744493 
L 379.519375 182.089868 
L 426.118125 168.730874 
L 472.716875 155.937987 
L 519.315625 144.201448 
L 565.914375 133.141905 
L 612.513125 122.216593 
L 659.111875 112.184216 
L 705.710625 102.466992 
L 752.309375 92.720587 
L 798.908125 83.476093 
L 845.506875 74.558424 
L 892.105625 66.113485 
L 938.704375 58.129604 
L 985.303125 49.807224 
" style="fill:none;stroke:#f15c80;stroke-linecap:square;"/>
   </g>
   <g id="line2d_73">
    <path clip-path="url(#pb9ac63f1f1)" d="M 99.926875 323.558645 
L 146.525625 307.503339 
L 193.124375 295.375777 
L 239.723125 284.573025 
L 286.321875 275.200135 
L 332.920625 266.743523 
L 379.519375 258.642919 
L 426.118125 251.230982 
L 472.716875 244.577747 
L 519.315625 238.11127 
L 565.914375 231.965782 
L 612.513125 225.808622 
L 659.111875 220.217571 
L 705.710625 214.965017 
L 752.309375 209.624921 
L 798.908125 204.728374 
L 845.506875 199.79681 
L 892.105625 195.098693 
L 938.704375 190.523135 
L 985.303125 185.83669 
" style="fill:none;stroke:#e4d354;stroke-linecap:square;"/>
   </g>
   <g id="line2d_74">
    <path clip-path="url(#pb9ac63f1f1)" d="M 99.926875 314.279133 
L 146.525625 292.889568 
L 193.124375 275.742899 
L 239.723125 261.835304 
L 286.321875 249.690233 
L 332.920625 238.315536 
L 379.519375 228.236469 
L 426.118125 218.525081 
L 472.716875 209.578232 
L 519.315625 201.127457 
L 565.914375 193.155248 
L 612.513125 185.428158 
L 659.111875 178.3839 
L 705.710625 171.520563 
L 752.309375 164.668899 
L 798.908125 158.161568 
L 845.506875 152.016081 
L 892.105625 145.853085 
L 938.704375 140.075276 
L 985.303125 133.953133 
" style="fill:none;stroke:#2b908f;stroke-linecap:square;"/>
   </g>
   <g id="line2d_75">
    <path clip-path="url(#pb9ac63f1f1)" d="M 99.926875 320.348751 
L 146.525625 302.244949 
L 193.124375 288.11558 
L 239.723125 276.139758 
L 286.321875 265.477074 
L 332.920625 256.127529 
L 379.519375 247.215696 
L 426.118125 239.278504 
L 472.716875 231.52807 
L 519.315625 224.641388 
L 565.914375 217.678837 
L 612.513125 211.43997 
L 659.111875 204.909295 
L 705.710625 199.061452 
L 752.309375 193.207773 
L 798.908125 187.488326 
L 845.506875 182.276626 
L 892.105625 177.380078 
L 938.704375 172.536057 
L 985.303125 167.476097 
" style="fill:none;stroke:#f45b5b;stroke-linecap:square;"/>
   </g>
   <g id="line2d_76">
    <path clip-path="url(#pb9ac63f1f1)" d="M 99.926875 318.889708 
L 146.525625 298.264681 
L 193.124375 281.427329 
L 239.723125 266.982806 
L 286.321875 254.026508 
L 332.920625 242.383347 
L 379.519375 231.452199 
L 426.118125 220.987945 
L 472.716875 211.661745 
L 519.315625 202.440595 
L 565.914375 193.843916 
L 612.513125 185.486519 
L 659.111875 177.671887 
L 705.710625 170.096537 
L 752.309375 162.824669 
L 798.908125 155.669524 
L 845.506875 148.712808 
L 892.105625 142.193806 
L 938.704375 135.803199 
L 985.303125 129.745254 
" style="fill:none;stroke:#91e8e1;stroke-linecap:square;"/>
   </g>
   <g id="line2d_77">
    <path clip-path="url(#pb9ac63f1f1)" d="M 99.926875 320.588034 
L 146.525625 304.310954 
L 193.124375 291.523904 
L 239.723125 280.884565 
L 286.321875 271.424132 
L 332.920625 263.072572 
L 379.519375 255.415516 
L 426.118125 248.342077 
L 472.716875 241.811402 
L 519.315625 235.712604 
L 565.914375 229.666331 
L 612.513125 223.958556 
L 659.111875 218.700167 
L 705.710625 213.371743 
L 752.309375 208.69697 
L 798.908125 204.226463 
L 845.506875 199.738448 
L 892.105625 195.250433 
L 938.704375 191.106752 
L 985.303125 187.13232 
" style="fill:none;stroke:#7cb5ec;stroke-linecap:square;"/>
   </g>
   <g id="line2d_78">
    <path clip-path="url(#pb9ac63f1f1)" d="M 99.926875 307.53252 
L 146.525625 284.444629 
L 193.124375 266.089872 
L 239.723125 251.032552 
L 286.321875 237.819462 
L 332.920625 226.328042 
L 379.519375 216.143924 
L 426.118125 206.02984 
L 472.716875 196.639442 
L 519.315625 188.019418 
L 565.914375 179.942157 
L 612.513125 171.969948 
L 659.111875 164.242858 
L 705.710625 157.163583 
L 752.309375 150.031783 
L 798.908125 143.326023 
L 845.506875 137.022958 
L 892.105625 130.813273 
L 938.704375 124.656113 
L 985.303125 118.773253 
" style="fill:none;stroke:#434348;stroke-linecap:square;"/>
   </g>
   <g id="line2d_79">
    <path clip-path="url(#pb9ac63f1f1)" d="M 99.926875 321.661889 
L 146.525625 305.028803 
L 193.124375 293.385642 
L 239.723125 282.898044 
L 286.321875 273.787781 
L 332.920625 265.873934 
L 379.519375 258.450325 
L 426.118125 251.400231 
L 472.716875 244.81703 
L 519.315625 238.724068 
L 565.914375 233.226395 
L 612.513125 227.682033 
L 659.111875 222.452824 
L 705.710625 217.346175 
L 752.309375 212.788126 
L 798.908125 208.212568 
L 845.506875 203.724553 
L 892.105625 199.440803 
L 938.704375 195.122037 
L 985.303125 191.083407 
" style="fill:none;stroke:#90ed7d;stroke-linecap:square;"/>
   </g>
   <g id="line2d_80">
    <path clip-path="url(#pb9ac63f1f1)" d="M 99.926875 323.862125 
L 146.525625 305.717471 
L 193.124375 291.850729 
L 239.723125 279.991631 
L 286.321875 269.515704 
L 332.920625 259.617559 
L 379.519375 250.89832 
L 426.118125 242.74519 
L 472.716875 235.175676 
L 519.315625 227.512784 
L 565.914375 220.345967 
L 612.513125 213.844473 
L 659.111875 207.506391 
L 705.710625 200.96988 
L 752.309375 195.057839 
L 798.908125 189.151635 
L 845.506875 183.64229 
L 892.105625 178.191306 
L 938.704375 172.658616 
L 985.303125 167.820431 
" style="fill:none;stroke:#f7a35c;stroke-linecap:square;"/>
   </g>
   <g id="line2d_81">
    <path clip-path="url(#pb9ac63f1f1)" d="M 99.926875 321.947862 
L 146.525625 304.94126 
L 193.124375 291.798204 
L 239.723125 280.721152 
L 286.321875 270.957239 
L 332.920625 262.092095 
L 379.519375 253.361184 
L 426.118125 245.505698 
L 472.716875 238.192977 
L 519.315625 231.352985 
L 565.914375 224.857327 
L 612.513125 218.239109 
L 659.111875 211.696762 
L 705.710625 205.837246 
L 752.309375 200.211178 
L 798.908125 194.520912 
L 845.506875 189.046584 
L 892.105625 183.834883 
L 938.704375 178.938336 
L 985.303125 174.339434 
" style="fill:none;stroke:#8085e9;stroke-linecap:square;"/>
   </g>
   <g id="line2d_82">
    <path clip-path="url(#pb9ac63f1f1)" d="M 99.926875 318.510357 
L 146.525625 299.373553 
L 193.124375 285.226676 
L 239.723125 272.702254 
L 286.321875 261.71858 
L 332.920625 251.481937 
L 379.519375 241.630481 
L 426.118125 233.214723 
L 472.716875 225.213333 
L 519.315625 217.422045 
L 565.914375 210.06847 
L 612.513125 202.948342 
L 659.111875 196.300944 
L 705.710625 190.155456 
L 752.309375 183.934098 
L 798.908125 178.150453 
L 845.506875 172.366808 
L 892.105625 166.402241 
L 938.704375 160.927913 
L 985.303125 155.809592 
" style="fill:none;stroke:#f15c80;stroke-linecap:square;"/>
   </g>
   <g id="line2d_83">
    <path clip-path="url(#pb9ac63f1f1)" d="M 53.328125 353.2239 
L 985.303125 353.2239 
" style="fill:none;stroke:#dedede;stroke-linecap:square;stroke-width:2;"/>
   </g>
   <g id="text_15">
    <!-- RSeQC: Junction Saturation -->
    <defs>
     <path d="M 44.390625 34.1875 
Q 47.5625 33.109375 50.5625 29.59375 
Q 53.5625 26.078125 56.59375 19.921875 
L 66.609375 0 
L 56 0 
L 46.6875 18.703125 
Q 43.0625 26.03125 39.671875 28.421875 
Q 36.28125 30.8125 30.421875 30.8125 
L 19.671875 30.8125 
L 19.671875 0 
L 9.8125 0 
L 9.8125 72.90625 
L 32.078125 72.90625 
Q 44.578125 72.90625 50.734375 67.671875 
Q 56.890625 62.453125 56.890625 51.90625 
Q 56.890625 45.015625 53.6875 40.46875 
Q 50.484375 35.9375 44.390625 34.1875 
z
M 19.671875 64.796875 
L 19.671875 38.921875 
L 32.078125 38.921875 
Q 39.203125 38.921875 42.84375 42.21875 
Q 46.484375 45.515625 46.484375 51.90625 
Q 46.484375 58.296875 42.84375 61.546875 
Q 39.203125 64.796875 32.078125 64.796875 
z
" id="DejaVuSans-82"/>
     <path d="M 53.515625 70.515625 
L 53.515625 60.890625 
Q 47.90625 63.578125 42.921875 64.890625 
Q 37.9375 66.21875 33.296875 66.21875 
Q 25.25 66.21875 20.875 63.09375 
Q 16.5 59.96875 16.5 54.203125 
Q 16.5 49.359375 19.40625 46.890625 
Q 22.3125 44.4375 30.421875 42.921875 
L 36.375 41.703125 
Q 47.40625 39.59375 52.65625 34.296875 
Q 57.90625 29 57.90625 20.125 
Q 57.90625 9.515625 50.796875 4.046875 
Q 43.703125 -1.421875 29.984375 -1.421875 
Q 24.8125 -1.421875 18.96875 -0.25 
Q 13.140625 0.921875 6.890625 3.21875 
L 6.890625 13.375 
Q 12.890625 10.015625 18.65625 8.296875 
Q 24.421875 6.59375 29.984375 6.59375 
Q 38.421875 6.59375 43.015625 9.90625 
Q 47.609375 13.234375 47.609375 19.390625 
Q 47.609375 24.75 44.3125 27.78125 
Q 41.015625 30.8125 33.5 32.328125 
L 27.484375 33.5 
Q 16.453125 35.6875 11.515625 40.375 
Q 6.59375 45.0625 6.59375 53.421875 
Q 6.59375 63.09375 13.40625 68.65625 
Q 20.21875 74.21875 32.171875 74.21875 
Q 37.3125 74.21875 42.625 73.28125 
Q 47.953125 72.359375 53.515625 70.515625 
z
" id="DejaVuSans-83"/>
     <path d="M 39.40625 66.21875 
Q 28.65625 66.21875 22.328125 58.203125 
Q 16.015625 50.203125 16.015625 36.375 
Q 16.015625 22.609375 22.328125 14.59375 
Q 28.65625 6.59375 39.40625 6.59375 
Q 50.140625 6.59375 56.421875 14.59375 
Q 62.703125 22.609375 62.703125 36.375 
Q 62.703125 50.203125 56.421875 58.203125 
Q 50.140625 66.21875 39.40625 66.21875 
z
M 53.21875 1.3125 
L 66.21875 -12.890625 
L 54.296875 -12.890625 
L 43.5 -1.21875 
Q 41.890625 -1.3125 41.03125 -1.359375 
Q 40.1875 -1.421875 39.40625 -1.421875 
Q 24.03125 -1.421875 14.8125 8.859375 
Q 5.609375 19.140625 5.609375 36.375 
Q 5.609375 53.65625 14.8125 63.9375 
Q 24.03125 74.21875 39.40625 74.21875 
Q 54.734375 74.21875 63.90625 63.9375 
Q 73.09375 53.65625 73.09375 36.375 
Q 73.09375 23.6875 67.984375 14.640625 
Q 62.890625 5.609375 53.21875 1.3125 
z
" id="DejaVuSans-81"/>
     <path d="M 64.40625 67.28125 
L 64.40625 56.890625 
Q 59.421875 61.53125 53.78125 63.8125 
Q 48.140625 66.109375 41.796875 66.109375 
Q 29.296875 66.109375 22.65625 58.46875 
Q 16.015625 50.828125 16.015625 36.375 
Q 16.015625 21.96875 22.65625 14.328125 
Q 29.296875 6.6875 41.796875 6.6875 
Q 48.140625 6.6875 53.78125 8.984375 
Q 59.421875 11.28125 64.40625 15.921875 
L 64.40625 5.609375 
Q 59.234375 2.09375 53.4375 0.328125 
Q 47.65625 -1.421875 41.21875 -1.421875 
Q 24.65625 -1.421875 15.125 8.703125 
Q 5.609375 18.84375 5.609375 36.375 
Q 5.609375 53.953125 15.125 64.078125 
Q 24.65625 74.21875 41.21875 74.21875 
Q 47.75 74.21875 53.53125 72.484375 
Q 59.328125 70.75 64.40625 67.28125 
z
" id="DejaVuSans-67"/>
     <path d="M 11.71875 12.40625 
L 22.015625 12.40625 
L 22.015625 0 
L 11.71875 0 
z
M 11.71875 51.703125 
L 22.015625 51.703125 
L 22.015625 39.3125 
L 11.71875 39.3125 
z
" id="DejaVuSans-58"/>
    </defs>
    <g transform="translate(410.166875 19.3575)scale(0.16 -0.16)">
     <use xlink:href="#DejaVuSans-82"/>
     <use x="69.482422" xlink:href="#DejaVuSans-83"/>
     <use x="132.958984" xlink:href="#DejaVuSans-101"/>
     <use x="194.482422" xlink:href="#DejaVuSans-81"/>
     <use x="273.193359" xlink:href="#DejaVuSans-67"/>
     <use x="343.017578" xlink:href="#DejaVuSans-58"/>
     <use x="376.708984" xlink:href="#DejaVuSans-32"/>
     <use x="408.496094" xlink:href="#DejaVuSans-74"/>
     <use x="437.988281" xlink:href="#DejaVuSans-117"/>
     <use x="501.367188" xlink:href="#DejaVuSans-110"/>
     <use x="564.746094" xlink:href="#DejaVuSans-99"/>
     <use x="619.726562" xlink:href="#DejaVuSans-116"/>
     <use x="658.935547" xlink:href="#DejaVuSans-105"/>
     <use x="686.71875" xlink:href="#DejaVuSans-111"/>
     <use x="747.900391" xlink:href="#DejaVuSans-110"/>
     <use x="811.279297" xlink:href="#DejaVuSans-32"/>
     <use x="843.066406" xlink:href="#DejaVuSans-83"/>
     <use x="906.542969" xlink:href="#DejaVuSans-97"/>
     <use x="967.822266" xlink:href="#DejaVuSans-116"/>
     <use x="1007.03125" xlink:href="#DejaVuSans-117"/>
     <use x="1070.410156" xlink:href="#DejaVuSans-114"/>
     <use x="1111.523438" xlink:href="#DejaVuSans-97"/>
     <use x="1172.802734" xlink:href="#DejaVuSans-116"/>
     <use x="1212.011719" xlink:href="#DejaVuSans-105"/>
     <use x="1239.794922" xlink:href="#DejaVuSans-111"/>
     <use x="1300.976562" xlink:href="#DejaVuSans-110"/>
    </g>
   </g>
  </g>
 </g>
 <defs>
  <clipPath id="pb9ac63f1f1">
   <rect height="317.968" width="931.975" x="53.328125" y="35.2559"/>
  </clipPath>
 </defs>
</svg>
