<?xml version="1.0" encoding="utf-8" standalone="no"?>
<!DOCTYPE svg PUBLIC "-//W3C//DTD SVG 1.1//EN"
  "http://www.w3.org/Graphics/SVG/1.1/DTD/svg11.dtd">
<!-- Created with matplotlib (https://matplotlib.org/) -->
<svg height="1760.26pt" version="1.1" viewBox="0 0 824.5825 1760.26" width="824.5825pt" xmlns="http://www.w3.org/2000/svg" xmlns:xlink="http://www.w3.org/1999/xlink">
 <defs>
  <style type="text/css">
*{stroke-linecap:butt;stroke-linejoin:round;}
  </style>
 </defs>
 <g id="figure_1">
  <g id="patch_1">
   <path d="M 0 1760.26 
L 824.5825 1760.26 
L 824.5825 0 
L 0 0 
z
" style="fill:#ffffff;"/>
  </g>
  <g id="axes_1">
   <g id="patch_2">
    <path d="M 28.5475 1673.9 
L 809.7475 1673.9 
L 809.7475 10.7 
L 28.5475 10.7 
z
" style="fill:#ffffff;"/>
   </g>
   <g id="matplotlib.axis_1">
    <g id="xtick_1">
     <g id="line2d_1">
      <path clip-path="url(#p1db2c00545)" d="M 28.5475 1673.9 
L 28.5475 10.7 
" style="fill:none;stroke:#dedede;stroke-linecap:square;"/>
     </g>
     <g id="text_1">
      <!-- 0 -->
      <defs>
       <path d="M 31.78125 66.40625 
Q 24.171875 66.40625 20.328125 58.90625 
Q 16.5 51.421875 16.5 36.375 
Q 16.5 21.390625 20.328125 13.890625 
Q 24.171875 6.390625 31.78125 6.390625 
Q 39.453125 6.390625 43.28125 13.890625 
Q 47.125 21.390625 47.125 36.375 
Q 47.125 51.421875 43.28125 58.90625 
Q 39.453125 66.40625 31.78125 66.40625 
z
M 31.78125 74.21875 
Q 44.046875 74.21875 50.515625 64.515625 
Q 56.984375 54.828125 56.984375 36.375 
Q 56.984375 17.96875 50.515625 8.265625 
Q 44.046875 -1.421875 31.78125 -1.421875 
Q 19.53125 -1.421875 13.0625 8.265625 
Q 6.59375 17.96875 6.59375 36.375 
Q 6.59375 54.828125 13.0625 64.515625 
Q 19.53125 74.21875 31.78125 74.21875 
z
" id="DejaVuSans-48"/>
      </defs>
      <g transform="translate(26.0025 1686.97875)scale(0.08 -0.08)">
       <use xlink:href="#DejaVuSans-48"/>
      </g>
     </g>
    </g>
    <g id="xtick_2">
     <g id="line2d_2">
      <path clip-path="url(#p1db2c00545)" d="M 184.7875 1673.9 
L 184.7875 10.7 
" style="fill:none;stroke:#dedede;stroke-linecap:square;"/>
     </g>
     <g id="text_2">
      <!-- 20 -->
      <defs>
       <path d="M 19.1875 8.296875 
L 53.609375 8.296875 
L 53.609375 0 
L 7.328125 0 
L 7.328125 8.296875 
Q 12.9375 14.109375 22.625 23.890625 
Q 32.328125 33.6875 34.8125 36.53125 
Q 39.546875 41.84375 41.421875 45.53125 
Q 43.3125 49.21875 43.3125 52.78125 
Q 43.3125 58.59375 39.234375 62.25 
Q 35.15625 65.921875 28.609375 65.921875 
Q 23.96875 65.921875 18.8125 64.3125 
Q 13.671875 62.703125 7.8125 59.421875 
L 7.8125 69.390625 
Q 13.765625 71.78125 18.9375 73 
Q 24.125 74.21875 28.421875 74.21875 
Q 39.75 74.21875 46.484375 68.546875 
Q 53.21875 62.890625 53.21875 53.421875 
Q 53.21875 48.921875 51.53125 44.890625 
Q 49.859375 40.875 45.40625 35.40625 
Q 44.1875 33.984375 37.640625 27.21875 
Q 31.109375 20.453125 19.1875 8.296875 
z
" id="DejaVuSans-50"/>
      </defs>
      <g transform="translate(179.6975 1686.97875)scale(0.08 -0.08)">
       <use xlink:href="#DejaVuSans-50"/>
       <use x="63.623047" xlink:href="#DejaVuSans-48"/>
      </g>
     </g>
    </g>
    <g id="xtick_3">
     <g id="line2d_3">
      <path clip-path="url(#p1db2c00545)" d="M 341.0275 1673.9 
L 341.0275 10.7 
" style="fill:none;stroke:#dedede;stroke-linecap:square;"/>
     </g>
     <g id="text_3">
      <!-- 40 -->
      <defs>
       <path d="M 37.796875 64.3125 
L 12.890625 25.390625 
L 37.796875 25.390625 
z
M 35.203125 72.90625 
L 47.609375 72.90625 
L 47.609375 25.390625 
L 58.015625 25.390625 
L 58.015625 17.1875 
L 47.609375 17.1875 
L 47.609375 0 
L 37.796875 0 
L 37.796875 17.1875 
L 4.890625 17.1875 
L 4.890625 26.703125 
z
" id="DejaVuSans-52"/>
      </defs>
      <g transform="translate(335.9375 1686.97875)scale(0.08 -0.08)">
       <use xlink:href="#DejaVuSans-52"/>
       <use x="63.623047" xlink:href="#DejaVuSans-48"/>
      </g>
     </g>
    </g>
    <g id="xtick_4">
     <g id="line2d_4">
      <path clip-path="url(#p1db2c00545)" d="M 497.2675 1673.9 
L 497.2675 10.7 
" style="fill:none;stroke:#dedede;stroke-linecap:square;"/>
     </g>
     <g id="text_4">
      <!-- 60 -->
      <defs>
       <path d="M 33.015625 40.375 
Q 26.375 40.375 22.484375 35.828125 
Q 18.609375 31.296875 18.609375 23.390625 
Q 18.609375 15.53125 22.484375 10.953125 
Q 26.375 6.390625 33.015625 6.390625 
Q 39.65625 6.390625 43.53125 10.953125 
Q 47.40625 15.53125 47.40625 23.390625 
Q 47.40625 31.296875 43.53125 35.828125 
Q 39.65625 40.375 33.015625 40.375 
z
M 52.59375 71.296875 
L 52.59375 62.3125 
Q 48.875 64.0625 45.09375 64.984375 
Q 41.3125 65.921875 37.59375 65.921875 
Q 27.828125 65.921875 22.671875 59.328125 
Q 17.53125 52.734375 16.796875 39.40625 
Q 19.671875 43.65625 24.015625 45.921875 
Q 28.375 48.1875 33.59375 48.1875 
Q 44.578125 48.1875 50.953125 41.515625 
Q 57.328125 34.859375 57.328125 23.390625 
Q 57.328125 12.15625 50.6875 5.359375 
Q 44.046875 -1.421875 33.015625 -1.421875 
Q 20.359375 -1.421875 13.671875 8.265625 
Q 6.984375 17.96875 6.984375 36.375 
Q 6.984375 53.65625 15.1875 63.9375 
Q 23.390625 74.21875 37.203125 74.21875 
Q 40.921875 74.21875 44.703125 73.484375 
Q 48.484375 72.75 52.59375 71.296875 
z
" id="DejaVuSans-54"/>
      </defs>
      <g transform="translate(492.1775 1686.97875)scale(0.08 -0.08)">
       <use xlink:href="#DejaVuSans-54"/>
       <use x="63.623047" xlink:href="#DejaVuSans-48"/>
      </g>
     </g>
    </g>
    <g id="xtick_5">
     <g id="line2d_5">
      <path clip-path="url(#p1db2c00545)" d="M 653.5075 1673.9 
L 653.5075 10.7 
" style="fill:none;stroke:#dedede;stroke-linecap:square;"/>
     </g>
     <g id="text_5">
      <!-- 80 -->
      <defs>
       <path d="M 31.78125 34.625 
Q 24.75 34.625 20.71875 30.859375 
Q 16.703125 27.09375 16.703125 20.515625 
Q 16.703125 13.921875 20.71875 10.15625 
Q 24.75 6.390625 31.78125 6.390625 
Q 38.8125 6.390625 42.859375 10.171875 
Q 46.921875 13.96875 46.921875 20.515625 
Q 46.921875 27.09375 42.890625 30.859375 
Q 38.875 34.625 31.78125 34.625 
z
M 21.921875 38.8125 
Q 15.578125 40.375 12.03125 44.71875 
Q 8.5 49.078125 8.5 55.328125 
Q 8.5 64.0625 14.71875 69.140625 
Q 20.953125 74.21875 31.78125 74.21875 
Q 42.671875 74.21875 48.875 69.140625 
Q 55.078125 64.0625 55.078125 55.328125 
Q 55.078125 49.078125 51.53125 44.71875 
Q 48 40.375 41.703125 38.8125 
Q 48.828125 37.15625 52.796875 32.3125 
Q 56.78125 27.484375 56.78125 20.515625 
Q 56.78125 9.90625 50.3125 4.234375 
Q 43.84375 -1.421875 31.78125 -1.421875 
Q 19.734375 -1.421875 13.25 4.234375 
Q 6.78125 9.90625 6.78125 20.515625 
Q 6.78125 27.484375 10.78125 32.3125 
Q 14.796875 37.15625 21.921875 38.8125 
z
M 18.3125 54.390625 
Q 18.3125 48.734375 21.84375 45.5625 
Q 25.390625 42.390625 31.78125 42.390625 
Q 38.140625 42.390625 41.71875 45.5625 
Q 45.3125 48.734375 45.3125 54.390625 
Q 45.3125 60.0625 41.71875 63.234375 
Q 38.140625 66.40625 31.78125 66.40625 
Q 25.390625 66.40625 21.84375 63.234375 
Q 18.3125 60.0625 18.3125 54.390625 
z
" id="DejaVuSans-56"/>
      </defs>
      <g transform="translate(648.4175 1686.97875)scale(0.08 -0.08)">
       <use xlink:href="#DejaVuSans-56"/>
       <use x="63.623047" xlink:href="#DejaVuSans-48"/>
      </g>
     </g>
    </g>
    <g id="xtick_6">
     <g id="line2d_6">
      <path clip-path="url(#p1db2c00545)" d="M 809.7475 1673.9 
L 809.7475 10.7 
" style="fill:none;stroke:#dedede;stroke-linecap:square;"/>
     </g>
     <g id="text_6">
      <!-- 100 -->
      <defs>
       <path d="M 12.40625 8.296875 
L 28.515625 8.296875 
L 28.515625 63.921875 
L 10.984375 60.40625 
L 10.984375 69.390625 
L 28.421875 72.90625 
L 38.28125 72.90625 
L 38.28125 8.296875 
L 54.390625 8.296875 
L 54.390625 0 
L 12.40625 0 
z
" id="DejaVuSans-49"/>
      </defs>
      <g transform="translate(802.1125 1686.97875)scale(0.08 -0.08)">
       <use xlink:href="#DejaVuSans-49"/>
       <use x="63.623047" xlink:href="#DejaVuSans-48"/>
       <use x="127.246094" xlink:href="#DejaVuSans-48"/>
      </g>
     </g>
    </g>
    <g id="text_7">
     <!-- % Tags -->
     <defs>
      <path d="M 72.703125 32.078125 
Q 68.453125 32.078125 66.03125 28.46875 
Q 63.625 24.859375 63.625 18.40625 
Q 63.625 12.0625 66.03125 8.421875 
Q 68.453125 4.78125 72.703125 4.78125 
Q 76.859375 4.78125 79.265625 8.421875 
Q 81.6875 12.0625 81.6875 18.40625 
Q 81.6875 24.8125 79.265625 28.4375 
Q 76.859375 32.078125 72.703125 32.078125 
z
M 72.703125 38.28125 
Q 80.421875 38.28125 84.953125 32.90625 
Q 89.5 27.546875 89.5 18.40625 
Q 89.5 9.28125 84.9375 3.921875 
Q 80.375 -1.421875 72.703125 -1.421875 
Q 64.890625 -1.421875 60.34375 3.921875 
Q 55.8125 9.28125 55.8125 18.40625 
Q 55.8125 27.59375 60.375 32.9375 
Q 64.9375 38.28125 72.703125 38.28125 
z
M 22.3125 68.015625 
Q 18.109375 68.015625 15.6875 64.375 
Q 13.28125 60.75 13.28125 54.390625 
Q 13.28125 47.953125 15.671875 44.328125 
Q 18.0625 40.71875 22.3125 40.71875 
Q 26.5625 40.71875 28.96875 44.328125 
Q 31.390625 47.953125 31.390625 54.390625 
Q 31.390625 60.6875 28.953125 64.34375 
Q 26.515625 68.015625 22.3125 68.015625 
z
M 66.40625 74.21875 
L 74.21875 74.21875 
L 28.609375 -1.421875 
L 20.796875 -1.421875 
z
M 22.3125 74.21875 
Q 30.03125 74.21875 34.609375 68.875 
Q 39.203125 63.53125 39.203125 54.390625 
Q 39.203125 45.171875 34.640625 39.84375 
Q 30.078125 34.515625 22.3125 34.515625 
Q 14.546875 34.515625 10.03125 39.859375 
Q 5.515625 45.21875 5.515625 54.390625 
Q 5.515625 63.484375 10.046875 68.84375 
Q 14.59375 74.21875 22.3125 74.21875 
z
" id="DejaVuSans-37"/>
      <path id="DejaVuSans-32"/>
      <path d="M -0.296875 72.90625 
L 61.375 72.90625 
L 61.375 64.59375 
L 35.5 64.59375 
L 35.5 0 
L 25.59375 0 
L 25.59375 64.59375 
L -0.296875 64.59375 
z
" id="DejaVuSans-84"/>
      <path d="M 34.28125 27.484375 
Q 23.390625 27.484375 19.1875 25 
Q 14.984375 22.515625 14.984375 16.5 
Q 14.984375 11.71875 18.140625 8.90625 
Q 21.296875 6.109375 26.703125 6.109375 
Q 34.1875 6.109375 38.703125 11.40625 
Q 43.21875 16.703125 43.21875 25.484375 
L 43.21875 27.484375 
z
M 52.203125 31.203125 
L 52.203125 0 
L 43.21875 0 
L 43.21875 8.296875 
Q 40.140625 3.328125 35.546875 0.953125 
Q 30.953125 -1.421875 24.3125 -1.421875 
Q 15.921875 -1.421875 10.953125 3.296875 
Q 6 8.015625 6 15.921875 
Q 6 25.140625 12.171875 29.828125 
Q 18.359375 34.515625 30.609375 34.515625 
L 43.21875 34.515625 
L 43.21875 35.40625 
Q 43.21875 41.609375 39.140625 45 
Q 35.0625 48.390625 27.6875 48.390625 
Q 23 48.390625 18.546875 47.265625 
Q 14.109375 46.140625 10.015625 43.890625 
L 10.015625 52.203125 
Q 14.9375 54.109375 19.578125 55.046875 
Q 24.21875 56 28.609375 56 
Q 40.484375 56 46.34375 49.84375 
Q 52.203125 43.703125 52.203125 31.203125 
z
" id="DejaVuSans-97"/>
      <path d="M 45.40625 27.984375 
Q 45.40625 37.75 41.375 43.109375 
Q 37.359375 48.484375 30.078125 48.484375 
Q 22.859375 48.484375 18.828125 43.109375 
Q 14.796875 37.75 14.796875 27.984375 
Q 14.796875 18.265625 18.828125 12.890625 
Q 22.859375 7.515625 30.078125 7.515625 
Q 37.359375 7.515625 41.375 12.890625 
Q 45.40625 18.265625 45.40625 27.984375 
z
M 54.390625 6.78125 
Q 54.390625 -7.171875 48.1875 -13.984375 
Q 42 -20.796875 29.203125 -20.796875 
Q 24.46875 -20.796875 20.265625 -20.09375 
Q 16.0625 -19.390625 12.109375 -17.921875 
L 12.109375 -9.1875 
Q 16.0625 -11.328125 19.921875 -12.34375 
Q 23.78125 -13.375 27.78125 -13.375 
Q 36.625 -13.375 41.015625 -8.765625 
Q 45.40625 -4.15625 45.40625 5.171875 
L 45.40625 9.625 
Q 42.625 4.78125 38.28125 2.390625 
Q 33.9375 0 27.875 0 
Q 17.828125 0 11.671875 7.65625 
Q 5.515625 15.328125 5.515625 27.984375 
Q 5.515625 40.671875 11.671875 48.328125 
Q 17.828125 56 27.875 56 
Q 33.9375 56 38.28125 53.609375 
Q 42.625 51.21875 45.40625 46.390625 
L 45.40625 54.6875 
L 54.390625 54.6875 
z
" id="DejaVuSans-103"/>
      <path d="M 44.28125 53.078125 
L 44.28125 44.578125 
Q 40.484375 46.53125 36.375 47.5 
Q 32.28125 48.484375 27.875 48.484375 
Q 21.1875 48.484375 17.84375 46.4375 
Q 14.5 44.390625 14.5 40.28125 
Q 14.5 37.15625 16.890625 35.375 
Q 19.28125 33.59375 26.515625 31.984375 
L 29.59375 31.296875 
Q 39.15625 29.25 43.1875 25.515625 
Q 47.21875 21.78125 47.21875 15.09375 
Q 47.21875 7.46875 41.1875 3.015625 
Q 35.15625 -1.421875 24.609375 -1.421875 
Q 20.21875 -1.421875 15.453125 -0.5625 
Q 10.6875 0.296875 5.421875 2 
L 5.421875 11.28125 
Q 10.40625 8.6875 15.234375 7.390625 
Q 20.0625 6.109375 24.8125 6.109375 
Q 31.15625 6.109375 34.5625 8.28125 
Q 37.984375 10.453125 37.984375 14.40625 
Q 37.984375 18.0625 35.515625 20.015625 
Q 33.0625 21.96875 24.703125 23.78125 
L 21.578125 24.515625 
Q 13.234375 26.265625 9.515625 29.90625 
Q 5.8125 33.546875 5.8125 39.890625 
Q 5.8125 47.609375 11.28125 51.796875 
Q 16.75 56 26.8125 56 
Q 31.78125 56 36.171875 55.265625 
Q 40.578125 54.546875 44.28125 53.078125 
z
" id="DejaVuSans-115"/>
     </defs>
     <g transform="translate(400.923281 1700.240937)scale(0.1 -0.1)">
      <use xlink:href="#DejaVuSans-37"/>
      <use x="95.019531" xlink:href="#DejaVuSans-32"/>
      <use x="126.806641" xlink:href="#DejaVuSans-84"/>
      <use x="187.640625" xlink:href="#DejaVuSans-97"/>
      <use x="248.919922" xlink:href="#DejaVuSans-103"/>
      <use x="312.396484" xlink:href="#DejaVuSans-115"/>
     </g>
    </g>
   </g>
   <g id="matplotlib.axis_2">
    <g id="ytick_1">
     <g id="text_8">
      <!-- s01 -->
      <g transform="translate(7.2 24.68148)scale(0.08 -0.08)">
       <use xlink:href="#DejaVuSans-115"/>
       <use x="52.099609" xlink:href="#DejaVuSans-48"/>
       <use x="115.722656" xlink:href="#DejaVuSans-49"/>
      </g>
     </g>
    </g>
    <g id="ytick_2">
     <g id="text_9">
      <!-- s02 -->
      <g transform="translate(7.2 46.565691)scale(0.08 -0.08)">
       <use xlink:href="#DejaVuSans-115"/>
       <use x="52.099609" xlink:href="#DejaVuSans-48"/>
       <use x="115.722656" xlink:href="#DejaVuSans-50"/>
      </g>
     </g>
    </g>
    <g id="ytick_3">
     <g id="text_10">
      <!-- s03 -->
      <defs>
       <path d="M 40.578125 39.3125 
Q 47.65625 37.796875 51.625 33 
Q 55.609375 28.21875 55.609375 21.1875 
Q 55.609375 10.40625 48.1875 4.484375 
Q 40.765625 -1.421875 27.09375 -1.421875 
Q 22.515625 -1.421875 17.65625 -0.515625 
Q 12.796875 0.390625 7.625 2.203125 
L 7.625 11.71875 
Q 11.71875 9.328125 16.59375 8.109375 
Q 21.484375 6.890625 26.8125 6.890625 
Q 36.078125 6.890625 40.9375 10.546875 
Q 45.796875 14.203125 45.796875 21.1875 
Q 45.796875 27.640625 41.28125 31.265625 
Q 36.765625 34.90625 28.71875 34.90625 
L 20.21875 34.90625 
L 20.21875 43.015625 
L 29.109375 43.015625 
Q 36.375 43.015625 40.234375 45.921875 
Q 44.09375 48.828125 44.09375 54.296875 
Q 44.09375 59.90625 40.109375 62.90625 
Q 36.140625 65.921875 28.71875 65.921875 
Q 24.65625 65.921875 20.015625 65.03125 
Q 15.375 64.15625 9.8125 62.3125 
L 9.8125 71.09375 
Q 15.4375 72.65625 20.34375 73.4375 
Q 25.25 74.21875 29.59375 74.21875 
Q 40.828125 74.21875 47.359375 69.109375 
Q 53.90625 64.015625 53.90625 55.328125 
Q 53.90625 49.265625 50.4375 45.09375 
Q 46.96875 40.921875 40.578125 39.3125 
z
" id="DejaVuSans-51"/>
      </defs>
      <g transform="translate(7.2 68.449901)scale(0.08 -0.08)">
       <use xlink:href="#DejaVuSans-115"/>
       <use x="52.099609" xlink:href="#DejaVuSans-48"/>
       <use x="115.722656" xlink:href="#DejaVuSans-51"/>
      </g>
     </g>
    </g>
    <g id="ytick_4">
     <g id="text_11">
      <!-- s04 -->
      <g transform="translate(7.2 90.334112)scale(0.08 -0.08)">
       <use xlink:href="#DejaVuSans-115"/>
       <use x="52.099609" xlink:href="#DejaVuSans-48"/>
       <use x="115.722656" xlink:href="#DejaVuSans-52"/>
      </g>
     </g>
    </g>
    <g id="ytick_5">
     <g id="text_12">
      <!-- s05 -->
      <defs>
       <path d="M 10.796875 72.90625 
L 49.515625 72.90625 
L 49.515625 64.59375 
L 19.828125 64.59375 
L 19.828125 46.734375 
Q 21.96875 47.46875 24.109375 47.828125 
Q 26.265625 48.1875 28.421875 48.1875 
Q 40.625 48.1875 47.75 41.5 
Q 54.890625 34.8125 54.890625 23.390625 
Q 54.890625 11.625 47.5625 5.09375 
Q 40.234375 -1.421875 26.90625 -1.421875 
Q 22.3125 -1.421875 17.546875 -0.640625 
Q 12.796875 0.140625 7.71875 1.703125 
L 7.71875 11.625 
Q 12.109375 9.234375 16.796875 8.0625 
Q 21.484375 6.890625 26.703125 6.890625 
Q 35.15625 6.890625 40.078125 11.328125 
Q 45.015625 15.765625 45.015625 23.390625 
Q 45.015625 31 40.078125 35.4375 
Q 35.15625 39.890625 26.703125 39.890625 
Q 22.75 39.890625 18.8125 39.015625 
Q 14.890625 38.140625 10.796875 36.28125 
z
" id="DejaVuSans-53"/>
      </defs>
      <g transform="translate(7.2 112.218322)scale(0.08 -0.08)">
       <use xlink:href="#DejaVuSans-115"/>
       <use x="52.099609" xlink:href="#DejaVuSans-48"/>
       <use x="115.722656" xlink:href="#DejaVuSans-53"/>
      </g>
     </g>
    </g>
    <g id="ytick_6">
     <g id="text_13">
      <!-- s06 -->
      <g transform="translate(7.2 134.102533)scale(0.08 -0.08)">
       <use xlink:href="#DejaVuSans-115"/>
       <use x="52.099609" xlink:href="#DejaVuSans-48"/>
       <use x="115.722656" xlink:href="#DejaVuSans-54"/>
      </g>
     </g>
    </g>
    <g id="ytick_7">
     <g id="text_14">
      <!-- s07 -->
      <defs>
       <path d="M 8.203125 72.90625 
L 55.078125 72.90625 
L 55.078125 68.703125 
L 28.609375 0 
L 18.3125 0 
L 43.21875 64.59375 
L 8.203125 64.59375 
z
" id="DejaVuSans-55"/>
      </defs>
      <g transform="translate(7.2 155.986743)scale(0.08 -0.08)">
       <use xlink:href="#DejaVuSans-115"/>
       <use x="52.099609" xlink:href="#DejaVuSans-48"/>
       <use x="115.722656" xlink:href="#DejaVuSans-55"/>
      </g>
     </g>
    </g>
    <g id="ytick_8">
     <g id="text_15">
      <!-- s08 -->
      <g transform="translate(7.2 177.870954)scale(0.08 -0.08)">
       <use xlink:href="#DejaVuSans-115"/>
       <use x="52.099609" xlink:href="#DejaVuSans-48"/>
       <use x="115.722656" xlink:href="#DejaVuSans-56"/>
      </g>
     </g>
    </g>
    <g id="ytick_9">
     <g id="text_16">
      <!-- s09 -->
      <defs>
       <path d="M 10.984375 1.515625 
L 10.984375 10.5 
Q 14.703125 8.734375 18.5 7.8125 
Q 22.3125 6.890625 25.984375 6.890625 
Q 35.75 6.890625 40.890625 13.453125 
Q 46.046875 20.015625 46.78125 33.40625 
Q 43.953125 29.203125 39.59375 26.953125 
Q 35.25 24.703125 29.984375 24.703125 
Q 19.046875 24.703125 12.671875 31.3125 
Q 6.296875 37.9375 6.296875 49.421875 
Q 6.296875 60.640625 12.9375 67.421875 
Q 19.578125 74.21875 30.609375 74.21875 
Q 43.265625 74.21875 49.921875 64.515625 
Q 56.59375 54.828125 56.59375 36.375 
Q 56.59375 19.140625 48.40625 8.859375 
Q 40.234375 -1.421875 26.421875 -1.421875 
Q 22.703125 -1.421875 18.890625 -0.6875 
Q 15.09375 0.046875 10.984375 1.515625 
z
M 30.609375 32.421875 
Q 37.25 32.421875 41.125 36.953125 
Q 45.015625 41.5 45.015625 49.421875 
Q 45.015625 57.28125 41.125 61.84375 
Q 37.25 66.40625 30.609375 66.40625 
Q 23.96875 66.40625 20.09375 61.84375 
Q 16.21875 57.28125 16.21875 49.421875 
Q 16.21875 41.5 20.09375 36.953125 
Q 23.96875 32.421875 30.609375 32.421875 
z
" id="DejaVuSans-57"/>
      </defs>
      <g transform="translate(7.2 199.755164)scale(0.08 -0.08)">
       <use xlink:href="#DejaVuSans-115"/>
       <use x="52.099609" xlink:href="#DejaVuSans-48"/>
       <use x="115.722656" xlink:href="#DejaVuSans-57"/>
      </g>
     </g>
    </g>
    <g id="ytick_10">
     <g id="text_17">
      <!-- s10 -->
      <g transform="translate(7.2 221.639375)scale(0.08 -0.08)">
       <use xlink:href="#DejaVuSans-115"/>
       <use x="52.099609" xlink:href="#DejaVuSans-49"/>
       <use x="115.722656" xlink:href="#DejaVuSans-48"/>
      </g>
     </g>
    </g>
    <g id="ytick_11">
     <g id="text_18">
      <!-- s11 -->
      <g transform="translate(7.2 243.523586)scale(0.08 -0.08)">
       <use xlink:href="#DejaVuSans-115"/>
       <use x="52.099609" xlink:href="#DejaVuSans-49"/>
       <use x="115.722656" xlink:href="#DejaVuSans-49"/>
      </g>
     </g>
    </g>
    <g id="ytick_12">
     <g id="text_19">
      <!-- s12 -->
      <g transform="translate(7.2 265.407796)scale(0.08 -0.08)">
       <use xlink:href="#DejaVuSans-115"/>
       <use x="52.099609" xlink:href="#DejaVuSans-49"/>
       <use x="115.722656" xlink:href="#DejaVuSans-50"/>
      </g>
     </g>
    </g>
    <g id="ytick_13">
     <g id="text_20">
      <!-- s13 -->
      <g transform="translate(7.2 287.292007)scale(0.08 -0.08)">
       <use xlink:href="#DejaVuSans-115"/>
       <use x="52.099609" xlink:href="#DejaVuSans-49"/>
       <use x="115.722656" xlink:href="#DejaVuSans-51"/>
      </g>
     </g>
    </g>
    <g id="ytick_14">
     <g id="text_21">
      <!-- s14 -->
      <g transform="translate(7.2 309.176217)scale(0.08 -0.08)">
       <use xlink:href="#DejaVuSans-115"/>
       <use x="52.099609" xlink:href="#DejaVuSans-49"/>
       <use x="115.722656" xlink:href="#DejaVuSans-52"/>
      </g>
     </g>
    </g>
    <g id="ytick_15">
     <g id="text_22">
      <!-- s15 -->
      <g transform="translate(7.2 331.060428)scale(0.08 -0.08)">
       <use xlink:href="#DejaVuSans-115"/>
       <use x="52.099609" xlink:href="#DejaVuSans-49"/>
       <use x="115.722656" xlink:href="#DejaVuSans-53"/>
      </g>
     </g>
    </g>
    <g id="ytick_16">
     <g id="text_23">
      <!-- s16 -->
      <g transform="translate(7.2 352.944638)scale(0.08 -0.08)">
       <use xlink:href="#DejaVuSans-115"/>
       <use x="52.099609" xlink:href="#DejaVuSans-49"/>
       <use x="115.722656" xlink:href="#DejaVuSans-54"/>
      </g>
     </g>
    </g>
    <g id="ytick_17">
     <g id="text_24">
      <!-- s17 -->
      <g transform="translate(7.2 374.828849)scale(0.08 -0.08)">
       <use xlink:href="#DejaVuSans-115"/>
       <use x="52.099609" xlink:href="#DejaVuSans-49"/>
       <use x="115.722656" xlink:href="#DejaVuSans-55"/>
      </g>
     </g>
    </g>
    <g id="ytick_18">
     <g id="text_25">
      <!-- s18 -->
      <g transform="translate(7.2 396.713059)scale(0.08 -0.08)">
       <use xlink:href="#DejaVuSans-115"/>
       <use x="52.099609" xlink:href="#DejaVuSans-49"/>
       <use x="115.722656" xlink:href="#DejaVuSans-56"/>
      </g>
     </g>
    </g>
    <g id="ytick_19">
     <g id="text_26">
      <!-- s19 -->
      <g transform="translate(7.2 418.59727)scale(0.08 -0.08)">
       <use xlink:href="#DejaVuSans-115"/>
       <use x="52.099609" xlink:href="#DejaVuSans-49"/>
       <use x="115.722656" xlink:href="#DejaVuSans-57"/>
      </g>
     </g>
    </g>
    <g id="ytick_20">
     <g id="text_27">
      <!-- s20 -->
      <g transform="translate(7.2 440.48148)scale(0.08 -0.08)">
       <use xlink:href="#DejaVuSans-115"/>
       <use x="52.099609" xlink:href="#DejaVuSans-50"/>
       <use x="115.722656" xlink:href="#DejaVuSans-48"/>
      </g>
     </g>
    </g>
    <g id="ytick_21">
     <g id="text_28">
      <!-- s21 -->
      <g transform="translate(7.2 462.365691)scale(0.08 -0.08)">
       <use xlink:href="#DejaVuSans-115"/>
       <use x="52.099609" xlink:href="#DejaVuSans-50"/>
       <use x="115.722656" xlink:href="#DejaVuSans-49"/>
      </g>
     </g>
    </g>
    <g id="ytick_22">
     <g id="text_29">
      <!-- s22 -->
      <g transform="translate(7.2 484.249901)scale(0.08 -0.08)">
       <use xlink:href="#DejaVuSans-115"/>
       <use x="52.099609" xlink:href="#DejaVuSans-50"/>
       <use x="115.722656" xlink:href="#DejaVuSans-50"/>
      </g>
     </g>
    </g>
    <g id="ytick_23">
     <g id="text_30">
      <!-- s23 -->
      <g transform="translate(7.2 506.134112)scale(0.08 -0.08)">
       <use xlink:href="#DejaVuSans-115"/>
       <use x="52.099609" xlink:href="#DejaVuSans-50"/>
       <use x="115.722656" xlink:href="#DejaVuSans-51"/>
      </g>
     </g>
    </g>
    <g id="ytick_24">
     <g id="text_31">
      <!-- s24 -->
      <g transform="translate(7.2 528.018322)scale(0.08 -0.08)">
       <use xlink:href="#DejaVuSans-115"/>
       <use x="52.099609" xlink:href="#DejaVuSans-50"/>
       <use x="115.722656" xlink:href="#DejaVuSans-52"/>
      </g>
     </g>
    </g>
    <g id="ytick_25">
     <g id="text_32">
      <!-- s25 -->
      <g transform="translate(7.2 549.902533)scale(0.08 -0.08)">
       <use xlink:href="#DejaVuSans-115"/>
       <use x="52.099609" xlink:href="#DejaVuSans-50"/>
       <use x="115.722656" xlink:href="#DejaVuSans-53"/>
      </g>
     </g>
    </g>
    <g id="ytick_26">
     <g id="text_33">
      <!-- s26 -->
      <g transform="translate(7.2 571.786743)scale(0.08 -0.08)">
       <use xlink:href="#DejaVuSans-115"/>
       <use x="52.099609" xlink:href="#DejaVuSans-50"/>
       <use x="115.722656" xlink:href="#DejaVuSans-54"/>
      </g>
     </g>
    </g>
    <g id="ytick_27">
     <g id="text_34">
      <!-- s27 -->
      <g transform="translate(7.2 593.670954)scale(0.08 -0.08)">
       <use xlink:href="#DejaVuSans-115"/>
       <use x="52.099609" xlink:href="#DejaVuSans-50"/>
       <use x="115.722656" xlink:href="#DejaVuSans-55"/>
      </g>
     </g>
    </g>
    <g id="ytick_28">
     <g id="text_35">
      <!-- s28 -->
      <g transform="translate(7.2 615.555164)scale(0.08 -0.08)">
       <use xlink:href="#DejaVuSans-115"/>
       <use x="52.099609" xlink:href="#DejaVuSans-50"/>
       <use x="115.722656" xlink:href="#DejaVuSans-56"/>
      </g>
     </g>
    </g>
    <g id="ytick_29">
     <g id="text_36">
      <!-- s29 -->
      <g transform="translate(7.2 637.439375)scale(0.08 -0.08)">
       <use xlink:href="#DejaVuSans-115"/>
       <use x="52.099609" xlink:href="#DejaVuSans-50"/>
       <use x="115.722656" xlink:href="#DejaVuSans-57"/>
      </g>
     </g>
    </g>
    <g id="ytick_30">
     <g id="text_37">
      <!-- s30 -->
      <g transform="translate(7.2 659.323586)scale(0.08 -0.08)">
       <use xlink:href="#DejaVuSans-115"/>
       <use x="52.099609" xlink:href="#DejaVuSans-51"/>
       <use x="115.722656" xlink:href="#DejaVuSans-48"/>
      </g>
     </g>
    </g>
    <g id="ytick_31">
     <g id="text_38">
      <!-- s31 -->
      <g transform="translate(7.2 681.207796)scale(0.08 -0.08)">
       <use xlink:href="#DejaVuSans-115"/>
       <use x="52.099609" xlink:href="#DejaVuSans-51"/>
       <use x="115.722656" xlink:href="#DejaVuSans-49"/>
      </g>
     </g>
    </g>
    <g id="ytick_32">
     <g id="text_39">
      <!-- s32 -->
      <g transform="translate(7.2 703.092007)scale(0.08 -0.08)">
       <use xlink:href="#DejaVuSans-115"/>
       <use x="52.099609" xlink:href="#DejaVuSans-51"/>
       <use x="115.722656" xlink:href="#DejaVuSans-50"/>
      </g>
     </g>
    </g>
    <g id="ytick_33">
     <g id="text_40">
      <!-- s33 -->
      <g transform="translate(7.2 724.976217)scale(0.08 -0.08)">
       <use xlink:href="#DejaVuSans-115"/>
       <use x="52.099609" xlink:href="#DejaVuSans-51"/>
       <use x="115.722656" xlink:href="#DejaVuSans-51"/>
      </g>
     </g>
    </g>
    <g id="ytick_34">
     <g id="text_41">
      <!-- s34 -->
      <g transform="translate(7.2 746.860428)scale(0.08 -0.08)">
       <use xlink:href="#DejaVuSans-115"/>
       <use x="52.099609" xlink:href="#DejaVuSans-51"/>
       <use x="115.722656" xlink:href="#DejaVuSans-52"/>
      </g>
     </g>
    </g>
    <g id="ytick_35">
     <g id="text_42">
      <!-- s35 -->
      <g transform="translate(7.2 768.744638)scale(0.08 -0.08)">
       <use xlink:href="#DejaVuSans-115"/>
       <use x="52.099609" xlink:href="#DejaVuSans-51"/>
       <use x="115.722656" xlink:href="#DejaVuSans-53"/>
      </g>
     </g>
    </g>
    <g id="ytick_36">
     <g id="text_43">
      <!-- s36 -->
      <g transform="translate(7.2 790.628849)scale(0.08 -0.08)">
       <use xlink:href="#DejaVuSans-115"/>
       <use x="52.099609" xlink:href="#DejaVuSans-51"/>
       <use x="115.722656" xlink:href="#DejaVuSans-54"/>
      </g>
     </g>
    </g>
    <g id="ytick_37">
     <g id="text_44">
      <!-- s37 -->
      <g transform="translate(7.2 812.513059)scale(0.08 -0.08)">
       <use xlink:href="#DejaVuSans-115"/>
       <use x="52.099609" xlink:href="#DejaVuSans-51"/>
       <use x="115.722656" xlink:href="#DejaVuSans-55"/>
      </g>
     </g>
    </g>
    <g id="ytick_38">
     <g id="text_45">
      <!-- s38 -->
      <g transform="translate(7.2 834.39727)scale(0.08 -0.08)">
       <use xlink:href="#DejaVuSans-115"/>
       <use x="52.099609" xlink:href="#DejaVuSans-51"/>
       <use x="115.722656" xlink:href="#DejaVuSans-56"/>
      </g>
     </g>
    </g>
    <g id="ytick_39">
     <g id="text_46">
      <!-- s39 -->
      <g transform="translate(7.2 856.28148)scale(0.08 -0.08)">
       <use xlink:href="#DejaVuSans-115"/>
       <use x="52.099609" xlink:href="#DejaVuSans-51"/>
       <use x="115.722656" xlink:href="#DejaVuSans-57"/>
      </g>
     </g>
    </g>
    <g id="ytick_40">
     <g id="text_47">
      <!-- s40 -->
      <g transform="translate(7.2 878.165691)scale(0.08 -0.08)">
       <use xlink:href="#DejaVuSans-115"/>
       <use x="52.099609" xlink:href="#DejaVuSans-52"/>
       <use x="115.722656" xlink:href="#DejaVuSans-48"/>
      </g>
     </g>
    </g>
    <g id="ytick_41">
     <g id="text_48">
      <!-- s41 -->
      <g transform="translate(7.2 900.049901)scale(0.08 -0.08)">
       <use xlink:href="#DejaVuSans-115"/>
       <use x="52.099609" xlink:href="#DejaVuSans-52"/>
       <use x="115.722656" xlink:href="#DejaVuSans-49"/>
      </g>
     </g>
    </g>
    <g id="ytick_42">
     <g id="text_49">
      <!-- s42 -->
      <g transform="translate(7.2 921.934112)scale(0.08 -0.08)">
       <use xlink:href="#DejaVuSans-115"/>
       <use x="52.099609" xlink:href="#DejaVuSans-52"/>
       <use x="115.722656" xlink:href="#DejaVuSans-50"/>
      </g>
     </g>
    </g>
    <g id="ytick_43">
     <g id="text_50">
      <!-- s43 -->
      <g transform="translate(7.2 943.818322)scale(0.08 -0.08)">
       <use xlink:href="#DejaVuSans-115"/>
       <use x="52.099609" xlink:href="#DejaVuSans-52"/>
       <use x="115.722656" xlink:href="#DejaVuSans-51"/>
      </g>
     </g>
    </g>
    <g id="ytick_44">
     <g id="text_51">
      <!-- s44 -->
      <g transform="translate(7.2 965.702533)scale(0.08 -0.08)">
       <use xlink:href="#DejaVuSans-115"/>
       <use x="52.099609" xlink:href="#DejaVuSans-52"/>
       <use x="115.722656" xlink:href="#DejaVuSans-52"/>
      </g>
     </g>
    </g>
    <g id="ytick_45">
     <g id="text_52">
      <!-- s45 -->
      <g transform="translate(7.2 987.586743)scale(0.08 -0.08)">
       <use xlink:href="#DejaVuSans-115"/>
       <use x="52.099609" xlink:href="#DejaVuSans-52"/>
       <use x="115.722656" xlink:href="#DejaVuSans-53"/>
      </g>
     </g>
    </g>
    <g id="ytick_46">
     <g id="text_53">
      <!-- s46 -->
      <g transform="translate(7.2 1009.470954)scale(0.08 -0.08)">
       <use xlink:href="#DejaVuSans-115"/>
       <use x="52.099609" xlink:href="#DejaVuSans-52"/>
       <use x="115.722656" xlink:href="#DejaVuSans-54"/>
      </g>
     </g>
    </g>
    <g id="ytick_47">
     <g id="text_54">
      <!-- s47 -->
      <g transform="translate(7.2 1031.355164)scale(0.08 -0.08)">
       <use xlink:href="#DejaVuSans-115"/>
       <use x="52.099609" xlink:href="#DejaVuSans-52"/>
       <use x="115.722656" xlink:href="#DejaVuSans-55"/>
      </g>
     </g>
    </g>
    <g id="ytick_48">
     <g id="text_55">
      <!-- s48 -->
      <g transform="translate(7.2 1053.239375)scale(0.08 -0.08)">
       <use xlink:href="#DejaVuSans-115"/>
       <use x="52.099609" xlink:href="#DejaVuSans-52"/>
       <use x="115.722656" xlink:href="#DejaVuSans-56"/>
      </g>
     </g>
    </g>
    <g id="ytick_49">
     <g id="text_56">
      <!-- s49 -->
      <g transform="translate(7.2 1075.123586)scale(0.08 -0.08)">
       <use xlink:href="#DejaVuSans-115"/>
       <use x="52.099609" xlink:href="#DejaVuSans-52"/>
       <use x="115.722656" xlink:href="#DejaVuSans-57"/>
      </g>
     </g>
    </g>
    <g id="ytick_50">
     <g id="text_57">
      <!-- s50 -->
      <g transform="translate(7.2 1097.007796)scale(0.08 -0.08)">
       <use xlink:href="#DejaVuSans-115"/>
       <use x="52.099609" xlink:href="#DejaVuSans-53"/>
       <use x="115.722656" xlink:href="#DejaVuSans-48"/>
      </g>
     </g>
    </g>
    <g id="ytick_51">
     <g id="text_58">
      <!-- s51 -->
      <g transform="translate(7.2 1118.892007)scale(0.08 -0.08)">
       <use xlink:href="#DejaVuSans-115"/>
       <use x="52.099609" xlink:href="#DejaVuSans-53"/>
       <use x="115.722656" xlink:href="#DejaVuSans-49"/>
      </g>
     </g>
    </g>
    <g id="ytick_52">
     <g id="text_59">
      <!-- s52 -->
      <g transform="translate(7.2 1140.776217)scale(0.08 -0.08)">
       <use xlink:href="#DejaVuSans-115"/>
       <use x="52.099609" xlink:href="#DejaVuSans-53"/>
       <use x="115.722656" xlink:href="#DejaVuSans-50"/>
      </g>
     </g>
    </g>
    <g id="ytick_53">
     <g id="text_60">
      <!-- s53 -->
      <g transform="translate(7.2 1162.660428)scale(0.08 -0.08)">
       <use xlink:href="#DejaVuSans-115"/>
       <use x="52.099609" xlink:href="#DejaVuSans-53"/>
       <use x="115.722656" xlink:href="#DejaVuSans-51"/>
      </g>
     </g>
    </g>
    <g id="ytick_54">
     <g id="text_61">
      <!-- s54 -->
      <g transform="translate(7.2 1184.544638)scale(0.08 -0.08)">
       <use xlink:href="#DejaVuSans-115"/>
       <use x="52.099609" xlink:href="#DejaVuSans-53"/>
       <use x="115.722656" xlink:href="#DejaVuSans-52"/>
      </g>
     </g>
    </g>
    <g id="ytick_55">
     <g id="text_62">
      <!-- s55 -->
      <g transform="translate(7.2 1206.428849)scale(0.08 -0.08)">
       <use xlink:href="#DejaVuSans-115"/>
       <use x="52.099609" xlink:href="#DejaVuSans-53"/>
       <use x="115.722656" xlink:href="#DejaVuSans-53"/>
      </g>
     </g>
    </g>
    <g id="ytick_56">
     <g id="text_63">
      <!-- s56 -->
      <g transform="translate(7.2 1228.313059)scale(0.08 -0.08)">
       <use xlink:href="#DejaVuSans-115"/>
       <use x="52.099609" xlink:href="#DejaVuSans-53"/>
       <use x="115.722656" xlink:href="#DejaVuSans-54"/>
      </g>
     </g>
    </g>
    <g id="ytick_57">
     <g id="text_64">
      <!-- s57 -->
      <g transform="translate(7.2 1250.19727)scale(0.08 -0.08)">
       <use xlink:href="#DejaVuSans-115"/>
       <use x="52.099609" xlink:href="#DejaVuSans-53"/>
       <use x="115.722656" xlink:href="#DejaVuSans-55"/>
      </g>
     </g>
    </g>
    <g id="ytick_58">
     <g id="text_65">
      <!-- s58 -->
      <g transform="translate(7.2 1272.08148)scale(0.08 -0.08)">
       <use xlink:href="#DejaVuSans-115"/>
       <use x="52.099609" xlink:href="#DejaVuSans-53"/>
       <use x="115.722656" xlink:href="#DejaVuSans-56"/>
      </g>
     </g>
    </g>
    <g id="ytick_59">
     <g id="text_66">
      <!-- s59 -->
      <g transform="translate(7.2 1293.965691)scale(0.08 -0.08)">
       <use xlink:href="#DejaVuSans-115"/>
       <use x="52.099609" xlink:href="#DejaVuSans-53"/>
       <use x="115.722656" xlink:href="#DejaVuSans-57"/>
      </g>
     </g>
    </g>
    <g id="ytick_60">
     <g id="text_67">
      <!-- s60 -->
      <g transform="translate(7.2 1315.849901)scale(0.08 -0.08)">
       <use xlink:href="#DejaVuSans-115"/>
       <use x="52.099609" xlink:href="#DejaVuSans-54"/>
       <use x="115.722656" xlink:href="#DejaVuSans-48"/>
      </g>
     </g>
    </g>
    <g id="ytick_61">
     <g id="text_68">
      <!-- s61 -->
      <g transform="translate(7.2 1337.734112)scale(0.08 -0.08)">
       <use xlink:href="#DejaVuSans-115"/>
       <use x="52.099609" xlink:href="#DejaVuSans-54"/>
       <use x="115.722656" xlink:href="#DejaVuSans-49"/>
      </g>
     </g>
    </g>
    <g id="ytick_62">
     <g id="text_69">
      <!-- s62 -->
      <g transform="translate(7.2 1359.618322)scale(0.08 -0.08)">
       <use xlink:href="#DejaVuSans-115"/>
       <use x="52.099609" xlink:href="#DejaVuSans-54"/>
       <use x="115.722656" xlink:href="#DejaVuSans-50"/>
      </g>
     </g>
    </g>
    <g id="ytick_63">
     <g id="text_70">
      <!-- s63 -->
      <g transform="translate(7.2 1381.502533)scale(0.08 -0.08)">
       <use xlink:href="#DejaVuSans-115"/>
       <use x="52.099609" xlink:href="#DejaVuSans-54"/>
       <use x="115.722656" xlink:href="#DejaVuSans-51"/>
      </g>
     </g>
    </g>
    <g id="ytick_64">
     <g id="text_71">
      <!-- s64 -->
      <g transform="translate(7.2 1403.386743)scale(0.08 -0.08)">
       <use xlink:href="#DejaVuSans-115"/>
       <use x="52.099609" xlink:href="#DejaVuSans-54"/>
       <use x="115.722656" xlink:href="#DejaVuSans-52"/>
      </g>
     </g>
    </g>
    <g id="ytick_65">
     <g id="text_72">
      <!-- s65 -->
      <g transform="translate(7.2 1425.270954)scale(0.08 -0.08)">
       <use xlink:href="#DejaVuSans-115"/>
       <use x="52.099609" xlink:href="#DejaVuSans-54"/>
       <use x="115.722656" xlink:href="#DejaVuSans-53"/>
      </g>
     </g>
    </g>
    <g id="ytick_66">
     <g id="text_73">
      <!-- s66 -->
      <g transform="translate(7.2 1447.155164)scale(0.08 -0.08)">
       <use xlink:href="#DejaVuSans-115"/>
       <use x="52.099609" xlink:href="#DejaVuSans-54"/>
       <use x="115.722656" xlink:href="#DejaVuSans-54"/>
      </g>
     </g>
    </g>
    <g id="ytick_67">
     <g id="text_74">
      <!-- s67 -->
      <g transform="translate(7.2 1469.039375)scale(0.08 -0.08)">
       <use xlink:href="#DejaVuSans-115"/>
       <use x="52.099609" xlink:href="#DejaVuSans-54"/>
       <use x="115.722656" xlink:href="#DejaVuSans-55"/>
      </g>
     </g>
    </g>
    <g id="ytick_68">
     <g id="text_75">
      <!-- s68 -->
      <g transform="translate(7.2 1490.923586)scale(0.08 -0.08)">
       <use xlink:href="#DejaVuSans-115"/>
       <use x="52.099609" xlink:href="#DejaVuSans-54"/>
       <use x="115.722656" xlink:href="#DejaVuSans-56"/>
      </g>
     </g>
    </g>
    <g id="ytick_69">
     <g id="text_76">
      <!-- s69 -->
      <g transform="translate(7.2 1512.807796)scale(0.08 -0.08)">
       <use xlink:href="#DejaVuSans-115"/>
       <use x="52.099609" xlink:href="#DejaVuSans-54"/>
       <use x="115.722656" xlink:href="#DejaVuSans-57"/>
      </g>
     </g>
    </g>
    <g id="ytick_70">
     <g id="text_77">
      <!-- s70 -->
      <g transform="translate(7.2 1534.692007)scale(0.08 -0.08)">
       <use xlink:href="#DejaVuSans-115"/>
       <use x="52.099609" xlink:href="#DejaVuSans-55"/>
       <use x="115.722656" xlink:href="#DejaVuSans-48"/>
      </g>
     </g>
    </g>
    <g id="ytick_71">
     <g id="text_78">
      <!-- s71 -->
      <g transform="translate(7.2 1556.576217)scale(0.08 -0.08)">
       <use xlink:href="#DejaVuSans-115"/>
       <use x="52.099609" xlink:href="#DejaVuSans-55"/>
       <use x="115.722656" xlink:href="#DejaVuSans-49"/>
      </g>
     </g>
    </g>
    <g id="ytick_72">
     <g id="text_79">
      <!-- s72 -->
      <g transform="translate(7.2 1578.460428)scale(0.08 -0.08)">
       <use xlink:href="#DejaVuSans-115"/>
       <use x="52.099609" xlink:href="#DejaVuSans-55"/>
       <use x="115.722656" xlink:href="#DejaVuSans-50"/>
      </g>
     </g>
    </g>
    <g id="ytick_73">
     <g id="text_80">
      <!-- s73 -->
      <g transform="translate(7.2 1600.344638)scale(0.08 -0.08)">
       <use xlink:href="#DejaVuSans-115"/>
       <use x="52.099609" xlink:href="#DejaVuSans-55"/>
       <use x="115.722656" xlink:href="#DejaVuSans-51"/>
      </g>
     </g>
    </g>
    <g id="ytick_74">
     <g id="text_81">
      <!-- s74 -->
      <g transform="translate(7.2 1622.228849)scale(0.08 -0.08)">
       <use xlink:href="#DejaVuSans-115"/>
       <use x="52.099609" xlink:href="#DejaVuSans-55"/>
       <use x="115.722656" xlink:href="#DejaVuSans-52"/>
      </g>
     </g>
    </g>
    <g id="ytick_75">
     <g id="text_82">
      <!-- s75 -->
      <g transform="translate(7.2 1644.113059)scale(0.08 -0.08)">
       <use xlink:href="#DejaVuSans-115"/>
       <use x="52.099609" xlink:href="#DejaVuSans-55"/>
       <use x="115.722656" xlink:href="#DejaVuSans-53"/>
      </g>
     </g>
    </g>
    <g id="ytick_76">
     <g id="text_83">
      <!-- s76 -->
      <g transform="translate(7.2 1665.99727)scale(0.08 -0.08)">
       <use xlink:href="#DejaVuSans-115"/>
       <use x="52.099609" xlink:href="#DejaVuSans-55"/>
       <use x="115.722656" xlink:href="#DejaVuSans-54"/>
      </g>
     </g>
    </g>
   </g>
   <g id="patch_3">
    <path clip-path="url(#p1db2c00545)" d="M 28.5475 12.888421 
L 35.34394 12.888421 
L 35.34394 30.395789 
L 28.5475 30.395789 
z
" style="fill:#7cb5ec;"/>
   </g>
   <g id="patch_4">
    <path clip-path="url(#p1db2c00545)" d="M 28.5475 34.772632 
L 33.6253 34.772632 
L 33.6253 52.28 
L 28.5475 52.28 
z
" style="fill:#7cb5ec;"/>
   </g>
   <g id="patch_5">
    <path clip-path="url(#p1db2c00545)" d="M 28.5475 56.656842 
L 36.51574 56.656842 
L 36.51574 74.164211 
L 28.5475 74.164211 
z
" style="fill:#7cb5ec;"/>
   </g>
   <g id="patch_6">
    <path clip-path="url(#p1db2c00545)" d="M 28.5475 78.541053 
L 39.4843 78.541053 
L 39.4843 96.048421 
L 28.5475 96.048421 
z
" style="fill:#7cb5ec;"/>
   </g>
   <g id="patch_7">
    <path clip-path="url(#p1db2c00545)" d="M 28.5475 100.425263 
L 33.6253 100.425263 
L 33.6253 117.932632 
L 28.5475 117.932632 
z
" style="fill:#7cb5ec;"/>
   </g>
   <g id="patch_8">
    <path clip-path="url(#p1db2c00545)" d="M 28.5475 122.309474 
L 33.78154 122.309474 
L 33.78154 139.816842 
L 28.5475 139.816842 
z
" style="fill:#7cb5ec;"/>
   </g>
   <g id="patch_9">
    <path clip-path="url(#p1db2c00545)" d="M 28.5475 144.193684 
L 39.24994 144.193684 
L 39.24994 161.701053 
L 28.5475 161.701053 
z
" style="fill:#7cb5ec;"/>
   </g>
   <g id="patch_10">
    <path clip-path="url(#p1db2c00545)" d="M 28.5475 166.077895 
L 36.7501 166.077895 
L 36.7501 183.585263 
L 28.5475 183.585263 
z
" style="fill:#7cb5ec;"/>
   </g>
   <g id="patch_11">
    <path clip-path="url(#p1db2c00545)" d="M 28.5475 187.962105 
L 37.5313 187.962105 
L 37.5313 205.469474 
L 28.5475 205.469474 
z
" style="fill:#7cb5ec;"/>
   </g>
   <g id="patch_12">
    <path clip-path="url(#p1db2c00545)" d="M 28.5475 209.846316 
L 31.75042 209.846316 
L 31.75042 227.353684 
L 28.5475 227.353684 
z
" style="fill:#7cb5ec;"/>
   </g>
   <g id="patch_13">
    <path clip-path="url(#p1db2c00545)" d="M 28.5475 231.730526 
L 42.45286 231.730526 
L 42.45286 249.237895 
L 28.5475 249.237895 
z
" style="fill:#7cb5ec;"/>
   </g>
   <g id="patch_14">
    <path clip-path="url(#p1db2c00545)" d="M 28.5475 253.614737 
L 35.42206 253.614737 
L 35.42206 271.122105 
L 28.5475 271.122105 
z
" style="fill:#7cb5ec;"/>
   </g>
   <g id="patch_15">
    <path clip-path="url(#p1db2c00545)" d="M 28.5475 275.498947 
L 36.51574 275.498947 
L 36.51574 293.006316 
L 28.5475 293.006316 
z
" style="fill:#7cb5ec;"/>
   </g>
   <g id="patch_16">
    <path clip-path="url(#p1db2c00545)" d="M 28.5475 297.383158 
L 32.29726 297.383158 
L 32.29726 314.890526 
L 28.5475 314.890526 
z
" style="fill:#7cb5ec;"/>
   </g>
   <g id="patch_17">
    <path clip-path="url(#p1db2c00545)" d="M 28.5475 319.267368 
L 32.68786 319.267368 
L 32.68786 336.774737 
L 28.5475 336.774737 
z
" style="fill:#7cb5ec;"/>
   </g>
   <g id="patch_18">
    <path clip-path="url(#p1db2c00545)" d="M 28.5475 341.151579 
L 32.76598 341.151579 
L 32.76598 358.658947 
L 28.5475 358.658947 
z
" style="fill:#7cb5ec;"/>
   </g>
   <g id="patch_19">
    <path clip-path="url(#p1db2c00545)" d="M 28.5475 363.035789 
L 32.60974 363.035789 
L 32.60974 380.543158 
L 28.5475 380.543158 
z
" style="fill:#7cb5ec;"/>
   </g>
   <g id="patch_20">
    <path clip-path="url(#p1db2c00545)" d="M 28.5475 384.92 
L 33.2347 384.92 
L 33.2347 402.427368 
L 28.5475 402.427368 
z
" style="fill:#7cb5ec;"/>
   </g>
   <g id="patch_21">
    <path clip-path="url(#p1db2c00545)" d="M 28.5475 406.804211 
L 30.96922 406.804211 
L 30.96922 424.311579 
L 28.5475 424.311579 
z
" style="fill:#7cb5ec;"/>
   </g>
   <g id="patch_22">
    <path clip-path="url(#p1db2c00545)" d="M 28.5475 428.688421 
L 32.60974 428.688421 
L 32.60974 446.195789 
L 28.5475 446.195789 
z
" style="fill:#7cb5ec;"/>
   </g>
   <g id="patch_23">
    <path clip-path="url(#p1db2c00545)" d="M 28.5475 450.572632 
L 31.90666 450.572632 
L 31.90666 468.08 
L 28.5475 468.08 
z
" style="fill:#7cb5ec;"/>
   </g>
   <g id="patch_24">
    <path clip-path="url(#p1db2c00545)" d="M 28.5475 472.456842 
L 32.92222 472.456842 
L 32.92222 489.964211 
L 28.5475 489.964211 
z
" style="fill:#7cb5ec;"/>
   </g>
   <g id="patch_25">
    <path clip-path="url(#p1db2c00545)" d="M 28.5475 494.341053 
L 31.98478 494.341053 
L 31.98478 511.848421 
L 28.5475 511.848421 
z
" style="fill:#7cb5ec;"/>
   </g>
   <g id="patch_26">
    <path clip-path="url(#p1db2c00545)" d="M 28.5475 516.225263 
L 33.78154 516.225263 
L 33.78154 533.732632 
L 28.5475 533.732632 
z
" style="fill:#7cb5ec;"/>
   </g>
   <g id="patch_27">
    <path clip-path="url(#p1db2c00545)" d="M 28.5475 538.109474 
L 32.8441 538.109474 
L 32.8441 555.616842 
L 28.5475 555.616842 
z
" style="fill:#7cb5ec;"/>
   </g>
   <g id="patch_28">
    <path clip-path="url(#p1db2c00545)" d="M 28.5475 559.993684 
L 31.75042 559.993684 
L 31.75042 577.501053 
L 28.5475 577.501053 
z
" style="fill:#7cb5ec;"/>
   </g>
   <g id="patch_29">
    <path clip-path="url(#p1db2c00545)" d="M 28.5475 581.877895 
L 32.60974 581.877895 
L 32.60974 599.385263 
L 28.5475 599.385263 
z
" style="fill:#7cb5ec;"/>
   </g>
   <g id="patch_30">
    <path clip-path="url(#p1db2c00545)" d="M 28.5475 603.762105 
L 30.81298 603.762105 
L 30.81298 621.269474 
L 28.5475 621.269474 
z
" style="fill:#7cb5ec;"/>
   </g>
   <g id="patch_31">
    <path clip-path="url(#p1db2c00545)" d="M 28.5475 625.646316 
L 34.25026 625.646316 
L 34.25026 643.153684 
L 28.5475 643.153684 
z
" style="fill:#7cb5ec;"/>
   </g>
   <g id="patch_32">
    <path clip-path="url(#p1db2c00545)" d="M 28.5475 647.530526 
L 32.14102 647.530526 
L 32.14102 665.037895 
L 28.5475 665.037895 
z
" style="fill:#7cb5ec;"/>
   </g>
   <g id="patch_33">
    <path clip-path="url(#p1db2c00545)" d="M 28.5475 669.414737 
L 32.14102 669.414737 
L 32.14102 686.922105 
L 28.5475 686.922105 
z
" style="fill:#7cb5ec;"/>
   </g>
   <g id="patch_34">
    <path clip-path="url(#p1db2c00545)" d="M 28.5475 691.298947 
L 34.32838 691.298947 
L 34.32838 708.806316 
L 28.5475 708.806316 
z
" style="fill:#7cb5ec;"/>
   </g>
   <g id="patch_35">
    <path clip-path="url(#p1db2c00545)" d="M 28.5475 713.183158 
L 33.15658 713.183158 
L 33.15658 730.690526 
L 28.5475 730.690526 
z
" style="fill:#7cb5ec;"/>
   </g>
   <g id="patch_36">
    <path clip-path="url(#p1db2c00545)" d="M 28.5475 735.067368 
L 34.0159 735.067368 
L 34.0159 752.574737 
L 28.5475 752.574737 
z
" style="fill:#7cb5ec;"/>
   </g>
   <g id="patch_37">
    <path clip-path="url(#p1db2c00545)" d="M 28.5475 756.951579 
L 34.0159 756.951579 
L 34.0159 774.458947 
L 28.5475 774.458947 
z
" style="fill:#7cb5ec;"/>
   </g>
   <g id="patch_38">
    <path clip-path="url(#p1db2c00545)" d="M 28.5475 778.835789 
L 33.2347 778.835789 
L 33.2347 796.343158 
L 28.5475 796.343158 
z
" style="fill:#7cb5ec;"/>
   </g>
   <g id="patch_39">
    <path clip-path="url(#p1db2c00545)" d="M 28.5475 800.72 
L 34.71898 800.72 
L 34.71898 818.227368 
L 28.5475 818.227368 
z
" style="fill:#7cb5ec;"/>
   </g>
   <g id="patch_40">
    <path clip-path="url(#p1db2c00545)" d="M 28.5475 822.604211 
L 32.76598 822.604211 
L 32.76598 840.111579 
L 28.5475 840.111579 
z
" style="fill:#7cb5ec;"/>
   </g>
   <g id="patch_41">
    <path clip-path="url(#p1db2c00545)" d="M 28.5475 844.488421 
L 35.73454 844.488421 
L 35.73454 861.995789 
L 28.5475 861.995789 
z
" style="fill:#7cb5ec;"/>
   </g>
   <g id="patch_42">
    <path clip-path="url(#p1db2c00545)" d="M 28.5475 866.372632 
L 31.51606 866.372632 
L 31.51606 883.88 
L 28.5475 883.88 
z
" style="fill:#7cb5ec;"/>
   </g>
   <g id="patch_43">
    <path clip-path="url(#p1db2c00545)" d="M 28.5475 888.256842 
L 35.1877 888.256842 
L 35.1877 905.764211 
L 28.5475 905.764211 
z
" style="fill:#7cb5ec;"/>
   </g>
   <g id="patch_44">
    <path clip-path="url(#p1db2c00545)" d="M 28.5475 910.141053 
L 35.9689 910.141053 
L 35.9689 927.648421 
L 28.5475 927.648421 
z
" style="fill:#7cb5ec;"/>
   </g>
   <g id="patch_45">
    <path clip-path="url(#p1db2c00545)" d="M 28.5475 932.025263 
L 34.09402 932.025263 
L 34.09402 949.532632 
L 28.5475 949.532632 
z
" style="fill:#7cb5ec;"/>
   </g>
   <g id="patch_46">
    <path clip-path="url(#p1db2c00545)" d="M 28.5475 953.909474 
L 35.9689 953.909474 
L 35.9689 971.416842 
L 28.5475 971.416842 
z
" style="fill:#7cb5ec;"/>
   </g>
   <g id="patch_47">
    <path clip-path="url(#p1db2c00545)" d="M 28.5475 975.793684 
L 31.98478 975.793684 
L 31.98478 993.301053 
L 28.5475 993.301053 
z
" style="fill:#7cb5ec;"/>
   </g>
   <g id="patch_48">
    <path clip-path="url(#p1db2c00545)" d="M 28.5475 997.677895 
L 34.4065 997.677895 
L 34.4065 1015.185263 
L 28.5475 1015.185263 
z
" style="fill:#7cb5ec;"/>
   </g>
   <g id="patch_49">
    <path clip-path="url(#p1db2c00545)" d="M 28.5475 1019.562105 
L 33.54718 1019.562105 
L 33.54718 1037.069474 
L 28.5475 1037.069474 
z
" style="fill:#7cb5ec;"/>
   </g>
   <g id="patch_50">
    <path clip-path="url(#p1db2c00545)" d="M 28.5475 1041.446316 
L 32.14102 1041.446316 
L 32.14102 1058.953684 
L 28.5475 1058.953684 
z
" style="fill:#7cb5ec;"/>
   </g>
   <g id="patch_51">
    <path clip-path="url(#p1db2c00545)" d="M 28.5475 1063.330526 
L 34.4065 1063.330526 
L 34.4065 1080.837895 
L 28.5475 1080.837895 
z
" style="fill:#7cb5ec;"/>
   </g>
   <g id="patch_52">
    <path clip-path="url(#p1db2c00545)" d="M 28.5475 1085.214737 
L 34.7971 1085.214737 
L 34.7971 1102.722105 
L 28.5475 1102.722105 
z
" style="fill:#7cb5ec;"/>
   </g>
   <g id="patch_53">
    <path clip-path="url(#p1db2c00545)" d="M 28.5475 1107.098947 
L 32.53162 1107.098947 
L 32.53162 1124.606316 
L 28.5475 1124.606316 
z
" style="fill:#7cb5ec;"/>
   </g>
   <g id="patch_54">
    <path clip-path="url(#p1db2c00545)" d="M 28.5475 1128.983158 
L 33.70342 1128.983158 
L 33.70342 1146.490526 
L 28.5475 1146.490526 
z
" style="fill:#7cb5ec;"/>
   </g>
   <g id="patch_55">
    <path clip-path="url(#p1db2c00545)" d="M 28.5475 1150.867368 
L 33.39094 1150.867368 
L 33.39094 1168.374737 
L 28.5475 1168.374737 
z
" style="fill:#7cb5ec;"/>
   </g>
   <g id="patch_56">
    <path clip-path="url(#p1db2c00545)" d="M 28.5475 1172.751579 
L 32.68786 1172.751579 
L 32.68786 1190.258947 
L 28.5475 1190.258947 
z
" style="fill:#7cb5ec;"/>
   </g>
   <g id="patch_57">
    <path clip-path="url(#p1db2c00545)" d="M 28.5475 1194.635789 
L 31.98478 1194.635789 
L 31.98478 1212.143158 
L 28.5475 1212.143158 
z
" style="fill:#7cb5ec;"/>
   </g>
   <g id="patch_58">
    <path clip-path="url(#p1db2c00545)" d="M 28.5475 1216.52 
L 32.92222 1216.52 
L 32.92222 1234.027368 
L 28.5475 1234.027368 
z
" style="fill:#7cb5ec;"/>
   </g>
   <g id="patch_59">
    <path clip-path="url(#p1db2c00545)" d="M 28.5475 1238.404211 
L 33.15658 1238.404211 
L 33.15658 1255.911579 
L 28.5475 1255.911579 
z
" style="fill:#7cb5ec;"/>
   </g>
   <g id="patch_60">
    <path clip-path="url(#p1db2c00545)" d="M 28.5475 1260.288421 
L 33.2347 1260.288421 
L 33.2347 1277.795789 
L 28.5475 1277.795789 
z
" style="fill:#7cb5ec;"/>
   </g>
   <g id="patch_61">
    <path clip-path="url(#p1db2c00545)" d="M 28.5475 1282.172632 
L 33.93778 1282.172632 
L 33.93778 1299.68 
L 28.5475 1299.68 
z
" style="fill:#7cb5ec;"/>
   </g>
   <g id="patch_62">
    <path clip-path="url(#p1db2c00545)" d="M 28.5475 1304.056842 
L 34.0159 1304.056842 
L 34.0159 1321.564211 
L 28.5475 1321.564211 
z
" style="fill:#7cb5ec;"/>
   </g>
   <g id="patch_63">
    <path clip-path="url(#p1db2c00545)" d="M 28.5475 1325.941053 
L 32.68786 1325.941053 
L 32.68786 1343.448421 
L 28.5475 1343.448421 
z
" style="fill:#7cb5ec;"/>
   </g>
   <g id="patch_64">
    <path clip-path="url(#p1db2c00545)" d="M 28.5475 1347.825263 
L 33.70342 1347.825263 
L 33.70342 1365.332632 
L 28.5475 1365.332632 
z
" style="fill:#7cb5ec;"/>
   </g>
   <g id="patch_65">
    <path clip-path="url(#p1db2c00545)" d="M 28.5475 1369.709474 
L 33.00034 1369.709474 
L 33.00034 1387.216842 
L 28.5475 1387.216842 
z
" style="fill:#7cb5ec;"/>
   </g>
   <g id="patch_66">
    <path clip-path="url(#p1db2c00545)" d="M 28.5475 1391.593684 
L 34.25026 1391.593684 
L 34.25026 1409.101053 
L 28.5475 1409.101053 
z
" style="fill:#7cb5ec;"/>
   </g>
   <g id="patch_67">
    <path clip-path="url(#p1db2c00545)" d="M 28.5475 1413.477895 
L 40.96858 1413.477895 
L 40.96858 1430.985263 
L 28.5475 1430.985263 
z
" style="fill:#7cb5ec;"/>
   </g>
   <g id="patch_68">
    <path clip-path="url(#p1db2c00545)" d="M 28.5475 1435.362105 
L 36.04702 1435.362105 
L 36.04702 1452.869474 
L 28.5475 1452.869474 
z
" style="fill:#7cb5ec;"/>
   </g>
   <g id="patch_69">
    <path clip-path="url(#p1db2c00545)" d="M 28.5475 1457.246316 
L 32.37538 1457.246316 
L 32.37538 1474.753684 
L 28.5475 1474.753684 
z
" style="fill:#7cb5ec;"/>
   </g>
   <g id="patch_70">
    <path clip-path="url(#p1db2c00545)" d="M 28.5475 1479.130526 
L 34.48462 1479.130526 
L 34.48462 1496.637895 
L 28.5475 1496.637895 
z
" style="fill:#7cb5ec;"/>
   </g>
   <g id="patch_71">
    <path clip-path="url(#p1db2c00545)" d="M 28.5475 1501.014737 
L 33.2347 1501.014737 
L 33.2347 1518.522105 
L 28.5475 1518.522105 
z
" style="fill:#7cb5ec;"/>
   </g>
   <g id="patch_72">
    <path clip-path="url(#p1db2c00545)" d="M 28.5475 1522.898947 
L 34.56274 1522.898947 
L 34.56274 1540.406316 
L 28.5475 1540.406316 
z
" style="fill:#7cb5ec;"/>
   </g>
   <g id="patch_73">
    <path clip-path="url(#p1db2c00545)" d="M 28.5475 1544.783158 
L 39.64054 1544.783158 
L 39.64054 1562.290526 
L 28.5475 1562.290526 
z
" style="fill:#7cb5ec;"/>
   </g>
   <g id="patch_74">
    <path clip-path="url(#p1db2c00545)" d="M 28.5475 1566.667368 
L 40.18738 1566.667368 
L 40.18738 1584.174737 
L 28.5475 1584.174737 
z
" style="fill:#7cb5ec;"/>
   </g>
   <g id="patch_75">
    <path clip-path="url(#p1db2c00545)" d="M 28.5475 1588.551579 
L 38.46874 1588.551579 
L 38.46874 1606.058947 
L 28.5475 1606.058947 
z
" style="fill:#7cb5ec;"/>
   </g>
   <g id="patch_76">
    <path clip-path="url(#p1db2c00545)" d="M 28.5475 1610.435789 
L 34.09402 1610.435789 
L 34.09402 1627.943158 
L 28.5475 1627.943158 
z
" style="fill:#7cb5ec;"/>
   </g>
   <g id="patch_77">
    <path clip-path="url(#p1db2c00545)" d="M 28.5475 1632.32 
L 36.12514 1632.32 
L 36.12514 1649.827368 
L 28.5475 1649.827368 
z
" style="fill:#7cb5ec;"/>
   </g>
   <g id="patch_78">
    <path clip-path="url(#p1db2c00545)" d="M 28.5475 1654.204211 
L 36.04702 1654.204211 
L 36.04702 1671.711579 
L 28.5475 1671.711579 
z
" style="fill:#7cb5ec;"/>
   </g>
   <g id="patch_79">
    <path clip-path="url(#p1db2c00545)" d="M 35.34394 12.888421 
L 798.57634 12.888421 
L 798.57634 30.395789 
L 35.34394 30.395789 
z
" style="fill:#434348;"/>
   </g>
   <g id="patch_80">
    <path clip-path="url(#p1db2c00545)" d="M 33.6253 34.772632 
L 797.6389 34.772632 
L 797.6389 52.28 
L 33.6253 52.28 
z
" style="fill:#434348;"/>
   </g>
   <g id="patch_81">
    <path clip-path="url(#p1db2c00545)" d="M 36.51574 56.656842 
L 804.82594 56.656842 
L 804.82594 74.164211 
L 36.51574 74.164211 
z
" style="fill:#434348;"/>
   </g>
   <g id="patch_82">
    <path clip-path="url(#p1db2c00545)" d="M 39.4843 78.541053 
L 800.21686 78.541053 
L 800.21686 96.048421 
L 39.4843 96.048421 
z
" style="fill:#434348;"/>
   </g>
   <g id="patch_83">
    <path clip-path="url(#p1db2c00545)" d="M 33.6253 100.425263 
L 798.73258 100.425263 
L 798.73258 117.932632 
L 33.6253 117.932632 
z
" style="fill:#434348;"/>
   </g>
   <g id="patch_84">
    <path clip-path="url(#p1db2c00545)" d="M 33.78154 122.309474 
L 802.95106 122.309474 
L 802.95106 139.816842 
L 33.78154 139.816842 
z
" style="fill:#434348;"/>
   </g>
   <g id="patch_85">
    <path clip-path="url(#p1db2c00545)" d="M 39.24994 144.193684 
L 799.74814 144.193684 
L 799.74814 161.701053 
L 39.24994 161.701053 
z
" style="fill:#434348;"/>
   </g>
   <g id="patch_86">
    <path clip-path="url(#p1db2c00545)" d="M 36.7501 166.077895 
L 801.31054 166.077895 
L 801.31054 183.585263 
L 36.7501 183.585263 
z
" style="fill:#434348;"/>
   </g>
   <g id="patch_87">
    <path clip-path="url(#p1db2c00545)" d="M 37.5313 187.962105 
L 800.3731 187.962105 
L 800.3731 205.469474 
L 37.5313 205.469474 
z
" style="fill:#434348;"/>
   </g>
   <g id="patch_88">
    <path clip-path="url(#p1db2c00545)" d="M 31.75042 209.846316 
L 806.15398 209.846316 
L 806.15398 227.353684 
L 31.75042 227.353684 
z
" style="fill:#434348;"/>
   </g>
   <g id="patch_89">
    <path clip-path="url(#p1db2c00545)" d="M 42.45286 231.730526 
L 804.12286 231.730526 
L 804.12286 249.237895 
L 42.45286 249.237895 
z
" style="fill:#434348;"/>
   </g>
   <g id="patch_90">
    <path clip-path="url(#p1db2c00545)" d="M 35.42206 253.614737 
L 796.77958 253.614737 
L 796.77958 271.122105 
L 35.42206 271.122105 
z
" style="fill:#434348;"/>
   </g>
   <g id="patch_91">
    <path clip-path="url(#p1db2c00545)" d="M 36.51574 275.498947 
L 801.07618 275.498947 
L 801.07618 293.006316 
L 36.51574 293.006316 
z
" style="fill:#434348;"/>
   </g>
   <g id="patch_92">
    <path clip-path="url(#p1db2c00545)" d="M 32.29726 297.383158 
L 776.5465 297.383158 
L 776.5465 314.890526 
L 32.29726 314.890526 
z
" style="fill:#434348;"/>
   </g>
   <g id="patch_93">
    <path clip-path="url(#p1db2c00545)" d="M 32.68786 319.267368 
L 796.70146 319.267368 
L 796.70146 336.774737 
L 32.68786 336.774737 
z
" style="fill:#434348;"/>
   </g>
   <g id="patch_94">
    <path clip-path="url(#p1db2c00545)" d="M 32.76598 341.151579 
L 790.29562 341.151579 
L 790.29562 358.658947 
L 32.76598 358.658947 
z
" style="fill:#434348;"/>
   </g>
   <g id="patch_95">
    <path clip-path="url(#p1db2c00545)" d="M 32.60974 363.035789 
L 787.56142 363.035789 
L 787.56142 380.543158 
L 32.60974 380.543158 
z
" style="fill:#434348;"/>
   </g>
   <g id="patch_96">
    <path clip-path="url(#p1db2c00545)" d="M 33.2347 384.92 
L 804.51346 384.92 
L 804.51346 402.427368 
L 33.2347 402.427368 
z
" style="fill:#434348;"/>
   </g>
   <g id="patch_97">
    <path clip-path="url(#p1db2c00545)" d="M 30.96922 406.804211 
L 795.21718 406.804211 
L 795.21718 424.311579 
L 30.96922 424.311579 
z
" style="fill:#434348;"/>
   </g>
   <g id="patch_98">
    <path clip-path="url(#p1db2c00545)" d="M 32.60974 428.688421 
L 805.52902 428.688421 
L 805.52902 446.195789 
L 32.60974 446.195789 
z
" style="fill:#434348;"/>
   </g>
   <g id="patch_99">
    <path clip-path="url(#p1db2c00545)" d="M 31.90666 450.572632 
L 793.96726 450.572632 
L 793.96726 468.08 
L 31.90666 468.08 
z
" style="fill:#434348;"/>
   </g>
   <g id="patch_100">
    <path clip-path="url(#p1db2c00545)" d="M 32.92222 472.456842 
L 785.06158 472.456842 
L 785.06158 489.964211 
L 32.92222 489.964211 
z
" style="fill:#434348;"/>
   </g>
   <g id="patch_101">
    <path clip-path="url(#p1db2c00545)" d="M 31.98478 494.341053 
L 781.78054 494.341053 
L 781.78054 511.848421 
L 31.98478 511.848421 
z
" style="fill:#434348;"/>
   </g>
   <g id="patch_102">
    <path clip-path="url(#p1db2c00545)" d="M 33.78154 516.225263 
L 779.90566 516.225263 
L 779.90566 533.732632 
L 33.78154 533.732632 
z
" style="fill:#434348;"/>
   </g>
   <g id="patch_103">
    <path clip-path="url(#p1db2c00545)" d="M 32.8441 538.109474 
L 797.48266 538.109474 
L 797.48266 555.616842 
L 32.8441 555.616842 
z
" style="fill:#434348;"/>
   </g>
   <g id="patch_104">
    <path clip-path="url(#p1db2c00545)" d="M 31.75042 559.993684 
L 790.52998 559.993684 
L 790.52998 577.501053 
L 31.75042 577.501053 
z
" style="fill:#434348;"/>
   </g>
   <g id="patch_105">
    <path clip-path="url(#p1db2c00545)" d="M 32.60974 581.877895 
L 803.1073 581.877895 
L 803.1073 599.385263 
L 32.60974 599.385263 
z
" style="fill:#434348;"/>
   </g>
   <g id="patch_106">
    <path clip-path="url(#p1db2c00545)" d="M 30.81298 603.762105 
L 788.2645 603.762105 
L 788.2645 621.269474 
L 30.81298 621.269474 
z
" style="fill:#434348;"/>
   </g>
   <g id="patch_107">
    <path clip-path="url(#p1db2c00545)" d="M 34.25026 625.646316 
L 788.42074 625.646316 
L 788.42074 643.153684 
L 34.25026 643.153684 
z
" style="fill:#434348;"/>
   </g>
   <g id="patch_108">
    <path clip-path="url(#p1db2c00545)" d="M 32.14102 647.530526 
L 795.99838 647.530526 
L 795.99838 665.037895 
L 32.14102 665.037895 
z
" style="fill:#434348;"/>
   </g>
   <g id="patch_109">
    <path clip-path="url(#p1db2c00545)" d="M 32.14102 669.414737 
L 784.82722 669.414737 
L 784.82722 686.922105 
L 32.14102 686.922105 
z
" style="fill:#434348;"/>
   </g>
   <g id="patch_110">
    <path clip-path="url(#p1db2c00545)" d="M 34.32838 691.298947 
L 800.60746 691.298947 
L 800.60746 708.806316 
L 34.32838 708.806316 
z
" style="fill:#434348;"/>
   </g>
   <g id="patch_111">
    <path clip-path="url(#p1db2c00545)" d="M 33.15658 713.183158 
L 772.01554 713.183158 
L 772.01554 730.690526 
L 33.15658 730.690526 
z
" style="fill:#434348;"/>
   </g>
   <g id="patch_112">
    <path clip-path="url(#p1db2c00545)" d="M 34.0159 735.067368 
L 804.43534 735.067368 
L 804.43534 752.574737 
L 34.0159 752.574737 
z
" style="fill:#434348;"/>
   </g>
   <g id="patch_113">
    <path clip-path="url(#p1db2c00545)" d="M 34.0159 756.951579 
L 778.4995 756.951579 
L 778.4995 774.458947 
L 34.0159 774.458947 
z
" style="fill:#434348;"/>
   </g>
   <g id="patch_114">
    <path clip-path="url(#p1db2c00545)" d="M 33.2347 778.835789 
L 792.01426 778.835789 
L 792.01426 796.343158 
L 33.2347 796.343158 
z
" style="fill:#434348;"/>
   </g>
   <g id="patch_115">
    <path clip-path="url(#p1db2c00545)" d="M 34.71898 800.72 
L 793.65478 800.72 
L 793.65478 818.227368 
L 34.71898 818.227368 
z
" style="fill:#434348;"/>
   </g>
   <g id="patch_116">
    <path clip-path="url(#p1db2c00545)" d="M 32.76598 822.604211 
L 779.12446 822.604211 
L 779.12446 840.111579 
L 32.76598 840.111579 
z
" style="fill:#434348;"/>
   </g>
   <g id="patch_117">
    <path clip-path="url(#p1db2c00545)" d="M 35.73454 844.488421 
L 802.48234 844.488421 
L 802.48234 861.995789 
L 35.73454 861.995789 
z
" style="fill:#434348;"/>
   </g>
   <g id="patch_118">
    <path clip-path="url(#p1db2c00545)" d="M 31.51606 866.372632 
L 783.88978 866.372632 
L 783.88978 883.88 
L 31.51606 883.88 
z
" style="fill:#434348;"/>
   </g>
   <g id="patch_119">
    <path clip-path="url(#p1db2c00545)" d="M 35.1877 888.256842 
L 792.1705 888.256842 
L 792.1705 905.764211 
L 35.1877 905.764211 
z
" style="fill:#434348;"/>
   </g>
   <g id="patch_120">
    <path clip-path="url(#p1db2c00545)" d="M 35.9689 910.141053 
L 775.06222 910.141053 
L 775.06222 927.648421 
L 35.9689 927.648421 
z
" style="fill:#434348;"/>
   </g>
   <g id="patch_121">
    <path clip-path="url(#p1db2c00545)" d="M 34.09402 932.025263 
L 806.54458 932.025263 
L 806.54458 949.532632 
L 34.09402 949.532632 
z
" style="fill:#434348;"/>
   </g>
   <g id="patch_122">
    <path clip-path="url(#p1db2c00545)" d="M 35.9689 953.909474 
L 794.59222 953.909474 
L 794.59222 971.416842 
L 35.9689 971.416842 
z
" style="fill:#434348;"/>
   </g>
   <g id="patch_123">
    <path clip-path="url(#p1db2c00545)" d="M 31.98478 975.793684 
L 767.71894 975.793684 
L 767.71894 993.301053 
L 31.98478 993.301053 
z
" style="fill:#434348;"/>
   </g>
   <g id="patch_124">
    <path clip-path="url(#p1db2c00545)" d="M 34.4065 997.677895 
L 759.28198 997.677895 
L 759.28198 1015.185263 
L 34.4065 1015.185263 
z
" style="fill:#434348;"/>
   </g>
   <g id="patch_125">
    <path clip-path="url(#p1db2c00545)" d="M 33.54718 1019.562105 
L 794.82658 1019.562105 
L 794.82658 1037.069474 
L 33.54718 1037.069474 
z
" style="fill:#434348;"/>
   </g>
   <g id="patch_126">
    <path clip-path="url(#p1db2c00545)" d="M 32.14102 1041.446316 
L 779.04634 1041.446316 
L 779.04634 1058.953684 
L 32.14102 1058.953684 
z
" style="fill:#434348;"/>
   </g>
   <g id="patch_127">
    <path clip-path="url(#p1db2c00545)" d="M 34.4065 1063.330526 
L 798.4201 1063.330526 
L 798.4201 1080.837895 
L 34.4065 1080.837895 
z
" style="fill:#434348;"/>
   </g>
   <g id="patch_128">
    <path clip-path="url(#p1db2c00545)" d="M 34.7971 1085.214737 
L 762.40678 1085.214737 
L 762.40678 1102.722105 
L 34.7971 1102.722105 
z
" style="fill:#434348;"/>
   </g>
   <g id="patch_129">
    <path clip-path="url(#p1db2c00545)" d="M 32.53162 1107.098947 
L 794.5141 1107.098947 
L 794.5141 1124.606316 
L 32.53162 1124.606316 
z
" style="fill:#434348;"/>
   </g>
   <g id="patch_130">
    <path clip-path="url(#p1db2c00545)" d="M 33.70342 1128.983158 
L 804.59158 1128.983158 
L 804.59158 1146.490526 
L 33.70342 1146.490526 
z
" style="fill:#434348;"/>
   </g>
   <g id="patch_131">
    <path clip-path="url(#p1db2c00545)" d="M 33.39094 1150.867368 
L 782.17114 1150.867368 
L 782.17114 1168.374737 
L 33.39094 1168.374737 
z
" style="fill:#434348;"/>
   </g>
   <g id="patch_132">
    <path clip-path="url(#p1db2c00545)" d="M 32.68786 1172.751579 
L 797.09206 1172.751579 
L 797.09206 1190.258947 
L 32.68786 1190.258947 
z
" style="fill:#434348;"/>
   </g>
   <g id="patch_133">
    <path clip-path="url(#p1db2c00545)" d="M 31.98478 1194.635789 
L 778.34326 1194.635789 
L 778.34326 1212.143158 
L 31.98478 1212.143158 
z
" style="fill:#434348;"/>
   </g>
   <g id="patch_134">
    <path clip-path="url(#p1db2c00545)" d="M 32.92222 1216.52 
L 791.07682 1216.52 
L 791.07682 1234.027368 
L 32.92222 1234.027368 
z
" style="fill:#434348;"/>
   </g>
   <g id="patch_135">
    <path clip-path="url(#p1db2c00545)" d="M 33.15658 1238.404211 
L 801.62302 1238.404211 
L 801.62302 1255.911579 
L 33.15658 1255.911579 
z
" style="fill:#434348;"/>
   </g>
   <g id="patch_136">
    <path clip-path="url(#p1db2c00545)" d="M 33.2347 1260.288421 
L 788.96758 1260.288421 
L 788.96758 1277.795789 
L 33.2347 1277.795789 
z
" style="fill:#434348;"/>
   </g>
   <g id="patch_137">
    <path clip-path="url(#p1db2c00545)" d="M 33.93778 1282.172632 
L 775.14034 1282.172632 
L 775.14034 1299.68 
L 33.93778 1299.68 
z
" style="fill:#434348;"/>
   </g>
   <g id="patch_138">
    <path clip-path="url(#p1db2c00545)" d="M 34.0159 1304.056842 
L 800.84182 1304.056842 
L 800.84182 1321.564211 
L 34.0159 1321.564211 
z
" style="fill:#434348;"/>
   </g>
   <g id="patch_139">
    <path clip-path="url(#p1db2c00545)" d="M 32.68786 1325.941053 
L 778.42138 1325.941053 
L 778.42138 1343.448421 
L 32.68786 1343.448421 
z
" style="fill:#434348;"/>
   </g>
   <g id="patch_140">
    <path clip-path="url(#p1db2c00545)" d="M 33.70342 1347.825263 
L 779.74942 1347.825263 
L 779.74942 1365.332632 
L 33.70342 1365.332632 
z
" style="fill:#434348;"/>
   </g>
   <g id="patch_141">
    <path clip-path="url(#p1db2c00545)" d="M 33.00034 1369.709474 
L 798.57634 1369.709474 
L 798.57634 1387.216842 
L 33.00034 1387.216842 
z
" style="fill:#434348;"/>
   </g>
   <g id="patch_142">
    <path clip-path="url(#p1db2c00545)" d="M 34.25026 1391.593684 
L 807.16954 1391.593684 
L 807.16954 1409.101053 
L 34.25026 1409.101053 
z
" style="fill:#434348;"/>
   </g>
   <g id="patch_143">
    <path clip-path="url(#p1db2c00545)" d="M 40.96858 1413.477895 
L 805.91962 1413.477895 
L 805.91962 1430.985263 
L 40.96858 1430.985263 
z
" style="fill:#434348;"/>
   </g>
   <g id="patch_144">
    <path clip-path="url(#p1db2c00545)" d="M 36.04702 1435.362105 
L 807.87262 1435.362105 
L 807.87262 1452.869474 
L 36.04702 1452.869474 
z
" style="fill:#434348;"/>
   </g>
   <g id="patch_145">
    <path clip-path="url(#p1db2c00545)" d="M 32.37538 1457.246316 
L 791.3893 1457.246316 
L 791.3893 1474.753684 
L 32.37538 1474.753684 
z
" style="fill:#434348;"/>
   </g>
   <g id="patch_146">
    <path clip-path="url(#p1db2c00545)" d="M 34.48462 1479.130526 
L 782.32738 1479.130526 
L 782.32738 1496.637895 
L 34.48462 1496.637895 
z
" style="fill:#434348;"/>
   </g>
   <g id="patch_147">
    <path clip-path="url(#p1db2c00545)" d="M 33.2347 1501.014737 
L 789.98314 1501.014737 
L 789.98314 1518.522105 
L 33.2347 1518.522105 
z
" style="fill:#434348;"/>
   </g>
   <g id="patch_148">
    <path clip-path="url(#p1db2c00545)" d="M 34.56274 1522.898947 
L 802.01362 1522.898947 
L 802.01362 1540.406316 
L 34.56274 1540.406316 
z
" style="fill:#434348;"/>
   </g>
   <g id="patch_149">
    <path clip-path="url(#p1db2c00545)" d="M 39.64054 1544.783158 
L 780.21814 1544.783158 
L 780.21814 1562.290526 
L 39.64054 1562.290526 
z
" style="fill:#434348;"/>
   </g>
   <g id="patch_150">
    <path clip-path="url(#p1db2c00545)" d="M 40.18738 1566.667368 
L 785.37406 1566.667368 
L 785.37406 1584.174737 
L 40.18738 1584.174737 
z
" style="fill:#434348;"/>
   </g>
   <g id="patch_151">
    <path clip-path="url(#p1db2c00545)" d="M 38.46874 1588.551579 
L 786.3115 1588.551579 
L 786.3115 1606.058947 
L 38.46874 1606.058947 
z
" style="fill:#434348;"/>
   </g>
   <g id="patch_152">
    <path clip-path="url(#p1db2c00545)" d="M 34.09402 1610.435789 
L 801.31054 1610.435789 
L 801.31054 1627.943158 
L 34.09402 1627.943158 
z
" style="fill:#434348;"/>
   </g>
   <g id="patch_153">
    <path clip-path="url(#p1db2c00545)" d="M 36.12514 1632.32 
L 802.48234 1632.32 
L 802.48234 1649.827368 
L 36.12514 1649.827368 
z
" style="fill:#434348;"/>
   </g>
   <g id="patch_154">
    <path clip-path="url(#p1db2c00545)" d="M 36.04702 1654.204211 
L 802.09174 1654.204211 
L 802.09174 1671.711579 
L 36.04702 1671.711579 
z
" style="fill:#434348;"/>
   </g>
   <g id="patch_155">
    <path clip-path="url(#p1db2c00545)" d="M 798.57634 12.888421 
L 809.66938 12.888421 
L 809.66938 30.395789 
L 798.57634 30.395789 
z
" style="fill:#90ed7d;"/>
   </g>
   <g id="patch_156">
    <path clip-path="url(#p1db2c00545)" d="M 797.6389 34.772632 
L 809.7475 34.772632 
L 809.7475 52.28 
L 797.6389 52.28 
z
" style="fill:#90ed7d;"/>
   </g>
   <g id="patch_157">
    <path clip-path="url(#p1db2c00545)" d="M 804.82594 56.656842 
L 809.7475 56.656842 
L 809.7475 74.164211 
L 804.82594 74.164211 
z
" style="fill:#90ed7d;"/>
   </g>
   <g id="patch_158">
    <path clip-path="url(#p1db2c00545)" d="M 800.21686 78.541053 
L 809.7475 78.541053 
L 809.7475 96.048421 
L 800.21686 96.048421 
z
" style="fill:#90ed7d;"/>
   </g>
   <g id="patch_159">
    <path clip-path="url(#p1db2c00545)" d="M 798.73258 100.425263 
L 809.7475 100.425263 
L 809.7475 117.932632 
L 798.73258 117.932632 
z
" style="fill:#90ed7d;"/>
   </g>
   <g id="patch_160">
    <path clip-path="url(#p1db2c00545)" d="M 802.95106 122.309474 
L 809.7475 122.309474 
L 809.7475 139.816842 
L 802.95106 139.816842 
z
" style="fill:#90ed7d;"/>
   </g>
   <g id="patch_161">
    <path clip-path="url(#p1db2c00545)" d="M 799.74814 144.193684 
L 809.7475 144.193684 
L 809.7475 161.701053 
L 799.74814 161.701053 
z
" style="fill:#90ed7d;"/>
   </g>
   <g id="patch_162">
    <path clip-path="url(#p1db2c00545)" d="M 801.31054 166.077895 
L 809.7475 166.077895 
L 809.7475 183.585263 
L 801.31054 183.585263 
z
" style="fill:#90ed7d;"/>
   </g>
   <g id="patch_163">
    <path clip-path="url(#p1db2c00545)" d="M 800.3731 187.962105 
L 809.7475 187.962105 
L 809.7475 205.469474 
L 800.3731 205.469474 
z
" style="fill:#90ed7d;"/>
   </g>
   <g id="patch_164">
    <path clip-path="url(#p1db2c00545)" d="M 806.15398 209.846316 
L 809.82562 209.846316 
L 809.82562 227.353684 
L 806.15398 227.353684 
z
" style="fill:#90ed7d;"/>
   </g>
   <g id="patch_165">
    <path clip-path="url(#p1db2c00545)" d="M 804.12286 231.730526 
L 809.7475 231.730526 
L 809.7475 249.237895 
L 804.12286 249.237895 
z
" style="fill:#90ed7d;"/>
   </g>
   <g id="patch_166">
    <path clip-path="url(#p1db2c00545)" d="M 796.77958 253.614737 
L 809.7475 253.614737 
L 809.7475 271.122105 
L 796.77958 271.122105 
z
" style="fill:#90ed7d;"/>
   </g>
   <g id="patch_167">
    <path clip-path="url(#p1db2c00545)" d="M 801.07618 275.498947 
L 809.7475 275.498947 
L 809.7475 293.006316 
L 801.07618 293.006316 
z
" style="fill:#90ed7d;"/>
   </g>
   <g id="patch_168">
    <path clip-path="url(#p1db2c00545)" d="M 776.5465 297.383158 
L 809.7475 297.383158 
L 809.7475 314.890526 
L 776.5465 314.890526 
z
" style="fill:#90ed7d;"/>
   </g>
   <g id="patch_169">
    <path clip-path="url(#p1db2c00545)" d="M 796.70146 319.267368 
L 809.7475 319.267368 
L 809.7475 336.774737 
L 796.70146 336.774737 
z
" style="fill:#90ed7d;"/>
   </g>
   <g id="patch_170">
    <path clip-path="url(#p1db2c00545)" d="M 790.29562 341.151579 
L 809.82562 341.151579 
L 809.82562 358.658947 
L 790.29562 358.658947 
z
" style="fill:#90ed7d;"/>
   </g>
   <g id="patch_171">
    <path clip-path="url(#p1db2c00545)" d="M 787.56142 363.035789 
L 809.66938 363.035789 
L 809.66938 380.543158 
L 787.56142 380.543158 
z
" style="fill:#90ed7d;"/>
   </g>
   <g id="patch_172">
    <path clip-path="url(#p1db2c00545)" d="M 804.51346 384.92 
L 809.7475 384.92 
L 809.7475 402.427368 
L 804.51346 402.427368 
z
" style="fill:#90ed7d;"/>
   </g>
   <g id="patch_173">
    <path clip-path="url(#p1db2c00545)" d="M 795.21718 406.804211 
L 809.82562 406.804211 
L 809.82562 424.311579 
L 795.21718 424.311579 
z
" style="fill:#90ed7d;"/>
   </g>
   <g id="patch_174">
    <path clip-path="url(#p1db2c00545)" d="M 805.52902 428.688421 
L 809.7475 428.688421 
L 809.7475 446.195789 
L 805.52902 446.195789 
z
" style="fill:#90ed7d;"/>
   </g>
   <g id="patch_175">
    <path clip-path="url(#p1db2c00545)" d="M 793.96726 450.572632 
L 809.7475 450.572632 
L 809.7475 468.08 
L 793.96726 468.08 
z
" style="fill:#90ed7d;"/>
   </g>
   <g id="patch_176">
    <path clip-path="url(#p1db2c00545)" d="M 785.06158 472.456842 
L 809.7475 472.456842 
L 809.7475 489.964211 
L 785.06158 489.964211 
z
" style="fill:#90ed7d;"/>
   </g>
   <g id="patch_177">
    <path clip-path="url(#p1db2c00545)" d="M 781.78054 494.341053 
L 809.7475 494.341053 
L 809.7475 511.848421 
L 781.78054 511.848421 
z
" style="fill:#90ed7d;"/>
   </g>
   <g id="patch_178">
    <path clip-path="url(#p1db2c00545)" d="M 779.90566 516.225263 
L 809.7475 516.225263 
L 809.7475 533.732632 
L 779.90566 533.732632 
z
" style="fill:#90ed7d;"/>
   </g>
   <g id="patch_179">
    <path clip-path="url(#p1db2c00545)" d="M 797.48266 538.109474 
L 809.7475 538.109474 
L 809.7475 555.616842 
L 797.48266 555.616842 
z
" style="fill:#90ed7d;"/>
   </g>
   <g id="patch_180">
    <path clip-path="url(#p1db2c00545)" d="M 790.52998 559.993684 
L 809.7475 559.993684 
L 809.7475 577.501053 
L 790.52998 577.501053 
z
" style="fill:#90ed7d;"/>
   </g>
   <g id="patch_181">
    <path clip-path="url(#p1db2c00545)" d="M 803.1073 581.877895 
L 809.82562 581.877895 
L 809.82562 599.385263 
L 803.1073 599.385263 
z
" style="fill:#90ed7d;"/>
   </g>
   <g id="patch_182">
    <path clip-path="url(#p1db2c00545)" d="M 788.2645 603.762105 
L 809.7475 603.762105 
L 809.7475 621.269474 
L 788.2645 621.269474 
z
" style="fill:#90ed7d;"/>
   </g>
   <g id="patch_183">
    <path clip-path="url(#p1db2c00545)" d="M 788.42074 625.646316 
L 809.7475 625.646316 
L 809.7475 643.153684 
L 788.42074 643.153684 
z
" style="fill:#90ed7d;"/>
   </g>
   <g id="patch_184">
    <path clip-path="url(#p1db2c00545)" d="M 795.99838 647.530526 
L 809.7475 647.530526 
L 809.7475 665.037895 
L 795.99838 665.037895 
z
" style="fill:#90ed7d;"/>
   </g>
   <g id="patch_185">
    <path clip-path="url(#p1db2c00545)" d="M 784.82722 669.414737 
L 809.7475 669.414737 
L 809.7475 686.922105 
L 784.82722 686.922105 
z
" style="fill:#90ed7d;"/>
   </g>
   <g id="patch_186">
    <path clip-path="url(#p1db2c00545)" d="M 800.60746 691.298947 
L 809.66938 691.298947 
L 809.66938 708.806316 
L 800.60746 708.806316 
z
" style="fill:#90ed7d;"/>
   </g>
   <g id="patch_187">
    <path clip-path="url(#p1db2c00545)" d="M 772.01554 713.183158 
L 809.7475 713.183158 
L 809.7475 730.690526 
L 772.01554 730.690526 
z
" style="fill:#90ed7d;"/>
   </g>
   <g id="patch_188">
    <path clip-path="url(#p1db2c00545)" d="M 804.43534 735.067368 
L 809.82562 735.067368 
L 809.82562 752.574737 
L 804.43534 752.574737 
z
" style="fill:#90ed7d;"/>
   </g>
   <g id="patch_189">
    <path clip-path="url(#p1db2c00545)" d="M 778.4995 756.951579 
L 809.7475 756.951579 
L 809.7475 774.458947 
L 778.4995 774.458947 
z
" style="fill:#90ed7d;"/>
   </g>
   <g id="patch_190">
    <path clip-path="url(#p1db2c00545)" d="M 792.01426 778.835789 
L 809.82562 778.835789 
L 809.82562 796.343158 
L 792.01426 796.343158 
z
" style="fill:#90ed7d;"/>
   </g>
   <g id="patch_191">
    <path clip-path="url(#p1db2c00545)" d="M 793.65478 800.72 
L 809.7475 800.72 
L 809.7475 818.227368 
L 793.65478 818.227368 
z
" style="fill:#90ed7d;"/>
   </g>
   <g id="patch_192">
    <path clip-path="url(#p1db2c00545)" d="M 779.12446 822.604211 
L 809.82562 822.604211 
L 809.82562 840.111579 
L 779.12446 840.111579 
z
" style="fill:#90ed7d;"/>
   </g>
   <g id="patch_193">
    <path clip-path="url(#p1db2c00545)" d="M 802.48234 844.488421 
L 809.7475 844.488421 
L 809.7475 861.995789 
L 802.48234 861.995789 
z
" style="fill:#90ed7d;"/>
   </g>
   <g id="patch_194">
    <path clip-path="url(#p1db2c00545)" d="M 783.88978 866.372632 
L 809.7475 866.372632 
L 809.7475 883.88 
L 783.88978 883.88 
z
" style="fill:#90ed7d;"/>
   </g>
   <g id="patch_195">
    <path clip-path="url(#p1db2c00545)" d="M 792.1705 888.256842 
L 809.7475 888.256842 
L 809.7475 905.764211 
L 792.1705 905.764211 
z
" style="fill:#90ed7d;"/>
   </g>
   <g id="patch_196">
    <path clip-path="url(#p1db2c00545)" d="M 775.06222 910.141053 
L 809.7475 910.141053 
L 809.7475 927.648421 
L 775.06222 927.648421 
z
" style="fill:#90ed7d;"/>
   </g>
   <g id="patch_197">
    <path clip-path="url(#p1db2c00545)" d="M 806.54458 932.025263 
L 809.7475 932.025263 
L 809.7475 949.532632 
L 806.54458 949.532632 
z
" style="fill:#90ed7d;"/>
   </g>
   <g id="patch_198">
    <path clip-path="url(#p1db2c00545)" d="M 794.59222 953.909474 
L 809.7475 953.909474 
L 809.7475 971.416842 
L 794.59222 971.416842 
z
" style="fill:#90ed7d;"/>
   </g>
   <g id="patch_199">
    <path clip-path="url(#p1db2c00545)" d="M 767.71894 975.793684 
L 809.66938 975.793684 
L 809.66938 993.301053 
L 767.71894 993.301053 
z
" style="fill:#90ed7d;"/>
   </g>
   <g id="patch_200">
    <path clip-path="url(#p1db2c00545)" d="M 759.28198 997.677895 
L 809.7475 997.677895 
L 809.7475 1015.185263 
L 759.28198 1015.185263 
z
" style="fill:#90ed7d;"/>
   </g>
   <g id="patch_201">
    <path clip-path="url(#p1db2c00545)" d="M 794.82658 1019.562105 
L 809.7475 1019.562105 
L 809.7475 1037.069474 
L 794.82658 1037.069474 
z
" style="fill:#90ed7d;"/>
   </g>
   <g id="patch_202">
    <path clip-path="url(#p1db2c00545)" d="M 779.04634 1041.446316 
L 809.7475 1041.446316 
L 809.7475 1058.953684 
L 779.04634 1058.953684 
z
" style="fill:#90ed7d;"/>
   </g>
   <g id="patch_203">
    <path clip-path="url(#p1db2c00545)" d="M 798.4201 1063.330526 
L 809.7475 1063.330526 
L 809.7475 1080.837895 
L 798.4201 1080.837895 
z
" style="fill:#90ed7d;"/>
   </g>
   <g id="patch_204">
    <path clip-path="url(#p1db2c00545)" d="M 762.40678 1085.214737 
L 809.82562 1085.214737 
L 809.82562 1102.722105 
L 762.40678 1102.722105 
z
" style="fill:#90ed7d;"/>
   </g>
   <g id="patch_205">
    <path clip-path="url(#p1db2c00545)" d="M 794.5141 1107.098947 
L 809.7475 1107.098947 
L 809.7475 1124.606316 
L 794.5141 1124.606316 
z
" style="fill:#90ed7d;"/>
   </g>
   <g id="patch_206">
    <path clip-path="url(#p1db2c00545)" d="M 804.59158 1128.983158 
L 809.7475 1128.983158 
L 809.7475 1146.490526 
L 804.59158 1146.490526 
z
" style="fill:#90ed7d;"/>
   </g>
   <g id="patch_207">
    <path clip-path="url(#p1db2c00545)" d="M 782.17114 1150.867368 
L 809.82562 1150.867368 
L 809.82562 1168.374737 
L 782.17114 1168.374737 
z
" style="fill:#90ed7d;"/>
   </g>
   <g id="patch_208">
    <path clip-path="url(#p1db2c00545)" d="M 797.09206 1172.751579 
L 809.82562 1172.751579 
L 809.82562 1190.258947 
L 797.09206 1190.258947 
z
" style="fill:#90ed7d;"/>
   </g>
   <g id="patch_209">
    <path clip-path="url(#p1db2c00545)" d="M 778.34326 1194.635789 
L 809.7475 1194.635789 
L 809.7475 1212.143158 
L 778.34326 1212.143158 
z
" style="fill:#90ed7d;"/>
   </g>
   <g id="patch_210">
    <path clip-path="url(#p1db2c00545)" d="M 791.07682 1216.52 
L 809.7475 1216.52 
L 809.7475 1234.027368 
L 791.07682 1234.027368 
z
" style="fill:#90ed7d;"/>
   </g>
   <g id="patch_211">
    <path clip-path="url(#p1db2c00545)" d="M 801.62302 1238.404211 
L 809.7475 1238.404211 
L 809.7475 1255.911579 
L 801.62302 1255.911579 
z
" style="fill:#90ed7d;"/>
   </g>
   <g id="patch_212">
    <path clip-path="url(#p1db2c00545)" d="M 788.96758 1260.288421 
L 809.7475 1260.288421 
L 809.7475 1277.795789 
L 788.96758 1277.795789 
z
" style="fill:#90ed7d;"/>
   </g>
   <g id="patch_213">
    <path clip-path="url(#p1db2c00545)" d="M 775.14034 1282.172632 
L 809.7475 1282.172632 
L 809.7475 1299.68 
L 775.14034 1299.68 
z
" style="fill:#90ed7d;"/>
   </g>
   <g id="patch_214">
    <path clip-path="url(#p1db2c00545)" d="M 800.84182 1304.056842 
L 809.7475 1304.056842 
L 809.7475 1321.564211 
L 800.84182 1321.564211 
z
" style="fill:#90ed7d;"/>
   </g>
   <g id="patch_215">
    <path clip-path="url(#p1db2c00545)" d="M 778.42138 1325.941053 
L 809.82562 1325.941053 
L 809.82562 1343.448421 
L 778.42138 1343.448421 
z
" style="fill:#90ed7d;"/>
   </g>
   <g id="patch_216">
    <path clip-path="url(#p1db2c00545)" d="M 779.74942 1347.825263 
L 809.82562 1347.825263 
L 809.82562 1365.332632 
L 779.74942 1365.332632 
z
" style="fill:#90ed7d;"/>
   </g>
   <g id="patch_217">
    <path clip-path="url(#p1db2c00545)" d="M 798.57634 1369.709474 
L 809.7475 1369.709474 
L 809.7475 1387.216842 
L 798.57634 1387.216842 
z
" style="fill:#90ed7d;"/>
   </g>
   <g id="patch_218">
    <path clip-path="url(#p1db2c00545)" d="M 807.16954 1391.593684 
L 809.7475 1391.593684 
L 809.7475 1409.101053 
L 807.16954 1409.101053 
z
" style="fill:#90ed7d;"/>
   </g>
   <g id="patch_219">
    <path clip-path="url(#p1db2c00545)" d="M 805.91962 1413.477895 
L 809.7475 1413.477895 
L 809.7475 1430.985263 
L 805.91962 1430.985263 
z
" style="fill:#90ed7d;"/>
   </g>
   <g id="patch_220">
    <path clip-path="url(#p1db2c00545)" d="M 807.87262 1435.362105 
L 809.7475 1435.362105 
L 809.7475 1452.869474 
L 807.87262 1452.869474 
z
" style="fill:#90ed7d;"/>
   </g>
   <g id="patch_221">
    <path clip-path="url(#p1db2c00545)" d="M 791.3893 1457.246316 
L 809.7475 1457.246316 
L 809.7475 1474.753684 
L 791.3893 1474.753684 
z
" style="fill:#90ed7d;"/>
   </g>
   <g id="patch_222">
    <path clip-path="url(#p1db2c00545)" d="M 782.32738 1479.130526 
L 809.82562 1479.130526 
L 809.82562 1496.637895 
L 782.32738 1496.637895 
z
" style="fill:#90ed7d;"/>
   </g>
   <g id="patch_223">
    <path clip-path="url(#p1db2c00545)" d="M 789.98314 1501.014737 
L 809.66938 1501.014737 
L 809.66938 1518.522105 
L 789.98314 1518.522105 
z
" style="fill:#90ed7d;"/>
   </g>
   <g id="patch_224">
    <path clip-path="url(#p1db2c00545)" d="M 802.01362 1522.898947 
L 809.66938 1522.898947 
L 809.66938 1540.406316 
L 802.01362 1540.406316 
z
" style="fill:#90ed7d;"/>
   </g>
   <g id="patch_225">
    <path clip-path="url(#p1db2c00545)" d="M 780.21814 1544.783158 
L 809.7475 1544.783158 
L 809.7475 1562.290526 
L 780.21814 1562.290526 
z
" style="fill:#90ed7d;"/>
   </g>
   <g id="patch_226">
    <path clip-path="url(#p1db2c00545)" d="M 785.37406 1566.667368 
L 809.7475 1566.667368 
L 809.7475 1584.174737 
L 785.37406 1584.174737 
z
" style="fill:#90ed7d;"/>
   </g>
   <g id="patch_227">
    <path clip-path="url(#p1db2c00545)" d="M 786.3115 1588.551579 
L 809.66938 1588.551579 
L 809.66938 1606.058947 
L 786.3115 1606.058947 
z
" style="fill:#90ed7d;"/>
   </g>
   <g id="patch_228">
    <path clip-path="url(#p1db2c00545)" d="M 801.31054 1610.435789 
L 809.7475 1610.435789 
L 809.7475 1627.943158 
L 801.31054 1627.943158 
z
" style="fill:#90ed7d;"/>
   </g>
   <g id="patch_229">
    <path clip-path="url(#p1db2c00545)" d="M 802.48234 1632.32 
L 809.66938 1632.32 
L 809.66938 1649.827368 
L 802.48234 1649.827368 
z
" style="fill:#90ed7d;"/>
   </g>
   <g id="patch_230">
    <path clip-path="url(#p1db2c00545)" d="M 802.09174 1654.204211 
L 809.7475 1654.204211 
L 809.7475 1671.711579 
L 802.09174 1671.711579 
z
" style="fill:#90ed7d;"/>
   </g>
   <g id="text_84">
    <!-- RSeQC: Infer experiment -->
    <defs>
     <path d="M 44.390625 34.1875 
Q 47.5625 33.109375 50.5625 29.59375 
Q 53.5625 26.078125 56.59375 19.921875 
L 66.609375 0 
L 56 0 
L 46.6875 18.703125 
Q 43.0625 26.03125 39.671875 28.421875 
Q 36.28125 30.8125 30.421875 30.8125 
L 19.671875 30.8125 
L 19.671875 0 
L 9.8125 0 
L 9.8125 72.90625 
L 32.078125 72.90625 
Q 44.578125 72.90625 50.734375 67.671875 
Q 56.890625 62.453125 56.890625 51.90625 
Q 56.890625 45.015625 53.6875 40.46875 
Q 50.484375 35.9375 44.390625 34.1875 
z
M 19.671875 64.796875 
L 19.671875 38.921875 
L 32.078125 38.921875 
Q 39.203125 38.921875 42.84375 42.21875 
Q 46.484375 45.515625 46.484375 51.90625 
Q 46.484375 58.296875 42.84375 61.546875 
Q 39.203125 64.796875 32.078125 64.796875 
z
" id="DejaVuSans-82"/>
     <path d="M 53.515625 70.515625 
L 53.515625 60.890625 
Q 47.90625 63.578125 42.921875 64.890625 
Q 37.9375 66.21875 33.296875 66.21875 
Q 25.25 66.21875 20.875 63.09375 
Q 16.5 59.96875 16.5 54.203125 
Q 16.5 49.359375 19.40625 46.890625 
Q 22.3125 44.4375 30.421875 42.921875 
L 36.375 41.703125 
Q 47.40625 39.59375 52.65625 34.296875 
Q 57.90625 29 57.90625 20.125 
Q 57.90625 9.515625 50.796875 4.046875 
Q 43.703125 -1.421875 29.984375 -1.421875 
Q 24.8125 -1.421875 18.96875 -0.25 
Q 13.140625 0.921875 6.890625 3.21875 
L 6.890625 13.375 
Q 12.890625 10.015625 18.65625 8.296875 
Q 24.421875 6.59375 29.984375 6.59375 
Q 38.421875 6.59375 43.015625 9.90625 
Q 47.609375 13.234375 47.609375 19.390625 
Q 47.609375 24.75 44.3125 27.78125 
Q 41.015625 30.8125 33.5 32.328125 
L 27.484375 33.5 
Q 16.453125 35.6875 11.515625 40.375 
Q 6.59375 45.0625 6.59375 53.421875 
Q 6.59375 63.09375 13.40625 68.65625 
Q 20.21875 74.21875 32.171875 74.21875 
Q 37.3125 74.21875 42.625 73.28125 
Q 47.953125 72.359375 53.515625 70.515625 
z
" id="DejaVuSans-83"/>
     <path d="M 56.203125 29.59375 
L 56.203125 25.203125 
L 14.890625 25.203125 
Q 15.484375 15.921875 20.484375 11.0625 
Q 25.484375 6.203125 34.421875 6.203125 
Q 39.59375 6.203125 44.453125 7.46875 
Q 49.3125 8.734375 54.109375 11.28125 
L 54.109375 2.78125 
Q 49.265625 0.734375 44.1875 -0.34375 
Q 39.109375 -1.421875 33.890625 -1.421875 
Q 20.796875 -1.421875 13.15625 6.1875 
Q 5.515625 13.8125 5.515625 26.8125 
Q 5.515625 40.234375 12.765625 48.109375 
Q 20.015625 56 32.328125 56 
Q 43.359375 56 49.78125 48.890625 
Q 56.203125 41.796875 56.203125 29.59375 
z
M 47.21875 32.234375 
Q 47.125 39.59375 43.09375 43.984375 
Q 39.0625 48.390625 32.421875 48.390625 
Q 24.90625 48.390625 20.390625 44.140625 
Q 15.875 39.890625 15.1875 32.171875 
z
" id="DejaVuSans-101"/>
     <path d="M 39.40625 66.21875 
Q 28.65625 66.21875 22.328125 58.203125 
Q 16.015625 50.203125 16.015625 36.375 
Q 16.015625 22.609375 22.328125 14.59375 
Q 28.65625 6.59375 39.40625 6.59375 
Q 50.140625 6.59375 56.421875 14.59375 
Q 62.703125 22.609375 62.703125 36.375 
Q 62.703125 50.203125 56.421875 58.203125 
Q 50.140625 66.21875 39.40625 66.21875 
z
M 53.21875 1.3125 
L 66.21875 -12.890625 
L 54.296875 -12.890625 
L 43.5 -1.21875 
Q 41.890625 -1.3125 41.03125 -1.359375 
Q 40.1875 -1.421875 39.40625 -1.421875 
Q 24.03125 -1.421875 14.8125 8.859375 
Q 5.609375 19.140625 5.609375 36.375 
Q 5.609375 53.65625 14.8125 63.9375 
Q 24.03125 74.21875 39.40625 74.21875 
Q 54.734375 74.21875 63.90625 63.9375 
Q 73.09375 53.65625 73.09375 36.375 
Q 73.09375 23.6875 67.984375 14.640625 
Q 62.890625 5.609375 53.21875 1.3125 
z
" id="DejaVuSans-81"/>
     <path d="M 64.40625 67.28125 
L 64.40625 56.890625 
Q 59.421875 61.53125 53.78125 63.8125 
Q 48.140625 66.109375 41.796875 66.109375 
Q 29.296875 66.109375 22.65625 58.46875 
Q 16.015625 50.828125 16.015625 36.375 
Q 16.015625 21.96875 22.65625 14.328125 
Q 29.296875 6.6875 41.796875 6.6875 
Q 48.140625 6.6875 53.78125 8.984375 
Q 59.421875 11.28125 64.40625 15.921875 
L 64.40625 5.609375 
Q 59.234375 2.09375 53.4375 0.328125 
Q 47.65625 -1.421875 41.21875 -1.421875 
Q 24.65625 -1.421875 15.125 8.703125 
Q 5.609375 18.84375 5.609375 36.375 
Q 5.609375 53.953125 15.125 64.078125 
Q 24.65625 74.21875 41.21875 74.21875 
Q 47.75 74.21875 53.53125 72.484375 
Q 59.328125 70.75 64.40625 67.28125 
z
" id="DejaVuSans-67"/>
     <path d="M 11.71875 12.40625 
L 22.015625 12.40625 
L 22.015625 0 
L 11.71875 0 
z
M 11.71875 51.703125 
L 22.015625 51.703125 
L 22.015625 39.3125 
L 11.71875 39.3125 
z
" id="DejaVuSans-58"/>
     <path d="M 9.8125 72.90625 
L 19.671875 72.90625 
L 19.671875 0 
L 9.8125 0 
z
" id="DejaVuSans-73"/>
     <path d="M 54.890625 33.015625 
L 54.890625 0 
L 45.90625 0 
L 45.90625 32.71875 
Q 45.90625 40.484375 42.875 44.328125 
Q 39.84375 48.1875 33.796875 48.1875 
Q 26.515625 48.1875 22.3125 43.546875 
Q 18.109375 38.921875 18.109375 30.90625 
L 18.109375 0 
L 9.078125 0 
L 9.078125 54.6875 
L 18.109375 54.6875 
L 18.109375 46.1875 
Q 21.34375 51.125 25.703125 53.5625 
Q 30.078125 56 35.796875 56 
Q 45.21875 56 50.046875 50.171875 
Q 54.890625 44.34375 54.890625 33.015625 
z
" id="DejaVuSans-110"/>
     <path d="M 37.109375 75.984375 
L 37.109375 68.5 
L 28.515625 68.5 
Q 23.6875 68.5 21.796875 66.546875 
Q 19.921875 64.59375 19.921875 59.515625 
L 19.921875 54.6875 
L 34.71875 54.6875 
L 34.71875 47.703125 
L 19.921875 47.703125 
L 19.921875 0 
L 10.890625 0 
L 10.890625 47.703125 
L 2.296875 47.703125 
L 2.296875 54.6875 
L 10.890625 54.6875 
L 10.890625 58.5 
Q 10.890625 67.625 15.140625 71.796875 
Q 19.390625 75.984375 28.609375 75.984375 
z
" id="DejaVuSans-102"/>
     <path d="M 41.109375 46.296875 
Q 39.59375 47.171875 37.8125 47.578125 
Q 36.03125 48 33.890625 48 
Q 26.265625 48 22.1875 43.046875 
Q 18.109375 38.09375 18.109375 28.8125 
L 18.109375 0 
L 9.078125 0 
L 9.078125 54.6875 
L 18.109375 54.6875 
L 18.109375 46.1875 
Q 20.953125 51.171875 25.484375 53.578125 
Q 30.03125 56 36.53125 56 
Q 37.453125 56 38.578125 55.875 
Q 39.703125 55.765625 41.0625 55.515625 
z
" id="DejaVuSans-114"/>
     <path d="M 54.890625 54.6875 
L 35.109375 28.078125 
L 55.90625 0 
L 45.3125 0 
L 29.390625 21.484375 
L 13.484375 0 
L 2.875 0 
L 24.125 28.609375 
L 4.6875 54.6875 
L 15.28125 54.6875 
L 29.78125 35.203125 
L 44.28125 54.6875 
z
" id="DejaVuSans-120"/>
     <path d="M 18.109375 8.203125 
L 18.109375 -20.796875 
L 9.078125 -20.796875 
L 9.078125 54.6875 
L 18.109375 54.6875 
L 18.109375 46.390625 
Q 20.953125 51.265625 25.265625 53.625 
Q 29.59375 56 35.59375 56 
Q 45.5625 56 51.78125 48.09375 
Q 58.015625 40.1875 58.015625 27.296875 
Q 58.015625 14.40625 51.78125 6.484375 
Q 45.5625 -1.421875 35.59375 -1.421875 
Q 29.59375 -1.421875 25.265625 0.953125 
Q 20.953125 3.328125 18.109375 8.203125 
z
M 48.6875 27.296875 
Q 48.6875 37.203125 44.609375 42.84375 
Q 40.53125 48.484375 33.40625 48.484375 
Q 26.265625 48.484375 22.1875 42.84375 
Q 18.109375 37.203125 18.109375 27.296875 
Q 18.109375 17.390625 22.1875 11.75 
Q 26.265625 6.109375 33.40625 6.109375 
Q 40.53125 6.109375 44.609375 11.75 
Q 48.6875 17.390625 48.6875 27.296875 
z
" id="DejaVuSans-112"/>
     <path d="M 9.421875 54.6875 
L 18.40625 54.6875 
L 18.40625 0 
L 9.421875 0 
z
M 9.421875 75.984375 
L 18.40625 75.984375 
L 18.40625 64.59375 
L 9.421875 64.59375 
z
" id="DejaVuSans-105"/>
     <path d="M 52 44.1875 
Q 55.375 50.25 60.0625 53.125 
Q 64.75 56 71.09375 56 
Q 79.640625 56 84.28125 50.015625 
Q 88.921875 44.046875 88.921875 33.015625 
L 88.921875 0 
L 79.890625 0 
L 79.890625 32.71875 
Q 79.890625 40.578125 77.09375 44.375 
Q 74.3125 48.1875 68.609375 48.1875 
Q 61.625 48.1875 57.5625 43.546875 
Q 53.515625 38.921875 53.515625 30.90625 
L 53.515625 0 
L 44.484375 0 
L 44.484375 32.71875 
Q 44.484375 40.625 41.703125 44.40625 
Q 38.921875 48.1875 33.109375 48.1875 
Q 26.21875 48.1875 22.15625 43.53125 
Q 18.109375 38.875 18.109375 30.90625 
L 18.109375 0 
L 9.078125 0 
L 9.078125 54.6875 
L 18.109375 54.6875 
L 18.109375 46.1875 
Q 21.1875 51.21875 25.484375 53.609375 
Q 29.78125 56 35.6875 56 
Q 41.65625 56 45.828125 52.96875 
Q 50 49.953125 52 44.1875 
z
" id="DejaVuSans-109"/>
     <path d="M 18.3125 70.21875 
L 18.3125 54.6875 
L 36.8125 54.6875 
L 36.8125 47.703125 
L 18.3125 47.703125 
L 18.3125 18.015625 
Q 18.3125 11.328125 20.140625 9.421875 
Q 21.96875 7.515625 27.59375 7.515625 
L 36.8125 7.515625 
L 36.8125 0 
L 27.59375 0 
Q 17.1875 0 13.234375 3.875 
Q 9.28125 7.765625 9.28125 18.015625 
L 9.28125 47.703125 
L 2.6875 47.703125 
L 2.6875 54.6875 
L 9.28125 54.6875 
L 9.28125 70.21875 
z
" id="DejaVuSans-116"/>
    </defs>
    <g transform="translate(319.37625 -17.02)scale(0.16 -0.16)">
     <use xlink:href="#DejaVuSans-82"/>
     <use x="69.482422" xlink:href="#DejaVuSans-83"/>
     <use x="132.958984" xlink:href="#DejaVuSans-101"/>
     <use x="194.482422" xlink:href="#DejaVuSans-81"/>
     <use x="273.193359" xlink:href="#DejaVuSans-67"/>
     <use x="343.017578" xlink:href="#DejaVuSans-58"/>
     <use x="376.708984" xlink:href="#DejaVuSans-32"/>
     <use x="408.496094" xlink:href="#DejaVuSans-73"/>
     <use x="437.988281" xlink:href="#DejaVuSans-110"/>
     <use x="501.367188" xlink:href="#DejaVuSans-102"/>
     <use x="536.572266" xlink:href="#DejaVuSans-101"/>
     <use x="598.095703" xlink:href="#DejaVuSans-114"/>
     <use x="639.208984" xlink:href="#DejaVuSans-32"/>
     <use x="670.996094" xlink:href="#DejaVuSans-101"/>
     <use x="732.503906" xlink:href="#DejaVuSans-120"/>
     <use x="791.683594" xlink:href="#DejaVuSans-112"/>
     <use x="855.160156" xlink:href="#DejaVuSans-101"/>
     <use x="916.683594" xlink:href="#DejaVuSans-114"/>
     <use x="957.796875" xlink:href="#DejaVuSans-105"/>
     <use x="985.580078" xlink:href="#DejaVuSans-109"/>
     <use x="1082.992188" xlink:href="#DejaVuSans-101"/>
     <use x="1144.515625" xlink:href="#DejaVuSans-110"/>
     <use x="1207.894531" xlink:href="#DejaVuSans-116"/>
    </g>
   </g>
   <g id="legend_1">
    <g id="patch_231">
     <path d="M 35.7475 1748.19625 
L 51.7475 1748.19625 
L 51.7475 1742.59625 
L 35.7475 1742.59625 
z
" style="fill:#7cb5ec;"/>
    </g>
    <g id="text_85">
     <!-- Sense -->
     <g transform="translate(58.1475 1748.19625)scale(0.08 -0.08)">
      <use xlink:href="#DejaVuSans-83"/>
      <use x="63.476562" xlink:href="#DejaVuSans-101"/>
      <use x="125" xlink:href="#DejaVuSans-110"/>
      <use x="188.378906" xlink:href="#DejaVuSans-115"/>
      <use x="240.478516" xlink:href="#DejaVuSans-101"/>
     </g>
    </g>
    <g id="patch_232">
     <path d="M 371.773125 1748.19625 
L 387.773125 1748.19625 
L 387.773125 1742.59625 
L 371.773125 1742.59625 
z
" style="fill:#434348;"/>
    </g>
    <g id="text_86">
     <!-- Antisense -->
     <defs>
      <path d="M 34.1875 63.1875 
L 20.796875 26.90625 
L 47.609375 26.90625 
z
M 28.609375 72.90625 
L 39.796875 72.90625 
L 67.578125 0 
L 57.328125 0 
L 50.6875 18.703125 
L 17.828125 18.703125 
L 11.1875 0 
L 0.78125 0 
z
" id="DejaVuSans-65"/>
     </defs>
     <g transform="translate(394.173125 1748.19625)scale(0.08 -0.08)">
      <use xlink:href="#DejaVuSans-65"/>
      <use x="68.408203" xlink:href="#DejaVuSans-110"/>
      <use x="131.787109" xlink:href="#DejaVuSans-116"/>
      <use x="170.996094" xlink:href="#DejaVuSans-105"/>
      <use x="198.779297" xlink:href="#DejaVuSans-115"/>
      <use x="250.878906" xlink:href="#DejaVuSans-101"/>
      <use x="312.402344" xlink:href="#DejaVuSans-110"/>
      <use x="375.78125" xlink:href="#DejaVuSans-115"/>
      <use x="427.880859" xlink:href="#DejaVuSans-101"/>
     </g>
    </g>
    <g id="patch_233">
     <path d="M 722.78875 1748.19625 
L 738.78875 1748.19625 
L 738.78875 1742.59625 
L 722.78875 1742.59625 
z
" style="fill:#90ed7d;"/>
    </g>
    <g id="text_87">
     <!-- Undetermined -->
     <defs>
      <path d="M 8.6875 72.90625 
L 18.609375 72.90625 
L 18.609375 28.609375 
Q 18.609375 16.890625 22.84375 11.734375 
Q 27.09375 6.59375 36.625 6.59375 
Q 46.09375 6.59375 50.34375 11.734375 
Q 54.59375 16.890625 54.59375 28.609375 
L 54.59375 72.90625 
L 64.5 72.90625 
L 64.5 27.390625 
Q 64.5 13.140625 57.4375 5.859375 
Q 50.390625 -1.421875 36.625 -1.421875 
Q 22.796875 -1.421875 15.734375 5.859375 
Q 8.6875 13.140625 8.6875 27.390625 
z
" id="DejaVuSans-85"/>
      <path d="M 45.40625 46.390625 
L 45.40625 75.984375 
L 54.390625 75.984375 
L 54.390625 0 
L 45.40625 0 
L 45.40625 8.203125 
Q 42.578125 3.328125 38.25 0.953125 
Q 33.9375 -1.421875 27.875 -1.421875 
Q 17.96875 -1.421875 11.734375 6.484375 
Q 5.515625 14.40625 5.515625 27.296875 
Q 5.515625 40.1875 11.734375 48.09375 
Q 17.96875 56 27.875 56 
Q 33.9375 56 38.25 53.625 
Q 42.578125 51.265625 45.40625 46.390625 
z
M 14.796875 27.296875 
Q 14.796875 17.390625 18.875 11.75 
Q 22.953125 6.109375 30.078125 6.109375 
Q 37.203125 6.109375 41.296875 11.75 
Q 45.40625 17.390625 45.40625 27.296875 
Q 45.40625 37.203125 41.296875 42.84375 
Q 37.203125 48.484375 30.078125 48.484375 
Q 22.953125 48.484375 18.875 42.84375 
Q 14.796875 37.203125 14.796875 27.296875 
z
" id="DejaVuSans-100"/>
     </defs>
     <g transform="translate(745.18875 1748.19625)scale(0.08 -0.08)">
      <use xlink:href="#DejaVuSans-85"/>
      <use x="73.193359" xlink:href="#DejaVuSans-110"/>
      <use x="136.572266" xlink:href="#DejaVuSans-100"/>
      <use x="200.048828" xlink:href="#DejaVuSans-101"/>
      <use x="261.572266" xlink:href="#DejaVuSans-116"/>
      <use x="300.78125" xlink:href="#DejaVuSans-101"/>
      <use x="362.304688" xlink:href="#DejaVuSans-114"/>
      <use x="403.402344" xlink:href="#DejaVuSans-109"/>
      <use x="500.814453" xlink:href="#DejaVuSans-105"/>
      <use x="528.597656" xlink:href="#DejaVuSans-110"/>
      <use x="591.976562" xlink:href="#DejaVuSans-101"/>
      <use x="653.5" xlink:href="#DejaVuSans-100"/>
     </g>
    </g>
   </g>
  </g>
 </g>
 <defs>
  <clipPath id="p1db2c00545">
   <rect height="1663.2" width="781.2" x="28.5475" y="10.7"/>
  </clipPath>
 </defs>
</svg>
