<?xml version="1.0" encoding="utf-8" standalone="no"?>
<!DOCTYPE svg PUBLIC "-//W3C//DTD SVG 1.1//EN"
  "http://www.w3.org/Graphics/SVG/1.1/DTD/svg11.dtd">
<!-- Created with matplotlib (https://matplotlib.org/) -->
<svg height="388.844525pt" version="1.1" viewBox="0 0 1001.258125 388.844525" width="1001.258125pt" xmlns="http://www.w3.org/2000/svg" xmlns:xlink="http://www.w3.org/1999/xlink">
 <defs>
  <style type="text/css">
*{stroke-linecap:butt;stroke-linejoin:round;}
  </style>
 </defs>
 <g id="figure_1">
  <g id="patch_1">
   <path d="M 0 388.844525 
L 1001.258125 388.844525 
L 1001.258125 0 
L 0 0 
z
" style="fill:#ffffff;"/>
  </g>
  <g id="axes_1">
   <g id="patch_2">
    <path d="M 43.148125 353.2239 
L 990.558125 353.2239 
L 990.558125 35.2559 
L 43.148125 35.2559 
z
" style="fill:#ffffff;"/>
   </g>
   <g id="matplotlib.axis_1">
    <g id="xtick_1">
     <g id="text_1">
      <!-- 0 -->
      <defs>
       <path d="M 31.78125 66.40625 
Q 24.171875 66.40625 20.328125 58.90625 
Q 16.5 51.421875 16.5 36.375 
Q 16.5 21.390625 20.328125 13.890625 
Q 24.171875 6.390625 31.78125 6.390625 
Q 39.453125 6.390625 43.28125 13.890625 
Q 47.125 21.390625 47.125 36.375 
Q 47.125 51.421875 43.28125 58.90625 
Q 39.453125 66.40625 31.78125 66.40625 
z
M 31.78125 74.21875 
Q 44.046875 74.21875 50.515625 64.515625 
Q 56.984375 54.828125 56.984375 36.375 
Q 56.984375 17.96875 50.515625 8.265625 
Q 44.046875 -1.421875 31.78125 -1.421875 
Q 19.53125 -1.421875 13.0625 8.265625 
Q 6.59375 17.96875 6.59375 36.375 
Q 6.59375 54.828125 13.0625 64.515625 
Q 19.53125 74.21875 31.78125 74.21875 
z
" id="DejaVuSans-48"/>
      </defs>
      <g transform="translate(83.667004 366.30265)scale(0.08 -0.08)">
       <use xlink:href="#DejaVuSans-48"/>
      </g>
     </g>
    </g>
    <g id="xtick_2">
     <g id="text_2">
      <!-- 50000 -->
      <defs>
       <path d="M 10.796875 72.90625 
L 49.515625 72.90625 
L 49.515625 64.59375 
L 19.828125 64.59375 
L 19.828125 46.734375 
Q 21.96875 47.46875 24.109375 47.828125 
Q 26.265625 48.1875 28.421875 48.1875 
Q 40.625 48.1875 47.75 41.5 
Q 54.890625 34.8125 54.890625 23.390625 
Q 54.890625 11.625 47.5625 5.09375 
Q 40.234375 -1.421875 26.90625 -1.421875 
Q 22.3125 -1.421875 17.546875 -0.640625 
Q 12.796875 0.140625 7.71875 1.703125 
L 7.71875 11.625 
Q 12.109375 9.234375 16.796875 8.0625 
Q 21.484375 6.890625 26.703125 6.890625 
Q 35.15625 6.890625 40.078125 11.328125 
Q 45.015625 15.765625 45.015625 23.390625 
Q 45.015625 31 40.078125 35.4375 
Q 35.15625 39.890625 26.703125 39.890625 
Q 22.75 39.890625 18.8125 39.015625 
Q 14.890625 38.140625 10.796875 36.28125 
z
" id="DejaVuSans-53"/>
      </defs>
      <g transform="translate(245.809661 366.30265)scale(0.08 -0.08)">
       <use xlink:href="#DejaVuSans-53"/>
       <use x="63.623047" xlink:href="#DejaVuSans-48"/>
       <use x="127.246094" xlink:href="#DejaVuSans-48"/>
       <use x="190.869141" xlink:href="#DejaVuSans-48"/>
       <use x="254.492188" xlink:href="#DejaVuSans-48"/>
      </g>
     </g>
    </g>
    <g id="xtick_3">
     <g id="text_3">
      <!-- 100000 -->
      <defs>
       <path d="M 12.40625 8.296875 
L 28.515625 8.296875 
L 28.515625 63.921875 
L 10.984375 60.40625 
L 10.984375 69.390625 
L 28.421875 72.90625 
L 38.28125 72.90625 
L 38.28125 8.296875 
L 54.390625 8.296875 
L 54.390625 0 
L 12.40625 0 
z
" id="DejaVuSans-49"/>
      </defs>
      <g transform="translate(415.587318 366.30265)scale(0.08 -0.08)">
       <use xlink:href="#DejaVuSans-49"/>
       <use x="63.623047" xlink:href="#DejaVuSans-48"/>
       <use x="127.246094" xlink:href="#DejaVuSans-48"/>
       <use x="190.869141" xlink:href="#DejaVuSans-48"/>
       <use x="254.492188" xlink:href="#DejaVuSans-48"/>
       <use x="318.115234" xlink:href="#DejaVuSans-48"/>
      </g>
     </g>
    </g>
    <g id="xtick_4">
     <g id="text_4">
      <!-- 150000 -->
      <g transform="translate(587.909975 366.30265)scale(0.08 -0.08)">
       <use xlink:href="#DejaVuSans-49"/>
       <use x="63.623047" xlink:href="#DejaVuSans-53"/>
       <use x="127.246094" xlink:href="#DejaVuSans-48"/>
       <use x="190.869141" xlink:href="#DejaVuSans-48"/>
       <use x="254.492188" xlink:href="#DejaVuSans-48"/>
       <use x="318.115234" xlink:href="#DejaVuSans-48"/>
      </g>
     </g>
    </g>
    <g id="xtick_5">
     <g id="text_5">
      <!-- 200000 -->
      <defs>
       <path d="M 19.1875 8.296875 
L 53.609375 8.296875 
L 53.609375 0 
L 7.328125 0 
L 7.328125 8.296875 
Q 12.9375 14.109375 22.625 23.890625 
Q 32.328125 33.6875 34.8125 36.53125 
Q 39.546875 41.84375 41.421875 45.53125 
Q 43.3125 49.21875 43.3125 52.78125 
Q 43.3125 58.59375 39.234375 62.25 
Q 35.15625 65.921875 28.609375 65.921875 
Q 23.96875 65.921875 18.8125 64.3125 
Q 13.671875 62.703125 7.8125 59.421875 
L 7.8125 69.390625 
Q 13.765625 71.78125 18.9375 73 
Q 24.125 74.21875 28.421875 74.21875 
Q 39.75 74.21875 46.484375 68.546875 
Q 53.21875 62.890625 53.21875 53.421875 
Q 53.21875 48.921875 51.53125 44.890625 
Q 49.859375 40.875 45.40625 35.40625 
Q 44.1875 33.984375 37.640625 27.21875 
Q 31.109375 20.453125 19.1875 8.296875 
z
" id="DejaVuSans-50"/>
      </defs>
      <g transform="translate(760.232631 366.30265)scale(0.08 -0.08)">
       <use xlink:href="#DejaVuSans-50"/>
       <use x="63.623047" xlink:href="#DejaVuSans-48"/>
       <use x="127.246094" xlink:href="#DejaVuSans-48"/>
       <use x="190.869141" xlink:href="#DejaVuSans-48"/>
       <use x="254.492188" xlink:href="#DejaVuSans-48"/>
       <use x="318.115234" xlink:href="#DejaVuSans-48"/>
      </g>
     </g>
    </g>
    <g id="xtick_6">
     <g id="text_6">
      <!-- 250000 -->
      <g transform="translate(932.555288 366.30265)scale(0.08 -0.08)">
       <use xlink:href="#DejaVuSans-50"/>
       <use x="63.623047" xlink:href="#DejaVuSans-53"/>
       <use x="127.246094" xlink:href="#DejaVuSans-48"/>
       <use x="190.869141" xlink:href="#DejaVuSans-48"/>
       <use x="254.492188" xlink:href="#DejaVuSans-48"/>
       <use x="318.115234" xlink:href="#DejaVuSans-48"/>
      </g>
     </g>
    </g>
    <g id="text_7">
     <!-- expression (reads/kbp) -->
     <defs>
      <path d="M 56.203125 29.59375 
L 56.203125 25.203125 
L 14.890625 25.203125 
Q 15.484375 15.921875 20.484375 11.0625 
Q 25.484375 6.203125 34.421875 6.203125 
Q 39.59375 6.203125 44.453125 7.46875 
Q 49.3125 8.734375 54.109375 11.28125 
L 54.109375 2.78125 
Q 49.265625 0.734375 44.1875 -0.34375 
Q 39.109375 -1.421875 33.890625 -1.421875 
Q 20.796875 -1.421875 13.15625 6.1875 
Q 5.515625 13.8125 5.515625 26.8125 
Q 5.515625 40.234375 12.765625 48.109375 
Q 20.015625 56 32.328125 56 
Q 43.359375 56 49.78125 48.890625 
Q 56.203125 41.796875 56.203125 29.59375 
z
M 47.21875 32.234375 
Q 47.125 39.59375 43.09375 43.984375 
Q 39.0625 48.390625 32.421875 48.390625 
Q 24.90625 48.390625 20.390625 44.140625 
Q 15.875 39.890625 15.1875 32.171875 
z
" id="DejaVuSans-101"/>
      <path d="M 54.890625 54.6875 
L 35.109375 28.078125 
L 55.90625 0 
L 45.3125 0 
L 29.390625 21.484375 
L 13.484375 0 
L 2.875 0 
L 24.125 28.609375 
L 4.6875 54.6875 
L 15.28125 54.6875 
L 29.78125 35.203125 
L 44.28125 54.6875 
z
" id="DejaVuSans-120"/>
      <path d="M 18.109375 8.203125 
L 18.109375 -20.796875 
L 9.078125 -20.796875 
L 9.078125 54.6875 
L 18.109375 54.6875 
L 18.109375 46.390625 
Q 20.953125 51.265625 25.265625 53.625 
Q 29.59375 56 35.59375 56 
Q 45.5625 56 51.78125 48.09375 
Q 58.015625 40.1875 58.015625 27.296875 
Q 58.015625 14.40625 51.78125 6.484375 
Q 45.5625 -1.421875 35.59375 -1.421875 
Q 29.59375 -1.421875 25.265625 0.953125 
Q 20.953125 3.328125 18.109375 8.203125 
z
M 48.6875 27.296875 
Q 48.6875 37.203125 44.609375 42.84375 
Q 40.53125 48.484375 33.40625 48.484375 
Q 26.265625 48.484375 22.1875 42.84375 
Q 18.109375 37.203125 18.109375 27.296875 
Q 18.109375 17.390625 22.1875 11.75 
Q 26.265625 6.109375 33.40625 6.109375 
Q 40.53125 6.109375 44.609375 11.75 
Q 48.6875 17.390625 48.6875 27.296875 
z
" id="DejaVuSans-112"/>
      <path d="M 41.109375 46.296875 
Q 39.59375 47.171875 37.8125 47.578125 
Q 36.03125 48 33.890625 48 
Q 26.265625 48 22.1875 43.046875 
Q 18.109375 38.09375 18.109375 28.8125 
L 18.109375 0 
L 9.078125 0 
L 9.078125 54.6875 
L 18.109375 54.6875 
L 18.109375 46.1875 
Q 20.953125 51.171875 25.484375 53.578125 
Q 30.03125 56 36.53125 56 
Q 37.453125 56 38.578125 55.875 
Q 39.703125 55.765625 41.0625 55.515625 
z
" id="DejaVuSans-114"/>
      <path d="M 44.28125 53.078125 
L 44.28125 44.578125 
Q 40.484375 46.53125 36.375 47.5 
Q 32.28125 48.484375 27.875 48.484375 
Q 21.1875 48.484375 17.84375 46.4375 
Q 14.5 44.390625 14.5 40.28125 
Q 14.5 37.15625 16.890625 35.375 
Q 19.28125 33.59375 26.515625 31.984375 
L 29.59375 31.296875 
Q 39.15625 29.25 43.1875 25.515625 
Q 47.21875 21.78125 47.21875 15.09375 
Q 47.21875 7.46875 41.1875 3.015625 
Q 35.15625 -1.421875 24.609375 -1.421875 
Q 20.21875 -1.421875 15.453125 -0.5625 
Q 10.6875 0.296875 5.421875 2 
L 5.421875 11.28125 
Q 10.40625 8.6875 15.234375 7.390625 
Q 20.0625 6.109375 24.8125 6.109375 
Q 31.15625 6.109375 34.5625 8.28125 
Q 37.984375 10.453125 37.984375 14.40625 
Q 37.984375 18.0625 35.515625 20.015625 
Q 33.0625 21.96875 24.703125 23.78125 
L 21.578125 24.515625 
Q 13.234375 26.265625 9.515625 29.90625 
Q 5.8125 33.546875 5.8125 39.890625 
Q 5.8125 47.609375 11.28125 51.796875 
Q 16.75 56 26.8125 56 
Q 31.78125 56 36.171875 55.265625 
Q 40.578125 54.546875 44.28125 53.078125 
z
" id="DejaVuSans-115"/>
      <path d="M 9.421875 54.6875 
L 18.40625 54.6875 
L 18.40625 0 
L 9.421875 0 
z
M 9.421875 75.984375 
L 18.40625 75.984375 
L 18.40625 64.59375 
L 9.421875 64.59375 
z
" id="DejaVuSans-105"/>
      <path d="M 30.609375 48.390625 
Q 23.390625 48.390625 19.1875 42.75 
Q 14.984375 37.109375 14.984375 27.296875 
Q 14.984375 17.484375 19.15625 11.84375 
Q 23.34375 6.203125 30.609375 6.203125 
Q 37.796875 6.203125 41.984375 11.859375 
Q 46.1875 17.53125 46.1875 27.296875 
Q 46.1875 37.015625 41.984375 42.703125 
Q 37.796875 48.390625 30.609375 48.390625 
z
M 30.609375 56 
Q 42.328125 56 49.015625 48.375 
Q 55.71875 40.765625 55.71875 27.296875 
Q 55.71875 13.875 49.015625 6.21875 
Q 42.328125 -1.421875 30.609375 -1.421875 
Q 18.84375 -1.421875 12.171875 6.21875 
Q 5.515625 13.875 5.515625 27.296875 
Q 5.515625 40.765625 12.171875 48.375 
Q 18.84375 56 30.609375 56 
z
" id="DejaVuSans-111"/>
      <path d="M 54.890625 33.015625 
L 54.890625 0 
L 45.90625 0 
L 45.90625 32.71875 
Q 45.90625 40.484375 42.875 44.328125 
Q 39.84375 48.1875 33.796875 48.1875 
Q 26.515625 48.1875 22.3125 43.546875 
Q 18.109375 38.921875 18.109375 30.90625 
L 18.109375 0 
L 9.078125 0 
L 9.078125 54.6875 
L 18.109375 54.6875 
L 18.109375 46.1875 
Q 21.34375 51.125 25.703125 53.5625 
Q 30.078125 56 35.796875 56 
Q 45.21875 56 50.046875 50.171875 
Q 54.890625 44.34375 54.890625 33.015625 
z
" id="DejaVuSans-110"/>
      <path id="DejaVuSans-32"/>
      <path d="M 31 75.875 
Q 24.46875 64.65625 21.28125 53.65625 
Q 18.109375 42.671875 18.109375 31.390625 
Q 18.109375 20.125 21.3125 9.0625 
Q 24.515625 -2 31 -13.1875 
L 23.1875 -13.1875 
Q 15.875 -1.703125 12.234375 9.375 
Q 8.59375 20.453125 8.59375 31.390625 
Q 8.59375 42.28125 12.203125 53.3125 
Q 15.828125 64.359375 23.1875 75.875 
z
" id="DejaVuSans-40"/>
      <path d="M 34.28125 27.484375 
Q 23.390625 27.484375 19.1875 25 
Q 14.984375 22.515625 14.984375 16.5 
Q 14.984375 11.71875 18.140625 8.90625 
Q 21.296875 6.109375 26.703125 6.109375 
Q 34.1875 6.109375 38.703125 11.40625 
Q 43.21875 16.703125 43.21875 25.484375 
L 43.21875 27.484375 
z
M 52.203125 31.203125 
L 52.203125 0 
L 43.21875 0 
L 43.21875 8.296875 
Q 40.140625 3.328125 35.546875 0.953125 
Q 30.953125 -1.421875 24.3125 -1.421875 
Q 15.921875 -1.421875 10.953125 3.296875 
Q 6 8.015625 6 15.921875 
Q 6 25.140625 12.171875 29.828125 
Q 18.359375 34.515625 30.609375 34.515625 
L 43.21875 34.515625 
L 43.21875 35.40625 
Q 43.21875 41.609375 39.140625 45 
Q 35.0625 48.390625 27.6875 48.390625 
Q 23 48.390625 18.546875 47.265625 
Q 14.109375 46.140625 10.015625 43.890625 
L 10.015625 52.203125 
Q 14.9375 54.109375 19.578125 55.046875 
Q 24.21875 56 28.609375 56 
Q 40.484375 56 46.34375 49.84375 
Q 52.203125 43.703125 52.203125 31.203125 
z
" id="DejaVuSans-97"/>
      <path d="M 45.40625 46.390625 
L 45.40625 75.984375 
L 54.390625 75.984375 
L 54.390625 0 
L 45.40625 0 
L 45.40625 8.203125 
Q 42.578125 3.328125 38.25 0.953125 
Q 33.9375 -1.421875 27.875 -1.421875 
Q 17.96875 -1.421875 11.734375 6.484375 
Q 5.515625 14.40625 5.515625 27.296875 
Q 5.515625 40.1875 11.734375 48.09375 
Q 17.96875 56 27.875 56 
Q 33.9375 56 38.25 53.625 
Q 42.578125 51.265625 45.40625 46.390625 
z
M 14.796875 27.296875 
Q 14.796875 17.390625 18.875 11.75 
Q 22.953125 6.109375 30.078125 6.109375 
Q 37.203125 6.109375 41.296875 11.75 
Q 45.40625 17.390625 45.40625 27.296875 
Q 45.40625 37.203125 41.296875 42.84375 
Q 37.203125 48.484375 30.078125 48.484375 
Q 22.953125 48.484375 18.875 42.84375 
Q 14.796875 37.203125 14.796875 27.296875 
z
" id="DejaVuSans-100"/>
      <path d="M 25.390625 72.90625 
L 33.6875 72.90625 
L 8.296875 -9.28125 
L 0 -9.28125 
z
" id="DejaVuSans-47"/>
      <path d="M 9.078125 75.984375 
L 18.109375 75.984375 
L 18.109375 31.109375 
L 44.921875 54.6875 
L 56.390625 54.6875 
L 27.390625 29.109375 
L 57.625 0 
L 45.90625 0 
L 18.109375 26.703125 
L 18.109375 0 
L 9.078125 0 
z
" id="DejaVuSans-107"/>
      <path d="M 48.6875 27.296875 
Q 48.6875 37.203125 44.609375 42.84375 
Q 40.53125 48.484375 33.40625 48.484375 
Q 26.265625 48.484375 22.1875 42.84375 
Q 18.109375 37.203125 18.109375 27.296875 
Q 18.109375 17.390625 22.1875 11.75 
Q 26.265625 6.109375 33.40625 6.109375 
Q 40.53125 6.109375 44.609375 11.75 
Q 48.6875 17.390625 48.6875 27.296875 
z
M 18.109375 46.390625 
Q 20.953125 51.265625 25.265625 53.625 
Q 29.59375 56 35.59375 56 
Q 45.5625 56 51.78125 48.09375 
Q 58.015625 40.1875 58.015625 27.296875 
Q 58.015625 14.40625 51.78125 6.484375 
Q 45.5625 -1.421875 35.59375 -1.421875 
Q 29.59375 -1.421875 25.265625 0.953125 
Q 20.953125 3.328125 18.109375 8.203125 
L 18.109375 0 
L 9.078125 0 
L 9.078125 75.984375 
L 18.109375 75.984375 
z
" id="DejaVuSans-98"/>
      <path d="M 8.015625 75.875 
L 15.828125 75.875 
Q 23.140625 64.359375 26.78125 53.3125 
Q 30.421875 42.28125 30.421875 31.390625 
Q 30.421875 20.453125 26.78125 9.375 
Q 23.140625 -1.703125 15.828125 -13.1875 
L 8.015625 -13.1875 
Q 14.5 -2 17.703125 9.0625 
Q 20.90625 20.125 20.90625 31.390625 
Q 20.90625 42.671875 17.703125 53.65625 
Q 14.5 64.65625 8.015625 75.875 
z
" id="DejaVuSans-41"/>
     </defs>
     <g transform="translate(459.294531 379.564837)scale(0.1 -0.1)">
      <use xlink:href="#DejaVuSans-101"/>
      <use x="61.507812" xlink:href="#DejaVuSans-120"/>
      <use x="120.6875" xlink:href="#DejaVuSans-112"/>
      <use x="184.164062" xlink:href="#DejaVuSans-114"/>
      <use x="225.246094" xlink:href="#DejaVuSans-101"/>
      <use x="286.769531" xlink:href="#DejaVuSans-115"/>
      <use x="338.869141" xlink:href="#DejaVuSans-115"/>
      <use x="390.96875" xlink:href="#DejaVuSans-105"/>
      <use x="418.751953" xlink:href="#DejaVuSans-111"/>
      <use x="479.933594" xlink:href="#DejaVuSans-110"/>
      <use x="543.3125" xlink:href="#DejaVuSans-32"/>
      <use x="575.099609" xlink:href="#DejaVuSans-40"/>
      <use x="614.113281" xlink:href="#DejaVuSans-114"/>
      <use x="655.195312" xlink:href="#DejaVuSans-101"/>
      <use x="716.71875" xlink:href="#DejaVuSans-97"/>
      <use x="777.998047" xlink:href="#DejaVuSans-100"/>
      <use x="841.474609" xlink:href="#DejaVuSans-115"/>
      <use x="893.574219" xlink:href="#DejaVuSans-47"/>
      <use x="927.265625" xlink:href="#DejaVuSans-107"/>
      <use x="985.175781" xlink:href="#DejaVuSans-98"/>
      <use x="1048.652344" xlink:href="#DejaVuSans-112"/>
      <use x="1112.128906" xlink:href="#DejaVuSans-41"/>
     </g>
    </g>
   </g>
   <g id="matplotlib.axis_2">
    <g id="ytick_1">
     <g id="line2d_1">
      <path clip-path="url(#pefe8d2ffba)" d="M 43.148125 353.2239 
L 990.558125 353.2239 
" style="fill:none;stroke:#dedede;stroke-linecap:square;"/>
     </g>
     <g id="text_8">
      <!-- 0 -->
      <g transform="translate(31.058125 356.263275)scale(0.08 -0.08)">
       <use xlink:href="#DejaVuSans-48"/>
      </g>
     </g>
    </g>
    <g id="ytick_2">
     <g id="line2d_2">
      <path clip-path="url(#pefe8d2ffba)" d="M 43.148125 289.6303 
L 990.558125 289.6303 
" style="fill:none;stroke:#dedede;stroke-linecap:square;"/>
     </g>
     <g id="text_9">
      <!-- 20 -->
      <g transform="translate(25.968125 292.669675)scale(0.08 -0.08)">
       <use xlink:href="#DejaVuSans-50"/>
       <use x="63.623047" xlink:href="#DejaVuSans-48"/>
      </g>
     </g>
    </g>
    <g id="ytick_3">
     <g id="line2d_3">
      <path clip-path="url(#pefe8d2ffba)" d="M 43.148125 226.0367 
L 990.558125 226.0367 
" style="fill:none;stroke:#dedede;stroke-linecap:square;"/>
     </g>
     <g id="text_10">
      <!-- 40 -->
      <defs>
       <path d="M 37.796875 64.3125 
L 12.890625 25.390625 
L 37.796875 25.390625 
z
M 35.203125 72.90625 
L 47.609375 72.90625 
L 47.609375 25.390625 
L 58.015625 25.390625 
L 58.015625 17.1875 
L 47.609375 17.1875 
L 47.609375 0 
L 37.796875 0 
L 37.796875 17.1875 
L 4.890625 17.1875 
L 4.890625 26.703125 
z
" id="DejaVuSans-52"/>
      </defs>
      <g transform="translate(25.968125 229.076075)scale(0.08 -0.08)">
       <use xlink:href="#DejaVuSans-52"/>
       <use x="63.623047" xlink:href="#DejaVuSans-48"/>
      </g>
     </g>
    </g>
    <g id="ytick_4">
     <g id="line2d_4">
      <path clip-path="url(#pefe8d2ffba)" d="M 43.148125 162.4431 
L 990.558125 162.4431 
" style="fill:none;stroke:#dedede;stroke-linecap:square;"/>
     </g>
     <g id="text_11">
      <!-- 60 -->
      <defs>
       <path d="M 33.015625 40.375 
Q 26.375 40.375 22.484375 35.828125 
Q 18.609375 31.296875 18.609375 23.390625 
Q 18.609375 15.53125 22.484375 10.953125 
Q 26.375 6.390625 33.015625 6.390625 
Q 39.65625 6.390625 43.53125 10.953125 
Q 47.40625 15.53125 47.40625 23.390625 
Q 47.40625 31.296875 43.53125 35.828125 
Q 39.65625 40.375 33.015625 40.375 
z
M 52.59375 71.296875 
L 52.59375 62.3125 
Q 48.875 64.0625 45.09375 64.984375 
Q 41.3125 65.921875 37.59375 65.921875 
Q 27.828125 65.921875 22.671875 59.328125 
Q 17.53125 52.734375 16.796875 39.40625 
Q 19.671875 43.65625 24.015625 45.921875 
Q 28.375 48.1875 33.59375 48.1875 
Q 44.578125 48.1875 50.953125 41.515625 
Q 57.328125 34.859375 57.328125 23.390625 
Q 57.328125 12.15625 50.6875 5.359375 
Q 44.046875 -1.421875 33.015625 -1.421875 
Q 20.359375 -1.421875 13.671875 8.265625 
Q 6.984375 17.96875 6.984375 36.375 
Q 6.984375 53.65625 15.1875 63.9375 
Q 23.390625 74.21875 37.203125 74.21875 
Q 40.921875 74.21875 44.703125 73.484375 
Q 48.484375 72.75 52.59375 71.296875 
z
" id="DejaVuSans-54"/>
      </defs>
      <g transform="translate(25.968125 165.482475)scale(0.08 -0.08)">
       <use xlink:href="#DejaVuSans-54"/>
       <use x="63.623047" xlink:href="#DejaVuSans-48"/>
      </g>
     </g>
    </g>
    <g id="ytick_5">
     <g id="line2d_5">
      <path clip-path="url(#pefe8d2ffba)" d="M 43.148125 98.8495 
L 990.558125 98.8495 
" style="fill:none;stroke:#dedede;stroke-linecap:square;"/>
     </g>
     <g id="text_12">
      <!-- 80 -->
      <defs>
       <path d="M 31.78125 34.625 
Q 24.75 34.625 20.71875 30.859375 
Q 16.703125 27.09375 16.703125 20.515625 
Q 16.703125 13.921875 20.71875 10.15625 
Q 24.75 6.390625 31.78125 6.390625 
Q 38.8125 6.390625 42.859375 10.171875 
Q 46.921875 13.96875 46.921875 20.515625 
Q 46.921875 27.09375 42.890625 30.859375 
Q 38.875 34.625 31.78125 34.625 
z
M 21.921875 38.8125 
Q 15.578125 40.375 12.03125 44.71875 
Q 8.5 49.078125 8.5 55.328125 
Q 8.5 64.0625 14.71875 69.140625 
Q 20.953125 74.21875 31.78125 74.21875 
Q 42.671875 74.21875 48.875 69.140625 
Q 55.078125 64.0625 55.078125 55.328125 
Q 55.078125 49.078125 51.53125 44.71875 
Q 48 40.375 41.703125 38.8125 
Q 48.828125 37.15625 52.796875 32.3125 
Q 56.78125 27.484375 56.78125 20.515625 
Q 56.78125 9.90625 50.3125 4.234375 
Q 43.84375 -1.421875 31.78125 -1.421875 
Q 19.734375 -1.421875 13.25 4.234375 
Q 6.78125 9.90625 6.78125 20.515625 
Q 6.78125 27.484375 10.78125 32.3125 
Q 14.796875 37.15625 21.921875 38.8125 
z
M 18.3125 54.390625 
Q 18.3125 48.734375 21.84375 45.5625 
Q 25.390625 42.390625 31.78125 42.390625 
Q 38.140625 42.390625 41.71875 45.5625 
Q 45.3125 48.734375 45.3125 54.390625 
Q 45.3125 60.0625 41.71875 63.234375 
Q 38.140625 66.40625 31.78125 66.40625 
Q 25.390625 66.40625 21.84375 63.234375 
Q 18.3125 60.0625 18.3125 54.390625 
z
" id="DejaVuSans-56"/>
      </defs>
      <g transform="translate(25.968125 101.888875)scale(0.08 -0.08)">
       <use xlink:href="#DejaVuSans-56"/>
       <use x="63.623047" xlink:href="#DejaVuSans-48"/>
      </g>
     </g>
    </g>
    <g id="ytick_6">
     <g id="line2d_6">
      <path clip-path="url(#pefe8d2ffba)" d="M 43.148125 35.2559 
L 990.558125 35.2559 
" style="fill:none;stroke:#dedede;stroke-linecap:square;"/>
     </g>
     <g id="text_13">
      <!-- 100 -->
      <g transform="translate(20.878125 38.295275)scale(0.08 -0.08)">
       <use xlink:href="#DejaVuSans-49"/>
       <use x="63.623047" xlink:href="#DejaVuSans-48"/>
       <use x="127.246094" xlink:href="#DejaVuSans-48"/>
      </g>
     </g>
    </g>
    <g id="text_14">
     <!-- % duplicate reads -->
     <defs>
      <path d="M 72.703125 32.078125 
Q 68.453125 32.078125 66.03125 28.46875 
Q 63.625 24.859375 63.625 18.40625 
Q 63.625 12.0625 66.03125 8.421875 
Q 68.453125 4.78125 72.703125 4.78125 
Q 76.859375 4.78125 79.265625 8.421875 
Q 81.6875 12.0625 81.6875 18.40625 
Q 81.6875 24.8125 79.265625 28.4375 
Q 76.859375 32.078125 72.703125 32.078125 
z
M 72.703125 38.28125 
Q 80.421875 38.28125 84.953125 32.90625 
Q 89.5 27.546875 89.5 18.40625 
Q 89.5 9.28125 84.9375 3.921875 
Q 80.375 -1.421875 72.703125 -1.421875 
Q 64.890625 -1.421875 60.34375 3.921875 
Q 55.8125 9.28125 55.8125 18.40625 
Q 55.8125 27.59375 60.375 32.9375 
Q 64.9375 38.28125 72.703125 38.28125 
z
M 22.3125 68.015625 
Q 18.109375 68.015625 15.6875 64.375 
Q 13.28125 60.75 13.28125 54.390625 
Q 13.28125 47.953125 15.671875 44.328125 
Q 18.0625 40.71875 22.3125 40.71875 
Q 26.5625 40.71875 28.96875 44.328125 
Q 31.390625 47.953125 31.390625 54.390625 
Q 31.390625 60.6875 28.953125 64.34375 
Q 26.515625 68.015625 22.3125 68.015625 
z
M 66.40625 74.21875 
L 74.21875 74.21875 
L 28.609375 -1.421875 
L 20.796875 -1.421875 
z
M 22.3125 74.21875 
Q 30.03125 74.21875 34.609375 68.875 
Q 39.203125 63.53125 39.203125 54.390625 
Q 39.203125 45.171875 34.640625 39.84375 
Q 30.078125 34.515625 22.3125 34.515625 
Q 14.546875 34.515625 10.03125 39.859375 
Q 5.515625 45.21875 5.515625 54.390625 
Q 5.515625 63.484375 10.046875 68.84375 
Q 14.59375 74.21875 22.3125 74.21875 
z
" id="DejaVuSans-37"/>
      <path d="M 8.5 21.578125 
L 8.5 54.6875 
L 17.484375 54.6875 
L 17.484375 21.921875 
Q 17.484375 14.15625 20.5 10.265625 
Q 23.53125 6.390625 29.59375 6.390625 
Q 36.859375 6.390625 41.078125 11.03125 
Q 45.3125 15.671875 45.3125 23.6875 
L 45.3125 54.6875 
L 54.296875 54.6875 
L 54.296875 0 
L 45.3125 0 
L 45.3125 8.40625 
Q 42.046875 3.421875 37.71875 1 
Q 33.40625 -1.421875 27.6875 -1.421875 
Q 18.265625 -1.421875 13.375 4.4375 
Q 8.5 10.296875 8.5 21.578125 
z
M 31.109375 56 
z
" id="DejaVuSans-117"/>
      <path d="M 9.421875 75.984375 
L 18.40625 75.984375 
L 18.40625 0 
L 9.421875 0 
z
" id="DejaVuSans-108"/>
      <path d="M 48.78125 52.59375 
L 48.78125 44.1875 
Q 44.96875 46.296875 41.140625 47.34375 
Q 37.3125 48.390625 33.40625 48.390625 
Q 24.65625 48.390625 19.8125 42.84375 
Q 14.984375 37.3125 14.984375 27.296875 
Q 14.984375 17.28125 19.8125 11.734375 
Q 24.65625 6.203125 33.40625 6.203125 
Q 37.3125 6.203125 41.140625 7.25 
Q 44.96875 8.296875 48.78125 10.40625 
L 48.78125 2.09375 
Q 45.015625 0.34375 40.984375 -0.53125 
Q 36.96875 -1.421875 32.421875 -1.421875 
Q 20.0625 -1.421875 12.78125 6.34375 
Q 5.515625 14.109375 5.515625 27.296875 
Q 5.515625 40.671875 12.859375 48.328125 
Q 20.21875 56 33.015625 56 
Q 37.15625 56 41.109375 55.140625 
Q 45.0625 54.296875 48.78125 52.59375 
z
" id="DejaVuSans-99"/>
      <path d="M 18.3125 70.21875 
L 18.3125 54.6875 
L 36.8125 54.6875 
L 36.8125 47.703125 
L 18.3125 47.703125 
L 18.3125 18.015625 
Q 18.3125 11.328125 20.140625 9.421875 
Q 21.96875 7.515625 27.59375 7.515625 
L 36.8125 7.515625 
L 36.8125 0 
L 27.59375 0 
Q 17.1875 0 13.234375 3.875 
Q 9.28125 7.765625 9.28125 18.015625 
L 9.28125 47.703125 
L 2.6875 47.703125 
L 2.6875 54.6875 
L 9.28125 54.6875 
L 9.28125 70.21875 
z
" id="DejaVuSans-116"/>
     </defs>
     <g transform="translate(14.798438 239.287556)rotate(-90)scale(0.1 -0.1)">
      <use xlink:href="#DejaVuSans-37"/>
      <use x="95.019531" xlink:href="#DejaVuSans-32"/>
      <use x="126.806641" xlink:href="#DejaVuSans-100"/>
      <use x="190.283203" xlink:href="#DejaVuSans-117"/>
      <use x="253.662109" xlink:href="#DejaVuSans-112"/>
      <use x="317.138672" xlink:href="#DejaVuSans-108"/>
      <use x="344.921875" xlink:href="#DejaVuSans-105"/>
      <use x="372.705078" xlink:href="#DejaVuSans-99"/>
      <use x="427.685547" xlink:href="#DejaVuSans-97"/>
      <use x="488.964844" xlink:href="#DejaVuSans-116"/>
      <use x="528.173828" xlink:href="#DejaVuSans-101"/>
      <use x="589.697266" xlink:href="#DejaVuSans-32"/>
      <use x="621.484375" xlink:href="#DejaVuSans-114"/>
      <use x="662.566406" xlink:href="#DejaVuSans-101"/>
      <use x="724.089844" xlink:href="#DejaVuSans-97"/>
      <use x="785.369141" xlink:href="#DejaVuSans-100"/>
      <use x="848.845703" xlink:href="#DejaVuSans-115"/>
     </g>
    </g>
   </g>
   <g id="line2d_7">
    <path clip-path="url(#pefe8d2ffba)" d="M 86.212218 353.039765 
L 86.333762 349.705899 
L 86.662613 346.806876 
L 87.195589 344.06974 
L 87.93447 341.437129 
L 88.883371 338.880814 
L 90.04601 336.387488 
L 91.450505 333.909374 
L 93.086078 331.478199 
L 94.940091 329.11059 
L 97.025186 326.787538 
L 99.510986 324.35222 
L 102.451284 321.811683 
L 105.608864 319.386468 
L 109.069001 317.000882 
L 112.848735 314.646078 
L 116.424987 312.609611 
L 122.91685 309.28347 
L 126.716334 307.514676 
L 134.60258 304.170364 
L 143.740305 300.729373 
L 155.346897 296.86396 
L 208.358358 283.486926 
L 208.358358 283.486926 
" style="fill:none;stroke:#7cb5ec;stroke-linecap:square;"/>
   </g>
   <g id="line2d_8">
    <path clip-path="url(#pefe8d2ffba)" d="M 86.212218 352.936719 
L 86.332229 349.203289 
L 86.646431 346.402573 
L 87.149339 343.889136 
L 87.842501 341.54503 
L 88.73747 339.301179 
L 89.844699 337.12929 
L 91.178808 335.00743 
L 92.75303 332.925044 
L 94.528251 330.929869 
L 96.701787 328.829519 
L 99.182554 326.752047 
L 102.113729 324.608081 
L 105.054292 322.704514 
L 108.775722 320.559227 
L 113.545713 318.131022 
L 118.098251 316.067294 
L 125.390067 313.144675 
L 134.781464 309.887766 
L 161.575713 302.535652 
L 320.4436 278.945393 
L 320.4436 278.945393 
" style="fill:none;stroke:#434348;stroke-linecap:square;"/>
   </g>
   <g id="line2d_9">
    <path clip-path="url(#pefe8d2ffba)" d="M 86.212218 353.074534 
L 86.334605 349.977624 
L 86.670951 347.113651 
L 87.218009 344.35502 
L 87.975072 341.675396 
L 88.947041 339.050358 
L 90.132173 336.482796 
L 91.567075 333.908702 
L 93.195873 331.429876 
L 95.066464 328.96844 
L 97.253967 326.452052 
L 99.859561 323.816803 
L 102.593066 321.361433 
L 105.874461 318.725263 
L 109.52548 316.09538 
L 113.660895 313.412352 
L 118.126683 310.789769 
L 123.468217 307.946822 
L 126.491439 306.454187 
L 132.155289 303.845222 
L 139.838815 300.628202 
L 151.881662 296.162243 
L 183.040443 286.785702 
L 183.040443 286.785702 
" style="fill:none;stroke:#90ed7d;stroke-linecap:square;"/>
   </g>
   <g id="line2d_10">
    <path clip-path="url(#pefe8d2ffba)" d="M 86.212218 352.97664 
L 86.332785 349.370436 
L 86.651675 346.525154 
L 87.16574 343.920614 
L 87.872208 341.477486 
L 88.783829 339.123246 
L 89.90578 336.842082 
L 91.26857 334.584698 
L 92.875487 332.363349 
L 94.608432 330.31556 
L 96.841676 328.036595 
L 99.385412 325.785277 
L 102.377511 323.469276 
L 105.842532 321.111253 
L 110.337176 318.427871 
L 114.283881 316.332295 
L 117.985351 314.538537 
L 122.854855 312.380979 
L 128.033 310.290114 
L 136.927084 307.078673 
L 150.33283 302.906361 
L 191.565632 293.069641 
L 191.565632 293.069641 
" style="fill:none;stroke:#f7a35c;stroke-linecap:square;"/>
   </g>
   <g id="line2d_11">
    <path clip-path="url(#pefe8d2ffba)" d="M 86.212394 352.660575 
L 86.331732 348.682985 
L 86.632304 346.088569 
L 87.109884 343.867202 
L 87.764767 341.861285 
L 88.605019 339.990673 
L 89.658458 338.18719 
L 90.945133 336.431065 
L 92.442024 334.755042 
L 94.297374 333.021121 
L 96.479061 331.300017 
L 99.160526 329.499119 
L 101.8777 327.920061 
L 105.441715 326.114121 
L 108.705103 324.655061 
L 112.425632 323.162345 
L 116.678747 321.628479 
L 122.903966 319.635805 
L 129.532739 317.762963 
L 137.706359 315.717461 
L 184.806891 307.098482 
L 184.806891 307.098482 
" style="fill:none;stroke:#8085e9;stroke-linecap:square;"/>
   </g>
   <g id="line2d_12">
    <path clip-path="url(#pefe8d2ffba)" d="M 86.212241 353.04966 
L 86.335231 349.76856 
L 86.669205 346.807452 
L 87.211482 343.974186 
L 87.960838 341.23671 
L 88.911596 338.591425 
L 90.089914 335.967962 
L 91.487124 333.396769 
L 93.125958 330.844873 
L 94.982485 328.353903 
L 97.026737 325.952055 
L 99.581866 323.30845 
L 101.900546 321.16546 
L 105.257248 318.385537 
L 108.271391 316.140255 
L 110.833044 314.380154 
L 116.885194 310.642796 
L 119.775826 309.025605 
L 123.767141 306.936075 
L 129.793258 304.043199 
L 165.058918 291.04077 
L 165.058918 291.04077 
" style="fill:none;stroke:#f15c80;stroke-linecap:square;"/>
   </g>
   <g id="line2d_13">
    <path clip-path="url(#pefe8d2ffba)" d="M 86.212316 352.890645 
L 86.332668 349.416375 
L 86.645142 346.841743 
L 87.147001 344.535215 
L 87.83927 342.391097 
L 88.728916 340.352706 
L 89.827757 338.384813 
L 91.179865 336.426504 
L 92.815396 334.467236 
L 94.753163 332.513255 
L 96.825182 330.718147 
L 99.560172 328.668059 
L 102.623917 326.675356 
L 105.733009 324.88996 
L 108.952803 323.229906 
L 111.658427 321.952388 
L 115.204096 320.409361 
L 120.721023 318.244016 
L 125.632614 316.506494 
L 130.051852 315.065653 
L 147.76836 310.132886 
L 177.713783 303.702561 
L 177.713783 303.702561 
" style="fill:none;stroke:#e4d354;stroke-linecap:square;"/>
   </g>
   <g id="line2d_14">
    <path clip-path="url(#pefe8d2ffba)" d="M 86.21243 352.993197 
L 86.336201 349.863312 
L 86.669863 347.044318 
L 87.210387 344.360326 
L 87.959199 341.766199 
L 88.915131 339.250228 
L 90.093108 336.773269 
L 91.489076 334.348522 
L 93.144525 331.91828 
L 95.047057 329.517655 
L 97.168913 327.181044 
L 99.509239 324.902331 
L 102.477227 322.341219 
L 105.619659 319.927791 
L 109.676778 317.149886 
L 113.501617 314.797796 
L 118.041519 312.265906 
L 120.752151 310.864287 
L 125.539325 308.555053 
L 129.534404 306.76599 
L 138.03252 303.29746 
L 146.381332 300.24611 
L 146.381332 300.24611 
" style="fill:none;stroke:#2b908f;stroke-linecap:square;"/>
   </g>
   <g id="line2d_15">
    <path clip-path="url(#pefe8d2ffba)" d="M 86.212347 352.491893 
L 86.330533 347.829688 
L 86.624972 345.00975 
L 87.091188 342.651192 
L 87.730385 340.550884 
L 88.548471 338.617547 
L 89.577506 336.763997 
L 90.801065 335.016291 
L 92.286047 333.287586 
L 94.047567 331.585752 
L 96.020001 329.974486 
L 98.391914 328.31612 
L 101.289416 326.576901 
L 103.578037 325.36519 
L 106.322627 324.054562 
L 111.510576 321.893374 
L 116.249925 320.184194 
L 119.879173 319.003737 
L 126.015295 317.203896 
L 141.518196 313.426724 
L 168.615336 308.397991 
L 168.615336 308.397991 
" style="fill:none;stroke:#f45b5b;stroke-linecap:square;"/>
   </g>
   <g id="line2d_16">
    <path clip-path="url(#pefe8d2ffba)" d="M 86.212304 352.507973 
L 86.330984 347.077346 
L 86.629246 343.648843 
L 87.099164 340.75923 
L 87.739501 338.177189 
L 88.552506 335.800705 
L 89.514087 333.630652 
L 90.750178 331.403833 
L 92.207209 329.263623 
L 93.847692 327.249664 
L 95.698051 325.312897 
L 97.931479 323.301148 
L 100.673537 321.172844 
L 103.312855 319.38056 
L 107.001186 317.181648 
L 109.605395 315.793248 
L 113.227024 314.037433 
L 118.077449 311.936425 
L 132.335329 306.882886 
L 165.833909 298.496705 
L 165.833909 298.496705 
" style="fill:none;stroke:#91e8e1;stroke-linecap:square;"/>
   </g>
   <g id="line2d_17">
    <path clip-path="url(#pefe8d2ffba)" d="M 86.212353 353.033425 
L 86.336211 350.03799 
L 86.672417 347.292273 
L 87.21774 344.658529 
L 87.975725 342.093962 
L 88.951661 339.580034 
L 90.148885 337.111798 
L 91.563267 334.697271 
L 93.227612 332.289011 
L 95.181793 329.854998 
L 97.269967 327.57915 
L 99.835692 325.110579 
L 102.705653 322.662697 
L 106.178165 320.027541 
L 109.762767 317.59049 
L 114.377623 314.774306 
L 119.280992 312.087179 
L 124.136844 309.668229 
L 129.957066 307.021361 
L 138.697542 303.452036 
L 142.717088 301.94341 
L 154.561801 297.882447 
L 169.479787 293.405762 
L 215.854929 282.370512 
L 215.854929 282.370512 
" style="fill:none;stroke:#7cb5ec;stroke-linecap:square;"/>
   </g>
   <g id="line2d_18">
    <path clip-path="url(#pefe8d2ffba)" d="M 86.212347 352.985159 
L 86.334705 349.742338 
L 86.662098 346.970298 
L 87.191931 344.371576 
L 87.925379 341.885525 
L 88.870544 339.471077 
L 90.01738 337.14326 
L 91.382859 334.861776 
L 92.991735 332.59652 
L 94.864289 330.337248 
L 97.011794 328.087541 
L 99.482994 325.817183 
L 102.477206 323.394915 
L 105.931805 320.926792 
L 109.256275 318.799406 
L 112.084278 317.13993 
L 117.39907 314.314428 
L 124.229014 311.113789 
L 128.405344 309.341236 
L 135.067708 306.742329 
L 155.335538 300.082344 
L 228.809003 283.772081 
L 228.809003 283.772081 
" style="fill:none;stroke:#434348;stroke-linecap:square;"/>
   </g>
   <g id="line2d_19">
    <path clip-path="url(#pefe8d2ffba)" d="M 86.212389 351.773708 
L 86.330805 343.158721 
L 86.622695 338.081378 
L 87.078645 333.933259 
L 87.697163 330.304583 
L 88.481497 327.015577 
L 89.410963 324.044265 
L 90.530841 321.201473 
L 91.792175 318.582779 
L 93.290703 315.985356 
L 94.915638 313.593309 
L 96.74748 311.266298 
L 98.967537 308.821706 
L 101.194182 306.673298 
L 104.047842 304.248792 
L 107.130666 301.942204 
L 110.51148 299.695554 
L 114.420581 297.381217 
L 118.223128 295.358199 
L 122.760638 293.176856 
L 128.220725 290.818361 
L 135.125128 288.161433 
L 139.534355 286.617497 
L 147.036959 284.211064 
L 157.560087 281.210751 
L 196.191752 272.617955 
L 196.191752 272.617955 
" style="fill:none;stroke:#90ed7d;stroke-linecap:square;"/>
   </g>
   <g id="line2d_20">
    <path clip-path="url(#pefe8d2ffba)" d="M 86.212335 352.896997 
L 86.334097 348.60278 
L 86.657807 345.036747 
L 87.175044 341.763595 
L 87.886123 338.670535 
L 88.794457 335.705515 
L 89.90072 332.849053 
L 91.157139 330.18151 
L 92.719678 327.394235 
L 94.450913 324.757825 
L 96.448177 322.119968 
L 98.732663 319.478994 
L 101.263274 316.894907 
L 104.388637 314.069186 
L 107.587821 311.492103 
L 110.87097 309.102853 
L 114.637808 306.612867 
L 118.723427 304.154761 
L 126.075124 300.222089 
L 134.950596 296.101241 
L 145.972679 291.670495 
L 151.384522 289.708944 
L 164.469664 285.416006 
L 178.473275 281.376119 
L 197.24259 276.631444 
L 226.330147 270.373209 
L 308.250981 257.055402 
L 308.250981 257.055402 
" style="fill:none;stroke:#f7a35c;stroke-linecap:square;"/>
   </g>
   <g id="line2d_21">
    <path clip-path="url(#pefe8d2ffba)" d="M 86.212289 352.916862 
L 86.332295 349.118518 
L 86.649017 346.134835 
L 87.15629 343.429975 
L 87.85718 340.886146 
L 88.744453 338.483252 
L 89.842643 336.141416 
L 91.17142 333.834493 
L 92.680494 331.642882 
L 94.374214 329.537816 
L 96.521574 327.235286 
L 98.983853 324.946523 
L 101.702918 322.729695 
L 104.758867 320.523011 
L 109.116481 317.757641 
L 113.823808 315.139676 
L 118.454697 312.842846 
L 123.650426 310.518622 
L 129.97637 307.97018 
L 135.144766 306.071225 
L 144.444913 302.980465 
L 158.044281 299.035761 
L 178.998913 293.896596 
L 195.056132 290.506322 
L 227.680003 284.624909 
L 260.477592 279.668726 
L 431.516454 261.719368 
L 431.516454 261.719368 
" style="fill:none;stroke:#8085e9;stroke-linecap:square;"/>
   </g>
   <g id="line2d_22">
    <path clip-path="url(#pefe8d2ffba)" d="M 86.212216 352.620036 
L 86.32964 347.117951 
L 86.628033 343.604493 
L 87.101307 340.61735 
L 87.749764 337.931565 
L 88.573564 335.456702 
L 89.54264 333.205834 
L 90.76126 330.937347 
L 92.151856 328.810547 
L 93.711231 326.800941 
L 95.57527 324.748532 
L 97.7483 322.689033 
L 100.055722 320.781838 
L 102.498185 318.994027 
L 105.501761 317.040145 
L 108.647061 315.215043 
L 112.703862 313.115346 
L 119.331659 310.139149 
L 122.414516 308.901888 
L 128.035967 306.832151 
L 132.756995 305.247374 
L 141.280506 302.665914 
L 152.405288 299.713423 
L 159.436742 298.035896 
L 180.27096 293.696496 
L 214.693933 287.930613 
L 245.208638 283.758528 
L 283.160451 279.377588 
L 327.562029 275.041584 
L 379.780203 270.70509 
L 379.780203 270.70509 
" style="fill:none;stroke:#f15c80;stroke-linecap:square;"/>
   </g>
   <g id="line2d_23">
    <path clip-path="url(#pefe8d2ffba)" d="M 86.212289 352.993349 
L 86.33474 349.268114 
L 86.665237 345.986282 
L 87.198462 342.892541 
L 87.93248 339.931295 
L 88.865468 337.078394 
L 90.016037 334.274496 
L 91.363591 331.566564 
L 92.921251 328.919387 
L 94.835258 326.132776 
L 96.983143 323.424462 
L 99.022206 321.147397 
L 101.942745 318.251252 
L 104.920893 315.630295 
L 108.591253 312.74542 
L 111.766193 310.488752 
L 115.56256 308.020226 
L 120.063752 305.354167 
L 125.602026 302.382629 
L 135.05885 297.908396 
L 142.378073 294.842314 
L 148.633619 292.437051 
L 156.971387 289.484032 
L 170.656489 285.13896 
L 182.829742 281.687535 
L 215.103748 273.890964 
L 228.947186 270.999019 
L 271.459578 263.303545 
L 341.452615 253.268981 
L 341.452615 253.268981 
" style="fill:none;stroke:#e4d354;stroke-linecap:square;"/>
   </g>
   <g id="line2d_24">
    <path clip-path="url(#pefe8d2ffba)" d="M 86.212289 352.226312 
L 86.329402 345.777628 
L 86.620254 342.025708 
L 87.073618 338.96267 
L 87.697872 336.239953 
L 88.49001 333.769163 
L 89.446759 331.494541 
L 90.637945 329.254441 
L 92.046909 327.105878 
L 93.593023 325.142076 
L 95.199773 323.39493 
L 97.460332 321.286518 
L 99.960457 319.289197 
L 102.871211 317.276011 
L 106.901402 314.880364 
L 111.82398 312.386858 
L 117.711572 309.838888 
L 122.758511 307.927282 
L 127.899879 306.175997 
L 135.309456 303.921757 
L 147.834871 300.645413 
L 162.351132 297.440586 
L 178.553547 294.385197 
L 195.308222 291.641783 
L 271.966896 282.240581 
L 271.966896 282.240581 
" style="fill:none;stroke:#2b908f;stroke-linecap:square;"/>
   </g>
   <g id="line2d_25">
    <path clip-path="url(#pefe8d2ffba)" d="M 86.212289 352.745845 
L 86.330724 348.103684 
L 86.635591 344.844796 
L 87.121176 341.994551 
L 87.789714 339.378693 
L 88.644618 336.925473 
L 89.706492 334.562688 
L 90.9907 332.266033 
L 92.360963 330.227728 
L 93.931535 328.233345 
L 95.768645 326.21892 
L 97.99266 324.10288 
L 100.209035 322.248577 
L 102.758698 320.348519 
L 105.448882 318.550595 
L 109.208723 316.308729 
L 113.724653 313.931501 
L 116.640702 312.538896 
L 120.428079 310.864394 
L 125.516539 308.810535 
L 134.100936 305.740744 
L 144.397447 302.545201 
L 169.358811 296.238536 
L 185.437074 292.895062 
L 205.246206 289.297676 
L 245.865126 283.161757 
L 315.81143 274.99929 
L 315.81143 274.99929 
" style="fill:none;stroke:#f45b5b;stroke-linecap:square;"/>
   </g>
   <g id="line2d_26">
    <path clip-path="url(#pefe8d2ffba)" d="M 86.212332 352.67687 
L 86.330757 348.523574 
L 86.630814 345.821169 
L 87.104636 343.52181 
L 87.756261 341.438494 
L 88.587773 339.505543 
L 89.606582 337.678422 
L 90.852719 335.889815 
L 92.397392 334.076888 
L 94.116991 332.390128 
L 95.933379 330.861558 
L 98.420238 329.058652 
L 101.529724 327.131003 
L 105.129203 325.213258 
L 110.178415 322.913042 
L 112.127959 322.116253 
L 119.757922 319.353281 
L 125.53436 317.54652 
L 134.262232 315.147323 
L 139.896866 313.761145 
L 154.273489 310.649084 
L 175.421793 306.849731 
L 204.571244 302.583683 
L 245.750825 297.739216 
L 245.750825 297.739216 
" style="fill:none;stroke:#91e8e1;stroke-linecap:square;"/>
   </g>
   <g id="line2d_27">
    <path clip-path="url(#pefe8d2ffba)" d="M 86.212347 352.84969 
L 86.332617 349.135791 
L 86.644614 346.384775 
L 87.143151 343.93447 
L 87.828908 341.663046 
L 88.707948 339.509117 
L 89.787746 337.440369 
L 91.047478 335.478513 
L 92.608621 333.456799 
L 94.409534 331.486399 
L 95.99711 329.970532 
L 98.473673 327.897612 
L 101.123342 325.964843 
L 103.440584 324.453054 
L 106.320633 322.751984 
L 109.798239 320.90289 
L 114.971723 318.46582 
L 121.230558 315.888067 
L 124.456658 314.68159 
L 132.799374 311.857931 
L 140.380823 309.583415 
L 148.395785 307.410493 
L 159.010917 304.819376 
L 168.820835 302.655149 
L 178.987057 300.599706 
L 210.765727 295.083054 
L 331.875878 280.681344 
L 331.875878 280.681344 
" style="fill:none;stroke:#7cb5ec;stroke-linecap:square;"/>
   </g>
   <g id="line2d_28">
    <path clip-path="url(#pefe8d2ffba)" d="M 86.212265 352.862008 
L 86.331213 349.286919 
L 86.637517 346.796885 
L 87.126903 344.612244 
L 87.805255 342.593678 
L 88.685816 340.674683 
L 89.785896 338.819017 
L 91.135162 336.993177 
L 92.641707 335.305991 
L 94.401283 333.636144 
L 96.602439 331.851742 
L 99.301899 329.977476 
L 102.184071 328.242281 
L 105.027776 326.725448 
L 108.855806 324.910678 
L 113.739557 322.876051 
L 118.456122 321.133645 
L 123.572514 319.431707 
L 129.668244 317.602955 
L 135.781242 315.940564 
L 149.127566 312.757707 
L 165.113111 309.523281 
L 244.00951 298.25748 
L 244.00951 298.25748 
" style="fill:none;stroke:#434348;stroke-linecap:square;"/>
   </g>
   <g id="line2d_29">
    <path clip-path="url(#pefe8d2ffba)" d="M 86.212304 352.963799 
L 86.334617 349.057524 
L 86.661437 345.701382 
L 87.189812 342.550902 
L 87.919565 339.541846 
L 88.845104 336.661093 
L 89.970105 333.87495 
L 91.33551 331.096201 
L 92.900495 328.415575 
L 94.701048 325.769637 
L 96.687786 323.226138 
L 98.96624 320.656683 
L 101.446326 318.171137 
L 104.0434 315.831938 
L 107.386676 313.12494 
L 111.529183 310.134244 
L 114.731017 308.038089 
L 118.401377 305.820601 
L 123.650632 302.928603 
L 127.460066 300.999144 
L 134.120937 297.902147 
L 139.888866 295.454752 
L 149.557884 291.739502 
L 158.347767 288.699607 
L 166.923874 285.982396 
L 195.0561 278.346195 
L 213.489799 274.118949 
L 227.625947 271.184926 
L 251.624392 266.688693 
L 301.755749 258.754748 
L 411.247204 245.655828 
L 411.247204 245.655828 
" style="fill:none;stroke:#90ed7d;stroke-linecap:square;"/>
   </g>
   <g id="line2d_30">
    <path clip-path="url(#pefe8d2ffba)" d="M 86.212304 352.767138 
L 86.331801 348.288049 
L 86.639314 345.103105 
L 87.130906 342.296616 
L 87.8061 339.720393 
L 88.661382 337.318595 
L 89.709253 335.025501 
L 90.989865 332.764685 
L 92.487316 330.577782 
L 94.268805 328.385622 
L 96.283565 326.265151 
L 98.46762 324.266183 
L 101.078049 322.170372 
L 103.872899 320.187459 
L 107.078216 318.161981 
L 110.202295 316.384788 
L 114.850389 314.016609 
L 120.602494 311.432799 
L 127.095486 308.859971 
L 136.663056 305.554446 
L 144.245828 303.242603 
L 158.664565 299.393109 
L 170.9159 296.543793 
L 185.19116 293.587045 
L 202.283106 290.441718 
L 222.109217 287.20632 
L 272.996105 280.311614 
L 272.996105 280.311614 
" style="fill:none;stroke:#f7a35c;stroke-linecap:square;"/>
   </g>
   <g id="line2d_31">
    <path clip-path="url(#pefe8d2ffba)" d="M 86.212266 352.83672 
L 86.331481 348.733136 
L 86.640377 345.788629 
L 87.13257 343.1939 
L 87.804633 340.815976 
L 88.681426 338.53239 
L 89.749021 336.368906 
L 90.991933 334.32725 
L 92.555647 332.1992 
L 94.406742 330.084251 
L 96.266533 328.255692 
L 98.561795 326.285074 
L 101.460853 324.118561 
L 104.859778 321.906307 
L 108.638544 319.747311 
L 112.97326 317.557631 
L 118.970319 314.899558 
L 123.007193 313.295744 
L 127.278565 311.72753 
L 137.084512 308.519472 
L 142.58462 306.909176 
L 151.952354 304.408203 
L 170.675602 300.095505 
L 188.155494 296.66231 
L 216.794284 291.881631 
L 256.387724 286.434325 
L 290.353921 282.489928 
L 716.392937 254.507658 
L 716.392937 254.507658 
" style="fill:none;stroke:#8085e9;stroke-linecap:square;"/>
   </g>
   <g id="line2d_32">
    <path clip-path="url(#pefe8d2ffba)" d="M 86.212347 352.994679 
L 86.336139 349.174757 
L 86.67332 345.613513 
L 87.218858 342.196251 
L 87.972335 338.885192 
L 88.936869 335.655739 
L 90.113698 332.501481 
L 91.49523 329.435635 
L 93.040818 326.519897 
L 94.754998 323.713749 
L 96.773787 320.814598 
L 99.111961 317.853067 
L 101.702729 314.937925 
L 104.29515 312.313585 
L 106.379023 310.372906 
L 110.30488 307.041813 
L 114.882521 303.578885 
L 121.130701 299.401492 
L 124.80321 297.177787 
L 129.519241 294.525129 
L 136.902767 290.74787 
L 141.795852 288.453016 
L 152.6742 283.824462 
L 170.744153 277.228091 
L 184.782574 272.794827 
L 227.568627 261.741038 
L 227.568627 261.741038 
" style="fill:none;stroke:#f15c80;stroke-linecap:square;"/>
   </g>
   <g id="line2d_33">
    <path clip-path="url(#pefe8d2ffba)" d="M 86.212216 352.844464 
L 86.330573 348.313743 
L 86.638517 345.044619 
L 87.132453 342.143987 
L 87.806745 339.487719 
L 88.663731 336.995307 
L 89.738519 334.560568 
L 91.006436 332.240471 
L 92.466679 330.018455 
L 94.231418 327.747246 
L 96.219746 325.554011 
L 98.347525 323.507561 
L 101.074834 321.210047 
L 104.300319 318.835125 
L 106.564156 317.335922 
L 110.481153 314.992103 
L 116.06072 312.068763 
L 118.451071 310.932781 
L 122.772801 309.020802 
L 127.211821 307.216557 
L 134.627213 304.490699 
L 141.846306 302.111495 
L 154.713345 298.375664 
L 169.928283 294.572506 
L 194.025802 289.489198 
L 218.723956 285.105332 
L 265.62265 278.275319 
L 352.356219 268.699694 
L 352.356219 268.699694 
" style="fill:none;stroke:#e4d354;stroke-linecap:square;"/>
   </g>
   <g id="line2d_34">
    <path clip-path="url(#pefe8d2ffba)" d="M 86.212289 352.949885 
L 86.334467 348.330735 
L 86.665444 344.200507 
L 87.199751 340.301093 
L 87.925673 336.614015 
L 88.860218 333.019653 
L 89.954674 329.658839 
L 91.192053 326.503586 
L 92.761695 323.121427 
L 94.49826 319.917569 
L 96.260071 317.070322 
L 98.244358 314.219009 
L 100.220808 311.66424 
L 103.452193 307.949653 
L 105.564211 305.763843 
L 109.795328 301.822858 
L 113.118446 299.051422 
L 115.70696 297.051017 
L 119.960879 294.01262 
L 126.988641 289.535103 
L 133.213351 286.008632 
L 141.865379 281.631109 
L 151.037045 277.508368 
L 164.593128 272.152705 
L 173.028956 269.168585 
L 196.100837 262.026199 
L 205.930298 259.341633 
L 250.831759 248.973467 
L 250.831759 248.973467 
" style="fill:none;stroke:#2b908f;stroke-linecap:square;"/>
   </g>
   <g id="line2d_35">
    <path clip-path="url(#pefe8d2ffba)" d="M 86.212304 352.817386 
L 86.332788 347.966031 
L 86.648672 344.206234 
L 87.153573 340.821002 
L 87.843326 337.682956 
L 88.721602 334.711148 
L 89.80227 331.842504 
L 91.081792 329.081059 
L 92.581483 326.381674 
L 94.292726 323.762915 
L 96.317842 321.095099 
L 98.583335 318.499639 
L 101.092135 315.971486 
L 103.75697 313.582591 
L 106.435363 311.418027 
L 109.737238 309.004469 
L 113.244874 306.684501 
L 118.259106 303.707863 
L 122.579265 301.396325 
L 127.490789 298.994475 
L 130.640946 297.559995 
L 135.798883 295.362201 
L 141.829829 292.994036 
L 147.3237 290.995501 
L 161.760938 286.313673 
L 184.562207 280.137706 
L 430.19481 245.720292 
L 430.19481 245.720292 
" style="fill:none;stroke:#f45b5b;stroke-linecap:square;"/>
   </g>
   <g id="line2d_36">
    <path clip-path="url(#pefe8d2ffba)" d="M 86.212266 352.624296 
L 86.330381 347.262177 
L 86.631474 343.711691 
L 87.107594 340.674674 
L 87.763175 337.915432 
L 88.592066 335.374758 
L 89.611002 332.96259 
L 90.818674 330.66784 
L 92.263277 328.407066 
L 93.877449 326.281332 
L 95.823917 324.093683 
L 97.861576 322.110721 
L 100.216062 320.100341 
L 102.981208 318.022012 
L 106.310727 315.818972 
L 109.866391 313.736449 
L 113.168734 311.994454 
L 116.668113 310.308854 
L 121.955983 308.0101 
L 128.3472 305.541995 
L 134.71078 303.344597 
L 144.334392 300.396277 
L 153.992249 297.784287 
L 178.839109 292.165875 
L 216.485675 285.546041 
L 614.731583 253.143147 
L 614.731583 253.143147 
" style="fill:none;stroke:#91e8e1;stroke-linecap:square;"/>
   </g>
   <g id="line2d_37">
    <path clip-path="url(#pefe8d2ffba)" d="M 86.212241 352.733425 
L 86.331355 347.690592 
L 86.636439 344.226149 
L 87.120654 341.215789 
L 87.784327 338.46974 
L 88.630649 335.904139 
L 89.65572 333.490702 
L 90.893437 331.14189 
L 92.31715 328.90477 
L 93.934414 326.75342 
L 95.751737 324.672324 
L 97.996746 322.444876 
L 100.560571 320.231967 
L 103.520357 317.993972 
L 106.827061 315.789021 
L 110.59022 313.56307 
L 115.370591 311.061532 
L 119.074275 309.317525 
L 126.218392 306.317009 
L 134.660981 303.235538 
L 140.485348 301.331975 
L 156.777598 296.707244 
L 169.802169 293.555276 
L 196.684799 288.075252 
L 427.614797 262.207796 
L 427.614797 262.207796 
" style="fill:none;stroke:#7cb5ec;stroke-linecap:square;"/>
   </g>
   <g id="line2d_38">
    <path clip-path="url(#pefe8d2ffba)" d="M 86.212266 352.545987 
L 86.32975 347.394932 
L 86.624716 344.220389 
L 87.092334 341.546001 
L 87.733134 339.155829 
L 88.543478 336.971966 
L 89.51894 334.949587 
L 90.733824 332.940855 
L 92.153146 331.022079 
L 93.81479 329.145669 
L 95.519177 327.499106 
L 97.394327 325.916737 
L 99.765714 324.164566 
L 102.42593 322.441544 
L 105.772781 320.54012 
L 109.385985 318.733964 
L 113.789959 316.789449 
L 118.467101 314.957604 
L 124.74082 312.783657 
L 132.18787 310.518452 
L 137.501419 309.063426 
L 149.891998 306.062197 
L 162.992541 303.333398 
L 179.936596 300.284731 
L 202.039341 296.886265 
L 242.645169 291.772296 
L 313.239691 284.954881 
L 313.239691 284.954881 
" style="fill:none;stroke:#434348;stroke-linecap:square;"/>
   </g>
   <g id="line2d_39">
    <path clip-path="url(#pefe8d2ffba)" d="M 86.212241 352.927587 
L 86.332933 348.727935 
L 86.651615 345.392313 
L 87.164734 342.34029 
L 87.864434 339.497718 
L 88.761459 336.773304 
L 89.854682 334.155424 
L 91.172355 331.580388 
L 92.708069 329.070792 
L 94.496621 326.581704 
L 96.498928 324.172476 
L 98.832194 321.719259 
L 101.259633 319.462182 
L 104.310348 316.941751 
L 108.238425 314.081458 
L 112.740771 311.196541 
L 117.735343 308.361658 
L 124.035515 305.195558 
L 127.157713 303.7609 
L 131.928579 301.709566 
L 140.260793 298.462831 
L 144.724989 296.868122 
L 156.870575 292.932439 
L 165.298093 290.48251 
L 184.242743 285.607342 
L 202.304692 281.577581 
L 222.237255 277.649811 
L 250.188059 272.83024 
L 296.772464 266.070989 
L 385.50259 255.989748 
L 385.50259 255.989748 
" style="fill:none;stroke:#90ed7d;stroke-linecap:square;"/>
   </g>
   <g id="line2d_40">
    <path clip-path="url(#pefe8d2ffba)" d="M 86.212217 352.947486 
L 86.33203 348.653722 
L 86.651566 345.172567 
L 87.16421 341.98507 
L 87.871956 338.974078 
L 88.777218 336.093741 
L 89.880295 333.324101 
L 91.207905 330.601384 
L 92.677546 328.069083 
L 94.492047 325.399057 
L 96.595834 322.733387 
L 98.853044 320.234453 
L 101.476469 317.670352 
L 103.630775 315.773048 
L 107.974836 312.374585 
L 110.457624 310.632856 
L 112.852713 309.063206 
L 118.977512 305.444786 
L 121.3176 304.185446 
L 125.35554 302.142827 
L 134.530092 297.997837 
L 138.927975 296.206975 
L 154.128356 290.741278 
L 168.808139 286.255185 
L 198.074703 278.844142 
L 220.991887 274.016237 
L 268.588645 265.747721 
L 356.022241 254.279618 
L 356.022241 254.279618 
" style="fill:none;stroke:#f7a35c;stroke-linecap:square;"/>
   </g>
   <g id="line2d_41">
    <path clip-path="url(#pefe8d2ffba)" d="M 86.212316 352.743441 
L 86.332192 347.361682 
L 86.645013 343.275501 
L 87.143367 339.632632 
L 87.826702 336.261403 
L 88.686974 333.115821 
L 89.750452 330.073047 
L 90.960869 327.255987 
L 92.392478 324.471645 
L 94.014575 321.787746 
L 95.855736 319.156791 
L 97.793963 316.728166 
L 100.005843 314.271348 
L 102.715752 311.603358 
L 105.458239 309.194639 
L 108.86626 306.513417 
L 113.067179 303.573138 
L 117.416176 300.855143 
L 123.308064 297.576411 
L 131.114257 293.770604 
L 137.203387 291.127062 
L 144.744929 288.160184 
L 157.748512 283.659284 
L 167.546749 280.663953 
L 182.927476 276.480381 
L 205.022322 271.300772 
L 231.149157 266.085074 
L 272.919857 259.148664 
L 326.556377 251.923405 
L 326.556377 251.923405 
" style="fill:none;stroke:#8085e9;stroke-linecap:square;"/>
   </g>
   <g id="line2d_42">
    <path clip-path="url(#pefe8d2ffba)" d="M 86.212304 352.906355 
L 86.333622 348.803709 
L 86.653626 345.505006 
L 87.166668 342.48909 
L 87.870289 339.659118 
L 88.77556 336.936648 
L 89.885556 334.306103 
L 91.195978 331.768708 
L 92.700708 329.323238 
L 94.397331 326.960894 
L 96.385088 324.55934 
L 98.738884 322.076647 
L 101.405041 319.605503 
L 104.252822 317.261475 
L 106.987152 315.230541 
L 109.946217 313.224012 
L 113.508211 311.020019 
L 116.909911 309.090129 
L 122.013965 306.451384 
L 127.26045 303.996855 
L 130.778255 302.470975 
L 138.14167 299.53169 
L 145.712291 296.803077 
L 153.329103 294.298197 
L 168.710075 289.809559 
L 188.784361 284.798319 
L 727.326087 232.174592 
L 727.326087 232.174592 
" style="fill:none;stroke:#f15c80;stroke-linecap:square;"/>
   </g>
   <g id="line2d_43">
    <path clip-path="url(#pefe8d2ffba)" d="M 86.212289 352.741361 
L 86.331845 347.660895 
L 86.640986 343.983593 
L 87.131647 340.750907 
L 87.802675 337.784515 
L 88.653242 335.010931 
L 89.6974 332.355638 
L 90.949208 329.782898 
L 92.367889 327.35886 
L 94.041577 324.934465 
L 95.910124 322.606474 
L 97.986544 320.349828 
L 100.444195 318.003947 
L 103.427213 315.503062 
L 106.672682 313.10153 
L 109.971335 310.918678 
L 113.939363 308.558428 
L 117.168581 306.808296 
L 122.63287 304.122466 
L 129.624543 301.079695 
L 134.219028 299.269306 
L 139.545676 297.322608 
L 147.532592 294.656158 
L 157.781907 291.589138 
L 176.16885 286.830639 
L 188.147775 284.116968 
L 213.00444 279.190622 
L 242.456208 274.250821 
L 278.597636 269.11492 
L 370.145463 258.952226 
L 370.145463 258.952226 
" style="fill:none;stroke:#e4d354;stroke-linecap:square;"/>
   </g>
   <g id="line2d_44">
    <path clip-path="url(#pefe8d2ffba)" d="M 86.212304 352.871477 
L 86.332933 348.737915 
L 86.648427 345.55228 
L 87.152781 342.68083 
L 87.846683 339.999121 
L 88.730799 337.457097 
L 89.84081 334.955879 
L 91.158423 332.546329 
L 92.679285 330.22539 
L 94.427682 327.95327 
L 96.514569 325.617089 
L 98.733209 323.449203 
L 101.260493 321.267032 
L 104.29589 318.945392 
L 108.263463 316.273923 
L 111.778092 314.166118 
L 116.197282 311.778668 
L 122.517471 308.752213 
L 127.656184 306.550734 
L 130.801709 305.295879 
L 136.430527 303.197654 
L 144.527445 300.454008 
L 153.855151 297.612713 
L 167.14546 294.018475 
L 186.21756 289.551626 
L 203.351872 286.051386 
L 233.558278 280.72688 
L 369.153535 264.013311 
L 369.153535 264.013311 
" style="fill:none;stroke:#2b908f;stroke-linecap:square;"/>
   </g>
   <g id="line2d_45">
    <path clip-path="url(#pefe8d2ffba)" d="M 86.212289 352.610754 
L 86.330428 347.533306 
L 86.629714 344.224705 
L 87.105763 341.390618 
L 87.754942 338.845773 
L 88.586915 336.475184 
L 89.623795 334.203086 
L 90.783932 332.159757 
L 92.226699 330.061696 
L 93.883424 328.041093 
L 95.891485 325.960804 
L 98.194729 323.915092 
L 100.258418 322.303731 
L 103.376257 320.158479 
L 106.130105 318.481993 
L 110.243139 316.260994 
L 114.254417 314.343179 
L 117.165813 313.071527 
L 121.671638 311.26399 
L 128.612172 308.781821 
L 136.839829 306.198845 
L 142.463585 304.606777 
L 160.421684 300.208123 
L 171.814895 297.81897 
L 192.015066 294.119745 
L 225.205666 289.078784 
L 276.496764 282.886349 
L 326.892663 277.981681 
L 326.892663 277.981681 
" style="fill:none;stroke:#f45b5b;stroke-linecap:square;"/>
   </g>
   <g id="line2d_46">
    <path clip-path="url(#pefe8d2ffba)" d="M 86.212266 352.733737 
L 86.330644 347.862079 
L 86.635273 344.474487 
L 87.121697 341.513464 
L 87.787782 338.814903 
L 88.635646 336.29608 
L 89.670701 333.907551 
L 90.887433 331.639716 
L 92.377326 329.343665 
L 94.076987 327.13913 
L 95.904912 325.100877 
L 98.250127 322.836597 
L 100.878444 320.632358 
L 103.309825 318.823673 
L 106.366701 316.786717 
L 110.350569 314.433105 
L 114.854561 312.080901 
L 120.670086 309.404043 
L 129.239709 305.995852 
L 134.010629 304.307338 
L 141.419332 301.913608 
L 150.735637 299.217622 
L 159.512674 296.929803 
L 170.5193 294.33354 
L 186.549457 290.975191 
L 224.652878 284.387721 
L 342.099584 270.461647 
L 342.099584 270.461647 
" style="fill:none;stroke:#91e8e1;stroke-linecap:square;"/>
   </g>
   <g id="line2d_47">
    <path clip-path="url(#pefe8d2ffba)" d="M 86.212352 352.845161 
L 86.333748 348.365906 
L 86.652975 344.785181 
L 87.165008 341.521936 
L 87.864275 338.480564 
L 88.754261 335.588068 
L 89.834537 332.819139 
L 91.140266 330.088474 
L 92.620537 327.496239 
L 94.393555 324.850569 
L 96.336449 322.344784 
L 98.533021 319.862633 
L 101.046618 317.355352 
L 104.033426 314.718051 
L 107.767731 311.808033 
L 111.397623 309.290206 
L 115.706234 306.605206 
L 120.808608 303.755731 
L 126.193006 301.051221 
L 129.168381 299.665602 
L 137.722507 296.029268 
L 149.450325 291.693358 
L 155.012787 289.840307 
L 174.884279 284.011877 
L 191.09956 279.946526 
L 299.761582 260.945321 
L 299.761582 260.945321 
" style="fill:none;stroke:#7cb5ec;stroke-linecap:square;"/>
   </g>
   <g id="line2d_48">
    <path clip-path="url(#pefe8d2ffba)" d="M 86.212222 352.924201 
L 86.332249 348.482689 
L 86.651258 344.940146 
L 87.161741 341.719454 
L 87.860149 338.709826 
L 88.7576 335.821529 
L 89.832821 333.091534 
L 91.110194 330.437246 
L 92.587943 327.861019 
L 94.267725 325.356308 
L 96.296578 322.742046 
L 98.544508 320.216067 
L 101.272332 317.526354 
L 103.763052 315.338555 
L 107.277345 312.578906 
L 110.514339 310.299361 
L 115.218563 307.329065 
L 120.334388 304.453901 
L 123.658902 302.742843 
L 130.735696 299.427773 
L 134.983211 297.614177 
L 143.982783 294.116277 
L 154.988192 290.339519 
L 160.713841 288.54773 
L 174.678465 284.570545 
L 190.01564 280.712795 
L 204.026927 277.551008 
L 237.340447 271.060741 
L 273.394307 265.202552 
L 335.571095 256.957854 
L 597.817653 234.548081 
L 597.817653 234.548081 
" style="fill:none;stroke:#434348;stroke-linecap:square;"/>
   </g>
   <g id="line2d_49">
    <path clip-path="url(#pefe8d2ffba)" d="M 86.212304 352.80162 
L 86.332559 347.559503 
L 86.6494 343.425414 
L 87.155731 339.692599 
L 87.845237 336.236081 
L 88.72735 332.944466 
L 89.788512 329.831504 
L 91.070153 326.770799 
L 92.538956 323.843022 
L 94.18071 321.051324 
L 96.093204 318.238738 
L 98.157693 315.581336 
L 100.363373 313.062181 
L 103.067955 310.312122 
L 105.55419 308.038428 
L 108.7526 305.392355 
L 112.367314 302.69963 
L 115.564459 300.528154 
L 120.829312 297.292585 
L 126.300748 294.285115 
L 132.923638 291.020182 
L 140.015507 287.881817 
L 146.609147 285.228883 
L 151.453909 283.415 
L 157.849615 281.170309 
L 168.984688 277.603151 
L 202.289221 268.789087 
L 235.134365 261.889675 
L 429.474842 236.526415 
L 429.474842 236.526415 
" style="fill:none;stroke:#90ed7d;stroke-linecap:square;"/>
   </g>
   <g id="line2d_50">
    <path clip-path="url(#pefe8d2ffba)" d="M 86.212304 352.154565 
L 86.329073 346.900686 
L 86.613599 344.146411 
L 87.059917 341.941721 
L 87.672644 340.021704 
L 88.459337 338.282364 
L 89.439445 336.654921 
L 90.629399 335.109396 
L 92.043925 333.629405 
L 93.761139 332.153872 
L 95.898526 330.631125 
L 98.436426 329.118691 
L 101.395463 327.626721 
L 104.844054 326.141132 
L 108.46985 324.787517 
L 112.511268 323.4622 
L 116.279186 322.358852 
L 122.767007 320.68331 
L 134.842533 318.090834 
L 146.22281 316.066885 
L 158.098046 314.248955 
L 183.319561 311.051354 
L 368.335385 297.890029 
L 368.335385 297.890029 
" style="fill:none;stroke:#f7a35c;stroke-linecap:square;"/>
   </g>
   <g id="line2d_51">
    <path clip-path="url(#pefe8d2ffba)" d="M 86.212332 352.979919 
L 86.336274 348.651893 
L 86.674867 344.5627 
L 87.219393 340.648581 
L 87.97096 336.85157 
L 88.923168 333.180864 
L 90.074808 329.620323 
L 91.407104 326.201936 
L 93.006206 322.724972 
L 94.685 319.569443 
L 96.727411 316.208405 
L 98.70321 313.323271 
L 101.041879 310.258061 
L 103.725285 307.100312 
L 106.215299 304.4397 
L 109.18993 301.532506 
L 112.807466 298.317002 
L 115.741581 295.919601 
L 119.936304 292.760194 
L 123.531133 290.262594 
L 128.917238 286.818884 
L 136.115033 282.670006 
L 142.857955 279.159766 
L 147.441809 276.945165 
L 155.385701 273.383154 
L 166.408318 268.919966 
L 178.097284 264.674554 
L 199.974272 257.752772 
L 220.716737 252.114296 
L 247.796369 245.741216 
L 280.767019 239.095726 
L 332.922245 230.344277 
L 475.06692 212.963467 
L 475.06692 212.963467 
" style="fill:none;stroke:#8085e9;stroke-linecap:square;"/>
   </g>
   <g id="line2d_52">
    <path clip-path="url(#pefe8d2ffba)" d="M 86.212304 352.676054 
L 86.331588 347.291432 
L 86.63917 343.466513 
L 87.126621 340.131031 
L 87.795174 337.076607 
L 88.642363 334.233171 
L 89.679033 331.527503 
L 90.887071 328.978271 
L 92.291123 326.515017 
L 93.90946 324.109413 
L 95.86114 321.625483 
L 98.023063 319.245274 
L 100.535905 316.828526 
L 103.149226 314.60868 
L 105.687964 312.670386 
L 109.190073 310.26876 
L 112.23646 308.382322 
L 116.368469 306.060454 
L 121.719434 303.371736 
L 126.572561 301.176675 
L 131.676614 299.06724 
L 137.174595 296.981771 
L 146.217471 293.888869 
L 157.735843 290.419601 
L 172.13873 286.63382 
L 190.894701 282.375212 
L 221.324175 276.588972 
L 247.017603 272.460506 
L 272.452681 268.866082 
L 313.825492 263.793469 
L 493.099477 248.111657 
L 493.099477 248.111657 
" style="fill:none;stroke:#f15c80;stroke-linecap:square;"/>
   </g>
   <g id="line2d_53">
    <path clip-path="url(#pefe8d2ffba)" d="M 86.212304 352.747113 
L 86.332546 347.64133 
L 86.643433 343.886811 
L 87.138981 340.557992 
L 87.815434 337.501507 
L 88.680965 334.613939 
L 89.739614 331.858619 
L 90.982095 329.237916 
L 92.426299 326.701258 
L 94.073882 324.243416 
L 95.992947 321.779176 
L 98.018666 319.507558 
L 100.345553 317.202662 
L 102.950062 314.911376 
L 105.685364 312.755234 
L 109.040095 310.380379 
L 112.917757 307.921933 
L 117.201948 305.482863 
L 122.625423 302.717993 
L 128.087734 300.217971 
L 133.968984 297.77792 
L 137.627303 296.369061 
L 146.508962 293.232395 
L 160.799452 288.841171 
L 172.612013 285.668308 
L 181.371948 283.522796 
L 207.732309 277.873395 
L 249.600238 270.622037 
L 433.465168 250.229944 
L 433.465168 250.229944 
" style="fill:none;stroke:#e4d354;stroke-linecap:square;"/>
   </g>
   <g id="line2d_54">
    <path clip-path="url(#pefe8d2ffba)" d="M 86.212289 352.849595 
L 86.333258 347.98746 
L 86.651782 344.12773 
L 87.161737 340.621981 
L 87.861094 337.346628 
L 88.75059 334.239774 
L 89.828612 331.274415 
L 91.084099 328.450965 
L 92.558971 325.670681 
L 94.24368 322.961194 
L 96.176616 320.272514 
L 98.451252 317.514423 
L 100.766182 315.036152 
L 103.130402 312.763456 
L 106.335959 310.001384 
L 109.381648 307.642421 
L 112.646814 305.339541 
L 116.606868 302.797793 
L 121.452764 299.985877 
L 125.468853 297.856388 
L 131.093518 295.121596 
L 137.536824 292.277707 
L 147.463827 288.368755 
L 154.069153 286.020877 
L 179.310397 278.381955 
L 198.864118 273.495499 
L 215.666217 269.800983 
L 243.002984 264.532281 
L 297.265652 255.968204 
L 621.634351 226.499548 
L 621.634351 226.499548 
" style="fill:none;stroke:#2b908f;stroke-linecap:square;"/>
   </g>
   <g id="line2d_55">
    <path clip-path="url(#pefe8d2ffba)" d="M 86.212295 352.836043 
L 86.332357 348.12324 
L 86.647903 344.455897 
L 87.151946 341.152278 
L 87.846999 338.061854 
L 88.733607 335.13285 
L 89.810725 332.338815 
L 91.059229 329.695832 
L 92.587943 326.994576 
L 94.243233 324.504435 
L 96.023626 322.173763 
L 98.181285 319.694648 
L 100.550928 317.29199 
L 103.288258 314.826546 
L 106.510637 312.244889 
L 110.275633 309.560822 
L 113.456474 307.510308 
L 117.992062 304.856321 
L 121.018416 303.22996 
L 127.412785 300.09715 
L 130.06769 298.89801 
L 134.830228 296.871486 
L 139.678668 294.95076 
L 145.319452 292.869546 
L 155.277367 289.526902 
L 167.812921 285.794318 
L 179.001127 282.811491 
L 195.519679 278.872869 
L 231.244534 271.721587 
L 258.932329 267.08422 
L 333.932953 257.005024 
L 452.982316 245.3175 
L 727.895412 227.566873 
L 727.895412 227.566873 
" style="fill:none;stroke:#f45b5b;stroke-linecap:square;"/>
   </g>
   <g id="line2d_56">
    <path clip-path="url(#pefe8d2ffba)" d="M 86.212304 352.96882 
L 86.334694 348.911854 
L 86.665572 345.321199 
L 87.200105 341.934746 
L 87.930814 338.716404 
L 88.857249 335.62267 
L 89.984012 332.620503 
L 91.344028 329.635992 
L 92.923994 326.715016 
L 94.687211 323.913415 
L 96.602489 321.251437 
L 98.764872 318.591451 
L 101.256152 315.864173 
L 104.09462 313.088616 
L 107.50126 310.11154 
L 110.605258 307.660255 
L 114.501641 304.860492 
L 118.532792 302.224536 
L 122.227869 299.997972 
L 128.367974 296.622446 
L 135.174634 293.259386 
L 140.009087 291.0663 
L 146.52896 288.321004 
L 155.680512 284.807936 
L 163.085434 282.205248 
L 175.930553 278.100429 
L 191.0462 273.801289 
L 207.439716 269.644316 
L 225.018983 265.646138 
L 253.566595 259.933194 
L 307.277356 251.041798 
L 352.058709 244.911053 
L 471.799984 232.046061 
L 471.799984 232.046061 
" style="fill:none;stroke:#91e8e1;stroke-linecap:square;"/>
   </g>
   <g id="line2d_57">
    <path clip-path="url(#pefe8d2ffba)" d="M 86.212304 352.687334 
L 86.331416 347.743069 
L 86.635436 344.335427 
L 87.119467 341.367516 
L 87.782721 338.6635 
L 88.6295 336.135869 
L 89.669245 333.730169 
L 90.87742 331.474618 
L 92.348789 329.202146 
L 93.997183 327.055116 
L 95.928252 324.899934 
L 98.287472 322.6313 
L 100.807843 320.521838 
L 104.092558 318.121278 
L 107.525842 315.920781 
L 112.107171 313.342738 
L 116.010723 311.390078 
L 118.220402 310.364431 
L 126.066168 307.088363 
L 132.818993 304.624109 
L 140.547188 302.105016 
L 148.015578 299.909744 
L 160.137981 296.732588 
L 170.804755 294.245079 
L 193.735598 289.610812 
L 249.142988 280.946429 
L 672.157409 249.375073 
L 672.157409 249.375073 
" style="fill:none;stroke:#7cb5ec;stroke-linecap:square;"/>
   </g>
   <g id="line2d_58">
    <path clip-path="url(#pefe8d2ffba)" d="M 86.212304 351.761048 
L 86.329631 343.527756 
L 86.61584 339.027643 
L 87.063396 335.402541 
L 87.66686 332.278389 
L 88.43355 329.457754 
L 89.354425 326.890974 
L 90.444598 324.487982 
L 91.686632 322.25469 
L 93.219792 319.967501 
L 94.953313 317.79458 
L 97.029647 315.582939 
L 99.102501 313.674956 
L 102.075825 311.30944 
L 105.511566 308.965942 
L 108.446736 307.206022 
L 113.225905 304.691208 
L 118.493413 302.292549 
L 125.714724 299.459289 
L 128.268118 298.555091 
L 135.204121 296.300981 
L 144.66632 293.603607 
L 159.317701 290.047472 
L 171.497501 287.505943 
L 189.833889 284.187008 
L 217.70682 279.964761 
L 289.397751 271.794844 
L 395.587076 263.354479 
L 395.587076 263.354479 
" style="fill:none;stroke:#434348;stroke-linecap:square;"/>
   </g>
   <g id="line2d_59">
    <path clip-path="url(#pefe8d2ffba)" d="M 86.212316 352.558096 
L 86.330848 347.453292 
L 86.629658 344.178233 
L 87.10401 341.389904 
L 87.749494 338.897754 
L 88.575866 336.582684 
L 89.573859 334.428267 
L 90.779355 332.343699 
L 92.209902 330.311589 
L 93.908709 328.293336 
L 95.837264 326.34678 
L 98.136845 324.353374 
L 100.894394 322.291372 
L 103.828818 320.378379 
L 107.627723 318.212712 
L 110.80271 316.604755 
L 113.943187 315.154963 
L 117.137678 313.797146 
L 124.861287 310.89111 
L 130.538668 309.015966 
L 137.889374 306.834681 
L 145.617306 304.776771 
L 153.234136 302.935406 
L 166.680478 300.036793 
L 180.335139 297.447025 
L 200.99193 294.027624 
L 215.03536 291.965152 
L 245.051464 288.083869 
L 321.691129 280.301604 
L 855.641737 253.187743 
L 855.641737 253.187743 
" style="fill:none;stroke:#90ed7d;stroke-linecap:square;"/>
   </g>
   <g id="line2d_60">
    <path clip-path="url(#pefe8d2ffba)" d="M 86.212304 352.079907 
L 86.329317 346.699261 
L 86.611593 343.946646 
L 87.055074 341.74803 
L 87.662455 339.843798 
L 88.442022 338.123064 
L 89.415227 336.513197 
L 90.60145 334.982121 
L 92.022792 333.508896 
L 93.729817 332.059058 
L 95.770744 330.618401 
L 98.212998 329.170579 
L 101.326398 327.616408 
L 105.179381 325.997418 
L 109.299894 324.521439 
L 112.170851 323.607525 
L 119.96672 321.464507 
L 123.363287 320.64833 
L 129.674769 319.272539 
L 144.140267 316.620575 
L 185.692438 311.139258 
L 185.692438 311.139258 
" style="fill:none;stroke:#f7a35c;stroke-linecap:square;"/>
   </g>
   <g id="line2d_61">
    <path clip-path="url(#pefe8d2ffba)" d="M 86.212304 352.86516 
L 86.333591 348.242591 
L 86.652764 344.544317 
L 87.162168 341.182806 
L 87.86151 338.030145 
L 88.749847 335.03725 
L 89.816366 332.19959 
L 91.083735 329.439441 
L 92.574486 326.71941 
L 94.260427 324.093531 
L 96.159721 321.528679 
L 98.369671 318.916867 
L 100.710305 316.470559 
L 103.269494 314.078751 
L 106.294873 311.542876 
L 108.664328 309.731594 
L 112.777475 306.874754 
L 117.569257 303.907783 
L 122.39589 301.22317 
L 126.670367 299.048745 
L 134.097864 295.630586 
L 138.167732 293.916939 
L 144.515695 291.428695 
L 155.195881 287.657049 
L 164.853335 284.602929 
L 182.801792 279.606 
L 205.863777 274.137114 
L 225.2754 270.138105 
L 264.982046 263.172379 
L 326.19816 254.571593 
L 473.267164 239.709401 
L 473.267164 239.709401 
" style="fill:none;stroke:#8085e9;stroke-linecap:square;"/>
   </g>
   <g id="line2d_62">
    <path clip-path="url(#pefe8d2ffba)" d="M 86.21238 352.672155 
L 86.33274 347.674009 
L 86.641173 344.08141 
L 87.132311 340.920855 
L 87.803082 338.031285 
L 88.658561 335.318907 
L 89.707343 332.730976 
L 90.945109 330.262273 
L 92.370619 327.898727 
L 94.020434 325.579496 
L 95.917047 323.287891 
L 98.085267 321.012155 
L 100.392762 318.881985 
L 103.423169 316.418829 
L 106.337311 314.318695 
L 109.667721 312.163551 
L 111.533915 311.048509 
L 116.313409 308.435685 
L 119.765301 306.726874 
L 123.402162 305.057517 
L 128.377509 302.95443 
L 134.790582 300.494186 
L 143.120834 297.630801 
L 151.676393 294.995917 
L 160.885156 292.432483 
L 190.085335 285.628125 
L 380.605353 260.653386 
L 380.605353 260.653386 
" style="fill:none;stroke:#f15c80;stroke-linecap:square;"/>
   </g>
   <g id="line2d_63">
    <path clip-path="url(#pefe8d2ffba)" d="M 86.212304 352.557409 
L 86.330848 347.068492 
L 86.630881 343.472777 
L 87.105774 340.402526 
L 87.753776 337.641262 
L 88.58568 335.065108 
L 89.604909 332.634708 
L 90.796407 330.355525 
L 92.255128 328.060794 
L 93.82891 325.978245 
L 95.694459 323.864405 
L 97.883908 321.725001 
L 100.345205 319.632846 
L 102.628518 317.910754 
L 105.917851 315.70663 
L 109.813713 313.413327 
L 113.483938 311.490193 
L 118.383939 309.195655 
L 122.763574 307.351629 
L 127.753774 305.438587 
L 133.359975 303.482098 
L 142.30121 300.692751 
L 149.258295 298.744813 
L 158.547047 296.382385 
L 170.378313 293.686503 
L 193.839281 289.103265 
L 218.238512 285.097785 
L 258.878747 279.565334 
L 307.335622 274.194445 
L 433.612855 263.729893 
L 433.612855 263.729893 
" style="fill:none;stroke:#e4d354;stroke-linecap:square;"/>
   </g>
   <g id="line2d_64">
    <path clip-path="url(#pefe8d2ffba)" d="M 86.212289 352.727535 
L 86.331869 347.770009 
L 86.639309 344.266761 
L 87.130235 341.189305 
L 87.800947 338.381918 
L 88.652699 335.760586 
L 89.699981 333.253661 
L 90.936517 330.863029 
L 92.352807 328.587094 
L 93.944556 326.413123 
L 95.803913 324.2246 
L 97.965079 322.014968 
L 100.497303 319.753226 
L 103.093783 317.703688 
L 105.446475 316.026953 
L 107.766686 314.507578 
L 112.865099 311.532376 
L 118.27378 308.787359 
L 124.75123 305.904585 
L 129.034641 304.185035 
L 135.088976 301.955535 
L 142.919763 299.353212 
L 151.527103 296.78208 
L 160.511874 294.354011 
L 177.382676 290.334694 
L 196.793708 286.356931 
L 210.815233 283.805898 
L 249.102868 277.827807 
L 294.907512 271.991571 
L 400.834647 261.691915 
L 400.834647 261.691915 
" style="fill:none;stroke:#2b908f;stroke-linecap:square;"/>
   </g>
   <g id="line2d_65">
    <path clip-path="url(#pefe8d2ffba)" d="M 86.212289 352.913726 
L 86.333287 348.814009 
L 86.653422 345.515338 
L 87.168141 342.494287 
L 87.874217 339.661011 
L 88.781878 336.938343 
L 89.877596 334.344401 
L 91.207997 331.771553 
L 92.760265 329.260878 
L 94.506619 326.849067 
L 96.469974 324.49545 
L 98.875027 321.976888 
L 101.582873 319.487852 
L 104.542701 317.076049 
L 107.635386 314.816746 
L 111.370608 312.36126 
L 115.005679 310.197118 
L 119.18075 307.929418 
L 124.343179 305.382955 
L 129.576844 303.034464 
L 135.346016 300.664966 
L 140.799446 298.599289 
L 145.999234 296.762145 
L 152.100587 294.747001 
L 162.482523 291.60826 
L 174.13637 288.437088 
L 187.8971 285.070288 
L 196.417593 283.153154 
L 245.22336 273.934418 
L 293.265123 266.813595 
L 625.080068 237.950447 
L 625.080068 237.950447 
" style="fill:none;stroke:#f45b5b;stroke-linecap:square;"/>
   </g>
   <g id="line2d_66">
    <path clip-path="url(#pefe8d2ffba)" d="M 86.212379 352.78918 
L 86.332817 348.644498 
L 86.6445 345.57579 
L 87.140501 342.855151 
L 87.825902 340.325099 
L 88.696323 337.950408 
L 89.762774 335.675393 
L 91.045556 333.457711 
L 92.580693 331.255406 
L 94.267462 329.202326 
L 96.25748 327.114055 
L 98.617744 324.964673 
L 100.921954 323.114377 
L 103.826641 321.039847 
L 107.35999 318.806657 
L 111.372883 316.5592 
L 116.808365 313.877522 
L 121.998282 311.609311 
L 127.534114 309.430263 
L 137.148995 306.090753 
L 139.422099 305.367811 
L 148.608351 302.653126 
L 162.678794 299.00699 
L 180.871097 294.958784 
L 198.804821 291.498172 
L 228.059497 286.652213 
L 284.508674 279.136737 
L 344.720461 272.782618 
L 344.720461 272.782618 
" style="fill:none;stroke:#91e8e1;stroke-linecap:square;"/>
   </g>
   <g id="line2d_67">
    <path clip-path="url(#pefe8d2ffba)" d="M 86.212304 353.052232 
L 86.336115 349.841683 
L 86.676753 346.775298 
L 87.229101 343.803332 
L 87.99041 340.910038 
L 88.968846 338.06069 
L 90.154682 335.281371 
L 91.599129 332.471739 
L 93.228785 329.778247 
L 95.125174 327.066418 
L 97.270769 324.379681 
L 99.619201 321.773707 
L 102.49857 318.930138 
L 105.638056 316.160924 
L 109.22195 313.320365 
L 113.020321 310.598948 
L 117.448611 307.720503 
L 121.418404 305.356484 
L 127.580959 302.010296 
L 130.864225 300.36114 
L 139.300459 296.467391 
L 142.05976 295.285655 
L 149.312792 292.359569 
L 156.558117 289.66108 
L 168.035034 285.761467 
L 181.015639 281.796621 
L 202.977979 275.908427 
L 225.06117 270.768835 
L 247.952283 266.060854 
L 285.989457 259.275772 
L 400.562392 243.738806 
L 786.074574 213.769978 
L 786.074574 213.769978 
" style="fill:none;stroke:#7cb5ec;stroke-linecap:square;"/>
   </g>
   <g id="line2d_68">
    <path clip-path="url(#pefe8d2ffba)" d="M 86.21238 352.877179 
L 86.33434 348.795328 
L 86.655644 345.474936 
L 87.171792 342.427489 
L 87.878893 339.568191 
L 88.782626 336.831191 
L 89.897106 334.168373 
L 91.198562 331.624556 
L 92.701992 329.15507 
L 94.528324 326.597211 
L 96.412713 324.307421 
L 98.670282 321.895832 
L 101.209561 319.499679 
L 104.299918 316.917062 
L 107.474968 314.550872 
L 110.623673 312.426344 
L 114.682704 309.943623 
L 119.231371 307.431982 
L 124.929329 304.600578 
L 133.701257 300.760216 
L 143.518226 297.015006 
L 151.231288 294.382211 
L 161.079871 291.330012 
L 177.433019 286.855208 
L 198.426373 281.912783 
L 244.690007 273.107772 
L 337.618952 260.262589 
L 337.618952 260.262589 
" style="fill:none;stroke:#434348;stroke-linecap:square;"/>
   </g>
   <g id="line2d_69">
    <path clip-path="url(#pefe8d2ffba)" d="M 86.212389 352.701578 
L 86.332377 348.29248 
L 86.639193 345.191043 
L 87.128282 342.476244 
L 87.799567 339.992246 
L 88.65701 337.664153 
L 89.71465 335.434841 
L 90.946069 333.338376 
L 92.420074 331.257106 
L 94.193184 329.149737 
L 96.193807 327.118947 
L 98.401137 325.174491 
L 100.976521 323.186851 
L 104.036056 321.112129 
L 107.498381 319.040946 
L 110.731847 317.307771 
L 115.272497 315.124577 
L 119.855388 313.151748 
L 124.201075 311.449356 
L 129.387864 309.589865 
L 133.637034 308.182169 
L 140.058552 306.217672 
L 147.814099 304.059357 
L 158.148111 301.472131 
L 169.430101 298.942785 
L 196.526731 293.772063 
L 260.61516 284.576439 
L 260.61516 284.576439 
" style="fill:none;stroke:#90ed7d;stroke-linecap:square;"/>
   </g>
   <g id="line2d_70">
    <path clip-path="url(#pefe8d2ffba)" d="M 86.212216 352.915913 
L 86.332339 348.585929 
L 86.648879 345.23906 
L 87.155088 342.21846 
L 87.85217 339.392777 
L 88.744988 336.700684 
L 89.83441 334.120229 
L 91.124162 331.630605 
L 92.655294 329.162661 
L 94.366801 326.812628 
L 96.405568 324.395856 
L 98.663089 322.061872 
L 101.018598 319.905778 
L 103.920947 317.541074 
L 107.070762 315.251328 
L 110.458915 313.035052 
L 114.200319 310.819993 
L 119.14972 308.182298 
L 123.306336 306.171715 
L 129.89499 303.285271 
L 132.488107 302.233347 
L 142.104091 298.663887 
L 180.975789 287.636309 
L 180.975789 287.636309 
" style="fill:none;stroke:#f7a35c;stroke-linecap:square;"/>
   </g>
   <g id="line2d_71">
    <path clip-path="url(#pefe8d2ffba)" d="M 86.212266 352.86824 
L 86.332229 348.675364 
L 86.645425 345.529171 
L 87.147007 342.710352 
L 87.836075 340.09481 
L 88.721138 337.606331 
L 89.807747 335.216094 
L 91.099664 332.909145 
L 92.617647 330.651116 
L 94.28727 328.535331 
L 96.292117 326.340992 
L 98.620681 324.125279 
L 101.194081 321.975526 
L 104.10416 319.822423 
L 107.715515 317.455337 
L 111.889652 315.033714 
L 114.905645 313.446712 
L 120.131242 310.949394 
L 124.58618 309.023379 
L 129.207001 307.184189 
L 144.504959 301.946687 
L 174.175923 294.11601 
L 174.175923 294.11601 
" style="fill:none;stroke:#8085e9;stroke-linecap:square;"/>
   </g>
   <g id="line2d_72">
    <path clip-path="url(#pefe8d2ffba)" d="M 86.212216 352.944488 
L 86.332166 349.02504 
L 86.64868 345.988745 
L 87.156826 343.236354 
L 87.855258 340.664052 
L 88.755249 338.196634 
L 89.852725 335.831852 
L 91.180268 333.503005 
L 92.749385 331.208019 
L 94.512617 329.012677 
L 96.52962 326.839833 
L 98.901544 324.609734 
L 101.698664 322.303857 
L 104.417248 320.311198 
L 107.683915 318.161552 
L 111.598623 315.855361 
L 115.048489 314.013705 
L 119.390482 311.896817 
L 123.926236 309.87868 
L 129.547961 307.597167 
L 138.277191 304.431604 
L 144.745726 302.319006 
L 160.876708 297.691938 
L 254.363444 279.880509 
L 254.363444 279.880509 
" style="fill:none;stroke:#f15c80;stroke-linecap:square;"/>
   </g>
   <g id="line2d_73">
    <path clip-path="url(#pefe8d2ffba)" d="M 86.21239 351.993089 
L 86.329991 346.643327 
L 86.614125 343.85059 
L 87.059421 341.622221 
L 87.67088 339.685669 
L 88.453037 337.940548 
L 89.432533 336.301975 
L 90.591673 334.784216 
L 92.028803 333.270657 
L 93.659543 331.858877 
L 95.75208 330.351831 
L 98.116054 328.922066 
L 100.680331 327.594636 
L 103.58003 326.292042 
L 107.406718 324.803943 
L 111.282967 323.491498 
L 116.657074 321.906341 
L 122.303542 320.456305 
L 131.171457 318.496113 
L 138.479136 317.093606 
L 145.770626 315.837744 
L 156.159433 314.239758 
L 163.819759 313.175889 
L 404.664007 296.141494 
L 404.664007 296.141494 
" style="fill:none;stroke:#e4d354;stroke-linecap:square;"/>
   </g>
   <g id="line2d_74">
    <path clip-path="url(#pefe8d2ffba)" d="M 86.21239 352.750307 
L 86.332585 348.573326 
L 86.641577 345.568825 
L 87.135173 342.918226 
L 87.813909 340.479213 
L 88.679761 338.189057 
L 89.73338 336.016474 
L 91.016241 333.879074 
L 92.506117 331.821151 
L 94.271248 329.761517 
L 96.373973 327.66571 
L 98.8503 325.539683 
L 101.665396 323.438752 
L 104.651626 321.476163 
L 108.088735 319.468884 
L 112.526032 317.175157 
L 116.559249 315.312064 
L 122.504802 312.857381 
L 129.308868 310.373254 
L 134.429525 308.681327 
L 141.660575 306.497844 
L 155.37817 302.863525 
L 201.513773 293.587153 
L 366.245391 274.477028 
L 366.245391 274.477028 
" style="fill:none;stroke:#2b908f;stroke-linecap:square;"/>
   </g>
   <g id="line2d_75">
    <path clip-path="url(#pefe8d2ffba)" d="M 86.212419 352.569598 
L 86.332243 347.638065 
L 86.635973 344.292176 
L 87.118184 341.405787 
L 87.775636 338.799294 
L 88.616425 336.365747 
L 89.656706 334.040118 
L 90.901378 331.808795 
L 92.322185 329.704782 
L 93.963661 327.652348 
L 95.946449 325.535967 
L 98.176607 323.483764 
L 100.667716 321.483316 
L 103.116135 319.738853 
L 106.587516 317.546219 
L 109.735415 315.775308 
L 112.650957 314.279302 
L 117.182169 312.17227 
L 123.420406 309.60706 
L 129.032138 307.553434 
L 139.057619 304.32824 
L 144.931592 302.643434 
L 153.707295 300.345135 
L 163.646846 297.997127 
L 178.535655 294.872178 
L 234.080237 285.832729 
L 947.494034 243.581055 
L 947.494034 243.581055 
" style="fill:none;stroke:#f45b5b;stroke-linecap:square;"/>
   </g>
   <g id="line2d_76">
    <path clip-path="url(#pefe8d2ffba)" d="M 86.212316 352.224731 
L 86.330394 345.413013 
L 86.624412 341.297449 
L 87.086024 337.886345 
L 87.713727 334.873525 
L 88.50964 332.125301 
L 89.487973 329.545244 
L 90.632032 327.143963 
L 91.953482 324.86778 
L 93.439068 322.718727 
L 95.062457 320.706954 
L 96.997465 318.631437 
L 99.078763 316.682 
L 101.542779 314.652285 
L 104.283779 312.659111 
L 107.619242 310.515471 
L 111.857909 308.124437 
L 114.932447 306.569583 
L 121.059475 303.811772 
L 126.722465 301.573248 
L 131.389607 299.901716 
L 136.195771 298.313635 
L 144.096407 295.942164 
L 155.353081 292.964488 
L 163.698393 290.993405 
L 173.948083 288.789397 
L 206.594893 282.916381 
L 239.807303 278.138159 
L 371.732989 264.997793 
L 371.732989 264.997793 
" style="fill:none;stroke:#91e8e1;stroke-linecap:square;"/>
   </g>
   <g id="line2d_77">
    <path clip-path="url(#pefe8d2ffba)" d="M 86.212295 352.502589 
L 86.330848 346.680006 
L 86.630211 342.928052 
L 87.102842 339.746447 
L 87.741691 336.916174 
L 88.564345 334.27034 
L 89.57112 331.780961 
L 90.742607 329.459579 
L 92.164212 327.142749 
L 93.803664 324.905866 
L 95.688878 322.717174 
L 97.882534 320.526262 
L 100.380756 318.360992 
L 103.328731 316.131099 
L 106.665488 313.917785 
L 109.395534 312.293548 
L 113.536388 310.076711 
L 117.572146 308.14119 
L 121.141724 306.576471 
L 126.893581 304.2874 
L 133.18061 302.046094 
L 138.961884 300.175608 
L 143.983905 298.672344 
L 160.363093 294.373129 
L 176.845446 290.729431 
L 187.775057 288.588005 
L 210.796167 284.609594 
L 262.554098 277.443357 
L 639.364209 250.453553 
L 639.364209 250.453553 
" style="fill:none;stroke:#7cb5ec;stroke-linecap:square;"/>
   </g>
   <g id="line2d_78">
    <path clip-path="url(#pefe8d2ffba)" d="M 86.212266 353.003037 
L 86.334219 349.234676 
L 86.664759 345.894535 
L 87.199515 342.735522 
L 87.937507 339.704208 
L 88.873294 336.790244 
L 90.012787 333.957764 
L 91.355598 331.201079 
L 92.914554 328.493818 
L 94.649081 325.896095 
L 96.668446 323.253885 
L 98.988575 320.582021 
L 101.42467 318.085489 
L 104.572606 315.20926 
L 107.585588 312.739005 
L 111.527023 309.827535 
L 116.153795 306.767732 
L 119.528779 304.729135 
L 123.874702 302.299097 
L 129.125739 299.604932 
L 135.121229 296.792815 
L 142.919835 293.473485 
L 149.607928 290.874402 
L 155.1171 288.876512 
L 169.202498 284.246144 
L 214.116871 272.567381 
L 357.978712 249.329685 
L 357.978712 249.329685 
" style="fill:none;stroke:#434348;stroke-linecap:square;"/>
   </g>
   <g id="line2d_79">
    <path clip-path="url(#pefe8d2ffba)" d="M 86.212316 352.372089 
L 86.330848 346.098202 
L 86.62775 342.170943 
L 87.095943 338.870666 
L 87.735508 335.92588 
L 88.547117 333.226288 
L 89.542071 330.68851 
L 90.698319 328.331044 
L 92.096193 325.991587 
L 93.598865 323.878195 
L 95.454987 321.652201 
L 97.347049 319.689843 
L 99.960355 317.339287 
L 102.991991 314.986612 
L 105.960728 312.965453 
L 109.313758 310.934147 
L 113.960004 308.451175 
L 117.900943 306.576504 
L 122.342321 304.661633 
L 125.692723 303.33081 
L 134.589632 300.169182 
L 140.597524 298.276405 
L 151.088293 295.324121 
L 161.798466 292.668216 
L 179.323138 288.894922 
L 208.857173 283.644495 
L 642.000146 249.645113 
L 642.000146 249.645113 
" style="fill:none;stroke:#90ed7d;stroke-linecap:square;"/>
   </g>
   <g id="line2d_80">
    <path clip-path="url(#pefe8d2ffba)" d="M 86.212339 352.155707 
L 86.33009 345.80464 
L 86.620137 342.131274 
L 87.0771 339.109053 
L 87.70153 336.449247 
L 88.49456 334.03479 
L 89.450508 331.817327 
L 90.592829 329.713142 
L 91.934417 327.695635 
L 93.511961 325.720556 
L 95.209463 323.915234 
L 97.417845 321.90606 
L 99.75848 320.071776 
L 102.439743 318.237882 
L 105.90111 316.176594 
L 110.215757 313.955544 
L 115.147012 311.757334 
L 119.573499 310.013102 
L 124.19089 308.371352 
L 127.960464 307.140158 
L 138.13026 304.196978 
L 147.532205 301.847902 
L 161.758517 298.775896 
L 170.377407 297.128749 
L 184.67161 294.667848 
L 258.894107 285.171442 
L 317.694454 279.791369 
L 502.583038 268.144045 
L 502.583038 268.144045 
" style="fill:none;stroke:#f7a35c;stroke-linecap:square;"/>
   </g>
   <g id="line2d_81">
    <path clip-path="url(#pefe8d2ffba)" d="M 86.212353 352.534899 
L 86.331748 346.853131 
L 86.634486 343.012186 
L 87.113608 339.707966 
L 87.768657 336.717623 
L 88.603523 333.937731 
L 89.619005 331.323246 
L 90.811643 328.852505 
L 92.209249 326.458199 
L 93.822043 324.129042 
L 95.6215 321.901386 
L 97.69406 319.67533 
L 100.042354 317.46947 
L 102.986326 315.049015 
L 106.575979 312.475608 
L 110.742641 309.867433 
L 114.795089 307.621379 
L 118.69258 305.669914 
L 122.057852 304.118267 
L 130.39005 300.692163 
L 146.588089 295.217964 
L 146.588089 295.217964 
" style="fill:none;stroke:#8085e9;stroke-linecap:square;"/>
   </g>
   <g id="line2d_82">
    <path clip-path="url(#pefe8d2ffba)" d="M 86.212216 352.695459 
L 86.331019 346.789555 
L 86.63673 342.692933 
L 87.12204 339.130587 
L 87.782364 335.901957 
L 88.622439 332.889707 
L 89.649305 330.032531 
L 90.847207 327.342815 
L 92.27185 324.693347 
L 93.915841 322.115386 
L 95.814238 319.568921 
L 97.937016 317.102907 
L 100.119628 314.871679 
L 102.921585 312.341076 
L 105.884922 309.971819 
L 108.910085 307.801926 
L 112.603036 305.417723 
L 117.230083 302.749332 
L 123.45389 299.584414 
L 132.135151 295.765704 
L 176.415313 282.033074 
L 176.415313 282.033074 
" style="fill:none;stroke:#f15c80;stroke-linecap:square;"/>
   </g>
   <g id="line2d_83">
    <path clip-path="url(#pefe8d2ffba)" d="M 43.148125 353.2239 
L 990.558125 353.2239 
" style="fill:none;stroke:#dedede;stroke-linecap:square;stroke-width:2;"/>
   </g>
   <g id="text_15">
    <!-- DupRadar General Linear Model -->
    <defs>
     <path d="M 19.671875 64.796875 
L 19.671875 8.109375 
L 31.59375 8.109375 
Q 46.6875 8.109375 53.6875 14.9375 
Q 60.6875 21.78125 60.6875 36.53125 
Q 60.6875 51.171875 53.6875 57.984375 
Q 46.6875 64.796875 31.59375 64.796875 
z
M 9.8125 72.90625 
L 30.078125 72.90625 
Q 51.265625 72.90625 61.171875 64.09375 
Q 71.09375 55.28125 71.09375 36.53125 
Q 71.09375 17.671875 61.125 8.828125 
Q 51.171875 0 30.078125 0 
L 9.8125 0 
z
" id="DejaVuSans-68"/>
     <path d="M 44.390625 34.1875 
Q 47.5625 33.109375 50.5625 29.59375 
Q 53.5625 26.078125 56.59375 19.921875 
L 66.609375 0 
L 56 0 
L 46.6875 18.703125 
Q 43.0625 26.03125 39.671875 28.421875 
Q 36.28125 30.8125 30.421875 30.8125 
L 19.671875 30.8125 
L 19.671875 0 
L 9.8125 0 
L 9.8125 72.90625 
L 32.078125 72.90625 
Q 44.578125 72.90625 50.734375 67.671875 
Q 56.890625 62.453125 56.890625 51.90625 
Q 56.890625 45.015625 53.6875 40.46875 
Q 50.484375 35.9375 44.390625 34.1875 
z
M 19.671875 64.796875 
L 19.671875 38.921875 
L 32.078125 38.921875 
Q 39.203125 38.921875 42.84375 42.21875 
Q 46.484375 45.515625 46.484375 51.90625 
Q 46.484375 58.296875 42.84375 61.546875 
Q 39.203125 64.796875 32.078125 64.796875 
z
" id="DejaVuSans-82"/>
     <path d="M 59.515625 10.40625 
L 59.515625 29.984375 
L 43.40625 29.984375 
L 43.40625 38.09375 
L 69.28125 38.09375 
L 69.28125 6.78125 
Q 63.578125 2.734375 56.6875 0.65625 
Q 49.8125 -1.421875 42 -1.421875 
Q 24.90625 -1.421875 15.25 8.5625 
Q 5.609375 18.5625 5.609375 36.375 
Q 5.609375 54.25 15.25 64.234375 
Q 24.90625 74.21875 42 74.21875 
Q 49.125 74.21875 55.546875 72.453125 
Q 61.96875 70.703125 67.390625 67.28125 
L 67.390625 56.78125 
Q 61.921875 61.421875 55.765625 63.765625 
Q 49.609375 66.109375 42.828125 66.109375 
Q 29.4375 66.109375 22.71875 58.640625 
Q 16.015625 51.171875 16.015625 36.375 
Q 16.015625 21.625 22.71875 14.15625 
Q 29.4375 6.6875 42.828125 6.6875 
Q 48.046875 6.6875 52.140625 7.59375 
Q 56.25 8.5 59.515625 10.40625 
z
" id="DejaVuSans-71"/>
     <path d="M 9.8125 72.90625 
L 19.671875 72.90625 
L 19.671875 8.296875 
L 55.171875 8.296875 
L 55.171875 0 
L 9.8125 0 
z
" id="DejaVuSans-76"/>
     <path d="M 9.8125 72.90625 
L 24.515625 72.90625 
L 43.109375 23.296875 
L 61.8125 72.90625 
L 76.515625 72.90625 
L 76.515625 0 
L 66.890625 0 
L 66.890625 64.015625 
L 48.09375 14.015625 
L 38.1875 14.015625 
L 19.390625 64.015625 
L 19.390625 0 
L 9.8125 0 
z
" id="DejaVuSans-77"/>
    </defs>
    <g transform="translate(388.775625 19.3575)scale(0.16 -0.16)">
     <use xlink:href="#DejaVuSans-68"/>
     <use x="77.001953" xlink:href="#DejaVuSans-117"/>
     <use x="140.380859" xlink:href="#DejaVuSans-112"/>
     <use x="203.857422" xlink:href="#DejaVuSans-82"/>
     <use x="273.308594" xlink:href="#DejaVuSans-97"/>
     <use x="334.587891" xlink:href="#DejaVuSans-100"/>
     <use x="398.064453" xlink:href="#DejaVuSans-97"/>
     <use x="459.34375" xlink:href="#DejaVuSans-114"/>
     <use x="500.457031" xlink:href="#DejaVuSans-32"/>
     <use x="532.244141" xlink:href="#DejaVuSans-71"/>
     <use x="609.734375" xlink:href="#DejaVuSans-101"/>
     <use x="671.257812" xlink:href="#DejaVuSans-110"/>
     <use x="734.636719" xlink:href="#DejaVuSans-101"/>
     <use x="796.160156" xlink:href="#DejaVuSans-114"/>
     <use x="837.273438" xlink:href="#DejaVuSans-97"/>
     <use x="898.552734" xlink:href="#DejaVuSans-108"/>
     <use x="926.335938" xlink:href="#DejaVuSans-32"/>
     <use x="958.123047" xlink:href="#DejaVuSans-76"/>
     <use x="1013.835938" xlink:href="#DejaVuSans-105"/>
     <use x="1041.619141" xlink:href="#DejaVuSans-110"/>
     <use x="1104.998047" xlink:href="#DejaVuSans-101"/>
     <use x="1166.521484" xlink:href="#DejaVuSans-97"/>
     <use x="1227.800781" xlink:href="#DejaVuSans-114"/>
     <use x="1268.914062" xlink:href="#DejaVuSans-32"/>
     <use x="1300.701172" xlink:href="#DejaVuSans-77"/>
     <use x="1386.980469" xlink:href="#DejaVuSans-111"/>
     <use x="1448.162109" xlink:href="#DejaVuSans-100"/>
     <use x="1511.638672" xlink:href="#DejaVuSans-101"/>
     <use x="1573.162109" xlink:href="#DejaVuSans-108"/>
    </g>
   </g>
  </g>
 </g>
 <defs>
  <clipPath id="pefe8d2ffba">
   <rect height="317.968" width="947.41" x="43.148125" y="35.2559"/>
  </clipPath>
 </defs>
</svg>
