<?xml version="1.0" encoding="utf-8" standalone="no"?>
<!DOCTYPE svg PUBLIC "-//W3C//DTD SVG 1.1//EN"
  "http://www.w3.org/Graphics/SVG/1.1/DTD/svg11.dtd">
<!-- Created with matplotlib (https://matplotlib.org/) -->
<svg height="388.844525pt" version="1.1" viewBox="0 0 1000.098125 388.844525" width="1000.098125pt" xmlns="http://www.w3.org/2000/svg" xmlns:xlink="http://www.w3.org/1999/xlink">
 <defs>
  <style type="text/css">
*{stroke-linecap:butt;stroke-linejoin:round;}
  </style>
 </defs>
 <g id="figure_1">
  <g id="patch_1">
   <path d="M 0 388.844525 
L 1000.098125 388.844525 
L 1000.098125 0 
L 0 0 
z
" style="fill:#ffffff;"/>
  </g>
  <g id="axes_1">
   <g id="patch_2">
    <path d="M 58.418125 353.2239 
L 985.263125 353.2239 
L 985.263125 35.2559 
L 58.418125 35.2559 
z
" style="fill:#ffffff;"/>
   </g>
   <g id="matplotlib.axis_1">
    <g id="xtick_1">
     <g id="text_1">
      <!-- 0 -->
      <defs>
       <path d="M 31.78125 66.40625 
Q 24.171875 66.40625 20.328125 58.90625 
Q 16.5 51.421875 16.5 36.375 
Q 16.5 21.390625 20.328125 13.890625 
Q 24.171875 6.390625 31.78125 6.390625 
Q 39.453125 6.390625 43.28125 13.890625 
Q 47.125 21.390625 47.125 36.375 
Q 47.125 51.421875 43.28125 58.90625 
Q 39.453125 66.40625 31.78125 66.40625 
z
M 31.78125 74.21875 
Q 44.046875 74.21875 50.515625 64.515625 
Q 56.984375 54.828125 56.984375 36.375 
Q 56.984375 17.96875 50.515625 8.265625 
Q 44.046875 -1.421875 31.78125 -1.421875 
Q 19.53125 -1.421875 13.0625 8.265625 
Q 6.59375 17.96875 6.59375 36.375 
Q 6.59375 54.828125 13.0625 64.515625 
Q 19.53125 74.21875 31.78125 74.21875 
z
" id="DejaVuSans-48"/>
      </defs>
      <g transform="translate(55.873125 366.30265)scale(0.08 -0.08)">
       <use xlink:href="#DejaVuSans-48"/>
      </g>
     </g>
    </g>
    <g id="xtick_2">
     <g id="text_2">
      <!-- 20 -->
      <defs>
       <path d="M 19.1875 8.296875 
L 53.609375 8.296875 
L 53.609375 0 
L 7.328125 0 
L 7.328125 8.296875 
Q 12.9375 14.109375 22.625 23.890625 
Q 32.328125 33.6875 34.8125 36.53125 
Q 39.546875 41.84375 41.421875 45.53125 
Q 43.3125 49.21875 43.3125 52.78125 
Q 43.3125 58.59375 39.234375 62.25 
Q 35.15625 65.921875 28.609375 65.921875 
Q 23.96875 65.921875 18.8125 64.3125 
Q 13.671875 62.703125 7.8125 59.421875 
L 7.8125 69.390625 
Q 13.765625 71.78125 18.9375 73 
Q 24.125 74.21875 28.421875 74.21875 
Q 39.75 74.21875 46.484375 68.546875 
Q 53.21875 62.890625 53.21875 53.421875 
Q 53.21875 48.921875 51.53125 44.890625 
Q 49.859375 40.875 45.40625 35.40625 
Q 44.1875 33.984375 37.640625 27.21875 
Q 31.109375 20.453125 19.1875 8.296875 
z
" id="DejaVuSans-50"/>
      </defs>
      <g transform="translate(238.697125 366.30265)scale(0.08 -0.08)">
       <use xlink:href="#DejaVuSans-50"/>
       <use x="63.623047" xlink:href="#DejaVuSans-48"/>
      </g>
     </g>
    </g>
    <g id="xtick_3">
     <g id="text_3">
      <!-- 40 -->
      <defs>
       <path d="M 37.796875 64.3125 
L 12.890625 25.390625 
L 37.796875 25.390625 
z
M 35.203125 72.90625 
L 47.609375 72.90625 
L 47.609375 25.390625 
L 58.015625 25.390625 
L 58.015625 17.1875 
L 47.609375 17.1875 
L 47.609375 0 
L 37.796875 0 
L 37.796875 17.1875 
L 4.890625 17.1875 
L 4.890625 26.703125 
z
" id="DejaVuSans-52"/>
      </defs>
      <g transform="translate(424.066125 366.30265)scale(0.08 -0.08)">
       <use xlink:href="#DejaVuSans-52"/>
       <use x="63.623047" xlink:href="#DejaVuSans-48"/>
      </g>
     </g>
    </g>
    <g id="xtick_4">
     <g id="text_4">
      <!-- 60 -->
      <defs>
       <path d="M 33.015625 40.375 
Q 26.375 40.375 22.484375 35.828125 
Q 18.609375 31.296875 18.609375 23.390625 
Q 18.609375 15.53125 22.484375 10.953125 
Q 26.375 6.390625 33.015625 6.390625 
Q 39.65625 6.390625 43.53125 10.953125 
Q 47.40625 15.53125 47.40625 23.390625 
Q 47.40625 31.296875 43.53125 35.828125 
Q 39.65625 40.375 33.015625 40.375 
z
M 52.59375 71.296875 
L 52.59375 62.3125 
Q 48.875 64.0625 45.09375 64.984375 
Q 41.3125 65.921875 37.59375 65.921875 
Q 27.828125 65.921875 22.671875 59.328125 
Q 17.53125 52.734375 16.796875 39.40625 
Q 19.671875 43.65625 24.015625 45.921875 
Q 28.375 48.1875 33.59375 48.1875 
Q 44.578125 48.1875 50.953125 41.515625 
Q 57.328125 34.859375 57.328125 23.390625 
Q 57.328125 12.15625 50.6875 5.359375 
Q 44.046875 -1.421875 33.015625 -1.421875 
Q 20.359375 -1.421875 13.671875 8.265625 
Q 6.984375 17.96875 6.984375 36.375 
Q 6.984375 53.65625 15.1875 63.9375 
Q 23.390625 74.21875 37.203125 74.21875 
Q 40.921875 74.21875 44.703125 73.484375 
Q 48.484375 72.75 52.59375 71.296875 
z
" id="DejaVuSans-54"/>
      </defs>
      <g transform="translate(609.435125 366.30265)scale(0.08 -0.08)">
       <use xlink:href="#DejaVuSans-54"/>
       <use x="63.623047" xlink:href="#DejaVuSans-48"/>
      </g>
     </g>
    </g>
    <g id="xtick_5">
     <g id="text_5">
      <!-- 80 -->
      <defs>
       <path d="M 31.78125 34.625 
Q 24.75 34.625 20.71875 30.859375 
Q 16.703125 27.09375 16.703125 20.515625 
Q 16.703125 13.921875 20.71875 10.15625 
Q 24.75 6.390625 31.78125 6.390625 
Q 38.8125 6.390625 42.859375 10.171875 
Q 46.921875 13.96875 46.921875 20.515625 
Q 46.921875 27.09375 42.890625 30.859375 
Q 38.875 34.625 31.78125 34.625 
z
M 21.921875 38.8125 
Q 15.578125 40.375 12.03125 44.71875 
Q 8.5 49.078125 8.5 55.328125 
Q 8.5 64.0625 14.71875 69.140625 
Q 20.953125 74.21875 31.78125 74.21875 
Q 42.671875 74.21875 48.875 69.140625 
Q 55.078125 64.0625 55.078125 55.328125 
Q 55.078125 49.078125 51.53125 44.71875 
Q 48 40.375 41.703125 38.8125 
Q 48.828125 37.15625 52.796875 32.3125 
Q 56.78125 27.484375 56.78125 20.515625 
Q 56.78125 9.90625 50.3125 4.234375 
Q 43.84375 -1.421875 31.78125 -1.421875 
Q 19.734375 -1.421875 13.25 4.234375 
Q 6.78125 9.90625 6.78125 20.515625 
Q 6.78125 27.484375 10.78125 32.3125 
Q 14.796875 37.15625 21.921875 38.8125 
z
M 18.3125 54.390625 
Q 18.3125 48.734375 21.84375 45.5625 
Q 25.390625 42.390625 31.78125 42.390625 
Q 38.140625 42.390625 41.71875 45.5625 
Q 45.3125 48.734375 45.3125 54.390625 
Q 45.3125 60.0625 41.71875 63.234375 
Q 38.140625 66.40625 31.78125 66.40625 
Q 25.390625 66.40625 21.84375 63.234375 
Q 18.3125 60.0625 18.3125 54.390625 
z
" id="DejaVuSans-56"/>
      </defs>
      <g transform="translate(794.804125 366.30265)scale(0.08 -0.08)">
       <use xlink:href="#DejaVuSans-56"/>
       <use x="63.623047" xlink:href="#DejaVuSans-48"/>
      </g>
     </g>
    </g>
    <g id="xtick_6">
     <g id="text_6">
      <!-- 100 -->
      <defs>
       <path d="M 12.40625 8.296875 
L 28.515625 8.296875 
L 28.515625 63.921875 
L 10.984375 60.40625 
L 10.984375 69.390625 
L 28.421875 72.90625 
L 38.28125 72.90625 
L 38.28125 8.296875 
L 54.390625 8.296875 
L 54.390625 0 
L 12.40625 0 
z
" id="DejaVuSans-49"/>
      </defs>
      <g transform="translate(977.628125 366.30265)scale(0.08 -0.08)">
       <use xlink:href="#DejaVuSans-49"/>
       <use x="63.623047" xlink:href="#DejaVuSans-48"/>
       <use x="127.246094" xlink:href="#DejaVuSans-48"/>
      </g>
     </g>
    </g>
    <g id="text_7">
     <!-- Percent of reads -->
     <defs>
      <path d="M 19.671875 64.796875 
L 19.671875 37.40625 
L 32.078125 37.40625 
Q 38.96875 37.40625 42.71875 40.96875 
Q 46.484375 44.53125 46.484375 51.125 
Q 46.484375 57.671875 42.71875 61.234375 
Q 38.96875 64.796875 32.078125 64.796875 
z
M 9.8125 72.90625 
L 32.078125 72.90625 
Q 44.34375 72.90625 50.609375 67.359375 
Q 56.890625 61.8125 56.890625 51.125 
Q 56.890625 40.328125 50.609375 34.8125 
Q 44.34375 29.296875 32.078125 29.296875 
L 19.671875 29.296875 
L 19.671875 0 
L 9.8125 0 
z
" id="DejaVuSans-80"/>
      <path d="M 56.203125 29.59375 
L 56.203125 25.203125 
L 14.890625 25.203125 
Q 15.484375 15.921875 20.484375 11.0625 
Q 25.484375 6.203125 34.421875 6.203125 
Q 39.59375 6.203125 44.453125 7.46875 
Q 49.3125 8.734375 54.109375 11.28125 
L 54.109375 2.78125 
Q 49.265625 0.734375 44.1875 -0.34375 
Q 39.109375 -1.421875 33.890625 -1.421875 
Q 20.796875 -1.421875 13.15625 6.1875 
Q 5.515625 13.8125 5.515625 26.8125 
Q 5.515625 40.234375 12.765625 48.109375 
Q 20.015625 56 32.328125 56 
Q 43.359375 56 49.78125 48.890625 
Q 56.203125 41.796875 56.203125 29.59375 
z
M 47.21875 32.234375 
Q 47.125 39.59375 43.09375 43.984375 
Q 39.0625 48.390625 32.421875 48.390625 
Q 24.90625 48.390625 20.390625 44.140625 
Q 15.875 39.890625 15.1875 32.171875 
z
" id="DejaVuSans-101"/>
      <path d="M 41.109375 46.296875 
Q 39.59375 47.171875 37.8125 47.578125 
Q 36.03125 48 33.890625 48 
Q 26.265625 48 22.1875 43.046875 
Q 18.109375 38.09375 18.109375 28.8125 
L 18.109375 0 
L 9.078125 0 
L 9.078125 54.6875 
L 18.109375 54.6875 
L 18.109375 46.1875 
Q 20.953125 51.171875 25.484375 53.578125 
Q 30.03125 56 36.53125 56 
Q 37.453125 56 38.578125 55.875 
Q 39.703125 55.765625 41.0625 55.515625 
z
" id="DejaVuSans-114"/>
      <path d="M 48.78125 52.59375 
L 48.78125 44.1875 
Q 44.96875 46.296875 41.140625 47.34375 
Q 37.3125 48.390625 33.40625 48.390625 
Q 24.65625 48.390625 19.8125 42.84375 
Q 14.984375 37.3125 14.984375 27.296875 
Q 14.984375 17.28125 19.8125 11.734375 
Q 24.65625 6.203125 33.40625 6.203125 
Q 37.3125 6.203125 41.140625 7.25 
Q 44.96875 8.296875 48.78125 10.40625 
L 48.78125 2.09375 
Q 45.015625 0.34375 40.984375 -0.53125 
Q 36.96875 -1.421875 32.421875 -1.421875 
Q 20.0625 -1.421875 12.78125 6.34375 
Q 5.515625 14.109375 5.515625 27.296875 
Q 5.515625 40.671875 12.859375 48.328125 
Q 20.21875 56 33.015625 56 
Q 37.15625 56 41.109375 55.140625 
Q 45.0625 54.296875 48.78125 52.59375 
z
" id="DejaVuSans-99"/>
      <path d="M 54.890625 33.015625 
L 54.890625 0 
L 45.90625 0 
L 45.90625 32.71875 
Q 45.90625 40.484375 42.875 44.328125 
Q 39.84375 48.1875 33.796875 48.1875 
Q 26.515625 48.1875 22.3125 43.546875 
Q 18.109375 38.921875 18.109375 30.90625 
L 18.109375 0 
L 9.078125 0 
L 9.078125 54.6875 
L 18.109375 54.6875 
L 18.109375 46.1875 
Q 21.34375 51.125 25.703125 53.5625 
Q 30.078125 56 35.796875 56 
Q 45.21875 56 50.046875 50.171875 
Q 54.890625 44.34375 54.890625 33.015625 
z
" id="DejaVuSans-110"/>
      <path d="M 18.3125 70.21875 
L 18.3125 54.6875 
L 36.8125 54.6875 
L 36.8125 47.703125 
L 18.3125 47.703125 
L 18.3125 18.015625 
Q 18.3125 11.328125 20.140625 9.421875 
Q 21.96875 7.515625 27.59375 7.515625 
L 36.8125 7.515625 
L 36.8125 0 
L 27.59375 0 
Q 17.1875 0 13.234375 3.875 
Q 9.28125 7.765625 9.28125 18.015625 
L 9.28125 47.703125 
L 2.6875 47.703125 
L 2.6875 54.6875 
L 9.28125 54.6875 
L 9.28125 70.21875 
z
" id="DejaVuSans-116"/>
      <path id="DejaVuSans-32"/>
      <path d="M 30.609375 48.390625 
Q 23.390625 48.390625 19.1875 42.75 
Q 14.984375 37.109375 14.984375 27.296875 
Q 14.984375 17.484375 19.15625 11.84375 
Q 23.34375 6.203125 30.609375 6.203125 
Q 37.796875 6.203125 41.984375 11.859375 
Q 46.1875 17.53125 46.1875 27.296875 
Q 46.1875 37.015625 41.984375 42.703125 
Q 37.796875 48.390625 30.609375 48.390625 
z
M 30.609375 56 
Q 42.328125 56 49.015625 48.375 
Q 55.71875 40.765625 55.71875 27.296875 
Q 55.71875 13.875 49.015625 6.21875 
Q 42.328125 -1.421875 30.609375 -1.421875 
Q 18.84375 -1.421875 12.171875 6.21875 
Q 5.515625 13.875 5.515625 27.296875 
Q 5.515625 40.765625 12.171875 48.375 
Q 18.84375 56 30.609375 56 
z
" id="DejaVuSans-111"/>
      <path d="M 37.109375 75.984375 
L 37.109375 68.5 
L 28.515625 68.5 
Q 23.6875 68.5 21.796875 66.546875 
Q 19.921875 64.59375 19.921875 59.515625 
L 19.921875 54.6875 
L 34.71875 54.6875 
L 34.71875 47.703125 
L 19.921875 47.703125 
L 19.921875 0 
L 10.890625 0 
L 10.890625 47.703125 
L 2.296875 47.703125 
L 2.296875 54.6875 
L 10.890625 54.6875 
L 10.890625 58.5 
Q 10.890625 67.625 15.140625 71.796875 
Q 19.390625 75.984375 28.609375 75.984375 
z
" id="DejaVuSans-102"/>
      <path d="M 34.28125 27.484375 
Q 23.390625 27.484375 19.1875 25 
Q 14.984375 22.515625 14.984375 16.5 
Q 14.984375 11.71875 18.140625 8.90625 
Q 21.296875 6.109375 26.703125 6.109375 
Q 34.1875 6.109375 38.703125 11.40625 
Q 43.21875 16.703125 43.21875 25.484375 
L 43.21875 27.484375 
z
M 52.203125 31.203125 
L 52.203125 0 
L 43.21875 0 
L 43.21875 8.296875 
Q 40.140625 3.328125 35.546875 0.953125 
Q 30.953125 -1.421875 24.3125 -1.421875 
Q 15.921875 -1.421875 10.953125 3.296875 
Q 6 8.015625 6 15.921875 
Q 6 25.140625 12.171875 29.828125 
Q 18.359375 34.515625 30.609375 34.515625 
L 43.21875 34.515625 
L 43.21875 35.40625 
Q 43.21875 41.609375 39.140625 45 
Q 35.0625 48.390625 27.6875 48.390625 
Q 23 48.390625 18.546875 47.265625 
Q 14.109375 46.140625 10.015625 43.890625 
L 10.015625 52.203125 
Q 14.9375 54.109375 19.578125 55.046875 
Q 24.21875 56 28.609375 56 
Q 40.484375 56 46.34375 49.84375 
Q 52.203125 43.703125 52.203125 31.203125 
z
" id="DejaVuSans-97"/>
      <path d="M 45.40625 46.390625 
L 45.40625 75.984375 
L 54.390625 75.984375 
L 54.390625 0 
L 45.40625 0 
L 45.40625 8.203125 
Q 42.578125 3.328125 38.25 0.953125 
Q 33.9375 -1.421875 27.875 -1.421875 
Q 17.96875 -1.421875 11.734375 6.484375 
Q 5.515625 14.40625 5.515625 27.296875 
Q 5.515625 40.1875 11.734375 48.09375 
Q 17.96875 56 27.875 56 
Q 33.9375 56 38.25 53.625 
Q 42.578125 51.265625 45.40625 46.390625 
z
M 14.796875 27.296875 
Q 14.796875 17.390625 18.875 11.75 
Q 22.953125 6.109375 30.078125 6.109375 
Q 37.203125 6.109375 41.296875 11.75 
Q 45.40625 17.390625 45.40625 27.296875 
Q 45.40625 37.203125 41.296875 42.84375 
Q 37.203125 48.484375 30.078125 48.484375 
Q 22.953125 48.484375 18.875 42.84375 
Q 14.796875 37.203125 14.796875 27.296875 
z
" id="DejaVuSans-100"/>
      <path d="M 44.28125 53.078125 
L 44.28125 44.578125 
Q 40.484375 46.53125 36.375 47.5 
Q 32.28125 48.484375 27.875 48.484375 
Q 21.1875 48.484375 17.84375 46.4375 
Q 14.5 44.390625 14.5 40.28125 
Q 14.5 37.15625 16.890625 35.375 
Q 19.28125 33.59375 26.515625 31.984375 
L 29.59375 31.296875 
Q 39.15625 29.25 43.1875 25.515625 
Q 47.21875 21.78125 47.21875 15.09375 
Q 47.21875 7.46875 41.1875 3.015625 
Q 35.15625 -1.421875 24.609375 -1.421875 
Q 20.21875 -1.421875 15.453125 -0.5625 
Q 10.6875 0.296875 5.421875 2 
L 5.421875 11.28125 
Q 10.40625 8.6875 15.234375 7.390625 
Q 20.0625 6.109375 24.8125 6.109375 
Q 31.15625 6.109375 34.5625 8.28125 
Q 37.984375 10.453125 37.984375 14.40625 
Q 37.984375 18.0625 35.515625 20.015625 
Q 33.0625 21.96875 24.703125 23.78125 
L 21.578125 24.515625 
Q 13.234375 26.265625 9.515625 29.90625 
Q 5.8125 33.546875 5.8125 39.890625 
Q 5.8125 47.609375 11.28125 51.796875 
Q 16.75 56 26.8125 56 
Q 31.78125 56 36.171875 55.265625 
Q 40.578125 54.546875 44.28125 53.078125 
z
" id="DejaVuSans-115"/>
     </defs>
     <g transform="translate(480.771875 379.564837)scale(0.1 -0.1)">
      <use xlink:href="#DejaVuSans-80"/>
      <use x="60.255859" xlink:href="#DejaVuSans-101"/>
      <use x="121.779297" xlink:href="#DejaVuSans-114"/>
      <use x="162.861328" xlink:href="#DejaVuSans-99"/>
      <use x="217.841797" xlink:href="#DejaVuSans-101"/>
      <use x="279.365234" xlink:href="#DejaVuSans-110"/>
      <use x="342.744141" xlink:href="#DejaVuSans-116"/>
      <use x="381.953125" xlink:href="#DejaVuSans-32"/>
      <use x="413.740234" xlink:href="#DejaVuSans-111"/>
      <use x="474.921875" xlink:href="#DejaVuSans-102"/>
      <use x="510.126953" xlink:href="#DejaVuSans-32"/>
      <use x="541.914062" xlink:href="#DejaVuSans-114"/>
      <use x="582.996094" xlink:href="#DejaVuSans-101"/>
      <use x="644.519531" xlink:href="#DejaVuSans-97"/>
      <use x="705.798828" xlink:href="#DejaVuSans-100"/>
      <use x="769.275391" xlink:href="#DejaVuSans-115"/>
     </g>
    </g>
   </g>
   <g id="matplotlib.axis_2">
    <g id="ytick_1">
     <g id="line2d_1">
      <path clip-path="url(#pa85dc779e7)" d="M 58.418125 353.2239 
L 985.263125 353.2239 
" style="fill:none;stroke:#dedede;stroke-linecap:square;"/>
     </g>
     <g id="text_8">
      <!-- 0 -->
      <g transform="translate(46.328125 356.263275)scale(0.08 -0.08)">
       <use xlink:href="#DejaVuSans-48"/>
      </g>
     </g>
    </g>
    <g id="ytick_2">
     <g id="line2d_2">
      <path clip-path="url(#pa85dc779e7)" d="M 58.418125 308.034481 
L 985.263125 308.034481 
" style="fill:none;stroke:#dedede;stroke-linecap:square;"/>
     </g>
     <g id="text_9">
      <!-- 20000 -->
      <g transform="translate(25.968125 311.073856)scale(0.08 -0.08)">
       <use xlink:href="#DejaVuSans-50"/>
       <use x="63.623047" xlink:href="#DejaVuSans-48"/>
       <use x="127.246094" xlink:href="#DejaVuSans-48"/>
       <use x="190.869141" xlink:href="#DejaVuSans-48"/>
       <use x="254.492188" xlink:href="#DejaVuSans-48"/>
      </g>
     </g>
    </g>
    <g id="ytick_3">
     <g id="line2d_3">
      <path clip-path="url(#pa85dc779e7)" d="M 58.418125 262.845063 
L 985.263125 262.845063 
" style="fill:none;stroke:#dedede;stroke-linecap:square;"/>
     </g>
     <g id="text_10">
      <!-- 40000 -->
      <g transform="translate(25.968125 265.884438)scale(0.08 -0.08)">
       <use xlink:href="#DejaVuSans-52"/>
       <use x="63.623047" xlink:href="#DejaVuSans-48"/>
       <use x="127.246094" xlink:href="#DejaVuSans-48"/>
       <use x="190.869141" xlink:href="#DejaVuSans-48"/>
       <use x="254.492188" xlink:href="#DejaVuSans-48"/>
      </g>
     </g>
    </g>
    <g id="ytick_4">
     <g id="line2d_4">
      <path clip-path="url(#pa85dc779e7)" d="M 58.418125 217.655644 
L 985.263125 217.655644 
" style="fill:none;stroke:#dedede;stroke-linecap:square;"/>
     </g>
     <g id="text_11">
      <!-- 60000 -->
      <g transform="translate(25.968125 220.695019)scale(0.08 -0.08)">
       <use xlink:href="#DejaVuSans-54"/>
       <use x="63.623047" xlink:href="#DejaVuSans-48"/>
       <use x="127.246094" xlink:href="#DejaVuSans-48"/>
       <use x="190.869141" xlink:href="#DejaVuSans-48"/>
       <use x="254.492188" xlink:href="#DejaVuSans-48"/>
      </g>
     </g>
    </g>
    <g id="ytick_5">
     <g id="line2d_5">
      <path clip-path="url(#pa85dc779e7)" d="M 58.418125 172.466226 
L 985.263125 172.466226 
" style="fill:none;stroke:#dedede;stroke-linecap:square;"/>
     </g>
     <g id="text_12">
      <!-- 80000 -->
      <g transform="translate(25.968125 175.505601)scale(0.08 -0.08)">
       <use xlink:href="#DejaVuSans-56"/>
       <use x="63.623047" xlink:href="#DejaVuSans-48"/>
       <use x="127.246094" xlink:href="#DejaVuSans-48"/>
       <use x="190.869141" xlink:href="#DejaVuSans-48"/>
       <use x="254.492188" xlink:href="#DejaVuSans-48"/>
      </g>
     </g>
    </g>
    <g id="ytick_6">
     <g id="line2d_6">
      <path clip-path="url(#pa85dc779e7)" d="M 58.418125 127.276807 
L 985.263125 127.276807 
" style="fill:none;stroke:#dedede;stroke-linecap:square;"/>
     </g>
     <g id="text_13">
      <!-- 100000 -->
      <g transform="translate(20.878125 130.316182)scale(0.08 -0.08)">
       <use xlink:href="#DejaVuSans-49"/>
       <use x="63.623047" xlink:href="#DejaVuSans-48"/>
       <use x="127.246094" xlink:href="#DejaVuSans-48"/>
       <use x="190.869141" xlink:href="#DejaVuSans-48"/>
       <use x="254.492188" xlink:href="#DejaVuSans-48"/>
       <use x="318.115234" xlink:href="#DejaVuSans-48"/>
      </g>
     </g>
    </g>
    <g id="ytick_7">
     <g id="line2d_7">
      <path clip-path="url(#pa85dc779e7)" d="M 58.418125 82.087389 
L 985.263125 82.087389 
" style="fill:none;stroke:#dedede;stroke-linecap:square;"/>
     </g>
     <g id="text_14">
      <!-- 120000 -->
      <g transform="translate(20.878125 85.126764)scale(0.08 -0.08)">
       <use xlink:href="#DejaVuSans-49"/>
       <use x="63.623047" xlink:href="#DejaVuSans-50"/>
       <use x="127.246094" xlink:href="#DejaVuSans-48"/>
       <use x="190.869141" xlink:href="#DejaVuSans-48"/>
       <use x="254.492188" xlink:href="#DejaVuSans-48"/>
       <use x="318.115234" xlink:href="#DejaVuSans-48"/>
      </g>
     </g>
    </g>
    <g id="ytick_8">
     <g id="line2d_8">
      <path clip-path="url(#pa85dc779e7)" d="M 58.418125 36.89797 
L 985.263125 36.89797 
" style="fill:none;stroke:#dedede;stroke-linecap:square;"/>
     </g>
     <g id="text_15">
      <!-- 140000 -->
      <g transform="translate(20.878125 39.937345)scale(0.08 -0.08)">
       <use xlink:href="#DejaVuSans-49"/>
       <use x="63.623047" xlink:href="#DejaVuSans-52"/>
       <use x="127.246094" xlink:href="#DejaVuSans-48"/>
       <use x="190.869141" xlink:href="#DejaVuSans-48"/>
       <use x="254.492188" xlink:href="#DejaVuSans-48"/>
       <use x="318.115234" xlink:href="#DejaVuSans-48"/>
      </g>
     </g>
    </g>
    <g id="text_16">
     <!-- Number of Junctions -->
     <defs>
      <path d="M 9.8125 72.90625 
L 23.09375 72.90625 
L 55.421875 11.921875 
L 55.421875 72.90625 
L 64.984375 72.90625 
L 64.984375 0 
L 51.703125 0 
L 19.390625 60.984375 
L 19.390625 0 
L 9.8125 0 
z
" id="DejaVuSans-78"/>
      <path d="M 8.5 21.578125 
L 8.5 54.6875 
L 17.484375 54.6875 
L 17.484375 21.921875 
Q 17.484375 14.15625 20.5 10.265625 
Q 23.53125 6.390625 29.59375 6.390625 
Q 36.859375 6.390625 41.078125 11.03125 
Q 45.3125 15.671875 45.3125 23.6875 
L 45.3125 54.6875 
L 54.296875 54.6875 
L 54.296875 0 
L 45.3125 0 
L 45.3125 8.40625 
Q 42.046875 3.421875 37.71875 1 
Q 33.40625 -1.421875 27.6875 -1.421875 
Q 18.265625 -1.421875 13.375 4.4375 
Q 8.5 10.296875 8.5 21.578125 
z
M 31.109375 56 
z
" id="DejaVuSans-117"/>
      <path d="M 52 44.1875 
Q 55.375 50.25 60.0625 53.125 
Q 64.75 56 71.09375 56 
Q 79.640625 56 84.28125 50.015625 
Q 88.921875 44.046875 88.921875 33.015625 
L 88.921875 0 
L 79.890625 0 
L 79.890625 32.71875 
Q 79.890625 40.578125 77.09375 44.375 
Q 74.3125 48.1875 68.609375 48.1875 
Q 61.625 48.1875 57.5625 43.546875 
Q 53.515625 38.921875 53.515625 30.90625 
L 53.515625 0 
L 44.484375 0 
L 44.484375 32.71875 
Q 44.484375 40.625 41.703125 44.40625 
Q 38.921875 48.1875 33.109375 48.1875 
Q 26.21875 48.1875 22.15625 43.53125 
Q 18.109375 38.875 18.109375 30.90625 
L 18.109375 0 
L 9.078125 0 
L 9.078125 54.6875 
L 18.109375 54.6875 
L 18.109375 46.1875 
Q 21.1875 51.21875 25.484375 53.609375 
Q 29.78125 56 35.6875 56 
Q 41.65625 56 45.828125 52.96875 
Q 50 49.953125 52 44.1875 
z
" id="DejaVuSans-109"/>
      <path d="M 48.6875 27.296875 
Q 48.6875 37.203125 44.609375 42.84375 
Q 40.53125 48.484375 33.40625 48.484375 
Q 26.265625 48.484375 22.1875 42.84375 
Q 18.109375 37.203125 18.109375 27.296875 
Q 18.109375 17.390625 22.1875 11.75 
Q 26.265625 6.109375 33.40625 6.109375 
Q 40.53125 6.109375 44.609375 11.75 
Q 48.6875 17.390625 48.6875 27.296875 
z
M 18.109375 46.390625 
Q 20.953125 51.265625 25.265625 53.625 
Q 29.59375 56 35.59375 56 
Q 45.5625 56 51.78125 48.09375 
Q 58.015625 40.1875 58.015625 27.296875 
Q 58.015625 14.40625 51.78125 6.484375 
Q 45.5625 -1.421875 35.59375 -1.421875 
Q 29.59375 -1.421875 25.265625 0.953125 
Q 20.953125 3.328125 18.109375 8.203125 
L 18.109375 0 
L 9.078125 0 
L 9.078125 75.984375 
L 18.109375 75.984375 
z
" id="DejaVuSans-98"/>
      <path d="M 9.8125 72.90625 
L 19.671875 72.90625 
L 19.671875 5.078125 
Q 19.671875 -8.109375 14.671875 -14.0625 
Q 9.671875 -20.015625 -1.421875 -20.015625 
L -5.171875 -20.015625 
L -5.171875 -11.71875 
L -2.09375 -11.71875 
Q 4.4375 -11.71875 7.125 -8.046875 
Q 9.8125 -4.390625 9.8125 5.078125 
z
" id="DejaVuSans-74"/>
      <path d="M 9.421875 54.6875 
L 18.40625 54.6875 
L 18.40625 0 
L 9.421875 0 
z
M 9.421875 75.984375 
L 18.40625 75.984375 
L 18.40625 64.59375 
L 9.421875 64.59375 
z
" id="DejaVuSans-105"/>
     </defs>
     <g transform="translate(14.798438 245.067244)rotate(-90)scale(0.1 -0.1)">
      <use xlink:href="#DejaVuSans-78"/>
      <use x="74.804688" xlink:href="#DejaVuSans-117"/>
      <use x="138.183594" xlink:href="#DejaVuSans-109"/>
      <use x="235.595703" xlink:href="#DejaVuSans-98"/>
      <use x="299.072266" xlink:href="#DejaVuSans-101"/>
      <use x="360.595703" xlink:href="#DejaVuSans-114"/>
      <use x="401.708984" xlink:href="#DejaVuSans-32"/>
      <use x="433.496094" xlink:href="#DejaVuSans-111"/>
      <use x="494.677734" xlink:href="#DejaVuSans-102"/>
      <use x="529.882812" xlink:href="#DejaVuSans-32"/>
      <use x="561.669922" xlink:href="#DejaVuSans-74"/>
      <use x="591.162109" xlink:href="#DejaVuSans-117"/>
      <use x="654.541016" xlink:href="#DejaVuSans-110"/>
      <use x="717.919922" xlink:href="#DejaVuSans-99"/>
      <use x="772.900391" xlink:href="#DejaVuSans-116"/>
      <use x="812.109375" xlink:href="#DejaVuSans-105"/>
      <use x="839.892578" xlink:href="#DejaVuSans-111"/>
      <use x="901.074219" xlink:href="#DejaVuSans-110"/>
      <use x="964.453125" xlink:href="#DejaVuSans-115"/>
     </g>
    </g>
   </g>
   <g id="line2d_9">
    <path clip-path="url(#pa85dc779e7)" d="M 104.760375 174.296397 
L 151.102625 134.265351 
L 197.444875 114.867793 
L 243.787125 102.569493 
L 290.129375 94.146185 
L 336.471625 87.555309 
L 382.813875 82.225217 
L 429.156125 77.810211 
L 475.498375 74.018818 
L 521.840625 70.844262 
L 568.182875 67.936323 
L 614.525125 65.247552 
L 660.867375 62.893183 
L 707.209625 60.615637 
L 753.551875 58.640859 
L 799.894125 56.785834 
L 846.236375 55.012149 
L 892.578625 53.484747 
L 938.920875 52.036426 
L 985.263125 50.712376 
" style="fill:none;stroke:#7cb5ec;stroke-linecap:square;"/>
   </g>
   <g id="line2d_10">
    <path clip-path="url(#pa85dc779e7)" d="M 104.760375 193.745923 
L 151.102625 155.310063 
L 197.444875 134.947711 
L 243.787125 121.736585 
L 290.129375 112.590246 
L 336.471625 105.138511 
L 382.813875 99.168989 
L 429.156125 94.290791 
L 475.498375 90.061062 
L 521.840625 86.473022 
L 568.182875 83.178713 
L 614.525125 80.325002 
L 660.867375 77.652048 
L 707.209625 75.275084 
L 753.551875 73.042727 
L 799.894125 70.964014 
L 846.236375 69.075096 
L 892.578625 67.39179 
L 938.920875 65.697187 
L 985.263125 64.129114 
" style="fill:none;stroke:#434348;stroke-linecap:square;"/>
   </g>
   <g id="line2d_11">
    <path clip-path="url(#pa85dc779e7)" d="M 104.760375 167.402752 
L 151.102625 128.198672 
L 197.444875 109.192002 
L 243.787125 97.259736 
L 290.129375 89.008148 
L 336.471625 82.68163 
L 382.813875 77.64301 
L 429.156125 73.444913 
L 475.498375 69.822981 
L 521.840625 66.596456 
L 568.182875 63.824086 
L 614.525125 61.205359 
L 660.867375 58.966223 
L 707.209625 56.864915 
L 753.551875 54.960181 
L 799.894125 53.163902 
L 846.236375 51.602607 
L 892.578625 50.120394 
L 938.920875 48.715003 
L 985.263125 47.390953 
" style="fill:none;stroke:#90ed7d;stroke-linecap:square;"/>
   </g>
   <g id="line2d_12">
    <path clip-path="url(#pa85dc779e7)" d="M 104.760375 184.355562 
L 151.102625 143.547258 
L 197.444875 123.205241 
L 243.787125 110.265251 
L 290.129375 100.757397 
L 336.471625 93.748518 
L 382.813875 88.079506 
L 429.156125 83.420477 
L 475.498375 79.412175 
L 521.840625 75.923552 
L 568.182875 72.913937 
L 614.525125 70.137047 
L 660.867375 67.762343 
L 707.209625 65.500613 
L 753.551875 63.347337 
L 799.894125 61.381597 
L 846.236375 59.564983 
L 892.578625 57.906531 
L 938.920875 56.390426 
L 985.263125 54.955662 
" style="fill:none;stroke:#f7a35c;stroke-linecap:square;"/>
   </g>
   <g id="line2d_13">
    <path clip-path="url(#pa85dc779e7)" d="M 104.760375 206.559383 
L 151.102625 167.113539 
L 197.444875 145.781874 
L 243.787125 132.170822 
L 290.129375 122.276598 
L 336.471625 114.616992 
L 382.813875 108.401187 
L 429.156125 103.05302 
L 475.498375 98.570229 
L 521.840625 94.80821 
L 568.182875 91.254063 
L 614.525125 88.163106 
L 660.867375 85.37266 
L 707.209625 82.790084 
L 753.551875 80.517057 
L 799.894125 78.343446 
L 846.236375 76.357371 
L 892.578625 74.615319 
L 938.920875 72.877786 
L 985.263125 71.248707 
" style="fill:none;stroke:#8085e9;stroke-linecap:square;"/>
   </g>
   <g id="line2d_14">
    <path clip-path="url(#pa85dc779e7)" d="M 104.760375 204.43548 
L 151.102625 161.037822 
L 197.444875 138.766217 
L 243.787125 124.395982 
L 290.129375 114.262255 
L 336.471625 106.322474 
L 382.813875 100.19027 
L 429.156125 95.038676 
L 475.498375 90.738903 
L 521.840625 87.033371 
L 568.182875 83.788771 
L 614.525125 81.122595 
L 660.867375 78.614582 
L 707.209625 76.178873 
L 753.551875 74.086602 
L 799.894125 72.220279 
L 846.236375 70.369773 
L 892.578625 68.751992 
L 938.920875 67.13647 
L 985.263125 65.676852 
" style="fill:none;stroke:#f15c80;stroke-linecap:square;"/>
   </g>
   <g id="line2d_15">
    <path clip-path="url(#pa85dc779e7)" d="M 104.760375 191.3667 
L 151.102625 150.314373 
L 197.444875 129.626657 
L 243.787125 116.063053 
L 290.129375 106.489675 
L 336.471625 99.107983 
L 382.813875 93.203986 
L 429.156125 88.337086 
L 475.498375 84.055388 
L 521.840625 80.354375 
L 568.182875 77.04199 
L 614.525125 74.064008 
L 660.867375 71.341345 
L 707.209625 68.910155 
L 753.551875 66.783992 
L 799.894125 64.739171 
L 846.236375 62.746318 
L 892.578625 60.992968 
L 938.920875 59.217024 
L 985.263125 57.662508 
" style="fill:none;stroke:#e4d354;stroke-linecap:square;"/>
   </g>
   <g id="line2d_16">
    <path clip-path="url(#pa85dc779e7)" d="M 104.760375 189.954531 
L 151.102625 148.547467 
L 197.444875 127.18191 
L 243.787125 113.491775 
L 290.129375 103.834797 
L 336.471625 96.588673 
L 382.813875 90.594297 
L 429.156125 85.607645 
L 475.498375 81.504445 
L 521.840625 77.891551 
L 568.182875 74.6108 
L 614.525125 71.818094 
L 660.867375 69.249075 
L 707.209625 66.92182 
L 753.551875 64.732393 
L 799.894125 62.771172 
L 846.236375 60.889033 
L 892.578625 59.214765 
L 938.920875 57.61054 
L 985.263125 56.0741 
" style="fill:none;stroke:#2b908f;stroke-linecap:square;"/>
   </g>
   <g id="line2d_17">
    <path clip-path="url(#pa85dc779e7)" d="M 104.760375 188.241852 
L 151.102625 146.287996 
L 197.444875 124.820763 
L 243.787125 111.417581 
L 290.129375 101.72897 
L 336.471625 94.462511 
L 382.813875 88.777682 
L 429.156125 83.813625 
L 475.498375 79.827918 
L 521.840625 76.174354 
L 568.182875 73.171517 
L 614.525125 70.311027 
L 660.867375 67.827868 
L 707.209625 65.487056 
L 753.551875 63.460311 
L 799.894125 61.603026 
L 846.236375 59.840638 
L 892.578625 58.220598 
L 938.920875 56.697714 
L 985.263125 55.235837 
" style="fill:none;stroke:#f45b5b;stroke-linecap:square;"/>
   </g>
   <g id="line2d_18">
    <path clip-path="url(#pa85dc779e7)" d="M 104.760375 280.439563 
L 151.102625 250.578395 
L 197.444875 231.165021 
L 243.787125 217.027512 
L 290.129375 205.840871 
L 336.471625 196.312682 
L 382.813875 188.42035 
L 429.156125 181.635159 
L 475.498375 175.665637 
L 521.840625 170.421405 
L 568.182875 165.757857 
L 614.525125 161.449046 
L 660.867375 157.546939 
L 707.209625 153.834629 
L 753.551875 150.264665 
L 799.894125 147.065254 
L 846.236375 144.236396 
L 892.578625 141.416577 
L 938.920875 138.904045 
L 985.263125 136.48867 
" style="fill:none;stroke:#91e8e1;stroke-linecap:square;"/>
   </g>
   <g id="line2d_19">
    <path clip-path="url(#pa85dc779e7)" d="M 104.760375 171.833574 
L 151.102625 132.981972 
L 197.444875 113.927853 
L 243.787125 101.658926 
L 290.129375 93.120386 
L 336.471625 86.219961 
L 382.813875 81.043513 
L 429.156125 76.386744 
L 475.498375 72.617946 
L 521.840625 69.287486 
L 568.182875 66.361471 
L 614.525125 63.652366 
L 660.867375 61.223434 
L 707.209625 58.875844 
L 753.551875 56.903326 
L 799.894125 55.046041 
L 846.236375 53.301729 
L 892.578625 51.656835 
L 938.920875 50.142989 
L 985.263125 48.807642 
" style="fill:none;stroke:#7cb5ec;stroke-linecap:square;"/>
   </g>
   <g id="line2d_20">
    <path clip-path="url(#pa85dc779e7)" d="M 104.760375 202.842553 
L 151.102625 163.918647 
L 197.444875 142.733848 
L 243.787125 128.987227 
L 290.129375 118.848981 
L 336.471625 111.175818 
L 382.813875 104.754401 
L 429.156125 99.553099 
L 475.498375 94.98219 
L 521.840625 91.037153 
L 568.182875 87.573384 
L 614.525125 84.362676 
L 660.867375 81.470553 
L 707.209625 78.912832 
L 753.551875 76.603653 
L 799.894125 74.409707 
L 846.236375 72.407816 
L 892.578625 70.564087 
L 938.920875 68.894338 
L 985.263125 67.310449 
" style="fill:none;stroke:#434348;stroke-linecap:square;"/>
   </g>
   <g id="line2d_21">
    <path clip-path="url(#pa85dc779e7)" d="M 104.760375 254.717746 
L 151.102625 224.565107 
L 197.444875 206.337955 
L 243.787125 193.508679 
L 290.129375 183.485666 
L 336.471625 175.518771 
L 382.813875 168.765213 
L 429.156125 163.060049 
L 475.498375 158.041764 
L 521.840625 153.748769 
L 568.182875 149.647829 
L 614.525125 146.028157 
L 660.867375 142.801632 
L 707.209625 139.801055 
L 753.551875 137.08969 
L 799.894125 134.520671 
L 846.236375 132.247644 
L 892.578625 130.069514 
L 938.920875 127.981762 
L 985.263125 125.891752 
" style="fill:none;stroke:#90ed7d;stroke-linecap:square;"/>
   </g>
   <g id="line2d_22">
    <path clip-path="url(#pa85dc779e7)" d="M 104.760375 225.807816 
L 151.102625 190.067505 
L 197.444875 169.899467 
L 243.787125 156.466912 
L 290.129375 146.857383 
L 336.471625 139.303971 
L 382.813875 133.370601 
L 429.156125 128.447213 
L 475.498375 124.285268 
L 521.840625 120.428351 
L 568.182875 117.179232 
L 614.525125 114.205768 
L 660.867375 111.754242 
L 707.209625 109.24623 
L 753.551875 107.190111 
L 799.894125 105.172403 
L 846.236375 103.335454 
L 892.578625 101.622775 
L 938.920875 99.971101 
L 985.263125 98.43918 
" style="fill:none;stroke:#f7a35c;stroke-linecap:square;"/>
   </g>
   <g id="line2d_23">
    <path clip-path="url(#pa85dc779e7)" d="M 104.760375 241.915584 
L 151.102625 204.238906 
L 197.444875 182.853014 
L 243.787125 168.489557 
L 290.129375 158.080175 
L 336.471625 150.000307 
L 382.813875 143.314532 
L 429.156125 137.627444 
L 475.498375 133.054275 
L 521.840625 129.131833 
L 568.182875 125.613837 
L 614.525125 122.319528 
L 660.867375 119.540379 
L 707.209625 117.000734 
L 753.551875 114.786452 
L 799.894125 112.691923 
L 846.236375 110.762335 
L 892.578625 108.821449 
L 938.920875 107.158478 
L 985.263125 105.551995 
" style="fill:none;stroke:#8085e9;stroke-linecap:square;"/>
   </g>
   <g id="line2d_24">
    <path clip-path="url(#pa85dc779e7)" d="M 104.760375 252.571249 
L 151.102625 219.176268 
L 197.444875 199.304222 
L 243.787125 185.754175 
L 290.129375 175.127883 
L 336.471625 167.063831 
L 382.813875 160.470695 
L 429.156125 154.688709 
L 475.498375 149.950598 
L 521.840625 145.727647 
L 568.182875 141.888806 
L 614.525125 138.463448 
L 660.867375 135.528395 
L 707.209625 132.665646 
L 753.551875 129.958799 
L 799.894125 127.611209 
L 846.236375 125.494085 
L 892.578625 123.410853 
L 938.920875 121.528713 
L 985.263125 119.696283 
" style="fill:none;stroke:#f15c80;stroke-linecap:square;"/>
   </g>
   <g id="line2d_25">
    <path clip-path="url(#pa85dc779e7)" d="M 104.760375 236.89278 
L 151.102625 201.254145 
L 197.444875 180.968615 
L 243.787125 167.466017 
L 290.129375 157.664432 
L 336.471625 149.851182 
L 382.813875 143.75061 
L 429.156125 138.610314 
L 475.498375 133.962582 
L 521.840625 130.080811 
L 568.182875 126.675788 
L 614.525125 123.620984 
L 660.867375 120.821499 
L 707.209625 118.471649 
L 753.551875 116.171508 
L 799.894125 114.029529 
L 846.236375 112.038936 
L 892.578625 110.382743 
L 938.920875 108.692659 
L 985.263125 107.126846 
" style="fill:none;stroke:#e4d354;stroke-linecap:square;"/>
   </g>
   <g id="line2d_26">
    <path clip-path="url(#pa85dc779e7)" d="M 104.760375 272.655686 
L 151.102625 243.006908 
L 197.444875 224.59222 
L 243.787125 211.229709 
L 290.129375 201.059831 
L 336.471625 192.964146 
L 382.813875 186.086317 
L 429.156125 180.218471 
L 475.498375 175.216002 
L 521.840625 170.778401 
L 568.182875 166.959895 
L 614.525125 163.279217 
L 660.867375 159.899049 
L 707.209625 156.869098 
L 753.551875 154.078652 
L 799.894125 151.557082 
L 846.236375 149.17334 
L 892.578625 147.049438 
L 938.920875 144.925535 
L 985.263125 142.919125 
" style="fill:none;stroke:#2b908f;stroke-linecap:square;"/>
   </g>
   <g id="line2d_27">
    <path clip-path="url(#pa85dc779e7)" d="M 104.760375 290.092023 
L 151.102625 266.349502 
L 197.444875 250.761412 
L 243.787125 239.479874 
L 290.129375 230.426174 
L 336.471625 223.252354 
L 382.813875 216.898722 
L 429.156125 211.564111 
L 475.498375 206.880228 
L 521.840625 202.747655 
L 568.182875 198.917852 
L 614.525125 195.585133 
L 660.867375 192.469322 
L 707.209625 189.495858 
L 753.551875 186.685077 
L 799.894125 184.129615 
L 846.236375 181.687127 
L 892.578625 179.402802 
L 938.920875 177.36024 
L 985.263125 175.383203 
" style="fill:none;stroke:#f45b5b;stroke-linecap:square;"/>
   </g>
   <g id="line2d_28">
    <path clip-path="url(#pa85dc779e7)" d="M 104.760375 270.125078 
L 151.102625 239.384976 
L 197.444875 220.258555 
L 243.787125 206.767254 
L 290.129375 196.452769 
L 336.471625 188.503951 
L 382.813875 181.490553 
L 429.156125 175.649821 
L 475.498375 170.538897 
L 521.840625 166.026734 
L 568.182875 162.043287 
L 614.525125 158.513993 
L 660.867375 155.49308 
L 707.209625 152.458611 
L 753.551875 149.713354 
L 799.894125 147.160152 
L 846.236375 144.846453 
L 892.578625 142.643469 
L 938.920875 140.512788 
L 985.263125 138.517675 
" style="fill:none;stroke:#91e8e1;stroke-linecap:square;"/>
   </g>
   <g id="line2d_29">
    <path clip-path="url(#pa85dc779e7)" d="M 104.760375 242.568571 
L 151.102625 206.154937 
L 197.444875 185.182528 
L 243.787125 171.234814 
L 290.129375 160.735053 
L 336.471625 152.458611 
L 382.813875 146.111757 
L 429.156125 140.716141 
L 475.498375 136.145231 
L 521.840625 132.252162 
L 568.182875 128.756761 
L 614.525125 125.60028 
L 660.867375 122.839207 
L 707.209625 120.286004 
L 753.551875 118.067204 
L 799.894125 115.932004 
L 846.236375 113.891702 
L 892.578625 112.025379 
L 938.920875 110.244916 
L 985.263125 108.541275 
" style="fill:none;stroke:#7cb5ec;stroke-linecap:square;"/>
   </g>
   <g id="line2d_30">
    <path clip-path="url(#pa85dc779e7)" d="M 104.760375 215.902295 
L 151.102625 178.379261 
L 197.444875 158.841616 
L 243.787125 146.281217 
L 290.129375 137.148436 
L 336.471625 130.067254 
L 382.813875 124.517993 
L 429.156125 119.804737 
L 475.498375 116.015604 
L 521.840625 112.427565 
L 568.182875 109.345646 
L 614.525125 106.654616 
L 660.867375 104.392886 
L 707.209625 102.207978 
L 753.551875 100.160897 
L 799.894125 98.186119 
L 846.236375 96.455365 
L 892.578625 94.758502 
L 938.920875 93.176872 
L 985.263125 91.746627 
" style="fill:none;stroke:#434348;stroke-linecap:square;"/>
   </g>
   <g id="line2d_31">
    <path clip-path="url(#pa85dc779e7)" d="M 104.760375 251.046106 
L 151.102625 217.777656 
L 197.444875 198.059253 
L 243.787125 184.163507 
L 290.129375 173.939401 
L 336.471625 165.653921 
L 382.813875 159.359035 
L 429.156125 153.938564 
L 475.498375 149.143967 
L 521.840625 144.884864 
L 568.182875 141.149959 
L 614.525125 137.839834 
L 660.867375 134.902522 
L 707.209625 132.164043 
L 753.551875 129.680885 
L 799.894125 127.430452 
L 846.236375 125.146126 
L 892.578625 123.243652 
L 938.920875 121.431556 
L 985.263125 119.716618 
" style="fill:none;stroke:#90ed7d;stroke-linecap:square;"/>
   </g>
   <g id="line2d_32">
    <path clip-path="url(#pa85dc779e7)" d="M 104.760375 226.04506 
L 151.102625 189.91612 
L 197.444875 170.0147 
L 243.787125 156.634113 
L 290.129375 146.843826 
L 336.471625 139.13677 
L 382.813875 132.909669 
L 429.156125 127.726442 
L 475.498375 123.241392 
L 521.840625 119.269243 
L 568.182875 115.873258 
L 614.525125 112.888497 
L 660.867375 110.305921 
L 707.209625 107.804687 
L 753.551875 105.556513 
L 799.894125 103.60659 
L 846.236375 101.595661 
L 892.578625 99.873944 
L 938.920875 98.088962 
L 985.263125 96.568338 
" style="fill:none;stroke:#f7a35c;stroke-linecap:square;"/>
   </g>
   <g id="line2d_33">
    <path clip-path="url(#pa85dc779e7)" d="M 104.760375 247.191448 
L 151.102625 211.830728 
L 197.444875 191.253727 
L 243.787125 177.202077 
L 290.129375 166.869517 
L 336.471625 158.631486 
L 382.813875 151.875667 
L 429.156125 146.254104 
L 475.498375 141.475323 
L 521.840625 137.254631 
L 568.182875 133.409012 
L 614.525125 130.193784 
L 660.867375 127.251953 
L 707.209625 124.542848 
L 753.551875 122.091322 
L 799.894125 119.820553 
L 846.236375 117.712467 
L 892.578625 115.764803 
L 938.920875 114.106351 
L 985.263125 112.416267 
" style="fill:none;stroke:#8085e9;stroke-linecap:square;"/>
   </g>
   <g id="line2d_34">
    <path clip-path="url(#pa85dc779e7)" d="M 104.760375 259.835448 
L 151.102625 226.594111 
L 197.444875 206.688173 
L 243.787125 192.925735 
L 290.129375 182.224881 
L 336.471625 173.566588 
L 382.813875 166.749765 
L 429.156125 160.985854 
L 475.498375 155.911083 
L 521.840625 151.525449 
L 568.182875 147.578154 
L 614.525125 144.150536 
L 660.867375 141.023429 
L 707.209625 138.235241 
L 753.551875 135.541952 
L 799.894125 133.16047 
L 846.236375 130.984599 
L 892.578625 128.969151 
L 938.920875 127.172872 
L 985.263125 125.283954 
" style="fill:none;stroke:#f15c80;stroke-linecap:square;"/>
   </g>
   <g id="line2d_35">
    <path clip-path="url(#pa85dc779e7)" d="M 104.760375 266.991192 
L 151.102625 236.054516 
L 197.444875 217.151782 
L 243.787125 203.942915 
L 290.129375 193.827264 
L 336.471625 185.598271 
L 382.813875 178.89894 
L 429.156125 172.891007 
L 475.498375 167.960841 
L 521.840625 163.545835 
L 568.182875 159.917124 
L 614.525125 156.423982 
L 660.867375 153.172604 
L 707.209625 150.312114 
L 753.551875 147.625603 
L 799.894125 145.036249 
L 846.236375 142.733848 
L 892.578625 140.551199 
L 938.920875 138.422778 
L 985.263125 136.556455 
" style="fill:none;stroke:#e4d354;stroke-linecap:square;"/>
   </g>
   <g id="line2d_36">
    <path clip-path="url(#pa85dc779e7)" d="M 104.760375 267.567357 
L 151.102625 235.73819 
L 197.444875 216.130502 
L 243.787125 202.478778 
L 290.129375 191.603945 
L 336.471625 183.42466 
L 382.813875 176.399965 
L 429.156125 170.432702 
L 475.498375 165.299184 
L 521.840625 160.827691 
L 568.182875 156.977553 
L 614.525125 153.554454 
L 660.867375 150.429606 
L 707.209625 147.630122 
L 753.551875 145.018173 
L 799.894125 142.647988 
L 846.236375 140.388517 
L 892.578625 138.296247 
L 938.920875 136.416367 
L 985.263125 134.602012 
" style="fill:none;stroke:#2b908f;stroke-linecap:square;"/>
   </g>
   <g id="line2d_37">
    <path clip-path="url(#pa85dc779e7)" d="M 104.760375 211.629636 
L 151.102625 175.943552 
L 197.444875 157.11764 
L 243.787125 144.869048 
L 290.129375 135.774678 
L 336.471625 128.942038 
L 382.813875 123.431188 
L 429.156125 118.568807 
L 475.498375 114.531132 
L 521.840625 110.931795 
L 568.182875 107.96285 
L 614.525125 105.172403 
L 660.867375 102.671169 
L 707.209625 100.19253 
L 753.551875 98.098 
L 799.894125 96.114184 
L 846.236375 94.268197 
L 892.578625 92.648156 
L 938.920875 91.001002 
L 985.263125 89.611427 
" style="fill:none;stroke:#f45b5b;stroke-linecap:square;"/>
   </g>
   <g id="line2d_38">
    <path clip-path="url(#pa85dc779e7)" d="M 104.760375 221.693319 
L 151.102625 184.606363 
L 197.444875 164.50385 
L 243.787125 151.281427 
L 290.129375 141.556664 
L 336.471625 134.362508 
L 382.813875 128.438176 
L 429.156125 123.322733 
L 475.498375 119.251167 
L 521.840625 115.581786 
L 568.182875 112.325888 
L 614.525125 109.397614 
L 660.867375 106.817298 
L 707.209625 104.424519 
L 753.551875 102.246389 
L 799.894125 100.264833 
L 846.236375 98.389472 
L 892.578625 96.712944 
L 938.920875 95.081606 
L 985.263125 93.533869 
" style="fill:none;stroke:#91e8e1;stroke-linecap:square;"/>
   </g>
   <g id="line2d_39">
    <path clip-path="url(#pa85dc779e7)" d="M 104.760375 224.569626 
L 151.102625 188.940029 
L 197.444875 168.927895 
L 243.787125 155.529232 
L 290.129375 146.217952 
L 336.471625 138.671319 
L 382.813875 132.848663 
L 429.156125 127.769372 
L 475.498375 123.55094 
L 521.840625 119.985495 
L 568.182875 116.725078 
L 614.525125 113.780988 
L 660.867375 111.180337 
L 707.209625 108.767222 
L 753.551875 106.546162 
L 799.894125 104.474227 
L 846.236375 102.564974 
L 892.578625 100.802587 
L 938.920875 99.214179 
L 985.263125 97.689036 
" style="fill:none;stroke:#7cb5ec;stroke-linecap:square;"/>
   </g>
   <g id="line2d_40">
    <path clip-path="url(#pa85dc779e7)" d="M 104.760375 243.156033 
L 151.102625 209.453765 
L 197.444875 190.270857 
L 243.787125 177.041655 
L 290.129375 167.289778 
L 336.471625 159.533014 
L 382.813875 153.323988 
L 429.156125 148.036826 
L 475.498375 143.472695 
L 521.840625 139.620297 
L 568.182875 136.260464 
L 614.525125 133.085907 
L 660.867375 130.191525 
L 707.209625 127.538906 
L 753.551875 125.292992 
L 799.894125 123.056116 
L 846.236375 121.092636 
L 892.578625 119.126896 
L 938.920875 117.287687 
L 985.263125 115.556932 
" style="fill:none;stroke:#434348;stroke-linecap:square;"/>
   </g>
   <g id="line2d_41">
    <path clip-path="url(#pa85dc779e7)" d="M 104.760375 233.679812 
L 151.102625 197.837825 
L 197.444875 177.638155 
L 243.787125 164.388617 
L 290.129375 154.34301 
L 336.471625 146.893534 
L 382.813875 140.792963 
L 429.156125 135.883132 
L 475.498375 131.587878 
L 521.840625 127.73774 
L 568.182875 124.194889 
L 614.525125 121.234982 
L 660.867375 118.496503 
L 707.209625 116.006567 
L 753.551875 113.688349 
L 799.894125 111.614155 
L 846.236375 109.736535 
L 892.578625 107.956072 
L 938.920875 106.394777 
L 985.263125 104.767958 
" style="fill:none;stroke:#90ed7d;stroke-linecap:square;"/>
   </g>
   <g id="line2d_42">
    <path clip-path="url(#pa85dc779e7)" d="M 104.760375 241.84554 
L 151.102625 207.04291 
L 197.444875 187.661168 
L 243.787125 174.515566 
L 290.129375 164.648457 
L 336.471625 157.221576 
L 382.813875 150.865684 
L 429.156125 145.869994 
L 475.498375 141.44369 
L 521.840625 137.528027 
L 568.182875 134.129783 
L 614.525125 130.905518 
L 660.867375 128.216747 
L 707.209625 125.767481 
L 753.551875 123.313695 
L 799.894125 121.112971 
L 846.236375 119.135934 
L 892.578625 117.147599 
L 938.920875 115.507223 
L 985.263125 113.882664 
" style="fill:none;stroke:#f7a35c;stroke-linecap:square;"/>
   </g>
   <g id="line2d_43">
    <path clip-path="url(#pa85dc779e7)" d="M 104.760375 250.9015 
L 151.102625 216.288665 
L 197.444875 195.996356 
L 243.787125 181.829474 
L 290.129375 171.176068 
L 336.471625 162.879291 
L 382.813875 155.996942 
L 429.156125 150.440903 
L 475.498375 145.363872 
L 521.840625 141.143181 
L 568.182875 137.530287 
L 614.525125 134.193048 
L 660.867375 131.167616 
L 707.209625 128.399765 
L 753.551875 125.914347 
L 799.894125 123.663913 
L 846.236375 121.616833 
L 892.578625 119.592347 
L 938.920875 117.886446 
L 985.263125 116.178286 
" style="fill:none;stroke:#8085e9;stroke-linecap:square;"/>
   </g>
   <g id="line2d_44">
    <path clip-path="url(#pa85dc779e7)" d="M 104.760375 201.728634 
L 151.102625 167.671629 
L 197.444875 150.111021 
L 243.787125 138.70973 
L 290.129375 130.216379 
L 336.471625 124.043505 
L 382.813875 118.844462 
L 429.156125 114.485943 
L 475.498375 110.983763 
L 521.840625 107.79113 
L 568.182875 104.790553 
L 614.525125 102.298356 
L 660.867375 99.912355 
L 707.209625 97.691295 
L 753.551875 95.657771 
L 799.894125 93.805005 
L 846.236375 92.090067 
L 892.578625 90.390945 
L 938.920875 88.845467 
L 985.263125 87.435557 
" style="fill:none;stroke:#f15c80;stroke-linecap:square;"/>
   </g>
   <g id="line2d_45">
    <path clip-path="url(#pa85dc779e7)" d="M 104.760375 220.292447 
L 151.102625 182.979544 
L 197.444875 162.599116 
L 243.787125 149.550672 
L 290.129375 140.144494 
L 336.471625 132.81929 
L 382.813875 126.684826 
L 429.156125 121.540011 
L 475.498375 117.174713 
L 521.840625 113.491775 
L 568.182875 110.299143 
L 614.525125 107.474804 
L 660.867375 104.824445 
L 707.209625 102.508487 
L 753.551875 100.355211 
L 799.894125 98.314909 
L 846.236375 96.437289 
L 892.578625 94.593561 
L 938.920875 92.907995 
L 985.263125 91.378333 
" style="fill:none;stroke:#e4d354;stroke-linecap:square;"/>
   </g>
   <g id="line2d_46">
    <path clip-path="url(#pa85dc779e7)" d="M 104.760375 233.257291 
L 151.102625 196.247157 
L 197.444875 175.582036 
L 243.787125 161.90094 
L 290.129375 151.875667 
L 336.471625 144.103087 
L 382.813875 137.620665 
L 429.156125 132.252162 
L 475.498375 127.819081 
L 521.840625 123.874044 
L 568.182875 120.439648 
L 614.525125 117.470704 
L 660.867375 114.775155 
L 707.209625 112.291996 
L 753.551875 109.869843 
L 799.894125 107.75046 
L 846.236375 105.859283 
L 892.578625 104.008776 
L 938.920875 102.298356 
L 985.263125 100.721246 
" style="fill:none;stroke:#2b908f;stroke-linecap:square;"/>
   </g>
   <g id="line2d_47">
    <path clip-path="url(#pa85dc779e7)" d="M 104.760375 259.521381 
L 151.102625 226.833615 
L 197.444875 207.501582 
L 243.787125 193.763999 
L 290.129375 183.774878 
L 336.471625 175.455506 
L 382.813875 168.550563 
L 429.156125 163.039713 
L 475.498375 158.032726 
L 521.840625 153.814294 
L 568.182875 149.925744 
L 614.525125 146.561392 
L 660.867375 143.404911 
L 707.209625 140.573794 
L 753.551875 137.891802 
L 799.894125 135.471909 
L 846.236375 133.305076 
L 892.578625 131.282849 
L 938.920875 129.215434 
L 985.263125 127.283586 
" style="fill:none;stroke:#f45b5b;stroke-linecap:square;"/>
   </g>
   <g id="line2d_48">
    <path clip-path="url(#pa85dc779e7)" d="M 104.760375 237.78753 
L 151.102625 202.824477 
L 197.444875 182.975025 
L 243.787125 169.50406 
L 290.129375 159.813189 
L 336.471625 152.031571 
L 382.813875 145.718609 
L 429.156125 140.46308 
L 475.498375 136.057112 
L 521.840625 132.252162 
L 568.182875 128.833583 
L 614.525125 125.776519 
L 660.867375 122.891174 
L 707.209625 120.344751 
L 753.551875 118.049128 
L 799.894125 115.816771 
L 846.236375 113.774209 
L 892.578625 111.819767 
L 938.920875 110.079974 
L 985.263125 108.410225 
" style="fill:none;stroke:#91e8e1;stroke-linecap:square;"/>
   </g>
   <g id="line2d_49">
    <path clip-path="url(#pa85dc779e7)" d="M 104.760375 191.626539 
L 151.102625 157.384258 
L 197.444875 139.73553 
L 243.787125 128.652825 
L 290.129375 120.557141 
L 336.471625 114.192211 
L 382.813875 109.144553 
L 429.156125 104.912564 
L 475.498375 101.252221 
L 521.840625 98.039254 
L 568.182875 95.307553 
L 614.525125 92.774686 
L 660.867375 90.395464 
L 707.209625 88.31901 
L 753.551875 86.468503 
L 799.894125 84.735489 
L 846.236375 83.040886 
L 892.578625 81.438921 
L 938.920875 79.997378 
L 985.263125 78.585209 
" style="fill:none;stroke:#7cb5ec;stroke-linecap:square;"/>
   </g>
   <g id="line2d_50">
    <path clip-path="url(#pa85dc779e7)" d="M 104.760375 222.721378 
L 151.102625 187.73799 
L 197.444875 168.338173 
L 243.787125 155.395923 
L 290.129375 146.091422 
L 336.471625 138.858855 
L 382.813875 133.169508 
L 429.156125 128.257418 
L 475.498375 124.172294 
L 521.840625 120.683671 
L 568.182875 117.378065 
L 614.525125 114.266774 
L 660.867375 111.582522 
L 707.209625 109.253008 
L 753.551875 107.070359 
L 799.894125 105.011981 
L 846.236375 103.129842 
L 892.578625 101.457833 
L 938.920875 99.88976 
L 985.263125 98.436921 
" style="fill:none;stroke:#434348;stroke-linecap:square;"/>
   </g>
   <g id="line2d_51">
    <path clip-path="url(#pa85dc779e7)" d="M 104.760375 217.111112 
L 151.102625 184.122836 
L 197.444875 166.334022 
L 243.787125 154.618665 
L 290.129375 145.953594 
L 336.471625 138.965051 
L 382.813875 133.214697 
L 429.156125 128.399765 
L 475.498375 124.31916 
L 521.840625 120.654298 
L 568.182875 117.576899 
L 614.525125 114.781933 
L 660.867375 112.201617 
L 707.209625 109.844989 
L 753.551875 107.472545 
L 799.894125 105.434502 
L 846.236375 103.638223 
L 892.578625 101.819349 
L 938.920875 100.090853 
L 985.263125 98.509224 
" style="fill:none;stroke:#90ed7d;stroke-linecap:square;"/>
   </g>
   <g id="line2d_52">
    <path clip-path="url(#pa85dc779e7)" d="M 104.760375 207.379571 
L 151.102625 170.430443 
L 197.444875 151.130042 
L 243.787125 138.980867 
L 290.129375 130.482997 
L 336.471625 124.038986 
L 382.813875 118.722451 
L 429.156125 114.287109 
L 475.498375 110.35563 
L 521.840625 106.961904 
L 568.182875 103.963586 
L 614.525125 101.338081 
L 660.867375 98.999529 
L 707.209625 96.850772 
L 753.551875 94.814989 
L 799.894125 93.081975 
L 846.236375 91.339922 
L 892.578625 89.778628 
L 938.920875 88.352902 
L 985.263125 86.988181 
" style="fill:none;stroke:#f7a35c;stroke-linecap:square;"/>
   </g>
   <g id="line2d_53">
    <path clip-path="url(#pa85dc779e7)" d="M 104.760375 225.134493 
L 151.102625 190.587183 
L 197.444875 171.453983 
L 243.787125 158.52755 
L 290.129375 149.399287 
L 336.471625 141.976925 
L 382.813875 136.054852 
L 429.156125 131.201508 
L 475.498375 126.92433 
L 521.840625 123.259468 
L 568.182875 120.035203 
L 614.525125 117.082075 
L 660.867375 114.440753 
L 707.209625 112.122536 
L 753.551875 109.92859 
L 799.894125 107.976407 
L 846.236375 106.16883 
L 892.578625 104.356734 
L 938.920875 102.71184 
L 985.263125 101.116653 
" style="fill:none;stroke:#8085e9;stroke-linecap:square;"/>
   </g>
   <g id="line2d_54">
    <path clip-path="url(#pa85dc779e7)" d="M 104.760375 214.092459 
L 151.102625 178.302439 
L 197.444875 159.433598 
L 243.787125 146.893534 
L 290.129375 137.774309 
L 336.471625 130.693128 
L 382.813875 125.010558 
L 429.156125 120.288264 
L 475.498375 116.422309 
L 521.840625 112.904313 
L 568.182875 109.761389 
L 614.525125 106.975461 
L 660.867375 104.440335 
L 707.209625 102.076928 
L 753.551875 100.038885 
L 799.894125 98.030216 
L 846.236375 96.068995 
L 892.578625 94.491884 
L 938.920875 92.923812 
L 985.263125 91.380593 
" style="fill:none;stroke:#f15c80;stroke-linecap:square;"/>
   </g>
   <g id="line2d_55">
    <path clip-path="url(#pa85dc779e7)" d="M 104.760375 189.57268 
L 151.102625 154.076392 
L 197.444875 136.296615 
L 243.787125 124.841098 
L 290.129375 116.969101 
L 336.471625 110.95213 
L 382.813875 106.098787 
L 429.156125 102.122118 
L 475.498375 98.506964 
L 521.840625 95.580949 
L 568.182875 92.688827 
L 614.525125 90.063321 
L 660.867375 87.76092 
L 707.209625 85.774846 
L 753.551875 84.001161 
L 799.894125 82.218438 
L 846.236375 80.670701 
L 892.578625 79.127482 
L 938.920875 77.631712 
L 985.263125 76.307662 
" style="fill:none;stroke:#e4d354;stroke-linecap:square;"/>
   </g>
   <g id="line2d_56">
    <path clip-path="url(#pa85dc779e7)" d="M 104.760375 206.455447 
L 151.102625 171.415572 
L 197.444875 152.440535 
L 243.787125 140.698065 
L 290.129375 131.895166 
L 336.471625 125.252322 
L 382.813875 119.983235 
L 429.156125 115.69476 
L 475.498375 111.801691 
L 521.840625 108.505123 
L 568.182875 105.511324 
L 614.525125 102.870003 
L 660.867375 100.461407 
L 707.209625 98.143189 
L 753.551875 96.13226 
L 799.894125 94.302089 
L 846.236375 92.591669 
L 892.578625 91.025856 
L 938.920875 89.484897 
L 985.263125 88.011722 
" style="fill:none;stroke:#2b908f;stroke-linecap:square;"/>
   </g>
   <g id="line2d_57">
    <path clip-path="url(#pa85dc779e7)" d="M 104.760375 231.962614 
L 151.102625 199.166394 
L 197.444875 180.444418 
L 243.787125 167.996993 
L 290.129375 158.778351 
L 336.471625 151.426033 
L 382.813875 145.381948 
L 429.156125 140.440485 
L 475.498375 136.005144 
L 521.840625 132.123373 
L 568.182875 128.831323 
L 614.525125 125.835265 
L 660.867375 122.891174 
L 707.209625 120.358308 
L 753.551875 118.078501 
L 799.894125 115.809993 
L 846.236375 113.817139 
L 892.578625 111.871735 
L 938.920875 110.046082 
L 985.263125 108.478009 
" style="fill:none;stroke:#f45b5b;stroke-linecap:square;"/>
   </g>
   <g id="line2d_58">
    <path clip-path="url(#pa85dc779e7)" d="M 104.760375 217.908705 
L 151.102625 183.481147 
L 197.444875 164.686868 
L 243.787125 152.429238 
L 290.129375 143.432025 
L 336.471625 136.391513 
L 382.813875 130.670533 
L 429.156125 125.889492 
L 475.498375 121.97157 
L 521.840625 118.363195 
L 568.182875 115.312909 
L 614.525125 112.526981 
L 660.867375 109.88566 
L 707.209625 107.522253 
L 753.551875 105.563292 
L 799.894125 103.597552 
L 846.236375 101.749305 
L 892.578625 99.973361 
L 938.920875 98.31265 
L 985.263125 96.823658 
" style="fill:none;stroke:#91e8e1;stroke-linecap:square;"/>
   </g>
   <g id="line2d_59">
    <path clip-path="url(#pa85dc779e7)" d="M 104.760375 245.343201 
L 151.102625 208.879859 
L 197.444875 187.410367 
L 243.787125 172.796109 
L 290.129375 162.15852 
L 336.471625 153.685504 
L 382.813875 146.95228 
L 429.156125 141.179332 
L 475.498375 136.380216 
L 521.840625 132.340282 
L 568.182875 128.646047 
L 614.525125 125.134829 
L 660.867375 122.082284 
L 707.209625 119.427406 
L 753.551875 116.957804 
L 799.894125 114.635068 
L 846.236375 112.452419 
L 892.578625 110.427933 
L 938.920875 108.624875 
L 985.263125 106.905418 
" style="fill:none;stroke:#7cb5ec;stroke-linecap:square;"/>
   </g>
   <g id="line2d_60">
    <path clip-path="url(#pa85dc779e7)" d="M 104.760375 257.779329 
L 151.102625 224.077061 
L 197.444875 203.757639 
L 243.787125 189.748919 
L 290.129375 179.235601 
L 336.471625 170.877818 
L 382.813875 163.954799 
L 429.156125 158.064358 
L 475.498375 152.876613 
L 521.840625 148.554245 
L 568.182875 144.584355 
L 614.525125 141.190629 
L 660.867375 137.925694 
L 707.209625 135.04035 
L 753.551875 132.399028 
L 799.894125 130.008508 
L 846.236375 127.769372 
L 892.578625 125.570907 
L 938.920875 123.704584 
L 985.263125 121.88345 
" style="fill:none;stroke:#434348;stroke-linecap:square;"/>
   </g>
   <g id="line2d_61">
    <path clip-path="url(#pa85dc779e7)" d="M 104.760375 233.666255 
L 151.102625 196.970188 
L 197.444875 176.045228 
L 243.787125 162.063622 
L 290.129375 151.624866 
L 336.471625 143.531441 
L 382.813875 137.137139 
L 429.156125 131.587878 
L 475.498375 126.974038 
L 521.840625 122.757866 
L 568.182875 119.248907 
L 614.525125 115.99301 
L 660.867375 112.904313 
L 707.209625 110.249435 
L 753.551875 107.745941 
L 799.894125 105.418686 
L 846.236375 103.39194 
L 892.578625 101.530136 
L 938.920875 99.654775 
L 985.263125 97.946615 
" style="fill:none;stroke:#90ed7d;stroke-linecap:square;"/>
   </g>
   <g id="line2d_62">
    <path clip-path="url(#pa85dc779e7)" d="M 104.760375 222.231073 
L 151.102625 184.396232 
L 197.444875 163.86442 
L 243.787125 150.334708 
L 290.129375 140.691286 
L 336.471625 133.409012 
L 382.813875 127.175131 
L 429.156125 122.034835 
L 475.498375 117.793808 
L 521.840625 114.058903 
L 568.182875 110.886605 
L 614.525125 107.967369 
L 660.867375 105.393832 
L 707.209625 103.057539 
L 753.551875 100.809365 
L 799.894125 98.744209 
L 846.236375 96.812361 
L 892.578625 95.083866 
L 938.920875 93.454787 
L 985.263125 91.943201 
" style="fill:none;stroke:#f7a35c;stroke-linecap:square;"/>
   </g>
   <g id="line2d_63">
    <path clip-path="url(#pa85dc779e7)" d="M 104.760375 241.104434 
L 151.102625 205.210479 
L 197.444875 184.563433 
L 243.787125 170.0983 
L 290.129375 159.406484 
L 336.471625 150.913133 
L 382.813875 144.358408 
L 429.156125 138.54027 
L 475.498375 133.763749 
L 521.840625 129.396191 
L 568.182875 125.68614 
L 614.525125 122.296934 
L 660.867375 119.210496 
L 707.209625 116.379379 
L 753.551875 113.670274 
L 799.894125 111.257159 
L 846.236375 109.042877 
L 892.578625 106.948348 
L 938.920875 105.140771 
L 985.263125 103.39194 
" style="fill:none;stroke:#8085e9;stroke-linecap:square;"/>
   </g>
   <g id="line2d_64">
    <path clip-path="url(#pa85dc779e7)" d="M 104.760375 216.77897 
L 151.102625 179.005135 
L 197.444875 158.947811 
L 243.787125 145.813507 
L 290.129375 136.357621 
L 336.471625 128.829064 
L 382.813875 123.074192 
L 429.156125 118.035571 
L 475.498375 113.634122 
L 521.840625 109.867584 
L 568.182875 106.704325 
L 614.525125 103.855132 
L 660.867375 101.277076 
L 707.209625 99.004048 
L 753.551875 96.90048 
L 799.894125 94.821767 
L 846.236375 92.874103 
L 892.578625 91.021337 
L 938.920875 89.469081 
L 985.263125 87.878413 
" style="fill:none;stroke:#f15c80;stroke-linecap:square;"/>
   </g>
   <g id="line2d_65">
    <path clip-path="url(#pa85dc779e7)" d="M 104.760375 248.061345 
L 151.102625 214.334222 
L 197.444875 194.640674 
L 243.787125 181.025102 
L 290.129375 170.649611 
L 336.471625 162.653344 
L 382.813875 155.863634 
L 429.156125 150.144913 
L 475.498375 145.058844 
L 521.840625 141.093472 
L 568.182875 137.225258 
L 614.525125 133.888019 
L 660.867375 130.797063 
L 707.209625 128.020173 
L 753.551875 125.304289 
L 799.894125 122.913769 
L 846.236375 120.749196 
L 892.578625 118.751824 
L 938.920875 116.849349 
L 985.263125 115.127632 
" style="fill:none;stroke:#e4d354;stroke-linecap:square;"/>
   </g>
   <g id="line2d_66">
    <path clip-path="url(#pa85dc779e7)" d="M 104.760375 234.152042 
L 151.102625 196.319461 
L 197.444875 174.131456 
L 243.787125 159.349997 
L 290.129375 148.551986 
L 336.471625 139.984072 
L 382.813875 133.036199 
L 429.156125 127.428192 
L 475.498375 122.658449 
L 521.840625 118.564288 
L 568.182875 114.763858 
L 614.525125 111.54863 
L 660.867375 108.480269 
L 707.209625 105.789239 
L 753.551875 103.439389 
L 799.894125 101.179918 
L 846.236375 99.103465 
L 892.578625 97.149022 
L 938.920875 95.393413 
L 985.263125 93.8276 
" style="fill:none;stroke:#2b908f;stroke-linecap:square;"/>
   </g>
   <g id="line2d_67">
    <path clip-path="url(#pa85dc779e7)" d="M 104.760375 215.023361 
L 151.102625 178.049379 
L 197.444875 157.879082 
L 243.787125 144.500754 
L 290.129375 135.20981 
L 336.471625 127.843935 
L 382.813875 121.84278 
L 429.156125 116.917133 
L 475.498375 112.802637 
L 521.840625 109.033839 
L 568.182875 105.739531 
L 614.525125 102.808997 
L 660.867375 100.210605 
L 707.209625 97.632549 
L 753.551875 95.431824 
L 799.894125 93.373446 
L 846.236375 91.43708 
L 892.578625 89.60013 
L 938.920875 87.810629 
L 985.263125 86.299043 
" style="fill:none;stroke:#f45b5b;stroke-linecap:square;"/>
   </g>
   <g id="line2d_68">
    <path clip-path="url(#pa85dc779e7)" d="M 104.760375 249.507406 
L 151.102625 215.714759 
L 197.444875 195.684549 
L 243.787125 181.696165 
L 290.129375 171.042759 
L 336.471625 162.928999 
L 382.813875 155.981126 
L 429.156125 150.28274 
L 475.498375 145.176336 
L 521.840625 140.811038 
L 568.182875 136.983495 
L 614.525125 133.54232 
L 660.867375 130.363245 
L 707.209625 127.586355 
L 753.551875 124.766535 
L 799.894125 122.321788 
L 846.236375 120.04876 
L 892.578625 117.762175 
L 938.920875 115.785138 
L 985.263125 113.909778 
" style="fill:none;stroke:#91e8e1;stroke-linecap:square;"/>
   </g>
   <g id="line2d_69">
    <path clip-path="url(#pa85dc779e7)" d="M 104.760375 234.495481 
L 151.102625 198.03214 
L 197.444875 177.046174 
L 243.787125 163.197876 
L 290.129375 153.138712 
L 336.471625 145.271234 
L 382.813875 138.942456 
L 429.156125 133.524245 
L 475.498375 128.980449 
L 521.840625 125.085121 
L 568.182875 121.62813 
L 614.525125 118.55525 
L 660.867375 115.638273 
L 707.209625 113.062476 
L 753.551875 110.73974 
L 799.894125 108.60454 
L 846.236375 106.491934 
L 892.578625 104.603017 
L 938.920875 102.888078 
L 985.263125 101.204772 
" style="fill:none;stroke:#7cb5ec;stroke-linecap:square;"/>
   </g>
   <g id="line2d_70">
    <path clip-path="url(#pa85dc779e7)" d="M 104.760375 225.651912 
L 151.102625 187.688282 
L 197.444875 166.781397 
L 243.787125 152.770418 
L 290.129375 142.514679 
L 336.471625 134.705948 
L 382.813875 128.359094 
L 429.156125 123.019964 
L 475.498375 118.695337 
L 521.840625 114.648624 
L 568.182875 111.25264 
L 614.525125 108.333403 
L 660.867375 105.599443 
L 707.209625 102.933268 
L 753.551875 100.522412 
L 799.894125 98.466294 
L 846.236375 96.459884 
L 892.578625 94.46929 
L 938.920875 92.772427 
L 985.263125 91.068786 
" style="fill:none;stroke:#434348;stroke-linecap:square;"/>
   </g>
   <g id="line2d_71">
    <path clip-path="url(#pa85dc779e7)" d="M 104.760375 231.804451 
L 151.102625 193.969611 
L 197.444875 172.49334 
L 243.787125 158.166035 
L 290.129375 147.799582 
L 336.471625 139.688081 
L 382.813875 133.076869 
L 429.156125 127.683512 
L 475.498375 122.99737 
L 521.840625 118.844462 
L 568.182875 115.269979 
L 614.525125 112.023119 
L 660.867375 109.137775 
L 707.209625 106.561978 
L 753.551875 104.236982 
L 799.894125 101.98203 
L 846.236375 99.876204 
L 892.578625 97.944356 
L 938.920875 96.209082 
L 985.263125 94.521257 
" style="fill:none;stroke:#90ed7d;stroke-linecap:square;"/>
   </g>
   <g id="line2d_72">
    <path clip-path="url(#pa85dc779e7)" d="M 104.760375 179.518035 
L 151.102625 142.478528 
L 197.444875 124.348533 
L 243.787125 112.732593 
L 290.129375 104.643687 
L 336.471625 98.39625 
L 382.813875 93.479641 
L 429.156125 89.297361 
L 475.498375 85.768067 
L 521.840625 82.613846 
L 568.182875 79.972524 
L 614.525125 77.478068 
L 660.867375 75.150813 
L 707.209625 73.087916 
L 753.551875 71.361681 
L 799.894125 69.617369 
L 846.236375 68.008626 
L 892.578625 66.625829 
L 938.920875 65.25659 
L 985.263125 63.957394 
" style="fill:none;stroke:#f7a35c;stroke-linecap:square;"/>
   </g>
   <g id="line2d_73">
    <path clip-path="url(#pa85dc779e7)" d="M 104.760375 171.659595 
L 151.102625 134.52519 
L 197.444875 116.551099 
L 243.787125 105.511324 
L 290.129375 97.603176 
L 336.471625 91.538756 
L 382.813875 86.708007 
L 429.156125 82.652257 
L 475.498375 79.091331 
L 521.840625 75.959704 
L 568.182875 73.318382 
L 614.525125 70.830705 
L 660.867375 68.58931 
L 707.209625 66.569343 
L 753.551875 64.727874 
L 799.894125 63.058125 
L 846.236375 61.383857 
L 892.578625 59.888087 
L 938.920875 58.512069 
L 985.263125 57.235468 
" style="fill:none;stroke:#8085e9;stroke-linecap:square;"/>
   </g>
   <g id="line2d_74">
    <path clip-path="url(#pa85dc779e7)" d="M 104.760375 180.22073 
L 151.102625 145.876772 
L 197.444875 127.927535 
L 243.787125 116.130837 
L 290.129375 107.904104 
L 336.471625 101.281595 
L 382.813875 96.13452 
L 429.156125 91.674324 
L 475.498375 87.853559 
L 521.840625 84.47339 
L 568.182875 81.35532 
L 614.525125 78.768226 
L 660.867375 76.278289 
L 707.209625 74.086602 
L 753.551875 72.055338 
L 799.894125 70.202572 
L 846.236375 68.474077 
L 892.578625 66.820144 
L 938.920875 65.283704 
L 985.263125 63.796972 
" style="fill:none;stroke:#f15c80;stroke-linecap:square;"/>
   </g>
   <g id="line2d_75">
    <path clip-path="url(#pa85dc779e7)" d="M 104.760375 216.869349 
L 151.102625 178.835675 
L 197.444875 158.170553 
L 243.787125 144.554982 
L 290.129375 134.82344 
L 336.471625 127.172872 
L 382.813875 121.070041 
L 429.156125 115.911669 
L 475.498375 111.688718 
L 521.840625 107.965109 
L 568.182875 104.664022 
L 614.525125 101.762862 
L 660.867375 99.08087 
L 707.209625 96.68809 
L 753.551875 94.401506 
L 799.894125 92.302457 
L 846.236375 90.268933 
L 892.578625 88.49073 
L 938.920875 86.820981 
L 985.263125 85.19868 
" style="fill:none;stroke:#e4d354;stroke-linecap:square;"/>
   </g>
   <g id="line2d_76">
    <path clip-path="url(#pa85dc779e7)" d="M 104.760375 191.841189 
L 151.102625 155.673838 
L 197.444875 137.340491 
L 243.787125 125.462452 
L 290.129375 117.070777 
L 336.471625 110.470863 
L 382.813875 105.109138 
L 429.156125 100.502077 
L 475.498375 96.620306 
L 521.840625 93.156537 
L 568.182875 90.126587 
L 614.525125 87.473968 
L 660.867375 85.049555 
L 707.209625 82.826236 
L 753.551875 80.659403 
L 799.894125 78.759188 
L 846.236375 76.938055 
L 892.578625 75.322533 
L 938.920875 73.630189 
L 985.263125 72.09149 
" style="fill:none;stroke:#2b908f;stroke-linecap:square;"/>
   </g>
   <g id="line2d_77">
    <path clip-path="url(#pa85dc779e7)" d="M 104.760375 209.64582 
L 151.102625 171.203182 
L 197.444875 150.906354 
L 243.787125 137.570957 
L 290.129375 127.965946 
L 336.471625 120.656558 
L 382.813875 114.635068 
L 429.156125 109.62808 
L 475.498375 105.436762 
L 521.840625 101.68604 
L 568.182875 98.56571 
L 614.525125 95.727815 
L 660.867375 93.036785 
L 707.209625 90.587519 
L 753.551875 88.321269 
L 799.894125 86.26967 
L 846.236375 84.310708 
L 892.578625 82.480537 
L 938.920875 80.853718 
L 985.263125 79.226899 
" style="fill:none;stroke:#f45b5b;stroke-linecap:square;"/>
   </g>
   <g id="line2d_78">
    <path clip-path="url(#pa85dc779e7)" d="M 104.760375 232.439363 
L 151.102625 196.260714 
L 197.444875 176.097196 
L 243.787125 162.62623 
L 290.129375 152.838202 
L 336.471625 145.205709 
L 382.813875 138.587719 
L 429.156125 133.282481 
L 475.498375 128.688977 
L 521.840625 124.680675 
L 568.182875 120.932213 
L 614.525125 117.762175 
L 660.867375 114.818085 
L 707.209625 112.113498 
L 753.551875 109.603226 
L 799.894125 107.28049 
L 846.236375 105.197258 
L 892.578625 103.288005 
L 938.920875 101.347119 
L 985.263125 99.598289 
" style="fill:none;stroke:#91e8e1;stroke-linecap:square;"/>
   </g>
   <g id="line2d_79">
    <path clip-path="url(#pa85dc779e7)" d="M 104.760375 216.078534 
L 151.102625 179.079697 
L 197.444875 159.562388 
L 243.787125 147.110443 
L 290.129375 137.918916 
L 336.471625 130.828696 
L 382.813875 125.141607 
L 429.156125 120.30634 
L 475.498375 116.022383 
L 521.840625 112.454678 
L 568.182875 109.232673 
L 614.525125 106.46708 
L 660.867375 104.092376 
L 707.209625 101.954917 
L 753.551875 99.788084 
L 799.894125 97.892388 
L 846.236375 96.181969 
L 892.578625 94.55289 
L 938.920875 93.034526 
L 985.263125 91.543275 
" style="fill:none;stroke:#7cb5ec;stroke-linecap:square;"/>
   </g>
   <g id="line2d_80">
    <path clip-path="url(#pa85dc779e7)" d="M 104.760375 182.916279 
L 151.102625 149.272757 
L 197.444875 132.665646 
L 243.787125 122.321788 
L 290.129375 114.716409 
L 336.471625 108.866638 
L 382.813875 103.913878 
L 429.156125 99.97788 
L 475.498375 96.570598 
L 521.840625 93.448009 
L 568.182875 90.689195 
L 614.525125 88.31675 
L 660.867375 86.109247 
L 707.209625 84.09154 
L 753.551875 82.112243 
L 799.894125 80.386007 
L 846.236375 78.704961 
L 892.578625 77.132369 
L 938.920875 75.675011 
L 985.263125 74.276398 
" style="fill:none;stroke:#434348;stroke-linecap:square;"/>
   </g>
   <g id="line2d_81">
    <path clip-path="url(#pa85dc779e7)" d="M 104.760375 217.352875 
L 151.102625 180.412785 
L 197.444875 160.156628 
L 243.787125 147.343169 
L 290.129375 138.341437 
L 336.471625 131.260255 
L 382.813875 125.781038 
L 429.156125 120.972884 
L 475.498375 116.867425 
L 521.840625 113.579895 
L 568.182875 110.35337 
L 614.525125 107.565183 
L 660.867375 105.104619 
L 707.209625 102.901635 
L 753.551875 100.70317 
L 799.894125 98.816512 
L 846.236375 96.970524 
L 892.578625 95.357262 
L 938.920875 93.768854 
L 985.263125 92.309235 
" style="fill:none;stroke:#90ed7d;stroke-linecap:square;"/>
   </g>
   <g id="line2d_82">
    <path clip-path="url(#pa85dc779e7)" d="M 104.760375 245.725052 
L 151.102625 211.557332 
L 197.444875 191.488712 
L 243.787125 178.334072 
L 290.129375 168.270388 
L 336.471625 160.301235 
L 382.813875 153.839148 
L 429.156125 148.280849 
L 475.498375 143.594707 
L 521.840625 139.516361 
L 568.182875 135.749823 
L 614.525125 132.47811 
L 660.867375 129.671847 
L 707.209625 127.021487 
L 753.551875 124.556405 
L 799.894125 122.326307 
L 846.236375 120.17755 
L 892.578625 118.21181 
L 938.920875 116.298038 
L 985.263125 114.501759 
" style="fill:none;stroke:#f7a35c;stroke-linecap:square;"/>
   </g>
   <g id="line2d_83">
    <path clip-path="url(#pa85dc779e7)" d="M 104.760375 184.418827 
L 151.102625 145.309645 
L 197.444875 126.257786 
L 243.787125 114.189952 
L 290.129375 105.703379 
L 336.471625 99.225476 
L 382.813875 94.306608 
L 429.156125 90.207928 
L 475.498375 86.518211 
L 521.840625 83.379806 
L 568.182875 80.645847 
L 614.525125 78.232732 
L 660.867375 75.89192 
L 707.209625 73.960072 
L 753.551875 72.068895 
L 799.894125 70.385589 
L 846.236375 68.822035 
L 892.578625 67.26526 
L 938.920875 65.886982 
L 985.263125 64.610381 
" style="fill:none;stroke:#8085e9;stroke-linecap:square;"/>
   </g>
   <g id="line2d_84">
    <path clip-path="url(#pa85dc779e7)" d="M 104.760375 176.698215 
L 151.102625 138.777515 
L 197.444875 120.498395 
L 243.787125 108.952498 
L 290.129375 100.897484 
L 336.471625 94.692977 
L 382.813875 89.837374 
L 429.156125 85.688986 
L 475.498375 82.073832 
L 521.840625 78.948984 
L 568.182875 76.239878 
L 614.525125 73.688936 
L 660.867375 71.49047 
L 707.209625 69.52699 
L 753.551875 67.705857 
L 799.894125 66.088075 
L 846.236375 64.456737 
L 892.578625 62.929335 
L 938.920875 61.53976 
L 985.263125 60.256381 
" style="fill:none;stroke:#f15c80;stroke-linecap:square;"/>
   </g>
   <g id="line2d_85">
    <path clip-path="url(#pa85dc779e7)" d="M 58.418125 353.2239 
L 985.263125 353.2239 
" style="fill:none;stroke:#dedede;stroke-linecap:square;stroke-width:2;"/>
   </g>
   <g id="text_17">
    <!-- RSeQC: Junction Saturation -->
    <defs>
     <path d="M 44.390625 34.1875 
Q 47.5625 33.109375 50.5625 29.59375 
Q 53.5625 26.078125 56.59375 19.921875 
L 66.609375 0 
L 56 0 
L 46.6875 18.703125 
Q 43.0625 26.03125 39.671875 28.421875 
Q 36.28125 30.8125 30.421875 30.8125 
L 19.671875 30.8125 
L 19.671875 0 
L 9.8125 0 
L 9.8125 72.90625 
L 32.078125 72.90625 
Q 44.578125 72.90625 50.734375 67.671875 
Q 56.890625 62.453125 56.890625 51.90625 
Q 56.890625 45.015625 53.6875 40.46875 
Q 50.484375 35.9375 44.390625 34.1875 
z
M 19.671875 64.796875 
L 19.671875 38.921875 
L 32.078125 38.921875 
Q 39.203125 38.921875 42.84375 42.21875 
Q 46.484375 45.515625 46.484375 51.90625 
Q 46.484375 58.296875 42.84375 61.546875 
Q 39.203125 64.796875 32.078125 64.796875 
z
" id="DejaVuSans-82"/>
     <path d="M 53.515625 70.515625 
L 53.515625 60.890625 
Q 47.90625 63.578125 42.921875 64.890625 
Q 37.9375 66.21875 33.296875 66.21875 
Q 25.25 66.21875 20.875 63.09375 
Q 16.5 59.96875 16.5 54.203125 
Q 16.5 49.359375 19.40625 46.890625 
Q 22.3125 44.4375 30.421875 42.921875 
L 36.375 41.703125 
Q 47.40625 39.59375 52.65625 34.296875 
Q 57.90625 29 57.90625 20.125 
Q 57.90625 9.515625 50.796875 4.046875 
Q 43.703125 -1.421875 29.984375 -1.421875 
Q 24.8125 -1.421875 18.96875 -0.25 
Q 13.140625 0.921875 6.890625 3.21875 
L 6.890625 13.375 
Q 12.890625 10.015625 18.65625 8.296875 
Q 24.421875 6.59375 29.984375 6.59375 
Q 38.421875 6.59375 43.015625 9.90625 
Q 47.609375 13.234375 47.609375 19.390625 
Q 47.609375 24.75 44.3125 27.78125 
Q 41.015625 30.8125 33.5 32.328125 
L 27.484375 33.5 
Q 16.453125 35.6875 11.515625 40.375 
Q 6.59375 45.0625 6.59375 53.421875 
Q 6.59375 63.09375 13.40625 68.65625 
Q 20.21875 74.21875 32.171875 74.21875 
Q 37.3125 74.21875 42.625 73.28125 
Q 47.953125 72.359375 53.515625 70.515625 
z
" id="DejaVuSans-83"/>
     <path d="M 39.40625 66.21875 
Q 28.65625 66.21875 22.328125 58.203125 
Q 16.015625 50.203125 16.015625 36.375 
Q 16.015625 22.609375 22.328125 14.59375 
Q 28.65625 6.59375 39.40625 6.59375 
Q 50.140625 6.59375 56.421875 14.59375 
Q 62.703125 22.609375 62.703125 36.375 
Q 62.703125 50.203125 56.421875 58.203125 
Q 50.140625 66.21875 39.40625 66.21875 
z
M 53.21875 1.3125 
L 66.21875 -12.890625 
L 54.296875 -12.890625 
L 43.5 -1.21875 
Q 41.890625 -1.3125 41.03125 -1.359375 
Q 40.1875 -1.421875 39.40625 -1.421875 
Q 24.03125 -1.421875 14.8125 8.859375 
Q 5.609375 19.140625 5.609375 36.375 
Q 5.609375 53.65625 14.8125 63.9375 
Q 24.03125 74.21875 39.40625 74.21875 
Q 54.734375 74.21875 63.90625 63.9375 
Q 73.09375 53.65625 73.09375 36.375 
Q 73.09375 23.6875 67.984375 14.640625 
Q 62.890625 5.609375 53.21875 1.3125 
z
" id="DejaVuSans-81"/>
     <path d="M 64.40625 67.28125 
L 64.40625 56.890625 
Q 59.421875 61.53125 53.78125 63.8125 
Q 48.140625 66.109375 41.796875 66.109375 
Q 29.296875 66.109375 22.65625 58.46875 
Q 16.015625 50.828125 16.015625 36.375 
Q 16.015625 21.96875 22.65625 14.328125 
Q 29.296875 6.6875 41.796875 6.6875 
Q 48.140625 6.6875 53.78125 8.984375 
Q 59.421875 11.28125 64.40625 15.921875 
L 64.40625 5.609375 
Q 59.234375 2.09375 53.4375 0.328125 
Q 47.65625 -1.421875 41.21875 -1.421875 
Q 24.65625 -1.421875 15.125 8.703125 
Q 5.609375 18.84375 5.609375 36.375 
Q 5.609375 53.953125 15.125 64.078125 
Q 24.65625 74.21875 41.21875 74.21875 
Q 47.75 74.21875 53.53125 72.484375 
Q 59.328125 70.75 64.40625 67.28125 
z
" id="DejaVuSans-67"/>
     <path d="M 11.71875 12.40625 
L 22.015625 12.40625 
L 22.015625 0 
L 11.71875 0 
z
M 11.71875 51.703125 
L 22.015625 51.703125 
L 22.015625 39.3125 
L 11.71875 39.3125 
z
" id="DejaVuSans-58"/>
    </defs>
    <g transform="translate(412.691875 19.3575)scale(0.16 -0.16)">
     <use xlink:href="#DejaVuSans-82"/>
     <use x="69.482422" xlink:href="#DejaVuSans-83"/>
     <use x="132.958984" xlink:href="#DejaVuSans-101"/>
     <use x="194.482422" xlink:href="#DejaVuSans-81"/>
     <use x="273.193359" xlink:href="#DejaVuSans-67"/>
     <use x="343.017578" xlink:href="#DejaVuSans-58"/>
     <use x="376.708984" xlink:href="#DejaVuSans-32"/>
     <use x="408.496094" xlink:href="#DejaVuSans-74"/>
     <use x="437.988281" xlink:href="#DejaVuSans-117"/>
     <use x="501.367188" xlink:href="#DejaVuSans-110"/>
     <use x="564.746094" xlink:href="#DejaVuSans-99"/>
     <use x="619.726562" xlink:href="#DejaVuSans-116"/>
     <use x="658.935547" xlink:href="#DejaVuSans-105"/>
     <use x="686.71875" xlink:href="#DejaVuSans-111"/>
     <use x="747.900391" xlink:href="#DejaVuSans-110"/>
     <use x="811.279297" xlink:href="#DejaVuSans-32"/>
     <use x="843.066406" xlink:href="#DejaVuSans-83"/>
     <use x="906.542969" xlink:href="#DejaVuSans-97"/>
     <use x="967.822266" xlink:href="#DejaVuSans-116"/>
     <use x="1007.03125" xlink:href="#DejaVuSans-117"/>
     <use x="1070.410156" xlink:href="#DejaVuSans-114"/>
     <use x="1111.523438" xlink:href="#DejaVuSans-97"/>
     <use x="1172.802734" xlink:href="#DejaVuSans-116"/>
     <use x="1212.011719" xlink:href="#DejaVuSans-105"/>
     <use x="1239.794922" xlink:href="#DejaVuSans-111"/>
     <use x="1300.976562" xlink:href="#DejaVuSans-110"/>
    </g>
   </g>
  </g>
 </g>
 <defs>
  <clipPath id="pa85dc779e7">
   <rect height="317.968" width="926.845" x="58.418125" y="35.2559"/>
  </clipPath>
 </defs>
</svg>
