<?xml version="1.0" encoding="utf-8" standalone="no"?>
<!DOCTYPE svg PUBLIC "-//W3C//DTD SVG 1.1//EN"
  "http://www.w3.org/Graphics/SVG/1.1/DTD/svg11.dtd">
<!-- Created with matplotlib (https://matplotlib.org/) -->
<svg height="388.844525pt" version="1.1" viewBox="0 0 1000.098125 388.844525" width="1000.098125pt" xmlns="http://www.w3.org/2000/svg" xmlns:xlink="http://www.w3.org/1999/xlink">
 <defs>
  <style type="text/css">
*{stroke-linecap:butt;stroke-linejoin:round;}
  </style>
 </defs>
 <g id="figure_1">
  <g id="patch_1">
   <path d="M 0 388.844525 
L 1000.098125 388.844525 
L 1000.098125 0 
L 0 0 
z
" style="fill:#ffffff;"/>
  </g>
  <g id="axes_1">
   <g id="patch_2">
    <path d="M 58.418125 353.2239 
L 985.263125 353.2239 
L 985.263125 35.2559 
L 58.418125 35.2559 
z
" style="fill:#ffffff;"/>
   </g>
   <g id="matplotlib.axis_1">
    <g id="xtick_1">
     <g id="text_1">
      <!-- 0 -->
      <defs>
       <path d="M 31.78125 66.40625 
Q 24.171875 66.40625 20.328125 58.90625 
Q 16.5 51.421875 16.5 36.375 
Q 16.5 21.390625 20.328125 13.890625 
Q 24.171875 6.390625 31.78125 6.390625 
Q 39.453125 6.390625 43.28125 13.890625 
Q 47.125 21.390625 47.125 36.375 
Q 47.125 51.421875 43.28125 58.90625 
Q 39.453125 66.40625 31.78125 66.40625 
z
M 31.78125 74.21875 
Q 44.046875 74.21875 50.515625 64.515625 
Q 56.984375 54.828125 56.984375 36.375 
Q 56.984375 17.96875 50.515625 8.265625 
Q 44.046875 -1.421875 31.78125 -1.421875 
Q 19.53125 -1.421875 13.0625 8.265625 
Q 6.59375 17.96875 6.59375 36.375 
Q 6.59375 54.828125 13.0625 64.515625 
Q 19.53125 74.21875 31.78125 74.21875 
z
" id="DejaVuSans-48"/>
      </defs>
      <g transform="translate(55.873125 366.30265)scale(0.08 -0.08)">
       <use xlink:href="#DejaVuSans-48"/>
      </g>
     </g>
    </g>
    <g id="xtick_2">
     <g id="text_2">
      <!-- 20 -->
      <defs>
       <path d="M 19.1875 8.296875 
L 53.609375 8.296875 
L 53.609375 0 
L 7.328125 0 
L 7.328125 8.296875 
Q 12.9375 14.109375 22.625 23.890625 
Q 32.328125 33.6875 34.8125 36.53125 
Q 39.546875 41.84375 41.421875 45.53125 
Q 43.3125 49.21875 43.3125 52.78125 
Q 43.3125 58.59375 39.234375 62.25 
Q 35.15625 65.921875 28.609375 65.921875 
Q 23.96875 65.921875 18.8125 64.3125 
Q 13.671875 62.703125 7.8125 59.421875 
L 7.8125 69.390625 
Q 13.765625 71.78125 18.9375 73 
Q 24.125 74.21875 28.421875 74.21875 
Q 39.75 74.21875 46.484375 68.546875 
Q 53.21875 62.890625 53.21875 53.421875 
Q 53.21875 48.921875 51.53125 44.890625 
Q 49.859375 40.875 45.40625 35.40625 
Q 44.1875 33.984375 37.640625 27.21875 
Q 31.109375 20.453125 19.1875 8.296875 
z
" id="DejaVuSans-50"/>
      </defs>
      <g transform="translate(238.697125 366.30265)scale(0.08 -0.08)">
       <use xlink:href="#DejaVuSans-50"/>
       <use x="63.623047" xlink:href="#DejaVuSans-48"/>
      </g>
     </g>
    </g>
    <g id="xtick_3">
     <g id="text_3">
      <!-- 40 -->
      <defs>
       <path d="M 37.796875 64.3125 
L 12.890625 25.390625 
L 37.796875 25.390625 
z
M 35.203125 72.90625 
L 47.609375 72.90625 
L 47.609375 25.390625 
L 58.015625 25.390625 
L 58.015625 17.1875 
L 47.609375 17.1875 
L 47.609375 0 
L 37.796875 0 
L 37.796875 17.1875 
L 4.890625 17.1875 
L 4.890625 26.703125 
z
" id="DejaVuSans-52"/>
      </defs>
      <g transform="translate(424.066125 366.30265)scale(0.08 -0.08)">
       <use xlink:href="#DejaVuSans-52"/>
       <use x="63.623047" xlink:href="#DejaVuSans-48"/>
      </g>
     </g>
    </g>
    <g id="xtick_4">
     <g id="text_4">
      <!-- 60 -->
      <defs>
       <path d="M 33.015625 40.375 
Q 26.375 40.375 22.484375 35.828125 
Q 18.609375 31.296875 18.609375 23.390625 
Q 18.609375 15.53125 22.484375 10.953125 
Q 26.375 6.390625 33.015625 6.390625 
Q 39.65625 6.390625 43.53125 10.953125 
Q 47.40625 15.53125 47.40625 23.390625 
Q 47.40625 31.296875 43.53125 35.828125 
Q 39.65625 40.375 33.015625 40.375 
z
M 52.59375 71.296875 
L 52.59375 62.3125 
Q 48.875 64.0625 45.09375 64.984375 
Q 41.3125 65.921875 37.59375 65.921875 
Q 27.828125 65.921875 22.671875 59.328125 
Q 17.53125 52.734375 16.796875 39.40625 
Q 19.671875 43.65625 24.015625 45.921875 
Q 28.375 48.1875 33.59375 48.1875 
Q 44.578125 48.1875 50.953125 41.515625 
Q 57.328125 34.859375 57.328125 23.390625 
Q 57.328125 12.15625 50.6875 5.359375 
Q 44.046875 -1.421875 33.015625 -1.421875 
Q 20.359375 -1.421875 13.671875 8.265625 
Q 6.984375 17.96875 6.984375 36.375 
Q 6.984375 53.65625 15.1875 63.9375 
Q 23.390625 74.21875 37.203125 74.21875 
Q 40.921875 74.21875 44.703125 73.484375 
Q 48.484375 72.75 52.59375 71.296875 
z
" id="DejaVuSans-54"/>
      </defs>
      <g transform="translate(609.435125 366.30265)scale(0.08 -0.08)">
       <use xlink:href="#DejaVuSans-54"/>
       <use x="63.623047" xlink:href="#DejaVuSans-48"/>
      </g>
     </g>
    </g>
    <g id="xtick_5">
     <g id="text_5">
      <!-- 80 -->
      <defs>
       <path d="M 31.78125 34.625 
Q 24.75 34.625 20.71875 30.859375 
Q 16.703125 27.09375 16.703125 20.515625 
Q 16.703125 13.921875 20.71875 10.15625 
Q 24.75 6.390625 31.78125 6.390625 
Q 38.8125 6.390625 42.859375 10.171875 
Q 46.921875 13.96875 46.921875 20.515625 
Q 46.921875 27.09375 42.890625 30.859375 
Q 38.875 34.625 31.78125 34.625 
z
M 21.921875 38.8125 
Q 15.578125 40.375 12.03125 44.71875 
Q 8.5 49.078125 8.5 55.328125 
Q 8.5 64.0625 14.71875 69.140625 
Q 20.953125 74.21875 31.78125 74.21875 
Q 42.671875 74.21875 48.875 69.140625 
Q 55.078125 64.0625 55.078125 55.328125 
Q 55.078125 49.078125 51.53125 44.71875 
Q 48 40.375 41.703125 38.8125 
Q 48.828125 37.15625 52.796875 32.3125 
Q 56.78125 27.484375 56.78125 20.515625 
Q 56.78125 9.90625 50.3125 4.234375 
Q 43.84375 -1.421875 31.78125 -1.421875 
Q 19.734375 -1.421875 13.25 4.234375 
Q 6.78125 9.90625 6.78125 20.515625 
Q 6.78125 27.484375 10.78125 32.3125 
Q 14.796875 37.15625 21.921875 38.8125 
z
M 18.3125 54.390625 
Q 18.3125 48.734375 21.84375 45.5625 
Q 25.390625 42.390625 31.78125 42.390625 
Q 38.140625 42.390625 41.71875 45.5625 
Q 45.3125 48.734375 45.3125 54.390625 
Q 45.3125 60.0625 41.71875 63.234375 
Q 38.140625 66.40625 31.78125 66.40625 
Q 25.390625 66.40625 21.84375 63.234375 
Q 18.3125 60.0625 18.3125 54.390625 
z
" id="DejaVuSans-56"/>
      </defs>
      <g transform="translate(794.804125 366.30265)scale(0.08 -0.08)">
       <use xlink:href="#DejaVuSans-56"/>
       <use x="63.623047" xlink:href="#DejaVuSans-48"/>
      </g>
     </g>
    </g>
    <g id="xtick_6">
     <g id="text_6">
      <!-- 100 -->
      <defs>
       <path d="M 12.40625 8.296875 
L 28.515625 8.296875 
L 28.515625 63.921875 
L 10.984375 60.40625 
L 10.984375 69.390625 
L 28.421875 72.90625 
L 38.28125 72.90625 
L 38.28125 8.296875 
L 54.390625 8.296875 
L 54.390625 0 
L 12.40625 0 
z
" id="DejaVuSans-49"/>
      </defs>
      <g transform="translate(977.628125 366.30265)scale(0.08 -0.08)">
       <use xlink:href="#DejaVuSans-49"/>
       <use x="63.623047" xlink:href="#DejaVuSans-48"/>
       <use x="127.246094" xlink:href="#DejaVuSans-48"/>
      </g>
     </g>
    </g>
    <g id="text_7">
     <!-- Percent of reads -->
     <defs>
      <path d="M 19.671875 64.796875 
L 19.671875 37.40625 
L 32.078125 37.40625 
Q 38.96875 37.40625 42.71875 40.96875 
Q 46.484375 44.53125 46.484375 51.125 
Q 46.484375 57.671875 42.71875 61.234375 
Q 38.96875 64.796875 32.078125 64.796875 
z
M 9.8125 72.90625 
L 32.078125 72.90625 
Q 44.34375 72.90625 50.609375 67.359375 
Q 56.890625 61.8125 56.890625 51.125 
Q 56.890625 40.328125 50.609375 34.8125 
Q 44.34375 29.296875 32.078125 29.296875 
L 19.671875 29.296875 
L 19.671875 0 
L 9.8125 0 
z
" id="DejaVuSans-80"/>
      <path d="M 56.203125 29.59375 
L 56.203125 25.203125 
L 14.890625 25.203125 
Q 15.484375 15.921875 20.484375 11.0625 
Q 25.484375 6.203125 34.421875 6.203125 
Q 39.59375 6.203125 44.453125 7.46875 
Q 49.3125 8.734375 54.109375 11.28125 
L 54.109375 2.78125 
Q 49.265625 0.734375 44.1875 -0.34375 
Q 39.109375 -1.421875 33.890625 -1.421875 
Q 20.796875 -1.421875 13.15625 6.1875 
Q 5.515625 13.8125 5.515625 26.8125 
Q 5.515625 40.234375 12.765625 48.109375 
Q 20.015625 56 32.328125 56 
Q 43.359375 56 49.78125 48.890625 
Q 56.203125 41.796875 56.203125 29.59375 
z
M 47.21875 32.234375 
Q 47.125 39.59375 43.09375 43.984375 
Q 39.0625 48.390625 32.421875 48.390625 
Q 24.90625 48.390625 20.390625 44.140625 
Q 15.875 39.890625 15.1875 32.171875 
z
" id="DejaVuSans-101"/>
      <path d="M 41.109375 46.296875 
Q 39.59375 47.171875 37.8125 47.578125 
Q 36.03125 48 33.890625 48 
Q 26.265625 48 22.1875 43.046875 
Q 18.109375 38.09375 18.109375 28.8125 
L 18.109375 0 
L 9.078125 0 
L 9.078125 54.6875 
L 18.109375 54.6875 
L 18.109375 46.1875 
Q 20.953125 51.171875 25.484375 53.578125 
Q 30.03125 56 36.53125 56 
Q 37.453125 56 38.578125 55.875 
Q 39.703125 55.765625 41.0625 55.515625 
z
" id="DejaVuSans-114"/>
      <path d="M 48.78125 52.59375 
L 48.78125 44.1875 
Q 44.96875 46.296875 41.140625 47.34375 
Q 37.3125 48.390625 33.40625 48.390625 
Q 24.65625 48.390625 19.8125 42.84375 
Q 14.984375 37.3125 14.984375 27.296875 
Q 14.984375 17.28125 19.8125 11.734375 
Q 24.65625 6.203125 33.40625 6.203125 
Q 37.3125 6.203125 41.140625 7.25 
Q 44.96875 8.296875 48.78125 10.40625 
L 48.78125 2.09375 
Q 45.015625 0.34375 40.984375 -0.53125 
Q 36.96875 -1.421875 32.421875 -1.421875 
Q 20.0625 -1.421875 12.78125 6.34375 
Q 5.515625 14.109375 5.515625 27.296875 
Q 5.515625 40.671875 12.859375 48.328125 
Q 20.21875 56 33.015625 56 
Q 37.15625 56 41.109375 55.140625 
Q 45.0625 54.296875 48.78125 52.59375 
z
" id="DejaVuSans-99"/>
      <path d="M 54.890625 33.015625 
L 54.890625 0 
L 45.90625 0 
L 45.90625 32.71875 
Q 45.90625 40.484375 42.875 44.328125 
Q 39.84375 48.1875 33.796875 48.1875 
Q 26.515625 48.1875 22.3125 43.546875 
Q 18.109375 38.921875 18.109375 30.90625 
L 18.109375 0 
L 9.078125 0 
L 9.078125 54.6875 
L 18.109375 54.6875 
L 18.109375 46.1875 
Q 21.34375 51.125 25.703125 53.5625 
Q 30.078125 56 35.796875 56 
Q 45.21875 56 50.046875 50.171875 
Q 54.890625 44.34375 54.890625 33.015625 
z
" id="DejaVuSans-110"/>
      <path d="M 18.3125 70.21875 
L 18.3125 54.6875 
L 36.8125 54.6875 
L 36.8125 47.703125 
L 18.3125 47.703125 
L 18.3125 18.015625 
Q 18.3125 11.328125 20.140625 9.421875 
Q 21.96875 7.515625 27.59375 7.515625 
L 36.8125 7.515625 
L 36.8125 0 
L 27.59375 0 
Q 17.1875 0 13.234375 3.875 
Q 9.28125 7.765625 9.28125 18.015625 
L 9.28125 47.703125 
L 2.6875 47.703125 
L 2.6875 54.6875 
L 9.28125 54.6875 
L 9.28125 70.21875 
z
" id="DejaVuSans-116"/>
      <path id="DejaVuSans-32"/>
      <path d="M 30.609375 48.390625 
Q 23.390625 48.390625 19.1875 42.75 
Q 14.984375 37.109375 14.984375 27.296875 
Q 14.984375 17.484375 19.15625 11.84375 
Q 23.34375 6.203125 30.609375 6.203125 
Q 37.796875 6.203125 41.984375 11.859375 
Q 46.1875 17.53125 46.1875 27.296875 
Q 46.1875 37.015625 41.984375 42.703125 
Q 37.796875 48.390625 30.609375 48.390625 
z
M 30.609375 56 
Q 42.328125 56 49.015625 48.375 
Q 55.71875 40.765625 55.71875 27.296875 
Q 55.71875 13.875 49.015625 6.21875 
Q 42.328125 -1.421875 30.609375 -1.421875 
Q 18.84375 -1.421875 12.171875 6.21875 
Q 5.515625 13.875 5.515625 27.296875 
Q 5.515625 40.765625 12.171875 48.375 
Q 18.84375 56 30.609375 56 
z
" id="DejaVuSans-111"/>
      <path d="M 37.109375 75.984375 
L 37.109375 68.5 
L 28.515625 68.5 
Q 23.6875 68.5 21.796875 66.546875 
Q 19.921875 64.59375 19.921875 59.515625 
L 19.921875 54.6875 
L 34.71875 54.6875 
L 34.71875 47.703125 
L 19.921875 47.703125 
L 19.921875 0 
L 10.890625 0 
L 10.890625 47.703125 
L 2.296875 47.703125 
L 2.296875 54.6875 
L 10.890625 54.6875 
L 10.890625 58.5 
Q 10.890625 67.625 15.140625 71.796875 
Q 19.390625 75.984375 28.609375 75.984375 
z
" id="DejaVuSans-102"/>
      <path d="M 34.28125 27.484375 
Q 23.390625 27.484375 19.1875 25 
Q 14.984375 22.515625 14.984375 16.5 
Q 14.984375 11.71875 18.140625 8.90625 
Q 21.296875 6.109375 26.703125 6.109375 
Q 34.1875 6.109375 38.703125 11.40625 
Q 43.21875 16.703125 43.21875 25.484375 
L 43.21875 27.484375 
z
M 52.203125 31.203125 
L 52.203125 0 
L 43.21875 0 
L 43.21875 8.296875 
Q 40.140625 3.328125 35.546875 0.953125 
Q 30.953125 -1.421875 24.3125 -1.421875 
Q 15.921875 -1.421875 10.953125 3.296875 
Q 6 8.015625 6 15.921875 
Q 6 25.140625 12.171875 29.828125 
Q 18.359375 34.515625 30.609375 34.515625 
L 43.21875 34.515625 
L 43.21875 35.40625 
Q 43.21875 41.609375 39.140625 45 
Q 35.0625 48.390625 27.6875 48.390625 
Q 23 48.390625 18.546875 47.265625 
Q 14.109375 46.140625 10.015625 43.890625 
L 10.015625 52.203125 
Q 14.9375 54.109375 19.578125 55.046875 
Q 24.21875 56 28.609375 56 
Q 40.484375 56 46.34375 49.84375 
Q 52.203125 43.703125 52.203125 31.203125 
z
" id="DejaVuSans-97"/>
      <path d="M 45.40625 46.390625 
L 45.40625 75.984375 
L 54.390625 75.984375 
L 54.390625 0 
L 45.40625 0 
L 45.40625 8.203125 
Q 42.578125 3.328125 38.25 0.953125 
Q 33.9375 -1.421875 27.875 -1.421875 
Q 17.96875 -1.421875 11.734375 6.484375 
Q 5.515625 14.40625 5.515625 27.296875 
Q 5.515625 40.1875 11.734375 48.09375 
Q 17.96875 56 27.875 56 
Q 33.9375 56 38.25 53.625 
Q 42.578125 51.265625 45.40625 46.390625 
z
M 14.796875 27.296875 
Q 14.796875 17.390625 18.875 11.75 
Q 22.953125 6.109375 30.078125 6.109375 
Q 37.203125 6.109375 41.296875 11.75 
Q 45.40625 17.390625 45.40625 27.296875 
Q 45.40625 37.203125 41.296875 42.84375 
Q 37.203125 48.484375 30.078125 48.484375 
Q 22.953125 48.484375 18.875 42.84375 
Q 14.796875 37.203125 14.796875 27.296875 
z
" id="DejaVuSans-100"/>
      <path d="M 44.28125 53.078125 
L 44.28125 44.578125 
Q 40.484375 46.53125 36.375 47.5 
Q 32.28125 48.484375 27.875 48.484375 
Q 21.1875 48.484375 17.84375 46.4375 
Q 14.5 44.390625 14.5 40.28125 
Q 14.5 37.15625 16.890625 35.375 
Q 19.28125 33.59375 26.515625 31.984375 
L 29.59375 31.296875 
Q 39.15625 29.25 43.1875 25.515625 
Q 47.21875 21.78125 47.21875 15.09375 
Q 47.21875 7.46875 41.1875 3.015625 
Q 35.15625 -1.421875 24.609375 -1.421875 
Q 20.21875 -1.421875 15.453125 -0.5625 
Q 10.6875 0.296875 5.421875 2 
L 5.421875 11.28125 
Q 10.40625 8.6875 15.234375 7.390625 
Q 20.0625 6.109375 24.8125 6.109375 
Q 31.15625 6.109375 34.5625 8.28125 
Q 37.984375 10.453125 37.984375 14.40625 
Q 37.984375 18.0625 35.515625 20.015625 
Q 33.0625 21.96875 24.703125 23.78125 
L 21.578125 24.515625 
Q 13.234375 26.265625 9.515625 29.90625 
Q 5.8125 33.546875 5.8125 39.890625 
Q 5.8125 47.609375 11.28125 51.796875 
Q 16.75 56 26.8125 56 
Q 31.78125 56 36.171875 55.265625 
Q 40.578125 54.546875 44.28125 53.078125 
z
" id="DejaVuSans-115"/>
     </defs>
     <g transform="translate(480.771875 379.564837)scale(0.1 -0.1)">
      <use xlink:href="#DejaVuSans-80"/>
      <use x="60.255859" xlink:href="#DejaVuSans-101"/>
      <use x="121.779297" xlink:href="#DejaVuSans-114"/>
      <use x="162.861328" xlink:href="#DejaVuSans-99"/>
      <use x="217.841797" xlink:href="#DejaVuSans-101"/>
      <use x="279.365234" xlink:href="#DejaVuSans-110"/>
      <use x="342.744141" xlink:href="#DejaVuSans-116"/>
      <use x="381.953125" xlink:href="#DejaVuSans-32"/>
      <use x="413.740234" xlink:href="#DejaVuSans-111"/>
      <use x="474.921875" xlink:href="#DejaVuSans-102"/>
      <use x="510.126953" xlink:href="#DejaVuSans-32"/>
      <use x="541.914062" xlink:href="#DejaVuSans-114"/>
      <use x="582.996094" xlink:href="#DejaVuSans-101"/>
      <use x="644.519531" xlink:href="#DejaVuSans-97"/>
      <use x="705.798828" xlink:href="#DejaVuSans-100"/>
      <use x="769.275391" xlink:href="#DejaVuSans-115"/>
     </g>
    </g>
   </g>
   <g id="matplotlib.axis_2">
    <g id="ytick_1">
     <g id="line2d_1">
      <path clip-path="url(#p034669da58)" d="M 58.418125 353.2239 
L 985.263125 353.2239 
" style="fill:none;stroke:#dedede;stroke-linecap:square;"/>
     </g>
     <g id="text_8">
      <!-- 0 -->
      <g transform="translate(46.328125 356.263275)scale(0.08 -0.08)">
       <use xlink:href="#DejaVuSans-48"/>
      </g>
     </g>
    </g>
    <g id="ytick_2">
     <g id="line2d_2">
      <path clip-path="url(#p034669da58)" d="M 58.418125 310.847377 
L 985.263125 310.847377 
" style="fill:none;stroke:#dedede;stroke-linecap:square;"/>
     </g>
     <g id="text_9">
      <!-- 25000 -->
      <defs>
       <path d="M 10.796875 72.90625 
L 49.515625 72.90625 
L 49.515625 64.59375 
L 19.828125 64.59375 
L 19.828125 46.734375 
Q 21.96875 47.46875 24.109375 47.828125 
Q 26.265625 48.1875 28.421875 48.1875 
Q 40.625 48.1875 47.75 41.5 
Q 54.890625 34.8125 54.890625 23.390625 
Q 54.890625 11.625 47.5625 5.09375 
Q 40.234375 -1.421875 26.90625 -1.421875 
Q 22.3125 -1.421875 17.546875 -0.640625 
Q 12.796875 0.140625 7.71875 1.703125 
L 7.71875 11.625 
Q 12.109375 9.234375 16.796875 8.0625 
Q 21.484375 6.890625 26.703125 6.890625 
Q 35.15625 6.890625 40.078125 11.328125 
Q 45.015625 15.765625 45.015625 23.390625 
Q 45.015625 31 40.078125 35.4375 
Q 35.15625 39.890625 26.703125 39.890625 
Q 22.75 39.890625 18.8125 39.015625 
Q 14.890625 38.140625 10.796875 36.28125 
z
" id="DejaVuSans-53"/>
      </defs>
      <g transform="translate(25.968125 313.886752)scale(0.08 -0.08)">
       <use xlink:href="#DejaVuSans-50"/>
       <use x="63.623047" xlink:href="#DejaVuSans-53"/>
       <use x="127.246094" xlink:href="#DejaVuSans-48"/>
       <use x="190.869141" xlink:href="#DejaVuSans-48"/>
       <use x="254.492188" xlink:href="#DejaVuSans-48"/>
      </g>
     </g>
    </g>
    <g id="ytick_3">
     <g id="line2d_3">
      <path clip-path="url(#p034669da58)" d="M 58.418125 268.470855 
L 985.263125 268.470855 
" style="fill:none;stroke:#dedede;stroke-linecap:square;"/>
     </g>
     <g id="text_10">
      <!-- 50000 -->
      <g transform="translate(25.968125 271.51023)scale(0.08 -0.08)">
       <use xlink:href="#DejaVuSans-53"/>
       <use x="63.623047" xlink:href="#DejaVuSans-48"/>
       <use x="127.246094" xlink:href="#DejaVuSans-48"/>
       <use x="190.869141" xlink:href="#DejaVuSans-48"/>
       <use x="254.492188" xlink:href="#DejaVuSans-48"/>
      </g>
     </g>
    </g>
    <g id="ytick_4">
     <g id="line2d_4">
      <path clip-path="url(#p034669da58)" d="M 58.418125 226.094332 
L 985.263125 226.094332 
" style="fill:none;stroke:#dedede;stroke-linecap:square;"/>
     </g>
     <g id="text_11">
      <!-- 75000 -->
      <defs>
       <path d="M 8.203125 72.90625 
L 55.078125 72.90625 
L 55.078125 68.703125 
L 28.609375 0 
L 18.3125 0 
L 43.21875 64.59375 
L 8.203125 64.59375 
z
" id="DejaVuSans-55"/>
      </defs>
      <g transform="translate(25.968125 229.133707)scale(0.08 -0.08)">
       <use xlink:href="#DejaVuSans-55"/>
       <use x="63.623047" xlink:href="#DejaVuSans-53"/>
       <use x="127.246094" xlink:href="#DejaVuSans-48"/>
       <use x="190.869141" xlink:href="#DejaVuSans-48"/>
       <use x="254.492188" xlink:href="#DejaVuSans-48"/>
      </g>
     </g>
    </g>
    <g id="ytick_5">
     <g id="line2d_5">
      <path clip-path="url(#p034669da58)" d="M 58.418125 183.717809 
L 985.263125 183.717809 
" style="fill:none;stroke:#dedede;stroke-linecap:square;"/>
     </g>
     <g id="text_12">
      <!-- 100000 -->
      <g transform="translate(20.878125 186.757184)scale(0.08 -0.08)">
       <use xlink:href="#DejaVuSans-49"/>
       <use x="63.623047" xlink:href="#DejaVuSans-48"/>
       <use x="127.246094" xlink:href="#DejaVuSans-48"/>
       <use x="190.869141" xlink:href="#DejaVuSans-48"/>
       <use x="254.492188" xlink:href="#DejaVuSans-48"/>
       <use x="318.115234" xlink:href="#DejaVuSans-48"/>
      </g>
     </g>
    </g>
    <g id="ytick_6">
     <g id="line2d_6">
      <path clip-path="url(#p034669da58)" d="M 58.418125 141.341287 
L 985.263125 141.341287 
" style="fill:none;stroke:#dedede;stroke-linecap:square;"/>
     </g>
     <g id="text_13">
      <!-- 125000 -->
      <g transform="translate(20.878125 144.380662)scale(0.08 -0.08)">
       <use xlink:href="#DejaVuSans-49"/>
       <use x="63.623047" xlink:href="#DejaVuSans-50"/>
       <use x="127.246094" xlink:href="#DejaVuSans-53"/>
       <use x="190.869141" xlink:href="#DejaVuSans-48"/>
       <use x="254.492188" xlink:href="#DejaVuSans-48"/>
       <use x="318.115234" xlink:href="#DejaVuSans-48"/>
      </g>
     </g>
    </g>
    <g id="ytick_7">
     <g id="line2d_7">
      <path clip-path="url(#p034669da58)" d="M 58.418125 98.964764 
L 985.263125 98.964764 
" style="fill:none;stroke:#dedede;stroke-linecap:square;"/>
     </g>
     <g id="text_14">
      <!-- 150000 -->
      <g transform="translate(20.878125 102.004139)scale(0.08 -0.08)">
       <use xlink:href="#DejaVuSans-49"/>
       <use x="63.623047" xlink:href="#DejaVuSans-53"/>
       <use x="127.246094" xlink:href="#DejaVuSans-48"/>
       <use x="190.869141" xlink:href="#DejaVuSans-48"/>
       <use x="254.492188" xlink:href="#DejaVuSans-48"/>
       <use x="318.115234" xlink:href="#DejaVuSans-48"/>
      </g>
     </g>
    </g>
    <g id="ytick_8">
     <g id="line2d_8">
      <path clip-path="url(#p034669da58)" d="M 58.418125 56.588241 
L 985.263125 56.588241 
" style="fill:none;stroke:#dedede;stroke-linecap:square;"/>
     </g>
     <g id="text_15">
      <!-- 175000 -->
      <g transform="translate(20.878125 59.627616)scale(0.08 -0.08)">
       <use xlink:href="#DejaVuSans-49"/>
       <use x="63.623047" xlink:href="#DejaVuSans-55"/>
       <use x="127.246094" xlink:href="#DejaVuSans-53"/>
       <use x="190.869141" xlink:href="#DejaVuSans-48"/>
       <use x="254.492188" xlink:href="#DejaVuSans-48"/>
       <use x="318.115234" xlink:href="#DejaVuSans-48"/>
      </g>
     </g>
    </g>
    <g id="text_16">
     <!-- Number of Junctions -->
     <defs>
      <path d="M 9.8125 72.90625 
L 23.09375 72.90625 
L 55.421875 11.921875 
L 55.421875 72.90625 
L 64.984375 72.90625 
L 64.984375 0 
L 51.703125 0 
L 19.390625 60.984375 
L 19.390625 0 
L 9.8125 0 
z
" id="DejaVuSans-78"/>
      <path d="M 8.5 21.578125 
L 8.5 54.6875 
L 17.484375 54.6875 
L 17.484375 21.921875 
Q 17.484375 14.15625 20.5 10.265625 
Q 23.53125 6.390625 29.59375 6.390625 
Q 36.859375 6.390625 41.078125 11.03125 
Q 45.3125 15.671875 45.3125 23.6875 
L 45.3125 54.6875 
L 54.296875 54.6875 
L 54.296875 0 
L 45.3125 0 
L 45.3125 8.40625 
Q 42.046875 3.421875 37.71875 1 
Q 33.40625 -1.421875 27.6875 -1.421875 
Q 18.265625 -1.421875 13.375 4.4375 
Q 8.5 10.296875 8.5 21.578125 
z
M 31.109375 56 
z
" id="DejaVuSans-117"/>
      <path d="M 52 44.1875 
Q 55.375 50.25 60.0625 53.125 
Q 64.75 56 71.09375 56 
Q 79.640625 56 84.28125 50.015625 
Q 88.921875 44.046875 88.921875 33.015625 
L 88.921875 0 
L 79.890625 0 
L 79.890625 32.71875 
Q 79.890625 40.578125 77.09375 44.375 
Q 74.3125 48.1875 68.609375 48.1875 
Q 61.625 48.1875 57.5625 43.546875 
Q 53.515625 38.921875 53.515625 30.90625 
L 53.515625 0 
L 44.484375 0 
L 44.484375 32.71875 
Q 44.484375 40.625 41.703125 44.40625 
Q 38.921875 48.1875 33.109375 48.1875 
Q 26.21875 48.1875 22.15625 43.53125 
Q 18.109375 38.875 18.109375 30.90625 
L 18.109375 0 
L 9.078125 0 
L 9.078125 54.6875 
L 18.109375 54.6875 
L 18.109375 46.1875 
Q 21.1875 51.21875 25.484375 53.609375 
Q 29.78125 56 35.6875 56 
Q 41.65625 56 45.828125 52.96875 
Q 50 49.953125 52 44.1875 
z
" id="DejaVuSans-109"/>
      <path d="M 48.6875 27.296875 
Q 48.6875 37.203125 44.609375 42.84375 
Q 40.53125 48.484375 33.40625 48.484375 
Q 26.265625 48.484375 22.1875 42.84375 
Q 18.109375 37.203125 18.109375 27.296875 
Q 18.109375 17.390625 22.1875 11.75 
Q 26.265625 6.109375 33.40625 6.109375 
Q 40.53125 6.109375 44.609375 11.75 
Q 48.6875 17.390625 48.6875 27.296875 
z
M 18.109375 46.390625 
Q 20.953125 51.265625 25.265625 53.625 
Q 29.59375 56 35.59375 56 
Q 45.5625 56 51.78125 48.09375 
Q 58.015625 40.1875 58.015625 27.296875 
Q 58.015625 14.40625 51.78125 6.484375 
Q 45.5625 -1.421875 35.59375 -1.421875 
Q 29.59375 -1.421875 25.265625 0.953125 
Q 20.953125 3.328125 18.109375 8.203125 
L 18.109375 0 
L 9.078125 0 
L 9.078125 75.984375 
L 18.109375 75.984375 
z
" id="DejaVuSans-98"/>
      <path d="M 9.8125 72.90625 
L 19.671875 72.90625 
L 19.671875 5.078125 
Q 19.671875 -8.109375 14.671875 -14.0625 
Q 9.671875 -20.015625 -1.421875 -20.015625 
L -5.171875 -20.015625 
L -5.171875 -11.71875 
L -2.09375 -11.71875 
Q 4.4375 -11.71875 7.125 -8.046875 
Q 9.8125 -4.390625 9.8125 5.078125 
z
" id="DejaVuSans-74"/>
      <path d="M 9.421875 54.6875 
L 18.40625 54.6875 
L 18.40625 0 
L 9.421875 0 
z
M 9.421875 75.984375 
L 18.40625 75.984375 
L 18.40625 64.59375 
L 9.421875 64.59375 
z
" id="DejaVuSans-105"/>
     </defs>
     <g transform="translate(14.798438 245.067244)rotate(-90)scale(0.1 -0.1)">
      <use xlink:href="#DejaVuSans-78"/>
      <use x="74.804688" xlink:href="#DejaVuSans-117"/>
      <use x="138.183594" xlink:href="#DejaVuSans-109"/>
      <use x="235.595703" xlink:href="#DejaVuSans-98"/>
      <use x="299.072266" xlink:href="#DejaVuSans-101"/>
      <use x="360.595703" xlink:href="#DejaVuSans-114"/>
      <use x="401.708984" xlink:href="#DejaVuSans-32"/>
      <use x="433.496094" xlink:href="#DejaVuSans-111"/>
      <use x="494.677734" xlink:href="#DejaVuSans-102"/>
      <use x="529.882812" xlink:href="#DejaVuSans-32"/>
      <use x="561.669922" xlink:href="#DejaVuSans-74"/>
      <use x="591.162109" xlink:href="#DejaVuSans-117"/>
      <use x="654.541016" xlink:href="#DejaVuSans-110"/>
      <use x="717.919922" xlink:href="#DejaVuSans-99"/>
      <use x="772.900391" xlink:href="#DejaVuSans-116"/>
      <use x="812.109375" xlink:href="#DejaVuSans-105"/>
      <use x="839.892578" xlink:href="#DejaVuSans-111"/>
      <use x="901.074219" xlink:href="#DejaVuSans-110"/>
      <use x="964.453125" xlink:href="#DejaVuSans-115"/>
     </g>
    </g>
   </g>
   <g id="line2d_9">
    <path clip-path="url(#p034669da58)" d="M 104.760375 208.086005 
L 151.102625 172.204956 
L 197.444875 152.759217 
L 243.787125 139.591984 
L 290.129375 129.73012 
L 336.471625 121.653154 
L 382.813875 114.723745 
L 429.156125 108.536773 
L 475.498375 103.102408 
L 521.840625 98.244363 
L 568.182875 93.723636 
L 614.525125 89.450387 
L 660.867375 85.551747 
L 707.209625 81.831089 
L 753.551875 78.269766 
L 799.894125 74.899984 
L 846.236375 71.708185 
L 892.578625 68.718097 
L 938.920875 65.929722 
L 985.263125 63.165078 
" style="fill:none;stroke:#7cb5ec;stroke-linecap:square;"/>
   </g>
   <g id="line2d_10">
    <path clip-path="url(#p034669da58)" d="M 104.760375 221.897361 
L 151.102625 186.184123 
L 197.444875 165.173843 
L 243.787125 150.521737 
L 290.129375 139.200425 
L 336.471625 129.523322 
L 382.813875 121.371774 
L 429.156125 114.42711 
L 475.498375 108.050291 
L 521.840625 102.265048 
L 568.182875 96.996798 
L 614.525125 92.194691 
L 660.867375 87.480727 
L 707.209625 83.122725 
L 753.551875 79.027458 
L 799.894125 75.230521 
L 846.236375 71.655638 
L 892.578625 68.101095 
L 938.920875 64.699108 
L 985.263125 61.41747 
" style="fill:none;stroke:#434348;stroke-linecap:square;"/>
   </g>
   <g id="line2d_11">
    <path clip-path="url(#p034669da58)" d="M 104.760375 202.258386 
L 151.102625 166.618035 
L 197.444875 147.42147 
L 243.787125 134.428828 
L 290.129375 124.526283 
L 336.471625 116.540851 
L 382.813875 109.809764 
L 429.156125 103.829589 
L 475.498375 98.386748 
L 521.840625 93.460901 
L 568.182875 88.952039 
L 614.525125 84.675401 
L 660.867375 80.844563 
L 707.209625 77.162891 
L 753.551875 73.708357 
L 799.894125 70.355526 
L 846.236375 67.24848 
L 892.578625 64.346535 
L 938.920875 61.431031 
L 985.263125 58.742664 
" style="fill:none;stroke:#90ed7d;stroke-linecap:square;"/>
   </g>
   <g id="line2d_12">
    <path clip-path="url(#p034669da58)" d="M 104.760375 215.31883 
L 151.102625 178.063086 
L 197.444875 157.544374 
L 243.787125 143.363494 
L 290.129375 132.25915 
L 336.471625 123.070225 
L 382.813875 115.279725 
L 429.156125 108.574064 
L 475.498375 102.47354 
L 521.840625 97.03409 
L 568.182875 92.104853 
L 614.525125 87.424789 
L 660.867375 83.205783 
L 707.209625 79.035933 
L 753.551875 75.106782 
L 799.894125 71.414939 
L 846.236375 67.841751 
L 892.578625 64.607575 
L 938.920875 61.464932 
L 985.263125 58.371446 
" style="fill:none;stroke:#f7a35c;stroke-linecap:square;"/>
   </g>
   <g id="line2d_13">
    <path clip-path="url(#p034669da58)" d="M 104.760375 233.154261 
L 151.102625 197.283382 
L 197.444875 176.049354 
L 243.787125 161.476915 
L 290.129375 149.943721 
L 336.471625 140.45138 
L 382.813875 132.420181 
L 429.156125 125.217867 
L 475.498375 118.919021 
L 521.840625 113.260908 
L 568.182875 107.841798 
L 614.525125 102.971888 
L 660.867375 98.402004 
L 707.209625 94.150791 
L 753.551875 90.202994 
L 799.894125 86.282318 
L 846.236375 82.634547 
L 892.578625 79.163063 
L 938.920875 75.815317 
L 985.263125 72.5608 
" style="fill:none;stroke:#8085e9;stroke-linecap:square;"/>
   </g>
   <g id="line2d_14">
    <path clip-path="url(#p034669da58)" d="M 104.760375 234.037387 
L 151.102625 197.171508 
L 197.444875 177.117242 
L 243.787125 163.387249 
L 290.129375 153.233834 
L 336.471625 145.021264 
L 382.813875 138.22407 
L 429.156125 132.350684 
L 475.498375 127.251941 
L 521.840625 122.634595 
L 568.182875 118.441014 
L 614.525125 114.740696 
L 660.867375 111.194629 
L 707.209625 107.806202 
L 753.551875 104.577111 
L 799.894125 101.742969 
L 846.236375 98.966459 
L 892.578625 96.349285 
L 938.920875 93.767707 
L 985.263125 91.423438 
" style="fill:none;stroke:#f15c80;stroke-linecap:square;"/>
   </g>
   <g id="line2d_15">
    <path clip-path="url(#p034669da58)" d="M 104.760375 221.319345 
L 151.102625 184.784003 
L 197.444875 164.721262 
L 243.787125 150.699718 
L 290.129375 140.068296 
L 336.471625 131.396364 
L 382.813875 124.100822 
L 429.156125 117.805366 
L 475.498375 112.064195 
L 521.840625 106.940026 
L 568.182875 102.214196 
L 614.525125 97.890096 
L 660.867375 93.793133 
L 707.209625 90.038573 
L 753.551875 86.502676 
L 799.894125 83.11425 
L 846.236375 79.842782 
L 892.578625 76.752686 
L 938.920875 73.815145 
L 985.263125 71.053891 
" style="fill:none;stroke:#e4d354;stroke-linecap:square;"/>
   </g>
   <g id="line2d_16">
    <path clip-path="url(#p034669da58)" d="M 104.760375 221.144754 
L 151.102625 184.622972 
L 197.444875 164.344958 
L 243.787125 150.375961 
L 290.129375 139.803867 
L 336.471625 131.296356 
L 382.813875 124.094042 
L 429.156125 117.735869 
L 475.498375 112.035379 
L 521.840625 106.92816 
L 568.182875 102.166734 
L 614.525125 97.862975 
L 660.867375 93.781268 
L 707.209625 90.099596 
L 753.551875 86.519627 
L 799.894125 83.171882 
L 846.236375 79.93262 
L 892.578625 76.944228 
L 938.920875 73.991432 
L 985.263125 71.191191 
" style="fill:none;stroke:#2b908f;stroke-linecap:square;"/>
   </g>
   <g id="line2d_17">
    <path clip-path="url(#p034669da58)" d="M 104.760375 218.597078 
L 151.102625 181.034528 
L 197.444875 160.431063 
L 243.787125 146.404434 
L 290.129375 135.71538 
L 336.471625 127.189223 
L 382.813875 120.180146 
L 429.156125 113.837229 
L 475.498375 108.275734 
L 521.840625 103.231232 
L 568.182875 98.813904 
L 614.525125 94.622018 
L 660.867375 90.703037 
L 707.209625 87.02306 
L 753.551875 83.639718 
L 799.894125 80.444529 
L 846.236375 77.28663 
L 892.578625 74.467744 
L 938.920875 71.692929 
L 985.263125 68.953711 
" style="fill:none;stroke:#f45b5b;stroke-linecap:square;"/>
   </g>
   <g id="line2d_18">
    <path clip-path="url(#p034669da58)" d="M 104.760375 294.873123 
L 151.102625 270.29813 
L 197.444875 254.035716 
L 243.787125 241.990613 
L 290.129375 232.350802 
L 336.471625 224.122976 
L 382.813875 216.98677 
L 429.156125 210.862515 
L 475.498375 205.443405 
L 521.840625 200.483657 
L 568.182875 196.12057 
L 614.525125 192.021913 
L 660.867375 188.297864 
L 707.209625 184.792478 
L 753.551875 181.341334 
L 799.894125 178.241068 
L 846.236375 175.39167 
L 892.578625 172.635501 
L 938.920875 170.08274 
L 985.263125 167.623206 
" style="fill:none;stroke:#91e8e1;stroke-linecap:square;"/>
   </g>
   <g id="line2d_19">
    <path clip-path="url(#p034669da58)" d="M 104.760375 204.719614 
L 151.102625 168.55888 
L 197.444875 148.687681 
L 243.787125 134.755975 
L 290.129375 124.038105 
L 336.471625 114.900032 
L 382.813875 107.485835 
L 429.156125 100.676776 
L 475.498375 94.671175 
L 521.840625 89.009671 
L 568.182875 84.004157 
L 614.525125 79.23595 
L 660.867375 74.710138 
L 707.209625 70.435194 
L 753.551875 66.382303 
L 799.894125 62.602318 
L 846.236375 59.102017 
L 892.578625 55.647483 
L 938.920875 52.248886 
L 985.263125 49.206251 
" style="fill:none;stroke:#7cb5ec;stroke-linecap:square;"/>
   </g>
   <g id="line2d_20">
    <path clip-path="url(#p034669da58)" d="M 104.760375 229.131881 
L 151.102625 192.901649 
L 197.444875 171.274367 
L 243.787125 155.964577 
L 290.129375 143.917779 
L 336.471625 133.991503 
L 382.813875 125.212782 
L 429.156125 117.685017 
L 475.498375 110.942065 
L 521.840625 104.780518 
L 568.182875 99.146136 
L 614.525125 93.771098 
L 660.867375 88.836775 
L 707.209625 84.24655 
L 753.551875 80.002118 
L 799.894125 75.923801 
L 846.236375 72.025161 
L 892.578625 68.279077 
L 938.920875 64.74996 
L 985.263125 61.353058 
" style="fill:none;stroke:#434348;stroke-linecap:square;"/>
   </g>
   <g id="line2d_21">
    <path clip-path="url(#p034669da58)" d="M 104.760375 273.125492 
L 151.102625 247.153769 
L 197.444875 230.857453 
L 243.787125 219.036098 
L 290.129375 209.591219 
L 336.471625 201.775293 
L 382.813875 195.13913 
L 429.156125 189.375923 
L 475.498375 184.158525 
L 521.840625 179.619152 
L 568.182875 175.193348 
L 614.525125 171.21843 
L 660.867375 167.548623 
L 707.209625 164.056798 
L 753.551875 160.92602 
L 799.894125 157.900337 
L 846.236375 155.105181 
L 892.578625 152.484617 
L 938.920875 149.9166 
L 985.263125 147.357058 
" style="fill:none;stroke:#90ed7d;stroke-linecap:square;"/>
   </g>
   <g id="line2d_22">
    <path clip-path="url(#p034669da58)" d="M 104.760375 249.937059 
L 151.102625 219.095426 
L 197.444875 200.739611 
L 243.787125 187.984278 
L 290.129375 178.519058 
L 336.471625 170.770934 
L 382.813875 164.38225 
L 429.156125 158.898728 
L 475.498375 154.147472 
L 521.840625 149.767435 
L 568.182875 145.838283 
L 614.525125 142.198988 
L 660.867375 138.990237 
L 707.209625 135.734025 
L 753.551875 132.933785 
L 799.894125 130.226772 
L 846.236375 127.707912 
L 892.578625 125.233123 
L 938.920875 123.010898 
L 985.263125 120.798844 
" style="fill:none;stroke:#f7a35c;stroke-linecap:square;"/>
   </g>
   <g id="line2d_23">
    <path clip-path="url(#p034669da58)" d="M 104.760375 263.002588 
L 151.102625 231.116798 
L 197.444875 212.171102 
L 243.787125 198.949627 
L 290.129375 188.962328 
L 336.471625 181.036223 
L 382.813875 174.278015 
L 429.156125 168.384288 
L 475.498375 163.488953 
L 521.840625 158.986871 
L 568.182875 154.993307 
L 614.525125 151.243833 
L 660.867375 147.891002 
L 707.209625 144.829722 
L 753.551875 141.968459 
L 799.894125 139.286873 
L 846.236375 136.790048 
L 892.578625 134.293224 
L 938.920875 131.9676 
L 985.263125 129.699608 
" style="fill:none;stroke:#8085e9;stroke-linecap:square;"/>
   </g>
   <g id="line2d_24">
    <path clip-path="url(#p034669da58)" d="M 104.760375 271.276181 
L 151.102625 242.795767 
L 197.444875 225.221376 
L 243.787125 212.857601 
L 290.129375 202.890643 
L 336.471625 195.064547 
L 382.813875 188.525002 
L 429.156125 182.644836 
L 475.498375 177.729159 
L 521.840625 173.306745 
L 568.182875 169.186052 
L 614.525125 165.438273 
L 660.867375 162.112563 
L 707.209625 158.858046 
L 753.551875 155.818802 
L 799.894125 153.084669 
L 846.236375 150.547163 
L 892.578625 147.97067 
L 938.920875 145.648437 
L 985.263125 143.421127 
" style="fill:none;stroke:#f15c80;stroke-linecap:square;"/>
   </g>
   <g id="line2d_25">
    <path clip-path="url(#p034669da58)" d="M 104.760375 259.054791 
L 151.102625 228.660654 
L 197.444875 210.520112 
L 243.787125 198.125827 
L 290.129375 188.721629 
L 336.471625 181.036223 
L 382.813875 174.795009 
L 429.156125 169.367424 
L 475.498375 164.480563 
L 521.840625 160.309018 
L 568.182875 156.4714 
L 614.525125 152.966014 
L 660.867375 149.657256 
L 707.209625 146.709545 
L 753.551875 143.839807 
L 799.894125 141.14127 
L 846.236375 138.503755 
L 892.578625 136.254409 
L 938.920875 134.094901 
L 985.263125 131.96421 
" style="fill:none;stroke:#e4d354;stroke-linecap:square;"/>
   </g>
   <g id="line2d_26">
    <path clip-path="url(#p034669da58)" d="M 104.760375 287.370784 
L 151.102625 261.799095 
L 197.444875 245.292592 
L 243.787125 232.915257 
L 290.129375 223.200863 
L 336.471625 215.225602 
L 382.813875 208.253816 
L 429.156125 202.270251 
L 475.498375 196.942675 
L 521.840625 192.082935 
L 568.182875 187.880879 
L 614.525125 183.802562 
L 660.867375 180.071733 
L 707.209625 176.454473 
L 753.551875 173.174531 
L 799.894125 170.040363 
L 846.236375 167.155369 
L 892.578625 164.397505 
L 938.920875 161.704053 
L 985.263125 159.132646 
" style="fill:none;stroke:#2b908f;stroke-linecap:square;"/>
   </g>
   <g id="line2d_27">
    <path clip-path="url(#p034669da58)" d="M 104.760375 302.263589 
L 151.102625 282.534775 
L 197.444875 269.292959 
L 243.787125 259.500592 
L 290.129375 251.615169 
L 336.471625 245.311238 
L 382.813875 239.592102 
L 429.156125 234.705241 
L 475.498375 230.355715 
L 521.840625 226.453685 
L 568.182875 222.810999 
L 614.525125 219.561567 
L 660.867375 216.559614 
L 707.209625 213.674621 
L 753.551875 211.0049 
L 799.894125 208.425017 
L 846.236375 205.975654 
L 892.578625 203.709358 
L 938.920875 201.627823 
L 985.263125 199.6107 
" style="fill:none;stroke:#f45b5b;stroke-linecap:square;"/>
   </g>
   <g id="line2d_28">
    <path clip-path="url(#p034669da58)" d="M 104.760375 285.563849 
L 151.102625 259.059877 
L 197.444875 241.914336 
L 243.787125 229.528525 
L 290.129375 219.661576 
L 336.471625 211.745642 
L 382.813875 204.672152 
L 429.156125 198.62587 
L 475.498375 193.20337 
L 521.840625 188.345326 
L 568.182875 183.873755 
L 614.525125 179.84968 
L 660.867375 176.179874 
L 707.209625 172.516847 
L 753.551875 169.141981 
L 799.894125 166.019679 
L 846.236375 163.13299 
L 892.578625 160.34631 
L 938.920875 157.596921 
L 985.263125 154.986527 
" style="fill:none;stroke:#91e8e1;stroke-linecap:square;"/>
   </g>
   <g id="line2d_29">
    <path clip-path="url(#p034669da58)" d="M 104.760375 263.850119 
L 151.102625 233.198332 
L 197.444875 214.779801 
L 243.787125 202.121086 
L 290.129375 192.264307 
L 336.471625 184.370408 
L 382.813875 177.952907 
L 429.156125 172.438874 
L 475.498375 167.623206 
L 521.840625 163.41437 
L 568.182875 159.471658 
L 614.525125 155.937456 
L 660.867375 152.691415 
L 707.209625 149.745399 
L 753.551875 147.038386 
L 799.894125 144.424603 
L 846.236375 141.827769 
L 892.578625 139.441124 
L 938.920875 137.149401 
L 985.263125 134.996674 
" style="fill:none;stroke:#7cb5ec;stroke-linecap:square;"/>
   </g>
   <g id="line2d_30">
    <path clip-path="url(#p034669da58)" d="M 104.760375 242.544898 
L 151.102625 210.270939 
L 197.444875 192.286342 
L 243.787125 180.134451 
L 290.129375 170.865858 
L 336.471625 163.310971 
L 382.813875 157.096878 
L 429.156125 151.59132 
L 475.498375 146.916342 
L 521.840625 142.549865 
L 568.182875 138.654615 
L 614.525125 135.047526 
L 660.867375 131.867591 
L 707.209625 128.853773 
L 753.551875 125.792493 
L 799.894125 123.034629 
L 846.236375 120.524244 
L 892.578625 118.059625 
L 938.920875 115.650944 
L 985.263125 113.430414 
" style="fill:none;stroke:#434348;stroke-linecap:square;"/>
   </g>
   <g id="line2d_31">
    <path clip-path="url(#p034669da58)" d="M 104.760375 270.271009 
L 151.102625 242.097402 
L 197.444875 224.662006 
L 243.787125 212.121945 
L 290.129375 202.626214 
L 336.471625 194.681463 
L 382.813875 188.314815 
L 429.156125 182.785526 
L 475.498375 177.888495 
L 521.840625 173.371158 
L 568.182875 169.386069 
L 614.525125 165.704397 
L 660.867375 162.415979 
L 707.209625 159.342834 
L 753.551875 156.483266 
L 799.894125 153.903383 
L 846.236375 151.252308 
L 892.578625 148.967366 
L 938.920875 146.723105 
L 985.263125 144.6314 
" style="fill:none;stroke:#90ed7d;stroke-linecap:square;"/>
   </g>
   <g id="line2d_32">
    <path clip-path="url(#p034669da58)" d="M 104.760375 249.399724 
L 151.102625 217.766498 
L 197.444875 199.317455 
L 243.787125 186.234975 
L 290.129375 176.310393 
L 336.471625 168.152065 
L 382.813875 161.259947 
L 429.156125 155.395037 
L 475.498375 150.136958 
L 521.840625 145.482321 
L 568.182875 141.193816 
L 614.525125 137.325687 
L 660.867375 133.833862 
L 707.209625 130.511543 
L 753.551875 127.396021 
L 799.894125 124.470346 
L 846.236375 121.66502 
L 892.578625 118.996994 
L 938.920875 116.318798 
L 985.263125 113.947407 
" style="fill:none;stroke:#f7a35c;stroke-linecap:square;"/>
   </g>
   <g id="line2d_33">
    <path clip-path="url(#p034669da58)" d="M 104.760375 267.418222 
L 151.102625 237.43768 
L 197.444875 219.334429 
L 243.787125 206.540109 
L 290.129375 196.801985 
L 336.471625 188.89283 
L 382.813875 182.205815 
L 429.156125 176.547702 
L 475.498375 171.538797 
L 521.840625 166.992643 
L 568.182875 162.836354 
L 614.525125 159.217399 
L 660.867375 155.851008 
L 707.209625 152.665989 
L 753.551875 149.670816 
L 799.894125 146.901087 
L 846.236375 144.311033 
L 892.578625 141.826074 
L 938.920875 139.530962 
L 985.263125 137.371454 
" style="fill:none;stroke:#8085e9;stroke-linecap:square;"/>
   </g>
   <g id="line2d_34">
    <path clip-path="url(#p034669da58)" d="M 104.760375 277.903869 
L 151.102625 250.123515 
L 197.444875 233.033911 
L 243.787125 220.912531 
L 290.129375 211.223563 
L 336.471625 203.239826 
L 382.813875 196.720622 
L 429.156125 191.089629 
L 475.498375 186.087505 
L 521.840625 181.64814 
L 568.182875 177.585079 
L 614.525125 174.083083 
L 660.867375 170.725168 
L 707.209625 167.73169 
L 753.551875 164.709396 
L 799.894125 162.053236 
L 846.236375 159.630994 
L 892.578625 157.262994 
L 938.920875 155.042464 
L 985.263125 152.862616 
" style="fill:none;stroke:#f15c80;stroke-linecap:square;"/>
   </g>
   <g id="line2d_35">
    <path clip-path="url(#p034669da58)" d="M 104.760375 282.729707 
L 151.102625 255.756203 
L 197.444875 238.55642 
L 243.787125 226.162135 
L 290.129375 216.390108 
L 336.471625 208.153807 
L 382.813875 201.241349 
L 429.156125 195.061157 
L 475.498375 189.70646 
L 521.840625 184.84672 
L 568.182875 180.480243 
L 614.525125 176.429048 
L 660.867375 172.681268 
L 707.209625 169.25555 
L 753.551875 165.965437 
L 799.894125 162.780417 
L 846.236375 159.79711 
L 892.578625 156.952798 
L 938.920875 154.24409 
L 985.263125 151.723535 
" style="fill:none;stroke:#e4d354;stroke-linecap:square;"/>
   </g>
   <g id="line2d_36">
    <path clip-path="url(#p034669da58)" d="M 104.760375 284.306114 
L 151.102625 257.791971 
L 197.444875 241.21597 
L 243.787125 229.236975 
L 290.129375 219.676831 
L 336.471625 212.243989 
L 382.813875 205.797673 
L 429.156125 200.190411 
L 475.498375 195.239138 
L 521.840625 190.908258 
L 568.182875 187.079115 
L 614.525125 183.653397 
L 660.867375 180.492109 
L 707.209625 177.542703 
L 753.551875 174.811959 
L 799.894125 172.269368 
L 846.236375 169.797969 
L 892.578625 167.526588 
L 938.920875 165.361995 
L 985.263125 163.373688 
" style="fill:none;stroke:#2b908f;stroke-linecap:square;"/>
   </g>
   <g id="line2d_37">
    <path clip-path="url(#p034669da58)" d="M 104.760375 237.154604 
L 151.102625 205.039981 
L 197.444875 186.638399 
L 243.787125 173.905102 
L 290.129375 163.926278 
L 336.471625 156.061196 
L 382.813875 149.440288 
L 429.156125 143.465198 
L 475.498375 138.308823 
L 521.840625 133.650795 
L 568.182875 129.382632 
L 614.525125 125.329741 
L 660.867375 121.603998 
L 707.209625 118.125733 
L 753.551875 114.891556 
L 799.894125 111.765864 
L 846.236375 108.970709 
L 892.578625 106.250136 
L 938.920875 103.699069 
L 985.263125 101.209025 
" style="fill:none;stroke:#f45b5b;stroke-linecap:square;"/>
   </g>
   <g id="line2d_38">
    <path clip-path="url(#p034669da58)" d="M 104.760375 245.855352 
L 151.102625 213.471214 
L 197.444875 194.840799 
L 243.787125 182.048174 
L 290.129375 172.133763 
L 336.471625 164.434797 
L 382.813875 157.918982 
L 429.156125 152.015085 
L 475.498375 147.094323 
L 521.840625 142.631228 
L 568.182875 138.446123 
L 614.525125 134.655967 
L 660.867375 131.228553 
L 707.209625 127.94183 
L 753.551875 124.861905 
L 799.894125 122.049799 
L 846.236375 119.330921 
L 892.578625 116.873083 
L 938.920875 114.4305 
L 985.263125 112.106571 
" style="fill:none;stroke:#91e8e1;stroke-linecap:square;"/>
   </g>
   <g id="line2d_39">
    <path clip-path="url(#p034669da58)" d="M 104.760375 248.56745 
L 151.102625 217.502068 
L 197.444875 199.159814 
L 243.787125 186.37058 
L 290.129375 177.039269 
L 336.471625 169.180967 
L 382.813875 162.809233 
L 429.156125 157.171461 
L 475.498375 152.193067 
L 521.840625 147.897782 
L 568.182875 143.777089 
L 614.525125 140.085247 
L 660.867375 136.744282 
L 707.209625 133.577908 
L 753.551875 130.533578 
L 799.894125 127.696046 
L 846.236375 124.944963 
L 892.578625 122.417627 
L 938.920875 120.102174 
L 985.263125 117.77655 
" style="fill:none;stroke:#7cb5ec;stroke-linecap:square;"/>
   </g>
   <g id="line2d_40">
    <path clip-path="url(#p034669da58)" d="M 104.760375 262.143192 
L 151.102625 231.672778 
L 197.444875 213.276282 
L 243.787125 199.954798 
L 290.129375 189.689509 
L 336.471625 181.065039 
L 382.813875 173.801703 
L 429.156125 167.433359 
L 475.498375 161.827793 
L 521.840625 156.847704 
L 568.182875 152.228663 
L 614.525125 147.84354 
L 660.867375 143.772004 
L 707.209625 139.89879 
L 753.551875 136.479852 
L 799.894125 133.196519 
L 846.236375 130.047096 
L 892.578625 127.077349 
L 938.920875 124.236427 
L 985.263125 121.451442 
" style="fill:none;stroke:#434348;stroke-linecap:square;"/>
   </g>
   <g id="line2d_41">
    <path clip-path="url(#p034669da58)" d="M 104.760375 256.373205 
L 151.102625 225.6248 
L 197.444875 207.701226 
L 243.787125 195.288295 
L 290.129375 185.770528 
L 336.471625 178.29531 
L 382.813875 172.074436 
L 429.156125 166.765505 
L 475.498375 162.049846 
L 521.840625 157.673199 
L 568.182875 153.652514 
L 614.525125 150.18781 
L 660.867375 146.84854 
L 707.209625 143.758444 
L 753.551875 140.812428 
L 799.894125 138.205424 
L 846.236375 135.73233 
L 892.578625 133.333819 
L 938.920875 131.194652 
L 985.263125 128.936831 
" style="fill:none;stroke:#90ed7d;stroke-linecap:square;"/>
   </g>
   <g id="line2d_42">
    <path clip-path="url(#p034669da58)" d="M 104.760375 262.153363 
L 151.102625 231.388007 
L 197.444875 213.142372 
L 243.787125 200.15312 
L 290.129375 189.882746 
L 336.471625 181.670176 
L 382.813875 174.586516 
L 429.156125 168.545319 
L 475.498375 163.131295 
L 521.840625 158.381734 
L 568.182875 154.018647 
L 614.525125 149.90643 
L 660.867375 146.16543 
L 707.209625 142.731237 
L 753.551875 139.230936 
L 799.894125 136.023881 
L 846.236375 133.006672 
L 892.578625 130.070827 
L 938.920875 127.441787 
L 985.263125 124.822918 
" style="fill:none;stroke:#f7a35c;stroke-linecap:square;"/>
   </g>
   <g id="line2d_43">
    <path clip-path="url(#p034669da58)" d="M 104.760375 269.73198 
L 151.102625 240.253176 
L 197.444875 222.300786 
L 243.787125 209.353911 
L 290.129375 199.324235 
L 336.471625 191.309987 
L 382.813875 184.56195 
L 429.156125 178.85468 
L 475.498375 173.610161 
L 521.840625 169.102994 
L 568.182875 165.08909 
L 614.525125 161.380297 
L 660.867375 157.8444 
L 707.209625 154.620394 
L 753.551875 151.709974 
L 799.894125 148.979231 
L 846.236375 146.445115 
L 892.578625 143.961851 
L 938.920875 141.685384 
L 985.263125 139.48011 
" style="fill:none;stroke:#8085e9;stroke-linecap:square;"/>
   </g>
   <g id="line2d_44">
    <path clip-path="url(#p034669da58)" d="M 104.760375 228.335203 
L 151.102625 196.40534 
L 197.444875 178.313955 
L 243.787125 165.468784 
L 290.129375 155.589969 
L 336.471625 147.550295 
L 382.813875 140.571729 
L 429.156125 134.542397 
L 475.498375 129.135153 
L 521.840625 124.334741 
L 568.182875 119.752991 
L 614.525125 115.623823 
L 660.867375 111.686196 
L 707.209625 107.907905 
L 753.551875 104.333022 
L 799.894125 100.992057 
L 846.236375 97.757881 
L 892.578625 94.691516 
L 938.920875 91.76584 
L 985.263125 89.052048 
" style="fill:none;stroke:#f15c80;stroke-linecap:square;"/>
   </g>
   <g id="line2d_45">
    <path clip-path="url(#p034669da58)" d="M 104.760375 244.197583 
L 151.102625 211.354082 
L 197.444875 192.476189 
L 243.787125 179.68865 
L 290.129375 169.81153 
L 336.471625 161.844744 
L 382.813875 155.062805 
L 429.156125 149.018218 
L 475.498375 143.805905 
L 521.840625 139.222461 
L 568.182875 135.144144 
L 614.525125 131.27093 
L 660.867375 127.672316 
L 707.209625 124.405933 
L 753.551875 121.203963 
L 799.894125 118.298629 
L 846.236375 115.591617 
L 892.578625 112.960882 
L 938.920875 110.435241 
L 985.263125 108.099447 
" style="fill:none;stroke:#e4d354;stroke-linecap:square;"/>
   </g>
   <g id="line2d_46">
    <path clip-path="url(#p034669da58)" d="M 104.760375 255.525675 
L 151.102625 223.558521 
L 197.444875 204.785721 
L 243.787125 191.728667 
L 290.129375 181.805781 
L 336.471625 173.911882 
L 382.813875 167.133334 
L 429.156125 161.293849 
L 475.498375 156.298504 
L 521.840625 151.689634 
L 568.182875 147.567245 
L 614.525125 143.885573 
L 660.867375 140.383577 
L 707.209625 137.069733 
L 753.551875 134.028794 
L 799.894125 131.101424 
L 846.236375 128.411362 
L 892.578625 125.826394 
L 938.920875 123.410933 
L 985.263125 121.166672 
" style="fill:none;stroke:#2b908f;stroke-linecap:square;"/>
   </g>
   <g id="line2d_47">
    <path clip-path="url(#p034669da58)" d="M 104.760375 275.652828 
L 151.102625 246.938496 
L 197.444875 228.987801 
L 243.787125 215.634111 
L 290.129375 205.475611 
L 336.471625 196.905383 
L 382.813875 189.536954 
L 429.156125 183.30591 
L 475.498375 177.639321 
L 521.840625 172.688048 
L 568.182875 168.030021 
L 614.525125 163.892377 
L 660.867375 159.964921 
L 707.209625 156.395123 
L 753.551875 152.960929 
L 799.894125 149.64878 
L 846.236375 146.560379 
L 892.578625 143.799125 
L 938.920875 140.934472 
L 985.263125 138.254581 
" style="fill:none;stroke:#f45b5b;stroke-linecap:square;"/>
   </g>
   <g id="line2d_48">
    <path clip-path="url(#p034669da58)" d="M 104.760375 259.358207 
L 151.102625 229.264096 
L 197.444875 211.394764 
L 243.787125 198.881824 
L 290.129375 189.504747 
L 336.471625 181.763404 
L 382.813875 175.189958 
L 429.156125 169.613208 
L 475.498375 164.816185 
L 521.840625 160.466659 
L 568.182875 156.559544 
L 614.525125 152.98127 
L 660.867375 149.519956 
L 707.209625 146.384093 
L 753.551875 143.470283 
L 799.894125 140.639532 
L 846.236375 138.071514 
L 892.578625 135.559434 
L 938.920875 133.21008 
L 985.263125 130.86581 
" style="fill:none;stroke:#91e8e1;stroke-linecap:square;"/>
   </g>
   <g id="line2d_49">
    <path clip-path="url(#p034669da58)" d="M 104.760375 219.132717 
L 151.102625 186.857062 
L 197.444875 168.245293 
L 243.787125 155.484875 
L 290.129375 145.446724 
L 336.471625 137.340943 
L 382.813875 130.367462 
L 429.156125 124.299144 
L 475.498375 118.825793 
L 521.840625 113.816888 
L 568.182875 109.360573 
L 614.525125 105.070374 
L 660.867375 101.139527 
L 707.209625 97.490061 
L 753.551875 94.118585 
L 799.894125 90.913225 
L 846.236375 87.785837 
L 892.578625 84.660145 
L 938.920875 81.800577 
L 985.263125 79.013897 
" style="fill:none;stroke:#7cb5ec;stroke-linecap:square;"/>
   </g>
   <g id="line2d_50">
    <path clip-path="url(#p034669da58)" d="M 104.760375 245.489219 
L 151.102625 214.35773 
L 197.444875 196.129045 
L 243.787125 183.560169 
L 290.129375 173.971209 
L 336.471625 166.177319 
L 382.813875 159.742868 
L 429.156125 154.123741 
L 475.498375 149.102971 
L 521.840625 144.809381 
L 568.182875 140.646312 
L 614.525125 136.790048 
L 660.867375 133.277882 
L 707.209625 130.087777 
L 753.551875 127.073959 
L 799.894125 124.104212 
L 846.236375 121.392115 
L 892.578625 118.917326 
L 938.920875 116.505254 
L 985.263125 114.181326 
" style="fill:none;stroke:#434348;stroke-linecap:square;"/>
   </g>
   <g id="line2d_51">
    <path clip-path="url(#p034669da58)" d="M 104.760375 238.15469 
L 151.102625 206.068883 
L 197.444875 186.680776 
L 243.787125 172.938917 
L 290.129375 162.188841 
L 336.471625 152.871091 
L 382.813875 144.829722 
L 429.156125 137.693516 
L 475.498375 131.526884 
L 521.840625 125.753507 
L 568.182875 120.68697 
L 614.525125 115.81706 
L 660.867375 111.377695 
L 707.209625 107.145128 
L 753.551875 103.0363 
L 799.894125 99.224108 
L 846.236375 95.64753 
L 892.578625 92.216727 
L 938.920875 88.850336 
L 985.263125 85.563613 
" style="fill:none;stroke:#90ed7d;stroke-linecap:square;"/>
   </g>
   <g id="line2d_52">
    <path clip-path="url(#p034669da58)" d="M 104.760375 233.283085 
L 151.102625 200.00904 
L 197.444875 181.388796 
L 243.787125 168.804664 
L 290.129375 159.236045 
L 336.471625 151.647257 
L 382.813875 145.068726 
L 429.156125 139.400442 
L 475.498375 134.32882 
L 521.840625 129.699608 
L 568.182875 125.463651 
L 614.525125 121.712481 
L 660.867375 118.127428 
L 707.209625 114.832229 
L 753.551875 111.728573 
L 799.894125 108.838494 
L 846.236375 105.868747 
L 892.578625 103.243098 
L 938.920875 100.759834 
L 985.263125 98.325726 
" style="fill:none;stroke:#f7a35c;stroke-linecap:square;"/>
   </g>
   <g id="line2d_53">
    <path clip-path="url(#p034669da58)" d="M 104.760375 248.670848 
L 151.102625 218.53436 
L 197.444875 200.985395 
L 243.787125 188.572464 
L 290.129375 179.408965 
L 336.471625 171.799836 
L 382.813875 165.407762 
L 429.156125 160.034418 
L 475.498375 155.142473 
L 521.840625 150.759045 
L 568.182875 146.841759 
L 614.525125 143.258401 
L 660.867375 139.924216 
L 707.209625 136.913788 
L 753.551875 134.033879 
L 799.894125 131.423485 
L 846.236375 128.870724 
L 892.578625 126.419666 
L 938.920875 124.082177 
L 985.263125 121.881988 
" style="fill:none;stroke:#8085e9;stroke-linecap:square;"/>
   </g>
   <g id="line2d_54">
    <path clip-path="url(#p034669da58)" d="M 104.760375 238.675074 
L 151.102625 206.741822 
L 197.444875 188.757226 
L 243.787125 176.127327 
L 290.129375 166.370556 
L 336.471625 158.600397 
L 382.813875 151.947283 
L 429.156125 146.336631 
L 475.498375 141.42943 
L 521.840625 136.895142 
L 568.182875 132.755803 
L 614.525125 128.970732 
L 660.867375 125.514503 
L 707.209625 122.266766 
L 753.551875 119.225827 
L 799.894125 116.371345 
L 846.236375 113.532118 
L 892.578625 111.014952 
L 938.920875 108.540163 
L 985.263125 106.024693 
" style="fill:none;stroke:#f15c80;stroke-linecap:square;"/>
   </g>
   <g id="line2d_55">
    <path clip-path="url(#p034669da58)" d="M 104.760375 218.169922 
L 151.102625 185.290826 
L 197.444875 167.111298 
L 243.787125 154.5153 
L 290.129375 145.146699 
L 336.471625 137.517229 
L 382.813875 131.121765 
L 429.156125 125.548404 
L 475.498375 120.507293 
L 521.840625 116.006906 
L 568.182875 111.670941 
L 614.525125 107.653646 
L 660.867375 103.958414 
L 707.209625 100.476758 
L 753.551875 97.422259 
L 799.894125 94.316907 
L 846.236375 91.550568 
L 892.578625 88.760497 
L 938.920875 86.056875 
L 985.263125 83.526149 
" style="fill:none;stroke:#e4d354;stroke-linecap:square;"/>
   </g>
   <g id="line2d_56">
    <path clip-path="url(#p034669da58)" d="M 104.760375 232.538954 
L 151.102625 200.876911 
L 197.444875 182.644836 
L 243.787125 170.447178 
L 290.129375 160.971787 
L 336.471625 153.345708 
L 382.813875 146.953633 
L 429.156125 141.593851 
L 475.498375 136.632408 
L 521.840625 132.279491 
L 568.182875 128.275757 
L 614.525125 124.633071 
L 660.867375 121.110735 
L 707.209625 117.707053 
L 753.551875 114.70849 
L 799.894125 111.776034 
L 846.236375 109.063937 
L 892.578625 106.523041 
L 938.920875 103.99062 
L 985.263125 101.617534 
" style="fill:none;stroke:#2b908f;stroke-linecap:square;"/>
   </g>
   <g id="line2d_57">
    <path clip-path="url(#p034669da58)" d="M 104.760375 250.842221 
L 151.102625 220.015844 
L 197.444875 201.121 
L 243.787125 187.540172 
L 290.129375 176.910445 
L 336.471625 168.007985 
L 382.813875 160.409027 
L 429.156125 153.95254 
L 475.498375 147.941854 
L 521.840625 142.575291 
L 568.182875 137.693516 
L 614.525125 133.198214 
L 660.867375 128.821567 
L 707.209625 124.919537 
L 753.551875 121.153111 
L 799.894125 117.564667 
L 846.236375 114.232178 
L 892.578625 111.026818 
L 938.920875 107.872309 
L 985.263125 104.999181 
" style="fill:none;stroke:#f45b5b;stroke-linecap:square;"/>
   </g>
   <g id="line2d_58">
    <path clip-path="url(#p034669da58)" d="M 104.760375 241.327844 
L 151.102625 210.443835 
L 197.444875 192.49653 
L 243.787125 180.190388 
L 290.129375 170.79297 
L 336.471625 163.073663 
L 382.813875 156.537508 
L 429.156125 150.89465 
L 475.498375 146.006094 
L 521.840625 141.536219 
L 568.182875 137.52062 
L 614.525125 133.798266 
L 660.867375 130.250503 
L 707.209625 126.985816 
L 753.551875 124.126248 
L 799.894125 121.305667 
L 846.236375 118.537632 
L 892.578625 115.908593 
L 938.920875 113.528727 
L 985.263125 111.203104 
" style="fill:none;stroke:#91e8e1;stroke-linecap:square;"/>
   </g>
   <g id="line2d_59">
    <path clip-path="url(#p034669da58)" d="M 104.760375 265.575691 
L 151.102625 234.584892 
L 197.444875 215.642587 
L 243.787125 202.234655 
L 290.129375 192.181249 
L 336.471625 183.917827 
L 382.813875 177.134193 
L 429.156125 171.326914 
L 475.498375 166.179014 
L 521.840625 161.832878 
L 568.182875 157.647773 
L 614.525125 153.723707 
L 660.867375 150.211541 
L 707.209625 147.124835 
L 753.551875 144.095761 
L 799.894125 141.349762 
L 846.236375 138.644445 
L 892.578625 136.1544 
L 938.920875 133.801656 
L 985.263125 131.54214 
" style="fill:none;stroke:#7cb5ec;stroke-linecap:square;"/>
   </g>
   <g id="line2d_60">
    <path clip-path="url(#p034669da58)" d="M 104.760375 274.498491 
L 151.102625 244.945104 
L 197.444875 226.411308 
L 243.787125 213.038973 
L 290.129375 202.605873 
L 336.471625 194.054291 
L 382.813875 186.643485 
L 429.156125 180.12428 
L 475.498375 174.298356 
L 521.840625 169.192833 
L 568.182875 164.475478 
L 614.525125 160.276812 
L 660.867375 156.084927 
L 707.209625 152.426985 
L 753.551875 148.977536 
L 799.894125 145.668777 
L 846.236375 142.583766 
L 892.578625 139.554693 
L 938.920875 136.905312 
L 985.263125 134.320345 
" style="fill:none;stroke:#434348;stroke-linecap:square;"/>
   </g>
   <g id="line2d_61">
    <path clip-path="url(#p034669da58)" d="M 104.760375 255.607038 
L 151.102625 223.783964 
L 197.444875 204.817928 
L 243.787125 191.726972 
L 290.129375 181.561692 
L 336.471625 173.271149 
L 382.813875 166.568878 
L 429.156125 160.593789 
L 475.498375 155.384866 
L 521.840625 150.582759 
L 568.182875 146.419689 
L 614.525125 142.424431 
L 660.867375 138.744453 
L 707.209625 135.508582 
L 753.551875 132.260846 
L 799.894125 129.238552 
L 846.236375 126.436616 
L 892.578625 123.861819 
L 938.920875 121.300582 
L 985.263125 118.963093 
" style="fill:none;stroke:#90ed7d;stroke-linecap:square;"/>
   </g>
   <g id="line2d_62">
    <path clip-path="url(#p034669da58)" d="M 104.760375 246.709663 
L 151.102625 213.564442 
L 197.444875 194.498397 
L 243.787125 181.385406 
L 290.129375 171.443873 
L 336.471625 163.451661 
L 382.813875 156.418854 
L 429.156125 150.397997 
L 475.498375 145.250097 
L 521.840625 140.480196 
L 568.182875 136.300176 
L 614.525125 132.301527 
L 660.867375 128.743594 
L 707.209625 125.455176 
L 753.551875 122.170148 
L 799.894125 119.064796 
L 846.236375 116.166242 
L 892.578625 113.413463 
L 938.920875 110.794594 
L 985.263125 108.355402 
" style="fill:none;stroke:#f7a35c;stroke-linecap:square;"/>
   </g>
   <g id="line2d_63">
    <path clip-path="url(#p034669da58)" d="M 104.760375 261.873678 
L 151.102625 230.987973 
L 197.444875 212.477908 
L 243.787125 199.042855 
L 290.129375 188.643656 
L 336.471625 180.281921 
L 382.813875 173.44235 
L 429.156125 167.423189 
L 475.498375 162.310885 
L 521.840625 157.542679 
L 568.182875 153.321977 
L 614.525125 149.380961 
L 660.867375 145.760311 
L 707.209625 142.446466 
L 753.551875 139.210595 
L 799.894125 136.239153 
L 846.236375 133.355855 
L 892.578625 130.747156 
L 938.920875 128.22321 
L 985.263125 125.823004 
" style="fill:none;stroke:#8085e9;stroke-linecap:square;"/>
   </g>
   <g id="line2d_64">
    <path clip-path="url(#p034669da58)" d="M 104.760375 242.18385 
L 151.102625 209.030154 
L 197.444875 190.431946 
L 243.787125 177.430829 
L 290.129375 167.713044 
L 336.471625 159.620824 
L 382.813875 152.982965 
L 429.156125 147.1367 
L 475.498375 141.904047 
L 521.840625 137.240934 
L 568.182875 133.106681 
L 614.525125 129.292794 
L 660.867375 125.692485 
L 707.209625 122.405761 
L 753.551875 119.256338 
L 799.894125 116.305237 
L 846.236375 113.471095 
L 892.578625 110.742047 
L 938.920875 108.192676 
L 985.263125 105.729752 
" style="fill:none;stroke:#f15c80;stroke-linecap:square;"/>
   </g>
   <g id="line2d_65">
    <path clip-path="url(#p034669da58)" d="M 104.760375 266.136756 
L 151.102625 235.830762 
L 197.444875 217.242724 
L 243.787125 203.711053 
L 290.129375 192.92877 
L 336.471625 184.268704 
L 382.813875 176.751109 
L 429.156125 170.192918 
L 475.498375 164.358519 
L 521.840625 159.373345 
L 568.182875 154.562762 
L 614.525125 150.165774 
L 660.867375 146.163735 
L 707.209625 142.360018 
L 753.551875 138.654615 
L 799.894125 135.288224 
L 846.236375 132.121851 
L 892.578625 129.063961 
L 938.920875 126.202698 
L 985.263125 123.458394 
" style="fill:none;stroke:#e4d354;stroke-linecap:square;"/>
   </g>
   <g id="line2d_66">
    <path clip-path="url(#p034669da58)" d="M 104.760375 256.490164 
L 151.102625 224.070429 
L 197.444875 204.348396 
L 243.787125 190.625183 
L 290.129375 180.273446 
L 336.471625 171.776105 
L 382.813875 164.726347 
L 429.156125 158.797024 
L 475.498375 153.579627 
L 521.840625 148.940245 
L 568.182875 144.629705 
L 614.525125 140.841244 
L 660.867375 137.117195 
L 707.209625 133.791486 
L 753.551875 130.820044 
L 799.894125 127.980817 
L 846.236375 125.287365 
L 892.578625 122.683751 
L 938.920875 120.325922 
L 985.263125 118.098612 
" style="fill:none;stroke:#2b908f;stroke-linecap:square;"/>
   </g>
   <g id="line2d_67">
    <path clip-path="url(#p034669da58)" d="M 104.760375 240.078585 
L 151.102625 207.367299 
L 197.444875 188.423299 
L 243.787125 175.293357 
L 290.129375 165.636595 
L 336.471625 157.598616 
L 382.813875 150.852274 
L 429.156125 145.095847 
L 475.498375 140.014054 
L 521.840625 135.262798 
L 568.182875 130.960734 
L 614.525125 126.940049 
L 660.867375 123.260072 
L 707.209625 119.72926 
L 753.551875 116.551021 
L 799.894125 113.555848 
L 846.236375 110.684415 
L 892.578625 107.989268 
L 938.920875 105.290731 
L 985.263125 103.009179 
" style="fill:none;stroke:#f45b5b;stroke-linecap:square;"/>
   </g>
   <g id="line2d_68">
    <path clip-path="url(#p034669da58)" d="M 104.760375 266.596117 
L 151.102625 236.078241 
L 197.444875 217.018976 
L 243.787125 203.019468 
L 290.129375 191.886308 
L 336.471625 183.070296 
L 382.813875 175.310307 
L 429.156125 168.623292 
L 475.498375 162.307495 
L 521.840625 156.857874 
L 568.182875 151.947283 
L 614.525125 147.382484 
L 660.867375 143.063469 
L 707.209625 139.190254 
L 753.551875 135.31026 
L 799.894125 131.811654 
L 846.236375 128.485945 
L 892.578625 125.217867 
L 938.920875 122.180318 
L 985.263125 119.354652 
" style="fill:none;stroke:#91e8e1;stroke-linecap:square;"/>
   </g>
   <g id="line2d_69">
    <path clip-path="url(#p034669da58)" d="M 104.760375 256.400326 
L 151.102625 224.948471 
L 197.444875 206.028201 
L 243.787125 193.105057 
L 290.129375 183.372017 
L 336.471625 175.445912 
L 382.813875 168.830089 
L 429.156125 163.073663 
L 475.498375 158.074928 
L 521.840625 153.586407 
L 568.182875 149.521651 
L 614.525125 145.846759 
L 660.867375 142.385444 
L 707.209625 139.151268 
L 753.551875 136.14084 
L 799.894125 133.408402 
L 846.236375 130.655623 
L 892.578625 128.136762 
L 938.920875 125.673839 
L 985.263125 123.34652 
" style="fill:none;stroke:#7cb5ec;stroke-linecap:square;"/>
   </g>
   <g id="line2d_70">
    <path clip-path="url(#p034669da58)" d="M 104.760375 249.323447 
L 151.102625 216.285015 
L 197.444875 197.049463 
L 243.787125 183.614411 
L 290.129375 173.29488 
L 336.471625 165.036543 
L 382.813875 158.247824 
L 429.156125 152.216798 
L 475.498375 146.943463 
L 521.840625 142.193902 
L 568.182875 137.876582 
L 614.525125 134.113547 
L 660.867375 130.472556 
L 707.209625 126.968865 
L 753.551875 123.700788 
L 799.894125 120.776808 
L 846.236375 117.959617 
L 892.578625 115.117 
L 938.920875 112.610004 
L 985.263125 109.98944 
" style="fill:none;stroke:#434348;stroke-linecap:square;"/>
   </g>
   <g id="line2d_71">
    <path clip-path="url(#p034669da58)" d="M 104.760375 254.289975 
L 151.102625 221.865155 
L 197.444875 202.546546 
L 243.787125 189.067422 
L 290.129375 178.908922 
L 336.471625 170.653975 
L 382.813875 163.716091 
L 429.156125 157.85118 
L 475.498375 152.708365 
L 521.840625 147.933379 
L 568.182875 143.599108 
L 614.525125 139.720809 
L 660.867375 136.105244 
L 707.209625 132.854117 
L 753.551875 129.843689 
L 799.894125 126.882417 
L 846.236375 124.087262 
L 892.578625 121.532805 
L 938.920875 119.127514 
L 985.263125 116.691711 
" style="fill:none;stroke:#90ed7d;stroke-linecap:square;"/>
   </g>
   <g id="line2d_72">
    <path clip-path="url(#p034669da58)" d="M 104.760375 213.069484 
L 151.102625 179.934433 
L 197.444875 162.410894 
L 243.787125 150.375961 
L 290.129375 141.212462 
L 336.471625 133.691477 
L 382.813875 127.428227 
L 429.156125 121.858257 
L 475.498375 116.974786 
L 521.840625 112.465924 
L 568.182875 108.429984 
L 614.525125 104.565245 
L 660.867375 100.985277 
L 707.209625 97.751101 
L 753.551875 94.844071 
L 799.894125 91.979418 
L 846.236375 89.224944 
L 892.578625 86.636586 
L 938.920875 84.224515 
L 985.263125 81.822613 
" style="fill:none;stroke:#f7a35c;stroke-linecap:square;"/>
   </g>
   <g id="line2d_73">
    <path clip-path="url(#p034669da58)" d="M 104.760375 205.292545 
L 151.102625 170.78958 
L 197.444875 152.282905 
L 243.787125 139.414003 
L 290.129375 129.506372 
L 336.471625 121.439577 
L 382.813875 114.596616 
L 429.156125 108.543553 
L 475.498375 102.956633 
L 521.840625 97.947728 
L 568.182875 93.277835 
L 614.525125 88.902883 
L 660.867375 84.79914 
L 707.209625 81.029325 
L 753.551875 77.315446 
L 799.894125 73.971091 
L 846.236375 70.616566 
L 892.578625 67.328147 
L 938.920875 64.282123 
L 985.263125 61.347973 
" style="fill:none;stroke:#8085e9;stroke-linecap:square;"/>
   </g>
   <g id="line2d_74">
    <path clip-path="url(#p034669da58)" d="M 104.760375 209.06236 
L 151.102625 174.761108 
L 197.444875 154.496654 
L 243.787125 139.817427 
L 290.129375 128.524931 
L 336.471625 118.768161 
L 382.813875 110.650514 
L 429.156125 103.424469 
L 475.498375 96.842548 
L 521.840625 90.897969 
L 568.182875 85.346645 
L 614.525125 80.232646 
L 660.867375 75.450879 
L 707.209625 70.984394 
L 753.551875 66.629782 
L 799.894125 62.554856 
L 846.236375 58.668081 
L 892.578625 54.974544 
L 938.920875 51.503059 
L 985.263125 47.970552 
" style="fill:none;stroke:#f15c80;stroke-linecap:square;"/>
   </g>
   <g id="line2d_75">
    <path clip-path="url(#p034669da58)" d="M 104.760375 242.31437 
L 151.102625 209.118297 
L 197.444875 190.092933 
L 243.787125 176.740939 
L 290.129375 166.718044 
L 336.471625 158.522424 
L 382.813875 151.59132 
L 429.156125 145.568769 
L 475.498375 140.46833 
L 521.840625 135.796743 
L 568.182875 131.535359 
L 614.525125 127.570612 
L 660.867375 123.934706 
L 707.209625 120.614082 
L 753.551875 117.3477 
L 799.894125 114.350832 
L 846.236375 111.392951 
L 892.578625 108.694414 
L 938.920875 106.112836 
L 985.263125 103.534648 
" style="fill:none;stroke:#e4d354;stroke-linecap:square;"/>
   </g>
   <g id="line2d_76">
    <path clip-path="url(#p034669da58)" d="M 104.760375 220.843033 
L 151.102625 187.497795 
L 197.444875 168.763982 
L 243.787125 155.813717 
L 290.129375 145.990839 
L 336.471625 137.735892 
L 382.813875 130.786143 
L 429.156125 124.509332 
L 475.498375 118.998689 
L 521.840625 113.945712 
L 568.182875 109.357183 
L 614.525125 105.12292 
L 660.867375 101.258182 
L 707.209625 97.59685 
L 753.551875 93.981285 
L 799.894125 90.665746 
L 846.236375 87.514628 
L 892.578625 84.512675 
L 938.920875 81.564964 
L 985.263125 78.632509 
" style="fill:none;stroke:#2b908f;stroke-linecap:square;"/>
   </g>
   <g id="line2d_77">
    <path clip-path="url(#p034669da58)" d="M 104.760375 235.962977 
L 151.102625 201.865131 
L 197.444875 182.534657 
L 243.787125 169.052142 
L 290.129375 158.749562 
L 336.471625 150.550553 
L 382.813875 143.444857 
L 429.156125 137.38332 
L 475.498375 131.987941 
L 521.840625 127.173968 
L 568.182875 122.810881 
L 614.525125 118.869864 
L 660.867375 114.954274 
L 707.209625 111.418377 
L 753.551875 108.018084 
L 799.894125 104.817809 
L 846.236375 101.834502 
L 892.578625 99.039347 
L 938.920875 96.412002 
L 985.263125 93.721941 
" style="fill:none;stroke:#f45b5b;stroke-linecap:square;"/>
   </g>
   <g id="line2d_78">
    <path clip-path="url(#p034669da58)" d="M 104.760375 252.638986 
L 151.102625 219.507325 
L 197.444875 199.490351 
L 243.787125 185.189122 
L 290.129375 174.083083 
L 336.471625 164.975521 
L 382.813875 156.835839 
L 429.156125 149.816591 
L 475.498375 143.661825 
L 521.840625 137.976591 
L 568.182875 132.66766 
L 614.525125 127.862162 
L 660.867375 123.383812 
L 707.209625 119.154635 
L 753.551875 115.159376 
L 799.894125 111.338709 
L 846.236375 107.75535 
L 892.578625 104.429641 
L 938.920875 101.117491 
L 985.263125 98.046041 
" style="fill:none;stroke:#91e8e1;stroke-linecap:square;"/>
   </g>
   <g id="line2d_79">
    <path clip-path="url(#p034669da58)" d="M 104.760375 240.858313 
L 151.102625 208.374165 
L 197.444875 190.018351 
L 243.787125 177.586774 
L 290.129375 167.943573 
L 336.471625 160.198839 
L 382.813875 153.708451 
L 429.156125 148.026607 
L 475.498375 142.915998 
L 521.840625 138.468159 
L 568.182875 134.294919 
L 614.525125 130.562394 
L 660.867375 127.253636 
L 707.209625 124.102517 
L 753.551875 121.11921 
L 799.894125 118.398637 
L 846.236375 115.811974 
L 892.578625 113.286334 
L 938.920875 110.94376 
L 985.263125 108.670683 
" style="fill:none;stroke:#7cb5ec;stroke-linecap:square;"/>
   </g>
   <g id="line2d_80">
    <path clip-path="url(#p034669da58)" d="M 104.760375 212.188052 
L 151.102625 180.242935 
L 197.444875 162.45327 
L 243.787125 150.320024 
L 290.129375 140.776832 
L 336.471625 133.050744 
L 382.813875 126.377289 
L 429.156125 120.486952 
L 475.498375 115.203448 
L 521.840625 110.357268 
L 568.182875 105.941635 
L 614.525125 101.846368 
L 660.867375 97.946033 
L 707.209625 94.376234 
L 753.551875 90.819996 
L 799.894125 87.577345 
L 846.236375 84.485554 
L 892.578625 81.502247 
L 938.920875 78.620643 
L 985.263125 75.862779 
" style="fill:none;stroke:#434348;stroke-linecap:square;"/>
   </g>
   <g id="line2d_81">
    <path clip-path="url(#p034669da58)" d="M 104.760375 242.126218 
L 151.102625 209.582744 
L 197.444875 191.004876 
L 243.787125 178.346161 
L 290.129375 168.947049 
L 336.471625 161.336225 
L 382.813875 155.069585 
L 429.156125 149.414862 
L 475.498375 144.422908 
L 521.840625 140.18695 
L 568.182875 136.169656 
L 614.525125 132.467643 
L 660.867375 129.102947 
L 707.209625 125.967084 
L 753.551875 122.993948 
L 799.894125 120.249644 
L 846.236375 117.561277 
L 892.578625 115.106829 
L 938.920875 112.660856 
L 985.263125 110.392865 
" style="fill:none;stroke:#90ed7d;stroke-linecap:square;"/>
   </g>
   <g id="line2d_82">
    <path clip-path="url(#p034669da58)" d="M 104.760375 264.050136 
L 151.102625 233.14748 
L 197.444875 214.064485 
L 243.787125 200.751476 
L 290.129375 190.159041 
L 336.471625 181.305738 
L 382.813875 173.925443 
L 429.156125 167.387593 
L 475.498375 161.673542 
L 521.840625 156.388342 
L 568.182875 151.481141 
L 614.525125 147.138395 
L 660.867375 143.192293 
L 707.209625 139.305519 
L 753.551875 135.73911 
L 799.894125 132.350684 
L 846.236375 129.138543 
L 892.578625 126.080653 
L 938.920875 123.038019 
L 985.263125 120.28524 
" style="fill:none;stroke:#f7a35c;stroke-linecap:square;"/>
   </g>
   <g id="line2d_83">
    <path clip-path="url(#p034669da58)" d="M 104.760375 217.502068 
L 151.102625 183.222852 
L 197.444875 165.112821 
L 243.787125 152.842275 
L 290.129375 143.639789 
L 336.471625 136.205252 
L 382.813875 129.979294 
L 429.156125 124.622901 
L 475.498375 119.730955 
L 521.840625 115.389904 
L 568.182875 111.452278 
L 614.525125 107.719754 
L 660.867375 104.063507 
L 707.209625 100.912389 
L 753.551875 97.859584 
L 799.894125 94.94408 
L 846.236375 92.18113 
L 892.578625 89.499544 
L 938.920875 87.043401 
L 985.263125 84.749983 
" style="fill:none;stroke:#8085e9;stroke-linecap:square;"/>
   </g>
   <g id="line2d_84">
    <path clip-path="url(#p034669da58)" d="M 104.760375 210.711654 
L 151.102625 176.705342 
L 197.444875 158.883472 
L 243.787125 146.58411 
L 290.129375 137.351113 
L 336.471625 129.723339 
L 382.813875 123.219391 
L 429.156125 117.662981 
L 475.498375 112.626955 
L 521.840625 108.019779 
L 568.182875 103.851625 
L 614.525125 99.869927 
L 660.867375 96.289958 
L 707.209625 93.032051 
L 753.551875 89.858897 
L 799.894125 86.965428 
L 846.236375 84.061789 
L 892.578625 81.183575 
L 938.920875 78.551146 
L 985.263125 76.101783 
" style="fill:none;stroke:#f15c80;stroke-linecap:square;"/>
   </g>
   <g id="line2d_85">
    <path clip-path="url(#p034669da58)" d="M 58.418125 353.2239 
L 985.263125 353.2239 
" style="fill:none;stroke:#dedede;stroke-linecap:square;stroke-width:2;"/>
   </g>
   <g id="text_17">
    <!-- RSeQC: Junction Saturation -->
    <defs>
     <path d="M 44.390625 34.1875 
Q 47.5625 33.109375 50.5625 29.59375 
Q 53.5625 26.078125 56.59375 19.921875 
L 66.609375 0 
L 56 0 
L 46.6875 18.703125 
Q 43.0625 26.03125 39.671875 28.421875 
Q 36.28125 30.8125 30.421875 30.8125 
L 19.671875 30.8125 
L 19.671875 0 
L 9.8125 0 
L 9.8125 72.90625 
L 32.078125 72.90625 
Q 44.578125 72.90625 50.734375 67.671875 
Q 56.890625 62.453125 56.890625 51.90625 
Q 56.890625 45.015625 53.6875 40.46875 
Q 50.484375 35.9375 44.390625 34.1875 
z
M 19.671875 64.796875 
L 19.671875 38.921875 
L 32.078125 38.921875 
Q 39.203125 38.921875 42.84375 42.21875 
Q 46.484375 45.515625 46.484375 51.90625 
Q 46.484375 58.296875 42.84375 61.546875 
Q 39.203125 64.796875 32.078125 64.796875 
z
" id="DejaVuSans-82"/>
     <path d="M 53.515625 70.515625 
L 53.515625 60.890625 
Q 47.90625 63.578125 42.921875 64.890625 
Q 37.9375 66.21875 33.296875 66.21875 
Q 25.25 66.21875 20.875 63.09375 
Q 16.5 59.96875 16.5 54.203125 
Q 16.5 49.359375 19.40625 46.890625 
Q 22.3125 44.4375 30.421875 42.921875 
L 36.375 41.703125 
Q 47.40625 39.59375 52.65625 34.296875 
Q 57.90625 29 57.90625 20.125 
Q 57.90625 9.515625 50.796875 4.046875 
Q 43.703125 -1.421875 29.984375 -1.421875 
Q 24.8125 -1.421875 18.96875 -0.25 
Q 13.140625 0.921875 6.890625 3.21875 
L 6.890625 13.375 
Q 12.890625 10.015625 18.65625 8.296875 
Q 24.421875 6.59375 29.984375 6.59375 
Q 38.421875 6.59375 43.015625 9.90625 
Q 47.609375 13.234375 47.609375 19.390625 
Q 47.609375 24.75 44.3125 27.78125 
Q 41.015625 30.8125 33.5 32.328125 
L 27.484375 33.5 
Q 16.453125 35.6875 11.515625 40.375 
Q 6.59375 45.0625 6.59375 53.421875 
Q 6.59375 63.09375 13.40625 68.65625 
Q 20.21875 74.21875 32.171875 74.21875 
Q 37.3125 74.21875 42.625 73.28125 
Q 47.953125 72.359375 53.515625 70.515625 
z
" id="DejaVuSans-83"/>
     <path d="M 39.40625 66.21875 
Q 28.65625 66.21875 22.328125 58.203125 
Q 16.015625 50.203125 16.015625 36.375 
Q 16.015625 22.609375 22.328125 14.59375 
Q 28.65625 6.59375 39.40625 6.59375 
Q 50.140625 6.59375 56.421875 14.59375 
Q 62.703125 22.609375 62.703125 36.375 
Q 62.703125 50.203125 56.421875 58.203125 
Q 50.140625 66.21875 39.40625 66.21875 
z
M 53.21875 1.3125 
L 66.21875 -12.890625 
L 54.296875 -12.890625 
L 43.5 -1.21875 
Q 41.890625 -1.3125 41.03125 -1.359375 
Q 40.1875 -1.421875 39.40625 -1.421875 
Q 24.03125 -1.421875 14.8125 8.859375 
Q 5.609375 19.140625 5.609375 36.375 
Q 5.609375 53.65625 14.8125 63.9375 
Q 24.03125 74.21875 39.40625 74.21875 
Q 54.734375 74.21875 63.90625 63.9375 
Q 73.09375 53.65625 73.09375 36.375 
Q 73.09375 23.6875 67.984375 14.640625 
Q 62.890625 5.609375 53.21875 1.3125 
z
" id="DejaVuSans-81"/>
     <path d="M 64.40625 67.28125 
L 64.40625 56.890625 
Q 59.421875 61.53125 53.78125 63.8125 
Q 48.140625 66.109375 41.796875 66.109375 
Q 29.296875 66.109375 22.65625 58.46875 
Q 16.015625 50.828125 16.015625 36.375 
Q 16.015625 21.96875 22.65625 14.328125 
Q 29.296875 6.6875 41.796875 6.6875 
Q 48.140625 6.6875 53.78125 8.984375 
Q 59.421875 11.28125 64.40625 15.921875 
L 64.40625 5.609375 
Q 59.234375 2.09375 53.4375 0.328125 
Q 47.65625 -1.421875 41.21875 -1.421875 
Q 24.65625 -1.421875 15.125 8.703125 
Q 5.609375 18.84375 5.609375 36.375 
Q 5.609375 53.953125 15.125 64.078125 
Q 24.65625 74.21875 41.21875 74.21875 
Q 47.75 74.21875 53.53125 72.484375 
Q 59.328125 70.75 64.40625 67.28125 
z
" id="DejaVuSans-67"/>
     <path d="M 11.71875 12.40625 
L 22.015625 12.40625 
L 22.015625 0 
L 11.71875 0 
z
M 11.71875 51.703125 
L 22.015625 51.703125 
L 22.015625 39.3125 
L 11.71875 39.3125 
z
" id="DejaVuSans-58"/>
    </defs>
    <g transform="translate(412.691875 19.3575)scale(0.16 -0.16)">
     <use xlink:href="#DejaVuSans-82"/>
     <use x="69.482422" xlink:href="#DejaVuSans-83"/>
     <use x="132.958984" xlink:href="#DejaVuSans-101"/>
     <use x="194.482422" xlink:href="#DejaVuSans-81"/>
     <use x="273.193359" xlink:href="#DejaVuSans-67"/>
     <use x="343.017578" xlink:href="#DejaVuSans-58"/>
     <use x="376.708984" xlink:href="#DejaVuSans-32"/>
     <use x="408.496094" xlink:href="#DejaVuSans-74"/>
     <use x="437.988281" xlink:href="#DejaVuSans-117"/>
     <use x="501.367188" xlink:href="#DejaVuSans-110"/>
     <use x="564.746094" xlink:href="#DejaVuSans-99"/>
     <use x="619.726562" xlink:href="#DejaVuSans-116"/>
     <use x="658.935547" xlink:href="#DejaVuSans-105"/>
     <use x="686.71875" xlink:href="#DejaVuSans-111"/>
     <use x="747.900391" xlink:href="#DejaVuSans-110"/>
     <use x="811.279297" xlink:href="#DejaVuSans-32"/>
     <use x="843.066406" xlink:href="#DejaVuSans-83"/>
     <use x="906.542969" xlink:href="#DejaVuSans-97"/>
     <use x="967.822266" xlink:href="#DejaVuSans-116"/>
     <use x="1007.03125" xlink:href="#DejaVuSans-117"/>
     <use x="1070.410156" xlink:href="#DejaVuSans-114"/>
     <use x="1111.523438" xlink:href="#DejaVuSans-97"/>
     <use x="1172.802734" xlink:href="#DejaVuSans-116"/>
     <use x="1212.011719" xlink:href="#DejaVuSans-105"/>
     <use x="1239.794922" xlink:href="#DejaVuSans-111"/>
     <use x="1300.976562" xlink:href="#DejaVuSans-110"/>
    </g>
   </g>
  </g>
 </g>
 <defs>
  <clipPath id="p034669da58">
   <rect height="317.968" width="926.845" x="58.418125" y="35.2559"/>
  </clipPath>
 </defs>
</svg>
