<?xml version="1.0" encoding="utf-8" standalone="no"?>
<!DOCTYPE svg PUBLIC "-//W3C//DTD SVG 1.1//EN"
  "http://www.w3.org/Graphics/SVG/1.1/DTD/svg11.dtd">
<!-- Created with matplotlib (https://matplotlib.org/) -->
<svg height="388.844525pt" version="1.1" viewBox="0 0 1001.320625 388.844525" width="1001.320625pt" xmlns="http://www.w3.org/2000/svg" xmlns:xlink="http://www.w3.org/1999/xlink">
 <defs>
  <style type="text/css">
*{stroke-linecap:butt;stroke-linejoin:round;}
  </style>
 </defs>
 <g id="figure_1">
  <g id="patch_1">
   <path d="M 0 388.844525 
L 1001.320625 388.844525 
L 1001.320625 0 
L 0 0 
z
" style="fill:#ffffff;"/>
  </g>
  <g id="axes_1">
   <g id="patch_2">
    <path d="M 40.600625 353.2239 
L 990.620625 353.2239 
L 990.620625 35.2559 
L 40.600625 35.2559 
z
" style="fill:#ffffff;"/>
   </g>
   <g id="matplotlib.axis_1">
    <g id="xtick_1">
     <g id="text_1">
      <!-- −200 -->
      <defs>
       <path d="M 10.59375 35.5 
L 73.1875 35.5 
L 73.1875 27.203125 
L 10.59375 27.203125 
z
" id="DejaVuSans-8722"/>
       <path d="M 19.1875 8.296875 
L 53.609375 8.296875 
L 53.609375 0 
L 7.328125 0 
L 7.328125 8.296875 
Q 12.9375 14.109375 22.625 23.890625 
Q 32.328125 33.6875 34.8125 36.53125 
Q 39.546875 41.84375 41.421875 45.53125 
Q 43.3125 49.21875 43.3125 52.78125 
Q 43.3125 58.59375 39.234375 62.25 
Q 35.15625 65.921875 28.609375 65.921875 
Q 23.96875 65.921875 18.8125 64.3125 
Q 13.671875 62.703125 7.8125 59.421875 
L 7.8125 69.390625 
Q 13.765625 71.78125 18.9375 73 
Q 24.125 74.21875 28.421875 74.21875 
Q 39.75 74.21875 46.484375 68.546875 
Q 53.21875 62.890625 53.21875 53.421875 
Q 53.21875 48.921875 51.53125 44.890625 
Q 49.859375 40.875 45.40625 35.40625 
Q 44.1875 33.984375 37.640625 27.21875 
Q 31.109375 20.453125 19.1875 8.296875 
z
" id="DejaVuSans-50"/>
       <path d="M 31.78125 66.40625 
Q 24.171875 66.40625 20.328125 58.90625 
Q 16.5 51.421875 16.5 36.375 
Q 16.5 21.390625 20.328125 13.890625 
Q 24.171875 6.390625 31.78125 6.390625 
Q 39.453125 6.390625 43.28125 13.890625 
Q 47.125 21.390625 47.125 36.375 
Q 47.125 51.421875 43.28125 58.90625 
Q 39.453125 66.40625 31.78125 66.40625 
z
M 31.78125 74.21875 
Q 44.046875 74.21875 50.515625 64.515625 
Q 56.984375 54.828125 56.984375 36.375 
Q 56.984375 17.96875 50.515625 8.265625 
Q 44.046875 -1.421875 31.78125 -1.421875 
Q 19.53125 -1.421875 13.0625 8.265625 
Q 6.59375 17.96875 6.59375 36.375 
Q 6.59375 54.828125 13.0625 64.515625 
Q 19.53125 74.21875 31.78125 74.21875 
z
" id="DejaVuSans-48"/>
      </defs>
      <g transform="translate(155.672419 366.30265)scale(0.08 -0.08)">
       <use xlink:href="#DejaVuSans-8722"/>
       <use x="83.789062" xlink:href="#DejaVuSans-50"/>
       <use x="147.412109" xlink:href="#DejaVuSans-48"/>
       <use x="211.035156" xlink:href="#DejaVuSans-48"/>
      </g>
     </g>
    </g>
    <g id="xtick_2">
     <g id="text_2">
      <!-- −100 -->
      <defs>
       <path d="M 12.40625 8.296875 
L 28.515625 8.296875 
L 28.515625 63.921875 
L 10.984375 60.40625 
L 10.984375 69.390625 
L 28.421875 72.90625 
L 38.28125 72.90625 
L 38.28125 8.296875 
L 54.390625 8.296875 
L 54.390625 0 
L 12.40625 0 
z
" id="DejaVuSans-49"/>
      </defs>
      <g transform="translate(330.148084 366.30265)scale(0.08 -0.08)">
       <use xlink:href="#DejaVuSans-8722"/>
       <use x="83.789062" xlink:href="#DejaVuSans-49"/>
       <use x="147.412109" xlink:href="#DejaVuSans-48"/>
       <use x="211.035156" xlink:href="#DejaVuSans-48"/>
      </g>
     </g>
    </g>
    <g id="xtick_3">
     <g id="text_3">
      <!-- 0 -->
      <g transform="translate(513.065625 366.30265)scale(0.08 -0.08)">
       <use xlink:href="#DejaVuSans-48"/>
      </g>
     </g>
    </g>
    <g id="xtick_4">
     <g id="text_4">
      <!-- 100 -->
      <g transform="translate(682.451291 366.30265)scale(0.08 -0.08)">
       <use xlink:href="#DejaVuSans-49"/>
       <use x="63.623047" xlink:href="#DejaVuSans-48"/>
       <use x="127.246094" xlink:href="#DejaVuSans-48"/>
      </g>
     </g>
    </g>
    <g id="xtick_5">
     <g id="text_5">
      <!-- 200 -->
      <g transform="translate(856.926956 366.30265)scale(0.08 -0.08)">
       <use xlink:href="#DejaVuSans-50"/>
       <use x="63.623047" xlink:href="#DejaVuSans-48"/>
       <use x="127.246094" xlink:href="#DejaVuSans-48"/>
      </g>
     </g>
    </g>
    <g id="text_6">
     <!-- Inner Distance (bp) -->
     <defs>
      <path d="M 9.8125 72.90625 
L 19.671875 72.90625 
L 19.671875 0 
L 9.8125 0 
z
" id="DejaVuSans-73"/>
      <path d="M 54.890625 33.015625 
L 54.890625 0 
L 45.90625 0 
L 45.90625 32.71875 
Q 45.90625 40.484375 42.875 44.328125 
Q 39.84375 48.1875 33.796875 48.1875 
Q 26.515625 48.1875 22.3125 43.546875 
Q 18.109375 38.921875 18.109375 30.90625 
L 18.109375 0 
L 9.078125 0 
L 9.078125 54.6875 
L 18.109375 54.6875 
L 18.109375 46.1875 
Q 21.34375 51.125 25.703125 53.5625 
Q 30.078125 56 35.796875 56 
Q 45.21875 56 50.046875 50.171875 
Q 54.890625 44.34375 54.890625 33.015625 
z
" id="DejaVuSans-110"/>
      <path d="M 56.203125 29.59375 
L 56.203125 25.203125 
L 14.890625 25.203125 
Q 15.484375 15.921875 20.484375 11.0625 
Q 25.484375 6.203125 34.421875 6.203125 
Q 39.59375 6.203125 44.453125 7.46875 
Q 49.3125 8.734375 54.109375 11.28125 
L 54.109375 2.78125 
Q 49.265625 0.734375 44.1875 -0.34375 
Q 39.109375 -1.421875 33.890625 -1.421875 
Q 20.796875 -1.421875 13.15625 6.1875 
Q 5.515625 13.8125 5.515625 26.8125 
Q 5.515625 40.234375 12.765625 48.109375 
Q 20.015625 56 32.328125 56 
Q 43.359375 56 49.78125 48.890625 
Q 56.203125 41.796875 56.203125 29.59375 
z
M 47.21875 32.234375 
Q 47.125 39.59375 43.09375 43.984375 
Q 39.0625 48.390625 32.421875 48.390625 
Q 24.90625 48.390625 20.390625 44.140625 
Q 15.875 39.890625 15.1875 32.171875 
z
" id="DejaVuSans-101"/>
      <path d="M 41.109375 46.296875 
Q 39.59375 47.171875 37.8125 47.578125 
Q 36.03125 48 33.890625 48 
Q 26.265625 48 22.1875 43.046875 
Q 18.109375 38.09375 18.109375 28.8125 
L 18.109375 0 
L 9.078125 0 
L 9.078125 54.6875 
L 18.109375 54.6875 
L 18.109375 46.1875 
Q 20.953125 51.171875 25.484375 53.578125 
Q 30.03125 56 36.53125 56 
Q 37.453125 56 38.578125 55.875 
Q 39.703125 55.765625 41.0625 55.515625 
z
" id="DejaVuSans-114"/>
      <path id="DejaVuSans-32"/>
      <path d="M 19.671875 64.796875 
L 19.671875 8.109375 
L 31.59375 8.109375 
Q 46.6875 8.109375 53.6875 14.9375 
Q 60.6875 21.78125 60.6875 36.53125 
Q 60.6875 51.171875 53.6875 57.984375 
Q 46.6875 64.796875 31.59375 64.796875 
z
M 9.8125 72.90625 
L 30.078125 72.90625 
Q 51.265625 72.90625 61.171875 64.09375 
Q 71.09375 55.28125 71.09375 36.53125 
Q 71.09375 17.671875 61.125 8.828125 
Q 51.171875 0 30.078125 0 
L 9.8125 0 
z
" id="DejaVuSans-68"/>
      <path d="M 9.421875 54.6875 
L 18.40625 54.6875 
L 18.40625 0 
L 9.421875 0 
z
M 9.421875 75.984375 
L 18.40625 75.984375 
L 18.40625 64.59375 
L 9.421875 64.59375 
z
" id="DejaVuSans-105"/>
      <path d="M 44.28125 53.078125 
L 44.28125 44.578125 
Q 40.484375 46.53125 36.375 47.5 
Q 32.28125 48.484375 27.875 48.484375 
Q 21.1875 48.484375 17.84375 46.4375 
Q 14.5 44.390625 14.5 40.28125 
Q 14.5 37.15625 16.890625 35.375 
Q 19.28125 33.59375 26.515625 31.984375 
L 29.59375 31.296875 
Q 39.15625 29.25 43.1875 25.515625 
Q 47.21875 21.78125 47.21875 15.09375 
Q 47.21875 7.46875 41.1875 3.015625 
Q 35.15625 -1.421875 24.609375 -1.421875 
Q 20.21875 -1.421875 15.453125 -0.5625 
Q 10.6875 0.296875 5.421875 2 
L 5.421875 11.28125 
Q 10.40625 8.6875 15.234375 7.390625 
Q 20.0625 6.109375 24.8125 6.109375 
Q 31.15625 6.109375 34.5625 8.28125 
Q 37.984375 10.453125 37.984375 14.40625 
Q 37.984375 18.0625 35.515625 20.015625 
Q 33.0625 21.96875 24.703125 23.78125 
L 21.578125 24.515625 
Q 13.234375 26.265625 9.515625 29.90625 
Q 5.8125 33.546875 5.8125 39.890625 
Q 5.8125 47.609375 11.28125 51.796875 
Q 16.75 56 26.8125 56 
Q 31.78125 56 36.171875 55.265625 
Q 40.578125 54.546875 44.28125 53.078125 
z
" id="DejaVuSans-115"/>
      <path d="M 18.3125 70.21875 
L 18.3125 54.6875 
L 36.8125 54.6875 
L 36.8125 47.703125 
L 18.3125 47.703125 
L 18.3125 18.015625 
Q 18.3125 11.328125 20.140625 9.421875 
Q 21.96875 7.515625 27.59375 7.515625 
L 36.8125 7.515625 
L 36.8125 0 
L 27.59375 0 
Q 17.1875 0 13.234375 3.875 
Q 9.28125 7.765625 9.28125 18.015625 
L 9.28125 47.703125 
L 2.6875 47.703125 
L 2.6875 54.6875 
L 9.28125 54.6875 
L 9.28125 70.21875 
z
" id="DejaVuSans-116"/>
      <path d="M 34.28125 27.484375 
Q 23.390625 27.484375 19.1875 25 
Q 14.984375 22.515625 14.984375 16.5 
Q 14.984375 11.71875 18.140625 8.90625 
Q 21.296875 6.109375 26.703125 6.109375 
Q 34.1875 6.109375 38.703125 11.40625 
Q 43.21875 16.703125 43.21875 25.484375 
L 43.21875 27.484375 
z
M 52.203125 31.203125 
L 52.203125 0 
L 43.21875 0 
L 43.21875 8.296875 
Q 40.140625 3.328125 35.546875 0.953125 
Q 30.953125 -1.421875 24.3125 -1.421875 
Q 15.921875 -1.421875 10.953125 3.296875 
Q 6 8.015625 6 15.921875 
Q 6 25.140625 12.171875 29.828125 
Q 18.359375 34.515625 30.609375 34.515625 
L 43.21875 34.515625 
L 43.21875 35.40625 
Q 43.21875 41.609375 39.140625 45 
Q 35.0625 48.390625 27.6875 48.390625 
Q 23 48.390625 18.546875 47.265625 
Q 14.109375 46.140625 10.015625 43.890625 
L 10.015625 52.203125 
Q 14.9375 54.109375 19.578125 55.046875 
Q 24.21875 56 28.609375 56 
Q 40.484375 56 46.34375 49.84375 
Q 52.203125 43.703125 52.203125 31.203125 
z
" id="DejaVuSans-97"/>
      <path d="M 48.78125 52.59375 
L 48.78125 44.1875 
Q 44.96875 46.296875 41.140625 47.34375 
Q 37.3125 48.390625 33.40625 48.390625 
Q 24.65625 48.390625 19.8125 42.84375 
Q 14.984375 37.3125 14.984375 27.296875 
Q 14.984375 17.28125 19.8125 11.734375 
Q 24.65625 6.203125 33.40625 6.203125 
Q 37.3125 6.203125 41.140625 7.25 
Q 44.96875 8.296875 48.78125 10.40625 
L 48.78125 2.09375 
Q 45.015625 0.34375 40.984375 -0.53125 
Q 36.96875 -1.421875 32.421875 -1.421875 
Q 20.0625 -1.421875 12.78125 6.34375 
Q 5.515625 14.109375 5.515625 27.296875 
Q 5.515625 40.671875 12.859375 48.328125 
Q 20.21875 56 33.015625 56 
Q 37.15625 56 41.109375 55.140625 
Q 45.0625 54.296875 48.78125 52.59375 
z
" id="DejaVuSans-99"/>
      <path d="M 31 75.875 
Q 24.46875 64.65625 21.28125 53.65625 
Q 18.109375 42.671875 18.109375 31.390625 
Q 18.109375 20.125 21.3125 9.0625 
Q 24.515625 -2 31 -13.1875 
L 23.1875 -13.1875 
Q 15.875 -1.703125 12.234375 9.375 
Q 8.59375 20.453125 8.59375 31.390625 
Q 8.59375 42.28125 12.203125 53.3125 
Q 15.828125 64.359375 23.1875 75.875 
z
" id="DejaVuSans-40"/>
      <path d="M 48.6875 27.296875 
Q 48.6875 37.203125 44.609375 42.84375 
Q 40.53125 48.484375 33.40625 48.484375 
Q 26.265625 48.484375 22.1875 42.84375 
Q 18.109375 37.203125 18.109375 27.296875 
Q 18.109375 17.390625 22.1875 11.75 
Q 26.265625 6.109375 33.40625 6.109375 
Q 40.53125 6.109375 44.609375 11.75 
Q 48.6875 17.390625 48.6875 27.296875 
z
M 18.109375 46.390625 
Q 20.953125 51.265625 25.265625 53.625 
Q 29.59375 56 35.59375 56 
Q 45.5625 56 51.78125 48.09375 
Q 58.015625 40.1875 58.015625 27.296875 
Q 58.015625 14.40625 51.78125 6.484375 
Q 45.5625 -1.421875 35.59375 -1.421875 
Q 29.59375 -1.421875 25.265625 0.953125 
Q 20.953125 3.328125 18.109375 8.203125 
L 18.109375 0 
L 9.078125 0 
L 9.078125 75.984375 
L 18.109375 75.984375 
z
" id="DejaVuSans-98"/>
      <path d="M 18.109375 8.203125 
L 18.109375 -20.796875 
L 9.078125 -20.796875 
L 9.078125 54.6875 
L 18.109375 54.6875 
L 18.109375 46.390625 
Q 20.953125 51.265625 25.265625 53.625 
Q 29.59375 56 35.59375 56 
Q 45.5625 56 51.78125 48.09375 
Q 58.015625 40.1875 58.015625 27.296875 
Q 58.015625 14.40625 51.78125 6.484375 
Q 45.5625 -1.421875 35.59375 -1.421875 
Q 29.59375 -1.421875 25.265625 0.953125 
Q 20.953125 3.328125 18.109375 8.203125 
z
M 48.6875 27.296875 
Q 48.6875 37.203125 44.609375 42.84375 
Q 40.53125 48.484375 33.40625 48.484375 
Q 26.265625 48.484375 22.1875 42.84375 
Q 18.109375 37.203125 18.109375 27.296875 
Q 18.109375 17.390625 22.1875 11.75 
Q 26.265625 6.109375 33.40625 6.109375 
Q 40.53125 6.109375 44.609375 11.75 
Q 48.6875 17.390625 48.6875 27.296875 
z
" id="DejaVuSans-112"/>
      <path d="M 8.015625 75.875 
L 15.828125 75.875 
Q 23.140625 64.359375 26.78125 53.3125 
Q 30.421875 42.28125 30.421875 31.390625 
Q 30.421875 20.453125 26.78125 9.375 
Q 23.140625 -1.703125 15.828125 -13.1875 
L 8.015625 -13.1875 
Q 14.5 -2 17.703125 9.0625 
Q 20.90625 20.125 20.90625 31.390625 
Q 20.90625 42.671875 17.703125 53.65625 
Q 14.5 64.65625 8.015625 75.875 
z
" id="DejaVuSans-41"/>
     </defs>
     <g transform="translate(467.375469 379.564837)scale(0.1 -0.1)">
      <use xlink:href="#DejaVuSans-73"/>
      <use x="29.492188" xlink:href="#DejaVuSans-110"/>
      <use x="92.871094" xlink:href="#DejaVuSans-110"/>
      <use x="156.25" xlink:href="#DejaVuSans-101"/>
      <use x="217.773438" xlink:href="#DejaVuSans-114"/>
      <use x="258.886719" xlink:href="#DejaVuSans-32"/>
      <use x="290.673828" xlink:href="#DejaVuSans-68"/>
      <use x="367.675781" xlink:href="#DejaVuSans-105"/>
      <use x="395.458984" xlink:href="#DejaVuSans-115"/>
      <use x="447.558594" xlink:href="#DejaVuSans-116"/>
      <use x="486.767578" xlink:href="#DejaVuSans-97"/>
      <use x="548.046875" xlink:href="#DejaVuSans-110"/>
      <use x="611.425781" xlink:href="#DejaVuSans-99"/>
      <use x="666.40625" xlink:href="#DejaVuSans-101"/>
      <use x="727.929688" xlink:href="#DejaVuSans-32"/>
      <use x="759.716797" xlink:href="#DejaVuSans-40"/>
      <use x="798.730469" xlink:href="#DejaVuSans-98"/>
      <use x="862.207031" xlink:href="#DejaVuSans-112"/>
      <use x="925.683594" xlink:href="#DejaVuSans-41"/>
     </g>
    </g>
   </g>
   <g id="matplotlib.axis_2">
    <g id="ytick_1">
     <g id="line2d_1">
      <path clip-path="url(#p5febc4eb52)" d="M 40.600625 338.770809 
L 990.620625 338.770809 
" style="fill:none;stroke:#dedede;stroke-linecap:square;"/>
     </g>
     <g id="text_7">
      <!-- 0.0 -->
      <defs>
       <path d="M 10.6875 12.40625 
L 21 12.40625 
L 21 0 
L 10.6875 0 
z
" id="DejaVuSans-46"/>
      </defs>
      <g transform="translate(20.878125 341.810184)scale(0.08 -0.08)">
       <use xlink:href="#DejaVuSans-48"/>
       <use x="63.623047" xlink:href="#DejaVuSans-46"/>
       <use x="95.410156" xlink:href="#DejaVuSans-48"/>
      </g>
     </g>
    </g>
    <g id="ytick_2">
     <g id="line2d_2">
      <path clip-path="url(#p5febc4eb52)" d="M 40.600625 293.020162 
L 990.620625 293.020162 
" style="fill:none;stroke:#dedede;stroke-linecap:square;"/>
     </g>
     <g id="text_8">
      <!-- 0.5 -->
      <defs>
       <path d="M 10.796875 72.90625 
L 49.515625 72.90625 
L 49.515625 64.59375 
L 19.828125 64.59375 
L 19.828125 46.734375 
Q 21.96875 47.46875 24.109375 47.828125 
Q 26.265625 48.1875 28.421875 48.1875 
Q 40.625 48.1875 47.75 41.5 
Q 54.890625 34.8125 54.890625 23.390625 
Q 54.890625 11.625 47.5625 5.09375 
Q 40.234375 -1.421875 26.90625 -1.421875 
Q 22.3125 -1.421875 17.546875 -0.640625 
Q 12.796875 0.140625 7.71875 1.703125 
L 7.71875 11.625 
Q 12.109375 9.234375 16.796875 8.0625 
Q 21.484375 6.890625 26.703125 6.890625 
Q 35.15625 6.890625 40.078125 11.328125 
Q 45.015625 15.765625 45.015625 23.390625 
Q 45.015625 31 40.078125 35.4375 
Q 35.15625 39.890625 26.703125 39.890625 
Q 22.75 39.890625 18.8125 39.015625 
Q 14.890625 38.140625 10.796875 36.28125 
z
" id="DejaVuSans-53"/>
      </defs>
      <g transform="translate(20.878125 296.059537)scale(0.08 -0.08)">
       <use xlink:href="#DejaVuSans-48"/>
       <use x="63.623047" xlink:href="#DejaVuSans-46"/>
       <use x="95.410156" xlink:href="#DejaVuSans-53"/>
      </g>
     </g>
    </g>
    <g id="ytick_3">
     <g id="line2d_3">
      <path clip-path="url(#p5febc4eb52)" d="M 40.600625 247.269516 
L 990.620625 247.269516 
" style="fill:none;stroke:#dedede;stroke-linecap:square;"/>
     </g>
     <g id="text_9">
      <!-- 1.0 -->
      <g transform="translate(20.878125 250.308891)scale(0.08 -0.08)">
       <use xlink:href="#DejaVuSans-49"/>
       <use x="63.623047" xlink:href="#DejaVuSans-46"/>
       <use x="95.410156" xlink:href="#DejaVuSans-48"/>
      </g>
     </g>
    </g>
    <g id="ytick_4">
     <g id="line2d_4">
      <path clip-path="url(#p5febc4eb52)" d="M 40.600625 201.518869 
L 990.620625 201.518869 
" style="fill:none;stroke:#dedede;stroke-linecap:square;"/>
     </g>
     <g id="text_10">
      <!-- 1.5 -->
      <g transform="translate(20.878125 204.558244)scale(0.08 -0.08)">
       <use xlink:href="#DejaVuSans-49"/>
       <use x="63.623047" xlink:href="#DejaVuSans-46"/>
       <use x="95.410156" xlink:href="#DejaVuSans-53"/>
      </g>
     </g>
    </g>
    <g id="ytick_5">
     <g id="line2d_5">
      <path clip-path="url(#p5febc4eb52)" d="M 40.600625 155.768222 
L 990.620625 155.768222 
" style="fill:none;stroke:#dedede;stroke-linecap:square;"/>
     </g>
     <g id="text_11">
      <!-- 2.0 -->
      <g transform="translate(20.878125 158.807597)scale(0.08 -0.08)">
       <use xlink:href="#DejaVuSans-50"/>
       <use x="63.623047" xlink:href="#DejaVuSans-46"/>
       <use x="95.410156" xlink:href="#DejaVuSans-48"/>
      </g>
     </g>
    </g>
    <g id="ytick_6">
     <g id="line2d_6">
      <path clip-path="url(#p5febc4eb52)" d="M 40.600625 110.017576 
L 990.620625 110.017576 
" style="fill:none;stroke:#dedede;stroke-linecap:square;"/>
     </g>
     <g id="text_12">
      <!-- 2.5 -->
      <g transform="translate(20.878125 113.056951)scale(0.08 -0.08)">
       <use xlink:href="#DejaVuSans-50"/>
       <use x="63.623047" xlink:href="#DejaVuSans-46"/>
       <use x="95.410156" xlink:href="#DejaVuSans-53"/>
      </g>
     </g>
    </g>
    <g id="ytick_7">
     <g id="line2d_7">
      <path clip-path="url(#p5febc4eb52)" d="M 40.600625 64.266929 
L 990.620625 64.266929 
" style="fill:none;stroke:#dedede;stroke-linecap:square;"/>
     </g>
     <g id="text_13">
      <!-- 3.0 -->
      <defs>
       <path d="M 40.578125 39.3125 
Q 47.65625 37.796875 51.625 33 
Q 55.609375 28.21875 55.609375 21.1875 
Q 55.609375 10.40625 48.1875 4.484375 
Q 40.765625 -1.421875 27.09375 -1.421875 
Q 22.515625 -1.421875 17.65625 -0.515625 
Q 12.796875 0.390625 7.625 2.203125 
L 7.625 11.71875 
Q 11.71875 9.328125 16.59375 8.109375 
Q 21.484375 6.890625 26.8125 6.890625 
Q 36.078125 6.890625 40.9375 10.546875 
Q 45.796875 14.203125 45.796875 21.1875 
Q 45.796875 27.640625 41.28125 31.265625 
Q 36.765625 34.90625 28.71875 34.90625 
L 20.21875 34.90625 
L 20.21875 43.015625 
L 29.109375 43.015625 
Q 36.375 43.015625 40.234375 45.921875 
Q 44.09375 48.828125 44.09375 54.296875 
Q 44.09375 59.90625 40.109375 62.90625 
Q 36.140625 65.921875 28.71875 65.921875 
Q 24.65625 65.921875 20.015625 65.03125 
Q 15.375 64.15625 9.8125 62.3125 
L 9.8125 71.09375 
Q 15.4375 72.65625 20.34375 73.4375 
Q 25.25 74.21875 29.59375 74.21875 
Q 40.828125 74.21875 47.359375 69.109375 
Q 53.90625 64.015625 53.90625 55.328125 
Q 53.90625 49.265625 50.4375 45.09375 
Q 46.96875 40.921875 40.578125 39.3125 
z
" id="DejaVuSans-51"/>
      </defs>
      <g transform="translate(20.878125 67.306304)scale(0.08 -0.08)">
       <use xlink:href="#DejaVuSans-51"/>
       <use x="63.623047" xlink:href="#DejaVuSans-46"/>
       <use x="95.410156" xlink:href="#DejaVuSans-48"/>
      </g>
     </g>
    </g>
    <g id="text_14">
     <!-- Percentage -->
     <defs>
      <path d="M 19.671875 64.796875 
L 19.671875 37.40625 
L 32.078125 37.40625 
Q 38.96875 37.40625 42.71875 40.96875 
Q 46.484375 44.53125 46.484375 51.125 
Q 46.484375 57.671875 42.71875 61.234375 
Q 38.96875 64.796875 32.078125 64.796875 
z
M 9.8125 72.90625 
L 32.078125 72.90625 
Q 44.34375 72.90625 50.609375 67.359375 
Q 56.890625 61.8125 56.890625 51.125 
Q 56.890625 40.328125 50.609375 34.8125 
Q 44.34375 29.296875 32.078125 29.296875 
L 19.671875 29.296875 
L 19.671875 0 
L 9.8125 0 
z
" id="DejaVuSans-80"/>
      <path d="M 45.40625 27.984375 
Q 45.40625 37.75 41.375 43.109375 
Q 37.359375 48.484375 30.078125 48.484375 
Q 22.859375 48.484375 18.828125 43.109375 
Q 14.796875 37.75 14.796875 27.984375 
Q 14.796875 18.265625 18.828125 12.890625 
Q 22.859375 7.515625 30.078125 7.515625 
Q 37.359375 7.515625 41.375 12.890625 
Q 45.40625 18.265625 45.40625 27.984375 
z
M 54.390625 6.78125 
Q 54.390625 -7.171875 48.1875 -13.984375 
Q 42 -20.796875 29.203125 -20.796875 
Q 24.46875 -20.796875 20.265625 -20.09375 
Q 16.0625 -19.390625 12.109375 -17.921875 
L 12.109375 -9.1875 
Q 16.0625 -11.328125 19.921875 -12.34375 
Q 23.78125 -13.375 27.78125 -13.375 
Q 36.625 -13.375 41.015625 -8.765625 
Q 45.40625 -4.15625 45.40625 5.171875 
L 45.40625 9.625 
Q 42.625 4.78125 38.28125 2.390625 
Q 33.9375 0 27.875 0 
Q 17.828125 0 11.671875 7.65625 
Q 5.515625 15.328125 5.515625 27.984375 
Q 5.515625 40.671875 11.671875 48.328125 
Q 17.828125 56 27.875 56 
Q 33.9375 56 38.28125 53.609375 
Q 42.625 51.21875 45.40625 46.390625 
L 45.40625 54.6875 
L 54.390625 54.6875 
z
" id="DejaVuSans-103"/>
     </defs>
     <g transform="translate(14.798438 222.6524)rotate(-90)scale(0.1 -0.1)">
      <use xlink:href="#DejaVuSans-80"/>
      <use x="60.255859" xlink:href="#DejaVuSans-101"/>
      <use x="121.779297" xlink:href="#DejaVuSans-114"/>
      <use x="162.861328" xlink:href="#DejaVuSans-99"/>
      <use x="217.841797" xlink:href="#DejaVuSans-101"/>
      <use x="279.365234" xlink:href="#DejaVuSans-110"/>
      <use x="342.744141" xlink:href="#DejaVuSans-116"/>
      <use x="381.953125" xlink:href="#DejaVuSans-97"/>
      <use x="443.232422" xlink:href="#DejaVuSans-103"/>
      <use x="506.708984" xlink:href="#DejaVuSans-101"/>
     </g>
    </g>
   </g>
   <g id="line2d_8">
    <path clip-path="url(#p5febc4eb52)" d="M 83.783352 338.770809 
L 92.507136 338.770809 
L 101.230919 338.770809 
L 109.954702 338.770809 
L 118.678485 338.770809 
L 127.402269 338.770809 
L 136.126052 338.770809 
L 144.849835 338.770809 
L 153.573619 338.770809 
L 162.297402 338.770809 
L 171.021185 338.770809 
L 179.744968 338.770809 
L 188.468752 338.770809 
L 197.192535 338.770809 
L 205.916318 338.770809 
L 214.640102 338.770809 
L 223.363885 338.770809 
L 232.087668 338.770809 
L 240.811451 338.770809 
L 249.535235 335.111846 
L 258.259018 261.152496 
L 266.982801 244.900755 
L 275.706585 247.491747 
L 284.430368 242.45835 
L 293.154151 249.051914 
L 301.877934 242.662658 
L 310.601718 247.658907 
L 319.325501 241.251078 
L 328.049284 248.290404 
L 336.773068 239.031555 
L 345.496851 241.278938 
L 354.220634 232.10367 
L 362.944417 233.023054 
L 371.668201 222.213325 
L 380.391984 217.727844 
L 389.115767 207.206003 
L 397.839551 202.915544 
L 406.563334 198.43935 
L 415.287117 186.598796 
L 424.0109 180.599582 
L 432.734684 172.16725 
L 441.458467 164.0971 
L 450.18225 146.006591 
L 458.906034 147.11171 
L 467.629817 128.631159 
L 476.3536 129.829144 
L 485.077383 110.141321 
L 493.801167 113.400956 
L 502.52495 103.046276 
L 511.248733 95.626195 
L 519.972517 90.564939 
L 528.6963 94.056741 
L 537.420083 85.726563 
L 546.143867 89.543401 
L 554.86765 89.060492 
L 563.591433 100.241689 
L 572.315216 103.28773 
L 581.039 107.132427 
L 589.762783 114.654662 
L 598.486566 120.263834 
L 607.21035 136.803463 
L 615.934133 148.681163 
L 624.657916 160.503144 
L 633.381699 170.059167 
L 642.105483 186.143747 
L 650.829266 193.340947 
L 659.553049 199.674482 
L 668.276833 213.047343 
L 677.000616 226.754526 
L 685.724399 232.112957 
L 694.448182 244.315692 
L 703.171966 252.292975 
L 711.895749 259.555182 
L 720.619532 265.173641 
L 729.343316 270.569218 
L 738.067099 279.800207 
L 746.790882 284.183534 
L 755.514665 289.89486 
L 764.238449 296.878465 
L 772.962232 299.692338 
L 781.686015 302.469064 
L 790.409799 305.914433 
L 799.133582 309.192641 
L 807.857365 310.585647 
L 816.581148 314.820387 
L 825.304932 318.56293 
L 834.028715 318.609364 
L 842.752498 322.017586 
L 851.476282 323.410592 
L 860.200065 325.360801 
L 868.923848 325.81585 
L 877.647631 327.543178 
L 886.371415 328.657583 
L 895.095198 329.056912 
L 903.818981 330.199177 
L 912.542765 331.60147 
L 921.266548 332.084379 
L 929.990331 332.883036 
L 938.714114 333.105917 
L 947.437898 333.18021 
" style="fill:none;stroke:#7cb5ec;stroke-linecap:square;"/>
   </g>
   <g id="line2d_9">
    <path clip-path="url(#p5febc4eb52)" d="M 83.783352 338.770809 
L 92.507136 338.770809 
L 101.230919 338.770809 
L 109.954702 338.770809 
L 118.678485 338.770809 
L 127.402269 338.770809 
L 136.126052 338.770809 
L 144.849835 338.770809 
L 153.573619 338.770809 
L 162.297402 338.770809 
L 171.021185 338.770809 
L 179.744968 338.770809 
L 188.468752 338.770809 
L 197.192535 338.770809 
L 205.916318 338.770809 
L 214.640102 338.770809 
L 223.363885 338.770809 
L 232.087668 338.770809 
L 240.811451 338.770809 
L 249.535235 336.928716 
L 258.259018 289.015489 
L 266.982801 278.047514 
L 275.706585 282.314404 
L 284.430368 279.259912 
L 293.154151 281.872677 
L 301.877934 277.483608 
L 310.601718 280.782459 
L 319.325501 273.235515 
L 328.049284 277.539998 
L 336.773068 269.673508 
L 345.496851 271.938531 
L 354.220634 260.246876 
L 362.944417 262.934829 
L 371.668201 252.568354 
L 380.391984 248.761987 
L 389.115767 239.654903 
L 397.839551 235.303427 
L 406.563334 229.626772 
L 415.287117 221.215171 
L 424.0109 212.361845 
L 432.734684 199.598769 
L 441.458467 195.961574 
L 450.18225 180.557537 
L 458.906034 175.576366 
L 467.629817 159.495642 
L 476.3536 156.995658 
L 485.077383 137.061575 
L 493.801167 138.424349 
L 502.52495 114.01661 
L 511.248733 112.973384 
L 519.972517 97.447168 
L 528.6963 98.480996 
L 537.420083 92.137051 
L 546.143867 92.550582 
L 554.86765 81.347647 
L 563.591433 90.99984 
L 572.315216 84.402138 
L 581.039 91.366379 
L 589.762783 97.2498 
L 598.486566 98.800542 
L 607.21035 108.894463 
L 615.934133 118.847406 
L 624.657916 126.967655 
L 633.381699 133.508967 
L 642.105483 145.971293 
L 650.829266 152.869745 
L 659.553049 166.243719 
L 668.276833 176.356436 
L 677.000616 192.277387 
L 685.724399 198.555542 
L 694.448182 209.551712 
L 703.171966 217.897524 
L 711.895749 230.256467 
L 720.619532 237.418075 
L 729.343316 244.560886 
L 738.067099 253.461205 
L 746.790882 258.536361 
L 755.514665 265.359625 
L 764.238449 275.199788 
L 772.962232 277.934733 
L 781.686015 284.833185 
L 790.409799 287.295575 
L 799.133582 290.998559 
L 807.857365 296.271081 
L 816.581148 299.917675 
L 825.304932 304.447721 
L 834.028715 306.628158 
L 842.752498 310.453321 
L 851.476282 312.276618 
L 860.200065 315.302914 
L 868.923848 316.299149 
L 877.647631 319.034093 
L 886.371415 320.73521 
L 895.095198 321.496484 
L 903.818981 323.507749 
L 912.542765 324.748343 
L 921.266548 325.472022 
L 929.990331 326.665624 
L 938.714114 327.746444 
L 947.437898 329.297186 
" style="fill:none;stroke:#434348;stroke-linecap:square;"/>
   </g>
   <g id="line2d_10">
    <path clip-path="url(#p5febc4eb52)" d="M 83.783352 338.770809 
L 92.507136 338.770809 
L 101.230919 338.770809 
L 109.954702 338.770809 
L 118.678485 338.770809 
L 127.402269 338.770809 
L 136.126052 338.770809 
L 144.849835 338.770809 
L 153.573619 338.770809 
L 162.297402 338.770809 
L 171.021185 338.770809 
L 179.744968 338.770809 
L 188.468752 338.770809 
L 197.192535 338.770809 
L 205.916318 338.770809 
L 214.640102 338.770809 
L 223.363885 338.770809 
L 232.087668 338.770809 
L 240.811451 338.770809 
L 249.535235 334.112976 
L 258.259018 250.677006 
L 266.982801 234.917697 
L 275.706585 235.423983 
L 284.430368 228.971135 
L 293.154151 232.975399 
L 301.877934 223.227088 
L 310.601718 225.408721 
L 319.325501 214.583401 
L 328.049284 214.951609 
L 336.773068 200.683543 
L 345.496851 196.624048 
L 354.220634 184.095765 
L 362.944417 173.159983 
L 371.668201 161.561426 
L 380.391984 154.473418 
L 389.115767 132.509802 
L 397.839551 124.924713 
L 406.563334 118.471865 
L 415.287117 103.807975 
L 424.0109 99.472324 
L 432.734684 81.01589 
L 441.458467 73.651727 
L 450.18225 60.046435 
L 458.906034 55.710784 
L 467.629817 49.708991 
L 476.3536 55.848862 
L 485.077383 52.175986 
L 493.801167 56.364353 
L 502.52495 57.54262 
L 511.248733 61.132649 
L 519.972517 74.691915 
L 528.6963 85.867032 
L 537.420083 96.986919 
L 546.143867 110.757904 
L 554.86765 121.113759 
L 563.591433 141.006205 
L 572.315216 154.344546 
L 581.039 167.903811 
L 589.762783 179.217007 
L 598.486566 193.300969 
L 607.21035 207.154801 
L 615.934133 220.40109 
L 624.657916 228.547696 
L 633.381699 242.714505 
L 642.105483 250.244362 
L 650.829266 258.133221 
L 659.553049 270.302501 
L 668.276833 277.869179 
L 677.000616 283.585611 
L 685.724399 289.17317 
L 694.448182 295.52476 
L 703.171966 299.216047 
L 711.895749 304.656323 
L 720.619532 307.988607 
L 729.343316 312.121743 
L 738.067099 315.785415 
L 746.790882 316.761166 
L 755.514665 320.07504 
L 764.238449 322.330315 
L 772.962232 324.705257 
L 781.686015 325.809882 
L 790.409799 327.218278 
L 799.133582 328.23085 
L 807.857365 328.939651 
L 816.581148 331.415851 
L 825.304932 331.314594 
L 834.028715 332.373192 
L 842.752498 333.229276 
L 851.476282 333.634305 
L 860.200065 334.195823 
L 868.923848 334.895418 
L 877.647631 335.493756 
L 886.371415 335.631835 
L 895.095198 335.843554 
L 903.818981 336.625997 
L 912.542765 336.607586 
L 921.266548 336.607586 
L 929.990331 337.095462 
L 938.714114 337.224335 
L 947.437898 337.205924 
" style="fill:none;stroke:#90ed7d;stroke-linecap:square;"/>
   </g>
   <g id="line2d_11">
    <path clip-path="url(#p5febc4eb52)" d="M 83.783352 338.770809 
L 92.507136 338.770809 
L 101.230919 338.770809 
L 109.954702 338.770809 
L 118.678485 338.770809 
L 127.402269 338.770809 
L 136.126052 338.770809 
L 144.849835 338.770809 
L 153.573619 338.770809 
L 162.297402 338.770809 
L 171.021185 338.770809 
L 179.744968 338.770809 
L 188.468752 338.770809 
L 197.192535 338.770809 
L 205.916318 338.770809 
L 214.640102 338.770809 
L 223.363885 338.770809 
L 232.087668 338.770809 
L 240.811451 338.770809 
L 249.535235 335.410736 
L 258.259018 270.75253 
L 266.982801 261.266356 
L 275.706585 259.270732 
L 284.430368 258.351817 
L 293.154151 257.776335 
L 301.877934 253.65514 
L 310.601718 257.971256 
L 319.325501 252.467048 
L 328.049284 252.847609 
L 336.773068 243.027284 
L 345.496851 240.6511 
L 354.220634 233.401881 
L 362.944417 225.605025 
L 371.668201 216.480849 
L 380.391984 208.702557 
L 389.115767 198.910078 
L 397.839551 185.079943 
L 406.563334 180.671007 
L 415.287117 167.73194 
L 424.0109 157.772385 
L 432.734684 143.218256 
L 441.458467 131.857124 
L 450.18225 118.983031 
L 458.906034 112.485652 
L 467.629817 93.466894 
L 476.3536 92.492287 
L 485.077383 83.312419 
L 493.801167 80.175113 
L 502.52495 71.403651 
L 511.248733 59.606266 
L 519.972517 66.660564 
L 528.6963 72.071952 
L 537.420083 74.875107 
L 546.143867 82.152172 
L 554.86765 83.999284 
L 563.591433 96.335023 
L 572.315216 103.147989 
L 581.039 113.283901 
L 589.762783 127.030499 
L 598.486566 138.456605 
L 607.21035 153.966778 
L 615.934133 167.666966 
L 624.657916 175.630897 
L 633.381699 187.251924 
L 642.105483 198.056137 
L 650.829266 210.2248 
L 659.553049 222.774024 
L 668.276833 231.712562 
L 677.000616 242.776671 
L 685.724399 250.035172 
L 694.448182 258.453919 
L 703.171966 266.900512 
L 711.895749 273.797016 
L 720.619532 280.238703 
L 729.343316 285.473735 
L 738.067099 290.829432 
L 746.790882 294.932063 
L 755.514665 298.811926 
L 764.238449 303.332246 
L 772.962232 307.147136 
L 781.686015 310.525773 
L 790.409799 313.47744 
L 799.133582 315.909316 
L 807.857365 317.607916 
L 816.581148 320.485327 
L 825.304932 321.617728 
L 834.028715 323.743299 
L 842.752498 325.200568 
L 851.476282 326.824913 
L 860.200065 327.567471 
L 868.923848 329.349609 
L 877.647631 330.027193 
L 886.371415 330.90898 
L 895.095198 331.809331 
L 903.818981 332.254866 
L 912.542765 332.765374 
L 921.266548 333.294447 
L 929.990331 334.445411 
L 938.714114 334.67746 
L 947.437898 334.983765 
" style="fill:none;stroke:#f7a35c;stroke-linecap:square;"/>
   </g>
   <g id="line2d_12">
    <path clip-path="url(#p5febc4eb52)" d="M 83.783352 338.770809 
L 92.507136 338.770809 
L 101.230919 338.770809 
L 109.954702 338.770809 
L 118.678485 338.770809 
L 127.402269 338.770809 
L 136.126052 338.770809 
L 144.849835 338.770809 
L 153.573619 338.770809 
L 162.297402 338.770809 
L 171.021185 338.770809 
L 179.744968 338.770809 
L 188.468752 338.770809 
L 197.192535 338.770809 
L 205.916318 338.770809 
L 214.640102 338.770809 
L 223.363885 338.770809 
L 232.087668 338.770809 
L 240.811451 338.770809 
L 249.535235 335.13508 
L 258.259018 253.261085 
L 266.982801 238.699477 
L 275.706585 239.269604 
L 284.430368 238.054579 
L 293.154151 248.662682 
L 301.877934 240.1762 
L 310.601718 252.195601 
L 319.325501 247.017725 
L 328.049284 252.550762 
L 336.773068 246.933608 
L 345.496851 247.999092 
L 354.220634 241.185605 
L 362.944417 242.914679 
L 371.668201 235.708646 
L 380.391984 234.400157 
L 389.115767 228.2783 
L 397.839551 224.689303 
L 406.563334 218.006666 
L 415.287117 211.884809 
L 424.0109 210.024886 
L 432.734684 197.136274 
L 441.458467 193.659433 
L 450.18225 178.761356 
L 458.906034 178.742664 
L 467.629817 159.704156 
L 476.3536 165.80732 
L 485.077383 150.105458 
L 493.801167 152.395313 
L 502.52495 138.544027 
L 511.248733 131.300609 
L 519.972517 122.131843 
L 528.6963 125.571298 
L 537.420083 112.766804 
L 546.143867 115.851098 
L 554.86765 110.131134 
L 563.591433 115.10339 
L 572.315216 111.234003 
L 581.039 110.159173 
L 589.762783 116.430571 
L 598.486566 116.542728 
L 607.21035 128.683632 
L 615.934133 133.39419 
L 624.657916 136.908417 
L 633.381699 148.432462 
L 642.105483 156.47032 
L 650.829266 161.246303 
L 659.553049 175.966799 
L 668.276833 186.154317 
L 677.000616 193.407081 
L 685.724399 202.510423 
L 694.448182 215.501845 
L 703.171966 221.548931 
L 711.895749 232.558927 
L 720.619532 240.961293 
L 729.343316 246.933608 
L 738.067099 254.65369 
L 746.790882 259.224054 
L 755.514665 267.224526 
L 764.238449 275.215653 
L 772.962232 279.496279 
L 781.686015 286.113493 
L 790.409799 290.5717 
L 799.133582 295.142063 
L 807.857365 299.861968 
L 816.581148 302.82476 
L 825.304932 306.787611 
L 834.028715 308.432568 
L 842.752498 313.049663 
L 851.476282 314.03103 
L 860.200065 316.825587 
L 868.923848 319.704262 
L 877.647631 320.255697 
L 886.371415 322.321239 
L 895.095198 322.975483 
L 903.818981 324.517631 
L 912.542765 326.171934 
L 921.266548 327.414998 
L 929.990331 328.499174 
L 938.714114 329.116033 
L 947.437898 330.06936 
" style="fill:none;stroke:#8085e9;stroke-linecap:square;"/>
   </g>
   <g id="line2d_13">
    <path clip-path="url(#p5febc4eb52)" d="M 83.783352 338.770809 
L 92.507136 338.770809 
L 101.230919 338.770809 
L 109.954702 338.770809 
L 118.678485 338.770809 
L 127.402269 338.770809 
L 136.126052 338.770809 
L 144.849835 338.770809 
L 153.573619 338.770809 
L 162.297402 338.770809 
L 171.021185 338.770809 
L 179.744968 338.770809 
L 188.468752 338.770809 
L 197.192535 338.770809 
L 205.916318 338.770809 
L 214.640102 338.770809 
L 223.363885 338.770809 
L 232.087668 338.770809 
L 240.811451 338.770809 
L 249.535235 335.675635 
L 258.259018 267.703369 
L 266.982801 256.052049 
L 275.706585 257.931596 
L 284.430368 253.648847 
L 293.154151 261.475617 
L 301.877934 258.006403 
L 310.601718 263.448673 
L 319.325501 254.761614 
L 328.049284 262.476171 
L 336.773068 251.844108 
L 345.496851 256.098804 
L 354.220634 248.861146 
L 362.944417 248.272034 
L 371.668201 242.465076 
L 380.391984 242.11909 
L 389.115767 229.055772 
L 397.839551 226.699326 
L 406.563334 221.070036 
L 415.287117 212.822473 
L 424.0109 208.390109 
L 432.734684 199.357063 
L 441.458467 194.157919 
L 450.18225 179.411425 
L 458.906034 178.756856 
L 467.629817 162.327186 
L 476.3536 162.467451 
L 485.077383 148.440982 
L 493.801167 148.6093 
L 502.52495 131.478306 
L 511.248733 124.92327 
L 519.972517 114.581087 
L 528.6963 112.187237 
L 537.420083 104.940228 
L 546.143867 106.810424 
L 554.86765 95.823023 
L 563.591433 102.406113 
L 572.315216 101.751544 
L 581.039 103.546932 
L 589.762783 106.137153 
L 598.486566 112.954017 
L 607.21035 117.704314 
L 615.934133 124.165841 
L 624.657916 134.85401 
L 633.381699 136.780311 
L 642.105483 153.368948 
L 650.829266 158.007034 
L 659.553049 175.194133 
L 668.276833 180.963687 
L 677.000616 190.959884 
L 685.724399 202.38678 
L 694.448182 212.79442 
L 703.171966 219.330754 
L 711.895749 231.954576 
L 720.619532 237.72413 
L 729.343316 244.905682 
L 738.067099 255.949188 
L 746.790882 261.41016 
L 755.514665 265.720961 
L 764.238449 273.790856 
L 772.962232 279.111563 
L 781.686015 285.778811 
L 790.409799 290.248579 
L 799.133582 295.298108 
L 807.857365 297.345972 
L 816.581148 303.031367 
L 825.304932 306.313561 
L 834.028715 308.950537 
L 842.752498 310.783329 
L 851.476282 315.131534 
L 860.200065 317.216802 
L 868.923848 318.572694 
L 877.647631 320.620559 
L 886.371415 322.649721 
L 895.095198 323.734435 
L 903.818981 325.015519 
L 912.542765 326.595834 
L 921.266548 327.661846 
L 929.990331 328.568891 
L 938.714114 329.550744 
L 947.437898 330.214663 
" style="fill:none;stroke:#f15c80;stroke-linecap:square;"/>
   </g>
   <g id="line2d_14">
    <path clip-path="url(#p5febc4eb52)" d="M 83.783352 338.770809 
L 92.507136 338.770809 
L 101.230919 338.770809 
L 109.954702 338.770809 
L 118.678485 338.770809 
L 127.402269 338.770809 
L 136.126052 338.770809 
L 144.849835 338.770809 
L 153.573619 338.770809 
L 162.297402 338.770809 
L 171.021185 338.770809 
L 179.744968 338.770809 
L 188.468752 338.770809 
L 197.192535 338.770809 
L 205.916318 338.770809 
L 214.640102 338.770809 
L 223.363885 338.770809 
L 232.087668 338.770809 
L 240.811451 338.770809 
L 249.535235 335.299819 
L 258.259018 264.355021 
L 266.982801 248.927358 
L 275.706585 252.332858 
L 284.430368 247.991781 
L 293.154151 258.301839 
L 301.877934 250.882714 
L 310.601718 262.053502 
L 319.325501 257.188502 
L 328.049284 262.932944 
L 336.773068 255.251858 
L 345.496851 260.332041 
L 354.220634 254.250791 
L 362.944417 254.222723 
L 371.668201 245.29732 
L 380.391984 245.175695 
L 389.115767 235.773147 
L 397.839551 232.826079 
L 406.563334 227.568137 
L 415.287117 220.635512 
L 424.0109 216.322503 
L 432.734684 203.009243 
L 441.458467 202.363695 
L 450.18225 189.013012 
L 458.906034 188.994301 
L 467.629817 171.658061 
L 476.3536 174.810955 
L 485.077383 156.02457 
L 493.801167 160.412426 
L 502.52495 138.360878 
L 511.248733 128.284715 
L 519.972517 120.940436 
L 528.6963 122.661898 
L 537.420083 110.293571 
L 546.143867 112.211504 
L 554.86765 103.332879 
L 563.591433 108.993119 
L 572.315216 102.762177 
L 581.039 104.773667 
L 589.762783 101.89209 
L 598.486566 106.064763 
L 607.21035 112.83834 
L 615.934133 118.67634 
L 624.657916 134.525013 
L 633.381699 134.824398 
L 642.105483 145.246724 
L 650.829266 150.36433 
L 659.553049 164.379272 
L 668.276833 169.992734 
L 677.000616 184.353839 
L 685.724399 190.996436 
L 694.448182 203.654791 
L 703.171966 211.682041 
L 711.895749 223.620003 
L 720.619532 231.871791 
L 729.343316 239.03831 
L 738.067099 250.152964 
L 746.790882 255.944185 
L 755.514665 264.476646 
L 764.238449 271.596387 
L 772.962232 278.313829 
L 781.686015 281.055069 
L 790.409799 287.903492 
L 799.133582 292.506531 
L 807.857365 295.659425 
L 816.581148 300.206329 
L 825.304932 304.753233 
L 834.028715 307.344781 
L 842.752498 310.956107 
L 851.476282 313.369896 
L 860.200065 315.643348 
L 868.923848 318.496857 
L 877.647631 320.442857 
L 886.371415 321.827511 
L 895.095198 322.772444 
L 903.818981 324.437771 
L 912.542765 326.43055 
L 921.266548 326.991896 
L 929.990331 329.050165 
L 938.714114 328.704001 
L 947.437898 330.425463 
" style="fill:none;stroke:#e4d354;stroke-linecap:square;"/>
   </g>
   <g id="line2d_15">
    <path clip-path="url(#p5febc4eb52)" d="M 83.783352 338.770809 
L 92.507136 338.770809 
L 101.230919 338.770809 
L 109.954702 338.770809 
L 118.678485 338.770809 
L 127.402269 338.770809 
L 136.126052 338.770809 
L 144.849835 338.770809 
L 153.573619 338.770809 
L 162.297402 338.770809 
L 171.021185 338.770809 
L 179.744968 338.770809 
L 188.468752 338.770809 
L 197.192535 338.770809 
L 205.916318 338.770809 
L 214.640102 338.770809 
L 223.363885 338.770809 
L 232.087668 338.770809 
L 240.811451 338.770809 
L 249.535235 334.873431 
L 258.259018 254.683676 
L 266.982801 240.662738 
L 275.706585 245.175998 
L 284.430368 244.396523 
L 293.154151 253.846461 
L 301.877934 248.515233 
L 310.601718 261.756695 
L 319.325501 255.299558 
L 328.049284 264.816859 
L 336.773068 258.196128 
L 345.496851 266.510534 
L 354.220634 258.311606 
L 362.944417 261.621971 
L 371.668201 252.903392 
L 380.391984 249.987576 
L 389.115767 245.262607 
L 397.839551 243.347599 
L 406.563334 242.587369 
L 415.287117 233.637835 
L 424.0109 231.020336 
L 432.734684 221.618513 
L 441.458467 220.098055 
L 450.18225 209.695424 
L 458.906034 206.837347 
L 467.629817 192.864525 
L 476.3536 197.474016 
L 485.077383 180.325553 
L 493.801167 186.0802 
L 502.52495 167.411278 
L 511.248733 160.98301 
L 519.972517 150.118468 
L 528.6963 154.246802 
L 537.420083 143.882663 
L 546.143867 142.776 
L 554.86765 133.884204 
L 563.591433 135.02936 
L 572.315216 126.310781 
L 581.039 129.6019 
L 589.762783 130.246652 
L 598.486566 129.274713 
L 607.21035 134.269131 
L 615.934133 134.423101 
L 624.657916 139.273172 
L 633.381699 145.355006 
L 642.105483 150.513017 
L 650.829266 155.209117 
L 659.553049 163.292568 
L 668.276833 168.046407 
L 677.000616 176.764986 
L 685.724399 182.327169 
L 694.448182 195.26069 
L 703.171966 194.125158 
L 711.895749 206.596768 
L 720.619532 210.725101 
L 729.343316 218.818175 
L 738.067099 225.207951 
L 746.790882 233.156677 
L 755.514665 236.544028 
L 764.238449 245.224114 
L 772.962232 250.33401 
L 781.686015 255.867324 
L 790.409799 262.940343 
L 799.133582 267.44398 
L 807.857365 271.168141 
L 816.581148 277.875481 
L 825.304932 281.233962 
L 834.028715 282.744798 
L 842.752498 287.306173 
L 851.476282 291.338275 
L 860.200065 295.052813 
L 868.923848 298.921322 
L 877.647631 300.999924 
L 886.371415 304.050464 
L 895.095198 304.714462 
L 903.818981 307.784248 
L 912.542765 310.488355 
L 921.266548 312.278262 
L 929.990331 314.318371 
L 938.714114 314.212516 
L 947.437898 317.927054 
" style="fill:none;stroke:#2b908f;stroke-linecap:square;"/>
   </g>
   <g id="line2d_16">
    <path clip-path="url(#p5febc4eb52)" d="M 83.783352 338.770809 
L 92.507136 338.770809 
L 101.230919 338.770809 
L 109.954702 338.770809 
L 118.678485 338.770809 
L 127.402269 338.770809 
L 136.126052 338.770809 
L 144.849835 338.770809 
L 153.573619 338.770809 
L 162.297402 338.770809 
L 171.021185 338.770809 
L 179.744968 338.770809 
L 188.468752 338.770809 
L 197.192535 338.770809 
L 205.916318 338.770809 
L 214.640102 338.770809 
L 223.363885 338.770809 
L 232.087668 338.770809 
L 240.811451 338.770809 
L 249.535235 335.963243 
L 258.259018 271.715677 
L 266.982801 258.797141 
L 275.706585 259.739215 
L 284.430368 253.900223 
L 293.154151 261.00775 
L 301.877934 254.851624 
L 310.601718 262.751985 
L 319.325501 255.970919 
L 328.049284 261.744619 
L 336.773068 252.818237 
L 345.496851 256.362673 
L 354.220634 247.902664 
L 362.944417 246.699421 
L 371.668201 240.450021 
L 380.391984 240.692535 
L 389.115767 228.240372 
L 397.839551 224.891813 
L 406.563334 218.987528 
L 415.287117 208.438168 
L 424.0109 207.14165 
L 432.734684 194.418991 
L 441.458467 190.08172 
L 450.18225 176.612864 
L 458.906034 173.226995 
L 467.629817 155.887241 
L 476.3536 154.534759 
L 485.077383 143.556335 
L 493.801167 141.821427 
L 502.52495 124.761497 
L 511.248733 117.112977 
L 519.972517 109.240598 
L 528.6963 109.175306 
L 537.420083 106.750165 
L 546.143867 106.796803 
L 554.86765 97.264136 
L 563.591433 98.140917 
L 572.315216 94.577826 
L 581.039 104.34368 
L 589.762783 103.373624 
L 598.486566 104.894 
L 607.21035 117.915139 
L 615.934133 125.237197 
L 624.657916 136.840561 
L 633.381699 144.227912 
L 642.105483 156.372269 
L 650.829266 163.927514 
L 659.553049 175.064505 
L 668.276833 182.423873 
L 677.000616 197.03068 
L 685.724399 206.731242 
L 694.448182 217.233965 
L 703.171966 222.513309 
L 711.895749 233.006705 
L 720.619532 241.494697 
L 729.343316 248.686171 
L 738.067099 259.692577 
L 746.790882 264.365636 
L 755.514665 271.70635 
L 764.238449 277.731891 
L 772.962232 282.740738 
L 781.686015 287.022044 
L 790.409799 291.536536 
L 799.133582 297.562077 
L 807.857365 298.746665 
L 816.581148 303.988699 
L 825.304932 307.673047 
L 834.028715 311.068244 
L 842.752498 313.484057 
L 851.476282 316.291623 
L 860.200065 318.343665 
L 868.923848 320.82477 
L 877.647631 322.942104 
L 886.371415 323.539062 
L 895.095198 323.940143 
L 903.818981 325.93622 
L 912.542765 327.633818 
L 921.266548 328.053554 
L 929.990331 329.881737 
L 938.714114 330.245508 
L 947.437898 331.01036 
" style="fill:none;stroke:#f45b5b;stroke-linecap:square;"/>
   </g>
   <g id="line2d_17">
    <path clip-path="url(#p5febc4eb52)" d="M 83.783352 338.770809 
L 92.507136 338.770809 
L 101.230919 338.770809 
L 109.954702 338.770809 
L 118.678485 338.770809 
L 127.402269 338.770809 
L 136.126052 338.770809 
L 144.849835 338.770809 
L 153.573619 338.770809 
L 162.297402 338.770809 
L 171.021185 338.770809 
L 179.744968 338.770809 
L 188.468752 338.770809 
L 197.192535 338.770809 
L 205.916318 338.770809 
L 214.640102 338.770809 
L 223.363885 338.770809 
L 232.087668 338.770809 
L 240.811451 338.770809 
L 249.535235 335.560483 
L 258.259018 275.310874 
L 266.982801 262.34825 
L 275.706585 266.407819 
L 284.430368 260.985727 
L 293.154151 266.426484 
L 301.877934 262.450905 
L 310.601718 270.336735 
L 319.325501 259.277909 
L 328.049284 267.266394 
L 336.773068 255.992924 
L 345.496851 260.864407 
L 354.220634 252.092004 
L 362.944417 251.942687 
L 371.668201 244.710121 
L 380.391984 241.331812 
L 389.115767 230.534291 
L 397.839551 227.081324 
L 406.563334 216.825079 
L 415.287117 210.255109 
L 424.0109 204.702365 
L 432.734684 190.70385 
L 441.458467 186.924251 
L 450.18225 171.385899 
L 458.906034 170.480662 
L 467.629817 155.063631 
L 476.3536 151.302696 
L 485.077383 135.997653 
L 493.801167 138.554715 
L 502.52495 117.211646 
L 511.248733 110.165727 
L 519.972517 102.625193 
L 528.6963 101.234674 
L 537.420083 90.297168 
L 546.143867 96.288532 
L 554.86765 88.001411 
L 563.591433 96.008562 
L 572.315216 91.846337 
L 581.039 98.742938 
L 589.762783 101.132018 
L 598.486566 105.387567 
L 607.21035 117.491616 
L 615.934133 126.991942 
L 624.657916 139.151985 
L 633.381699 141.989017 
L 642.105483 154.055737 
L 650.829266 161.866909 
L 659.553049 178.245171 
L 668.276833 188.548078 
L 677.000616 197.787098 
L 685.724399 206.447513 
L 694.448182 215.975835 
L 703.171966 225.354841 
L 711.895749 236.600314 
L 720.619532 243.571575 
L 729.343316 253.967805 
L 738.067099 260.043161 
L 746.790882 265.250608 
L 755.514665 270.476721 
L 764.238449 278.521201 
L 772.962232 283.840636 
L 781.686015 288.889434 
L 790.409799 295.543395 
L 799.133582 298.23111 
L 807.857365 302.542652 
L 816.581148 304.213142 
L 825.304932 308.552681 
L 834.028715 311.109743 
L 842.752498 314.926672 
L 851.476282 316.363853 
L 860.200065 318.118333 
L 868.923848 320.339431 
L 877.647631 322.32722 
L 886.371415 323.344446 
L 895.095198 324.958941 
L 903.818981 326.256137 
L 912.542765 327.394683 
L 921.266548 328.365246 
L 929.990331 329.419801 
L 938.714114 330.157056 
L 947.437898 331.015632 
" style="fill:none;stroke:#91e8e1;stroke-linecap:square;"/>
   </g>
   <g id="line2d_18">
    <path clip-path="url(#p5febc4eb52)" d="M 83.783352 338.770809 
L 92.507136 338.770809 
L 101.230919 338.770809 
L 109.954702 338.770809 
L 118.678485 338.770809 
L 127.402269 338.770809 
L 136.126052 338.770809 
L 144.849835 338.770809 
L 153.573619 338.770809 
L 162.297402 338.770809 
L 171.021185 338.770809 
L 179.744968 338.770809 
L 188.468752 338.770809 
L 197.192535 338.770809 
L 205.916318 338.770809 
L 214.640102 338.770809 
L 223.363885 338.770809 
L 232.087668 338.770809 
L 240.811451 338.770809 
L 249.535235 335.443592 
L 258.259018 271.645367 
L 266.982801 258.758257 
L 275.706585 264.053688 
L 284.430368 258.392732 
L 293.154151 266.771697 
L 301.877934 261.926143 
L 310.601718 270.923689 
L 319.325501 262.422883 
L 328.049284 271.008041 
L 336.773068 262.06673 
L 345.496851 267.352788 
L 354.220634 258.177166 
L 362.944417 258.411477 
L 371.668201 251.025991 
L 380.391984 248.448569 
L 389.115767 241.025594 
L 397.839551 235.345893 
L 406.563334 230.153559 
L 415.287117 220.246886 
L 424.0109 217.57574 
L 432.734684 204.735492 
L 441.458467 200.742831 
L 450.18225 184.66909 
L 458.906034 183.581886 
L 467.629817 163.393643 
L 476.3536 164.977586 
L 485.077383 148.988197 
L 493.801167 152.512235 
L 502.52495 127.843964 
L 511.248733 125.219679 
L 519.972517 114.169568 
L 528.6963 111.83583 
L 537.420083 98.94872 
L 546.143867 102.238447 
L 554.86765 92.603575 
L 563.591433 96.502512 
L 572.315216 92.912866 
L 581.039 96.914899 
L 589.762783 97.22419 
L 598.486566 100.110903 
L 607.21035 115.706649 
L 615.934133 112.632488 
L 624.657916 123.907537 
L 633.381699 133.879817 
L 642.105483 144.058291 
L 650.829266 151.41566 
L 659.553049 163.534229 
L 668.276833 174.462499 
L 677.000616 187.021573 
L 685.724399 191.745285 
L 694.448182 206.385042 
L 703.171966 213.151946 
L 711.895749 226.891949 
L 720.619532 234.343041 
L 729.343316 243.528036 
L 738.067099 255.149866 
L 746.790882 258.458339 
L 755.514665 263.931846 
L 764.238449 273.379269 
L 772.962232 279.958725 
L 781.686015 285.629053 
L 790.409799 288.272082 
L 799.133582 293.173871 
L 807.857365 297.972562 
L 816.581148 301.618442 
L 825.304932 305.311185 
L 834.028715 307.663668 
L 842.752498 311.253314 
L 851.476282 313.624543 
L 860.200065 316.91427 
L 868.923848 317.139209 
L 877.647631 318.994953 
L 886.371415 321.731706 
L 895.095198 323.043849 
L 903.818981 324.552812 
L 912.542765 325.030807 
L 921.266548 327.064627 
L 929.990331 327.889402 
L 938.714114 328.845391 
L 947.437898 329.735773 
" style="fill:none;stroke:#7cb5ec;stroke-linecap:square;"/>
   </g>
   <g id="line2d_19">
    <path clip-path="url(#p5febc4eb52)" d="M 83.783352 338.770809 
L 92.507136 338.770809 
L 101.230919 338.770809 
L 109.954702 338.770809 
L 118.678485 338.770809 
L 127.402269 338.770809 
L 136.126052 338.770809 
L 144.849835 338.770809 
L 153.573619 338.770809 
L 162.297402 338.770809 
L 171.021185 338.770809 
L 179.744968 338.770809 
L 188.468752 338.770809 
L 197.192535 338.770809 
L 205.916318 338.770809 
L 214.640102 338.770809 
L 223.363885 338.770809 
L 232.087668 338.770809 
L 240.811451 338.770809 
L 249.535235 335.676094 
L 258.259018 268.106581 
L 266.982801 256.821622 
L 275.706585 259.430158 
L 284.430368 253.670808 
L 293.154151 260.608207 
L 301.877934 259.130971 
L 310.601718 265.254955 
L 319.325501 257.345199 
L 328.049284 264.291947 
L 336.773068 254.297231 
L 345.496851 259.794792 
L 354.220634 250.314304 
L 362.944417 250.482597 
L 371.668201 240.796418 
L 380.391984 239.590321 
L 389.115767 228.10902 
L 397.839551 225.893166 
L 406.563334 219.862678 
L 415.287117 211.3078 
L 424.0109 207.268776 
L 432.734684 194.843166 
L 441.458467 192.646011 
L 450.18225 177.415523 
L 458.906034 172.291946 
L 467.629817 155.705767 
L 476.3536 159.380157 
L 485.077383 141.60658 
L 493.801167 140.896011 
L 502.52495 122.140726 
L 511.248733 116.390726 
L 519.972517 105.73219 
L 528.6963 109.387881 
L 537.420083 96.775279 
L 546.143867 102.843165 
L 554.86765 90.632596 
L 563.591433 93.699263 
L 572.315216 94.896011 
L 581.039 99.243572 
L 589.762783 104.011864 
L 598.486566 108.004141 
L 607.21035 117.007799 
L 615.934133 124.066743 
L 624.657916 135.379751 
L 633.381699 139.390726 
L 642.105483 154.892353 
L 650.829266 158.875279 
L 659.553049 174.713491 
L 668.276833 179.827719 
L 677.000616 194.581377 
L 685.724399 203.94967 
L 694.448182 214.795198 
L 703.171966 223.228532 
L 711.895749 234.448044 
L 720.619532 243.115117 
L 729.343316 249.398044 
L 738.067099 258.906581 
L 746.790882 267.274467 
L 755.514665 272.772028 
L 764.238449 281.411053 
L 772.962232 284.066337 
L 781.686015 291.81715 
L 790.409799 294.369589 
L 799.133582 298.352516 
L 807.857365 301.035849 
L 816.581148 306.589508 
L 825.304932 308.814711 
L 834.028715 311.554142 
L 842.752498 315.088289 
L 851.476282 317.332191 
L 860.200065 319.622841 
L 868.923848 321.081378 
L 877.647631 322.820402 
L 886.371415 323.736663 
L 895.095198 326.158207 
L 903.818981 326.270402 
L 912.542765 328.018776 
L 921.266548 328.589102 
L 929.990331 329.608207 
L 938.714114 329.813898 
L 947.437898 330.93585 
" style="fill:none;stroke:#434348;stroke-linecap:square;"/>
   </g>
   <g id="line2d_20">
    <path clip-path="url(#p5febc4eb52)" d="M 83.783352 338.770809 
L 92.507136 338.770809 
L 101.230919 338.770809 
L 109.954702 338.770809 
L 118.678485 338.770809 
L 127.402269 338.770809 
L 136.126052 338.770809 
L 144.849835 338.770809 
L 153.573619 338.770809 
L 162.297402 338.770809 
L 171.021185 338.770809 
L 179.744968 338.770809 
L 188.468752 338.770809 
L 197.192535 338.770809 
L 205.916318 338.770809 
L 214.640102 338.770809 
L 223.363885 338.770809 
L 232.087668 338.770809 
L 240.811451 338.770809 
L 249.535235 334.793503 
L 258.259018 249.300089 
L 266.982801 233.269491 
L 275.706585 239.207441 
L 284.430368 236.976042 
L 293.154151 243.474176 
L 301.877934 240.234445 
L 310.601718 246.536515 
L 319.325501 245.546857 
L 328.049284 254.575155 
L 336.773068 248.646541 
L 345.496851 250.289748 
L 354.220634 241.961679 
L 362.944417 243.119393 
L 371.668201 238.497875 
L 380.391984 237.125424 
L 389.115767 233.017408 
L 397.839551 224.782703 
L 406.563334 218.163196 
L 415.287117 211.973163 
L 424.0109 206.548714 
L 432.734684 193.468418 
L 441.458467 191.769194 
L 450.18225 174.571545 
L 458.906034 171.285132 
L 467.629817 160.016098 
L 476.3536 158.979757 
L 485.077383 147.178548 
L 493.801167 142.295611 
L 502.52495 126.974579 
L 511.248733 120.728527 
L 519.972517 114.146365 
L 528.6963 111.821602 
L 537.420083 98.041075 
L 546.143867 101.047396 
L 554.86765 96.677961 
L 563.591433 99.553572 
L 572.315216 99.329499 
L 581.039 101.943691 
L 589.762783 110.11304 
L 598.486566 105.93967 
L 607.21035 122.885235 
L 615.934133 124.677824 
L 624.657916 135.283974 
L 633.381699 146.739737 
L 642.105483 158.942412 
L 650.829266 166.971716 
L 659.553049 180.257412 
L 668.276833 187.362413 
L 677.000616 201.796487 
L 685.724399 211.039523 
L 694.448182 225.781698 
L 703.171966 231.504911 
L 711.895749 239.282132 
L 720.619532 248.217067 
L 729.343316 256.815891 
L 738.067099 263.799518 
L 746.790882 272.192942 
L 755.514665 275.507364 
L 764.238449 283.489986 
L 772.962232 288.979789 
L 781.686015 293.470597 
L 790.409799 296.39289 
L 799.133582 302.032076 
L 807.857365 305.897345 
L 816.581148 308.455519 
L 825.304932 311.489849 
L 834.028715 313.926649 
L 842.752498 316.93297 
L 851.476282 318.380112 
L 860.200065 320.891603 
L 868.923848 323.328404 
L 877.647631 324.159343 
L 886.371415 324.794219 
L 895.095198 325.186347 
L 903.818981 327.959258 
L 912.542765 328.547451 
L 921.266548 328.986262 
L 929.990331 330.554777 
L 938.714114 331.068279 
L 947.437898 332.403384 
" style="fill:none;stroke:#90ed7d;stroke-linecap:square;"/>
   </g>
   <g id="line2d_21">
    <path clip-path="url(#p5febc4eb52)" d="M 83.783352 338.770809 
L 92.507136 338.770809 
L 101.230919 338.770809 
L 109.954702 338.770809 
L 118.678485 338.770809 
L 127.402269 338.770809 
L 136.126052 338.770809 
L 144.849835 338.770809 
L 153.573619 338.770809 
L 162.297402 338.770809 
L 171.021185 338.770809 
L 179.744968 338.770809 
L 188.468752 338.770809 
L 197.192535 338.770809 
L 205.916318 338.770809 
L 214.640102 338.770809 
L 223.363885 338.770809 
L 232.087668 338.770809 
L 240.811451 338.770809 
L 249.535235 335.338674 
L 258.259018 274.325003 
L 266.982801 261.109416 
L 275.706585 264.830671 
L 284.430368 258.320806 
L 293.154151 263.935332 
L 301.877934 256.23168 
L 310.601718 263.70217 
L 319.325501 255.401625 
L 328.049284 260.960193 
L 336.773068 252.696953 
L 345.496851 254.674162 
L 354.220634 244.993301 
L 362.944417 244.396408 
L 371.668201 237.093793 
L 380.391984 231.358023 
L 389.115767 226.237799 
L 397.839551 221.024311 
L 406.563334 210.000441 
L 415.287117 200.981759 
L 424.0109 195.497803 
L 432.734684 185.621087 
L 441.458467 179.073915 
L 450.18225 160.495616 
L 458.906034 158.229287 
L 467.629817 141.441668 
L 476.3536 143.773282 
L 485.077383 131.462361 
L 493.801167 121.846785 
L 502.52495 113.518261 
L 511.248733 102.68092 
L 519.972517 94.557577 
L 528.6963 100.209409 
L 537.420083 86.760661 
L 546.143867 92.160678 
L 554.86765 89.185539 
L 563.591433 94.100581 
L 572.315216 94.7068 
L 581.039 98.903705 
L 589.762783 106.439481 
L 598.486566 112.716186 
L 607.21035 122.35974 
L 615.934133 132.777391 
L 624.657916 142.579495 
L 633.381699 148.604386 
L 642.105483 162.622048 
L 650.829266 170.260415 
L 659.553049 183.699837 
L 668.276833 196.411795 
L 677.000616 207.444992 
L 685.724399 215.838802 
L 694.448182 227.114486 
L 703.171966 235.592234 
L 711.895749 244.191226 
L 720.619532 252.631668 
L 729.343316 258.777802 
L 738.067099 268.328092 
L 746.790882 272.235877 
L 755.514665 277.421386 
L 764.238449 286.505354 
L 772.962232 290.077386 
L 781.686015 295.430771 
L 790.409799 298.844254 
L 799.133582 302.360328 
L 807.857365 304.90645 
L 816.581148 309.532372 
L 825.304932 311.584192 
L 834.028715 314.111661 
L 842.752498 316.545866 
L 851.476282 319.045356 
L 860.200065 321.591478 
L 868.923848 322.943814 
L 877.647631 324.174907 
L 886.371415 325.172837 
L 895.095198 326.870252 
L 903.818981 327.457819 
L 912.542765 328.698237 
L 921.266548 329.929329 
L 929.990331 330.694099 
L 938.714114 331.794621 
L 947.437898 332.149026 
" style="fill:none;stroke:#f7a35c;stroke-linecap:square;"/>
   </g>
   <g id="line2d_22">
    <path clip-path="url(#p5febc4eb52)" d="M 83.783352 338.770809 
L 92.507136 338.770809 
L 101.230919 338.770809 
L 109.954702 338.770809 
L 118.678485 338.770809 
L 127.402269 338.770809 
L 136.126052 338.770809 
L 144.849835 338.770809 
L 153.573619 338.770809 
L 162.297402 338.770809 
L 171.021185 338.770809 
L 179.744968 338.770809 
L 188.468752 338.770809 
L 197.192535 338.770809 
L 205.916318 338.770809 
L 214.640102 338.770809 
L 223.363885 338.770809 
L 232.087668 338.770809 
L 240.811451 338.770809 
L 249.535235 335.899998 
L 258.259018 278.267992 
L 266.982801 264.580039 
L 275.706585 267.01929 
L 284.430368 263.369795 
L 293.154151 267.535286 
L 301.877934 263.923317 
L 310.601718 272.113573 
L 319.325501 266.052971 
L 328.049284 270.893947 
L 336.773068 263.594956 
L 345.496851 265.705847 
L 354.220634 260.517747 
L 362.944417 257.496828 
L 371.668201 252.196147 
L 380.391984 248.771813 
L 389.115767 242.101399 
L 397.839551 237.898381 
L 406.563334 235.224586 
L 415.287117 223.760104 
L 424.0109 224.125992 
L 432.734684 212.380058 
L 441.458467 203.870823 
L 450.18225 193.701021 
L 458.906034 193.738548 
L 467.629817 180.181939 
L 476.3536 178.333737 
L 485.077383 163.285432 
L 493.801167 161.746828 
L 502.52495 145.938602 
L 511.248733 134.736809 
L 519.972517 124.004103 
L 528.6963 126.893677 
L 537.420083 116.020245 
L 546.143867 114.26586 
L 554.86765 106.741708 
L 563.591433 106.216331 
L 572.315216 101.431645 
L 581.039 100.803069 
L 589.762783 101.18772 
L 598.486566 106.600982 
L 607.21035 109.837681 
L 615.934133 115.579304 
L 624.657916 124.942276 
L 633.381699 126.190047 
L 642.105483 134.070706 
L 650.829266 143.133463 
L 659.553049 156.164695 
L 668.276833 162.985217 
L 677.000616 170.593805 
L 685.724399 184.50692 
L 694.448182 193.457096 
L 703.171966 200.118129 
L 711.895749 213.449576 
L 720.619532 223.769486 
L 729.343316 231.424983 
L 738.067099 240.131234 
L 746.790882 248.490361 
L 755.514665 255.320265 
L 764.238449 261.484066 
L 772.962232 270.406097 
L 781.686015 275.55667 
L 790.409799 282.339666 
L 799.133582 286.983625 
L 807.857365 291.027153 
L 816.581148 292.800301 
L 825.304932 300.174346 
L 834.028715 304.658816 
L 842.752498 306.779088 
L 851.476282 309.565464 
L 860.200065 313.346304 
L 868.923848 315.616684 
L 877.647631 317.521176 
L 886.371415 319.782175 
L 895.095198 320.40137 
L 903.818981 322.51226 
L 912.542765 323.769413 
L 921.266548 324.932748 
L 929.990331 326.321245 
L 938.714114 327.953667 
L 947.437898 329.079476 
" style="fill:none;stroke:#8085e9;stroke-linecap:square;"/>
   </g>
   <g id="line2d_23">
    <path clip-path="url(#p5febc4eb52)" d="M 83.783352 338.770809 
L 92.507136 338.770809 
L 101.230919 338.770809 
L 109.954702 338.770809 
L 118.678485 338.770809 
L 127.402269 338.770809 
L 136.126052 338.770809 
L 144.849835 338.770809 
L 153.573619 338.770809 
L 162.297402 338.770809 
L 171.021185 338.770809 
L 179.744968 338.770809 
L 188.468752 338.770809 
L 197.192535 338.770809 
L 205.916318 338.770809 
L 214.640102 338.770809 
L 223.363885 338.770809 
L 232.087668 338.770809 
L 240.811451 338.770809 
L 249.535235 335.463843 
L 258.259018 272.386533 
L 266.982801 260.279835 
L 275.706585 264.802182 
L 284.430368 259.28115 
L 293.154151 269.720233 
L 301.877934 263.012086 
L 310.601718 270.596438 
L 319.325501 264.415898 
L 328.049284 273.724394 
L 336.773068 266.262523 
L 345.496851 270.483379 
L 354.220634 261.730755 
L 362.944417 263.76581 
L 371.668201 256.351047 
L 380.391984 252.158455 
L 389.115767 250.61332 
L 397.839551 242.586155 
L 406.563334 241.031598 
L 415.287117 233.400139 
L 424.0109 229.65036 
L 432.734684 219.851943 
L 441.458467 217.628456 
L 450.18225 207.622765 
L 458.906034 205.681924 
L 467.629817 190.833554 
L 476.3536 192.548277 
L 485.077383 173.968971 
L 493.801167 176.230144 
L 502.52495 156.915956 
L 511.248733 147.42845 
L 519.972517 140.767411 
L 528.6963 139.438972 
L 537.420083 130.431965 
L 546.143867 128.76435 
L 554.86765 115.593016 
L 563.591433 116.798975 
L 572.315216 110.759759 
L 581.039 110.420583 
L 589.762783 110.806867 
L 598.486566 109.478427 
L 607.21035 114.311685 
L 615.934133 117.138151 
L 624.657916 123.874563 
L 633.381699 126.22053 
L 642.105483 133.748353 
L 650.829266 134.633979 
L 659.553049 148.493086 
L 668.276833 151.677572 
L 677.000616 168.805959 
L 685.724399 171.029445 
L 694.448182 184.681279 
L 703.171966 188.9304 
L 711.895749 204.061417 
L 720.619532 212.691561 
L 729.343316 219.729463 
L 738.067099 228.877793 
L 746.790882 235.180813 
L 755.514665 240.032914 
L 764.238449 250.886545 
L 772.962232 257.547584 
L 781.686015 265.94219 
L 790.409799 271.585701 
L 799.133582 277.285742 
L 807.857365 282.232058 
L 816.581148 285.510759 
L 825.304932 292.85015 
L 834.028715 296.11943 
L 842.752498 301.32955 
L 851.476282 305.079329 
L 860.200065 307.048434 
L 868.923848 310.232919 
L 877.647631 312.023015 
L 886.371415 314.199394 
L 895.095198 316.865694 
L 903.818981 319.173975 
L 912.542765 320.5401 
L 921.266548 321.86854 
L 929.990331 323.620949 
L 938.714114 324.468889 
L 947.437898 326.089396 
" style="fill:none;stroke:#f15c80;stroke-linecap:square;"/>
   </g>
   <g id="line2d_24">
    <path clip-path="url(#p5febc4eb52)" d="M 83.783352 338.770809 
L 92.507136 338.770809 
L 101.230919 338.770809 
L 109.954702 338.770809 
L 118.678485 338.770809 
L 127.402269 338.770809 
L 136.126052 338.770809 
L 144.849835 338.770809 
L 153.573619 338.770809 
L 162.297402 338.770809 
L 171.021185 338.770809 
L 179.744968 338.770809 
L 188.468752 338.770809 
L 197.192535 338.770809 
L 205.916318 338.770809 
L 214.640102 338.770809 
L 223.363885 338.770809 
L 232.087668 338.770809 
L 240.811451 338.770809 
L 249.535235 335.30199 
L 258.259018 262.484763 
L 266.982801 246.324915 
L 275.706585 251.621392 
L 284.430368 245.821377 
L 293.154151 252.591169 
L 301.877934 247.38794 
L 310.601718 256.078638 
L 319.325501 249.793734 
L 328.049284 259.622055 
L 336.773068 251.770588 
L 345.496851 254.866416 
L 354.220634 245.019446 
L 362.944417 247.220094 
L 371.668201 236.449971 
L 380.391984 234.743535 
L 389.115767 229.465709 
L 397.839551 224.821967 
L 406.563334 216.886577 
L 415.287117 208.484948 
L 424.0109 203.710659 
L 432.734684 193.686518 
L 441.458467 188.25017 
L 450.18225 171.680031 
L 458.906034 172.994826 
L 467.629817 152.927894 
L 476.3536 155.156517 
L 485.077383 137.402131 
L 493.801167 136.050037 
L 502.52495 117.409797 
L 511.248733 109.138715 
L 519.972517 106.947391 
L 528.6963 108.569903 
L 537.420083 101.585641 
L 546.143867 100.653163 
L 554.86765 91.412303 
L 563.591433 96.736754 
L 572.315216 92.531277 
L 581.039 101.016829 
L 589.762783 102.881786 
L 598.486566 108.346108 
L 607.21035 121.792445 
L 615.934133 130.194074 
L 624.657916 134.912414 
L 633.381699 144.833982 
L 642.105483 157.879353 
L 650.829266 167.521178 
L 659.553049 182.058514 
L 668.276833 187.895828 
L 677.000616 202.358566 
L 685.724399 211.077237 
L 694.448182 221.120028 
L 703.171966 230.603332 
L 711.895749 240.599499 
L 720.619532 249.364794 
L 729.343316 259.099867 
L 738.067099 264.414993 
L 746.790882 273.068392 
L 755.514665 277.21792 
L 764.238449 283.288353 
L 772.962232 288.845924 
L 781.686015 292.314743 
L 790.409799 297.80704 
L 799.133582 301.714123 
L 807.857365 303.952071 
L 816.581148 306.553686 
L 825.304932 311.244051 
L 834.028715 313.509973 
L 842.752498 315.533451 
L 851.476282 319.244715 
L 860.200065 320.363688 
L 868.923848 323.039901 
L 877.647631 323.468841 
L 886.371415 325.585567 
L 895.095198 325.482994 
L 903.818981 327.292002 
L 912.542765 327.515797 
L 921.266548 329.054386 
L 929.990331 330.527701 
L 938.714114 330.38783 
L 947.437898 331.721274 
" style="fill:none;stroke:#e4d354;stroke-linecap:square;"/>
   </g>
   <g id="line2d_25">
    <path clip-path="url(#p5febc4eb52)" d="M 83.783352 338.770809 
L 92.507136 338.770809 
L 101.230919 338.770809 
L 109.954702 338.770809 
L 118.678485 338.770809 
L 127.402269 338.770809 
L 136.126052 338.770809 
L 144.849835 338.770809 
L 153.573619 338.770809 
L 162.297402 338.770809 
L 171.021185 338.770809 
L 179.744968 338.770809 
L 188.468752 338.770809 
L 197.192535 338.770809 
L 205.916318 338.770809 
L 214.640102 338.770809 
L 223.363885 338.770809 
L 232.087668 338.770809 
L 240.811451 338.770809 
L 249.535235 334.667225 
L 258.259018 265.305511 
L 266.982801 251.685697 
L 275.706585 254.656617 
L 284.430368 246.755825 
L 293.154151 257.738947 
L 301.877934 247.804931 
L 310.601718 256.290624 
L 319.325501 249.661757 
L 328.049284 253.356839 
L 336.773068 242.819355 
L 345.496851 246.81153 
L 354.220634 234.84429 
L 362.944417 233.795184 
L 371.668201 225.235218 
L 380.391984 220.825258 
L 389.115767 211.076924 
L 397.839551 204.782286 
L 406.563334 192.815046 
L 415.287117 183.057429 
L 424.0109 179.501608 
L 432.734684 162.158859 
L 441.458467 155.520708 
L 450.18225 139.347758 
L 458.906034 139.022814 
L 467.629817 119.953217 
L 476.3536 119.637556 
L 485.077383 100.103753 
L 493.801167 106.927586 
L 502.52495 90.327567 
L 511.248733 83.85653 
L 519.972517 76.317819 
L 528.6963 83.977224 
L 537.420083 78.657419 
L 546.143867 84.534271 
L 554.86765 84.005076 
L 563.591433 92.267949 
L 572.315216 95.016051 
L 581.039 101.459235 
L 589.762783 110.24202 
L 598.486566 120.426707 
L 607.21035 132.765312 
L 615.934133 145.475282 
L 624.657916 159.002255 
L 633.381699 170.245333 
L 642.105483 184.171524 
L 650.829266 191.589542 
L 659.553049 209.368645 
L 668.276833 217.046618 
L 677.000616 230.991377 
L 685.724399 238.576509 
L 694.448182 249.568916 
L 703.171966 255.055835 
L 711.895749 265.156965 
L 720.619532 269.882586 
L 729.343316 277.309887 
L 738.067099 284.152289 
L 746.790882 288.785069 
L 755.514665 293.566394 
L 764.238449 299.2947 
L 772.962232 302.655555 
L 781.686015 307.260482 
L 790.409799 307.91037 
L 799.133582 312.468877 
L 807.857365 313.787223 
L 816.581148 316.572461 
L 825.304932 319.608371 
L 834.028715 322.440029 
L 842.752498 324.092604 
L 851.476282 325.475939 
L 860.200065 326.497193 
L 868.923848 327.75055 
L 877.647631 328.298314 
L 886.371415 329.068896 
L 895.095198 330.387242 
L 903.818981 331.176393 
L 912.542765 331.872703 
L 921.266548 332.485455 
L 929.990331 333.358163 
L 938.714114 333.813085 
L 947.437898 334.073041 
" style="fill:none;stroke:#2b908f;stroke-linecap:square;"/>
   </g>
   <g id="line2d_26">
    <path clip-path="url(#p5febc4eb52)" d="M 40.600625 338.770809 
L 990.620625 338.770809 
" style="fill:none;stroke:#dedede;stroke-linecap:square;stroke-width:2;"/>
   </g>
   <g id="text_15">
    <!-- RSeQC: Inner Distance -->
    <defs>
     <path d="M 44.390625 34.1875 
Q 47.5625 33.109375 50.5625 29.59375 
Q 53.5625 26.078125 56.59375 19.921875 
L 66.609375 0 
L 56 0 
L 46.6875 18.703125 
Q 43.0625 26.03125 39.671875 28.421875 
Q 36.28125 30.8125 30.421875 30.8125 
L 19.671875 30.8125 
L 19.671875 0 
L 9.8125 0 
L 9.8125 72.90625 
L 32.078125 72.90625 
Q 44.578125 72.90625 50.734375 67.671875 
Q 56.890625 62.453125 56.890625 51.90625 
Q 56.890625 45.015625 53.6875 40.46875 
Q 50.484375 35.9375 44.390625 34.1875 
z
M 19.671875 64.796875 
L 19.671875 38.921875 
L 32.078125 38.921875 
Q 39.203125 38.921875 42.84375 42.21875 
Q 46.484375 45.515625 46.484375 51.90625 
Q 46.484375 58.296875 42.84375 61.546875 
Q 39.203125 64.796875 32.078125 64.796875 
z
" id="DejaVuSans-82"/>
     <path d="M 53.515625 70.515625 
L 53.515625 60.890625 
Q 47.90625 63.578125 42.921875 64.890625 
Q 37.9375 66.21875 33.296875 66.21875 
Q 25.25 66.21875 20.875 63.09375 
Q 16.5 59.96875 16.5 54.203125 
Q 16.5 49.359375 19.40625 46.890625 
Q 22.3125 44.4375 30.421875 42.921875 
L 36.375 41.703125 
Q 47.40625 39.59375 52.65625 34.296875 
Q 57.90625 29 57.90625 20.125 
Q 57.90625 9.515625 50.796875 4.046875 
Q 43.703125 -1.421875 29.984375 -1.421875 
Q 24.8125 -1.421875 18.96875 -0.25 
Q 13.140625 0.921875 6.890625 3.21875 
L 6.890625 13.375 
Q 12.890625 10.015625 18.65625 8.296875 
Q 24.421875 6.59375 29.984375 6.59375 
Q 38.421875 6.59375 43.015625 9.90625 
Q 47.609375 13.234375 47.609375 19.390625 
Q 47.609375 24.75 44.3125 27.78125 
Q 41.015625 30.8125 33.5 32.328125 
L 27.484375 33.5 
Q 16.453125 35.6875 11.515625 40.375 
Q 6.59375 45.0625 6.59375 53.421875 
Q 6.59375 63.09375 13.40625 68.65625 
Q 20.21875 74.21875 32.171875 74.21875 
Q 37.3125 74.21875 42.625 73.28125 
Q 47.953125 72.359375 53.515625 70.515625 
z
" id="DejaVuSans-83"/>
     <path d="M 39.40625 66.21875 
Q 28.65625 66.21875 22.328125 58.203125 
Q 16.015625 50.203125 16.015625 36.375 
Q 16.015625 22.609375 22.328125 14.59375 
Q 28.65625 6.59375 39.40625 6.59375 
Q 50.140625 6.59375 56.421875 14.59375 
Q 62.703125 22.609375 62.703125 36.375 
Q 62.703125 50.203125 56.421875 58.203125 
Q 50.140625 66.21875 39.40625 66.21875 
z
M 53.21875 1.3125 
L 66.21875 -12.890625 
L 54.296875 -12.890625 
L 43.5 -1.21875 
Q 41.890625 -1.3125 41.03125 -1.359375 
Q 40.1875 -1.421875 39.40625 -1.421875 
Q 24.03125 -1.421875 14.8125 8.859375 
Q 5.609375 19.140625 5.609375 36.375 
Q 5.609375 53.65625 14.8125 63.9375 
Q 24.03125 74.21875 39.40625 74.21875 
Q 54.734375 74.21875 63.90625 63.9375 
Q 73.09375 53.65625 73.09375 36.375 
Q 73.09375 23.6875 67.984375 14.640625 
Q 62.890625 5.609375 53.21875 1.3125 
z
" id="DejaVuSans-81"/>
     <path d="M 64.40625 67.28125 
L 64.40625 56.890625 
Q 59.421875 61.53125 53.78125 63.8125 
Q 48.140625 66.109375 41.796875 66.109375 
Q 29.296875 66.109375 22.65625 58.46875 
Q 16.015625 50.828125 16.015625 36.375 
Q 16.015625 21.96875 22.65625 14.328125 
Q 29.296875 6.6875 41.796875 6.6875 
Q 48.140625 6.6875 53.78125 8.984375 
Q 59.421875 11.28125 64.40625 15.921875 
L 64.40625 5.609375 
Q 59.234375 2.09375 53.4375 0.328125 
Q 47.65625 -1.421875 41.21875 -1.421875 
Q 24.65625 -1.421875 15.125 8.703125 
Q 5.609375 18.84375 5.609375 36.375 
Q 5.609375 53.953125 15.125 64.078125 
Q 24.65625 74.21875 41.21875 74.21875 
Q 47.75 74.21875 53.53125 72.484375 
Q 59.328125 70.75 64.40625 67.28125 
z
" id="DejaVuSans-67"/>
     <path d="M 11.71875 12.40625 
L 22.015625 12.40625 
L 22.015625 0 
L 11.71875 0 
z
M 11.71875 51.703125 
L 22.015625 51.703125 
L 22.015625 39.3125 
L 11.71875 39.3125 
z
" id="DejaVuSans-58"/>
    </defs>
    <g transform="translate(424.695625 19.3575)scale(0.16 -0.16)">
     <use xlink:href="#DejaVuSans-82"/>
     <use x="69.482422" xlink:href="#DejaVuSans-83"/>
     <use x="132.958984" xlink:href="#DejaVuSans-101"/>
     <use x="194.482422" xlink:href="#DejaVuSans-81"/>
     <use x="273.193359" xlink:href="#DejaVuSans-67"/>
     <use x="343.017578" xlink:href="#DejaVuSans-58"/>
     <use x="376.708984" xlink:href="#DejaVuSans-32"/>
     <use x="408.496094" xlink:href="#DejaVuSans-73"/>
     <use x="437.988281" xlink:href="#DejaVuSans-110"/>
     <use x="501.367188" xlink:href="#DejaVuSans-110"/>
     <use x="564.746094" xlink:href="#DejaVuSans-101"/>
     <use x="626.269531" xlink:href="#DejaVuSans-114"/>
     <use x="667.382812" xlink:href="#DejaVuSans-32"/>
     <use x="699.169922" xlink:href="#DejaVuSans-68"/>
     <use x="776.171875" xlink:href="#DejaVuSans-105"/>
     <use x="803.955078" xlink:href="#DejaVuSans-115"/>
     <use x="856.054688" xlink:href="#DejaVuSans-116"/>
     <use x="895.263672" xlink:href="#DejaVuSans-97"/>
     <use x="956.542969" xlink:href="#DejaVuSans-110"/>
     <use x="1019.921875" xlink:href="#DejaVuSans-99"/>
     <use x="1074.902344" xlink:href="#DejaVuSans-101"/>
    </g>
   </g>
  </g>
 </g>
 <defs>
  <clipPath id="p5febc4eb52">
   <rect height="317.968" width="950.02" x="40.600625" y="35.2559"/>
  </clipPath>
 </defs>
</svg>
