<?xml version="1.0" encoding="utf-8" standalone="no"?>
<!DOCTYPE svg PUBLIC "-//W3C//DTD SVG 1.1//EN"
  "http://www.w3.org/Graphics/SVG/1.1/DTD/svg11.dtd">
<!-- Created with matplotlib (https://matplotlib.org/) -->
<svg height="388.844525pt" version="1.1" viewBox="0 0 1001.280625 388.844525" width="1001.280625pt" xmlns="http://www.w3.org/2000/svg" xmlns:xlink="http://www.w3.org/1999/xlink">
 <defs>
  <style type="text/css">
*{stroke-linecap:butt;stroke-linejoin:round;}
  </style>
 </defs>
 <g id="figure_1">
  <g id="patch_1">
   <path d="M 0 388.844525 
L 1001.280625 388.844525 
L 1001.280625 0 
L 0 0 
z
" style="fill:#ffffff;"/>
  </g>
  <g id="axes_1">
   <g id="patch_2">
    <path d="M 45.690625 353.2239 
L 990.580625 353.2239 
L 990.580625 35.2559 
L 45.690625 35.2559 
z
" style="fill:#ffffff;"/>
   </g>
   <g id="matplotlib.axis_1">
    <g id="xtick_1">
     <g id="text_1">
      <!-- 0 -->
      <defs>
       <path d="M 31.78125 66.40625 
Q 24.171875 66.40625 20.328125 58.90625 
Q 16.5 51.421875 16.5 36.375 
Q 16.5 21.390625 20.328125 13.890625 
Q 24.171875 6.390625 31.78125 6.390625 
Q 39.453125 6.390625 43.28125 13.890625 
Q 47.125 21.390625 47.125 36.375 
Q 47.125 51.421875 43.28125 58.90625 
Q 39.453125 66.40625 31.78125 66.40625 
z
M 31.78125 74.21875 
Q 44.046875 74.21875 50.515625 64.515625 
Q 56.984375 54.828125 56.984375 36.375 
Q 56.984375 17.96875 50.515625 8.265625 
Q 44.046875 -1.421875 31.78125 -1.421875 
Q 19.53125 -1.421875 13.0625 8.265625 
Q 6.59375 17.96875 6.59375 36.375 
Q 6.59375 54.828125 13.0625 64.515625 
Q 19.53125 74.21875 31.78125 74.21875 
z
" id="DejaVuSans-48"/>
      </defs>
      <g transform="translate(79.167824 366.30265)scale(0.08 -0.08)">
       <use xlink:href="#DejaVuSans-48"/>
      </g>
     </g>
    </g>
    <g id="xtick_2">
     <g id="text_2">
      <!-- 100 -->
      <defs>
       <path d="M 12.40625 8.296875 
L 28.515625 8.296875 
L 28.515625 63.921875 
L 10.984375 60.40625 
L 10.984375 69.390625 
L 28.421875 72.90625 
L 38.28125 72.90625 
L 38.28125 8.296875 
L 54.390625 8.296875 
L 54.390625 0 
L 12.40625 0 
z
" id="DejaVuSans-49"/>
      </defs>
      <g transform="translate(247.261475 366.30265)scale(0.08 -0.08)">
       <use xlink:href="#DejaVuSans-49"/>
       <use x="63.623047" xlink:href="#DejaVuSans-48"/>
       <use x="127.246094" xlink:href="#DejaVuSans-48"/>
      </g>
     </g>
    </g>
    <g id="xtick_3">
     <g id="text_3">
      <!-- 200 -->
      <defs>
       <path d="M 19.1875 8.296875 
L 53.609375 8.296875 
L 53.609375 0 
L 7.328125 0 
L 7.328125 8.296875 
Q 12.9375 14.109375 22.625 23.890625 
Q 32.328125 33.6875 34.8125 36.53125 
Q 39.546875 41.84375 41.421875 45.53125 
Q 43.3125 49.21875 43.3125 52.78125 
Q 43.3125 58.59375 39.234375 62.25 
Q 35.15625 65.921875 28.609375 65.921875 
Q 23.96875 65.921875 18.8125 64.3125 
Q 13.671875 62.703125 7.8125 59.421875 
L 7.8125 69.390625 
Q 13.765625 71.78125 18.9375 73 
Q 24.125 74.21875 28.421875 74.21875 
Q 39.75 74.21875 46.484375 68.546875 
Q 53.21875 62.890625 53.21875 53.421875 
Q 53.21875 48.921875 51.53125 44.890625 
Q 49.859375 40.875 45.40625 35.40625 
Q 44.1875 33.984375 37.640625 27.21875 
Q 31.109375 20.453125 19.1875 8.296875 
z
" id="DejaVuSans-50"/>
      </defs>
      <g transform="translate(420.445126 366.30265)scale(0.08 -0.08)">
       <use xlink:href="#DejaVuSans-50"/>
       <use x="63.623047" xlink:href="#DejaVuSans-48"/>
       <use x="127.246094" xlink:href="#DejaVuSans-48"/>
      </g>
     </g>
    </g>
    <g id="xtick_4">
     <g id="text_4">
      <!-- 300 -->
      <defs>
       <path d="M 40.578125 39.3125 
Q 47.65625 37.796875 51.625 33 
Q 55.609375 28.21875 55.609375 21.1875 
Q 55.609375 10.40625 48.1875 4.484375 
Q 40.765625 -1.421875 27.09375 -1.421875 
Q 22.515625 -1.421875 17.65625 -0.515625 
Q 12.796875 0.390625 7.625 2.203125 
L 7.625 11.71875 
Q 11.71875 9.328125 16.59375 8.109375 
Q 21.484375 6.890625 26.8125 6.890625 
Q 36.078125 6.890625 40.9375 10.546875 
Q 45.796875 14.203125 45.796875 21.1875 
Q 45.796875 27.640625 41.28125 31.265625 
Q 36.765625 34.90625 28.71875 34.90625 
L 20.21875 34.90625 
L 20.21875 43.015625 
L 29.109375 43.015625 
Q 36.375 43.015625 40.234375 45.921875 
Q 44.09375 48.828125 44.09375 54.296875 
Q 44.09375 59.90625 40.109375 62.90625 
Q 36.140625 65.921875 28.71875 65.921875 
Q 24.65625 65.921875 20.015625 65.03125 
Q 15.375 64.15625 9.8125 62.3125 
L 9.8125 71.09375 
Q 15.4375 72.65625 20.34375 73.4375 
Q 25.25 74.21875 29.59375 74.21875 
Q 40.828125 74.21875 47.359375 69.109375 
Q 53.90625 64.015625 53.90625 55.328125 
Q 53.90625 49.265625 50.4375 45.09375 
Q 46.96875 40.921875 40.578125 39.3125 
z
" id="DejaVuSans-51"/>
      </defs>
      <g transform="translate(593.628777 366.30265)scale(0.08 -0.08)">
       <use xlink:href="#DejaVuSans-51"/>
       <use x="63.623047" xlink:href="#DejaVuSans-48"/>
       <use x="127.246094" xlink:href="#DejaVuSans-48"/>
      </g>
     </g>
    </g>
    <g id="xtick_5">
     <g id="text_5">
      <!-- 400 -->
      <defs>
       <path d="M 37.796875 64.3125 
L 12.890625 25.390625 
L 37.796875 25.390625 
z
M 35.203125 72.90625 
L 47.609375 72.90625 
L 47.609375 25.390625 
L 58.015625 25.390625 
L 58.015625 17.1875 
L 47.609375 17.1875 
L 47.609375 0 
L 37.796875 0 
L 37.796875 17.1875 
L 4.890625 17.1875 
L 4.890625 26.703125 
z
" id="DejaVuSans-52"/>
      </defs>
      <g transform="translate(766.812429 366.30265)scale(0.08 -0.08)">
       <use xlink:href="#DejaVuSans-52"/>
       <use x="63.623047" xlink:href="#DejaVuSans-48"/>
       <use x="127.246094" xlink:href="#DejaVuSans-48"/>
      </g>
     </g>
    </g>
    <g id="xtick_6">
     <g id="text_6">
      <!-- 500 -->
      <defs>
       <path d="M 10.796875 72.90625 
L 49.515625 72.90625 
L 49.515625 64.59375 
L 19.828125 64.59375 
L 19.828125 46.734375 
Q 21.96875 47.46875 24.109375 47.828125 
Q 26.265625 48.1875 28.421875 48.1875 
Q 40.625 48.1875 47.75 41.5 
Q 54.890625 34.8125 54.890625 23.390625 
Q 54.890625 11.625 47.5625 5.09375 
Q 40.234375 -1.421875 26.90625 -1.421875 
Q 22.3125 -1.421875 17.546875 -0.640625 
Q 12.796875 0.140625 7.71875 1.703125 
L 7.71875 11.625 
Q 12.109375 9.234375 16.796875 8.0625 
Q 21.484375 6.890625 26.703125 6.890625 
Q 35.15625 6.890625 40.078125 11.328125 
Q 45.015625 15.765625 45.015625 23.390625 
Q 45.015625 31 40.078125 35.4375 
Q 35.15625 39.890625 26.703125 39.890625 
Q 22.75 39.890625 18.8125 39.015625 
Q 14.890625 38.140625 10.796875 36.28125 
z
" id="DejaVuSans-53"/>
      </defs>
      <g transform="translate(939.99608 366.30265)scale(0.08 -0.08)">
       <use xlink:href="#DejaVuSans-53"/>
       <use x="63.623047" xlink:href="#DejaVuSans-48"/>
       <use x="127.246094" xlink:href="#DejaVuSans-48"/>
      </g>
     </g>
    </g>
    <g id="text_7">
     <!-- Occurrence of read -->
     <defs>
      <path d="M 39.40625 66.21875 
Q 28.65625 66.21875 22.328125 58.203125 
Q 16.015625 50.203125 16.015625 36.375 
Q 16.015625 22.609375 22.328125 14.59375 
Q 28.65625 6.59375 39.40625 6.59375 
Q 50.140625 6.59375 56.421875 14.59375 
Q 62.703125 22.609375 62.703125 36.375 
Q 62.703125 50.203125 56.421875 58.203125 
Q 50.140625 66.21875 39.40625 66.21875 
z
M 39.40625 74.21875 
Q 54.734375 74.21875 63.90625 63.9375 
Q 73.09375 53.65625 73.09375 36.375 
Q 73.09375 19.140625 63.90625 8.859375 
Q 54.734375 -1.421875 39.40625 -1.421875 
Q 24.03125 -1.421875 14.8125 8.828125 
Q 5.609375 19.09375 5.609375 36.375 
Q 5.609375 53.65625 14.8125 63.9375 
Q 24.03125 74.21875 39.40625 74.21875 
z
" id="DejaVuSans-79"/>
      <path d="M 48.78125 52.59375 
L 48.78125 44.1875 
Q 44.96875 46.296875 41.140625 47.34375 
Q 37.3125 48.390625 33.40625 48.390625 
Q 24.65625 48.390625 19.8125 42.84375 
Q 14.984375 37.3125 14.984375 27.296875 
Q 14.984375 17.28125 19.8125 11.734375 
Q 24.65625 6.203125 33.40625 6.203125 
Q 37.3125 6.203125 41.140625 7.25 
Q 44.96875 8.296875 48.78125 10.40625 
L 48.78125 2.09375 
Q 45.015625 0.34375 40.984375 -0.53125 
Q 36.96875 -1.421875 32.421875 -1.421875 
Q 20.0625 -1.421875 12.78125 6.34375 
Q 5.515625 14.109375 5.515625 27.296875 
Q 5.515625 40.671875 12.859375 48.328125 
Q 20.21875 56 33.015625 56 
Q 37.15625 56 41.109375 55.140625 
Q 45.0625 54.296875 48.78125 52.59375 
z
" id="DejaVuSans-99"/>
      <path d="M 8.5 21.578125 
L 8.5 54.6875 
L 17.484375 54.6875 
L 17.484375 21.921875 
Q 17.484375 14.15625 20.5 10.265625 
Q 23.53125 6.390625 29.59375 6.390625 
Q 36.859375 6.390625 41.078125 11.03125 
Q 45.3125 15.671875 45.3125 23.6875 
L 45.3125 54.6875 
L 54.296875 54.6875 
L 54.296875 0 
L 45.3125 0 
L 45.3125 8.40625 
Q 42.046875 3.421875 37.71875 1 
Q 33.40625 -1.421875 27.6875 -1.421875 
Q 18.265625 -1.421875 13.375 4.4375 
Q 8.5 10.296875 8.5 21.578125 
z
M 31.109375 56 
z
" id="DejaVuSans-117"/>
      <path d="M 41.109375 46.296875 
Q 39.59375 47.171875 37.8125 47.578125 
Q 36.03125 48 33.890625 48 
Q 26.265625 48 22.1875 43.046875 
Q 18.109375 38.09375 18.109375 28.8125 
L 18.109375 0 
L 9.078125 0 
L 9.078125 54.6875 
L 18.109375 54.6875 
L 18.109375 46.1875 
Q 20.953125 51.171875 25.484375 53.578125 
Q 30.03125 56 36.53125 56 
Q 37.453125 56 38.578125 55.875 
Q 39.703125 55.765625 41.0625 55.515625 
z
" id="DejaVuSans-114"/>
      <path d="M 56.203125 29.59375 
L 56.203125 25.203125 
L 14.890625 25.203125 
Q 15.484375 15.921875 20.484375 11.0625 
Q 25.484375 6.203125 34.421875 6.203125 
Q 39.59375 6.203125 44.453125 7.46875 
Q 49.3125 8.734375 54.109375 11.28125 
L 54.109375 2.78125 
Q 49.265625 0.734375 44.1875 -0.34375 
Q 39.109375 -1.421875 33.890625 -1.421875 
Q 20.796875 -1.421875 13.15625 6.1875 
Q 5.515625 13.8125 5.515625 26.8125 
Q 5.515625 40.234375 12.765625 48.109375 
Q 20.015625 56 32.328125 56 
Q 43.359375 56 49.78125 48.890625 
Q 56.203125 41.796875 56.203125 29.59375 
z
M 47.21875 32.234375 
Q 47.125 39.59375 43.09375 43.984375 
Q 39.0625 48.390625 32.421875 48.390625 
Q 24.90625 48.390625 20.390625 44.140625 
Q 15.875 39.890625 15.1875 32.171875 
z
" id="DejaVuSans-101"/>
      <path d="M 54.890625 33.015625 
L 54.890625 0 
L 45.90625 0 
L 45.90625 32.71875 
Q 45.90625 40.484375 42.875 44.328125 
Q 39.84375 48.1875 33.796875 48.1875 
Q 26.515625 48.1875 22.3125 43.546875 
Q 18.109375 38.921875 18.109375 30.90625 
L 18.109375 0 
L 9.078125 0 
L 9.078125 54.6875 
L 18.109375 54.6875 
L 18.109375 46.1875 
Q 21.34375 51.125 25.703125 53.5625 
Q 30.078125 56 35.796875 56 
Q 45.21875 56 50.046875 50.171875 
Q 54.890625 44.34375 54.890625 33.015625 
z
" id="DejaVuSans-110"/>
      <path id="DejaVuSans-32"/>
      <path d="M 30.609375 48.390625 
Q 23.390625 48.390625 19.1875 42.75 
Q 14.984375 37.109375 14.984375 27.296875 
Q 14.984375 17.484375 19.15625 11.84375 
Q 23.34375 6.203125 30.609375 6.203125 
Q 37.796875 6.203125 41.984375 11.859375 
Q 46.1875 17.53125 46.1875 27.296875 
Q 46.1875 37.015625 41.984375 42.703125 
Q 37.796875 48.390625 30.609375 48.390625 
z
M 30.609375 56 
Q 42.328125 56 49.015625 48.375 
Q 55.71875 40.765625 55.71875 27.296875 
Q 55.71875 13.875 49.015625 6.21875 
Q 42.328125 -1.421875 30.609375 -1.421875 
Q 18.84375 -1.421875 12.171875 6.21875 
Q 5.515625 13.875 5.515625 27.296875 
Q 5.515625 40.765625 12.171875 48.375 
Q 18.84375 56 30.609375 56 
z
" id="DejaVuSans-111"/>
      <path d="M 37.109375 75.984375 
L 37.109375 68.5 
L 28.515625 68.5 
Q 23.6875 68.5 21.796875 66.546875 
Q 19.921875 64.59375 19.921875 59.515625 
L 19.921875 54.6875 
L 34.71875 54.6875 
L 34.71875 47.703125 
L 19.921875 47.703125 
L 19.921875 0 
L 10.890625 0 
L 10.890625 47.703125 
L 2.296875 47.703125 
L 2.296875 54.6875 
L 10.890625 54.6875 
L 10.890625 58.5 
Q 10.890625 67.625 15.140625 71.796875 
Q 19.390625 75.984375 28.609375 75.984375 
z
" id="DejaVuSans-102"/>
      <path d="M 34.28125 27.484375 
Q 23.390625 27.484375 19.1875 25 
Q 14.984375 22.515625 14.984375 16.5 
Q 14.984375 11.71875 18.140625 8.90625 
Q 21.296875 6.109375 26.703125 6.109375 
Q 34.1875 6.109375 38.703125 11.40625 
Q 43.21875 16.703125 43.21875 25.484375 
L 43.21875 27.484375 
z
M 52.203125 31.203125 
L 52.203125 0 
L 43.21875 0 
L 43.21875 8.296875 
Q 40.140625 3.328125 35.546875 0.953125 
Q 30.953125 -1.421875 24.3125 -1.421875 
Q 15.921875 -1.421875 10.953125 3.296875 
Q 6 8.015625 6 15.921875 
Q 6 25.140625 12.171875 29.828125 
Q 18.359375 34.515625 30.609375 34.515625 
L 43.21875 34.515625 
L 43.21875 35.40625 
Q 43.21875 41.609375 39.140625 45 
Q 35.0625 48.390625 27.6875 48.390625 
Q 23 48.390625 18.546875 47.265625 
Q 14.109375 46.140625 10.015625 43.890625 
L 10.015625 52.203125 
Q 14.9375 54.109375 19.578125 55.046875 
Q 24.21875 56 28.609375 56 
Q 40.484375 56 46.34375 49.84375 
Q 52.203125 43.703125 52.203125 31.203125 
z
" id="DejaVuSans-97"/>
      <path d="M 45.40625 46.390625 
L 45.40625 75.984375 
L 54.390625 75.984375 
L 54.390625 0 
L 45.40625 0 
L 45.40625 8.203125 
Q 42.578125 3.328125 38.25 0.953125 
Q 33.9375 -1.421875 27.875 -1.421875 
Q 17.96875 -1.421875 11.734375 6.484375 
Q 5.515625 14.40625 5.515625 27.296875 
Q 5.515625 40.1875 11.734375 48.09375 
Q 17.96875 56 27.875 56 
Q 33.9375 56 38.25 53.625 
Q 42.578125 51.265625 45.40625 46.390625 
z
M 14.796875 27.296875 
Q 14.796875 17.390625 18.875 11.75 
Q 22.953125 6.109375 30.078125 6.109375 
Q 37.203125 6.109375 41.296875 11.75 
Q 45.40625 17.390625 45.40625 27.296875 
Q 45.40625 37.203125 41.296875 42.84375 
Q 37.203125 48.484375 30.078125 48.484375 
Q 22.953125 48.484375 18.875 42.84375 
Q 14.796875 37.203125 14.796875 27.296875 
z
" id="DejaVuSans-100"/>
     </defs>
     <g transform="translate(469.986406 379.564837)scale(0.1 -0.1)">
      <use xlink:href="#DejaVuSans-79"/>
      <use x="78.710938" xlink:href="#DejaVuSans-99"/>
      <use x="133.691406" xlink:href="#DejaVuSans-99"/>
      <use x="188.671875" xlink:href="#DejaVuSans-117"/>
      <use x="252.050781" xlink:href="#DejaVuSans-114"/>
      <use x="293.148438" xlink:href="#DejaVuSans-114"/>
      <use x="334.230469" xlink:href="#DejaVuSans-101"/>
      <use x="395.753906" xlink:href="#DejaVuSans-110"/>
      <use x="459.132812" xlink:href="#DejaVuSans-99"/>
      <use x="514.113281" xlink:href="#DejaVuSans-101"/>
      <use x="575.636719" xlink:href="#DejaVuSans-32"/>
      <use x="607.423828" xlink:href="#DejaVuSans-111"/>
      <use x="668.605469" xlink:href="#DejaVuSans-102"/>
      <use x="703.810547" xlink:href="#DejaVuSans-32"/>
      <use x="735.597656" xlink:href="#DejaVuSans-114"/>
      <use x="776.679688" xlink:href="#DejaVuSans-101"/>
      <use x="838.203125" xlink:href="#DejaVuSans-97"/>
      <use x="899.482422" xlink:href="#DejaVuSans-100"/>
     </g>
    </g>
   </g>
   <g id="matplotlib.axis_2">
    <g id="ytick_1">
     <g id="line2d_1">
      <path clip-path="url(#p6143de0de3)" d="M 45.690625 338.770916 
L 990.580625 338.770916 
" style="fill:none;stroke:#dedede;stroke-linecap:square;"/>
     </g>
     <g id="text_8">
      <!-- 0.00 -->
      <defs>
       <path d="M 10.6875 12.40625 
L 21 12.40625 
L 21 0 
L 10.6875 0 
z
" id="DejaVuSans-46"/>
      </defs>
      <g transform="translate(20.878125 341.810291)scale(0.08 -0.08)">
       <use xlink:href="#DejaVuSans-48"/>
       <use x="63.623047" xlink:href="#DejaVuSans-46"/>
       <use x="95.410156" xlink:href="#DejaVuSans-48"/>
       <use x="159.033203" xlink:href="#DejaVuSans-48"/>
      </g>
     </g>
    </g>
    <g id="ytick_2">
     <g id="line2d_2">
      <path clip-path="url(#p6143de0de3)" d="M 45.690625 300.612588 
L 990.580625 300.612588 
" style="fill:none;stroke:#dedede;stroke-linecap:square;"/>
     </g>
     <g id="text_9">
      <!-- 0.25 -->
      <g transform="translate(20.878125 303.651963)scale(0.08 -0.08)">
       <use xlink:href="#DejaVuSans-48"/>
       <use x="63.623047" xlink:href="#DejaVuSans-46"/>
       <use x="95.410156" xlink:href="#DejaVuSans-50"/>
       <use x="159.033203" xlink:href="#DejaVuSans-53"/>
      </g>
     </g>
    </g>
    <g id="ytick_3">
     <g id="line2d_3">
      <path clip-path="url(#p6143de0de3)" d="M 45.690625 262.45426 
L 990.580625 262.45426 
" style="fill:none;stroke:#dedede;stroke-linecap:square;"/>
     </g>
     <g id="text_10">
      <!-- 0.50 -->
      <g transform="translate(20.878125 265.493635)scale(0.08 -0.08)">
       <use xlink:href="#DejaVuSans-48"/>
       <use x="63.623047" xlink:href="#DejaVuSans-46"/>
       <use x="95.410156" xlink:href="#DejaVuSans-53"/>
       <use x="159.033203" xlink:href="#DejaVuSans-48"/>
      </g>
     </g>
    </g>
    <g id="ytick_4">
     <g id="line2d_4">
      <path clip-path="url(#p6143de0de3)" d="M 45.690625 224.295933 
L 990.580625 224.295933 
" style="fill:none;stroke:#dedede;stroke-linecap:square;"/>
     </g>
     <g id="text_11">
      <!-- 0.75 -->
      <defs>
       <path d="M 8.203125 72.90625 
L 55.078125 72.90625 
L 55.078125 68.703125 
L 28.609375 0 
L 18.3125 0 
L 43.21875 64.59375 
L 8.203125 64.59375 
z
" id="DejaVuSans-55"/>
      </defs>
      <g transform="translate(20.878125 227.335308)scale(0.08 -0.08)">
       <use xlink:href="#DejaVuSans-48"/>
       <use x="63.623047" xlink:href="#DejaVuSans-46"/>
       <use x="95.410156" xlink:href="#DejaVuSans-55"/>
       <use x="159.033203" xlink:href="#DejaVuSans-53"/>
      </g>
     </g>
    </g>
    <g id="ytick_5">
     <g id="line2d_5">
      <path clip-path="url(#p6143de0de3)" d="M 45.690625 186.137605 
L 990.580625 186.137605 
" style="fill:none;stroke:#dedede;stroke-linecap:square;"/>
     </g>
     <g id="text_12">
      <!-- 1.00 -->
      <g transform="translate(20.878125 189.17698)scale(0.08 -0.08)">
       <use xlink:href="#DejaVuSans-49"/>
       <use x="63.623047" xlink:href="#DejaVuSans-46"/>
       <use x="95.410156" xlink:href="#DejaVuSans-48"/>
       <use x="159.033203" xlink:href="#DejaVuSans-48"/>
      </g>
     </g>
    </g>
    <g id="ytick_6">
     <g id="line2d_6">
      <path clip-path="url(#p6143de0de3)" d="M 45.690625 147.979277 
L 990.580625 147.979277 
" style="fill:none;stroke:#dedede;stroke-linecap:square;"/>
     </g>
     <g id="text_13">
      <!-- 1.25 -->
      <g transform="translate(20.878125 151.018652)scale(0.08 -0.08)">
       <use xlink:href="#DejaVuSans-49"/>
       <use x="63.623047" xlink:href="#DejaVuSans-46"/>
       <use x="95.410156" xlink:href="#DejaVuSans-50"/>
       <use x="159.033203" xlink:href="#DejaVuSans-53"/>
      </g>
     </g>
    </g>
    <g id="ytick_7">
     <g id="line2d_7">
      <path clip-path="url(#p6143de0de3)" d="M 45.690625 109.820949 
L 990.580625 109.820949 
" style="fill:none;stroke:#dedede;stroke-linecap:square;"/>
     </g>
     <g id="text_14">
      <!-- 1.50 -->
      <g transform="translate(20.878125 112.860324)scale(0.08 -0.08)">
       <use xlink:href="#DejaVuSans-49"/>
       <use x="63.623047" xlink:href="#DejaVuSans-46"/>
       <use x="95.410156" xlink:href="#DejaVuSans-53"/>
       <use x="159.033203" xlink:href="#DejaVuSans-48"/>
      </g>
     </g>
    </g>
    <g id="ytick_8">
     <g id="line2d_8">
      <path clip-path="url(#p6143de0de3)" d="M 45.690625 71.662622 
L 990.580625 71.662622 
" style="fill:none;stroke:#dedede;stroke-linecap:square;"/>
     </g>
     <g id="text_15">
      <!-- 1.75 -->
      <g transform="translate(20.878125 74.701997)scale(0.08 -0.08)">
       <use xlink:href="#DejaVuSans-49"/>
       <use x="63.623047" xlink:href="#DejaVuSans-46"/>
       <use x="95.410156" xlink:href="#DejaVuSans-55"/>
       <use x="159.033203" xlink:href="#DejaVuSans-53"/>
      </g>
     </g>
    </g>
    <g id="text_16">
     <!-- Number of Reads (log10) -->
     <defs>
      <path d="M 9.8125 72.90625 
L 23.09375 72.90625 
L 55.421875 11.921875 
L 55.421875 72.90625 
L 64.984375 72.90625 
L 64.984375 0 
L 51.703125 0 
L 19.390625 60.984375 
L 19.390625 0 
L 9.8125 0 
z
" id="DejaVuSans-78"/>
      <path d="M 52 44.1875 
Q 55.375 50.25 60.0625 53.125 
Q 64.75 56 71.09375 56 
Q 79.640625 56 84.28125 50.015625 
Q 88.921875 44.046875 88.921875 33.015625 
L 88.921875 0 
L 79.890625 0 
L 79.890625 32.71875 
Q 79.890625 40.578125 77.09375 44.375 
Q 74.3125 48.1875 68.609375 48.1875 
Q 61.625 48.1875 57.5625 43.546875 
Q 53.515625 38.921875 53.515625 30.90625 
L 53.515625 0 
L 44.484375 0 
L 44.484375 32.71875 
Q 44.484375 40.625 41.703125 44.40625 
Q 38.921875 48.1875 33.109375 48.1875 
Q 26.21875 48.1875 22.15625 43.53125 
Q 18.109375 38.875 18.109375 30.90625 
L 18.109375 0 
L 9.078125 0 
L 9.078125 54.6875 
L 18.109375 54.6875 
L 18.109375 46.1875 
Q 21.1875 51.21875 25.484375 53.609375 
Q 29.78125 56 35.6875 56 
Q 41.65625 56 45.828125 52.96875 
Q 50 49.953125 52 44.1875 
z
" id="DejaVuSans-109"/>
      <path d="M 48.6875 27.296875 
Q 48.6875 37.203125 44.609375 42.84375 
Q 40.53125 48.484375 33.40625 48.484375 
Q 26.265625 48.484375 22.1875 42.84375 
Q 18.109375 37.203125 18.109375 27.296875 
Q 18.109375 17.390625 22.1875 11.75 
Q 26.265625 6.109375 33.40625 6.109375 
Q 40.53125 6.109375 44.609375 11.75 
Q 48.6875 17.390625 48.6875 27.296875 
z
M 18.109375 46.390625 
Q 20.953125 51.265625 25.265625 53.625 
Q 29.59375 56 35.59375 56 
Q 45.5625 56 51.78125 48.09375 
Q 58.015625 40.1875 58.015625 27.296875 
Q 58.015625 14.40625 51.78125 6.484375 
Q 45.5625 -1.421875 35.59375 -1.421875 
Q 29.59375 -1.421875 25.265625 0.953125 
Q 20.953125 3.328125 18.109375 8.203125 
L 18.109375 0 
L 9.078125 0 
L 9.078125 75.984375 
L 18.109375 75.984375 
z
" id="DejaVuSans-98"/>
      <path d="M 44.390625 34.1875 
Q 47.5625 33.109375 50.5625 29.59375 
Q 53.5625 26.078125 56.59375 19.921875 
L 66.609375 0 
L 56 0 
L 46.6875 18.703125 
Q 43.0625 26.03125 39.671875 28.421875 
Q 36.28125 30.8125 30.421875 30.8125 
L 19.671875 30.8125 
L 19.671875 0 
L 9.8125 0 
L 9.8125 72.90625 
L 32.078125 72.90625 
Q 44.578125 72.90625 50.734375 67.671875 
Q 56.890625 62.453125 56.890625 51.90625 
Q 56.890625 45.015625 53.6875 40.46875 
Q 50.484375 35.9375 44.390625 34.1875 
z
M 19.671875 64.796875 
L 19.671875 38.921875 
L 32.078125 38.921875 
Q 39.203125 38.921875 42.84375 42.21875 
Q 46.484375 45.515625 46.484375 51.90625 
Q 46.484375 58.296875 42.84375 61.546875 
Q 39.203125 64.796875 32.078125 64.796875 
z
" id="DejaVuSans-82"/>
      <path d="M 44.28125 53.078125 
L 44.28125 44.578125 
Q 40.484375 46.53125 36.375 47.5 
Q 32.28125 48.484375 27.875 48.484375 
Q 21.1875 48.484375 17.84375 46.4375 
Q 14.5 44.390625 14.5 40.28125 
Q 14.5 37.15625 16.890625 35.375 
Q 19.28125 33.59375 26.515625 31.984375 
L 29.59375 31.296875 
Q 39.15625 29.25 43.1875 25.515625 
Q 47.21875 21.78125 47.21875 15.09375 
Q 47.21875 7.46875 41.1875 3.015625 
Q 35.15625 -1.421875 24.609375 -1.421875 
Q 20.21875 -1.421875 15.453125 -0.5625 
Q 10.6875 0.296875 5.421875 2 
L 5.421875 11.28125 
Q 10.40625 8.6875 15.234375 7.390625 
Q 20.0625 6.109375 24.8125 6.109375 
Q 31.15625 6.109375 34.5625 8.28125 
Q 37.984375 10.453125 37.984375 14.40625 
Q 37.984375 18.0625 35.515625 20.015625 
Q 33.0625 21.96875 24.703125 23.78125 
L 21.578125 24.515625 
Q 13.234375 26.265625 9.515625 29.90625 
Q 5.8125 33.546875 5.8125 39.890625 
Q 5.8125 47.609375 11.28125 51.796875 
Q 16.75 56 26.8125 56 
Q 31.78125 56 36.171875 55.265625 
Q 40.578125 54.546875 44.28125 53.078125 
z
" id="DejaVuSans-115"/>
      <path d="M 31 75.875 
Q 24.46875 64.65625 21.28125 53.65625 
Q 18.109375 42.671875 18.109375 31.390625 
Q 18.109375 20.125 21.3125 9.0625 
Q 24.515625 -2 31 -13.1875 
L 23.1875 -13.1875 
Q 15.875 -1.703125 12.234375 9.375 
Q 8.59375 20.453125 8.59375 31.390625 
Q 8.59375 42.28125 12.203125 53.3125 
Q 15.828125 64.359375 23.1875 75.875 
z
" id="DejaVuSans-40"/>
      <path d="M 9.421875 75.984375 
L 18.40625 75.984375 
L 18.40625 0 
L 9.421875 0 
z
" id="DejaVuSans-108"/>
      <path d="M 45.40625 27.984375 
Q 45.40625 37.75 41.375 43.109375 
Q 37.359375 48.484375 30.078125 48.484375 
Q 22.859375 48.484375 18.828125 43.109375 
Q 14.796875 37.75 14.796875 27.984375 
Q 14.796875 18.265625 18.828125 12.890625 
Q 22.859375 7.515625 30.078125 7.515625 
Q 37.359375 7.515625 41.375 12.890625 
Q 45.40625 18.265625 45.40625 27.984375 
z
M 54.390625 6.78125 
Q 54.390625 -7.171875 48.1875 -13.984375 
Q 42 -20.796875 29.203125 -20.796875 
Q 24.46875 -20.796875 20.265625 -20.09375 
Q 16.0625 -19.390625 12.109375 -17.921875 
L 12.109375 -9.1875 
Q 16.0625 -11.328125 19.921875 -12.34375 
Q 23.78125 -13.375 27.78125 -13.375 
Q 36.625 -13.375 41.015625 -8.765625 
Q 45.40625 -4.15625 45.40625 5.171875 
L 45.40625 9.625 
Q 42.625 4.78125 38.28125 2.390625 
Q 33.9375 0 27.875 0 
Q 17.828125 0 11.671875 7.65625 
Q 5.515625 15.328125 5.515625 27.984375 
Q 5.515625 40.671875 11.671875 48.328125 
Q 17.828125 56 27.875 56 
Q 33.9375 56 38.28125 53.609375 
Q 42.625 51.21875 45.40625 46.390625 
L 45.40625 54.6875 
L 54.390625 54.6875 
z
" id="DejaVuSans-103"/>
      <path d="M 8.015625 75.875 
L 15.828125 75.875 
Q 23.140625 64.359375 26.78125 53.3125 
Q 30.421875 42.28125 30.421875 31.390625 
Q 30.421875 20.453125 26.78125 9.375 
Q 23.140625 -1.703125 15.828125 -13.1875 
L 8.015625 -13.1875 
Q 14.5 -2 17.703125 9.0625 
Q 20.90625 20.125 20.90625 31.390625 
Q 20.90625 42.671875 17.703125 53.65625 
Q 14.5 64.65625 8.015625 75.875 
z
" id="DejaVuSans-41"/>
     </defs>
     <g transform="translate(14.798438 257.1899)rotate(-90)scale(0.1 -0.1)">
      <use xlink:href="#DejaVuSans-78"/>
      <use x="74.804688" xlink:href="#DejaVuSans-117"/>
      <use x="138.183594" xlink:href="#DejaVuSans-109"/>
      <use x="235.595703" xlink:href="#DejaVuSans-98"/>
      <use x="299.072266" xlink:href="#DejaVuSans-101"/>
      <use x="360.595703" xlink:href="#DejaVuSans-114"/>
      <use x="401.708984" xlink:href="#DejaVuSans-32"/>
      <use x="433.496094" xlink:href="#DejaVuSans-111"/>
      <use x="494.677734" xlink:href="#DejaVuSans-102"/>
      <use x="529.882812" xlink:href="#DejaVuSans-32"/>
      <use x="561.669922" xlink:href="#DejaVuSans-82"/>
      <use x="631.089844" xlink:href="#DejaVuSans-101"/>
      <use x="692.613281" xlink:href="#DejaVuSans-97"/>
      <use x="753.892578" xlink:href="#DejaVuSans-100"/>
      <use x="817.369141" xlink:href="#DejaVuSans-115"/>
      <use x="869.46875" xlink:href="#DejaVuSans-32"/>
      <use x="901.255859" xlink:href="#DejaVuSans-40"/>
      <use x="940.269531" xlink:href="#DejaVuSans-108"/>
      <use x="968.052734" xlink:href="#DejaVuSans-111"/>
      <use x="1029.234375" xlink:href="#DejaVuSans-103"/>
      <use x="1092.710938" xlink:href="#DejaVuSans-49"/>
      <use x="1156.333984" xlink:href="#DejaVuSans-48"/>
      <use x="1219.957031" xlink:href="#DejaVuSans-41"/>
     </g>
    </g>
    <g id="text_17">
     <!-- 1e7 -->
     <g transform="translate(45.690625 32.2559)scale(0.1 -0.1)">
      <use xlink:href="#DejaVuSans-49"/>
      <use x="63.623047" xlink:href="#DejaVuSans-101"/>
      <use x="125.146484" xlink:href="#DejaVuSans-55"/>
     </g>
    </g>
   </g>
   <g id="line2d_9">
    <path clip-path="url(#p6143de0de3)" d="M 88.64017 152.374079 
L 95.567516 319.450622 
L 102.494863 333.476997 
L 109.422209 336.562846 
L 116.349555 337.639308 
L 123.276901 338.08921 
L 130.204247 338.328661 
L 137.131593 338.463741 
L 144.058939 338.547049 
L 150.986285 338.599906 
L 157.913631 338.640338 
L 164.840977 338.667339 
L 171.768323 338.686968 
L 178.695669 338.700491 
L 185.623015 338.712503 
L 192.550361 338.72273 
L 199.477707 338.729568 
L 206.405053 338.736146 
L 213.332399 338.739336 
L 220.259745 338.743442 
L 227.187091 338.74651 
L 234.114437 338.749853 
L 241.041783 338.751974 
L 247.969129 338.753913 
L 254.896475 338.756141 
L 261.823821 338.756843 
L 268.751168 338.757469 
L 275.678514 338.759697 
L 282.60586 338.761056 
L 289.533206 338.760903 
L 296.460552 338.762048 
L 303.387898 338.76333 
L 310.315244 338.763162 
L 317.24259 338.763666 
L 324.169936 338.764643 
L 331.097282 338.765299 
L 338.024628 338.765131 
L 344.951974 338.765971 
L 351.87932 338.765818 
L 358.806666 338.766001 
L 365.734012 338.766535 
L 372.661358 338.76652 
L 379.588704 338.766795 
L 386.51605 338.767237 
L 393.443396 338.767589 
L 400.370742 338.768001 
L 407.298088 338.767589 
L 414.225434 338.767482 
L 421.15278 338.768138 
L 428.080126 338.768245 
L 435.007473 338.768657 
L 441.934819 338.768794 
L 448.862165 338.768657 
L 455.789511 338.768489 
L 462.716857 338.768611 
L 469.644203 338.769054 
L 476.571549 338.769054 
L 483.498895 338.769115 
L 490.426241 338.769267 
L 497.353587 338.769298 
L 504.280933 338.769573 
L 511.208279 338.769344 
L 518.135625 338.769191 
L 525.062971 338.769451 
L 531.990317 338.769634 
L 538.917663 338.769786 
L 545.845009 338.769481 
L 552.772355 338.769848 
L 559.699701 338.76997 
L 566.627047 338.769496 
L 573.554393 338.769527 
L 580.481739 338.769756 
L 587.409085 338.769725 
L 594.336431 338.769802 
L 601.263777 338.769786 
L 608.191124 338.770015 
L 615.11847 338.770076 
L 622.045816 338.770031 
L 628.973162 338.770244 
L 635.900508 338.77026 
L 642.827854 338.770092 
L 649.7552 338.770199 
L 656.682546 338.770229 
L 663.609892 338.770168 
L 670.537238 338.770351 
L 677.464584 338.770382 
L 684.39193 338.769985 
L 691.319276 338.77029 
L 698.246622 338.770275 
L 705.173968 338.77026 
L 712.101314 338.770443 
L 719.02866 338.770336 
L 725.956006 338.770351 
L 732.883352 338.770382 
L 739.810698 338.770443 
L 746.738044 338.770443 
L 753.66539 338.770382 
L 760.592736 338.770397 
L 767.520082 338.770443 
L 774.447429 338.770489 
L 781.374775 338.770595 
L 788.302121 338.770519 
L 795.229467 338.770458 
L 802.156813 338.770473 
L 809.084159 338.770504 
L 816.011505 338.770504 
L 822.938851 338.770626 
L 829.866197 338.770687 
L 836.793543 338.770595 
L 843.720889 338.770458 
L 850.648235 338.770504 
L 857.575581 338.770489 
L 864.502927 338.770534 
L 871.430273 338.770656 
L 878.357619 338.770611 
L 885.284965 338.770519 
L 892.212311 338.770641 
L 899.139657 338.770489 
L 906.067003 338.770641 
L 912.994349 338.770656 
L 919.921695 338.770626 
L 926.849041 338.770611 
L 933.776387 338.77055 
L 940.703734 338.770641 
L 947.63108 338.770672 
" style="fill:none;stroke:#7cb5ec;stroke-linecap:square;"/>
   </g>
   <g id="line2d_10">
    <path clip-path="url(#p6143de0de3)" d="M 88.64017 67.33881 
L 95.567516 323.468816 
L 102.494863 334.518659 
L 109.422209 336.89664 
L 116.349555 337.760392 
L 123.276901 338.141487 
L 130.204247 338.348152 
L 137.131593 338.4718 
L 144.058939 338.55062 
L 150.986285 338.60308 
L 157.913631 338.635133 
L 164.840977 338.661936 
L 171.768323 338.682297 
L 178.695669 338.697179 
L 185.623015 338.706077 
L 192.550361 338.717128 
L 199.477707 338.724058 
L 206.405053 338.730743 
L 213.332399 338.735993 
L 220.259745 338.740542 
L 227.187091 338.741152 
L 234.114437 338.745197 
L 241.041783 338.748006 
L 247.969129 338.74973 
L 254.896475 338.752478 
L 261.823821 338.754599 
L 268.751168 338.754966 
L 275.678514 338.756019 
L 282.60586 338.758293 
L 289.533206 338.75869 
L 296.460552 338.759591 
L 303.387898 338.76069 
L 310.315244 338.761544 
L 317.24259 338.761773 
L 324.169936 338.762704 
L 331.097282 338.762689 
L 338.024628 338.763895 
L 344.951974 338.763849 
L 351.87932 338.764185 
L 358.806666 338.764734 
L 365.734012 338.764902 
L 372.661358 338.765513 
L 379.588704 338.765787 
L 386.51605 338.766413 
L 393.443396 338.766429 
L 400.370742 338.766749 
L 407.298088 338.766902 
L 414.225434 338.76678 
L 421.15278 338.767375 
L 428.080126 338.767222 
L 435.007473 338.767405 
L 441.934819 338.76794 
L 448.862165 338.76768 
L 455.789511 338.768062 
L 462.716857 338.768138 
L 469.644203 338.768077 
L 476.571549 338.768245 
L 483.498895 338.768077 
L 490.426241 338.768626 
L 497.353587 338.76855 
L 504.280933 338.768596 
L 511.208279 338.768733 
L 518.135625 338.768764 
L 525.062971 338.769054 
L 531.990317 338.769283 
L 538.917663 338.769008 
L 545.845009 338.769283 
L 552.772355 338.769023 
L 559.699701 338.769267 
L 566.627047 338.769451 
L 573.554393 338.769344 
L 580.481739 338.769405 
L 587.409085 338.769695 
L 594.336431 338.769451 
L 601.263777 338.769619 
L 608.191124 338.769573 
L 615.11847 338.769863 
L 622.045816 338.769832 
L 628.973162 338.769634 
L 635.900508 338.769924 
L 642.827854 338.769832 
L 649.7552 338.769878 
L 656.682546 338.76997 
L 663.609892 338.76968 
L 670.537238 338.769924 
L 677.464584 338.769893 
L 684.39193 338.770122 
L 691.319276 338.770046 
L 698.246622 338.770214 
L 705.173968 338.770305 
L 712.101314 338.770153 
L 719.02866 338.77026 
L 725.956006 338.770244 
L 732.883352 338.770168 
L 739.810698 338.770183 
L 746.738044 338.77026 
L 753.66539 338.770214 
L 760.592736 338.770473 
L 767.520082 338.770214 
L 774.447429 338.770428 
L 781.374775 338.770305 
L 788.302121 338.770397 
L 795.229467 338.770199 
L 802.156813 338.77 
L 809.084159 338.770382 
L 816.011505 338.770382 
L 822.938851 338.770473 
L 829.866197 338.770504 
L 836.793543 338.770336 
L 843.720889 338.770428 
L 850.648235 338.770565 
L 857.575581 338.770489 
L 864.502927 338.770519 
L 871.430273 338.77055 
L 878.357619 338.77055 
L 885.284965 338.770626 
L 892.212311 338.770412 
L 899.139657 338.770489 
L 906.067003 338.770443 
L 912.994349 338.770626 
L 919.921695 338.77058 
L 926.849041 338.770519 
L 933.776387 338.77058 
L 940.703734 338.770595 
L 947.63108 338.770504 
" style="fill:none;stroke:#434348;stroke-linecap:square;"/>
   </g>
   <g id="line2d_11">
    <path clip-path="url(#p6143de0de3)" d="M 88.64017 115.475998 
L 95.567516 324.303232 
L 102.494863 334.591785 
L 109.422209 336.921641 
L 116.349555 337.760483 
L 123.276901 338.14196 
L 130.204247 338.354044 
L 137.131593 338.476486 
L 144.058939 338.557321 
L 150.986285 338.603966 
L 157.913631 338.641147 
L 164.840977 338.668087 
L 171.768323 338.689669 
L 178.695669 338.701315 
L 185.623015 338.713602 
L 192.550361 338.72244 
L 199.477707 338.728728 
L 206.405053 338.734986 
L 213.332399 338.739031 
L 220.259745 338.743015 
L 227.187091 338.745564 
L 234.114437 338.749654 
L 241.041783 338.751089 
L 247.969129 338.754477 
L 254.896475 338.756156 
L 261.823821 338.756645 
L 268.751168 338.758217 
L 275.678514 338.759438 
L 282.60586 338.760308 
L 289.533206 338.76159 
L 296.460552 338.762903 
L 303.387898 338.763116 
L 310.315244 338.763498 
L 317.24259 338.764276 
L 324.169936 338.764948 
L 331.097282 338.765177 
L 338.024628 338.765742 
L 344.951974 338.765406 
L 351.87932 338.766123 
L 358.806666 338.766429 
L 365.734012 338.766856 
L 372.661358 338.766581 
L 379.588704 338.767299 
L 386.51605 338.767436 
L 393.443396 338.767115 
L 400.370742 338.767512 
L 407.298088 338.768138 
L 414.225434 338.768077 
L 421.15278 338.768275 
L 428.080126 338.768352 
L 435.007473 338.768413 
L 441.934819 338.768504 
L 448.862165 338.768916 
L 455.789511 338.76913 
L 462.716857 338.769161 
L 469.644203 338.768657 
L 476.571549 338.769145 
L 483.498895 338.769206 
L 490.426241 338.769374 
L 497.353587 338.769313 
L 504.280933 338.769542 
L 511.208279 338.769695 
L 518.135625 338.769634 
L 525.062971 338.769588 
L 531.990317 338.769664 
L 538.917663 338.769817 
L 545.845009 338.769664 
L 552.772355 338.769924 
L 559.699701 338.769878 
L 566.627047 338.770168 
L 573.554393 338.770061 
L 580.481739 338.77 
L 587.409085 338.770107 
L 594.336431 338.769924 
L 601.263777 338.770092 
L 608.191124 338.770229 
L 615.11847 338.770214 
L 622.045816 338.770229 
L 628.973162 338.770153 
L 635.900508 338.770076 
L 642.827854 338.770183 
L 649.7552 338.770229 
L 656.682546 338.770138 
L 663.609892 338.770412 
L 670.537238 338.770412 
L 677.464584 338.77055 
L 684.39193 338.770382 
L 691.319276 338.770473 
L 698.246622 338.770321 
L 705.173968 338.770443 
L 712.101314 338.770489 
L 719.02866 338.770321 
L 725.956006 338.770412 
L 732.883352 338.77055 
L 739.810698 338.770504 
L 746.738044 338.770611 
L 753.66539 338.770656 
L 760.592736 338.770565 
L 767.520082 338.77055 
L 774.447429 338.770611 
L 781.374775 338.770626 
L 788.302121 338.770428 
L 795.229467 338.770534 
L 802.156813 338.770611 
L 809.084159 338.770519 
L 816.011505 338.770595 
L 822.938851 338.77058 
L 829.866197 338.770519 
L 836.793543 338.77058 
L 843.720889 338.770626 
L 850.648235 338.770687 
L 857.575581 338.770718 
L 864.502927 338.770672 
L 871.430273 338.77058 
L 878.357619 338.770733 
L 885.284965 338.770656 
L 892.212311 338.770641 
L 899.139657 338.770626 
L 906.067003 338.770718 
L 912.994349 338.770794 
L 919.921695 338.770641 
L 926.849041 338.770641 
L 933.776387 338.770733 
L 940.703734 338.770687 
L 947.63108 338.770626 
" style="fill:none;stroke:#90ed7d;stroke-linecap:square;"/>
   </g>
   <g id="line2d_12">
    <path clip-path="url(#p6143de0de3)" d="M 88.64017 49.708991 
L 95.567516 323.787636 
L 102.494863 334.391439 
L 109.422209 336.818629 
L 116.349555 337.69276 
L 123.276901 338.11383 
L 130.204247 338.331927 
L 137.131593 338.459819 
L 144.058939 338.54308 
L 150.986285 338.594701 
L 157.913631 338.633912 
L 164.840977 338.659784 
L 171.768323 338.680633 
L 178.695669 338.694691 
L 185.623015 338.708077 
L 192.550361 338.717632 
L 199.477707 338.7265 
L 206.405053 338.732254 
L 213.332399 338.736177 
L 220.259745 338.741381 
L 227.187091 338.745396 
L 234.114437 338.747243 
L 241.041783 338.74999 
L 247.969129 338.752554 
L 254.896475 338.754813 
L 261.823821 338.755714 
L 268.751168 338.756355 
L 275.678514 338.757896 
L 282.60586 338.759774 
L 289.533206 338.760781 
L 296.460552 338.760827 
L 303.387898 338.762094 
L 310.315244 338.76275 
L 317.24259 338.763727 
L 324.169936 338.764139 
L 331.097282 338.763925 
L 338.024628 338.765024 
L 344.951974 338.764933 
L 351.87932 338.765849 
L 358.806666 338.766139 
L 365.734012 338.76623 
L 372.661358 338.766719 
L 379.588704 338.766657 
L 386.51605 338.766505 
L 393.443396 338.767192 
L 400.370742 338.767497 
L 407.298088 338.767573 
L 414.225434 338.767558 
L 421.15278 338.767833 
L 428.080126 338.767985 
L 435.007473 338.768031 
L 441.934819 338.768336 
L 448.862165 338.768657 
L 455.789511 338.768611 
L 462.716857 338.76881 
L 469.644203 338.768825 
L 476.571549 338.769069 
L 483.498895 338.769222 
L 490.426241 338.769069 
L 497.353587 338.769023 
L 504.280933 338.769466 
L 511.208279 338.769481 
L 518.135625 338.769573 
L 525.062971 338.769451 
L 531.990317 338.769756 
L 538.917663 338.769557 
L 545.845009 338.769725 
L 552.772355 338.77 
L 559.699701 338.76968 
L 566.627047 338.769832 
L 573.554393 338.770092 
L 580.481739 338.770122 
L 587.409085 338.770046 
L 594.336431 338.770061 
L 601.263777 338.769985 
L 608.191124 338.770138 
L 615.11847 338.77029 
L 622.045816 338.770046 
L 628.973162 338.770244 
L 635.900508 338.77026 
L 642.827854 338.770244 
L 649.7552 338.770076 
L 656.682546 338.770397 
L 663.609892 338.770351 
L 670.537238 338.770214 
L 677.464584 338.770458 
L 684.39193 338.770351 
L 691.319276 338.770244 
L 698.246622 338.770321 
L 705.173968 338.770229 
L 712.101314 338.770275 
L 719.02866 338.770458 
L 725.956006 338.770458 
L 732.883352 338.770443 
L 739.810698 338.770489 
L 746.738044 338.770428 
L 753.66539 338.770534 
L 760.592736 338.770397 
L 767.520082 338.770565 
L 774.447429 338.770458 
L 781.374775 338.770504 
L 788.302121 338.770672 
L 795.229467 338.770489 
L 802.156813 338.770565 
L 809.084159 338.770458 
L 816.011505 338.770565 
L 822.938851 338.770534 
L 829.866197 338.770534 
L 836.793543 338.770611 
L 843.720889 338.770595 
L 850.648235 338.770519 
L 857.575581 338.770534 
L 864.502927 338.77058 
L 871.430273 338.770611 
L 878.357619 338.770718 
L 885.284965 338.770687 
L 892.212311 338.770595 
L 899.139657 338.770534 
L 906.067003 338.770718 
L 912.994349 338.770672 
L 919.921695 338.770473 
L 926.849041 338.770687 
L 933.776387 338.770702 
L 940.703734 338.770763 
L 947.63108 338.770687 
" style="fill:none;stroke:#f7a35c;stroke-linecap:square;"/>
   </g>
   <g id="line2d_13">
    <path clip-path="url(#p6143de0de3)" d="M 88.64017 71.947054 
L 95.567516 323.668888 
L 102.494863 334.463177 
L 109.422209 336.89377 
L 116.349555 337.748059 
L 123.276901 338.147394 
L 130.204247 338.360332 
L 137.131593 338.486972 
L 144.058939 338.565319 
L 150.986285 338.612986 
L 157.913631 338.65087 
L 164.840977 338.675444 
L 171.768323 338.692127 
L 178.695669 338.706154 
L 185.623015 338.7158 
L 192.550361 338.72537 
L 199.477707 338.73436 
L 206.405053 338.738909 
L 213.332399 338.741732 
L 220.259745 338.746266 
L 227.187091 338.749837 
L 234.114437 338.751852 
L 241.041783 338.753302 
L 247.969129 338.755668 
L 254.896475 338.757515 
L 261.823821 338.758995 
L 268.751168 338.759865 
L 275.678514 338.760598 
L 282.60586 338.761819 
L 289.533206 338.763238 
L 296.460552 338.763284 
L 303.387898 338.763651 
L 310.315244 338.764566 
L 317.24259 338.764826 
L 324.169936 338.765284 
L 331.097282 338.766123 
L 338.024628 338.76565 
L 344.951974 338.766749 
L 351.87932 338.767329 
L 358.806666 338.767176 
L 365.734012 338.767497 
L 372.661358 338.767512 
L 379.588704 338.767863 
L 386.51605 338.767695 
L 393.443396 338.768169 
L 400.370742 338.768352 
L 407.298088 338.768321 
L 414.225434 338.768306 
L 421.15278 338.768413 
L 428.080126 338.768962 
L 435.007473 338.768916 
L 441.934819 338.769069 
L 448.862165 338.768977 
L 455.789511 338.769435 
L 462.716857 338.769374 
L 469.644203 338.769557 
L 476.571549 338.769329 
L 483.498895 338.769466 
L 490.426241 338.769573 
L 497.353587 338.769786 
L 504.280933 338.769542 
L 511.208279 338.769863 
L 518.135625 338.769802 
L 525.062971 338.77 
L 531.990317 338.770092 
L 538.917663 338.769802 
L 545.845009 338.770092 
L 552.772355 338.76997 
L 559.699701 338.769939 
L 566.627047 338.770153 
L 573.554393 338.770214 
L 580.481739 338.770336 
L 587.409085 338.770244 
L 594.336431 338.770092 
L 601.263777 338.770183 
L 608.191124 338.770183 
L 615.11847 338.770183 
L 622.045816 338.770183 
L 628.973162 338.770428 
L 635.900508 338.770504 
L 642.827854 338.770519 
L 649.7552 338.770428 
L 656.682546 338.770397 
L 663.609892 338.770473 
L 670.537238 338.770489 
L 677.464584 338.770443 
L 684.39193 338.770504 
L 691.319276 338.770519 
L 698.246622 338.770412 
L 705.173968 338.770443 
L 712.101314 338.77058 
L 719.02866 338.770565 
L 725.956006 338.770504 
L 732.883352 338.770641 
L 739.810698 338.770534 
L 746.738044 338.770672 
L 753.66539 338.770519 
L 760.592736 338.770611 
L 767.520082 338.770611 
L 774.447429 338.770611 
L 781.374775 338.770672 
L 788.302121 338.770626 
L 795.229467 338.77058 
L 802.156813 338.770672 
L 809.084159 338.770641 
L 816.011505 338.770656 
L 822.938851 338.770611 
L 829.866197 338.770672 
L 836.793543 338.770718 
L 843.720889 338.770672 
L 850.648235 338.770611 
L 857.575581 338.770733 
L 864.502927 338.770489 
L 871.430273 338.770672 
L 878.357619 338.770733 
L 885.284965 338.770656 
L 892.212311 338.770779 
L 899.139657 338.770733 
L 906.067003 338.770718 
L 912.994349 338.770687 
L 919.921695 338.770672 
L 926.849041 338.770748 
L 933.776387 338.770656 
L 940.703734 338.770641 
L 947.63108 338.770763 
" style="fill:none;stroke:#8085e9;stroke-linecap:square;"/>
   </g>
   <g id="line2d_14">
    <path clip-path="url(#p6143de0de3)" d="M 88.64017 122.650725 
L 95.567516 326.815118 
L 102.494863 335.39598 
L 109.422209 337.286206 
L 116.349555 337.955701 
L 123.276901 338.271118 
L 130.204247 338.432619 
L 137.131593 338.52974 
L 144.058939 338.590229 
L 150.986285 338.632447 
L 157.913631 338.663126 
L 164.840977 338.681793 
L 171.768323 338.697728 
L 178.695669 338.709222 
L 185.623015 338.719265 
L 192.550361 338.727141 
L 199.477707 338.733734 
L 206.405053 338.73755 
L 213.332399 338.742435 
L 220.259745 338.746189 
L 227.187091 338.747975 
L 234.114437 338.750524 
L 241.041783 338.751669 
L 247.969129 338.753562 
L 254.896475 338.756217 
L 261.823821 338.757194 
L 268.751168 338.758873 
L 275.678514 338.759133 
L 282.60586 338.760186 
L 289.533206 338.761621 
L 296.460552 338.762414 
L 303.387898 338.762201 
L 310.315244 338.762933 
L 317.24259 338.763635 
L 324.169936 338.76446 
L 331.097282 338.764887 
L 338.024628 338.765223 
L 344.951974 338.766001 
L 351.87932 338.765894 
L 358.806666 338.766398 
L 365.734012 338.766688 
L 372.661358 338.766413 
L 379.588704 338.767268 
L 386.51605 338.767558 
L 393.443396 338.767726 
L 400.370742 338.767466 
L 407.298088 338.767558 
L 414.225434 338.767589 
L 421.15278 338.767909 
L 428.080126 338.768016 
L 435.007473 338.76852 
L 441.934819 338.768428 
L 448.862165 338.768764 
L 455.789511 338.768352 
L 462.716857 338.7691 
L 469.644203 338.769069 
L 476.571549 338.768977 
L 483.498895 338.7691 
L 490.426241 338.769115 
L 497.353587 338.769344 
L 504.280933 338.769374 
L 511.208279 338.769313 
L 518.135625 338.769435 
L 525.062971 338.769313 
L 531.990317 338.769374 
L 538.917663 338.769527 
L 545.845009 338.76968 
L 552.772355 338.769741 
L 559.699701 338.769725 
L 566.627047 338.769725 
L 573.554393 338.769756 
L 580.481739 338.769741 
L 587.409085 338.76971 
L 594.336431 338.769954 
L 601.263777 338.76997 
L 608.191124 338.769848 
L 615.11847 338.77 
L 622.045816 338.769695 
L 628.973162 338.77 
L 635.900508 338.770107 
L 642.827854 338.770046 
L 649.7552 338.770153 
L 656.682546 338.770046 
L 663.609892 338.770122 
L 670.537238 338.770138 
L 677.464584 338.77029 
L 684.39193 338.77029 
L 691.319276 338.770122 
L 698.246622 338.770275 
L 705.173968 338.770351 
L 712.101314 338.770336 
L 719.02866 338.770214 
L 725.956006 338.770229 
L 732.883352 338.770565 
L 739.810698 338.770443 
L 746.738044 338.770321 
L 753.66539 338.770519 
L 760.592736 338.770443 
L 767.520082 338.770321 
L 774.447429 338.770504 
L 781.374775 338.770443 
L 788.302121 338.770336 
L 795.229467 338.770489 
L 802.156813 338.770412 
L 809.084159 338.770382 
L 816.011505 338.770565 
L 822.938851 338.77055 
L 829.866197 338.77055 
L 836.793543 338.770489 
L 843.720889 338.770443 
L 850.648235 338.770489 
L 857.575581 338.770443 
L 864.502927 338.770565 
L 871.430273 338.770412 
L 878.357619 338.770611 
L 885.284965 338.770626 
L 892.212311 338.770565 
L 899.139657 338.770428 
L 906.067003 338.77058 
L 912.994349 338.770519 
L 919.921695 338.770748 
L 926.849041 338.770687 
L 933.776387 338.770626 
L 940.703734 338.770672 
L 947.63108 338.770504 
" style="fill:none;stroke:#f15c80;stroke-linecap:square;"/>
   </g>
   <g id="line2d_15">
    <path clip-path="url(#p6143de0de3)" d="M 88.64017 107.974682 
L 95.567516 324.080753 
L 102.494863 334.59351 
L 109.422209 336.946719 
L 116.349555 337.784401 
L 123.276901 338.173891 
L 130.204247 338.373505 
L 137.131593 338.497809 
L 144.058939 338.568982 
L 150.986285 338.620786 
L 157.913631 338.654289 
L 164.840977 338.675322 
L 171.768323 338.696965 
L 178.695669 338.708489 
L 185.623015 338.719219 
L 192.550361 338.729919 
L 199.477707 338.734879 
L 206.405053 338.739916 
L 213.332399 338.744434 
L 220.259745 338.747441 
L 227.187091 338.750494 
L 234.114437 338.75376 
L 241.041783 338.754859 
L 247.969129 338.757072 
L 254.896475 338.757789 
L 261.823821 338.75956 
L 268.751168 338.759835 
L 275.678514 338.761468 
L 282.60586 338.762155 
L 289.533206 338.763193 
L 296.460552 338.764551 
L 303.387898 338.764505 
L 310.315244 338.764643 
L 317.24259 338.765559 
L 324.169936 338.765757 
L 331.097282 338.766612 
L 338.024628 338.766764 
L 344.951974 338.766688 
L 351.87932 338.766841 
L 358.806666 338.76768 
L 365.734012 338.767604 
L 372.661358 338.767573 
L 379.588704 338.768245 
L 386.51605 338.768169 
L 393.443396 338.768718 
L 400.370742 338.768443 
L 407.298088 338.768596 
L 414.225434 338.768794 
L 421.15278 338.768855 
L 428.080126 338.768855 
L 435.007473 338.768871 
L 441.934819 338.769481 
L 448.862165 338.769313 
L 455.789511 338.769405 
L 462.716857 338.769298 
L 469.644203 338.769344 
L 476.571549 338.769496 
L 483.498895 338.769664 
L 490.426241 338.769786 
L 497.353587 338.769741 
L 504.280933 338.769848 
L 511.208279 338.769893 
L 518.135625 338.769954 
L 525.062971 338.76997 
L 531.990317 338.770092 
L 538.917663 338.770015 
L 545.845009 338.76997 
L 552.772355 338.77026 
L 559.699701 338.770031 
L 566.627047 338.770122 
L 573.554393 338.770229 
L 580.481739 338.770275 
L 587.409085 338.770397 
L 594.336431 338.77029 
L 601.263777 338.770214 
L 608.191124 338.770138 
L 615.11847 338.770305 
L 622.045816 338.770366 
L 628.973162 338.770199 
L 635.900508 338.77029 
L 642.827854 338.770443 
L 649.7552 338.770351 
L 656.682546 338.770305 
L 663.609892 338.770504 
L 670.537238 338.770382 
L 677.464584 338.770428 
L 684.39193 338.77055 
L 691.319276 338.770534 
L 698.246622 338.770412 
L 705.173968 338.770641 
L 712.101314 338.770534 
L 719.02866 338.770489 
L 725.956006 338.770443 
L 732.883352 338.770489 
L 739.810698 338.770504 
L 746.738044 338.770656 
L 753.66539 338.77055 
L 760.592736 338.770595 
L 767.520082 338.770534 
L 774.447429 338.770718 
L 781.374775 338.77058 
L 788.302121 338.770702 
L 795.229467 338.770626 
L 802.156813 338.770687 
L 809.084159 338.770656 
L 816.011505 338.770656 
L 822.938851 338.770626 
L 829.866197 338.770672 
L 836.793543 338.770748 
L 843.720889 338.770687 
L 850.648235 338.770656 
L 857.575581 338.770748 
L 864.502927 338.770565 
L 871.430273 338.770718 
L 878.357619 338.770641 
L 885.284965 338.770733 
L 892.212311 338.770763 
L 900.871494 338.770641 
L 907.79884 338.770748 
L 914.726186 338.770687 
L 921.653532 338.770656 
L 930.312714 338.770809 
L 937.24006 338.770626 
L 944.167407 338.770687 
" style="fill:none;stroke:#e4d354;stroke-linecap:square;"/>
   </g>
   <g id="line2d_16">
    <path clip-path="url(#p6143de0de3)" d="M 88.64017 89.494161 
L 95.567516 323.384822 
L 102.494863 334.369841 
L 109.422209 336.836945 
L 116.349555 337.731163 
L 123.276901 338.141044 
L 130.204247 338.352624 
L 137.131593 338.48334 
L 144.058939 338.560694 
L 150.986285 338.61294 
L 157.913631 338.648 
L 164.840977 338.671567 
L 171.768323 338.69031 
L 178.695669 338.707008 
L 185.623015 338.714136 
L 192.550361 338.725584 
L 199.477707 338.730514 
L 206.405053 338.739016 
L 213.332399 338.742084 
L 220.259745 338.745029 
L 227.187091 338.749166 
L 234.114437 338.751501 
L 241.041783 338.753226 
L 247.969129 338.755668 
L 254.896475 338.757484 
L 261.823821 338.759133 
L 268.751168 338.760018 
L 275.678514 338.760491 
L 282.60586 338.76217 
L 289.533206 338.763116 
L 296.460552 338.763635 
L 303.387898 338.764124 
L 310.315244 338.7642 
L 317.24259 338.764765 
L 324.169936 338.765604 
L 331.097282 338.766001 
L 338.024628 338.765971 
L 344.951974 338.766581 
L 351.87932 338.766749 
L 358.806666 338.767192 
L 365.734012 338.767405 
L 372.661358 338.767711 
L 379.588704 338.768107 
L 386.51605 338.768123 
L 393.443396 338.768275 
L 400.370742 338.768413 
L 407.298088 338.768352 
L 414.225434 338.768535 
L 421.15278 338.768947 
L 428.080126 338.768947 
L 435.007473 338.768916 
L 441.934819 338.768932 
L 448.862165 338.769267 
L 455.789511 338.769176 
L 462.716857 338.76939 
L 469.644203 338.769481 
L 476.571549 338.769313 
L 483.498895 338.769557 
L 490.426241 338.769527 
L 497.353587 338.769557 
L 504.280933 338.76997 
L 511.208279 338.76968 
L 518.135625 338.770031 
L 525.062971 338.769985 
L 531.990317 338.770122 
L 538.917663 338.770122 
L 545.845009 338.769939 
L 552.772355 338.770015 
L 559.699701 338.770107 
L 566.627047 338.769939 
L 573.554393 338.770061 
L 580.481739 338.76997 
L 587.409085 338.77026 
L 594.336431 338.770183 
L 601.263777 338.770199 
L 608.191124 338.770199 
L 615.11847 338.770168 
L 622.045816 338.77026 
L 628.973162 338.770305 
L 635.900508 338.770412 
L 642.827854 338.770397 
L 649.7552 338.770351 
L 656.682546 338.770122 
L 663.609892 338.770473 
L 670.537238 338.770443 
L 677.464584 338.770428 
L 684.39193 338.770595 
L 691.319276 338.77058 
L 698.246622 338.77055 
L 705.173968 338.770565 
L 712.101314 338.770519 
L 719.02866 338.770565 
L 725.956006 338.770504 
L 732.883352 338.770489 
L 739.810698 338.77058 
L 746.738044 338.770687 
L 753.66539 338.770611 
L 760.592736 338.77055 
L 767.520082 338.770718 
L 774.447429 338.77055 
L 781.374775 338.770595 
L 788.302121 338.77058 
L 795.229467 338.770656 
L 802.156813 338.770519 
L 809.084159 338.770626 
L 816.011505 338.770672 
L 822.938851 338.770641 
L 829.866197 338.770763 
L 836.793543 338.770672 
L 843.720889 338.770641 
L 850.648235 338.770641 
L 857.575581 338.770626 
L 864.502927 338.770733 
L 871.430273 338.770733 
L 878.357619 338.77058 
L 885.284965 338.770611 
L 892.212311 338.770687 
L 899.139657 338.770718 
L 906.067003 338.770794 
L 912.994349 338.770595 
L 919.921695 338.770748 
L 926.849041 338.770748 
L 933.776387 338.770702 
L 940.703734 338.770779 
L 947.63108 338.770794 
" style="fill:none;stroke:#2b908f;stroke-linecap:square;"/>
   </g>
   <g id="line2d_17">
    <path clip-path="url(#p6143de0de3)" d="M 88.64017 99.871547 
L 95.567516 321.27575 
L 102.494863 333.680793 
L 109.422209 336.518888 
L 116.349555 337.538936 
L 123.276901 338.015824 
L 130.204247 338.264814 
L 137.131593 338.412777 
L 144.058939 338.506418 
L 150.986285 338.572157 
L 157.913631 338.615596 
L 164.840977 338.644978 
L 171.768323 338.670224 
L 178.695669 338.687349 
L 185.623015 338.701865 
L 192.550361 338.710412 
L 199.477707 338.719936 
L 206.405053 338.727934 
L 213.332399 338.733979 
L 220.259745 338.73958 
L 227.187091 338.742374 
L 234.114437 338.744877 
L 241.041783 338.748754 
L 247.969129 338.749746 
L 254.896475 338.753043 
L 261.823821 338.754172 
L 268.751168 338.756263 
L 275.678514 338.757026 
L 282.60586 338.758018 
L 289.533206 338.759194 
L 296.460552 338.760903 
L 303.387898 338.760903 
L 310.315244 338.761666 
L 317.24259 338.762872 
L 324.169936 338.763727 
L 331.097282 338.763437 
L 338.024628 338.764185 
L 344.951974 338.76446 
L 351.87932 338.764612 
L 358.806666 338.765391 
L 365.734012 338.76594 
L 372.661358 338.765986 
L 379.588704 338.766688 
L 386.51605 338.766505 
L 393.443396 338.766719 
L 400.370742 338.767024 
L 407.298088 338.766963 
L 414.225434 338.76736 
L 421.15278 338.767283 
L 428.080126 338.767726 
L 435.007473 338.767787 
L 441.934819 338.767894 
L 448.862165 338.76852 
L 455.789511 338.768107 
L 462.716857 338.768443 
L 469.644203 338.768596 
L 476.571549 338.768825 
L 483.498895 338.76881 
L 490.426241 338.768596 
L 497.353587 338.768977 
L 504.280933 338.768626 
L 511.208279 338.768947 
L 518.135625 338.769298 
L 525.062971 338.769222 
L 531.990317 338.769237 
L 538.917663 338.769496 
L 545.845009 338.76939 
L 552.772355 338.769771 
L 559.699701 338.769466 
L 566.627047 338.769634 
L 573.554393 338.769634 
L 580.481739 338.769664 
L 587.409085 338.76971 
L 594.336431 338.769817 
L 601.263777 338.769725 
L 608.191124 338.769893 
L 615.11847 338.769634 
L 622.045816 338.769481 
L 628.973162 338.769863 
L 635.900508 338.770031 
L 642.827854 338.769924 
L 649.7552 338.769924 
L 656.682546 338.770046 
L 663.609892 338.770168 
L 670.537238 338.769954 
L 677.464584 338.770061 
L 684.39193 338.770183 
L 691.319276 338.770382 
L 698.246622 338.770199 
L 705.173968 338.770092 
L 712.101314 338.770275 
L 719.02866 338.770275 
L 725.956006 338.770366 
L 732.883352 338.77029 
L 739.810698 338.77026 
L 746.738044 338.770275 
L 753.66539 338.770351 
L 760.592736 338.770305 
L 767.520082 338.77055 
L 774.447429 338.770382 
L 781.374775 338.77029 
L 788.302121 338.770412 
L 795.229467 338.770321 
L 802.156813 338.770489 
L 809.084159 338.770244 
L 816.011505 338.770473 
L 822.938851 338.770473 
L 829.866197 338.770534 
L 836.793543 338.77055 
L 843.720889 338.770565 
L 850.648235 338.770534 
L 857.575581 338.770443 
L 864.502927 338.770733 
L 871.430273 338.770489 
L 878.357619 338.770443 
L 885.284965 338.770534 
L 892.212311 338.770626 
L 899.139657 338.770534 
L 907.79884 338.770611 
L 914.726186 338.770595 
L 921.653532 338.770656 
L 928.580878 338.770748 
L 935.508224 338.770534 
L 942.43557 338.770565 
" style="fill:none;stroke:#f45b5b;stroke-linecap:square;"/>
   </g>
   <g id="line2d_18">
    <path clip-path="url(#p6143de0de3)" d="M 88.64017 112.68838 
L 95.567516 326.920405 
L 102.494863 335.557313 
L 109.422209 337.359943 
L 116.349555 338.00459 
L 123.276901 338.303385 
L 130.204247 338.455392 
L 137.131593 338.540836 
L 144.058939 338.601523 
L 150.986285 338.6422 
L 157.913631 338.667827 
L 164.840977 338.686861 
L 171.768323 338.699361 
L 178.695669 338.711282 
L 185.623015 338.722226 
L 192.550361 338.729033 
L 199.477707 338.734757 
L 206.405053 338.73839 
L 213.332399 338.743305 
L 220.259745 338.745151 
L 227.187091 338.74886 
L 234.114437 338.749608 
L 241.041783 338.753363 
L 247.969129 338.754264 
L 254.896475 338.755653 
L 261.823821 338.756843 
L 268.751168 338.7584 
L 275.678514 338.758431 
L 282.60586 338.759484 
L 289.533206 338.761208 
L 296.460552 338.760964 
L 303.387898 338.762033 
L 310.315244 338.762643 
L 317.24259 338.76362 
L 324.169936 338.764185 
L 331.097282 338.764078 
L 338.024628 338.764383 
L 344.951974 338.765162 
L 351.87932 338.76504 
L 358.806666 338.765925 
L 365.734012 338.765849 
L 372.661358 338.76649 
L 379.588704 338.766688 
L 386.51605 338.76649 
L 393.443396 338.766841 
L 400.370742 338.767329 
L 407.298088 338.767222 
L 414.225434 338.767909 
L 421.15278 338.767573 
L 428.080126 338.768016 
L 435.007473 338.767909 
L 441.934819 338.767955 
L 448.862165 338.768443 
L 455.789511 338.768214 
L 462.716857 338.768352 
L 469.644203 338.76852 
L 476.571549 338.76855 
L 483.498895 338.768733 
L 490.426241 338.768443 
L 497.353587 338.768932 
L 504.280933 338.769084 
L 511.208279 338.769008 
L 518.135625 338.769313 
L 525.062971 338.768947 
L 531.990317 338.769252 
L 538.917663 338.768871 
L 545.845009 338.76939 
L 552.772355 338.76939 
L 559.699701 338.769344 
L 566.627047 338.769619 
L 573.554393 338.769619 
L 580.481739 338.769725 
L 587.409085 338.769664 
L 594.336431 338.769573 
L 601.263777 338.769619 
L 608.191124 338.769603 
L 615.11847 338.76971 
L 622.045816 338.769786 
L 628.973162 338.769939 
L 635.900508 338.769909 
L 642.827854 338.769848 
L 649.7552 338.769786 
L 656.682546 338.770214 
L 663.609892 338.77029 
L 670.537238 338.770015 
L 677.464584 338.770107 
L 684.39193 338.770199 
L 691.319276 338.769985 
L 698.246622 338.770199 
L 705.173968 338.770366 
L 712.101314 338.770214 
L 719.02866 338.770122 
L 725.956006 338.77026 
L 732.883352 338.770351 
L 739.810698 338.770244 
L 746.738044 338.770382 
L 753.66539 338.770122 
L 760.592736 338.770382 
L 767.520082 338.770275 
L 774.447429 338.770305 
L 781.374775 338.77029 
L 788.302121 338.770214 
L 795.229467 338.770443 
L 802.156813 338.770397 
L 809.084159 338.770336 
L 816.011505 338.770428 
L 822.938851 338.770428 
L 829.866197 338.770428 
L 836.793543 338.770336 
L 843.720889 338.770504 
L 850.648235 338.770397 
L 857.575581 338.770321 
L 864.502927 338.77029 
L 871.430273 338.770443 
L 878.357619 338.770382 
L 885.284965 338.770504 
L 892.212311 338.770489 
L 899.139657 338.770611 
L 906.067003 338.77055 
L 912.994349 338.770504 
L 919.921695 338.77058 
L 926.849041 338.770595 
L 933.776387 338.770458 
L 940.703734 338.770428 
L 947.63108 338.770489 
" style="fill:none;stroke:#91e8e1;stroke-linecap:square;"/>
   </g>
   <g id="line2d_19">
    <path clip-path="url(#p6143de0de3)" d="M 88.64017 78.220619 
L 95.567516 321.809158 
L 102.494863 333.84115 
L 109.422209 336.580826 
L 116.349555 337.569661 
L 123.276901 338.030019 
L 130.204247 338.274934 
L 137.131593 338.417631 
L 144.058939 338.511042 
L 150.986285 338.570447 
L 157.913631 338.614284 
L 164.840977 338.647527 
L 171.768323 338.669918 
L 178.695669 338.687197 
L 185.623015 338.702704 
L 192.550361 338.712976 
L 199.477707 338.720165 
L 206.405053 338.725996 
L 213.332399 338.733368 
L 220.259745 338.736436 
L 227.187091 338.74187 
L 234.114437 338.744037 
L 241.041783 338.746357 
L 247.969129 338.749273 
L 254.896475 338.752325 
L 261.823821 338.753119 
L 268.751168 338.75521 
L 275.678514 338.756981 
L 282.60586 338.758369 
L 289.533206 338.758675 
L 296.460552 338.759804 
L 303.387898 338.761071 
L 310.315244 338.761636 
L 317.24259 338.761682 
L 324.169936 338.762491 
L 331.097282 338.76333 
L 338.024628 338.764078 
L 344.951974 338.764627 
L 351.87932 338.765299 
L 358.806666 338.765177 
L 365.734012 338.765925 
L 372.661358 338.76565 
L 379.588704 338.766276 
L 386.51605 338.766612 
L 393.443396 338.766825 
L 400.370742 338.767161 
L 407.298088 338.767527 
L 414.225434 338.767604 
L 421.15278 338.767787 
L 428.080126 338.767985 
L 435.007473 338.768077 
L 441.934819 338.768001 
L 448.862165 338.768169 
L 455.789511 338.768657 
L 462.716857 338.768352 
L 469.644203 338.768596 
L 476.571549 338.768779 
L 483.498895 338.768764 
L 490.426241 338.768565 
L 497.353587 338.769252 
L 504.280933 338.769359 
L 511.208279 338.768825 
L 518.135625 338.769451 
L 525.062971 338.769283 
L 531.990317 338.769298 
L 538.917663 338.769603 
L 545.845009 338.769664 
L 552.772355 338.769573 
L 559.699701 338.76971 
L 566.627047 338.769848 
L 573.554393 338.76968 
L 580.481739 338.769771 
L 587.409085 338.769817 
L 594.336431 338.770076 
L 601.263777 338.769664 
L 608.191124 338.769954 
L 615.11847 338.770046 
L 622.045816 338.769863 
L 628.973162 338.769939 
L 635.900508 338.770015 
L 642.827854 338.769909 
L 649.7552 338.77026 
L 656.682546 338.770183 
L 663.609892 338.770382 
L 670.537238 338.770229 
L 677.464584 338.770092 
L 684.39193 338.770214 
L 691.319276 338.770107 
L 698.246622 338.770336 
L 705.173968 338.770412 
L 712.101314 338.770275 
L 719.02866 338.77029 
L 725.956006 338.770519 
L 732.883352 338.770275 
L 739.810698 338.770397 
L 746.738044 338.77029 
L 753.66539 338.770458 
L 760.592736 338.770305 
L 767.520082 338.770534 
L 774.447429 338.770321 
L 781.374775 338.770473 
L 788.302121 338.770473 
L 795.229467 338.770595 
L 802.156813 338.770473 
L 809.084159 338.770595 
L 816.011505 338.770519 
L 822.938851 338.770458 
L 829.866197 338.770443 
L 836.793543 338.77058 
L 843.720889 338.770443 
L 850.648235 338.770641 
L 857.575581 338.770534 
L 864.502927 338.770641 
L 871.430273 338.77055 
L 878.357619 338.770626 
L 885.284965 338.770656 
L 892.212311 338.770626 
L 899.139657 338.770626 
L 906.067003 338.770626 
L 912.994349 338.770641 
L 919.921695 338.770626 
L 926.849041 338.77058 
L 933.776387 338.770687 
L 940.703734 338.770687 
L 947.63108 338.770748 
" style="fill:none;stroke:#7cb5ec;stroke-linecap:square;"/>
   </g>
   <g id="line2d_20">
    <path clip-path="url(#p6143de0de3)" d="M 88.64017 123.08022 
L 95.567516 326.209515 
L 102.494863 335.231762 
L 109.422209 337.205112 
L 116.349555 337.916032 
L 123.276901 338.25036 
L 130.204247 338.427766 
L 137.131593 338.524413 
L 144.058939 338.589649 
L 150.986285 338.635866 
L 157.913631 338.666332 
L 164.840977 338.686204 
L 171.768323 338.70188 
L 178.695669 338.715251 
L 185.623015 338.723829 
L 192.550361 338.729445 
L 199.477707 338.736482 
L 206.405053 338.741366 
L 213.332399 338.74422 
L 220.259745 338.748555 
L 227.187091 338.750295 
L 234.114437 338.753012 
L 241.041783 338.755378 
L 247.969129 338.757209 
L 254.896475 338.758721 
L 261.823821 338.759133 
L 268.751168 338.76098 
L 275.678514 338.762017 
L 282.60586 338.762643 
L 289.533206 338.762292 
L 296.460552 338.763635 
L 303.387898 338.76391 
L 310.315244 338.763864 
L 317.24259 338.765497 
L 324.169936 338.765482 
L 331.097282 338.766291 
L 338.024628 338.76594 
L 344.951974 338.766566 
L 351.87932 338.766703 
L 358.806666 338.767405 
L 365.734012 338.767558 
L 372.661358 338.76707 
L 379.588704 338.768245 
L 386.51605 338.767879 
L 393.443396 338.768245 
L 400.370742 338.768184 
L 407.298088 338.76852 
L 414.225434 338.768443 
L 421.15278 338.768581 
L 428.080126 338.769039 
L 435.007473 338.768718 
L 441.934819 338.769054 
L 448.862165 338.768947 
L 455.789511 338.769161 
L 462.716857 338.769344 
L 469.644203 338.76913 
L 476.571549 338.769451 
L 483.498895 338.76968 
L 490.426241 338.769496 
L 497.353587 338.769603 
L 504.280933 338.769786 
L 511.208279 338.769909 
L 518.135625 338.769832 
L 525.062971 338.769802 
L 531.990317 338.769939 
L 538.917663 338.769832 
L 545.845009 338.770061 
L 552.772355 338.769817 
L 559.699701 338.769939 
L 566.627047 338.770183 
L 573.554393 338.770092 
L 580.481739 338.770244 
L 587.409085 338.770031 
L 594.336431 338.770138 
L 601.263777 338.770138 
L 608.191124 338.770473 
L 615.11847 338.770336 
L 622.045816 338.770382 
L 628.973162 338.770366 
L 635.900508 338.770412 
L 642.827854 338.77026 
L 649.7552 338.770366 
L 656.682546 338.770443 
L 663.609892 338.770489 
L 670.537238 338.770412 
L 677.464584 338.770428 
L 684.39193 338.770519 
L 691.319276 338.770443 
L 698.246622 338.770473 
L 705.173968 338.770519 
L 712.101314 338.770519 
L 719.02866 338.770351 
L 725.956006 338.770534 
L 732.883352 338.770489 
L 739.810698 338.770412 
L 746.738044 338.770428 
L 753.66539 338.770565 
L 760.592736 338.770626 
L 767.520082 338.770565 
L 774.447429 338.770611 
L 781.374775 338.77058 
L 788.302121 338.770489 
L 795.229467 338.770626 
L 802.156813 338.770687 
L 809.084159 338.770611 
L 816.011505 338.77058 
L 822.938851 338.77058 
L 829.866197 338.770656 
L 836.793543 338.770748 
L 843.720889 338.770641 
L 850.648235 338.770672 
L 857.575581 338.770702 
L 864.502927 338.770656 
L 871.430273 338.770656 
L 878.357619 338.770656 
L 885.284965 338.770595 
L 892.212311 338.770748 
L 899.139657 338.770794 
L 906.067003 338.770763 
L 912.994349 338.770702 
L 919.921695 338.770641 
L 926.849041 338.770687 
L 933.776387 338.770748 
L 940.703734 338.770779 
L 947.63108 338.770733 
" style="fill:none;stroke:#434348;stroke-linecap:square;"/>
   </g>
   <g id="line2d_21">
    <path clip-path="url(#p6143de0de3)" d="M 88.64017 185.499918 
L 95.567516 318.489521 
L 102.494863 333.1717 
L 109.422209 336.47267 
L 116.349555 337.60205 
L 123.276901 338.087027 
L 130.204247 338.323349 
L 137.131593 338.464657 
L 144.058939 338.549643 
L 150.986285 338.605019 
L 157.913631 338.641346 
L 164.840977 338.665614 
L 171.768323 338.688601 
L 178.695669 338.701239 
L 185.623015 338.714045 
L 192.550361 338.72247 
L 199.477707 338.731109 
L 206.405053 338.734666 
L 213.332399 338.739931 
L 220.259745 338.742709 
L 227.187091 338.74738 
L 234.114437 338.749456 
L 241.041783 338.752279 
L 247.969129 338.75263 
L 254.896475 338.755592 
L 261.823821 338.756843 
L 268.751168 338.757316 
L 275.678514 338.758263 
L 282.60586 338.760415 
L 289.533206 338.761346 
L 296.460552 338.762002 
L 303.387898 338.762201 
L 310.315244 338.763406 
L 317.24259 338.764002 
L 324.169936 338.764414 
L 331.097282 338.765101 
L 338.024628 338.764276 
L 344.951974 338.765375 
L 351.87932 338.765314 
L 358.806666 338.766276 
L 365.734012 338.766871 
L 372.661358 338.76678 
L 379.588704 338.766932 
L 386.51605 338.767589 
L 393.443396 338.766963 
L 400.370742 338.76739 
L 407.298088 338.76768 
L 414.225434 338.768382 
L 421.15278 338.768306 
L 428.080126 338.76794 
L 435.007473 338.768169 
L 441.934819 338.768565 
L 448.862165 338.768611 
L 455.789511 338.768611 
L 462.716857 338.768794 
L 469.644203 338.768962 
L 476.571549 338.768703 
L 483.498895 338.768916 
L 490.426241 338.768855 
L 497.353587 338.769145 
L 504.280933 338.769176 
L 511.208279 338.769405 
L 518.135625 338.769481 
L 525.062971 338.769451 
L 531.990317 338.769634 
L 538.917663 338.769634 
L 545.845009 338.76968 
L 552.772355 338.769664 
L 559.699701 338.769466 
L 566.627047 338.769695 
L 573.554393 338.769848 
L 580.481739 338.769802 
L 587.409085 338.769649 
L 594.336431 338.769802 
L 601.263777 338.76997 
L 608.191124 338.770015 
L 615.11847 338.769863 
L 622.045816 338.77 
L 628.973162 338.770076 
L 635.900508 338.770015 
L 642.827854 338.769985 
L 649.7552 338.770061 
L 656.682546 338.770122 
L 663.609892 338.770015 
L 670.537238 338.770214 
L 677.464584 338.770092 
L 684.39193 338.770199 
L 691.319276 338.770244 
L 698.246622 338.770305 
L 705.173968 338.770244 
L 712.101314 338.770229 
L 719.02866 338.770458 
L 725.956006 338.77026 
L 732.883352 338.770305 
L 739.810698 338.770397 
L 746.738044 338.770351 
L 753.66539 338.770397 
L 760.592736 338.770504 
L 767.520082 338.770428 
L 774.447429 338.770534 
L 781.374775 338.770519 
L 788.302121 338.770519 
L 795.229467 338.770489 
L 802.156813 338.770458 
L 809.084159 338.77055 
L 816.011505 338.770473 
L 822.938851 338.770565 
L 829.866197 338.770336 
L 836.793543 338.770595 
L 843.720889 338.770611 
L 850.648235 338.770504 
L 857.575581 338.770565 
L 864.502927 338.770687 
L 871.430273 338.770428 
L 878.357619 338.770504 
L 885.284965 338.770611 
L 892.212311 338.770611 
L 899.139657 338.770595 
L 906.067003 338.770565 
L 912.994349 338.770656 
L 919.921695 338.770641 
L 926.849041 338.770763 
L 933.776387 338.770565 
L 940.703734 338.770702 
L 947.63108 338.770687 
" style="fill:none;stroke:#90ed7d;stroke-linecap:square;"/>
   </g>
   <g id="line2d_22">
    <path clip-path="url(#p6143de0de3)" d="M 88.64017 109.261991 
L 95.567516 321.689539 
L 102.494863 334.107739 
L 109.422209 336.798436 
L 116.349555 337.72927 
L 123.276901 338.14373 
L 130.204247 338.363599 
L 137.131593 338.488529 
L 144.058939 338.56422 
L 150.986285 338.614848 
L 157.913631 338.649939 
L 164.840977 338.675032 
L 171.768323 338.691257 
L 178.695669 338.706108 
L 185.623015 338.718349 
L 192.550361 338.725828 
L 199.477707 338.731628 
L 206.405053 338.737962 
L 213.332399 338.741717 
L 220.259745 338.745365 
L 227.187091 338.748265 
L 234.114437 338.750509 
L 241.041783 338.752951 
L 247.969129 338.754874 
L 254.896475 338.756217 
L 261.823821 338.758202 
L 268.751168 338.759484 
L 275.678514 338.760109 
L 282.60586 338.761071 
L 289.533206 338.762246 
L 296.460552 338.762765 
L 303.387898 338.763116 
L 310.315244 338.763696 
L 317.24259 338.764414 
L 324.169936 338.764566 
L 331.097282 338.765116 
L 338.024628 338.765726 
L 344.951974 338.765879 
L 351.87932 338.766062 
L 358.806666 338.76623 
L 365.734012 338.767054 
L 372.661358 338.76765 
L 379.588704 338.767009 
L 386.51605 338.767436 
L 393.443396 338.768016 
L 400.370742 338.767787 
L 407.298088 338.768077 
L 414.225434 338.768138 
L 421.15278 338.768123 
L 428.080126 338.767772 
L 435.007473 338.768642 
L 441.934819 338.768703 
L 448.862165 338.768886 
L 455.789511 338.76881 
L 462.716857 338.768932 
L 469.644203 338.768871 
L 476.571549 338.768977 
L 483.498895 338.769161 
L 490.426241 338.769069 
L 497.353587 338.769374 
L 504.280933 338.769023 
L 511.208279 338.769359 
L 518.135625 338.769481 
L 525.062971 338.76942 
L 531.990317 338.769512 
L 538.917663 338.769634 
L 545.845009 338.769817 
L 552.772355 338.769786 
L 559.699701 338.76939 
L 566.627047 338.769924 
L 573.554393 338.769771 
L 580.481739 338.770076 
L 587.409085 338.769832 
L 594.336431 338.769924 
L 601.263777 338.770061 
L 608.191124 338.769909 
L 615.11847 338.77026 
L 622.045816 338.770061 
L 628.973162 338.77 
L 635.900508 338.770183 
L 642.827854 338.770275 
L 649.7552 338.770214 
L 656.682546 338.770061 
L 663.609892 338.770046 
L 670.537238 338.770122 
L 677.464584 338.770015 
L 684.39193 338.770229 
L 691.319276 338.770244 
L 698.246622 338.770336 
L 705.173968 338.770565 
L 712.101314 338.770199 
L 719.02866 338.770458 
L 725.956006 338.770534 
L 732.883352 338.770473 
L 739.810698 338.770366 
L 746.738044 338.770428 
L 753.66539 338.770397 
L 760.592736 338.770428 
L 767.520082 338.770489 
L 774.447429 338.770611 
L 781.374775 338.770458 
L 788.302121 338.77026 
L 795.229467 338.77058 
L 802.156813 338.77055 
L 809.084159 338.770611 
L 816.011505 338.770534 
L 822.938851 338.770641 
L 829.866197 338.770504 
L 836.793543 338.770412 
L 843.720889 338.770397 
L 850.648235 338.77055 
L 857.575581 338.77055 
L 864.502927 338.770443 
L 871.430273 338.770595 
L 878.357619 338.770489 
L 885.284965 338.770656 
L 892.212311 338.770611 
L 899.139657 338.770611 
L 906.067003 338.770565 
L 912.994349 338.770687 
L 919.921695 338.770687 
L 926.849041 338.770687 
L 933.776387 338.770687 
L 940.703734 338.770702 
L 947.63108 338.770687 
" style="fill:none;stroke:#f7a35c;stroke-linecap:square;"/>
   </g>
   <g id="line2d_23">
    <path clip-path="url(#p6143de0de3)" d="M 88.64017 161.91769 
L 95.567516 325.205447 
L 102.494863 335.137495 
L 109.422209 337.206577 
L 116.349555 337.923755 
L 123.276901 338.248696 
L 130.204247 338.419524 
L 137.131593 338.516583 
L 144.058939 338.578644 
L 150.986285 338.621381 
L 157.913631 338.655174 
L 164.840977 338.676268 
L 171.768323 338.691669 
L 178.695669 338.703193 
L 185.623015 338.713434 
L 192.550361 338.722485 
L 199.477707 338.726881 
L 206.405053 338.733109 
L 213.332399 338.737993 
L 220.259745 338.74132 
L 227.187091 338.743305 
L 234.114437 338.746449 
L 241.041783 338.748967 
L 247.969129 338.751242 
L 254.896475 338.75263 
L 261.823821 338.753882 
L 268.751168 338.755164 
L 275.678514 338.757209 
L 282.60586 338.758186 
L 289.533206 338.758904 
L 296.460552 338.759178 
L 303.387898 338.760201 
L 310.315244 338.760934 
L 317.24259 338.76156 
L 324.169936 338.762048 
L 331.097282 338.763254 
L 338.024628 338.76304 
L 344.951974 338.763544 
L 351.87932 338.764124 
L 358.806666 338.763773 
L 365.734012 338.764231 
L 372.661358 338.764887 
L 379.588704 338.764734 
L 386.51605 338.76565 
L 393.443396 338.765726 
L 400.370742 338.76594 
L 407.298088 338.766215 
L 414.225434 338.76623 
L 421.15278 338.766551 
L 428.080126 338.766581 
L 435.007473 338.766947 
L 441.934819 338.767497 
L 448.862165 338.766902 
L 455.789511 338.767436 
L 462.716857 338.767711 
L 469.644203 338.767894 
L 476.571549 338.767863 
L 483.498895 338.768138 
L 490.426241 338.767863 
L 497.353587 338.768321 
L 504.280933 338.768107 
L 511.208279 338.768321 
L 518.135625 338.768367 
L 525.062971 338.768504 
L 531.990317 338.768336 
L 538.917663 338.768291 
L 545.845009 338.768581 
L 552.772355 338.769008 
L 559.699701 338.769023 
L 566.627047 338.768687 
L 573.554393 338.769084 
L 580.481739 338.769344 
L 587.409085 338.768825 
L 594.336431 338.769176 
L 601.263777 338.768947 
L 608.191124 338.76913 
L 615.11847 338.769512 
L 622.045816 338.769725 
L 628.973162 338.769557 
L 635.900508 338.769466 
L 642.827854 338.769542 
L 649.7552 338.769741 
L 656.682546 338.769634 
L 663.609892 338.769695 
L 670.537238 338.769619 
L 677.464584 338.769603 
L 684.39193 338.769619 
L 691.319276 338.769878 
L 698.246622 338.76971 
L 705.173968 338.769664 
L 712.101314 338.769878 
L 719.02866 338.769802 
L 725.956006 338.769771 
L 732.883352 338.769863 
L 739.810698 338.77 
L 746.738044 338.769909 
L 753.66539 338.769954 
L 760.592736 338.769848 
L 767.520082 338.769924 
L 774.447429 338.770244 
L 781.374775 338.770107 
L 788.302121 338.769985 
L 795.229467 338.769985 
L 802.156813 338.770153 
L 809.084159 338.770214 
L 816.011505 338.770092 
L 822.938851 338.770107 
L 829.866197 338.770305 
L 836.793543 338.770092 
L 843.720889 338.77026 
L 850.648235 338.770168 
L 857.575581 338.770107 
L 864.502927 338.770275 
L 871.430273 338.770305 
L 878.357619 338.770366 
L 885.284965 338.770244 
L 892.212311 338.770321 
L 899.139657 338.770412 
L 906.067003 338.770336 
L 912.994349 338.770305 
L 919.921695 338.770489 
L 926.849041 338.770275 
L 933.776387 338.770336 
L 940.703734 338.770382 
L 947.63108 338.770473 
" style="fill:none;stroke:#8085e9;stroke-linecap:square;"/>
   </g>
   <g id="line2d_24">
    <path clip-path="url(#p6143de0de3)" d="M 88.64017 128.130368 
L 95.567516 327.397445 
L 102.494863 335.698957 
L 109.422209 337.436199 
L 116.349555 338.048609 
L 123.276901 338.323029 
L 130.204247 338.468916 
L 137.131593 338.556665 
L 144.058939 338.611735 
L 150.986285 338.643772 
L 157.913631 338.671643 
L 164.840977 338.689852 
L 171.768323 338.704307 
L 178.695669 338.713602 
L 185.623015 338.722669 
L 192.550361 338.728789 
L 199.477707 338.735917 
L 206.405053 338.73929 
L 213.332399 338.74274 
L 220.259745 338.745884 
L 227.187091 338.748296 
L 234.114437 338.750356 
L 241.041783 338.752005 
L 247.969129 338.754676 
L 254.896475 338.756263 
L 261.823821 338.756553 
L 268.751168 338.757896 
L 275.678514 338.759484 
L 282.60586 338.760552 
L 289.533206 338.761056 
L 296.460552 338.761773 
L 303.387898 338.762323 
L 310.315244 338.762674 
L 317.24259 338.76304 
L 324.169936 338.763849 
L 331.097282 338.764475 
L 338.024628 338.764826 
L 344.951974 338.765024 
L 351.87932 338.765055 
L 358.806666 338.765726 
L 365.734012 338.766108 
L 372.661358 338.765711 
L 379.588704 338.766383 
L 386.51605 338.766383 
L 393.443396 338.766657 
L 400.370742 338.766795 
L 407.298088 338.76739 
L 414.225434 338.767695 
L 421.15278 338.767695 
L 428.080126 338.767558 
L 435.007473 338.767894 
L 441.934819 338.767619 
L 448.862165 338.767634 
L 455.789511 338.768336 
L 462.716857 338.768107 
L 469.644203 338.768382 
L 476.571549 338.768749 
L 483.498895 338.768291 
L 490.426241 338.768672 
L 497.353587 338.7691 
L 504.280933 338.769145 
L 511.208279 338.769206 
L 518.135625 338.769237 
L 525.062971 338.768962 
L 531.990317 338.769512 
L 538.917663 338.769115 
L 545.845009 338.769267 
L 552.772355 338.768947 
L 559.699701 338.76913 
L 566.627047 338.769267 
L 573.554393 338.769374 
L 580.481739 338.769649 
L 587.409085 338.769786 
L 594.336431 338.769496 
L 601.263777 338.76971 
L 608.191124 338.769771 
L 615.11847 338.76971 
L 622.045816 338.769695 
L 628.973162 338.769893 
L 635.900508 338.769619 
L 642.827854 338.769786 
L 649.7552 338.76968 
L 656.682546 338.769832 
L 663.609892 338.769909 
L 670.537238 338.77 
L 677.464584 338.77 
L 684.39193 338.770122 
L 691.319276 338.770031 
L 698.246622 338.77026 
L 705.173968 338.770122 
L 712.101314 338.770015 
L 719.02866 338.769939 
L 725.956006 338.770321 
L 732.883352 338.769893 
L 739.810698 338.770336 
L 746.738044 338.770214 
L 753.66539 338.770199 
L 760.592736 338.770183 
L 767.520082 338.770366 
L 774.447429 338.770168 
L 781.374775 338.770366 
L 788.302121 338.770275 
L 795.229467 338.770305 
L 802.156813 338.770214 
L 809.084159 338.770275 
L 816.011505 338.770428 
L 822.938851 338.770443 
L 829.866197 338.770565 
L 836.793543 338.770489 
L 843.720889 338.770382 
L 850.648235 338.770595 
L 857.575581 338.770489 
L 864.502927 338.770458 
L 871.430273 338.770351 
L 878.357619 338.770473 
L 885.284965 338.77055 
L 892.212311 338.770366 
L 899.139657 338.77029 
L 906.067003 338.770473 
L 912.994349 338.770458 
L 919.921695 338.77055 
L 926.849041 338.770565 
L 933.776387 338.770443 
L 940.703734 338.770641 
L 947.63108 338.770626 
" style="fill:none;stroke:#f15c80;stroke-linecap:square;"/>
   </g>
   <g id="line2d_25">
    <path clip-path="url(#p6143de0de3)" d="M 88.64017 142.863253 
L 95.567516 326.521772 
L 102.494863 335.4505 
L 109.422209 337.310765 
L 116.349555 337.971682 
L 123.276901 338.271027 
L 130.204247 338.435596 
L 137.131593 338.532671 
L 144.058939 338.587329 
L 150.986285 338.627502 
L 157.913631 338.656685 
L 164.840977 338.679504 
L 171.768323 338.694447 
L 178.695669 338.70652 
L 185.623015 338.715052 
L 192.550361 338.724683 
L 199.477707 338.729888 
L 206.405053 338.734437 
L 213.332399 338.737718 
L 220.259745 338.741488 
L 227.187091 338.746266 
L 234.114437 338.74625 
L 241.041783 338.749868 
L 247.969129 338.75118 
L 254.896475 338.753439 
L 261.823821 338.753653 
L 268.751168 338.756233 
L 275.678514 338.757118 
L 282.60586 338.75724 
L 289.533206 338.759606 
L 296.460552 338.760048 
L 303.387898 338.760842 
L 310.315244 338.761453 
L 317.24259 338.761987 
L 324.169936 338.762323 
L 331.097282 338.762781 
L 338.024628 338.763376 
L 344.951974 338.76362 
L 351.87932 338.764078 
L 358.806666 338.764566 
L 365.734012 338.764475 
L 372.661358 338.765223 
L 379.588704 338.76475 
L 386.51605 338.765833 
L 393.443396 338.765528 
L 400.370742 338.766352 
L 407.298088 338.766215 
L 414.225434 338.766688 
L 421.15278 338.766947 
L 428.080126 338.766886 
L 435.007473 338.767299 
L 441.934819 338.767283 
L 448.862165 338.767634 
L 455.789511 338.767268 
L 462.716857 338.768001 
L 469.644203 338.767619 
L 476.571549 338.768169 
L 483.498895 338.767894 
L 490.426241 338.767589 
L 497.353587 338.768367 
L 504.280933 338.768336 
L 511.208279 338.768321 
L 518.135625 338.768657 
L 525.062971 338.768733 
L 531.990317 338.768428 
L 538.917663 338.768703 
L 545.845009 338.768871 
L 552.772355 338.768672 
L 559.699701 338.768886 
L 566.627047 338.76913 
L 573.554393 338.769191 
L 580.481739 338.769115 
L 587.409085 338.769161 
L 594.336431 338.769084 
L 601.263777 338.768916 
L 608.191124 338.76939 
L 615.11847 338.769267 
L 622.045816 338.769222 
L 628.973162 338.769267 
L 635.900508 338.769451 
L 642.827854 338.769588 
L 649.7552 338.769802 
L 656.682546 338.769573 
L 663.609892 338.769649 
L 670.537238 338.769588 
L 677.464584 338.769756 
L 684.39193 338.769649 
L 691.319276 338.77 
L 698.246622 338.769664 
L 705.173968 338.769786 
L 712.101314 338.769878 
L 719.02866 338.770046 
L 725.956006 338.769771 
L 732.883352 338.769924 
L 739.810698 338.769893 
L 746.738044 338.769909 
L 753.66539 338.769985 
L 760.592736 338.770153 
L 767.520082 338.770138 
L 774.447429 338.770138 
L 781.374775 338.770153 
L 788.302121 338.77029 
L 795.229467 338.769954 
L 802.156813 338.770199 
L 809.084159 338.770183 
L 816.011505 338.770107 
L 822.938851 338.770138 
L 829.866197 338.770183 
L 836.793543 338.770244 
L 843.720889 338.770244 
L 850.648235 338.770199 
L 857.575581 338.770153 
L 864.502927 338.770229 
L 871.430273 338.770153 
L 878.357619 338.770275 
L 885.284965 338.770473 
L 892.212311 338.770489 
L 899.139657 338.770489 
L 906.067003 338.770473 
L 912.994349 338.770489 
L 919.921695 338.770504 
L 926.849041 338.770336 
L 933.776387 338.770366 
L 940.703734 338.770458 
L 947.63108 338.770534 
" style="fill:none;stroke:#e4d354;stroke-linecap:square;"/>
   </g>
   <g id="line2d_26">
    <path clip-path="url(#p6143de0de3)" d="M 88.64017 106.42495 
L 95.567516 323.700132 
L 102.494863 334.523726 
L 109.422209 336.910759 
L 116.349555 337.765139 
L 123.276901 338.164183 
L 130.204247 338.369582 
L 137.131593 338.490483 
L 144.058939 338.565868 
L 150.986285 338.613719 
L 157.913631 338.649557 
L 164.840977 338.675154 
L 171.768323 338.692798 
L 178.695669 338.705909 
L 185.623015 338.716136 
L 192.550361 338.724332 
L 199.477707 338.731384 
L 206.405053 338.738512 
L 213.332399 338.742084 
L 220.259745 338.744755 
L 227.187091 338.74741 
L 234.114437 338.751089 
L 241.041783 338.753073 
L 247.969129 338.755073 
L 254.896475 338.756965 
L 261.823821 338.758034 
L 268.751168 338.759026 
L 275.678514 338.760399 
L 282.60586 338.76098 
L 289.533206 338.761727 
L 296.460552 338.762536 
L 303.387898 338.763162 
L 310.315244 338.763666 
L 317.24259 338.763971 
L 324.169936 338.764933 
L 331.097282 338.765146 
L 338.024628 338.765696 
L 344.951974 338.766245 
L 351.87932 338.765818 
L 358.806666 338.766719 
L 365.734012 338.767192 
L 372.661358 338.767237 
L 379.588704 338.767405 
L 386.51605 338.767466 
L 393.443396 338.767482 
L 400.370742 338.768413 
L 407.298088 338.767924 
L 414.225434 338.768428 
L 421.15278 338.768489 
L 428.080126 338.76852 
L 435.007473 338.768672 
L 441.934819 338.768947 
L 448.862165 338.768733 
L 455.789511 338.768672 
L 462.716857 338.769298 
L 469.644203 338.769008 
L 476.571549 338.769176 
L 483.498895 338.769313 
L 490.426241 338.769267 
L 497.353587 338.769283 
L 504.280933 338.769664 
L 511.208279 338.76968 
L 518.135625 338.769527 
L 525.062971 338.769802 
L 531.990317 338.769848 
L 538.917663 338.769802 
L 545.845009 338.769756 
L 552.772355 338.769893 
L 559.699701 338.769893 
L 566.627047 338.770046 
L 573.554393 338.770061 
L 580.481739 338.769848 
L 587.409085 338.769909 
L 594.336431 338.769893 
L 601.263777 338.769802 
L 608.191124 338.770183 
L 615.11847 338.770336 
L 622.045816 338.770107 
L 628.973162 338.770061 
L 635.900508 338.770305 
L 642.827854 338.770214 
L 649.7552 338.770321 
L 656.682546 338.770229 
L 663.609892 338.770489 
L 670.537238 338.770412 
L 677.464584 338.770397 
L 684.39193 338.770336 
L 691.319276 338.770336 
L 698.246622 338.770336 
L 705.173968 338.770412 
L 712.101314 338.770473 
L 719.02866 338.770443 
L 725.956006 338.770351 
L 732.883352 338.770458 
L 739.810698 338.770351 
L 746.738044 338.77058 
L 753.66539 338.770565 
L 760.592736 338.770504 
L 767.520082 338.770504 
L 774.447429 338.770611 
L 781.374775 338.770443 
L 788.302121 338.770504 
L 795.229467 338.770519 
L 802.156813 338.77055 
L 809.084159 338.770565 
L 816.011505 338.770504 
L 822.938851 338.77055 
L 829.866197 338.77058 
L 836.793543 338.770565 
L 843.720889 338.770595 
L 850.648235 338.77058 
L 857.575581 338.77058 
L 864.502927 338.770489 
L 871.430273 338.770641 
L 878.357619 338.770702 
L 885.284965 338.770672 
L 892.212311 338.770641 
L 899.139657 338.770565 
L 906.067003 338.770687 
L 912.994349 338.770718 
L 919.921695 338.770504 
L 926.849041 338.770702 
L 933.776387 338.770656 
L 940.703734 338.770504 
L 947.63108 338.770626 
" style="fill:none;stroke:#2b908f;stroke-linecap:square;"/>
   </g>
   <g id="line2d_27">
    <path clip-path="url(#p6143de0de3)" d="M 45.690625 338.770916 
L 990.580625 338.770916 
" style="fill:none;stroke:#dedede;stroke-linecap:square;stroke-width:2;"/>
   </g>
   <g id="text_18">
    <!-- RSeQC: Read Duplication -->
    <defs>
     <path d="M 53.515625 70.515625 
L 53.515625 60.890625 
Q 47.90625 63.578125 42.921875 64.890625 
Q 37.9375 66.21875 33.296875 66.21875 
Q 25.25 66.21875 20.875 63.09375 
Q 16.5 59.96875 16.5 54.203125 
Q 16.5 49.359375 19.40625 46.890625 
Q 22.3125 44.4375 30.421875 42.921875 
L 36.375 41.703125 
Q 47.40625 39.59375 52.65625 34.296875 
Q 57.90625 29 57.90625 20.125 
Q 57.90625 9.515625 50.796875 4.046875 
Q 43.703125 -1.421875 29.984375 -1.421875 
Q 24.8125 -1.421875 18.96875 -0.25 
Q 13.140625 0.921875 6.890625 3.21875 
L 6.890625 13.375 
Q 12.890625 10.015625 18.65625 8.296875 
Q 24.421875 6.59375 29.984375 6.59375 
Q 38.421875 6.59375 43.015625 9.90625 
Q 47.609375 13.234375 47.609375 19.390625 
Q 47.609375 24.75 44.3125 27.78125 
Q 41.015625 30.8125 33.5 32.328125 
L 27.484375 33.5 
Q 16.453125 35.6875 11.515625 40.375 
Q 6.59375 45.0625 6.59375 53.421875 
Q 6.59375 63.09375 13.40625 68.65625 
Q 20.21875 74.21875 32.171875 74.21875 
Q 37.3125 74.21875 42.625 73.28125 
Q 47.953125 72.359375 53.515625 70.515625 
z
" id="DejaVuSans-83"/>
     <path d="M 39.40625 66.21875 
Q 28.65625 66.21875 22.328125 58.203125 
Q 16.015625 50.203125 16.015625 36.375 
Q 16.015625 22.609375 22.328125 14.59375 
Q 28.65625 6.59375 39.40625 6.59375 
Q 50.140625 6.59375 56.421875 14.59375 
Q 62.703125 22.609375 62.703125 36.375 
Q 62.703125 50.203125 56.421875 58.203125 
Q 50.140625 66.21875 39.40625 66.21875 
z
M 53.21875 1.3125 
L 66.21875 -12.890625 
L 54.296875 -12.890625 
L 43.5 -1.21875 
Q 41.890625 -1.3125 41.03125 -1.359375 
Q 40.1875 -1.421875 39.40625 -1.421875 
Q 24.03125 -1.421875 14.8125 8.859375 
Q 5.609375 19.140625 5.609375 36.375 
Q 5.609375 53.65625 14.8125 63.9375 
Q 24.03125 74.21875 39.40625 74.21875 
Q 54.734375 74.21875 63.90625 63.9375 
Q 73.09375 53.65625 73.09375 36.375 
Q 73.09375 23.6875 67.984375 14.640625 
Q 62.890625 5.609375 53.21875 1.3125 
z
" id="DejaVuSans-81"/>
     <path d="M 64.40625 67.28125 
L 64.40625 56.890625 
Q 59.421875 61.53125 53.78125 63.8125 
Q 48.140625 66.109375 41.796875 66.109375 
Q 29.296875 66.109375 22.65625 58.46875 
Q 16.015625 50.828125 16.015625 36.375 
Q 16.015625 21.96875 22.65625 14.328125 
Q 29.296875 6.6875 41.796875 6.6875 
Q 48.140625 6.6875 53.78125 8.984375 
Q 59.421875 11.28125 64.40625 15.921875 
L 64.40625 5.609375 
Q 59.234375 2.09375 53.4375 0.328125 
Q 47.65625 -1.421875 41.21875 -1.421875 
Q 24.65625 -1.421875 15.125 8.703125 
Q 5.609375 18.84375 5.609375 36.375 
Q 5.609375 53.953125 15.125 64.078125 
Q 24.65625 74.21875 41.21875 74.21875 
Q 47.75 74.21875 53.53125 72.484375 
Q 59.328125 70.75 64.40625 67.28125 
z
" id="DejaVuSans-67"/>
     <path d="M 11.71875 12.40625 
L 22.015625 12.40625 
L 22.015625 0 
L 11.71875 0 
z
M 11.71875 51.703125 
L 22.015625 51.703125 
L 22.015625 39.3125 
L 11.71875 39.3125 
z
" id="DejaVuSans-58"/>
     <path d="M 19.671875 64.796875 
L 19.671875 8.109375 
L 31.59375 8.109375 
Q 46.6875 8.109375 53.6875 14.9375 
Q 60.6875 21.78125 60.6875 36.53125 
Q 60.6875 51.171875 53.6875 57.984375 
Q 46.6875 64.796875 31.59375 64.796875 
z
M 9.8125 72.90625 
L 30.078125 72.90625 
Q 51.265625 72.90625 61.171875 64.09375 
Q 71.09375 55.28125 71.09375 36.53125 
Q 71.09375 17.671875 61.125 8.828125 
Q 51.171875 0 30.078125 0 
L 9.8125 0 
z
" id="DejaVuSans-68"/>
     <path d="M 18.109375 8.203125 
L 18.109375 -20.796875 
L 9.078125 -20.796875 
L 9.078125 54.6875 
L 18.109375 54.6875 
L 18.109375 46.390625 
Q 20.953125 51.265625 25.265625 53.625 
Q 29.59375 56 35.59375 56 
Q 45.5625 56 51.78125 48.09375 
Q 58.015625 40.1875 58.015625 27.296875 
Q 58.015625 14.40625 51.78125 6.484375 
Q 45.5625 -1.421875 35.59375 -1.421875 
Q 29.59375 -1.421875 25.265625 0.953125 
Q 20.953125 3.328125 18.109375 8.203125 
z
M 48.6875 27.296875 
Q 48.6875 37.203125 44.609375 42.84375 
Q 40.53125 48.484375 33.40625 48.484375 
Q 26.265625 48.484375 22.1875 42.84375 
Q 18.109375 37.203125 18.109375 27.296875 
Q 18.109375 17.390625 22.1875 11.75 
Q 26.265625 6.109375 33.40625 6.109375 
Q 40.53125 6.109375 44.609375 11.75 
Q 48.6875 17.390625 48.6875 27.296875 
z
" id="DejaVuSans-112"/>
     <path d="M 9.421875 54.6875 
L 18.40625 54.6875 
L 18.40625 0 
L 9.421875 0 
z
M 9.421875 75.984375 
L 18.40625 75.984375 
L 18.40625 64.59375 
L 9.421875 64.59375 
z
" id="DejaVuSans-105"/>
     <path d="M 18.3125 70.21875 
L 18.3125 54.6875 
L 36.8125 54.6875 
L 36.8125 47.703125 
L 18.3125 47.703125 
L 18.3125 18.015625 
Q 18.3125 11.328125 20.140625 9.421875 
Q 21.96875 7.515625 27.59375 7.515625 
L 36.8125 7.515625 
L 36.8125 0 
L 27.59375 0 
Q 17.1875 0 13.234375 3.875 
Q 9.28125 7.765625 9.28125 18.015625 
L 9.28125 47.703125 
L 2.6875 47.703125 
L 2.6875 54.6875 
L 9.28125 54.6875 
L 9.28125 70.21875 
z
" id="DejaVuSans-116"/>
    </defs>
    <g transform="translate(417.075625 19.3575)scale(0.16 -0.16)">
     <use xlink:href="#DejaVuSans-82"/>
     <use x="69.482422" xlink:href="#DejaVuSans-83"/>
     <use x="132.958984" xlink:href="#DejaVuSans-101"/>
     <use x="194.482422" xlink:href="#DejaVuSans-81"/>
     <use x="273.193359" xlink:href="#DejaVuSans-67"/>
     <use x="343.017578" xlink:href="#DejaVuSans-58"/>
     <use x="376.708984" xlink:href="#DejaVuSans-32"/>
     <use x="408.496094" xlink:href="#DejaVuSans-82"/>
     <use x="477.916016" xlink:href="#DejaVuSans-101"/>
     <use x="539.439453" xlink:href="#DejaVuSans-97"/>
     <use x="600.71875" xlink:href="#DejaVuSans-100"/>
     <use x="664.195312" xlink:href="#DejaVuSans-32"/>
     <use x="695.982422" xlink:href="#DejaVuSans-68"/>
     <use x="772.984375" xlink:href="#DejaVuSans-117"/>
     <use x="836.363281" xlink:href="#DejaVuSans-112"/>
     <use x="899.839844" xlink:href="#DejaVuSans-108"/>
     <use x="927.623047" xlink:href="#DejaVuSans-105"/>
     <use x="955.40625" xlink:href="#DejaVuSans-99"/>
     <use x="1010.386719" xlink:href="#DejaVuSans-97"/>
     <use x="1071.666016" xlink:href="#DejaVuSans-116"/>
     <use x="1110.875" xlink:href="#DejaVuSans-105"/>
     <use x="1138.658203" xlink:href="#DejaVuSans-111"/>
     <use x="1199.839844" xlink:href="#DejaVuSans-110"/>
    </g>
   </g>
  </g>
 </g>
 <defs>
  <clipPath id="p6143de0de3">
   <rect height="317.968" width="944.89" x="45.690625" y="35.2559"/>
  </clipPath>
 </defs>
</svg>
