<?xml version="1.0" encoding="utf-8" standalone="no"?>
<!DOCTYPE svg PUBLIC "-//W3C//DTD SVG 1.1//EN"
  "http://www.w3.org/Graphics/SVG/1.1/DTD/svg11.dtd">
<!-- Created with matplotlib (https://matplotlib.org/) -->
<svg height="530.938261pt" version="1.1" viewBox="0 0 879.54 530.938261" width="879.54pt" xmlns="http://www.w3.org/2000/svg" xmlns:xlink="http://www.w3.org/1999/xlink">
 <defs>
  <style type="text/css">
*{stroke-linecap:butt;stroke-linejoin:round;}
  </style>
 </defs>
 <g id="figure_1">
  <g id="patch_1">
   <path d="M 0 530.938261 
L 879.54 530.938261 
L 879.54 0 
L 0 0 
z
" style="fill:#ffffff;"/>
  </g>
  <g id="axes_1">
   <g id="patch_2">
    <path d="M 79.704375 444.578261 
L 860.904375 444.578261 
L 860.904375 10.7 
L 79.704375 10.7 
z
" style="fill:#ffffff;"/>
   </g>
   <g id="matplotlib.axis_1">
    <g id="xtick_1">
     <g id="line2d_1">
      <path clip-path="url(#pfc7bfd1200)" d="M 79.704375 444.578261 
L 79.704375 10.7 
" style="fill:none;stroke:#dedede;stroke-linecap:square;"/>
     </g>
     <g id="text_1">
      <!-- 0% -->
      <defs>
       <path d="M 31.78125 66.40625 
Q 24.171875 66.40625 20.328125 58.90625 
Q 16.5 51.421875 16.5 36.375 
Q 16.5 21.390625 20.328125 13.890625 
Q 24.171875 6.390625 31.78125 6.390625 
Q 39.453125 6.390625 43.28125 13.890625 
Q 47.125 21.390625 47.125 36.375 
Q 47.125 51.421875 43.28125 58.90625 
Q 39.453125 66.40625 31.78125 66.40625 
z
M 31.78125 74.21875 
Q 44.046875 74.21875 50.515625 64.515625 
Q 56.984375 54.828125 56.984375 36.375 
Q 56.984375 17.96875 50.515625 8.265625 
Q 44.046875 -1.421875 31.78125 -1.421875 
Q 19.53125 -1.421875 13.0625 8.265625 
Q 6.59375 17.96875 6.59375 36.375 
Q 6.59375 54.828125 13.0625 64.515625 
Q 19.53125 74.21875 31.78125 74.21875 
z
" id="DejaVuSans-48"/>
       <path d="M 72.703125 32.078125 
Q 68.453125 32.078125 66.03125 28.46875 
Q 63.625 24.859375 63.625 18.40625 
Q 63.625 12.0625 66.03125 8.421875 
Q 68.453125 4.78125 72.703125 4.78125 
Q 76.859375 4.78125 79.265625 8.421875 
Q 81.6875 12.0625 81.6875 18.40625 
Q 81.6875 24.8125 79.265625 28.4375 
Q 76.859375 32.078125 72.703125 32.078125 
z
M 72.703125 38.28125 
Q 80.421875 38.28125 84.953125 32.90625 
Q 89.5 27.546875 89.5 18.40625 
Q 89.5 9.28125 84.9375 3.921875 
Q 80.375 -1.421875 72.703125 -1.421875 
Q 64.890625 -1.421875 60.34375 3.921875 
Q 55.8125 9.28125 55.8125 18.40625 
Q 55.8125 27.59375 60.375 32.9375 
Q 64.9375 38.28125 72.703125 38.28125 
z
M 22.3125 68.015625 
Q 18.109375 68.015625 15.6875 64.375 
Q 13.28125 60.75 13.28125 54.390625 
Q 13.28125 47.953125 15.671875 44.328125 
Q 18.0625 40.71875 22.3125 40.71875 
Q 26.5625 40.71875 28.96875 44.328125 
Q 31.390625 47.953125 31.390625 54.390625 
Q 31.390625 60.6875 28.953125 64.34375 
Q 26.515625 68.015625 22.3125 68.015625 
z
M 66.40625 74.21875 
L 74.21875 74.21875 
L 28.609375 -1.421875 
L 20.796875 -1.421875 
z
M 22.3125 74.21875 
Q 30.03125 74.21875 34.609375 68.875 
Q 39.203125 63.53125 39.203125 54.390625 
Q 39.203125 45.171875 34.640625 39.84375 
Q 30.078125 34.515625 22.3125 34.515625 
Q 14.546875 34.515625 10.03125 39.859375 
Q 5.515625 45.21875 5.515625 54.390625 
Q 5.515625 63.484375 10.046875 68.84375 
Q 14.59375 74.21875 22.3125 74.21875 
z
" id="DejaVuSans-37"/>
      </defs>
      <g transform="translate(73.35875 457.657011)scale(0.08 -0.08)">
       <use xlink:href="#DejaVuSans-48"/>
       <use x="63.623047" xlink:href="#DejaVuSans-37"/>
      </g>
     </g>
    </g>
    <g id="xtick_2">
     <g id="line2d_2">
      <path clip-path="url(#pfc7bfd1200)" d="M 235.944375 444.578261 
L 235.944375 10.7 
" style="fill:none;stroke:#dedede;stroke-linecap:square;"/>
     </g>
     <g id="text_2">
      <!-- 20% -->
      <defs>
       <path d="M 19.1875 8.296875 
L 53.609375 8.296875 
L 53.609375 0 
L 7.328125 0 
L 7.328125 8.296875 
Q 12.9375 14.109375 22.625 23.890625 
Q 32.328125 33.6875 34.8125 36.53125 
Q 39.546875 41.84375 41.421875 45.53125 
Q 43.3125 49.21875 43.3125 52.78125 
Q 43.3125 58.59375 39.234375 62.25 
Q 35.15625 65.921875 28.609375 65.921875 
Q 23.96875 65.921875 18.8125 64.3125 
Q 13.671875 62.703125 7.8125 59.421875 
L 7.8125 69.390625 
Q 13.765625 71.78125 18.9375 73 
Q 24.125 74.21875 28.421875 74.21875 
Q 39.75 74.21875 46.484375 68.546875 
Q 53.21875 62.890625 53.21875 53.421875 
Q 53.21875 48.921875 51.53125 44.890625 
Q 49.859375 40.875 45.40625 35.40625 
Q 44.1875 33.984375 37.640625 27.21875 
Q 31.109375 20.453125 19.1875 8.296875 
z
" id="DejaVuSans-50"/>
      </defs>
      <g transform="translate(227.05375 457.657011)scale(0.08 -0.08)">
       <use xlink:href="#DejaVuSans-50"/>
       <use x="63.623047" xlink:href="#DejaVuSans-48"/>
       <use x="127.246094" xlink:href="#DejaVuSans-37"/>
      </g>
     </g>
    </g>
    <g id="xtick_3">
     <g id="line2d_3">
      <path clip-path="url(#pfc7bfd1200)" d="M 392.184375 444.578261 
L 392.184375 10.7 
" style="fill:none;stroke:#dedede;stroke-linecap:square;"/>
     </g>
     <g id="text_3">
      <!-- 40% -->
      <defs>
       <path d="M 37.796875 64.3125 
L 12.890625 25.390625 
L 37.796875 25.390625 
z
M 35.203125 72.90625 
L 47.609375 72.90625 
L 47.609375 25.390625 
L 58.015625 25.390625 
L 58.015625 17.1875 
L 47.609375 17.1875 
L 47.609375 0 
L 37.796875 0 
L 37.796875 17.1875 
L 4.890625 17.1875 
L 4.890625 26.703125 
z
" id="DejaVuSans-52"/>
      </defs>
      <g transform="translate(383.29375 457.657011)scale(0.08 -0.08)">
       <use xlink:href="#DejaVuSans-52"/>
       <use x="63.623047" xlink:href="#DejaVuSans-48"/>
       <use x="127.246094" xlink:href="#DejaVuSans-37"/>
      </g>
     </g>
    </g>
    <g id="xtick_4">
     <g id="line2d_4">
      <path clip-path="url(#pfc7bfd1200)" d="M 548.424375 444.578261 
L 548.424375 10.7 
" style="fill:none;stroke:#dedede;stroke-linecap:square;"/>
     </g>
     <g id="text_4">
      <!-- 60% -->
      <defs>
       <path d="M 33.015625 40.375 
Q 26.375 40.375 22.484375 35.828125 
Q 18.609375 31.296875 18.609375 23.390625 
Q 18.609375 15.53125 22.484375 10.953125 
Q 26.375 6.390625 33.015625 6.390625 
Q 39.65625 6.390625 43.53125 10.953125 
Q 47.40625 15.53125 47.40625 23.390625 
Q 47.40625 31.296875 43.53125 35.828125 
Q 39.65625 40.375 33.015625 40.375 
z
M 52.59375 71.296875 
L 52.59375 62.3125 
Q 48.875 64.0625 45.09375 64.984375 
Q 41.3125 65.921875 37.59375 65.921875 
Q 27.828125 65.921875 22.671875 59.328125 
Q 17.53125 52.734375 16.796875 39.40625 
Q 19.671875 43.65625 24.015625 45.921875 
Q 28.375 48.1875 33.59375 48.1875 
Q 44.578125 48.1875 50.953125 41.515625 
Q 57.328125 34.859375 57.328125 23.390625 
Q 57.328125 12.15625 50.6875 5.359375 
Q 44.046875 -1.421875 33.015625 -1.421875 
Q 20.359375 -1.421875 13.671875 8.265625 
Q 6.984375 17.96875 6.984375 36.375 
Q 6.984375 53.65625 15.1875 63.9375 
Q 23.390625 74.21875 37.203125 74.21875 
Q 40.921875 74.21875 44.703125 73.484375 
Q 48.484375 72.75 52.59375 71.296875 
z
" id="DejaVuSans-54"/>
      </defs>
      <g transform="translate(539.53375 457.657011)scale(0.08 -0.08)">
       <use xlink:href="#DejaVuSans-54"/>
       <use x="63.623047" xlink:href="#DejaVuSans-48"/>
       <use x="127.246094" xlink:href="#DejaVuSans-37"/>
      </g>
     </g>
    </g>
    <g id="xtick_5">
     <g id="line2d_5">
      <path clip-path="url(#pfc7bfd1200)" d="M 704.664375 444.578261 
L 704.664375 10.7 
" style="fill:none;stroke:#dedede;stroke-linecap:square;"/>
     </g>
     <g id="text_5">
      <!-- 80% -->
      <defs>
       <path d="M 31.78125 34.625 
Q 24.75 34.625 20.71875 30.859375 
Q 16.703125 27.09375 16.703125 20.515625 
Q 16.703125 13.921875 20.71875 10.15625 
Q 24.75 6.390625 31.78125 6.390625 
Q 38.8125 6.390625 42.859375 10.171875 
Q 46.921875 13.96875 46.921875 20.515625 
Q 46.921875 27.09375 42.890625 30.859375 
Q 38.875 34.625 31.78125 34.625 
z
M 21.921875 38.8125 
Q 15.578125 40.375 12.03125 44.71875 
Q 8.5 49.078125 8.5 55.328125 
Q 8.5 64.0625 14.71875 69.140625 
Q 20.953125 74.21875 31.78125 74.21875 
Q 42.671875 74.21875 48.875 69.140625 
Q 55.078125 64.0625 55.078125 55.328125 
Q 55.078125 49.078125 51.53125 44.71875 
Q 48 40.375 41.703125 38.8125 
Q 48.828125 37.15625 52.796875 32.3125 
Q 56.78125 27.484375 56.78125 20.515625 
Q 56.78125 9.90625 50.3125 4.234375 
Q 43.84375 -1.421875 31.78125 -1.421875 
Q 19.734375 -1.421875 13.25 4.234375 
Q 6.78125 9.90625 6.78125 20.515625 
Q 6.78125 27.484375 10.78125 32.3125 
Q 14.796875 37.15625 21.921875 38.8125 
z
M 18.3125 54.390625 
Q 18.3125 48.734375 21.84375 45.5625 
Q 25.390625 42.390625 31.78125 42.390625 
Q 38.140625 42.390625 41.71875 45.5625 
Q 45.3125 48.734375 45.3125 54.390625 
Q 45.3125 60.0625 41.71875 63.234375 
Q 38.140625 66.40625 31.78125 66.40625 
Q 25.390625 66.40625 21.84375 63.234375 
Q 18.3125 60.0625 18.3125 54.390625 
z
" id="DejaVuSans-56"/>
      </defs>
      <g transform="translate(695.77375 457.657011)scale(0.08 -0.08)">
       <use xlink:href="#DejaVuSans-56"/>
       <use x="63.623047" xlink:href="#DejaVuSans-48"/>
       <use x="127.246094" xlink:href="#DejaVuSans-37"/>
      </g>
     </g>
    </g>
    <g id="xtick_6">
     <g id="line2d_6">
      <path clip-path="url(#pfc7bfd1200)" d="M 860.904375 444.578261 
L 860.904375 10.7 
" style="fill:none;stroke:#dedede;stroke-linecap:square;"/>
     </g>
     <g id="text_6">
      <!-- 100% -->
      <defs>
       <path d="M 12.40625 8.296875 
L 28.515625 8.296875 
L 28.515625 63.921875 
L 10.984375 60.40625 
L 10.984375 69.390625 
L 28.421875 72.90625 
L 38.28125 72.90625 
L 38.28125 8.296875 
L 54.390625 8.296875 
L 54.390625 0 
L 12.40625 0 
z
" id="DejaVuSans-49"/>
      </defs>
      <g transform="translate(849.46875 457.657011)scale(0.08 -0.08)">
       <use xlink:href="#DejaVuSans-49"/>
       <use x="63.623047" xlink:href="#DejaVuSans-48"/>
       <use x="127.246094" xlink:href="#DejaVuSans-48"/>
       <use x="190.869141" xlink:href="#DejaVuSans-37"/>
      </g>
     </g>
    </g>
   </g>
   <g id="matplotlib.axis_2">
    <g id="ytick_1">
     <g id="text_7">
      <!-- SRR7443467 -->
      <defs>
       <path d="M 53.515625 70.515625 
L 53.515625 60.890625 
Q 47.90625 63.578125 42.921875 64.890625 
Q 37.9375 66.21875 33.296875 66.21875 
Q 25.25 66.21875 20.875 63.09375 
Q 16.5 59.96875 16.5 54.203125 
Q 16.5 49.359375 19.40625 46.890625 
Q 22.3125 44.4375 30.421875 42.921875 
L 36.375 41.703125 
Q 47.40625 39.59375 52.65625 34.296875 
Q 57.90625 29 57.90625 20.125 
Q 57.90625 9.515625 50.796875 4.046875 
Q 43.703125 -1.421875 29.984375 -1.421875 
Q 24.8125 -1.421875 18.96875 -0.25 
Q 13.140625 0.921875 6.890625 3.21875 
L 6.890625 13.375 
Q 12.890625 10.015625 18.65625 8.296875 
Q 24.421875 6.59375 29.984375 6.59375 
Q 38.421875 6.59375 43.015625 9.90625 
Q 47.609375 13.234375 47.609375 19.390625 
Q 47.609375 24.75 44.3125 27.78125 
Q 41.015625 30.8125 33.5 32.328125 
L 27.484375 33.5 
Q 16.453125 35.6875 11.515625 40.375 
Q 6.59375 45.0625 6.59375 53.421875 
Q 6.59375 63.09375 13.40625 68.65625 
Q 20.21875 74.21875 32.171875 74.21875 
Q 37.3125 74.21875 42.625 73.28125 
Q 47.953125 72.359375 53.515625 70.515625 
z
" id="DejaVuSans-83"/>
       <path d="M 44.390625 34.1875 
Q 47.5625 33.109375 50.5625 29.59375 
Q 53.5625 26.078125 56.59375 19.921875 
L 66.609375 0 
L 56 0 
L 46.6875 18.703125 
Q 43.0625 26.03125 39.671875 28.421875 
Q 36.28125 30.8125 30.421875 30.8125 
L 19.671875 30.8125 
L 19.671875 0 
L 9.8125 0 
L 9.8125 72.90625 
L 32.078125 72.90625 
Q 44.578125 72.90625 50.734375 67.671875 
Q 56.890625 62.453125 56.890625 51.90625 
Q 56.890625 45.015625 53.6875 40.46875 
Q 50.484375 35.9375 44.390625 34.1875 
z
M 19.671875 64.796875 
L 19.671875 38.921875 
L 32.078125 38.921875 
Q 39.203125 38.921875 42.84375 42.21875 
Q 46.484375 45.515625 46.484375 51.90625 
Q 46.484375 58.296875 42.84375 61.546875 
Q 39.203125 64.796875 32.078125 64.796875 
z
" id="DejaVuSans-82"/>
       <path d="M 8.203125 72.90625 
L 55.078125 72.90625 
L 55.078125 68.703125 
L 28.609375 0 
L 18.3125 0 
L 43.21875 64.59375 
L 8.203125 64.59375 
z
" id="DejaVuSans-55"/>
       <path d="M 40.578125 39.3125 
Q 47.65625 37.796875 51.625 33 
Q 55.609375 28.21875 55.609375 21.1875 
Q 55.609375 10.40625 48.1875 4.484375 
Q 40.765625 -1.421875 27.09375 -1.421875 
Q 22.515625 -1.421875 17.65625 -0.515625 
Q 12.796875 0.390625 7.625 2.203125 
L 7.625 11.71875 
Q 11.71875 9.328125 16.59375 8.109375 
Q 21.484375 6.890625 26.8125 6.890625 
Q 36.078125 6.890625 40.9375 10.546875 
Q 45.796875 14.203125 45.796875 21.1875 
Q 45.796875 27.640625 41.28125 31.265625 
Q 36.765625 34.90625 28.71875 34.90625 
L 20.21875 34.90625 
L 20.21875 43.015625 
L 29.109375 43.015625 
Q 36.375 43.015625 40.234375 45.921875 
Q 44.09375 48.828125 44.09375 54.296875 
Q 44.09375 59.90625 40.109375 62.90625 
Q 36.140625 65.921875 28.71875 65.921875 
Q 24.65625 65.921875 20.015625 65.03125 
Q 15.375 64.15625 9.8125 62.3125 
L 9.8125 71.09375 
Q 15.4375 72.65625 20.34375 73.4375 
Q 25.25 74.21875 29.59375 74.21875 
Q 40.828125 74.21875 47.359375 69.109375 
Q 53.90625 64.015625 53.90625 55.328125 
Q 53.90625 49.265625 50.4375 45.09375 
Q 46.96875 40.921875 40.578125 39.3125 
z
" id="DejaVuSans-51"/>
      </defs>
      <g transform="translate(20.878125 25.791549)scale(0.08 -0.08)">
       <use xlink:href="#DejaVuSans-83"/>
       <use x="63.476562" xlink:href="#DejaVuSans-82"/>
       <use x="132.958984" xlink:href="#DejaVuSans-82"/>
       <use x="202.441406" xlink:href="#DejaVuSans-55"/>
       <use x="266.064453" xlink:href="#DejaVuSans-52"/>
       <use x="329.6875" xlink:href="#DejaVuSans-52"/>
       <use x="393.310547" xlink:href="#DejaVuSans-51"/>
       <use x="456.933594" xlink:href="#DejaVuSans-52"/>
       <use x="520.556641" xlink:href="#DejaVuSans-54"/>
       <use x="584.179688" xlink:href="#DejaVuSans-55"/>
      </g>
     </g>
    </g>
    <g id="ytick_2">
     <g id="text_8">
      <!-- SRR7443464 -->
      <g transform="translate(20.878125 49.895897)scale(0.08 -0.08)">
       <use xlink:href="#DejaVuSans-83"/>
       <use x="63.476562" xlink:href="#DejaVuSans-82"/>
       <use x="132.958984" xlink:href="#DejaVuSans-82"/>
       <use x="202.441406" xlink:href="#DejaVuSans-55"/>
       <use x="266.064453" xlink:href="#DejaVuSans-52"/>
       <use x="329.6875" xlink:href="#DejaVuSans-52"/>
       <use x="393.310547" xlink:href="#DejaVuSans-51"/>
       <use x="456.933594" xlink:href="#DejaVuSans-52"/>
       <use x="520.556641" xlink:href="#DejaVuSans-54"/>
       <use x="584.179688" xlink:href="#DejaVuSans-52"/>
      </g>
     </g>
    </g>
    <g id="ytick_3">
     <g id="text_9">
      <!-- SRR7443471 -->
      <g transform="translate(20.878125 74.000245)scale(0.08 -0.08)">
       <use xlink:href="#DejaVuSans-83"/>
       <use x="63.476562" xlink:href="#DejaVuSans-82"/>
       <use x="132.958984" xlink:href="#DejaVuSans-82"/>
       <use x="202.441406" xlink:href="#DejaVuSans-55"/>
       <use x="266.064453" xlink:href="#DejaVuSans-52"/>
       <use x="329.6875" xlink:href="#DejaVuSans-52"/>
       <use x="393.310547" xlink:href="#DejaVuSans-51"/>
       <use x="456.933594" xlink:href="#DejaVuSans-52"/>
       <use x="520.556641" xlink:href="#DejaVuSans-55"/>
       <use x="584.179688" xlink:href="#DejaVuSans-49"/>
      </g>
     </g>
    </g>
    <g id="ytick_4">
     <g id="text_10">
      <!-- SRR7443460 -->
      <g transform="translate(20.878125 98.104592)scale(0.08 -0.08)">
       <use xlink:href="#DejaVuSans-83"/>
       <use x="63.476562" xlink:href="#DejaVuSans-82"/>
       <use x="132.958984" xlink:href="#DejaVuSans-82"/>
       <use x="202.441406" xlink:href="#DejaVuSans-55"/>
       <use x="266.064453" xlink:href="#DejaVuSans-52"/>
       <use x="329.6875" xlink:href="#DejaVuSans-52"/>
       <use x="393.310547" xlink:href="#DejaVuSans-51"/>
       <use x="456.933594" xlink:href="#DejaVuSans-52"/>
       <use x="520.556641" xlink:href="#DejaVuSans-54"/>
       <use x="584.179688" xlink:href="#DejaVuSans-48"/>
      </g>
     </g>
    </g>
    <g id="ytick_5">
     <g id="text_11">
      <!-- SRR7443466 -->
      <g transform="translate(20.878125 122.20894)scale(0.08 -0.08)">
       <use xlink:href="#DejaVuSans-83"/>
       <use x="63.476562" xlink:href="#DejaVuSans-82"/>
       <use x="132.958984" xlink:href="#DejaVuSans-82"/>
       <use x="202.441406" xlink:href="#DejaVuSans-55"/>
       <use x="266.064453" xlink:href="#DejaVuSans-52"/>
       <use x="329.6875" xlink:href="#DejaVuSans-52"/>
       <use x="393.310547" xlink:href="#DejaVuSans-51"/>
       <use x="456.933594" xlink:href="#DejaVuSans-52"/>
       <use x="520.556641" xlink:href="#DejaVuSans-54"/>
       <use x="584.179688" xlink:href="#DejaVuSans-54"/>
      </g>
     </g>
    </g>
    <g id="ytick_6">
     <g id="text_12">
      <!-- SRR7443472 -->
      <g transform="translate(20.878125 146.313288)scale(0.08 -0.08)">
       <use xlink:href="#DejaVuSans-83"/>
       <use x="63.476562" xlink:href="#DejaVuSans-82"/>
       <use x="132.958984" xlink:href="#DejaVuSans-82"/>
       <use x="202.441406" xlink:href="#DejaVuSans-55"/>
       <use x="266.064453" xlink:href="#DejaVuSans-52"/>
       <use x="329.6875" xlink:href="#DejaVuSans-52"/>
       <use x="393.310547" xlink:href="#DejaVuSans-51"/>
       <use x="456.933594" xlink:href="#DejaVuSans-52"/>
       <use x="520.556641" xlink:href="#DejaVuSans-55"/>
       <use x="584.179688" xlink:href="#DejaVuSans-50"/>
      </g>
     </g>
    </g>
    <g id="ytick_7">
     <g id="text_13">
      <!-- SRR7443459 -->
      <defs>
       <path d="M 10.796875 72.90625 
L 49.515625 72.90625 
L 49.515625 64.59375 
L 19.828125 64.59375 
L 19.828125 46.734375 
Q 21.96875 47.46875 24.109375 47.828125 
Q 26.265625 48.1875 28.421875 48.1875 
Q 40.625 48.1875 47.75 41.5 
Q 54.890625 34.8125 54.890625 23.390625 
Q 54.890625 11.625 47.5625 5.09375 
Q 40.234375 -1.421875 26.90625 -1.421875 
Q 22.3125 -1.421875 17.546875 -0.640625 
Q 12.796875 0.140625 7.71875 1.703125 
L 7.71875 11.625 
Q 12.109375 9.234375 16.796875 8.0625 
Q 21.484375 6.890625 26.703125 6.890625 
Q 35.15625 6.890625 40.078125 11.328125 
Q 45.015625 15.765625 45.015625 23.390625 
Q 45.015625 31 40.078125 35.4375 
Q 35.15625 39.890625 26.703125 39.890625 
Q 22.75 39.890625 18.8125 39.015625 
Q 14.890625 38.140625 10.796875 36.28125 
z
" id="DejaVuSans-53"/>
       <path d="M 10.984375 1.515625 
L 10.984375 10.5 
Q 14.703125 8.734375 18.5 7.8125 
Q 22.3125 6.890625 25.984375 6.890625 
Q 35.75 6.890625 40.890625 13.453125 
Q 46.046875 20.015625 46.78125 33.40625 
Q 43.953125 29.203125 39.59375 26.953125 
Q 35.25 24.703125 29.984375 24.703125 
Q 19.046875 24.703125 12.671875 31.3125 
Q 6.296875 37.9375 6.296875 49.421875 
Q 6.296875 60.640625 12.9375 67.421875 
Q 19.578125 74.21875 30.609375 74.21875 
Q 43.265625 74.21875 49.921875 64.515625 
Q 56.59375 54.828125 56.59375 36.375 
Q 56.59375 19.140625 48.40625 8.859375 
Q 40.234375 -1.421875 26.421875 -1.421875 
Q 22.703125 -1.421875 18.890625 -0.6875 
Q 15.09375 0.046875 10.984375 1.515625 
z
M 30.609375 32.421875 
Q 37.25 32.421875 41.125 36.953125 
Q 45.015625 41.5 45.015625 49.421875 
Q 45.015625 57.28125 41.125 61.84375 
Q 37.25 66.40625 30.609375 66.40625 
Q 23.96875 66.40625 20.09375 61.84375 
Q 16.21875 57.28125 16.21875 49.421875 
Q 16.21875 41.5 20.09375 36.953125 
Q 23.96875 32.421875 30.609375 32.421875 
z
" id="DejaVuSans-57"/>
      </defs>
      <g transform="translate(20.878125 170.417636)scale(0.08 -0.08)">
       <use xlink:href="#DejaVuSans-83"/>
       <use x="63.476562" xlink:href="#DejaVuSans-82"/>
       <use x="132.958984" xlink:href="#DejaVuSans-82"/>
       <use x="202.441406" xlink:href="#DejaVuSans-55"/>
       <use x="266.064453" xlink:href="#DejaVuSans-52"/>
       <use x="329.6875" xlink:href="#DejaVuSans-52"/>
       <use x="393.310547" xlink:href="#DejaVuSans-51"/>
       <use x="456.933594" xlink:href="#DejaVuSans-52"/>
       <use x="520.556641" xlink:href="#DejaVuSans-53"/>
       <use x="584.179688" xlink:href="#DejaVuSans-57"/>
      </g>
     </g>
    </g>
    <g id="ytick_8">
     <g id="text_14">
      <!-- SRR7443462 -->
      <g transform="translate(20.878125 194.521984)scale(0.08 -0.08)">
       <use xlink:href="#DejaVuSans-83"/>
       <use x="63.476562" xlink:href="#DejaVuSans-82"/>
       <use x="132.958984" xlink:href="#DejaVuSans-82"/>
       <use x="202.441406" xlink:href="#DejaVuSans-55"/>
       <use x="266.064453" xlink:href="#DejaVuSans-52"/>
       <use x="329.6875" xlink:href="#DejaVuSans-52"/>
       <use x="393.310547" xlink:href="#DejaVuSans-51"/>
       <use x="456.933594" xlink:href="#DejaVuSans-52"/>
       <use x="520.556641" xlink:href="#DejaVuSans-54"/>
       <use x="584.179688" xlink:href="#DejaVuSans-50"/>
      </g>
     </g>
    </g>
    <g id="ytick_9">
     <g id="text_15">
      <!-- SRR7443461 -->
      <g transform="translate(20.878125 218.626332)scale(0.08 -0.08)">
       <use xlink:href="#DejaVuSans-83"/>
       <use x="63.476562" xlink:href="#DejaVuSans-82"/>
       <use x="132.958984" xlink:href="#DejaVuSans-82"/>
       <use x="202.441406" xlink:href="#DejaVuSans-55"/>
       <use x="266.064453" xlink:href="#DejaVuSans-52"/>
       <use x="329.6875" xlink:href="#DejaVuSans-52"/>
       <use x="393.310547" xlink:href="#DejaVuSans-51"/>
       <use x="456.933594" xlink:href="#DejaVuSans-52"/>
       <use x="520.556641" xlink:href="#DejaVuSans-54"/>
       <use x="584.179688" xlink:href="#DejaVuSans-49"/>
      </g>
     </g>
    </g>
    <g id="ytick_10">
     <g id="text_16">
      <!-- SRR7443455 -->
      <g transform="translate(20.878125 242.730679)scale(0.08 -0.08)">
       <use xlink:href="#DejaVuSans-83"/>
       <use x="63.476562" xlink:href="#DejaVuSans-82"/>
       <use x="132.958984" xlink:href="#DejaVuSans-82"/>
       <use x="202.441406" xlink:href="#DejaVuSans-55"/>
       <use x="266.064453" xlink:href="#DejaVuSans-52"/>
       <use x="329.6875" xlink:href="#DejaVuSans-52"/>
       <use x="393.310547" xlink:href="#DejaVuSans-51"/>
       <use x="456.933594" xlink:href="#DejaVuSans-52"/>
       <use x="520.556641" xlink:href="#DejaVuSans-53"/>
       <use x="584.179688" xlink:href="#DejaVuSans-53"/>
      </g>
     </g>
    </g>
    <g id="ytick_11">
     <g id="text_17">
      <!-- SRR7443463 -->
      <g transform="translate(20.878125 266.835027)scale(0.08 -0.08)">
       <use xlink:href="#DejaVuSans-83"/>
       <use x="63.476562" xlink:href="#DejaVuSans-82"/>
       <use x="132.958984" xlink:href="#DejaVuSans-82"/>
       <use x="202.441406" xlink:href="#DejaVuSans-55"/>
       <use x="266.064453" xlink:href="#DejaVuSans-52"/>
       <use x="329.6875" xlink:href="#DejaVuSans-52"/>
       <use x="393.310547" xlink:href="#DejaVuSans-51"/>
       <use x="456.933594" xlink:href="#DejaVuSans-52"/>
       <use x="520.556641" xlink:href="#DejaVuSans-54"/>
       <use x="584.179688" xlink:href="#DejaVuSans-51"/>
      </g>
     </g>
    </g>
    <g id="ytick_12">
     <g id="text_18">
      <!-- SRR7443465 -->
      <g transform="translate(20.878125 290.939375)scale(0.08 -0.08)">
       <use xlink:href="#DejaVuSans-83"/>
       <use x="63.476562" xlink:href="#DejaVuSans-82"/>
       <use x="132.958984" xlink:href="#DejaVuSans-82"/>
       <use x="202.441406" xlink:href="#DejaVuSans-55"/>
       <use x="266.064453" xlink:href="#DejaVuSans-52"/>
       <use x="329.6875" xlink:href="#DejaVuSans-52"/>
       <use x="393.310547" xlink:href="#DejaVuSans-51"/>
       <use x="456.933594" xlink:href="#DejaVuSans-52"/>
       <use x="520.556641" xlink:href="#DejaVuSans-54"/>
       <use x="584.179688" xlink:href="#DejaVuSans-53"/>
      </g>
     </g>
    </g>
    <g id="ytick_13">
     <g id="text_19">
      <!-- SRR7443469 -->
      <g transform="translate(20.878125 315.043723)scale(0.08 -0.08)">
       <use xlink:href="#DejaVuSans-83"/>
       <use x="63.476562" xlink:href="#DejaVuSans-82"/>
       <use x="132.958984" xlink:href="#DejaVuSans-82"/>
       <use x="202.441406" xlink:href="#DejaVuSans-55"/>
       <use x="266.064453" xlink:href="#DejaVuSans-52"/>
       <use x="329.6875" xlink:href="#DejaVuSans-52"/>
       <use x="393.310547" xlink:href="#DejaVuSans-51"/>
       <use x="456.933594" xlink:href="#DejaVuSans-52"/>
       <use x="520.556641" xlink:href="#DejaVuSans-54"/>
       <use x="584.179688" xlink:href="#DejaVuSans-57"/>
      </g>
     </g>
    </g>
    <g id="ytick_14">
     <g id="text_20">
      <!-- SRR7443457 -->
      <g transform="translate(20.878125 339.148071)scale(0.08 -0.08)">
       <use xlink:href="#DejaVuSans-83"/>
       <use x="63.476562" xlink:href="#DejaVuSans-82"/>
       <use x="132.958984" xlink:href="#DejaVuSans-82"/>
       <use x="202.441406" xlink:href="#DejaVuSans-55"/>
       <use x="266.064453" xlink:href="#DejaVuSans-52"/>
       <use x="329.6875" xlink:href="#DejaVuSans-52"/>
       <use x="393.310547" xlink:href="#DejaVuSans-51"/>
       <use x="456.933594" xlink:href="#DejaVuSans-52"/>
       <use x="520.556641" xlink:href="#DejaVuSans-53"/>
       <use x="584.179688" xlink:href="#DejaVuSans-55"/>
      </g>
     </g>
    </g>
    <g id="ytick_15">
     <g id="text_21">
      <!-- SRR7443468 -->
      <g transform="translate(20.878125 363.252418)scale(0.08 -0.08)">
       <use xlink:href="#DejaVuSans-83"/>
       <use x="63.476562" xlink:href="#DejaVuSans-82"/>
       <use x="132.958984" xlink:href="#DejaVuSans-82"/>
       <use x="202.441406" xlink:href="#DejaVuSans-55"/>
       <use x="266.064453" xlink:href="#DejaVuSans-52"/>
       <use x="329.6875" xlink:href="#DejaVuSans-52"/>
       <use x="393.310547" xlink:href="#DejaVuSans-51"/>
       <use x="456.933594" xlink:href="#DejaVuSans-52"/>
       <use x="520.556641" xlink:href="#DejaVuSans-54"/>
       <use x="584.179688" xlink:href="#DejaVuSans-56"/>
      </g>
     </g>
    </g>
    <g id="ytick_16">
     <g id="text_22">
      <!-- SRR7443470 -->
      <g transform="translate(20.878125 387.356766)scale(0.08 -0.08)">
       <use xlink:href="#DejaVuSans-83"/>
       <use x="63.476562" xlink:href="#DejaVuSans-82"/>
       <use x="132.958984" xlink:href="#DejaVuSans-82"/>
       <use x="202.441406" xlink:href="#DejaVuSans-55"/>
       <use x="266.064453" xlink:href="#DejaVuSans-52"/>
       <use x="329.6875" xlink:href="#DejaVuSans-52"/>
       <use x="393.310547" xlink:href="#DejaVuSans-51"/>
       <use x="456.933594" xlink:href="#DejaVuSans-52"/>
       <use x="520.556641" xlink:href="#DejaVuSans-55"/>
       <use x="584.179688" xlink:href="#DejaVuSans-48"/>
      </g>
     </g>
    </g>
    <g id="ytick_17">
     <g id="text_23">
      <!-- SRR7443456 -->
      <g transform="translate(20.878125 411.461114)scale(0.08 -0.08)">
       <use xlink:href="#DejaVuSans-83"/>
       <use x="63.476562" xlink:href="#DejaVuSans-82"/>
       <use x="132.958984" xlink:href="#DejaVuSans-82"/>
       <use x="202.441406" xlink:href="#DejaVuSans-55"/>
       <use x="266.064453" xlink:href="#DejaVuSans-52"/>
       <use x="329.6875" xlink:href="#DejaVuSans-52"/>
       <use x="393.310547" xlink:href="#DejaVuSans-51"/>
       <use x="456.933594" xlink:href="#DejaVuSans-52"/>
       <use x="520.556641" xlink:href="#DejaVuSans-53"/>
       <use x="584.179688" xlink:href="#DejaVuSans-54"/>
      </g>
     </g>
    </g>
    <g id="ytick_18">
     <g id="text_24">
      <!-- SRR7443458 -->
      <g transform="translate(20.878125 435.565462)scale(0.08 -0.08)">
       <use xlink:href="#DejaVuSans-83"/>
       <use x="63.476562" xlink:href="#DejaVuSans-82"/>
       <use x="132.958984" xlink:href="#DejaVuSans-82"/>
       <use x="202.441406" xlink:href="#DejaVuSans-55"/>
       <use x="266.064453" xlink:href="#DejaVuSans-52"/>
       <use x="329.6875" xlink:href="#DejaVuSans-52"/>
       <use x="393.310547" xlink:href="#DejaVuSans-51"/>
       <use x="456.933594" xlink:href="#DejaVuSans-52"/>
       <use x="520.556641" xlink:href="#DejaVuSans-53"/>
       <use x="584.179688" xlink:href="#DejaVuSans-56"/>
      </g>
     </g>
    </g>
    <g id="text_25">
     <!-- # Reads -->
     <defs>
      <path d="M 51.125 44 
L 36.921875 44 
L 32.8125 27.6875 
L 47.125 27.6875 
z
M 43.796875 71.78125 
L 38.71875 51.515625 
L 52.984375 51.515625 
L 58.109375 71.78125 
L 65.921875 71.78125 
L 60.890625 51.515625 
L 76.125 51.515625 
L 76.125 44 
L 58.984375 44 
L 54.984375 27.6875 
L 70.515625 27.6875 
L 70.515625 20.21875 
L 53.078125 20.21875 
L 48 0 
L 40.1875 0 
L 45.21875 20.21875 
L 30.90625 20.21875 
L 25.875 0 
L 18.015625 0 
L 23.09375 20.21875 
L 7.71875 20.21875 
L 7.71875 27.6875 
L 24.90625 27.6875 
L 29 44 
L 13.28125 44 
L 13.28125 51.515625 
L 30.90625 51.515625 
L 35.890625 71.78125 
z
" id="DejaVuSans-35"/>
      <path id="DejaVuSans-32"/>
      <path d="M 56.203125 29.59375 
L 56.203125 25.203125 
L 14.890625 25.203125 
Q 15.484375 15.921875 20.484375 11.0625 
Q 25.484375 6.203125 34.421875 6.203125 
Q 39.59375 6.203125 44.453125 7.46875 
Q 49.3125 8.734375 54.109375 11.28125 
L 54.109375 2.78125 
Q 49.265625 0.734375 44.1875 -0.34375 
Q 39.109375 -1.421875 33.890625 -1.421875 
Q 20.796875 -1.421875 13.15625 6.1875 
Q 5.515625 13.8125 5.515625 26.8125 
Q 5.515625 40.234375 12.765625 48.109375 
Q 20.015625 56 32.328125 56 
Q 43.359375 56 49.78125 48.890625 
Q 56.203125 41.796875 56.203125 29.59375 
z
M 47.21875 32.234375 
Q 47.125 39.59375 43.09375 43.984375 
Q 39.0625 48.390625 32.421875 48.390625 
Q 24.90625 48.390625 20.390625 44.140625 
Q 15.875 39.890625 15.1875 32.171875 
z
" id="DejaVuSans-101"/>
      <path d="M 34.28125 27.484375 
Q 23.390625 27.484375 19.1875 25 
Q 14.984375 22.515625 14.984375 16.5 
Q 14.984375 11.71875 18.140625 8.90625 
Q 21.296875 6.109375 26.703125 6.109375 
Q 34.1875 6.109375 38.703125 11.40625 
Q 43.21875 16.703125 43.21875 25.484375 
L 43.21875 27.484375 
z
M 52.203125 31.203125 
L 52.203125 0 
L 43.21875 0 
L 43.21875 8.296875 
Q 40.140625 3.328125 35.546875 0.953125 
Q 30.953125 -1.421875 24.3125 -1.421875 
Q 15.921875 -1.421875 10.953125 3.296875 
Q 6 8.015625 6 15.921875 
Q 6 25.140625 12.171875 29.828125 
Q 18.359375 34.515625 30.609375 34.515625 
L 43.21875 34.515625 
L 43.21875 35.40625 
Q 43.21875 41.609375 39.140625 45 
Q 35.0625 48.390625 27.6875 48.390625 
Q 23 48.390625 18.546875 47.265625 
Q 14.109375 46.140625 10.015625 43.890625 
L 10.015625 52.203125 
Q 14.9375 54.109375 19.578125 55.046875 
Q 24.21875 56 28.609375 56 
Q 40.484375 56 46.34375 49.84375 
Q 52.203125 43.703125 52.203125 31.203125 
z
" id="DejaVuSans-97"/>
      <path d="M 45.40625 46.390625 
L 45.40625 75.984375 
L 54.390625 75.984375 
L 54.390625 0 
L 45.40625 0 
L 45.40625 8.203125 
Q 42.578125 3.328125 38.25 0.953125 
Q 33.9375 -1.421875 27.875 -1.421875 
Q 17.96875 -1.421875 11.734375 6.484375 
Q 5.515625 14.40625 5.515625 27.296875 
Q 5.515625 40.1875 11.734375 48.09375 
Q 17.96875 56 27.875 56 
Q 33.9375 56 38.25 53.625 
Q 42.578125 51.265625 45.40625 46.390625 
z
M 14.796875 27.296875 
Q 14.796875 17.390625 18.875 11.75 
Q 22.953125 6.109375 30.078125 6.109375 
Q 37.203125 6.109375 41.296875 11.75 
Q 45.40625 17.390625 45.40625 27.296875 
Q 45.40625 37.203125 41.296875 42.84375 
Q 37.203125 48.484375 30.078125 48.484375 
Q 22.953125 48.484375 18.875 42.84375 
Q 14.796875 37.203125 14.796875 27.296875 
z
" id="DejaVuSans-100"/>
      <path d="M 44.28125 53.078125 
L 44.28125 44.578125 
Q 40.484375 46.53125 36.375 47.5 
Q 32.28125 48.484375 27.875 48.484375 
Q 21.1875 48.484375 17.84375 46.4375 
Q 14.5 44.390625 14.5 40.28125 
Q 14.5 37.15625 16.890625 35.375 
Q 19.28125 33.59375 26.515625 31.984375 
L 29.59375 31.296875 
Q 39.15625 29.25 43.1875 25.515625 
Q 47.21875 21.78125 47.21875 15.09375 
Q 47.21875 7.46875 41.1875 3.015625 
Q 35.15625 -1.421875 24.609375 -1.421875 
Q 20.21875 -1.421875 15.453125 -0.5625 
Q 10.6875 0.296875 5.421875 2 
L 5.421875 11.28125 
Q 10.40625 8.6875 15.234375 7.390625 
Q 20.0625 6.109375 24.8125 6.109375 
Q 31.15625 6.109375 34.5625 8.28125 
Q 37.984375 10.453125 37.984375 14.40625 
Q 37.984375 18.0625 35.515625 20.015625 
Q 33.0625 21.96875 24.703125 23.78125 
L 21.578125 24.515625 
Q 13.234375 26.265625 9.515625 29.90625 
Q 5.8125 33.546875 5.8125 39.890625 
Q 5.8125 47.609375 11.28125 51.796875 
Q 16.75 56 26.8125 56 
Q 31.78125 56 36.171875 55.265625 
Q 40.578125 54.546875 44.28125 53.078125 
z
" id="DejaVuSans-115"/>
     </defs>
     <g transform="translate(14.798437 248.808662)rotate(-90)scale(0.1 -0.1)">
      <use xlink:href="#DejaVuSans-35"/>
      <use x="83.789062" xlink:href="#DejaVuSans-32"/>
      <use x="115.576172" xlink:href="#DejaVuSans-82"/>
      <use x="184.996094" xlink:href="#DejaVuSans-101"/>
      <use x="246.519531" xlink:href="#DejaVuSans-97"/>
      <use x="307.798828" xlink:href="#DejaVuSans-100"/>
      <use x="371.275391" xlink:href="#DejaVuSans-115"/>
     </g>
    </g>
   </g>
   <g id="patch_3">
    <path clip-path="url(#pfc7bfd1200)" d="M 79.704375 13.110435 
L 849.331253 13.110435 
L 849.331253 32.393913 
L 79.704375 32.393913 
z
" style="fill:#7cb5ec;"/>
   </g>
   <g id="patch_4">
    <path clip-path="url(#pfc7bfd1200)" d="M 79.704375 37.214783 
L 853.619571 37.214783 
L 853.619571 56.498261 
L 79.704375 56.498261 
z
" style="fill:#7cb5ec;"/>
   </g>
   <g id="patch_5">
    <path clip-path="url(#pfc7bfd1200)" d="M 79.704375 61.31913 
L 851.105986 61.31913 
L 851.105986 80.602609 
L 79.704375 80.602609 
z
" style="fill:#7cb5ec;"/>
   </g>
   <g id="patch_6">
    <path clip-path="url(#pfc7bfd1200)" d="M 79.704375 85.423478 
L 840.400189 85.423478 
L 840.400189 104.706957 
L 79.704375 104.706957 
z
" style="fill:#7cb5ec;"/>
   </g>
   <g id="patch_7">
    <path clip-path="url(#pfc7bfd1200)" d="M 79.704375 109.527826 
L 853.293046 109.527826 
L 853.293046 128.811304 
L 79.704375 128.811304 
z
" style="fill:#7cb5ec;"/>
   </g>
   <g id="patch_8">
    <path clip-path="url(#pfc7bfd1200)" d="M 79.704375 133.632174 
L 853.661789 133.632174 
L 853.661789 152.915652 
L 79.704375 152.915652 
z
" style="fill:#7cb5ec;"/>
   </g>
   <g id="patch_9">
    <path clip-path="url(#pfc7bfd1200)" d="M 79.704375 157.736522 
L 852.821825 157.736522 
L 852.821825 177.02 
L 79.704375 177.02 
z
" style="fill:#7cb5ec;"/>
   </g>
   <g id="patch_10">
    <path clip-path="url(#pfc7bfd1200)" d="M 79.704375 181.84087 
L 851.385789 181.84087 
L 851.385789 201.124348 
L 79.704375 201.124348 
z
" style="fill:#7cb5ec;"/>
   </g>
   <g id="patch_11">
    <path clip-path="url(#pfc7bfd1200)" d="M 79.704375 205.945217 
L 846.907056 205.945217 
L 846.907056 225.228696 
L 79.704375 225.228696 
z
" style="fill:#7cb5ec;"/>
   </g>
   <g id="patch_12">
    <path clip-path="url(#pfc7bfd1200)" d="M 79.704375 230.049565 
L 846.963758 230.049565 
L 846.963758 249.333043 
L 79.704375 249.333043 
z
" style="fill:#7cb5ec;"/>
   </g>
   <g id="patch_13">
    <path clip-path="url(#pfc7bfd1200)" d="M 79.704375 254.153913 
L 850.628855 254.153913 
L 850.628855 273.437391 
L 79.704375 273.437391 
z
" style="fill:#7cb5ec;"/>
   </g>
   <g id="patch_14">
    <path clip-path="url(#pfc7bfd1200)" d="M 79.704375 278.258261 
L 854.619481 278.258261 
L 854.619481 297.541739 
L 79.704375 297.541739 
z
" style="fill:#7cb5ec;"/>
   </g>
   <g id="patch_15">
    <path clip-path="url(#pfc7bfd1200)" d="M 79.704375 302.362609 
L 847.595166 302.362609 
L 847.595166 321.646087 
L 79.704375 321.646087 
z
" style="fill:#7cb5ec;"/>
   </g>
   <g id="patch_16">
    <path clip-path="url(#pfc7bfd1200)" d="M 79.704375 326.466957 
L 853.816779 326.466957 
L 853.816779 345.750435 
L 79.704375 345.750435 
z
" style="fill:#7cb5ec;"/>
   </g>
   <g id="patch_17">
    <path clip-path="url(#pfc7bfd1200)" d="M 79.704375 350.571304 
L 850.9014 350.571304 
L 850.9014 369.854783 
L 79.704375 369.854783 
z
" style="fill:#7cb5ec;"/>
   </g>
   <g id="patch_18">
    <path clip-path="url(#pfc7bfd1200)" d="M 79.704375 374.675652 
L 850.715236 374.675652 
L 850.715236 393.95913 
L 79.704375 393.95913 
z
" style="fill:#7cb5ec;"/>
   </g>
   <g id="patch_19">
    <path clip-path="url(#pfc7bfd1200)" d="M 79.704375 398.78 
L 855.027234 398.78 
L 855.027234 418.063478 
L 79.704375 418.063478 
z
" style="fill:#7cb5ec;"/>
   </g>
   <g id="patch_20">
    <path clip-path="url(#pfc7bfd1200)" d="M 79.704375 422.884348 
L 854.526857 422.884348 
L 854.526857 442.167826 
L 79.704375 442.167826 
z
" style="fill:#7cb5ec;"/>
   </g>
   <g id="patch_21">
    <path clip-path="url(#pfc7bfd1200)" d="M 849.331253 13.110435 
L 849.343326 13.110435 
L 849.343326 32.393913 
L 849.331253 32.393913 
z
" style="fill:#434348;"/>
   </g>
   <g id="patch_22">
    <path clip-path="url(#pfc7bfd1200)" d="M 853.619571 37.214783 
L 853.634291 37.214783 
L 853.634291 56.498261 
L 853.619571 56.498261 
z
" style="fill:#434348;"/>
   </g>
   <g id="patch_23">
    <path clip-path="url(#pfc7bfd1200)" d="M 851.105986 61.31913 
L 851.119938 61.31913 
L 851.119938 80.602609 
L 851.105986 80.602609 
z
" style="fill:#434348;"/>
   </g>
   <g id="patch_24">
    <path clip-path="url(#pfc7bfd1200)" d="M 840.400189 85.423478 
L 840.428591 85.423478 
L 840.428591 104.706957 
L 840.400189 104.706957 
z
" style="fill:#434348;"/>
   </g>
   <g id="patch_25">
    <path clip-path="url(#pfc7bfd1200)" d="M 853.293046 109.527826 
L 853.305586 109.527826 
L 853.305586 128.811304 
L 853.293046 128.811304 
z
" style="fill:#434348;"/>
   </g>
   <g id="patch_26">
    <path clip-path="url(#pfc7bfd1200)" d="M 853.661789 133.632174 
L 853.675415 133.632174 
L 853.675415 152.915652 
L 853.661789 152.915652 
z
" style="fill:#434348;"/>
   </g>
   <g id="patch_27">
    <path clip-path="url(#pfc7bfd1200)" d="M 852.821825 157.736522 
L 852.840173 157.736522 
L 852.840173 177.02 
L 852.821825 177.02 
z
" style="fill:#434348;"/>
   </g>
   <g id="patch_28">
    <path clip-path="url(#pfc7bfd1200)" d="M 851.385789 181.84087 
L 851.402793 181.84087 
L 851.402793 201.124348 
L 851.385789 201.124348 
z
" style="fill:#434348;"/>
   </g>
   <g id="patch_29">
    <path clip-path="url(#pfc7bfd1200)" d="M 846.907056 205.945217 
L 846.927511 205.945217 
L 846.927511 225.228696 
L 846.907056 225.228696 
z
" style="fill:#434348;"/>
   </g>
   <g id="patch_30">
    <path clip-path="url(#pfc7bfd1200)" d="M 846.963758 230.049565 
L 846.978462 230.049565 
L 846.978462 249.333043 
L 846.963758 249.333043 
z
" style="fill:#434348;"/>
   </g>
   <g id="patch_31">
    <path clip-path="url(#pfc7bfd1200)" d="M 850.628855 254.153913 
L 850.64087 254.153913 
L 850.64087 273.437391 
L 850.628855 273.437391 
z
" style="fill:#434348;"/>
   </g>
   <g id="patch_32">
    <path clip-path="url(#pfc7bfd1200)" d="M 854.619481 278.258261 
L 854.630165 278.258261 
L 854.630165 297.541739 
L 854.619481 297.541739 
z
" style="fill:#434348;"/>
   </g>
   <g id="patch_33">
    <path clip-path="url(#pfc7bfd1200)" d="M 847.595166 302.362609 
L 847.610844 302.362609 
L 847.610844 321.646087 
L 847.595166 321.646087 
z
" style="fill:#434348;"/>
   </g>
   <g id="patch_34">
    <path clip-path="url(#pfc7bfd1200)" d="M 853.816779 326.466957 
L 853.834954 326.466957 
L 853.834954 345.750435 
L 853.816779 345.750435 
z
" style="fill:#434348;"/>
   </g>
   <g id="patch_35">
    <path clip-path="url(#pfc7bfd1200)" d="M 850.9014 350.571304 
L 850.91435 350.571304 
L 850.91435 369.854783 
L 850.9014 369.854783 
z
" style="fill:#434348;"/>
   </g>
   <g id="patch_36">
    <path clip-path="url(#pfc7bfd1200)" d="M 850.715236 374.675652 
L 850.733272 374.675652 
L 850.733272 393.95913 
L 850.715236 393.95913 
z
" style="fill:#434348;"/>
   </g>
   <g id="patch_37">
    <path clip-path="url(#pfc7bfd1200)" d="M 855.027234 398.78 
L 855.040455 398.78 
L 855.040455 418.063478 
L 855.027234 418.063478 
z
" style="fill:#434348;"/>
   </g>
   <g id="patch_38">
    <path clip-path="url(#pfc7bfd1200)" d="M 854.526857 422.884348 
L 854.548362 422.884348 
L 854.548362 442.167826 
L 854.526857 442.167826 
z
" style="fill:#434348;"/>
   </g>
   <g id="patch_39">
    <path clip-path="url(#pfc7bfd1200)" d="M 849.343326 13.110435 
L 851.614803 13.110435 
L 851.614803 32.393913 
L 849.343326 32.393913 
z
" style="fill:#90ed7d;"/>
   </g>
   <g id="patch_40">
    <path clip-path="url(#pfc7bfd1200)" d="M 853.634291 37.214783 
L 855.973748 37.214783 
L 855.973748 56.498261 
L 853.634291 56.498261 
z
" style="fill:#90ed7d;"/>
   </g>
   <g id="patch_41">
    <path clip-path="url(#pfc7bfd1200)" d="M 851.119938 61.31913 
L 853.555503 61.31913 
L 853.555503 80.602609 
L 851.119938 80.602609 
z
" style="fill:#90ed7d;"/>
   </g>
   <g id="patch_42">
    <path clip-path="url(#pfc7bfd1200)" d="M 840.428591 85.423478 
L 844.342778 85.423478 
L 844.342778 104.706957 
L 840.428591 104.706957 
z
" style="fill:#90ed7d;"/>
   </g>
   <g id="patch_43">
    <path clip-path="url(#pfc7bfd1200)" d="M 853.305586 109.527826 
L 855.539665 109.527826 
L 855.539665 128.811304 
L 853.305586 128.811304 
z
" style="fill:#90ed7d;"/>
   </g>
   <g id="patch_44">
    <path clip-path="url(#pfc7bfd1200)" d="M 853.675415 133.632174 
L 855.62241 133.632174 
L 855.62241 152.915652 
L 853.675415 152.915652 
z
" style="fill:#90ed7d;"/>
   </g>
   <g id="patch_45">
    <path clip-path="url(#pfc7bfd1200)" d="M 852.840173 157.736522 
L 854.644597 157.736522 
L 854.644597 177.02 
L 852.840173 177.02 
z
" style="fill:#90ed7d;"/>
   </g>
   <g id="patch_46">
    <path clip-path="url(#pfc7bfd1200)" d="M 851.402793 181.84087 
L 853.661233 181.84087 
L 853.661233 201.124348 
L 851.402793 201.124348 
z
" style="fill:#90ed7d;"/>
   </g>
   <g id="patch_47">
    <path clip-path="url(#pfc7bfd1200)" d="M 846.927511 205.945217 
L 849.82951 205.945217 
L 849.82951 225.228696 
L 846.927511 225.228696 
z
" style="fill:#90ed7d;"/>
   </g>
   <g id="patch_48">
    <path clip-path="url(#pfc7bfd1200)" d="M 846.978462 230.049565 
L 849.669766 230.049565 
L 849.669766 249.333043 
L 846.978462 249.333043 
z
" style="fill:#90ed7d;"/>
   </g>
   <g id="patch_49">
    <path clip-path="url(#pfc7bfd1200)" d="M 850.64087 254.153913 
L 853.485207 254.153913 
L 853.485207 273.437391 
L 850.64087 273.437391 
z
" style="fill:#90ed7d;"/>
   </g>
   <g id="patch_50">
    <path clip-path="url(#pfc7bfd1200)" d="M 854.630165 278.258261 
L 856.167325 278.258261 
L 856.167325 297.541739 
L 854.630165 297.541739 
z
" style="fill:#90ed7d;"/>
   </g>
   <g id="patch_51">
    <path clip-path="url(#pfc7bfd1200)" d="M 847.610844 302.362609 
L 850.44267 302.362609 
L 850.44267 321.646087 
L 847.610844 321.646087 
z
" style="fill:#90ed7d;"/>
   </g>
   <g id="patch_52">
    <path clip-path="url(#pfc7bfd1200)" d="M 853.834954 326.466957 
L 855.91888 326.466957 
L 855.91888 345.750435 
L 853.834954 345.750435 
z
" style="fill:#90ed7d;"/>
   </g>
   <g id="patch_53">
    <path clip-path="url(#pfc7bfd1200)" d="M 850.91435 350.571304 
L 853.670252 350.571304 
L 853.670252 369.854783 
L 850.91435 369.854783 
z
" style="fill:#90ed7d;"/>
   </g>
   <g id="patch_54">
    <path clip-path="url(#pfc7bfd1200)" d="M 850.733272 374.675652 
L 853.591623 374.675652 
L 853.591623 393.95913 
L 850.733272 393.95913 
z
" style="fill:#90ed7d;"/>
   </g>
   <g id="patch_55">
    <path clip-path="url(#pfc7bfd1200)" d="M 855.040455 398.78 
L 857.086682 398.78 
L 857.086682 418.063478 
L 855.040455 418.063478 
z
" style="fill:#90ed7d;"/>
   </g>
   <g id="patch_56">
    <path clip-path="url(#pfc7bfd1200)" d="M 854.548362 422.884348 
L 856.605897 422.884348 
L 856.605897 442.167826 
L 854.548362 442.167826 
z
" style="fill:#90ed7d;"/>
   </g>
   <g id="patch_57">
    <path clip-path="url(#pfc7bfd1200)" d="M 851.614803 13.110435 
L 851.653906 13.110435 
L 851.653906 32.393913 
L 851.614803 32.393913 
z
" style="fill:#f7a35c;"/>
   </g>
   <g id="patch_58">
    <path clip-path="url(#pfc7bfd1200)" d="M 855.973748 37.214783 
L 856.039411 37.214783 
L 856.039411 56.498261 
L 855.973748 56.498261 
z
" style="fill:#f7a35c;"/>
   </g>
   <g id="patch_59">
    <path clip-path="url(#pfc7bfd1200)" d="M 853.555503 61.31913 
L 853.614302 61.31913 
L 853.614302 80.602609 
L 853.555503 80.602609 
z
" style="fill:#f7a35c;"/>
   </g>
   <g id="patch_60">
    <path clip-path="url(#pfc7bfd1200)" d="M 844.342778 85.423478 
L 844.41169 85.423478 
L 844.41169 104.706957 
L 844.342778 104.706957 
z
" style="fill:#f7a35c;"/>
   </g>
   <g id="patch_61">
    <path clip-path="url(#pfc7bfd1200)" d="M 855.539665 109.527826 
L 855.595887 109.527826 
L 855.595887 128.811304 
L 855.539665 128.811304 
z
" style="fill:#f7a35c;"/>
   </g>
   <g id="patch_62">
    <path clip-path="url(#pfc7bfd1200)" d="M 855.62241 133.632174 
L 855.698218 133.632174 
L 855.698218 152.915652 
L 855.62241 152.915652 
z
" style="fill:#f7a35c;"/>
   </g>
   <g id="patch_63">
    <path clip-path="url(#pfc7bfd1200)" d="M 854.644597 157.736522 
L 854.706156 157.736522 
L 854.706156 177.02 
L 854.644597 177.02 
z
" style="fill:#f7a35c;"/>
   </g>
   <g id="patch_64">
    <path clip-path="url(#pfc7bfd1200)" d="M 853.661233 181.84087 
L 853.719503 181.84087 
L 853.719503 201.124348 
L 853.661233 201.124348 
z
" style="fill:#f7a35c;"/>
   </g>
   <g id="patch_65">
    <path clip-path="url(#pfc7bfd1200)" d="M 849.82951 205.945217 
L 849.880496 205.945217 
L 849.880496 225.228696 
L 849.82951 225.228696 
z
" style="fill:#f7a35c;"/>
   </g>
   <g id="patch_66">
    <path clip-path="url(#pfc7bfd1200)" d="M 849.669766 230.049565 
L 849.711259 230.049565 
L 849.711259 249.333043 
L 849.669766 249.333043 
z
" style="fill:#f7a35c;"/>
   </g>
   <g id="patch_67">
    <path clip-path="url(#pfc7bfd1200)" d="M 853.485207 254.153913 
L 853.542104 254.153913 
L 853.542104 273.437391 
L 853.485207 273.437391 
z
" style="fill:#f7a35c;"/>
   </g>
   <g id="patch_68">
    <path clip-path="url(#pfc7bfd1200)" d="M 856.167325 278.258261 
L 856.217099 278.258261 
L 856.217099 297.541739 
L 856.167325 297.541739 
z
" style="fill:#f7a35c;"/>
   </g>
   <g id="patch_69">
    <path clip-path="url(#pfc7bfd1200)" d="M 850.44267 302.362609 
L 850.509499 302.362609 
L 850.509499 321.646087 
L 850.44267 321.646087 
z
" style="fill:#f7a35c;"/>
   </g>
   <g id="patch_70">
    <path clip-path="url(#pfc7bfd1200)" d="M 855.91888 326.466957 
L 855.991076 326.466957 
L 855.991076 345.750435 
L 855.91888 345.750435 
z
" style="fill:#f7a35c;"/>
   </g>
   <g id="patch_71">
    <path clip-path="url(#pfc7bfd1200)" d="M 853.670252 350.571304 
L 853.726578 350.571304 
L 853.726578 369.854783 
L 853.670252 369.854783 
z
" style="fill:#f7a35c;"/>
   </g>
   <g id="patch_72">
    <path clip-path="url(#pfc7bfd1200)" d="M 853.591623 374.675652 
L 853.665626 374.675652 
L 853.665626 393.95913 
L 853.591623 393.95913 
z
" style="fill:#f7a35c;"/>
   </g>
   <g id="patch_73">
    <path clip-path="url(#pfc7bfd1200)" d="M 857.086682 398.78 
L 857.158288 398.78 
L 857.158288 418.063478 
L 857.086682 418.063478 
z
" style="fill:#f7a35c;"/>
   </g>
   <g id="patch_74">
    <path clip-path="url(#pfc7bfd1200)" d="M 856.605897 422.884348 
L 856.684044 422.884348 
L 856.684044 442.167826 
L 856.605897 442.167826 
z
" style="fill:#f7a35c;"/>
   </g>
   <g id="patch_75">
    <path clip-path="url(#pfc7bfd1200)" d="M 851.653906 13.110435 
L 851.659507 13.110435 
L 851.659507 32.393913 
L 851.653906 32.393913 
z
" style="fill:#8085e9;"/>
   </g>
   <g id="patch_76">
    <path clip-path="url(#pfc7bfd1200)" d="M 856.039411 37.214783 
L 856.047456 37.214783 
L 856.047456 56.498261 
L 856.039411 56.498261 
z
" style="fill:#8085e9;"/>
   </g>
   <g id="patch_77">
    <path clip-path="url(#pfc7bfd1200)" d="M 853.614302 61.31913 
L 853.618609 61.31913 
L 853.618609 80.602609 
L 853.614302 80.602609 
z
" style="fill:#8085e9;"/>
   </g>
   <g id="patch_78">
    <path clip-path="url(#pfc7bfd1200)" d="M 844.41169 85.423478 
L 844.419873 85.423478 
L 844.419873 104.706957 
L 844.41169 104.706957 
z
" style="fill:#8085e9;"/>
   </g>
   <g id="patch_79">
    <path clip-path="url(#pfc7bfd1200)" d="M 855.595887 109.527826 
L 855.601052 109.527826 
L 855.601052 128.811304 
L 855.595887 128.811304 
z
" style="fill:#8085e9;"/>
   </g>
   <g id="patch_80">
    <path clip-path="url(#pfc7bfd1200)" d="M 855.698218 133.632174 
L 855.704034 133.632174 
L 855.704034 152.915652 
L 855.698218 152.915652 
z
" style="fill:#8085e9;"/>
   </g>
   <g id="patch_81">
    <path clip-path="url(#pfc7bfd1200)" d="M 854.706156 157.736522 
L 854.714748 157.736522 
L 854.714748 177.02 
L 854.706156 177.02 
z
" style="fill:#8085e9;"/>
   </g>
   <g id="patch_82">
    <path clip-path="url(#pfc7bfd1200)" d="M 853.719503 181.84087 
L 853.726407 181.84087 
L 853.726407 201.124348 
L 853.719503 201.124348 
z
" style="fill:#8085e9;"/>
   </g>
   <g id="patch_83">
    <path clip-path="url(#pfc7bfd1200)" d="M 849.880496 205.945217 
L 849.887722 205.945217 
L 849.887722 225.228696 
L 849.880496 225.228696 
z
" style="fill:#8085e9;"/>
   </g>
   <g id="patch_84">
    <path clip-path="url(#pfc7bfd1200)" d="M 849.711259 230.049565 
L 849.718005 230.049565 
L 849.718005 249.333043 
L 849.711259 249.333043 
z
" style="fill:#8085e9;"/>
   </g>
   <g id="patch_85">
    <path clip-path="url(#pfc7bfd1200)" d="M 853.542104 254.153913 
L 853.551815 254.153913 
L 853.551815 273.437391 
L 853.542104 273.437391 
z
" style="fill:#8085e9;"/>
   </g>
   <g id="patch_86">
    <path clip-path="url(#pfc7bfd1200)" d="M 856.217099 278.258261 
L 856.223213 278.258261 
L 856.223213 297.541739 
L 856.217099 297.541739 
z
" style="fill:#8085e9;"/>
   </g>
   <g id="patch_87">
    <path clip-path="url(#pfc7bfd1200)" d="M 850.509499 302.362609 
L 850.513938 302.362609 
L 850.513938 321.646087 
L 850.509499 321.646087 
z
" style="fill:#8085e9;"/>
   </g>
   <g id="patch_88">
    <path clip-path="url(#pfc7bfd1200)" d="M 855.991076 326.466957 
L 855.999395 326.466957 
L 855.999395 345.750435 
L 855.991076 345.750435 
z
" style="fill:#8085e9;"/>
   </g>
   <g id="patch_89">
    <path clip-path="url(#pfc7bfd1200)" d="M 853.726578 350.571304 
L 853.732287 350.571304 
L 853.732287 369.854783 
L 853.726578 369.854783 
z
" style="fill:#8085e9;"/>
   </g>
   <g id="patch_90">
    <path clip-path="url(#pfc7bfd1200)" d="M 853.665626 374.675652 
L 853.671896 374.675652 
L 853.671896 393.95913 
L 853.665626 393.95913 
z
" style="fill:#8085e9;"/>
   </g>
   <g id="patch_91">
    <path clip-path="url(#pfc7bfd1200)" d="M 857.158288 398.78 
L 857.164928 398.78 
L 857.164928 418.063478 
L 857.158288 418.063478 
z
" style="fill:#8085e9;"/>
   </g>
   <g id="patch_92">
    <path clip-path="url(#pfc7bfd1200)" d="M 856.684044 422.884348 
L 856.69341 422.884348 
L 856.69341 442.167826 
L 856.684044 442.167826 
z
" style="fill:#8085e9;"/>
   </g>
   <g id="patch_93">
    <path clip-path="url(#pfc7bfd1200)" d="M 851.659507 13.110435 
L 851.663363 13.110435 
L 851.663363 32.393913 
L 851.659507 32.393913 
z
" style="fill:#f15c80;"/>
   </g>
   <g id="patch_94">
    <path clip-path="url(#pfc7bfd1200)" d="M 856.047456 37.214783 
L 856.083643 37.214783 
L 856.083643 56.498261 
L 856.047456 56.498261 
z
" style="fill:#f15c80;"/>
   </g>
   <g id="patch_95">
    <path clip-path="url(#pfc7bfd1200)" d="M 853.618609 61.31913 
L 853.648933 61.31913 
L 853.648933 80.602609 
L 853.618609 80.602609 
z
" style="fill:#f15c80;"/>
   </g>
   <g id="patch_96">
    <path clip-path="url(#pfc7bfd1200)" d="M 844.419873 85.423478 
L 844.442128 85.423478 
L 844.442128 104.706957 
L 844.419873 104.706957 
z
" style="fill:#f15c80;"/>
   </g>
   <g id="patch_97">
    <path clip-path="url(#pfc7bfd1200)" d="M 855.601052 109.527826 
L 855.619618 109.527826 
L 855.619618 128.811304 
L 855.601052 128.811304 
z
" style="fill:#f15c80;"/>
   </g>
   <g id="patch_98">
    <path clip-path="url(#pfc7bfd1200)" d="M 855.704034 133.632174 
L 855.722398 133.632174 
L 855.722398 152.915652 
L 855.704034 152.915652 
z
" style="fill:#f15c80;"/>
   </g>
   <g id="patch_99">
    <path clip-path="url(#pfc7bfd1200)" d="M 854.714748 157.736522 
L 854.719784 157.736522 
L 854.719784 177.02 
L 854.714748 177.02 
z
" style="fill:#f15c80;"/>
   </g>
   <g id="patch_100">
    <path clip-path="url(#pfc7bfd1200)" d="M 853.726407 181.84087 
L 853.732033 181.84087 
L 853.732033 201.124348 
L 853.726407 201.124348 
z
" style="fill:#f15c80;"/>
   </g>
   <g id="patch_101">
    <path clip-path="url(#pfc7bfd1200)" d="M 849.887722 205.945217 
L 849.892166 205.945217 
L 849.892166 225.228696 
L 849.887722 225.228696 
z
" style="fill:#f15c80;"/>
   </g>
   <g id="patch_102">
    <path clip-path="url(#pfc7bfd1200)" d="M 849.718005 230.049565 
L 849.720592 230.049565 
L 849.720592 249.333043 
L 849.718005 249.333043 
z
" style="fill:#f15c80;"/>
   </g>
   <g id="patch_103">
    <path clip-path="url(#pfc7bfd1200)" d="M 853.551815 254.153913 
L 853.556452 254.153913 
L 853.556452 273.437391 
L 853.551815 273.437391 
z
" style="fill:#f15c80;"/>
   </g>
   <g id="patch_104">
    <path clip-path="url(#pfc7bfd1200)" d="M 856.223213 278.258261 
L 856.234009 278.258261 
L 856.234009 297.541739 
L 856.223213 297.541739 
z
" style="fill:#f15c80;"/>
   </g>
   <g id="patch_105">
    <path clip-path="url(#pfc7bfd1200)" d="M 850.513938 302.362609 
L 850.546261 302.362609 
L 850.546261 321.646087 
L 850.513938 321.646087 
z
" style="fill:#f15c80;"/>
   </g>
   <g id="patch_106">
    <path clip-path="url(#pfc7bfd1200)" d="M 855.999395 326.466957 
L 856.010654 326.466957 
L 856.010654 345.750435 
L 855.999395 345.750435 
z
" style="fill:#f15c80;"/>
   </g>
   <g id="patch_107">
    <path clip-path="url(#pfc7bfd1200)" d="M 853.732287 350.571304 
L 853.73991 350.571304 
L 853.73991 369.854783 
L 853.732287 369.854783 
z
" style="fill:#f15c80;"/>
   </g>
   <g id="patch_108">
    <path clip-path="url(#pfc7bfd1200)" d="M 853.671896 374.675652 
L 853.758439 374.675652 
L 853.758439 393.95913 
L 853.671896 393.95913 
z
" style="fill:#f15c80;"/>
   </g>
   <g id="patch_109">
    <path clip-path="url(#pfc7bfd1200)" d="M 857.164928 398.78 
L 857.173931 398.78 
L 857.173931 418.063478 
L 857.164928 418.063478 
z
" style="fill:#f15c80;"/>
   </g>
   <g id="patch_110">
    <path clip-path="url(#pfc7bfd1200)" d="M 856.69341 422.884348 
L 856.70373 422.884348 
L 856.70373 442.167826 
L 856.69341 442.167826 
z
" style="fill:#f15c80;"/>
   </g>
   <g id="patch_111">
    <path clip-path="url(#pfc7bfd1200)" d="M 851.663363 13.110435 
L 851.6971 13.110435 
L 851.6971 32.393913 
L 851.663363 32.393913 
z
" style="fill:#e4d354;"/>
   </g>
   <g id="patch_112">
    <path clip-path="url(#pfc7bfd1200)" d="M 856.083643 37.214783 
L 856.091651 37.214783 
L 856.091651 56.498261 
L 856.083643 56.498261 
z
" style="fill:#e4d354;"/>
   </g>
   <g id="patch_113">
    <path clip-path="url(#pfc7bfd1200)" d="M 853.648933 61.31913 
L 853.663455 61.31913 
L 853.663455 80.602609 
L 853.648933 80.602609 
z
" style="fill:#e4d354;"/>
   </g>
   <g id="patch_114">
    <path clip-path="url(#pfc7bfd1200)" d="M 844.442128 85.423478 
L 844.529036 85.423478 
L 844.529036 104.706957 
L 844.442128 104.706957 
z
" style="fill:#e4d354;"/>
   </g>
   <g id="patch_115">
    <path clip-path="url(#pfc7bfd1200)" d="M 855.619618 109.527826 
L 855.628227 109.527826 
L 855.628227 128.811304 
L 855.619618 128.811304 
z
" style="fill:#e4d354;"/>
   </g>
   <g id="patch_116">
    <path clip-path="url(#pfc7bfd1200)" d="M 855.722398 133.632174 
L 855.734521 133.632174 
L 855.734521 152.915652 
L 855.722398 152.915652 
z
" style="fill:#e4d354;"/>
   </g>
   <g id="patch_117">
    <path clip-path="url(#pfc7bfd1200)" d="M 854.719784 157.736522 
L 854.731932 157.736522 
L 854.731932 177.02 
L 854.719784 177.02 
z
" style="fill:#e4d354;"/>
   </g>
   <g id="patch_118">
    <path clip-path="url(#pfc7bfd1200)" d="M 853.732033 181.84087 
L 853.757764 181.84087 
L 853.757764 201.124348 
L 853.732033 201.124348 
z
" style="fill:#e4d354;"/>
   </g>
   <g id="patch_119">
    <path clip-path="url(#pfc7bfd1200)" d="M 849.892166 205.945217 
L 849.9248 205.945217 
L 849.9248 225.228696 
L 849.892166 225.228696 
z
" style="fill:#e4d354;"/>
   </g>
   <g id="patch_120">
    <path clip-path="url(#pfc7bfd1200)" d="M 849.720592 230.049565 
L 849.774007 230.049565 
L 849.774007 249.333043 
L 849.720592 249.333043 
z
" style="fill:#e4d354;"/>
   </g>
   <g id="patch_121">
    <path clip-path="url(#pfc7bfd1200)" d="M 853.556452 254.153913 
L 853.581357 254.153913 
L 853.581357 273.437391 
L 853.556452 273.437391 
z
" style="fill:#e4d354;"/>
   </g>
   <g id="patch_122">
    <path clip-path="url(#pfc7bfd1200)" d="M 856.234009 278.258261 
L 856.240094 278.258261 
L 856.240094 297.541739 
L 856.234009 297.541739 
z
" style="fill:#e4d354;"/>
   </g>
   <g id="patch_123">
    <path clip-path="url(#pfc7bfd1200)" d="M 850.546261 302.362609 
L 850.564194 302.362609 
L 850.564194 321.646087 
L 850.546261 321.646087 
z
" style="fill:#e4d354;"/>
   </g>
   <g id="patch_124">
    <path clip-path="url(#pfc7bfd1200)" d="M 856.010654 326.466957 
L 856.034674 326.466957 
L 856.034674 345.750435 
L 856.010654 345.750435 
z
" style="fill:#e4d354;"/>
   </g>
   <g id="patch_125">
    <path clip-path="url(#pfc7bfd1200)" d="M 853.73991 350.571304 
L 853.77021 350.571304 
L 853.77021 369.854783 
L 853.73991 369.854783 
z
" style="fill:#e4d354;"/>
   </g>
   <g id="patch_126">
    <path clip-path="url(#pfc7bfd1200)" d="M 853.758439 374.675652 
L 853.772024 374.675652 
L 853.772024 393.95913 
L 853.758439 393.95913 
z
" style="fill:#e4d354;"/>
   </g>
   <g id="patch_127">
    <path clip-path="url(#pfc7bfd1200)" d="M 857.173931 398.78 
L 857.185776 398.78 
L 857.185776 418.063478 
L 857.173931 418.063478 
z
" style="fill:#e4d354;"/>
   </g>
   <g id="patch_128">
    <path clip-path="url(#pfc7bfd1200)" d="M 856.70373 422.884348 
L 856.714498 422.884348 
L 856.714498 442.167826 
L 856.70373 442.167826 
z
" style="fill:#e4d354;"/>
   </g>
   <g id="patch_129">
    <path clip-path="url(#pfc7bfd1200)" d="M 851.6971 13.110435 
L 860.888714 13.110435 
L 860.888714 32.393913 
L 851.6971 32.393913 
z
" style="fill:#2b908f;"/>
   </g>
   <g id="patch_130">
    <path clip-path="url(#pfc7bfd1200)" d="M 856.091651 37.214783 
L 860.874343 37.214783 
L 860.874343 56.498261 
L 856.091651 56.498261 
z
" style="fill:#2b908f;"/>
   </g>
   <g id="patch_131">
    <path clip-path="url(#pfc7bfd1200)" d="M 853.663455 61.31913 
L 860.870348 61.31913 
L 860.870348 80.602609 
L 853.663455 80.602609 
z
" style="fill:#2b908f;"/>
   </g>
   <g id="patch_132">
    <path clip-path="url(#pfc7bfd1200)" d="M 844.529036 85.423478 
L 860.887119 85.423478 
L 860.887119 104.706957 
L 844.529036 104.706957 
z
" style="fill:#2b908f;"/>
   </g>
   <g id="patch_133">
    <path clip-path="url(#pfc7bfd1200)" d="M 855.628227 109.527826 
L 860.867992 109.527826 
L 860.867992 128.811304 
L 855.628227 128.811304 
z
" style="fill:#2b908f;"/>
   </g>
   <g id="patch_134">
    <path clip-path="url(#pfc7bfd1200)" d="M 855.734521 133.632174 
L 860.874509 133.632174 
L 860.874509 152.915652 
L 855.734521 152.915652 
z
" style="fill:#2b908f;"/>
   </g>
   <g id="patch_135">
    <path clip-path="url(#pfc7bfd1200)" d="M 854.731932 157.736522 
L 860.882722 157.736522 
L 860.882722 177.02 
L 854.731932 177.02 
z
" style="fill:#2b908f;"/>
   </g>
   <g id="patch_136">
    <path clip-path="url(#pfc7bfd1200)" d="M 853.757764 181.84087 
L 860.894115 181.84087 
L 860.894115 201.124348 
L 853.757764 201.124348 
z
" style="fill:#2b908f;"/>
   </g>
   <g id="patch_137">
    <path clip-path="url(#pfc7bfd1200)" d="M 849.9248 205.945217 
L 860.899219 205.945217 
L 860.899219 225.228696 
L 849.9248 225.228696 
z
" style="fill:#2b908f;"/>
   </g>
   <g id="patch_138">
    <path clip-path="url(#pfc7bfd1200)" d="M 849.774007 230.049565 
L 860.895336 230.049565 
L 860.895336 249.333043 
L 849.774007 249.333043 
z
" style="fill:#2b908f;"/>
   </g>
   <g id="patch_139">
    <path clip-path="url(#pfc7bfd1200)" d="M 853.581357 254.153913 
L 860.862439 254.153913 
L 860.862439 273.437391 
L 853.581357 273.437391 
z
" style="fill:#2b908f;"/>
   </g>
   <g id="patch_140">
    <path clip-path="url(#pfc7bfd1200)" d="M 856.240094 278.258261 
L 860.87852 278.258261 
L 860.87852 297.541739 
L 856.240094 297.541739 
z
" style="fill:#2b908f;"/>
   </g>
   <g id="patch_141">
    <path clip-path="url(#pfc7bfd1200)" d="M 850.564194 302.362609 
L 860.87105 302.362609 
L 860.87105 321.646087 
L 850.564194 321.646087 
z
" style="fill:#2b908f;"/>
   </g>
   <g id="patch_142">
    <path clip-path="url(#pfc7bfd1200)" d="M 856.034674 326.466957 
L 860.87718 326.466957 
L 860.87718 345.750435 
L 856.034674 345.750435 
z
" style="fill:#2b908f;"/>
   </g>
   <g id="patch_143">
    <path clip-path="url(#pfc7bfd1200)" d="M 853.77021 350.571304 
L 860.884473 350.571304 
L 860.884473 369.854783 
L 853.77021 369.854783 
z
" style="fill:#2b908f;"/>
   </g>
   <g id="patch_144">
    <path clip-path="url(#pfc7bfd1200)" d="M 853.772024 374.675652 
L 860.870277 374.675652 
L 860.870277 393.95913 
L 853.772024 393.95913 
z
" style="fill:#2b908f;"/>
   </g>
   <g id="patch_145">
    <path clip-path="url(#pfc7bfd1200)" d="M 857.185776 398.78 
L 860.881344 398.78 
L 860.881344 418.063478 
L 857.185776 418.063478 
z
" style="fill:#2b908f;"/>
   </g>
   <g id="patch_146">
    <path clip-path="url(#pfc7bfd1200)" d="M 856.714498 422.884348 
L 860.882184 422.884348 
L 860.882184 442.167826 
L 856.714498 442.167826 
z
" style="fill:#2b908f;"/>
   </g>
   <g id="patch_147">
    <path clip-path="url(#pfc7bfd1200)" d="M 860.888714 13.110435 
L 860.902363 13.110435 
L 860.902363 32.393913 
L 860.888714 32.393913 
z
" style="fill:#f45b5b;"/>
   </g>
   <g id="patch_148">
    <path clip-path="url(#pfc7bfd1200)" d="M 860.874343 37.214783 
L 860.897479 37.214783 
L 860.897479 56.498261 
L 860.874343 56.498261 
z
" style="fill:#f45b5b;"/>
   </g>
   <g id="patch_149">
    <path clip-path="url(#pfc7bfd1200)" d="M 860.870348 61.31913 
L 860.903877 61.31913 
L 860.903877 80.602609 
L 860.870348 80.602609 
z
" style="fill:#f45b5b;"/>
   </g>
   <g id="patch_150">
    <path clip-path="url(#pfc7bfd1200)" d="M 860.887119 85.423478 
L 860.901524 85.423478 
L 860.901524 104.706957 
L 860.887119 104.706957 
z
" style="fill:#f45b5b;"/>
   </g>
   <g id="patch_151">
    <path clip-path="url(#pfc7bfd1200)" d="M 860.867992 109.527826 
L 860.903589 109.527826 
L 860.903589 128.811304 
L 860.867992 128.811304 
z
" style="fill:#f45b5b;"/>
   </g>
   <g id="patch_152">
    <path clip-path="url(#pfc7bfd1200)" d="M 860.874509 133.632174 
L 860.903591 133.632174 
L 860.903591 152.915652 
L 860.874509 152.915652 
z
" style="fill:#f45b5b;"/>
   </g>
   <g id="patch_153">
    <path clip-path="url(#pfc7bfd1200)" d="M 860.882722 157.736522 
L 860.899937 157.736522 
L 860.899937 177.02 
L 860.882722 177.02 
z
" style="fill:#f45b5b;"/>
   </g>
   <g id="patch_154">
    <path clip-path="url(#pfc7bfd1200)" d="M 860.894115 181.84087 
L 860.901658 181.84087 
L 860.901658 201.124348 
L 860.894115 201.124348 
z
" style="fill:#f45b5b;"/>
   </g>
   <g id="patch_155">
    <path clip-path="url(#pfc7bfd1200)" d="M 860.899219 205.945217 
L 860.901661 205.945217 
L 860.901661 225.228696 
L 860.899219 225.228696 
z
" style="fill:#f45b5b;"/>
   </g>
   <g id="patch_156">
    <path clip-path="url(#pfc7bfd1200)" d="M 860.895336 230.049565 
L 860.901198 230.049565 
L 860.901198 249.333043 
L 860.895336 249.333043 
z
" style="fill:#f45b5b;"/>
   </g>
   <g id="patch_157">
    <path clip-path="url(#pfc7bfd1200)" d="M 860.862439 254.153913 
L 860.897901 254.153913 
L 860.897901 273.437391 
L 860.862439 273.437391 
z
" style="fill:#f45b5b;"/>
   </g>
   <g id="patch_158">
    <path clip-path="url(#pfc7bfd1200)" d="M 860.87852 278.258261 
L 860.903618 278.258261 
L 860.903618 297.541739 
L 860.87852 297.541739 
z
" style="fill:#f45b5b;"/>
   </g>
   <g id="patch_159">
    <path clip-path="url(#pfc7bfd1200)" d="M 860.87105 302.362609 
L 860.903588 302.362609 
L 860.903588 321.646087 
L 860.87105 321.646087 
z
" style="fill:#f45b5b;"/>
   </g>
   <g id="patch_160">
    <path clip-path="url(#pfc7bfd1200)" d="M 860.87718 326.466957 
L 860.901402 326.466957 
L 860.901402 345.750435 
L 860.87718 345.750435 
z
" style="fill:#f45b5b;"/>
   </g>
   <g id="patch_161">
    <path clip-path="url(#pfc7bfd1200)" d="M 860.884473 350.571304 
L 860.90278 350.571304 
L 860.90278 369.854783 
L 860.884473 369.854783 
z
" style="fill:#f45b5b;"/>
   </g>
   <g id="patch_162">
    <path clip-path="url(#pfc7bfd1200)" d="M 860.870277 374.675652 
L 860.90333 374.675652 
L 860.90333 393.95913 
L 860.870277 393.95913 
z
" style="fill:#f45b5b;"/>
   </g>
   <g id="patch_163">
    <path clip-path="url(#pfc7bfd1200)" d="M 860.881344 398.78 
L 860.903777 398.78 
L 860.903777 418.063478 
L 860.881344 418.063478 
z
" style="fill:#f45b5b;"/>
   </g>
   <g id="patch_164">
    <path clip-path="url(#pfc7bfd1200)" d="M 860.882184 422.884348 
L 860.898946 422.884348 
L 860.898946 442.167826 
L 860.882184 442.167826 
z
" style="fill:#f45b5b;"/>
   </g>
   <g id="patch_165">
    <path clip-path="url(#pfc7bfd1200)" d="M 860.902363 13.110435 
L 860.902363 13.110435 
L 860.902363 32.393913 
L 860.902363 32.393913 
z
" style="fill:#91e8e1;"/>
   </g>
   <g id="patch_166">
    <path clip-path="url(#pfc7bfd1200)" d="M 860.897479 37.214783 
L 860.897516 37.214783 
L 860.897516 56.498261 
L 860.897479 56.498261 
z
" style="fill:#91e8e1;"/>
   </g>
   <g id="patch_167">
    <path clip-path="url(#pfc7bfd1200)" d="M 860.903877 61.31913 
L 860.903948 61.31913 
L 860.903948 80.602609 
L 860.903877 80.602609 
z
" style="fill:#91e8e1;"/>
   </g>
   <g id="patch_168">
    <path clip-path="url(#pfc7bfd1200)" d="M 860.901524 85.423478 
L 860.901598 85.423478 
L 860.901598 104.706957 
L 860.901524 104.706957 
z
" style="fill:#91e8e1;"/>
   </g>
   <g id="patch_169">
    <path clip-path="url(#pfc7bfd1200)" d="M 860.903589 109.527826 
L 860.903589 109.527826 
L 860.903589 128.811304 
L 860.903589 128.811304 
z
" style="fill:#91e8e1;"/>
   </g>
   <g id="patch_170">
    <path clip-path="url(#pfc7bfd1200)" d="M 860.903591 133.632174 
L 860.903591 133.632174 
L 860.903591 152.915652 
L 860.903591 152.915652 
z
" style="fill:#91e8e1;"/>
   </g>
   <g id="patch_171">
    <path clip-path="url(#pfc7bfd1200)" d="M 860.899937 157.736522 
L 860.899937 157.736522 
L 860.899937 177.02 
L 860.899937 177.02 
z
" style="fill:#91e8e1;"/>
   </g>
   <g id="patch_172">
    <path clip-path="url(#pfc7bfd1200)" d="M 860.901658 181.84087 
L 860.90169 181.84087 
L 860.90169 201.124348 
L 860.901658 201.124348 
z
" style="fill:#91e8e1;"/>
   </g>
   <g id="patch_173">
    <path clip-path="url(#pfc7bfd1200)" d="M 860.901661 205.945217 
L 860.901763 205.945217 
L 860.901763 225.228696 
L 860.901661 225.228696 
z
" style="fill:#91e8e1;"/>
   </g>
   <g id="patch_174">
    <path clip-path="url(#pfc7bfd1200)" d="M 860.901198 230.049565 
L 860.901231 230.049565 
L 860.901231 249.333043 
L 860.901198 249.333043 
z
" style="fill:#91e8e1;"/>
   </g>
   <g id="patch_175">
    <path clip-path="url(#pfc7bfd1200)" d="M 860.897901 254.153913 
L 860.89793 254.153913 
L 860.89793 273.437391 
L 860.897901 273.437391 
z
" style="fill:#91e8e1;"/>
   </g>
   <g id="patch_176">
    <path clip-path="url(#pfc7bfd1200)" d="M 860.903618 278.258261 
L 860.903618 278.258261 
L 860.903618 297.541739 
L 860.903618 297.541739 
z
" style="fill:#91e8e1;"/>
   </g>
   <g id="patch_177">
    <path clip-path="url(#pfc7bfd1200)" d="M 860.903588 302.362609 
L 860.903588 302.362609 
L 860.903588 321.646087 
L 860.903588 321.646087 
z
" style="fill:#91e8e1;"/>
   </g>
   <g id="patch_178">
    <path clip-path="url(#pfc7bfd1200)" d="M 860.901402 326.466957 
L 860.901402 326.466957 
L 860.901402 345.750435 
L 860.901402 345.750435 
z
" style="fill:#91e8e1;"/>
   </g>
   <g id="patch_179">
    <path clip-path="url(#pfc7bfd1200)" d="M 860.90278 350.571304 
L 860.90278 350.571304 
L 860.90278 369.854783 
L 860.90278 369.854783 
z
" style="fill:#91e8e1;"/>
   </g>
   <g id="patch_180">
    <path clip-path="url(#pfc7bfd1200)" d="M 860.90333 374.675652 
L 860.903369 374.675652 
L 860.903369 393.95913 
L 860.90333 393.95913 
z
" style="fill:#91e8e1;"/>
   </g>
   <g id="patch_181">
    <path clip-path="url(#pfc7bfd1200)" d="M 860.903777 398.78 
L 860.903777 398.78 
L 860.903777 418.063478 
L 860.903777 418.063478 
z
" style="fill:#91e8e1;"/>
   </g>
   <g id="patch_182">
    <path clip-path="url(#pfc7bfd1200)" d="M 860.898946 422.884348 
L 860.899036 422.884348 
L 860.899036 442.167826 
L 860.898946 442.167826 
z
" style="fill:#91e8e1;"/>
   </g>
   <g id="patch_183">
    <path clip-path="url(#pfc7bfd1200)" d="M 860.902363 13.110435 
L 860.904375 13.110435 
L 860.904375 32.393913 
L 860.902363 32.393913 
z
" style="fill:#7cb5ec;"/>
   </g>
   <g id="patch_184">
    <path clip-path="url(#pfc7bfd1200)" d="M 860.897516 37.214783 
L 860.904375 37.214783 
L 860.904375 56.498261 
L 860.897516 56.498261 
z
" style="fill:#7cb5ec;"/>
   </g>
   <g id="patch_185">
    <path clip-path="url(#pfc7bfd1200)" d="M 860.903948 61.31913 
L 860.904375 61.31913 
L 860.904375 80.602609 
L 860.903948 80.602609 
z
" style="fill:#7cb5ec;"/>
   </g>
   <g id="patch_186">
    <path clip-path="url(#pfc7bfd1200)" d="M 860.901598 85.423478 
L 860.904375 85.423478 
L 860.904375 104.706957 
L 860.901598 104.706957 
z
" style="fill:#7cb5ec;"/>
   </g>
   <g id="patch_187">
    <path clip-path="url(#pfc7bfd1200)" d="M 860.903589 109.527826 
L 860.904375 109.527826 
L 860.904375 128.811304 
L 860.903589 128.811304 
z
" style="fill:#7cb5ec;"/>
   </g>
   <g id="patch_188">
    <path clip-path="url(#pfc7bfd1200)" d="M 860.903591 133.632174 
L 860.904375 133.632174 
L 860.904375 152.915652 
L 860.903591 152.915652 
z
" style="fill:#7cb5ec;"/>
   </g>
   <g id="patch_189">
    <path clip-path="url(#pfc7bfd1200)" d="M 860.899937 157.736522 
L 860.904375 157.736522 
L 860.904375 177.02 
L 860.899937 177.02 
z
" style="fill:#7cb5ec;"/>
   </g>
   <g id="patch_190">
    <path clip-path="url(#pfc7bfd1200)" d="M 860.90169 181.84087 
L 860.904375 181.84087 
L 860.904375 201.124348 
L 860.90169 201.124348 
z
" style="fill:#7cb5ec;"/>
   </g>
   <g id="patch_191">
    <path clip-path="url(#pfc7bfd1200)" d="M 860.901763 205.945217 
L 860.904375 205.945217 
L 860.904375 225.228696 
L 860.901763 225.228696 
z
" style="fill:#7cb5ec;"/>
   </g>
   <g id="patch_192">
    <path clip-path="url(#pfc7bfd1200)" d="M 860.901231 230.049565 
L 860.904375 230.049565 
L 860.904375 249.333043 
L 860.901231 249.333043 
z
" style="fill:#7cb5ec;"/>
   </g>
   <g id="patch_193">
    <path clip-path="url(#pfc7bfd1200)" d="M 860.89793 254.153913 
L 860.904375 254.153913 
L 860.904375 273.437391 
L 860.89793 273.437391 
z
" style="fill:#7cb5ec;"/>
   </g>
   <g id="patch_194">
    <path clip-path="url(#pfc7bfd1200)" d="M 860.903618 278.258261 
L 860.904375 278.258261 
L 860.904375 297.541739 
L 860.903618 297.541739 
z
" style="fill:#7cb5ec;"/>
   </g>
   <g id="patch_195">
    <path clip-path="url(#pfc7bfd1200)" d="M 860.903588 302.362609 
L 860.904375 302.362609 
L 860.904375 321.646087 
L 860.903588 321.646087 
z
" style="fill:#7cb5ec;"/>
   </g>
   <g id="patch_196">
    <path clip-path="url(#pfc7bfd1200)" d="M 860.901402 326.466957 
L 860.904375 326.466957 
L 860.904375 345.750435 
L 860.901402 345.750435 
z
" style="fill:#7cb5ec;"/>
   </g>
   <g id="patch_197">
    <path clip-path="url(#pfc7bfd1200)" d="M 860.90278 350.571304 
L 860.904375 350.571304 
L 860.904375 369.854783 
L 860.90278 369.854783 
z
" style="fill:#7cb5ec;"/>
   </g>
   <g id="patch_198">
    <path clip-path="url(#pfc7bfd1200)" d="M 860.903369 374.675652 
L 860.904375 374.675652 
L 860.904375 393.95913 
L 860.903369 393.95913 
z
" style="fill:#7cb5ec;"/>
   </g>
   <g id="patch_199">
    <path clip-path="url(#pfc7bfd1200)" d="M 860.903777 398.78 
L 860.904375 398.78 
L 860.904375 418.063478 
L 860.903777 418.063478 
z
" style="fill:#7cb5ec;"/>
   </g>
   <g id="patch_200">
    <path clip-path="url(#pfc7bfd1200)" d="M 860.899036 422.884348 
L 860.904375 422.884348 
L 860.904375 442.167826 
L 860.899036 442.167826 
z
" style="fill:#7cb5ec;"/>
   </g>
   <g id="text_26">
    <!-- featureCounts: Biotypes -->
    <defs>
     <path d="M 37.109375 75.984375 
L 37.109375 68.5 
L 28.515625 68.5 
Q 23.6875 68.5 21.796875 66.546875 
Q 19.921875 64.59375 19.921875 59.515625 
L 19.921875 54.6875 
L 34.71875 54.6875 
L 34.71875 47.703125 
L 19.921875 47.703125 
L 19.921875 0 
L 10.890625 0 
L 10.890625 47.703125 
L 2.296875 47.703125 
L 2.296875 54.6875 
L 10.890625 54.6875 
L 10.890625 58.5 
Q 10.890625 67.625 15.140625 71.796875 
Q 19.390625 75.984375 28.609375 75.984375 
z
" id="DejaVuSans-102"/>
     <path d="M 18.3125 70.21875 
L 18.3125 54.6875 
L 36.8125 54.6875 
L 36.8125 47.703125 
L 18.3125 47.703125 
L 18.3125 18.015625 
Q 18.3125 11.328125 20.140625 9.421875 
Q 21.96875 7.515625 27.59375 7.515625 
L 36.8125 7.515625 
L 36.8125 0 
L 27.59375 0 
Q 17.1875 0 13.234375 3.875 
Q 9.28125 7.765625 9.28125 18.015625 
L 9.28125 47.703125 
L 2.6875 47.703125 
L 2.6875 54.6875 
L 9.28125 54.6875 
L 9.28125 70.21875 
z
" id="DejaVuSans-116"/>
     <path d="M 8.5 21.578125 
L 8.5 54.6875 
L 17.484375 54.6875 
L 17.484375 21.921875 
Q 17.484375 14.15625 20.5 10.265625 
Q 23.53125 6.390625 29.59375 6.390625 
Q 36.859375 6.390625 41.078125 11.03125 
Q 45.3125 15.671875 45.3125 23.6875 
L 45.3125 54.6875 
L 54.296875 54.6875 
L 54.296875 0 
L 45.3125 0 
L 45.3125 8.40625 
Q 42.046875 3.421875 37.71875 1 
Q 33.40625 -1.421875 27.6875 -1.421875 
Q 18.265625 -1.421875 13.375 4.4375 
Q 8.5 10.296875 8.5 21.578125 
z
M 31.109375 56 
z
" id="DejaVuSans-117"/>
     <path d="M 41.109375 46.296875 
Q 39.59375 47.171875 37.8125 47.578125 
Q 36.03125 48 33.890625 48 
Q 26.265625 48 22.1875 43.046875 
Q 18.109375 38.09375 18.109375 28.8125 
L 18.109375 0 
L 9.078125 0 
L 9.078125 54.6875 
L 18.109375 54.6875 
L 18.109375 46.1875 
Q 20.953125 51.171875 25.484375 53.578125 
Q 30.03125 56 36.53125 56 
Q 37.453125 56 38.578125 55.875 
Q 39.703125 55.765625 41.0625 55.515625 
z
" id="DejaVuSans-114"/>
     <path d="M 64.40625 67.28125 
L 64.40625 56.890625 
Q 59.421875 61.53125 53.78125 63.8125 
Q 48.140625 66.109375 41.796875 66.109375 
Q 29.296875 66.109375 22.65625 58.46875 
Q 16.015625 50.828125 16.015625 36.375 
Q 16.015625 21.96875 22.65625 14.328125 
Q 29.296875 6.6875 41.796875 6.6875 
Q 48.140625 6.6875 53.78125 8.984375 
Q 59.421875 11.28125 64.40625 15.921875 
L 64.40625 5.609375 
Q 59.234375 2.09375 53.4375 0.328125 
Q 47.65625 -1.421875 41.21875 -1.421875 
Q 24.65625 -1.421875 15.125 8.703125 
Q 5.609375 18.84375 5.609375 36.375 
Q 5.609375 53.953125 15.125 64.078125 
Q 24.65625 74.21875 41.21875 74.21875 
Q 47.75 74.21875 53.53125 72.484375 
Q 59.328125 70.75 64.40625 67.28125 
z
" id="DejaVuSans-67"/>
     <path d="M 30.609375 48.390625 
Q 23.390625 48.390625 19.1875 42.75 
Q 14.984375 37.109375 14.984375 27.296875 
Q 14.984375 17.484375 19.15625 11.84375 
Q 23.34375 6.203125 30.609375 6.203125 
Q 37.796875 6.203125 41.984375 11.859375 
Q 46.1875 17.53125 46.1875 27.296875 
Q 46.1875 37.015625 41.984375 42.703125 
Q 37.796875 48.390625 30.609375 48.390625 
z
M 30.609375 56 
Q 42.328125 56 49.015625 48.375 
Q 55.71875 40.765625 55.71875 27.296875 
Q 55.71875 13.875 49.015625 6.21875 
Q 42.328125 -1.421875 30.609375 -1.421875 
Q 18.84375 -1.421875 12.171875 6.21875 
Q 5.515625 13.875 5.515625 27.296875 
Q 5.515625 40.765625 12.171875 48.375 
Q 18.84375 56 30.609375 56 
z
" id="DejaVuSans-111"/>
     <path d="M 54.890625 33.015625 
L 54.890625 0 
L 45.90625 0 
L 45.90625 32.71875 
Q 45.90625 40.484375 42.875 44.328125 
Q 39.84375 48.1875 33.796875 48.1875 
Q 26.515625 48.1875 22.3125 43.546875 
Q 18.109375 38.921875 18.109375 30.90625 
L 18.109375 0 
L 9.078125 0 
L 9.078125 54.6875 
L 18.109375 54.6875 
L 18.109375 46.1875 
Q 21.34375 51.125 25.703125 53.5625 
Q 30.078125 56 35.796875 56 
Q 45.21875 56 50.046875 50.171875 
Q 54.890625 44.34375 54.890625 33.015625 
z
" id="DejaVuSans-110"/>
     <path d="M 11.71875 12.40625 
L 22.015625 12.40625 
L 22.015625 0 
L 11.71875 0 
z
M 11.71875 51.703125 
L 22.015625 51.703125 
L 22.015625 39.3125 
L 11.71875 39.3125 
z
" id="DejaVuSans-58"/>
     <path d="M 19.671875 34.8125 
L 19.671875 8.109375 
L 35.5 8.109375 
Q 43.453125 8.109375 47.28125 11.40625 
Q 51.125 14.703125 51.125 21.484375 
Q 51.125 28.328125 47.28125 31.5625 
Q 43.453125 34.8125 35.5 34.8125 
z
M 19.671875 64.796875 
L 19.671875 42.828125 
L 34.28125 42.828125 
Q 41.5 42.828125 45.03125 45.53125 
Q 48.578125 48.25 48.578125 53.8125 
Q 48.578125 59.328125 45.03125 62.0625 
Q 41.5 64.796875 34.28125 64.796875 
z
M 9.8125 72.90625 
L 35.015625 72.90625 
Q 46.296875 72.90625 52.390625 68.21875 
Q 58.5 63.53125 58.5 54.890625 
Q 58.5 48.1875 55.375 44.234375 
Q 52.25 40.28125 46.1875 39.3125 
Q 53.46875 37.75 57.5 32.78125 
Q 61.53125 27.828125 61.53125 20.40625 
Q 61.53125 10.640625 54.890625 5.3125 
Q 48.25 0 35.984375 0 
L 9.8125 0 
z
" id="DejaVuSans-66"/>
     <path d="M 9.421875 54.6875 
L 18.40625 54.6875 
L 18.40625 0 
L 9.421875 0 
z
M 9.421875 75.984375 
L 18.40625 75.984375 
L 18.40625 64.59375 
L 9.421875 64.59375 
z
" id="DejaVuSans-105"/>
     <path d="M 32.171875 -5.078125 
Q 28.375 -14.84375 24.75 -17.8125 
Q 21.140625 -20.796875 15.09375 -20.796875 
L 7.90625 -20.796875 
L 7.90625 -13.28125 
L 13.1875 -13.28125 
Q 16.890625 -13.28125 18.9375 -11.515625 
Q 21 -9.765625 23.484375 -3.21875 
L 25.09375 0.875 
L 2.984375 54.6875 
L 12.5 54.6875 
L 29.59375 11.921875 
L 46.6875 54.6875 
L 56.203125 54.6875 
z
" id="DejaVuSans-121"/>
     <path d="M 18.109375 8.203125 
L 18.109375 -20.796875 
L 9.078125 -20.796875 
L 9.078125 54.6875 
L 18.109375 54.6875 
L 18.109375 46.390625 
Q 20.953125 51.265625 25.265625 53.625 
Q 29.59375 56 35.59375 56 
Q 45.5625 56 51.78125 48.09375 
Q 58.015625 40.1875 58.015625 27.296875 
Q 58.015625 14.40625 51.78125 6.484375 
Q 45.5625 -1.421875 35.59375 -1.421875 
Q 29.59375 -1.421875 25.265625 0.953125 
Q 20.953125 3.328125 18.109375 8.203125 
z
M 48.6875 27.296875 
Q 48.6875 37.203125 44.609375 42.84375 
Q 40.53125 48.484375 33.40625 48.484375 
Q 26.265625 48.484375 22.1875 42.84375 
Q 18.109375 37.203125 18.109375 27.296875 
Q 18.109375 17.390625 22.1875 11.75 
Q 26.265625 6.109375 33.40625 6.109375 
Q 40.53125 6.109375 44.609375 11.75 
Q 48.6875 17.390625 48.6875 27.296875 
z
" id="DejaVuSans-112"/>
    </defs>
    <g transform="translate(373.439375 -17.02)scale(0.16 -0.16)">
     <use xlink:href="#DejaVuSans-102"/>
     <use x="35.205078" xlink:href="#DejaVuSans-101"/>
     <use x="96.728516" xlink:href="#DejaVuSans-97"/>
     <use x="158.007812" xlink:href="#DejaVuSans-116"/>
     <use x="197.216797" xlink:href="#DejaVuSans-117"/>
     <use x="260.595703" xlink:href="#DejaVuSans-114"/>
     <use x="301.677734" xlink:href="#DejaVuSans-101"/>
     <use x="363.201172" xlink:href="#DejaVuSans-67"/>
     <use x="433.025391" xlink:href="#DejaVuSans-111"/>
     <use x="494.207031" xlink:href="#DejaVuSans-117"/>
     <use x="557.585938" xlink:href="#DejaVuSans-110"/>
     <use x="620.964844" xlink:href="#DejaVuSans-116"/>
     <use x="660.173828" xlink:href="#DejaVuSans-115"/>
     <use x="712.273438" xlink:href="#DejaVuSans-58"/>
     <use x="745.964844" xlink:href="#DejaVuSans-32"/>
     <use x="777.751953" xlink:href="#DejaVuSans-66"/>
     <use x="846.355469" xlink:href="#DejaVuSans-105"/>
     <use x="874.138672" xlink:href="#DejaVuSans-111"/>
     <use x="935.320312" xlink:href="#DejaVuSans-116"/>
     <use x="974.529297" xlink:href="#DejaVuSans-121"/>
     <use x="1033.708984" xlink:href="#DejaVuSans-112"/>
     <use x="1097.185547" xlink:href="#DejaVuSans-101"/>
     <use x="1158.708984" xlink:href="#DejaVuSans-115"/>
    </g>
   </g>
   <g id="legend_1">
    <g id="patch_201">
     <path d="M 86.904375 495.167011 
L 102.904375 495.167011 
L 102.904375 489.567011 
L 86.904375 489.567011 
z
" style="fill:#7cb5ec;"/>
    </g>
    <g id="text_27">
     <!-- mRNA -->
     <defs>
      <path d="M 52 44.1875 
Q 55.375 50.25 60.0625 53.125 
Q 64.75 56 71.09375 56 
Q 79.640625 56 84.28125 50.015625 
Q 88.921875 44.046875 88.921875 33.015625 
L 88.921875 0 
L 79.890625 0 
L 79.890625 32.71875 
Q 79.890625 40.578125 77.09375 44.375 
Q 74.3125 48.1875 68.609375 48.1875 
Q 61.625 48.1875 57.5625 43.546875 
Q 53.515625 38.921875 53.515625 30.90625 
L 53.515625 0 
L 44.484375 0 
L 44.484375 32.71875 
Q 44.484375 40.625 41.703125 44.40625 
Q 38.921875 48.1875 33.109375 48.1875 
Q 26.21875 48.1875 22.15625 43.53125 
Q 18.109375 38.875 18.109375 30.90625 
L 18.109375 0 
L 9.078125 0 
L 9.078125 54.6875 
L 18.109375 54.6875 
L 18.109375 46.1875 
Q 21.1875 51.21875 25.484375 53.609375 
Q 29.78125 56 35.6875 56 
Q 41.65625 56 45.828125 52.96875 
Q 50 49.953125 52 44.1875 
z
" id="DejaVuSans-109"/>
      <path d="M 9.8125 72.90625 
L 23.09375 72.90625 
L 55.421875 11.921875 
L 55.421875 72.90625 
L 64.984375 72.90625 
L 64.984375 0 
L 51.703125 0 
L 19.390625 60.984375 
L 19.390625 0 
L 9.8125 0 
z
" id="DejaVuSans-78"/>
      <path d="M 34.1875 63.1875 
L 20.796875 26.90625 
L 47.609375 26.90625 
z
M 28.609375 72.90625 
L 39.796875 72.90625 
L 67.578125 0 
L 57.328125 0 
L 50.6875 18.703125 
L 17.828125 18.703125 
L 11.1875 0 
L 0.78125 0 
z
" id="DejaVuSans-65"/>
     </defs>
     <g transform="translate(109.304375 495.167011)scale(0.08 -0.08)">
      <use xlink:href="#DejaVuSans-109"/>
      <use x="97.412109" xlink:href="#DejaVuSans-82"/>
      <use x="166.894531" xlink:href="#DejaVuSans-78"/>
      <use x="241.699219" xlink:href="#DejaVuSans-65"/>
     </g>
    </g>
    <g id="patch_202">
     <path d="M 86.904375 506.909511 
L 102.904375 506.909511 
L 102.904375 501.309511 
L 86.904375 501.309511 
z
" style="fill:#434348;"/>
    </g>
    <g id="text_28">
     <!-- tRNA -->
     <g transform="translate(109.304375 506.909511)scale(0.08 -0.08)">
      <use xlink:href="#DejaVuSans-116"/>
      <use x="39.208984" xlink:href="#DejaVuSans-82"/>
      <use x="108.691406" xlink:href="#DejaVuSans-78"/>
      <use x="183.496094" xlink:href="#DejaVuSans-65"/>
     </g>
    </g>
    <g id="patch_203">
     <path d="M 86.904375 518.652011 
L 102.904375 518.652011 
L 102.904375 513.052011 
L 86.904375 513.052011 
z
" style="fill:#90ed7d;"/>
    </g>
    <g id="text_29">
     <!-- lnc_RNA -->
     <defs>
      <path d="M 9.421875 75.984375 
L 18.40625 75.984375 
L 18.40625 0 
L 9.421875 0 
z
" id="DejaVuSans-108"/>
      <path d="M 48.78125 52.59375 
L 48.78125 44.1875 
Q 44.96875 46.296875 41.140625 47.34375 
Q 37.3125 48.390625 33.40625 48.390625 
Q 24.65625 48.390625 19.8125 42.84375 
Q 14.984375 37.3125 14.984375 27.296875 
Q 14.984375 17.28125 19.8125 11.734375 
Q 24.65625 6.203125 33.40625 6.203125 
Q 37.3125 6.203125 41.140625 7.25 
Q 44.96875 8.296875 48.78125 10.40625 
L 48.78125 2.09375 
Q 45.015625 0.34375 40.984375 -0.53125 
Q 36.96875 -1.421875 32.421875 -1.421875 
Q 20.0625 -1.421875 12.78125 6.34375 
Q 5.515625 14.109375 5.515625 27.296875 
Q 5.515625 40.671875 12.859375 48.328125 
Q 20.21875 56 33.015625 56 
Q 37.15625 56 41.109375 55.140625 
Q 45.0625 54.296875 48.78125 52.59375 
z
" id="DejaVuSans-99"/>
      <path d="M 50.984375 -16.609375 
L 50.984375 -23.578125 
L -0.984375 -23.578125 
L -0.984375 -16.609375 
z
" id="DejaVuSans-95"/>
     </defs>
     <g transform="translate(109.304375 518.652011)scale(0.08 -0.08)">
      <use xlink:href="#DejaVuSans-108"/>
      <use x="27.783203" xlink:href="#DejaVuSans-110"/>
      <use x="91.162109" xlink:href="#DejaVuSans-99"/>
      <use x="146.142578" xlink:href="#DejaVuSans-95"/>
      <use x="196.142578" xlink:href="#DejaVuSans-82"/>
      <use x="265.625" xlink:href="#DejaVuSans-78"/>
      <use x="340.429688" xlink:href="#DejaVuSans-65"/>
     </g>
    </g>
    <g id="patch_204">
     <path d="M 248.648125 495.167011 
L 264.648125 495.167011 
L 264.648125 489.567011 
L 248.648125 489.567011 
z
" style="fill:#f7a35c;"/>
    </g>
    <g id="text_30">
     <!-- snoRNA -->
     <g transform="translate(271.048125 495.167011)scale(0.08 -0.08)">
      <use xlink:href="#DejaVuSans-115"/>
      <use x="52.099609" xlink:href="#DejaVuSans-110"/>
      <use x="115.478516" xlink:href="#DejaVuSans-111"/>
      <use x="176.660156" xlink:href="#DejaVuSans-82"/>
      <use x="246.142578" xlink:href="#DejaVuSans-78"/>
      <use x="320.947266" xlink:href="#DejaVuSans-65"/>
     </g>
    </g>
    <g id="patch_205">
     <path d="M 248.648125 506.909511 
L 264.648125 506.909511 
L 264.648125 501.309511 
L 248.648125 501.309511 
z
" style="fill:#8085e9;"/>
    </g>
    <g id="text_31">
     <!-- snRNA -->
     <g transform="translate(271.048125 506.909511)scale(0.08 -0.08)">
      <use xlink:href="#DejaVuSans-115"/>
      <use x="52.099609" xlink:href="#DejaVuSans-110"/>
      <use x="115.478516" xlink:href="#DejaVuSans-82"/>
      <use x="184.960938" xlink:href="#DejaVuSans-78"/>
      <use x="259.765625" xlink:href="#DejaVuSans-65"/>
     </g>
    </g>
    <g id="patch_206">
     <path d="M 408.833125 495.167011 
L 424.833125 495.167011 
L 424.833125 489.567011 
L 408.833125 489.567011 
z
" style="fill:#f15c80;"/>
    </g>
    <g id="text_32">
     <!-- pre_miRNA -->
     <g transform="translate(431.233125 495.167011)scale(0.08 -0.08)">
      <use xlink:href="#DejaVuSans-112"/>
      <use x="63.476562" xlink:href="#DejaVuSans-114"/>
      <use x="104.558594" xlink:href="#DejaVuSans-101"/>
      <use x="166.082031" xlink:href="#DejaVuSans-95"/>
      <use x="216.082031" xlink:href="#DejaVuSans-109"/>
      <use x="313.494141" xlink:href="#DejaVuSans-105"/>
      <use x="341.277344" xlink:href="#DejaVuSans-82"/>
      <use x="410.759766" xlink:href="#DejaVuSans-78"/>
      <use x="485.564453" xlink:href="#DejaVuSans-65"/>
     </g>
    </g>
    <g id="patch_207">
     <path d="M 408.833125 507.132011 
L 424.833125 507.132011 
L 424.833125 501.532011 
L 408.833125 501.532011 
z
" style="fill:#e4d354;"/>
    </g>
    <g id="text_33">
     <!-- SRP_RNA -->
     <defs>
      <path d="M 19.671875 64.796875 
L 19.671875 37.40625 
L 32.078125 37.40625 
Q 38.96875 37.40625 42.71875 40.96875 
Q 46.484375 44.53125 46.484375 51.125 
Q 46.484375 57.671875 42.71875 61.234375 
Q 38.96875 64.796875 32.078125 64.796875 
z
M 9.8125 72.90625 
L 32.078125 72.90625 
Q 44.34375 72.90625 50.609375 67.359375 
Q 56.890625 61.8125 56.890625 51.125 
Q 56.890625 40.328125 50.609375 34.8125 
Q 44.34375 29.296875 32.078125 29.296875 
L 19.671875 29.296875 
L 19.671875 0 
L 9.8125 0 
z
" id="DejaVuSans-80"/>
     </defs>
     <g transform="translate(431.233125 507.132011)scale(0.08 -0.08)">
      <use xlink:href="#DejaVuSans-83"/>
      <use x="63.476562" xlink:href="#DejaVuSans-82"/>
      <use x="132.958984" xlink:href="#DejaVuSans-80"/>
      <use x="193.261719" xlink:href="#DejaVuSans-95"/>
      <use x="243.261719" xlink:href="#DejaVuSans-82"/>
      <use x="312.744141" xlink:href="#DejaVuSans-78"/>
      <use x="387.548828" xlink:href="#DejaVuSans-65"/>
     </g>
    </g>
    <g id="patch_208">
     <path d="M 582.188125 495.167011 
L 598.188125 495.167011 
L 598.188125 489.567011 
L 582.188125 489.567011 
z
" style="fill:#2b908f;"/>
    </g>
    <g id="text_34">
     <!-- rRNA -->
     <g transform="translate(604.588125 495.167011)scale(0.08 -0.08)">
      <use xlink:href="#DejaVuSans-114"/>
      <use x="41.113281" xlink:href="#DejaVuSans-82"/>
      <use x="110.595703" xlink:href="#DejaVuSans-78"/>
      <use x="185.400391" xlink:href="#DejaVuSans-65"/>
     </g>
    </g>
    <g id="patch_209">
     <path d="M 582.188125 506.909511 
L 598.188125 506.909511 
L 598.188125 501.309511 
L 582.188125 501.309511 
z
" style="fill:#f45b5b;"/>
    </g>
    <g id="text_35">
     <!-- ncRNA -->
     <g transform="translate(604.588125 506.909511)scale(0.08 -0.08)">
      <use xlink:href="#DejaVuSans-110"/>
      <use x="63.378906" xlink:href="#DejaVuSans-99"/>
      <use x="118.359375" xlink:href="#DejaVuSans-82"/>
      <use x="187.841797" xlink:href="#DejaVuSans-78"/>
      <use x="262.646484" xlink:href="#DejaVuSans-65"/>
     </g>
    </g>
    <g id="patch_210">
     <path d="M 737.709375 495.167011 
L 753.709375 495.167011 
L 753.709375 489.567011 
L 737.709375 489.567011 
z
" style="fill:#91e8e1;"/>
    </g>
    <g id="text_36">
     <!-- RNase_MRP_RNA -->
     <defs>
      <path d="M 9.8125 72.90625 
L 24.515625 72.90625 
L 43.109375 23.296875 
L 61.8125 72.90625 
L 76.515625 72.90625 
L 76.515625 0 
L 66.890625 0 
L 66.890625 64.015625 
L 48.09375 14.015625 
L 38.1875 14.015625 
L 19.390625 64.015625 
L 19.390625 0 
L 9.8125 0 
z
" id="DejaVuSans-77"/>
     </defs>
     <g transform="translate(760.109375 495.167011)scale(0.08 -0.08)">
      <use xlink:href="#DejaVuSans-82"/>
      <use x="69.482422" xlink:href="#DejaVuSans-78"/>
      <use x="144.287109" xlink:href="#DejaVuSans-97"/>
      <use x="205.566406" xlink:href="#DejaVuSans-115"/>
      <use x="257.666016" xlink:href="#DejaVuSans-101"/>
      <use x="319.189453" xlink:href="#DejaVuSans-95"/>
      <use x="369.189453" xlink:href="#DejaVuSans-77"/>
      <use x="455.46875" xlink:href="#DejaVuSans-82"/>
      <use x="524.951172" xlink:href="#DejaVuSans-80"/>
      <use x="585.253906" xlink:href="#DejaVuSans-95"/>
      <use x="635.253906" xlink:href="#DejaVuSans-82"/>
      <use x="704.736328" xlink:href="#DejaVuSans-78"/>
      <use x="779.541016" xlink:href="#DejaVuSans-65"/>
     </g>
    </g>
    <g id="patch_211">
     <path d="M 737.709375 507.132011 
L 753.709375 507.132011 
L 753.709375 501.532011 
L 737.709375 501.532011 
z
" style="fill:#7cb5ec;"/>
    </g>
    <g id="text_37">
     <!-- pseudogenic_transcript -->
     <defs>
      <path d="M 45.40625 27.984375 
Q 45.40625 37.75 41.375 43.109375 
Q 37.359375 48.484375 30.078125 48.484375 
Q 22.859375 48.484375 18.828125 43.109375 
Q 14.796875 37.75 14.796875 27.984375 
Q 14.796875 18.265625 18.828125 12.890625 
Q 22.859375 7.515625 30.078125 7.515625 
Q 37.359375 7.515625 41.375 12.890625 
Q 45.40625 18.265625 45.40625 27.984375 
z
M 54.390625 6.78125 
Q 54.390625 -7.171875 48.1875 -13.984375 
Q 42 -20.796875 29.203125 -20.796875 
Q 24.46875 -20.796875 20.265625 -20.09375 
Q 16.0625 -19.390625 12.109375 -17.921875 
L 12.109375 -9.1875 
Q 16.0625 -11.328125 19.921875 -12.34375 
Q 23.78125 -13.375 27.78125 -13.375 
Q 36.625 -13.375 41.015625 -8.765625 
Q 45.40625 -4.15625 45.40625 5.171875 
L 45.40625 9.625 
Q 42.625 4.78125 38.28125 2.390625 
Q 33.9375 0 27.875 0 
Q 17.828125 0 11.671875 7.65625 
Q 5.515625 15.328125 5.515625 27.984375 
Q 5.515625 40.671875 11.671875 48.328125 
Q 17.828125 56 27.875 56 
Q 33.9375 56 38.28125 53.609375 
Q 42.625 51.21875 45.40625 46.390625 
L 45.40625 54.6875 
L 54.390625 54.6875 
z
" id="DejaVuSans-103"/>
     </defs>
     <g transform="translate(760.109375 507.132011)scale(0.08 -0.08)">
      <use xlink:href="#DejaVuSans-112"/>
      <use x="63.476562" xlink:href="#DejaVuSans-115"/>
      <use x="115.576172" xlink:href="#DejaVuSans-101"/>
      <use x="177.099609" xlink:href="#DejaVuSans-117"/>
      <use x="240.478516" xlink:href="#DejaVuSans-100"/>
      <use x="303.955078" xlink:href="#DejaVuSans-111"/>
      <use x="365.136719" xlink:href="#DejaVuSans-103"/>
      <use x="428.613281" xlink:href="#DejaVuSans-101"/>
      <use x="490.136719" xlink:href="#DejaVuSans-110"/>
      <use x="553.515625" xlink:href="#DejaVuSans-105"/>
      <use x="581.298828" xlink:href="#DejaVuSans-99"/>
      <use x="636.279297" xlink:href="#DejaVuSans-95"/>
      <use x="686.279297" xlink:href="#DejaVuSans-116"/>
      <use x="725.488281" xlink:href="#DejaVuSans-114"/>
      <use x="766.601562" xlink:href="#DejaVuSans-97"/>
      <use x="827.880859" xlink:href="#DejaVuSans-110"/>
      <use x="891.259766" xlink:href="#DejaVuSans-115"/>
      <use x="943.359375" xlink:href="#DejaVuSans-99"/>
      <use x="998.339844" xlink:href="#DejaVuSans-114"/>
      <use x="1039.453125" xlink:href="#DejaVuSans-105"/>
      <use x="1067.236328" xlink:href="#DejaVuSans-112"/>
      <use x="1130.712891" xlink:href="#DejaVuSans-116"/>
     </g>
    </g>
   </g>
  </g>
 </g>
 <defs>
  <clipPath id="pfc7bfd1200">
   <rect height="433.878261" width="781.2" x="79.704375" y="10.7"/>
  </clipPath>
 </defs>
</svg>
