<?xml version="1.0" encoding="utf-8" standalone="no"?>
<!DOCTYPE svg PUBLIC "-//W3C//DTD SVG 1.1//EN"
  "http://www.w3.org/Graphics/SVG/1.1/DTD/svg11.dtd">
<!-- Created with matplotlib (https://matplotlib.org/) -->
<svg height="388.844525pt" version="1.1" viewBox="0 0 1001.098125 388.844525" width="1001.098125pt" xmlns="http://www.w3.org/2000/svg" xmlns:xlink="http://www.w3.org/1999/xlink">
 <defs>
  <style type="text/css">
*{stroke-linecap:butt;stroke-linejoin:round;}
  </style>
 </defs>
 <g id="figure_1">
  <g id="patch_1">
   <path d="M 0 388.844525 
L 1001.098125 388.844525 
L 1001.098125 0 
L 0 0 
z
" style="fill:#ffffff;"/>
  </g>
  <g id="axes_1">
   <g id="patch_2">
    <path d="M 63.508125 353.2239 
L 990.398125 353.2239 
L 990.398125 35.2559 
L 63.508125 35.2559 
z
" style="fill:#ffffff;"/>
   </g>
   <g id="matplotlib.axis_1">
    <g id="xtick_1">
     <g id="text_1">
      <!-- 0 -->
      <defs>
       <path d="M 31.78125 66.40625 
Q 24.171875 66.40625 20.328125 58.90625 
Q 16.5 51.421875 16.5 36.375 
Q 16.5 21.390625 20.328125 13.890625 
Q 24.171875 6.390625 31.78125 6.390625 
Q 39.453125 6.390625 43.28125 13.890625 
Q 47.125 21.390625 47.125 36.375 
Q 47.125 51.421875 43.28125 58.90625 
Q 39.453125 66.40625 31.78125 66.40625 
z
M 31.78125 74.21875 
Q 44.046875 74.21875 50.515625 64.515625 
Q 56.984375 54.828125 56.984375 36.375 
Q 56.984375 17.96875 50.515625 8.265625 
Q 44.046875 -1.421875 31.78125 -1.421875 
Q 19.53125 -1.421875 13.0625 8.265625 
Q 6.59375 17.96875 6.59375 36.375 
Q 6.59375 54.828125 13.0625 64.515625 
Q 19.53125 74.21875 31.78125 74.21875 
z
" id="DejaVuSans-48"/>
      </defs>
      <g transform="translate(97.439272 366.30265)scale(0.08 -0.08)">
       <use xlink:href="#DejaVuSans-48"/>
      </g>
     </g>
    </g>
    <g id="xtick_2">
     <g id="text_2">
      <!-- 20 -->
      <defs>
       <path d="M 19.1875 8.296875 
L 53.609375 8.296875 
L 53.609375 0 
L 7.328125 0 
L 7.328125 8.296875 
Q 12.9375 14.109375 22.625 23.890625 
Q 32.328125 33.6875 34.8125 36.53125 
Q 39.546875 41.84375 41.421875 45.53125 
Q 43.3125 49.21875 43.3125 52.78125 
Q 43.3125 58.59375 39.234375 62.25 
Q 35.15625 65.921875 28.609375 65.921875 
Q 23.96875 65.921875 18.8125 64.3125 
Q 13.671875 62.703125 7.8125 59.421875 
L 7.8125 69.390625 
Q 13.765625 71.78125 18.9375 73 
Q 24.125 74.21875 28.421875 74.21875 
Q 39.75 74.21875 46.484375 68.546875 
Q 53.21875 62.890625 53.21875 53.421875 
Q 53.21875 48.921875 51.53125 44.890625 
Q 49.859375 40.875 45.40625 35.40625 
Q 44.1875 33.984375 37.640625 27.21875 
Q 31.109375 20.453125 19.1875 8.296875 
z
" id="DejaVuSans-50"/>
      </defs>
      <g transform="translate(207.998604 366.30265)scale(0.08 -0.08)">
       <use xlink:href="#DejaVuSans-50"/>
       <use x="63.623047" xlink:href="#DejaVuSans-48"/>
      </g>
     </g>
    </g>
    <g id="xtick_3">
     <g id="text_3">
      <!-- 40 -->
      <defs>
       <path d="M 37.796875 64.3125 
L 12.890625 25.390625 
L 37.796875 25.390625 
z
M 35.203125 72.90625 
L 47.609375 72.90625 
L 47.609375 25.390625 
L 58.015625 25.390625 
L 58.015625 17.1875 
L 47.609375 17.1875 
L 47.609375 0 
L 37.796875 0 
L 37.796875 17.1875 
L 4.890625 17.1875 
L 4.890625 26.703125 
z
" id="DejaVuSans-52"/>
      </defs>
      <g transform="translate(321.102936 366.30265)scale(0.08 -0.08)">
       <use xlink:href="#DejaVuSans-52"/>
       <use x="63.623047" xlink:href="#DejaVuSans-48"/>
      </g>
     </g>
    </g>
    <g id="xtick_4">
     <g id="text_4">
      <!-- 60 -->
      <defs>
       <path d="M 33.015625 40.375 
Q 26.375 40.375 22.484375 35.828125 
Q 18.609375 31.296875 18.609375 23.390625 
Q 18.609375 15.53125 22.484375 10.953125 
Q 26.375 6.390625 33.015625 6.390625 
Q 39.65625 6.390625 43.53125 10.953125 
Q 47.40625 15.53125 47.40625 23.390625 
Q 47.40625 31.296875 43.53125 35.828125 
Q 39.65625 40.375 33.015625 40.375 
z
M 52.59375 71.296875 
L 52.59375 62.3125 
Q 48.875 64.0625 45.09375 64.984375 
Q 41.3125 65.921875 37.59375 65.921875 
Q 27.828125 65.921875 22.671875 59.328125 
Q 17.53125 52.734375 16.796875 39.40625 
Q 19.671875 43.65625 24.015625 45.921875 
Q 28.375 48.1875 33.59375 48.1875 
Q 44.578125 48.1875 50.953125 41.515625 
Q 57.328125 34.859375 57.328125 23.390625 
Q 57.328125 12.15625 50.6875 5.359375 
Q 44.046875 -1.421875 33.015625 -1.421875 
Q 20.359375 -1.421875 13.671875 8.265625 
Q 6.984375 17.96875 6.984375 36.375 
Q 6.984375 53.65625 15.1875 63.9375 
Q 23.390625 74.21875 37.203125 74.21875 
Q 40.921875 74.21875 44.703125 73.484375 
Q 48.484375 72.75 52.59375 71.296875 
z
" id="DejaVuSans-54"/>
      </defs>
      <g transform="translate(434.207268 366.30265)scale(0.08 -0.08)">
       <use xlink:href="#DejaVuSans-54"/>
       <use x="63.623047" xlink:href="#DejaVuSans-48"/>
      </g>
     </g>
    </g>
    <g id="xtick_5">
     <g id="text_5">
      <!-- 80 -->
      <defs>
       <path d="M 31.78125 34.625 
Q 24.75 34.625 20.71875 30.859375 
Q 16.703125 27.09375 16.703125 20.515625 
Q 16.703125 13.921875 20.71875 10.15625 
Q 24.75 6.390625 31.78125 6.390625 
Q 38.8125 6.390625 42.859375 10.171875 
Q 46.921875 13.96875 46.921875 20.515625 
Q 46.921875 27.09375 42.890625 30.859375 
Q 38.875 34.625 31.78125 34.625 
z
M 21.921875 38.8125 
Q 15.578125 40.375 12.03125 44.71875 
Q 8.5 49.078125 8.5 55.328125 
Q 8.5 64.0625 14.71875 69.140625 
Q 20.953125 74.21875 31.78125 74.21875 
Q 42.671875 74.21875 48.875 69.140625 
Q 55.078125 64.0625 55.078125 55.328125 
Q 55.078125 49.078125 51.53125 44.71875 
Q 48 40.375 41.703125 38.8125 
Q 48.828125 37.15625 52.796875 32.3125 
Q 56.78125 27.484375 56.78125 20.515625 
Q 56.78125 9.90625 50.3125 4.234375 
Q 43.84375 -1.421875 31.78125 -1.421875 
Q 19.734375 -1.421875 13.25 4.234375 
Q 6.78125 9.90625 6.78125 20.515625 
Q 6.78125 27.484375 10.78125 32.3125 
Q 14.796875 37.15625 21.921875 38.8125 
z
M 18.3125 54.390625 
Q 18.3125 48.734375 21.84375 45.5625 
Q 25.390625 42.390625 31.78125 42.390625 
Q 38.140625 42.390625 41.71875 45.5625 
Q 45.3125 48.734375 45.3125 54.390625 
Q 45.3125 60.0625 41.71875 63.234375 
Q 38.140625 66.40625 31.78125 66.40625 
Q 25.390625 66.40625 21.84375 63.234375 
Q 18.3125 60.0625 18.3125 54.390625 
z
" id="DejaVuSans-56"/>
      </defs>
      <g transform="translate(547.3116 366.30265)scale(0.08 -0.08)">
       <use xlink:href="#DejaVuSans-56"/>
       <use x="63.623047" xlink:href="#DejaVuSans-48"/>
      </g>
     </g>
    </g>
    <g id="xtick_6">
     <g id="text_6">
      <!-- 100 -->
      <defs>
       <path d="M 12.40625 8.296875 
L 28.515625 8.296875 
L 28.515625 63.921875 
L 10.984375 60.40625 
L 10.984375 69.390625 
L 28.421875 72.90625 
L 38.28125 72.90625 
L 38.28125 8.296875 
L 54.390625 8.296875 
L 54.390625 0 
L 12.40625 0 
z
" id="DejaVuSans-49"/>
      </defs>
      <g transform="translate(657.870932 366.30265)scale(0.08 -0.08)">
       <use xlink:href="#DejaVuSans-49"/>
       <use x="63.623047" xlink:href="#DejaVuSans-48"/>
       <use x="127.246094" xlink:href="#DejaVuSans-48"/>
      </g>
     </g>
    </g>
    <g id="xtick_7">
     <g id="text_7">
      <!-- 120 -->
      <g transform="translate(770.975263 366.30265)scale(0.08 -0.08)">
       <use xlink:href="#DejaVuSans-49"/>
       <use x="63.623047" xlink:href="#DejaVuSans-50"/>
       <use x="127.246094" xlink:href="#DejaVuSans-48"/>
      </g>
     </g>
    </g>
    <g id="xtick_8">
     <g id="text_8">
      <!-- 140 -->
      <g transform="translate(884.079595 366.30265)scale(0.08 -0.08)">
       <use xlink:href="#DejaVuSans-49"/>
       <use x="63.623047" xlink:href="#DejaVuSans-52"/>
       <use x="127.246094" xlink:href="#DejaVuSans-48"/>
      </g>
     </g>
    </g>
    <g id="text_9">
     <!-- Length Trimmed (bp) -->
     <defs>
      <path d="M 9.8125 72.90625 
L 19.671875 72.90625 
L 19.671875 8.296875 
L 55.171875 8.296875 
L 55.171875 0 
L 9.8125 0 
z
" id="DejaVuSans-76"/>
      <path d="M 56.203125 29.59375 
L 56.203125 25.203125 
L 14.890625 25.203125 
Q 15.484375 15.921875 20.484375 11.0625 
Q 25.484375 6.203125 34.421875 6.203125 
Q 39.59375 6.203125 44.453125 7.46875 
Q 49.3125 8.734375 54.109375 11.28125 
L 54.109375 2.78125 
Q 49.265625 0.734375 44.1875 -0.34375 
Q 39.109375 -1.421875 33.890625 -1.421875 
Q 20.796875 -1.421875 13.15625 6.1875 
Q 5.515625 13.8125 5.515625 26.8125 
Q 5.515625 40.234375 12.765625 48.109375 
Q 20.015625 56 32.328125 56 
Q 43.359375 56 49.78125 48.890625 
Q 56.203125 41.796875 56.203125 29.59375 
z
M 47.21875 32.234375 
Q 47.125 39.59375 43.09375 43.984375 
Q 39.0625 48.390625 32.421875 48.390625 
Q 24.90625 48.390625 20.390625 44.140625 
Q 15.875 39.890625 15.1875 32.171875 
z
" id="DejaVuSans-101"/>
      <path d="M 54.890625 33.015625 
L 54.890625 0 
L 45.90625 0 
L 45.90625 32.71875 
Q 45.90625 40.484375 42.875 44.328125 
Q 39.84375 48.1875 33.796875 48.1875 
Q 26.515625 48.1875 22.3125 43.546875 
Q 18.109375 38.921875 18.109375 30.90625 
L 18.109375 0 
L 9.078125 0 
L 9.078125 54.6875 
L 18.109375 54.6875 
L 18.109375 46.1875 
Q 21.34375 51.125 25.703125 53.5625 
Q 30.078125 56 35.796875 56 
Q 45.21875 56 50.046875 50.171875 
Q 54.890625 44.34375 54.890625 33.015625 
z
" id="DejaVuSans-110"/>
      <path d="M 45.40625 27.984375 
Q 45.40625 37.75 41.375 43.109375 
Q 37.359375 48.484375 30.078125 48.484375 
Q 22.859375 48.484375 18.828125 43.109375 
Q 14.796875 37.75 14.796875 27.984375 
Q 14.796875 18.265625 18.828125 12.890625 
Q 22.859375 7.515625 30.078125 7.515625 
Q 37.359375 7.515625 41.375 12.890625 
Q 45.40625 18.265625 45.40625 27.984375 
z
M 54.390625 6.78125 
Q 54.390625 -7.171875 48.1875 -13.984375 
Q 42 -20.796875 29.203125 -20.796875 
Q 24.46875 -20.796875 20.265625 -20.09375 
Q 16.0625 -19.390625 12.109375 -17.921875 
L 12.109375 -9.1875 
Q 16.0625 -11.328125 19.921875 -12.34375 
Q 23.78125 -13.375 27.78125 -13.375 
Q 36.625 -13.375 41.015625 -8.765625 
Q 45.40625 -4.15625 45.40625 5.171875 
L 45.40625 9.625 
Q 42.625 4.78125 38.28125 2.390625 
Q 33.9375 0 27.875 0 
Q 17.828125 0 11.671875 7.65625 
Q 5.515625 15.328125 5.515625 27.984375 
Q 5.515625 40.671875 11.671875 48.328125 
Q 17.828125 56 27.875 56 
Q 33.9375 56 38.28125 53.609375 
Q 42.625 51.21875 45.40625 46.390625 
L 45.40625 54.6875 
L 54.390625 54.6875 
z
" id="DejaVuSans-103"/>
      <path d="M 18.3125 70.21875 
L 18.3125 54.6875 
L 36.8125 54.6875 
L 36.8125 47.703125 
L 18.3125 47.703125 
L 18.3125 18.015625 
Q 18.3125 11.328125 20.140625 9.421875 
Q 21.96875 7.515625 27.59375 7.515625 
L 36.8125 7.515625 
L 36.8125 0 
L 27.59375 0 
Q 17.1875 0 13.234375 3.875 
Q 9.28125 7.765625 9.28125 18.015625 
L 9.28125 47.703125 
L 2.6875 47.703125 
L 2.6875 54.6875 
L 9.28125 54.6875 
L 9.28125 70.21875 
z
" id="DejaVuSans-116"/>
      <path d="M 54.890625 33.015625 
L 54.890625 0 
L 45.90625 0 
L 45.90625 32.71875 
Q 45.90625 40.484375 42.875 44.328125 
Q 39.84375 48.1875 33.796875 48.1875 
Q 26.515625 48.1875 22.3125 43.546875 
Q 18.109375 38.921875 18.109375 30.90625 
L 18.109375 0 
L 9.078125 0 
L 9.078125 75.984375 
L 18.109375 75.984375 
L 18.109375 46.1875 
Q 21.34375 51.125 25.703125 53.5625 
Q 30.078125 56 35.796875 56 
Q 45.21875 56 50.046875 50.171875 
Q 54.890625 44.34375 54.890625 33.015625 
z
" id="DejaVuSans-104"/>
      <path id="DejaVuSans-32"/>
      <path d="M -0.296875 72.90625 
L 61.375 72.90625 
L 61.375 64.59375 
L 35.5 64.59375 
L 35.5 0 
L 25.59375 0 
L 25.59375 64.59375 
L -0.296875 64.59375 
z
" id="DejaVuSans-84"/>
      <path d="M 41.109375 46.296875 
Q 39.59375 47.171875 37.8125 47.578125 
Q 36.03125 48 33.890625 48 
Q 26.265625 48 22.1875 43.046875 
Q 18.109375 38.09375 18.109375 28.8125 
L 18.109375 0 
L 9.078125 0 
L 9.078125 54.6875 
L 18.109375 54.6875 
L 18.109375 46.1875 
Q 20.953125 51.171875 25.484375 53.578125 
Q 30.03125 56 36.53125 56 
Q 37.453125 56 38.578125 55.875 
Q 39.703125 55.765625 41.0625 55.515625 
z
" id="DejaVuSans-114"/>
      <path d="M 9.421875 54.6875 
L 18.40625 54.6875 
L 18.40625 0 
L 9.421875 0 
z
M 9.421875 75.984375 
L 18.40625 75.984375 
L 18.40625 64.59375 
L 9.421875 64.59375 
z
" id="DejaVuSans-105"/>
      <path d="M 52 44.1875 
Q 55.375 50.25 60.0625 53.125 
Q 64.75 56 71.09375 56 
Q 79.640625 56 84.28125 50.015625 
Q 88.921875 44.046875 88.921875 33.015625 
L 88.921875 0 
L 79.890625 0 
L 79.890625 32.71875 
Q 79.890625 40.578125 77.09375 44.375 
Q 74.3125 48.1875 68.609375 48.1875 
Q 61.625 48.1875 57.5625 43.546875 
Q 53.515625 38.921875 53.515625 30.90625 
L 53.515625 0 
L 44.484375 0 
L 44.484375 32.71875 
Q 44.484375 40.625 41.703125 44.40625 
Q 38.921875 48.1875 33.109375 48.1875 
Q 26.21875 48.1875 22.15625 43.53125 
Q 18.109375 38.875 18.109375 30.90625 
L 18.109375 0 
L 9.078125 0 
L 9.078125 54.6875 
L 18.109375 54.6875 
L 18.109375 46.1875 
Q 21.1875 51.21875 25.484375 53.609375 
Q 29.78125 56 35.6875 56 
Q 41.65625 56 45.828125 52.96875 
Q 50 49.953125 52 44.1875 
z
" id="DejaVuSans-109"/>
      <path d="M 45.40625 46.390625 
L 45.40625 75.984375 
L 54.390625 75.984375 
L 54.390625 0 
L 45.40625 0 
L 45.40625 8.203125 
Q 42.578125 3.328125 38.25 0.953125 
Q 33.9375 -1.421875 27.875 -1.421875 
Q 17.96875 -1.421875 11.734375 6.484375 
Q 5.515625 14.40625 5.515625 27.296875 
Q 5.515625 40.1875 11.734375 48.09375 
Q 17.96875 56 27.875 56 
Q 33.9375 56 38.25 53.625 
Q 42.578125 51.265625 45.40625 46.390625 
z
M 14.796875 27.296875 
Q 14.796875 17.390625 18.875 11.75 
Q 22.953125 6.109375 30.078125 6.109375 
Q 37.203125 6.109375 41.296875 11.75 
Q 45.40625 17.390625 45.40625 27.296875 
Q 45.40625 37.203125 41.296875 42.84375 
Q 37.203125 48.484375 30.078125 48.484375 
Q 22.953125 48.484375 18.875 42.84375 
Q 14.796875 37.203125 14.796875 27.296875 
z
" id="DejaVuSans-100"/>
      <path d="M 31 75.875 
Q 24.46875 64.65625 21.28125 53.65625 
Q 18.109375 42.671875 18.109375 31.390625 
Q 18.109375 20.125 21.3125 9.0625 
Q 24.515625 -2 31 -13.1875 
L 23.1875 -13.1875 
Q 15.875 -1.703125 12.234375 9.375 
Q 8.59375 20.453125 8.59375 31.390625 
Q 8.59375 42.28125 12.203125 53.3125 
Q 15.828125 64.359375 23.1875 75.875 
z
" id="DejaVuSans-40"/>
      <path d="M 48.6875 27.296875 
Q 48.6875 37.203125 44.609375 42.84375 
Q 40.53125 48.484375 33.40625 48.484375 
Q 26.265625 48.484375 22.1875 42.84375 
Q 18.109375 37.203125 18.109375 27.296875 
Q 18.109375 17.390625 22.1875 11.75 
Q 26.265625 6.109375 33.40625 6.109375 
Q 40.53125 6.109375 44.609375 11.75 
Q 48.6875 17.390625 48.6875 27.296875 
z
M 18.109375 46.390625 
Q 20.953125 51.265625 25.265625 53.625 
Q 29.59375 56 35.59375 56 
Q 45.5625 56 51.78125 48.09375 
Q 58.015625 40.1875 58.015625 27.296875 
Q 58.015625 14.40625 51.78125 6.484375 
Q 45.5625 -1.421875 35.59375 -1.421875 
Q 29.59375 -1.421875 25.265625 0.953125 
Q 20.953125 3.328125 18.109375 8.203125 
L 18.109375 0 
L 9.078125 0 
L 9.078125 75.984375 
L 18.109375 75.984375 
z
" id="DejaVuSans-98"/>
      <path d="M 18.109375 8.203125 
L 18.109375 -20.796875 
L 9.078125 -20.796875 
L 9.078125 54.6875 
L 18.109375 54.6875 
L 18.109375 46.390625 
Q 20.953125 51.265625 25.265625 53.625 
Q 29.59375 56 35.59375 56 
Q 45.5625 56 51.78125 48.09375 
Q 58.015625 40.1875 58.015625 27.296875 
Q 58.015625 14.40625 51.78125 6.484375 
Q 45.5625 -1.421875 35.59375 -1.421875 
Q 29.59375 -1.421875 25.265625 0.953125 
Q 20.953125 3.328125 18.109375 8.203125 
z
M 48.6875 27.296875 
Q 48.6875 37.203125 44.609375 42.84375 
Q 40.53125 48.484375 33.40625 48.484375 
Q 26.265625 48.484375 22.1875 42.84375 
Q 18.109375 37.203125 18.109375 27.296875 
Q 18.109375 17.390625 22.1875 11.75 
Q 26.265625 6.109375 33.40625 6.109375 
Q 40.53125 6.109375 44.609375 11.75 
Q 48.6875 17.390625 48.6875 27.296875 
z
" id="DejaVuSans-112"/>
      <path d="M 8.015625 75.875 
L 15.828125 75.875 
Q 23.140625 64.359375 26.78125 53.3125 
Q 30.421875 42.28125 30.421875 31.390625 
Q 30.421875 20.453125 26.78125 9.375 
Q 23.140625 -1.703125 15.828125 -13.1875 
L 8.015625 -13.1875 
Q 14.5 -2 17.703125 9.0625 
Q 20.90625 20.125 20.90625 31.390625 
Q 20.90625 42.671875 17.703125 53.65625 
Q 14.5 64.65625 8.015625 75.875 
z
" id="DejaVuSans-41"/>
     </defs>
     <g transform="translate(473.7125 379.564837)scale(0.1 -0.1)">
      <use xlink:href="#DejaVuSans-76"/>
      <use x="55.697266" xlink:href="#DejaVuSans-101"/>
      <use x="117.220703" xlink:href="#DejaVuSans-110"/>
      <use x="180.599609" xlink:href="#DejaVuSans-103"/>
      <use x="244.076172" xlink:href="#DejaVuSans-116"/>
      <use x="283.285156" xlink:href="#DejaVuSans-104"/>
      <use x="346.664062" xlink:href="#DejaVuSans-32"/>
      <use x="378.451172" xlink:href="#DejaVuSans-84"/>
      <use x="439.316406" xlink:href="#DejaVuSans-114"/>
      <use x="480.429688" xlink:href="#DejaVuSans-105"/>
      <use x="508.212891" xlink:href="#DejaVuSans-109"/>
      <use x="605.625" xlink:href="#DejaVuSans-109"/>
      <use x="703.037109" xlink:href="#DejaVuSans-101"/>
      <use x="764.560547" xlink:href="#DejaVuSans-100"/>
      <use x="828.037109" xlink:href="#DejaVuSans-32"/>
      <use x="859.824219" xlink:href="#DejaVuSans-40"/>
      <use x="898.837891" xlink:href="#DejaVuSans-98"/>
      <use x="962.314453" xlink:href="#DejaVuSans-112"/>
      <use x="1025.791016" xlink:href="#DejaVuSans-41"/>
     </g>
    </g>
   </g>
   <g id="matplotlib.axis_2">
    <g id="ytick_1">
     <g id="line2d_1">
      <path clip-path="url(#p1067162507)" d="M 63.508125 353.2239 
L 990.398125 353.2239 
" style="fill:none;stroke:#dedede;stroke-linecap:square;"/>
     </g>
     <g id="text_10">
      <!-- 0 -->
      <g transform="translate(51.418125 356.263275)scale(0.08 -0.08)">
       <use xlink:href="#DejaVuSans-48"/>
      </g>
     </g>
    </g>
    <g id="ytick_2">
     <g id="line2d_2">
      <path clip-path="url(#p1067162507)" d="M 63.508125 313.250376 
L 990.398125 313.250376 
" style="fill:none;stroke:#dedede;stroke-linecap:square;"/>
     </g>
     <g id="text_11">
      <!-- 1000000 -->
      <g transform="translate(20.878125 316.289751)scale(0.08 -0.08)">
       <use xlink:href="#DejaVuSans-49"/>
       <use x="63.623047" xlink:href="#DejaVuSans-48"/>
       <use x="127.246094" xlink:href="#DejaVuSans-48"/>
       <use x="190.869141" xlink:href="#DejaVuSans-48"/>
       <use x="254.492188" xlink:href="#DejaVuSans-48"/>
       <use x="318.115234" xlink:href="#DejaVuSans-48"/>
       <use x="381.738281" xlink:href="#DejaVuSans-48"/>
      </g>
     </g>
    </g>
    <g id="ytick_3">
     <g id="line2d_3">
      <path clip-path="url(#p1067162507)" d="M 63.508125 273.276851 
L 990.398125 273.276851 
" style="fill:none;stroke:#dedede;stroke-linecap:square;"/>
     </g>
     <g id="text_12">
      <!-- 2000000 -->
      <g transform="translate(20.878125 276.316226)scale(0.08 -0.08)">
       <use xlink:href="#DejaVuSans-50"/>
       <use x="63.623047" xlink:href="#DejaVuSans-48"/>
       <use x="127.246094" xlink:href="#DejaVuSans-48"/>
       <use x="190.869141" xlink:href="#DejaVuSans-48"/>
       <use x="254.492188" xlink:href="#DejaVuSans-48"/>
       <use x="318.115234" xlink:href="#DejaVuSans-48"/>
       <use x="381.738281" xlink:href="#DejaVuSans-48"/>
      </g>
     </g>
    </g>
    <g id="ytick_4">
     <g id="line2d_4">
      <path clip-path="url(#p1067162507)" d="M 63.508125 233.303327 
L 990.398125 233.303327 
" style="fill:none;stroke:#dedede;stroke-linecap:square;"/>
     </g>
     <g id="text_13">
      <!-- 3000000 -->
      <defs>
       <path d="M 40.578125 39.3125 
Q 47.65625 37.796875 51.625 33 
Q 55.609375 28.21875 55.609375 21.1875 
Q 55.609375 10.40625 48.1875 4.484375 
Q 40.765625 -1.421875 27.09375 -1.421875 
Q 22.515625 -1.421875 17.65625 -0.515625 
Q 12.796875 0.390625 7.625 2.203125 
L 7.625 11.71875 
Q 11.71875 9.328125 16.59375 8.109375 
Q 21.484375 6.890625 26.8125 6.890625 
Q 36.078125 6.890625 40.9375 10.546875 
Q 45.796875 14.203125 45.796875 21.1875 
Q 45.796875 27.640625 41.28125 31.265625 
Q 36.765625 34.90625 28.71875 34.90625 
L 20.21875 34.90625 
L 20.21875 43.015625 
L 29.109375 43.015625 
Q 36.375 43.015625 40.234375 45.921875 
Q 44.09375 48.828125 44.09375 54.296875 
Q 44.09375 59.90625 40.109375 62.90625 
Q 36.140625 65.921875 28.71875 65.921875 
Q 24.65625 65.921875 20.015625 65.03125 
Q 15.375 64.15625 9.8125 62.3125 
L 9.8125 71.09375 
Q 15.4375 72.65625 20.34375 73.4375 
Q 25.25 74.21875 29.59375 74.21875 
Q 40.828125 74.21875 47.359375 69.109375 
Q 53.90625 64.015625 53.90625 55.328125 
Q 53.90625 49.265625 50.4375 45.09375 
Q 46.96875 40.921875 40.578125 39.3125 
z
" id="DejaVuSans-51"/>
      </defs>
      <g transform="translate(20.878125 236.342702)scale(0.08 -0.08)">
       <use xlink:href="#DejaVuSans-51"/>
       <use x="63.623047" xlink:href="#DejaVuSans-48"/>
       <use x="127.246094" xlink:href="#DejaVuSans-48"/>
       <use x="190.869141" xlink:href="#DejaVuSans-48"/>
       <use x="254.492188" xlink:href="#DejaVuSans-48"/>
       <use x="318.115234" xlink:href="#DejaVuSans-48"/>
       <use x="381.738281" xlink:href="#DejaVuSans-48"/>
      </g>
     </g>
    </g>
    <g id="ytick_5">
     <g id="line2d_5">
      <path clip-path="url(#p1067162507)" d="M 63.508125 193.329803 
L 990.398125 193.329803 
" style="fill:none;stroke:#dedede;stroke-linecap:square;"/>
     </g>
     <g id="text_14">
      <!-- 4000000 -->
      <g transform="translate(20.878125 196.369178)scale(0.08 -0.08)">
       <use xlink:href="#DejaVuSans-52"/>
       <use x="63.623047" xlink:href="#DejaVuSans-48"/>
       <use x="127.246094" xlink:href="#DejaVuSans-48"/>
       <use x="190.869141" xlink:href="#DejaVuSans-48"/>
       <use x="254.492188" xlink:href="#DejaVuSans-48"/>
       <use x="318.115234" xlink:href="#DejaVuSans-48"/>
       <use x="381.738281" xlink:href="#DejaVuSans-48"/>
      </g>
     </g>
    </g>
    <g id="ytick_6">
     <g id="line2d_6">
      <path clip-path="url(#p1067162507)" d="M 63.508125 153.356278 
L 990.398125 153.356278 
" style="fill:none;stroke:#dedede;stroke-linecap:square;"/>
     </g>
     <g id="text_15">
      <!-- 5000000 -->
      <defs>
       <path d="M 10.796875 72.90625 
L 49.515625 72.90625 
L 49.515625 64.59375 
L 19.828125 64.59375 
L 19.828125 46.734375 
Q 21.96875 47.46875 24.109375 47.828125 
Q 26.265625 48.1875 28.421875 48.1875 
Q 40.625 48.1875 47.75 41.5 
Q 54.890625 34.8125 54.890625 23.390625 
Q 54.890625 11.625 47.5625 5.09375 
Q 40.234375 -1.421875 26.90625 -1.421875 
Q 22.3125 -1.421875 17.546875 -0.640625 
Q 12.796875 0.140625 7.71875 1.703125 
L 7.71875 11.625 
Q 12.109375 9.234375 16.796875 8.0625 
Q 21.484375 6.890625 26.703125 6.890625 
Q 35.15625 6.890625 40.078125 11.328125 
Q 45.015625 15.765625 45.015625 23.390625 
Q 45.015625 31 40.078125 35.4375 
Q 35.15625 39.890625 26.703125 39.890625 
Q 22.75 39.890625 18.8125 39.015625 
Q 14.890625 38.140625 10.796875 36.28125 
z
" id="DejaVuSans-53"/>
      </defs>
      <g transform="translate(20.878125 156.395653)scale(0.08 -0.08)">
       <use xlink:href="#DejaVuSans-53"/>
       <use x="63.623047" xlink:href="#DejaVuSans-48"/>
       <use x="127.246094" xlink:href="#DejaVuSans-48"/>
       <use x="190.869141" xlink:href="#DejaVuSans-48"/>
       <use x="254.492188" xlink:href="#DejaVuSans-48"/>
       <use x="318.115234" xlink:href="#DejaVuSans-48"/>
       <use x="381.738281" xlink:href="#DejaVuSans-48"/>
      </g>
     </g>
    </g>
    <g id="ytick_7">
     <g id="line2d_7">
      <path clip-path="url(#p1067162507)" d="M 63.508125 113.382754 
L 990.398125 113.382754 
" style="fill:none;stroke:#dedede;stroke-linecap:square;"/>
     </g>
     <g id="text_16">
      <!-- 6000000 -->
      <g transform="translate(20.878125 116.422129)scale(0.08 -0.08)">
       <use xlink:href="#DejaVuSans-54"/>
       <use x="63.623047" xlink:href="#DejaVuSans-48"/>
       <use x="127.246094" xlink:href="#DejaVuSans-48"/>
       <use x="190.869141" xlink:href="#DejaVuSans-48"/>
       <use x="254.492188" xlink:href="#DejaVuSans-48"/>
       <use x="318.115234" xlink:href="#DejaVuSans-48"/>
       <use x="381.738281" xlink:href="#DejaVuSans-48"/>
      </g>
     </g>
    </g>
    <g id="ytick_8">
     <g id="line2d_8">
      <path clip-path="url(#p1067162507)" d="M 63.508125 73.40923 
L 990.398125 73.40923 
" style="fill:none;stroke:#dedede;stroke-linecap:square;"/>
     </g>
     <g id="text_17">
      <!-- 7000000 -->
      <defs>
       <path d="M 8.203125 72.90625 
L 55.078125 72.90625 
L 55.078125 68.703125 
L 28.609375 0 
L 18.3125 0 
L 43.21875 64.59375 
L 8.203125 64.59375 
z
" id="DejaVuSans-55"/>
      </defs>
      <g transform="translate(20.878125 76.448605)scale(0.08 -0.08)">
       <use xlink:href="#DejaVuSans-55"/>
       <use x="63.623047" xlink:href="#DejaVuSans-48"/>
       <use x="127.246094" xlink:href="#DejaVuSans-48"/>
       <use x="190.869141" xlink:href="#DejaVuSans-48"/>
       <use x="254.492188" xlink:href="#DejaVuSans-48"/>
       <use x="318.115234" xlink:href="#DejaVuSans-48"/>
       <use x="381.738281" xlink:href="#DejaVuSans-48"/>
      </g>
     </g>
    </g>
    <g id="text_18">
     <!-- Count -->
     <defs>
      <path d="M 64.40625 67.28125 
L 64.40625 56.890625 
Q 59.421875 61.53125 53.78125 63.8125 
Q 48.140625 66.109375 41.796875 66.109375 
Q 29.296875 66.109375 22.65625 58.46875 
Q 16.015625 50.828125 16.015625 36.375 
Q 16.015625 21.96875 22.65625 14.328125 
Q 29.296875 6.6875 41.796875 6.6875 
Q 48.140625 6.6875 53.78125 8.984375 
Q 59.421875 11.28125 64.40625 15.921875 
L 64.40625 5.609375 
Q 59.234375 2.09375 53.4375 0.328125 
Q 47.65625 -1.421875 41.21875 -1.421875 
Q 24.65625 -1.421875 15.125 8.703125 
Q 5.609375 18.84375 5.609375 36.375 
Q 5.609375 53.953125 15.125 64.078125 
Q 24.65625 74.21875 41.21875 74.21875 
Q 47.75 74.21875 53.53125 72.484375 
Q 59.328125 70.75 64.40625 67.28125 
z
" id="DejaVuSans-67"/>
      <path d="M 30.609375 48.390625 
Q 23.390625 48.390625 19.1875 42.75 
Q 14.984375 37.109375 14.984375 27.296875 
Q 14.984375 17.484375 19.15625 11.84375 
Q 23.34375 6.203125 30.609375 6.203125 
Q 37.796875 6.203125 41.984375 11.859375 
Q 46.1875 17.53125 46.1875 27.296875 
Q 46.1875 37.015625 41.984375 42.703125 
Q 37.796875 48.390625 30.609375 48.390625 
z
M 30.609375 56 
Q 42.328125 56 49.015625 48.375 
Q 55.71875 40.765625 55.71875 27.296875 
Q 55.71875 13.875 49.015625 6.21875 
Q 42.328125 -1.421875 30.609375 -1.421875 
Q 18.84375 -1.421875 12.171875 6.21875 
Q 5.515625 13.875 5.515625 27.296875 
Q 5.515625 40.765625 12.171875 48.375 
Q 18.84375 56 30.609375 56 
z
" id="DejaVuSans-111"/>
      <path d="M 8.5 21.578125 
L 8.5 54.6875 
L 17.484375 54.6875 
L 17.484375 21.921875 
Q 17.484375 14.15625 20.5 10.265625 
Q 23.53125 6.390625 29.59375 6.390625 
Q 36.859375 6.390625 41.078125 11.03125 
Q 45.3125 15.671875 45.3125 23.6875 
L 45.3125 54.6875 
L 54.296875 54.6875 
L 54.296875 0 
L 45.3125 0 
L 45.3125 8.40625 
Q 42.046875 3.421875 37.71875 1 
Q 33.40625 -1.421875 27.6875 -1.421875 
Q 18.265625 -1.421875 13.375 4.4375 
Q 8.5 10.296875 8.5 21.578125 
z
M 31.109375 56 
z
" id="DejaVuSans-117"/>
     </defs>
     <g transform="translate(14.798438 209.088338)rotate(-90)scale(0.1 -0.1)">
      <use xlink:href="#DejaVuSans-67"/>
      <use x="69.824219" xlink:href="#DejaVuSans-111"/>
      <use x="131.005859" xlink:href="#DejaVuSans-117"/>
      <use x="194.384766" xlink:href="#DejaVuSans-110"/>
      <use x="257.763672" xlink:href="#DejaVuSans-116"/>
     </g>
    </g>
   </g>
   <g id="line2d_9">
    <path clip-path="url(#p1067162507)" d="M 105.639489 63.807509 
L 111.294705 260.956691 
L 116.949922 329.228673 
L 122.605138 346.307481 
L 128.260355 350.182075 
L 133.915572 351.467144 
L 139.570788 351.915207 
L 150.881221 352.095248 
L 184.812521 352.03073 
L 218.743821 352.485909 
L 241.364687 352.413757 
L 280.951203 352.784551 
L 303.572069 352.795504 
L 326.192936 352.976624 
L 348.813802 353.003166 
L 354.469019 352.927536 
L 360.124235 353.076478 
L 388.400318 353.100302 
L 444.952484 353.157504 
L 495.849434 353.161581 
L 507.159867 352.712998 
L 512.815084 353.070761 
L 524.125517 353.194639 
L 608.953766 353.215186 
L 948.266761 353.152907 
L 948.266761 353.152907 
" style="fill:none;stroke:#7cb5ec;stroke-linecap:square;"/>
   </g>
   <g id="line2d_10">
    <path clip-path="url(#p1067162507)" d="M 105.639489 64.38069 
L 111.294705 262.486998 
L 116.949922 329.868049 
L 122.605138 346.690547 
L 128.260355 350.408685 
L 133.915572 351.535298 
L 139.570788 352.069105 
L 156.536438 352.112076 
L 173.502088 352.074501 
L 179.157304 351.854247 
L 184.812521 352.224362 
L 196.122954 352.341484 
L 201.778171 352.520006 
L 207.433387 352.475915 
L 213.088604 352.608468 
L 224.399037 352.505576 
L 235.70947 352.420872 
L 263.985553 352.748655 
L 269.64077 352.707362 
L 275.295987 352.862419 
L 292.261636 352.784351 
L 314.882503 352.918462 
L 365.779452 353.053773 
L 377.089885 353.083113 
L 399.710752 353.11853 
L 450.607701 353.132041 
L 456.262918 352.909748 
L 461.918134 352.31794 
L 467.573351 352.998449 
L 473.228567 353.154386 
L 501.50465 353.200196 
L 948.266761 353.167138 
L 948.266761 353.167138 
" style="fill:none;stroke:#434348;stroke-linecap:square;"/>
   </g>
   <g id="line2d_11">
    <path clip-path="url(#p1067162507)" d="M 105.639489 73.474307 
L 111.294705 262.147223 
L 116.949922 330.264027 
L 122.605138 346.991628 
L 128.260355 350.67283 
L 133.915572 351.994634 
L 139.570788 352.366948 
L 145.226005 352.547148 
L 167.846871 352.539793 
L 179.157304 352.470159 
L 201.778171 352.700247 
L 213.088604 352.811893 
L 247.019904 352.798222 
L 280.951203 352.988736 
L 314.882503 353.044899 
L 337.503369 353.10342 
L 411.021185 353.158423 
L 467.573351 353.189483 
L 501.50465 353.100502 
L 507.159867 352.858462 
L 512.815084 353.104659 
L 524.125517 353.200915 
L 608.953766 353.216985 
L 931.301112 353.215745 
L 948.266761 353.196718 
L 948.266761 353.196718 
" style="fill:none;stroke:#90ed7d;stroke-linecap:square;"/>
   </g>
   <g id="line2d_12">
    <path clip-path="url(#p1067162507)" d="M 105.639489 76.102526 
L 111.294705 264.000915 
L 116.949922 331.020006 
L 122.605138 347.295826 
L 128.260355 350.848194 
L 133.915572 352.038885 
L 139.570788 352.463164 
L 150.881221 352.584523 
L 179.157304 352.394769 
L 184.812521 352.612745 
L 196.122954 352.676702 
L 201.778171 352.81605 
L 235.70947 352.748815 
L 275.295987 353.030268 
L 292.261636 352.978982 
L 314.882503 353.052893 
L 343.158586 353.122927 
L 354.469019 353.096185 
L 416.676401 353.161261 
L 456.262918 353.051654 
L 461.918134 352.59012 
L 467.573351 353.052094 
L 478.883784 353.19396 
L 569.367249 353.206232 
L 948.266761 353.197557 
L 948.266761 353.197557 
" style="fill:none;stroke:#f7a35c;stroke-linecap:square;"/>
   </g>
   <g id="line2d_13">
    <path clip-path="url(#p1067162507)" d="M 105.639489 99.613794 
L 111.294705 272.28207 
L 116.949922 331.850176 
L 122.605138 346.983593 
L 128.260355 350.367352 
L 133.915572 351.580229 
L 139.570788 351.943268 
L 145.226005 352.125507 
L 196.122954 352.345122 
L 213.088604 352.557421 
L 263.985553 352.817969 
L 292.261636 352.894438 
L 388.400318 353.140635 
L 495.849434 353.174773 
L 501.50465 353.091468 
L 507.159867 352.764724 
L 512.815084 353.071121 
L 524.125517 353.199836 
L 614.608982 353.216265 
L 948.266761 353.196638 
L 948.266761 353.196638 
" style="fill:none;stroke:#8085e9;stroke-linecap:square;"/>
   </g>
   <g id="line2d_14">
    <path clip-path="url(#p1067162507)" d="M 105.639489 99.757459 
L 111.294705 273.981904 
L 116.949922 332.517015 
L 122.605138 347.298704 
L 128.260355 350.585248 
L 133.915572 351.660456 
L 139.570788 352.113435 
L 150.881221 352.192823 
L 179.157304 352.067346 
L 184.812521 352.371465 
L 196.122954 352.457767 
L 201.778171 352.621579 
L 207.433387 352.569453 
L 218.743821 352.668988 
L 235.70947 352.599833 
L 263.985553 352.858822 
L 269.64077 352.81617 
L 275.295987 352.945924 
L 292.261636 352.916584 
L 365.779452 353.109896 
L 388.400318 353.113493 
L 399.710752 353.14767 
L 450.607701 353.158263 
L 456.262918 353.040342 
L 461.918134 352.460646 
L 467.573351 353.039422 
L 478.883784 353.194719 
L 563.712033 353.20827 
L 948.266761 353.199756 
L 948.266761 353.199756 
" style="fill:none;stroke:#f15c80;stroke-linecap:square;"/>
   </g>
   <g id="line2d_15">
    <path clip-path="url(#p1067162507)" d="M 105.639489 62.264092 
L 111.294705 259.980618 
L 116.949922 328.852882 
L 122.605138 346.361125 
L 128.260355 350.320423 
L 133.915572 351.651382 
L 139.570788 352.035807 
L 145.226005 352.178872 
L 201.778171 352.350958 
L 207.433387 352.516768 
L 247.019904 352.60511 
L 286.60642 352.851707 
L 303.572069 352.873612 
L 337.503369 353.032707 
L 377.089885 353.108416 
L 495.849434 353.172614 
L 501.50465 353.07332 
L 507.159867 352.720993 
L 512.815084 353.05733 
L 524.125517 353.195039 
L 597.643332 353.216025 
L 948.266761 353.185725 
L 948.266761 353.185725 
" style="fill:none;stroke:#e4d354;stroke-linecap:square;"/>
   </g>
   <g id="line2d_16">
    <path clip-path="url(#p1067162507)" d="M 105.639489 67.64221 
L 111.294705 261.722784 
L 116.949922 330.094979 
L 122.605138 346.904246 
L 128.260355 350.65752 
L 133.915572 351.795126 
L 139.570788 352.239352 
L 150.881221 352.340325 
L 156.536438 352.235954 
L 162.191655 352.297873 
L 167.846871 352.239672 
L 173.502088 352.294556 
L 179.157304 352.057153 
L 184.812521 352.491905 
L 196.122954 352.504496 
L 201.778171 352.700207 
L 207.433387 352.566975 
L 213.088604 352.702206 
L 230.054254 352.578687 
L 235.70947 352.557182 
L 241.364687 352.690893 
L 258.330337 352.762326 
L 263.985553 352.845471 
L 269.64077 352.763525 
L 275.295987 352.936211 
L 280.951203 352.866497 
L 297.916853 352.893639 
L 405.365968 353.159902 
L 456.262918 352.989935 
L 461.918134 352.578647 
L 467.573351 353.084632 
L 478.883784 353.200835 
L 608.953766 353.216785 
L 948.266761 353.195039 
L 948.266761 353.195039 
" style="fill:none;stroke:#2b908f;stroke-linecap:square;"/>
   </g>
   <g id="line2d_17">
    <path clip-path="url(#p1067162507)" d="M 105.639489 82.186616 
L 111.294705 266.918503 
L 116.949922 329.978336 
L 122.605138 346.298047 
L 128.260355 350.074906 
L 133.915572 351.372246 
L 139.570788 351.824267 
L 145.226005 352.028812 
L 156.536438 352.089092 
L 184.812521 351.906333 
L 196.122954 352.116234 
L 213.088604 352.446815 
L 230.054254 352.357714 
L 241.364687 352.308786 
L 263.985553 352.686776 
L 280.951203 352.8007 
L 297.916853 352.724591 
L 348.813802 353.000048 
L 354.469019 352.895038 
L 360.124235 353.089069 
L 377.089885 353.085472 
L 478.883784 353.172174 
L 495.849434 353.167258 
L 501.50465 353.060128 
L 507.159867 352.738861 
L 512.815084 353.062047 
L 524.125517 353.194719 
L 603.298549 353.212587 
L 948.266761 353.183327 
L 948.266761 353.183327 
" style="fill:none;stroke:#f45b5b;stroke-linecap:square;"/>
   </g>
   <g id="line2d_18">
    <path clip-path="url(#p1067162507)" d="M 105.639489 83.869382 
L 111.294705 268.083371 
L 116.949922 330.740991 
L 122.605138 346.727803 
L 128.260355 350.320863 
L 133.915572 351.467343 
L 139.570788 351.999791 
L 150.881221 352.127026 
L 162.191655 352.108759 
L 179.157304 351.703267 
L 184.812521 352.119152 
L 190.467738 352.120431 
L 201.778171 352.492784 
L 207.433387 352.443137 
L 213.088604 352.577888 
L 224.399037 352.465043 
L 235.70947 352.33373 
L 252.67512 352.59016 
L 269.64077 352.690973 
L 275.295987 352.874771 
L 292.261636 352.749055 
L 309.227286 352.832159 
L 326.192936 352.988176 
L 371.434669 353.028549 
L 382.745102 353.121848 
L 394.055535 353.152827 
L 422.331618 353.119449 
L 450.607701 353.138636 
L 456.262918 352.976104 
L 461.918134 352.374942 
L 467.573351 353.011521 
L 473.228567 353.162301 
L 501.50465 353.204073 
L 948.266761 353.188324 
L 948.266761 353.188324 
" style="fill:none;stroke:#91e8e1;stroke-linecap:square;"/>
   </g>
   <g id="line2d_19">
    <path clip-path="url(#p1067162507)" d="M 105.639489 92.123235 
L 111.294705 269.018352 
L 116.949922 331.030999 
L 122.605138 346.924872 
L 128.260355 350.549791 
L 133.915572 351.711302 
L 139.570788 352.129105 
L 145.226005 352.295035 
L 167.846871 352.283083 
L 184.812521 352.262017 
L 201.778171 352.505616 
L 213.088604 352.662952 
L 252.67512 352.711 
L 275.295987 352.917503 
L 314.882503 352.972866 
L 337.503369 353.056491 
L 354.469019 352.980941 
L 360.124235 353.120209 
L 388.400318 353.13404 
L 484.539001 353.179489 
L 495.849434 353.176531 
L 507.159867 352.783192 
L 512.815084 353.077477 
L 524.125517 353.195919 
L 597.643332 353.213227 
L 942.611545 353.217144 
L 948.266761 353.173413 
L 948.266761 353.173413 
" style="fill:none;stroke:#7cb5ec;stroke-linecap:square;"/>
   </g>
   <g id="line2d_20">
    <path clip-path="url(#p1067162507)" d="M 105.639489 93.88179 
L 111.294705 270.494894 
L 116.949922 331.839983 
L 122.605138 347.347672 
L 128.260355 350.760851 
L 133.915572 351.7747 
L 139.570788 352.252983 
L 150.881221 352.361671 
L 173.502088 352.292037 
L 179.157304 352.105841 
L 184.812521 352.416035 
L 196.122954 352.493104 
L 201.778171 352.676183 
L 207.433387 352.633411 
L 213.088604 352.754451 
L 230.054254 352.615943 
L 241.364687 352.641965 
L 247.019904 352.644124 
L 258.330337 352.779634 
L 263.985553 352.870854 
L 269.64077 352.826083 
L 275.295987 352.963433 
L 292.261636 352.881167 
L 320.537719 353.019795 
L 365.779452 353.085432 
L 377.089885 353.111055 
L 405.365968 353.14883 
L 450.607701 353.149789 
L 456.262918 352.970028 
L 461.918134 352.450532 
L 467.573351 353.033586 
L 478.883784 353.188723 
L 546.746383 353.204913 
L 942.611545 353.220982 
L 948.266761 353.17889 
L 948.266761 353.17889 
" style="fill:none;stroke:#434348;stroke-linecap:square;"/>
   </g>
   <g id="line2d_21">
    <path clip-path="url(#p1067162507)" d="M 105.639489 90.053806 
L 111.294705 269.678834 
L 116.949922 330.811265 
L 122.605138 346.722806 
L 128.260355 350.481077 
L 133.915572 351.697031 
L 139.570788 352.097166 
L 145.226005 352.274009 
L 156.536438 352.263936 
L 190.467738 352.253143 
L 213.088604 352.602592 
L 230.054254 352.51413 
L 241.364687 352.477474 
L 280.951203 352.839075 
L 303.572069 352.837836 
L 456.262918 353.159583 
L 495.849434 353.161142 
L 501.50465 353.015158 
L 507.159867 352.68002 
L 512.815084 353.046697 
L 524.125517 353.190402 
L 591.988116 353.213027 
L 948.266761 353.160982 
L 948.266761 353.160982 
" style="fill:none;stroke:#90ed7d;stroke-linecap:square;"/>
   </g>
   <g id="line2d_22">
    <path clip-path="url(#p1067162507)" d="M 105.639489 91.550694 
L 111.294705 269.669601 
L 116.949922 330.978514 
L 122.605138 346.881301 
L 128.260355 350.525767 
L 133.915572 351.667531 
L 139.570788 352.140697 
L 145.226005 352.281284 
L 156.536438 352.267453 
L 173.502088 352.122669 
L 179.157304 351.913088 
L 184.812521 352.292077 
L 190.467738 352.269572 
L 213.088604 352.657595 
L 224.399037 352.546669 
L 235.70947 352.416914 
L 252.67512 352.656236 
L 275.295987 352.89244 
L 292.261636 352.787749 
L 309.227286 352.856823 
L 326.192936 352.998449 
L 450.607701 353.135079 
L 456.262918 352.941607 
L 461.918134 352.281204 
L 467.573351 352.978423 
L 473.228567 353.152187 
L 501.50465 353.199716 
L 806.886346 353.214386 
L 948.266761 353.172734 
L 948.266761 353.172734 
" style="fill:none;stroke:#f7a35c;stroke-linecap:square;"/>
   </g>
   <g id="line2d_23">
    <path clip-path="url(#p1067162507)" d="M 105.639489 83.885051 
L 111.294705 267.713176 
L 116.949922 330.283614 
L 122.605138 346.501712 
L 128.260355 350.299677 
L 133.915572 351.553087 
L 139.570788 351.967932 
L 145.226005 352.165521 
L 156.536438 352.195061 
L 184.812521 352.052836 
L 201.778171 352.357874 
L 207.433387 352.545429 
L 230.054254 352.472758 
L 241.364687 352.425229 
L 275.295987 352.86086 
L 309.227286 352.886444 
L 337.503369 353.039742 
L 354.469019 352.970068 
L 360.124235 353.10382 
L 382.745102 353.123926 
L 456.262918 353.173373 
L 495.849434 353.176731 
L 501.50465 353.065165 
L 507.159867 352.804338 
L 512.815084 353.08747 
L 524.125517 353.197238 
L 620.264199 353.215945 
L 948.266761 353.17921 
L 948.266761 353.17921 
" style="fill:none;stroke:#8085e9;stroke-linecap:square;"/>
   </g>
   <g id="line2d_24">
    <path clip-path="url(#p1067162507)" d="M 105.639489 86.331511 
L 111.294705 267.79808 
L 116.949922 330.490877 
L 122.605138 346.65637 
L 128.260355 350.311949 
L 133.915572 351.534379 
L 139.570788 352.013622 
L 145.226005 352.174675 
L 162.191655 352.13734 
L 173.502088 351.999471 
L 179.157304 351.796206 
L 184.812521 352.178952 
L 190.467738 352.161564 
L 213.088604 352.611945 
L 230.054254 352.444336 
L 235.70947 352.356395 
L 252.67512 352.614184 
L 275.295987 352.89228 
L 292.261636 352.794384 
L 309.227286 352.873452 
L 331.848152 353.016118 
L 377.089885 353.104419 
L 411.021185 353.134239 
L 456.262918 353.001207 
L 461.918134 352.452691 
L 467.573351 353.009842 
L 473.228567 353.157584 
L 501.50465 353.203034 
L 948.266761 353.184926 
L 948.266761 353.184926 
" style="fill:none;stroke:#f15c80;stroke-linecap:square;"/>
   </g>
   <g id="line2d_25">
    <path clip-path="url(#p1067162507)" d="M 105.639489 50.397191 
L 111.294705 255.760893 
L 116.949922 328.032185 
L 122.605138 346.021231 
L 128.260355 350.09821 
L 133.915572 351.505998 
L 139.570788 351.987039 
L 145.226005 352.1674 
L 162.191655 352.181111 
L 179.157304 352.042043 
L 218.743821 352.553704 
L 247.019904 352.545469 
L 269.64077 352.821646 
L 286.60642 352.836477 
L 303.572069 352.844831 
L 320.537719 352.98226 
L 433.642051 353.159822 
L 495.849434 353.175252 
L 507.159867 352.78551 
L 512.815084 353.085392 
L 524.125517 353.196998 
L 603.298549 353.214586 
L 942.611545 353.217544 
L 948.266761 353.170136 
L 948.266761 353.170136 
" style="fill:none;stroke:#e4d354;stroke-linecap:square;"/>
   </g>
   <g id="line2d_26">
    <path clip-path="url(#p1067162507)" d="M 105.639489 51.733946 
L 111.294705 257.382858 
L 116.949922 328.865233 
L 122.605138 346.439314 
L 128.260355 350.303594 
L 133.915572 351.585225 
L 139.570788 352.127746 
L 150.881221 352.253183 
L 173.502088 352.127666 
L 179.157304 351.94067 
L 184.812521 352.308626 
L 196.122954 352.415236 
L 201.778171 352.609307 
L 207.433387 352.561179 
L 213.088604 352.670786 
L 224.399037 352.596476 
L 235.70947 352.482871 
L 263.985553 352.814731 
L 269.64077 352.776796 
L 275.295987 352.915664 
L 292.261636 352.851786 
L 314.882503 352.966111 
L 365.779452 353.082314 
L 377.089885 353.107537 
L 405.365968 353.146471 
L 444.952484 353.156944 
L 450.607701 353.149189 
L 456.262918 352.96707 
L 461.918134 352.459846 
L 467.573351 353.030468 
L 478.883784 353.192161 
L 665.505932 353.207711 
L 948.266761 353.179649 
L 948.266761 353.179649 
" style="fill:none;stroke:#2b908f;stroke-linecap:square;"/>
   </g>
   <g id="line2d_27">
    <path clip-path="url(#p1067162507)" d="M 105.639489 121.3151 
L 111.294705 277.882441 
L 116.949922 333.816194 
L 122.605138 347.77323 
L 128.260355 350.830445 
L 133.915572 351.965653 
L 139.570788 352.301951 
L 145.226005 352.465362 
L 162.191655 352.465802 
L 179.157304 352.353077 
L 196.122954 352.519327 
L 213.088604 352.74118 
L 241.364687 352.644324 
L 275.295987 352.941687 
L 326.192936 353.053573 
L 348.813802 353.078077 
L 354.469019 353.021394 
L 360.124235 353.126245 
L 382.745102 353.140795 
L 456.262918 353.180849 
L 495.849434 353.183687 
L 501.50465 353.094066 
L 507.159867 352.849388 
L 512.815084 353.099982 
L 524.125517 353.202394 
L 614.608982 353.217144 
L 948.266761 353.190242 
L 948.266761 353.190242 
" style="fill:none;stroke:#f45b5b;stroke-linecap:square;"/>
   </g>
   <g id="line2d_28">
    <path clip-path="url(#p1067162507)" d="M 105.639489 123.842027 
L 111.294705 279.185458 
L 116.949922 334.539435 
L 122.605138 348.126756 
L 128.260355 351.042745 
L 133.915572 352.024814 
L 139.570788 352.410199 
L 150.881221 352.536076 
L 179.157304 352.260458 
L 184.812521 352.537954 
L 196.122954 352.615783 
L 201.778171 352.768242 
L 207.433387 352.715357 
L 213.088604 352.822006 
L 247.019904 352.72543 
L 263.985553 352.915504 
L 269.64077 352.881487 
L 275.295987 352.99765 
L 292.261636 352.919462 
L 450.607701 353.167218 
L 456.262918 353.040541 
L 461.918134 352.602472 
L 467.573351 353.071081 
L 478.883784 353.199116 
L 603.298549 353.211668 
L 942.611545 353.221382 
L 948.266761 353.197238 
L 948.266761 353.197238 
" style="fill:none;stroke:#91e8e1;stroke-linecap:square;"/>
   </g>
   <g id="line2d_29">
    <path clip-path="url(#p1067162507)" d="M 105.639489 69.245188 
L 111.294705 261.563809 
L 116.949922 329.405196 
L 122.605138 346.44463 
L 128.260355 350.291722 
L 133.915572 351.69883 
L 139.570788 352.094328 
L 145.226005 352.291438 
L 156.536438 352.304669 
L 167.846871 352.270132 
L 179.157304 352.16712 
L 190.467738 352.275088 
L 213.088604 352.632252 
L 252.67512 352.672345 
L 269.64077 352.856303 
L 286.60642 352.862499 
L 297.916853 352.836836 
L 348.813802 353.051214 
L 354.469019 352.98166 
L 360.124235 353.102341 
L 382.745102 353.124846 
L 433.642051 353.162421 
L 495.849434 353.171934 
L 501.50465 353.056611 
L 507.159867 352.72567 
L 512.815084 353.066045 
L 524.125517 353.19384 
L 614.608982 353.212548 
L 948.266761 353.181368 
L 948.266761 353.181368 
" style="fill:none;stroke:#7cb5ec;stroke-linecap:square;"/>
   </g>
   <g id="line2d_30">
    <path clip-path="url(#p1067162507)" d="M 105.639489 73.117543 
L 111.294705 261.984051 
L 116.949922 329.648715 
L 122.605138 346.613238 
L 128.260355 350.330496 
L 133.915572 351.676445 
L 139.570788 352.140538 
L 145.226005 352.307507 
L 162.191655 352.305788 
L 173.502088 352.164921 
L 179.157304 351.965094 
L 184.812521 352.319219 
L 190.467738 352.299552 
L 213.088604 352.69509 
L 230.054254 352.508534 
L 235.70947 352.457648 
L 252.67512 352.702605 
L 286.60642 352.868775 
L 303.572069 352.859821 
L 331.848152 353.026191 
L 456.262918 352.981421 
L 461.918134 352.396248 
L 467.573351 352.999449 
L 473.228567 353.159263 
L 501.50465 353.202114 
L 948.266761 353.187044 
L 948.266761 353.187044 
" style="fill:none;stroke:#434348;stroke-linecap:square;"/>
   </g>
   <g id="line2d_31">
    <path clip-path="url(#p1067162507)" d="M 105.639489 132.485582 
L 111.294705 282.040087 
L 116.949922 334.671228 
L 122.605138 347.974817 
L 128.260355 350.940133 
L 133.915572 352.04592 
L 139.570788 352.354716 
L 145.226005 352.500579 
L 167.846871 352.486428 
L 184.812521 352.436142 
L 224.399037 352.747456 
L 241.364687 352.689134 
L 263.985553 352.919701 
L 280.951203 352.979662 
L 303.572069 352.972187 
L 388.400318 353.159143 
L 501.50465 353.109816 
L 507.159867 352.826603 
L 512.815084 353.086391 
L 524.125517 353.198517 
L 603.298549 353.216385 
L 948.266761 353.200396 
L 948.266761 353.200396 
" style="fill:none;stroke:#90ed7d;stroke-linecap:square;"/>
   </g>
   <g id="line2d_32">
    <path clip-path="url(#p1067162507)" d="M 105.639489 135.489352 
L 111.294705 282.680263 
L 116.949922 335.023715 
L 122.605138 348.116243 
L 128.260355 350.973031 
L 133.915572 352.03065 
L 139.570788 352.385335 
L 150.881221 352.519646 
L 167.846871 352.467761 
L 179.157304 352.266574 
L 184.812521 352.52932 
L 190.467738 352.510173 
L 213.088604 352.819248 
L 230.054254 352.698528 
L 235.70947 352.652638 
L 252.67512 352.830561 
L 331.848152 353.076877 
L 439.297268 353.16386 
L 450.607701 353.16394 
L 456.262918 353.05813 
L 461.918134 352.538914 
L 467.573351 353.038623 
L 478.883784 353.19392 
L 597.643332 353.211068 
L 869.093729 353.219863 
L 948.266761 353.203953 
L 948.266761 353.203953 
" style="fill:none;stroke:#f7a35c;stroke-linecap:square;"/>
   </g>
   <g id="line2d_33">
    <path clip-path="url(#p1067162507)" d="M 105.639489 79.706259 
L 111.294705 266.308467 
L 116.949922 330.087344 
L 122.605138 346.472771 
L 128.260355 350.199903 
L 133.915572 351.417377 
L 139.570788 351.84977 
L 145.226005 352.027932 
L 162.191655 352.035127 
L 184.812521 351.9248 
L 213.088604 352.392411 
L 247.019904 352.37858 
L 286.60642 352.702126 
L 297.916853 352.691293 
L 326.192936 352.919542 
L 348.813802 352.966431 
L 354.469019 352.850787 
L 360.124235 353.055731 
L 377.089885 353.059569 
L 490.194217 353.159862 
L 495.849434 353.153946 
L 507.159867 352.663471 
L 512.815084 353.036904 
L 524.125517 353.190082 
L 597.643332 353.211828 
L 942.611545 353.212228 
L 948.266761 353.130522 
L 948.266761 353.130522 
" style="fill:none;stroke:#8085e9;stroke-linecap:square;"/>
   </g>
   <g id="line2d_34">
    <path clip-path="url(#p1067162507)" d="M 105.639489 82.003378 
L 111.294705 266.415356 
L 116.949922 330.312235 
L 122.605138 346.626949 
L 128.260355 350.229843 
L 133.915572 351.395471 
L 139.570788 351.912289 
L 145.226005 352.047599 
L 167.846871 351.944947 
L 173.502088 351.871636 
L 179.157304 351.640789 
L 184.812521 352.082576 
L 190.467738 352.040284 
L 213.088604 352.46908 
L 230.054254 352.289519 
L 235.70947 352.220245 
L 247.019904 352.410239 
L 280.951203 352.711519 
L 309.227286 352.767163 
L 343.158586 352.973866 
L 354.469019 352.939808 
L 382.745102 353.087031 
L 388.400318 353.050775 
L 394.055535 353.132441 
L 416.676401 353.092787 
L 450.607701 353.119849 
L 456.262918 352.855904 
L 461.918134 352.214808 
L 467.573351 352.969029 
L 473.228567 353.144233 
L 495.849434 353.199476 
L 948.266761 353.146271 
L 948.266761 353.146271 
" style="fill:none;stroke:#f15c80;stroke-linecap:square;"/>
   </g>
   <g id="line2d_35">
    <path clip-path="url(#p1067162507)" d="M 105.639489 73.230708 
L 111.294705 263.67673 
L 116.949922 330.020229 
L 122.605138 346.658369 
L 128.260355 350.490111 
L 133.915572 351.779017 
L 139.570788 352.178233 
L 150.881221 352.331611 
L 167.846871 352.295475 
L 179.157304 352.235475 
L 218.743821 352.659154 
L 247.019904 352.641885 
L 269.64077 352.872093 
L 286.60642 352.878928 
L 303.572069 352.898955 
L 331.848152 353.041741 
L 439.297268 353.161861 
L 495.849434 353.170935 
L 501.50465 353.078037 
L 507.159867 352.782872 
L 512.815084 353.078436 
L 524.125517 353.198677 
L 625.919415 353.214786 
L 948.266761 353.19328 
L 948.266761 353.19328 
" style="fill:none;stroke:#e4d354;stroke-linecap:square;"/>
   </g>
   <g id="line2d_36">
    <path clip-path="url(#p1067162507)" d="M 105.639489 74.580734 
L 111.294705 265.444039 
L 116.949922 330.670238 
L 122.605138 347.035759 
L 128.260355 350.674509 
L 133.915572 351.844733 
L 139.570788 352.295515 
L 156.536438 352.381978 
L 173.502088 352.297474 
L 179.157304 352.134022 
L 184.812521 352.446735 
L 196.122954 352.534956 
L 201.778171 352.691213 
L 207.433387 352.651039 
L 218.743821 352.74046 
L 235.70947 352.594957 
L 263.985553 352.862499 
L 269.64077 352.820247 
L 275.295987 352.95284 
L 292.261636 352.889442 
L 320.537719 353.005205 
L 343.158586 353.067683 
L 354.469019 353.04266 
L 394.055535 353.156385 
L 427.986835 353.143074 
L 456.262918 353.015758 
L 461.918134 352.431945 
L 467.573351 353.026831 
L 478.883784 353.189123 
L 580.677683 353.203753 
L 948.266761 353.195199 
L 948.266761 353.195199 
" style="fill:none;stroke:#2b908f;stroke-linecap:square;"/>
   </g>
   <g id="line2d_37">
    <path clip-path="url(#p1067162507)" d="M 105.639489 98.693164 
L 111.294705 271.368635 
L 116.949922 331.991483 
L 122.605138 347.447406 
L 128.260355 350.750898 
L 133.915572 351.972449 
L 139.570788 352.316701 
L 150.881221 352.473397 
L 179.157304 352.364429 
L 218.743821 352.69541 
L 252.67512 352.75657 
L 275.295987 352.916743 
L 320.537719 353.017357 
L 348.813802 353.052294 
L 354.469019 352.989135 
L 360.124235 353.105219 
L 416.676401 353.139036 
L 495.849434 353.165019 
L 507.159867 352.722592 
L 512.815084 353.051974 
L 524.125517 353.1944 
L 614.608982 353.215026 
L 948.266761 353.151388 
L 948.266761 353.151388 
" style="fill:none;stroke:#f45b5b;stroke-linecap:square;"/>
   </g>
   <g id="line2d_38">
    <path clip-path="url(#p1067162507)" d="M 105.639489 101.676028 
L 111.294705 271.750143 
L 116.949922 332.330418 
L 122.605138 347.601424 
L 128.260355 350.786794 
L 133.915572 351.948585 
L 139.570788 352.343243 
L 150.881221 352.462324 
L 173.502088 352.364509 
L 179.157304 352.206694 
L 184.812521 352.517448 
L 190.467738 352.478554 
L 213.088604 352.772279 
L 241.364687 352.682419 
L 286.60642 352.909268 
L 303.572069 352.90671 
L 343.158586 353.060888 
L 354.469019 353.02743 
L 382.745102 353.125805 
L 388.400318 353.084113 
L 399.710752 353.126924 
L 450.607701 353.137997 
L 456.262918 352.920221 
L 461.918134 352.33341 
L 467.573351 352.983499 
L 473.228567 353.150908 
L 495.849434 353.201915 
L 948.266761 353.164379 
L 948.266761 353.164379 
" style="fill:none;stroke:#91e8e1;stroke-linecap:square;"/>
   </g>
   <g id="line2d_39">
    <path clip-path="url(#p1067162507)" d="M 105.639489 121.722271 
L 111.294705 278.965364 
L 116.949922 334.087455 
L 122.605138 347.834949 
L 128.260355 350.936375 
L 133.915572 352.034208 
L 139.570788 352.354396 
L 145.226005 352.495622 
L 162.191655 352.482231 
L 190.467738 352.480472 
L 213.088604 352.739861 
L 263.985553 352.878489 
L 286.60642 352.917143 
L 303.572069 352.930614 
L 343.158586 353.052613 
L 399.710752 353.147551 
L 501.50465 353.082674 
L 507.159867 352.789867 
L 512.815084 353.066005 
L 524.125517 353.194799 
L 597.643332 353.214946 
L 948.266761 353.189683 
L 948.266761 353.189683 
" style="fill:none;stroke:#7cb5ec;stroke-linecap:square;"/>
   </g>
   <g id="line2d_40">
    <path clip-path="url(#p1067162507)" d="M 105.639489 125.856173 
L 111.294705 279.267524 
L 116.949922 334.391813 
L 122.605138 347.977895 
L 128.260355 350.960959 
L 133.915572 352.012302 
L 139.570788 352.380339 
L 145.226005 352.505456 
L 167.846871 352.442937 
L 179.157304 352.253783 
L 184.812521 352.517408 
L 196.122954 352.575609 
L 201.778171 352.727869 
L 207.433387 352.688495 
L 218.743821 352.775717 
L 235.70947 352.615663 
L 252.67512 352.796063 
L 286.60642 352.923619 
L 303.572069 352.918262 
L 343.158586 353.07352 
L 354.469019 353.050495 
L 394.055535 353.166818 
L 422.331618 353.135798 
L 450.607701 353.14907 
L 456.262918 353.017956 
L 461.918134 352.456328 
L 467.573351 353.023153 
L 478.883784 353.194639 
L 586.332899 353.207511 
L 948.266761 353.191681 
L 948.266761 353.191681 
" style="fill:none;stroke:#434348;stroke-linecap:square;"/>
   </g>
   <g id="line2d_41">
    <path clip-path="url(#p1067162507)" d="M 105.639489 113.837053 
L 111.294705 275.180231 
L 116.949922 333.035192 
L 122.605138 347.512323 
L 128.260355 350.601397 
L 133.915572 351.782495 
L 139.570788 352.116154 
L 145.226005 352.28808 
L 156.536438 352.316581 
L 190.467738 352.290039 
L 213.088604 352.623138 
L 247.019904 352.585523 
L 275.295987 352.880567 
L 303.572069 352.850347 
L 326.192936 353.011441 
L 348.813802 353.036024 
L 354.469019 352.955878 
L 360.124235 353.099183 
L 382.745102 353.111614 
L 439.297268 353.164979 
L 495.849434 353.169496 
L 501.50465 353.007004 
L 507.159867 352.722232 
L 512.815084 353.07364 
L 524.125517 353.196598 
L 597.643332 353.214506 
L 948.266761 353.1633 
L 948.266761 353.1633 
" style="fill:none;stroke:#90ed7d;stroke-linecap:square;"/>
   </g>
   <g id="line2d_42">
    <path clip-path="url(#p1067162507)" d="M 105.639489 117.716164 
L 111.294705 275.825403 
L 116.949922 333.537539 
L 122.605138 347.685928 
L 128.260355 350.635494 
L 133.915572 351.770263 
L 139.570788 352.172636 
L 150.881221 352.341844 
L 173.502088 352.191464 
L 179.157304 351.980244 
L 184.812521 352.357514 
L 190.467738 352.3179 
L 213.088604 352.686296 
L 241.364687 352.58948 
L 258.330337 352.724151 
L 275.295987 352.926977 
L 292.261636 352.81657 
L 309.227286 352.896677 
L 337.503369 353.010242 
L 360.124235 353.044739 
L 433.642051 353.142394 
L 450.607701 353.142274 
L 456.262918 352.946644 
L 461.918134 352.386734 
L 467.573351 353.006004 
L 473.228567 353.153387 
L 495.849434 353.201515 
L 942.611545 353.219903 
L 948.266761 353.168896 
L 948.266761 353.168896 
" style="fill:none;stroke:#f7a35c;stroke-linecap:square;"/>
   </g>
   <g id="line2d_43">
    <path clip-path="url(#p1067162507)" d="M 105.639489 99.204945 
L 111.294705 272.160671 
L 116.949922 331.9655 
L 122.605138 347.105512 
L 128.260355 350.547113 
L 133.915572 351.795446 
L 139.570788 352.156647 
L 145.226005 352.331051 
L 156.536438 352.366388 
L 190.467738 352.343843 
L 218.743821 352.66543 
L 241.364687 352.563737 
L 280.951203 352.8916 
L 303.572069 352.901793 
L 348.813802 353.058729 
L 354.469019 352.99713 
L 365.779452 353.092267 
L 495.849434 353.173573 
L 501.50465 353.067963 
L 507.159867 352.807776 
L 512.815084 353.091588 
L 524.125517 353.197358 
L 603.298549 353.215506 
L 948.266761 353.183287 
L 948.266761 353.183287 
" style="fill:none;stroke:#8085e9;stroke-linecap:square;"/>
   </g>
   <g id="line2d_44">
    <path clip-path="url(#p1067162507)" d="M 105.639489 101.665515 
L 111.294705 272.534383 
L 116.949922 332.193949 
L 122.605138 347.24542 
L 128.260355 350.579651 
L 133.915572 351.77418 
L 139.570788 352.209692 
L 145.226005 352.358593 
L 162.191655 352.33317 
L 173.502088 352.214808 
L 179.157304 352.042802 
L 184.812521 352.381378 
L 196.122954 352.446975 
L 201.778171 352.652079 
L 207.433387 352.606589 
L 213.088604 352.714278 
L 230.054254 352.584484 
L 235.70947 352.517208 
L 252.67512 352.731106 
L 286.60642 352.880767 
L 303.572069 352.882046 
L 343.158586 353.065805 
L 354.469019 353.036224 
L 411.021185 353.134999 
L 456.262918 353.003686 
L 461.918134 352.489107 
L 467.573351 353.026111 
L 473.228567 353.166138 
L 501.50465 353.202554 
L 903.025029 353.222181 
L 948.266761 353.191242 
L 948.266761 353.191242 
" style="fill:none;stroke:#f15c80;stroke-linecap:square;"/>
   </g>
   <g id="line2d_45">
    <path clip-path="url(#p1067162507)" d="M 63.508125 353.2239 
L 990.398125 353.2239 
" style="fill:none;stroke:#dedede;stroke-linecap:square;stroke-width:2;"/>
   </g>
   <g id="text_19">
    <!-- Cutadapt: Lengths of Trimmed Sequences -->
    <defs>
     <path d="M 34.28125 27.484375 
Q 23.390625 27.484375 19.1875 25 
Q 14.984375 22.515625 14.984375 16.5 
Q 14.984375 11.71875 18.140625 8.90625 
Q 21.296875 6.109375 26.703125 6.109375 
Q 34.1875 6.109375 38.703125 11.40625 
Q 43.21875 16.703125 43.21875 25.484375 
L 43.21875 27.484375 
z
M 52.203125 31.203125 
L 52.203125 0 
L 43.21875 0 
L 43.21875 8.296875 
Q 40.140625 3.328125 35.546875 0.953125 
Q 30.953125 -1.421875 24.3125 -1.421875 
Q 15.921875 -1.421875 10.953125 3.296875 
Q 6 8.015625 6 15.921875 
Q 6 25.140625 12.171875 29.828125 
Q 18.359375 34.515625 30.609375 34.515625 
L 43.21875 34.515625 
L 43.21875 35.40625 
Q 43.21875 41.609375 39.140625 45 
Q 35.0625 48.390625 27.6875 48.390625 
Q 23 48.390625 18.546875 47.265625 
Q 14.109375 46.140625 10.015625 43.890625 
L 10.015625 52.203125 
Q 14.9375 54.109375 19.578125 55.046875 
Q 24.21875 56 28.609375 56 
Q 40.484375 56 46.34375 49.84375 
Q 52.203125 43.703125 52.203125 31.203125 
z
" id="DejaVuSans-97"/>
     <path d="M 11.71875 12.40625 
L 22.015625 12.40625 
L 22.015625 0 
L 11.71875 0 
z
M 11.71875 51.703125 
L 22.015625 51.703125 
L 22.015625 39.3125 
L 11.71875 39.3125 
z
" id="DejaVuSans-58"/>
     <path d="M 44.28125 53.078125 
L 44.28125 44.578125 
Q 40.484375 46.53125 36.375 47.5 
Q 32.28125 48.484375 27.875 48.484375 
Q 21.1875 48.484375 17.84375 46.4375 
Q 14.5 44.390625 14.5 40.28125 
Q 14.5 37.15625 16.890625 35.375 
Q 19.28125 33.59375 26.515625 31.984375 
L 29.59375 31.296875 
Q 39.15625 29.25 43.1875 25.515625 
Q 47.21875 21.78125 47.21875 15.09375 
Q 47.21875 7.46875 41.1875 3.015625 
Q 35.15625 -1.421875 24.609375 -1.421875 
Q 20.21875 -1.421875 15.453125 -0.5625 
Q 10.6875 0.296875 5.421875 2 
L 5.421875 11.28125 
Q 10.40625 8.6875 15.234375 7.390625 
Q 20.0625 6.109375 24.8125 6.109375 
Q 31.15625 6.109375 34.5625 8.28125 
Q 37.984375 10.453125 37.984375 14.40625 
Q 37.984375 18.0625 35.515625 20.015625 
Q 33.0625 21.96875 24.703125 23.78125 
L 21.578125 24.515625 
Q 13.234375 26.265625 9.515625 29.90625 
Q 5.8125 33.546875 5.8125 39.890625 
Q 5.8125 47.609375 11.28125 51.796875 
Q 16.75 56 26.8125 56 
Q 31.78125 56 36.171875 55.265625 
Q 40.578125 54.546875 44.28125 53.078125 
z
" id="DejaVuSans-115"/>
     <path d="M 37.109375 75.984375 
L 37.109375 68.5 
L 28.515625 68.5 
Q 23.6875 68.5 21.796875 66.546875 
Q 19.921875 64.59375 19.921875 59.515625 
L 19.921875 54.6875 
L 34.71875 54.6875 
L 34.71875 47.703125 
L 19.921875 47.703125 
L 19.921875 0 
L 10.890625 0 
L 10.890625 47.703125 
L 2.296875 47.703125 
L 2.296875 54.6875 
L 10.890625 54.6875 
L 10.890625 58.5 
Q 10.890625 67.625 15.140625 71.796875 
Q 19.390625 75.984375 28.609375 75.984375 
z
" id="DejaVuSans-102"/>
     <path d="M 53.515625 70.515625 
L 53.515625 60.890625 
Q 47.90625 63.578125 42.921875 64.890625 
Q 37.9375 66.21875 33.296875 66.21875 
Q 25.25 66.21875 20.875 63.09375 
Q 16.5 59.96875 16.5 54.203125 
Q 16.5 49.359375 19.40625 46.890625 
Q 22.3125 44.4375 30.421875 42.921875 
L 36.375 41.703125 
Q 47.40625 39.59375 52.65625 34.296875 
Q 57.90625 29 57.90625 20.125 
Q 57.90625 9.515625 50.796875 4.046875 
Q 43.703125 -1.421875 29.984375 -1.421875 
Q 24.8125 -1.421875 18.96875 -0.25 
Q 13.140625 0.921875 6.890625 3.21875 
L 6.890625 13.375 
Q 12.890625 10.015625 18.65625 8.296875 
Q 24.421875 6.59375 29.984375 6.59375 
Q 38.421875 6.59375 43.015625 9.90625 
Q 47.609375 13.234375 47.609375 19.390625 
Q 47.609375 24.75 44.3125 27.78125 
Q 41.015625 30.8125 33.5 32.328125 
L 27.484375 33.5 
Q 16.453125 35.6875 11.515625 40.375 
Q 6.59375 45.0625 6.59375 53.421875 
Q 6.59375 63.09375 13.40625 68.65625 
Q 20.21875 74.21875 32.171875 74.21875 
Q 37.3125 74.21875 42.625 73.28125 
Q 47.953125 72.359375 53.515625 70.515625 
z
" id="DejaVuSans-83"/>
     <path d="M 14.796875 27.296875 
Q 14.796875 17.390625 18.875 11.75 
Q 22.953125 6.109375 30.078125 6.109375 
Q 37.203125 6.109375 41.296875 11.75 
Q 45.40625 17.390625 45.40625 27.296875 
Q 45.40625 37.203125 41.296875 42.84375 
Q 37.203125 48.484375 30.078125 48.484375 
Q 22.953125 48.484375 18.875 42.84375 
Q 14.796875 37.203125 14.796875 27.296875 
z
M 45.40625 8.203125 
Q 42.578125 3.328125 38.25 0.953125 
Q 33.9375 -1.421875 27.875 -1.421875 
Q 17.96875 -1.421875 11.734375 6.484375 
Q 5.515625 14.40625 5.515625 27.296875 
Q 5.515625 40.1875 11.734375 48.09375 
Q 17.96875 56 27.875 56 
Q 33.9375 56 38.25 53.625 
Q 42.578125 51.265625 45.40625 46.390625 
L 45.40625 54.6875 
L 54.390625 54.6875 
L 54.390625 -20.796875 
L 45.40625 -20.796875 
z
" id="DejaVuSans-113"/>
     <path d="M 48.78125 52.59375 
L 48.78125 44.1875 
Q 44.96875 46.296875 41.140625 47.34375 
Q 37.3125 48.390625 33.40625 48.390625 
Q 24.65625 48.390625 19.8125 42.84375 
Q 14.984375 37.3125 14.984375 27.296875 
Q 14.984375 17.28125 19.8125 11.734375 
Q 24.65625 6.203125 33.40625 6.203125 
Q 37.3125 6.203125 41.140625 7.25 
Q 44.96875 8.296875 48.78125 10.40625 
L 48.78125 2.09375 
Q 45.015625 0.34375 40.984375 -0.53125 
Q 36.96875 -1.421875 32.421875 -1.421875 
Q 20.0625 -1.421875 12.78125 6.34375 
Q 5.515625 14.109375 5.515625 27.296875 
Q 5.515625 40.671875 12.859375 48.328125 
Q 20.21875 56 33.015625 56 
Q 37.15625 56 41.109375 55.140625 
Q 45.0625 54.296875 48.78125 52.59375 
z
" id="DejaVuSans-99"/>
    </defs>
    <g transform="translate(357.986875 19.3575)scale(0.16 -0.16)">
     <use xlink:href="#DejaVuSans-67"/>
     <use x="69.824219" xlink:href="#DejaVuSans-117"/>
     <use x="133.203125" xlink:href="#DejaVuSans-116"/>
     <use x="172.412109" xlink:href="#DejaVuSans-97"/>
     <use x="233.691406" xlink:href="#DejaVuSans-100"/>
     <use x="297.167969" xlink:href="#DejaVuSans-97"/>
     <use x="358.447266" xlink:href="#DejaVuSans-112"/>
     <use x="421.923828" xlink:href="#DejaVuSans-116"/>
     <use x="461.132812" xlink:href="#DejaVuSans-58"/>
     <use x="494.824219" xlink:href="#DejaVuSans-32"/>
     <use x="526.611328" xlink:href="#DejaVuSans-76"/>
     <use x="582.308594" xlink:href="#DejaVuSans-101"/>
     <use x="643.832031" xlink:href="#DejaVuSans-110"/>
     <use x="707.210938" xlink:href="#DejaVuSans-103"/>
     <use x="770.6875" xlink:href="#DejaVuSans-116"/>
     <use x="809.896484" xlink:href="#DejaVuSans-104"/>
     <use x="873.275391" xlink:href="#DejaVuSans-115"/>
     <use x="925.375" xlink:href="#DejaVuSans-32"/>
     <use x="957.162109" xlink:href="#DejaVuSans-111"/>
     <use x="1018.34375" xlink:href="#DejaVuSans-102"/>
     <use x="1053.548828" xlink:href="#DejaVuSans-32"/>
     <use x="1085.335938" xlink:href="#DejaVuSans-84"/>
     <use x="1146.201172" xlink:href="#DejaVuSans-114"/>
     <use x="1187.314453" xlink:href="#DejaVuSans-105"/>
     <use x="1215.097656" xlink:href="#DejaVuSans-109"/>
     <use x="1312.509766" xlink:href="#DejaVuSans-109"/>
     <use x="1409.921875" xlink:href="#DejaVuSans-101"/>
     <use x="1471.445312" xlink:href="#DejaVuSans-100"/>
     <use x="1534.921875" xlink:href="#DejaVuSans-32"/>
     <use x="1566.708984" xlink:href="#DejaVuSans-83"/>
     <use x="1630.185547" xlink:href="#DejaVuSans-101"/>
     <use x="1691.708984" xlink:href="#DejaVuSans-113"/>
     <use x="1755.185547" xlink:href="#DejaVuSans-117"/>
     <use x="1818.564453" xlink:href="#DejaVuSans-101"/>
     <use x="1880.087891" xlink:href="#DejaVuSans-110"/>
     <use x="1943.466797" xlink:href="#DejaVuSans-99"/>
     <use x="1998.447266" xlink:href="#DejaVuSans-101"/>
     <use x="2059.970703" xlink:href="#DejaVuSans-115"/>
    </g>
   </g>
  </g>
 </g>
 <defs>
  <clipPath id="p1067162507">
   <rect height="317.968" width="926.89" x="63.508125" y="35.2559"/>
  </clipPath>
 </defs>
</svg>
