<?xml version="1.0" encoding="utf-8" standalone="no"?>
<!DOCTYPE svg PUBLIC "-//W3C//DTD SVG 1.1//EN"
  "http://www.w3.org/Graphics/SVG/1.1/DTD/svg11.dtd">
<!-- Created with matplotlib (https://matplotlib.org/) -->
<svg height="388.844525pt" version="1.1" viewBox="0 0 1000.178125 388.844525" width="1000.178125pt" xmlns="http://www.w3.org/2000/svg" xmlns:xlink="http://www.w3.org/1999/xlink">
 <defs>
  <style type="text/css">
*{stroke-linecap:butt;stroke-linejoin:round;}
  </style>
 </defs>
 <g id="figure_1">
  <g id="patch_1">
   <path d="M 0 388.844525 
L 1000.178125 388.844525 
L 1000.178125 0 
L 0 0 
z
" style="fill:#ffffff;"/>
  </g>
  <g id="axes_1">
   <g id="patch_2">
    <path d="M 48.238125 353.2239 
L 985.343125 353.2239 
L 985.343125 35.2559 
L 48.238125 35.2559 
z
" style="fill:#ffffff;"/>
   </g>
   <g id="matplotlib.axis_1">
    <g id="xtick_1">
     <g id="text_1">
      <!-- 0 -->
      <defs>
       <path d="M 31.78125 66.40625 
Q 24.171875 66.40625 20.328125 58.90625 
Q 16.5 51.421875 16.5 36.375 
Q 16.5 21.390625 20.328125 13.890625 
Q 24.171875 6.390625 31.78125 6.390625 
Q 39.453125 6.390625 43.28125 13.890625 
Q 47.125 21.390625 47.125 36.375 
Q 47.125 51.421875 43.28125 58.90625 
Q 39.453125 66.40625 31.78125 66.40625 
z
M 31.78125 74.21875 
Q 44.046875 74.21875 50.515625 64.515625 
Q 56.984375 54.828125 56.984375 36.375 
Q 56.984375 17.96875 50.515625 8.265625 
Q 44.046875 -1.421875 31.78125 -1.421875 
Q 19.53125 -1.421875 13.0625 8.265625 
Q 6.59375 17.96875 6.59375 36.375 
Q 6.59375 54.828125 13.0625 64.515625 
Q 19.53125 74.21875 31.78125 74.21875 
z
" id="DejaVuSans-48"/>
      </defs>
      <g transform="translate(45.693125 366.30265)scale(0.08 -0.08)">
       <use xlink:href="#DejaVuSans-48"/>
      </g>
     </g>
    </g>
    <g id="xtick_2">
     <g id="text_2">
      <!-- 20 -->
      <defs>
       <path d="M 19.1875 8.296875 
L 53.609375 8.296875 
L 53.609375 0 
L 7.328125 0 
L 7.328125 8.296875 
Q 12.9375 14.109375 22.625 23.890625 
Q 32.328125 33.6875 34.8125 36.53125 
Q 39.546875 41.84375 41.421875 45.53125 
Q 43.3125 49.21875 43.3125 52.78125 
Q 43.3125 58.59375 39.234375 62.25 
Q 35.15625 65.921875 28.609375 65.921875 
Q 23.96875 65.921875 18.8125 64.3125 
Q 13.671875 62.703125 7.8125 59.421875 
L 7.8125 69.390625 
Q 13.765625 71.78125 18.9375 73 
Q 24.125 74.21875 28.421875 74.21875 
Q 39.75 74.21875 46.484375 68.546875 
Q 53.21875 62.890625 53.21875 53.421875 
Q 53.21875 48.921875 51.53125 44.890625 
Q 49.859375 40.875 45.40625 35.40625 
Q 44.1875 33.984375 37.640625 27.21875 
Q 31.109375 20.453125 19.1875 8.296875 
z
" id="DejaVuSans-50"/>
      </defs>
      <g transform="translate(230.569125 366.30265)scale(0.08 -0.08)">
       <use xlink:href="#DejaVuSans-50"/>
       <use x="63.623047" xlink:href="#DejaVuSans-48"/>
      </g>
     </g>
    </g>
    <g id="xtick_3">
     <g id="text_3">
      <!-- 40 -->
      <defs>
       <path d="M 37.796875 64.3125 
L 12.890625 25.390625 
L 37.796875 25.390625 
z
M 35.203125 72.90625 
L 47.609375 72.90625 
L 47.609375 25.390625 
L 58.015625 25.390625 
L 58.015625 17.1875 
L 47.609375 17.1875 
L 47.609375 0 
L 37.796875 0 
L 37.796875 17.1875 
L 4.890625 17.1875 
L 4.890625 26.703125 
z
" id="DejaVuSans-52"/>
      </defs>
      <g transform="translate(417.990125 366.30265)scale(0.08 -0.08)">
       <use xlink:href="#DejaVuSans-52"/>
       <use x="63.623047" xlink:href="#DejaVuSans-48"/>
      </g>
     </g>
    </g>
    <g id="xtick_4">
     <g id="text_4">
      <!-- 60 -->
      <defs>
       <path d="M 33.015625 40.375 
Q 26.375 40.375 22.484375 35.828125 
Q 18.609375 31.296875 18.609375 23.390625 
Q 18.609375 15.53125 22.484375 10.953125 
Q 26.375 6.390625 33.015625 6.390625 
Q 39.65625 6.390625 43.53125 10.953125 
Q 47.40625 15.53125 47.40625 23.390625 
Q 47.40625 31.296875 43.53125 35.828125 
Q 39.65625 40.375 33.015625 40.375 
z
M 52.59375 71.296875 
L 52.59375 62.3125 
Q 48.875 64.0625 45.09375 64.984375 
Q 41.3125 65.921875 37.59375 65.921875 
Q 27.828125 65.921875 22.671875 59.328125 
Q 17.53125 52.734375 16.796875 39.40625 
Q 19.671875 43.65625 24.015625 45.921875 
Q 28.375 48.1875 33.59375 48.1875 
Q 44.578125 48.1875 50.953125 41.515625 
Q 57.328125 34.859375 57.328125 23.390625 
Q 57.328125 12.15625 50.6875 5.359375 
Q 44.046875 -1.421875 33.015625 -1.421875 
Q 20.359375 -1.421875 13.671875 8.265625 
Q 6.984375 17.96875 6.984375 36.375 
Q 6.984375 53.65625 15.1875 63.9375 
Q 23.390625 74.21875 37.203125 74.21875 
Q 40.921875 74.21875 44.703125 73.484375 
Q 48.484375 72.75 52.59375 71.296875 
z
" id="DejaVuSans-54"/>
      </defs>
      <g transform="translate(605.411125 366.30265)scale(0.08 -0.08)">
       <use xlink:href="#DejaVuSans-54"/>
       <use x="63.623047" xlink:href="#DejaVuSans-48"/>
      </g>
     </g>
    </g>
    <g id="xtick_5">
     <g id="text_5">
      <!-- 80 -->
      <defs>
       <path d="M 31.78125 34.625 
Q 24.75 34.625 20.71875 30.859375 
Q 16.703125 27.09375 16.703125 20.515625 
Q 16.703125 13.921875 20.71875 10.15625 
Q 24.75 6.390625 31.78125 6.390625 
Q 38.8125 6.390625 42.859375 10.171875 
Q 46.921875 13.96875 46.921875 20.515625 
Q 46.921875 27.09375 42.890625 30.859375 
Q 38.875 34.625 31.78125 34.625 
z
M 21.921875 38.8125 
Q 15.578125 40.375 12.03125 44.71875 
Q 8.5 49.078125 8.5 55.328125 
Q 8.5 64.0625 14.71875 69.140625 
Q 20.953125 74.21875 31.78125 74.21875 
Q 42.671875 74.21875 48.875 69.140625 
Q 55.078125 64.0625 55.078125 55.328125 
Q 55.078125 49.078125 51.53125 44.71875 
Q 48 40.375 41.703125 38.8125 
Q 48.828125 37.15625 52.796875 32.3125 
Q 56.78125 27.484375 56.78125 20.515625 
Q 56.78125 9.90625 50.3125 4.234375 
Q 43.84375 -1.421875 31.78125 -1.421875 
Q 19.734375 -1.421875 13.25 4.234375 
Q 6.78125 9.90625 6.78125 20.515625 
Q 6.78125 27.484375 10.78125 32.3125 
Q 14.796875 37.15625 21.921875 38.8125 
z
M 18.3125 54.390625 
Q 18.3125 48.734375 21.84375 45.5625 
Q 25.390625 42.390625 31.78125 42.390625 
Q 38.140625 42.390625 41.71875 45.5625 
Q 45.3125 48.734375 45.3125 54.390625 
Q 45.3125 60.0625 41.71875 63.234375 
Q 38.140625 66.40625 31.78125 66.40625 
Q 25.390625 66.40625 21.84375 63.234375 
Q 18.3125 60.0625 18.3125 54.390625 
z
" id="DejaVuSans-56"/>
      </defs>
      <g transform="translate(792.832125 366.30265)scale(0.08 -0.08)">
       <use xlink:href="#DejaVuSans-56"/>
       <use x="63.623047" xlink:href="#DejaVuSans-48"/>
      </g>
     </g>
    </g>
    <g id="xtick_6">
     <g id="text_6">
      <!-- 100 -->
      <defs>
       <path d="M 12.40625 8.296875 
L 28.515625 8.296875 
L 28.515625 63.921875 
L 10.984375 60.40625 
L 10.984375 69.390625 
L 28.421875 72.90625 
L 38.28125 72.90625 
L 38.28125 8.296875 
L 54.390625 8.296875 
L 54.390625 0 
L 12.40625 0 
z
" id="DejaVuSans-49"/>
      </defs>
      <g transform="translate(977.708125 366.30265)scale(0.08 -0.08)">
       <use xlink:href="#DejaVuSans-49"/>
       <use x="63.623047" xlink:href="#DejaVuSans-48"/>
       <use x="127.246094" xlink:href="#DejaVuSans-48"/>
      </g>
     </g>
    </g>
    <g id="text_7">
     <!-- Transcript Position (%) -->
     <defs>
      <path d="M -0.296875 72.90625 
L 61.375 72.90625 
L 61.375 64.59375 
L 35.5 64.59375 
L 35.5 0 
L 25.59375 0 
L 25.59375 64.59375 
L -0.296875 64.59375 
z
" id="DejaVuSans-84"/>
      <path d="M 41.109375 46.296875 
Q 39.59375 47.171875 37.8125 47.578125 
Q 36.03125 48 33.890625 48 
Q 26.265625 48 22.1875 43.046875 
Q 18.109375 38.09375 18.109375 28.8125 
L 18.109375 0 
L 9.078125 0 
L 9.078125 54.6875 
L 18.109375 54.6875 
L 18.109375 46.1875 
Q 20.953125 51.171875 25.484375 53.578125 
Q 30.03125 56 36.53125 56 
Q 37.453125 56 38.578125 55.875 
Q 39.703125 55.765625 41.0625 55.515625 
z
" id="DejaVuSans-114"/>
      <path d="M 34.28125 27.484375 
Q 23.390625 27.484375 19.1875 25 
Q 14.984375 22.515625 14.984375 16.5 
Q 14.984375 11.71875 18.140625 8.90625 
Q 21.296875 6.109375 26.703125 6.109375 
Q 34.1875 6.109375 38.703125 11.40625 
Q 43.21875 16.703125 43.21875 25.484375 
L 43.21875 27.484375 
z
M 52.203125 31.203125 
L 52.203125 0 
L 43.21875 0 
L 43.21875 8.296875 
Q 40.140625 3.328125 35.546875 0.953125 
Q 30.953125 -1.421875 24.3125 -1.421875 
Q 15.921875 -1.421875 10.953125 3.296875 
Q 6 8.015625 6 15.921875 
Q 6 25.140625 12.171875 29.828125 
Q 18.359375 34.515625 30.609375 34.515625 
L 43.21875 34.515625 
L 43.21875 35.40625 
Q 43.21875 41.609375 39.140625 45 
Q 35.0625 48.390625 27.6875 48.390625 
Q 23 48.390625 18.546875 47.265625 
Q 14.109375 46.140625 10.015625 43.890625 
L 10.015625 52.203125 
Q 14.9375 54.109375 19.578125 55.046875 
Q 24.21875 56 28.609375 56 
Q 40.484375 56 46.34375 49.84375 
Q 52.203125 43.703125 52.203125 31.203125 
z
" id="DejaVuSans-97"/>
      <path d="M 54.890625 33.015625 
L 54.890625 0 
L 45.90625 0 
L 45.90625 32.71875 
Q 45.90625 40.484375 42.875 44.328125 
Q 39.84375 48.1875 33.796875 48.1875 
Q 26.515625 48.1875 22.3125 43.546875 
Q 18.109375 38.921875 18.109375 30.90625 
L 18.109375 0 
L 9.078125 0 
L 9.078125 54.6875 
L 18.109375 54.6875 
L 18.109375 46.1875 
Q 21.34375 51.125 25.703125 53.5625 
Q 30.078125 56 35.796875 56 
Q 45.21875 56 50.046875 50.171875 
Q 54.890625 44.34375 54.890625 33.015625 
z
" id="DejaVuSans-110"/>
      <path d="M 44.28125 53.078125 
L 44.28125 44.578125 
Q 40.484375 46.53125 36.375 47.5 
Q 32.28125 48.484375 27.875 48.484375 
Q 21.1875 48.484375 17.84375 46.4375 
Q 14.5 44.390625 14.5 40.28125 
Q 14.5 37.15625 16.890625 35.375 
Q 19.28125 33.59375 26.515625 31.984375 
L 29.59375 31.296875 
Q 39.15625 29.25 43.1875 25.515625 
Q 47.21875 21.78125 47.21875 15.09375 
Q 47.21875 7.46875 41.1875 3.015625 
Q 35.15625 -1.421875 24.609375 -1.421875 
Q 20.21875 -1.421875 15.453125 -0.5625 
Q 10.6875 0.296875 5.421875 2 
L 5.421875 11.28125 
Q 10.40625 8.6875 15.234375 7.390625 
Q 20.0625 6.109375 24.8125 6.109375 
Q 31.15625 6.109375 34.5625 8.28125 
Q 37.984375 10.453125 37.984375 14.40625 
Q 37.984375 18.0625 35.515625 20.015625 
Q 33.0625 21.96875 24.703125 23.78125 
L 21.578125 24.515625 
Q 13.234375 26.265625 9.515625 29.90625 
Q 5.8125 33.546875 5.8125 39.890625 
Q 5.8125 47.609375 11.28125 51.796875 
Q 16.75 56 26.8125 56 
Q 31.78125 56 36.171875 55.265625 
Q 40.578125 54.546875 44.28125 53.078125 
z
" id="DejaVuSans-115"/>
      <path d="M 48.78125 52.59375 
L 48.78125 44.1875 
Q 44.96875 46.296875 41.140625 47.34375 
Q 37.3125 48.390625 33.40625 48.390625 
Q 24.65625 48.390625 19.8125 42.84375 
Q 14.984375 37.3125 14.984375 27.296875 
Q 14.984375 17.28125 19.8125 11.734375 
Q 24.65625 6.203125 33.40625 6.203125 
Q 37.3125 6.203125 41.140625 7.25 
Q 44.96875 8.296875 48.78125 10.40625 
L 48.78125 2.09375 
Q 45.015625 0.34375 40.984375 -0.53125 
Q 36.96875 -1.421875 32.421875 -1.421875 
Q 20.0625 -1.421875 12.78125 6.34375 
Q 5.515625 14.109375 5.515625 27.296875 
Q 5.515625 40.671875 12.859375 48.328125 
Q 20.21875 56 33.015625 56 
Q 37.15625 56 41.109375 55.140625 
Q 45.0625 54.296875 48.78125 52.59375 
z
" id="DejaVuSans-99"/>
      <path d="M 9.421875 54.6875 
L 18.40625 54.6875 
L 18.40625 0 
L 9.421875 0 
z
M 9.421875 75.984375 
L 18.40625 75.984375 
L 18.40625 64.59375 
L 9.421875 64.59375 
z
" id="DejaVuSans-105"/>
      <path d="M 18.109375 8.203125 
L 18.109375 -20.796875 
L 9.078125 -20.796875 
L 9.078125 54.6875 
L 18.109375 54.6875 
L 18.109375 46.390625 
Q 20.953125 51.265625 25.265625 53.625 
Q 29.59375 56 35.59375 56 
Q 45.5625 56 51.78125 48.09375 
Q 58.015625 40.1875 58.015625 27.296875 
Q 58.015625 14.40625 51.78125 6.484375 
Q 45.5625 -1.421875 35.59375 -1.421875 
Q 29.59375 -1.421875 25.265625 0.953125 
Q 20.953125 3.328125 18.109375 8.203125 
z
M 48.6875 27.296875 
Q 48.6875 37.203125 44.609375 42.84375 
Q 40.53125 48.484375 33.40625 48.484375 
Q 26.265625 48.484375 22.1875 42.84375 
Q 18.109375 37.203125 18.109375 27.296875 
Q 18.109375 17.390625 22.1875 11.75 
Q 26.265625 6.109375 33.40625 6.109375 
Q 40.53125 6.109375 44.609375 11.75 
Q 48.6875 17.390625 48.6875 27.296875 
z
" id="DejaVuSans-112"/>
      <path d="M 18.3125 70.21875 
L 18.3125 54.6875 
L 36.8125 54.6875 
L 36.8125 47.703125 
L 18.3125 47.703125 
L 18.3125 18.015625 
Q 18.3125 11.328125 20.140625 9.421875 
Q 21.96875 7.515625 27.59375 7.515625 
L 36.8125 7.515625 
L 36.8125 0 
L 27.59375 0 
Q 17.1875 0 13.234375 3.875 
Q 9.28125 7.765625 9.28125 18.015625 
L 9.28125 47.703125 
L 2.6875 47.703125 
L 2.6875 54.6875 
L 9.28125 54.6875 
L 9.28125 70.21875 
z
" id="DejaVuSans-116"/>
      <path id="DejaVuSans-32"/>
      <path d="M 19.671875 64.796875 
L 19.671875 37.40625 
L 32.078125 37.40625 
Q 38.96875 37.40625 42.71875 40.96875 
Q 46.484375 44.53125 46.484375 51.125 
Q 46.484375 57.671875 42.71875 61.234375 
Q 38.96875 64.796875 32.078125 64.796875 
z
M 9.8125 72.90625 
L 32.078125 72.90625 
Q 44.34375 72.90625 50.609375 67.359375 
Q 56.890625 61.8125 56.890625 51.125 
Q 56.890625 40.328125 50.609375 34.8125 
Q 44.34375 29.296875 32.078125 29.296875 
L 19.671875 29.296875 
L 19.671875 0 
L 9.8125 0 
z
" id="DejaVuSans-80"/>
      <path d="M 30.609375 48.390625 
Q 23.390625 48.390625 19.1875 42.75 
Q 14.984375 37.109375 14.984375 27.296875 
Q 14.984375 17.484375 19.15625 11.84375 
Q 23.34375 6.203125 30.609375 6.203125 
Q 37.796875 6.203125 41.984375 11.859375 
Q 46.1875 17.53125 46.1875 27.296875 
Q 46.1875 37.015625 41.984375 42.703125 
Q 37.796875 48.390625 30.609375 48.390625 
z
M 30.609375 56 
Q 42.328125 56 49.015625 48.375 
Q 55.71875 40.765625 55.71875 27.296875 
Q 55.71875 13.875 49.015625 6.21875 
Q 42.328125 -1.421875 30.609375 -1.421875 
Q 18.84375 -1.421875 12.171875 6.21875 
Q 5.515625 13.875 5.515625 27.296875 
Q 5.515625 40.765625 12.171875 48.375 
Q 18.84375 56 30.609375 56 
z
" id="DejaVuSans-111"/>
      <path d="M 31 75.875 
Q 24.46875 64.65625 21.28125 53.65625 
Q 18.109375 42.671875 18.109375 31.390625 
Q 18.109375 20.125 21.3125 9.0625 
Q 24.515625 -2 31 -13.1875 
L 23.1875 -13.1875 
Q 15.875 -1.703125 12.234375 9.375 
Q 8.59375 20.453125 8.59375 31.390625 
Q 8.59375 42.28125 12.203125 53.3125 
Q 15.828125 64.359375 23.1875 75.875 
z
" id="DejaVuSans-40"/>
      <path d="M 72.703125 32.078125 
Q 68.453125 32.078125 66.03125 28.46875 
Q 63.625 24.859375 63.625 18.40625 
Q 63.625 12.0625 66.03125 8.421875 
Q 68.453125 4.78125 72.703125 4.78125 
Q 76.859375 4.78125 79.265625 8.421875 
Q 81.6875 12.0625 81.6875 18.40625 
Q 81.6875 24.8125 79.265625 28.4375 
Q 76.859375 32.078125 72.703125 32.078125 
z
M 72.703125 38.28125 
Q 80.421875 38.28125 84.953125 32.90625 
Q 89.5 27.546875 89.5 18.40625 
Q 89.5 9.28125 84.9375 3.921875 
Q 80.375 -1.421875 72.703125 -1.421875 
Q 64.890625 -1.421875 60.34375 3.921875 
Q 55.8125 9.28125 55.8125 18.40625 
Q 55.8125 27.59375 60.375 32.9375 
Q 64.9375 38.28125 72.703125 38.28125 
z
M 22.3125 68.015625 
Q 18.109375 68.015625 15.6875 64.375 
Q 13.28125 60.75 13.28125 54.390625 
Q 13.28125 47.953125 15.671875 44.328125 
Q 18.0625 40.71875 22.3125 40.71875 
Q 26.5625 40.71875 28.96875 44.328125 
Q 31.390625 47.953125 31.390625 54.390625 
Q 31.390625 60.6875 28.953125 64.34375 
Q 26.515625 68.015625 22.3125 68.015625 
z
M 66.40625 74.21875 
L 74.21875 74.21875 
L 28.609375 -1.421875 
L 20.796875 -1.421875 
z
M 22.3125 74.21875 
Q 30.03125 74.21875 34.609375 68.875 
Q 39.203125 63.53125 39.203125 54.390625 
Q 39.203125 45.171875 34.640625 39.84375 
Q 30.078125 34.515625 22.3125 34.515625 
Q 14.546875 34.515625 10.03125 39.859375 
Q 5.515625 45.21875 5.515625 54.390625 
Q 5.515625 63.484375 10.046875 68.84375 
Q 14.59375 74.21875 22.3125 74.21875 
z
" id="DejaVuSans-37"/>
      <path d="M 8.015625 75.875 
L 15.828125 75.875 
Q 23.140625 64.359375 26.78125 53.3125 
Q 30.421875 42.28125 30.421875 31.390625 
Q 30.421875 20.453125 26.78125 9.375 
Q 23.140625 -1.703125 15.828125 -13.1875 
L 8.015625 -13.1875 
Q 14.5 -2 17.703125 9.0625 
Q 20.90625 20.125 20.90625 31.390625 
Q 20.90625 42.671875 17.703125 53.65625 
Q 14.5 64.65625 8.015625 75.875 
z
" id="DejaVuSans-41"/>
     </defs>
     <g transform="translate(460.053125 379.564837)scale(0.1 -0.1)">
      <use xlink:href="#DejaVuSans-84"/>
      <use x="60.865234" xlink:href="#DejaVuSans-114"/>
      <use x="101.978516" xlink:href="#DejaVuSans-97"/>
      <use x="163.257812" xlink:href="#DejaVuSans-110"/>
      <use x="226.636719" xlink:href="#DejaVuSans-115"/>
      <use x="278.736328" xlink:href="#DejaVuSans-99"/>
      <use x="333.716797" xlink:href="#DejaVuSans-114"/>
      <use x="374.830078" xlink:href="#DejaVuSans-105"/>
      <use x="402.613281" xlink:href="#DejaVuSans-112"/>
      <use x="466.089844" xlink:href="#DejaVuSans-116"/>
      <use x="505.298828" xlink:href="#DejaVuSans-32"/>
      <use x="537.085938" xlink:href="#DejaVuSans-80"/>
      <use x="597.341797" xlink:href="#DejaVuSans-111"/>
      <use x="658.523438" xlink:href="#DejaVuSans-115"/>
      <use x="710.623047" xlink:href="#DejaVuSans-105"/>
      <use x="738.40625" xlink:href="#DejaVuSans-116"/>
      <use x="777.615234" xlink:href="#DejaVuSans-105"/>
      <use x="805.398438" xlink:href="#DejaVuSans-111"/>
      <use x="866.580078" xlink:href="#DejaVuSans-110"/>
      <use x="929.958984" xlink:href="#DejaVuSans-32"/>
      <use x="961.746094" xlink:href="#DejaVuSans-40"/>
      <use x="1000.759766" xlink:href="#DejaVuSans-37"/>
      <use x="1095.779297" xlink:href="#DejaVuSans-41"/>
     </g>
    </g>
   </g>
   <g id="matplotlib.axis_2">
    <g id="ytick_1">
     <g id="line2d_1">
      <path clip-path="url(#p3fc17069b9)" d="M 48.238125 353.2239 
L 985.343125 353.2239 
" style="fill:none;stroke:#dedede;stroke-linecap:square;"/>
     </g>
     <g id="text_8">
      <!-- 0 -->
      <g transform="translate(36.148125 356.263275)scale(0.08 -0.08)">
       <use xlink:href="#DejaVuSans-48"/>
      </g>
     </g>
    </g>
    <g id="ytick_2">
     <g id="line2d_2">
      <path clip-path="url(#p3fc17069b9)" d="M 48.238125 306.166503 
L 985.343125 306.166503 
" style="fill:none;stroke:#dedede;stroke-linecap:square;"/>
     </g>
     <g id="text_9">
      <!-- 200 -->
      <g transform="translate(25.968125 309.205878)scale(0.08 -0.08)">
       <use xlink:href="#DejaVuSans-50"/>
       <use x="63.623047" xlink:href="#DejaVuSans-48"/>
       <use x="127.246094" xlink:href="#DejaVuSans-48"/>
      </g>
     </g>
    </g>
    <g id="ytick_3">
     <g id="line2d_3">
      <path clip-path="url(#p3fc17069b9)" d="M 48.238125 259.109106 
L 985.343125 259.109106 
" style="fill:none;stroke:#dedede;stroke-linecap:square;"/>
     </g>
     <g id="text_10">
      <!-- 400 -->
      <g transform="translate(25.968125 262.148481)scale(0.08 -0.08)">
       <use xlink:href="#DejaVuSans-52"/>
       <use x="63.623047" xlink:href="#DejaVuSans-48"/>
       <use x="127.246094" xlink:href="#DejaVuSans-48"/>
      </g>
     </g>
    </g>
    <g id="ytick_4">
     <g id="line2d_4">
      <path clip-path="url(#p3fc17069b9)" d="M 48.238125 212.051709 
L 985.343125 212.051709 
" style="fill:none;stroke:#dedede;stroke-linecap:square;"/>
     </g>
     <g id="text_11">
      <!-- 600 -->
      <g transform="translate(25.968125 215.091084)scale(0.08 -0.08)">
       <use xlink:href="#DejaVuSans-54"/>
       <use x="63.623047" xlink:href="#DejaVuSans-48"/>
       <use x="127.246094" xlink:href="#DejaVuSans-48"/>
      </g>
     </g>
    </g>
    <g id="ytick_5">
     <g id="line2d_5">
      <path clip-path="url(#p3fc17069b9)" d="M 48.238125 164.994312 
L 985.343125 164.994312 
" style="fill:none;stroke:#dedede;stroke-linecap:square;"/>
     </g>
     <g id="text_12">
      <!-- 800 -->
      <g transform="translate(25.968125 168.033687)scale(0.08 -0.08)">
       <use xlink:href="#DejaVuSans-56"/>
       <use x="63.623047" xlink:href="#DejaVuSans-48"/>
       <use x="127.246094" xlink:href="#DejaVuSans-48"/>
      </g>
     </g>
    </g>
    <g id="ytick_6">
     <g id="line2d_6">
      <path clip-path="url(#p3fc17069b9)" d="M 48.238125 117.936915 
L 985.343125 117.936915 
" style="fill:none;stroke:#dedede;stroke-linecap:square;"/>
     </g>
     <g id="text_13">
      <!-- 1000 -->
      <g transform="translate(20.878125 120.97629)scale(0.08 -0.08)">
       <use xlink:href="#DejaVuSans-49"/>
       <use x="63.623047" xlink:href="#DejaVuSans-48"/>
       <use x="127.246094" xlink:href="#DejaVuSans-48"/>
       <use x="190.869141" xlink:href="#DejaVuSans-48"/>
      </g>
     </g>
    </g>
    <g id="ytick_7">
     <g id="line2d_7">
      <path clip-path="url(#p3fc17069b9)" d="M 48.238125 70.879517 
L 985.343125 70.879517 
" style="fill:none;stroke:#dedede;stroke-linecap:square;"/>
     </g>
     <g id="text_14">
      <!-- 1200 -->
      <g transform="translate(20.878125 73.918892)scale(0.08 -0.08)">
       <use xlink:href="#DejaVuSans-49"/>
       <use x="63.623047" xlink:href="#DejaVuSans-50"/>
       <use x="127.246094" xlink:href="#DejaVuSans-48"/>
       <use x="190.869141" xlink:href="#DejaVuSans-48"/>
      </g>
     </g>
    </g>
    <g id="text_15">
     <!-- Coverage -->
     <defs>
      <path d="M 64.40625 67.28125 
L 64.40625 56.890625 
Q 59.421875 61.53125 53.78125 63.8125 
Q 48.140625 66.109375 41.796875 66.109375 
Q 29.296875 66.109375 22.65625 58.46875 
Q 16.015625 50.828125 16.015625 36.375 
Q 16.015625 21.96875 22.65625 14.328125 
Q 29.296875 6.6875 41.796875 6.6875 
Q 48.140625 6.6875 53.78125 8.984375 
Q 59.421875 11.28125 64.40625 15.921875 
L 64.40625 5.609375 
Q 59.234375 2.09375 53.4375 0.328125 
Q 47.65625 -1.421875 41.21875 -1.421875 
Q 24.65625 -1.421875 15.125 8.703125 
Q 5.609375 18.84375 5.609375 36.375 
Q 5.609375 53.953125 15.125 64.078125 
Q 24.65625 74.21875 41.21875 74.21875 
Q 47.75 74.21875 53.53125 72.484375 
Q 59.328125 70.75 64.40625 67.28125 
z
" id="DejaVuSans-67"/>
      <path d="M 2.984375 54.6875 
L 12.5 54.6875 
L 29.59375 8.796875 
L 46.6875 54.6875 
L 56.203125 54.6875 
L 35.6875 0 
L 23.484375 0 
z
" id="DejaVuSans-118"/>
      <path d="M 56.203125 29.59375 
L 56.203125 25.203125 
L 14.890625 25.203125 
Q 15.484375 15.921875 20.484375 11.0625 
Q 25.484375 6.203125 34.421875 6.203125 
Q 39.59375 6.203125 44.453125 7.46875 
Q 49.3125 8.734375 54.109375 11.28125 
L 54.109375 2.78125 
Q 49.265625 0.734375 44.1875 -0.34375 
Q 39.109375 -1.421875 33.890625 -1.421875 
Q 20.796875 -1.421875 13.15625 6.1875 
Q 5.515625 13.8125 5.515625 26.8125 
Q 5.515625 40.234375 12.765625 48.109375 
Q 20.015625 56 32.328125 56 
Q 43.359375 56 49.78125 48.890625 
Q 56.203125 41.796875 56.203125 29.59375 
z
M 47.21875 32.234375 
Q 47.125 39.59375 43.09375 43.984375 
Q 39.0625 48.390625 32.421875 48.390625 
Q 24.90625 48.390625 20.390625 44.140625 
Q 15.875 39.890625 15.1875 32.171875 
z
" id="DejaVuSans-101"/>
      <path d="M 45.40625 27.984375 
Q 45.40625 37.75 41.375 43.109375 
Q 37.359375 48.484375 30.078125 48.484375 
Q 22.859375 48.484375 18.828125 43.109375 
Q 14.796875 37.75 14.796875 27.984375 
Q 14.796875 18.265625 18.828125 12.890625 
Q 22.859375 7.515625 30.078125 7.515625 
Q 37.359375 7.515625 41.375 12.890625 
Q 45.40625 18.265625 45.40625 27.984375 
z
M 54.390625 6.78125 
Q 54.390625 -7.171875 48.1875 -13.984375 
Q 42 -20.796875 29.203125 -20.796875 
Q 24.46875 -20.796875 20.265625 -20.09375 
Q 16.0625 -19.390625 12.109375 -17.921875 
L 12.109375 -9.1875 
Q 16.0625 -11.328125 19.921875 -12.34375 
Q 23.78125 -13.375 27.78125 -13.375 
Q 36.625 -13.375 41.015625 -8.765625 
Q 45.40625 -4.15625 45.40625 5.171875 
L 45.40625 9.625 
Q 42.625 4.78125 38.28125 2.390625 
Q 33.9375 0 27.875 0 
Q 17.828125 0 11.671875 7.65625 
Q 5.515625 15.328125 5.515625 27.984375 
Q 5.515625 40.671875 11.671875 48.328125 
Q 17.828125 56 27.875 56 
Q 33.9375 56 38.28125 53.609375 
Q 42.625 51.21875 45.40625 46.390625 
L 45.40625 54.6875 
L 54.390625 54.6875 
z
" id="DejaVuSans-103"/>
     </defs>
     <g transform="translate(14.798438 218.196931)rotate(-90)scale(0.1 -0.1)">
      <use xlink:href="#DejaVuSans-67"/>
      <use x="69.824219" xlink:href="#DejaVuSans-111"/>
      <use x="131.005859" xlink:href="#DejaVuSans-118"/>
      <use x="190.185547" xlink:href="#DejaVuSans-101"/>
      <use x="251.708984" xlink:href="#DejaVuSans-114"/>
      <use x="292.822266" xlink:href="#DejaVuSans-97"/>
      <use x="354.101562" xlink:href="#DejaVuSans-103"/>
      <use x="417.578125" xlink:href="#DejaVuSans-101"/>
     </g>
    </g>
   </g>
   <g id="line2d_8">
    <path clip-path="url(#p3fc17069b9)" d="M 48.238125 326.620573 
L 57.609175 322.441552 
L 66.980225 319.406363 
L 76.351275 318.024879 
L 85.722325 317.469421 
L 95.093375 316.831802 
L 104.464425 316.349737 
L 113.835475 315.962856 
L 123.206525 315.75404 
L 132.577575 315.895242 
L 141.948625 316.315484 
L 151.319675 316.393018 
L 160.690725 316.576467 
L 170.061775 316.31545 
L 179.432825 316.236065 
L 188.803875 315.851148 
L 198.174925 315.938667 
L 207.545975 316.00119 
L 216.917025 316.069867 
L 226.288075 316.061454 
L 235.659125 316.232953 
L 245.030175 315.886448 
L 254.401225 315.822842 
L 263.772275 315.193036 
L 273.143325 315.012004 
L 282.514375 314.935269 
L 291.885425 314.836566 
L 301.256475 314.979502 
L 310.627525 314.990349 
L 319.998575 314.941384 
L 329.369625 314.418566 
L 338.740675 313.579343 
L 348.111725 312.746265 
L 357.482775 312.181248 
L 366.853825 312.564264 
L 376.224875 312.384874 
L 385.595925 312.383377 
L 394.966975 312.139235 
L 404.338025 311.636419 
L 413.709075 310.70454 
L 423.080125 309.852403 
L 432.451175 309.326596 
L 441.822225 308.998274 
L 451.193275 308.409736 
L 460.564325 308.304131 
L 469.935375 308.400497 
L 479.306425 307.390029 
L 488.677475 306.393944 
L 498.048525 305.896334 
L 507.419575 306.046389 
L 516.790625 305.823567 
L 526.161675 305.367269 
L 535.532725 304.485963 
L 544.903775 303.331245 
L 554.274825 302.430765 
L 563.645875 301.561417 
L 573.016925 300.918185 
L 582.387975 300.238657 
L 591.759025 300.081456 
L 601.130075 299.677536 
L 610.501125 299.143978 
L 619.872175 298.38983 
L 629.243225 297.351827 
L 638.614275 296.422987 
L 647.985325 295.377747 
L 657.356375 294.576093 
L 666.727425 293.158126 
L 676.098475 291.885095 
L 685.469525 290.255212 
L 694.840575 288.009796 
L 704.211625 286.029256 
L 713.582675 283.829164 
L 722.953725 282.648195 
L 732.324775 281.260292 
L 741.695825 279.744398 
L 751.066875 277.618078 
L 760.437925 275.959942 
L 769.808975 273.878018 
L 779.180025 271.909839 
L 788.551075 269.821048 
L 797.922125 267.981637 
L 807.293175 265.069934 
L 816.664225 262.429335 
L 826.035275 259.745248 
L 835.406325 257.227645 
L 844.777375 256.02613 
L 854.148425 254.39785 
L 863.519475 252.786132 
L 872.890525 251.384958 
L 882.261575 250.268028 
L 891.632625 250.555134 
L 901.003675 252.000597 
L 910.374725 252.956244 
L 919.745775 254.096062 
L 929.116825 256.306757 
L 938.487875 263.571457 
L 947.858925 275.922455 
L 957.229975 294.084896 
L 966.601025 318.549675 
L 975.972075 342.760171 
" style="fill:none;stroke:#7cb5ec;stroke-linecap:square;"/>
   </g>
   <g id="line2d_9">
    <path clip-path="url(#p3fc17069b9)" d="M 48.238125 287.568595 
L 57.609175 277.723653 
L 66.980225 272.45355 
L 76.351275 270.438483 
L 85.722325 268.625768 
L 95.093375 267.064074 
L 104.464425 264.554324 
L 113.835475 263.534126 
L 123.206525 262.768285 
L 132.577575 263.065489 
L 141.948625 262.693116 
L 151.319675 263.114916 
L 160.690725 263.612552 
L 170.061775 264.288497 
L 179.432825 264.485237 
L 188.803875 264.341213 
L 198.174925 264.980295 
L 207.545975 265.424901 
L 216.917025 265.16179 
L 226.288075 264.629006 
L 235.659125 263.673817 
L 245.030175 263.50822 
L 254.401225 264.322647 
L 263.772275 264.665261 
L 273.143325 264.323812 
L 282.514375 264.356183 
L 291.885425 263.373162 
L 301.256475 262.508143 
L 310.627525 261.891325 
L 319.998575 261.352356 
L 329.369625 261.499545 
L 338.740675 260.923256 
L 348.111725 261.300699 
L 357.482775 261.861853 
L 366.853825 261.89689 
L 376.224875 261.160296 
L 385.595925 260.255623 
L 394.966975 259.65741 
L 404.338025 258.972774 
L 413.709075 258.444607 
L 423.080125 258.139871 
L 432.451175 258.179755 
L 441.822225 257.465706 
L 451.193275 257.069418 
L 460.564325 256.766801 
L 469.935375 256.325389 
L 479.306425 255.068388 
L 488.677475 253.621072 
L 498.048525 252.426972 
L 507.419575 252.460349 
L 516.790625 251.97884 
L 526.161675 252.174886 
L 535.532725 252.057614 
L 544.903775 251.377187 
L 554.274825 250.150556 
L 563.645875 248.895549 
L 573.016925 247.759887 
L 582.387975 247.417277 
L 591.759025 247.176251 
L 601.130075 247.146373 
L 610.501125 246.038062 
L 619.872175 245.288118 
L 629.243225 244.683451 
L 638.614275 243.670042 
L 647.985325 242.918342 
L 657.356375 242.349607 
L 666.727425 241.527224 
L 676.098475 240.498881 
L 685.469525 240.118734 
L 694.840575 239.604431 
L 704.211625 237.868003 
L 713.582675 236.189624 
L 722.953725 234.761738 
L 732.324775 233.193422 
L 741.695825 231.781813 
L 751.066875 230.85548 
L 760.437925 228.651738 
L 769.808975 226.947162 
L 779.180025 224.535342 
L 788.551075 223.730741 
L 797.922125 222.959422 
L 807.293175 222.287517 
L 816.664225 221.624853 
L 826.035275 220.304629 
L 835.406325 219.890106 
L 844.777375 220.272396 
L 854.148425 220.504037 
L 863.519475 220.943842 
L 872.890525 222.47946 
L 882.261575 223.912972 
L 891.632625 226.96913 
L 901.003675 231.212983 
L 910.374725 235.773185 
L 919.745775 241.32225 
L 929.116825 249.012046 
L 938.487875 259.228978 
L 947.858925 274.104094 
L 957.229975 293.11403 
L 966.601025 317.916423 
L 975.972075 342.656635 
" style="fill:none;stroke:#434348;stroke-linecap:square;"/>
   </g>
   <g id="line2d_10">
    <path clip-path="url(#p3fc17069b9)" d="M 48.238125 290.778275 
L 57.609175 283.381264 
L 66.980225 279.216991 
L 76.351275 276.704051 
L 85.722325 275.702519 
L 95.093375 274.247593 
L 104.464425 272.58211 
L 113.835475 270.706266 
L 123.206525 270.204072 
L 132.577575 269.076378 
L 141.948625 268.014861 
L 151.319675 268.037229 
L 160.690725 267.960638 
L 170.061775 267.135116 
L 179.432825 266.406744 
L 188.803875 265.801144 
L 198.174925 265.413053 
L 207.545975 264.884168 
L 216.917025 264.72009 
L 226.288075 264.669828 
L 235.659125 263.377947 
L 245.030175 261.701518 
L 254.401225 260.300332 
L 263.772275 259.711434 
L 273.143325 259.351395 
L 282.514375 258.687556 
L 291.885425 257.865015 
L 301.256475 256.915992 
L 310.627525 256.320344 
L 319.998575 255.713707 
L 329.369625 254.860252 
L 338.740675 254.702461 
L 348.111725 253.731091 
L 357.482775 252.91244 
L 366.853825 251.896969 
L 376.224875 250.873075 
L 385.595925 249.370176 
L 394.966975 248.669783 
L 404.338025 247.58616 
L 413.709075 245.848136 
L 423.080125 243.947565 
L 432.451175 243.465002 
L 441.822225 243.201723 
L 451.193275 242.766271 
L 460.564325 241.633929 
L 469.935375 240.728248 
L 479.306425 239.926717 
L 488.677475 239.41235 
L 498.048525 238.170749 
L 507.419575 236.567093 
L 516.790625 235.061026 
L 526.161675 233.727314 
L 535.532725 232.522177 
L 544.903775 231.332314 
L 554.274825 230.22802 
L 563.645875 228.647284 
L 573.016925 227.450128 
L 582.387975 226.774607 
L 591.759025 226.285825 
L 601.130075 224.372869 
L 610.501125 220.995975 
L 619.872175 218.160871 
L 629.243225 215.356895 
L 638.614275 213.126679 
L 647.985325 210.25817 
L 657.356375 207.40705 
L 666.727425 204.474648 
L 676.098475 201.999845 
L 685.469525 199.230908 
L 694.840575 196.929777 
L 704.211625 193.755841 
L 713.582675 191.058326 
L 722.953725 186.666247 
L 732.324775 183.548059 
L 741.695825 180.787074 
L 751.066875 178.355903 
L 760.437925 175.318156 
L 769.808975 172.251987 
L 779.180025 169.600368 
L 788.551075 166.058745 
L 797.922125 162.52298 
L 807.293175 158.208922 
L 816.664225 153.629151 
L 826.035275 150.286814 
L 835.406325 148.07924 
L 844.777375 145.461731 
L 854.148425 142.506532 
L 863.519475 140.520474 
L 872.890525 139.021471 
L 882.261575 136.916397 
L 891.632625 137.13467 
L 901.003675 139.185331 
L 910.374725 142.218905 
L 919.745775 148.163057 
L 929.116825 158.23141 
L 938.487875 173.186802 
L 947.858925 198.881157 
L 957.229975 236.390514 
L 966.601025 285.188573 
L 975.972075 333.20575 
" style="fill:none;stroke:#90ed7d;stroke-linecap:square;"/>
   </g>
   <g id="line2d_11">
    <path clip-path="url(#p3fc17069b9)" d="M 48.238125 278.459368 
L 57.609175 268.305994 
L 66.980225 262.937204 
L 76.351275 259.091785 
L 85.722325 257.182496 
L 95.093375 255.592631 
L 104.464425 253.804504 
L 113.835475 252.362528 
L 123.206525 251.497306 
L 132.577575 250.730744 
L 141.948625 249.822002 
L 151.319675 249.75731 
L 160.690725 249.626138 
L 170.061775 249.718212 
L 179.432825 248.714472 
L 188.803875 246.777732 
L 198.174925 246.094464 
L 207.545975 245.186234 
L 216.917025 244.317817 
L 226.288075 242.729136 
L 235.659125 241.270084 
L 245.030175 240.673081 
L 254.401225 240.122578 
L 263.772275 239.276223 
L 273.143325 238.931335 
L 282.514375 239.059912 
L 291.885425 238.216459 
L 301.256475 237.537691 
L 310.627525 237.089545 
L 319.998575 235.798976 
L 329.369625 235.33385 
L 338.740675 235.071174 
L 348.111725 234.670241 
L 357.482775 233.896696 
L 366.853825 233.345667 
L 376.224875 232.508421 
L 385.595925 231.157849 
L 394.966975 230.663875 
L 404.338025 230.062157 
L 413.709075 228.851555 
L 423.080125 226.903634 
L 432.451175 224.967695 
L 441.822225 224.031154 
L 451.193275 223.483635 
L 460.564325 222.546309 
L 469.935375 221.517782 
L 479.306425 219.655681 
L 488.677475 217.862136 
L 498.048525 216.844794 
L 507.419575 216.715608 
L 516.790625 215.164201 
L 526.161675 213.418232 
L 535.532725 212.075799 
L 544.903775 211.36368 
L 554.274825 209.524838 
L 563.645875 207.974686 
L 573.016925 206.373907 
L 582.387975 205.719404 
L 591.759025 204.654727 
L 601.130075 202.105551 
L 610.501125 199.284226 
L 619.872175 196.458545 
L 629.243225 194.140519 
L 638.614275 192.781234 
L 647.985325 191.191383 
L 657.356375 189.822417 
L 666.727425 187.904103 
L 676.098475 185.284971 
L 685.469525 183.549362 
L 694.840575 181.144977 
L 704.211625 179.803621 
L 713.582675 177.733045 
L 722.953725 174.909808 
L 732.324775 172.758578 
L 741.695825 170.463329 
L 751.066875 167.292047 
L 760.437925 164.532323 
L 769.808975 162.28903 
L 779.180025 158.986821 
L 788.551075 156.154282 
L 797.922125 152.493546 
L 807.293175 147.981776 
L 816.664225 143.732311 
L 826.035275 140.266893 
L 835.406325 137.480129 
L 844.777375 136.54479 
L 854.148425 135.098104 
L 863.519475 134.449669 
L 872.890525 135.902082 
L 882.261575 138.636805 
L 891.632625 140.407952 
L 901.003675 143.241942 
L 910.374725 148.008343 
L 919.745775 156.321783 
L 929.116825 168.317173 
L 938.487875 183.451956 
L 947.858925 207.714853 
L 957.229975 240.659679 
L 966.601025 286.189061 
L 975.972075 333.287019 
" style="fill:none;stroke:#f7a35c;stroke-linecap:square;"/>
   </g>
   <g id="line2d_12">
    <path clip-path="url(#p3fc17069b9)" d="M 48.238125 278.358173 
L 57.609175 266.932754 
L 66.980225 258.77847 
L 76.351275 256.262045 
L 85.722325 256.259846 
L 95.093375 254.763585 
L 104.464425 254.298331 
L 113.835475 253.12313 
L 123.206525 251.138282 
L 132.577575 249.864509 
L 141.948625 248.71393 
L 151.319675 247.796426 
L 160.690725 246.440883 
L 170.061775 246.030044 
L 179.432825 245.039394 
L 188.803875 243.519833 
L 198.174925 242.180399 
L 207.545975 241.611361 
L 216.917025 240.643948 
L 226.288075 239.943767 
L 235.659125 239.555605 
L 245.030175 239.368728 
L 254.401225 238.512241 
L 263.772275 237.73463 
L 273.143325 237.238338 
L 282.514375 235.565603 
L 291.885425 233.911052 
L 301.256475 232.683739 
L 310.627525 232.390525 
L 319.998575 231.925396 
L 329.369625 231.112455 
L 338.740675 229.985916 
L 348.111725 227.844266 
L 357.482775 226.562532 
L 366.853825 225.586165 
L 376.224875 223.572846 
L 385.595925 221.638144 
L 394.966975 220.198951 
L 404.338025 219.448357 
L 413.709075 217.937417 
L 423.080125 216.630607 
L 432.451175 216.575572 
L 441.822225 215.691216 
L 451.193275 214.103476 
L 460.564325 212.742044 
L 469.935375 210.6017 
L 479.306425 208.104301 
L 488.677475 205.625032 
L 498.048525 205.021777 
L 507.419575 203.494446 
L 516.790625 201.829659 
L 526.161675 200.306025 
L 535.532725 198.36001 
L 544.903775 195.845876 
L 554.274825 193.068722 
L 563.645875 190.783917 
L 573.016925 188.645931 
L 582.387975 185.776066 
L 591.759025 183.164082 
L 601.130075 180.368632 
L 610.501125 177.128749 
L 619.872175 172.585535 
L 629.243225 169.364488 
L 638.614275 166.596831 
L 647.985325 163.107903 
L 657.356375 158.716218 
L 666.727425 154.513831 
L 676.098475 151.114707 
L 685.469525 148.339048 
L 694.840575 144.727256 
L 704.211625 141.59544 
L 713.582675 138.026011 
L 722.953725 132.81923 
L 732.324775 129.502998 
L 741.695825 124.119106 
L 751.066875 118.794948 
L 760.437925 113.512393 
L 769.808975 107.429991 
L 779.180025 101.873826 
L 788.551075 96.243215 
L 797.922125 91.660014 
L 807.293175 87.137077 
L 816.664225 82.779694 
L 826.035275 77.25705 
L 835.406325 71.703301 
L 844.777375 67.68324 
L 854.148425 64.39632 
L 863.519475 60.218982 
L 872.890525 54.979114 
L 882.261575 50.32062 
L 891.632625 49.998724 
L 901.003675 53.48458 
L 910.374725 58.287256 
L 919.745775 65.790774 
L 929.116825 78.152727 
L 938.487875 100.431555 
L 947.858925 135.982913 
L 957.229975 187.335137 
L 966.601025 255.937725 
L 975.972075 324.43067 
" style="fill:none;stroke:#8085e9;stroke-linecap:square;"/>
   </g>
   <g id="line2d_13">
    <path clip-path="url(#p3fc17069b9)" d="M 48.238125 301.534335 
L 57.609175 293.7705 
L 66.980225 289.057955 
L 76.351275 286.822113 
L 85.722325 285.132946 
L 95.093375 283.450886 
L 104.464425 282.651571 
L 113.835475 281.053003 
L 123.206525 279.580258 
L 132.577575 278.070249 
L 141.948625 277.518356 
L 151.319675 277.171398 
L 160.690725 276.384888 
L 170.061775 276.55027 
L 179.432825 276.428112 
L 188.803875 276.078183 
L 198.174925 275.670293 
L 207.545975 274.408314 
L 216.917025 273.51286 
L 226.288075 273.196226 
L 235.659125 273.383156 
L 245.030175 273.396438 
L 254.401225 273.015592 
L 263.772275 272.796243 
L 273.143325 272.590534 
L 282.514375 271.152703 
L 291.885425 270.196419 
L 301.256475 269.595494 
L 310.627525 269.880778 
L 319.998575 269.236588 
L 329.369625 268.441632 
L 338.740675 268.55688 
L 348.111725 267.935188 
L 357.482775 267.445758 
L 366.853825 266.786158 
L 376.224875 266.140058 
L 385.595925 265.006253 
L 394.966975 263.77662 
L 404.338025 262.650776 
L 413.709075 262.076715 
L 423.080125 261.253087 
L 432.451175 260.155113 
L 441.822225 259.255577 
L 451.193275 258.065853 
L 460.564325 257.29144 
L 469.935375 256.358951 
L 479.306425 255.102936 
L 488.677475 253.995042 
L 498.048525 252.446559 
L 507.419575 250.732627 
L 516.790625 249.413553 
L 526.161675 248.972626 
L 535.532725 248.174034 
L 544.903775 246.992444 
L 554.274825 245.084953 
L 563.645875 243.19119 
L 573.016925 240.791712 
L 582.387975 239.105927 
L 591.759025 237.858443 
L 601.130075 236.794479 
L 610.501125 234.741361 
L 619.872175 232.581789 
L 629.243225 229.967249 
L 638.614275 227.640171 
L 647.985325 225.325318 
L 657.356375 222.766775 
L 666.727425 220.272382 
L 676.098475 218.666267 
L 685.469525 217.662786 
L 694.840575 215.319237 
L 704.211625 211.59853 
L 713.582675 208.253164 
L 722.953725 204.455714 
L 732.324775 200.864644 
L 741.695825 196.648933 
L 751.066875 193.408138 
L 760.437925 190.99252 
L 769.808975 187.558354 
L 779.180025 183.842705 
L 788.551075 180.58608 
L 797.922125 178.051306 
L 807.293175 175.647845 
L 816.664225 171.179606 
L 826.035275 166.296378 
L 835.406325 161.162616 
L 844.777375 157.533751 
L 854.148425 154.994557 
L 863.519475 152.973679 
L 872.890525 152.131912 
L 882.261575 151.621076 
L 891.632625 151.047659 
L 901.003675 151.806958 
L 910.374725 153.827897 
L 919.745775 159.410585 
L 929.116825 168.760317 
L 938.487875 185.545521 
L 947.858925 213.238844 
L 957.229975 249.770451 
L 966.601025 294.416063 
L 975.972075 336.435108 
" style="fill:none;stroke:#f15c80;stroke-linecap:square;"/>
   </g>
   <g id="line2d_14">
    <path clip-path="url(#p3fc17069b9)" d="M 48.238125 286.655 
L 57.609175 276.375908 
L 66.980225 271.901397 
L 76.351275 270.399516 
L 85.722325 270.810962 
L 95.093375 268.951742 
L 104.464425 266.515573 
L 113.835475 265.359665 
L 123.206525 264.692142 
L 132.577575 263.706602 
L 141.948625 263.189176 
L 151.319675 262.542163 
L 160.690725 261.705418 
L 170.061775 261.183849 
L 179.432825 259.975195 
L 188.803875 259.266032 
L 198.174925 258.119415 
L 207.545975 257.396828 
L 216.917025 256.414994 
L 226.288075 256.123398 
L 235.659125 255.149631 
L 245.030175 254.625415 
L 254.401225 254.144687 
L 263.772275 253.760428 
L 273.143325 253.500739 
L 282.514375 252.093842 
L 291.885425 250.665762 
L 301.256475 250.465838 
L 310.627525 250.668918 
L 319.998575 249.66059 
L 329.369625 248.463536 
L 338.740675 247.622358 
L 348.111725 247.426616 
L 357.482775 245.90309 
L 366.853825 245.100524 
L 376.224875 243.624639 
L 385.595925 242.410487 
L 394.966975 241.61237 
L 404.338025 240.734627 
L 413.709075 239.065692 
L 423.080125 237.329643 
L 432.451175 236.155965 
L 441.822225 234.717959 
L 451.193275 233.605806 
L 460.564325 232.383066 
L 469.935375 231.293662 
L 479.306425 230.028036 
L 488.677475 228.470674 
L 498.048525 227.631202 
L 507.419575 226.739059 
L 516.790625 225.772643 
L 526.161675 224.247122 
L 535.532725 222.830389 
L 544.903775 221.084531 
L 554.274825 217.946966 
L 563.645875 215.136653 
L 573.016925 213.880853 
L 582.387975 213.011003 
L 591.759025 211.44319 
L 601.130075 208.902814 
L 610.501125 206.381606 
L 619.872175 203.23571 
L 629.243225 200.470677 
L 638.614275 198.28541 
L 647.985325 195.888551 
L 657.356375 193.816959 
L 666.727425 190.589214 
L 676.098475 185.993574 
L 685.469525 181.039931 
L 694.840575 178.42169 
L 704.211625 175.58212 
L 713.582675 172.353166 
L 722.953725 168.636936 
L 732.324775 164.360461 
L 741.695825 159.526591 
L 751.066875 154.189312 
L 760.437925 150.567317 
L 769.808975 148.069873 
L 779.180025 144.575944 
L 788.551075 139.987192 
L 797.922125 133.927289 
L 807.293175 128.607884 
L 816.664225 124.160047 
L 826.035275 118.693566 
L 835.406325 113.927489 
L 844.777375 109.768344 
L 854.148425 106.67317 
L 863.519475 102.420921 
L 872.890525 99.788836 
L 882.261575 97.848441 
L 891.632625 98.615879 
L 901.003675 102.517702 
L 910.374725 106.533527 
L 919.745775 112.347352 
L 929.116825 122.170604 
L 938.487875 140.917633 
L 947.858925 171.01869 
L 957.229975 216.086225 
L 966.601025 274.753435 
L 975.972075 330.707077 
" style="fill:none;stroke:#e4d354;stroke-linecap:square;"/>
   </g>
   <g id="line2d_15">
    <path clip-path="url(#p3fc17069b9)" d="M 48.238125 282.541195 
L 57.609175 272.318463 
L 66.980225 266.310091 
L 76.351275 262.908269 
L 85.722325 261.087191 
L 95.093375 259.478001 
L 104.464425 257.603551 
L 113.835475 256.311994 
L 123.206525 255.779825 
L 132.577575 254.37375 
L 141.948625 253.915348 
L 151.319675 253.560654 
L 160.690725 252.23983 
L 170.061775 251.170047 
L 179.432825 249.871893 
L 188.803875 248.64942 
L 198.174925 247.939747 
L 207.545975 247.22144 
L 216.917025 246.185825 
L 226.288075 245.196912 
L 235.659125 244.289892 
L 245.030175 243.761632 
L 254.401225 242.351693 
L 263.772275 241.884427 
L 273.143325 241.606961 
L 282.514375 241.106108 
L 291.885425 240.617749 
L 301.256475 239.946315 
L 310.627525 238.385165 
L 319.998575 237.673541 
L 329.369625 236.146857 
L 338.740675 234.705421 
L 348.111725 233.33825 
L 357.482775 232.354993 
L 366.853825 231.211497 
L 376.224875 229.669247 
L 385.595925 228.541968 
L 394.966975 227.25951 
L 404.338025 224.980563 
L 413.709075 223.046167 
L 423.080125 222.002889 
L 432.451175 221.539876 
L 441.822225 220.516545 
L 451.193275 218.522419 
L 460.564325 216.090136 
L 469.935375 214.531379 
L 479.306425 213.359363 
L 488.677475 210.398023 
L 498.048525 208.462518 
L 507.419575 206.400813 
L 516.790625 204.339384 
L 526.161675 202.200949 
L 535.532725 200.38603 
L 544.903775 198.224345 
L 554.274825 196.833867 
L 563.645875 194.901857 
L 573.016925 192.59314 
L 582.387975 190.264827 
L 591.759025 187.988992 
L 601.130075 184.643991 
L 610.501125 181.430511 
L 619.872175 178.733999 
L 629.243225 175.702862 
L 638.614275 172.605929 
L 647.985325 171.384634 
L 657.356375 168.59347 
L 666.727425 165.698545 
L 676.098475 162.06089 
L 685.469525 158.566105 
L 694.840575 154.286427 
L 704.211625 149.393061 
L 713.582675 144.301372 
L 722.953725 138.544411 
L 732.324775 132.913443 
L 741.695825 128.268221 
L 751.066875 123.254451 
L 760.437925 119.357838 
L 769.808975 114.639608 
L 779.180025 109.348698 
L 788.551075 103.404715 
L 797.922125 98.069178 
L 807.293175 93.426938 
L 816.664225 87.867235 
L 826.035275 82.512458 
L 835.406325 75.12253 
L 844.777375 68.632338 
L 854.148425 63.387698 
L 863.519475 58.324654 
L 872.890525 54.647792 
L 882.261575 53.791361 
L 891.632625 55.144757 
L 901.003675 57.919194 
L 910.374725 62.333335 
L 919.745775 69.820999 
L 929.116825 82.369114 
L 938.487875 103.849139 
L 947.858925 139.714822 
L 957.229975 191.36069 
L 966.601025 259.68812 
L 975.972075 326.501118 
" style="fill:none;stroke:#2b908f;stroke-linecap:square;"/>
   </g>
   <g id="line2d_16">
    <path clip-path="url(#p3fc17069b9)" d="M 48.238125 316.017266 
L 57.609175 309.618998 
L 66.980225 306.880969 
L 76.351275 305.936919 
L 85.722325 304.787864 
L 95.093375 303.491768 
L 104.464425 302.136764 
L 113.835475 300.990644 
L 123.206525 300.581839 
L 132.577575 300.137011 
L 141.948625 300.508565 
L 151.319675 300.041047 
L 160.690725 299.792224 
L 170.061775 299.035377 
L 179.432825 298.185067 
L 188.803875 297.559343 
L 198.174925 296.753075 
L 207.545975 296.607125 
L 216.917025 296.716014 
L 226.288075 295.645619 
L 235.659125 295.09463 
L 245.030175 294.63209 
L 254.401225 294.98198 
L 263.772275 295.275095 
L 273.143325 295.649899 
L 282.514375 295.017861 
L 291.885425 293.976271 
L 301.256475 292.90102 
L 310.627525 292.362854 
L 319.998575 291.613232 
L 329.369625 291.261055 
L 338.740675 291.262947 
L 348.111725 290.955585 
L 357.482775 290.517429 
L 366.853825 290.312956 
L 376.224875 289.948793 
L 385.595925 289.905812 
L 394.966975 289.744621 
L 404.338025 288.675792 
L 413.709075 287.590604 
L 423.080125 286.361599 
L 432.451175 285.477253 
L 441.822225 284.808145 
L 451.193275 284.398893 
L 460.564325 283.708127 
L 469.935375 282.762705 
L 479.306425 282.17468 
L 488.677475 281.520703 
L 498.048525 281.067578 
L 507.419575 280.051926 
L 516.790625 279.130608 
L 526.161675 278.184376 
L 535.532725 276.554342 
L 544.903775 275.208385 
L 554.274825 273.64682 
L 563.645875 272.235033 
L 573.016925 270.482163 
L 582.387975 268.841894 
L 591.759025 267.591569 
L 601.130075 266.629981 
L 610.501125 265.152378 
L 619.872175 263.441497 
L 629.243225 261.835493 
L 638.614275 259.893644 
L 647.985325 257.985218 
L 657.356375 255.91791 
L 666.727425 253.257144 
L 676.098475 250.818872 
L 685.469525 248.951895 
L 694.840575 247.172332 
L 704.211625 245.540525 
L 713.582675 243.050176 
L 722.953725 240.411155 
L 732.324775 238.212147 
L 741.695825 235.913134 
L 751.066875 233.380735 
L 760.437925 230.158866 
L 769.808975 225.8803 
L 779.180025 221.667936 
L 788.551075 217.640191 
L 797.922125 213.613134 
L 807.293175 209.798341 
L 816.664225 206.221978 
L 826.035275 203.358468 
L 835.406325 199.936581 
L 844.777375 196.083567 
L 854.148425 191.995883 
L 863.519475 189.866157 
L 872.890525 189.392637 
L 882.261575 189.309669 
L 891.632625 189.836816 
L 901.003675 190.370602 
L 910.374725 190.276831 
L 919.745775 193.871478 
L 929.116825 202.291683 
L 938.487875 216.114803 
L 947.858925 237.532569 
L 957.229975 265.957462 
L 966.601025 303.1256 
L 975.972075 338.940643 
" style="fill:none;stroke:#f45b5b;stroke-linecap:square;"/>
   </g>
   <g id="line2d_17">
    <path clip-path="url(#p3fc17069b9)" d="M 48.238125 297.883883 
L 57.609175 290.100447 
L 66.980225 285.741464 
L 76.351275 281.950979 
L 85.722325 280.262228 
L 95.093375 279.594977 
L 104.464425 278.098437 
L 113.835475 277.286878 
L 123.206525 276.93627 
L 132.577575 277.548095 
L 141.948625 277.344791 
L 151.319675 277.135151 
L 160.690725 277.129107 
L 170.061775 276.799122 
L 179.432825 276.415503 
L 188.803875 274.929034 
L 198.174925 273.656353 
L 207.545975 272.89703 
L 216.917025 272.302239 
L 226.288075 271.97769 
L 235.659125 272.352581 
L 245.030175 271.805974 
L 254.401225 271.108366 
L 263.772275 270.550969 
L 273.143325 270.3984 
L 282.514375 270.154808 
L 291.885425 269.907756 
L 301.256475 268.924733 
L 310.627525 267.996535 
L 319.998575 267.473523 
L 329.369625 267.035239 
L 338.740675 266.897351 
L 348.111725 266.235815 
L 357.482775 265.33931 
L 366.853825 264.244666 
L 376.224875 263.384476 
L 385.595925 263.085218 
L 394.966975 263.190709 
L 404.338025 262.428328 
L 413.709075 261.338677 
L 423.080125 259.743297 
L 432.451175 258.802401 
L 441.822225 258.572078 
L 451.193275 258.418234 
L 460.564325 258.211827 
L 469.935375 256.389088 
L 479.306425 255.122742 
L 488.677475 254.026714 
L 498.048525 252.099541 
L 507.419575 250.482511 
L 516.790625 249.638729 
L 526.161675 248.871056 
L 535.532725 247.728576 
L 544.903775 246.574048 
L 554.274825 245.773265 
L 563.645875 244.235282 
L 573.016925 242.640294 
L 582.387975 240.918935 
L 591.759025 238.711125 
L 601.130075 236.252471 
L 610.501125 234.550086 
L 619.872175 233.513831 
L 629.243225 232.065771 
L 638.614275 230.734039 
L 647.985325 228.7946 
L 657.356375 226.781718 
L 666.727425 224.942515 
L 676.098475 222.168396 
L 685.469525 219.661293 
L 694.840575 217.335832 
L 704.211625 215.224072 
L 713.582675 213.076442 
L 722.953725 211.09397 
L 732.324775 208.998256 
L 741.695825 206.853421 
L 751.066875 204.800643 
L 760.437925 202.139448 
L 769.808975 199.507724 
L 779.180025 197.715966 
L 788.551075 195.155037 
L 797.922125 191.763795 
L 807.293175 189.356471 
L 816.664225 186.150596 
L 826.035275 183.766718 
L 835.406325 181.32943 
L 844.777375 179.244358 
L 854.148425 177.958154 
L 863.519475 176.939751 
L 872.890525 177.281974 
L 882.261575 178.599999 
L 891.632625 181.396658 
L 901.003675 184.652884 
L 910.374725 187.956059 
L 919.745775 194.010784 
L 929.116825 201.970545 
L 938.487875 213.886321 
L 947.858925 232.503684 
L 957.229975 260.93284 
L 966.601025 300.107737 
L 975.972075 337.892497 
" style="fill:none;stroke:#91e8e1;stroke-linecap:square;"/>
   </g>
   <g id="line2d_18">
    <path clip-path="url(#p3fc17069b9)" d="M 48.238125 271.139544 
L 57.609175 257.544784 
L 66.980225 250.702132 
L 76.351275 247.738442 
L 85.722325 245.258951 
L 95.093375 243.4029 
L 104.464425 242.084333 
L 113.835475 241.458811 
L 123.206525 241.378549 
L 132.577575 240.435033 
L 141.948625 240.148975 
L 151.319675 240.462285 
L 160.690725 240.644152 
L 170.061775 240.532422 
L 179.432825 240.823428 
L 188.803875 239.818692 
L 198.174925 238.060351 
L 207.545975 236.85145 
L 216.917025 236.278826 
L 226.288075 234.923157 
L 235.659125 234.536111 
L 245.030175 233.901058 
L 254.401225 233.700748 
L 263.772275 233.106108 
L 273.143325 233.273536 
L 282.514375 233.097005 
L 291.885425 231.829335 
L 301.256475 231.523559 
L 310.627525 232.764248 
L 319.998575 232.829615 
L 329.369625 232.942441 
L 338.740675 233.209222 
L 348.111725 231.800821 
L 357.482775 230.724887 
L 366.853825 230.609595 
L 376.224875 230.39249 
L 385.595925 229.322013 
L 394.966975 228.047993 
L 404.338025 227.44194 
L 413.709075 227.184494 
L 423.080125 226.999926 
L 432.451175 226.747996 
L 441.822225 225.199865 
L 451.193275 224.087266 
L 460.564325 223.689406 
L 469.935375 224.470135 
L 479.306425 224.363606 
L 488.677475 222.605347 
L 498.048525 221.15484 
L 507.419575 219.657816 
L 516.790625 218.213366 
L 526.161675 216.992176 
L 535.532725 216.081678 
L 544.903775 215.387493 
L 554.274825 214.863475 
L 563.645875 213.465408 
L 573.016925 211.495009 
L 582.387975 209.456306 
L 591.759025 208.148156 
L 601.130075 206.834613 
L 610.501125 205.139173 
L 619.872175 204.118284 
L 629.243225 203.019326 
L 638.614275 201.184869 
L 647.985325 198.439626 
L 657.356375 195.463436 
L 666.727425 193.756368 
L 676.098475 192.495949 
L 685.469525 191.532719 
L 694.840575 189.907383 
L 704.211625 186.840948 
L 713.582675 184.502845 
L 722.953725 182.173873 
L 732.324775 180.661087 
L 741.695825 179.264476 
L 751.066875 177.16854 
L 760.437925 174.69034 
L 769.808975 173.029116 
L 779.180025 169.731875 
L 788.551075 166.736647 
L 797.922125 164.752403 
L 807.293175 163.347633 
L 816.664225 160.727635 
L 826.035275 157.754626 
L 835.406325 155.316965 
L 844.777375 152.963955 
L 854.148425 150.541091 
L 863.519475 149.705449 
L 872.890525 150.555044 
L 882.261575 151.591752 
L 891.632625 154.030185 
L 901.003675 157.581551 
L 910.374725 162.108306 
L 919.745775 168.721899 
L 929.116825 180.97221 
L 938.487875 198.003819 
L 947.858925 221.919943 
L 957.229975 254.350041 
L 966.601025 296.519904 
L 975.972075 336.753785 
" style="fill:none;stroke:#7cb5ec;stroke-linecap:square;"/>
   </g>
   <g id="line2d_19">
    <path clip-path="url(#p3fc17069b9)" d="M 48.238125 287.925674 
L 57.609175 279.531682 
L 66.980225 274.820429 
L 76.351275 272.9785 
L 85.722325 272.915732 
L 95.093375 271.225861 
L 104.464425 267.972013 
L 113.835475 265.162123 
L 123.206525 264.729941 
L 132.577575 263.970531 
L 141.948625 263.660187 
L 151.319675 263.203186 
L 160.690725 262.832118 
L 170.061775 262.597198 
L 179.432825 261.91752 
L 188.803875 261.259584 
L 198.174925 260.703371 
L 207.545975 260.332263 
L 216.917025 259.709537 
L 226.288075 258.772433 
L 235.659125 258.25983 
L 245.030175 257.188189 
L 254.401225 256.753069 
L 263.772275 256.745847 
L 273.143325 256.29218 
L 282.514375 256.064947 
L 291.885425 256.048423 
L 301.256475 256.149576 
L 310.627525 255.993508 
L 319.998575 254.360404 
L 329.369625 253.873629 
L 338.740675 253.300676 
L 348.111725 252.506248 
L 357.482775 251.089768 
L 366.853825 249.818555 
L 376.224875 248.644219 
L 385.595925 248.095493 
L 394.966975 247.913887 
L 404.338025 247.56898 
L 413.709075 246.664699 
L 423.080125 246.3631 
L 432.451175 245.137433 
L 441.822225 243.630646 
L 451.193275 242.646407 
L 460.564325 242.294976 
L 469.935375 241.745956 
L 479.306425 241.023194 
L 488.677475 239.324384 
L 498.048525 238.48149 
L 507.419575 237.605483 
L 516.790625 236.67162 
L 526.161675 235.208618 
L 535.532725 233.062729 
L 544.903775 230.991589 
L 554.274825 229.142274 
L 563.645875 227.166191 
L 573.016925 226.048985 
L 582.387975 224.864628 
L 591.759025 222.390536 
L 601.130075 220.119801 
L 610.501125 218.920971 
L 619.872175 217.672717 
L 629.243225 215.560594 
L 638.614275 213.479132 
L 647.985325 211.357106 
L 657.356375 209.093189 
L 666.727425 206.675355 
L 676.098475 204.664117 
L 685.469525 202.599255 
L 694.840575 199.833562 
L 704.211625 196.9106 
L 713.582675 194.076235 
L 722.953725 191.091358 
L 732.324775 187.852877 
L 741.695825 184.606257 
L 751.066875 181.457911 
L 760.437925 177.960099 
L 769.808975 174.940108 
L 779.180025 171.272065 
L 788.551075 167.998758 
L 797.922125 166.017805 
L 807.293175 163.649108 
L 816.664225 161.093357 
L 826.035275 157.493555 
L 835.406325 154.769523 
L 844.777375 152.238937 
L 854.148425 150.89081 
L 863.519475 149.449915 
L 872.890525 149.429185 
L 882.261575 149.722829 
L 891.632625 150.546201 
L 901.003675 153.462887 
L 910.374725 157.082665 
L 919.745775 163.910501 
L 929.116825 174.116004 
L 938.487875 189.574666 
L 947.858925 211.753417 
L 957.229975 244.169627 
L 966.601025 289.145262 
L 975.972075 334.707063 
" style="fill:none;stroke:#434348;stroke-linecap:square;"/>
   </g>
   <g id="line2d_20">
    <path clip-path="url(#p3fc17069b9)" d="M 48.238125 327.678125 
L 57.609175 323.361397 
L 66.980225 320.050684 
L 76.351275 318.202312 
L 85.722325 318.257061 
L 95.093375 318.640377 
L 104.464425 319.01866 
L 113.835475 319.279476 
L 123.206525 319.304486 
L 132.577575 319.478829 
L 141.948625 319.235518 
L 151.319675 319.297335 
L 160.690725 318.727228 
L 170.061775 318.558875 
L 179.432825 318.664435 
L 188.803875 318.708566 
L 198.174925 318.830008 
L 207.545975 318.624675 
L 216.917025 317.942612 
L 226.288075 317.596597 
L 235.659125 317.566862 
L 245.030175 317.615584 
L 254.401225 317.515716 
L 263.772275 317.494039 
L 273.143325 317.205473 
L 282.514375 316.981677 
L 291.885425 316.461176 
L 301.256475 316.438831 
L 310.627525 316.76415 
L 319.998575 316.911382 
L 329.369625 316.605104 
L 338.740675 316.109762 
L 348.111725 316.088718 
L 357.482775 316.168956 
L 366.853825 315.583233 
L 376.224875 315.158683 
L 385.595925 315.097792 
L 394.966975 315.220789 
L 404.338025 315.371866 
L 413.709075 315.534545 
L 423.080125 315.588984 
L 432.451175 315.116969 
L 441.822225 314.279241 
L 451.193275 313.276024 
L 460.564325 312.73277 
L 469.935375 312.282957 
L 479.306425 311.952077 
L 488.677475 311.479712 
L 498.048525 311.415334 
L 507.419575 311.222359 
L 516.790625 310.520229 
L 526.161675 309.659226 
L 535.532725 308.840978 
L 544.903775 308.669482 
L 554.274825 308.053094 
L 563.645875 307.387341 
L 573.016925 306.977717 
L 582.387975 306.638694 
L 591.759025 306.225474 
L 601.130075 305.409608 
L 610.501125 304.840173 
L 619.872175 304.108427 
L 629.243225 303.432908 
L 638.614275 302.258733 
L 647.985325 301.360796 
L 657.356375 300.781044 
L 666.727425 299.955456 
L 676.098475 298.678564 
L 685.469525 297.585139 
L 694.840575 296.323406 
L 704.211625 295.5059 
L 713.582675 294.764434 
L 722.953725 293.682244 
L 732.324775 292.557278 
L 741.695825 291.238567 
L 751.066875 289.160869 
L 760.437925 287.179289 
L 769.808975 285.968528 
L 779.180025 284.295909 
L 788.551075 282.362088 
L 797.922125 280.852157 
L 807.293175 280.063193 
L 816.664225 277.790562 
L 826.035275 275.331701 
L 835.406325 272.315442 
L 844.777375 269.48876 
L 854.148425 266.881595 
L 863.519475 265.914472 
L 872.890525 266.135819 
L 882.261575 266.996857 
L 891.632625 267.21141 
L 901.003675 266.8053 
L 910.374725 267.66814 
L 919.745775 269.289685 
L 929.116825 272.035701 
L 938.487875 278.437422 
L 947.858925 289.845268 
L 957.229975 305.599658 
L 966.601025 324.869321 
L 975.972075 344.855207 
" style="fill:none;stroke:#90ed7d;stroke-linecap:square;"/>
   </g>
   <g id="line2d_21">
    <path clip-path="url(#p3fc17069b9)" d="M 48.238125 311.548898 
L 57.609175 304.433074 
L 66.980225 301.198575 
L 76.351275 298.750155 
L 85.722325 297.562073 
L 95.093375 297.258396 
L 104.464425 296.722789 
L 113.835475 295.94988 
L 123.206525 295.464557 
L 132.577575 294.758392 
L 141.948625 294.863845 
L 151.319675 295.069067 
L 160.690725 294.81402 
L 170.061775 294.637674 
L 179.432825 294.832192 
L 188.803875 294.624475 
L 198.174925 294.478101 
L 207.545975 294.17935 
L 216.917025 293.872524 
L 226.288075 294.022849 
L 235.659125 293.639809 
L 245.030175 293.30474 
L 254.401225 293.339455 
L 263.772275 293.078721 
L 273.143325 292.501904 
L 282.514375 291.707777 
L 291.885425 291.416706 
L 301.256475 290.868338 
L 310.627525 290.725078 
L 319.998575 290.468621 
L 329.369625 290.626696 
L 338.740675 290.392308 
L 348.111725 289.818781 
L 357.482775 289.143505 
L 366.853825 288.378093 
L 376.224875 287.727845 
L 385.595925 286.891953 
L 394.966975 286.992167 
L 404.338025 286.499036 
L 413.709075 286.170057 
L 423.080125 285.083351 
L 432.451175 284.418837 
L 441.822225 283.883632 
L 451.193275 282.938995 
L 460.564325 282.511977 
L 469.935375 281.36161 
L 479.306425 280.325455 
L 488.677475 279.36783 
L 498.048525 278.663074 
L 507.419575 277.348413 
L 516.790625 275.992928 
L 526.161675 275.147795 
L 535.532725 274.679068 
L 544.903775 273.948984 
L 554.274825 273.238811 
L 563.645875 271.693882 
L 573.016925 270.008249 
L 582.387975 268.990799 
L 591.759025 268.266636 
L 601.130075 267.116103 
L 610.501125 265.516517 
L 619.872175 263.967285 
L 629.243225 262.331023 
L 638.614275 261.278862 
L 647.985325 260.316521 
L 657.356375 258.786712 
L 666.727425 257.846963 
L 676.098475 256.31561 
L 685.469525 254.217371 
L 694.840575 252.365302 
L 704.211625 251.42532 
L 713.582675 250.322602 
L 722.953725 247.791005 
L 732.324775 245.444837 
L 741.695825 244.174566 
L 751.066875 242.314698 
L 760.437925 240.602804 
L 769.808975 238.920681 
L 779.180025 236.689726 
L 788.551075 234.275843 
L 797.922125 232.062078 
L 807.293175 229.290616 
L 816.664225 225.964204 
L 826.035275 223.086193 
L 835.406325 219.273036 
L 844.777375 215.965451 
L 854.148425 212.949096 
L 863.519475 210.657445 
L 872.890525 210.074473 
L 882.261575 209.057308 
L 891.632625 209.251808 
L 901.003675 209.741045 
L 910.374725 211.129702 
L 919.745775 214.402423 
L 929.116825 220.359624 
L 938.487875 231.355213 
L 947.858925 250.681155 
L 957.229975 277.43366 
L 966.601025 309.300294 
L 975.972075 340.399273 
" style="fill:none;stroke:#f7a35c;stroke-linecap:square;"/>
   </g>
   <g id="line2d_22">
    <path clip-path="url(#p3fc17069b9)" d="M 48.238125 320.823131 
L 57.609175 315.952665 
L 66.980225 312.81557 
L 76.351275 312.153312 
L 85.722325 311.553105 
L 95.093375 310.700388 
L 104.464425 309.674322 
L 113.835475 309.011576 
L 123.206525 308.261065 
L 132.577575 307.811021 
L 141.948625 307.73338 
L 151.319675 307.537476 
L 160.690725 307.228044 
L 170.061775 307.29782 
L 179.432825 307.339797 
L 188.803875 307.450344 
L 198.174925 307.56813 
L 207.545975 307.321125 
L 216.917025 306.863908 
L 226.288075 306.737164 
L 235.659125 307.159096 
L 245.030175 307.071411 
L 254.401225 306.82597 
L 263.772275 306.214647 
L 273.143325 305.456027 
L 282.514375 304.996759 
L 291.885425 304.432652 
L 301.256475 304.266315 
L 310.627525 304.055068 
L 319.998575 303.75877 
L 329.369625 303.369059 
L 338.740675 302.773576 
L 348.111725 301.85885 
L 357.482775 300.730443 
L 366.853825 300.077468 
L 376.224875 299.486599 
L 385.595925 299.303098 
L 394.966975 299.193201 
L 404.338025 299.351163 
L 413.709075 298.653655 
L 423.080125 297.330056 
L 432.451175 296.574732 
L 441.822225 296.461832 
L 451.193275 296.318853 
L 460.564325 296.335957 
L 469.935375 296.031957 
L 479.306425 295.166877 
L 488.677475 294.914998 
L 498.048525 294.130405 
L 507.419575 293.287265 
L 516.790625 292.27099 
L 526.161675 290.66526 
L 535.532725 290.072639 
L 544.903775 289.205751 
L 554.274825 288.438819 
L 563.645875 286.808547 
L 573.016925 285.001142 
L 582.387975 283.008966 
L 591.759025 281.858364 
L 601.130075 280.82204 
L 610.501125 279.971248 
L 619.872175 279.24393 
L 629.243225 278.580009 
L 638.614275 277.727386 
L 647.985325 276.642756 
L 657.356375 275.124198 
L 666.727425 273.827357 
L 676.098475 272.146741 
L 685.469525 270.548316 
L 694.840575 268.109136 
L 704.211625 266.43359 
L 713.582675 264.86837 
L 722.953725 262.553471 
L 732.324775 261.037669 
L 741.695825 259.753582 
L 751.066875 257.34991 
L 760.437925 255.925516 
L 769.808975 254.23374 
L 779.180025 252.770425 
L 788.551075 250.688395 
L 797.922125 249.545229 
L 807.293175 248.809433 
L 816.664225 247.073851 
L 826.035275 244.882362 
L 835.406325 242.713017 
L 844.777375 240.633297 
L 854.148425 238.086232 
L 863.519475 236.44647 
L 872.890525 235.372675 
L 882.261575 234.619911 
L 891.632625 235.62662 
L 901.003675 237.259211 
L 910.374725 237.940662 
L 919.745775 239.542203 
L 929.116825 245.364335 
L 938.487875 256.094693 
L 947.858925 270.238962 
L 957.229975 289.996931 
L 966.601025 317.096482 
L 975.972075 342.992993 
" style="fill:none;stroke:#8085e9;stroke-linecap:square;"/>
   </g>
   <g id="line2d_23">
    <path clip-path="url(#p3fc17069b9)" d="M 48.238125 302.709418 
L 57.609175 296.018283 
L 66.980225 291.714503 
L 76.351275 289.248889 
L 85.722325 287.385149 
L 95.093375 286.075499 
L 104.464425 285.814182 
L 113.835475 285.360776 
L 123.206525 284.254347 
L 132.577575 283.120309 
L 141.948625 281.735527 
L 151.319675 280.247122 
L 160.690725 279.634919 
L 170.061775 279.954991 
L 179.432825 279.87397 
L 188.803875 279.404007 
L 198.174925 279.088176 
L 207.545975 278.609809 
L 216.917025 277.881013 
L 226.288075 276.986084 
L 235.659125 276.495163 
L 245.030175 275.796905 
L 254.401225 275.104636 
L 263.772275 274.092436 
L 273.143325 273.364432 
L 282.514375 273.393986 
L 291.885425 272.888668 
L 301.256475 272.425233 
L 310.627525 271.822925 
L 319.998575 271.018892 
L 329.369625 271.168431 
L 338.740675 269.869567 
L 348.111725 268.151063 
L 357.482775 267.618313 
L 366.853825 267.867669 
L 376.224875 267.524434 
L 385.595925 267.310216 
L 394.966975 266.52347 
L 404.338025 265.851714 
L 413.709075 264.040517 
L 423.080125 261.536262 
L 432.451175 259.738703 
L 441.822225 258.927779 
L 451.193275 258.639856 
L 460.564325 258.105112 
L 469.935375 257.776866 
L 479.306425 257.150445 
L 488.677475 256.030312 
L 498.048525 254.220415 
L 507.419575 252.22198 
L 516.790625 250.899947 
L 526.161675 249.547671 
L 535.532725 248.719107 
L 544.903775 247.449118 
L 554.274825 246.151532 
L 563.645875 244.035724 
L 573.016925 242.114475 
L 582.387975 239.962265 
L 591.759025 237.657853 
L 601.130075 235.748273 
L 610.501125 234.232272 
L 619.872175 233.319046 
L 629.243225 232.060596 
L 638.614275 229.140858 
L 647.985325 226.929259 
L 657.356375 225.265583 
L 666.727425 222.808595 
L 676.098475 221.162238 
L 685.469525 218.835791 
L 694.840575 215.900807 
L 704.211625 212.154679 
L 713.582675 208.906967 
L 722.953725 205.528444 
L 732.324775 202.38455 
L 741.695825 200.448264 
L 751.066875 198.750759 
L 760.437925 195.71193 
L 769.808975 192.344785 
L 779.180025 189.327457 
L 788.551075 184.714832 
L 797.922125 180.492557 
L 807.293175 177.179184 
L 816.664225 173.520379 
L 826.035275 169.365721 
L 835.406325 167.336715 
L 844.777375 166.48125 
L 854.148425 165.522435 
L 863.519475 163.553935 
L 872.890525 162.483235 
L 882.261575 162.546195 
L 891.632625 162.267519 
L 901.003675 163.560677 
L 910.374725 166.447307 
L 919.745775 171.641982 
L 929.116825 180.450195 
L 938.487875 194.405217 
L 947.858925 218.105812 
L 957.229975 253.460573 
L 966.601025 296.191386 
L 975.972075 336.693185 
" style="fill:none;stroke:#f15c80;stroke-linecap:square;"/>
   </g>
   <g id="line2d_24">
    <path clip-path="url(#p3fc17069b9)" d="M 48.238125 298.161842 
L 57.609175 289.084155 
L 66.980225 283.093373 
L 76.351275 280.653198 
L 85.722325 278.533329 
L 95.093375 276.801267 
L 104.464425 276.189267 
L 113.835475 275.390989 
L 123.206525 274.345778 
L 132.577575 274.391232 
L 141.948625 274.282482 
L 151.319675 274.260728 
L 160.690725 273.911731 
L 170.061775 274.354155 
L 179.432825 274.887221 
L 188.803875 274.350171 
L 198.174925 273.882307 
L 207.545975 273.106627 
L 216.917025 272.355265 
L 226.288075 271.597816 
L 235.659125 271.073686 
L 245.030175 270.970802 
L 254.401225 270.540733 
L 263.772275 270.584952 
L 273.143325 271.070469 
L 282.514375 270.773605 
L 291.885425 270.19816 
L 301.256475 270.140397 
L 310.627525 269.290709 
L 319.998575 267.819786 
L 329.369625 267.103659 
L 338.740675 265.678121 
L 348.111725 264.47731 
L 357.482775 264.313279 
L 366.853825 264.872347 
L 376.224875 264.086823 
L 385.595925 263.414372 
L 394.966975 262.83485 
L 404.338025 262.106956 
L 413.709075 261.364125 
L 423.080125 260.324571 
L 432.451175 258.858163 
L 441.822225 257.37782 
L 451.193275 256.408591 
L 460.564325 255.648287 
L 469.935375 255.053421 
L 479.306425 254.804973 
L 488.677475 254.577309 
L 498.048525 253.94759 
L 507.419575 252.558396 
L 516.790625 251.138067 
L 526.161675 249.823216 
L 535.532725 248.099937 
L 544.903775 246.91038 
L 554.274825 245.432531 
L 563.645875 244.01905 
L 573.016925 242.118364 
L 582.387975 241.065748 
L 591.759025 239.294481 
L 601.130075 237.989406 
L 610.501125 235.99028 
L 619.872175 233.737676 
L 629.243225 231.766177 
L 638.614275 229.592764 
L 647.985325 227.217312 
L 657.356375 225.716878 
L 666.727425 224.202037 
L 676.098475 221.636402 
L 685.469525 219.261542 
L 694.840575 216.415558 
L 704.211625 213.702146 
L 713.582675 211.012108 
L 722.953725 207.529577 
L 732.324775 205.364708 
L 741.695825 202.096518 
L 751.066875 198.049507 
L 760.437925 195.550028 
L 769.808975 192.916284 
L 779.180025 190.653915 
L 788.551075 186.208666 
L 797.922125 182.427068 
L 807.293175 179.366186 
L 816.664225 175.862153 
L 826.035275 172.629857 
L 835.406325 169.225435 
L 844.777375 166.35997 
L 854.148425 165.256037 
L 863.519475 165.275936 
L 872.890525 164.012171 
L 882.261575 164.336708 
L 891.632625 165.839992 
L 901.003675 168.08843 
L 910.374725 170.662889 
L 919.745775 173.180022 
L 929.116825 179.457658 
L 938.487875 194.095267 
L 947.858925 218.333995 
L 957.229975 251.08181 
L 966.601025 293.810789 
L 975.972075 335.918353 
" style="fill:none;stroke:#e4d354;stroke-linecap:square;"/>
   </g>
   <g id="line2d_25">
    <path clip-path="url(#p3fc17069b9)" d="M 48.238125 291.661169 
L 57.609175 282.210697 
L 66.980225 276.537844 
L 76.351275 272.978391 
L 85.722325 271.143013 
L 95.093375 269.364924 
L 104.464425 267.833473 
L 113.835475 266.460754 
L 123.206525 265.971447 
L 132.577575 265.615992 
L 141.948625 265.195091 
L 151.319675 264.609065 
L 160.690725 264.168061 
L 170.061775 263.694395 
L 179.432825 262.801667 
L 188.803875 261.944884 
L 198.174925 262.215775 
L 207.545975 262.846807 
L 216.917025 261.899138 
L 226.288075 261.200976 
L 235.659125 260.771486 
L 245.030175 260.913636 
L 254.401225 260.823972 
L 263.772275 259.982142 
L 273.143325 258.745781 
L 282.514375 257.676356 
L 291.885425 256.570993 
L 301.256475 255.012201 
L 310.627525 254.131192 
L 319.998575 254.055219 
L 329.369625 254.139804 
L 338.740675 253.704232 
L 348.111725 252.698869 
L 357.482775 251.417725 
L 366.853825 250.591512 
L 376.224875 249.636362 
L 385.595925 247.745372 
L 394.966975 246.789082 
L 404.338025 245.949585 
L 413.709075 244.945135 
L 423.080125 243.343517 
L 432.451175 241.445006 
L 441.822225 240.448043 
L 451.193275 240.084144 
L 460.564325 239.29698 
L 469.935375 237.85873 
L 479.306425 236.439682 
L 488.677475 235.084437 
L 498.048525 234.367893 
L 507.419575 233.067015 
L 516.790625 231.409221 
L 526.161675 229.440564 
L 535.532725 227.912301 
L 544.903775 226.69206 
L 554.274825 224.661614 
L 563.645875 223.140598 
L 573.016925 221.232743 
L 582.387975 219.123451 
L 591.759025 217.246953 
L 601.130075 215.0978 
L 610.501125 213.391045 
L 619.872175 211.631112 
L 629.243225 210.276526 
L 638.614275 208.055609 
L 647.985325 206.650068 
L 657.356375 205.559456 
L 666.727425 203.772669 
L 676.098475 200.103298 
L 685.469525 196.565623 
L 694.840575 193.397033 
L 704.211625 190.780674 
L 713.582675 187.909809 
L 722.953725 184.637291 
L 732.324775 180.898914 
L 741.695825 177.487737 
L 751.066875 174.239717 
L 760.437925 171.14459 
L 769.808975 168.308497 
L 779.180025 166.519665 
L 788.551075 163.594852 
L 797.922125 160.538506 
L 807.293175 157.359608 
L 816.664225 153.764276 
L 826.035275 148.55812 
L 835.406325 144.561053 
L 844.777375 141.935126 
L 854.148425 140.204171 
L 863.519475 138.62559 
L 872.890525 137.376881 
L 882.261575 136.442243 
L 891.632625 136.298217 
L 901.003675 138.034345 
L 910.374725 141.589078 
L 919.745775 148.669325 
L 929.116825 159.141582 
L 938.487875 175.485148 
L 947.858925 200.679592 
L 957.229975 239.101832 
L 966.601025 287.772265 
L 975.972075 334.51631 
" style="fill:none;stroke:#2b908f;stroke-linecap:square;"/>
   </g>
   <g id="line2d_26">
    <path clip-path="url(#p3fc17069b9)" d="M 48.238125 353.2239 
L 985.343125 353.2239 
" style="fill:none;stroke:#dedede;stroke-linecap:square;stroke-width:2;"/>
   </g>
   <g id="text_16">
    <!-- Qualimap RNAseq: Coverage Profile Along Genes (total) -->
    <defs>
     <path d="M 39.40625 66.21875 
Q 28.65625 66.21875 22.328125 58.203125 
Q 16.015625 50.203125 16.015625 36.375 
Q 16.015625 22.609375 22.328125 14.59375 
Q 28.65625 6.59375 39.40625 6.59375 
Q 50.140625 6.59375 56.421875 14.59375 
Q 62.703125 22.609375 62.703125 36.375 
Q 62.703125 50.203125 56.421875 58.203125 
Q 50.140625 66.21875 39.40625 66.21875 
z
M 53.21875 1.3125 
L 66.21875 -12.890625 
L 54.296875 -12.890625 
L 43.5 -1.21875 
Q 41.890625 -1.3125 41.03125 -1.359375 
Q 40.1875 -1.421875 39.40625 -1.421875 
Q 24.03125 -1.421875 14.8125 8.859375 
Q 5.609375 19.140625 5.609375 36.375 
Q 5.609375 53.65625 14.8125 63.9375 
Q 24.03125 74.21875 39.40625 74.21875 
Q 54.734375 74.21875 63.90625 63.9375 
Q 73.09375 53.65625 73.09375 36.375 
Q 73.09375 23.6875 67.984375 14.640625 
Q 62.890625 5.609375 53.21875 1.3125 
z
" id="DejaVuSans-81"/>
     <path d="M 8.5 21.578125 
L 8.5 54.6875 
L 17.484375 54.6875 
L 17.484375 21.921875 
Q 17.484375 14.15625 20.5 10.265625 
Q 23.53125 6.390625 29.59375 6.390625 
Q 36.859375 6.390625 41.078125 11.03125 
Q 45.3125 15.671875 45.3125 23.6875 
L 45.3125 54.6875 
L 54.296875 54.6875 
L 54.296875 0 
L 45.3125 0 
L 45.3125 8.40625 
Q 42.046875 3.421875 37.71875 1 
Q 33.40625 -1.421875 27.6875 -1.421875 
Q 18.265625 -1.421875 13.375 4.4375 
Q 8.5 10.296875 8.5 21.578125 
z
M 31.109375 56 
z
" id="DejaVuSans-117"/>
     <path d="M 9.421875 75.984375 
L 18.40625 75.984375 
L 18.40625 0 
L 9.421875 0 
z
" id="DejaVuSans-108"/>
     <path d="M 52 44.1875 
Q 55.375 50.25 60.0625 53.125 
Q 64.75 56 71.09375 56 
Q 79.640625 56 84.28125 50.015625 
Q 88.921875 44.046875 88.921875 33.015625 
L 88.921875 0 
L 79.890625 0 
L 79.890625 32.71875 
Q 79.890625 40.578125 77.09375 44.375 
Q 74.3125 48.1875 68.609375 48.1875 
Q 61.625 48.1875 57.5625 43.546875 
Q 53.515625 38.921875 53.515625 30.90625 
L 53.515625 0 
L 44.484375 0 
L 44.484375 32.71875 
Q 44.484375 40.625 41.703125 44.40625 
Q 38.921875 48.1875 33.109375 48.1875 
Q 26.21875 48.1875 22.15625 43.53125 
Q 18.109375 38.875 18.109375 30.90625 
L 18.109375 0 
L 9.078125 0 
L 9.078125 54.6875 
L 18.109375 54.6875 
L 18.109375 46.1875 
Q 21.1875 51.21875 25.484375 53.609375 
Q 29.78125 56 35.6875 56 
Q 41.65625 56 45.828125 52.96875 
Q 50 49.953125 52 44.1875 
z
" id="DejaVuSans-109"/>
     <path d="M 44.390625 34.1875 
Q 47.5625 33.109375 50.5625 29.59375 
Q 53.5625 26.078125 56.59375 19.921875 
L 66.609375 0 
L 56 0 
L 46.6875 18.703125 
Q 43.0625 26.03125 39.671875 28.421875 
Q 36.28125 30.8125 30.421875 30.8125 
L 19.671875 30.8125 
L 19.671875 0 
L 9.8125 0 
L 9.8125 72.90625 
L 32.078125 72.90625 
Q 44.578125 72.90625 50.734375 67.671875 
Q 56.890625 62.453125 56.890625 51.90625 
Q 56.890625 45.015625 53.6875 40.46875 
Q 50.484375 35.9375 44.390625 34.1875 
z
M 19.671875 64.796875 
L 19.671875 38.921875 
L 32.078125 38.921875 
Q 39.203125 38.921875 42.84375 42.21875 
Q 46.484375 45.515625 46.484375 51.90625 
Q 46.484375 58.296875 42.84375 61.546875 
Q 39.203125 64.796875 32.078125 64.796875 
z
" id="DejaVuSans-82"/>
     <path d="M 9.8125 72.90625 
L 23.09375 72.90625 
L 55.421875 11.921875 
L 55.421875 72.90625 
L 64.984375 72.90625 
L 64.984375 0 
L 51.703125 0 
L 19.390625 60.984375 
L 19.390625 0 
L 9.8125 0 
z
" id="DejaVuSans-78"/>
     <path d="M 34.1875 63.1875 
L 20.796875 26.90625 
L 47.609375 26.90625 
z
M 28.609375 72.90625 
L 39.796875 72.90625 
L 67.578125 0 
L 57.328125 0 
L 50.6875 18.703125 
L 17.828125 18.703125 
L 11.1875 0 
L 0.78125 0 
z
" id="DejaVuSans-65"/>
     <path d="M 14.796875 27.296875 
Q 14.796875 17.390625 18.875 11.75 
Q 22.953125 6.109375 30.078125 6.109375 
Q 37.203125 6.109375 41.296875 11.75 
Q 45.40625 17.390625 45.40625 27.296875 
Q 45.40625 37.203125 41.296875 42.84375 
Q 37.203125 48.484375 30.078125 48.484375 
Q 22.953125 48.484375 18.875 42.84375 
Q 14.796875 37.203125 14.796875 27.296875 
z
M 45.40625 8.203125 
Q 42.578125 3.328125 38.25 0.953125 
Q 33.9375 -1.421875 27.875 -1.421875 
Q 17.96875 -1.421875 11.734375 6.484375 
Q 5.515625 14.40625 5.515625 27.296875 
Q 5.515625 40.1875 11.734375 48.09375 
Q 17.96875 56 27.875 56 
Q 33.9375 56 38.25 53.625 
Q 42.578125 51.265625 45.40625 46.390625 
L 45.40625 54.6875 
L 54.390625 54.6875 
L 54.390625 -20.796875 
L 45.40625 -20.796875 
z
" id="DejaVuSans-113"/>
     <path d="M 11.71875 12.40625 
L 22.015625 12.40625 
L 22.015625 0 
L 11.71875 0 
z
M 11.71875 51.703125 
L 22.015625 51.703125 
L 22.015625 39.3125 
L 11.71875 39.3125 
z
" id="DejaVuSans-58"/>
     <path d="M 37.109375 75.984375 
L 37.109375 68.5 
L 28.515625 68.5 
Q 23.6875 68.5 21.796875 66.546875 
Q 19.921875 64.59375 19.921875 59.515625 
L 19.921875 54.6875 
L 34.71875 54.6875 
L 34.71875 47.703125 
L 19.921875 47.703125 
L 19.921875 0 
L 10.890625 0 
L 10.890625 47.703125 
L 2.296875 47.703125 
L 2.296875 54.6875 
L 10.890625 54.6875 
L 10.890625 58.5 
Q 10.890625 67.625 15.140625 71.796875 
Q 19.390625 75.984375 28.609375 75.984375 
z
" id="DejaVuSans-102"/>
     <path d="M 59.515625 10.40625 
L 59.515625 29.984375 
L 43.40625 29.984375 
L 43.40625 38.09375 
L 69.28125 38.09375 
L 69.28125 6.78125 
Q 63.578125 2.734375 56.6875 0.65625 
Q 49.8125 -1.421875 42 -1.421875 
Q 24.90625 -1.421875 15.25 8.5625 
Q 5.609375 18.5625 5.609375 36.375 
Q 5.609375 54.25 15.25 64.234375 
Q 24.90625 74.21875 42 74.21875 
Q 49.125 74.21875 55.546875 72.453125 
Q 61.96875 70.703125 67.390625 67.28125 
L 67.390625 56.78125 
Q 61.921875 61.421875 55.765625 63.765625 
Q 49.609375 66.109375 42.828125 66.109375 
Q 29.4375 66.109375 22.71875 58.640625 
Q 16.015625 51.171875 16.015625 36.375 
Q 16.015625 21.625 22.71875 14.15625 
Q 29.4375 6.6875 42.828125 6.6875 
Q 48.046875 6.6875 52.140625 7.59375 
Q 56.25 8.5 59.515625 10.40625 
z
" id="DejaVuSans-71"/>
    </defs>
    <g transform="translate(293.093125 19.3575)scale(0.16 -0.16)">
     <use xlink:href="#DejaVuSans-81"/>
     <use x="78.710938" xlink:href="#DejaVuSans-117"/>
     <use x="142.089844" xlink:href="#DejaVuSans-97"/>
     <use x="203.369141" xlink:href="#DejaVuSans-108"/>
     <use x="231.152344" xlink:href="#DejaVuSans-105"/>
     <use x="258.935547" xlink:href="#DejaVuSans-109"/>
     <use x="356.347656" xlink:href="#DejaVuSans-97"/>
     <use x="417.626953" xlink:href="#DejaVuSans-112"/>
     <use x="481.103516" xlink:href="#DejaVuSans-32"/>
     <use x="512.890625" xlink:href="#DejaVuSans-82"/>
     <use x="582.373047" xlink:href="#DejaVuSans-78"/>
     <use x="657.177734" xlink:href="#DejaVuSans-65"/>
     <use x="725.585938" xlink:href="#DejaVuSans-115"/>
     <use x="777.685547" xlink:href="#DejaVuSans-101"/>
     <use x="839.208984" xlink:href="#DejaVuSans-113"/>
     <use x="902.685547" xlink:href="#DejaVuSans-58"/>
     <use x="936.376953" xlink:href="#DejaVuSans-32"/>
     <use x="968.164062" xlink:href="#DejaVuSans-67"/>
     <use x="1037.988281" xlink:href="#DejaVuSans-111"/>
     <use x="1099.169922" xlink:href="#DejaVuSans-118"/>
     <use x="1158.349609" xlink:href="#DejaVuSans-101"/>
     <use x="1219.873047" xlink:href="#DejaVuSans-114"/>
     <use x="1260.986328" xlink:href="#DejaVuSans-97"/>
     <use x="1322.265625" xlink:href="#DejaVuSans-103"/>
     <use x="1385.742188" xlink:href="#DejaVuSans-101"/>
     <use x="1447.265625" xlink:href="#DejaVuSans-32"/>
     <use x="1479.052734" xlink:href="#DejaVuSans-80"/>
     <use x="1539.339844" xlink:href="#DejaVuSans-114"/>
     <use x="1580.421875" xlink:href="#DejaVuSans-111"/>
     <use x="1641.603516" xlink:href="#DejaVuSans-102"/>
     <use x="1676.808594" xlink:href="#DejaVuSans-105"/>
     <use x="1704.591797" xlink:href="#DejaVuSans-108"/>
     <use x="1732.375" xlink:href="#DejaVuSans-101"/>
     <use x="1793.898438" xlink:href="#DejaVuSans-32"/>
     <use x="1825.685547" xlink:href="#DejaVuSans-65"/>
     <use x="1894.09375" xlink:href="#DejaVuSans-108"/>
     <use x="1921.876953" xlink:href="#DejaVuSans-111"/>
     <use x="1983.058594" xlink:href="#DejaVuSans-110"/>
     <use x="2046.4375" xlink:href="#DejaVuSans-103"/>
     <use x="2109.914062" xlink:href="#DejaVuSans-32"/>
     <use x="2141.701172" xlink:href="#DejaVuSans-71"/>
     <use x="2219.191406" xlink:href="#DejaVuSans-101"/>
     <use x="2280.714844" xlink:href="#DejaVuSans-110"/>
     <use x="2344.09375" xlink:href="#DejaVuSans-101"/>
     <use x="2405.617188" xlink:href="#DejaVuSans-115"/>
     <use x="2457.716797" xlink:href="#DejaVuSans-32"/>
     <use x="2489.503906" xlink:href="#DejaVuSans-40"/>
     <use x="2528.517578" xlink:href="#DejaVuSans-116"/>
     <use x="2567.726562" xlink:href="#DejaVuSans-111"/>
     <use x="2628.908203" xlink:href="#DejaVuSans-116"/>
     <use x="2668.117188" xlink:href="#DejaVuSans-97"/>
     <use x="2729.396484" xlink:href="#DejaVuSans-108"/>
     <use x="2757.179688" xlink:href="#DejaVuSans-41"/>
    </g>
   </g>
  </g>
 </g>
 <defs>
  <clipPath id="p3fc17069b9">
   <rect height="317.968" width="937.105" x="48.238125" y="35.2559"/>
  </clipPath>
 </defs>
</svg>
