<?xml version="1.0" encoding="utf-8" standalone="no"?>
<!DOCTYPE svg PUBLIC "-//W3C//DTD SVG 1.1//EN"
  "http://www.w3.org/Graphics/SVG/1.1/DTD/svg11.dtd">
<!-- Created with matplotlib (https://matplotlib.org/) -->
<svg height="388.844525pt" version="1.1" viewBox="0 0 1001.258125 388.844525" width="1001.258125pt" xmlns="http://www.w3.org/2000/svg" xmlns:xlink="http://www.w3.org/1999/xlink">
 <defs>
  <style type="text/css">
*{stroke-linecap:butt;stroke-linejoin:round;}
  </style>
 </defs>
 <g id="figure_1">
  <g id="patch_1">
   <path d="M 0 388.844525 
L 1001.258125 388.844525 
L 1001.258125 0 
L 0 0 
z
" style="fill:#ffffff;"/>
  </g>
  <g id="axes_1">
   <g id="patch_2">
    <path d="M 43.148125 353.2239 
L 990.558125 353.2239 
L 990.558125 35.2559 
L 43.148125 35.2559 
z
" style="fill:#ffffff;"/>
   </g>
   <g id="matplotlib.axis_1">
    <g id="xtick_1">
     <g id="text_1">
      <!-- 1.0 -->
      <defs>
       <path d="M 12.40625 8.296875 
L 28.515625 8.296875 
L 28.515625 63.921875 
L 10.984375 60.40625 
L 10.984375 69.390625 
L 28.421875 72.90625 
L 38.28125 72.90625 
L 38.28125 8.296875 
L 54.390625 8.296875 
L 54.390625 0 
L 12.40625 0 
z
" id="DejaVuSans-49"/>
       <path d="M 10.6875 12.40625 
L 21 12.40625 
L 21 0 
L 10.6875 0 
z
" id="DejaVuSans-46"/>
       <path d="M 31.78125 66.40625 
Q 24.171875 66.40625 20.328125 58.90625 
Q 16.5 51.421875 16.5 36.375 
Q 16.5 21.390625 20.328125 13.890625 
Q 24.171875 6.390625 31.78125 6.390625 
Q 39.453125 6.390625 43.28125 13.890625 
Q 47.125 21.390625 47.125 36.375 
Q 47.125 51.421875 43.28125 58.90625 
Q 39.453125 66.40625 31.78125 66.40625 
z
M 31.78125 74.21875 
Q 44.046875 74.21875 50.515625 64.515625 
Q 56.984375 54.828125 56.984375 36.375 
Q 56.984375 17.96875 50.515625 8.265625 
Q 44.046875 -1.421875 31.78125 -1.421875 
Q 19.53125 -1.421875 13.0625 8.265625 
Q 6.59375 17.96875 6.59375 36.375 
Q 6.59375 54.828125 13.0625 64.515625 
Q 19.53125 74.21875 31.78125 74.21875 
z
" id="DejaVuSans-48"/>
      </defs>
      <g transform="translate(79.850966 366.30265)scale(0.08 -0.08)">
       <use xlink:href="#DejaVuSans-49"/>
       <use x="63.623047" xlink:href="#DejaVuSans-46"/>
       <use x="95.410156" xlink:href="#DejaVuSans-48"/>
      </g>
     </g>
    </g>
    <g id="xtick_2">
     <g id="text_2">
      <!-- 2.0 -->
      <defs>
       <path d="M 19.1875 8.296875 
L 53.609375 8.296875 
L 53.609375 0 
L 7.328125 0 
L 7.328125 8.296875 
Q 12.9375 14.109375 22.625 23.890625 
Q 32.328125 33.6875 34.8125 36.53125 
Q 39.546875 41.84375 41.421875 45.53125 
Q 43.3125 49.21875 43.3125 52.78125 
Q 43.3125 58.59375 39.234375 62.25 
Q 35.15625 65.921875 28.609375 65.921875 
Q 23.96875 65.921875 18.8125 64.3125 
Q 13.671875 62.703125 7.8125 59.421875 
L 7.8125 69.390625 
Q 13.765625 71.78125 18.9375 73 
Q 24.125 74.21875 28.421875 74.21875 
Q 39.75 74.21875 46.484375 68.546875 
Q 53.21875 62.890625 53.21875 53.421875 
Q 53.21875 48.921875 51.53125 44.890625 
Q 49.859375 40.875 45.40625 35.40625 
Q 44.1875 33.984375 37.640625 27.21875 
Q 31.109375 20.453125 19.1875 8.296875 
z
" id="DejaVuSans-50"/>
      </defs>
      <g transform="translate(137.269754 366.30265)scale(0.08 -0.08)">
       <use xlink:href="#DejaVuSans-50"/>
       <use x="63.623047" xlink:href="#DejaVuSans-46"/>
       <use x="95.410156" xlink:href="#DejaVuSans-48"/>
      </g>
     </g>
    </g>
    <g id="xtick_3">
     <g id="text_3">
      <!-- 3.0 -->
      <defs>
       <path d="M 40.578125 39.3125 
Q 47.65625 37.796875 51.625 33 
Q 55.609375 28.21875 55.609375 21.1875 
Q 55.609375 10.40625 48.1875 4.484375 
Q 40.765625 -1.421875 27.09375 -1.421875 
Q 22.515625 -1.421875 17.65625 -0.515625 
Q 12.796875 0.390625 7.625 2.203125 
L 7.625 11.71875 
Q 11.71875 9.328125 16.59375 8.109375 
Q 21.484375 6.890625 26.8125 6.890625 
Q 36.078125 6.890625 40.9375 10.546875 
Q 45.796875 14.203125 45.796875 21.1875 
Q 45.796875 27.640625 41.28125 31.265625 
Q 36.765625 34.90625 28.71875 34.90625 
L 20.21875 34.90625 
L 20.21875 43.015625 
L 29.109375 43.015625 
Q 36.375 43.015625 40.234375 45.921875 
Q 44.09375 48.828125 44.09375 54.296875 
Q 44.09375 59.90625 40.109375 62.90625 
Q 36.140625 65.921875 28.71875 65.921875 
Q 24.65625 65.921875 20.015625 65.03125 
Q 15.375 64.15625 9.8125 62.3125 
L 9.8125 71.09375 
Q 15.4375 72.65625 20.34375 73.4375 
Q 25.25 74.21875 29.59375 74.21875 
Q 40.828125 74.21875 47.359375 69.109375 
Q 53.90625 64.015625 53.90625 55.328125 
Q 53.90625 49.265625 50.4375 45.09375 
Q 46.96875 40.921875 40.578125 39.3125 
z
" id="DejaVuSans-51"/>
      </defs>
      <g transform="translate(194.688542 366.30265)scale(0.08 -0.08)">
       <use xlink:href="#DejaVuSans-51"/>
       <use x="63.623047" xlink:href="#DejaVuSans-46"/>
       <use x="95.410156" xlink:href="#DejaVuSans-48"/>
      </g>
     </g>
    </g>
    <g id="xtick_4">
     <g id="text_4">
      <!-- 4.0 -->
      <defs>
       <path d="M 37.796875 64.3125 
L 12.890625 25.390625 
L 37.796875 25.390625 
z
M 35.203125 72.90625 
L 47.609375 72.90625 
L 47.609375 25.390625 
L 58.015625 25.390625 
L 58.015625 17.1875 
L 47.609375 17.1875 
L 47.609375 0 
L 37.796875 0 
L 37.796875 17.1875 
L 4.890625 17.1875 
L 4.890625 26.703125 
z
" id="DejaVuSans-52"/>
      </defs>
      <g transform="translate(252.10733 366.30265)scale(0.08 -0.08)">
       <use xlink:href="#DejaVuSans-52"/>
       <use x="63.623047" xlink:href="#DejaVuSans-46"/>
       <use x="95.410156" xlink:href="#DejaVuSans-48"/>
      </g>
     </g>
    </g>
    <g id="xtick_5">
     <g id="text_5">
      <!-- 5.0 -->
      <defs>
       <path d="M 10.796875 72.90625 
L 49.515625 72.90625 
L 49.515625 64.59375 
L 19.828125 64.59375 
L 19.828125 46.734375 
Q 21.96875 47.46875 24.109375 47.828125 
Q 26.265625 48.1875 28.421875 48.1875 
Q 40.625 48.1875 47.75 41.5 
Q 54.890625 34.8125 54.890625 23.390625 
Q 54.890625 11.625 47.5625 5.09375 
Q 40.234375 -1.421875 26.90625 -1.421875 
Q 22.3125 -1.421875 17.546875 -0.640625 
Q 12.796875 0.140625 7.71875 1.703125 
L 7.71875 11.625 
Q 12.109375 9.234375 16.796875 8.0625 
Q 21.484375 6.890625 26.703125 6.890625 
Q 35.15625 6.890625 40.078125 11.328125 
Q 45.015625 15.765625 45.015625 23.390625 
Q 45.015625 31 40.078125 35.4375 
Q 35.15625 39.890625 26.703125 39.890625 
Q 22.75 39.890625 18.8125 39.015625 
Q 14.890625 38.140625 10.796875 36.28125 
z
" id="DejaVuSans-53"/>
      </defs>
      <g transform="translate(309.526117 366.30265)scale(0.08 -0.08)">
       <use xlink:href="#DejaVuSans-53"/>
       <use x="63.623047" xlink:href="#DejaVuSans-46"/>
       <use x="95.410156" xlink:href="#DejaVuSans-48"/>
      </g>
     </g>
    </g>
    <g id="xtick_6">
     <g id="text_6">
      <!-- 6.0 -->
      <defs>
       <path d="M 33.015625 40.375 
Q 26.375 40.375 22.484375 35.828125 
Q 18.609375 31.296875 18.609375 23.390625 
Q 18.609375 15.53125 22.484375 10.953125 
Q 26.375 6.390625 33.015625 6.390625 
Q 39.65625 6.390625 43.53125 10.953125 
Q 47.40625 15.53125 47.40625 23.390625 
Q 47.40625 31.296875 43.53125 35.828125 
Q 39.65625 40.375 33.015625 40.375 
z
M 52.59375 71.296875 
L 52.59375 62.3125 
Q 48.875 64.0625 45.09375 64.984375 
Q 41.3125 65.921875 37.59375 65.921875 
Q 27.828125 65.921875 22.671875 59.328125 
Q 17.53125 52.734375 16.796875 39.40625 
Q 19.671875 43.65625 24.015625 45.921875 
Q 28.375 48.1875 33.59375 48.1875 
Q 44.578125 48.1875 50.953125 41.515625 
Q 57.328125 34.859375 57.328125 23.390625 
Q 57.328125 12.15625 50.6875 5.359375 
Q 44.046875 -1.421875 33.015625 -1.421875 
Q 20.359375 -1.421875 13.671875 8.265625 
Q 6.984375 17.96875 6.984375 36.375 
Q 6.984375 53.65625 15.1875 63.9375 
Q 23.390625 74.21875 37.203125 74.21875 
Q 40.921875 74.21875 44.703125 73.484375 
Q 48.484375 72.75 52.59375 71.296875 
z
" id="DejaVuSans-54"/>
      </defs>
      <g transform="translate(366.944905 366.30265)scale(0.08 -0.08)">
       <use xlink:href="#DejaVuSans-54"/>
       <use x="63.623047" xlink:href="#DejaVuSans-46"/>
       <use x="95.410156" xlink:href="#DejaVuSans-48"/>
      </g>
     </g>
    </g>
    <g id="xtick_7">
     <g id="text_7">
      <!-- 7.0 -->
      <defs>
       <path d="M 8.203125 72.90625 
L 55.078125 72.90625 
L 55.078125 68.703125 
L 28.609375 0 
L 18.3125 0 
L 43.21875 64.59375 
L 8.203125 64.59375 
z
" id="DejaVuSans-55"/>
      </defs>
      <g transform="translate(424.363693 366.30265)scale(0.08 -0.08)">
       <use xlink:href="#DejaVuSans-55"/>
       <use x="63.623047" xlink:href="#DejaVuSans-46"/>
       <use x="95.410156" xlink:href="#DejaVuSans-48"/>
      </g>
     </g>
    </g>
    <g id="xtick_8">
     <g id="text_8">
      <!-- 8.0 -->
      <defs>
       <path d="M 31.78125 34.625 
Q 24.75 34.625 20.71875 30.859375 
Q 16.703125 27.09375 16.703125 20.515625 
Q 16.703125 13.921875 20.71875 10.15625 
Q 24.75 6.390625 31.78125 6.390625 
Q 38.8125 6.390625 42.859375 10.171875 
Q 46.921875 13.96875 46.921875 20.515625 
Q 46.921875 27.09375 42.890625 30.859375 
Q 38.875 34.625 31.78125 34.625 
z
M 21.921875 38.8125 
Q 15.578125 40.375 12.03125 44.71875 
Q 8.5 49.078125 8.5 55.328125 
Q 8.5 64.0625 14.71875 69.140625 
Q 20.953125 74.21875 31.78125 74.21875 
Q 42.671875 74.21875 48.875 69.140625 
Q 55.078125 64.0625 55.078125 55.328125 
Q 55.078125 49.078125 51.53125 44.71875 
Q 48 40.375 41.703125 38.8125 
Q 48.828125 37.15625 52.796875 32.3125 
Q 56.78125 27.484375 56.78125 20.515625 
Q 56.78125 9.90625 50.3125 4.234375 
Q 43.84375 -1.421875 31.78125 -1.421875 
Q 19.734375 -1.421875 13.25 4.234375 
Q 6.78125 9.90625 6.78125 20.515625 
Q 6.78125 27.484375 10.78125 32.3125 
Q 14.796875 37.15625 21.921875 38.8125 
z
M 18.3125 54.390625 
Q 18.3125 48.734375 21.84375 45.5625 
Q 25.390625 42.390625 31.78125 42.390625 
Q 38.140625 42.390625 41.71875 45.5625 
Q 45.3125 48.734375 45.3125 54.390625 
Q 45.3125 60.0625 41.71875 63.234375 
Q 38.140625 66.40625 31.78125 66.40625 
Q 25.390625 66.40625 21.84375 63.234375 
Q 18.3125 60.0625 18.3125 54.390625 
z
" id="DejaVuSans-56"/>
      </defs>
      <g transform="translate(481.782481 366.30265)scale(0.08 -0.08)">
       <use xlink:href="#DejaVuSans-56"/>
       <use x="63.623047" xlink:href="#DejaVuSans-46"/>
       <use x="95.410156" xlink:href="#DejaVuSans-48"/>
      </g>
     </g>
    </g>
    <g id="xtick_9">
     <g id="text_9">
      <!-- 9.0 -->
      <defs>
       <path d="M 10.984375 1.515625 
L 10.984375 10.5 
Q 14.703125 8.734375 18.5 7.8125 
Q 22.3125 6.890625 25.984375 6.890625 
Q 35.75 6.890625 40.890625 13.453125 
Q 46.046875 20.015625 46.78125 33.40625 
Q 43.953125 29.203125 39.59375 26.953125 
Q 35.25 24.703125 29.984375 24.703125 
Q 19.046875 24.703125 12.671875 31.3125 
Q 6.296875 37.9375 6.296875 49.421875 
Q 6.296875 60.640625 12.9375 67.421875 
Q 19.578125 74.21875 30.609375 74.21875 
Q 43.265625 74.21875 49.921875 64.515625 
Q 56.59375 54.828125 56.59375 36.375 
Q 56.59375 19.140625 48.40625 8.859375 
Q 40.234375 -1.421875 26.421875 -1.421875 
Q 22.703125 -1.421875 18.890625 -0.6875 
Q 15.09375 0.046875 10.984375 1.515625 
z
M 30.609375 32.421875 
Q 37.25 32.421875 41.125 36.953125 
Q 45.015625 41.5 45.015625 49.421875 
Q 45.015625 57.28125 41.125 61.84375 
Q 37.25 66.40625 30.609375 66.40625 
Q 23.96875 66.40625 20.09375 61.84375 
Q 16.21875 57.28125 16.21875 49.421875 
Q 16.21875 41.5 20.09375 36.953125 
Q 23.96875 32.421875 30.609375 32.421875 
z
" id="DejaVuSans-57"/>
      </defs>
      <g transform="translate(539.201269 366.30265)scale(0.08 -0.08)">
       <use xlink:href="#DejaVuSans-57"/>
       <use x="63.623047" xlink:href="#DejaVuSans-46"/>
       <use x="95.410156" xlink:href="#DejaVuSans-48"/>
      </g>
     </g>
    </g>
    <g id="xtick_10">
     <g id="text_10">
      <!-- &gt;10 -->
      <defs>
       <path d="M 10.59375 49.21875 
L 10.59375 58.109375 
L 73.1875 35.40625 
L 73.1875 27.296875 
L 10.59375 4.59375 
L 10.59375 13.484375 
L 60.890625 31.296875 
z
" id="DejaVuSans-62"/>
      </defs>
      <g transform="translate(594.539432 366.30265)scale(0.08 -0.08)">
       <use xlink:href="#DejaVuSans-62"/>
       <use x="83.789062" xlink:href="#DejaVuSans-49"/>
       <use x="147.412109" xlink:href="#DejaVuSans-48"/>
      </g>
     </g>
    </g>
    <g id="xtick_11">
     <g id="text_11">
      <!-- &gt;50 -->
      <g transform="translate(651.95822 366.30265)scale(0.08 -0.08)">
       <use xlink:href="#DejaVuSans-62"/>
       <use x="83.789062" xlink:href="#DejaVuSans-53"/>
       <use x="147.412109" xlink:href="#DejaVuSans-48"/>
      </g>
     </g>
    </g>
    <g id="xtick_12">
     <g id="text_12">
      <!-- &gt;100 -->
      <g transform="translate(706.832008 366.30265)scale(0.08 -0.08)">
       <use xlink:href="#DejaVuSans-62"/>
       <use x="83.789062" xlink:href="#DejaVuSans-49"/>
       <use x="147.412109" xlink:href="#DejaVuSans-48"/>
       <use x="211.035156" xlink:href="#DejaVuSans-48"/>
      </g>
     </g>
    </g>
    <g id="xtick_13">
     <g id="text_13">
      <!-- &gt;500 -->
      <g transform="translate(764.250795 366.30265)scale(0.08 -0.08)">
       <use xlink:href="#DejaVuSans-62"/>
       <use x="83.789062" xlink:href="#DejaVuSans-53"/>
       <use x="147.412109" xlink:href="#DejaVuSans-48"/>
       <use x="211.035156" xlink:href="#DejaVuSans-48"/>
      </g>
     </g>
    </g>
    <g id="xtick_14">
     <g id="text_14">
      <!-- &gt;1k -->
      <defs>
       <path d="M 9.078125 75.984375 
L 18.109375 75.984375 
L 18.109375 31.109375 
L 44.921875 54.6875 
L 56.390625 54.6875 
L 27.390625 29.109375 
L 57.625 0 
L 45.90625 0 
L 18.109375 26.703125 
L 18.109375 0 
L 9.078125 0 
z
" id="DejaVuSans-107"/>
      </defs>
      <g transform="translate(824.443333 366.30265)scale(0.08 -0.08)">
       <use xlink:href="#DejaVuSans-62"/>
       <use x="83.789062" xlink:href="#DejaVuSans-49"/>
       <use x="147.412109" xlink:href="#DejaVuSans-107"/>
      </g>
     </g>
    </g>
    <g id="xtick_15">
     <g id="text_15">
      <!-- &gt;5k -->
      <g transform="translate(881.862121 366.30265)scale(0.08 -0.08)">
       <use xlink:href="#DejaVuSans-62"/>
       <use x="83.789062" xlink:href="#DejaVuSans-53"/>
       <use x="147.412109" xlink:href="#DejaVuSans-107"/>
      </g>
     </g>
    </g>
    <g id="xtick_16">
     <g id="text_16">
      <!-- &gt;10k+ -->
      <defs>
       <path d="M 46 62.703125 
L 46 35.5 
L 73.1875 35.5 
L 73.1875 27.203125 
L 46 27.203125 
L 46 0 
L 37.796875 0 
L 37.796875 27.203125 
L 10.59375 27.203125 
L 10.59375 35.5 
L 37.796875 35.5 
L 37.796875 62.703125 
z
" id="DejaVuSans-43"/>
      </defs>
      <g transform="translate(933.384034 366.30265)scale(0.08 -0.08)">
       <use xlink:href="#DejaVuSans-62"/>
       <use x="83.789062" xlink:href="#DejaVuSans-49"/>
       <use x="147.412109" xlink:href="#DejaVuSans-48"/>
       <use x="211.035156" xlink:href="#DejaVuSans-107"/>
       <use x="268.945312" xlink:href="#DejaVuSans-43"/>
      </g>
     </g>
    </g>
    <g id="text_17">
     <!-- Sequence Duplication Level -->
     <defs>
      <path d="M 53.515625 70.515625 
L 53.515625 60.890625 
Q 47.90625 63.578125 42.921875 64.890625 
Q 37.9375 66.21875 33.296875 66.21875 
Q 25.25 66.21875 20.875 63.09375 
Q 16.5 59.96875 16.5 54.203125 
Q 16.5 49.359375 19.40625 46.890625 
Q 22.3125 44.4375 30.421875 42.921875 
L 36.375 41.703125 
Q 47.40625 39.59375 52.65625 34.296875 
Q 57.90625 29 57.90625 20.125 
Q 57.90625 9.515625 50.796875 4.046875 
Q 43.703125 -1.421875 29.984375 -1.421875 
Q 24.8125 -1.421875 18.96875 -0.25 
Q 13.140625 0.921875 6.890625 3.21875 
L 6.890625 13.375 
Q 12.890625 10.015625 18.65625 8.296875 
Q 24.421875 6.59375 29.984375 6.59375 
Q 38.421875 6.59375 43.015625 9.90625 
Q 47.609375 13.234375 47.609375 19.390625 
Q 47.609375 24.75 44.3125 27.78125 
Q 41.015625 30.8125 33.5 32.328125 
L 27.484375 33.5 
Q 16.453125 35.6875 11.515625 40.375 
Q 6.59375 45.0625 6.59375 53.421875 
Q 6.59375 63.09375 13.40625 68.65625 
Q 20.21875 74.21875 32.171875 74.21875 
Q 37.3125 74.21875 42.625 73.28125 
Q 47.953125 72.359375 53.515625 70.515625 
z
" id="DejaVuSans-83"/>
      <path d="M 56.203125 29.59375 
L 56.203125 25.203125 
L 14.890625 25.203125 
Q 15.484375 15.921875 20.484375 11.0625 
Q 25.484375 6.203125 34.421875 6.203125 
Q 39.59375 6.203125 44.453125 7.46875 
Q 49.3125 8.734375 54.109375 11.28125 
L 54.109375 2.78125 
Q 49.265625 0.734375 44.1875 -0.34375 
Q 39.109375 -1.421875 33.890625 -1.421875 
Q 20.796875 -1.421875 13.15625 6.1875 
Q 5.515625 13.8125 5.515625 26.8125 
Q 5.515625 40.234375 12.765625 48.109375 
Q 20.015625 56 32.328125 56 
Q 43.359375 56 49.78125 48.890625 
Q 56.203125 41.796875 56.203125 29.59375 
z
M 47.21875 32.234375 
Q 47.125 39.59375 43.09375 43.984375 
Q 39.0625 48.390625 32.421875 48.390625 
Q 24.90625 48.390625 20.390625 44.140625 
Q 15.875 39.890625 15.1875 32.171875 
z
" id="DejaVuSans-101"/>
      <path d="M 14.796875 27.296875 
Q 14.796875 17.390625 18.875 11.75 
Q 22.953125 6.109375 30.078125 6.109375 
Q 37.203125 6.109375 41.296875 11.75 
Q 45.40625 17.390625 45.40625 27.296875 
Q 45.40625 37.203125 41.296875 42.84375 
Q 37.203125 48.484375 30.078125 48.484375 
Q 22.953125 48.484375 18.875 42.84375 
Q 14.796875 37.203125 14.796875 27.296875 
z
M 45.40625 8.203125 
Q 42.578125 3.328125 38.25 0.953125 
Q 33.9375 -1.421875 27.875 -1.421875 
Q 17.96875 -1.421875 11.734375 6.484375 
Q 5.515625 14.40625 5.515625 27.296875 
Q 5.515625 40.1875 11.734375 48.09375 
Q 17.96875 56 27.875 56 
Q 33.9375 56 38.25 53.625 
Q 42.578125 51.265625 45.40625 46.390625 
L 45.40625 54.6875 
L 54.390625 54.6875 
L 54.390625 -20.796875 
L 45.40625 -20.796875 
z
" id="DejaVuSans-113"/>
      <path d="M 8.5 21.578125 
L 8.5 54.6875 
L 17.484375 54.6875 
L 17.484375 21.921875 
Q 17.484375 14.15625 20.5 10.265625 
Q 23.53125 6.390625 29.59375 6.390625 
Q 36.859375 6.390625 41.078125 11.03125 
Q 45.3125 15.671875 45.3125 23.6875 
L 45.3125 54.6875 
L 54.296875 54.6875 
L 54.296875 0 
L 45.3125 0 
L 45.3125 8.40625 
Q 42.046875 3.421875 37.71875 1 
Q 33.40625 -1.421875 27.6875 -1.421875 
Q 18.265625 -1.421875 13.375 4.4375 
Q 8.5 10.296875 8.5 21.578125 
z
M 31.109375 56 
z
" id="DejaVuSans-117"/>
      <path d="M 54.890625 33.015625 
L 54.890625 0 
L 45.90625 0 
L 45.90625 32.71875 
Q 45.90625 40.484375 42.875 44.328125 
Q 39.84375 48.1875 33.796875 48.1875 
Q 26.515625 48.1875 22.3125 43.546875 
Q 18.109375 38.921875 18.109375 30.90625 
L 18.109375 0 
L 9.078125 0 
L 9.078125 54.6875 
L 18.109375 54.6875 
L 18.109375 46.1875 
Q 21.34375 51.125 25.703125 53.5625 
Q 30.078125 56 35.796875 56 
Q 45.21875 56 50.046875 50.171875 
Q 54.890625 44.34375 54.890625 33.015625 
z
" id="DejaVuSans-110"/>
      <path d="M 48.78125 52.59375 
L 48.78125 44.1875 
Q 44.96875 46.296875 41.140625 47.34375 
Q 37.3125 48.390625 33.40625 48.390625 
Q 24.65625 48.390625 19.8125 42.84375 
Q 14.984375 37.3125 14.984375 27.296875 
Q 14.984375 17.28125 19.8125 11.734375 
Q 24.65625 6.203125 33.40625 6.203125 
Q 37.3125 6.203125 41.140625 7.25 
Q 44.96875 8.296875 48.78125 10.40625 
L 48.78125 2.09375 
Q 45.015625 0.34375 40.984375 -0.53125 
Q 36.96875 -1.421875 32.421875 -1.421875 
Q 20.0625 -1.421875 12.78125 6.34375 
Q 5.515625 14.109375 5.515625 27.296875 
Q 5.515625 40.671875 12.859375 48.328125 
Q 20.21875 56 33.015625 56 
Q 37.15625 56 41.109375 55.140625 
Q 45.0625 54.296875 48.78125 52.59375 
z
" id="DejaVuSans-99"/>
      <path id="DejaVuSans-32"/>
      <path d="M 19.671875 64.796875 
L 19.671875 8.109375 
L 31.59375 8.109375 
Q 46.6875 8.109375 53.6875 14.9375 
Q 60.6875 21.78125 60.6875 36.53125 
Q 60.6875 51.171875 53.6875 57.984375 
Q 46.6875 64.796875 31.59375 64.796875 
z
M 9.8125 72.90625 
L 30.078125 72.90625 
Q 51.265625 72.90625 61.171875 64.09375 
Q 71.09375 55.28125 71.09375 36.53125 
Q 71.09375 17.671875 61.125 8.828125 
Q 51.171875 0 30.078125 0 
L 9.8125 0 
z
" id="DejaVuSans-68"/>
      <path d="M 18.109375 8.203125 
L 18.109375 -20.796875 
L 9.078125 -20.796875 
L 9.078125 54.6875 
L 18.109375 54.6875 
L 18.109375 46.390625 
Q 20.953125 51.265625 25.265625 53.625 
Q 29.59375 56 35.59375 56 
Q 45.5625 56 51.78125 48.09375 
Q 58.015625 40.1875 58.015625 27.296875 
Q 58.015625 14.40625 51.78125 6.484375 
Q 45.5625 -1.421875 35.59375 -1.421875 
Q 29.59375 -1.421875 25.265625 0.953125 
Q 20.953125 3.328125 18.109375 8.203125 
z
M 48.6875 27.296875 
Q 48.6875 37.203125 44.609375 42.84375 
Q 40.53125 48.484375 33.40625 48.484375 
Q 26.265625 48.484375 22.1875 42.84375 
Q 18.109375 37.203125 18.109375 27.296875 
Q 18.109375 17.390625 22.1875 11.75 
Q 26.265625 6.109375 33.40625 6.109375 
Q 40.53125 6.109375 44.609375 11.75 
Q 48.6875 17.390625 48.6875 27.296875 
z
" id="DejaVuSans-112"/>
      <path d="M 9.421875 75.984375 
L 18.40625 75.984375 
L 18.40625 0 
L 9.421875 0 
z
" id="DejaVuSans-108"/>
      <path d="M 9.421875 54.6875 
L 18.40625 54.6875 
L 18.40625 0 
L 9.421875 0 
z
M 9.421875 75.984375 
L 18.40625 75.984375 
L 18.40625 64.59375 
L 9.421875 64.59375 
z
" id="DejaVuSans-105"/>
      <path d="M 34.28125 27.484375 
Q 23.390625 27.484375 19.1875 25 
Q 14.984375 22.515625 14.984375 16.5 
Q 14.984375 11.71875 18.140625 8.90625 
Q 21.296875 6.109375 26.703125 6.109375 
Q 34.1875 6.109375 38.703125 11.40625 
Q 43.21875 16.703125 43.21875 25.484375 
L 43.21875 27.484375 
z
M 52.203125 31.203125 
L 52.203125 0 
L 43.21875 0 
L 43.21875 8.296875 
Q 40.140625 3.328125 35.546875 0.953125 
Q 30.953125 -1.421875 24.3125 -1.421875 
Q 15.921875 -1.421875 10.953125 3.296875 
Q 6 8.015625 6 15.921875 
Q 6 25.140625 12.171875 29.828125 
Q 18.359375 34.515625 30.609375 34.515625 
L 43.21875 34.515625 
L 43.21875 35.40625 
Q 43.21875 41.609375 39.140625 45 
Q 35.0625 48.390625 27.6875 48.390625 
Q 23 48.390625 18.546875 47.265625 
Q 14.109375 46.140625 10.015625 43.890625 
L 10.015625 52.203125 
Q 14.9375 54.109375 19.578125 55.046875 
Q 24.21875 56 28.609375 56 
Q 40.484375 56 46.34375 49.84375 
Q 52.203125 43.703125 52.203125 31.203125 
z
" id="DejaVuSans-97"/>
      <path d="M 18.3125 70.21875 
L 18.3125 54.6875 
L 36.8125 54.6875 
L 36.8125 47.703125 
L 18.3125 47.703125 
L 18.3125 18.015625 
Q 18.3125 11.328125 20.140625 9.421875 
Q 21.96875 7.515625 27.59375 7.515625 
L 36.8125 7.515625 
L 36.8125 0 
L 27.59375 0 
Q 17.1875 0 13.234375 3.875 
Q 9.28125 7.765625 9.28125 18.015625 
L 9.28125 47.703125 
L 2.6875 47.703125 
L 2.6875 54.6875 
L 9.28125 54.6875 
L 9.28125 70.21875 
z
" id="DejaVuSans-116"/>
      <path d="M 30.609375 48.390625 
Q 23.390625 48.390625 19.1875 42.75 
Q 14.984375 37.109375 14.984375 27.296875 
Q 14.984375 17.484375 19.15625 11.84375 
Q 23.34375 6.203125 30.609375 6.203125 
Q 37.796875 6.203125 41.984375 11.859375 
Q 46.1875 17.53125 46.1875 27.296875 
Q 46.1875 37.015625 41.984375 42.703125 
Q 37.796875 48.390625 30.609375 48.390625 
z
M 30.609375 56 
Q 42.328125 56 49.015625 48.375 
Q 55.71875 40.765625 55.71875 27.296875 
Q 55.71875 13.875 49.015625 6.21875 
Q 42.328125 -1.421875 30.609375 -1.421875 
Q 18.84375 -1.421875 12.171875 6.21875 
Q 5.515625 13.875 5.515625 27.296875 
Q 5.515625 40.765625 12.171875 48.375 
Q 18.84375 56 30.609375 56 
z
" id="DejaVuSans-111"/>
      <path d="M 9.8125 72.90625 
L 19.671875 72.90625 
L 19.671875 8.296875 
L 55.171875 8.296875 
L 55.171875 0 
L 9.8125 0 
z
" id="DejaVuSans-76"/>
      <path d="M 2.984375 54.6875 
L 12.5 54.6875 
L 29.59375 8.796875 
L 46.6875 54.6875 
L 56.203125 54.6875 
L 35.6875 0 
L 23.484375 0 
z
" id="DejaVuSans-118"/>
     </defs>
     <g transform="translate(447.361719 379.564837)scale(0.1 -0.1)">
      <use xlink:href="#DejaVuSans-83"/>
      <use x="63.476562" xlink:href="#DejaVuSans-101"/>
      <use x="125" xlink:href="#DejaVuSans-113"/>
      <use x="188.476562" xlink:href="#DejaVuSans-117"/>
      <use x="251.855469" xlink:href="#DejaVuSans-101"/>
      <use x="313.378906" xlink:href="#DejaVuSans-110"/>
      <use x="376.757812" xlink:href="#DejaVuSans-99"/>
      <use x="431.738281" xlink:href="#DejaVuSans-101"/>
      <use x="493.261719" xlink:href="#DejaVuSans-32"/>
      <use x="525.048828" xlink:href="#DejaVuSans-68"/>
      <use x="602.050781" xlink:href="#DejaVuSans-117"/>
      <use x="665.429688" xlink:href="#DejaVuSans-112"/>
      <use x="728.90625" xlink:href="#DejaVuSans-108"/>
      <use x="756.689453" xlink:href="#DejaVuSans-105"/>
      <use x="784.472656" xlink:href="#DejaVuSans-99"/>
      <use x="839.453125" xlink:href="#DejaVuSans-97"/>
      <use x="900.732422" xlink:href="#DejaVuSans-116"/>
      <use x="939.941406" xlink:href="#DejaVuSans-105"/>
      <use x="967.724609" xlink:href="#DejaVuSans-111"/>
      <use x="1028.90625" xlink:href="#DejaVuSans-110"/>
      <use x="1092.285156" xlink:href="#DejaVuSans-32"/>
      <use x="1124.072266" xlink:href="#DejaVuSans-76"/>
      <use x="1179.769531" xlink:href="#DejaVuSans-101"/>
      <use x="1241.292969" xlink:href="#DejaVuSans-118"/>
      <use x="1300.472656" xlink:href="#DejaVuSans-101"/>
      <use x="1361.996094" xlink:href="#DejaVuSans-108"/>
     </g>
    </g>
   </g>
   <g id="matplotlib.axis_2">
    <g id="ytick_1">
     <g id="line2d_1">
      <path clip-path="url(#p7508f1ca6a)" d="M 43.148125 353.2239 
L 990.558125 353.2239 
" style="fill:none;stroke:#dedede;stroke-linecap:square;"/>
     </g>
     <g id="text_18">
      <!-- 0 -->
      <g transform="translate(31.058125 356.263275)scale(0.08 -0.08)">
       <use xlink:href="#DejaVuSans-48"/>
      </g>
     </g>
    </g>
    <g id="ytick_2">
     <g id="line2d_2">
      <path clip-path="url(#p7508f1ca6a)" d="M 43.148125 289.6303 
L 990.558125 289.6303 
" style="fill:none;stroke:#dedede;stroke-linecap:square;"/>
     </g>
     <g id="text_19">
      <!-- 20 -->
      <g transform="translate(25.968125 292.669675)scale(0.08 -0.08)">
       <use xlink:href="#DejaVuSans-50"/>
       <use x="63.623047" xlink:href="#DejaVuSans-48"/>
      </g>
     </g>
    </g>
    <g id="ytick_3">
     <g id="line2d_3">
      <path clip-path="url(#p7508f1ca6a)" d="M 43.148125 226.0367 
L 990.558125 226.0367 
" style="fill:none;stroke:#dedede;stroke-linecap:square;"/>
     </g>
     <g id="text_20">
      <!-- 40 -->
      <g transform="translate(25.968125 229.076075)scale(0.08 -0.08)">
       <use xlink:href="#DejaVuSans-52"/>
       <use x="63.623047" xlink:href="#DejaVuSans-48"/>
      </g>
     </g>
    </g>
    <g id="ytick_4">
     <g id="line2d_4">
      <path clip-path="url(#p7508f1ca6a)" d="M 43.148125 162.4431 
L 990.558125 162.4431 
" style="fill:none;stroke:#dedede;stroke-linecap:square;"/>
     </g>
     <g id="text_21">
      <!-- 60 -->
      <g transform="translate(25.968125 165.482475)scale(0.08 -0.08)">
       <use xlink:href="#DejaVuSans-54"/>
       <use x="63.623047" xlink:href="#DejaVuSans-48"/>
      </g>
     </g>
    </g>
    <g id="ytick_5">
     <g id="line2d_5">
      <path clip-path="url(#p7508f1ca6a)" d="M 43.148125 98.8495 
L 990.558125 98.8495 
" style="fill:none;stroke:#dedede;stroke-linecap:square;"/>
     </g>
     <g id="text_22">
      <!-- 80 -->
      <g transform="translate(25.968125 101.888875)scale(0.08 -0.08)">
       <use xlink:href="#DejaVuSans-56"/>
       <use x="63.623047" xlink:href="#DejaVuSans-48"/>
      </g>
     </g>
    </g>
    <g id="ytick_6">
     <g id="line2d_6">
      <path clip-path="url(#p7508f1ca6a)" d="M 43.148125 35.2559 
L 990.558125 35.2559 
" style="fill:none;stroke:#dedede;stroke-linecap:square;"/>
     </g>
     <g id="text_23">
      <!-- 100 -->
      <g transform="translate(20.878125 38.295275)scale(0.08 -0.08)">
       <use xlink:href="#DejaVuSans-49"/>
       <use x="63.623047" xlink:href="#DejaVuSans-48"/>
       <use x="127.246094" xlink:href="#DejaVuSans-48"/>
      </g>
     </g>
    </g>
    <g id="text_24">
     <!-- % of Library -->
     <defs>
      <path d="M 72.703125 32.078125 
Q 68.453125 32.078125 66.03125 28.46875 
Q 63.625 24.859375 63.625 18.40625 
Q 63.625 12.0625 66.03125 8.421875 
Q 68.453125 4.78125 72.703125 4.78125 
Q 76.859375 4.78125 79.265625 8.421875 
Q 81.6875 12.0625 81.6875 18.40625 
Q 81.6875 24.8125 79.265625 28.4375 
Q 76.859375 32.078125 72.703125 32.078125 
z
M 72.703125 38.28125 
Q 80.421875 38.28125 84.953125 32.90625 
Q 89.5 27.546875 89.5 18.40625 
Q 89.5 9.28125 84.9375 3.921875 
Q 80.375 -1.421875 72.703125 -1.421875 
Q 64.890625 -1.421875 60.34375 3.921875 
Q 55.8125 9.28125 55.8125 18.40625 
Q 55.8125 27.59375 60.375 32.9375 
Q 64.9375 38.28125 72.703125 38.28125 
z
M 22.3125 68.015625 
Q 18.109375 68.015625 15.6875 64.375 
Q 13.28125 60.75 13.28125 54.390625 
Q 13.28125 47.953125 15.671875 44.328125 
Q 18.0625 40.71875 22.3125 40.71875 
Q 26.5625 40.71875 28.96875 44.328125 
Q 31.390625 47.953125 31.390625 54.390625 
Q 31.390625 60.6875 28.953125 64.34375 
Q 26.515625 68.015625 22.3125 68.015625 
z
M 66.40625 74.21875 
L 74.21875 74.21875 
L 28.609375 -1.421875 
L 20.796875 -1.421875 
z
M 22.3125 74.21875 
Q 30.03125 74.21875 34.609375 68.875 
Q 39.203125 63.53125 39.203125 54.390625 
Q 39.203125 45.171875 34.640625 39.84375 
Q 30.078125 34.515625 22.3125 34.515625 
Q 14.546875 34.515625 10.03125 39.859375 
Q 5.515625 45.21875 5.515625 54.390625 
Q 5.515625 63.484375 10.046875 68.84375 
Q 14.59375 74.21875 22.3125 74.21875 
z
" id="DejaVuSans-37"/>
      <path d="M 37.109375 75.984375 
L 37.109375 68.5 
L 28.515625 68.5 
Q 23.6875 68.5 21.796875 66.546875 
Q 19.921875 64.59375 19.921875 59.515625 
L 19.921875 54.6875 
L 34.71875 54.6875 
L 34.71875 47.703125 
L 19.921875 47.703125 
L 19.921875 0 
L 10.890625 0 
L 10.890625 47.703125 
L 2.296875 47.703125 
L 2.296875 54.6875 
L 10.890625 54.6875 
L 10.890625 58.5 
Q 10.890625 67.625 15.140625 71.796875 
Q 19.390625 75.984375 28.609375 75.984375 
z
" id="DejaVuSans-102"/>
      <path d="M 48.6875 27.296875 
Q 48.6875 37.203125 44.609375 42.84375 
Q 40.53125 48.484375 33.40625 48.484375 
Q 26.265625 48.484375 22.1875 42.84375 
Q 18.109375 37.203125 18.109375 27.296875 
Q 18.109375 17.390625 22.1875 11.75 
Q 26.265625 6.109375 33.40625 6.109375 
Q 40.53125 6.109375 44.609375 11.75 
Q 48.6875 17.390625 48.6875 27.296875 
z
M 18.109375 46.390625 
Q 20.953125 51.265625 25.265625 53.625 
Q 29.59375 56 35.59375 56 
Q 45.5625 56 51.78125 48.09375 
Q 58.015625 40.1875 58.015625 27.296875 
Q 58.015625 14.40625 51.78125 6.484375 
Q 45.5625 -1.421875 35.59375 -1.421875 
Q 29.59375 -1.421875 25.265625 0.953125 
Q 20.953125 3.328125 18.109375 8.203125 
L 18.109375 0 
L 9.078125 0 
L 9.078125 75.984375 
L 18.109375 75.984375 
z
" id="DejaVuSans-98"/>
      <path d="M 41.109375 46.296875 
Q 39.59375 47.171875 37.8125 47.578125 
Q 36.03125 48 33.890625 48 
Q 26.265625 48 22.1875 43.046875 
Q 18.109375 38.09375 18.109375 28.8125 
L 18.109375 0 
L 9.078125 0 
L 9.078125 54.6875 
L 18.109375 54.6875 
L 18.109375 46.1875 
Q 20.953125 51.171875 25.484375 53.578125 
Q 30.03125 56 36.53125 56 
Q 37.453125 56 38.578125 55.875 
Q 39.703125 55.765625 41.0625 55.515625 
z
" id="DejaVuSans-114"/>
      <path d="M 32.171875 -5.078125 
Q 28.375 -14.84375 24.75 -17.8125 
Q 21.140625 -20.796875 15.09375 -20.796875 
L 7.90625 -20.796875 
L 7.90625 -13.28125 
L 13.1875 -13.28125 
Q 16.890625 -13.28125 18.9375 -11.515625 
Q 21 -9.765625 23.484375 -3.21875 
L 25.09375 0.875 
L 2.984375 54.6875 
L 12.5 54.6875 
L 29.59375 11.921875 
L 46.6875 54.6875 
L 56.203125 54.6875 
z
" id="DejaVuSans-121"/>
     </defs>
     <g transform="translate(14.798437 224.471931)rotate(-90)scale(0.1 -0.1)">
      <use xlink:href="#DejaVuSans-37"/>
      <use x="95.019531" xlink:href="#DejaVuSans-32"/>
      <use x="126.806641" xlink:href="#DejaVuSans-111"/>
      <use x="187.988281" xlink:href="#DejaVuSans-102"/>
      <use x="223.193359" xlink:href="#DejaVuSans-32"/>
      <use x="254.980469" xlink:href="#DejaVuSans-76"/>
      <use x="310.693359" xlink:href="#DejaVuSans-105"/>
      <use x="338.476562" xlink:href="#DejaVuSans-98"/>
      <use x="401.953125" xlink:href="#DejaVuSans-114"/>
      <use x="443.066406" xlink:href="#DejaVuSans-97"/>
      <use x="504.345703" xlink:href="#DejaVuSans-114"/>
      <use x="545.458984" xlink:href="#DejaVuSans-121"/>
     </g>
    </g>
   </g>
   <g id="line2d_7">
    <path clip-path="url(#p7508f1ca6a)" d="M 86.212216 289.913879 
L 143.631004 315.625068 
L 201.049792 321.767722 
L 258.46858 330.901951 
L 315.887367 336.967262 
L 373.306155 341.321296 
L 430.724943 344.216311 
L 488.143731 346.109059 
L 545.562519 347.569499 
L 602.981307 302.293632 
L 660.400095 341.544861 
L 717.818883 330.17388 
L 775.23767 342.951438 
L 832.656458 339.215086 
L 890.075246 351.06393 
L 947.494034 351.979526 
" style="fill:none;stroke:#d9534f;stroke-linecap:square;"/>
   </g>
   <g id="line2d_8">
    <path clip-path="url(#p7508f1ca6a)" d="M 86.212216 273.726618 
L 143.631004 316.256616 
L 201.049792 323.624153 
L 258.46858 332.063966 
L 315.887367 338.219121 
L 373.306155 341.997209 
L 430.724943 344.864472 
L 488.143731 346.544647 
L 545.562519 347.984055 
L 602.981307 306.412146 
L 660.400095 342.73137 
L 717.818883 331.669587 
L 775.23767 343.788439 
L 832.656458 340.29393 
L 890.075246 351.334391 
L 947.494034 352.103681 
" style="fill:none;stroke:#d9534f;stroke-linecap:square;"/>
   </g>
   <g id="line2d_9">
    <path clip-path="url(#p7508f1ca6a)" d="M 86.212216 256.181598 
L 143.631004 312.113615 
L 201.049792 327.982251 
L 258.46858 337.226662 
L 315.887367 341.691991 
L 373.306155 344.706252 
L 430.724943 346.211448 
L 488.143731 347.853912 
L 545.562519 348.307017 
L 602.981307 302.309674 
L 660.400095 339.046561 
L 717.818883 330.884485 
L 775.23767 347.635136 
L 832.656458 346.331471 
L 890.075246 352.35687 
L 947.494034 352.775457 
" style="fill:none;stroke:#d9534f;stroke-linecap:square;"/>
   </g>
   <g id="line2d_10">
    <path clip-path="url(#p7508f1ca6a)" d="M 86.212216 241.726818 
L 143.631004 314.298259 
L 201.049792 330.027444 
L 258.46858 337.818782 
L 315.887367 342.346076 
L 373.306155 344.910208 
L 430.724943 346.838348 
L 488.143731 347.879199 
L 545.562519 348.926336 
L 602.981307 306.021055 
L 660.400095 340.200515 
L 717.818883 332.284185 
L 775.23767 348.028891 
L 832.656458 347.024487 
L 890.075246 352.475844 
L 947.494034 352.807953 
" style="fill:none;stroke:#d9534f;stroke-linecap:square;"/>
   </g>
   <g id="line2d_11">
    <path clip-path="url(#p7508f1ca6a)" d="M 86.212216 263.038244 
L 143.631004 313.031939 
L 201.049792 327.175802 
L 258.46858 335.997977 
L 315.887367 340.604575 
L 373.306155 343.789535 
L 430.724943 345.75443 
L 488.143731 346.890949 
L 545.562519 347.743577 
L 602.981307 299.244696 
L 660.400095 340.382151 
L 717.818883 332.375845 
L 775.23767 346.850889 
L 832.656458 345.282104 
L 890.075246 352.227789 
L 947.494034 353.2239 
" style="fill:none;stroke:#d9534f;stroke-linecap:square;"/>
   </g>
   <g id="line2d_12">
    <path clip-path="url(#p7508f1ca6a)" d="M 86.212216 250.707423 
L 143.631004 314.161172 
L 201.049792 328.043323 
L 258.46858 337.184554 
L 315.887367 341.724258 
L 373.306155 343.987501 
L 430.724943 346.324931 
L 488.143731 347.167975 
L 545.562519 348.068326 
L 602.981307 302.340791 
L 660.400095 341.314827 
L 717.818883 333.777629 
L 775.23767 347.427409 
L 832.656458 345.89312 
L 890.075246 352.267263 
L 947.494034 353.2239 
" style="fill:none;stroke:#d9534f;stroke-linecap:square;"/>
   </g>
   <g id="line2d_13">
    <path clip-path="url(#p7508f1ca6a)" d="M 86.212216 252.568462 
L 143.631004 314.378826 
L 201.049792 329.094112 
L 258.46858 336.888072 
L 315.887367 341.476183 
L 373.306155 343.980509 
L 430.724943 345.961189 
L 488.143731 346.965745 
L 545.562519 348.034304 
L 602.981307 298.775081 
L 660.400095 340.004454 
L 717.818883 334.05307 
L 775.23767 348.513706 
L 832.656458 347.255699 
L 890.075246 352.552581 
L 947.494034 353.112407 
" style="fill:none;stroke:#d9534f;stroke-linecap:square;"/>
   </g>
   <g id="line2d_14">
    <path clip-path="url(#p7508f1ca6a)" d="M 86.212216 229.908146 
L 143.631004 316.222734 
L 201.049792 331.641234 
L 258.46858 338.619543 
L 315.887367 342.589273 
L 373.306155 345.023296 
L 430.724943 346.539553 
L 488.143731 347.683043 
L 545.562519 348.439777 
L 602.981307 305.138912 
L 660.400095 341.51224 
L 717.818883 336.943438 
L 775.23767 349.216334 
L 832.656458 348.286761 
L 890.075246 352.727186 
L 947.494034 353.122931 
" style="fill:none;stroke:#f0ad4e;stroke-linecap:square;"/>
   </g>
   <g id="line2d_15">
    <path clip-path="url(#p7508f1ca6a)" d="M 86.212216 252.218788 
L 143.631004 311.58933 
L 201.049792 327.816063 
L 258.46858 335.692674 
L 315.887367 340.962573 
L 373.306155 343.918219 
L 430.724943 345.762834 
L 488.143731 346.88231 
L 545.562519 347.85354 
L 602.981307 302.928985 
L 660.400095 342.174044 
L 717.818883 335.512102 
L 775.23767 347.857591 
L 832.656458 347.100903 
L 890.075246 352.49045 
L 947.494034 352.853995 
" style="fill:none;stroke:#d9534f;stroke-linecap:square;"/>
   </g>
   <g id="line2d_16">
    <path clip-path="url(#p7508f1ca6a)" d="M 86.212216 235.917422 
L 143.631004 313.643789 
L 201.049792 329.099227 
L 258.46858 336.890162 
L 315.887367 341.664113 
L 373.306155 344.422047 
L 430.724943 346.47008 
L 488.143731 347.676551 
L 545.562519 348.596629 
L 602.981307 307.690913 
L 660.400095 343.213266 
L 717.818883 336.826774 
L 775.23767 348.23067 
L 832.656458 347.758693 
L 890.075246 352.637582 
L 947.494034 352.87648 
" style="fill:none;stroke:#d9534f;stroke-linecap:square;"/>
   </g>
   <g id="line2d_17">
    <path clip-path="url(#p7508f1ca6a)" d="M 86.212216 269.867038 
L 143.631004 317.584088 
L 201.049792 331.663446 
L 258.46858 339.062024 
L 315.887367 343.420195 
L 373.306155 345.547154 
L 430.724943 347.193999 
L 488.143731 348.522817 
L 545.562519 348.976909 
L 602.981307 309.593218 
L 660.400095 340.591743 
L 717.818883 326.011348 
L 775.23767 338.458517 
L 832.656458 327.861175 
L 890.075246 348.973809 
L 947.494034 350.286918 
" style="fill:none;stroke:#d9534f;stroke-linecap:square;"/>
   </g>
   <g id="line2d_18">
    <path clip-path="url(#p7508f1ca6a)" d="M 86.212216 254.792058 
L 143.631004 318.901835 
L 201.049792 332.723794 
L 258.46858 339.879761 
L 315.887367 344.02219 
L 373.306155 346.293531 
L 430.724943 347.661206 
L 488.143731 348.754052 
L 545.562519 349.328631 
L 602.981307 312.954736 
L 660.400095 341.698168 
L 717.818883 327.089178 
L 775.23767 339.239818 
L 832.656458 330.0224 
L 890.075246 349.603693 
L 947.494034 350.64935 
" style="fill:none;stroke:#d9534f;stroke-linecap:square;"/>
   </g>
   <g id="line2d_19">
    <path clip-path="url(#p7508f1ca6a)" d="M 86.212216 254.681184 
L 143.631004 312.263838 
L 201.049792 328.114443 
L 258.46858 337.412515 
L 315.887367 341.69676 
L 373.306155 344.422967 
L 430.724943 346.584128 
L 488.143731 347.595845 
L 545.562519 348.721773 
L 602.981307 308.929413 
L 660.400095 344.126719 
L 717.818883 333.237336 
L 775.23767 343.612806 
L 832.656458 338.975236 
L 890.075246 351.32302 
L 947.494034 351.916416 
" style="fill:none;stroke:#d9534f;stroke-linecap:square;"/>
   </g>
   <g id="line2d_20">
    <path clip-path="url(#p7508f1ca6a)" d="M 86.212216 248.104841 
L 143.631004 312.858185 
L 201.049792 329.21912 
L 258.46858 337.280949 
L 315.887367 342.151177 
L 373.306155 344.733757 
L 430.724943 346.537321 
L 488.143731 347.619179 
L 545.562519 348.663814 
L 602.981307 311.267086 
L 660.400095 344.060335 
L 717.818883 333.601739 
L 775.23767 343.800462 
L 832.656458 340.140858 
L 890.075246 351.408329 
L 947.494034 352.167247 
" style="fill:none;stroke:#d9534f;stroke-linecap:square;"/>
   </g>
   <g id="line2d_21">
    <path clip-path="url(#p7508f1ca6a)" d="M 86.212216 248.547384 
L 143.631004 311.624866 
L 201.049792 328.441516 
L 258.46858 336.724553 
L 315.887367 341.366576 
L 373.306155 344.231603 
L 430.724943 346.138019 
L 488.143731 347.285185 
L 545.562519 348.255739 
L 602.981307 306.833991 
L 660.400095 342.892743 
L 717.818883 334.92535 
L 775.23767 346.310933 
L 832.656458 345.114532 
L 890.075246 352.250751 
L 947.494034 352.670658 
" style="fill:none;stroke:#d9534f;stroke-linecap:square;"/>
   </g>
   <g id="line2d_22">
    <path clip-path="url(#p7508f1ca6a)" d="M 86.212216 239.849282 
L 143.631004 312.373481 
L 201.049792 329.532793 
L 258.46858 337.781237 
L 315.887367 341.888367 
L 373.306155 344.731504 
L 430.724943 346.355533 
L 488.143731 347.710489 
L 545.562519 348.405304 
L 602.981307 308.236877 
L 660.400095 343.571541 
L 717.818883 335.510342 
L 775.23767 346.799801 
L 832.656458 345.800329 
L 890.075246 352.390343 
L 947.494034 352.677177 
" style="fill:none;stroke:#d9534f;stroke-linecap:square;"/>
   </g>
   <g id="line2d_23">
    <path clip-path="url(#p7508f1ca6a)" d="M 86.212216 271.996215 
L 143.631004 313.796222 
L 201.049792 327.054197 
L 258.46858 335.21956 
L 315.887367 339.827043 
L 373.306155 343.550611 
L 430.724943 345.298775 
L 488.143731 346.954726 
L 545.562519 347.849996 
L 602.981307 299.69424 
L 660.400095 340.451419 
L 717.818883 330.796202 
L 775.23767 345.165472 
L 832.656458 342.831118 
L 890.075246 351.191125 
L 947.494034 351.937479 
" style="fill:none;stroke:#d9534f;stroke-linecap:square;"/>
   </g>
   <g id="line2d_24">
    <path clip-path="url(#p7508f1ca6a)" d="M 86.212216 255.495965 
L 143.631004 315.688665 
L 201.049792 328.27006 
L 258.46858 336.317266 
L 315.887367 341.317462 
L 373.306155 344.034148 
L 430.724943 346.028254 
L 488.143731 347.308488 
L 545.562519 348.3691 
L 602.981307 303.657372 
L 660.400095 341.642309 
L 717.818883 332.488804 
L 775.23767 345.738783 
L 832.656458 343.586073 
L 890.075246 351.497871 
L 947.494034 352.17378 
" style="fill:none;stroke:#d9534f;stroke-linecap:square;"/>
   </g>
   <g id="line2d_25">
    <path clip-path="url(#p7508f1ca6a)" d="M 86.212216 256.426137 
L 143.631004 310.630765 
L 201.049792 328.254587 
L 258.46858 337.314534 
L 315.887367 342.341484 
L 373.306155 344.995206 
L 430.724943 346.636043 
L 488.143731 348.077602 
L 545.562519 348.909681 
L 602.981307 306.251934 
L 660.400095 338.63346 
L 717.818883 326.738012 
L 775.23767 346.301327 
L 832.656458 346.55169 
L 890.075246 352.62251 
L 947.494034 352.929426 
" style="fill:none;stroke:#d9534f;stroke-linecap:square;"/>
   </g>
   <g id="line2d_26">
    <path clip-path="url(#p7508f1ca6a)" d="M 86.212216 243.233956 
L 143.631004 312.61051 
L 201.049792 329.886277 
L 258.46858 338.333871 
L 315.887367 342.764052 
L 373.306155 345.698234 
L 430.724943 346.762364 
L 488.143731 348.478849 
L 545.562519 349.290759 
L 602.981307 308.882753 
L 660.400095 339.560355 
L 717.818883 327.852436 
L 775.23767 347.420364 
L 832.656458 347.240673 
L 890.075246 352.536995 
L 947.494034 353.061952 
" style="fill:none;stroke:#d9534f;stroke-linecap:square;"/>
   </g>
   <g id="line2d_27">
    <path clip-path="url(#p7508f1ca6a)" d="M 86.212216 248.122837 
L 143.631004 312.534006 
L 201.049792 328.497216 
L 258.46858 336.188849 
L 315.887367 341.180967 
L 373.306155 344.26076 
L 430.724943 346.049754 
L 488.143731 347.334932 
L 545.562519 348.175063 
L 602.981307 302.463032 
L 660.400095 340.804737 
L 717.818883 336.173028 
L 775.23767 348.997902 
L 832.656458 347.682252 
L 890.075246 352.335499 
L 947.494034 352.813565 
" style="fill:none;stroke:#d9534f;stroke-linecap:square;"/>
   </g>
   <g id="line2d_28">
    <path clip-path="url(#p7508f1ca6a)" d="M 86.212216 242.045549 
L 143.631004 312.801166 
L 201.049792 328.655886 
L 258.46858 337.432137 
L 315.887367 341.690757 
L 373.306155 344.374143 
L 430.724943 346.369625 
L 488.143731 347.193964 
L 545.562519 348.458761 
L 602.981307 303.875494 
L 660.400095 341.568486 
L 717.818883 336.847829 
L 775.23767 349.099403 
L 832.656458 347.971426 
L 890.075246 352.297497 
L 947.494034 352.932278 
" style="fill:none;stroke:#d9534f;stroke-linecap:square;"/>
   </g>
   <g id="line2d_29">
    <path clip-path="url(#p7508f1ca6a)" d="M 86.212216 247.767002 
L 143.631004 310.138199 
L 201.049792 328.158869 
L 258.46858 336.611259 
L 315.887367 341.640545 
L 373.306155 344.669387 
L 430.724943 346.48414 
L 488.143731 347.4941 
L 545.562519 348.423423 
L 602.981307 305.418938 
L 660.400095 341.745145 
L 717.818883 334.766798 
L 775.23767 348.398575 
L 832.656458 346.718318 
L 890.075246 352.356885 
L 947.494034 352.822816 
" style="fill:none;stroke:#d9534f;stroke-linecap:square;"/>
   </g>
   <g id="line2d_30">
    <path clip-path="url(#p7508f1ca6a)" d="M 86.212216 240.99408 
L 143.631004 310.993798 
L 201.049792 328.408997 
L 258.46858 337.25297 
L 315.887367 342.065354 
L 373.306155 344.651175 
L 430.724943 346.470031 
L 488.143731 347.944619 
L 545.562519 348.608255 
L 602.981307 307.086754 
L 660.400095 342.39534 
L 717.818883 335.621448 
L 775.23767 348.719386 
L 832.656458 347.056712 
L 890.075246 352.494479 
L 947.494034 352.851001 
" style="fill:none;stroke:#d9534f;stroke-linecap:square;"/>
   </g>
   <g id="line2d_31">
    <path clip-path="url(#p7508f1ca6a)" d="M 86.212216 290.200811 
L 143.631004 315.83221 
L 201.049792 321.234663 
L 258.46858 329.387637 
L 315.887367 336.106113 
L 373.306155 340.688736 
L 430.724943 343.644814 
L 488.143731 346.124983 
L 545.562519 347.285643 
L 602.981307 302.108831 
L 660.400095 341.649073 
L 717.818883 330.075128 
L 775.23767 343.90075 
L 832.656458 341.564364 
L 890.075246 351.650991 
L 947.494034 352.159655 
" style="fill:none;stroke:#d9534f;stroke-linecap:square;"/>
   </g>
   <g id="line2d_32">
    <path clip-path="url(#p7508f1ca6a)" d="M 86.212216 283.906463 
L 143.631004 315.348044 
L 201.049792 321.583154 
L 258.46858 329.889221 
L 315.887367 336.69879 
L 373.306155 341.315763 
L 430.724943 344.119552 
L 488.143731 345.974256 
L 545.562519 347.628987 
L 602.981307 304.237487 
L 660.400095 341.996373 
L 717.818883 330.187171 
L 775.23767 344.46646 
L 832.656458 342.310706 
L 890.075246 351.590677 
L 947.494034 352.361294 
" style="fill:none;stroke:#d9534f;stroke-linecap:square;"/>
   </g>
   <g id="line2d_33">
    <path clip-path="url(#p7508f1ca6a)" d="M 86.212216 269.798915 
L 143.631004 310.181092 
L 201.049792 324.551647 
L 258.46858 334.169224 
L 315.887367 339.764238 
L 373.306155 343.307437 
L 430.724943 345.329294 
L 488.143731 347.153601 
L 545.562519 348.023812 
L 602.981307 305.83868 
L 660.400095 342.126126 
L 717.818883 331.132954 
L 775.23767 344.877572 
L 832.656458 342.800482 
L 890.075246 351.985352 
L 947.494034 352.573976 
" style="fill:none;stroke:#d9534f;stroke-linecap:square;"/>
   </g>
   <g id="line2d_34">
    <path clip-path="url(#p7508f1ca6a)" d="M 86.212216 256.433715 
L 143.631004 311.449493 
L 201.049792 325.524497 
L 258.46858 335.269369 
L 315.887367 340.77868 
L 373.306155 344.061992 
L 430.724943 346.157892 
L 488.143731 347.49832 
L 545.562519 348.407666 
L 602.981307 309.260742 
L 660.400095 342.904126 
L 717.818883 331.971299 
L 775.23767 345.41355 
L 832.656458 343.830292 
L 890.075246 352.049462 
L 947.494034 352.603305 
" style="fill:none;stroke:#d9534f;stroke-linecap:square;"/>
   </g>
   <g id="line2d_35">
    <path clip-path="url(#p7508f1ca6a)" d="M 86.212216 275.07011 
L 143.631004 315.010803 
L 201.049792 328.57055 
L 258.46858 337.09712 
L 315.887367 342.167957 
L 373.306155 345.171039 
L 430.724943 346.832392 
L 488.143731 348.085014 
L 545.562519 348.918139 
L 602.981307 306.850606 
L 660.400095 337.807734 
L 717.818883 317.594262 
L 775.23767 341.363019 
L 832.656458 339.137816 
L 890.075246 351.589796 
L 947.494034 352.348043 
" style="fill:none;stroke:#d9534f;stroke-linecap:square;"/>
   </g>
   <g id="line2d_36">
    <path clip-path="url(#p7508f1ca6a)" d="M 86.212216 268.155963 
L 143.631004 315.519578 
L 201.049792 329.186049 
L 258.46858 337.485143 
L 315.887367 342.598723 
L 373.306155 345.507243 
L 430.724943 347.066911 
L 488.143731 348.194495 
L 545.562519 348.947835 
L 602.981307 307.99555 
L 660.400095 337.923634 
L 717.818883 318.714521 
L 775.23767 341.734872 
L 832.656458 340.421329 
L 890.075246 351.802031 
L 947.494034 352.360521 
" style="fill:none;stroke:#d9534f;stroke-linecap:square;"/>
   </g>
   <g id="line2d_37">
    <path clip-path="url(#p7508f1ca6a)" d="M 86.212216 253.856733 
L 143.631004 312.836956 
L 201.049792 330.327427 
L 258.46858 338.953891 
L 315.887367 343.159528 
L 373.306155 345.743251 
L 430.724943 347.308916 
L 488.143731 348.482693 
L 545.562519 349.133244 
L 602.981307 308.242825 
L 660.400095 338.719797 
L 717.818883 323.393888 
L 775.23767 344.515231 
L 832.656458 343.851087 
L 890.075246 352.482693 
L 947.494034 352.606241 
" style="fill:none;stroke:#d9534f;stroke-linecap:square;"/>
   </g>
   <g id="line2d_38">
    <path clip-path="url(#p7508f1ca6a)" d="M 86.212216 244.823887 
L 143.631004 313.973388 
L 201.049792 330.802735 
L 258.46858 339.690153 
L 315.887367 343.813013 
L 373.306155 346.071377 
L 430.724943 347.644826 
L 488.143731 348.482227 
L 545.562519 349.325847 
L 602.981307 310.360716 
L 660.400095 339.395633 
L 717.818883 324.175005 
L 775.23767 345.187974 
L 832.656458 344.605489 
L 890.075246 352.629222 
L 947.494034 352.632907 
" style="fill:none;stroke:#d9534f;stroke-linecap:square;"/>
   </g>
   <g id="line2d_39">
    <path clip-path="url(#p7508f1ca6a)" d="M 86.212216 265.425575 
L 143.631004 314.627968 
L 201.049792 330.062012 
L 258.46858 338.933108 
L 315.887367 343.247286 
L 373.306155 345.35866 
L 430.724943 347.155833 
L 488.143731 348.19332 
L 545.562519 349.064379 
L 602.981307 306.182402 
L 660.400095 337.114132 
L 717.818883 319.003996 
L 775.23767 342.632871 
L 832.656458 341.986402 
L 890.075246 351.987458 
L 947.494034 352.638997 
" style="fill:none;stroke:#d9534f;stroke-linecap:square;"/>
   </g>
   <g id="line2d_40">
    <path clip-path="url(#p7508f1ca6a)" d="M 86.212216 259.452205 
L 143.631004 314.686292 
L 201.049792 330.884776 
L 258.46858 338.812082 
L 315.887367 343.048246 
L 373.306155 345.699358 
L 430.724943 347.277633 
L 488.143731 348.615267 
L 545.562519 349.225645 
L 602.981307 307.065399 
L 660.400095 337.743317 
L 717.818883 320.256489 
L 775.23767 343.036318 
L 832.656458 342.971254 
L 890.075246 352.167819 
L 947.494034 352.672299 
" style="fill:none;stroke:#d9534f;stroke-linecap:square;"/>
   </g>
   <g id="line2d_41">
    <path clip-path="url(#p7508f1ca6a)" d="M 86.212216 252.098091 
L 143.631004 309.511669 
L 201.049792 327.347276 
L 258.46858 335.879635 
L 315.887367 341.382594 
L 373.306155 344.417598 
L 430.724943 346.149657 
L 488.143731 347.26909 
L 545.562519 348.353162 
L 602.981307 305.527637 
L 660.400095 342.042744 
L 717.818883 334.320216 
L 775.23767 347.732485 
L 832.656458 346.306383 
L 890.075246 352.490254 
L 947.494034 352.785909 
" style="fill:none;stroke:#d9534f;stroke-linecap:square;"/>
   </g>
   <g id="line2d_42">
    <path clip-path="url(#p7508f1ca6a)" d="M 86.212216 246.240877 
L 143.631004 310.247263 
L 201.049792 327.4739 
L 258.46858 336.559729 
L 315.887367 341.467173 
L 373.306155 344.360013 
L 430.724943 346.264977 
L 488.143731 347.75551 
L 545.562519 348.644297 
L 602.981307 306.912676 
L 660.400095 342.529281 
L 717.818883 334.952914 
L 775.23767 347.87414 
L 832.656458 347.017496 
L 890.075246 352.499755 
L 947.494034 352.8144 
" style="fill:none;stroke:#d9534f;stroke-linecap:square;"/>
   </g>
   <g id="line2d_43">
    <path clip-path="url(#p7508f1ca6a)" d="M 43.148125 353.2239 
L 990.558125 353.2239 
" style="fill:none;stroke:#dedede;stroke-linecap:square;stroke-width:2;"/>
   </g>
   <g id="text_25">
    <!-- FastQC: Sequence Duplication Levels -->
    <defs>
     <path d="M 9.8125 72.90625 
L 51.703125 72.90625 
L 51.703125 64.59375 
L 19.671875 64.59375 
L 19.671875 43.109375 
L 48.578125 43.109375 
L 48.578125 34.8125 
L 19.671875 34.8125 
L 19.671875 0 
L 9.8125 0 
z
" id="DejaVuSans-70"/>
     <path d="M 44.28125 53.078125 
L 44.28125 44.578125 
Q 40.484375 46.53125 36.375 47.5 
Q 32.28125 48.484375 27.875 48.484375 
Q 21.1875 48.484375 17.84375 46.4375 
Q 14.5 44.390625 14.5 40.28125 
Q 14.5 37.15625 16.890625 35.375 
Q 19.28125 33.59375 26.515625 31.984375 
L 29.59375 31.296875 
Q 39.15625 29.25 43.1875 25.515625 
Q 47.21875 21.78125 47.21875 15.09375 
Q 47.21875 7.46875 41.1875 3.015625 
Q 35.15625 -1.421875 24.609375 -1.421875 
Q 20.21875 -1.421875 15.453125 -0.5625 
Q 10.6875 0.296875 5.421875 2 
L 5.421875 11.28125 
Q 10.40625 8.6875 15.234375 7.390625 
Q 20.0625 6.109375 24.8125 6.109375 
Q 31.15625 6.109375 34.5625 8.28125 
Q 37.984375 10.453125 37.984375 14.40625 
Q 37.984375 18.0625 35.515625 20.015625 
Q 33.0625 21.96875 24.703125 23.78125 
L 21.578125 24.515625 
Q 13.234375 26.265625 9.515625 29.90625 
Q 5.8125 33.546875 5.8125 39.890625 
Q 5.8125 47.609375 11.28125 51.796875 
Q 16.75 56 26.8125 56 
Q 31.78125 56 36.171875 55.265625 
Q 40.578125 54.546875 44.28125 53.078125 
z
" id="DejaVuSans-115"/>
     <path d="M 39.40625 66.21875 
Q 28.65625 66.21875 22.328125 58.203125 
Q 16.015625 50.203125 16.015625 36.375 
Q 16.015625 22.609375 22.328125 14.59375 
Q 28.65625 6.59375 39.40625 6.59375 
Q 50.140625 6.59375 56.421875 14.59375 
Q 62.703125 22.609375 62.703125 36.375 
Q 62.703125 50.203125 56.421875 58.203125 
Q 50.140625 66.21875 39.40625 66.21875 
z
M 53.21875 1.3125 
L 66.21875 -12.890625 
L 54.296875 -12.890625 
L 43.5 -1.21875 
Q 41.890625 -1.3125 41.03125 -1.359375 
Q 40.1875 -1.421875 39.40625 -1.421875 
Q 24.03125 -1.421875 14.8125 8.859375 
Q 5.609375 19.140625 5.609375 36.375 
Q 5.609375 53.65625 14.8125 63.9375 
Q 24.03125 74.21875 39.40625 74.21875 
Q 54.734375 74.21875 63.90625 63.9375 
Q 73.09375 53.65625 73.09375 36.375 
Q 73.09375 23.6875 67.984375 14.640625 
Q 62.890625 5.609375 53.21875 1.3125 
z
" id="DejaVuSans-81"/>
     <path d="M 64.40625 67.28125 
L 64.40625 56.890625 
Q 59.421875 61.53125 53.78125 63.8125 
Q 48.140625 66.109375 41.796875 66.109375 
Q 29.296875 66.109375 22.65625 58.46875 
Q 16.015625 50.828125 16.015625 36.375 
Q 16.015625 21.96875 22.65625 14.328125 
Q 29.296875 6.6875 41.796875 6.6875 
Q 48.140625 6.6875 53.78125 8.984375 
Q 59.421875 11.28125 64.40625 15.921875 
L 64.40625 5.609375 
Q 59.234375 2.09375 53.4375 0.328125 
Q 47.65625 -1.421875 41.21875 -1.421875 
Q 24.65625 -1.421875 15.125 8.703125 
Q 5.609375 18.84375 5.609375 36.375 
Q 5.609375 53.953125 15.125 64.078125 
Q 24.65625 74.21875 41.21875 74.21875 
Q 47.75 74.21875 53.53125 72.484375 
Q 59.328125 70.75 64.40625 67.28125 
z
" id="DejaVuSans-67"/>
     <path d="M 11.71875 12.40625 
L 22.015625 12.40625 
L 22.015625 0 
L 11.71875 0 
z
M 11.71875 51.703125 
L 22.015625 51.703125 
L 22.015625 39.3125 
L 11.71875 39.3125 
z
" id="DejaVuSans-58"/>
    </defs>
    <g transform="translate(367.581875 19.3575)scale(0.16 -0.16)">
     <use xlink:href="#DejaVuSans-70"/>
     <use x="57.378906" xlink:href="#DejaVuSans-97"/>
     <use x="118.658203" xlink:href="#DejaVuSans-115"/>
     <use x="170.757812" xlink:href="#DejaVuSans-116"/>
     <use x="209.966797" xlink:href="#DejaVuSans-81"/>
     <use x="288.677734" xlink:href="#DejaVuSans-67"/>
     <use x="358.501953" xlink:href="#DejaVuSans-58"/>
     <use x="392.193359" xlink:href="#DejaVuSans-32"/>
     <use x="423.980469" xlink:href="#DejaVuSans-83"/>
     <use x="487.457031" xlink:href="#DejaVuSans-101"/>
     <use x="548.980469" xlink:href="#DejaVuSans-113"/>
     <use x="612.457031" xlink:href="#DejaVuSans-117"/>
     <use x="675.835938" xlink:href="#DejaVuSans-101"/>
     <use x="737.359375" xlink:href="#DejaVuSans-110"/>
     <use x="800.738281" xlink:href="#DejaVuSans-99"/>
     <use x="855.71875" xlink:href="#DejaVuSans-101"/>
     <use x="917.242188" xlink:href="#DejaVuSans-32"/>
     <use x="949.029297" xlink:href="#DejaVuSans-68"/>
     <use x="1026.03125" xlink:href="#DejaVuSans-117"/>
     <use x="1089.410156" xlink:href="#DejaVuSans-112"/>
     <use x="1152.886719" xlink:href="#DejaVuSans-108"/>
     <use x="1180.669922" xlink:href="#DejaVuSans-105"/>
     <use x="1208.453125" xlink:href="#DejaVuSans-99"/>
     <use x="1263.433594" xlink:href="#DejaVuSans-97"/>
     <use x="1324.712891" xlink:href="#DejaVuSans-116"/>
     <use x="1363.921875" xlink:href="#DejaVuSans-105"/>
     <use x="1391.705078" xlink:href="#DejaVuSans-111"/>
     <use x="1452.886719" xlink:href="#DejaVuSans-110"/>
     <use x="1516.265625" xlink:href="#DejaVuSans-32"/>
     <use x="1548.052734" xlink:href="#DejaVuSans-76"/>
     <use x="1603.75" xlink:href="#DejaVuSans-101"/>
     <use x="1665.273438" xlink:href="#DejaVuSans-118"/>
     <use x="1724.453125" xlink:href="#DejaVuSans-101"/>
     <use x="1785.976562" xlink:href="#DejaVuSans-108"/>
     <use x="1813.759766" xlink:href="#DejaVuSans-115"/>
    </g>
   </g>
  </g>
 </g>
 <defs>
  <clipPath id="p7508f1ca6a">
   <rect height="317.968" width="947.41" x="43.148125" y="35.2559"/>
  </clipPath>
 </defs>
</svg>
