<?xml version="1.0" encoding="utf-8" standalone="no"?>
<!DOCTYPE svg PUBLIC "-//W3C//DTD SVG 1.1//EN"
  "http://www.w3.org/Graphics/SVG/1.1/DTD/svg11.dtd">
<!-- Created with matplotlib (https://matplotlib.org/) -->
<svg height="388.844525pt" version="1.1" viewBox="0 0 1001.280625 388.844525" width="1001.280625pt" xmlns="http://www.w3.org/2000/svg" xmlns:xlink="http://www.w3.org/1999/xlink">
 <defs>
  <style type="text/css">
*{stroke-linecap:butt;stroke-linejoin:round;}
  </style>
 </defs>
 <g id="figure_1">
  <g id="patch_1">
   <path d="M 0 388.844525 
L 1001.280625 388.844525 
L 1001.280625 0 
L 0 0 
z
" style="fill:#ffffff;"/>
  </g>
  <g id="axes_1">
   <g id="patch_2">
    <path d="M 45.690625 353.2239 
L 990.580625 353.2239 
L 990.580625 35.2559 
L 45.690625 35.2559 
z
" style="fill:#ffffff;"/>
   </g>
   <g id="matplotlib.axis_1">
    <g id="xtick_1">
     <g id="text_1">
      <!-- 0 -->
      <defs>
       <path d="M 31.78125 66.40625 
Q 24.171875 66.40625 20.328125 58.90625 
Q 16.5 51.421875 16.5 36.375 
Q 16.5 21.390625 20.328125 13.890625 
Q 24.171875 6.390625 31.78125 6.390625 
Q 39.453125 6.390625 43.28125 13.890625 
Q 47.125 21.390625 47.125 36.375 
Q 47.125 51.421875 43.28125 58.90625 
Q 39.453125 66.40625 31.78125 66.40625 
z
M 31.78125 74.21875 
Q 44.046875 74.21875 50.515625 64.515625 
Q 56.984375 54.828125 56.984375 36.375 
Q 56.984375 17.96875 50.515625 8.265625 
Q 44.046875 -1.421875 31.78125 -1.421875 
Q 19.53125 -1.421875 13.0625 8.265625 
Q 6.59375 17.96875 6.59375 36.375 
Q 6.59375 54.828125 13.0625 64.515625 
Q 19.53125 74.21875 31.78125 74.21875 
z
" id="DejaVuSans-48"/>
      </defs>
      <g transform="translate(43.145625 366.30265)scale(0.08 -0.08)">
       <use xlink:href="#DejaVuSans-48"/>
      </g>
     </g>
    </g>
    <g id="xtick_2">
     <g id="text_2">
      <!-- 25 -->
      <defs>
       <path d="M 19.1875 8.296875 
L 53.609375 8.296875 
L 53.609375 0 
L 7.328125 0 
L 7.328125 8.296875 
Q 12.9375 14.109375 22.625 23.890625 
Q 32.328125 33.6875 34.8125 36.53125 
Q 39.546875 41.84375 41.421875 45.53125 
Q 43.3125 49.21875 43.3125 52.78125 
Q 43.3125 58.59375 39.234375 62.25 
Q 35.15625 65.921875 28.609375 65.921875 
Q 23.96875 65.921875 18.8125 64.3125 
Q 13.671875 62.703125 7.8125 59.421875 
L 7.8125 69.390625 
Q 13.765625 71.78125 18.9375 73 
Q 24.125 74.21875 28.421875 74.21875 
Q 39.75 74.21875 46.484375 68.546875 
Q 53.21875 62.890625 53.21875 53.421875 
Q 53.21875 48.921875 51.53125 44.890625 
Q 49.859375 40.875 45.40625 35.40625 
Q 44.1875 33.984375 37.640625 27.21875 
Q 31.109375 20.453125 19.1875 8.296875 
z
" id="DejaVuSans-50"/>
       <path d="M 10.796875 72.90625 
L 49.515625 72.90625 
L 49.515625 64.59375 
L 19.828125 64.59375 
L 19.828125 46.734375 
Q 21.96875 47.46875 24.109375 47.828125 
Q 26.265625 48.1875 28.421875 48.1875 
Q 40.625 48.1875 47.75 41.5 
Q 54.890625 34.8125 54.890625 23.390625 
Q 54.890625 11.625 47.5625 5.09375 
Q 40.234375 -1.421875 26.90625 -1.421875 
Q 22.3125 -1.421875 17.546875 -0.640625 
Q 12.796875 0.140625 7.71875 1.703125 
L 7.71875 11.625 
Q 12.109375 9.234375 16.796875 8.0625 
Q 21.484375 6.890625 26.703125 6.890625 
Q 35.15625 6.890625 40.078125 11.328125 
Q 45.015625 15.765625 45.015625 23.390625 
Q 45.015625 31 40.078125 35.4375 
Q 35.15625 39.890625 26.703125 39.890625 
Q 22.75 39.890625 18.8125 39.015625 
Q 14.890625 38.140625 10.796875 36.28125 
z
" id="DejaVuSans-53"/>
      </defs>
      <g transform="translate(153.625745 366.30265)scale(0.08 -0.08)">
       <use xlink:href="#DejaVuSans-50"/>
       <use x="63.623047" xlink:href="#DejaVuSans-53"/>
      </g>
     </g>
    </g>
    <g id="xtick_3">
     <g id="text_3">
      <!-- 50 -->
      <g transform="translate(266.650864 366.30265)scale(0.08 -0.08)">
       <use xlink:href="#DejaVuSans-53"/>
       <use x="63.623047" xlink:href="#DejaVuSans-48"/>
      </g>
     </g>
    </g>
    <g id="xtick_4">
     <g id="text_4">
      <!-- 75 -->
      <defs>
       <path d="M 8.203125 72.90625 
L 55.078125 72.90625 
L 55.078125 68.703125 
L 28.609375 0 
L 18.3125 0 
L 43.21875 64.59375 
L 8.203125 64.59375 
z
" id="DejaVuSans-55"/>
      </defs>
      <g transform="translate(379.675984 366.30265)scale(0.08 -0.08)">
       <use xlink:href="#DejaVuSans-55"/>
       <use x="63.623047" xlink:href="#DejaVuSans-53"/>
      </g>
     </g>
    </g>
    <g id="xtick_5">
     <g id="text_5">
      <!-- 100 -->
      <defs>
       <path d="M 12.40625 8.296875 
L 28.515625 8.296875 
L 28.515625 63.921875 
L 10.984375 60.40625 
L 10.984375 69.390625 
L 28.421875 72.90625 
L 38.28125 72.90625 
L 38.28125 8.296875 
L 54.390625 8.296875 
L 54.390625 0 
L 12.40625 0 
z
" id="DejaVuSans-49"/>
      </defs>
      <g transform="translate(490.156103 366.30265)scale(0.08 -0.08)">
       <use xlink:href="#DejaVuSans-49"/>
       <use x="63.623047" xlink:href="#DejaVuSans-48"/>
       <use x="127.246094" xlink:href="#DejaVuSans-48"/>
      </g>
     </g>
    </g>
    <g id="xtick_6">
     <g id="text_6">
      <!-- 125 -->
      <g transform="translate(603.181223 366.30265)scale(0.08 -0.08)">
       <use xlink:href="#DejaVuSans-49"/>
       <use x="63.623047" xlink:href="#DejaVuSans-50"/>
       <use x="127.246094" xlink:href="#DejaVuSans-53"/>
      </g>
     </g>
    </g>
    <g id="xtick_7">
     <g id="text_7">
      <!-- 150 -->
      <g transform="translate(716.206343 366.30265)scale(0.08 -0.08)">
       <use xlink:href="#DejaVuSans-49"/>
       <use x="63.623047" xlink:href="#DejaVuSans-53"/>
       <use x="127.246094" xlink:href="#DejaVuSans-48"/>
      </g>
     </g>
    </g>
    <g id="xtick_8">
     <g id="text_8">
      <!-- 175 -->
      <g transform="translate(829.231462 366.30265)scale(0.08 -0.08)">
       <use xlink:href="#DejaVuSans-49"/>
       <use x="63.623047" xlink:href="#DejaVuSans-55"/>
       <use x="127.246094" xlink:href="#DejaVuSans-53"/>
      </g>
     </g>
    </g>
    <g id="xtick_9">
     <g id="text_9">
      <!-- 200 -->
      <g transform="translate(942.256582 366.30265)scale(0.08 -0.08)">
       <use xlink:href="#DejaVuSans-50"/>
       <use x="63.623047" xlink:href="#DejaVuSans-48"/>
       <use x="127.246094" xlink:href="#DejaVuSans-48"/>
      </g>
     </g>
    </g>
    <g id="text_10">
     <!-- Total molecules (including duplicates) -->
     <defs>
      <path d="M -0.296875 72.90625 
L 61.375 72.90625 
L 61.375 64.59375 
L 35.5 64.59375 
L 35.5 0 
L 25.59375 0 
L 25.59375 64.59375 
L -0.296875 64.59375 
z
" id="DejaVuSans-84"/>
      <path d="M 30.609375 48.390625 
Q 23.390625 48.390625 19.1875 42.75 
Q 14.984375 37.109375 14.984375 27.296875 
Q 14.984375 17.484375 19.15625 11.84375 
Q 23.34375 6.203125 30.609375 6.203125 
Q 37.796875 6.203125 41.984375 11.859375 
Q 46.1875 17.53125 46.1875 27.296875 
Q 46.1875 37.015625 41.984375 42.703125 
Q 37.796875 48.390625 30.609375 48.390625 
z
M 30.609375 56 
Q 42.328125 56 49.015625 48.375 
Q 55.71875 40.765625 55.71875 27.296875 
Q 55.71875 13.875 49.015625 6.21875 
Q 42.328125 -1.421875 30.609375 -1.421875 
Q 18.84375 -1.421875 12.171875 6.21875 
Q 5.515625 13.875 5.515625 27.296875 
Q 5.515625 40.765625 12.171875 48.375 
Q 18.84375 56 30.609375 56 
z
" id="DejaVuSans-111"/>
      <path d="M 18.3125 70.21875 
L 18.3125 54.6875 
L 36.8125 54.6875 
L 36.8125 47.703125 
L 18.3125 47.703125 
L 18.3125 18.015625 
Q 18.3125 11.328125 20.140625 9.421875 
Q 21.96875 7.515625 27.59375 7.515625 
L 36.8125 7.515625 
L 36.8125 0 
L 27.59375 0 
Q 17.1875 0 13.234375 3.875 
Q 9.28125 7.765625 9.28125 18.015625 
L 9.28125 47.703125 
L 2.6875 47.703125 
L 2.6875 54.6875 
L 9.28125 54.6875 
L 9.28125 70.21875 
z
" id="DejaVuSans-116"/>
      <path d="M 34.28125 27.484375 
Q 23.390625 27.484375 19.1875 25 
Q 14.984375 22.515625 14.984375 16.5 
Q 14.984375 11.71875 18.140625 8.90625 
Q 21.296875 6.109375 26.703125 6.109375 
Q 34.1875 6.109375 38.703125 11.40625 
Q 43.21875 16.703125 43.21875 25.484375 
L 43.21875 27.484375 
z
M 52.203125 31.203125 
L 52.203125 0 
L 43.21875 0 
L 43.21875 8.296875 
Q 40.140625 3.328125 35.546875 0.953125 
Q 30.953125 -1.421875 24.3125 -1.421875 
Q 15.921875 -1.421875 10.953125 3.296875 
Q 6 8.015625 6 15.921875 
Q 6 25.140625 12.171875 29.828125 
Q 18.359375 34.515625 30.609375 34.515625 
L 43.21875 34.515625 
L 43.21875 35.40625 
Q 43.21875 41.609375 39.140625 45 
Q 35.0625 48.390625 27.6875 48.390625 
Q 23 48.390625 18.546875 47.265625 
Q 14.109375 46.140625 10.015625 43.890625 
L 10.015625 52.203125 
Q 14.9375 54.109375 19.578125 55.046875 
Q 24.21875 56 28.609375 56 
Q 40.484375 56 46.34375 49.84375 
Q 52.203125 43.703125 52.203125 31.203125 
z
" id="DejaVuSans-97"/>
      <path d="M 9.421875 75.984375 
L 18.40625 75.984375 
L 18.40625 0 
L 9.421875 0 
z
" id="DejaVuSans-108"/>
      <path id="DejaVuSans-32"/>
      <path d="M 52 44.1875 
Q 55.375 50.25 60.0625 53.125 
Q 64.75 56 71.09375 56 
Q 79.640625 56 84.28125 50.015625 
Q 88.921875 44.046875 88.921875 33.015625 
L 88.921875 0 
L 79.890625 0 
L 79.890625 32.71875 
Q 79.890625 40.578125 77.09375 44.375 
Q 74.3125 48.1875 68.609375 48.1875 
Q 61.625 48.1875 57.5625 43.546875 
Q 53.515625 38.921875 53.515625 30.90625 
L 53.515625 0 
L 44.484375 0 
L 44.484375 32.71875 
Q 44.484375 40.625 41.703125 44.40625 
Q 38.921875 48.1875 33.109375 48.1875 
Q 26.21875 48.1875 22.15625 43.53125 
Q 18.109375 38.875 18.109375 30.90625 
L 18.109375 0 
L 9.078125 0 
L 9.078125 54.6875 
L 18.109375 54.6875 
L 18.109375 46.1875 
Q 21.1875 51.21875 25.484375 53.609375 
Q 29.78125 56 35.6875 56 
Q 41.65625 56 45.828125 52.96875 
Q 50 49.953125 52 44.1875 
z
" id="DejaVuSans-109"/>
      <path d="M 56.203125 29.59375 
L 56.203125 25.203125 
L 14.890625 25.203125 
Q 15.484375 15.921875 20.484375 11.0625 
Q 25.484375 6.203125 34.421875 6.203125 
Q 39.59375 6.203125 44.453125 7.46875 
Q 49.3125 8.734375 54.109375 11.28125 
L 54.109375 2.78125 
Q 49.265625 0.734375 44.1875 -0.34375 
Q 39.109375 -1.421875 33.890625 -1.421875 
Q 20.796875 -1.421875 13.15625 6.1875 
Q 5.515625 13.8125 5.515625 26.8125 
Q 5.515625 40.234375 12.765625 48.109375 
Q 20.015625 56 32.328125 56 
Q 43.359375 56 49.78125 48.890625 
Q 56.203125 41.796875 56.203125 29.59375 
z
M 47.21875 32.234375 
Q 47.125 39.59375 43.09375 43.984375 
Q 39.0625 48.390625 32.421875 48.390625 
Q 24.90625 48.390625 20.390625 44.140625 
Q 15.875 39.890625 15.1875 32.171875 
z
" id="DejaVuSans-101"/>
      <path d="M 48.78125 52.59375 
L 48.78125 44.1875 
Q 44.96875 46.296875 41.140625 47.34375 
Q 37.3125 48.390625 33.40625 48.390625 
Q 24.65625 48.390625 19.8125 42.84375 
Q 14.984375 37.3125 14.984375 27.296875 
Q 14.984375 17.28125 19.8125 11.734375 
Q 24.65625 6.203125 33.40625 6.203125 
Q 37.3125 6.203125 41.140625 7.25 
Q 44.96875 8.296875 48.78125 10.40625 
L 48.78125 2.09375 
Q 45.015625 0.34375 40.984375 -0.53125 
Q 36.96875 -1.421875 32.421875 -1.421875 
Q 20.0625 -1.421875 12.78125 6.34375 
Q 5.515625 14.109375 5.515625 27.296875 
Q 5.515625 40.671875 12.859375 48.328125 
Q 20.21875 56 33.015625 56 
Q 37.15625 56 41.109375 55.140625 
Q 45.0625 54.296875 48.78125 52.59375 
z
" id="DejaVuSans-99"/>
      <path d="M 8.5 21.578125 
L 8.5 54.6875 
L 17.484375 54.6875 
L 17.484375 21.921875 
Q 17.484375 14.15625 20.5 10.265625 
Q 23.53125 6.390625 29.59375 6.390625 
Q 36.859375 6.390625 41.078125 11.03125 
Q 45.3125 15.671875 45.3125 23.6875 
L 45.3125 54.6875 
L 54.296875 54.6875 
L 54.296875 0 
L 45.3125 0 
L 45.3125 8.40625 
Q 42.046875 3.421875 37.71875 1 
Q 33.40625 -1.421875 27.6875 -1.421875 
Q 18.265625 -1.421875 13.375 4.4375 
Q 8.5 10.296875 8.5 21.578125 
z
M 31.109375 56 
z
" id="DejaVuSans-117"/>
      <path d="M 44.28125 53.078125 
L 44.28125 44.578125 
Q 40.484375 46.53125 36.375 47.5 
Q 32.28125 48.484375 27.875 48.484375 
Q 21.1875 48.484375 17.84375 46.4375 
Q 14.5 44.390625 14.5 40.28125 
Q 14.5 37.15625 16.890625 35.375 
Q 19.28125 33.59375 26.515625 31.984375 
L 29.59375 31.296875 
Q 39.15625 29.25 43.1875 25.515625 
Q 47.21875 21.78125 47.21875 15.09375 
Q 47.21875 7.46875 41.1875 3.015625 
Q 35.15625 -1.421875 24.609375 -1.421875 
Q 20.21875 -1.421875 15.453125 -0.5625 
Q 10.6875 0.296875 5.421875 2 
L 5.421875 11.28125 
Q 10.40625 8.6875 15.234375 7.390625 
Q 20.0625 6.109375 24.8125 6.109375 
Q 31.15625 6.109375 34.5625 8.28125 
Q 37.984375 10.453125 37.984375 14.40625 
Q 37.984375 18.0625 35.515625 20.015625 
Q 33.0625 21.96875 24.703125 23.78125 
L 21.578125 24.515625 
Q 13.234375 26.265625 9.515625 29.90625 
Q 5.8125 33.546875 5.8125 39.890625 
Q 5.8125 47.609375 11.28125 51.796875 
Q 16.75 56 26.8125 56 
Q 31.78125 56 36.171875 55.265625 
Q 40.578125 54.546875 44.28125 53.078125 
z
" id="DejaVuSans-115"/>
      <path d="M 31 75.875 
Q 24.46875 64.65625 21.28125 53.65625 
Q 18.109375 42.671875 18.109375 31.390625 
Q 18.109375 20.125 21.3125 9.0625 
Q 24.515625 -2 31 -13.1875 
L 23.1875 -13.1875 
Q 15.875 -1.703125 12.234375 9.375 
Q 8.59375 20.453125 8.59375 31.390625 
Q 8.59375 42.28125 12.203125 53.3125 
Q 15.828125 64.359375 23.1875 75.875 
z
" id="DejaVuSans-40"/>
      <path d="M 9.421875 54.6875 
L 18.40625 54.6875 
L 18.40625 0 
L 9.421875 0 
z
M 9.421875 75.984375 
L 18.40625 75.984375 
L 18.40625 64.59375 
L 9.421875 64.59375 
z
" id="DejaVuSans-105"/>
      <path d="M 54.890625 33.015625 
L 54.890625 0 
L 45.90625 0 
L 45.90625 32.71875 
Q 45.90625 40.484375 42.875 44.328125 
Q 39.84375 48.1875 33.796875 48.1875 
Q 26.515625 48.1875 22.3125 43.546875 
Q 18.109375 38.921875 18.109375 30.90625 
L 18.109375 0 
L 9.078125 0 
L 9.078125 54.6875 
L 18.109375 54.6875 
L 18.109375 46.1875 
Q 21.34375 51.125 25.703125 53.5625 
Q 30.078125 56 35.796875 56 
Q 45.21875 56 50.046875 50.171875 
Q 54.890625 44.34375 54.890625 33.015625 
z
" id="DejaVuSans-110"/>
      <path d="M 45.40625 46.390625 
L 45.40625 75.984375 
L 54.390625 75.984375 
L 54.390625 0 
L 45.40625 0 
L 45.40625 8.203125 
Q 42.578125 3.328125 38.25 0.953125 
Q 33.9375 -1.421875 27.875 -1.421875 
Q 17.96875 -1.421875 11.734375 6.484375 
Q 5.515625 14.40625 5.515625 27.296875 
Q 5.515625 40.1875 11.734375 48.09375 
Q 17.96875 56 27.875 56 
Q 33.9375 56 38.25 53.625 
Q 42.578125 51.265625 45.40625 46.390625 
z
M 14.796875 27.296875 
Q 14.796875 17.390625 18.875 11.75 
Q 22.953125 6.109375 30.078125 6.109375 
Q 37.203125 6.109375 41.296875 11.75 
Q 45.40625 17.390625 45.40625 27.296875 
Q 45.40625 37.203125 41.296875 42.84375 
Q 37.203125 48.484375 30.078125 48.484375 
Q 22.953125 48.484375 18.875 42.84375 
Q 14.796875 37.203125 14.796875 27.296875 
z
" id="DejaVuSans-100"/>
      <path d="M 45.40625 27.984375 
Q 45.40625 37.75 41.375 43.109375 
Q 37.359375 48.484375 30.078125 48.484375 
Q 22.859375 48.484375 18.828125 43.109375 
Q 14.796875 37.75 14.796875 27.984375 
Q 14.796875 18.265625 18.828125 12.890625 
Q 22.859375 7.515625 30.078125 7.515625 
Q 37.359375 7.515625 41.375 12.890625 
Q 45.40625 18.265625 45.40625 27.984375 
z
M 54.390625 6.78125 
Q 54.390625 -7.171875 48.1875 -13.984375 
Q 42 -20.796875 29.203125 -20.796875 
Q 24.46875 -20.796875 20.265625 -20.09375 
Q 16.0625 -19.390625 12.109375 -17.921875 
L 12.109375 -9.1875 
Q 16.0625 -11.328125 19.921875 -12.34375 
Q 23.78125 -13.375 27.78125 -13.375 
Q 36.625 -13.375 41.015625 -8.765625 
Q 45.40625 -4.15625 45.40625 5.171875 
L 45.40625 9.625 
Q 42.625 4.78125 38.28125 2.390625 
Q 33.9375 0 27.875 0 
Q 17.828125 0 11.671875 7.65625 
Q 5.515625 15.328125 5.515625 27.984375 
Q 5.515625 40.671875 11.671875 48.328125 
Q 17.828125 56 27.875 56 
Q 33.9375 56 38.28125 53.609375 
Q 42.625 51.21875 45.40625 46.390625 
L 45.40625 54.6875 
L 54.390625 54.6875 
z
" id="DejaVuSans-103"/>
      <path d="M 18.109375 8.203125 
L 18.109375 -20.796875 
L 9.078125 -20.796875 
L 9.078125 54.6875 
L 18.109375 54.6875 
L 18.109375 46.390625 
Q 20.953125 51.265625 25.265625 53.625 
Q 29.59375 56 35.59375 56 
Q 45.5625 56 51.78125 48.09375 
Q 58.015625 40.1875 58.015625 27.296875 
Q 58.015625 14.40625 51.78125 6.484375 
Q 45.5625 -1.421875 35.59375 -1.421875 
Q 29.59375 -1.421875 25.265625 0.953125 
Q 20.953125 3.328125 18.109375 8.203125 
z
M 48.6875 27.296875 
Q 48.6875 37.203125 44.609375 42.84375 
Q 40.53125 48.484375 33.40625 48.484375 
Q 26.265625 48.484375 22.1875 42.84375 
Q 18.109375 37.203125 18.109375 27.296875 
Q 18.109375 17.390625 22.1875 11.75 
Q 26.265625 6.109375 33.40625 6.109375 
Q 40.53125 6.109375 44.609375 11.75 
Q 48.6875 17.390625 48.6875 27.296875 
z
" id="DejaVuSans-112"/>
      <path d="M 8.015625 75.875 
L 15.828125 75.875 
Q 23.140625 64.359375 26.78125 53.3125 
Q 30.421875 42.28125 30.421875 31.390625 
Q 30.421875 20.453125 26.78125 9.375 
Q 23.140625 -1.703125 15.828125 -13.1875 
L 8.015625 -13.1875 
Q 14.5 -2 17.703125 9.0625 
Q 20.90625 20.125 20.90625 31.390625 
Q 20.90625 42.671875 17.703125 53.65625 
Q 14.5 64.65625 8.015625 75.875 
z
" id="DejaVuSans-41"/>
     </defs>
     <g transform="translate(423.048906 379.564837)scale(0.1 -0.1)">
      <use xlink:href="#DejaVuSans-84"/>
      <use x="60.818359" xlink:href="#DejaVuSans-111"/>
      <use x="122" xlink:href="#DejaVuSans-116"/>
      <use x="161.208984" xlink:href="#DejaVuSans-97"/>
      <use x="222.488281" xlink:href="#DejaVuSans-108"/>
      <use x="250.271484" xlink:href="#DejaVuSans-32"/>
      <use x="282.058594" xlink:href="#DejaVuSans-109"/>
      <use x="379.470703" xlink:href="#DejaVuSans-111"/>
      <use x="440.652344" xlink:href="#DejaVuSans-108"/>
      <use x="468.435547" xlink:href="#DejaVuSans-101"/>
      <use x="529.958984" xlink:href="#DejaVuSans-99"/>
      <use x="584.939453" xlink:href="#DejaVuSans-117"/>
      <use x="648.318359" xlink:href="#DejaVuSans-108"/>
      <use x="676.101562" xlink:href="#DejaVuSans-101"/>
      <use x="737.625" xlink:href="#DejaVuSans-115"/>
      <use x="789.724609" xlink:href="#DejaVuSans-32"/>
      <use x="821.511719" xlink:href="#DejaVuSans-40"/>
      <use x="860.525391" xlink:href="#DejaVuSans-105"/>
      <use x="888.308594" xlink:href="#DejaVuSans-110"/>
      <use x="951.6875" xlink:href="#DejaVuSans-99"/>
      <use x="1006.667969" xlink:href="#DejaVuSans-108"/>
      <use x="1034.451172" xlink:href="#DejaVuSans-117"/>
      <use x="1097.830078" xlink:href="#DejaVuSans-100"/>
      <use x="1161.306641" xlink:href="#DejaVuSans-105"/>
      <use x="1189.089844" xlink:href="#DejaVuSans-110"/>
      <use x="1252.46875" xlink:href="#DejaVuSans-103"/>
      <use x="1315.945312" xlink:href="#DejaVuSans-32"/>
      <use x="1347.732422" xlink:href="#DejaVuSans-100"/>
      <use x="1411.208984" xlink:href="#DejaVuSans-117"/>
      <use x="1474.587891" xlink:href="#DejaVuSans-112"/>
      <use x="1538.064453" xlink:href="#DejaVuSans-108"/>
      <use x="1565.847656" xlink:href="#DejaVuSans-105"/>
      <use x="1593.630859" xlink:href="#DejaVuSans-99"/>
      <use x="1648.611328" xlink:href="#DejaVuSans-97"/>
      <use x="1709.890625" xlink:href="#DejaVuSans-116"/>
      <use x="1749.099609" xlink:href="#DejaVuSans-101"/>
      <use x="1810.623047" xlink:href="#DejaVuSans-115"/>
      <use x="1862.722656" xlink:href="#DejaVuSans-41"/>
     </g>
    </g>
   </g>
   <g id="matplotlib.axis_2">
    <g id="ytick_1">
     <g id="line2d_1">
      <path clip-path="url(#p43b1b6c7cd)" d="M 45.690625 353.2239 
L 990.580625 353.2239 
" style="fill:none;stroke:#dedede;stroke-linecap:square;"/>
     </g>
     <g id="text_11">
      <!-- 0.0 -->
      <defs>
       <path d="M 10.6875 12.40625 
L 21 12.40625 
L 21 0 
L 10.6875 0 
z
" id="DejaVuSans-46"/>
      </defs>
      <g transform="translate(25.968125 356.263275)scale(0.08 -0.08)">
       <use xlink:href="#DejaVuSans-48"/>
       <use x="63.623047" xlink:href="#DejaVuSans-46"/>
       <use x="95.410156" xlink:href="#DejaVuSans-48"/>
      </g>
     </g>
    </g>
    <g id="ytick_2">
     <g id="line2d_2">
      <path clip-path="url(#p43b1b6c7cd)" d="M 45.690625 309.306937 
L 990.580625 309.306937 
" style="fill:none;stroke:#dedede;stroke-linecap:square;"/>
     </g>
     <g id="text_12">
      <!-- 2.5 -->
      <g transform="translate(25.968125 312.346312)scale(0.08 -0.08)">
       <use xlink:href="#DejaVuSans-50"/>
       <use x="63.623047" xlink:href="#DejaVuSans-46"/>
       <use x="95.410156" xlink:href="#DejaVuSans-53"/>
      </g>
     </g>
    </g>
    <g id="ytick_3">
     <g id="line2d_3">
      <path clip-path="url(#p43b1b6c7cd)" d="M 45.690625 265.389975 
L 990.580625 265.389975 
" style="fill:none;stroke:#dedede;stroke-linecap:square;"/>
     </g>
     <g id="text_13">
      <!-- 5.0 -->
      <g transform="translate(25.968125 268.42935)scale(0.08 -0.08)">
       <use xlink:href="#DejaVuSans-53"/>
       <use x="63.623047" xlink:href="#DejaVuSans-46"/>
       <use x="95.410156" xlink:href="#DejaVuSans-48"/>
      </g>
     </g>
    </g>
    <g id="ytick_4">
     <g id="line2d_4">
      <path clip-path="url(#p43b1b6c7cd)" d="M 45.690625 221.473012 
L 990.580625 221.473012 
" style="fill:none;stroke:#dedede;stroke-linecap:square;"/>
     </g>
     <g id="text_14">
      <!-- 7.5 -->
      <g transform="translate(25.968125 224.512387)scale(0.08 -0.08)">
       <use xlink:href="#DejaVuSans-55"/>
       <use x="63.623047" xlink:href="#DejaVuSans-46"/>
       <use x="95.410156" xlink:href="#DejaVuSans-53"/>
      </g>
     </g>
    </g>
    <g id="ytick_5">
     <g id="line2d_5">
      <path clip-path="url(#p43b1b6c7cd)" d="M 45.690625 177.556049 
L 990.580625 177.556049 
" style="fill:none;stroke:#dedede;stroke-linecap:square;"/>
     </g>
     <g id="text_15">
      <!-- 10.0 -->
      <g transform="translate(20.878125 180.595424)scale(0.08 -0.08)">
       <use xlink:href="#DejaVuSans-49"/>
       <use x="63.623047" xlink:href="#DejaVuSans-48"/>
       <use x="127.246094" xlink:href="#DejaVuSans-46"/>
       <use x="159.033203" xlink:href="#DejaVuSans-48"/>
      </g>
     </g>
    </g>
    <g id="ytick_6">
     <g id="line2d_6">
      <path clip-path="url(#p43b1b6c7cd)" d="M 45.690625 133.639087 
L 990.580625 133.639087 
" style="fill:none;stroke:#dedede;stroke-linecap:square;"/>
     </g>
     <g id="text_16">
      <!-- 12.5 -->
      <g transform="translate(20.878125 136.678462)scale(0.08 -0.08)">
       <use xlink:href="#DejaVuSans-49"/>
       <use x="63.623047" xlink:href="#DejaVuSans-50"/>
       <use x="127.246094" xlink:href="#DejaVuSans-46"/>
       <use x="159.033203" xlink:href="#DejaVuSans-53"/>
      </g>
     </g>
    </g>
    <g id="ytick_7">
     <g id="line2d_7">
      <path clip-path="url(#p43b1b6c7cd)" d="M 45.690625 89.722124 
L 990.580625 89.722124 
" style="fill:none;stroke:#dedede;stroke-linecap:square;"/>
     </g>
     <g id="text_17">
      <!-- 15.0 -->
      <g transform="translate(20.878125 92.761499)scale(0.08 -0.08)">
       <use xlink:href="#DejaVuSans-49"/>
       <use x="63.623047" xlink:href="#DejaVuSans-53"/>
       <use x="127.246094" xlink:href="#DejaVuSans-46"/>
       <use x="159.033203" xlink:href="#DejaVuSans-48"/>
      </g>
     </g>
    </g>
    <g id="ytick_8">
     <g id="line2d_8">
      <path clip-path="url(#p43b1b6c7cd)" d="M 45.690625 45.805162 
L 990.580625 45.805162 
" style="fill:none;stroke:#dedede;stroke-linecap:square;"/>
     </g>
     <g id="text_18">
      <!-- 17.5 -->
      <g transform="translate(20.878125 48.844537)scale(0.08 -0.08)">
       <use xlink:href="#DejaVuSans-49"/>
       <use x="63.623047" xlink:href="#DejaVuSans-55"/>
       <use x="127.246094" xlink:href="#DejaVuSans-46"/>
       <use x="159.033203" xlink:href="#DejaVuSans-53"/>
      </g>
     </g>
    </g>
    <g id="text_19">
     <!-- Unique molecules -->
     <defs>
      <path d="M 8.6875 72.90625 
L 18.609375 72.90625 
L 18.609375 28.609375 
Q 18.609375 16.890625 22.84375 11.734375 
Q 27.09375 6.59375 36.625 6.59375 
Q 46.09375 6.59375 50.34375 11.734375 
Q 54.59375 16.890625 54.59375 28.609375 
L 54.59375 72.90625 
L 64.5 72.90625 
L 64.5 27.390625 
Q 64.5 13.140625 57.4375 5.859375 
Q 50.390625 -1.421875 36.625 -1.421875 
Q 22.796875 -1.421875 15.734375 5.859375 
Q 8.6875 13.140625 8.6875 27.390625 
z
" id="DejaVuSans-85"/>
      <path d="M 14.796875 27.296875 
Q 14.796875 17.390625 18.875 11.75 
Q 22.953125 6.109375 30.078125 6.109375 
Q 37.203125 6.109375 41.296875 11.75 
Q 45.40625 17.390625 45.40625 27.296875 
Q 45.40625 37.203125 41.296875 42.84375 
Q 37.203125 48.484375 30.078125 48.484375 
Q 22.953125 48.484375 18.875 42.84375 
Q 14.796875 37.203125 14.796875 27.296875 
z
M 45.40625 8.203125 
Q 42.578125 3.328125 38.25 0.953125 
Q 33.9375 -1.421875 27.875 -1.421875 
Q 17.96875 -1.421875 11.734375 6.484375 
Q 5.515625 14.40625 5.515625 27.296875 
Q 5.515625 40.1875 11.734375 48.09375 
Q 17.96875 56 27.875 56 
Q 33.9375 56 38.25 53.625 
Q 42.578125 51.265625 45.40625 46.390625 
L 45.40625 54.6875 
L 54.390625 54.6875 
L 54.390625 -20.796875 
L 45.40625 -20.796875 
z
" id="DejaVuSans-113"/>
     </defs>
     <g transform="translate(14.798438 238.849275)rotate(-90)scale(0.1 -0.1)">
      <use xlink:href="#DejaVuSans-85"/>
      <use x="73.193359" xlink:href="#DejaVuSans-110"/>
      <use x="136.572266" xlink:href="#DejaVuSans-105"/>
      <use x="164.355469" xlink:href="#DejaVuSans-113"/>
      <use x="227.832031" xlink:href="#DejaVuSans-117"/>
      <use x="291.210938" xlink:href="#DejaVuSans-101"/>
      <use x="352.734375" xlink:href="#DejaVuSans-32"/>
      <use x="384.521484" xlink:href="#DejaVuSans-109"/>
      <use x="481.933594" xlink:href="#DejaVuSans-111"/>
      <use x="543.115234" xlink:href="#DejaVuSans-108"/>
      <use x="570.898438" xlink:href="#DejaVuSans-101"/>
      <use x="632.421875" xlink:href="#DejaVuSans-99"/>
      <use x="687.402344" xlink:href="#DejaVuSans-117"/>
      <use x="750.78125" xlink:href="#DejaVuSans-108"/>
      <use x="778.564453" xlink:href="#DejaVuSans-101"/>
      <use x="840.087891" xlink:href="#DejaVuSans-115"/>
     </g>
    </g>
   </g>
   <g id="line2d_9">
    <path clip-path="url(#p43b1b6c7cd)" d="M 45.690625 353.2239 
L 50.21163 340.808724 
L 54.732635 331.426164 
L 59.253639 323.509059 
L 63.774644 316.60006 
L 68.295649 310.455717 
L 72.816654 304.922198 
L 77.337658 299.892757 
L 81.858663 295.28874 
L 86.379668 291.050278 
L 90.900673 287.129732 
L 95.421678 283.488331 
L 99.942682 280.094718 
L 104.463687 276.922323 
L 108.984692 273.948758 
L 113.505697 271.154849 
L 118.026702 268.524038 
L 122.547706 266.041861 
L 131.589716 261.474382 
L 140.631725 257.366091 
L 149.673735 253.650408 
L 158.715745 250.272764 
L 167.757754 247.190724 
L 176.799764 244.366257 
L 185.841773 241.767618 
L 194.883783 239.369805 
L 203.925792 237.151919 
L 217.488807 234.116908 
L 231.051821 231.384786 
L 244.614836 228.911843 
L 258.17785 226.665508 
L 271.740864 224.611749 
L 289.824883 222.134275 
L 307.908903 219.906707 
L 325.992922 217.899805 
L 348.597946 215.636044 
L 371.202969 213.614962 
L 398.328998 211.449145 
L 425.455027 209.540882 
L 457.10206 207.569093 
L 488.749094 205.818245 
L 524.917132 204.036202 
L 561.08517 202.445275 
L 606.295218 200.691467 
L 651.505266 199.178362 
L 710.278328 197.449062 
L 769.051391 195.960164 
L 836.866462 194.456284 
L 900.160529 193.263873 
L 990.580625 191.784673 
L 990.580625 191.784673 
" style="fill:none;stroke:#7cb5ec;stroke-linecap:square;"/>
   </g>
   <g id="line2d_10">
    <path clip-path="url(#p43b1b6c7cd)" d="M 45.690625 353.2239 
L 50.21163 339.976366 
L 54.732635 329.45958 
L 59.253639 320.254953 
L 63.774644 311.955578 
L 68.295649 304.349108 
L 72.816654 297.302763 
L 77.337658 290.724757 
L 81.858663 284.547827 
L 86.379668 278.720266 
L 90.900673 273.20123 
L 95.421678 267.957598 
L 99.942682 262.961762 
L 104.463687 258.190649 
L 108.984692 253.624822 
L 113.505697 249.247294 
L 118.026702 245.043413 
L 122.547706 241.000277 
L 131.589716 233.351839 
L 140.631725 226.224722 
L 149.673735 219.556581 
L 158.715745 213.296201 
L 167.757754 207.401683 
L 176.799764 201.836245 
L 185.841773 196.567859 
L 194.883783 191.57017 
L 203.925792 186.820215 
L 212.967802 182.297787 
L 222.009812 177.987191 
L 231.051821 173.869198 
L 240.093831 169.93016 
L 253.656845 164.331301 
L 267.219859 159.067391 
L 280.782874 154.107218 
L 294.345888 149.424168 
L 307.908903 144.998597 
L 321.471917 140.799412 
L 335.034931 136.804948 
L 348.597946 133.018941 
L 366.681965 128.239684 
L 380.244979 124.845214 
L 398.328998 120.56409 
L 416.413017 116.512808 
L 434.497036 112.69045 
L 457.10206 108.195731 
L 479.707084 104.012735 
L 502.312108 100.066967 
L 520.396127 97.081052 
L 543.001151 93.54859 
L 565.606175 90.227501 
L 592.732204 86.46737 
L 619.858233 82.961601 
L 651.505266 79.146148 
L 683.1523 75.581784 
L 710.278328 72.723279 
L 741.925362 69.575899 
L 778.0934 66.212872 
L 814.261438 63.075154 
L 854.950481 59.799284 
L 895.639525 56.74737 
L 940.849572 53.598204 
L 986.05962 50.677677 
L 990.580625 50.397233 
L 990.580625 50.397233 
" style="fill:none;stroke:#434348;stroke-linecap:square;"/>
   </g>
   <g id="line2d_11">
    <path clip-path="url(#p43b1b6c7cd)" d="M 45.690625 353.2239 
L 50.21163 340.154607 
L 54.732635 330.086933 
L 59.253639 321.46779 
L 63.774644 313.827372 
L 68.295649 306.923494 
L 72.816654 300.606012 
L 77.337658 294.771556 
L 81.858663 289.34515 
L 86.379668 284.269877 
L 90.900673 279.500627 
L 95.421678 275.002686 
L 99.942682 270.746764 
L 104.463687 266.708573 
L 108.984692 262.867551 
L 113.505697 259.206054 
L 118.026702 255.708937 
L 122.547706 252.362991 
L 131.589716 246.078694 
L 140.631725 240.276991 
L 149.673735 234.89567 
L 158.715745 229.883075 
L 167.757754 225.197645 
L 176.799764 220.803544 
L 185.841773 216.671609 
L 194.883783 212.774999 
L 203.925792 209.092694 
L 212.967802 205.60717 
L 222.009812 202.303427 
L 235.572826 197.642602 
L 249.13584 193.308625 
L 262.698855 189.278838 
L 276.261869 185.51045 
L 289.824883 181.9774 
L 303.387898 178.669316 
L 321.471917 174.544194 
L 339.555936 170.724281 
L 357.639955 167.177832 
L 375.723974 163.860453 
L 393.807993 160.765785 
L 416.413017 157.189291 
L 439.018041 153.867166 
L 461.623065 150.787334 
L 488.749094 147.379747 
L 511.354118 144.750019 
L 538.480147 141.82807 
L 565.606175 139.114411 
L 597.253209 136.177798 
L 628.900242 133.477344 
L 665.068281 130.645749 
L 701.236319 128.038913 
L 741.925362 125.357472 
L 782.614405 122.898438 
L 827.824453 120.403354 
L 873.034501 118.123036 
L 922.765553 115.831041 
L 977.017611 113.57265 
L 990.580625 113.040925 
L 990.580625 113.040925 
" style="fill:none;stroke:#90ed7d;stroke-linecap:square;"/>
   </g>
   <g id="line2d_12">
    <path clip-path="url(#p43b1b6c7cd)" d="M 45.690625 353.2239 
L 50.21163 339.702219 
L 54.732635 329.07954 
L 59.253639 319.877548 
L 63.774644 311.642977 
L 68.295649 304.139307 
L 72.816654 297.21954 
L 77.337658 290.783263 
L 81.858663 284.756951 
L 86.379668 279.085102 
L 90.900673 273.724334 
L 95.421678 268.639514 
L 99.942682 263.801823 
L 104.463687 259.18724 
L 108.984692 254.775262 
L 113.505697 250.548957 
L 118.026702 246.492813 
L 127.068711 238.839826 
L 136.110721 231.728501 
L 145.15273 225.089328 
L 154.19474 218.866171 
L 163.236749 213.012848 
L 172.278759 207.49065 
L 181.320769 202.266526 
L 190.362778 197.314064 
L 199.404788 192.606923 
L 208.446797 188.125218 
L 217.488807 183.850949 
L 226.530816 179.768003 
L 235.572826 175.862105 
L 249.13584 170.307764 
L 262.698855 165.085972 
L 276.261869 160.161217 
L 289.824883 155.508714 
L 303.387898 151.106043 
L 316.950912 146.932319 
L 330.513926 142.967499 
L 344.076941 139.193344 
L 357.639955 135.595835 
L 375.723974 131.04712 
L 393.807993 126.773448 
L 411.892013 122.745495 
L 429.976032 118.933128 
L 448.060051 115.326852 
L 466.14407 111.902321 
L 488.749094 107.844533 
L 511.354118 104.035946 
L 533.959142 100.446864 
L 561.08517 96.415059 
L 588.211199 92.650632 
L 615.337228 89.112616 
L 642.463257 85.789374 
L 674.11029 82.159857 
L 705.757324 78.779433 
L 737.404357 75.618529 
L 773.572395 72.22824 
L 809.740434 69.056846 
L 850.429477 65.734439 
L 891.11852 62.645189 
L 931.807563 59.769066 
L 977.017611 56.794294 
L 990.580625 55.943385 
L 990.580625 55.943385 
" style="fill:none;stroke:#f7a35c;stroke-linecap:square;"/>
   </g>
   <g id="line2d_13">
    <path clip-path="url(#p43b1b6c7cd)" d="M 45.690625 353.2239 
L 50.21163 339.622878 
L 54.732635 328.893156 
L 59.253639 319.610533 
L 63.774644 311.322744 
L 68.295649 303.789439 
L 72.816654 296.859816 
L 77.337658 290.430232 
L 81.858663 284.425255 
L 86.379668 278.787011 
L 90.900673 273.470151 
L 95.421678 268.438032 
L 99.942682 263.661061 
L 104.463687 259.113951 
L 108.984692 254.775175 
L 113.505697 250.626524 
L 118.026702 246.652355 
L 122.547706 242.838878 
L 131.589716 235.647238 
L 140.631725 228.970595 
L 149.673735 222.743433 
L 158.715745 216.912806 
L 167.757754 211.439462 
L 176.799764 206.284118 
L 185.841773 201.414934 
L 194.883783 196.803747 
L 203.925792 192.427366 
L 212.967802 188.2663 
L 222.009812 184.303358 
L 231.051821 180.522965 
L 240.093831 176.91131 
L 253.656845 171.789113 
L 267.219859 166.979158 
L 280.782874 162.458332 
L 294.345888 158.196282 
L 307.908903 154.178822 
L 321.471917 150.369962 
L 335.034931 146.765646 
L 353.11895 142.247284 
L 366.681965 139.054509 
L 384.765984 135.032665 
L 402.850003 131.24079 
L 420.934022 127.666448 
L 439.018041 124.286975 
L 457.10206 121.105368 
L 479.707084 117.333121 
L 502.312108 113.812164 
L 529.438137 109.869296 
L 556.564166 106.217601 
L 583.690194 102.792137 
L 610.816223 99.60297 
L 637.942252 96.611907 
L 669.589285 93.358475 
L 701.236319 90.32981 
L 737.404357 87.114813 
L 773.572395 84.121526 
L 809.740434 81.340684 
L 850.429477 78.442033 
L 891.11852 75.754057 
L 936.328568 72.983581 
L 986.05962 70.163531 
L 990.580625 69.917422 
L 990.580625 69.917422 
" style="fill:none;stroke:#8085e9;stroke-linecap:square;"/>
   </g>
   <g id="line2d_14">
    <path clip-path="url(#p43b1b6c7cd)" d="M 45.690625 353.2239 
L 50.21163 341.887509 
L 54.732635 333.270395 
L 59.253639 325.825135 
L 63.774644 319.168869 
L 68.295649 313.107933 
L 72.816654 307.522152 
L 77.337658 302.330183 
L 81.858663 297.473046 
L 86.379668 292.905867 
L 90.900673 288.59337 
L 95.421678 284.507002 
L 99.942682 280.623241 
L 104.463687 276.922595 
L 108.984692 273.388668 
L 113.505697 270.007237 
L 122.547706 263.654016 
L 131.589716 257.781387 
L 140.631725 252.325372 
L 149.673735 247.234641 
L 158.715745 242.467094 
L 167.757754 237.986949 
L 176.799764 233.765359 
L 185.841773 229.776148 
L 194.883783 225.999049 
L 203.925792 222.415377 
L 212.967802 219.008603 
L 226.530816 214.196361 
L 240.093831 209.708447 
L 253.656845 205.509765 
L 267.219859 201.577514 
L 280.782874 197.876082 
L 294.345888 194.394774 
L 312.429907 190.053148 
L 325.992922 186.994701 
L 344.076941 183.165215 
L 362.16096 179.585377 
L 380.244979 176.216025 
L 398.328998 173.067664 
L 416.413017 170.119321 
L 439.018041 166.638198 
L 461.623065 163.418617 
L 488.749094 159.833714 
L 515.875123 156.506363 
L 538.480147 153.921093 
L 565.606175 151.026216 
L 597.253209 147.880766 
L 628.900242 144.990394 
L 660.547276 142.308369 
L 696.715314 139.475509 
L 732.883352 136.85917 
L 773.572395 134.145446 
L 814.261438 131.646739 
L 850.429477 129.620147 
L 918.244548 126.102657 
L 972.496606 123.562919 
L 990.580625 122.767794 
L 990.580625 122.767794 
" style="fill:none;stroke:#f15c80;stroke-linecap:square;"/>
   </g>
   <g id="line2d_15">
    <path clip-path="url(#p43b1b6c7cd)" d="M 45.690625 353.2239 
L 50.21163 340.233289 
L 54.732635 330.00725 
L 59.253639 321.138448 
L 63.774644 313.200194 
L 68.295649 305.973262 
L 72.816654 299.316478 
L 77.337658 293.132952 
L 81.858663 287.351829 
L 86.379668 281.918036 
L 90.900673 276.790195 
L 95.421678 271.934006 
L 99.942682 267.320889 
L 104.463687 262.927041 
L 108.984692 258.732541 
L 113.505697 254.720147 
L 118.026702 250.875076 
L 127.068711 243.636875 
L 136.110721 236.93058 
L 145.15273 230.688477 
L 154.19474 224.852361 
L 163.236749 219.380228 
L 172.278759 214.231395 
L 181.320769 209.372406 
L 190.362778 204.77455 
L 199.404788 200.41641 
L 208.446797 196.277982 
L 217.488807 192.339476 
L 226.530816 188.584735 
L 235.572826 185.003073 
L 249.13584 179.925682 
L 262.698855 175.167639 
L 276.261869 170.695424 
L 289.824883 166.480606 
L 303.387898 162.508861 
L 316.950912 158.749908 
L 330.513926 155.189047 
L 344.076941 151.810579 
L 362.16096 147.560776 
L 380.244979 143.571556 
L 398.328998 139.825123 
L 416.413017 136.304915 
L 434.497036 132.996912 
L 457.10206 129.126742 
L 475.18608 126.203741 
L 497.791103 122.758067 
L 520.396127 119.535567 
L 547.522156 115.919228 
L 574.648185 112.549666 
L 601.774214 109.408693 
L 628.900242 106.460451 
L 660.547276 103.250871 
L 692.194309 100.28022 
L 728.362347 97.136258 
L 764.530386 94.222371 
L 805.219429 91.176738 
L 845.908472 88.35572 
L 886.597515 85.74916 
L 931.807563 83.062452 
L 977.017611 80.584438 
L 990.580625 79.878256 
L 990.580625 79.878256 
" style="fill:none;stroke:#e4d354;stroke-linecap:square;"/>
   </g>
   <g id="line2d_16">
    <path clip-path="url(#p43b1b6c7cd)" d="M 45.690625 353.2239 
L 50.21163 339.657239 
L 54.732635 328.888835 
L 59.253639 319.530279 
L 63.774644 311.143879 
L 68.295649 303.499174 
L 72.816654 296.450106 
L 77.337658 289.895675 
L 81.858663 283.761889 
L 86.379668 277.991947 
L 90.900673 272.542414 
L 95.421678 267.377463 
L 99.942682 262.466941 
L 104.463687 257.78613 
L 108.984692 253.314084 
L 113.505697 249.032821 
L 118.026702 244.926725 
L 122.547706 240.98228 
L 131.589716 233.531793 
L 140.631725 226.600642 
L 149.673735 220.124331 
L 158.715745 214.050518 
L 167.757754 208.335586 
L 176.799764 202.94285 
L 185.841773 197.841121 
L 194.883783 193.003702 
L 203.925792 188.407453 
L 212.967802 184.03218 
L 222.009812 179.858633 
L 231.051821 175.875186 
L 240.093831 172.062879 
L 253.656845 166.646965 
L 267.219859 161.551837 
L 280.782874 156.750137 
L 294.345888 152.215377 
L 307.908903 147.923616 
L 321.471917 143.849765 
L 335.034931 139.981339 
L 353.11895 135.119132 
L 371.202969 130.550458 
L 389.286989 126.260415 
L 407.371008 122.221613 
L 425.455027 118.412811 
L 448.060051 113.937026 
L 466.14407 110.56008 
L 488.749094 106.564134 
L 511.354118 102.817203 
L 533.959142 99.298358 
L 556.564166 95.98059 
L 583.690194 92.212219 
L 610.816223 88.691939 
L 637.942252 85.390963 
L 669.589285 81.784251 
L 701.236319 78.429856 
L 732.883352 75.289099 
L 769.051391 71.937437 
L 805.219429 68.787005 
L 841.387467 65.843035 
L 882.07651 62.76834 
L 922.765553 59.88371 
L 967.975601 56.92059 
L 990.580625 55.518735 
L 990.580625 55.518735 
" style="fill:none;stroke:#2b908f;stroke-linecap:square;"/>
   </g>
   <g id="line2d_17">
    <path clip-path="url(#p43b1b6c7cd)" d="M 45.690625 353.2239 
L 50.21163 340.453067 
L 54.732635 330.649554 
L 59.253639 322.268581 
L 63.774644 314.851392 
L 68.295649 308.15987 
L 72.816654 302.045522 
L 77.337658 296.40734 
L 81.858663 291.171735 
L 86.379668 286.282512 
L 90.900673 281.695921 
L 95.421678 277.376793 
L 99.942682 273.296152 
L 104.463687 269.429958 
L 108.984692 265.757858 
L 113.505697 262.262507 
L 118.026702 258.928779 
L 122.547706 255.743693 
L 131.589716 249.774622 
L 140.631725 244.27765 
L 149.673735 239.191723 
L 158.715745 234.467005 
L 167.757754 230.062037 
L 176.799764 225.943829 
L 185.841773 222.081051 
L 194.883783 218.448168 
L 203.925792 215.02433 
L 212.967802 211.790769 
L 222.009812 208.731032 
L 235.572826 204.439131 
L 249.13584 200.465106 
L 262.698855 196.771679 
L 276.261869 193.327908 
L 289.824883 190.114281 
L 303.387898 187.098661 
L 316.950912 184.272221 
L 335.034931 180.754901 
L 353.11895 177.49897 
L 371.202969 174.48498 
L 389.286989 171.676086 
L 411.892013 168.433746 
L 434.497036 165.445759 
L 457.10206 162.688426 
L 479.707084 160.140657 
L 506.833113 157.312341 
L 533.959142 154.703004 
L 561.08517 152.301193 
L 592.732204 149.725793 
L 628.900242 147.035608 
L 665.068281 144.591953 
L 701.236319 142.358598 
L 741.925362 140.064527 
L 787.13541 137.751053 
L 832.345458 135.655079 
L 886.597515 133.380699 
L 940.849572 131.335036 
L 990.580625 129.633401 
L 990.580625 129.633401 
" style="fill:none;stroke:#f45b5b;stroke-linecap:square;"/>
   </g>
   <g id="line2d_18">
    <path clip-path="url(#p43b1b6c7cd)" d="M 45.690625 353.2239 
L 50.21163 340.744983 
L 54.732635 331.077761 
L 59.253639 322.694567 
L 63.774644 315.186593 
L 68.295649 308.342697 
L 72.816654 302.032093 
L 77.337658 296.165208 
L 81.858663 290.67665 
L 86.379668 285.516293 
L 90.900673 280.644356 
L 95.421678 276.029562 
L 99.942682 271.645691 
L 104.463687 267.470655 
L 108.984692 263.486253 
L 113.505697 259.675886 
L 118.026702 256.025649 
L 127.068711 249.15946 
L 136.110721 242.803217 
L 145.15273 236.894216 
L 154.19474 231.378676 
L 163.236749 226.212369 
L 172.278759 221.358032 
L 181.320769 216.784047 
L 190.362778 212.465202 
L 199.404788 208.377536 
L 208.446797 204.500893 
L 217.488807 200.818011 
L 226.530816 197.3128 
L 240.093831 192.354162 
L 253.656845 187.728066 
L 267.219859 183.401819 
L 280.782874 179.331419 
L 294.345888 175.504709 
L 307.908903 171.903007 
L 325.992922 167.416301 
L 339.555936 164.256323 
L 357.639955 160.296813 
L 375.723974 156.599495 
L 393.807993 153.123241 
L 411.892013 149.8538 
L 429.976032 146.792409 
L 452.581056 143.207901 
L 475.18608 139.861161 
L 497.791103 136.741061 
L 520.396127 133.823967 
L 547.522156 130.567541 
L 574.648185 127.534302 
L 601.774214 124.729375 
L 637.942252 121.261614 
L 669.589285 118.449292 
L 701.236319 115.839948 
L 737.404357 113.092678 
L 778.0934 110.246622 
L 818.782443 107.629274 
L 863.992491 104.954503 
L 909.202539 102.491689 
L 958.933592 100.004682 
L 990.580625 98.530228 
L 990.580625 98.530228 
" style="fill:none;stroke:#91e8e1;stroke-linecap:square;"/>
   </g>
   <g id="line2d_19">
    <path clip-path="url(#p43b1b6c7cd)" d="M 45.690625 353.2239 
L 50.21163 339.592514 
L 54.732635 328.7966 
L 59.253639 319.413469 
L 63.774644 311.001359 
L 68.295649 303.3273 
L 72.816654 296.245681 
L 77.337658 289.65494 
L 81.858663 283.482437 
L 86.379668 277.672732 
L 90.900673 272.181803 
L 95.421678 266.974253 
L 99.942682 262.02078 
L 104.463687 257.297001 
L 108.984692 252.782038 
L 113.505697 248.458343 
L 118.026702 244.310298 
L 122.547706 240.324535 
L 131.589716 232.793611 
L 140.631725 225.78427 
L 149.673735 219.233958 
L 158.715745 213.090827 
L 167.757754 207.310459 
L 176.799764 201.857149 
L 185.841773 196.698654 
L 194.883783 191.808075 
L 203.925792 187.162056 
L 212.967802 182.740245 
L 222.009812 178.523654 
L 231.051821 174.49613 
L 240.093831 170.645628 
L 253.656845 165.174544 
L 267.219859 160.036626 
L 280.782874 155.198762 
L 294.345888 150.620432 
L 307.908903 146.298633 
L 321.471917 142.204309 
L 335.034931 138.311416 
L 348.597946 134.620624 
L 366.681965 129.955829 
L 384.765984 125.572746 
L 402.850003 121.441444 
L 420.934022 117.549045 
L 439.018041 113.867233 
L 457.10206 110.389572 
L 479.707084 106.296618 
L 502.312108 102.454793 
L 524.917132 98.853676 
L 547.522156 95.451487 
L 574.648185 91.607836 
L 601.774214 88.009238 
L 628.900242 84.664591 
L 665.068281 80.50654 
L 696.715314 77.113404 
L 723.841343 74.400611 
L 760.009381 71.020314 
L 800.698424 67.440201 
L 836.866462 64.502065 
L 877.555505 61.415462 
L 918.244548 58.529873 
L 958.933592 55.84758 
L 990.580625 53.886011 
L 990.580625 53.886011 
" style="fill:none;stroke:#7cb5ec;stroke-linecap:square;"/>
   </g>
   <g id="line2d_20">
    <path clip-path="url(#p43b1b6c7cd)" d="M 45.690625 353.2239 
L 50.21163 339.86458 
L 54.732635 329.359361 
L 59.253639 320.259766 
L 63.774644 312.124869 
L 68.295649 304.720768 
L 72.816654 297.901245 
L 77.337658 291.56668 
L 81.858663 285.645181 
L 86.379668 280.080655 
L 90.900673 274.828863 
L 95.421678 269.855012 
L 99.942682 265.130048 
L 104.463687 260.629306 
L 108.984692 256.332681 
L 113.505697 252.222844 
L 118.026702 248.284511 
L 122.547706 244.504367 
L 131.589716 237.373254 
L 140.631725 230.750734 
L 149.673735 224.576703 
L 158.715745 218.796531 
L 167.757754 213.367005 
L 176.799764 208.253437 
L 185.841773 203.42456 
L 194.883783 198.85413 
L 203.925792 194.518463 
L 212.967802 190.396263 
L 222.009812 186.471237 
L 231.051821 182.732273 
L 240.093831 179.162674 
L 253.656845 174.099198 
L 267.219859 169.34396 
L 280.782874 164.875685 
L 294.345888 160.668193 
L 307.908903 156.696789 
L 321.471917 152.954526 
L 335.034931 149.390624 
L 353.11895 144.933753 
L 371.202969 140.760412 
L 389.286989 136.849988 
L 407.371008 133.177874 
L 425.455027 129.721648 
L 443.539046 126.456945 
L 466.14407 122.630334 
L 488.749094 119.060897 
L 515.875123 115.072711 
L 538.480147 111.97181 
L 565.606175 108.495131 
L 592.732204 105.25945 
L 619.858233 102.235744 
L 651.505266 98.94752 
L 687.673304 95.457325 
L 719.320338 92.634189 
L 755.488376 89.634325 
L 791.656414 86.858624 
L 832.345458 83.963936 
L 877.555505 80.983713 
L 922.765553 78.241946 
L 972.496606 75.460059 
L 990.580625 74.504201 
L 990.580625 74.504201 
" style="fill:none;stroke:#434348;stroke-linecap:square;"/>
   </g>
   <g id="line2d_21">
    <path clip-path="url(#p43b1b6c7cd)" d="M 45.690625 353.2239 
L 50.21163 340.720662 
L 54.732635 331.281448 
L 59.253639 323.343686 
L 63.774644 316.443286 
L 68.295649 310.329851 
L 72.816654 304.846608 
L 77.337658 299.883253 
L 81.858663 295.358445 
L 86.379668 291.210092 
L 90.900673 287.388851 
L 95.421678 283.85314 
L 99.942682 280.570567 
L 104.463687 277.513788 
L 108.984692 274.659809 
L 113.505697 271.988516 
L 118.026702 269.482386 
L 122.547706 267.126337 
L 127.068711 264.907239 
L 136.110721 260.83474 
L 145.15273 257.186866 
L 154.19474 253.90113 
L 163.236749 250.925879 
L 172.278759 248.219505 
L 181.320769 245.74845 
L 190.362778 243.484162 
L 199.404788 241.402707 
L 212.967802 238.578117 
L 226.530816 236.054087 
L 240.093831 233.786236 
L 253.656845 231.735616 
L 267.219859 229.872449 
L 285.303879 227.63277 
L 303.387898 225.620867 
L 321.471917 223.806557 
L 344.076941 221.780144 
L 366.681965 219.965543 
L 393.807993 218.013323 
L 425.455027 216.000071 
L 461.623065 213.968682 
L 502.312108 211.954225 
L 538.480147 210.334414 
L 583.690194 208.54834 
L 628.900242 206.941996 
L 683.1523 205.260241 
L 728.362347 203.987811 
L 805.219429 202.047291 
L 877.555505 200.483109 
L 954.412587 199.042083 
L 990.580625 198.416224 
L 990.580625 198.416224 
" style="fill:none;stroke:#90ed7d;stroke-linecap:square;"/>
   </g>
   <g id="line2d_22">
    <path clip-path="url(#p43b1b6c7cd)" d="M 45.690625 353.2239 
L 50.21163 340.246648 
L 54.732635 330.123762 
L 59.253639 321.409293 
L 63.774644 313.672169 
L 68.295649 306.68217 
L 72.816654 300.292533 
L 77.337658 294.400782 
L 81.858663 288.933595 
L 86.379668 283.83394 
L 90.900673 279.057065 
L 95.421678 274.565493 
L 99.942682 270.328894 
L 104.463687 266.321893 
L 108.984692 262.522917 
L 113.505697 258.913514 
L 118.026702 255.47753 
L 122.547706 252.200999 
L 127.068711 249.071582 
L 136.110721 243.211469 
L 145.15273 237.822647 
L 154.19474 232.845441 
L 163.236749 228.23048 
L 172.278759 223.936877 
L 181.320769 219.929501 
L 190.362778 216.179086 
L 199.404788 212.6596 
L 208.446797 209.349645 
L 217.488807 206.231616 
L 226.530816 203.288308 
L 240.093831 199.167448 
L 253.656845 195.362289 
L 267.219859 191.83461 
L 280.782874 188.558159 
L 294.345888 185.509158 
L 307.908903 182.663125 
L 321.471917 179.994729 
L 339.555936 176.686994 
L 357.639955 173.64872 
L 375.723974 170.83762 
L 393.807993 168.227668 
L 411.892013 165.802317 
L 434.497036 162.992728 
L 457.10206 160.407131 
L 479.707084 158.009811 
L 506.833113 155.365332 
L 533.959142 152.953561 
L 565.606175 150.382601 
L 597.253209 148.043907 
L 633.421247 145.614196 
L 669.589285 143.409195 
L 710.278328 141.156919 
L 750.967371 139.117976 
L 796.177419 137.061151 
L 845.908472 135.023513 
L 900.160529 133.02514 
L 958.933592 131.087682 
L 990.580625 130.128932 
L 990.580625 130.128932 
" style="fill:none;stroke:#f7a35c;stroke-linecap:square;"/>
   </g>
   <g id="line2d_23">
    <path clip-path="url(#p43b1b6c7cd)" d="M 45.690625 353.2239 
L 50.21163 341.864909 
L 54.732635 333.324263 
L 59.253639 325.986371 
L 63.774644 319.461426 
L 68.295649 313.552654 
L 72.816654 308.138773 
L 77.337658 303.136455 
L 81.858663 298.485016 
L 86.379668 294.137676 
L 90.900673 290.058054 
L 95.421678 286.216101 
L 99.942682 282.586944 
L 104.463687 279.150055 
L 108.984692 275.887508 
L 113.505697 272.784019 
L 118.026702 269.82723 
L 127.068711 264.308142 
L 136.110721 259.253686 
L 145.15273 254.598312 
L 154.19474 250.294582 
L 163.236749 246.301915 
L 172.278759 242.585484 
L 181.320769 239.115658 
L 190.362778 235.867561 
L 199.404788 232.819741 
L 208.446797 229.954844 
L 217.488807 227.256342 
L 231.051821 223.48657 
L 244.614836 220.017263 
L 258.17785 216.81162 
L 271.740864 213.833414 
L 285.303879 211.064929 
L 303.387898 207.665804 
L 321.471917 204.55608 
L 339.555936 201.703127 
L 357.639955 199.068542 
L 375.723974 196.628947 
L 398.328998 193.838859 
L 420.934022 191.271141 
L 443.539046 188.917578 
L 470.665075 186.338553 
L 497.791103 183.989607 
L 524.917132 181.841937 
L 556.564166 179.559424 
L 588.211199 177.489482 
L 624.379237 175.337828 
L 665.068281 173.155542 
L 705.757324 171.196297 
L 750.967371 169.242593 
L 800.698424 167.31489 
L 859.471486 165.284865 
L 918.244548 163.482926 
L 981.538615 161.761744 
L 990.580625 161.532222 
L 990.580625 161.532222 
" style="fill:none;stroke:#8085e9;stroke-linecap:square;"/>
   </g>
   <g id="line2d_24">
    <path clip-path="url(#p43b1b6c7cd)" d="M 45.690625 353.2239 
L 50.21163 340.980369 
L 54.732635 331.464977 
L 59.253639 323.16533 
L 63.774644 315.693544 
L 68.295649 308.852924 
L 72.816654 302.521854 
L 77.337658 296.616692 
L 81.858663 291.076268 
L 86.379668 285.853127 
L 90.900673 280.910607 
L 95.421678 276.218229 
L 99.942682 271.75111 
L 104.463687 267.488696 
L 108.984692 263.412587 
L 113.505697 259.507403 
L 118.026702 255.759424 
L 127.068711 248.68961 
L 136.110721 242.125421 
L 145.15273 236.003888 
L 154.19474 230.273813 
L 163.236749 224.893434 
L 172.278759 219.82702 
L 181.320769 215.042473 
L 190.362778 210.515189 
L 199.404788 206.222169 
L 208.446797 202.142086 
L 217.488807 198.258673 
L 226.530816 194.561548 
L 235.572826 191.032431 
L 249.13584 186.029107 
L 262.698855 181.34035 
L 276.261869 176.935109 
L 289.824883 172.784117 
L 303.387898 168.86432 
L 316.950912 165.162602 
L 330.513926 161.66057 
L 348.597946 157.256841 
L 366.681965 153.143214 
L 384.765984 149.277404 
L 402.850003 145.65579 
L 420.934022 142.246588 
L 439.018041 139.047378 
L 461.623065 135.294284 
L 484.228089 131.793556 
L 506.833113 128.509257 
L 529.438137 125.421712 
L 552.043161 122.525634 
L 579.16919 119.279164 
L 606.295218 116.237899 
L 633.421247 113.390627 
L 665.068281 110.293446 
L 696.715314 107.417166 
L 728.362347 104.742231 
L 764.530386 101.902227 
L 805.219429 98.949561 
L 845.908472 96.218486 
L 891.11852 93.417102 
L 940.849572 90.570663 
L 990.580625 87.972212 
L 990.580625 87.972212 
" style="fill:none;stroke:#f15c80;stroke-linecap:square;"/>
   </g>
   <g id="line2d_25">
    <path clip-path="url(#p43b1b6c7cd)" d="M 45.690625 353.2239 
L 50.21163 341.565888 
L 54.732635 332.667924 
L 59.253639 324.958381 
L 63.774644 318.050892 
L 68.295649 311.749546 
L 72.816654 305.936214 
L 77.337658 300.530967 
L 81.858663 295.473481 
L 86.379668 290.718064 
L 90.900673 286.228916 
L 95.421678 281.976902 
L 99.942682 277.937218 
L 104.463687 274.090496 
L 108.984692 270.420347 
L 113.505697 266.911276 
L 122.547706 260.326762 
L 131.589716 254.251842 
L 140.631725 248.619308 
L 149.673735 243.375078 
L 158.715745 238.472978 
L 167.757754 233.877188 
L 176.799764 229.557422 
L 185.841773 225.487362 
L 194.883783 221.642994 
L 203.925792 218.004261 
L 212.967802 214.553921 
L 222.009812 211.276219 
L 235.572826 206.653771 
L 249.13584 202.348988 
L 262.698855 198.324571 
L 276.261869 194.556216 
L 289.824883 191.020442 
L 303.387898 187.684439 
L 316.950912 184.543516 
L 335.034931 180.616703 
L 353.11895 176.983258 
L 371.202969 173.603073 
L 389.286989 170.433881 
L 407.371008 167.468325 
L 425.455027 164.675933 
L 448.060051 161.428116 
L 475.18608 157.814468 
L 497.791103 155.048597 
L 524.917132 151.952966 
L 552.043161 149.071601 
L 579.16919 146.39609 
L 606.295218 143.920738 
L 637.942252 141.245326 
L 674.11029 138.424188 
L 710.278328 135.84177 
L 750.967371 133.188653 
L 796.177419 130.492696 
L 841.387467 128.029248 
L 891.11852 125.559618 
L 940.849572 123.308974 
L 990.580625 121.257869 
L 990.580625 121.257869 
" style="fill:none;stroke:#e4d354;stroke-linecap:square;"/>
   </g>
   <g id="line2d_26">
    <path clip-path="url(#p43b1b6c7cd)" d="M 45.690625 353.2239 
L 50.21163 339.808269 
L 54.732635 329.210922 
L 59.253639 320.023151 
L 63.774644 311.806304 
L 68.295649 304.329345 
L 72.816654 297.447144 
L 77.337658 291.058368 
L 81.858663 285.089886 
L 86.379668 279.486459 
L 90.900673 274.203178 
L 95.421678 269.204312 
L 99.942682 264.460323 
L 104.463687 259.946502 
L 108.984692 255.64199 
L 113.505697 251.528604 
L 118.026702 247.590869 
L 122.547706 243.815082 
L 131.589716 236.702141 
L 140.631725 230.1101 
L 149.673735 223.971799 
L 158.715745 218.236472 
L 167.757754 212.858041 
L 176.799764 207.801266 
L 185.841773 203.034437 
L 194.883783 198.528676 
L 203.925792 194.262322 
L 212.967802 190.213786 
L 222.009812 186.365525 
L 231.051821 182.700335 
L 244.614836 177.518973 
L 258.17785 172.677103 
L 271.740864 168.15045 
L 285.303879 163.899313 
L 298.866893 159.896264 
L 312.429907 156.122299 
L 325.992922 152.562838 
L 344.076941 148.116986 
L 357.639955 144.974559 
L 375.723974 141.026909 
L 393.807993 137.336937 
L 411.892013 133.874097 
L 429.976032 130.619383 
L 448.060051 127.544018 
L 470.665075 123.953636 
L 493.270099 120.600105 
L 515.875123 117.449005 
L 538.480147 114.491477 
L 565.606175 111.173217 
L 592.732204 108.099609 
L 624.379237 104.753662 
L 651.505266 102.081968 
L 683.1523 99.17834 
L 714.799333 96.480941 
L 750.967371 93.617856 
L 787.13541 90.972022 
L 827.824453 88.230386 
L 873.034501 85.42496 
L 918.244548 82.837803 
L 967.975601 80.217682 
L 990.580625 79.098578 
L 990.580625 79.098578 
" style="fill:none;stroke:#2b908f;stroke-linecap:square;"/>
   </g>
   <g id="line2d_27">
    <path clip-path="url(#p43b1b6c7cd)" d="M 45.690625 353.2239 
L 123.557363 50.665438 
" style="fill:none;stroke:#000000;stroke-dasharray:3.7,1.6;stroke-dashoffset:0;"/>
   </g>
   <g id="line2d_28">
    <path clip-path="url(#p43b1b6c7cd)" d="M 45.690625 353.2239 
L 990.580625 353.2239 
" style="fill:none;stroke:#dedede;stroke-linecap:square;stroke-width:2;"/>
   </g>
   <g id="text_20">
    <!-- Preseq: Complexity curve -->
    <defs>
     <path d="M 19.671875 64.796875 
L 19.671875 37.40625 
L 32.078125 37.40625 
Q 38.96875 37.40625 42.71875 40.96875 
Q 46.484375 44.53125 46.484375 51.125 
Q 46.484375 57.671875 42.71875 61.234375 
Q 38.96875 64.796875 32.078125 64.796875 
z
M 9.8125 72.90625 
L 32.078125 72.90625 
Q 44.34375 72.90625 50.609375 67.359375 
Q 56.890625 61.8125 56.890625 51.125 
Q 56.890625 40.328125 50.609375 34.8125 
Q 44.34375 29.296875 32.078125 29.296875 
L 19.671875 29.296875 
L 19.671875 0 
L 9.8125 0 
z
" id="DejaVuSans-80"/>
     <path d="M 41.109375 46.296875 
Q 39.59375 47.171875 37.8125 47.578125 
Q 36.03125 48 33.890625 48 
Q 26.265625 48 22.1875 43.046875 
Q 18.109375 38.09375 18.109375 28.8125 
L 18.109375 0 
L 9.078125 0 
L 9.078125 54.6875 
L 18.109375 54.6875 
L 18.109375 46.1875 
Q 20.953125 51.171875 25.484375 53.578125 
Q 30.03125 56 36.53125 56 
Q 37.453125 56 38.578125 55.875 
Q 39.703125 55.765625 41.0625 55.515625 
z
" id="DejaVuSans-114"/>
     <path d="M 11.71875 12.40625 
L 22.015625 12.40625 
L 22.015625 0 
L 11.71875 0 
z
M 11.71875 51.703125 
L 22.015625 51.703125 
L 22.015625 39.3125 
L 11.71875 39.3125 
z
" id="DejaVuSans-58"/>
     <path d="M 64.40625 67.28125 
L 64.40625 56.890625 
Q 59.421875 61.53125 53.78125 63.8125 
Q 48.140625 66.109375 41.796875 66.109375 
Q 29.296875 66.109375 22.65625 58.46875 
Q 16.015625 50.828125 16.015625 36.375 
Q 16.015625 21.96875 22.65625 14.328125 
Q 29.296875 6.6875 41.796875 6.6875 
Q 48.140625 6.6875 53.78125 8.984375 
Q 59.421875 11.28125 64.40625 15.921875 
L 64.40625 5.609375 
Q 59.234375 2.09375 53.4375 0.328125 
Q 47.65625 -1.421875 41.21875 -1.421875 
Q 24.65625 -1.421875 15.125 8.703125 
Q 5.609375 18.84375 5.609375 36.375 
Q 5.609375 53.953125 15.125 64.078125 
Q 24.65625 74.21875 41.21875 74.21875 
Q 47.75 74.21875 53.53125 72.484375 
Q 59.328125 70.75 64.40625 67.28125 
z
" id="DejaVuSans-67"/>
     <path d="M 54.890625 54.6875 
L 35.109375 28.078125 
L 55.90625 0 
L 45.3125 0 
L 29.390625 21.484375 
L 13.484375 0 
L 2.875 0 
L 24.125 28.609375 
L 4.6875 54.6875 
L 15.28125 54.6875 
L 29.78125 35.203125 
L 44.28125 54.6875 
z
" id="DejaVuSans-120"/>
     <path d="M 32.171875 -5.078125 
Q 28.375 -14.84375 24.75 -17.8125 
Q 21.140625 -20.796875 15.09375 -20.796875 
L 7.90625 -20.796875 
L 7.90625 -13.28125 
L 13.1875 -13.28125 
Q 16.890625 -13.28125 18.9375 -11.515625 
Q 21 -9.765625 23.484375 -3.21875 
L 25.09375 0.875 
L 2.984375 54.6875 
L 12.5 54.6875 
L 29.59375 11.921875 
L 46.6875 54.6875 
L 56.203125 54.6875 
z
" id="DejaVuSans-121"/>
     <path d="M 2.984375 54.6875 
L 12.5 54.6875 
L 29.59375 8.796875 
L 46.6875 54.6875 
L 56.203125 54.6875 
L 35.6875 0 
L 23.484375 0 
z
" id="DejaVuSans-118"/>
    </defs>
    <g transform="translate(415.415625 19.3575)scale(0.16 -0.16)">
     <use xlink:href="#DejaVuSans-80"/>
     <use x="60.287109" xlink:href="#DejaVuSans-114"/>
     <use x="101.369141" xlink:href="#DejaVuSans-101"/>
     <use x="162.892578" xlink:href="#DejaVuSans-115"/>
     <use x="214.992188" xlink:href="#DejaVuSans-101"/>
     <use x="276.515625" xlink:href="#DejaVuSans-113"/>
     <use x="339.992188" xlink:href="#DejaVuSans-58"/>
     <use x="373.683594" xlink:href="#DejaVuSans-32"/>
     <use x="405.470703" xlink:href="#DejaVuSans-67"/>
     <use x="475.294922" xlink:href="#DejaVuSans-111"/>
     <use x="536.476562" xlink:href="#DejaVuSans-109"/>
     <use x="633.888672" xlink:href="#DejaVuSans-112"/>
     <use x="697.365234" xlink:href="#DejaVuSans-108"/>
     <use x="725.148438" xlink:href="#DejaVuSans-101"/>
     <use x="786.65625" xlink:href="#DejaVuSans-120"/>
     <use x="845.835938" xlink:href="#DejaVuSans-105"/>
     <use x="873.619141" xlink:href="#DejaVuSans-116"/>
     <use x="912.828125" xlink:href="#DejaVuSans-121"/>
     <use x="972.007812" xlink:href="#DejaVuSans-32"/>
     <use x="1003.794922" xlink:href="#DejaVuSans-99"/>
     <use x="1058.775391" xlink:href="#DejaVuSans-117"/>
     <use x="1122.154297" xlink:href="#DejaVuSans-114"/>
     <use x="1163.267578" xlink:href="#DejaVuSans-118"/>
     <use x="1222.447266" xlink:href="#DejaVuSans-101"/>
    </g>
   </g>
  </g>
 </g>
 <defs>
  <clipPath id="p43b1b6c7cd">
   <rect height="317.968" width="944.89" x="45.690625" y="35.2559"/>
  </clipPath>
 </defs>
</svg>
