<?xml version="1.0" encoding="utf-8" standalone="no"?>
<!DOCTYPE svg PUBLIC "-//W3C//DTD SVG 1.1//EN"
  "http://www.w3.org/Graphics/SVG/1.1/DTD/svg11.dtd">
<!-- Created with matplotlib (https://matplotlib.org/) -->
<svg height="388.844525pt" version="1.1" viewBox="0 0 1001.298125 388.844525" width="1001.298125pt" xmlns="http://www.w3.org/2000/svg" xmlns:xlink="http://www.w3.org/1999/xlink">
 <defs>
  <style type="text/css">
*{stroke-linecap:butt;stroke-linejoin:round;}
  </style>
 </defs>
 <g id="figure_1">
  <g id="patch_1">
   <path d="M 0 388.844525 
L 1001.298125 388.844525 
L 1001.298125 0 
L 0 0 
z
" style="fill:#ffffff;"/>
  </g>
  <g id="axes_1">
   <g id="patch_2">
    <path d="M 38.058125 353.2239 
L 990.598125 353.2239 
L 990.598125 35.2559 
L 38.058125 35.2559 
z
" style="fill:#ffffff;"/>
   </g>
   <g id="patch_3">
    <path clip-path="url(#p9d0ad8fcc1)" d="M 38.058125 415.451021 
L 953.112567 415.451021 
L 953.112567 -144.593071 
L 38.058125 -144.593071 
z
" style="fill:#c3e6c3;"/>
   </g>
   <g id="patch_4">
    <path clip-path="url(#p9d0ad8fcc1)" d="M 38.058125 228.769657 
L 953.112567 228.769657 
L 953.112567 166.542536 
L 38.058125 166.542536 
z
" style="fill:#e6dcc3;"/>
   </g>
   <g id="patch_5">
    <path clip-path="url(#p9d0ad8fcc1)" d="M 38.058125 431.007802 
L 953.112567 431.007802 
L 953.112567 275.439998 
L 38.058125 275.439998 
z
" style="fill:#e6c3c3;"/>
   </g>
   <g id="matplotlib.axis_1">
    <g id="xtick_1">
     <g id="text_1">
      <!-- 0 -->
      <defs>
       <path d="M 31.78125 66.40625 
Q 24.171875 66.40625 20.328125 58.90625 
Q 16.5 51.421875 16.5 36.375 
Q 16.5 21.390625 20.328125 13.890625 
Q 24.171875 6.390625 31.78125 6.390625 
Q 39.453125 6.390625 43.28125 13.890625 
Q 47.125 21.390625 47.125 36.375 
Q 47.125 51.421875 43.28125 58.90625 
Q 39.453125 66.40625 31.78125 66.40625 
z
M 31.78125 74.21875 
Q 44.046875 74.21875 50.515625 64.515625 
Q 56.984375 54.828125 56.984375 36.375 
Q 56.984375 17.96875 50.515625 8.265625 
Q 44.046875 -1.421875 31.78125 -1.421875 
Q 19.53125 -1.421875 13.0625 8.265625 
Q 6.59375 17.96875 6.59375 36.375 
Q 6.59375 54.828125 13.0625 64.515625 
Q 19.53125 74.21875 31.78125 74.21875 
z
" id="DejaVuSans-48"/>
      </defs>
      <g transform="translate(72.998683 366.30265)scale(0.08 -0.08)">
       <use xlink:href="#DejaVuSans-48"/>
      </g>
     </g>
    </g>
    <g id="xtick_2">
     <g id="text_2">
      <!-- 20 -->
      <defs>
       <path d="M 19.1875 8.296875 
L 53.609375 8.296875 
L 53.609375 0 
L 7.328125 0 
L 7.328125 8.296875 
Q 12.9375 14.109375 22.625 23.890625 
Q 32.328125 33.6875 34.8125 36.53125 
Q 39.546875 41.84375 41.421875 45.53125 
Q 43.3125 49.21875 43.3125 52.78125 
Q 43.3125 58.59375 39.234375 62.25 
Q 35.15625 65.921875 28.609375 65.921875 
Q 23.96875 65.921875 18.8125 64.3125 
Q 13.671875 62.703125 7.8125 59.421875 
L 7.8125 69.390625 
Q 13.765625 71.78125 18.9375 73 
Q 24.125 74.21875 28.421875 74.21875 
Q 39.75 74.21875 46.484375 68.546875 
Q 53.21875 62.890625 53.21875 53.421875 
Q 53.21875 48.921875 51.53125 44.890625 
Q 49.859375 40.875 45.40625 35.40625 
Q 44.1875 33.984375 37.640625 27.21875 
Q 31.109375 20.453125 19.1875 8.296875 
z
" id="DejaVuSans-50"/>
      </defs>
      <g transform="translate(186.687972 366.30265)scale(0.08 -0.08)">
       <use xlink:href="#DejaVuSans-50"/>
       <use x="63.623047" xlink:href="#DejaVuSans-48"/>
      </g>
     </g>
    </g>
    <g id="xtick_3">
     <g id="text_3">
      <!-- 40 -->
      <defs>
       <path d="M 37.796875 64.3125 
L 12.890625 25.390625 
L 37.796875 25.390625 
z
M 35.203125 72.90625 
L 47.609375 72.90625 
L 47.609375 25.390625 
L 58.015625 25.390625 
L 58.015625 17.1875 
L 47.609375 17.1875 
L 47.609375 0 
L 37.796875 0 
L 37.796875 17.1875 
L 4.890625 17.1875 
L 4.890625 26.703125 
z
" id="DejaVuSans-52"/>
      </defs>
      <g transform="translate(302.922262 366.30265)scale(0.08 -0.08)">
       <use xlink:href="#DejaVuSans-52"/>
       <use x="63.623047" xlink:href="#DejaVuSans-48"/>
      </g>
     </g>
    </g>
    <g id="xtick_4">
     <g id="text_4">
      <!-- 60 -->
      <defs>
       <path d="M 33.015625 40.375 
Q 26.375 40.375 22.484375 35.828125 
Q 18.609375 31.296875 18.609375 23.390625 
Q 18.609375 15.53125 22.484375 10.953125 
Q 26.375 6.390625 33.015625 6.390625 
Q 39.65625 6.390625 43.53125 10.953125 
Q 47.40625 15.53125 47.40625 23.390625 
Q 47.40625 31.296875 43.53125 35.828125 
Q 39.65625 40.375 33.015625 40.375 
z
M 52.59375 71.296875 
L 52.59375 62.3125 
Q 48.875 64.0625 45.09375 64.984375 
Q 41.3125 65.921875 37.59375 65.921875 
Q 27.828125 65.921875 22.671875 59.328125 
Q 17.53125 52.734375 16.796875 39.40625 
Q 19.671875 43.65625 24.015625 45.921875 
Q 28.375 48.1875 33.59375 48.1875 
Q 44.578125 48.1875 50.953125 41.515625 
Q 57.328125 34.859375 57.328125 23.390625 
Q 57.328125 12.15625 50.6875 5.359375 
Q 44.046875 -1.421875 33.015625 -1.421875 
Q 20.359375 -1.421875 13.671875 8.265625 
Q 6.984375 17.96875 6.984375 36.375 
Q 6.984375 53.65625 15.1875 63.9375 
Q 23.390625 74.21875 37.203125 74.21875 
Q 40.921875 74.21875 44.703125 73.484375 
Q 48.484375 72.75 52.59375 71.296875 
z
" id="DejaVuSans-54"/>
      </defs>
      <g transform="translate(419.156551 366.30265)scale(0.08 -0.08)">
       <use xlink:href="#DejaVuSans-54"/>
       <use x="63.623047" xlink:href="#DejaVuSans-48"/>
      </g>
     </g>
    </g>
    <g id="xtick_5">
     <g id="text_5">
      <!-- 80 -->
      <defs>
       <path d="M 31.78125 34.625 
Q 24.75 34.625 20.71875 30.859375 
Q 16.703125 27.09375 16.703125 20.515625 
Q 16.703125 13.921875 20.71875 10.15625 
Q 24.75 6.390625 31.78125 6.390625 
Q 38.8125 6.390625 42.859375 10.171875 
Q 46.921875 13.96875 46.921875 20.515625 
Q 46.921875 27.09375 42.890625 30.859375 
Q 38.875 34.625 31.78125 34.625 
z
M 21.921875 38.8125 
Q 15.578125 40.375 12.03125 44.71875 
Q 8.5 49.078125 8.5 55.328125 
Q 8.5 64.0625 14.71875 69.140625 
Q 20.953125 74.21875 31.78125 74.21875 
Q 42.671875 74.21875 48.875 69.140625 
Q 55.078125 64.0625 55.078125 55.328125 
Q 55.078125 49.078125 51.53125 44.71875 
Q 48 40.375 41.703125 38.8125 
Q 48.828125 37.15625 52.796875 32.3125 
Q 56.78125 27.484375 56.78125 20.515625 
Q 56.78125 9.90625 50.3125 4.234375 
Q 43.84375 -1.421875 31.78125 -1.421875 
Q 19.734375 -1.421875 13.25 4.234375 
Q 6.78125 9.90625 6.78125 20.515625 
Q 6.78125 27.484375 10.78125 32.3125 
Q 14.796875 37.15625 21.921875 38.8125 
z
M 18.3125 54.390625 
Q 18.3125 48.734375 21.84375 45.5625 
Q 25.390625 42.390625 31.78125 42.390625 
Q 38.140625 42.390625 41.71875 45.5625 
Q 45.3125 48.734375 45.3125 54.390625 
Q 45.3125 60.0625 41.71875 63.234375 
Q 38.140625 66.40625 31.78125 66.40625 
Q 25.390625 66.40625 21.84375 63.234375 
Q 18.3125 60.0625 18.3125 54.390625 
z
" id="DejaVuSans-56"/>
      </defs>
      <g transform="translate(535.39084 366.30265)scale(0.08 -0.08)">
       <use xlink:href="#DejaVuSans-56"/>
       <use x="63.623047" xlink:href="#DejaVuSans-48"/>
      </g>
     </g>
    </g>
    <g id="xtick_6">
     <g id="text_6">
      <!-- 100 -->
      <defs>
       <path d="M 12.40625 8.296875 
L 28.515625 8.296875 
L 28.515625 63.921875 
L 10.984375 60.40625 
L 10.984375 69.390625 
L 28.421875 72.90625 
L 38.28125 72.90625 
L 38.28125 8.296875 
L 54.390625 8.296875 
L 54.390625 0 
L 12.40625 0 
z
" id="DejaVuSans-49"/>
      </defs>
      <g transform="translate(649.080129 366.30265)scale(0.08 -0.08)">
       <use xlink:href="#DejaVuSans-49"/>
       <use x="63.623047" xlink:href="#DejaVuSans-48"/>
       <use x="127.246094" xlink:href="#DejaVuSans-48"/>
      </g>
     </g>
    </g>
    <g id="xtick_7">
     <g id="text_7">
      <!-- 120 -->
      <g transform="translate(765.314418 366.30265)scale(0.08 -0.08)">
       <use xlink:href="#DejaVuSans-49"/>
       <use x="63.623047" xlink:href="#DejaVuSans-50"/>
       <use x="127.246094" xlink:href="#DejaVuSans-48"/>
      </g>
     </g>
    </g>
    <g id="xtick_8">
     <g id="text_8">
      <!-- 140 -->
      <g transform="translate(881.548708 366.30265)scale(0.08 -0.08)">
       <use xlink:href="#DejaVuSans-49"/>
       <use x="63.623047" xlink:href="#DejaVuSans-52"/>
       <use x="127.246094" xlink:href="#DejaVuSans-48"/>
      </g>
     </g>
    </g>
    <g id="text_9">
     <!-- Position (bp) -->
     <defs>
      <path d="M 19.671875 64.796875 
L 19.671875 37.40625 
L 32.078125 37.40625 
Q 38.96875 37.40625 42.71875 40.96875 
Q 46.484375 44.53125 46.484375 51.125 
Q 46.484375 57.671875 42.71875 61.234375 
Q 38.96875 64.796875 32.078125 64.796875 
z
M 9.8125 72.90625 
L 32.078125 72.90625 
Q 44.34375 72.90625 50.609375 67.359375 
Q 56.890625 61.8125 56.890625 51.125 
Q 56.890625 40.328125 50.609375 34.8125 
Q 44.34375 29.296875 32.078125 29.296875 
L 19.671875 29.296875 
L 19.671875 0 
L 9.8125 0 
z
" id="DejaVuSans-80"/>
      <path d="M 30.609375 48.390625 
Q 23.390625 48.390625 19.1875 42.75 
Q 14.984375 37.109375 14.984375 27.296875 
Q 14.984375 17.484375 19.15625 11.84375 
Q 23.34375 6.203125 30.609375 6.203125 
Q 37.796875 6.203125 41.984375 11.859375 
Q 46.1875 17.53125 46.1875 27.296875 
Q 46.1875 37.015625 41.984375 42.703125 
Q 37.796875 48.390625 30.609375 48.390625 
z
M 30.609375 56 
Q 42.328125 56 49.015625 48.375 
Q 55.71875 40.765625 55.71875 27.296875 
Q 55.71875 13.875 49.015625 6.21875 
Q 42.328125 -1.421875 30.609375 -1.421875 
Q 18.84375 -1.421875 12.171875 6.21875 
Q 5.515625 13.875 5.515625 27.296875 
Q 5.515625 40.765625 12.171875 48.375 
Q 18.84375 56 30.609375 56 
z
" id="DejaVuSans-111"/>
      <path d="M 44.28125 53.078125 
L 44.28125 44.578125 
Q 40.484375 46.53125 36.375 47.5 
Q 32.28125 48.484375 27.875 48.484375 
Q 21.1875 48.484375 17.84375 46.4375 
Q 14.5 44.390625 14.5 40.28125 
Q 14.5 37.15625 16.890625 35.375 
Q 19.28125 33.59375 26.515625 31.984375 
L 29.59375 31.296875 
Q 39.15625 29.25 43.1875 25.515625 
Q 47.21875 21.78125 47.21875 15.09375 
Q 47.21875 7.46875 41.1875 3.015625 
Q 35.15625 -1.421875 24.609375 -1.421875 
Q 20.21875 -1.421875 15.453125 -0.5625 
Q 10.6875 0.296875 5.421875 2 
L 5.421875 11.28125 
Q 10.40625 8.6875 15.234375 7.390625 
Q 20.0625 6.109375 24.8125 6.109375 
Q 31.15625 6.109375 34.5625 8.28125 
Q 37.984375 10.453125 37.984375 14.40625 
Q 37.984375 18.0625 35.515625 20.015625 
Q 33.0625 21.96875 24.703125 23.78125 
L 21.578125 24.515625 
Q 13.234375 26.265625 9.515625 29.90625 
Q 5.8125 33.546875 5.8125 39.890625 
Q 5.8125 47.609375 11.28125 51.796875 
Q 16.75 56 26.8125 56 
Q 31.78125 56 36.171875 55.265625 
Q 40.578125 54.546875 44.28125 53.078125 
z
" id="DejaVuSans-115"/>
      <path d="M 9.421875 54.6875 
L 18.40625 54.6875 
L 18.40625 0 
L 9.421875 0 
z
M 9.421875 75.984375 
L 18.40625 75.984375 
L 18.40625 64.59375 
L 9.421875 64.59375 
z
" id="DejaVuSans-105"/>
      <path d="M 18.3125 70.21875 
L 18.3125 54.6875 
L 36.8125 54.6875 
L 36.8125 47.703125 
L 18.3125 47.703125 
L 18.3125 18.015625 
Q 18.3125 11.328125 20.140625 9.421875 
Q 21.96875 7.515625 27.59375 7.515625 
L 36.8125 7.515625 
L 36.8125 0 
L 27.59375 0 
Q 17.1875 0 13.234375 3.875 
Q 9.28125 7.765625 9.28125 18.015625 
L 9.28125 47.703125 
L 2.6875 47.703125 
L 2.6875 54.6875 
L 9.28125 54.6875 
L 9.28125 70.21875 
z
" id="DejaVuSans-116"/>
      <path d="M 54.890625 33.015625 
L 54.890625 0 
L 45.90625 0 
L 45.90625 32.71875 
Q 45.90625 40.484375 42.875 44.328125 
Q 39.84375 48.1875 33.796875 48.1875 
Q 26.515625 48.1875 22.3125 43.546875 
Q 18.109375 38.921875 18.109375 30.90625 
L 18.109375 0 
L 9.078125 0 
L 9.078125 54.6875 
L 18.109375 54.6875 
L 18.109375 46.1875 
Q 21.34375 51.125 25.703125 53.5625 
Q 30.078125 56 35.796875 56 
Q 45.21875 56 50.046875 50.171875 
Q 54.890625 44.34375 54.890625 33.015625 
z
" id="DejaVuSans-110"/>
      <path id="DejaVuSans-32"/>
      <path d="M 31 75.875 
Q 24.46875 64.65625 21.28125 53.65625 
Q 18.109375 42.671875 18.109375 31.390625 
Q 18.109375 20.125 21.3125 9.0625 
Q 24.515625 -2 31 -13.1875 
L 23.1875 -13.1875 
Q 15.875 -1.703125 12.234375 9.375 
Q 8.59375 20.453125 8.59375 31.390625 
Q 8.59375 42.28125 12.203125 53.3125 
Q 15.828125 64.359375 23.1875 75.875 
z
" id="DejaVuSans-40"/>
      <path d="M 48.6875 27.296875 
Q 48.6875 37.203125 44.609375 42.84375 
Q 40.53125 48.484375 33.40625 48.484375 
Q 26.265625 48.484375 22.1875 42.84375 
Q 18.109375 37.203125 18.109375 27.296875 
Q 18.109375 17.390625 22.1875 11.75 
Q 26.265625 6.109375 33.40625 6.109375 
Q 40.53125 6.109375 44.609375 11.75 
Q 48.6875 17.390625 48.6875 27.296875 
z
M 18.109375 46.390625 
Q 20.953125 51.265625 25.265625 53.625 
Q 29.59375 56 35.59375 56 
Q 45.5625 56 51.78125 48.09375 
Q 58.015625 40.1875 58.015625 27.296875 
Q 58.015625 14.40625 51.78125 6.484375 
Q 45.5625 -1.421875 35.59375 -1.421875 
Q 29.59375 -1.421875 25.265625 0.953125 
Q 20.953125 3.328125 18.109375 8.203125 
L 18.109375 0 
L 9.078125 0 
L 9.078125 75.984375 
L 18.109375 75.984375 
z
" id="DejaVuSans-98"/>
      <path d="M 18.109375 8.203125 
L 18.109375 -20.796875 
L 9.078125 -20.796875 
L 9.078125 54.6875 
L 18.109375 54.6875 
L 18.109375 46.390625 
Q 20.953125 51.265625 25.265625 53.625 
Q 29.59375 56 35.59375 56 
Q 45.5625 56 51.78125 48.09375 
Q 58.015625 40.1875 58.015625 27.296875 
Q 58.015625 14.40625 51.78125 6.484375 
Q 45.5625 -1.421875 35.59375 -1.421875 
Q 29.59375 -1.421875 25.265625 0.953125 
Q 20.953125 3.328125 18.109375 8.203125 
z
M 48.6875 27.296875 
Q 48.6875 37.203125 44.609375 42.84375 
Q 40.53125 48.484375 33.40625 48.484375 
Q 26.265625 48.484375 22.1875 42.84375 
Q 18.109375 37.203125 18.109375 27.296875 
Q 18.109375 17.390625 22.1875 11.75 
Q 26.265625 6.109375 33.40625 6.109375 
Q 40.53125 6.109375 44.609375 11.75 
Q 48.6875 17.390625 48.6875 27.296875 
z
" id="DejaVuSans-112"/>
      <path d="M 8.015625 75.875 
L 15.828125 75.875 
Q 23.140625 64.359375 26.78125 53.3125 
Q 30.421875 42.28125 30.421875 31.390625 
Q 30.421875 20.453125 26.78125 9.375 
Q 23.140625 -1.703125 15.828125 -13.1875 
L 8.015625 -13.1875 
Q 14.5 -2 17.703125 9.0625 
Q 20.90625 20.125 20.90625 31.390625 
Q 20.90625 42.671875 17.703125 53.65625 
Q 14.5 64.65625 8.015625 75.875 
z
" id="DejaVuSans-41"/>
     </defs>
     <g transform="translate(482.846094 379.564837)scale(0.1 -0.1)">
      <use xlink:href="#DejaVuSans-80"/>
      <use x="60.255859" xlink:href="#DejaVuSans-111"/>
      <use x="121.4375" xlink:href="#DejaVuSans-115"/>
      <use x="173.537109" xlink:href="#DejaVuSans-105"/>
      <use x="201.320312" xlink:href="#DejaVuSans-116"/>
      <use x="240.529297" xlink:href="#DejaVuSans-105"/>
      <use x="268.3125" xlink:href="#DejaVuSans-111"/>
      <use x="329.494141" xlink:href="#DejaVuSans-110"/>
      <use x="392.873047" xlink:href="#DejaVuSans-32"/>
      <use x="424.660156" xlink:href="#DejaVuSans-40"/>
      <use x="463.673828" xlink:href="#DejaVuSans-98"/>
      <use x="527.150391" xlink:href="#DejaVuSans-112"/>
      <use x="590.626953" xlink:href="#DejaVuSans-41"/>
     </g>
    </g>
   </g>
   <g id="matplotlib.axis_2">
    <g id="ytick_1">
     <g id="line2d_1">
      <path clip-path="url(#p9d0ad8fcc1)" d="M 38.058125 353.2239 
L 990.598125 353.2239 
" style="fill:none;stroke:#dedede;stroke-linecap:square;"/>
     </g>
     <g id="text_10">
      <!-- 0 -->
      <g transform="translate(25.968125 356.263275)scale(0.08 -0.08)">
       <use xlink:href="#DejaVuSans-48"/>
      </g>
     </g>
    </g>
    <g id="ytick_2">
     <g id="line2d_2">
      <path clip-path="url(#p9d0ad8fcc1)" d="M 38.058125 314.331949 
L 990.598125 314.331949 
" style="fill:none;stroke:#dedede;stroke-linecap:square;"/>
     </g>
     <g id="text_11">
      <!-- 5 -->
      <defs>
       <path d="M 10.796875 72.90625 
L 49.515625 72.90625 
L 49.515625 64.59375 
L 19.828125 64.59375 
L 19.828125 46.734375 
Q 21.96875 47.46875 24.109375 47.828125 
Q 26.265625 48.1875 28.421875 48.1875 
Q 40.625 48.1875 47.75 41.5 
Q 54.890625 34.8125 54.890625 23.390625 
Q 54.890625 11.625 47.5625 5.09375 
Q 40.234375 -1.421875 26.90625 -1.421875 
Q 22.3125 -1.421875 17.546875 -0.640625 
Q 12.796875 0.140625 7.71875 1.703125 
L 7.71875 11.625 
Q 12.109375 9.234375 16.796875 8.0625 
Q 21.484375 6.890625 26.703125 6.890625 
Q 35.15625 6.890625 40.078125 11.328125 
Q 45.015625 15.765625 45.015625 23.390625 
Q 45.015625 31 40.078125 35.4375 
Q 35.15625 39.890625 26.703125 39.890625 
Q 22.75 39.890625 18.8125 39.015625 
Q 14.890625 38.140625 10.796875 36.28125 
z
" id="DejaVuSans-53"/>
      </defs>
      <g transform="translate(25.968125 317.371324)scale(0.08 -0.08)">
       <use xlink:href="#DejaVuSans-53"/>
      </g>
     </g>
    </g>
    <g id="ytick_3">
     <g id="line2d_3">
      <path clip-path="url(#p9d0ad8fcc1)" d="M 38.058125 275.439998 
L 990.598125 275.439998 
" style="fill:none;stroke:#dedede;stroke-linecap:square;"/>
     </g>
     <g id="text_12">
      <!-- 10 -->
      <g transform="translate(20.878125 278.479373)scale(0.08 -0.08)">
       <use xlink:href="#DejaVuSans-49"/>
       <use x="63.623047" xlink:href="#DejaVuSans-48"/>
      </g>
     </g>
    </g>
    <g id="ytick_4">
     <g id="line2d_4">
      <path clip-path="url(#p9d0ad8fcc1)" d="M 38.058125 236.548048 
L 990.598125 236.548048 
" style="fill:none;stroke:#dedede;stroke-linecap:square;"/>
     </g>
     <g id="text_13">
      <!-- 15 -->
      <g transform="translate(20.878125 239.587423)scale(0.08 -0.08)">
       <use xlink:href="#DejaVuSans-49"/>
       <use x="63.623047" xlink:href="#DejaVuSans-53"/>
      </g>
     </g>
    </g>
    <g id="ytick_5">
     <g id="line2d_5">
      <path clip-path="url(#p9d0ad8fcc1)" d="M 38.058125 197.656097 
L 990.598125 197.656097 
" style="fill:none;stroke:#dedede;stroke-linecap:square;"/>
     </g>
     <g id="text_14">
      <!-- 20 -->
      <g transform="translate(20.878125 200.695472)scale(0.08 -0.08)">
       <use xlink:href="#DejaVuSans-50"/>
       <use x="63.623047" xlink:href="#DejaVuSans-48"/>
      </g>
     </g>
    </g>
    <g id="ytick_6">
     <g id="line2d_6">
      <path clip-path="url(#p9d0ad8fcc1)" d="M 38.058125 158.764146 
L 990.598125 158.764146 
" style="fill:none;stroke:#dedede;stroke-linecap:square;"/>
     </g>
     <g id="text_15">
      <!-- 25 -->
      <g transform="translate(20.878125 161.803521)scale(0.08 -0.08)">
       <use xlink:href="#DejaVuSans-50"/>
       <use x="63.623047" xlink:href="#DejaVuSans-53"/>
      </g>
     </g>
    </g>
    <g id="ytick_7">
     <g id="line2d_7">
      <path clip-path="url(#p9d0ad8fcc1)" d="M 38.058125 119.872195 
L 990.598125 119.872195 
" style="fill:none;stroke:#dedede;stroke-linecap:square;"/>
     </g>
     <g id="text_16">
      <!-- 30 -->
      <defs>
       <path d="M 40.578125 39.3125 
Q 47.65625 37.796875 51.625 33 
Q 55.609375 28.21875 55.609375 21.1875 
Q 55.609375 10.40625 48.1875 4.484375 
Q 40.765625 -1.421875 27.09375 -1.421875 
Q 22.515625 -1.421875 17.65625 -0.515625 
Q 12.796875 0.390625 7.625 2.203125 
L 7.625 11.71875 
Q 11.71875 9.328125 16.59375 8.109375 
Q 21.484375 6.890625 26.8125 6.890625 
Q 36.078125 6.890625 40.9375 10.546875 
Q 45.796875 14.203125 45.796875 21.1875 
Q 45.796875 27.640625 41.28125 31.265625 
Q 36.765625 34.90625 28.71875 34.90625 
L 20.21875 34.90625 
L 20.21875 43.015625 
L 29.109375 43.015625 
Q 36.375 43.015625 40.234375 45.921875 
Q 44.09375 48.828125 44.09375 54.296875 
Q 44.09375 59.90625 40.109375 62.90625 
Q 36.140625 65.921875 28.71875 65.921875 
Q 24.65625 65.921875 20.015625 65.03125 
Q 15.375 64.15625 9.8125 62.3125 
L 9.8125 71.09375 
Q 15.4375 72.65625 20.34375 73.4375 
Q 25.25 74.21875 29.59375 74.21875 
Q 40.828125 74.21875 47.359375 69.109375 
Q 53.90625 64.015625 53.90625 55.328125 
Q 53.90625 49.265625 50.4375 45.09375 
Q 46.96875 40.921875 40.578125 39.3125 
z
" id="DejaVuSans-51"/>
      </defs>
      <g transform="translate(20.878125 122.91157)scale(0.08 -0.08)">
       <use xlink:href="#DejaVuSans-51"/>
       <use x="63.623047" xlink:href="#DejaVuSans-48"/>
      </g>
     </g>
    </g>
    <g id="ytick_8">
     <g id="line2d_8">
      <path clip-path="url(#p9d0ad8fcc1)" d="M 38.058125 80.980244 
L 990.598125 80.980244 
" style="fill:none;stroke:#dedede;stroke-linecap:square;"/>
     </g>
     <g id="text_17">
      <!-- 35 -->
      <g transform="translate(20.878125 84.019619)scale(0.08 -0.08)">
       <use xlink:href="#DejaVuSans-51"/>
       <use x="63.623047" xlink:href="#DejaVuSans-53"/>
      </g>
     </g>
    </g>
    <g id="ytick_9">
     <g id="line2d_9">
      <path clip-path="url(#p9d0ad8fcc1)" d="M 38.058125 42.088293 
L 990.598125 42.088293 
" style="fill:none;stroke:#dedede;stroke-linecap:square;"/>
     </g>
     <g id="text_18">
      <!-- 40 -->
      <g transform="translate(20.878125 45.127668)scale(0.08 -0.08)">
       <use xlink:href="#DejaVuSans-52"/>
       <use x="63.623047" xlink:href="#DejaVuSans-48"/>
      </g>
     </g>
    </g>
    <g id="text_19">
     <!-- Phred Score -->
     <defs>
      <path d="M 54.890625 33.015625 
L 54.890625 0 
L 45.90625 0 
L 45.90625 32.71875 
Q 45.90625 40.484375 42.875 44.328125 
Q 39.84375 48.1875 33.796875 48.1875 
Q 26.515625 48.1875 22.3125 43.546875 
Q 18.109375 38.921875 18.109375 30.90625 
L 18.109375 0 
L 9.078125 0 
L 9.078125 75.984375 
L 18.109375 75.984375 
L 18.109375 46.1875 
Q 21.34375 51.125 25.703125 53.5625 
Q 30.078125 56 35.796875 56 
Q 45.21875 56 50.046875 50.171875 
Q 54.890625 44.34375 54.890625 33.015625 
z
" id="DejaVuSans-104"/>
      <path d="M 41.109375 46.296875 
Q 39.59375 47.171875 37.8125 47.578125 
Q 36.03125 48 33.890625 48 
Q 26.265625 48 22.1875 43.046875 
Q 18.109375 38.09375 18.109375 28.8125 
L 18.109375 0 
L 9.078125 0 
L 9.078125 54.6875 
L 18.109375 54.6875 
L 18.109375 46.1875 
Q 20.953125 51.171875 25.484375 53.578125 
Q 30.03125 56 36.53125 56 
Q 37.453125 56 38.578125 55.875 
Q 39.703125 55.765625 41.0625 55.515625 
z
" id="DejaVuSans-114"/>
      <path d="M 56.203125 29.59375 
L 56.203125 25.203125 
L 14.890625 25.203125 
Q 15.484375 15.921875 20.484375 11.0625 
Q 25.484375 6.203125 34.421875 6.203125 
Q 39.59375 6.203125 44.453125 7.46875 
Q 49.3125 8.734375 54.109375 11.28125 
L 54.109375 2.78125 
Q 49.265625 0.734375 44.1875 -0.34375 
Q 39.109375 -1.421875 33.890625 -1.421875 
Q 20.796875 -1.421875 13.15625 6.1875 
Q 5.515625 13.8125 5.515625 26.8125 
Q 5.515625 40.234375 12.765625 48.109375 
Q 20.015625 56 32.328125 56 
Q 43.359375 56 49.78125 48.890625 
Q 56.203125 41.796875 56.203125 29.59375 
z
M 47.21875 32.234375 
Q 47.125 39.59375 43.09375 43.984375 
Q 39.0625 48.390625 32.421875 48.390625 
Q 24.90625 48.390625 20.390625 44.140625 
Q 15.875 39.890625 15.1875 32.171875 
z
" id="DejaVuSans-101"/>
      <path d="M 45.40625 46.390625 
L 45.40625 75.984375 
L 54.390625 75.984375 
L 54.390625 0 
L 45.40625 0 
L 45.40625 8.203125 
Q 42.578125 3.328125 38.25 0.953125 
Q 33.9375 -1.421875 27.875 -1.421875 
Q 17.96875 -1.421875 11.734375 6.484375 
Q 5.515625 14.40625 5.515625 27.296875 
Q 5.515625 40.1875 11.734375 48.09375 
Q 17.96875 56 27.875 56 
Q 33.9375 56 38.25 53.625 
Q 42.578125 51.265625 45.40625 46.390625 
z
M 14.796875 27.296875 
Q 14.796875 17.390625 18.875 11.75 
Q 22.953125 6.109375 30.078125 6.109375 
Q 37.203125 6.109375 41.296875 11.75 
Q 45.40625 17.390625 45.40625 27.296875 
Q 45.40625 37.203125 41.296875 42.84375 
Q 37.203125 48.484375 30.078125 48.484375 
Q 22.953125 48.484375 18.875 42.84375 
Q 14.796875 37.203125 14.796875 27.296875 
z
" id="DejaVuSans-100"/>
      <path d="M 53.515625 70.515625 
L 53.515625 60.890625 
Q 47.90625 63.578125 42.921875 64.890625 
Q 37.9375 66.21875 33.296875 66.21875 
Q 25.25 66.21875 20.875 63.09375 
Q 16.5 59.96875 16.5 54.203125 
Q 16.5 49.359375 19.40625 46.890625 
Q 22.3125 44.4375 30.421875 42.921875 
L 36.375 41.703125 
Q 47.40625 39.59375 52.65625 34.296875 
Q 57.90625 29 57.90625 20.125 
Q 57.90625 9.515625 50.796875 4.046875 
Q 43.703125 -1.421875 29.984375 -1.421875 
Q 24.8125 -1.421875 18.96875 -0.25 
Q 13.140625 0.921875 6.890625 3.21875 
L 6.890625 13.375 
Q 12.890625 10.015625 18.65625 8.296875 
Q 24.421875 6.59375 29.984375 6.59375 
Q 38.421875 6.59375 43.015625 9.90625 
Q 47.609375 13.234375 47.609375 19.390625 
Q 47.609375 24.75 44.3125 27.78125 
Q 41.015625 30.8125 33.5 32.328125 
L 27.484375 33.5 
Q 16.453125 35.6875 11.515625 40.375 
Q 6.59375 45.0625 6.59375 53.421875 
Q 6.59375 63.09375 13.40625 68.65625 
Q 20.21875 74.21875 32.171875 74.21875 
Q 37.3125 74.21875 42.625 73.28125 
Q 47.953125 72.359375 53.515625 70.515625 
z
" id="DejaVuSans-83"/>
      <path d="M 48.78125 52.59375 
L 48.78125 44.1875 
Q 44.96875 46.296875 41.140625 47.34375 
Q 37.3125 48.390625 33.40625 48.390625 
Q 24.65625 48.390625 19.8125 42.84375 
Q 14.984375 37.3125 14.984375 27.296875 
Q 14.984375 17.28125 19.8125 11.734375 
Q 24.65625 6.203125 33.40625 6.203125 
Q 37.3125 6.203125 41.140625 7.25 
Q 44.96875 8.296875 48.78125 10.40625 
L 48.78125 2.09375 
Q 45.015625 0.34375 40.984375 -0.53125 
Q 36.96875 -1.421875 32.421875 -1.421875 
Q 20.0625 -1.421875 12.78125 6.34375 
Q 5.515625 14.109375 5.515625 27.296875 
Q 5.515625 40.671875 12.859375 48.328125 
Q 20.21875 56 33.015625 56 
Q 37.15625 56 41.109375 55.140625 
Q 45.0625 54.296875 48.78125 52.59375 
z
" id="DejaVuSans-99"/>
     </defs>
     <g transform="translate(14.798438 224.430525)rotate(-90)scale(0.1 -0.1)">
      <use xlink:href="#DejaVuSans-80"/>
      <use x="60.302734" xlink:href="#DejaVuSans-104"/>
      <use x="123.681641" xlink:href="#DejaVuSans-114"/>
      <use x="164.763672" xlink:href="#DejaVuSans-101"/>
      <use x="226.287109" xlink:href="#DejaVuSans-100"/>
      <use x="289.763672" xlink:href="#DejaVuSans-32"/>
      <use x="321.550781" xlink:href="#DejaVuSans-83"/>
      <use x="385.027344" xlink:href="#DejaVuSans-99"/>
      <use x="440.007812" xlink:href="#DejaVuSans-111"/>
      <use x="501.189453" xlink:href="#DejaVuSans-114"/>
      <use x="542.271484" xlink:href="#DejaVuSans-101"/>
     </g>
    </g>
   </g>
   <g id="line2d_10">
    <path clip-path="url(#p9d0ad8fcc1)" d="M 81.355398 106.984449 
L 87.167112 107.5364 
L 92.978827 77.182274 
L 98.790541 72.248703 
L 104.602256 70.682753 
L 110.41397 43.329831 
L 116.225684 42.392702 
L 122.037399 41.471957 
L 127.849113 42.159868 
L 145.284257 40.853614 
L 174.342829 41.006763 
L 203.401401 41.421641 
L 232.459974 42.134325 
L 261.518546 42.90052 
L 290.577118 43.157417 
L 319.635691 43.246145 
L 348.694263 43.572402 
L 377.752835 44.064041 
L 406.811407 44.583973 
L 435.86998 45.271856 
L 464.928552 45.839588 
L 493.987124 46.529835 
L 523.045697 48.094013 
L 552.104269 47.210638 
L 581.162841 47.942036 
L 610.221414 49.038209 
L 639.279986 49.778727 
L 668.338558 50.709749 
L 697.39713 51.884913 
L 726.455703 53.869311 
L 755.514275 55.824941 
L 784.572847 58.425486 
L 813.63142 60.87222 
L 842.689992 64.53535 
L 871.748564 68.37932 
L 900.807137 72.380488 
L 929.865709 77.697227 
L 947.300852 81.603973 
" style="fill:none;stroke:#5cb85c;stroke-linecap:square;"/>
   </g>
   <g id="line2d_11">
    <path clip-path="url(#p9d0ad8fcc1)" d="M 81.355398 110.515328 
L 87.167112 112.973736 
L 92.978827 89.313297 
L 98.790541 79.080424 
L 104.602256 81.872284 
L 110.41397 57.015777 
L 116.225684 53.276889 
L 122.037399 47.837524 
L 127.849113 47.485854 
L 145.284257 48.168688 
L 174.342829 46.873809 
L 203.401401 47.390919 
L 232.459974 47.4945 
L 261.518546 48.948358 
L 290.577118 50.399661 
L 319.635691 51.58248 
L 348.694263 54.357248 
L 377.752835 55.080204 
L 406.811407 55.775456 
L 435.86998 56.768113 
L 464.928552 58.004224 
L 493.987124 59.20075 
L 523.045697 62.818735 
L 552.104269 61.444059 
L 581.162841 64.074084 
L 610.221414 67.578237 
L 639.279986 71.808328 
L 668.338558 76.922715 
L 697.39713 81.709483 
L 726.455703 86.731443 
L 755.514275 91.908195 
L 784.572847 96.937344 
L 813.63142 103.150094 
L 842.689992 107.538308 
L 871.748564 113.023734 
L 900.807137 117.75702 
L 929.865709 122.626908 
L 947.300852 126.864503 
" style="fill:none;stroke:#5cb85c;stroke-linecap:square;"/>
   </g>
   <g id="line2d_12">
    <path clip-path="url(#p9d0ad8fcc1)" d="M 81.355398 107.001152 
L 87.167112 107.477501 
L 92.978827 75.527314 
L 98.790541 73.490339 
L 104.602256 70.274515 
L 110.41397 43.472229 
L 116.225684 42.289189 
L 122.037399 41.422776 
L 127.849113 42.212012 
L 145.284257 40.894727 
L 174.342829 41.004678 
L 203.401401 41.403615 
L 232.459974 42.134283 
L 261.518546 42.901749 
L 290.577118 43.218552 
L 319.635691 43.28304 
L 348.694263 43.588863 
L 377.752835 44.061348 
L 406.811407 44.590502 
L 435.86998 45.256864 
L 464.928552 45.796646 
L 493.987124 46.417534 
L 523.045697 47.934483 
L 552.104269 47.037688 
L 581.162841 47.69273 
L 610.221414 48.770217 
L 639.279986 49.493354 
L 668.338558 50.374614 
L 697.39713 51.592164 
L 726.455703 53.583695 
L 755.514275 55.510615 
L 784.572847 58.126962 
L 813.63142 60.560766 
L 842.689992 64.286453 
L 871.748564 68.218092 
L 900.807137 72.283629 
L 929.865709 77.645231 
L 947.300852 81.683239 
" style="fill:none;stroke:#5cb85c;stroke-linecap:square;"/>
   </g>
   <g id="line2d_13">
    <path clip-path="url(#p9d0ad8fcc1)" d="M 81.355398 113.305897 
L 87.167112 113.340711 
L 92.978827 94.022365 
L 98.790541 86.756548 
L 104.602256 82.566863 
L 110.41397 56.851575 
L 116.225684 52.923139 
L 122.037399 47.331529 
L 127.849113 46.888395 
L 145.284257 47.426106 
L 174.342829 46.4679 
L 203.401401 46.983406 
L 232.459974 47.077394 
L 261.518546 48.515904 
L 290.577118 49.928061 
L 319.635691 51.030067 
L 348.694263 53.68439 
L 377.752835 54.372105 
L 406.811407 55.044174 
L 435.86998 55.985976 
L 464.928552 57.176618 
L 493.987124 58.277628 
L 523.045697 61.87434 
L 552.104269 60.496298 
L 581.162841 63.018942 
L 610.221414 66.497546 
L 639.279986 70.687663 
L 668.338558 75.751235 
L 697.39713 80.481563 
L 726.455703 85.46486 
L 755.514275 90.551164 
L 784.572847 95.61289 
L 813.63142 101.74096 
L 842.689992 106.114294 
L 871.748564 111.596615 
L 900.807137 116.332592 
L 929.865709 121.062518 
L 947.300852 125.286082 
" style="fill:none;stroke:#5cb85c;stroke-linecap:square;"/>
   </g>
   <g id="line2d_14">
    <path clip-path="url(#p9d0ad8fcc1)" d="M 81.355398 106.847979 
L 87.167112 107.809215 
L 92.978827 75.643483 
L 98.790541 72.468927 
L 104.602256 70.445185 
L 110.41397 42.80015 
L 116.225684 42.224324 
L 122.037399 41.252158 
L 127.849113 41.947969 
L 145.284257 40.688262 
L 174.342829 40.846026 
L 203.401401 41.236518 
L 232.459974 41.920222 
L 261.518546 42.619195 
L 290.577118 42.780677 
L 319.635691 42.792206 
L 348.694263 43.071261 
L 377.752835 43.49646 
L 406.811407 43.960411 
L 435.86998 44.589511 
L 464.928552 45.098218 
L 493.987124 45.681958 
L 523.045697 47.150204 
L 552.104269 46.302844 
L 581.162841 46.95171 
L 610.221414 47.951772 
L 639.279986 48.6179 
L 668.338558 49.430916 
L 697.39713 50.538099 
L 726.455703 52.408795 
L 755.514275 54.195876 
L 784.572847 56.650293 
L 813.63142 58.941694 
L 842.689992 62.369246 
L 871.748564 66.011931 
L 900.807137 69.807165 
L 929.865709 74.834127 
L 947.300852 78.594954 
" style="fill:none;stroke:#5cb85c;stroke-linecap:square;"/>
   </g>
   <g id="line2d_15">
    <path clip-path="url(#p9d0ad8fcc1)" d="M 81.355398 109.619176 
L 87.167112 111.880705 
L 92.978827 92.85681 
L 98.790541 78.917122 
L 104.602256 74.948246 
L 110.41397 58.186112 
L 116.225684 53.801486 
L 122.037399 47.823937 
L 127.849113 45.22315 
L 145.284257 46.156696 
L 174.342829 44.754791 
L 203.401401 45.449063 
L 232.459974 45.50552 
L 261.518546 46.76437 
L 290.577118 48.129499 
L 319.635691 49.162953 
L 348.694263 51.464495 
L 377.752835 52.183088 
L 406.811407 52.882808 
L 435.86998 53.838194 
L 464.928552 55.024944 
L 493.987124 56.107139 
L 523.045697 59.57701 
L 552.104269 58.329403 
L 581.162841 60.775834 
L 610.221414 64.073156 
L 639.279986 68.042849 
L 668.338558 72.871463 
L 697.39713 77.340515 
L 726.455703 82.094953 
L 755.514275 86.951586 
L 784.572847 91.818982 
L 813.63142 97.769031 
L 842.689992 102.01004 
L 871.748564 107.375899 
L 900.807137 112.028926 
L 929.865709 116.728548 
L 947.300852 120.911712 
" style="fill:none;stroke:#5cb85c;stroke-linecap:square;"/>
   </g>
   <g id="line2d_16">
    <path clip-path="url(#p9d0ad8fcc1)" d="M 81.355398 106.870429 
L 87.167112 107.709429 
L 92.978827 75.412879 
L 98.790541 71.876055 
L 104.602256 70.010088 
L 110.41397 42.960229 
L 116.225684 43.022231 
L 122.037399 41.358023 
L 127.849113 42.090245 
L 145.284257 40.754999 
L 174.342829 40.857104 
L 203.401401 41.251303 
L 232.459974 41.944033 
L 261.518546 42.675589 
L 290.577118 42.931843 
L 319.635691 42.928149 
L 348.694263 43.215213 
L 377.752835 43.641083 
L 406.811407 44.114803 
L 435.86998 44.745886 
L 464.928552 45.259559 
L 493.987124 45.854627 
L 523.045697 47.339279 
L 552.104269 46.467683 
L 581.162841 47.114461 
L 610.221414 48.136546 
L 639.279986 48.813585 
L 668.338558 49.648089 
L 697.39713 50.804054 
L 726.455703 52.724674 
L 755.514275 54.55021 
L 784.572847 57.078027 
L 813.63142 59.433031 
L 842.689992 62.969244 
L 871.748564 66.712911 
L 900.807137 70.625528 
L 929.865709 75.76439 
L 947.300852 79.582814 
" style="fill:none;stroke:#5cb85c;stroke-linecap:square;"/>
   </g>
   <g id="line2d_17">
    <path clip-path="url(#p9d0ad8fcc1)" d="M 81.355398 112.899283 
L 87.167112 116.011158 
L 92.978827 96.12284 
L 98.790541 87.166529 
L 104.602256 85.474335 
L 110.41397 69.487962 
L 116.225684 64.948389 
L 122.037399 56.773108 
L 127.849113 55.406275 
L 145.284257 56.06384 
L 174.342829 54.021106 
L 203.401401 55.206542 
L 232.459974 55.348215 
L 261.518546 57.001795 
L 290.577118 58.607598 
L 319.635691 60.450493 
L 348.694263 63.889185 
L 377.752835 65.28426 
L 406.811407 66.442181 
L 435.86998 67.831346 
L 464.928552 69.321236 
L 493.987124 70.936172 
L 523.045697 74.78243 
L 552.104269 73.306426 
L 581.162841 76.577724 
L 610.221414 80.966087 
L 639.279986 86.217552 
L 668.338558 92.427926 
L 697.39713 98.248976 
L 726.455703 104.279356 
L 755.514275 110.277899 
L 784.572847 116.15878 
L 813.63142 123.16678 
L 842.689992 127.983229 
L 871.748564 133.90709 
L 900.807137 139.268801 
L 929.865709 144.404982 
L 947.300852 148.799067 
" style="fill:none;stroke:#5cb85c;stroke-linecap:square;"/>
   </g>
   <g id="line2d_18">
    <path clip-path="url(#p9d0ad8fcc1)" d="M 81.355398 107.038696 
L 87.167112 107.773473 
L 92.978827 76.264925 
L 98.790541 72.810018 
L 104.602256 70.301483 
L 110.41397 43.081836 
L 116.225684 43.562728 
L 122.037399 41.595063 
L 127.849113 42.357047 
L 145.284257 40.962171 
L 174.342829 41.053145 
L 203.401401 41.428633 
L 232.459974 42.144409 
L 261.518546 42.910044 
L 290.577118 43.083742 
L 319.635691 43.090357 
L 348.694263 43.384889 
L 377.752835 43.836447 
L 406.811407 44.325593 
L 435.86998 44.992868 
L 464.928552 45.520229 
L 493.987124 46.151992 
L 523.045697 47.658475 
L 552.104269 46.783506 
L 581.162841 47.452245 
L 610.221414 48.497664 
L 639.279986 49.203545 
L 668.338558 50.079919 
L 697.39713 51.260206 
L 726.455703 53.241562 
L 755.514275 55.134425 
L 784.572847 57.708891 
L 813.63142 60.09144 
L 842.689992 63.720088 
L 871.748564 67.540963 
L 900.807137 71.534733 
L 929.865709 76.770621 
L 947.300852 80.691575 
" style="fill:none;stroke:#5cb85c;stroke-linecap:square;"/>
   </g>
   <g id="line2d_19">
    <path clip-path="url(#p9d0ad8fcc1)" d="M 81.355398 111.064913 
L 87.167112 112.879496 
L 92.978827 95.395167 
L 98.790541 82.191912 
L 104.602256 80.758419 
L 110.41397 62.494092 
L 116.225684 53.676679 
L 122.037399 49.848622 
L 127.849113 50.01466 
L 145.284257 49.991114 
L 174.342829 48.231388 
L 203.401401 48.796443 
L 232.459974 48.887874 
L 261.518546 50.452076 
L 290.577118 51.938358 
L 319.635691 53.110665 
L 348.694263 56.013158 
L 377.752835 56.783672 
L 406.811407 57.512942 
L 435.86998 58.525445 
L 464.928552 59.740382 
L 493.987124 60.961908 
L 523.045697 64.60388 
L 552.104269 63.175015 
L 581.162841 65.854383 
L 610.221414 69.461207 
L 639.279986 73.832832 
L 668.338558 79.10598 
L 697.39713 84.009533 
L 726.455703 89.1917 
L 755.514275 94.459976 
L 784.572847 99.619502 
L 813.63142 105.922674 
L 842.689992 110.405156 
L 871.748564 115.958527 
L 900.807137 120.860186 
L 929.865709 125.752586 
L 947.300852 130.024989 
" style="fill:none;stroke:#5cb85c;stroke-linecap:square;"/>
   </g>
   <g id="line2d_20">
    <path clip-path="url(#p9d0ad8fcc1)" d="M 81.355398 107.052454 
L 87.167112 107.628481 
L 92.978827 76.034362 
L 98.790541 71.762504 
L 104.602256 70.470316 
L 110.41397 43.374897 
L 116.225684 43.025134 
L 122.037399 41.541962 
L 127.849113 42.358806 
L 145.284257 40.952672 
L 174.342829 41.103071 
L 203.401401 41.488848 
L 232.459974 42.167201 
L 261.518546 42.935793 
L 290.577118 43.147243 
L 319.635691 43.139884 
L 348.694263 43.452598 
L 377.752835 43.901048 
L 406.811407 44.371126 
L 435.86998 45.038488 
L 464.928552 45.61556 
L 493.987124 46.298792 
L 523.045697 47.846585 
L 552.104269 46.916673 
L 581.162841 47.613118 
L 610.221414 48.698228 
L 639.279986 49.430261 
L 668.338558 50.342439 
L 697.39713 51.495009 
L 726.455703 53.477383 
L 755.514275 55.404611 
L 784.572847 58.027062 
L 813.63142 60.446357 
L 842.689992 64.142957 
L 871.748564 68.001925 
L 900.807137 72.020809 
L 929.865709 77.411404 
L 947.300852 81.333489 
" style="fill:none;stroke:#5cb85c;stroke-linecap:square;"/>
   </g>
   <g id="line2d_21">
    <path clip-path="url(#p9d0ad8fcc1)" d="M 81.355398 110.521742 
L 87.167112 112.82757 
L 92.978827 88.94076 
L 98.790541 89.125518 
L 104.602256 79.511471 
L 110.41397 62.41629 
L 116.225684 52.770236 
L 122.037399 49.025677 
L 127.849113 49.09533 
L 145.284257 48.931969 
L 174.342829 47.09184 
L 203.401401 47.67364 
L 232.459974 47.669292 
L 261.518546 49.165357 
L 290.577118 50.665024 
L 319.635691 51.77249 
L 348.694263 54.474773 
L 377.752835 55.273761 
L 406.811407 56.001682 
L 435.86998 57.024171 
L 464.928552 58.264529 
L 493.987124 59.464372 
L 523.045697 63.066325 
L 552.104269 61.646664 
L 581.162841 64.277408 
L 610.221414 67.792208 
L 639.279986 72.023379 
L 668.338558 77.184632 
L 697.39713 81.993208 
L 726.455703 87.093125 
L 755.514275 92.301115 
L 784.572847 97.399774 
L 813.63142 103.655172 
L 842.689992 108.080074 
L 871.748564 113.605661 
L 900.807137 118.390432 
L 929.865709 123.368224 
L 947.300852 127.530333 
" style="fill:none;stroke:#5cb85c;stroke-linecap:square;"/>
   </g>
   <g id="line2d_22">
    <path clip-path="url(#p9d0ad8fcc1)" d="M 81.355398 106.900187 
L 87.167112 107.174275 
L 92.978827 75.821142 
L 98.790541 74.33883 
L 104.602256 71.078232 
L 110.41397 44.347322 
L 116.225684 43.736487 
L 122.037399 42.457373 
L 127.849113 42.481939 
L 145.284257 41.231994 
L 174.342829 41.282011 
L 203.401401 41.806692 
L 232.459974 42.574087 
L 261.518546 43.214159 
L 290.577118 43.58792 
L 319.635691 43.662509 
L 348.694263 44.040654 
L 377.752835 44.370705 
L 406.811407 44.89436 
L 435.86998 45.499778 
L 464.928552 45.981054 
L 493.987124 46.661076 
L 523.045697 48.383114 
L 552.104269 47.367451 
L 581.162841 48.101466 
L 610.221414 48.786673 
L 639.279986 49.695767 
L 668.338558 50.669487 
L 697.39713 51.752373 
L 726.455703 53.541506 
L 755.514275 55.095509 
L 784.572847 56.882349 
L 813.63142 59.491053 
L 842.689992 62.359025 
L 871.748564 65.789128 
L 900.807137 69.251421 
L 929.865709 73.644775 
L 947.300852 77.414299 
" style="fill:none;stroke:#5cb85c;stroke-linecap:square;"/>
   </g>
   <g id="line2d_23">
    <path clip-path="url(#p9d0ad8fcc1)" d="M 81.355398 110.152948 
L 87.167112 114.171351 
L 92.978827 95.356283 
L 98.790541 82.536243 
L 104.602256 84.510039 
L 110.41397 56.636409 
L 116.225684 49.631897 
L 122.037399 67.261084 
L 127.849113 55.63685 
L 145.284257 48.715788 
L 174.342829 46.836329 
L 203.401401 46.759147 
L 232.459974 46.821503 
L 261.518546 47.908501 
L 290.577118 49.039586 
L 319.635691 49.824301 
L 348.694263 51.845353 
L 377.752835 52.121313 
L 406.811407 52.629556 
L 435.86998 53.355679 
L 464.928552 54.328441 
L 493.987124 54.967748 
L 523.045697 58.081834 
L 552.104269 56.927301 
L 581.162841 58.754119 
L 610.221414 60.603304 
L 639.279986 63.07243 
L 668.338558 66.59247 
L 697.39713 70.565467 
L 726.455703 74.578088 
L 755.514275 79.923542 
L 784.572847 85.001198 
L 813.63142 89.688183 
L 842.689992 93.755811 
L 871.748564 98.476616 
L 900.807137 103.276678 
L 929.865709 109.290847 
L 947.300852 112.556013 
" style="fill:none;stroke:#5cb85c;stroke-linecap:square;"/>
   </g>
   <g id="line2d_24">
    <path clip-path="url(#p9d0ad8fcc1)" d="M 81.355398 106.938972 
L 87.167112 107.224701 
L 92.978827 78.585226 
L 98.790541 72.850563 
L 104.602256 71.187873 
L 110.41397 44.370078 
L 116.225684 43.632261 
L 122.037399 42.554578 
L 127.849113 42.602481 
L 145.284257 41.332635 
L 174.342829 41.37372 
L 203.401401 41.907621 
L 232.459974 42.698454 
L 261.518546 43.32218 
L 290.577118 43.784504 
L 319.635691 43.81879 
L 348.694263 44.175296 
L 377.752835 44.498617 
L 406.811407 45.029874 
L 435.86998 45.649726 
L 464.928552 46.133064 
L 493.987124 46.802517 
L 523.045697 48.51385 
L 552.104269 47.490334 
L 581.162841 48.215157 
L 610.221414 48.912873 
L 639.279986 49.821403 
L 668.338558 50.804256 
L 697.39713 51.91931 
L 726.455703 53.735252 
L 755.514275 55.286901 
L 784.572847 57.097565 
L 813.63142 59.743667 
L 842.689992 62.649767 
L 871.748564 66.121126 
L 900.807137 69.645825 
L 929.865709 74.062108 
L 947.300852 77.891686 
" style="fill:none;stroke:#5cb85c;stroke-linecap:square;"/>
   </g>
   <g id="line2d_25">
    <path clip-path="url(#p9d0ad8fcc1)" d="M 81.355398 109.391905 
L 87.167112 111.679586 
L 92.978827 94.655863 
L 98.790541 86.074556 
L 104.602256 81.617968 
L 110.41397 53.626185 
L 116.225684 53.504945 
L 122.037399 59.068212 
L 127.849113 52.544157 
L 145.284257 48.917251 
L 174.342829 47.074263 
L 203.401401 47.484435 
L 232.459974 47.372512 
L 261.518546 48.410748 
L 290.577118 49.589599 
L 319.635691 50.507969 
L 348.694263 52.386499 
L 377.752835 52.970848 
L 406.811407 53.728696 
L 435.86998 54.598411 
L 464.928552 55.682903 
L 493.987124 56.415342 
L 523.045697 59.540458 
L 552.104269 58.423887 
L 581.162841 60.318988 
L 610.221414 62.263065 
L 639.279986 64.832564 
L 668.338558 68.485794 
L 697.39713 72.588293 
L 726.455703 76.738269 
L 755.514275 82.186479 
L 784.572847 87.36954 
L 813.63142 92.115391 
L 842.689992 96.25008 
L 871.748564 101.000311 
L 900.807137 105.886337 
L 929.865709 111.854338 
L 947.300852 115.147227 
" style="fill:none;stroke:#5cb85c;stroke-linecap:square;"/>
   </g>
   <g id="line2d_26">
    <path clip-path="url(#p9d0ad8fcc1)" d="M 81.355398 107.050141 
L 87.167112 107.485209 
L 92.978827 75.600787 
L 98.790541 71.67925 
L 104.602256 70.473512 
L 110.41397 43.356176 
L 116.225684 43.30172 
L 122.037399 41.698653 
L 127.849113 42.424458 
L 145.284257 40.963063 
L 174.342829 41.067493 
L 203.401401 41.474623 
L 232.459974 42.204944 
L 261.518546 43.000849 
L 290.577118 43.30863 
L 319.635691 43.348534 
L 348.694263 43.661746 
L 377.752835 44.152579 
L 406.811407 44.664077 
L 435.86998 45.332972 
L 464.928552 45.878406 
L 493.987124 46.550699 
L 523.045697 48.075877 
L 552.104269 47.169729 
L 581.162841 47.866565 
L 610.221414 48.93777 
L 639.279986 49.68401 
L 668.338558 50.584411 
L 697.39713 51.799544 
L 726.455703 53.801264 
L 755.514275 55.755972 
L 784.572847 58.402411 
L 813.63142 60.835077 
L 842.689992 64.570699 
L 871.748564 68.49257 
L 900.807137 72.545511 
L 929.865709 77.941164 
L 947.300852 81.957357 
" style="fill:none;stroke:#5cb85c;stroke-linecap:square;"/>
   </g>
   <g id="line2d_27">
    <path clip-path="url(#p9d0ad8fcc1)" d="M 81.355398 111.034272 
L 87.167112 112.832524 
L 92.978827 91.22022 
L 98.790541 78.168086 
L 104.602256 78.967271 
L 110.41397 60.663426 
L 116.225684 57.70684 
L 122.037399 48.865473 
L 127.849113 48.972298 
L 145.284257 48.188316 
L 174.342829 47.252771 
L 203.401401 47.61102 
L 232.459974 47.718798 
L 261.518546 49.20307 
L 290.577118 50.693099 
L 319.635691 51.744069 
L 348.694263 54.697596 
L 377.752835 55.412096 
L 406.811407 56.078549 
L 435.86998 57.028165 
L 464.928552 58.231455 
L 493.987124 59.371726 
L 523.045697 62.96802 
L 552.104269 61.558009 
L 581.162841 64.160544 
L 610.221414 67.679349 
L 639.279986 71.947458 
L 668.338558 77.082192 
L 697.39713 81.90373 
L 726.455703 86.943317 
L 755.514275 92.142449 
L 784.572847 97.223628 
L 813.63142 103.460022 
L 842.689992 107.848486 
L 871.748564 113.400731 
L 900.807137 118.187613 
L 929.865709 123.050157 
L 947.300852 127.311992 
" style="fill:none;stroke:#5cb85c;stroke-linecap:square;"/>
   </g>
   <g id="line2d_28">
    <path clip-path="url(#p9d0ad8fcc1)" d="M 81.355398 106.936039 
L 87.167112 107.441199 
L 92.978827 75.97813 
L 98.790541 73.778891 
L 104.602256 70.099919 
L 110.41397 43.529229 
L 116.225684 42.984407 
L 122.037399 41.394807 
L 127.849113 42.176161 
L 145.284257 40.778687 
L 174.342829 40.864011 
L 203.401401 41.25331 
L 232.459974 41.939969 
L 261.518546 42.704768 
L 290.577118 42.978785 
L 319.635691 42.966815 
L 348.694263 43.246417 
L 377.752835 43.712765 
L 406.811407 44.211009 
L 435.86998 44.858988 
L 464.928552 45.390243 
L 493.987124 46.014518 
L 523.045697 47.509652 
L 552.104269 46.630381 
L 581.162841 47.295501 
L 610.221414 48.3624 
L 639.279986 49.07843 
L 668.338558 49.948289 
L 697.39713 51.127185 
L 726.455703 53.074183 
L 755.514275 54.967661 
L 784.572847 57.557049 
L 813.63142 59.952408 
L 842.689992 63.61874 
L 871.748564 67.48579 
L 900.807137 71.507162 
L 929.865709 76.833624 
L 947.300852 80.839696 
" style="fill:none;stroke:#5cb85c;stroke-linecap:square;"/>
   </g>
   <g id="line2d_29">
    <path clip-path="url(#p9d0ad8fcc1)" d="M 81.355398 110.165209 
L 87.167112 112.960826 
L 92.978827 93.074935 
L 98.790541 85.673583 
L 104.602256 77.579353 
L 110.41397 62.823807 
L 116.225684 60.001835 
L 122.037399 51.646038 
L 127.849113 51.427017 
L 145.284257 48.919944 
L 174.342829 47.42173 
L 203.401401 47.919799 
L 232.459974 47.958352 
L 261.518546 49.385424 
L 290.577118 50.752375 
L 319.635691 51.942262 
L 348.694263 54.717549 
L 377.752835 55.694346 
L 406.811407 56.523067 
L 435.86998 57.592851 
L 464.928552 58.88212 
L 493.987124 60.104044 
L 523.045697 63.744104 
L 552.104269 62.356493 
L 581.162841 65.049623 
L 610.221414 68.716847 
L 639.279986 73.143683 
L 668.338558 78.432973 
L 697.39713 83.419656 
L 726.455703 88.603958 
L 755.514275 93.929798 
L 784.572847 99.177521 
L 813.63142 105.56447 
L 842.689992 110.075395 
L 871.748564 115.729632 
L 900.807137 120.66434 
L 929.865709 125.575784 
L 947.300852 129.922602 
" style="fill:none;stroke:#5cb85c;stroke-linecap:square;"/>
   </g>
   <g id="line2d_30">
    <path clip-path="url(#p9d0ad8fcc1)" d="M 81.355398 108.315722 
L 87.167112 107.642194 
L 92.978827 79.304668 
L 98.790541 72.359486 
L 104.602256 71.228145 
L 110.41397 45.089593 
L 116.225684 43.041785 
L 122.037399 42.532061 
L 127.849113 42.533516 
L 145.284257 41.320458 
L 174.342829 41.388266 
L 203.401401 41.914072 
L 232.459974 42.694961 
L 261.518546 43.26441 
L 290.577118 43.566522 
L 319.635691 43.623733 
L 348.694263 43.987418 
L 377.752835 44.314638 
L 406.811407 44.853213 
L 435.86998 45.452934 
L 464.928552 45.911383 
L 493.987124 46.567095 
L 523.045697 48.25946 
L 552.104269 47.266085 
L 581.162841 47.983879 
L 610.221414 48.663406 
L 639.279986 49.539466 
L 668.338558 50.46516 
L 697.39713 51.555011 
L 726.455703 53.317311 
L 755.514275 54.824652 
L 784.572847 56.565289 
L 813.63142 59.142198 
L 842.689992 61.976271 
L 871.748564 65.3786 
L 900.807137 68.811634 
L 929.865709 73.113634 
L 947.300852 76.893418 
" style="fill:none;stroke:#5cb85c;stroke-linecap:square;"/>
   </g>
   <g id="line2d_31">
    <path clip-path="url(#p9d0ad8fcc1)" d="M 81.355398 111.012019 
L 87.167112 114.704244 
L 92.978827 97.551885 
L 98.790541 83.440469 
L 104.602256 76.734354 
L 110.41397 52.440833 
L 116.225684 56.848446 
L 122.037399 48.942515 
L 127.849113 47.609448 
L 145.284257 48.376588 
L 174.342829 46.648085 
L 203.401401 47.233594 
L 232.459974 47.200646 
L 261.518546 48.25127 
L 290.577118 49.490091 
L 319.635691 50.393921 
L 348.694263 52.320727 
L 377.752835 52.833175 
L 406.811407 53.540154 
L 435.86998 54.380907 
L 464.928552 55.442836 
L 493.987124 56.16331 
L 523.045697 59.367976 
L 552.104269 58.229729 
L 581.162841 60.145129 
L 610.221414 62.118272 
L 639.279986 64.742261 
L 668.338558 68.422828 
L 697.39713 72.646663 
L 726.455703 76.817616 
L 755.514275 82.406336 
L 784.572847 87.718177 
L 813.63142 92.616701 
L 842.689992 96.825305 
L 871.748564 101.676417 
L 900.807137 106.675844 
L 929.865709 112.714944 
L 947.300852 116.087002 
" style="fill:none;stroke:#5cb85c;stroke-linecap:square;"/>
   </g>
   <g id="line2d_32">
    <path clip-path="url(#p9d0ad8fcc1)" d="M 81.355398 108.10429 
L 87.167112 107.519945 
L 92.978827 76.199634 
L 98.790541 72.695604 
L 104.602256 70.674819 
L 110.41397 44.181131 
L 116.225684 43.389981 
L 122.037399 42.496405 
L 127.849113 42.506686 
L 145.284257 41.260167 
L 174.342829 41.337027 
L 203.401401 41.862407 
L 232.459974 42.647289 
L 261.518546 43.234974 
L 290.577118 43.658284 
L 319.635691 43.68351 
L 348.694263 44.051105 
L 377.752835 44.375602 
L 406.811407 44.901485 
L 435.86998 45.503916 
L 464.928552 45.969569 
L 493.987124 46.606323 
L 523.045697 48.291687 
L 552.104269 47.277902 
L 581.162841 47.983045 
L 610.221414 48.646142 
L 639.279986 49.534937 
L 668.338558 50.450479 
L 697.39713 51.535305 
L 726.455703 53.284447 
L 755.514275 54.784417 
L 784.572847 56.540562 
L 813.63142 59.11131 
L 842.689992 61.934528 
L 871.748564 65.324247 
L 900.807137 68.762308 
L 929.865709 73.050464 
L 947.300852 76.822333 
" style="fill:none;stroke:#5cb85c;stroke-linecap:square;"/>
   </g>
   <g id="line2d_33">
    <path clip-path="url(#p9d0ad8fcc1)" d="M 81.355398 109.719786 
L 87.167112 111.969498 
L 92.978827 90.394319 
L 98.790541 83.315326 
L 104.602256 85.478196 
L 110.41397 56.052892 
L 116.225684 60.445135 
L 122.037399 50.807499 
L 127.849113 48.525737 
L 145.284257 48.663969 
L 174.342829 46.15854 
L 203.401401 46.666076 
L 232.459974 46.721821 
L 261.518546 47.804802 
L 290.577118 49.096546 
L 319.635691 49.877973 
L 348.694263 51.716585 
L 377.752835 52.138797 
L 406.811407 52.804809 
L 435.86998 53.613405 
L 464.928552 54.652462 
L 493.987124 55.333386 
L 523.045697 58.495102 
L 552.104269 57.385722 
L 581.162841 59.252904 
L 610.221414 61.159046 
L 639.279986 63.703347 
L 668.338558 67.282839 
L 697.39713 71.376869 
L 726.455703 75.447591 
L 755.514275 80.894792 
L 784.572847 86.128342 
L 813.63142 90.940471 
L 842.689992 95.061061 
L 871.748564 99.866979 
L 900.807137 104.794967 
L 929.865709 110.780079 
L 947.300852 114.113331 
" style="fill:none;stroke:#5cb85c;stroke-linecap:square;"/>
   </g>
   <g id="line2d_34">
    <path clip-path="url(#p9d0ad8fcc1)" d="M 81.355398 108.1077 
L 87.167112 107.578879 
L 92.978827 77.868808 
L 98.790541 74.970726 
L 104.602256 71.247944 
L 110.41397 44.668862 
L 116.225684 43.838785 
L 122.037399 42.670875 
L 127.849113 42.572772 
L 145.284257 41.295122 
L 174.342829 41.36625 
L 203.401401 41.917337 
L 232.459974 42.698017 
L 261.518546 43.309295 
L 290.577118 43.74063 
L 319.635691 43.845386 
L 348.694263 44.240726 
L 377.752835 44.596617 
L 406.811407 45.154074 
L 435.86998 45.782622 
L 464.928552 46.287361 
L 493.987124 47.014462 
L 523.045697 48.770122 
L 552.104269 47.75859 
L 581.162841 48.528275 
L 610.221414 49.234656 
L 639.279986 50.173243 
L 668.338558 51.169692 
L 697.39713 52.285726 
L 726.455703 54.092959 
L 755.514275 55.681562 
L 784.572847 57.478423 
L 813.63142 60.122984 
L 842.689992 62.997639 
L 871.748564 66.4453 
L 900.807137 69.935651 
L 929.865709 74.310502 
L 947.300852 78.105543 
" style="fill:none;stroke:#5cb85c;stroke-linecap:square;"/>
   </g>
   <g id="line2d_35">
    <path clip-path="url(#p9d0ad8fcc1)" d="M 81.355398 109.803297 
L 87.167112 114.371455 
L 92.978827 91.85712 
L 98.790541 85.436025 
L 104.602256 76.073516 
L 110.41397 56.626005 
L 116.225684 58.243771 
L 122.037399 50.83212 
L 127.849113 48.941283 
L 145.284257 48.670976 
L 174.342829 46.464612 
L 203.401401 46.845846 
L 232.459974 46.926211 
L 261.518546 48.015735 
L 290.577118 49.162968 
L 319.635691 50.079466 
L 348.694263 51.981299 
L 377.752835 52.305288 
L 406.811407 52.901176 
L 435.86998 53.687678 
L 464.928552 54.737201 
L 493.987124 55.440999 
L 523.045697 58.571877 
L 552.104269 57.459893 
L 581.162841 59.32324 
L 610.221414 61.205636 
L 639.279986 63.714519 
L 668.338558 67.268521 
L 697.39713 71.299922 
L 726.455703 75.305545 
L 755.514275 80.693758 
L 784.572847 85.766653 
L 813.63142 90.508007 
L 842.689992 94.558274 
L 871.748564 99.290923 
L 900.807137 104.121054 
L 929.865709 110.10778 
L 947.300852 113.401475 
" style="fill:none;stroke:#5cb85c;stroke-linecap:square;"/>
   </g>
   <g id="line2d_36">
    <path clip-path="url(#p9d0ad8fcc1)" d="M 81.355398 106.856347 
L 87.167112 107.85124 
L 92.978827 75.690708 
L 98.790541 72.516895 
L 104.602256 70.169457 
L 110.41397 43.215603 
L 116.225684 42.693881 
L 122.037399 41.272939 
L 127.849113 42.031145 
L 145.284257 40.662717 
L 174.342829 40.771168 
L 203.401401 41.173092 
L 232.459974 41.847483 
L 261.518546 42.567711 
L 290.577118 42.807962 
L 319.635691 42.860609 
L 348.694263 43.1703 
L 377.752835 43.63735 
L 406.811407 44.140178 
L 435.86998 44.798148 
L 464.928552 45.352971 
L 493.987124 45.995061 
L 523.045697 47.512664 
L 552.104269 46.647308 
L 581.162841 47.332329 
L 610.221414 48.384632 
L 639.279986 49.099828 
L 668.338558 49.983938 
L 697.39713 51.148398 
L 726.455703 53.076517 
L 755.514275 54.970596 
L 784.572847 57.527031 
L 813.63142 59.91102 
L 842.689992 63.517678 
L 871.748564 67.329889 
L 900.807137 71.27313 
L 929.865709 76.511717 
L 947.300852 80.436466 
" style="fill:none;stroke:#5cb85c;stroke-linecap:square;"/>
   </g>
   <g id="line2d_37">
    <path clip-path="url(#p9d0ad8fcc1)" d="M 81.355398 110.50376 
L 87.167112 112.424514 
L 92.978827 91.013502 
L 98.790541 77.757829 
L 104.602256 74.859242 
L 110.41397 54.709679 
L 116.225684 61.173516 
L 122.037399 48.947815 
L 127.849113 46.520634 
L 145.284257 46.989581 
L 174.342829 45.763219 
L 203.401401 46.525036 
L 232.459974 46.608212 
L 261.518546 47.984821 
L 290.577118 49.478865 
L 319.635691 50.596375 
L 348.694263 53.217557 
L 377.752835 54.050032 
L 406.811407 54.817393 
L 435.86998 55.844463 
L 464.928552 57.063214 
L 493.987124 58.230552 
L 523.045697 61.810422 
L 552.104269 60.480585 
L 581.162841 63.044716 
L 610.221414 66.492882 
L 639.279986 70.660669 
L 668.338558 75.704775 
L 697.39713 80.415106 
L 726.455703 85.396388 
L 755.514275 90.501343 
L 784.572847 95.504297 
L 813.63142 101.660688 
L 842.689992 106.022322 
L 871.748564 111.517946 
L 900.807137 116.229698 
L 929.865709 121.067609 
L 947.300852 125.301107 
" style="fill:none;stroke:#5cb85c;stroke-linecap:square;"/>
   </g>
   <g id="line2d_38">
    <path clip-path="url(#p9d0ad8fcc1)" d="M 81.355398 107.453771 
L 87.167112 107.104272 
L 92.978827 75.873771 
L 98.790541 74.019702 
L 104.602256 70.760578 
L 110.41397 44.177999 
L 116.225684 42.777966 
L 122.037399 42.373175 
L 127.849113 42.468141 
L 145.284257 41.23596 
L 174.342829 41.310029 
L 203.401401 41.849991 
L 232.459974 42.635618 
L 261.518546 43.230228 
L 290.577118 43.704974 
L 319.635691 43.794075 
L 348.694263 44.212676 
L 377.752835 44.557151 
L 406.811407 45.113238 
L 435.86998 45.725559 
L 464.928552 46.225522 
L 493.987124 46.923354 
L 523.045697 48.660436 
L 552.104269 47.642461 
L 581.162841 48.38909 
L 610.221414 49.073548 
L 639.279986 50.002401 
L 668.338558 50.967027 
L 697.39713 52.065103 
L 726.455703 53.85642 
L 755.514275 55.418744 
L 784.572847 57.202599 
L 813.63142 59.829889 
L 842.689992 62.722391 
L 871.748564 66.174864 
L 900.807137 69.678238 
L 929.865709 74.095687 
L 947.300852 77.916247 
" style="fill:none;stroke:#5cb85c;stroke-linecap:square;"/>
   </g>
   <g id="line2d_39">
    <path clip-path="url(#p9d0ad8fcc1)" d="M 81.355398 110.657591 
L 87.167112 114.765678 
L 92.978827 91.788231 
L 98.790541 83.611562 
L 104.602256 81.268481 
L 110.41397 53.344525 
L 116.225684 50.888573 
L 122.037399 57.172022 
L 127.849113 49.11383 
L 145.284257 47.741223 
L 174.342829 45.916741 
L 203.401401 46.558334 
L 232.459974 46.604378 
L 261.518546 47.619947 
L 290.577118 48.99103 
L 319.635691 49.784944 
L 348.694263 51.66681 
L 377.752835 52.261324 
L 406.811407 53.03963 
L 435.86998 53.931466 
L 464.928552 55.08087 
L 493.987124 55.798706 
L 523.045697 59.001102 
L 552.104269 57.878492 
L 581.162841 59.791382 
L 610.221414 61.71843 
L 639.279986 64.313012 
L 668.338558 67.943421 
L 697.39713 72.105221 
L 726.455703 76.184699 
L 755.514275 81.723771 
L 784.572847 86.979454 
L 813.63142 91.863566 
L 842.689992 96.042036 
L 871.748564 100.871708 
L 900.807137 105.802091 
L 929.865709 111.860125 
L 947.300852 115.172002 
" style="fill:none;stroke:#5cb85c;stroke-linecap:square;"/>
   </g>
   <g id="line2d_40">
    <path clip-path="url(#p9d0ad8fcc1)" d="M 81.355398 106.985778 
L 87.167112 107.307955 
L 92.978827 77.576735 
L 98.790541 72.326733 
L 104.602256 71.222504 
L 110.41397 43.036366 
L 116.225684 43.70774 
L 122.037399 42.646711 
L 127.849113 42.674875 
L 145.284257 41.419198 
L 174.342829 41.464689 
L 203.401401 41.995818 
L 232.459974 42.785633 
L 261.518546 43.446682 
L 290.577118 43.929592 
L 319.635691 43.916572 
L 348.694263 44.261065 
L 377.752835 44.599078 
L 406.811407 45.144619 
L 435.86998 45.754567 
L 464.928552 46.251949 
L 493.987124 46.920009 
L 523.045697 48.646659 
L 552.104269 47.63474 
L 581.162841 48.354965 
L 610.221414 49.053842 
L 639.279986 49.985412 
L 668.338558 50.956819 
L 697.39713 52.088087 
L 726.455703 53.901057 
L 755.514275 55.467359 
L 784.572847 57.299193 
L 813.63142 59.973058 
L 842.689992 62.904117 
L 871.748564 66.413151 
L 900.807137 69.979042 
L 929.865709 74.435016 
L 947.300852 78.325045 
" style="fill:none;stroke:#5cb85c;stroke-linecap:square;"/>
   </g>
   <g id="line2d_41">
    <path clip-path="url(#p9d0ad8fcc1)" d="M 81.355398 109.610528 
L 87.167112 116.091561 
L 92.978827 100.557054 
L 98.790541 88.767376 
L 104.602256 80.917534 
L 110.41397 62.293306 
L 116.225684 59.914912 
L 122.037399 67.199732 
L 127.849113 58.304781 
L 145.284257 50.909374 
L 174.342829 48.138108 
L 203.401401 48.235571 
L 232.459974 48.190869 
L 261.518546 49.306537 
L 290.577118 50.527183 
L 319.635691 51.439603 
L 348.694263 53.490481 
L 377.752835 53.986165 
L 406.811407 54.676622 
L 435.86998 55.505699 
L 464.928552 56.630141 
L 493.987124 57.33348 
L 523.045697 60.580058 
L 552.104269 59.399406 
L 581.162841 61.371239 
L 610.221414 63.411054 
L 639.279986 66.133631 
L 668.338558 69.948599 
L 697.39713 74.290108 
L 726.455703 78.595039 
L 755.514275 84.31994 
L 784.572847 89.750413 
L 813.63142 94.75848 
L 842.689992 99.050803 
L 871.748564 103.983366 
L 900.807137 109.019942 
L 929.865709 115.119966 
L 947.300852 118.536035 
" style="fill:none;stroke:#5cb85c;stroke-linecap:square;"/>
   </g>
   <g id="line2d_42">
    <path clip-path="url(#p9d0ad8fcc1)" d="M 81.355398 107.993071 
L 87.167112 107.341972 
L 92.978827 78.474647 
L 98.790541 73.760416 
L 104.602256 70.791967 
L 110.41397 44.420877 
L 116.225684 43.732989 
L 122.037399 42.429943 
L 127.849113 42.427571 
L 145.284257 41.160767 
L 174.342829 41.232122 
L 203.401401 41.752685 
L 232.459974 42.5121 
L 261.518546 43.073342 
L 290.577118 43.429166 
L 319.635691 43.504747 
L 348.694263 43.912839 
L 377.752835 44.230043 
L 406.811407 44.771583 
L 435.86998 45.358183 
L 464.928552 45.830847 
L 493.987124 46.497851 
L 523.045697 48.197888 
L 552.104269 47.17968 
L 581.162841 47.886117 
L 610.221414 48.547505 
L 639.279986 49.436883 
L 668.338558 50.357635 
L 697.39713 51.438509 
L 726.455703 53.172541 
L 755.514275 54.679989 
L 784.572847 56.412982 
L 813.63142 58.981573 
L 842.689992 61.778098 
L 871.748564 65.163341 
L 900.807137 68.589651 
L 929.865709 72.917822 
L 947.300852 76.682923 
" style="fill:none;stroke:#5cb85c;stroke-linecap:square;"/>
   </g>
   <g id="line2d_43">
    <path clip-path="url(#p9d0ad8fcc1)" d="M 81.355398 109.368661 
L 87.167112 113.098878 
L 92.978827 94.50022 
L 98.790541 85.579518 
L 104.602256 90.786303 
L 110.41397 58.827662 
L 116.225684 72.675847 
L 122.037399 55.27503 
L 127.849113 48.544461 
L 145.284257 49.540424 
L 174.342829 47.062093 
L 203.401401 47.710449 
L 232.459974 47.827525 
L 261.518546 48.945914 
L 290.577118 50.244217 
L 319.635691 51.229446 
L 348.694263 53.224429 
L 377.752835 53.599507 
L 406.811407 54.27086 
L 435.86998 55.075829 
L 464.928552 56.227124 
L 493.987124 56.94432 
L 523.045697 60.194322 
L 552.104269 59.031024 
L 581.162841 61.018318 
L 610.221414 63.038854 
L 639.279986 65.743287 
L 668.338558 69.537294 
L 697.39713 73.89326 
L 726.455703 78.154672 
L 755.514275 83.921321 
L 784.572847 89.375849 
L 813.63142 94.449381 
L 842.689992 98.742623 
L 871.748564 103.700563 
L 900.807137 108.791449 
L 929.865709 114.932628 
L 947.300852 118.367151 
" style="fill:none;stroke:#5cb85c;stroke-linecap:square;"/>
   </g>
   <g id="line2d_44">
    <path clip-path="url(#p9d0ad8fcc1)" d="M 81.355398 107.857792 
L 87.167112 107.271699 
L 92.978827 75.816702 
L 98.790541 71.966848 
L 104.602256 70.668241 
L 110.41397 43.824385 
L 116.225684 42.533317 
L 122.037399 42.102622 
L 127.849113 42.145319 
L 145.284257 41.035493 
L 174.342829 41.114544 
L 203.401401 41.633561 
L 232.459974 42.383529 
L 261.518546 42.967643 
L 290.577118 43.36526 
L 319.635691 43.439003 
L 348.694263 43.816638 
L 377.752835 44.144111 
L 406.811407 44.677032 
L 435.86998 45.266683 
L 464.928552 45.707944 
L 493.987124 46.342329 
L 523.045697 48.018972 
L 552.104269 47.038774 
L 581.162841 47.744005 
L 610.221414 48.410046 
L 639.279986 49.272181 
L 668.338558 50.177678 
L 697.39713 51.238161 
L 726.455703 52.961574 
L 755.514275 54.439784 
L 784.572847 56.15666 
L 813.63142 58.676291 
L 842.689992 61.44107 
L 871.748564 64.768233 
L 900.807137 68.13599 
L 929.865709 72.352037 
L 947.300852 76.09264 
" style="fill:none;stroke:#5cb85c;stroke-linecap:square;"/>
   </g>
   <g id="line2d_45">
    <path clip-path="url(#p9d0ad8fcc1)" d="M 81.355398 110.287987 
L 87.167112 115.862565 
L 92.978827 92.214379 
L 98.790541 87.877981 
L 104.602256 75.617393 
L 110.41397 58.505928 
L 116.225684 65.202012 
L 122.037399 50.67015 
L 127.849113 47.969327 
L 145.284257 48.588062 
L 174.342829 46.554989 
L 203.401401 46.923615 
L 232.459974 46.949306 
L 261.518546 48.009311 
L 290.577118 49.235439 
L 319.635691 50.115027 
L 348.694263 52.084257 
L 377.752835 52.502325 
L 406.811407 53.159268 
L 435.86998 53.959055 
L 464.928552 55.021635 
L 493.987124 55.714911 
L 523.045697 58.876119 
L 552.104269 57.737326 
L 581.162841 59.644033 
L 610.221414 61.601124 
L 639.279986 64.184981 
L 668.338558 67.812597 
L 697.39713 71.957435 
L 726.455703 76.089793 
L 755.514275 81.60079 
L 784.572847 86.90424 
L 813.63142 91.755522 
L 842.689992 95.913911 
L 871.748564 100.753806 
L 900.807137 105.754368 
L 929.865709 111.798799 
L 947.300852 115.173944 
" style="fill:none;stroke:#5cb85c;stroke-linecap:square;"/>
   </g>
   <g id="line2d_46">
    <path clip-path="url(#p9d0ad8fcc1)" d="M 38.058125 353.2239 
L 990.598125 353.2239 
" style="fill:none;stroke:#dedede;stroke-linecap:square;stroke-width:2;"/>
   </g>
   <g id="text_20">
    <!-- FastQC: Mean Quality Scores -->
    <defs>
     <path d="M 9.8125 72.90625 
L 51.703125 72.90625 
L 51.703125 64.59375 
L 19.671875 64.59375 
L 19.671875 43.109375 
L 48.578125 43.109375 
L 48.578125 34.8125 
L 19.671875 34.8125 
L 19.671875 0 
L 9.8125 0 
z
" id="DejaVuSans-70"/>
     <path d="M 34.28125 27.484375 
Q 23.390625 27.484375 19.1875 25 
Q 14.984375 22.515625 14.984375 16.5 
Q 14.984375 11.71875 18.140625 8.90625 
Q 21.296875 6.109375 26.703125 6.109375 
Q 34.1875 6.109375 38.703125 11.40625 
Q 43.21875 16.703125 43.21875 25.484375 
L 43.21875 27.484375 
z
M 52.203125 31.203125 
L 52.203125 0 
L 43.21875 0 
L 43.21875 8.296875 
Q 40.140625 3.328125 35.546875 0.953125 
Q 30.953125 -1.421875 24.3125 -1.421875 
Q 15.921875 -1.421875 10.953125 3.296875 
Q 6 8.015625 6 15.921875 
Q 6 25.140625 12.171875 29.828125 
Q 18.359375 34.515625 30.609375 34.515625 
L 43.21875 34.515625 
L 43.21875 35.40625 
Q 43.21875 41.609375 39.140625 45 
Q 35.0625 48.390625 27.6875 48.390625 
Q 23 48.390625 18.546875 47.265625 
Q 14.109375 46.140625 10.015625 43.890625 
L 10.015625 52.203125 
Q 14.9375 54.109375 19.578125 55.046875 
Q 24.21875 56 28.609375 56 
Q 40.484375 56 46.34375 49.84375 
Q 52.203125 43.703125 52.203125 31.203125 
z
" id="DejaVuSans-97"/>
     <path d="M 39.40625 66.21875 
Q 28.65625 66.21875 22.328125 58.203125 
Q 16.015625 50.203125 16.015625 36.375 
Q 16.015625 22.609375 22.328125 14.59375 
Q 28.65625 6.59375 39.40625 6.59375 
Q 50.140625 6.59375 56.421875 14.59375 
Q 62.703125 22.609375 62.703125 36.375 
Q 62.703125 50.203125 56.421875 58.203125 
Q 50.140625 66.21875 39.40625 66.21875 
z
M 53.21875 1.3125 
L 66.21875 -12.890625 
L 54.296875 -12.890625 
L 43.5 -1.21875 
Q 41.890625 -1.3125 41.03125 -1.359375 
Q 40.1875 -1.421875 39.40625 -1.421875 
Q 24.03125 -1.421875 14.8125 8.859375 
Q 5.609375 19.140625 5.609375 36.375 
Q 5.609375 53.65625 14.8125 63.9375 
Q 24.03125 74.21875 39.40625 74.21875 
Q 54.734375 74.21875 63.90625 63.9375 
Q 73.09375 53.65625 73.09375 36.375 
Q 73.09375 23.6875 67.984375 14.640625 
Q 62.890625 5.609375 53.21875 1.3125 
z
" id="DejaVuSans-81"/>
     <path d="M 64.40625 67.28125 
L 64.40625 56.890625 
Q 59.421875 61.53125 53.78125 63.8125 
Q 48.140625 66.109375 41.796875 66.109375 
Q 29.296875 66.109375 22.65625 58.46875 
Q 16.015625 50.828125 16.015625 36.375 
Q 16.015625 21.96875 22.65625 14.328125 
Q 29.296875 6.6875 41.796875 6.6875 
Q 48.140625 6.6875 53.78125 8.984375 
Q 59.421875 11.28125 64.40625 15.921875 
L 64.40625 5.609375 
Q 59.234375 2.09375 53.4375 0.328125 
Q 47.65625 -1.421875 41.21875 -1.421875 
Q 24.65625 -1.421875 15.125 8.703125 
Q 5.609375 18.84375 5.609375 36.375 
Q 5.609375 53.953125 15.125 64.078125 
Q 24.65625 74.21875 41.21875 74.21875 
Q 47.75 74.21875 53.53125 72.484375 
Q 59.328125 70.75 64.40625 67.28125 
z
" id="DejaVuSans-67"/>
     <path d="M 11.71875 12.40625 
L 22.015625 12.40625 
L 22.015625 0 
L 11.71875 0 
z
M 11.71875 51.703125 
L 22.015625 51.703125 
L 22.015625 39.3125 
L 11.71875 39.3125 
z
" id="DejaVuSans-58"/>
     <path d="M 9.8125 72.90625 
L 24.515625 72.90625 
L 43.109375 23.296875 
L 61.8125 72.90625 
L 76.515625 72.90625 
L 76.515625 0 
L 66.890625 0 
L 66.890625 64.015625 
L 48.09375 14.015625 
L 38.1875 14.015625 
L 19.390625 64.015625 
L 19.390625 0 
L 9.8125 0 
z
" id="DejaVuSans-77"/>
     <path d="M 8.5 21.578125 
L 8.5 54.6875 
L 17.484375 54.6875 
L 17.484375 21.921875 
Q 17.484375 14.15625 20.5 10.265625 
Q 23.53125 6.390625 29.59375 6.390625 
Q 36.859375 6.390625 41.078125 11.03125 
Q 45.3125 15.671875 45.3125 23.6875 
L 45.3125 54.6875 
L 54.296875 54.6875 
L 54.296875 0 
L 45.3125 0 
L 45.3125 8.40625 
Q 42.046875 3.421875 37.71875 1 
Q 33.40625 -1.421875 27.6875 -1.421875 
Q 18.265625 -1.421875 13.375 4.4375 
Q 8.5 10.296875 8.5 21.578125 
z
M 31.109375 56 
z
" id="DejaVuSans-117"/>
     <path d="M 9.421875 75.984375 
L 18.40625 75.984375 
L 18.40625 0 
L 9.421875 0 
z
" id="DejaVuSans-108"/>
     <path d="M 32.171875 -5.078125 
Q 28.375 -14.84375 24.75 -17.8125 
Q 21.140625 -20.796875 15.09375 -20.796875 
L 7.90625 -20.796875 
L 7.90625 -13.28125 
L 13.1875 -13.28125 
Q 16.890625 -13.28125 18.9375 -11.515625 
Q 21 -9.765625 23.484375 -3.21875 
L 25.09375 0.875 
L 2.984375 54.6875 
L 12.5 54.6875 
L 29.59375 11.921875 
L 46.6875 54.6875 
L 56.203125 54.6875 
z
" id="DejaVuSans-121"/>
    </defs>
    <g transform="translate(398.193125 19.3575)scale(0.16 -0.16)">
     <use xlink:href="#DejaVuSans-70"/>
     <use x="57.378906" xlink:href="#DejaVuSans-97"/>
     <use x="118.658203" xlink:href="#DejaVuSans-115"/>
     <use x="170.757812" xlink:href="#DejaVuSans-116"/>
     <use x="209.966797" xlink:href="#DejaVuSans-81"/>
     <use x="288.677734" xlink:href="#DejaVuSans-67"/>
     <use x="358.501953" xlink:href="#DejaVuSans-58"/>
     <use x="392.193359" xlink:href="#DejaVuSans-32"/>
     <use x="423.980469" xlink:href="#DejaVuSans-77"/>
     <use x="510.259766" xlink:href="#DejaVuSans-101"/>
     <use x="571.783203" xlink:href="#DejaVuSans-97"/>
     <use x="633.0625" xlink:href="#DejaVuSans-110"/>
     <use x="696.441406" xlink:href="#DejaVuSans-32"/>
     <use x="728.228516" xlink:href="#DejaVuSans-81"/>
     <use x="806.939453" xlink:href="#DejaVuSans-117"/>
     <use x="870.318359" xlink:href="#DejaVuSans-97"/>
     <use x="931.597656" xlink:href="#DejaVuSans-108"/>
     <use x="959.380859" xlink:href="#DejaVuSans-105"/>
     <use x="987.164062" xlink:href="#DejaVuSans-116"/>
     <use x="1026.373047" xlink:href="#DejaVuSans-121"/>
     <use x="1085.552734" xlink:href="#DejaVuSans-32"/>
     <use x="1117.339844" xlink:href="#DejaVuSans-83"/>
     <use x="1180.816406" xlink:href="#DejaVuSans-99"/>
     <use x="1235.796875" xlink:href="#DejaVuSans-111"/>
     <use x="1296.978516" xlink:href="#DejaVuSans-114"/>
     <use x="1338.060547" xlink:href="#DejaVuSans-101"/>
     <use x="1399.583984" xlink:href="#DejaVuSans-115"/>
    </g>
   </g>
  </g>
 </g>
 <defs>
  <clipPath id="p9d0ad8fcc1">
   <rect height="317.968" width="952.54" x="38.058125" y="35.2559"/>
  </clipPath>
 </defs>
</svg>
