<?xml version="1.0" encoding="utf-8" standalone="no"?>
<!DOCTYPE svg PUBLIC "-//W3C//DTD SVG 1.1//EN"
  "http://www.w3.org/Graphics/SVG/1.1/DTD/svg11.dtd">
<!-- Created with matplotlib (https://matplotlib.org/) -->
<svg height="388.844525pt" version="1.1" viewBox="0 0 1001.280625 388.844525" width="1001.280625pt" xmlns="http://www.w3.org/2000/svg" xmlns:xlink="http://www.w3.org/1999/xlink">
 <defs>
  <style type="text/css">
*{stroke-linecap:butt;stroke-linejoin:round;}
  </style>
 </defs>
 <g id="figure_1">
  <g id="patch_1">
   <path d="M 0 388.844525 
L 1001.280625 388.844525 
L 1001.280625 0 
L 0 0 
z
" style="fill:#ffffff;"/>
  </g>
  <g id="axes_1">
   <g id="patch_2">
    <path d="M 45.690625 353.2239 
L 990.580625 353.2239 
L 990.580625 35.2559 
L 45.690625 35.2559 
z
" style="fill:#ffffff;"/>
   </g>
   <g id="patch_3">
    <path clip-path="url(#p8e2486503a)" d="M -136.01899 353.2239 
L 1499.367548 353.2239 
L 1499.367548 35.2559 
L -136.01899 35.2559 
z
" style="fill:#c3e6c3;"/>
   </g>
   <g id="patch_4">
    <path clip-path="url(#p8e2486503a)" d="M 409.109856 353.2239 
L 590.819471 353.2239 
L 590.819471 35.2559 
L 409.109856 35.2559 
z
" style="fill:#e6dcc3;"/>
   </g>
   <g id="patch_5">
    <path clip-path="url(#p8e2486503a)" d="M -181.446394 353.2239 
L 272.827644 353.2239 
L 272.827644 35.2559 
L -181.446394 35.2559 
z
" style="fill:#e6c3c3;"/>
   </g>
   <g id="matplotlib.axis_1">
    <g id="xtick_1">
     <g id="text_1">
      <!-- 0 -->
      <defs>
       <path d="M 31.78125 66.40625 
Q 24.171875 66.40625 20.328125 58.90625 
Q 16.5 51.421875 16.5 36.375 
Q 16.5 21.390625 20.328125 13.890625 
Q 24.171875 6.390625 31.78125 6.390625 
Q 39.453125 6.390625 43.28125 13.890625 
Q 47.125 21.390625 47.125 36.375 
Q 47.125 51.421875 43.28125 58.90625 
Q 39.453125 66.40625 31.78125 66.40625 
z
M 31.78125 74.21875 
Q 44.046875 74.21875 50.515625 64.515625 
Q 56.984375 54.828125 56.984375 36.375 
Q 56.984375 17.96875 50.515625 8.265625 
Q 44.046875 -1.421875 31.78125 -1.421875 
Q 19.53125 -1.421875 13.0625 8.265625 
Q 6.59375 17.96875 6.59375 36.375 
Q 6.59375 54.828125 13.0625 64.515625 
Q 19.53125 74.21875 31.78125 74.21875 
z
" id="DejaVuSans-48"/>
      </defs>
      <g transform="translate(43.145625 366.30265)scale(0.08 -0.08)">
       <use xlink:href="#DejaVuSans-48"/>
      </g>
     </g>
    </g>
    <g id="xtick_2">
     <g id="text_2">
      <!-- 5 -->
      <defs>
       <path d="M 10.796875 72.90625 
L 49.515625 72.90625 
L 49.515625 64.59375 
L 19.828125 64.59375 
L 19.828125 46.734375 
Q 21.96875 47.46875 24.109375 47.828125 
Q 26.265625 48.1875 28.421875 48.1875 
Q 40.625 48.1875 47.75 41.5 
Q 54.890625 34.8125 54.890625 23.390625 
Q 54.890625 11.625 47.5625 5.09375 
Q 40.234375 -1.421875 26.90625 -1.421875 
Q 22.3125 -1.421875 17.546875 -0.640625 
Q 12.796875 0.140625 7.71875 1.703125 
L 7.71875 11.625 
Q 12.109375 9.234375 16.796875 8.0625 
Q 21.484375 6.890625 26.703125 6.890625 
Q 35.15625 6.890625 40.078125 11.328125 
Q 45.015625 15.765625 45.015625 23.390625 
Q 45.015625 31 40.078125 35.4375 
Q 35.15625 39.890625 26.703125 39.890625 
Q 22.75 39.890625 18.8125 39.015625 
Q 14.890625 38.140625 10.796875 36.28125 
z
" id="DejaVuSans-53"/>
      </defs>
      <g transform="translate(156.714135 366.30265)scale(0.08 -0.08)">
       <use xlink:href="#DejaVuSans-53"/>
      </g>
     </g>
    </g>
    <g id="xtick_3">
     <g id="text_3">
      <!-- 10 -->
      <defs>
       <path d="M 12.40625 8.296875 
L 28.515625 8.296875 
L 28.515625 63.921875 
L 10.984375 60.40625 
L 10.984375 69.390625 
L 28.421875 72.90625 
L 38.28125 72.90625 
L 38.28125 8.296875 
L 54.390625 8.296875 
L 54.390625 0 
L 12.40625 0 
z
" id="DejaVuSans-49"/>
      </defs>
      <g transform="translate(267.737644 366.30265)scale(0.08 -0.08)">
       <use xlink:href="#DejaVuSans-49"/>
       <use x="63.623047" xlink:href="#DejaVuSans-48"/>
      </g>
     </g>
    </g>
    <g id="xtick_4">
     <g id="text_4">
      <!-- 15 -->
      <g transform="translate(381.306154 366.30265)scale(0.08 -0.08)">
       <use xlink:href="#DejaVuSans-49"/>
       <use x="63.623047" xlink:href="#DejaVuSans-53"/>
      </g>
     </g>
    </g>
    <g id="xtick_5">
     <g id="text_5">
      <!-- 20 -->
      <defs>
       <path d="M 19.1875 8.296875 
L 53.609375 8.296875 
L 53.609375 0 
L 7.328125 0 
L 7.328125 8.296875 
Q 12.9375 14.109375 22.625 23.890625 
Q 32.328125 33.6875 34.8125 36.53125 
Q 39.546875 41.84375 41.421875 45.53125 
Q 43.3125 49.21875 43.3125 52.78125 
Q 43.3125 58.59375 39.234375 62.25 
Q 35.15625 65.921875 28.609375 65.921875 
Q 23.96875 65.921875 18.8125 64.3125 
Q 13.671875 62.703125 7.8125 59.421875 
L 7.8125 69.390625 
Q 13.765625 71.78125 18.9375 73 
Q 24.125 74.21875 28.421875 74.21875 
Q 39.75 74.21875 46.484375 68.546875 
Q 53.21875 62.890625 53.21875 53.421875 
Q 53.21875 48.921875 51.53125 44.890625 
Q 49.859375 40.875 45.40625 35.40625 
Q 44.1875 33.984375 37.640625 27.21875 
Q 31.109375 20.453125 19.1875 8.296875 
z
" id="DejaVuSans-50"/>
      </defs>
      <g transform="translate(494.874663 366.30265)scale(0.08 -0.08)">
       <use xlink:href="#DejaVuSans-50"/>
       <use x="63.623047" xlink:href="#DejaVuSans-48"/>
      </g>
     </g>
    </g>
    <g id="xtick_6">
     <g id="text_6">
      <!-- 25 -->
      <g transform="translate(608.443173 366.30265)scale(0.08 -0.08)">
       <use xlink:href="#DejaVuSans-50"/>
       <use x="63.623047" xlink:href="#DejaVuSans-53"/>
      </g>
     </g>
    </g>
    <g id="xtick_7">
     <g id="text_7">
      <!-- 30 -->
      <defs>
       <path d="M 40.578125 39.3125 
Q 47.65625 37.796875 51.625 33 
Q 55.609375 28.21875 55.609375 21.1875 
Q 55.609375 10.40625 48.1875 4.484375 
Q 40.765625 -1.421875 27.09375 -1.421875 
Q 22.515625 -1.421875 17.65625 -0.515625 
Q 12.796875 0.390625 7.625 2.203125 
L 7.625 11.71875 
Q 11.71875 9.328125 16.59375 8.109375 
Q 21.484375 6.890625 26.8125 6.890625 
Q 36.078125 6.890625 40.9375 10.546875 
Q 45.796875 14.203125 45.796875 21.1875 
Q 45.796875 27.640625 41.28125 31.265625 
Q 36.765625 34.90625 28.71875 34.90625 
L 20.21875 34.90625 
L 20.21875 43.015625 
L 29.109375 43.015625 
Q 36.375 43.015625 40.234375 45.921875 
Q 44.09375 48.828125 44.09375 54.296875 
Q 44.09375 59.90625 40.109375 62.90625 
Q 36.140625 65.921875 28.71875 65.921875 
Q 24.65625 65.921875 20.015625 65.03125 
Q 15.375 64.15625 9.8125 62.3125 
L 9.8125 71.09375 
Q 15.4375 72.65625 20.34375 73.4375 
Q 25.25 74.21875 29.59375 74.21875 
Q 40.828125 74.21875 47.359375 69.109375 
Q 53.90625 64.015625 53.90625 55.328125 
Q 53.90625 49.265625 50.4375 45.09375 
Q 46.96875 40.921875 40.578125 39.3125 
z
" id="DejaVuSans-51"/>
      </defs>
      <g transform="translate(722.011683 366.30265)scale(0.08 -0.08)">
       <use xlink:href="#DejaVuSans-51"/>
       <use x="63.623047" xlink:href="#DejaVuSans-48"/>
      </g>
     </g>
    </g>
    <g id="xtick_8">
     <g id="text_8">
      <!-- 35 -->
      <g transform="translate(835.580192 366.30265)scale(0.08 -0.08)">
       <use xlink:href="#DejaVuSans-51"/>
       <use x="63.623047" xlink:href="#DejaVuSans-53"/>
      </g>
     </g>
    </g>
    <g id="xtick_9">
     <g id="text_9">
      <!-- 40 -->
      <defs>
       <path d="M 37.796875 64.3125 
L 12.890625 25.390625 
L 37.796875 25.390625 
z
M 35.203125 72.90625 
L 47.609375 72.90625 
L 47.609375 25.390625 
L 58.015625 25.390625 
L 58.015625 17.1875 
L 47.609375 17.1875 
L 47.609375 0 
L 37.796875 0 
L 37.796875 17.1875 
L 4.890625 17.1875 
L 4.890625 26.703125 
z
" id="DejaVuSans-52"/>
      </defs>
      <g transform="translate(949.148702 366.30265)scale(0.08 -0.08)">
       <use xlink:href="#DejaVuSans-52"/>
       <use x="63.623047" xlink:href="#DejaVuSans-48"/>
      </g>
     </g>
    </g>
    <g id="text_10">
     <!-- Mean Sequence Quality (Phred Score) -->
     <defs>
      <path d="M 9.8125 72.90625 
L 24.515625 72.90625 
L 43.109375 23.296875 
L 61.8125 72.90625 
L 76.515625 72.90625 
L 76.515625 0 
L 66.890625 0 
L 66.890625 64.015625 
L 48.09375 14.015625 
L 38.1875 14.015625 
L 19.390625 64.015625 
L 19.390625 0 
L 9.8125 0 
z
" id="DejaVuSans-77"/>
      <path d="M 56.203125 29.59375 
L 56.203125 25.203125 
L 14.890625 25.203125 
Q 15.484375 15.921875 20.484375 11.0625 
Q 25.484375 6.203125 34.421875 6.203125 
Q 39.59375 6.203125 44.453125 7.46875 
Q 49.3125 8.734375 54.109375 11.28125 
L 54.109375 2.78125 
Q 49.265625 0.734375 44.1875 -0.34375 
Q 39.109375 -1.421875 33.890625 -1.421875 
Q 20.796875 -1.421875 13.15625 6.1875 
Q 5.515625 13.8125 5.515625 26.8125 
Q 5.515625 40.234375 12.765625 48.109375 
Q 20.015625 56 32.328125 56 
Q 43.359375 56 49.78125 48.890625 
Q 56.203125 41.796875 56.203125 29.59375 
z
M 47.21875 32.234375 
Q 47.125 39.59375 43.09375 43.984375 
Q 39.0625 48.390625 32.421875 48.390625 
Q 24.90625 48.390625 20.390625 44.140625 
Q 15.875 39.890625 15.1875 32.171875 
z
" id="DejaVuSans-101"/>
      <path d="M 34.28125 27.484375 
Q 23.390625 27.484375 19.1875 25 
Q 14.984375 22.515625 14.984375 16.5 
Q 14.984375 11.71875 18.140625 8.90625 
Q 21.296875 6.109375 26.703125 6.109375 
Q 34.1875 6.109375 38.703125 11.40625 
Q 43.21875 16.703125 43.21875 25.484375 
L 43.21875 27.484375 
z
M 52.203125 31.203125 
L 52.203125 0 
L 43.21875 0 
L 43.21875 8.296875 
Q 40.140625 3.328125 35.546875 0.953125 
Q 30.953125 -1.421875 24.3125 -1.421875 
Q 15.921875 -1.421875 10.953125 3.296875 
Q 6 8.015625 6 15.921875 
Q 6 25.140625 12.171875 29.828125 
Q 18.359375 34.515625 30.609375 34.515625 
L 43.21875 34.515625 
L 43.21875 35.40625 
Q 43.21875 41.609375 39.140625 45 
Q 35.0625 48.390625 27.6875 48.390625 
Q 23 48.390625 18.546875 47.265625 
Q 14.109375 46.140625 10.015625 43.890625 
L 10.015625 52.203125 
Q 14.9375 54.109375 19.578125 55.046875 
Q 24.21875 56 28.609375 56 
Q 40.484375 56 46.34375 49.84375 
Q 52.203125 43.703125 52.203125 31.203125 
z
" id="DejaVuSans-97"/>
      <path d="M 54.890625 33.015625 
L 54.890625 0 
L 45.90625 0 
L 45.90625 32.71875 
Q 45.90625 40.484375 42.875 44.328125 
Q 39.84375 48.1875 33.796875 48.1875 
Q 26.515625 48.1875 22.3125 43.546875 
Q 18.109375 38.921875 18.109375 30.90625 
L 18.109375 0 
L 9.078125 0 
L 9.078125 54.6875 
L 18.109375 54.6875 
L 18.109375 46.1875 
Q 21.34375 51.125 25.703125 53.5625 
Q 30.078125 56 35.796875 56 
Q 45.21875 56 50.046875 50.171875 
Q 54.890625 44.34375 54.890625 33.015625 
z
" id="DejaVuSans-110"/>
      <path id="DejaVuSans-32"/>
      <path d="M 53.515625 70.515625 
L 53.515625 60.890625 
Q 47.90625 63.578125 42.921875 64.890625 
Q 37.9375 66.21875 33.296875 66.21875 
Q 25.25 66.21875 20.875 63.09375 
Q 16.5 59.96875 16.5 54.203125 
Q 16.5 49.359375 19.40625 46.890625 
Q 22.3125 44.4375 30.421875 42.921875 
L 36.375 41.703125 
Q 47.40625 39.59375 52.65625 34.296875 
Q 57.90625 29 57.90625 20.125 
Q 57.90625 9.515625 50.796875 4.046875 
Q 43.703125 -1.421875 29.984375 -1.421875 
Q 24.8125 -1.421875 18.96875 -0.25 
Q 13.140625 0.921875 6.890625 3.21875 
L 6.890625 13.375 
Q 12.890625 10.015625 18.65625 8.296875 
Q 24.421875 6.59375 29.984375 6.59375 
Q 38.421875 6.59375 43.015625 9.90625 
Q 47.609375 13.234375 47.609375 19.390625 
Q 47.609375 24.75 44.3125 27.78125 
Q 41.015625 30.8125 33.5 32.328125 
L 27.484375 33.5 
Q 16.453125 35.6875 11.515625 40.375 
Q 6.59375 45.0625 6.59375 53.421875 
Q 6.59375 63.09375 13.40625 68.65625 
Q 20.21875 74.21875 32.171875 74.21875 
Q 37.3125 74.21875 42.625 73.28125 
Q 47.953125 72.359375 53.515625 70.515625 
z
" id="DejaVuSans-83"/>
      <path d="M 14.796875 27.296875 
Q 14.796875 17.390625 18.875 11.75 
Q 22.953125 6.109375 30.078125 6.109375 
Q 37.203125 6.109375 41.296875 11.75 
Q 45.40625 17.390625 45.40625 27.296875 
Q 45.40625 37.203125 41.296875 42.84375 
Q 37.203125 48.484375 30.078125 48.484375 
Q 22.953125 48.484375 18.875 42.84375 
Q 14.796875 37.203125 14.796875 27.296875 
z
M 45.40625 8.203125 
Q 42.578125 3.328125 38.25 0.953125 
Q 33.9375 -1.421875 27.875 -1.421875 
Q 17.96875 -1.421875 11.734375 6.484375 
Q 5.515625 14.40625 5.515625 27.296875 
Q 5.515625 40.1875 11.734375 48.09375 
Q 17.96875 56 27.875 56 
Q 33.9375 56 38.25 53.625 
Q 42.578125 51.265625 45.40625 46.390625 
L 45.40625 54.6875 
L 54.390625 54.6875 
L 54.390625 -20.796875 
L 45.40625 -20.796875 
z
" id="DejaVuSans-113"/>
      <path d="M 8.5 21.578125 
L 8.5 54.6875 
L 17.484375 54.6875 
L 17.484375 21.921875 
Q 17.484375 14.15625 20.5 10.265625 
Q 23.53125 6.390625 29.59375 6.390625 
Q 36.859375 6.390625 41.078125 11.03125 
Q 45.3125 15.671875 45.3125 23.6875 
L 45.3125 54.6875 
L 54.296875 54.6875 
L 54.296875 0 
L 45.3125 0 
L 45.3125 8.40625 
Q 42.046875 3.421875 37.71875 1 
Q 33.40625 -1.421875 27.6875 -1.421875 
Q 18.265625 -1.421875 13.375 4.4375 
Q 8.5 10.296875 8.5 21.578125 
z
M 31.109375 56 
z
" id="DejaVuSans-117"/>
      <path d="M 48.78125 52.59375 
L 48.78125 44.1875 
Q 44.96875 46.296875 41.140625 47.34375 
Q 37.3125 48.390625 33.40625 48.390625 
Q 24.65625 48.390625 19.8125 42.84375 
Q 14.984375 37.3125 14.984375 27.296875 
Q 14.984375 17.28125 19.8125 11.734375 
Q 24.65625 6.203125 33.40625 6.203125 
Q 37.3125 6.203125 41.140625 7.25 
Q 44.96875 8.296875 48.78125 10.40625 
L 48.78125 2.09375 
Q 45.015625 0.34375 40.984375 -0.53125 
Q 36.96875 -1.421875 32.421875 -1.421875 
Q 20.0625 -1.421875 12.78125 6.34375 
Q 5.515625 14.109375 5.515625 27.296875 
Q 5.515625 40.671875 12.859375 48.328125 
Q 20.21875 56 33.015625 56 
Q 37.15625 56 41.109375 55.140625 
Q 45.0625 54.296875 48.78125 52.59375 
z
" id="DejaVuSans-99"/>
      <path d="M 39.40625 66.21875 
Q 28.65625 66.21875 22.328125 58.203125 
Q 16.015625 50.203125 16.015625 36.375 
Q 16.015625 22.609375 22.328125 14.59375 
Q 28.65625 6.59375 39.40625 6.59375 
Q 50.140625 6.59375 56.421875 14.59375 
Q 62.703125 22.609375 62.703125 36.375 
Q 62.703125 50.203125 56.421875 58.203125 
Q 50.140625 66.21875 39.40625 66.21875 
z
M 53.21875 1.3125 
L 66.21875 -12.890625 
L 54.296875 -12.890625 
L 43.5 -1.21875 
Q 41.890625 -1.3125 41.03125 -1.359375 
Q 40.1875 -1.421875 39.40625 -1.421875 
Q 24.03125 -1.421875 14.8125 8.859375 
Q 5.609375 19.140625 5.609375 36.375 
Q 5.609375 53.65625 14.8125 63.9375 
Q 24.03125 74.21875 39.40625 74.21875 
Q 54.734375 74.21875 63.90625 63.9375 
Q 73.09375 53.65625 73.09375 36.375 
Q 73.09375 23.6875 67.984375 14.640625 
Q 62.890625 5.609375 53.21875 1.3125 
z
" id="DejaVuSans-81"/>
      <path d="M 9.421875 75.984375 
L 18.40625 75.984375 
L 18.40625 0 
L 9.421875 0 
z
" id="DejaVuSans-108"/>
      <path d="M 9.421875 54.6875 
L 18.40625 54.6875 
L 18.40625 0 
L 9.421875 0 
z
M 9.421875 75.984375 
L 18.40625 75.984375 
L 18.40625 64.59375 
L 9.421875 64.59375 
z
" id="DejaVuSans-105"/>
      <path d="M 18.3125 70.21875 
L 18.3125 54.6875 
L 36.8125 54.6875 
L 36.8125 47.703125 
L 18.3125 47.703125 
L 18.3125 18.015625 
Q 18.3125 11.328125 20.140625 9.421875 
Q 21.96875 7.515625 27.59375 7.515625 
L 36.8125 7.515625 
L 36.8125 0 
L 27.59375 0 
Q 17.1875 0 13.234375 3.875 
Q 9.28125 7.765625 9.28125 18.015625 
L 9.28125 47.703125 
L 2.6875 47.703125 
L 2.6875 54.6875 
L 9.28125 54.6875 
L 9.28125 70.21875 
z
" id="DejaVuSans-116"/>
      <path d="M 32.171875 -5.078125 
Q 28.375 -14.84375 24.75 -17.8125 
Q 21.140625 -20.796875 15.09375 -20.796875 
L 7.90625 -20.796875 
L 7.90625 -13.28125 
L 13.1875 -13.28125 
Q 16.890625 -13.28125 18.9375 -11.515625 
Q 21 -9.765625 23.484375 -3.21875 
L 25.09375 0.875 
L 2.984375 54.6875 
L 12.5 54.6875 
L 29.59375 11.921875 
L 46.6875 54.6875 
L 56.203125 54.6875 
z
" id="DejaVuSans-121"/>
      <path d="M 31 75.875 
Q 24.46875 64.65625 21.28125 53.65625 
Q 18.109375 42.671875 18.109375 31.390625 
Q 18.109375 20.125 21.3125 9.0625 
Q 24.515625 -2 31 -13.1875 
L 23.1875 -13.1875 
Q 15.875 -1.703125 12.234375 9.375 
Q 8.59375 20.453125 8.59375 31.390625 
Q 8.59375 42.28125 12.203125 53.3125 
Q 15.828125 64.359375 23.1875 75.875 
z
" id="DejaVuSans-40"/>
      <path d="M 19.671875 64.796875 
L 19.671875 37.40625 
L 32.078125 37.40625 
Q 38.96875 37.40625 42.71875 40.96875 
Q 46.484375 44.53125 46.484375 51.125 
Q 46.484375 57.671875 42.71875 61.234375 
Q 38.96875 64.796875 32.078125 64.796875 
z
M 9.8125 72.90625 
L 32.078125 72.90625 
Q 44.34375 72.90625 50.609375 67.359375 
Q 56.890625 61.8125 56.890625 51.125 
Q 56.890625 40.328125 50.609375 34.8125 
Q 44.34375 29.296875 32.078125 29.296875 
L 19.671875 29.296875 
L 19.671875 0 
L 9.8125 0 
z
" id="DejaVuSans-80"/>
      <path d="M 54.890625 33.015625 
L 54.890625 0 
L 45.90625 0 
L 45.90625 32.71875 
Q 45.90625 40.484375 42.875 44.328125 
Q 39.84375 48.1875 33.796875 48.1875 
Q 26.515625 48.1875 22.3125 43.546875 
Q 18.109375 38.921875 18.109375 30.90625 
L 18.109375 0 
L 9.078125 0 
L 9.078125 75.984375 
L 18.109375 75.984375 
L 18.109375 46.1875 
Q 21.34375 51.125 25.703125 53.5625 
Q 30.078125 56 35.796875 56 
Q 45.21875 56 50.046875 50.171875 
Q 54.890625 44.34375 54.890625 33.015625 
z
" id="DejaVuSans-104"/>
      <path d="M 41.109375 46.296875 
Q 39.59375 47.171875 37.8125 47.578125 
Q 36.03125 48 33.890625 48 
Q 26.265625 48 22.1875 43.046875 
Q 18.109375 38.09375 18.109375 28.8125 
L 18.109375 0 
L 9.078125 0 
L 9.078125 54.6875 
L 18.109375 54.6875 
L 18.109375 46.1875 
Q 20.953125 51.171875 25.484375 53.578125 
Q 30.03125 56 36.53125 56 
Q 37.453125 56 38.578125 55.875 
Q 39.703125 55.765625 41.0625 55.515625 
z
" id="DejaVuSans-114"/>
      <path d="M 45.40625 46.390625 
L 45.40625 75.984375 
L 54.390625 75.984375 
L 54.390625 0 
L 45.40625 0 
L 45.40625 8.203125 
Q 42.578125 3.328125 38.25 0.953125 
Q 33.9375 -1.421875 27.875 -1.421875 
Q 17.96875 -1.421875 11.734375 6.484375 
Q 5.515625 14.40625 5.515625 27.296875 
Q 5.515625 40.1875 11.734375 48.09375 
Q 17.96875 56 27.875 56 
Q 33.9375 56 38.25 53.625 
Q 42.578125 51.265625 45.40625 46.390625 
z
M 14.796875 27.296875 
Q 14.796875 17.390625 18.875 11.75 
Q 22.953125 6.109375 30.078125 6.109375 
Q 37.203125 6.109375 41.296875 11.75 
Q 45.40625 17.390625 45.40625 27.296875 
Q 45.40625 37.203125 41.296875 42.84375 
Q 37.203125 48.484375 30.078125 48.484375 
Q 22.953125 48.484375 18.875 42.84375 
Q 14.796875 37.203125 14.796875 27.296875 
z
" id="DejaVuSans-100"/>
      <path d="M 30.609375 48.390625 
Q 23.390625 48.390625 19.1875 42.75 
Q 14.984375 37.109375 14.984375 27.296875 
Q 14.984375 17.484375 19.15625 11.84375 
Q 23.34375 6.203125 30.609375 6.203125 
Q 37.796875 6.203125 41.984375 11.859375 
Q 46.1875 17.53125 46.1875 27.296875 
Q 46.1875 37.015625 41.984375 42.703125 
Q 37.796875 48.390625 30.609375 48.390625 
z
M 30.609375 56 
Q 42.328125 56 49.015625 48.375 
Q 55.71875 40.765625 55.71875 27.296875 
Q 55.71875 13.875 49.015625 6.21875 
Q 42.328125 -1.421875 30.609375 -1.421875 
Q 18.84375 -1.421875 12.171875 6.21875 
Q 5.515625 13.875 5.515625 27.296875 
Q 5.515625 40.765625 12.171875 48.375 
Q 18.84375 56 30.609375 56 
z
" id="DejaVuSans-111"/>
      <path d="M 8.015625 75.875 
L 15.828125 75.875 
Q 23.140625 64.359375 26.78125 53.3125 
Q 30.421875 42.28125 30.421875 31.390625 
Q 30.421875 20.453125 26.78125 9.375 
Q 23.140625 -1.703125 15.828125 -13.1875 
L 8.015625 -13.1875 
Q 14.5 -2 17.703125 9.0625 
Q 20.90625 20.125 20.90625 31.390625 
Q 20.90625 42.671875 17.703125 53.65625 
Q 14.5 64.65625 8.015625 75.875 
z
" id="DejaVuSans-41"/>
     </defs>
     <g transform="translate(423.121562 379.564837)scale(0.1 -0.1)">
      <use xlink:href="#DejaVuSans-77"/>
      <use x="86.279297" xlink:href="#DejaVuSans-101"/>
      <use x="147.802734" xlink:href="#DejaVuSans-97"/>
      <use x="209.082031" xlink:href="#DejaVuSans-110"/>
      <use x="272.460938" xlink:href="#DejaVuSans-32"/>
      <use x="304.248047" xlink:href="#DejaVuSans-83"/>
      <use x="367.724609" xlink:href="#DejaVuSans-101"/>
      <use x="429.248047" xlink:href="#DejaVuSans-113"/>
      <use x="492.724609" xlink:href="#DejaVuSans-117"/>
      <use x="556.103516" xlink:href="#DejaVuSans-101"/>
      <use x="617.626953" xlink:href="#DejaVuSans-110"/>
      <use x="681.005859" xlink:href="#DejaVuSans-99"/>
      <use x="735.986328" xlink:href="#DejaVuSans-101"/>
      <use x="797.509766" xlink:href="#DejaVuSans-32"/>
      <use x="829.296875" xlink:href="#DejaVuSans-81"/>
      <use x="908.007812" xlink:href="#DejaVuSans-117"/>
      <use x="971.386719" xlink:href="#DejaVuSans-97"/>
      <use x="1032.666016" xlink:href="#DejaVuSans-108"/>
      <use x="1060.449219" xlink:href="#DejaVuSans-105"/>
      <use x="1088.232422" xlink:href="#DejaVuSans-116"/>
      <use x="1127.441406" xlink:href="#DejaVuSans-121"/>
      <use x="1186.621094" xlink:href="#DejaVuSans-32"/>
      <use x="1218.408203" xlink:href="#DejaVuSans-40"/>
      <use x="1257.421875" xlink:href="#DejaVuSans-80"/>
      <use x="1317.724609" xlink:href="#DejaVuSans-104"/>
      <use x="1381.103516" xlink:href="#DejaVuSans-114"/>
      <use x="1422.185547" xlink:href="#DejaVuSans-101"/>
      <use x="1483.708984" xlink:href="#DejaVuSans-100"/>
      <use x="1547.185547" xlink:href="#DejaVuSans-32"/>
      <use x="1578.972656" xlink:href="#DejaVuSans-83"/>
      <use x="1642.449219" xlink:href="#DejaVuSans-99"/>
      <use x="1697.429688" xlink:href="#DejaVuSans-111"/>
      <use x="1758.611328" xlink:href="#DejaVuSans-114"/>
      <use x="1799.693359" xlink:href="#DejaVuSans-101"/>
      <use x="1861.216797" xlink:href="#DejaVuSans-41"/>
     </g>
    </g>
   </g>
   <g id="matplotlib.axis_2">
    <g id="ytick_1">
     <g id="line2d_1">
      <path clip-path="url(#p8e2486503a)" d="M 45.690625 353.2239 
L 990.580625 353.2239 
" style="fill:none;stroke:#dedede;stroke-linecap:square;"/>
     </g>
     <g id="text_11">
      <!-- 0.00 -->
      <defs>
       <path d="M 10.6875 12.40625 
L 21 12.40625 
L 21 0 
L 10.6875 0 
z
" id="DejaVuSans-46"/>
      </defs>
      <g transform="translate(20.878125 356.263275)scale(0.08 -0.08)">
       <use xlink:href="#DejaVuSans-48"/>
       <use x="63.623047" xlink:href="#DejaVuSans-46"/>
       <use x="95.410156" xlink:href="#DejaVuSans-48"/>
       <use x="159.033203" xlink:href="#DejaVuSans-48"/>
      </g>
     </g>
    </g>
    <g id="ytick_2">
     <g id="line2d_2">
      <path clip-path="url(#p8e2486503a)" d="M 45.690625 314.774358 
L 990.580625 314.774358 
" style="fill:none;stroke:#dedede;stroke-linecap:square;"/>
     </g>
     <g id="text_12">
      <!-- 0.25 -->
      <g transform="translate(20.878125 317.813733)scale(0.08 -0.08)">
       <use xlink:href="#DejaVuSans-48"/>
       <use x="63.623047" xlink:href="#DejaVuSans-46"/>
       <use x="95.410156" xlink:href="#DejaVuSans-50"/>
       <use x="159.033203" xlink:href="#DejaVuSans-53"/>
      </g>
     </g>
    </g>
    <g id="ytick_3">
     <g id="line2d_3">
      <path clip-path="url(#p8e2486503a)" d="M 45.690625 276.324817 
L 990.580625 276.324817 
" style="fill:none;stroke:#dedede;stroke-linecap:square;"/>
     </g>
     <g id="text_13">
      <!-- 0.50 -->
      <g transform="translate(20.878125 279.364192)scale(0.08 -0.08)">
       <use xlink:href="#DejaVuSans-48"/>
       <use x="63.623047" xlink:href="#DejaVuSans-46"/>
       <use x="95.410156" xlink:href="#DejaVuSans-53"/>
       <use x="159.033203" xlink:href="#DejaVuSans-48"/>
      </g>
     </g>
    </g>
    <g id="ytick_4">
     <g id="line2d_4">
      <path clip-path="url(#p8e2486503a)" d="M 45.690625 237.875275 
L 990.580625 237.875275 
" style="fill:none;stroke:#dedede;stroke-linecap:square;"/>
     </g>
     <g id="text_14">
      <!-- 0.75 -->
      <defs>
       <path d="M 8.203125 72.90625 
L 55.078125 72.90625 
L 55.078125 68.703125 
L 28.609375 0 
L 18.3125 0 
L 43.21875 64.59375 
L 8.203125 64.59375 
z
" id="DejaVuSans-55"/>
      </defs>
      <g transform="translate(20.878125 240.91465)scale(0.08 -0.08)">
       <use xlink:href="#DejaVuSans-48"/>
       <use x="63.623047" xlink:href="#DejaVuSans-46"/>
       <use x="95.410156" xlink:href="#DejaVuSans-55"/>
       <use x="159.033203" xlink:href="#DejaVuSans-53"/>
      </g>
     </g>
    </g>
    <g id="ytick_5">
     <g id="line2d_5">
      <path clip-path="url(#p8e2486503a)" d="M 45.690625 199.425733 
L 990.580625 199.425733 
" style="fill:none;stroke:#dedede;stroke-linecap:square;"/>
     </g>
     <g id="text_15">
      <!-- 1.00 -->
      <g transform="translate(20.878125 202.465108)scale(0.08 -0.08)">
       <use xlink:href="#DejaVuSans-49"/>
       <use x="63.623047" xlink:href="#DejaVuSans-46"/>
       <use x="95.410156" xlink:href="#DejaVuSans-48"/>
       <use x="159.033203" xlink:href="#DejaVuSans-48"/>
      </g>
     </g>
    </g>
    <g id="ytick_6">
     <g id="line2d_6">
      <path clip-path="url(#p8e2486503a)" d="M 45.690625 160.976192 
L 990.580625 160.976192 
" style="fill:none;stroke:#dedede;stroke-linecap:square;"/>
     </g>
     <g id="text_16">
      <!-- 1.25 -->
      <g transform="translate(20.878125 164.015567)scale(0.08 -0.08)">
       <use xlink:href="#DejaVuSans-49"/>
       <use x="63.623047" xlink:href="#DejaVuSans-46"/>
       <use x="95.410156" xlink:href="#DejaVuSans-50"/>
       <use x="159.033203" xlink:href="#DejaVuSans-53"/>
      </g>
     </g>
    </g>
    <g id="ytick_7">
     <g id="line2d_7">
      <path clip-path="url(#p8e2486503a)" d="M 45.690625 122.52665 
L 990.580625 122.52665 
" style="fill:none;stroke:#dedede;stroke-linecap:square;"/>
     </g>
     <g id="text_17">
      <!-- 1.50 -->
      <g transform="translate(20.878125 125.566025)scale(0.08 -0.08)">
       <use xlink:href="#DejaVuSans-49"/>
       <use x="63.623047" xlink:href="#DejaVuSans-46"/>
       <use x="95.410156" xlink:href="#DejaVuSans-53"/>
       <use x="159.033203" xlink:href="#DejaVuSans-48"/>
      </g>
     </g>
    </g>
    <g id="ytick_8">
     <g id="line2d_8">
      <path clip-path="url(#p8e2486503a)" d="M 45.690625 84.077109 
L 990.580625 84.077109 
" style="fill:none;stroke:#dedede;stroke-linecap:square;"/>
     </g>
     <g id="text_18">
      <!-- 1.75 -->
      <g transform="translate(20.878125 87.116484)scale(0.08 -0.08)">
       <use xlink:href="#DejaVuSans-49"/>
       <use x="63.623047" xlink:href="#DejaVuSans-46"/>
       <use x="95.410156" xlink:href="#DejaVuSans-55"/>
       <use x="159.033203" xlink:href="#DejaVuSans-53"/>
      </g>
     </g>
    </g>
    <g id="ytick_9">
     <g id="line2d_9">
      <path clip-path="url(#p8e2486503a)" d="M 45.690625 45.627567 
L 990.580625 45.627567 
" style="fill:none;stroke:#dedede;stroke-linecap:square;"/>
     </g>
     <g id="text_19">
      <!-- 2.00 -->
      <g transform="translate(20.878125 48.666942)scale(0.08 -0.08)">
       <use xlink:href="#DejaVuSans-50"/>
       <use x="63.623047" xlink:href="#DejaVuSans-46"/>
       <use x="95.410156" xlink:href="#DejaVuSans-48"/>
       <use x="159.033203" xlink:href="#DejaVuSans-48"/>
      </g>
     </g>
    </g>
    <g id="text_20">
     <!-- Count -->
     <defs>
      <path d="M 64.40625 67.28125 
L 64.40625 56.890625 
Q 59.421875 61.53125 53.78125 63.8125 
Q 48.140625 66.109375 41.796875 66.109375 
Q 29.296875 66.109375 22.65625 58.46875 
Q 16.015625 50.828125 16.015625 36.375 
Q 16.015625 21.96875 22.65625 14.328125 
Q 29.296875 6.6875 41.796875 6.6875 
Q 48.140625 6.6875 53.78125 8.984375 
Q 59.421875 11.28125 64.40625 15.921875 
L 64.40625 5.609375 
Q 59.234375 2.09375 53.4375 0.328125 
Q 47.65625 -1.421875 41.21875 -1.421875 
Q 24.65625 -1.421875 15.125 8.703125 
Q 5.609375 18.84375 5.609375 36.375 
Q 5.609375 53.953125 15.125 64.078125 
Q 24.65625 74.21875 41.21875 74.21875 
Q 47.75 74.21875 53.53125 72.484375 
Q 59.328125 70.75 64.40625 67.28125 
z
" id="DejaVuSans-67"/>
     </defs>
     <g transform="translate(14.798438 209.088338)rotate(-90)scale(0.1 -0.1)">
      <use xlink:href="#DejaVuSans-67"/>
      <use x="69.824219" xlink:href="#DejaVuSans-111"/>
      <use x="131.005859" xlink:href="#DejaVuSans-117"/>
      <use x="194.384766" xlink:href="#DejaVuSans-110"/>
      <use x="257.763672" xlink:href="#DejaVuSans-116"/>
     </g>
    </g>
    <g id="text_21">
     <!-- 1e7 -->
     <g transform="translate(45.690625 32.2559)scale(0.1 -0.1)">
      <use xlink:href="#DejaVuSans-49"/>
      <use x="63.623047" xlink:href="#DejaVuSans-101"/>
      <use x="125.146484" xlink:href="#DejaVuSans-55"/>
     </g>
    </g>
   </g>
   <g id="line2d_10">
    <path clip-path="url(#p8e2486503a)" d="M 318.255048 353.223469 
L 340.96875 353.222531 
L 363.682452 353.2223 
L 386.396154 353.221239 
L 409.109856 353.219471 
L 431.823558 353.215841 
L 454.53726 353.202722 
L 477.250962 353.170578 
L 499.964663 353.102692 
L 522.678365 353.00606 
L 545.392067 352.854784 
L 568.105769 352.625994 
L 590.819471 352.283209 
L 613.533173 351.795546 
L 636.246875 351.125832 
L 658.960577 350.417453 
L 681.674279 349.550339 
L 704.387981 348.563123 
L 727.101683 347.44398 
L 749.815385 346.170839 
L 772.529087 344.653143 
L 795.242788 342.792693 
L 817.95649 340.320864 
L 840.670192 336.822894 
L 863.383894 331.529161 
L 886.097596 322.651331 
L 908.811298 305.522568 
L 931.525 259.798927 
L 954.238702 62.202211 
" style="fill:none;stroke:#5cb85c;stroke-linecap:square;"/>
   </g>
   <g id="line2d_11">
    <path clip-path="url(#p8e2486503a)" d="M 295.541346 353.223146 
L 318.255048 353.219394 
L 340.96875 353.202937 
L 363.682452 353.144402 
L 386.396154 352.965181 
L 409.109856 352.603447 
L 431.823558 352.042622 
L 454.53726 351.361204 
L 477.250962 350.657285 
L 499.964663 349.948214 
L 522.678365 349.259614 
L 545.392067 348.544575 
L 568.105769 347.800146 
L 590.819471 346.948612 
L 613.533173 346.157536 
L 636.246875 345.252972 
L 658.960577 344.216926 
L 681.674279 343.059025 
L 704.387981 341.775734 
L 727.101683 340.296503 
L 749.815385 338.614305 
L 772.529087 336.598549 
L 795.242788 334.130996 
L 817.95649 330.783779 
L 840.670192 325.944658 
L 863.383894 318.82511 
L 886.097596 307.368561 
L 908.811298 286.784722 
L 931.525 246.177254 
L 954.238702 233.248288 
" style="fill:none;stroke:#5cb85c;stroke-linecap:square;"/>
   </g>
   <g id="line2d_12">
    <path clip-path="url(#p8e2486503a)" d="M 318.255048 353.223608 
L 340.96875 353.222962 
L 363.682452 353.222147 
L 386.396154 353.221778 
L 409.109856 353.221301 
L 431.823558 353.218317 
L 454.53726 353.211858 
L 477.250962 353.192156 
L 499.964663 353.149046 
L 522.678365 353.076069 
L 545.392067 352.951877 
L 568.105769 352.744757 
L 590.819471 352.423934 
L 613.533173 351.959433 
L 636.246875 351.345748 
L 658.960577 350.634862 
L 681.674279 349.766348 
L 704.387981 348.815106 
L 727.101683 347.687566 
L 749.815385 346.410257 
L 772.529087 344.920291 
L 795.242788 343.060225 
L 817.95649 340.589381 
L 840.670192 337.09098 
L 863.383894 331.731452 
L 886.097596 322.80776 
L 908.811298 305.447161 
L 931.525 259.561755 
L 954.238702 72.899811 
" style="fill:none;stroke:#5cb85c;stroke-linecap:square;"/>
   </g>
   <g id="line2d_13">
    <path clip-path="url(#p8e2486503a)" d="M 295.541346 353.223346 
L 318.255048 353.220424 
L 340.96875 353.208966 
L 363.682452 353.161443 
L 386.396154 353.006276 
L 409.109856 352.657969 
L 431.823558 352.14093 
L 454.53726 351.503098 
L 477.250962 350.852701 
L 499.964663 350.209979 
L 522.678365 349.559659 
L 545.392067 348.895158 
L 568.105769 348.177982 
L 590.819471 347.403239 
L 613.533173 346.635371 
L 636.246875 345.726931 
L 658.960577 344.745361 
L 681.674279 343.598811 
L 704.387981 342.348078 
L 727.101683 340.883812 
L 749.815385 339.222453 
L 772.529087 337.246454 
L 795.242788 334.790205 
L 817.95649 331.488866 
L 840.670192 326.774168 
L 863.383894 319.796761 
L 886.097596 308.527846 
L 908.811298 288.184578 
L 931.525 247.359162 
L 954.238702 233.481815 
" style="fill:none;stroke:#5cb85c;stroke-linecap:square;"/>
   </g>
   <g id="line2d_14">
    <path clip-path="url(#p8e2486503a)" d="M 318.255048 353.223562 
L 340.96875 353.222747 
L 363.682452 353.222224 
L 386.396154 353.221393 
L 409.109856 353.220409 
L 431.823558 353.218794 
L 454.53726 353.211873 
L 477.250962 353.194509 
L 499.964663 353.155506 
L 522.678365 353.091203 
L 545.392067 352.98742 
L 568.105769 352.81189 
L 590.819471 352.541482 
L 613.533173 352.150466 
L 636.246875 351.624891 
L 658.960577 351.026924 
L 681.674279 350.29992 
L 704.387981 349.462412 
L 727.101683 348.549912 
L 749.815385 347.484352 
L 772.529087 346.249353 
L 795.242788 344.723937 
L 817.95649 342.701399 
L 840.670192 339.843137 
L 863.383894 335.502429 
L 886.097596 328.215211 
L 908.811298 313.961812 
L 931.525 275.306857 
L 954.238702 87.71382 
" style="fill:none;stroke:#5cb85c;stroke-linecap:square;"/>
   </g>
   <g id="line2d_15">
    <path clip-path="url(#p8e2486503a)" d="M 272.827644 353.223869 
L 295.541346 353.223392 
L 318.255048 353.219655 
L 340.96875 353.207044 
L 363.682452 353.16761 
L 386.396154 353.055599 
L 409.109856 352.818965 
L 431.823558 352.433624 
L 454.53726 351.946929 
L 477.250962 351.427845 
L 499.964663 350.90547 
L 522.678365 350.376988 
L 545.392067 349.808535 
L 568.105769 349.232392 
L 590.819471 348.567645 
L 613.533173 347.904052 
L 636.246875 347.139768 
L 658.960577 346.283512 
L 681.674279 345.331824 
L 704.387981 344.283874 
L 727.101683 343.051489 
L 749.815385 341.641945 
L 772.529087 340.016913 
L 795.242788 337.990991 
L 817.95649 335.246955 
L 840.670192 331.305216 
L 863.383894 325.357456 
L 886.097596 315.598271 
L 908.811298 297.528078 
L 931.525 257.444477 
L 954.238702 228.847261 
" style="fill:none;stroke:#5cb85c;stroke-linecap:square;"/>
   </g>
   <g id="line2d_16">
    <path clip-path="url(#p8e2486503a)" d="M 318.255048 353.223485 
L 340.96875 353.222362 
L 363.682452 353.222085 
L 386.396154 353.22127 
L 409.109856 353.220516 
L 431.823558 353.218025 
L 454.53726 353.212088 
L 477.250962 353.194786 
L 499.964663 353.15932 
L 522.678365 353.094602 
L 545.392067 352.978515 
L 568.105769 352.782161 
L 590.819471 352.480024 
L 613.533173 352.027581 
L 636.246875 351.434274 
L 658.960577 350.738983 
L 681.674279 349.888541 
L 704.387981 348.937176 
L 727.101683 347.841626 
L 749.815385 346.620191 
L 772.529087 345.151803 
L 795.242788 343.338723 
L 817.95649 340.959111 
L 840.670192 337.550698 
L 863.383894 332.335464 
L 886.097596 323.703172 
L 908.811298 306.85423 
L 931.525 261.525634 
L 954.238702 57.791018 
" style="fill:none;stroke:#5cb85c;stroke-linecap:square;"/>
   </g>
   <g id="line2d_17">
    <path clip-path="url(#p8e2486503a)" d="M 250.113942 353.223885 
L 272.827644 353.223823 
L 295.541346 353.222639 
L 318.255048 353.214718 
L 340.96875 353.183374 
L 363.682452 353.050846 
L 386.396154 352.598757 
L 409.109856 351.658911 
L 431.823558 350.429941 
L 454.53726 349.227162 
L 477.250962 348.176598 
L 499.964663 347.274356 
L 522.678365 346.4434 
L 545.392067 345.644957 
L 568.105769 344.807003 
L 590.819471 343.942442 
L 613.533173 342.984772 
L 636.246875 342.004139 
L 658.960577 340.810173 
L 681.674279 339.473467 
L 704.387981 337.937347 
L 727.101683 336.183232 
L 749.815385 334.091177 
L 772.529087 331.623378 
L 795.242788 328.501029 
L 817.95649 324.373394 
L 840.670192 318.800348 
L 863.383894 311.158871 
L 886.097596 300.391385 
L 908.811298 286.072437 
L 931.525 273.275876 
L 954.238702 299.595325 
" style="fill:none;stroke:#5cb85c;stroke-linecap:square;"/>
   </g>
   <g id="line2d_18">
    <path clip-path="url(#p8e2486503a)" d="M 318.255048 353.223577 
L 340.96875 353.2227 
L 363.682452 353.222316 
L 386.396154 353.221378 
L 409.109856 353.220455 
L 431.823558 353.218655 
L 454.53726 353.211181 
L 477.250962 353.193371 
L 499.964663 353.152738 
L 522.678365 353.082283 
L 545.392067 352.967734 
L 568.105769 352.77384 
L 590.819471 352.484254 
L 613.533173 352.04699 
L 636.246875 351.463926 
L 658.960577 350.814175 
L 681.674279 350.009226 
L 704.387981 349.106339 
L 727.101683 348.067447 
L 749.815385 346.882925 
L 772.529087 345.482515 
L 795.242788 343.737875 
L 817.95649 341.438577 
L 840.670192 338.152049 
L 863.383894 333.182107 
L 886.097596 324.873638 
L 908.811298 308.779675 
L 931.525 265.980813 
L 954.238702 82.632544 
" style="fill:none;stroke:#5cb85c;stroke-linecap:square;"/>
   </g>
   <g id="line2d_19">
    <path clip-path="url(#p8e2486503a)" d="M 250.113942 353.223885 
L 272.827644 353.223869 
L 295.541346 353.223177 
L 318.255048 353.219163 
L 340.96875 353.203506 
L 363.682452 353.142187 
L 386.396154 352.945771 
L 409.109856 352.529793 
L 431.823558 351.902251 
L 454.53726 351.212143 
L 477.250962 350.507255 
L 499.964663 349.844847 
L 522.678365 349.17724 
L 545.392067 348.527442 
L 568.105769 347.810651 
L 590.819471 347.023973 
L 613.533173 346.270977 
L 636.246875 345.412614 
L 658.960577 344.439625 
L 681.674279 343.332878 
L 704.387981 342.090235 
L 727.101683 340.654207 
L 749.815385 338.988203 
L 772.529087 337.046102 
L 795.242788 334.609231 
L 817.95649 331.340836 
L 840.670192 326.716509 
L 863.383894 319.826244 
L 886.097596 308.984273 
L 908.811298 290.214083 
L 931.525 256.587298 
L 954.238702 255.286535 
" style="fill:none;stroke:#5cb85c;stroke-linecap:square;"/>
   </g>
   <g id="line2d_20">
    <path clip-path="url(#p8e2486503a)" d="M 318.255048 353.223623 
L 340.96875 353.222808 
L 363.682452 353.222131 
L 386.396154 353.221793 
L 409.109856 353.220301 
L 431.823558 353.218517 
L 454.53726 353.212304 
L 477.250962 353.193832 
L 499.964663 353.153507 
L 522.678365 353.086128 
L 545.392067 352.967565 
L 568.105769 352.778147 
L 590.819471 352.485715 
L 613.533173 352.055034 
L 636.246875 351.473492 
L 658.960577 350.823372 
L 681.674279 350.030173 
L 704.387981 349.147926 
L 727.101683 348.115878 
L 749.815385 346.97628 
L 772.529087 345.584684 
L 795.242788 343.881046 
L 817.95649 341.552403 
L 840.670192 338.369889 
L 863.383894 333.435182 
L 886.097596 325.179681 
L 908.811298 309.390853 
L 931.525 267.291881 
L 954.238702 91.383275 
" style="fill:none;stroke:#5cb85c;stroke-linecap:square;"/>
   </g>
   <g id="line2d_21">
    <path clip-path="url(#p8e2486503a)" d="M 295.541346 353.223208 
L 318.255048 353.220224 
L 340.96875 353.205844 
L 363.682452 353.154675 
L 386.396154 352.994771 
L 409.109856 352.642466 
L 431.823558 352.100266 
L 454.53726 351.456698 
L 477.250962 350.826079 
L 499.964663 350.192861 
L 522.678365 349.566687 
L 545.392067 348.928902 
L 568.105769 348.270569 
L 590.819471 347.523432 
L 613.533173 346.821467 
L 636.246875 345.977776 
L 658.960577 345.055326 
L 681.674279 343.999947 
L 704.387981 342.814348 
L 727.101683 341.424151 
L 749.815385 339.866791 
L 772.529087 337.975658 
L 795.242788 335.664779 
L 817.95649 332.54812 
L 840.670192 328.177576 
L 863.383894 321.61244 
L 886.097596 311.197382 
L 908.811298 292.744386 
L 931.525 257.030468 
L 954.238702 247.904023 
" style="fill:none;stroke:#5cb85c;stroke-linecap:square;"/>
   </g>
   <g id="line2d_22">
    <path clip-path="url(#p8e2486503a)" d="M 318.255048 353.223623 
L 340.96875 353.222885 
L 363.682452 353.222639 
L 386.396154 353.222024 
L 409.109856 353.220793 
L 431.823558 353.219317 
L 454.53726 353.213257 
L 477.250962 353.193509 
L 499.964663 353.151323 
L 522.678365 353.07104 
L 545.392067 352.945525 
L 568.105769 352.733591 
L 590.819471 352.417859 
L 613.533173 351.961263 
L 636.246875 351.320986 
L 658.960577 350.655747 
L 681.674279 349.821777 
L 704.387981 348.886899 
L 727.101683 347.823646 
L 749.815385 346.663316 
L 772.529087 345.312568 
L 795.242788 343.687076 
L 817.95649 341.643467 
L 840.670192 338.857244 
L 863.383894 334.72075 
L 886.097596 327.699003 
L 908.811298 313.782406 
L 931.525 274.946985 
L 954.238702 78.468459 
" style="fill:none;stroke:#5cb85c;stroke-linecap:square;"/>
   </g>
   <g id="line2d_23">
    <path clip-path="url(#p8e2486503a)" d="M 227.40024 353.223869 
L 250.113942 353.223869 
L 272.827644 353.223808 
L 295.541346 353.223485 
L 318.255048 353.220947 
L 340.96875 353.209997 
L 363.682452 353.176315 
L 386.396154 353.099124 
L 409.109856 352.923425 
L 431.823558 352.621903 
L 454.53726 352.251142 
L 477.250962 351.84939 
L 499.964663 351.459297 
L 522.678365 351.026524 
L 545.392067 350.56393 
L 568.105769 350.048952 
L 590.819471 349.408798 
L 613.533173 348.795405 
L 636.246875 348.068739 
L 658.960577 347.263237 
L 681.674279 346.318285 
L 704.387981 345.316875 
L 727.101683 344.072509 
L 749.815385 342.531052 
L 772.529087 340.531799 
L 795.242788 337.855957 
L 817.95649 334.212447 
L 840.670192 328.954303 
L 863.383894 321.220378 
L 886.097596 309.211279 
L 908.811298 288.212692 
L 931.525 246.391387 
L 954.238702 232.493462 
" style="fill:none;stroke:#5cb85c;stroke-linecap:square;"/>
   </g>
   <g id="line2d_24">
    <path clip-path="url(#p8e2486503a)" d="M 318.255048 353.223639 
L 340.96875 353.22287 
L 363.682452 353.222516 
L 386.396154 353.221978 
L 409.109856 353.221147 
L 431.823558 353.219209 
L 454.53726 353.213349 
L 477.250962 353.193156 
L 499.964663 353.150646 
L 522.678365 353.072824 
L 545.392067 352.936743 
L 568.105769 352.72218 
L 590.819471 352.392421 
L 613.533173 351.921906 
L 636.246875 351.294825 
L 658.960577 350.595505 
L 681.674279 349.729375 
L 704.387981 348.758063 
L 727.101683 347.662312 
L 749.815385 346.434388 
L 772.529087 345.057217 
L 795.242788 343.377003 
L 817.95649 341.237271 
L 840.670192 338.352725 
L 863.383894 334.07732 
L 886.097596 326.823137 
L 908.811298 312.363141 
L 931.525 272.175973 
L 954.238702 76.356379 
" style="fill:none;stroke:#5cb85c;stroke-linecap:square;"/>
   </g>
   <g id="line2d_25">
    <path clip-path="url(#p8e2486503a)" d="M 227.40024 353.223869 
L 250.113942 353.223808 
L 272.827644 353.223685 
L 295.541346 353.223377 
L 318.255048 353.220055 
L 340.96875 353.205536 
L 363.682452 353.171009 
L 386.396154 353.072532 
L 409.109856 352.829054 
L 431.823558 352.418936 
L 454.53726 351.955419 
L 477.250962 351.51551 
L 499.964663 351.082337 
L 522.678365 350.623127 
L 545.392067 350.142308 
L 568.105769 349.609782 
L 590.819471 348.95254 
L 613.533173 348.317292 
L 636.246875 347.568665 
L 658.960577 346.723067 
L 681.674279 345.746864 
L 704.387981 344.680566 
L 727.101683 343.417744 
L 749.815385 341.829486 
L 772.529087 339.757148 
L 795.242788 337.055145 
L 817.95649 333.35979 
L 840.670192 328.232052 
L 863.383894 320.683022 
L 886.097596 308.974691 
L 908.811298 289.203152 
L 931.525 250.747982 
L 954.238702 228.135268 
" style="fill:none;stroke:#5cb85c;stroke-linecap:square;"/>
   </g>
   <g id="line2d_26">
    <path clip-path="url(#p8e2486503a)" d="M 318.255048 353.223485 
L 340.96875 353.222731 
L 363.682452 353.22227 
L 386.396154 353.221455 
L 409.109856 353.220301 
L 431.823558 353.216994 
L 454.53726 353.207936 
L 477.250962 353.183236 
L 499.964663 353.129299 
L 522.678365 353.039681 
L 545.392067 352.895049 
L 568.105769 352.661891 
L 590.819471 352.309462 
L 613.533173 351.800652 
L 636.246875 351.107037 
L 658.960577 350.354488 
L 681.674279 349.424701 
L 704.387981 348.370399 
L 727.101683 347.171865 
L 749.815385 345.817719 
L 772.529087 344.182736 
L 795.242788 342.149755 
L 817.95649 339.470376 
L 840.670192 335.716209 
L 863.383894 329.985166 
L 886.097596 320.363276 
L 908.811298 301.824445 
L 931.525 252.541576 
L 954.238702 51.162255 
" style="fill:none;stroke:#5cb85c;stroke-linecap:square;"/>
   </g>
   <g id="line2d_27">
    <path clip-path="url(#p8e2486503a)" d="M 272.827644 353.223869 
L 295.541346 353.223208 
L 318.255048 353.219747 
L 340.96875 353.205613 
L 363.682452 353.145955 
L 386.396154 352.954446 
L 409.109856 352.541851 
L 431.823558 351.92103 
L 454.53726 351.191088 
L 477.250962 350.442429 
L 499.964663 349.715918 
L 522.678365 348.996342 
L 545.392067 348.277643 
L 568.105769 347.479692 
L 590.819471 346.622068 
L 613.533173 345.801554 
L 636.246875 344.826105 
L 658.960577 343.750902 
L 681.674279 342.515257 
L 704.387981 341.14836 
L 727.101683 339.580295 
L 749.815385 337.731949 
L 772.529087 335.575376 
L 795.242788 332.92042 
L 817.95649 329.280832 
L 840.670192 324.101371 
L 863.383894 316.47915 
L 886.097596 304.223589 
L 908.811298 282.51587 
L 931.525 240.44758 
L 954.238702 230.584734 
" style="fill:none;stroke:#5cb85c;stroke-linecap:square;"/>
   </g>
   <g id="line2d_28">
    <path clip-path="url(#p8e2486503a)" d="M 318.255048 353.223762 
L 340.96875 353.223193 
L 363.682452 353.223023 
L 386.396154 353.222377 
L 409.109856 353.221532 
L 431.823558 353.219548 
L 454.53726 353.213672 
L 477.250962 353.19597 
L 499.964663 353.159582 
L 522.678365 353.102169 
L 545.392067 353.005799 
L 568.105769 352.849155 
L 590.819471 352.600187 
L 613.533173 352.238623 
L 636.246875 351.758188 
L 658.960577 351.19827 
L 681.674279 350.506517 
L 704.387981 349.717271 
L 727.101683 348.825042 
L 749.815385 347.785305 
L 772.529087 346.542323 
L 795.242788 345.016907 
L 817.95649 342.964117 
L 840.670192 340.051472 
L 863.383894 335.598845 
L 886.097596 328.174147 
L 908.811298 313.830068 
L 931.525 275.356365 
L 954.238702 116.598377 
" style="fill:none;stroke:#5cb85c;stroke-linecap:square;"/>
   </g>
   <g id="line2d_29">
    <path clip-path="url(#p8e2486503a)" d="M 250.113942 353.223869 
L 272.827644 353.223869 
L 295.541346 353.223423 
L 318.255048 353.219901 
L 340.96875 353.20872 
L 363.682452 353.16155 
L 386.396154 353.016134 
L 409.109856 352.69122 
L 431.823558 352.190376 
L 454.53726 351.595639 
L 477.250962 350.997518 
L 499.964663 350.408163 
L 522.678365 349.821146 
L 545.392067 349.253339 
L 568.105769 348.616015 
L 590.819471 347.932843 
L 613.533173 347.271065 
L 636.246875 346.506903 
L 658.960577 345.636267 
L 681.674279 344.683842 
L 704.387981 343.593659 
L 727.101683 342.328546 
L 749.815385 340.888933 
L 772.529087 339.175345 
L 795.242788 337.034474 
L 817.95649 334.123444 
L 840.670192 330.057067 
L 863.383894 324.01346 
L 886.097596 314.388187 
L 908.811298 297.600055 
L 931.525 266.994497 
L 954.238702 266.214033 
" style="fill:none;stroke:#5cb85c;stroke-linecap:square;"/>
   </g>
   <g id="line2d_30">
    <path clip-path="url(#p8e2486503a)" d="M 318.255048 353.223454 
L 340.96875 353.222639 
L 363.682452 353.221716 
L 386.396154 353.221424 
L 409.109856 353.220886 
L 431.823558 353.218317 
L 454.53726 353.211089 
L 477.250962 353.190249 
L 499.964663 353.144248 
L 522.678365 353.052753 
L 545.392067 352.909029 
L 568.105769 352.677932 
L 590.819471 352.324088 
L 613.533173 351.844469 
L 636.246875 351.171925 
L 658.960577 350.433801 
L 681.674279 349.541695 
L 704.387981 348.498759 
L 727.101683 347.373956 
L 749.815385 346.087788 
L 772.529087 344.642854 
L 795.242788 342.869069 
L 817.95649 340.640949 
L 840.670192 337.628997 
L 863.383894 333.142335 
L 886.097596 325.577726 
L 908.811298 310.436743 
L 931.525 267.899123 
L 954.238702 50.397233 
" style="fill:none;stroke:#5cb85c;stroke-linecap:square;"/>
   </g>
   <g id="line2d_31">
    <path clip-path="url(#p8e2486503a)" d="M 272.827644 353.223669 
L 295.541346 353.22287 
L 318.255048 353.22027 
L 340.96875 353.207628 
L 363.682452 353.173962 
L 386.396154 353.088265 
L 409.109856 352.871994 
L 431.823558 352.488145 
L 454.53726 352.018661 
L 477.250962 351.549638 
L 499.964663 351.083937 
L 522.678365 350.586154 
L 545.392067 350.048414 
L 568.105769 349.443649 
L 590.819471 348.728164 
L 613.533173 347.993101 
L 636.246875 347.175187 
L 658.960577 346.250091 
L 681.674279 345.232178 
L 704.387981 344.073432 
L 727.101683 342.669762 
L 749.815385 340.952652 
L 772.529087 338.713935 
L 795.242788 335.715578 
L 817.95649 331.67347 
L 840.670192 325.932015 
L 863.383894 317.53662 
L 886.097596 304.520389 
L 908.811298 282.324545 
L 931.525 239.396216 
L 954.238702 226.358453 
" style="fill:none;stroke:#5cb85c;stroke-linecap:square;"/>
   </g>
   <g id="line2d_32">
    <path clip-path="url(#p8e2486503a)" d="M 318.255048 353.223562 
L 340.96875 353.222547 
L 363.682452 353.222408 
L 386.396154 353.221701 
L 409.109856 353.221193 
L 431.823558 353.21944 
L 454.53726 353.214595 
L 477.250962 353.197324 
L 499.964663 353.161643 
L 522.678365 353.096478 
L 545.392067 352.986282 
L 568.105769 352.809383 
L 590.819471 352.541774 
L 613.533173 352.168045 
L 636.246875 351.659311 
L 658.960577 351.073417 
L 681.674279 350.356518 
L 704.387981 349.567302 
L 727.101683 348.677842 
L 749.815385 347.679292 
L 772.529087 346.519007 
L 795.242788 345.148174 
L 817.95649 343.441875 
L 840.670192 341.131888 
L 863.383894 337.669522 
L 886.097596 331.817087 
L 908.811298 320.124428 
L 931.525 287.39993 
L 954.238702 117.71469 
" style="fill:none;stroke:#5cb85c;stroke-linecap:square;"/>
   </g>
   <g id="line2d_33">
    <path clip-path="url(#p8e2486503a)" d="M 250.113942 353.223854 
L 272.827644 353.223823 
L 295.541346 353.223377 
L 318.255048 353.220932 
L 340.96875 353.21215 
L 363.682452 353.188403 
L 386.396154 353.122532 
L 409.109856 352.965765 
L 431.823558 352.688482 
L 454.53726 352.356555 
L 477.250962 352.005096 
L 499.964663 351.67163 
L 522.678365 351.295855 
L 545.392067 350.896149 
L 568.105769 350.441906 
L 590.819471 349.916163 
L 613.533173 349.364873 
L 636.246875 348.724104 
L 658.960577 348.013972 
L 681.674279 347.217989 
L 704.387981 346.344247 
L 727.101683 345.286546 
L 749.815385 343.980676 
L 772.529087 342.260598 
L 795.242788 339.988906 
L 817.95649 336.897394 
L 840.670192 332.530957 
L 863.383894 326.073356 
L 886.097596 315.999745 
L 908.811298 298.742668 
L 931.525 264.305613 
L 954.238702 249.774039 
" style="fill:none;stroke:#5cb85c;stroke-linecap:square;"/>
   </g>
   <g id="line2d_34">
    <path clip-path="url(#p8e2486503a)" d="M 318.255048 353.223454 
L 340.96875 353.222623 
L 363.682452 353.222147 
L 386.396154 353.221162 
L 409.109856 353.21964 
L 431.823558 353.21601 
L 454.53726 353.204552 
L 477.250962 353.171101 
L 499.964663 353.103768 
L 522.678365 352.997325 
L 545.392067 352.83782 
L 568.105769 352.602002 
L 590.819471 352.25348 
L 613.533173 351.752328 
L 636.246875 351.073525 
L 658.960577 350.384647 
L 681.674279 349.521732 
L 704.387981 348.544575 
L 727.101683 347.433522 
L 749.815385 346.199538 
L 772.529087 344.792039 
L 795.242788 343.07479 
L 817.95649 340.971738 
L 840.670192 338.137853 
L 863.383894 333.794039 
L 886.097596 326.624892 
L 908.811298 312.226246 
L 931.525 272.127203 
L 954.238702 68.596754 
" style="fill:none;stroke:#5cb85c;stroke-linecap:square;"/>
   </g>
   <g id="line2d_35">
    <path clip-path="url(#p8e2486503a)" d="M 227.40024 353.223869 
L 250.113942 353.223823 
L 272.827644 353.223792 
L 295.541346 353.223069 
L 318.255048 353.220224 
L 340.96875 353.20669 
L 363.682452 353.166395 
L 386.396154 353.07487 
L 409.109856 352.873778 
L 431.823558 352.538406 
L 454.53726 352.14396 
L 477.250962 351.701221 
L 499.964663 351.274031 
L 522.678365 350.807854 
L 545.392067 350.312608 
L 568.105769 349.73628 
L 590.819471 349.045527 
L 613.533173 348.436071 
L 636.246875 347.693641 
L 658.960577 346.851842 
L 681.674279 345.904814 
L 704.387981 344.860187 
L 727.101683 343.613545 
L 749.815385 342.044573 
L 772.529087 339.968713 
L 795.242788 337.268724 
L 817.95649 333.564449 
L 840.670192 328.193802 
L 863.383894 320.385085 
L 886.097596 308.116682 
L 908.811298 286.800364 
L 931.525 243.728126 
L 954.238702 224.21909 
" style="fill:none;stroke:#5cb85c;stroke-linecap:square;"/>
   </g>
   <g id="line2d_36">
    <path clip-path="url(#p8e2486503a)" d="M 318.255048 353.223592 
L 340.96875 353.222485 
L 363.682452 353.22207 
L 386.396154 353.221624 
L 409.109856 353.219855 
L 431.823558 353.217087 
L 454.53726 353.209581 
L 477.250962 353.183513 
L 499.964663 353.131744 
L 522.678365 353.055245 
L 545.392067 352.928162 
L 568.105769 352.744849 
L 590.819471 352.448542 
L 613.533173 352.037609 
L 636.246875 351.465249 
L 658.960577 350.793351 
L 681.674279 349.986664 
L 704.387981 349.067612 
L 727.101683 347.991825 
L 749.815385 346.796875 
L 772.529087 345.334885 
L 795.242788 343.535 
L 817.95649 341.158711 
L 840.670192 337.782641 
L 863.383894 332.617576 
L 886.097596 324.016951 
L 908.811298 307.353935 
L 931.525 262.643193 
L 954.238702 69.262669 
" style="fill:none;stroke:#5cb85c;stroke-linecap:square;"/>
   </g>
   <g id="line2d_37">
    <path clip-path="url(#p8e2486503a)" d="M 272.827644 353.223869 
L 295.541346 353.223239 
L 318.255048 353.219824 
L 340.96875 353.205983 
L 363.682452 353.159858 
L 386.396154 353.013996 
L 409.109856 352.696849 
L 431.823558 352.194006 
L 454.53726 351.578644 
L 477.250962 350.923818 
L 499.964663 350.279542 
L 522.678365 349.646462 
L 545.392067 348.971273 
L 568.105769 348.260341 
L 590.819471 347.489151 
L 613.533173 346.708702 
L 636.246875 345.841819 
L 658.960577 344.844222 
L 681.674279 343.762806 
L 704.387981 342.530883 
L 727.101683 341.087656 
L 749.815385 339.525928 
L 772.529087 337.578366 
L 795.242788 335.243464 
L 817.95649 332.013487 
L 840.670192 327.497804 
L 863.383894 320.73353 
L 886.097596 309.737392 
L 908.811298 289.876342 
L 931.525 249.159647 
L 954.238702 231.091992 
" style="fill:none;stroke:#5cb85c;stroke-linecap:square;"/>
   </g>
   <g id="line2d_38">
    <path clip-path="url(#p8e2486503a)" d="M 318.255048 353.2235 
L 340.96875 353.222593 
L 363.682452 353.222116 
L 386.396154 353.221285 
L 409.109856 353.220701 
L 431.823558 353.217579 
L 454.53726 353.209551 
L 477.250962 353.183759 
L 499.964663 353.129314 
L 522.678365 353.03399 
L 545.392067 352.900232 
L 568.105769 352.684668 
L 590.819471 352.360277 
L 613.533173 351.905311 
L 636.246875 351.255899 
L 658.960577 350.595412 
L 681.674279 349.773577 
L 704.387981 348.818767 
L 727.101683 347.794333 
L 749.815385 346.645199 
L 772.529087 345.290283 
L 795.242788 343.695089 
L 817.95649 341.684823 
L 840.670192 338.97796 
L 863.383894 334.917458 
L 886.097596 328.041757 
L 908.811298 314.379066 
L 931.525 276.138075 
L 954.238702 82.568841 
" style="fill:none;stroke:#5cb85c;stroke-linecap:square;"/>
   </g>
   <g id="line2d_39">
    <path clip-path="url(#p8e2486503a)" d="M 227.40024 353.223869 
L 250.113942 353.223885 
L 272.827644 353.223669 
L 295.541346 353.223131 
L 318.255048 353.220132 
L 340.96875 353.206275 
L 363.682452 353.172639 
L 386.396154 353.092064 
L 409.109856 352.899048 
L 431.823558 352.569658 
L 454.53726 352.170582 
L 477.250962 351.753097 
L 499.964663 351.335751 
L 522.678365 350.894519 
L 545.392067 350.411301 
L 568.105769 349.868439 
L 590.819471 349.176855 
L 613.533173 348.583071 
L 636.246875 347.891502 
L 658.960577 347.037569 
L 681.674279 346.121101 
L 704.387981 345.113261 
L 727.101683 343.908929 
L 749.815385 342.356675 
L 772.529087 340.375278 
L 795.242788 337.777842 
L 817.95649 334.215231 
L 840.670192 329.140414 
L 863.383894 321.674206 
L 886.097596 310.203139 
L 908.811298 290.492412 
L 931.525 250.833017 
L 954.238702 232.818453 
" style="fill:none;stroke:#5cb85c;stroke-linecap:square;"/>
   </g>
   <g id="line2d_40">
    <path clip-path="url(#p8e2486503a)" d="M 318.255048 353.223685 
L 340.96875 353.223208 
L 363.682452 353.222608 
L 386.396154 353.222208 
L 409.109856 353.221516 
L 431.823558 353.219025 
L 454.53726 353.212611 
L 477.250962 353.192817 
L 499.964663 353.154276 
L 522.678365 353.081667 
L 545.392067 352.958152 
L 568.105769 352.76855 
L 590.819471 352.482024 
L 613.533173 352.064031 
L 636.246875 351.503529 
L 658.960577 350.876432 
L 681.674279 350.127497 
L 704.387981 349.26089 
L 727.101683 348.303651 
L 749.815385 347.248795 
L 772.529087 346.014903 
L 795.242788 344.558188 
L 817.95649 342.700107 
L 840.670192 340.191628 
L 863.383894 336.400088 
L 886.097596 330.087181 
L 908.811298 317.37387 
L 931.525 282.048369 
L 954.238702 112.294151 
" style="fill:none;stroke:#5cb85c;stroke-linecap:square;"/>
   </g>
   <g id="line2d_41">
    <path clip-path="url(#p8e2486503a)" d="M 227.40024 353.223885 
L 250.113942 353.223808 
L 272.827644 353.223762 
L 295.541346 353.223423 
L 318.255048 353.219824 
L 340.96875 353.207967 
L 363.682452 353.176976 
L 386.396154 353.095355 
L 409.109856 352.883821 
L 431.823558 352.531208 
L 454.53726 352.113708 
L 477.250962 351.689502 
L 499.964663 351.260497 
L 522.678365 350.832246 
L 545.392067 350.362762 
L 568.105769 349.847369 
L 590.819471 349.237682 
L 613.533173 348.649266 
L 636.246875 347.939764 
L 658.960577 347.18237 
L 681.674279 346.33165 
L 704.387981 345.332793 
L 727.101683 344.109067 
L 749.815385 342.631974 
L 772.529087 340.724431 
L 795.242788 338.153033 
L 817.95649 334.750602 
L 840.670192 329.86485 
L 863.383894 322.78269 
L 886.097596 311.911867 
L 908.811298 293.782877 
L 931.525 261.727925 
L 954.238702 261.902301 
" style="fill:none;stroke:#5cb85c;stroke-linecap:square;"/>
   </g>
   <g id="line2d_42">
    <path clip-path="url(#p8e2486503a)" d="M 318.255048 353.2231 
L 340.96875 353.222224 
L 363.682452 353.222147 
L 386.396154 353.220993 
L 409.109856 353.219963 
L 431.823558 353.218563 
L 454.53726 353.211319 
L 477.250962 353.191602 
L 499.964663 353.147078 
L 522.678365 353.073762 
L 545.392067 352.95726 
L 568.105769 352.766258 
L 590.819471 352.486084 
L 613.533173 352.067461 
L 636.246875 351.485996 
L 658.960577 350.888536 
L 681.674279 350.102489 
L 704.387981 349.238282 
L 727.101683 348.238271 
L 749.815385 347.14189 
L 772.529087 345.869795 
L 795.242788 344.360819 
L 817.95649 342.445801 
L 840.670192 339.862746 
L 863.383894 335.995337 
L 886.097596 329.520496 
L 908.811298 316.48321 
L 931.525 280.004792 
L 954.238702 91.075048 
" style="fill:none;stroke:#5cb85c;stroke-linecap:square;"/>
   </g>
   <g id="line2d_43">
    <path clip-path="url(#p8e2486503a)" d="M 227.40024 353.223885 
L 250.113942 353.223869 
L 272.827644 353.2237 
L 295.541346 353.222946 
L 318.255048 353.219932 
L 340.96875 353.209428 
L 363.682452 353.179575 
L 386.396154 353.102046 
L 409.109856 352.89914 
L 431.823558 352.554693 
L 454.53726 352.124366 
L 477.250962 351.695623 
L 499.964663 351.262758 
L 522.678365 350.817758 
L 545.392067 350.313177 
L 568.105769 349.768717 
L 590.819471 349.100094 
L 613.533173 348.465862 
L 636.246875 347.745117 
L 658.960577 346.936139 
L 681.674279 345.998247 
L 704.387981 344.95345 
L 727.101683 343.73706 
L 749.815385 342.16858 
L 772.529087 340.117943 
L 795.242788 337.468862 
L 817.95649 333.813341 
L 840.670192 328.720807 
L 863.383894 321.196647 
L 886.097596 309.689253 
L 908.811298 290.332277 
L 931.525 255.554713 
L 954.238702 254.796918 
" style="fill:none;stroke:#5cb85c;stroke-linecap:square;"/>
   </g>
   <g id="line2d_44">
    <path clip-path="url(#p8e2486503a)" d="M 318.255048 353.223715 
L 340.96875 353.223054 
L 363.682452 353.222716 
L 386.396154 353.221885 
L 409.109856 353.220901 
L 431.823558 353.218917 
L 454.53726 353.212842 
L 477.250962 353.190987 
L 499.964663 353.148647 
L 522.678365 353.073116 
L 545.392067 352.95157 
L 568.105769 352.751555 
L 590.819471 352.463399 
L 613.533173 352.039546 
L 636.246875 351.465479 
L 658.960577 350.814775 
L 681.674279 350.03957 
L 704.387981 349.148956 
L 727.101683 348.163494 
L 749.815385 347.032862 
L 772.529087 345.749201 
L 795.242788 344.229368 
L 817.95649 342.302908 
L 840.670192 339.726296 
L 863.383894 335.83411 
L 886.097596 329.350533 
L 908.811298 316.263171 
L 931.525 279.664159 
L 954.238702 79.29374 
" style="fill:none;stroke:#5cb85c;stroke-linecap:square;"/>
   </g>
   <g id="line2d_45">
    <path clip-path="url(#p8e2486503a)" d="M 250.113942 353.223869 
L 272.827644 353.223669 
L 295.541346 353.223085 
L 318.255048 353.220455 
L 340.96875 353.210135 
L 363.682452 353.178453 
L 386.396154 353.108044 
L 409.109856 352.933914 
L 431.823558 352.624103 
L 454.53726 352.239699 
L 477.250962 351.823906 
L 499.964663 351.429198 
L 522.678365 350.984583 
L 545.392067 350.524834 
L 568.105769 349.9711 
L 590.819471 349.348079 
L 613.533173 348.716153 
L 636.246875 347.973246 
L 658.960577 347.161392 
L 681.674279 346.249015 
L 704.387981 345.234808 
L 727.101683 344.009467 
L 749.815385 342.484666 
L 772.529087 340.496363 
L 795.242788 337.853957 
L 817.95649 334.254573 
L 840.670192 329.123943 
L 863.383894 321.533772 
L 886.097596 309.779901 
L 908.811298 289.651197 
L 931.525 250.792476 
L 954.238702 241.33112 
" style="fill:none;stroke:#5cb85c;stroke-linecap:square;"/>
   </g>
   <g id="line2d_46">
    <path clip-path="url(#p8e2486503a)" d="M 45.690625 353.2239 
L 990.580625 353.2239 
" style="fill:none;stroke:#dedede;stroke-linecap:square;stroke-width:2;"/>
   </g>
   <g id="text_22">
    <!-- FastQC: Per Sequence Quality Scores -->
    <defs>
     <path d="M 9.8125 72.90625 
L 51.703125 72.90625 
L 51.703125 64.59375 
L 19.671875 64.59375 
L 19.671875 43.109375 
L 48.578125 43.109375 
L 48.578125 34.8125 
L 19.671875 34.8125 
L 19.671875 0 
L 9.8125 0 
z
" id="DejaVuSans-70"/>
     <path d="M 44.28125 53.078125 
L 44.28125 44.578125 
Q 40.484375 46.53125 36.375 47.5 
Q 32.28125 48.484375 27.875 48.484375 
Q 21.1875 48.484375 17.84375 46.4375 
Q 14.5 44.390625 14.5 40.28125 
Q 14.5 37.15625 16.890625 35.375 
Q 19.28125 33.59375 26.515625 31.984375 
L 29.59375 31.296875 
Q 39.15625 29.25 43.1875 25.515625 
Q 47.21875 21.78125 47.21875 15.09375 
Q 47.21875 7.46875 41.1875 3.015625 
Q 35.15625 -1.421875 24.609375 -1.421875 
Q 20.21875 -1.421875 15.453125 -0.5625 
Q 10.6875 0.296875 5.421875 2 
L 5.421875 11.28125 
Q 10.40625 8.6875 15.234375 7.390625 
Q 20.0625 6.109375 24.8125 6.109375 
Q 31.15625 6.109375 34.5625 8.28125 
Q 37.984375 10.453125 37.984375 14.40625 
Q 37.984375 18.0625 35.515625 20.015625 
Q 33.0625 21.96875 24.703125 23.78125 
L 21.578125 24.515625 
Q 13.234375 26.265625 9.515625 29.90625 
Q 5.8125 33.546875 5.8125 39.890625 
Q 5.8125 47.609375 11.28125 51.796875 
Q 16.75 56 26.8125 56 
Q 31.78125 56 36.171875 55.265625 
Q 40.578125 54.546875 44.28125 53.078125 
z
" id="DejaVuSans-115"/>
     <path d="M 11.71875 12.40625 
L 22.015625 12.40625 
L 22.015625 0 
L 11.71875 0 
z
M 11.71875 51.703125 
L 22.015625 51.703125 
L 22.015625 39.3125 
L 11.71875 39.3125 
z
" id="DejaVuSans-58"/>
    </defs>
    <g transform="translate(368.760625 19.3575)scale(0.16 -0.16)">
     <use xlink:href="#DejaVuSans-70"/>
     <use x="57.378906" xlink:href="#DejaVuSans-97"/>
     <use x="118.658203" xlink:href="#DejaVuSans-115"/>
     <use x="170.757812" xlink:href="#DejaVuSans-116"/>
     <use x="209.966797" xlink:href="#DejaVuSans-81"/>
     <use x="288.677734" xlink:href="#DejaVuSans-67"/>
     <use x="358.501953" xlink:href="#DejaVuSans-58"/>
     <use x="392.193359" xlink:href="#DejaVuSans-32"/>
     <use x="423.980469" xlink:href="#DejaVuSans-80"/>
     <use x="484.236328" xlink:href="#DejaVuSans-101"/>
     <use x="545.759766" xlink:href="#DejaVuSans-114"/>
     <use x="586.873047" xlink:href="#DejaVuSans-32"/>
     <use x="618.660156" xlink:href="#DejaVuSans-83"/>
     <use x="682.136719" xlink:href="#DejaVuSans-101"/>
     <use x="743.660156" xlink:href="#DejaVuSans-113"/>
     <use x="807.136719" xlink:href="#DejaVuSans-117"/>
     <use x="870.515625" xlink:href="#DejaVuSans-101"/>
     <use x="932.039062" xlink:href="#DejaVuSans-110"/>
     <use x="995.417969" xlink:href="#DejaVuSans-99"/>
     <use x="1050.398438" xlink:href="#DejaVuSans-101"/>
     <use x="1111.921875" xlink:href="#DejaVuSans-32"/>
     <use x="1143.708984" xlink:href="#DejaVuSans-81"/>
     <use x="1222.419922" xlink:href="#DejaVuSans-117"/>
     <use x="1285.798828" xlink:href="#DejaVuSans-97"/>
     <use x="1347.078125" xlink:href="#DejaVuSans-108"/>
     <use x="1374.861328" xlink:href="#DejaVuSans-105"/>
     <use x="1402.644531" xlink:href="#DejaVuSans-116"/>
     <use x="1441.853516" xlink:href="#DejaVuSans-121"/>
     <use x="1501.033203" xlink:href="#DejaVuSans-32"/>
     <use x="1532.820312" xlink:href="#DejaVuSans-83"/>
     <use x="1596.296875" xlink:href="#DejaVuSans-99"/>
     <use x="1651.277344" xlink:href="#DejaVuSans-111"/>
     <use x="1712.458984" xlink:href="#DejaVuSans-114"/>
     <use x="1753.541016" xlink:href="#DejaVuSans-101"/>
     <use x="1815.064453" xlink:href="#DejaVuSans-115"/>
    </g>
   </g>
  </g>
 </g>
 <defs>
  <clipPath id="p8e2486503a">
   <rect height="317.968" width="944.89" x="45.690625" y="35.2559"/>
  </clipPath>
 </defs>
</svg>
