<?xml version="1.0" encoding="utf-8" standalone="no"?>
<!DOCTYPE svg PUBLIC "-//W3C//DTD SVG 1.1//EN"
  "http://www.w3.org/Graphics/SVG/1.1/DTD/svg11.dtd">
<!-- Created with matplotlib (https://matplotlib.org/) -->
<svg height="388.844525pt" version="1.1" viewBox="0 0 1001.178125 388.844525" width="1001.178125pt" xmlns="http://www.w3.org/2000/svg" xmlns:xlink="http://www.w3.org/1999/xlink">
 <defs>
  <style type="text/css">
*{stroke-linecap:butt;stroke-linejoin:round;}
  </style>
 </defs>
 <g id="figure_1">
  <g id="patch_1">
   <path d="M 0 388.844525 
L 1001.178125 388.844525 
L 1001.178125 0 
L 0 0 
z
" style="fill:#ffffff;"/>
  </g>
  <g id="axes_1">
   <g id="patch_2">
    <path d="M 53.328125 353.2239 
L 990.478125 353.2239 
L 990.478125 35.2559 
L 53.328125 35.2559 
z
" style="fill:#ffffff;"/>
   </g>
   <g id="matplotlib.axis_1">
    <g id="xtick_1">
     <g id="text_1">
      <!-- −200 -->
      <defs>
       <path d="M 10.59375 35.5 
L 73.1875 35.5 
L 73.1875 27.203125 
L 10.59375 27.203125 
z
" id="DejaVuSans-8722"/>
       <path d="M 19.1875 8.296875 
L 53.609375 8.296875 
L 53.609375 0 
L 7.328125 0 
L 7.328125 8.296875 
Q 12.9375 14.109375 22.625 23.890625 
Q 32.328125 33.6875 34.8125 36.53125 
Q 39.546875 41.84375 41.421875 45.53125 
Q 43.3125 49.21875 43.3125 52.78125 
Q 43.3125 58.59375 39.234375 62.25 
Q 35.15625 65.921875 28.609375 65.921875 
Q 23.96875 65.921875 18.8125 64.3125 
Q 13.671875 62.703125 7.8125 59.421875 
L 7.8125 69.390625 
Q 13.765625 71.78125 18.9375 73 
Q 24.125 74.21875 28.421875 74.21875 
Q 39.75 74.21875 46.484375 68.546875 
Q 53.21875 62.890625 53.21875 53.421875 
Q 53.21875 48.921875 51.53125 44.890625 
Q 49.859375 40.875 45.40625 35.40625 
Q 44.1875 33.984375 37.640625 27.21875 
Q 31.109375 20.453125 19.1875 8.296875 
z
" id="DejaVuSans-50"/>
       <path d="M 31.78125 66.40625 
Q 24.171875 66.40625 20.328125 58.90625 
Q 16.5 51.421875 16.5 36.375 
Q 16.5 21.390625 20.328125 13.890625 
Q 24.171875 6.390625 31.78125 6.390625 
Q 39.453125 6.390625 43.28125 13.890625 
Q 47.125 21.390625 47.125 36.375 
Q 47.125 51.421875 43.28125 58.90625 
Q 39.453125 66.40625 31.78125 66.40625 
z
M 31.78125 74.21875 
Q 44.046875 74.21875 50.515625 64.515625 
Q 56.984375 54.828125 56.984375 36.375 
Q 56.984375 17.96875 50.515625 8.265625 
Q 44.046875 -1.421875 31.78125 -1.421875 
Q 19.53125 -1.421875 13.0625 8.265625 
Q 6.59375 17.96875 6.59375 36.375 
Q 6.59375 54.828125 13.0625 64.515625 
Q 19.53125 74.21875 31.78125 74.21875 
z
" id="DejaVuSans-48"/>
      </defs>
      <g transform="translate(166.692191 366.30265)scale(0.08 -0.08)">
       <use xlink:href="#DejaVuSans-8722"/>
       <use x="83.789062" xlink:href="#DejaVuSans-50"/>
       <use x="147.412109" xlink:href="#DejaVuSans-48"/>
       <use x="211.035156" xlink:href="#DejaVuSans-48"/>
      </g>
     </g>
    </g>
    <g id="xtick_2">
     <g id="text_2">
      <!-- −100 -->
      <defs>
       <path d="M 12.40625 8.296875 
L 28.515625 8.296875 
L 28.515625 63.921875 
L 10.984375 60.40625 
L 10.984375 69.390625 
L 28.421875 72.90625 
L 38.28125 72.90625 
L 38.28125 8.296875 
L 54.390625 8.296875 
L 54.390625 0 
L 12.40625 0 
z
" id="DejaVuSans-49"/>
      </defs>
      <g transform="translate(338.804221 366.30265)scale(0.08 -0.08)">
       <use xlink:href="#DejaVuSans-8722"/>
       <use x="83.789062" xlink:href="#DejaVuSans-49"/>
       <use x="147.412109" xlink:href="#DejaVuSans-48"/>
       <use x="211.035156" xlink:href="#DejaVuSans-48"/>
      </g>
     </g>
    </g>
    <g id="xtick_3">
     <g id="text_3">
      <!-- 0 -->
      <g transform="translate(519.358125 366.30265)scale(0.08 -0.08)">
       <use xlink:href="#DejaVuSans-48"/>
      </g>
     </g>
    </g>
    <g id="xtick_4">
     <g id="text_4">
      <!-- 100 -->
      <g transform="translate(686.380154 366.30265)scale(0.08 -0.08)">
       <use xlink:href="#DejaVuSans-49"/>
       <use x="63.623047" xlink:href="#DejaVuSans-48"/>
       <use x="127.246094" xlink:href="#DejaVuSans-48"/>
      </g>
     </g>
    </g>
    <g id="xtick_5">
     <g id="text_5">
      <!-- 200 -->
      <g transform="translate(858.492184 366.30265)scale(0.08 -0.08)">
       <use xlink:href="#DejaVuSans-50"/>
       <use x="63.623047" xlink:href="#DejaVuSans-48"/>
       <use x="127.246094" xlink:href="#DejaVuSans-48"/>
      </g>
     </g>
    </g>
    <g id="text_6">
     <!-- Inner Distance (bp) -->
     <defs>
      <path d="M 9.8125 72.90625 
L 19.671875 72.90625 
L 19.671875 0 
L 9.8125 0 
z
" id="DejaVuSans-73"/>
      <path d="M 54.890625 33.015625 
L 54.890625 0 
L 45.90625 0 
L 45.90625 32.71875 
Q 45.90625 40.484375 42.875 44.328125 
Q 39.84375 48.1875 33.796875 48.1875 
Q 26.515625 48.1875 22.3125 43.546875 
Q 18.109375 38.921875 18.109375 30.90625 
L 18.109375 0 
L 9.078125 0 
L 9.078125 54.6875 
L 18.109375 54.6875 
L 18.109375 46.1875 
Q 21.34375 51.125 25.703125 53.5625 
Q 30.078125 56 35.796875 56 
Q 45.21875 56 50.046875 50.171875 
Q 54.890625 44.34375 54.890625 33.015625 
z
" id="DejaVuSans-110"/>
      <path d="M 56.203125 29.59375 
L 56.203125 25.203125 
L 14.890625 25.203125 
Q 15.484375 15.921875 20.484375 11.0625 
Q 25.484375 6.203125 34.421875 6.203125 
Q 39.59375 6.203125 44.453125 7.46875 
Q 49.3125 8.734375 54.109375 11.28125 
L 54.109375 2.78125 
Q 49.265625 0.734375 44.1875 -0.34375 
Q 39.109375 -1.421875 33.890625 -1.421875 
Q 20.796875 -1.421875 13.15625 6.1875 
Q 5.515625 13.8125 5.515625 26.8125 
Q 5.515625 40.234375 12.765625 48.109375 
Q 20.015625 56 32.328125 56 
Q 43.359375 56 49.78125 48.890625 
Q 56.203125 41.796875 56.203125 29.59375 
z
M 47.21875 32.234375 
Q 47.125 39.59375 43.09375 43.984375 
Q 39.0625 48.390625 32.421875 48.390625 
Q 24.90625 48.390625 20.390625 44.140625 
Q 15.875 39.890625 15.1875 32.171875 
z
" id="DejaVuSans-101"/>
      <path d="M 41.109375 46.296875 
Q 39.59375 47.171875 37.8125 47.578125 
Q 36.03125 48 33.890625 48 
Q 26.265625 48 22.1875 43.046875 
Q 18.109375 38.09375 18.109375 28.8125 
L 18.109375 0 
L 9.078125 0 
L 9.078125 54.6875 
L 18.109375 54.6875 
L 18.109375 46.1875 
Q 20.953125 51.171875 25.484375 53.578125 
Q 30.03125 56 36.53125 56 
Q 37.453125 56 38.578125 55.875 
Q 39.703125 55.765625 41.0625 55.515625 
z
" id="DejaVuSans-114"/>
      <path id="DejaVuSans-32"/>
      <path d="M 19.671875 64.796875 
L 19.671875 8.109375 
L 31.59375 8.109375 
Q 46.6875 8.109375 53.6875 14.9375 
Q 60.6875 21.78125 60.6875 36.53125 
Q 60.6875 51.171875 53.6875 57.984375 
Q 46.6875 64.796875 31.59375 64.796875 
z
M 9.8125 72.90625 
L 30.078125 72.90625 
Q 51.265625 72.90625 61.171875 64.09375 
Q 71.09375 55.28125 71.09375 36.53125 
Q 71.09375 17.671875 61.125 8.828125 
Q 51.171875 0 30.078125 0 
L 9.8125 0 
z
" id="DejaVuSans-68"/>
      <path d="M 9.421875 54.6875 
L 18.40625 54.6875 
L 18.40625 0 
L 9.421875 0 
z
M 9.421875 75.984375 
L 18.40625 75.984375 
L 18.40625 64.59375 
L 9.421875 64.59375 
z
" id="DejaVuSans-105"/>
      <path d="M 44.28125 53.078125 
L 44.28125 44.578125 
Q 40.484375 46.53125 36.375 47.5 
Q 32.28125 48.484375 27.875 48.484375 
Q 21.1875 48.484375 17.84375 46.4375 
Q 14.5 44.390625 14.5 40.28125 
Q 14.5 37.15625 16.890625 35.375 
Q 19.28125 33.59375 26.515625 31.984375 
L 29.59375 31.296875 
Q 39.15625 29.25 43.1875 25.515625 
Q 47.21875 21.78125 47.21875 15.09375 
Q 47.21875 7.46875 41.1875 3.015625 
Q 35.15625 -1.421875 24.609375 -1.421875 
Q 20.21875 -1.421875 15.453125 -0.5625 
Q 10.6875 0.296875 5.421875 2 
L 5.421875 11.28125 
Q 10.40625 8.6875 15.234375 7.390625 
Q 20.0625 6.109375 24.8125 6.109375 
Q 31.15625 6.109375 34.5625 8.28125 
Q 37.984375 10.453125 37.984375 14.40625 
Q 37.984375 18.0625 35.515625 20.015625 
Q 33.0625 21.96875 24.703125 23.78125 
L 21.578125 24.515625 
Q 13.234375 26.265625 9.515625 29.90625 
Q 5.8125 33.546875 5.8125 39.890625 
Q 5.8125 47.609375 11.28125 51.796875 
Q 16.75 56 26.8125 56 
Q 31.78125 56 36.171875 55.265625 
Q 40.578125 54.546875 44.28125 53.078125 
z
" id="DejaVuSans-115"/>
      <path d="M 18.3125 70.21875 
L 18.3125 54.6875 
L 36.8125 54.6875 
L 36.8125 47.703125 
L 18.3125 47.703125 
L 18.3125 18.015625 
Q 18.3125 11.328125 20.140625 9.421875 
Q 21.96875 7.515625 27.59375 7.515625 
L 36.8125 7.515625 
L 36.8125 0 
L 27.59375 0 
Q 17.1875 0 13.234375 3.875 
Q 9.28125 7.765625 9.28125 18.015625 
L 9.28125 47.703125 
L 2.6875 47.703125 
L 2.6875 54.6875 
L 9.28125 54.6875 
L 9.28125 70.21875 
z
" id="DejaVuSans-116"/>
      <path d="M 34.28125 27.484375 
Q 23.390625 27.484375 19.1875 25 
Q 14.984375 22.515625 14.984375 16.5 
Q 14.984375 11.71875 18.140625 8.90625 
Q 21.296875 6.109375 26.703125 6.109375 
Q 34.1875 6.109375 38.703125 11.40625 
Q 43.21875 16.703125 43.21875 25.484375 
L 43.21875 27.484375 
z
M 52.203125 31.203125 
L 52.203125 0 
L 43.21875 0 
L 43.21875 8.296875 
Q 40.140625 3.328125 35.546875 0.953125 
Q 30.953125 -1.421875 24.3125 -1.421875 
Q 15.921875 -1.421875 10.953125 3.296875 
Q 6 8.015625 6 15.921875 
Q 6 25.140625 12.171875 29.828125 
Q 18.359375 34.515625 30.609375 34.515625 
L 43.21875 34.515625 
L 43.21875 35.40625 
Q 43.21875 41.609375 39.140625 45 
Q 35.0625 48.390625 27.6875 48.390625 
Q 23 48.390625 18.546875 47.265625 
Q 14.109375 46.140625 10.015625 43.890625 
L 10.015625 52.203125 
Q 14.9375 54.109375 19.578125 55.046875 
Q 24.21875 56 28.609375 56 
Q 40.484375 56 46.34375 49.84375 
Q 52.203125 43.703125 52.203125 31.203125 
z
" id="DejaVuSans-97"/>
      <path d="M 48.78125 52.59375 
L 48.78125 44.1875 
Q 44.96875 46.296875 41.140625 47.34375 
Q 37.3125 48.390625 33.40625 48.390625 
Q 24.65625 48.390625 19.8125 42.84375 
Q 14.984375 37.3125 14.984375 27.296875 
Q 14.984375 17.28125 19.8125 11.734375 
Q 24.65625 6.203125 33.40625 6.203125 
Q 37.3125 6.203125 41.140625 7.25 
Q 44.96875 8.296875 48.78125 10.40625 
L 48.78125 2.09375 
Q 45.015625 0.34375 40.984375 -0.53125 
Q 36.96875 -1.421875 32.421875 -1.421875 
Q 20.0625 -1.421875 12.78125 6.34375 
Q 5.515625 14.109375 5.515625 27.296875 
Q 5.515625 40.671875 12.859375 48.328125 
Q 20.21875 56 33.015625 56 
Q 37.15625 56 41.109375 55.140625 
Q 45.0625 54.296875 48.78125 52.59375 
z
" id="DejaVuSans-99"/>
      <path d="M 31 75.875 
Q 24.46875 64.65625 21.28125 53.65625 
Q 18.109375 42.671875 18.109375 31.390625 
Q 18.109375 20.125 21.3125 9.0625 
Q 24.515625 -2 31 -13.1875 
L 23.1875 -13.1875 
Q 15.875 -1.703125 12.234375 9.375 
Q 8.59375 20.453125 8.59375 31.390625 
Q 8.59375 42.28125 12.203125 53.3125 
Q 15.828125 64.359375 23.1875 75.875 
z
" id="DejaVuSans-40"/>
      <path d="M 48.6875 27.296875 
Q 48.6875 37.203125 44.609375 42.84375 
Q 40.53125 48.484375 33.40625 48.484375 
Q 26.265625 48.484375 22.1875 42.84375 
Q 18.109375 37.203125 18.109375 27.296875 
Q 18.109375 17.390625 22.1875 11.75 
Q 26.265625 6.109375 33.40625 6.109375 
Q 40.53125 6.109375 44.609375 11.75 
Q 48.6875 17.390625 48.6875 27.296875 
z
M 18.109375 46.390625 
Q 20.953125 51.265625 25.265625 53.625 
Q 29.59375 56 35.59375 56 
Q 45.5625 56 51.78125 48.09375 
Q 58.015625 40.1875 58.015625 27.296875 
Q 58.015625 14.40625 51.78125 6.484375 
Q 45.5625 -1.421875 35.59375 -1.421875 
Q 29.59375 -1.421875 25.265625 0.953125 
Q 20.953125 3.328125 18.109375 8.203125 
L 18.109375 0 
L 9.078125 0 
L 9.078125 75.984375 
L 18.109375 75.984375 
z
" id="DejaVuSans-98"/>
      <path d="M 18.109375 8.203125 
L 18.109375 -20.796875 
L 9.078125 -20.796875 
L 9.078125 54.6875 
L 18.109375 54.6875 
L 18.109375 46.390625 
Q 20.953125 51.265625 25.265625 53.625 
Q 29.59375 56 35.59375 56 
Q 45.5625 56 51.78125 48.09375 
Q 58.015625 40.1875 58.015625 27.296875 
Q 58.015625 14.40625 51.78125 6.484375 
Q 45.5625 -1.421875 35.59375 -1.421875 
Q 29.59375 -1.421875 25.265625 0.953125 
Q 20.953125 3.328125 18.109375 8.203125 
z
M 48.6875 27.296875 
Q 48.6875 37.203125 44.609375 42.84375 
Q 40.53125 48.484375 33.40625 48.484375 
Q 26.265625 48.484375 22.1875 42.84375 
Q 18.109375 37.203125 18.109375 27.296875 
Q 18.109375 17.390625 22.1875 11.75 
Q 26.265625 6.109375 33.40625 6.109375 
Q 40.53125 6.109375 44.609375 11.75 
Q 48.6875 17.390625 48.6875 27.296875 
z
" id="DejaVuSans-112"/>
      <path d="M 8.015625 75.875 
L 15.828125 75.875 
Q 23.140625 64.359375 26.78125 53.3125 
Q 30.421875 42.28125 30.421875 31.390625 
Q 30.421875 20.453125 26.78125 9.375 
Q 23.140625 -1.703125 15.828125 -13.1875 
L 8.015625 -13.1875 
Q 14.5 -2 17.703125 9.0625 
Q 20.90625 20.125 20.90625 31.390625 
Q 20.90625 42.671875 17.703125 53.65625 
Q 14.5 64.65625 8.015625 75.875 
z
" id="DejaVuSans-41"/>
     </defs>
     <g transform="translate(473.667969 379.564837)scale(0.1 -0.1)">
      <use xlink:href="#DejaVuSans-73"/>
      <use x="29.492188" xlink:href="#DejaVuSans-110"/>
      <use x="92.871094" xlink:href="#DejaVuSans-110"/>
      <use x="156.25" xlink:href="#DejaVuSans-101"/>
      <use x="217.773438" xlink:href="#DejaVuSans-114"/>
      <use x="258.886719" xlink:href="#DejaVuSans-32"/>
      <use x="290.673828" xlink:href="#DejaVuSans-68"/>
      <use x="367.675781" xlink:href="#DejaVuSans-105"/>
      <use x="395.458984" xlink:href="#DejaVuSans-115"/>
      <use x="447.558594" xlink:href="#DejaVuSans-116"/>
      <use x="486.767578" xlink:href="#DejaVuSans-97"/>
      <use x="548.046875" xlink:href="#DejaVuSans-110"/>
      <use x="611.425781" xlink:href="#DejaVuSans-99"/>
      <use x="666.40625" xlink:href="#DejaVuSans-101"/>
      <use x="727.929688" xlink:href="#DejaVuSans-32"/>
      <use x="759.716797" xlink:href="#DejaVuSans-40"/>
      <use x="798.730469" xlink:href="#DejaVuSans-98"/>
      <use x="862.207031" xlink:href="#DejaVuSans-112"/>
      <use x="925.683594" xlink:href="#DejaVuSans-41"/>
     </g>
    </g>
   </g>
   <g id="matplotlib.axis_2">
    <g id="ytick_1">
     <g id="line2d_1">
      <path clip-path="url(#p99df328ebd)" d="M 53.328125 338.770809 
L 990.478125 338.770809 
" style="fill:none;stroke:#dedede;stroke-linecap:square;"/>
     </g>
     <g id="text_7">
      <!-- 0 -->
      <g transform="translate(41.238125 341.810184)scale(0.08 -0.08)">
       <use xlink:href="#DejaVuSans-48"/>
      </g>
     </g>
    </g>
    <g id="ytick_2">
     <g id="line2d_2">
      <path clip-path="url(#p99df328ebd)" d="M 53.328125 292.744789 
L 990.478125 292.744789 
" style="fill:none;stroke:#dedede;stroke-linecap:square;"/>
     </g>
     <g id="text_8">
      <!-- 5000 -->
      <defs>
       <path d="M 10.796875 72.90625 
L 49.515625 72.90625 
L 49.515625 64.59375 
L 19.828125 64.59375 
L 19.828125 46.734375 
Q 21.96875 47.46875 24.109375 47.828125 
Q 26.265625 48.1875 28.421875 48.1875 
Q 40.625 48.1875 47.75 41.5 
Q 54.890625 34.8125 54.890625 23.390625 
Q 54.890625 11.625 47.5625 5.09375 
Q 40.234375 -1.421875 26.90625 -1.421875 
Q 22.3125 -1.421875 17.546875 -0.640625 
Q 12.796875 0.140625 7.71875 1.703125 
L 7.71875 11.625 
Q 12.109375 9.234375 16.796875 8.0625 
Q 21.484375 6.890625 26.703125 6.890625 
Q 35.15625 6.890625 40.078125 11.328125 
Q 45.015625 15.765625 45.015625 23.390625 
Q 45.015625 31 40.078125 35.4375 
Q 35.15625 39.890625 26.703125 39.890625 
Q 22.75 39.890625 18.8125 39.015625 
Q 14.890625 38.140625 10.796875 36.28125 
z
" id="DejaVuSans-53"/>
      </defs>
      <g transform="translate(25.968125 295.784164)scale(0.08 -0.08)">
       <use xlink:href="#DejaVuSans-53"/>
       <use x="63.623047" xlink:href="#DejaVuSans-48"/>
       <use x="127.246094" xlink:href="#DejaVuSans-48"/>
       <use x="190.869141" xlink:href="#DejaVuSans-48"/>
      </g>
     </g>
    </g>
    <g id="ytick_3">
     <g id="line2d_3">
      <path clip-path="url(#p99df328ebd)" d="M 53.328125 246.718768 
L 990.478125 246.718768 
" style="fill:none;stroke:#dedede;stroke-linecap:square;"/>
     </g>
     <g id="text_9">
      <!-- 10000 -->
      <g transform="translate(20.878125 249.758143)scale(0.08 -0.08)">
       <use xlink:href="#DejaVuSans-49"/>
       <use x="63.623047" xlink:href="#DejaVuSans-48"/>
       <use x="127.246094" xlink:href="#DejaVuSans-48"/>
       <use x="190.869141" xlink:href="#DejaVuSans-48"/>
       <use x="254.492188" xlink:href="#DejaVuSans-48"/>
      </g>
     </g>
    </g>
    <g id="ytick_4">
     <g id="line2d_4">
      <path clip-path="url(#p99df328ebd)" d="M 53.328125 200.692748 
L 990.478125 200.692748 
" style="fill:none;stroke:#dedede;stroke-linecap:square;"/>
     </g>
     <g id="text_10">
      <!-- 15000 -->
      <g transform="translate(20.878125 203.732123)scale(0.08 -0.08)">
       <use xlink:href="#DejaVuSans-49"/>
       <use x="63.623047" xlink:href="#DejaVuSans-53"/>
       <use x="127.246094" xlink:href="#DejaVuSans-48"/>
       <use x="190.869141" xlink:href="#DejaVuSans-48"/>
       <use x="254.492188" xlink:href="#DejaVuSans-48"/>
      </g>
     </g>
    </g>
    <g id="ytick_5">
     <g id="line2d_5">
      <path clip-path="url(#p99df328ebd)" d="M 53.328125 154.666728 
L 990.478125 154.666728 
" style="fill:none;stroke:#dedede;stroke-linecap:square;"/>
     </g>
     <g id="text_11">
      <!-- 20000 -->
      <g transform="translate(20.878125 157.706103)scale(0.08 -0.08)">
       <use xlink:href="#DejaVuSans-50"/>
       <use x="63.623047" xlink:href="#DejaVuSans-48"/>
       <use x="127.246094" xlink:href="#DejaVuSans-48"/>
       <use x="190.869141" xlink:href="#DejaVuSans-48"/>
       <use x="254.492188" xlink:href="#DejaVuSans-48"/>
      </g>
     </g>
    </g>
    <g id="ytick_6">
     <g id="line2d_6">
      <path clip-path="url(#p99df328ebd)" d="M 53.328125 108.640707 
L 990.478125 108.640707 
" style="fill:none;stroke:#dedede;stroke-linecap:square;"/>
     </g>
     <g id="text_12">
      <!-- 25000 -->
      <g transform="translate(20.878125 111.680082)scale(0.08 -0.08)">
       <use xlink:href="#DejaVuSans-50"/>
       <use x="63.623047" xlink:href="#DejaVuSans-53"/>
       <use x="127.246094" xlink:href="#DejaVuSans-48"/>
       <use x="190.869141" xlink:href="#DejaVuSans-48"/>
       <use x="254.492188" xlink:href="#DejaVuSans-48"/>
      </g>
     </g>
    </g>
    <g id="ytick_7">
     <g id="line2d_7">
      <path clip-path="url(#p99df328ebd)" d="M 53.328125 62.614687 
L 990.478125 62.614687 
" style="fill:none;stroke:#dedede;stroke-linecap:square;"/>
     </g>
     <g id="text_13">
      <!-- 30000 -->
      <defs>
       <path d="M 40.578125 39.3125 
Q 47.65625 37.796875 51.625 33 
Q 55.609375 28.21875 55.609375 21.1875 
Q 55.609375 10.40625 48.1875 4.484375 
Q 40.765625 -1.421875 27.09375 -1.421875 
Q 22.515625 -1.421875 17.65625 -0.515625 
Q 12.796875 0.390625 7.625 2.203125 
L 7.625 11.71875 
Q 11.71875 9.328125 16.59375 8.109375 
Q 21.484375 6.890625 26.8125 6.890625 
Q 36.078125 6.890625 40.9375 10.546875 
Q 45.796875 14.203125 45.796875 21.1875 
Q 45.796875 27.640625 41.28125 31.265625 
Q 36.765625 34.90625 28.71875 34.90625 
L 20.21875 34.90625 
L 20.21875 43.015625 
L 29.109375 43.015625 
Q 36.375 43.015625 40.234375 45.921875 
Q 44.09375 48.828125 44.09375 54.296875 
Q 44.09375 59.90625 40.109375 62.90625 
Q 36.140625 65.921875 28.71875 65.921875 
Q 24.65625 65.921875 20.015625 65.03125 
Q 15.375 64.15625 9.8125 62.3125 
L 9.8125 71.09375 
Q 15.4375 72.65625 20.34375 73.4375 
Q 25.25 74.21875 29.59375 74.21875 
Q 40.828125 74.21875 47.359375 69.109375 
Q 53.90625 64.015625 53.90625 55.328125 
Q 53.90625 49.265625 50.4375 45.09375 
Q 46.96875 40.921875 40.578125 39.3125 
z
" id="DejaVuSans-51"/>
      </defs>
      <g transform="translate(20.878125 65.654062)scale(0.08 -0.08)">
       <use xlink:href="#DejaVuSans-51"/>
       <use x="63.623047" xlink:href="#DejaVuSans-48"/>
       <use x="127.246094" xlink:href="#DejaVuSans-48"/>
       <use x="190.869141" xlink:href="#DejaVuSans-48"/>
       <use x="254.492188" xlink:href="#DejaVuSans-48"/>
      </g>
     </g>
    </g>
    <g id="text_14">
     <!-- Counts -->
     <defs>
      <path d="M 64.40625 67.28125 
L 64.40625 56.890625 
Q 59.421875 61.53125 53.78125 63.8125 
Q 48.140625 66.109375 41.796875 66.109375 
Q 29.296875 66.109375 22.65625 58.46875 
Q 16.015625 50.828125 16.015625 36.375 
Q 16.015625 21.96875 22.65625 14.328125 
Q 29.296875 6.6875 41.796875 6.6875 
Q 48.140625 6.6875 53.78125 8.984375 
Q 59.421875 11.28125 64.40625 15.921875 
L 64.40625 5.609375 
Q 59.234375 2.09375 53.4375 0.328125 
Q 47.65625 -1.421875 41.21875 -1.421875 
Q 24.65625 -1.421875 15.125 8.703125 
Q 5.609375 18.84375 5.609375 36.375 
Q 5.609375 53.953125 15.125 64.078125 
Q 24.65625 74.21875 41.21875 74.21875 
Q 47.75 74.21875 53.53125 72.484375 
Q 59.328125 70.75 64.40625 67.28125 
z
" id="DejaVuSans-67"/>
      <path d="M 30.609375 48.390625 
Q 23.390625 48.390625 19.1875 42.75 
Q 14.984375 37.109375 14.984375 27.296875 
Q 14.984375 17.484375 19.15625 11.84375 
Q 23.34375 6.203125 30.609375 6.203125 
Q 37.796875 6.203125 41.984375 11.859375 
Q 46.1875 17.53125 46.1875 27.296875 
Q 46.1875 37.015625 41.984375 42.703125 
Q 37.796875 48.390625 30.609375 48.390625 
z
M 30.609375 56 
Q 42.328125 56 49.015625 48.375 
Q 55.71875 40.765625 55.71875 27.296875 
Q 55.71875 13.875 49.015625 6.21875 
Q 42.328125 -1.421875 30.609375 -1.421875 
Q 18.84375 -1.421875 12.171875 6.21875 
Q 5.515625 13.875 5.515625 27.296875 
Q 5.515625 40.765625 12.171875 48.375 
Q 18.84375 56 30.609375 56 
z
" id="DejaVuSans-111"/>
      <path d="M 8.5 21.578125 
L 8.5 54.6875 
L 17.484375 54.6875 
L 17.484375 21.921875 
Q 17.484375 14.15625 20.5 10.265625 
Q 23.53125 6.390625 29.59375 6.390625 
Q 36.859375 6.390625 41.078125 11.03125 
Q 45.3125 15.671875 45.3125 23.6875 
L 45.3125 54.6875 
L 54.296875 54.6875 
L 54.296875 0 
L 45.3125 0 
L 45.3125 8.40625 
Q 42.046875 3.421875 37.71875 1 
Q 33.40625 -1.421875 27.6875 -1.421875 
Q 18.265625 -1.421875 13.375 4.4375 
Q 8.5 10.296875 8.5 21.578125 
z
M 31.109375 56 
z
" id="DejaVuSans-117"/>
     </defs>
     <g transform="translate(14.798437 211.693025)rotate(-90)scale(0.1 -0.1)">
      <use xlink:href="#DejaVuSans-67"/>
      <use x="69.824219" xlink:href="#DejaVuSans-111"/>
      <use x="131.005859" xlink:href="#DejaVuSans-117"/>
      <use x="194.384766" xlink:href="#DejaVuSans-110"/>
      <use x="257.763672" xlink:href="#DejaVuSans-116"/>
      <use x="296.972656" xlink:href="#DejaVuSans-115"/>
     </g>
    </g>
   </g>
   <g id="line2d_8">
    <path clip-path="url(#p99df328ebd)" d="M 95.925852 338.770809 
L 104.531454 338.770809 
L 113.137055 338.770809 
L 121.742657 338.770809 
L 130.348258 338.770809 
L 138.95386 338.770809 
L 147.559461 338.770809 
L 156.165063 338.770809 
L 164.770664 338.770809 
L 173.376265 338.770809 
L 181.981867 338.770809 
L 190.587468 338.770809 
L 199.19307 338.770809 
L 207.798671 338.770809 
L 216.404273 338.770809 
L 225.009874 338.770809 
L 233.615476 338.770809 
L 242.221077 338.770809 
L 250.826679 338.770809 
L 259.43228 335.143959 
L 268.037882 261.833713 
L 276.643483 245.724606 
L 285.249085 248.292858 
L 293.854686 243.303638 
L 302.460288 249.839333 
L 311.065889 243.506152 
L 319.67149 248.458552 
L 328.277092 242.106961 
L 336.882693 249.084506 
L 345.488295 239.906917 
L 354.093896 242.134577 
L 362.699498 233.039835 
L 371.305099 233.95115 
L 379.910701 223.236293 
L 388.516302 218.790179 
L 397.121904 208.360683 
L 405.727505 204.107879 
L 414.333107 199.67097 
L 422.938708 187.934335 
L 431.54431 181.987773 
L 440.149911 173.629448 
L 448.755513 165.630126 
L 457.361114 147.698388 
L 465.966715 148.793808 
L 474.572317 130.475451 
L 483.177918 131.662923 
L 491.78352 112.14789 
L 500.389121 115.378917 
L 508.994723 105.115114 
L 517.600324 97.760156 
L 526.205926 92.74332 
L 534.811527 96.204477 
L 543.417129 87.947409 
L 552.02273 91.730747 
L 560.628332 91.252077 
L 569.233933 102.335143 
L 577.839535 105.35445 
L 586.445136 109.165404 
L 595.050737 116.621619 
L 603.656339 122.181563 
L 612.26194 138.576031 
L 620.867542 150.349487 
L 629.473143 162.067712 
L 638.078745 171.539867 
L 646.684346 187.48328 
L 655.289948 194.617313 
L 663.895549 200.895263 
L 672.501151 214.150756 
L 681.106752 227.737638 
L 689.712354 233.04904 
L 698.317955 245.144679 
L 706.923557 253.051949 
L 715.529158 260.250418 
L 724.13476 265.819567 
L 732.740361 271.16779 
L 741.345962 280.317763 
L 749.951564 284.66262 
L 758.557165 290.32382 
L 767.162767 297.246134 
L 775.768368 300.03531 
L 784.37397 302.787666 
L 792.979571 306.202797 
L 801.585173 309.452234 
L 810.190774 310.833015 
L 818.796376 315.030588 
L 827.401977 318.740285 
L 836.007579 318.786311 
L 844.61318 322.164621 
L 853.218782 323.545402 
L 861.824383 325.478494 
L 870.429985 325.929549 
L 879.035586 327.641717 
L 887.641187 328.746342 
L 896.246789 329.142166 
L 904.85239 330.274406 
L 913.457992 331.664392 
L 922.063593 332.143062 
L 930.669195 332.93471 
L 939.274796 333.155635 
L 947.880398 333.229276 
" style="fill:none;stroke:#7cb5ec;stroke-linecap:square;"/>
   </g>
   <g id="line2d_9">
    <path clip-path="url(#p99df328ebd)" d="M 95.925852 338.770809 
L 104.531454 338.770809 
L 113.137055 338.770809 
L 121.742657 338.770809 
L 130.348258 338.770809 
L 138.95386 338.770809 
L 147.559461 338.770809 
L 156.165063 338.770809 
L 164.770664 338.770809 
L 173.376265 338.770809 
L 181.981867 338.770809 
L 190.587468 338.770809 
L 199.19307 338.770809 
L 207.798671 338.770809 
L 216.404273 338.770809 
L 225.009874 338.770809 
L 233.615476 338.770809 
L 242.221077 338.770809 
L 250.826679 338.770809 
L 259.43228 336.966589 
L 268.037882 290.038459 
L 276.643483 279.295986 
L 285.249085 283.475148 
L 293.854686 280.483457 
L 302.460288 283.042504 
L 311.065889 278.743673 
L 319.67149 281.9747 
L 328.277092 274.582921 
L 336.882693 278.798905 
L 345.488295 271.094149 
L 354.093896 273.312603 
L 362.699498 261.861329 
L 371.305099 264.494017 
L 379.910701 254.340677 
L 388.516302 250.61257 
L 397.121904 241.692727 
L 405.727505 237.430717 
L 414.333107 231.870774 
L 422.938708 223.632117 
L 431.54431 214.960814 
L 440.149911 202.460147 
L 448.755513 198.897733 
L 457.361114 183.810404 
L 465.966715 178.931646 
L 474.572317 163.181541 
L 483.177918 160.732957 
L 491.78352 141.208719 
L 500.389121 142.543474 
L 508.994723 118.637559 
L 517.600324 117.615781 
L 526.205926 102.408784 
L 534.811527 103.421357 
L 543.417129 97.207844 
L 552.02273 97.612873 
L 560.628332 86.64027 
L 569.233933 96.094014 
L 577.839535 89.631961 
L 586.445136 96.453017 
L 595.050737 102.215475 
L 603.656339 103.734334 
L 612.26194 113.620723 
L 620.867542 123.369034 
L 629.473143 131.32233 
L 638.078745 137.729152 
L 646.684346 149.935253 
L 655.289948 156.691873 
L 663.895549 169.790878 
L 672.501151 179.695678 
L 681.106752 195.289293 
L 689.712354 201.43837 
L 698.317955 212.208458 
L 706.923557 220.38268 
L 715.529158 232.487523 
L 724.13476 239.501888 
L 732.740361 246.497844 
L 741.345962 255.215172 
L 749.951564 260.185982 
L 758.557165 266.86896 
L 767.162767 276.506809 
L 775.768368 279.185523 
L 784.37397 285.942143 
L 792.979571 288.353906 
L 801.585173 291.980757 
L 810.190774 297.144876 
L 818.796376 300.716495 
L 827.401977 305.153404 
L 836.007579 307.289011 
L 844.61318 311.035529 
L 853.218782 312.821339 
L 861.824383 315.785415 
L 870.429985 316.761166 
L 879.035586 319.439881 
L 887.641187 321.106022 
L 896.246789 321.851644 
L 904.85239 323.821558 
L 913.457992 325.036645 
L 922.063593 325.745445 
L 930.669195 326.914506 
L 939.274796 327.973105 
L 947.880398 329.491963 
" style="fill:none;stroke:#434348;stroke-linecap:square;"/>
   </g>
   <g id="line2d_10">
    <path clip-path="url(#p99df328ebd)" d="M 95.925852 338.770809 
L 104.531454 338.770809 
L 113.137055 338.770809 
L 121.742657 338.770809 
L 130.348258 338.770809 
L 138.95386 338.770809 
L 147.559461 338.770809 
L 156.165063 338.770809 
L 164.770664 338.770809 
L 173.376265 338.770809 
L 181.981867 338.770809 
L 190.587468 338.770809 
L 199.19307 338.770809 
L 207.798671 338.770809 
L 216.404273 338.770809 
L 225.009874 338.770809 
L 233.615476 338.770809 
L 242.221077 338.770809 
L 250.826679 338.770809 
L 259.43228 334.112976 
L 268.037882 250.677006 
L 276.643483 234.917697 
L 285.249085 235.423983 
L 293.854686 228.971135 
L 302.460288 232.975399 
L 311.065889 223.227088 
L 319.67149 225.408721 
L 328.277092 214.583401 
L 336.882693 214.951609 
L 345.488295 200.683543 
L 354.093896 196.624048 
L 362.699498 184.095765 
L 371.305099 173.159983 
L 379.910701 161.561426 
L 388.516302 154.473418 
L 397.121904 132.509802 
L 405.727505 124.924713 
L 414.333107 118.471865 
L 422.938708 103.807975 
L 431.54431 99.472324 
L 440.149911 81.01589 
L 448.755513 73.651727 
L 457.361114 60.046435 
L 465.966715 55.710784 
L 474.572317 49.708991 
L 483.177918 55.848862 
L 491.78352 52.175986 
L 500.389121 56.364353 
L 508.994723 57.54262 
L 517.600324 61.132649 
L 526.205926 74.691915 
L 534.811527 85.867032 
L 543.417129 96.986919 
L 552.02273 110.757904 
L 560.628332 121.113759 
L 569.233933 141.006205 
L 577.839535 154.344546 
L 586.445136 167.903811 
L 595.050737 179.217007 
L 603.656339 193.300969 
L 612.26194 207.154801 
L 620.867542 220.40109 
L 629.473143 228.547696 
L 638.078745 242.714505 
L 646.684346 250.244362 
L 655.289948 258.133221 
L 663.895549 270.302501 
L 672.501151 277.869179 
L 681.106752 283.585611 
L 689.712354 289.17317 
L 698.317955 295.52476 
L 706.923557 299.216047 
L 715.529158 304.656323 
L 724.13476 307.988607 
L 732.740361 312.121743 
L 741.345962 315.785415 
L 749.951564 316.761166 
L 758.557165 320.07504 
L 767.162767 322.330315 
L 775.768368 324.705257 
L 784.37397 325.809882 
L 792.979571 327.218278 
L 801.585173 328.23085 
L 810.190774 328.939651 
L 818.796376 331.415851 
L 827.401977 331.314594 
L 836.007579 332.373192 
L 844.61318 333.229276 
L 853.218782 333.634305 
L 861.824383 334.195823 
L 870.429985 334.895418 
L 879.035586 335.493756 
L 887.641187 335.631835 
L 896.246789 335.843554 
L 904.85239 336.625997 
L 913.457992 336.607586 
L 922.063593 336.607586 
L 930.669195 337.095462 
L 939.274796 337.224335 
L 947.880398 337.205924 
" style="fill:none;stroke:#90ed7d;stroke-linecap:square;"/>
   </g>
   <g id="line2d_11">
    <path clip-path="url(#p99df328ebd)" d="M 95.925852 338.770809 
L 104.531454 338.770809 
L 113.137055 338.770809 
L 121.742657 338.770809 
L 130.348258 338.770809 
L 138.95386 338.770809 
L 147.559461 338.770809 
L 156.165063 338.770809 
L 164.770664 338.770809 
L 173.376265 338.770809 
L 181.981867 338.770809 
L 190.587468 338.770809 
L 199.19307 338.770809 
L 207.798671 338.770809 
L 216.404273 338.770809 
L 225.009874 338.770809 
L 233.615476 338.770809 
L 242.221077 338.770809 
L 250.826679 338.770809 
L 259.43228 335.438525 
L 268.037882 271.315074 
L 276.643483 261.907355 
L 285.249085 259.928236 
L 293.854686 259.016921 
L 302.460288 258.446198 
L 311.065889 254.359088 
L 319.67149 258.639508 
L 328.277092 253.180822 
L 336.882693 253.558235 
L 345.488295 243.819129 
L 354.093896 241.462597 
L 362.699498 234.273332 
L 371.305099 226.540961 
L 379.910701 217.492245 
L 388.516302 209.778284 
L 397.121904 200.066794 
L 405.727505 186.35104 
L 414.333107 181.978568 
L 422.938708 169.146514 
L 431.54431 159.26933 
L 440.149911 144.83557 
L 448.755513 133.5684 
L 457.361114 120.800782 
L 465.966715 114.357139 
L 474.572317 95.495676 
L 483.177918 94.52913 
L 491.78352 85.425183 
L 500.389121 82.313824 
L 508.994723 73.614906 
L 517.600324 61.915092 
L 526.205926 68.911047 
L 534.811527 74.277681 
L 543.417129 77.057652 
L 552.02273 84.274532 
L 560.628332 86.106368 
L 569.233933 98.340084 
L 577.839535 105.096704 
L 586.445136 115.148787 
L 595.050737 128.781694 
L 603.656339 140.1133 
L 612.26194 155.495196 
L 620.867542 169.082077 
L 629.473143 176.980142 
L 638.078745 188.505058 
L 646.684346 199.219915 
L 655.289948 211.287938 
L 663.895549 223.733374 
L 672.501151 232.597985 
L 681.106752 243.570589 
L 689.712354 250.769058 
L 698.317955 259.118178 
L 706.923557 267.494914 
L 715.529158 274.334381 
L 724.13476 280.722792 
L 732.740361 285.914527 
L 741.345962 291.22593 
L 749.951564 295.29463 
L 758.557165 299.142406 
L 767.162767 303.62534 
L 775.768368 307.408679 
L 784.37397 310.759373 
L 792.979571 313.686628 
L 801.585173 316.098391 
L 810.190774 317.782944 
L 818.796376 320.636557 
L 827.401977 321.759592 
L 836.007579 323.867584 
L 844.61318 325.312801 
L 853.218782 326.923711 
L 861.824383 327.660128 
L 870.429985 329.427527 
L 879.035586 330.099507 
L 887.641187 330.974001 
L 896.246789 331.866906 
L 904.85239 332.308756 
L 913.457992 332.815042 
L 922.063593 333.339739 
L 930.669195 334.481184 
L 939.274796 334.711314 
L 947.880398 335.015086 
" style="fill:none;stroke:#f7a35c;stroke-linecap:square;"/>
   </g>
   <g id="line2d_12">
    <path clip-path="url(#p99df328ebd)" d="M 95.925852 338.770809 
L 104.531454 338.770809 
L 113.137055 338.770809 
L 121.742657 338.770809 
L 130.348258 338.770809 
L 138.95386 338.770809 
L 147.559461 338.770809 
L 156.165063 338.770809 
L 164.770664 338.770809 
L 173.376265 338.770809 
L 181.981867 338.770809 
L 190.587468 338.770809 
L 199.19307 338.770809 
L 207.798671 338.770809 
L 216.404273 338.770809 
L 225.009874 338.770809 
L 233.615476 338.770809 
L 242.221077 338.770809 
L 250.826679 338.770809 
L 259.43228 335.189985 
L 268.037882 254.552397 
L 276.643483 240.210689 
L 285.249085 240.772207 
L 293.854686 239.57553 
L 302.460288 250.023437 
L 311.065889 241.665111 
L 319.67149 253.503004 
L 328.277092 248.403321 
L 336.882693 253.852802 
L 345.488295 248.320474 
L 354.093896 249.369867 
L 362.699498 242.659273 
L 371.305099 244.362236 
L 379.910701 237.265024 
L 388.516302 235.976295 
L 397.121904 229.946887 
L 405.727505 226.412088 
L 414.333107 219.830367 
L 422.938708 213.800959 
L 431.54431 211.969123 
L 440.149911 199.275147 
L 448.755513 195.850811 
L 457.361114 181.177715 
L 465.966715 181.159305 
L 474.572317 162.408304 
L 483.177918 168.419303 
L 491.78352 152.95456 
L 500.389121 155.209835 
L 508.994723 141.567722 
L 517.600324 134.433689 
L 526.205926 125.403384 
L 534.811527 128.790899 
L 543.417129 116.179769 
L 552.02273 119.217487 
L 560.628332 113.583902 
L 569.233933 118.481071 
L 577.839535 114.670116 
L 586.445136 113.611518 
L 595.050737 119.788209 
L 603.656339 119.898672 
L 612.26194 131.856232 
L 620.867542 136.495655 
L 629.473143 139.956812 
L 638.078745 151.306828 
L 646.684346 159.223304 
L 655.289948 163.927163 
L 663.895549 178.425359 
L 672.501151 188.459032 
L 681.106752 195.60227 
L 689.712354 204.568139 
L 698.317955 217.363373 
L 706.923557 223.31914 
L 715.529158 234.16287 
L 724.13476 242.438349 
L 732.740361 248.320474 
L 741.345962 255.923972 
L 749.951564 260.425317 
L 758.557165 268.304972 
L 767.162767 276.175421 
L 775.768368 280.391405 
L 784.37397 286.908689 
L 792.979571 291.299572 
L 801.585173 295.800916 
L 810.190774 300.449545 
L 818.796376 303.367594 
L 827.401977 307.270601 
L 836.007579 308.890717 
L 844.61318 313.438087 
L 853.218782 314.404634 
L 861.824383 317.15699 
L 870.429985 319.992193 
L 879.035586 320.5353 
L 887.641187 322.56965 
L 896.246789 323.214014 
L 904.85239 324.732873 
L 913.457992 326.362194 
L 922.063593 327.586486 
L 930.669195 328.65429 
L 939.274796 329.261833 
L 947.880398 330.200764 
" style="fill:none;stroke:#8085e9;stroke-linecap:square;"/>
   </g>
   <g id="line2d_13">
    <path clip-path="url(#p99df328ebd)" d="M 95.925852 338.770809 
L 104.531454 338.770809 
L 113.137055 338.770809 
L 121.742657 338.770809 
L 130.348258 338.770809 
L 138.95386 338.770809 
L 147.559461 338.770809 
L 156.165063 338.770809 
L 164.770664 338.770809 
L 173.376265 338.770809 
L 181.981867 338.770809 
L 190.587468 338.770809 
L 199.19307 338.770809 
L 207.798671 338.770809 
L 216.404273 338.770809 
L 225.009874 338.770809 
L 233.615476 338.770809 
L 242.221077 338.770809 
L 250.826679 338.770809 
L 259.43228 335.723887 
L 268.037882 268.811258 
L 276.643483 257.341574 
L 285.249085 259.19182 
L 293.854686 254.975836 
L 302.460288 262.680592 
L 311.065889 259.265462 
L 319.67149 264.62289 
L 328.277092 256.071256 
L 336.882693 263.665549 
L 345.488295 253.199232 
L 354.093896 257.3876 
L 362.699498 250.262772 
L 371.305099 249.682844 
L 379.910701 243.966412 
L 388.516302 243.62582 
L 397.121904 230.76615 
L 405.727505 228.446438 
L 414.333107 222.904905 
L 422.938708 214.785915 
L 431.54431 210.422649 
L 440.149911 201.530422 
L 448.755513 196.412328 
L 457.361114 181.895721 
L 465.966715 181.251357 
L 474.572317 165.077814 
L 483.177918 165.215892 
L 491.78352 151.408085 
L 500.389121 151.573779 
L 508.994723 134.709845 
L 517.600324 128.256997 
L 526.205926 118.076042 
L 534.811527 115.719509 
L 543.417129 108.585476 
L 552.02273 110.426517 
L 560.628332 99.610402 
L 569.233933 106.090866 
L 577.839535 105.446502 
L 586.445136 107.213901 
L 595.050737 109.763742 
L 603.656339 116.474336 
L 612.26194 121.15058 
L 620.867542 127.511376 
L 629.473143 138.032924 
L 638.078745 139.929196 
L 646.684346 156.259228 
L 655.289948 160.825009 
L 663.895549 177.744174 
L 672.501151 183.423785 
L 681.106752 193.264148 
L 689.712354 204.512908 
L 698.317955 214.7583 
L 706.923557 221.192738 
L 715.529158 233.619763 
L 724.13476 239.299374 
L 732.740361 246.368971 
L 741.345962 257.240317 
L 749.951564 262.616156 
L 758.557165 266.859755 
L 767.162767 274.803846 
L 775.768368 280.041607 
L 784.37397 286.604918 
L 792.979571 291.005005 
L 801.585173 295.975815 
L 810.190774 297.991755 
L 818.796376 303.588519 
L 827.401977 306.819546 
L 836.007579 309.415413 
L 844.61318 311.219633 
L 853.218782 315.500053 
L 861.824383 317.552814 
L 870.429985 318.887568 
L 879.035586 320.903508 
L 887.641187 322.901037 
L 896.246789 323.968841 
L 904.85239 325.229954 
L 913.457992 326.785633 
L 922.063593 327.835027 
L 930.669195 328.727931 
L 939.274796 329.694478 
L 947.880398 330.348047 
" style="fill:none;stroke:#f15c80;stroke-linecap:square;"/>
   </g>
   <g id="line2d_14">
    <path clip-path="url(#p99df328ebd)" d="M 95.925852 338.770809 
L 104.531454 338.770809 
L 113.137055 338.770809 
L 121.742657 338.770809 
L 130.348258 338.770809 
L 138.95386 338.770809 
L 147.559461 338.770809 
L 156.165063 338.770809 
L 164.770664 338.770809 
L 173.376265 338.770809 
L 181.981867 338.770809 
L 190.587468 338.770809 
L 199.19307 338.770809 
L 207.798671 338.770809 
L 216.404273 338.770809 
L 225.009874 338.770809 
L 233.615476 338.770809 
L 242.221077 338.770809 
L 250.826679 338.770809 
L 259.43228 335.355678 
L 268.037882 265.552616 
L 276.643483 250.373234 
L 285.249085 253.723929 
L 293.854686 249.452714 
L 302.460288 259.596849 
L 311.065889 252.297122 
L 319.67149 263.288136 
L 328.277092 258.50143 
L 336.882693 264.153425 
L 345.488295 256.595952 
L 354.093896 261.594378 
L 362.699498 255.610996 
L 371.305099 255.58338 
L 379.910701 246.801615 
L 388.516302 246.681948 
L 397.121904 237.430717 
L 405.727505 234.531078 
L 414.333107 229.357754 
L 422.938708 222.536697 
L 431.54431 218.293098 
L 440.149911 205.194093 
L 448.755513 204.558934 
L 457.361114 191.423108 
L 465.966715 191.404697 
L 474.572317 174.347454 
L 483.177918 177.449608 
L 491.78352 158.965558 
L 500.389121 163.282799 
L 508.994723 141.586133 
L 517.600324 131.672128 
L 526.205926 124.446043 
L 534.811527 126.1398 
L 543.417129 113.970521 
L 552.02273 115.857587 
L 560.628332 107.121849 
L 569.233933 112.690997 
L 577.839535 106.560331 
L 586.445136 108.53945 
L 595.050737 105.704247 
L 603.656339 109.809768 
L 612.26194 116.474336 
L 620.867542 122.218383 
L 629.473143 137.811999 
L 638.078745 138.106566 
L 646.684346 148.361163 
L 655.289948 153.39641 
L 663.895549 167.185805 
L 672.501151 172.708928 
L 681.106752 186.838916 
L 689.712354 193.374611 
L 698.317955 205.829252 
L 706.923557 213.727317 
L 715.529158 225.473157 
L 724.13476 233.592147 
L 732.740361 240.643334 
L 741.345962 251.579116 
L 749.951564 257.277137 
L 758.557165 265.672284 
L 767.162767 272.677444 
L 775.768368 279.28678 
L 784.37397 281.983905 
L 792.979571 288.722115 
L 801.585173 293.251075 
L 810.190774 296.353229 
L 818.796376 300.826958 
L 827.401977 305.300687 
L 836.007579 307.850529 
L 844.61318 311.403737 
L 853.218782 313.77868 
L 861.824383 316.015545 
L 870.429985 318.823132 
L 879.035586 320.737814 
L 887.641187 322.100185 
L 896.246789 323.02991 
L 904.85239 324.668436 
L 913.457992 326.629145 
L 922.063593 327.181457 
L 930.669195 329.206602 
L 939.274796 328.86601 
L 947.880398 330.559767 
" style="fill:none;stroke:#e4d354;stroke-linecap:square;"/>
   </g>
   <g id="line2d_15">
    <path clip-path="url(#p99df328ebd)" d="M 95.925852 338.770809 
L 104.531454 338.770809 
L 113.137055 338.770809 
L 121.742657 338.770809 
L 130.348258 338.770809 
L 138.95386 338.770809 
L 147.559461 338.770809 
L 156.165063 338.770809 
L 164.770664 338.770809 
L 173.376265 338.770809 
L 181.981867 338.770809 
L 190.587468 338.770809 
L 199.19307 338.770809 
L 207.798671 338.770809 
L 216.404273 338.770809 
L 225.009874 338.770809 
L 233.615476 338.770809 
L 242.221077 338.770809 
L 250.826679 338.770809 
L 259.43228 335.042701 
L 268.037882 258.335736 
L 276.643483 244.923754 
L 285.249085 249.240994 
L 293.854686 248.495373 
L 302.460288 257.534883 
L 311.065889 252.4352 
L 319.67149 265.101561 
L 328.277092 258.924869 
L 336.882693 268.028816 
L 345.488295 261.695635 
L 354.093896 269.648932 
L 362.699498 261.806098 
L 371.305099 264.972688 
L 379.910701 256.632773 
L 388.516302 253.843596 
L 397.121904 249.323841 
L 405.727505 247.492006 
L 414.333107 246.764794 
L 422.938708 238.203955 
L 431.54431 235.700139 
L 440.149911 226.706655 
L 448.755513 225.252233 
L 457.361114 215.301407 
L 465.966715 212.567461 
L 474.572317 199.201505 
L 483.177918 203.610798 
L 491.78352 187.207124 
L 500.389121 192.711836 
L 508.994723 174.85374 
L 517.600324 168.704664 
L 526.205926 158.311989 
L 534.811527 162.261021 
L 543.417129 152.347016 
L 552.02273 151.288418 
L 560.628332 142.782809 
L 569.233933 143.878229 
L 577.839535 135.538314 
L 586.445136 138.686493 
L 595.050737 139.303242 
L 603.656339 138.373517 
L 612.26194 143.151017 
L 620.867542 143.298301 
L 629.473143 147.937724 
L 638.078745 153.755413 
L 646.684346 158.689402 
L 655.289948 163.181541 
L 663.895549 170.913913 
L 672.501151 175.461284 
L 681.106752 183.801199 
L 689.712354 189.121807 
L 698.317955 201.493601 
L 706.923557 200.407387 
L 715.529158 212.337331 
L 724.13476 216.286364 
L 732.740361 224.02794 
L 741.345962 230.140196 
L 749.951564 237.743694 
L 758.557165 240.983926 
L 767.162767 249.28702 
L 775.768368 254.174984 
L 784.37397 259.467976 
L 792.979571 266.233801 
L 801.585173 270.541837 
L 810.190774 274.104251 
L 818.796376 280.520278 
L 827.401977 283.732894 
L 836.007579 285.178111 
L 844.61318 289.541378 
L 853.218782 293.398358 
L 861.824383 296.951567 
L 870.429985 300.652059 
L 879.035586 302.640383 
L 887.641187 305.558433 
L 896.246789 306.193592 
L 904.85239 309.130052 
L 913.457992 311.716714 
L 922.063593 313.428882 
L 930.669195 315.380386 
L 939.274796 315.279128 
L 947.880398 318.832337 
" style="fill:none;stroke:#2b908f;stroke-linecap:square;"/>
   </g>
   <g id="line2d_16">
    <path clip-path="url(#p99df328ebd)" d="M 95.925852 338.770809 
L 104.531454 338.770809 
L 113.137055 338.770809 
L 121.742657 338.770809 
L 130.348258 338.770809 
L 138.95386 338.770809 
L 147.559461 338.770809 
L 156.165063 338.770809 
L 164.770664 338.770809 
L 173.376265 338.770809 
L 181.981867 338.770809 
L 190.587468 338.770809 
L 199.19307 338.770809 
L 207.798671 338.770809 
L 216.404273 338.770809 
L 225.009874 338.770809 
L 233.615476 338.770809 
L 242.221077 338.770809 
L 250.826679 338.770809 
L 259.43228 336.000043 
L 268.037882 272.594597 
L 276.643483 259.845389 
L 285.249085 260.775115 
L 293.854686 255.012657 
L 302.460288 262.027023 
L 311.065889 255.951588 
L 319.67149 263.748396 
L 328.277092 257.056213 
L 336.882693 262.754234 
L 345.488295 253.944854 
L 354.093896 257.442831 
L 362.699498 249.093711 
L 371.305099 247.90624 
L 379.910701 241.738753 
L 388.516302 241.978088 
L 397.121904 229.689141 
L 405.727505 226.384473 
L 414.333107 220.557578 
L 422.938708 210.146493 
L 431.54431 208.866969 
L 440.149911 196.311071 
L 448.755513 192.030651 
L 457.361114 178.738336 
L 465.966715 175.396847 
L 474.572317 158.284373 
L 483.177918 156.949618 
L 491.78352 146.115093 
L 500.389121 144.402925 
L 508.994723 127.566607 
L 517.600324 120.01834 
L 526.205926 112.249147 
L 534.811527 112.184711 
L 543.417129 109.791358 
L 552.02273 109.837384 
L 560.628332 100.429665 
L 569.233933 101.294955 
L 577.839535 97.778567 
L 586.445136 107.416415 
L 595.050737 106.459074 
L 603.656339 107.959522 
L 612.26194 120.809987 
L 620.867542 128.036072 
L 629.473143 139.487346 
L 638.078745 146.777868 
L 646.684346 158.763044 
L 655.289948 166.219259 
L 663.895549 177.210272 
L 672.501151 184.473178 
L 681.106752 198.888528 
L 689.712354 208.46194 
L 698.317955 218.827 
L 706.923557 224.037146 
L 715.529158 234.393 
L 724.13476 242.769736 
L 732.740361 249.866948 
L 741.345962 260.729089 
L 749.951564 265.340896 
L 758.557165 272.585392 
L 767.162767 278.531954 
L 775.768368 283.475148 
L 784.37397 287.700337 
L 792.979571 292.155656 
L 801.585173 298.102218 
L 810.190774 299.271278 
L 818.796376 304.444603 
L 827.401977 308.080659 
L 836.007579 311.431353 
L 844.61318 313.815501 
L 853.218782 316.586267 
L 861.824383 318.611412 
L 870.429985 321.059996 
L 879.035586 323.149578 
L 887.641187 323.738711 
L 896.246789 324.134535 
L 904.85239 326.104448 
L 913.457992 327.779795 
L 922.063593 328.19403 
L 930.669195 329.99825 
L 939.274796 330.357253 
L 947.880398 331.112079 
" style="fill:none;stroke:#f45b5b;stroke-linecap:square;"/>
   </g>
   <g id="line2d_17">
    <path clip-path="url(#p99df328ebd)" d="M 95.925852 338.770809 
L 104.531454 338.770809 
L 113.137055 338.770809 
L 121.742657 338.770809 
L 130.348258 338.770809 
L 138.95386 338.770809 
L 147.559461 338.770809 
L 156.165063 338.770809 
L 164.770664 338.770809 
L 173.376265 338.770809 
L 181.981867 338.770809 
L 190.587468 338.770809 
L 199.19307 338.770809 
L 207.798671 338.770809 
L 216.404273 338.770809 
L 225.009874 338.770809 
L 233.615476 338.770809 
L 242.221077 338.770809 
L 250.826679 338.770809 
L 259.43228 335.604219 
L 268.037882 276.175421 
L 276.643483 263.389393 
L 285.249085 267.393657 
L 293.854686 262.045433 
L 302.460288 267.412067 
L 311.065889 263.49065 
L 319.67149 271.269048 
L 328.277092 260.360881 
L 336.882693 268.240536 
L 345.488295 257.120649 
L 354.093896 261.925766 
L 362.699498 253.272874 
L 371.305099 253.12559 
L 379.910701 245.991557 
L 388.516302 242.659273 
L 397.121904 232.008852 
L 405.727505 228.602927 
L 414.333107 218.486408 
L 422.938708 212.005944 
L 431.54431 206.528847 
L 440.149911 192.721041 
L 448.755513 188.992934 
L 457.361114 173.666269 
L 465.966715 172.773364 
L 474.572317 157.566367 
L 483.177918 153.85667 
L 491.78352 138.760135 
L 500.389121 141.282361 
L 508.994723 120.230059 
L 517.600324 113.28013 
L 526.205926 105.842325 
L 534.811527 104.47075 
L 543.417129 93.682251 
L 552.02273 99.591992 
L 560.628332 91.417771 
L 569.233933 99.315836 
L 577.839535 95.210315 
L 586.445136 102.01296 
L 595.050737 104.369493 
L 603.656339 108.567066 
L 612.26194 120.506215 
L 620.867542 129.877113 
L 629.473143 141.871494 
L 638.078745 144.669876 
L 646.684346 156.572205 
L 655.289948 164.276961 
L 663.895549 180.432094 
L 672.501151 190.594639 
L 681.106752 199.707791 
L 689.712354 208.250221 
L 698.317955 217.648734 
L 706.923557 226.899964 
L 715.529158 237.992235 
L 724.13476 244.868522 
L 732.740361 255.12312 
L 741.345962 261.115708 
L 749.951564 266.252211 
L 758.557165 271.407126 
L 767.162767 279.342012 
L 775.768368 284.588978 
L 784.37397 289.568993 
L 792.979571 296.132304 
L 801.585173 298.783403 
L 810.190774 303.036207 
L 818.796376 304.683938 
L 827.401977 308.964358 
L 836.007579 311.486584 
L 844.61318 315.251513 
L 853.218782 316.669114 
L 861.824383 318.399692 
L 870.429985 320.590531 
L 879.035586 322.55124 
L 887.641187 323.554607 
L 896.246789 325.147107 
L 904.85239 326.42663 
L 913.457992 327.549665 
L 922.063593 328.507007 
L 930.669195 329.547195 
L 939.274796 330.274406 
L 947.880398 331.121285 
" style="fill:none;stroke:#91e8e1;stroke-linecap:square;"/>
   </g>
   <g id="line2d_18">
    <path clip-path="url(#p99df328ebd)" d="M 95.925852 338.770809 
L 104.531454 338.770809 
L 113.137055 338.770809 
L 121.742657 338.770809 
L 130.348258 338.770809 
L 138.95386 338.770809 
L 147.559461 338.770809 
L 156.165063 338.770809 
L 164.770664 338.770809 
L 173.376265 338.770809 
L 181.981867 338.770809 
L 190.587468 338.770809 
L 199.19307 338.770809 
L 207.798671 338.770809 
L 216.404273 338.770809 
L 225.009874 338.770809 
L 233.615476 338.770809 
L 242.221077 338.770809 
L 250.826679 338.770809 
L 259.43228 335.502962 
L 268.037882 272.843138 
L 276.643483 260.185982 
L 285.249085 265.386922 
L 293.854686 259.826979 
L 302.460288 268.056431 
L 311.065889 263.297341 
L 319.67149 272.134337 
L 328.277092 263.785217 
L 336.882693 272.217184 
L 345.488295 263.435419 
L 354.093896 268.627154 
L 362.699498 259.615259 
L 371.305099 259.845389 
L 379.910701 252.591689 
L 388.516302 250.060257 
L 397.121904 242.769736 
L 405.727505 237.191382 
L 414.333107 232.091699 
L 422.938708 222.361798 
L 431.54431 219.738315 
L 440.149911 207.127186 
L 448.755513 203.205769 
L 457.361114 187.418844 
L 465.966715 186.35104 
L 474.572317 166.523031 
L 483.177918 168.07871 
L 491.78352 152.374632 
L 500.389121 155.835789 
L 508.994723 131.607692 
L 517.600324 129.030234 
L 526.205926 118.177299 
L 534.811527 115.885203 
L 543.417129 103.228047 
L 552.02273 106.459074 
L 560.628332 96.996124 
L 569.233933 100.825489 
L 577.839535 97.299896 
L 586.445136 101.230518 
L 595.050737 101.53429 
L 603.656339 104.369493 
L 612.26194 119.686952 
L 620.867542 116.667645 
L 629.473143 127.741506 
L 638.078745 137.535843 
L 646.684346 147.532695 
L 655.289948 154.75878 
L 663.895549 166.661109 
L 672.501151 177.394377 
L 681.106752 189.72935 
L 689.712354 194.368773 
L 698.317955 208.747302 
L 706.923557 215.393459 
L 715.529158 228.888288 
L 724.13476 236.206425 
L 732.740361 245.227525 
L 741.345962 256.641978 
L 749.951564 259.891415 
L 758.557165 265.267255 
L 767.162767 274.5461 
L 775.768368 281.008154 
L 784.37397 286.577302 
L 792.979571 289.17317 
L 801.585173 293.987491 
L 810.190774 298.700556 
L 818.796376 302.28138 
L 827.401977 305.908231 
L 836.007579 308.218737 
L 844.61318 311.74433 
L 853.218782 314.073247 
L 861.824383 317.304273 
L 870.429985 317.525198 
L 879.035586 319.347829 
L 887.641187 322.035748 
L 896.246789 323.324477 
L 904.85239 324.806515 
L 913.457992 325.27598 
L 922.063593 327.273509 
L 930.669195 328.083567 
L 939.274796 329.022498 
L 947.880398 329.896992 
" style="fill:none;stroke:#7cb5ec;stroke-linecap:square;"/>
   </g>
   <g id="line2d_19">
    <path clip-path="url(#p99df328ebd)" d="M 95.925852 338.770809 
L 104.531454 338.770809 
L 113.137055 338.770809 
L 121.742657 338.770809 
L 130.348258 338.770809 
L 138.95386 338.770809 
L 147.559461 338.770809 
L 156.165063 338.770809 
L 164.770664 338.770809 
L 173.376265 338.770809 
L 181.981867 338.770809 
L 190.587468 338.770809 
L 199.19307 338.770809 
L 207.798671 338.770809 
L 216.404273 338.770809 
L 225.009874 338.770809 
L 233.615476 338.770809 
L 242.221077 338.770809 
L 250.826679 338.770809 
L 259.43228 335.723887 
L 268.037882 269.197877 
L 276.643483 258.087195 
L 285.249085 260.655447 
L 293.854686 254.985042 
L 302.460288 261.815303 
L 311.065889 260.360881 
L 319.67149 266.390289 
L 328.277092 258.602687 
L 336.882693 265.442153 
L 345.488295 255.60179 
L 354.093896 261.01445 
L 362.699498 251.680373 
L 371.305099 251.846067 
L 379.910701 242.309476 
L 388.516302 241.122004 
L 397.121904 229.818014 
L 405.727505 227.63638 
L 414.333107 221.699024 
L 422.938708 213.276262 
L 431.54431 209.299614 
L 440.149911 197.065898 
L 448.755513 194.902675 
L 457.361114 179.907397 
L 465.966715 174.862945 
L 474.572317 158.532913 
L 483.177918 162.150559 
L 491.78352 144.651466 
L 500.389121 143.95187 
L 508.994723 125.486231 
L 517.600324 119.82503 
L 526.205926 109.331098 
L 534.811527 112.930332 
L 543.417129 100.512512 
L 552.02273 106.48669 
L 560.628332 94.464693 
L 569.233933 97.484 
L 577.839535 98.662266 
L 586.445136 102.942686 
L 595.050737 107.63734 
L 603.656339 111.567962 
L 612.26194 120.432574 
L 620.867542 127.382503 
L 629.473143 138.5208 
L 638.078745 142.469832 
L 646.684346 157.732061 
L 655.289948 161.653478 
L 663.895549 177.247093 
L 672.501151 182.28234 
L 681.106752 196.808152 
L 689.712354 206.031766 
L 698.317955 216.709803 
L 706.923557 225.012897 
L 715.529158 236.059142 
L 724.13476 244.592366 
L 732.740361 250.778263 
L 741.345962 260.139956 
L 749.951564 268.378614 
L 758.557165 273.791274 
L 767.162767 282.296882 
L 775.768368 284.91116 
L 784.37397 292.542274 
L 792.979571 295.055295 
L 801.585173 298.976712 
L 810.190774 301.618605 
L 818.796376 307.086497 
L 827.401977 309.277335 
L 836.007579 311.97446 
L 844.61318 315.454027 
L 853.218782 317.663276 
L 861.824383 319.918551 
L 870.429985 321.354563 
L 879.035586 323.066731 
L 887.641187 323.968841 
L 896.246789 326.352989 
L 904.85239 326.463451 
L 913.457992 328.184824 
L 922.063593 328.746342 
L 930.669195 329.749709 
L 939.274796 329.952224 
L 947.880398 331.056848 
" style="fill:none;stroke:#434348;stroke-linecap:square;"/>
   </g>
   <g id="line2d_20">
    <path clip-path="url(#p99df328ebd)" d="M 95.925852 338.770809 
L 104.531454 338.770809 
L 113.137055 338.770809 
L 121.742657 338.770809 
L 130.348258 338.770809 
L 138.95386 338.770809 
L 147.559461 338.770809 
L 156.165063 338.770809 
L 164.770664 338.770809 
L 173.376265 338.770809 
L 181.981867 338.770809 
L 190.587468 338.770809 
L 199.19307 338.770809 
L 207.798671 338.770809 
L 216.404273 338.770809 
L 225.009874 338.770809 
L 233.615476 338.770809 
L 242.221077 338.770809 
L 250.826679 338.770809 
L 259.43228 334.849392 
L 268.037882 250.557338 
L 276.643483 234.752003 
L 285.249085 240.606513 
L 293.854686 238.406469 
L 302.460288 244.813291 
L 311.065889 241.619085 
L 319.67149 247.832598 
L 328.277092 246.856846 
L 336.882693 255.758279 
L 345.488295 249.912974 
L 354.093896 251.53309 
L 362.699498 243.322048 
L 371.305099 244.463493 
L 379.910701 239.906917 
L 388.516302 238.553752 
L 397.121904 234.503463 
L 405.727505 226.384473 
L 414.333107 219.857983 
L 422.938708 213.754933 
L 431.54431 208.406709 
L 440.149911 195.510218 
L 448.755513 193.834871 
L 457.361114 176.878885 
L 465.966715 173.638653 
L 474.572317 162.527972 
L 483.177918 161.506194 
L 491.78352 149.870816 
L 500.389121 145.056495 
L 508.994723 129.950755 
L 517.600324 123.792473 
L 526.205926 117.302804 
L 534.811527 115.010709 
L 543.417129 101.423827 
L 552.02273 104.387903 
L 560.628332 100.079868 
L 569.233933 102.91507 
L 577.839535 102.694146 
L 586.445136 105.271603 
L 595.050737 113.326156 
L 603.656339 109.21143 
L 612.26194 125.918875 
L 620.867542 127.686275 
L 629.473143 138.143386 
L 638.078745 149.438172 
L 646.684346 161.469374 
L 655.289948 169.385849 
L 663.895549 182.484854 
L 672.501151 189.490015 
L 681.106752 203.72126 
L 689.712354 212.834412 
L 698.317955 227.369429 
L 706.923557 233.01222 
L 715.529158 240.680155 
L 724.13476 249.489535 
L 732.740361 257.967528 
L 741.345962 264.85302 
L 749.951564 273.128499 
L 758.557165 276.396346 
L 767.162767 284.266796 
L 775.768368 289.679456 
L 784.37397 294.107159 
L 792.979571 296.988388 
L 801.585173 302.548331 
L 810.190774 306.359286 
L 818.796376 308.881511 
L 827.401977 311.873203 
L 836.007579 314.275761 
L 844.61318 317.239837 
L 853.218782 318.666643 
L 861.824383 321.142843 
L 870.429985 323.545402 
L 879.035586 324.364665 
L 887.641187 324.990619 
L 896.246789 325.377237 
L 904.85239 328.111183 
L 913.457992 328.691111 
L 922.063593 329.123755 
L 930.669195 330.67023 
L 939.274796 331.176516 
L 947.880398 332.49286 
" style="fill:none;stroke:#90ed7d;stroke-linecap:square;"/>
   </g>
   <g id="line2d_21">
    <path clip-path="url(#p99df328ebd)" d="M 95.925852 338.770809 
L 104.531454 338.770809 
L 113.137055 338.770809 
L 121.742657 338.770809 
L 130.348258 338.770809 
L 138.95386 338.770809 
L 147.559461 338.770809 
L 156.165063 338.770809 
L 164.770664 338.770809 
L 173.376265 338.770809 
L 181.981867 338.770809 
L 190.587468 338.770809 
L 199.19307 338.770809 
L 207.798671 338.770809 
L 216.404273 338.770809 
L 225.009874 338.770809 
L 233.615476 338.770809 
L 242.221077 338.770809 
L 250.826679 338.770809 
L 259.43228 335.383294 
L 268.037882 275.162849 
L 276.643483 262.119075 
L 285.249085 265.791951 
L 293.854686 259.366719 
L 302.460288 264.908252 
L 311.065889 257.304753 
L 319.67149 264.678122 
L 328.277092 256.48549 
L 336.882693 261.971792 
L 345.488295 253.815981 
L 354.093896 255.767484 
L 362.699498 246.212482 
L 371.305099 245.623349 
L 379.910701 238.415674 
L 388.516302 232.754474 
L 397.121904 227.700817 
L 405.727505 222.555108 
L 414.333107 211.674557 
L 422.938708 202.773124 
L 431.54431 197.360464 
L 440.149911 187.612153 
L 448.755513 181.1501 
L 457.361114 162.813333 
L 465.966715 160.576469 
L 474.572317 144.007101 
L 483.177918 146.308402 
L 491.78352 134.157533 
L 500.389121 124.666968 
L 508.994723 116.44672 
L 517.600324 105.750273 
L 526.205926 97.732541 
L 534.811527 103.310894 
L 543.417129 90.03699 
L 552.02273 95.366803 
L 560.628332 92.430343 
L 569.233933 97.281486 
L 577.839535 97.879824 
L 586.445136 102.022166 
L 595.050737 109.459971 
L 603.656339 115.655073 
L 612.26194 125.173254 
L 620.867542 135.455467 
L 629.473143 145.130136 
L 638.078745 151.076698 
L 646.684346 164.91212 
L 655.289948 172.451182 
L 663.895549 185.715881 
L 672.501151 198.262574 
L 681.106752 209.152331 
L 689.712354 217.437014 
L 698.317955 228.566106 
L 706.923557 236.933636 
L 715.529158 245.420835 
L 724.13476 253.751544 
L 732.740361 259.817774 
L 741.345962 269.243903 
L 749.951564 273.100883 
L 758.557165 278.218977 
L 767.162767 287.184845 
L 775.768368 290.710439 
L 784.37397 295.994226 
L 792.979571 299.36333 
L 801.585173 302.833692 
L 810.190774 305.346713 
L 818.796376 309.912494 
L 827.401977 311.937639 
L 836.007579 314.43225 
L 844.61318 316.834808 
L 853.218782 319.301802 
L 861.824383 321.814823 
L 870.429985 323.149578 
L 879.035586 324.364665 
L 887.641187 325.349622 
L 896.246789 327.024969 
L 904.85239 327.604897 
L 913.457992 328.829189 
L 922.063593 330.044276 
L 930.669195 330.799102 
L 939.274796 331.885316 
L 947.880398 332.235114 
" style="fill:none;stroke:#f7a35c;stroke-linecap:square;"/>
   </g>
   <g id="line2d_22">
    <path clip-path="url(#p99df328ebd)" d="M 95.925852 338.770809 
L 104.531454 338.770809 
L 113.137055 338.770809 
L 121.742657 338.770809 
L 130.348258 338.770809 
L 138.95386 338.770809 
L 147.559461 338.770809 
L 156.165063 338.770809 
L 164.770664 338.770809 
L 173.376265 338.770809 
L 181.981867 338.770809 
L 190.587468 338.770809 
L 199.19307 338.770809 
L 207.798671 338.770809 
L 216.404273 338.770809 
L 225.009874 338.770809 
L 233.615476 338.770809 
L 242.221077 338.770809 
L 250.826679 338.770809 
L 259.43228 335.954017 
L 268.037882 279.406448 
L 276.643483 265.976055 
L 285.249085 268.369408 
L 293.854686 264.788584 
L 302.460288 268.875695 
L 311.065889 265.331691 
L 319.67149 273.367834 
L 328.277092 267.421272 
L 336.882693 272.171158 
L 345.488295 265.009509 
L 354.093896 267.08068 
L 362.699498 261.990202 
L 371.305099 259.026126 
L 379.910701 253.825186 
L 388.516302 250.465286 
L 397.121904 243.920386 
L 405.727505 239.796455 
L 414.333107 237.172972 
L 422.938708 225.924212 
L 431.54431 226.283215 
L 440.149911 214.7583 
L 448.755513 206.40918 
L 457.361114 196.430739 
L 465.966715 196.467559 
L 474.572317 183.16604 
L 483.177918 181.352614 
L 491.78352 166.587467 
L 500.389121 165.077814 
L 508.994723 149.567045 
L 517.600324 138.576031 
L 526.205926 128.045278 
L 534.811527 130.88048 
L 543.417129 120.211649 
L 552.02273 118.490276 
L 560.628332 111.107702 
L 569.233933 110.592211 
L 577.839535 105.897557 
L 586.445136 105.280808 
L 595.050737 105.658221 
L 603.656339 110.969624 
L 612.26194 114.145419 
L 620.867542 119.779004 
L 629.473143 128.965798 
L 638.078745 130.19009 
L 646.684346 137.922462 
L 655.289948 146.814689 
L 663.895549 159.600717 
L 672.501151 166.2929 
L 681.106752 173.758321 
L 689.712354 187.409639 
L 698.317955 196.191403 
L 706.923557 202.727098 
L 715.529158 215.807693 
L 724.13476 225.933418 
L 732.740361 233.444864 
L 741.345962 241.987294 
L 749.951564 250.18913 
L 758.557165 256.890519 
L 767.162767 262.938338 
L 775.768368 271.692487 
L 784.37397 276.746144 
L 792.979571 283.401507 
L 801.585173 287.958083 
L 810.190774 291.925526 
L 818.796376 293.665309 
L 827.401977 300.9006 
L 836.007579 305.300687 
L 844.61318 307.381063 
L 853.218782 310.115009 
L 861.824383 313.824706 
L 870.429985 316.052365 
L 879.035586 317.921022 
L 887.641187 320.139476 
L 896.246789 320.74702 
L 904.85239 322.81819 
L 913.457992 324.051688 
L 922.063593 325.193133 
L 930.669195 326.555503 
L 939.274796 328.157209 
L 947.880398 329.261833 
" style="fill:none;stroke:#8085e9;stroke-linecap:square;"/>
   </g>
   <g id="line2d_23">
    <path clip-path="url(#p99df328ebd)" d="M 95.925852 338.770809 
L 104.531454 338.770809 
L 113.137055 338.770809 
L 121.742657 338.770809 
L 130.348258 338.770809 
L 138.95386 338.770809 
L 147.559461 338.770809 
L 156.165063 338.770809 
L 164.770664 338.770809 
L 173.376265 338.770809 
L 181.981867 338.770809 
L 190.587468 338.770809 
L 199.19307 338.770809 
L 207.798671 338.770809 
L 216.404273 338.770809 
L 225.009874 338.770809 
L 233.615476 338.770809 
L 242.221077 338.770809 
L 250.826679 338.770809 
L 259.43228 335.539782 
L 268.037882 273.910941 
L 276.643483 262.082254 
L 285.249085 266.500752 
L 293.854686 261.106502 
L 302.460288 271.305868 
L 311.065889 264.751763 
L 319.67149 272.161952 
L 328.277092 266.123339 
L 336.882693 275.21808 
L 345.488295 267.927559 
L 354.093896 272.05149 
L 362.699498 263.499855 
L 371.305099 265.488179 
L 379.910701 258.243684 
L 388.516302 254.147368 
L 397.121904 252.637715 
L 405.727505 244.794881 
L 414.333107 243.276022 
L 422.938708 235.819807 
L 431.54431 232.156136 
L 440.149911 222.582723 
L 448.755513 220.410295 
L 457.361114 210.634368 
L 465.966715 208.738096 
L 474.572317 194.230695 
L 483.177918 195.906042 
L 491.78352 177.75338 
L 500.389121 179.962628 
L 508.994723 161.09196 
L 517.600324 151.82232 
L 526.205926 145.31424 
L 534.811527 144.016307 
L 543.417129 135.216132 
L 552.02273 133.58681 
L 560.628332 120.717935 
L 569.233933 121.896201 
L 577.839535 115.995665 
L 586.445136 115.664278 
L 595.050737 116.041691 
L 603.656339 114.743758 
L 612.26194 119.466027 
L 620.867542 122.227589 
L 629.473143 128.809309 
L 638.078745 131.101405 
L 646.684346 138.456363 
L 655.289948 139.321653 
L 663.895549 152.862508 
L 672.501151 155.973867 
L 681.106752 172.708928 
L 689.712354 174.881356 
L 698.317955 188.219697 
L 706.923557 192.371244 
L 715.529158 207.154801 
L 724.13476 215.586768 
L 732.740361 222.463056 
L 741.345962 231.401309 
L 749.951564 237.55959 
L 758.557165 242.30027 
L 767.162767 252.904666 
L 775.768368 259.412745 
L 784.37397 267.614582 
L 792.979571 273.128499 
L 801.585173 278.697647 
L 810.190774 283.530379 
L 818.796376 286.73379 
L 827.401977 293.904644 
L 836.007579 297.09885 
L 844.61318 302.189328 
L 853.218782 305.852999 
L 861.824383 307.776887 
L 870.429985 310.888246 
L 879.035586 312.637235 
L 887.641187 314.763637 
L 896.246789 317.36871 
L 904.85239 319.623985 
L 913.457992 320.958739 
L 922.063593 322.256673 
L 930.669195 323.968841 
L 939.274796 324.797309 
L 947.880398 326.380604 
" style="fill:none;stroke:#f15c80;stroke-linecap:square;"/>
   </g>
   <g id="line2d_24">
    <path clip-path="url(#p99df328ebd)" d="M 95.925852 338.770809 
L 104.531454 338.770809 
L 113.137055 338.770809 
L 121.742657 338.770809 
L 130.348258 338.770809 
L 138.95386 338.770809 
L 147.559461 338.770809 
L 156.165063 338.770809 
L 164.770664 338.770809 
L 173.376265 338.770809 
L 181.981867 338.770809 
L 190.587468 338.770809 
L 199.19307 338.770809 
L 207.798671 338.770809 
L 216.404273 338.770809 
L 225.009874 338.770809 
L 233.615476 338.770809 
L 242.221077 338.770809 
L 250.826679 338.770809 
L 259.43228 335.346473 
L 268.037882 263.463035 
L 276.643483 247.510416 
L 285.249085 252.738972 
L 293.854686 247.013335 
L 302.460288 253.696313 
L 311.065889 248.559809 
L 319.67149 257.139059 
L 328.277092 250.934752 
L 336.882693 260.637037 
L 345.488295 252.886255 
L 354.093896 255.942383 
L 362.699498 246.221687 
L 371.305099 248.394116 
L 379.910701 237.762105 
L 388.516302 236.077552 
L 397.121904 230.867407 
L 405.727505 226.283215 
L 414.333107 218.449587 
L 422.938708 210.155698 
L 431.54431 205.442633 
L 440.149911 195.547039 
L 448.755513 190.180405 
L 457.361114 173.822757 
L 465.966715 175.120691 
L 474.572317 155.311092 
L 483.177918 157.511136 
L 491.78352 139.984427 
L 500.389121 138.649673 
L 508.994723 120.24847 
L 517.600324 112.083454 
L 526.205926 109.920231 
L 534.811527 111.521936 
L 543.417129 104.627238 
L 552.02273 103.706718 
L 560.628332 94.584361 
L 569.233933 99.840532 
L 577.839535 95.688985 
L 586.445136 104.065721 
L 595.050737 105.906762 
L 603.656339 111.301011 
L 612.26194 124.574916 
L 620.867542 132.868804 
L 629.473143 137.526638 
L 638.078745 147.320975 
L 646.684346 160.199055 
L 655.289948 169.717236 
L 663.895549 184.06815 
L 672.501151 189.830607 
L 681.106752 204.107879 
L 689.712354 212.714745 
L 698.317955 222.628749 
L 706.923557 231.990442 
L 715.529158 241.858421 
L 724.13476 250.511312 
L 732.740361 260.121546 
L 741.345962 265.368512 
L 749.951564 273.910941 
L 758.557165 278.007257 
L 767.162767 283.999845 
L 775.768368 289.486147 
L 784.37397 292.910482 
L 792.979571 298.332348 
L 801.585173 302.189328 
L 810.190774 304.398577 
L 818.796376 306.966829 
L 827.401977 311.597047 
L 836.007579 313.833911 
L 844.61318 315.831441 
L 853.218782 319.495112 
L 861.824383 320.599736 
L 870.429985 323.24163 
L 879.035586 323.665069 
L 887.641187 325.754651 
L 896.246789 325.653393 
L 904.85239 327.439203 
L 913.457992 327.660128 
L 922.063593 329.178986 
L 930.669195 330.633409 
L 939.274796 330.495331 
L 947.880398 331.811675 
" style="fill:none;stroke:#e4d354;stroke-linecap:square;"/>
   </g>
   <g id="line2d_25">
    <path clip-path="url(#p99df328ebd)" d="M 95.925852 338.770809 
L 104.531454 338.770809 
L 113.137055 338.770809 
L 121.742657 338.770809 
L 130.348258 338.770809 
L 138.95386 338.770809 
L 147.559461 338.770809 
L 156.165063 338.770809 
L 164.770664 338.770809 
L 173.376265 338.770809 
L 181.981867 338.770809 
L 190.587468 338.770809 
L 199.19307 338.770809 
L 207.798671 338.770809 
L 216.404273 338.770809 
L 225.009874 338.770809 
L 233.615476 338.770809 
L 242.221077 338.770809 
L 250.826679 338.770809 
L 259.43228 334.702109 
L 268.037882 265.930029 
L 276.643483 252.425995 
L 285.249085 255.37166 
L 293.854686 247.538032 
L 302.460288 258.427788 
L 311.065889 248.57822 
L 319.67149 256.991776 
L 328.277092 250.41926 
L 336.882693 254.082932 
L 345.488295 243.635025 
L 354.093896 247.593263 
L 362.699498 235.727755 
L 371.305099 234.687567 
L 379.910701 226.200369 
L 388.516302 221.827897 
L 397.121904 212.162432 
L 405.727505 205.921304 
L 414.333107 194.055796 
L 422.938708 184.381126 
L 431.54431 180.855533 
L 440.149911 163.660212 
L 448.755513 157.078491 
L 457.361114 141.043026 
L 465.966715 140.720844 
L 474.572317 121.813354 
L 483.177918 121.500377 
L 491.78352 102.132628 
L 500.389121 108.898453 
L 508.994723 92.439548 
L 517.600324 86.023521 
L 526.205926 78.548895 
L 534.811527 86.143189 
L 543.417129 80.868607 
L 552.02273 86.695501 
L 560.628332 86.170804 
L 569.233933 94.363436 
L 577.839535 97.088176 
L 586.445136 103.476588 
L 595.050737 112.184711 
L 603.656339 122.28282 
L 612.26194 134.516536 
L 620.867542 147.11846 
L 629.473143 160.530443 
L 638.078745 171.677945 
L 646.684346 185.485751 
L 655.289948 192.840709 
L 663.895549 210.468675 
L 672.501151 218.081379 
L 681.106752 231.907595 
L 689.712354 239.428247 
L 698.317955 250.327208 
L 706.923557 255.767484 
L 715.529158 265.782746 
L 724.13476 270.468195 
L 732.740361 277.832358 
L 741.345962 284.616594 
L 749.951564 289.20999 
L 758.557165 293.95067 
L 767.162767 299.630281 
L 775.768368 302.962565 
L 784.37397 307.528346 
L 792.979571 308.172711 
L 801.585173 312.692466 
L 810.190774 313.999605 
L 818.796376 316.761166 
L 827.401977 319.771268 
L 836.007579 322.578855 
L 844.61318 324.217381 
L 853.218782 325.588957 
L 861.824383 326.601529 
L 870.429985 327.844232 
L 879.035586 328.387339 
L 887.641187 329.151371 
L 896.246789 330.45851 
L 904.85239 331.240952 
L 913.457992 331.931342 
L 922.063593 332.538886 
L 930.669195 333.404175 
L 939.274796 333.85523 
L 947.880398 334.112976 
" style="fill:none;stroke:#2b908f;stroke-linecap:square;"/>
   </g>
   <g id="line2d_26">
    <path clip-path="url(#p99df328ebd)" d="M 53.328125 338.770809 
L 990.478125 338.770809 
" style="fill:none;stroke:#dedede;stroke-linecap:square;stroke-width:2;"/>
   </g>
   <g id="text_15">
    <!-- RSeQC: Inner Distance -->
    <defs>
     <path d="M 44.390625 34.1875 
Q 47.5625 33.109375 50.5625 29.59375 
Q 53.5625 26.078125 56.59375 19.921875 
L 66.609375 0 
L 56 0 
L 46.6875 18.703125 
Q 43.0625 26.03125 39.671875 28.421875 
Q 36.28125 30.8125 30.421875 30.8125 
L 19.671875 30.8125 
L 19.671875 0 
L 9.8125 0 
L 9.8125 72.90625 
L 32.078125 72.90625 
Q 44.578125 72.90625 50.734375 67.671875 
Q 56.890625 62.453125 56.890625 51.90625 
Q 56.890625 45.015625 53.6875 40.46875 
Q 50.484375 35.9375 44.390625 34.1875 
z
M 19.671875 64.796875 
L 19.671875 38.921875 
L 32.078125 38.921875 
Q 39.203125 38.921875 42.84375 42.21875 
Q 46.484375 45.515625 46.484375 51.90625 
Q 46.484375 58.296875 42.84375 61.546875 
Q 39.203125 64.796875 32.078125 64.796875 
z
" id="DejaVuSans-82"/>
     <path d="M 53.515625 70.515625 
L 53.515625 60.890625 
Q 47.90625 63.578125 42.921875 64.890625 
Q 37.9375 66.21875 33.296875 66.21875 
Q 25.25 66.21875 20.875 63.09375 
Q 16.5 59.96875 16.5 54.203125 
Q 16.5 49.359375 19.40625 46.890625 
Q 22.3125 44.4375 30.421875 42.921875 
L 36.375 41.703125 
Q 47.40625 39.59375 52.65625 34.296875 
Q 57.90625 29 57.90625 20.125 
Q 57.90625 9.515625 50.796875 4.046875 
Q 43.703125 -1.421875 29.984375 -1.421875 
Q 24.8125 -1.421875 18.96875 -0.25 
Q 13.140625 0.921875 6.890625 3.21875 
L 6.890625 13.375 
Q 12.890625 10.015625 18.65625 8.296875 
Q 24.421875 6.59375 29.984375 6.59375 
Q 38.421875 6.59375 43.015625 9.90625 
Q 47.609375 13.234375 47.609375 19.390625 
Q 47.609375 24.75 44.3125 27.78125 
Q 41.015625 30.8125 33.5 32.328125 
L 27.484375 33.5 
Q 16.453125 35.6875 11.515625 40.375 
Q 6.59375 45.0625 6.59375 53.421875 
Q 6.59375 63.09375 13.40625 68.65625 
Q 20.21875 74.21875 32.171875 74.21875 
Q 37.3125 74.21875 42.625 73.28125 
Q 47.953125 72.359375 53.515625 70.515625 
z
" id="DejaVuSans-83"/>
     <path d="M 39.40625 66.21875 
Q 28.65625 66.21875 22.328125 58.203125 
Q 16.015625 50.203125 16.015625 36.375 
Q 16.015625 22.609375 22.328125 14.59375 
Q 28.65625 6.59375 39.40625 6.59375 
Q 50.140625 6.59375 56.421875 14.59375 
Q 62.703125 22.609375 62.703125 36.375 
Q 62.703125 50.203125 56.421875 58.203125 
Q 50.140625 66.21875 39.40625 66.21875 
z
M 53.21875 1.3125 
L 66.21875 -12.890625 
L 54.296875 -12.890625 
L 43.5 -1.21875 
Q 41.890625 -1.3125 41.03125 -1.359375 
Q 40.1875 -1.421875 39.40625 -1.421875 
Q 24.03125 -1.421875 14.8125 8.859375 
Q 5.609375 19.140625 5.609375 36.375 
Q 5.609375 53.65625 14.8125 63.9375 
Q 24.03125 74.21875 39.40625 74.21875 
Q 54.734375 74.21875 63.90625 63.9375 
Q 73.09375 53.65625 73.09375 36.375 
Q 73.09375 23.6875 67.984375 14.640625 
Q 62.890625 5.609375 53.21875 1.3125 
z
" id="DejaVuSans-81"/>
     <path d="M 11.71875 12.40625 
L 22.015625 12.40625 
L 22.015625 0 
L 11.71875 0 
z
M 11.71875 51.703125 
L 22.015625 51.703125 
L 22.015625 39.3125 
L 11.71875 39.3125 
z
" id="DejaVuSans-58"/>
    </defs>
    <g transform="translate(430.988125 19.3575)scale(0.16 -0.16)">
     <use xlink:href="#DejaVuSans-82"/>
     <use x="69.482422" xlink:href="#DejaVuSans-83"/>
     <use x="132.958984" xlink:href="#DejaVuSans-101"/>
     <use x="194.482422" xlink:href="#DejaVuSans-81"/>
     <use x="273.193359" xlink:href="#DejaVuSans-67"/>
     <use x="343.017578" xlink:href="#DejaVuSans-58"/>
     <use x="376.708984" xlink:href="#DejaVuSans-32"/>
     <use x="408.496094" xlink:href="#DejaVuSans-73"/>
     <use x="437.988281" xlink:href="#DejaVuSans-110"/>
     <use x="501.367188" xlink:href="#DejaVuSans-110"/>
     <use x="564.746094" xlink:href="#DejaVuSans-101"/>
     <use x="626.269531" xlink:href="#DejaVuSans-114"/>
     <use x="667.382812" xlink:href="#DejaVuSans-32"/>
     <use x="699.169922" xlink:href="#DejaVuSans-68"/>
     <use x="776.171875" xlink:href="#DejaVuSans-105"/>
     <use x="803.955078" xlink:href="#DejaVuSans-115"/>
     <use x="856.054688" xlink:href="#DejaVuSans-116"/>
     <use x="895.263672" xlink:href="#DejaVuSans-97"/>
     <use x="956.542969" xlink:href="#DejaVuSans-110"/>
     <use x="1019.921875" xlink:href="#DejaVuSans-99"/>
     <use x="1074.902344" xlink:href="#DejaVuSans-101"/>
    </g>
   </g>
  </g>
 </g>
 <defs>
  <clipPath id="p99df328ebd">
   <rect height="317.968" width="937.15" x="53.328125" y="35.2559"/>
  </clipPath>
 </defs>
</svg>
