<?xml version="1.0" encoding="utf-8" standalone="no"?>
<!DOCTYPE svg PUBLIC "-//W3C//DTD SVG 1.1//EN"
  "http://www.w3.org/Graphics/SVG/1.1/DTD/svg11.dtd">
<!-- Created with matplotlib (https://matplotlib.org/) -->
<svg height="530.938261pt" version="1.1" viewBox="0 0 865.861875 530.938261" width="865.861875pt" xmlns="http://www.w3.org/2000/svg" xmlns:xlink="http://www.w3.org/1999/xlink">
 <defs>
  <style type="text/css">
*{stroke-linecap:butt;stroke-linejoin:round;}
  </style>
 </defs>
 <g id="figure_1">
  <g id="patch_1">
   <path d="M 0 530.938261 
L 865.861875 530.938261 
L 865.861875 0 
L 0 0 
z
" style="fill:#ffffff;"/>
  </g>
  <g id="axes_1">
   <g id="patch_2">
    <path d="M 66.02625 444.578261 
L 847.22625 444.578261 
L 847.22625 10.7 
L 66.02625 10.7 
z
" style="fill:#ffffff;"/>
   </g>
   <g id="matplotlib.axis_1">
    <g id="xtick_1">
     <g id="line2d_1">
      <path clip-path="url(#pfb4c132c74)" d="M 66.02625 444.578261 
L 66.02625 10.7 
" style="fill:none;stroke:#dedede;stroke-linecap:square;"/>
     </g>
     <g id="text_1">
      <!-- 0% -->
      <defs>
       <path d="M 31.78125 66.40625 
Q 24.171875 66.40625 20.328125 58.90625 
Q 16.5 51.421875 16.5 36.375 
Q 16.5 21.390625 20.328125 13.890625 
Q 24.171875 6.390625 31.78125 6.390625 
Q 39.453125 6.390625 43.28125 13.890625 
Q 47.125 21.390625 47.125 36.375 
Q 47.125 51.421875 43.28125 58.90625 
Q 39.453125 66.40625 31.78125 66.40625 
z
M 31.78125 74.21875 
Q 44.046875 74.21875 50.515625 64.515625 
Q 56.984375 54.828125 56.984375 36.375 
Q 56.984375 17.96875 50.515625 8.265625 
Q 44.046875 -1.421875 31.78125 -1.421875 
Q 19.53125 -1.421875 13.0625 8.265625 
Q 6.59375 17.96875 6.59375 36.375 
Q 6.59375 54.828125 13.0625 64.515625 
Q 19.53125 74.21875 31.78125 74.21875 
z
" id="DejaVuSans-48"/>
       <path d="M 72.703125 32.078125 
Q 68.453125 32.078125 66.03125 28.46875 
Q 63.625 24.859375 63.625 18.40625 
Q 63.625 12.0625 66.03125 8.421875 
Q 68.453125 4.78125 72.703125 4.78125 
Q 76.859375 4.78125 79.265625 8.421875 
Q 81.6875 12.0625 81.6875 18.40625 
Q 81.6875 24.8125 79.265625 28.4375 
Q 76.859375 32.078125 72.703125 32.078125 
z
M 72.703125 38.28125 
Q 80.421875 38.28125 84.953125 32.90625 
Q 89.5 27.546875 89.5 18.40625 
Q 89.5 9.28125 84.9375 3.921875 
Q 80.375 -1.421875 72.703125 -1.421875 
Q 64.890625 -1.421875 60.34375 3.921875 
Q 55.8125 9.28125 55.8125 18.40625 
Q 55.8125 27.59375 60.375 32.9375 
Q 64.9375 38.28125 72.703125 38.28125 
z
M 22.3125 68.015625 
Q 18.109375 68.015625 15.6875 64.375 
Q 13.28125 60.75 13.28125 54.390625 
Q 13.28125 47.953125 15.671875 44.328125 
Q 18.0625 40.71875 22.3125 40.71875 
Q 26.5625 40.71875 28.96875 44.328125 
Q 31.390625 47.953125 31.390625 54.390625 
Q 31.390625 60.6875 28.953125 64.34375 
Q 26.515625 68.015625 22.3125 68.015625 
z
M 66.40625 74.21875 
L 74.21875 74.21875 
L 28.609375 -1.421875 
L 20.796875 -1.421875 
z
M 22.3125 74.21875 
Q 30.03125 74.21875 34.609375 68.875 
Q 39.203125 63.53125 39.203125 54.390625 
Q 39.203125 45.171875 34.640625 39.84375 
Q 30.078125 34.515625 22.3125 34.515625 
Q 14.546875 34.515625 10.03125 39.859375 
Q 5.515625 45.21875 5.515625 54.390625 
Q 5.515625 63.484375 10.046875 68.84375 
Q 14.59375 74.21875 22.3125 74.21875 
z
" id="DejaVuSans-37"/>
      </defs>
      <g transform="translate(59.680625 457.657011)scale(0.08 -0.08)">
       <use xlink:href="#DejaVuSans-48"/>
       <use x="63.623047" xlink:href="#DejaVuSans-37"/>
      </g>
     </g>
    </g>
    <g id="xtick_2">
     <g id="line2d_2">
      <path clip-path="url(#pfb4c132c74)" d="M 222.26625 444.578261 
L 222.26625 10.7 
" style="fill:none;stroke:#dedede;stroke-linecap:square;"/>
     </g>
     <g id="text_2">
      <!-- 20% -->
      <defs>
       <path d="M 19.1875 8.296875 
L 53.609375 8.296875 
L 53.609375 0 
L 7.328125 0 
L 7.328125 8.296875 
Q 12.9375 14.109375 22.625 23.890625 
Q 32.328125 33.6875 34.8125 36.53125 
Q 39.546875 41.84375 41.421875 45.53125 
Q 43.3125 49.21875 43.3125 52.78125 
Q 43.3125 58.59375 39.234375 62.25 
Q 35.15625 65.921875 28.609375 65.921875 
Q 23.96875 65.921875 18.8125 64.3125 
Q 13.671875 62.703125 7.8125 59.421875 
L 7.8125 69.390625 
Q 13.765625 71.78125 18.9375 73 
Q 24.125 74.21875 28.421875 74.21875 
Q 39.75 74.21875 46.484375 68.546875 
Q 53.21875 62.890625 53.21875 53.421875 
Q 53.21875 48.921875 51.53125 44.890625 
Q 49.859375 40.875 45.40625 35.40625 
Q 44.1875 33.984375 37.640625 27.21875 
Q 31.109375 20.453125 19.1875 8.296875 
z
" id="DejaVuSans-50"/>
      </defs>
      <g transform="translate(213.375625 457.657011)scale(0.08 -0.08)">
       <use xlink:href="#DejaVuSans-50"/>
       <use x="63.623047" xlink:href="#DejaVuSans-48"/>
       <use x="127.246094" xlink:href="#DejaVuSans-37"/>
      </g>
     </g>
    </g>
    <g id="xtick_3">
     <g id="line2d_3">
      <path clip-path="url(#pfb4c132c74)" d="M 378.50625 444.578261 
L 378.50625 10.7 
" style="fill:none;stroke:#dedede;stroke-linecap:square;"/>
     </g>
     <g id="text_3">
      <!-- 40% -->
      <defs>
       <path d="M 37.796875 64.3125 
L 12.890625 25.390625 
L 37.796875 25.390625 
z
M 35.203125 72.90625 
L 47.609375 72.90625 
L 47.609375 25.390625 
L 58.015625 25.390625 
L 58.015625 17.1875 
L 47.609375 17.1875 
L 47.609375 0 
L 37.796875 0 
L 37.796875 17.1875 
L 4.890625 17.1875 
L 4.890625 26.703125 
z
" id="DejaVuSans-52"/>
      </defs>
      <g transform="translate(369.615625 457.657011)scale(0.08 -0.08)">
       <use xlink:href="#DejaVuSans-52"/>
       <use x="63.623047" xlink:href="#DejaVuSans-48"/>
       <use x="127.246094" xlink:href="#DejaVuSans-37"/>
      </g>
     </g>
    </g>
    <g id="xtick_4">
     <g id="line2d_4">
      <path clip-path="url(#pfb4c132c74)" d="M 534.74625 444.578261 
L 534.74625 10.7 
" style="fill:none;stroke:#dedede;stroke-linecap:square;"/>
     </g>
     <g id="text_4">
      <!-- 60% -->
      <defs>
       <path d="M 33.015625 40.375 
Q 26.375 40.375 22.484375 35.828125 
Q 18.609375 31.296875 18.609375 23.390625 
Q 18.609375 15.53125 22.484375 10.953125 
Q 26.375 6.390625 33.015625 6.390625 
Q 39.65625 6.390625 43.53125 10.953125 
Q 47.40625 15.53125 47.40625 23.390625 
Q 47.40625 31.296875 43.53125 35.828125 
Q 39.65625 40.375 33.015625 40.375 
z
M 52.59375 71.296875 
L 52.59375 62.3125 
Q 48.875 64.0625 45.09375 64.984375 
Q 41.3125 65.921875 37.59375 65.921875 
Q 27.828125 65.921875 22.671875 59.328125 
Q 17.53125 52.734375 16.796875 39.40625 
Q 19.671875 43.65625 24.015625 45.921875 
Q 28.375 48.1875 33.59375 48.1875 
Q 44.578125 48.1875 50.953125 41.515625 
Q 57.328125 34.859375 57.328125 23.390625 
Q 57.328125 12.15625 50.6875 5.359375 
Q 44.046875 -1.421875 33.015625 -1.421875 
Q 20.359375 -1.421875 13.671875 8.265625 
Q 6.984375 17.96875 6.984375 36.375 
Q 6.984375 53.65625 15.1875 63.9375 
Q 23.390625 74.21875 37.203125 74.21875 
Q 40.921875 74.21875 44.703125 73.484375 
Q 48.484375 72.75 52.59375 71.296875 
z
" id="DejaVuSans-54"/>
      </defs>
      <g transform="translate(525.855625 457.657011)scale(0.08 -0.08)">
       <use xlink:href="#DejaVuSans-54"/>
       <use x="63.623047" xlink:href="#DejaVuSans-48"/>
       <use x="127.246094" xlink:href="#DejaVuSans-37"/>
      </g>
     </g>
    </g>
    <g id="xtick_5">
     <g id="line2d_5">
      <path clip-path="url(#pfb4c132c74)" d="M 690.98625 444.578261 
L 690.98625 10.7 
" style="fill:none;stroke:#dedede;stroke-linecap:square;"/>
     </g>
     <g id="text_5">
      <!-- 80% -->
      <defs>
       <path d="M 31.78125 34.625 
Q 24.75 34.625 20.71875 30.859375 
Q 16.703125 27.09375 16.703125 20.515625 
Q 16.703125 13.921875 20.71875 10.15625 
Q 24.75 6.390625 31.78125 6.390625 
Q 38.8125 6.390625 42.859375 10.171875 
Q 46.921875 13.96875 46.921875 20.515625 
Q 46.921875 27.09375 42.890625 30.859375 
Q 38.875 34.625 31.78125 34.625 
z
M 21.921875 38.8125 
Q 15.578125 40.375 12.03125 44.71875 
Q 8.5 49.078125 8.5 55.328125 
Q 8.5 64.0625 14.71875 69.140625 
Q 20.953125 74.21875 31.78125 74.21875 
Q 42.671875 74.21875 48.875 69.140625 
Q 55.078125 64.0625 55.078125 55.328125 
Q 55.078125 49.078125 51.53125 44.71875 
Q 48 40.375 41.703125 38.8125 
Q 48.828125 37.15625 52.796875 32.3125 
Q 56.78125 27.484375 56.78125 20.515625 
Q 56.78125 9.90625 50.3125 4.234375 
Q 43.84375 -1.421875 31.78125 -1.421875 
Q 19.734375 -1.421875 13.25 4.234375 
Q 6.78125 9.90625 6.78125 20.515625 
Q 6.78125 27.484375 10.78125 32.3125 
Q 14.796875 37.15625 21.921875 38.8125 
z
M 18.3125 54.390625 
Q 18.3125 48.734375 21.84375 45.5625 
Q 25.390625 42.390625 31.78125 42.390625 
Q 38.140625 42.390625 41.71875 45.5625 
Q 45.3125 48.734375 45.3125 54.390625 
Q 45.3125 60.0625 41.71875 63.234375 
Q 38.140625 66.40625 31.78125 66.40625 
Q 25.390625 66.40625 21.84375 63.234375 
Q 18.3125 60.0625 18.3125 54.390625 
z
" id="DejaVuSans-56"/>
      </defs>
      <g transform="translate(682.095625 457.657011)scale(0.08 -0.08)">
       <use xlink:href="#DejaVuSans-56"/>
       <use x="63.623047" xlink:href="#DejaVuSans-48"/>
       <use x="127.246094" xlink:href="#DejaVuSans-37"/>
      </g>
     </g>
    </g>
    <g id="xtick_6">
     <g id="line2d_6">
      <path clip-path="url(#pfb4c132c74)" d="M 847.22625 444.578261 
L 847.22625 10.7 
" style="fill:none;stroke:#dedede;stroke-linecap:square;"/>
     </g>
     <g id="text_6">
      <!-- 100% -->
      <defs>
       <path d="M 12.40625 8.296875 
L 28.515625 8.296875 
L 28.515625 63.921875 
L 10.984375 60.40625 
L 10.984375 69.390625 
L 28.421875 72.90625 
L 38.28125 72.90625 
L 38.28125 8.296875 
L 54.390625 8.296875 
L 54.390625 0 
L 12.40625 0 
z
" id="DejaVuSans-49"/>
      </defs>
      <g transform="translate(835.790625 457.657011)scale(0.08 -0.08)">
       <use xlink:href="#DejaVuSans-49"/>
       <use x="63.623047" xlink:href="#DejaVuSans-48"/>
       <use x="127.246094" xlink:href="#DejaVuSans-48"/>
       <use x="190.869141" xlink:href="#DejaVuSans-37"/>
      </g>
     </g>
    </g>
    <g id="text_7">
     <!-- # Tags -->
     <defs>
      <path d="M 51.125 44 
L 36.921875 44 
L 32.8125 27.6875 
L 47.125 27.6875 
z
M 43.796875 71.78125 
L 38.71875 51.515625 
L 52.984375 51.515625 
L 58.109375 71.78125 
L 65.921875 71.78125 
L 60.890625 51.515625 
L 76.125 51.515625 
L 76.125 44 
L 58.984375 44 
L 54.984375 27.6875 
L 70.515625 27.6875 
L 70.515625 20.21875 
L 53.078125 20.21875 
L 48 0 
L 40.1875 0 
L 45.21875 20.21875 
L 30.90625 20.21875 
L 25.875 0 
L 18.015625 0 
L 23.09375 20.21875 
L 7.71875 20.21875 
L 7.71875 27.6875 
L 24.90625 27.6875 
L 29 44 
L 13.28125 44 
L 13.28125 51.515625 
L 30.90625 51.515625 
L 35.890625 71.78125 
z
" id="DejaVuSans-35"/>
      <path id="DejaVuSans-32"/>
      <path d="M -0.296875 72.90625 
L 61.375 72.90625 
L 61.375 64.59375 
L 35.5 64.59375 
L 35.5 0 
L 25.59375 0 
L 25.59375 64.59375 
L -0.296875 64.59375 
z
" id="DejaVuSans-84"/>
      <path d="M 34.28125 27.484375 
Q 23.390625 27.484375 19.1875 25 
Q 14.984375 22.515625 14.984375 16.5 
Q 14.984375 11.71875 18.140625 8.90625 
Q 21.296875 6.109375 26.703125 6.109375 
Q 34.1875 6.109375 38.703125 11.40625 
Q 43.21875 16.703125 43.21875 25.484375 
L 43.21875 27.484375 
z
M 52.203125 31.203125 
L 52.203125 0 
L 43.21875 0 
L 43.21875 8.296875 
Q 40.140625 3.328125 35.546875 0.953125 
Q 30.953125 -1.421875 24.3125 -1.421875 
Q 15.921875 -1.421875 10.953125 3.296875 
Q 6 8.015625 6 15.921875 
Q 6 25.140625 12.171875 29.828125 
Q 18.359375 34.515625 30.609375 34.515625 
L 43.21875 34.515625 
L 43.21875 35.40625 
Q 43.21875 41.609375 39.140625 45 
Q 35.0625 48.390625 27.6875 48.390625 
Q 23 48.390625 18.546875 47.265625 
Q 14.109375 46.140625 10.015625 43.890625 
L 10.015625 52.203125 
Q 14.9375 54.109375 19.578125 55.046875 
Q 24.21875 56 28.609375 56 
Q 40.484375 56 46.34375 49.84375 
Q 52.203125 43.703125 52.203125 31.203125 
z
" id="DejaVuSans-97"/>
      <path d="M 45.40625 27.984375 
Q 45.40625 37.75 41.375 43.109375 
Q 37.359375 48.484375 30.078125 48.484375 
Q 22.859375 48.484375 18.828125 43.109375 
Q 14.796875 37.75 14.796875 27.984375 
Q 14.796875 18.265625 18.828125 12.890625 
Q 22.859375 7.515625 30.078125 7.515625 
Q 37.359375 7.515625 41.375 12.890625 
Q 45.40625 18.265625 45.40625 27.984375 
z
M 54.390625 6.78125 
Q 54.390625 -7.171875 48.1875 -13.984375 
Q 42 -20.796875 29.203125 -20.796875 
Q 24.46875 -20.796875 20.265625 -20.09375 
Q 16.0625 -19.390625 12.109375 -17.921875 
L 12.109375 -9.1875 
Q 16.0625 -11.328125 19.921875 -12.34375 
Q 23.78125 -13.375 27.78125 -13.375 
Q 36.625 -13.375 41.015625 -8.765625 
Q 45.40625 -4.15625 45.40625 5.171875 
L 45.40625 9.625 
Q 42.625 4.78125 38.28125 2.390625 
Q 33.9375 0 27.875 0 
Q 17.828125 0 11.671875 7.65625 
Q 5.515625 15.328125 5.515625 27.984375 
Q 5.515625 40.671875 11.671875 48.328125 
Q 17.828125 56 27.875 56 
Q 33.9375 56 38.28125 53.609375 
Q 42.625 51.21875 45.40625 46.390625 
L 45.40625 54.6875 
L 54.390625 54.6875 
z
" id="DejaVuSans-103"/>
      <path d="M 44.28125 53.078125 
L 44.28125 44.578125 
Q 40.484375 46.53125 36.375 47.5 
Q 32.28125 48.484375 27.875 48.484375 
Q 21.1875 48.484375 17.84375 46.4375 
Q 14.5 44.390625 14.5 40.28125 
Q 14.5 37.15625 16.890625 35.375 
Q 19.28125 33.59375 26.515625 31.984375 
L 29.59375 31.296875 
Q 39.15625 29.25 43.1875 25.515625 
Q 47.21875 21.78125 47.21875 15.09375 
Q 47.21875 7.46875 41.1875 3.015625 
Q 35.15625 -1.421875 24.609375 -1.421875 
Q 20.21875 -1.421875 15.453125 -0.5625 
Q 10.6875 0.296875 5.421875 2 
L 5.421875 11.28125 
Q 10.40625 8.6875 15.234375 7.390625 
Q 20.0625 6.109375 24.8125 6.109375 
Q 31.15625 6.109375 34.5625 8.28125 
Q 37.984375 10.453125 37.984375 14.40625 
Q 37.984375 18.0625 35.515625 20.015625 
Q 33.0625 21.96875 24.703125 23.78125 
L 21.578125 24.515625 
Q 13.234375 26.265625 9.515625 29.90625 
Q 5.8125 33.546875 5.8125 39.890625 
Q 5.8125 47.609375 11.28125 51.796875 
Q 16.75 56 26.8125 56 
Q 31.78125 56 36.171875 55.265625 
Q 40.578125 54.546875 44.28125 53.078125 
z
" id="DejaVuSans-115"/>
     </defs>
     <g transform="translate(438.962969 470.919198)scale(0.1 -0.1)">
      <use xlink:href="#DejaVuSans-35"/>
      <use x="83.789062" xlink:href="#DejaVuSans-32"/>
      <use x="115.576172" xlink:href="#DejaVuSans-84"/>
      <use x="176.410156" xlink:href="#DejaVuSans-97"/>
      <use x="237.689453" xlink:href="#DejaVuSans-103"/>
      <use x="301.166016" xlink:href="#DejaVuSans-115"/>
     </g>
    </g>
   </g>
   <g id="matplotlib.axis_2">
    <g id="ytick_1">
     <g id="text_8">
      <!-- SRR7443455 -->
      <defs>
       <path d="M 53.515625 70.515625 
L 53.515625 60.890625 
Q 47.90625 63.578125 42.921875 64.890625 
Q 37.9375 66.21875 33.296875 66.21875 
Q 25.25 66.21875 20.875 63.09375 
Q 16.5 59.96875 16.5 54.203125 
Q 16.5 49.359375 19.40625 46.890625 
Q 22.3125 44.4375 30.421875 42.921875 
L 36.375 41.703125 
Q 47.40625 39.59375 52.65625 34.296875 
Q 57.90625 29 57.90625 20.125 
Q 57.90625 9.515625 50.796875 4.046875 
Q 43.703125 -1.421875 29.984375 -1.421875 
Q 24.8125 -1.421875 18.96875 -0.25 
Q 13.140625 0.921875 6.890625 3.21875 
L 6.890625 13.375 
Q 12.890625 10.015625 18.65625 8.296875 
Q 24.421875 6.59375 29.984375 6.59375 
Q 38.421875 6.59375 43.015625 9.90625 
Q 47.609375 13.234375 47.609375 19.390625 
Q 47.609375 24.75 44.3125 27.78125 
Q 41.015625 30.8125 33.5 32.328125 
L 27.484375 33.5 
Q 16.453125 35.6875 11.515625 40.375 
Q 6.59375 45.0625 6.59375 53.421875 
Q 6.59375 63.09375 13.40625 68.65625 
Q 20.21875 74.21875 32.171875 74.21875 
Q 37.3125 74.21875 42.625 73.28125 
Q 47.953125 72.359375 53.515625 70.515625 
z
" id="DejaVuSans-83"/>
       <path d="M 44.390625 34.1875 
Q 47.5625 33.109375 50.5625 29.59375 
Q 53.5625 26.078125 56.59375 19.921875 
L 66.609375 0 
L 56 0 
L 46.6875 18.703125 
Q 43.0625 26.03125 39.671875 28.421875 
Q 36.28125 30.8125 30.421875 30.8125 
L 19.671875 30.8125 
L 19.671875 0 
L 9.8125 0 
L 9.8125 72.90625 
L 32.078125 72.90625 
Q 44.578125 72.90625 50.734375 67.671875 
Q 56.890625 62.453125 56.890625 51.90625 
Q 56.890625 45.015625 53.6875 40.46875 
Q 50.484375 35.9375 44.390625 34.1875 
z
M 19.671875 64.796875 
L 19.671875 38.921875 
L 32.078125 38.921875 
Q 39.203125 38.921875 42.84375 42.21875 
Q 46.484375 45.515625 46.484375 51.90625 
Q 46.484375 58.296875 42.84375 61.546875 
Q 39.203125 64.796875 32.078125 64.796875 
z
" id="DejaVuSans-82"/>
       <path d="M 8.203125 72.90625 
L 55.078125 72.90625 
L 55.078125 68.703125 
L 28.609375 0 
L 18.3125 0 
L 43.21875 64.59375 
L 8.203125 64.59375 
z
" id="DejaVuSans-55"/>
       <path d="M 40.578125 39.3125 
Q 47.65625 37.796875 51.625 33 
Q 55.609375 28.21875 55.609375 21.1875 
Q 55.609375 10.40625 48.1875 4.484375 
Q 40.765625 -1.421875 27.09375 -1.421875 
Q 22.515625 -1.421875 17.65625 -0.515625 
Q 12.796875 0.390625 7.625 2.203125 
L 7.625 11.71875 
Q 11.71875 9.328125 16.59375 8.109375 
Q 21.484375 6.890625 26.8125 6.890625 
Q 36.078125 6.890625 40.9375 10.546875 
Q 45.796875 14.203125 45.796875 21.1875 
Q 45.796875 27.640625 41.28125 31.265625 
Q 36.765625 34.90625 28.71875 34.90625 
L 20.21875 34.90625 
L 20.21875 43.015625 
L 29.109375 43.015625 
Q 36.375 43.015625 40.234375 45.921875 
Q 44.09375 48.828125 44.09375 54.296875 
Q 44.09375 59.90625 40.109375 62.90625 
Q 36.140625 65.921875 28.71875 65.921875 
Q 24.65625 65.921875 20.015625 65.03125 
Q 15.375 64.15625 9.8125 62.3125 
L 9.8125 71.09375 
Q 15.4375 72.65625 20.34375 73.4375 
Q 25.25 74.21875 29.59375 74.21875 
Q 40.828125 74.21875 47.359375 69.109375 
Q 53.90625 64.015625 53.90625 55.328125 
Q 53.90625 49.265625 50.4375 45.09375 
Q 46.96875 40.921875 40.578125 39.3125 
z
" id="DejaVuSans-51"/>
       <path d="M 10.796875 72.90625 
L 49.515625 72.90625 
L 49.515625 64.59375 
L 19.828125 64.59375 
L 19.828125 46.734375 
Q 21.96875 47.46875 24.109375 47.828125 
Q 26.265625 48.1875 28.421875 48.1875 
Q 40.625 48.1875 47.75 41.5 
Q 54.890625 34.8125 54.890625 23.390625 
Q 54.890625 11.625 47.5625 5.09375 
Q 40.234375 -1.421875 26.90625 -1.421875 
Q 22.3125 -1.421875 17.546875 -0.640625 
Q 12.796875 0.140625 7.71875 1.703125 
L 7.71875 11.625 
Q 12.109375 9.234375 16.796875 8.0625 
Q 21.484375 6.890625 26.703125 6.890625 
Q 35.15625 6.890625 40.078125 11.328125 
Q 45.015625 15.765625 45.015625 23.390625 
Q 45.015625 31 40.078125 35.4375 
Q 35.15625 39.890625 26.703125 39.890625 
Q 22.75 39.890625 18.8125 39.015625 
Q 14.890625 38.140625 10.796875 36.28125 
z
" id="DejaVuSans-53"/>
      </defs>
      <g transform="translate(7.2 25.791549)scale(0.08 -0.08)">
       <use xlink:href="#DejaVuSans-83"/>
       <use x="63.476562" xlink:href="#DejaVuSans-82"/>
       <use x="132.958984" xlink:href="#DejaVuSans-82"/>
       <use x="202.441406" xlink:href="#DejaVuSans-55"/>
       <use x="266.064453" xlink:href="#DejaVuSans-52"/>
       <use x="329.6875" xlink:href="#DejaVuSans-52"/>
       <use x="393.310547" xlink:href="#DejaVuSans-51"/>
       <use x="456.933594" xlink:href="#DejaVuSans-52"/>
       <use x="520.556641" xlink:href="#DejaVuSans-53"/>
       <use x="584.179688" xlink:href="#DejaVuSans-53"/>
      </g>
     </g>
    </g>
    <g id="ytick_2">
     <g id="text_9">
      <!-- SRR7443456 -->
      <g transform="translate(7.2 49.895897)scale(0.08 -0.08)">
       <use xlink:href="#DejaVuSans-83"/>
       <use x="63.476562" xlink:href="#DejaVuSans-82"/>
       <use x="132.958984" xlink:href="#DejaVuSans-82"/>
       <use x="202.441406" xlink:href="#DejaVuSans-55"/>
       <use x="266.064453" xlink:href="#DejaVuSans-52"/>
       <use x="329.6875" xlink:href="#DejaVuSans-52"/>
       <use x="393.310547" xlink:href="#DejaVuSans-51"/>
       <use x="456.933594" xlink:href="#DejaVuSans-52"/>
       <use x="520.556641" xlink:href="#DejaVuSans-53"/>
       <use x="584.179688" xlink:href="#DejaVuSans-54"/>
      </g>
     </g>
    </g>
    <g id="ytick_3">
     <g id="text_10">
      <!-- SRR7443457 -->
      <g transform="translate(7.2 74.000245)scale(0.08 -0.08)">
       <use xlink:href="#DejaVuSans-83"/>
       <use x="63.476562" xlink:href="#DejaVuSans-82"/>
       <use x="132.958984" xlink:href="#DejaVuSans-82"/>
       <use x="202.441406" xlink:href="#DejaVuSans-55"/>
       <use x="266.064453" xlink:href="#DejaVuSans-52"/>
       <use x="329.6875" xlink:href="#DejaVuSans-52"/>
       <use x="393.310547" xlink:href="#DejaVuSans-51"/>
       <use x="456.933594" xlink:href="#DejaVuSans-52"/>
       <use x="520.556641" xlink:href="#DejaVuSans-53"/>
       <use x="584.179688" xlink:href="#DejaVuSans-55"/>
      </g>
     </g>
    </g>
    <g id="ytick_4">
     <g id="text_11">
      <!-- SRR7443458 -->
      <g transform="translate(7.2 98.104592)scale(0.08 -0.08)">
       <use xlink:href="#DejaVuSans-83"/>
       <use x="63.476562" xlink:href="#DejaVuSans-82"/>
       <use x="132.958984" xlink:href="#DejaVuSans-82"/>
       <use x="202.441406" xlink:href="#DejaVuSans-55"/>
       <use x="266.064453" xlink:href="#DejaVuSans-52"/>
       <use x="329.6875" xlink:href="#DejaVuSans-52"/>
       <use x="393.310547" xlink:href="#DejaVuSans-51"/>
       <use x="456.933594" xlink:href="#DejaVuSans-52"/>
       <use x="520.556641" xlink:href="#DejaVuSans-53"/>
       <use x="584.179688" xlink:href="#DejaVuSans-56"/>
      </g>
     </g>
    </g>
    <g id="ytick_5">
     <g id="text_12">
      <!-- SRR7443459 -->
      <defs>
       <path d="M 10.984375 1.515625 
L 10.984375 10.5 
Q 14.703125 8.734375 18.5 7.8125 
Q 22.3125 6.890625 25.984375 6.890625 
Q 35.75 6.890625 40.890625 13.453125 
Q 46.046875 20.015625 46.78125 33.40625 
Q 43.953125 29.203125 39.59375 26.953125 
Q 35.25 24.703125 29.984375 24.703125 
Q 19.046875 24.703125 12.671875 31.3125 
Q 6.296875 37.9375 6.296875 49.421875 
Q 6.296875 60.640625 12.9375 67.421875 
Q 19.578125 74.21875 30.609375 74.21875 
Q 43.265625 74.21875 49.921875 64.515625 
Q 56.59375 54.828125 56.59375 36.375 
Q 56.59375 19.140625 48.40625 8.859375 
Q 40.234375 -1.421875 26.421875 -1.421875 
Q 22.703125 -1.421875 18.890625 -0.6875 
Q 15.09375 0.046875 10.984375 1.515625 
z
M 30.609375 32.421875 
Q 37.25 32.421875 41.125 36.953125 
Q 45.015625 41.5 45.015625 49.421875 
Q 45.015625 57.28125 41.125 61.84375 
Q 37.25 66.40625 30.609375 66.40625 
Q 23.96875 66.40625 20.09375 61.84375 
Q 16.21875 57.28125 16.21875 49.421875 
Q 16.21875 41.5 20.09375 36.953125 
Q 23.96875 32.421875 30.609375 32.421875 
z
" id="DejaVuSans-57"/>
      </defs>
      <g transform="translate(7.2 122.20894)scale(0.08 -0.08)">
       <use xlink:href="#DejaVuSans-83"/>
       <use x="63.476562" xlink:href="#DejaVuSans-82"/>
       <use x="132.958984" xlink:href="#DejaVuSans-82"/>
       <use x="202.441406" xlink:href="#DejaVuSans-55"/>
       <use x="266.064453" xlink:href="#DejaVuSans-52"/>
       <use x="329.6875" xlink:href="#DejaVuSans-52"/>
       <use x="393.310547" xlink:href="#DejaVuSans-51"/>
       <use x="456.933594" xlink:href="#DejaVuSans-52"/>
       <use x="520.556641" xlink:href="#DejaVuSans-53"/>
       <use x="584.179688" xlink:href="#DejaVuSans-57"/>
      </g>
     </g>
    </g>
    <g id="ytick_6">
     <g id="text_13">
      <!-- SRR7443460 -->
      <g transform="translate(7.2 146.313288)scale(0.08 -0.08)">
       <use xlink:href="#DejaVuSans-83"/>
       <use x="63.476562" xlink:href="#DejaVuSans-82"/>
       <use x="132.958984" xlink:href="#DejaVuSans-82"/>
       <use x="202.441406" xlink:href="#DejaVuSans-55"/>
       <use x="266.064453" xlink:href="#DejaVuSans-52"/>
       <use x="329.6875" xlink:href="#DejaVuSans-52"/>
       <use x="393.310547" xlink:href="#DejaVuSans-51"/>
       <use x="456.933594" xlink:href="#DejaVuSans-52"/>
       <use x="520.556641" xlink:href="#DejaVuSans-54"/>
       <use x="584.179688" xlink:href="#DejaVuSans-48"/>
      </g>
     </g>
    </g>
    <g id="ytick_7">
     <g id="text_14">
      <!-- SRR7443461 -->
      <g transform="translate(7.2 170.417636)scale(0.08 -0.08)">
       <use xlink:href="#DejaVuSans-83"/>
       <use x="63.476562" xlink:href="#DejaVuSans-82"/>
       <use x="132.958984" xlink:href="#DejaVuSans-82"/>
       <use x="202.441406" xlink:href="#DejaVuSans-55"/>
       <use x="266.064453" xlink:href="#DejaVuSans-52"/>
       <use x="329.6875" xlink:href="#DejaVuSans-52"/>
       <use x="393.310547" xlink:href="#DejaVuSans-51"/>
       <use x="456.933594" xlink:href="#DejaVuSans-52"/>
       <use x="520.556641" xlink:href="#DejaVuSans-54"/>
       <use x="584.179688" xlink:href="#DejaVuSans-49"/>
      </g>
     </g>
    </g>
    <g id="ytick_8">
     <g id="text_15">
      <!-- SRR7443462 -->
      <g transform="translate(7.2 194.521984)scale(0.08 -0.08)">
       <use xlink:href="#DejaVuSans-83"/>
       <use x="63.476562" xlink:href="#DejaVuSans-82"/>
       <use x="132.958984" xlink:href="#DejaVuSans-82"/>
       <use x="202.441406" xlink:href="#DejaVuSans-55"/>
       <use x="266.064453" xlink:href="#DejaVuSans-52"/>
       <use x="329.6875" xlink:href="#DejaVuSans-52"/>
       <use x="393.310547" xlink:href="#DejaVuSans-51"/>
       <use x="456.933594" xlink:href="#DejaVuSans-52"/>
       <use x="520.556641" xlink:href="#DejaVuSans-54"/>
       <use x="584.179688" xlink:href="#DejaVuSans-50"/>
      </g>
     </g>
    </g>
    <g id="ytick_9">
     <g id="text_16">
      <!-- SRR7443463 -->
      <g transform="translate(7.2 218.626332)scale(0.08 -0.08)">
       <use xlink:href="#DejaVuSans-83"/>
       <use x="63.476562" xlink:href="#DejaVuSans-82"/>
       <use x="132.958984" xlink:href="#DejaVuSans-82"/>
       <use x="202.441406" xlink:href="#DejaVuSans-55"/>
       <use x="266.064453" xlink:href="#DejaVuSans-52"/>
       <use x="329.6875" xlink:href="#DejaVuSans-52"/>
       <use x="393.310547" xlink:href="#DejaVuSans-51"/>
       <use x="456.933594" xlink:href="#DejaVuSans-52"/>
       <use x="520.556641" xlink:href="#DejaVuSans-54"/>
       <use x="584.179688" xlink:href="#DejaVuSans-51"/>
      </g>
     </g>
    </g>
    <g id="ytick_10">
     <g id="text_17">
      <!-- SRR7443464 -->
      <g transform="translate(7.2 242.730679)scale(0.08 -0.08)">
       <use xlink:href="#DejaVuSans-83"/>
       <use x="63.476562" xlink:href="#DejaVuSans-82"/>
       <use x="132.958984" xlink:href="#DejaVuSans-82"/>
       <use x="202.441406" xlink:href="#DejaVuSans-55"/>
       <use x="266.064453" xlink:href="#DejaVuSans-52"/>
       <use x="329.6875" xlink:href="#DejaVuSans-52"/>
       <use x="393.310547" xlink:href="#DejaVuSans-51"/>
       <use x="456.933594" xlink:href="#DejaVuSans-52"/>
       <use x="520.556641" xlink:href="#DejaVuSans-54"/>
       <use x="584.179688" xlink:href="#DejaVuSans-52"/>
      </g>
     </g>
    </g>
    <g id="ytick_11">
     <g id="text_18">
      <!-- SRR7443465 -->
      <g transform="translate(7.2 266.835027)scale(0.08 -0.08)">
       <use xlink:href="#DejaVuSans-83"/>
       <use x="63.476562" xlink:href="#DejaVuSans-82"/>
       <use x="132.958984" xlink:href="#DejaVuSans-82"/>
       <use x="202.441406" xlink:href="#DejaVuSans-55"/>
       <use x="266.064453" xlink:href="#DejaVuSans-52"/>
       <use x="329.6875" xlink:href="#DejaVuSans-52"/>
       <use x="393.310547" xlink:href="#DejaVuSans-51"/>
       <use x="456.933594" xlink:href="#DejaVuSans-52"/>
       <use x="520.556641" xlink:href="#DejaVuSans-54"/>
       <use x="584.179688" xlink:href="#DejaVuSans-53"/>
      </g>
     </g>
    </g>
    <g id="ytick_12">
     <g id="text_19">
      <!-- SRR7443466 -->
      <g transform="translate(7.2 290.939375)scale(0.08 -0.08)">
       <use xlink:href="#DejaVuSans-83"/>
       <use x="63.476562" xlink:href="#DejaVuSans-82"/>
       <use x="132.958984" xlink:href="#DejaVuSans-82"/>
       <use x="202.441406" xlink:href="#DejaVuSans-55"/>
       <use x="266.064453" xlink:href="#DejaVuSans-52"/>
       <use x="329.6875" xlink:href="#DejaVuSans-52"/>
       <use x="393.310547" xlink:href="#DejaVuSans-51"/>
       <use x="456.933594" xlink:href="#DejaVuSans-52"/>
       <use x="520.556641" xlink:href="#DejaVuSans-54"/>
       <use x="584.179688" xlink:href="#DejaVuSans-54"/>
      </g>
     </g>
    </g>
    <g id="ytick_13">
     <g id="text_20">
      <!-- SRR7443467 -->
      <g transform="translate(7.2 315.043723)scale(0.08 -0.08)">
       <use xlink:href="#DejaVuSans-83"/>
       <use x="63.476562" xlink:href="#DejaVuSans-82"/>
       <use x="132.958984" xlink:href="#DejaVuSans-82"/>
       <use x="202.441406" xlink:href="#DejaVuSans-55"/>
       <use x="266.064453" xlink:href="#DejaVuSans-52"/>
       <use x="329.6875" xlink:href="#DejaVuSans-52"/>
       <use x="393.310547" xlink:href="#DejaVuSans-51"/>
       <use x="456.933594" xlink:href="#DejaVuSans-52"/>
       <use x="520.556641" xlink:href="#DejaVuSans-54"/>
       <use x="584.179688" xlink:href="#DejaVuSans-55"/>
      </g>
     </g>
    </g>
    <g id="ytick_14">
     <g id="text_21">
      <!-- SRR7443468 -->
      <g transform="translate(7.2 339.148071)scale(0.08 -0.08)">
       <use xlink:href="#DejaVuSans-83"/>
       <use x="63.476562" xlink:href="#DejaVuSans-82"/>
       <use x="132.958984" xlink:href="#DejaVuSans-82"/>
       <use x="202.441406" xlink:href="#DejaVuSans-55"/>
       <use x="266.064453" xlink:href="#DejaVuSans-52"/>
       <use x="329.6875" xlink:href="#DejaVuSans-52"/>
       <use x="393.310547" xlink:href="#DejaVuSans-51"/>
       <use x="456.933594" xlink:href="#DejaVuSans-52"/>
       <use x="520.556641" xlink:href="#DejaVuSans-54"/>
       <use x="584.179688" xlink:href="#DejaVuSans-56"/>
      </g>
     </g>
    </g>
    <g id="ytick_15">
     <g id="text_22">
      <!-- SRR7443469 -->
      <g transform="translate(7.2 363.252418)scale(0.08 -0.08)">
       <use xlink:href="#DejaVuSans-83"/>
       <use x="63.476562" xlink:href="#DejaVuSans-82"/>
       <use x="132.958984" xlink:href="#DejaVuSans-82"/>
       <use x="202.441406" xlink:href="#DejaVuSans-55"/>
       <use x="266.064453" xlink:href="#DejaVuSans-52"/>
       <use x="329.6875" xlink:href="#DejaVuSans-52"/>
       <use x="393.310547" xlink:href="#DejaVuSans-51"/>
       <use x="456.933594" xlink:href="#DejaVuSans-52"/>
       <use x="520.556641" xlink:href="#DejaVuSans-54"/>
       <use x="584.179688" xlink:href="#DejaVuSans-57"/>
      </g>
     </g>
    </g>
    <g id="ytick_16">
     <g id="text_23">
      <!-- SRR7443470 -->
      <g transform="translate(7.2 387.356766)scale(0.08 -0.08)">
       <use xlink:href="#DejaVuSans-83"/>
       <use x="63.476562" xlink:href="#DejaVuSans-82"/>
       <use x="132.958984" xlink:href="#DejaVuSans-82"/>
       <use x="202.441406" xlink:href="#DejaVuSans-55"/>
       <use x="266.064453" xlink:href="#DejaVuSans-52"/>
       <use x="329.6875" xlink:href="#DejaVuSans-52"/>
       <use x="393.310547" xlink:href="#DejaVuSans-51"/>
       <use x="456.933594" xlink:href="#DejaVuSans-52"/>
       <use x="520.556641" xlink:href="#DejaVuSans-55"/>
       <use x="584.179688" xlink:href="#DejaVuSans-48"/>
      </g>
     </g>
    </g>
    <g id="ytick_17">
     <g id="text_24">
      <!-- SRR7443471 -->
      <g transform="translate(7.2 411.461114)scale(0.08 -0.08)">
       <use xlink:href="#DejaVuSans-83"/>
       <use x="63.476562" xlink:href="#DejaVuSans-82"/>
       <use x="132.958984" xlink:href="#DejaVuSans-82"/>
       <use x="202.441406" xlink:href="#DejaVuSans-55"/>
       <use x="266.064453" xlink:href="#DejaVuSans-52"/>
       <use x="329.6875" xlink:href="#DejaVuSans-52"/>
       <use x="393.310547" xlink:href="#DejaVuSans-51"/>
       <use x="456.933594" xlink:href="#DejaVuSans-52"/>
       <use x="520.556641" xlink:href="#DejaVuSans-55"/>
       <use x="584.179688" xlink:href="#DejaVuSans-49"/>
      </g>
     </g>
    </g>
    <g id="ytick_18">
     <g id="text_25">
      <!-- SRR7443472 -->
      <g transform="translate(7.2 435.565462)scale(0.08 -0.08)">
       <use xlink:href="#DejaVuSans-83"/>
       <use x="63.476562" xlink:href="#DejaVuSans-82"/>
       <use x="132.958984" xlink:href="#DejaVuSans-82"/>
       <use x="202.441406" xlink:href="#DejaVuSans-55"/>
       <use x="266.064453" xlink:href="#DejaVuSans-52"/>
       <use x="329.6875" xlink:href="#DejaVuSans-52"/>
       <use x="393.310547" xlink:href="#DejaVuSans-51"/>
       <use x="456.933594" xlink:href="#DejaVuSans-52"/>
       <use x="520.556641" xlink:href="#DejaVuSans-55"/>
       <use x="584.179688" xlink:href="#DejaVuSans-50"/>
      </g>
     </g>
    </g>
   </g>
   <g id="patch_3">
    <path clip-path="url(#pfb4c132c74)" d="M 66.02625 13.110435 
L 543.978917 13.110435 
L 543.978917 32.393913 
L 66.02625 32.393913 
z
" style="fill:#7cb5ec;"/>
   </g>
   <g id="patch_4">
    <path clip-path="url(#pfb4c132c74)" d="M 66.02625 37.214783 
L 643.334876 37.214783 
L 643.334876 56.498261 
L 66.02625 56.498261 
z
" style="fill:#7cb5ec;"/>
   </g>
   <g id="patch_5">
    <path clip-path="url(#pfb4c132c74)" d="M 66.02625 61.31913 
L 600.092549 61.31913 
L 600.092549 80.602609 
L 66.02625 80.602609 
z
" style="fill:#7cb5ec;"/>
   </g>
   <g id="patch_6">
    <path clip-path="url(#pfb4c132c74)" d="M 66.02625 85.423478 
L 629.494844 85.423478 
L 629.494844 104.706957 
L 66.02625 104.706957 
z
" style="fill:#7cb5ec;"/>
   </g>
   <g id="patch_7">
    <path clip-path="url(#pfb4c132c74)" d="M 66.02625 109.527826 
L 610.881731 109.527826 
L 610.881731 128.811304 
L 66.02625 128.811304 
z
" style="fill:#7cb5ec;"/>
   </g>
   <g id="patch_8">
    <path clip-path="url(#pfb4c132c74)" d="M 66.02625 133.632174 
L 533.608924 133.632174 
L 533.608924 152.915652 
L 66.02625 152.915652 
z
" style="fill:#7cb5ec;"/>
   </g>
   <g id="patch_9">
    <path clip-path="url(#pfb4c132c74)" d="M 66.02625 157.736522 
L 578.324119 157.736522 
L 578.324119 177.02 
L 66.02625 177.02 
z
" style="fill:#7cb5ec;"/>
   </g>
   <g id="patch_10">
    <path clip-path="url(#pfb4c132c74)" d="M 66.02625 181.84087 
L 601.27052 181.84087 
L 601.27052 201.124348 
L 66.02625 201.124348 
z
" style="fill:#7cb5ec;"/>
   </g>
   <g id="patch_11">
    <path clip-path="url(#pfb4c132c74)" d="M 66.02625 205.945217 
L 572.85787 205.945217 
L 572.85787 225.228696 
L 66.02625 225.228696 
z
" style="fill:#7cb5ec;"/>
   </g>
   <g id="patch_12">
    <path clip-path="url(#pfb4c132c74)" d="M 66.02625 230.049565 
L 611.274458 230.049565 
L 611.274458 249.333043 
L 66.02625 249.333043 
z
" style="fill:#7cb5ec;"/>
   </g>
   <g id="patch_13">
    <path clip-path="url(#pfb4c132c74)" d="M 66.02625 254.153913 
L 657.557778 254.153913 
L 657.557778 273.437391 
L 66.02625 273.437391 
z
" style="fill:#7cb5ec;"/>
   </g>
   <g id="patch_14">
    <path clip-path="url(#pfb4c132c74)" d="M 66.02625 278.258261 
L 621.625119 278.258261 
L 621.625119 297.541739 
L 66.02625 297.541739 
z
" style="fill:#7cb5ec;"/>
   </g>
   <g id="patch_15">
    <path clip-path="url(#pfb4c132c74)" d="M 66.02625 302.362609 
L 565.782903 302.362609 
L 565.782903 321.646087 
L 66.02625 321.646087 
z
" style="fill:#7cb5ec;"/>
   </g>
   <g id="patch_16">
    <path clip-path="url(#pfb4c132c74)" d="M 66.02625 326.466957 
L 586.795525 326.466957 
L 586.795525 345.750435 
L 66.02625 345.750435 
z
" style="fill:#7cb5ec;"/>
   </g>
   <g id="patch_17">
    <path clip-path="url(#pfb4c132c74)" d="M 66.02625 350.571304 
L 565.280051 350.571304 
L 565.280051 369.854783 
L 66.02625 369.854783 
z
" style="fill:#7cb5ec;"/>
   </g>
   <g id="patch_18">
    <path clip-path="url(#pfb4c132c74)" d="M 66.02625 374.675652 
L 577.156567 374.675652 
L 577.156567 393.95913 
L 66.02625 393.95913 
z
" style="fill:#7cb5ec;"/>
   </g>
   <g id="patch_19">
    <path clip-path="url(#pfb4c132c74)" d="M 66.02625 398.78 
L 602.653402 398.78 
L 602.653402 418.063478 
L 66.02625 418.063478 
z
" style="fill:#7cb5ec;"/>
   </g>
   <g id="patch_20">
    <path clip-path="url(#pfb4c132c74)" d="M 66.02625 422.884348 
L 614.144227 422.884348 
L 614.144227 442.167826 
L 66.02625 442.167826 
z
" style="fill:#7cb5ec;"/>
   </g>
   <g id="patch_21">
    <path clip-path="url(#pfb4c132c74)" d="M 543.978917 13.110435 
L 557.476906 13.110435 
L 557.476906 32.393913 
L 543.978917 32.393913 
z
" style="fill:#434348;"/>
   </g>
   <g id="patch_22">
    <path clip-path="url(#pfb4c132c74)" d="M 643.334876 37.214783 
L 671.764158 37.214783 
L 671.764158 56.498261 
L 643.334876 56.498261 
z
" style="fill:#434348;"/>
   </g>
   <g id="patch_23">
    <path clip-path="url(#pfb4c132c74)" d="M 600.092549 61.31913 
L 615.293118 61.31913 
L 615.293118 80.602609 
L 600.092549 80.602609 
z
" style="fill:#434348;"/>
   </g>
   <g id="patch_24">
    <path clip-path="url(#pfb4c132c74)" d="M 629.494844 85.423478 
L 652.182294 85.423478 
L 652.182294 104.706957 
L 629.494844 104.706957 
z
" style="fill:#434348;"/>
   </g>
   <g id="patch_25">
    <path clip-path="url(#pfb4c132c74)" d="M 610.881731 109.527826 
L 629.526631 109.527826 
L 629.526631 128.811304 
L 610.881731 128.811304 
z
" style="fill:#434348;"/>
   </g>
   <g id="patch_26">
    <path clip-path="url(#pfb4c132c74)" d="M 533.608924 133.632174 
L 547.802529 133.632174 
L 547.802529 152.915652 
L 533.608924 152.915652 
z
" style="fill:#434348;"/>
   </g>
   <g id="patch_27">
    <path clip-path="url(#pfb4c132c74)" d="M 578.324119 157.736522 
L 595.985391 157.736522 
L 595.985391 177.02 
L 578.324119 177.02 
z
" style="fill:#434348;"/>
   </g>
   <g id="patch_28">
    <path clip-path="url(#pfb4c132c74)" d="M 601.27052 181.84087 
L 620.198235 181.84087 
L 620.198235 201.124348 
L 601.27052 201.124348 
z
" style="fill:#434348;"/>
   </g>
   <g id="patch_29">
    <path clip-path="url(#pfb4c132c74)" d="M 572.85787 205.945217 
L 587.787507 205.945217 
L 587.787507 225.228696 
L 572.85787 225.228696 
z
" style="fill:#434348;"/>
   </g>
   <g id="patch_30">
    <path clip-path="url(#pfb4c132c74)" d="M 611.274458 230.049565 
L 630.090443 230.049565 
L 630.090443 249.333043 
L 611.274458 249.333043 
z
" style="fill:#434348;"/>
   </g>
   <g id="patch_31">
    <path clip-path="url(#pfb4c132c74)" d="M 657.557778 254.153913 
L 683.107449 254.153913 
L 683.107449 273.437391 
L 657.557778 273.437391 
z
" style="fill:#434348;"/>
   </g>
   <g id="patch_32">
    <path clip-path="url(#pfb4c132c74)" d="M 621.625119 278.258261 
L 641.442254 278.258261 
L 641.442254 297.541739 
L 621.625119 297.541739 
z
" style="fill:#434348;"/>
   </g>
   <g id="patch_33">
    <path clip-path="url(#pfb4c132c74)" d="M 565.782903 302.362609 
L 580.771745 302.362609 
L 580.771745 321.646087 
L 565.782903 321.646087 
z
" style="fill:#434348;"/>
   </g>
   <g id="patch_34">
    <path clip-path="url(#pfb4c132c74)" d="M 586.795525 326.466957 
L 603.987363 326.466957 
L 603.987363 345.750435 
L 586.795525 345.750435 
z
" style="fill:#434348;"/>
   </g>
   <g id="patch_35">
    <path clip-path="url(#pfb4c132c74)" d="M 565.280051 350.571304 
L 579.276486 350.571304 
L 579.276486 369.854783 
L 565.280051 369.854783 
z
" style="fill:#434348;"/>
   </g>
   <g id="patch_36">
    <path clip-path="url(#pfb4c132c74)" d="M 577.156567 374.675652 
L 593.555987 374.675652 
L 593.555987 393.95913 
L 577.156567 393.95913 
z
" style="fill:#434348;"/>
   </g>
   <g id="patch_37">
    <path clip-path="url(#pfb4c132c74)" d="M 602.653402 398.78 
L 619.512555 398.78 
L 619.512555 418.063478 
L 602.653402 418.063478 
z
" style="fill:#434348;"/>
   </g>
   <g id="patch_38">
    <path clip-path="url(#pfb4c132c74)" d="M 614.144227 422.884348 
L 632.056485 422.884348 
L 632.056485 442.167826 
L 614.144227 442.167826 
z
" style="fill:#434348;"/>
   </g>
   <g id="patch_39">
    <path clip-path="url(#pfb4c132c74)" d="M 557.476906 13.110435 
L 643.366952 13.110435 
L 643.366952 32.393913 
L 557.476906 32.393913 
z
" style="fill:#90ed7d;"/>
   </g>
   <g id="patch_40">
    <path clip-path="url(#pfb4c132c74)" d="M 671.764158 37.214783 
L 715.428944 37.214783 
L 715.428944 56.498261 
L 671.764158 56.498261 
z
" style="fill:#90ed7d;"/>
   </g>
   <g id="patch_41">
    <path clip-path="url(#pfb4c132c74)" d="M 615.293118 61.31913 
L 705.134851 61.31913 
L 705.134851 80.602609 
L 615.293118 80.602609 
z
" style="fill:#90ed7d;"/>
   </g>
   <g id="patch_42">
    <path clip-path="url(#pfb4c132c74)" d="M 652.182294 85.423478 
L 717.3027 85.423478 
L 717.3027 104.706957 
L 652.182294 104.706957 
z
" style="fill:#90ed7d;"/>
   </g>
   <g id="patch_43">
    <path clip-path="url(#pfb4c132c74)" d="M 629.526631 109.527826 
L 709.633371 109.527826 
L 709.633371 128.811304 
L 629.526631 128.811304 
z
" style="fill:#90ed7d;"/>
   </g>
   <g id="patch_44">
    <path clip-path="url(#pfb4c132c74)" d="M 547.802529 133.632174 
L 614.227791 133.632174 
L 614.227791 152.915652 
L 547.802529 152.915652 
z
" style="fill:#90ed7d;"/>
   </g>
   <g id="patch_45">
    <path clip-path="url(#pfb4c132c74)" d="M 595.985391 157.736522 
L 667.137055 157.736522 
L 667.137055 177.02 
L 595.985391 177.02 
z
" style="fill:#90ed7d;"/>
   </g>
   <g id="patch_46">
    <path clip-path="url(#pfb4c132c74)" d="M 620.198235 181.84087 
L 694.759426 181.84087 
L 694.759426 201.124348 
L 620.198235 201.124348 
z
" style="fill:#90ed7d;"/>
   </g>
   <g id="patch_47">
    <path clip-path="url(#pfb4c132c74)" d="M 587.787507 205.945217 
L 671.116315 205.945217 
L 671.116315 225.228696 
L 587.787507 225.228696 
z
" style="fill:#90ed7d;"/>
   </g>
   <g id="patch_48">
    <path clip-path="url(#pfb4c132c74)" d="M 630.090443 230.049565 
L 695.236073 230.049565 
L 695.236073 249.333043 
L 630.090443 249.333043 
z
" style="fill:#90ed7d;"/>
   </g>
   <g id="patch_49">
    <path clip-path="url(#pfb4c132c74)" d="M 683.107449 254.153913 
L 734.061808 254.153913 
L 734.061808 273.437391 
L 683.107449 273.437391 
z
" style="fill:#90ed7d;"/>
   </g>
   <g id="patch_50">
    <path clip-path="url(#pfb4c132c74)" d="M 641.442254 278.258261 
L 707.181362 278.258261 
L 707.181362 297.541739 
L 641.442254 297.541739 
z
" style="fill:#90ed7d;"/>
   </g>
   <g id="patch_51">
    <path clip-path="url(#pfb4c132c74)" d="M 580.771745 302.362609 
L 658.806376 302.362609 
L 658.806376 321.646087 
L 580.771745 321.646087 
z
" style="fill:#90ed7d;"/>
   </g>
   <g id="patch_52">
    <path clip-path="url(#pfb4c132c74)" d="M 603.987363 326.466957 
L 677.353651 326.466957 
L 677.353651 345.750435 
L 603.987363 345.750435 
z
" style="fill:#90ed7d;"/>
   </g>
   <g id="patch_53">
    <path clip-path="url(#pfb4c132c74)" d="M 579.276486 350.571304 
L 649.92533 350.571304 
L 649.92533 369.854783 
L 579.276486 369.854783 
z
" style="fill:#90ed7d;"/>
   </g>
   <g id="patch_54">
    <path clip-path="url(#pfb4c132c74)" d="M 593.555987 374.675652 
L 663.592076 374.675652 
L 663.592076 393.95913 
L 593.555987 393.95913 
z
" style="fill:#90ed7d;"/>
   </g>
   <g id="patch_55">
    <path clip-path="url(#pfb4c132c74)" d="M 619.512555 398.78 
L 683.953593 398.78 
L 683.953593 418.063478 
L 619.512555 418.063478 
z
" style="fill:#90ed7d;"/>
   </g>
   <g id="patch_56">
    <path clip-path="url(#pfb4c132c74)" d="M 632.056485 422.884348 
L 706.917046 422.884348 
L 706.917046 442.167826 
L 632.056485 442.167826 
z
" style="fill:#90ed7d;"/>
   </g>
   <g id="patch_57">
    <path clip-path="url(#pfb4c132c74)" d="M 643.366952 13.110435 
L 662.174561 13.110435 
L 662.174561 32.393913 
L 643.366952 32.393913 
z
" style="fill:#f7a35c;"/>
   </g>
   <g id="patch_58">
    <path clip-path="url(#pfb4c132c74)" d="M 715.428944 37.214783 
L 733.884917 37.214783 
L 733.884917 56.498261 
L 715.428944 56.498261 
z
" style="fill:#f7a35c;"/>
   </g>
   <g id="patch_59">
    <path clip-path="url(#pfb4c132c74)" d="M 705.134851 61.31913 
L 723.244339 61.31913 
L 723.244339 80.602609 
L 705.134851 80.602609 
z
" style="fill:#f7a35c;"/>
   </g>
   <g id="patch_60">
    <path clip-path="url(#pfb4c132c74)" d="M 717.3027 85.423478 
L 737.827344 85.423478 
L 737.827344 104.706957 
L 717.3027 104.706957 
z
" style="fill:#f7a35c;"/>
   </g>
   <g id="patch_61">
    <path clip-path="url(#pfb4c132c74)" d="M 709.633371 109.527826 
L 729.217528 109.527826 
L 729.217528 128.811304 
L 709.633371 128.811304 
z
" style="fill:#f7a35c;"/>
   </g>
   <g id="patch_62">
    <path clip-path="url(#pfb4c132c74)" d="M 614.227791 133.632174 
L 638.449352 133.632174 
L 638.449352 152.915652 
L 614.227791 152.915652 
z
" style="fill:#f7a35c;"/>
   </g>
   <g id="patch_63">
    <path clip-path="url(#pfb4c132c74)" d="M 667.137055 157.736522 
L 688.138885 157.736522 
L 688.138885 177.02 
L 667.137055 177.02 
z
" style="fill:#f7a35c;"/>
   </g>
   <g id="patch_64">
    <path clip-path="url(#pfb4c132c74)" d="M 694.759426 181.84087 
L 715.481356 181.84087 
L 715.481356 201.124348 
L 694.759426 201.124348 
z
" style="fill:#f7a35c;"/>
   </g>
   <g id="patch_65">
    <path clip-path="url(#pfb4c132c74)" d="M 671.116315 205.945217 
L 688.926808 205.945217 
L 688.926808 225.228696 
L 671.116315 225.228696 
z
" style="fill:#f7a35c;"/>
   </g>
   <g id="patch_66">
    <path clip-path="url(#pfb4c132c74)" d="M 695.236073 230.049565 
L 713.755824 230.049565 
L 713.755824 249.333043 
L 695.236073 249.333043 
z
" style="fill:#f7a35c;"/>
   </g>
   <g id="patch_67">
    <path clip-path="url(#pfb4c132c74)" d="M 734.061808 254.153913 
L 749.812631 254.153913 
L 749.812631 273.437391 
L 734.061808 273.437391 
z
" style="fill:#f7a35c;"/>
   </g>
   <g id="patch_68">
    <path clip-path="url(#pfb4c132c74)" d="M 707.181362 278.258261 
L 723.976445 278.258261 
L 723.976445 297.541739 
L 707.181362 297.541739 
z
" style="fill:#f7a35c;"/>
   </g>
   <g id="patch_69">
    <path clip-path="url(#pfb4c132c74)" d="M 658.806376 302.362609 
L 677.544906 302.362609 
L 677.544906 321.646087 
L 658.806376 321.646087 
z
" style="fill:#f7a35c;"/>
   </g>
   <g id="patch_70">
    <path clip-path="url(#pfb4c132c74)" d="M 677.353651 326.466957 
L 695.817499 326.466957 
L 695.817499 345.750435 
L 677.353651 345.750435 
z
" style="fill:#f7a35c;"/>
   </g>
   <g id="patch_71">
    <path clip-path="url(#pfb4c132c74)" d="M 649.92533 350.571304 
L 668.685078 350.571304 
L 668.685078 369.854783 
L 649.92533 369.854783 
z
" style="fill:#f7a35c;"/>
   </g>
   <g id="patch_72">
    <path clip-path="url(#pfb4c132c74)" d="M 663.592076 374.675652 
L 683.650602 374.675652 
L 683.650602 393.95913 
L 663.592076 393.95913 
z
" style="fill:#f7a35c;"/>
   </g>
   <g id="patch_73">
    <path clip-path="url(#pfb4c132c74)" d="M 683.953593 398.78 
L 701.20731 398.78 
L 701.20731 418.063478 
L 683.953593 418.063478 
z
" style="fill:#f7a35c;"/>
   </g>
   <g id="patch_74">
    <path clip-path="url(#pfb4c132c74)" d="M 706.917046 422.884348 
L 724.490879 422.884348 
L 724.490879 442.167826 
L 706.917046 442.167826 
z
" style="fill:#f7a35c;"/>
   </g>
   <g id="patch_75">
    <path clip-path="url(#pfb4c132c74)" d="M 662.174561 13.110435 
L 664.955458 13.110435 
L 664.955458 32.393913 
L 662.174561 32.393913 
z
" style="fill:#8085e9;"/>
   </g>
   <g id="patch_76">
    <path clip-path="url(#pfb4c132c74)" d="M 733.884917 37.214783 
L 736.974775 37.214783 
L 736.974775 56.498261 
L 733.884917 56.498261 
z
" style="fill:#8085e9;"/>
   </g>
   <g id="patch_77">
    <path clip-path="url(#pfb4c132c74)" d="M 723.244339 61.31913 
L 725.364188 61.31913 
L 725.364188 80.602609 
L 723.244339 80.602609 
z
" style="fill:#8085e9;"/>
   </g>
   <g id="patch_78">
    <path clip-path="url(#pfb4c132c74)" d="M 737.827344 85.423478 
L 740.638975 85.423478 
L 740.638975 104.706957 
L 737.827344 104.706957 
z
" style="fill:#8085e9;"/>
   </g>
   <g id="patch_79">
    <path clip-path="url(#pfb4c132c74)" d="M 729.217528 109.527826 
L 731.474273 109.527826 
L 731.474273 128.811304 
L 729.217528 128.811304 
z
" style="fill:#8085e9;"/>
   </g>
   <g id="patch_80">
    <path clip-path="url(#pfb4c132c74)" d="M 638.449352 133.632174 
L 640.728914 133.632174 
L 640.728914 152.915652 
L 638.449352 152.915652 
z
" style="fill:#8085e9;"/>
   </g>
   <g id="patch_81">
    <path clip-path="url(#pfb4c132c74)" d="M 688.138885 157.736522 
L 690.639288 157.736522 
L 690.639288 177.02 
L 688.138885 177.02 
z
" style="fill:#8085e9;"/>
   </g>
   <g id="patch_82">
    <path clip-path="url(#pfb4c132c74)" d="M 715.481356 181.84087 
L 717.8781 181.84087 
L 717.8781 201.124348 
L 715.481356 201.124348 
z
" style="fill:#8085e9;"/>
   </g>
   <g id="patch_83">
    <path clip-path="url(#pfb4c132c74)" d="M 688.926808 205.945217 
L 691.463517 205.945217 
L 691.463517 225.228696 
L 688.926808 225.228696 
z
" style="fill:#8085e9;"/>
   </g>
   <g id="patch_84">
    <path clip-path="url(#pfb4c132c74)" d="M 713.755824 230.049565 
L 716.343612 230.049565 
L 716.343612 249.333043 
L 713.755824 249.333043 
z
" style="fill:#8085e9;"/>
   </g>
   <g id="patch_85">
    <path clip-path="url(#pfb4c132c74)" d="M 749.812631 254.153913 
L 752.886747 254.153913 
L 752.886747 273.437391 
L 749.812631 273.437391 
z
" style="fill:#8085e9;"/>
   </g>
   <g id="patch_86">
    <path clip-path="url(#pfb4c132c74)" d="M 723.976445 278.258261 
L 726.846605 278.258261 
L 726.846605 297.541739 
L 723.976445 297.541739 
z
" style="fill:#8085e9;"/>
   </g>
   <g id="patch_87">
    <path clip-path="url(#pfb4c132c74)" d="M 677.544906 302.362609 
L 679.897181 302.362609 
L 679.897181 321.646087 
L 677.544906 321.646087 
z
" style="fill:#8085e9;"/>
   </g>
   <g id="patch_88">
    <path clip-path="url(#pfb4c132c74)" d="M 695.817499 326.466957 
L 698.463851 326.466957 
L 698.463851 345.750435 
L 695.817499 345.750435 
z
" style="fill:#8085e9;"/>
   </g>
   <g id="patch_89">
    <path clip-path="url(#pfb4c132c74)" d="M 668.685078 350.571304 
L 670.887068 350.571304 
L 670.887068 369.854783 
L 668.685078 369.854783 
z
" style="fill:#8085e9;"/>
   </g>
   <g id="patch_90">
    <path clip-path="url(#pfb4c132c74)" d="M 683.650602 374.675652 
L 686.153761 374.675652 
L 686.153761 393.95913 
L 683.650602 393.95913 
z
" style="fill:#8085e9;"/>
   </g>
   <g id="patch_91">
    <path clip-path="url(#pfb4c132c74)" d="M 701.20731 398.78 
L 703.474696 398.78 
L 703.474696 418.063478 
L 701.20731 418.063478 
z
" style="fill:#8085e9;"/>
   </g>
   <g id="patch_92">
    <path clip-path="url(#pfb4c132c74)" d="M 724.490879 422.884348 
L 727.055983 422.884348 
L 727.055983 442.167826 
L 724.490879 442.167826 
z
" style="fill:#8085e9;"/>
   </g>
   <g id="patch_93">
    <path clip-path="url(#pfb4c132c74)" d="M 664.955458 13.110435 
L 669.81163 13.110435 
L 669.81163 32.393913 
L 664.955458 32.393913 
z
" style="fill:#f15c80;"/>
   </g>
   <g id="patch_94">
    <path clip-path="url(#pfb4c132c74)" d="M 736.974775 37.214783 
L 742.151509 37.214783 
L 742.151509 56.498261 
L 736.974775 56.498261 
z
" style="fill:#f15c80;"/>
   </g>
   <g id="patch_95">
    <path clip-path="url(#pfb4c132c74)" d="M 725.364188 61.31913 
L 729.114069 61.31913 
L 729.114069 80.602609 
L 725.364188 80.602609 
z
" style="fill:#f15c80;"/>
   </g>
   <g id="patch_96">
    <path clip-path="url(#pfb4c132c74)" d="M 740.638975 85.423478 
L 745.248554 85.423478 
L 745.248554 104.706957 
L 740.638975 104.706957 
z
" style="fill:#f15c80;"/>
   </g>
   <g id="patch_97">
    <path clip-path="url(#pfb4c132c74)" d="M 731.474273 109.527826 
L 735.463135 109.527826 
L 735.463135 128.811304 
L 731.474273 128.811304 
z
" style="fill:#f15c80;"/>
   </g>
   <g id="patch_98">
    <path clip-path="url(#pfb4c132c74)" d="M 640.728914 133.632174 
L 644.781076 133.632174 
L 644.781076 152.915652 
L 640.728914 152.915652 
z
" style="fill:#f15c80;"/>
   </g>
   <g id="patch_99">
    <path clip-path="url(#pfb4c132c74)" d="M 690.639288 157.736522 
L 694.853637 157.736522 
L 694.853637 177.02 
L 690.639288 177.02 
z
" style="fill:#f15c80;"/>
   </g>
   <g id="patch_100">
    <path clip-path="url(#pfb4c132c74)" d="M 717.8781 181.84087 
L 722.021111 181.84087 
L 722.021111 201.124348 
L 717.8781 201.124348 
z
" style="fill:#f15c80;"/>
   </g>
   <g id="patch_101">
    <path clip-path="url(#pfb4c132c74)" d="M 691.463517 205.945217 
L 695.765703 205.945217 
L 695.765703 225.228696 
L 691.463517 225.228696 
z
" style="fill:#f15c80;"/>
   </g>
   <g id="patch_102">
    <path clip-path="url(#pfb4c132c74)" d="M 716.343612 230.049565 
L 720.893716 230.049565 
L 720.893716 249.333043 
L 716.343612 249.333043 
z
" style="fill:#f15c80;"/>
   </g>
   <g id="patch_103">
    <path clip-path="url(#pfb4c132c74)" d="M 752.886747 254.153913 
L 757.626864 254.153913 
L 757.626864 273.437391 
L 752.886747 273.437391 
z
" style="fill:#f15c80;"/>
   </g>
   <g id="patch_104">
    <path clip-path="url(#pfb4c132c74)" d="M 726.846605 278.258261 
L 731.471382 278.258261 
L 731.471382 297.541739 
L 726.846605 297.541739 
z
" style="fill:#f15c80;"/>
   </g>
   <g id="patch_105">
    <path clip-path="url(#pfb4c132c74)" d="M 679.897181 302.362609 
L 684.310445 302.362609 
L 684.310445 321.646087 
L 679.897181 321.646087 
z
" style="fill:#f15c80;"/>
   </g>
   <g id="patch_106">
    <path clip-path="url(#pfb4c132c74)" d="M 698.463851 326.466957 
L 702.983575 326.466957 
L 702.983575 345.750435 
L 698.463851 345.750435 
z
" style="fill:#f15c80;"/>
   </g>
   <g id="patch_107">
    <path clip-path="url(#pfb4c132c74)" d="M 670.887068 350.571304 
L 675.044475 350.571304 
L 675.044475 369.854783 
L 670.887068 369.854783 
z
" style="fill:#f15c80;"/>
   </g>
   <g id="patch_108">
    <path clip-path="url(#pfb4c132c74)" d="M 686.153761 374.675652 
L 690.812384 374.675652 
L 690.812384 393.95913 
L 686.153761 393.95913 
z
" style="fill:#f15c80;"/>
   </g>
   <g id="patch_109">
    <path clip-path="url(#pfb4c132c74)" d="M 703.474696 398.78 
L 707.655701 398.78 
L 707.655701 418.063478 
L 703.474696 418.063478 
z
" style="fill:#f15c80;"/>
   </g>
   <g id="patch_110">
    <path clip-path="url(#pfb4c132c74)" d="M 727.055983 422.884348 
L 731.376658 422.884348 
L 731.376658 442.167826 
L 727.055983 442.167826 
z
" style="fill:#f15c80;"/>
   </g>
   <g id="patch_111">
    <path clip-path="url(#pfb4c132c74)" d="M 669.81163 13.110435 
L 677.481581 13.110435 
L 677.481581 32.393913 
L 669.81163 32.393913 
z
" style="fill:#e4d354;"/>
   </g>
   <g id="patch_112">
    <path clip-path="url(#pfb4c132c74)" d="M 742.151509 37.214783 
L 749.210509 37.214783 
L 749.210509 56.498261 
L 742.151509 56.498261 
z
" style="fill:#e4d354;"/>
   </g>
   <g id="patch_113">
    <path clip-path="url(#pfb4c132c74)" d="M 729.114069 61.31913 
L 734.312918 61.31913 
L 734.312918 80.602609 
L 729.114069 80.602609 
z
" style="fill:#e4d354;"/>
   </g>
   <g id="patch_114">
    <path clip-path="url(#pfb4c132c74)" d="M 745.248554 85.423478 
L 751.36273 85.423478 
L 751.36273 104.706957 
L 745.248554 104.706957 
z
" style="fill:#e4d354;"/>
   </g>
   <g id="patch_115">
    <path clip-path="url(#pfb4c132c74)" d="M 735.463135 109.527826 
L 740.811633 109.527826 
L 740.811633 128.811304 
L 735.463135 128.811304 
z
" style="fill:#e4d354;"/>
   </g>
   <g id="patch_116">
    <path clip-path="url(#pfb4c132c74)" d="M 644.781076 133.632174 
L 651.630492 133.632174 
L 651.630492 152.915652 
L 644.781076 152.915652 
z
" style="fill:#e4d354;"/>
   </g>
   <g id="patch_117">
    <path clip-path="url(#pfb4c132c74)" d="M 694.853637 157.736522 
L 701.115596 157.736522 
L 701.115596 177.02 
L 694.853637 177.02 
z
" style="fill:#e4d354;"/>
   </g>
   <g id="patch_118">
    <path clip-path="url(#pfb4c132c74)" d="M 722.021111 181.84087 
L 727.776642 181.84087 
L 727.776642 201.124348 
L 722.021111 201.124348 
z
" style="fill:#e4d354;"/>
   </g>
   <g id="patch_119">
    <path clip-path="url(#pfb4c132c74)" d="M 695.765703 205.945217 
L 702.015019 205.945217 
L 702.015019 225.228696 
L 695.765703 225.228696 
z
" style="fill:#e4d354;"/>
   </g>
   <g id="patch_120">
    <path clip-path="url(#pfb4c132c74)" d="M 720.893716 230.049565 
L 727.63658 230.049565 
L 727.63658 249.333043 
L 720.893716 249.333043 
z
" style="fill:#e4d354;"/>
   </g>
   <g id="patch_121">
    <path clip-path="url(#pfb4c132c74)" d="M 757.626864 254.153913 
L 763.658549 254.153913 
L 763.658549 273.437391 
L 757.626864 273.437391 
z
" style="fill:#e4d354;"/>
   </g>
   <g id="patch_122">
    <path clip-path="url(#pfb4c132c74)" d="M 731.471382 278.258261 
L 737.575826 278.258261 
L 737.575826 297.541739 
L 731.471382 297.541739 
z
" style="fill:#e4d354;"/>
   </g>
   <g id="patch_123">
    <path clip-path="url(#pfb4c132c74)" d="M 684.310445 302.362609 
L 691.292269 302.362609 
L 691.292269 321.646087 
L 684.310445 321.646087 
z
" style="fill:#e4d354;"/>
   </g>
   <g id="patch_124">
    <path clip-path="url(#pfb4c132c74)" d="M 702.983575 326.466957 
L 709.647152 326.466957 
L 709.647152 345.750435 
L 702.983575 345.750435 
z
" style="fill:#e4d354;"/>
   </g>
   <g id="patch_125">
    <path clip-path="url(#pfb4c132c74)" d="M 675.044475 350.571304 
L 681.597597 350.571304 
L 681.597597 369.854783 
L 675.044475 369.854783 
z
" style="fill:#e4d354;"/>
   </g>
   <g id="patch_126">
    <path clip-path="url(#pfb4c132c74)" d="M 690.812384 374.675652 
L 697.838058 374.675652 
L 697.838058 393.95913 
L 690.812384 393.95913 
z
" style="fill:#e4d354;"/>
   </g>
   <g id="patch_127">
    <path clip-path="url(#pfb4c132c74)" d="M 707.655701 398.78 
L 713.819683 398.78 
L 713.819683 418.063478 
L 707.655701 418.063478 
z
" style="fill:#e4d354;"/>
   </g>
   <g id="patch_128">
    <path clip-path="url(#pfb4c132c74)" d="M 731.376658 422.884348 
L 737.132494 422.884348 
L 737.132494 442.167826 
L 731.376658 442.167826 
z
" style="fill:#e4d354;"/>
   </g>
   <g id="patch_129">
    <path clip-path="url(#pfb4c132c74)" d="M 677.481581 13.110435 
L 694.281783 13.110435 
L 694.281783 32.393913 
L 677.481581 32.393913 
z
" style="fill:#2b908f;"/>
   </g>
   <g id="patch_130">
    <path clip-path="url(#pfb4c132c74)" d="M 749.210509 37.214783 
L 756.695459 37.214783 
L 756.695459 56.498261 
L 749.210509 56.498261 
z
" style="fill:#2b908f;"/>
   </g>
   <g id="patch_131">
    <path clip-path="url(#pfb4c132c74)" d="M 734.312918 61.31913 
L 747.667822 61.31913 
L 747.667822 80.602609 
L 734.312918 80.602609 
z
" style="fill:#2b908f;"/>
   </g>
   <g id="patch_132">
    <path clip-path="url(#pfb4c132c74)" d="M 751.36273 85.423478 
L 761.399191 85.423478 
L 761.399191 104.706957 
L 751.36273 104.706957 
z
" style="fill:#2b908f;"/>
   </g>
   <g id="patch_133">
    <path clip-path="url(#pfb4c132c74)" d="M 740.811633 109.527826 
L 753.535309 109.527826 
L 753.535309 128.811304 
L 740.811633 128.811304 
z
" style="fill:#2b908f;"/>
   </g>
   <g id="patch_134">
    <path clip-path="url(#pfb4c132c74)" d="M 651.630492 133.632174 
L 670.773938 133.632174 
L 670.773938 152.915652 
L 651.630492 152.915652 
z
" style="fill:#2b908f;"/>
   </g>
   <g id="patch_135">
    <path clip-path="url(#pfb4c132c74)" d="M 701.115596 157.736522 
L 715.640349 157.736522 
L 715.640349 177.02 
L 701.115596 177.02 
z
" style="fill:#2b908f;"/>
   </g>
   <g id="patch_136">
    <path clip-path="url(#pfb4c132c74)" d="M 727.776642 181.84087 
L 741.090796 181.84087 
L 741.090796 201.124348 
L 727.776642 201.124348 
z
" style="fill:#2b908f;"/>
   </g>
   <g id="patch_137">
    <path clip-path="url(#pfb4c132c74)" d="M 702.015019 205.945217 
L 717.724489 205.945217 
L 717.724489 225.228696 
L 702.015019 225.228696 
z
" style="fill:#2b908f;"/>
   </g>
   <g id="patch_138">
    <path clip-path="url(#pfb4c132c74)" d="M 727.63658 230.049565 
L 738.311915 230.049565 
L 738.311915 249.333043 
L 727.63658 249.333043 
z
" style="fill:#2b908f;"/>
   </g>
   <g id="patch_139">
    <path clip-path="url(#pfb4c132c74)" d="M 763.658549 254.153913 
L 771.751557 254.153913 
L 771.751557 273.437391 
L 763.658549 273.437391 
z
" style="fill:#2b908f;"/>
   </g>
   <g id="patch_140">
    <path clip-path="url(#pfb4c132c74)" d="M 737.575826 278.258261 
L 749.337914 278.258261 
L 749.337914 297.541739 
L 737.575826 297.541739 
z
" style="fill:#2b908f;"/>
   </g>
   <g id="patch_141">
    <path clip-path="url(#pfb4c132c74)" d="M 691.292269 302.362609 
L 706.293031 302.362609 
L 706.293031 321.646087 
L 691.292269 321.646087 
z
" style="fill:#2b908f;"/>
   </g>
   <g id="patch_142">
    <path clip-path="url(#pfb4c132c74)" d="M 709.647152 326.466957 
L 723.334623 326.466957 
L 723.334623 345.750435 
L 709.647152 345.750435 
z
" style="fill:#2b908f;"/>
   </g>
   <g id="patch_143">
    <path clip-path="url(#pfb4c132c74)" d="M 681.597597 350.571304 
L 696.044411 350.571304 
L 696.044411 369.854783 
L 681.597597 369.854783 
z
" style="fill:#2b908f;"/>
   </g>
   <g id="patch_144">
    <path clip-path="url(#pfb4c132c74)" d="M 697.838058 374.675652 
L 712.086993 374.675652 
L 712.086993 393.95913 
L 697.838058 393.95913 
z
" style="fill:#2b908f;"/>
   </g>
   <g id="patch_145">
    <path clip-path="url(#pfb4c132c74)" d="M 713.819683 398.78 
L 725.864986 398.78 
L 725.864986 418.063478 
L 713.819683 418.063478 
z
" style="fill:#2b908f;"/>
   </g>
   <g id="patch_146">
    <path clip-path="url(#pfb4c132c74)" d="M 737.132494 422.884348 
L 749.600419 422.884348 
L 749.600419 442.167826 
L 737.132494 442.167826 
z
" style="fill:#2b908f;"/>
   </g>
   <g id="patch_147">
    <path clip-path="url(#pfb4c132c74)" d="M 694.281783 13.110435 
L 720.077399 13.110435 
L 720.077399 32.393913 
L 694.281783 32.393913 
z
" style="fill:#f45b5b;"/>
   </g>
   <g id="patch_148">
    <path clip-path="url(#pfb4c132c74)" d="M 756.695459 37.214783 
L 769.642926 37.214783 
L 769.642926 56.498261 
L 756.695459 56.498261 
z
" style="fill:#f45b5b;"/>
   </g>
   <g id="patch_149">
    <path clip-path="url(#pfb4c132c74)" d="M 747.667822 61.31913 
L 767.682102 61.31913 
L 767.682102 80.602609 
L 747.667822 80.602609 
z
" style="fill:#f45b5b;"/>
   </g>
   <g id="patch_150">
    <path clip-path="url(#pfb4c132c74)" d="M 761.399191 85.423478 
L 777.371564 85.423478 
L 777.371564 104.706957 
L 761.399191 104.706957 
z
" style="fill:#f45b5b;"/>
   </g>
   <g id="patch_151">
    <path clip-path="url(#pfb4c132c74)" d="M 753.535309 109.527826 
L 772.780727 109.527826 
L 772.780727 128.811304 
L 753.535309 128.811304 
z
" style="fill:#f45b5b;"/>
   </g>
   <g id="patch_152">
    <path clip-path="url(#pfb4c132c74)" d="M 670.773938 133.632174 
L 702.6169 133.632174 
L 702.6169 152.915652 
L 670.773938 152.915652 
z
" style="fill:#f45b5b;"/>
   </g>
   <g id="patch_153">
    <path clip-path="url(#pfb4c132c74)" d="M 715.640349 157.736522 
L 738.466703 157.736522 
L 738.466703 177.02 
L 715.640349 177.02 
z
" style="fill:#f45b5b;"/>
   </g>
   <g id="patch_154">
    <path clip-path="url(#pfb4c132c74)" d="M 741.090796 181.84087 
L 761.565226 181.84087 
L 761.565226 201.124348 
L 741.090796 201.124348 
z
" style="fill:#f45b5b;"/>
   </g>
   <g id="patch_155">
    <path clip-path="url(#pfb4c132c74)" d="M 717.724489 205.945217 
L 741.536588 205.945217 
L 741.536588 225.228696 
L 717.724489 225.228696 
z
" style="fill:#f45b5b;"/>
   </g>
   <g id="patch_156">
    <path clip-path="url(#pfb4c132c74)" d="M 738.311915 230.049565 
L 755.566014 230.049565 
L 755.566014 249.333043 
L 738.311915 249.333043 
z
" style="fill:#f45b5b;"/>
   </g>
   <g id="patch_157">
    <path clip-path="url(#pfb4c132c74)" d="M 771.751557 254.153913 
L 784.505592 254.153913 
L 784.505592 273.437391 
L 771.751557 273.437391 
z
" style="fill:#f45b5b;"/>
   </g>
   <g id="patch_158">
    <path clip-path="url(#pfb4c132c74)" d="M 749.337914 278.258261 
L 767.116775 278.258261 
L 767.116775 297.541739 
L 749.337914 297.541739 
z
" style="fill:#f45b5b;"/>
   </g>
   <g id="patch_159">
    <path clip-path="url(#pfb4c132c74)" d="M 706.293031 302.362609 
L 730.10309 302.362609 
L 730.10309 321.646087 
L 706.293031 321.646087 
z
" style="fill:#f45b5b;"/>
   </g>
   <g id="patch_160">
    <path clip-path="url(#pfb4c132c74)" d="M 723.334623 326.466957 
L 744.904685 326.466957 
L 744.904685 345.750435 
L 723.334623 345.750435 
z
" style="fill:#f45b5b;"/>
   </g>
   <g id="patch_161">
    <path clip-path="url(#pfb4c132c74)" d="M 696.044411 350.571304 
L 720.446463 350.571304 
L 720.446463 369.854783 
L 696.044411 369.854783 
z
" style="fill:#f45b5b;"/>
   </g>
   <g id="patch_162">
    <path clip-path="url(#pfb4c132c74)" d="M 712.086993 374.675652 
L 735.322987 374.675652 
L 735.322987 393.95913 
L 712.086993 393.95913 
z
" style="fill:#f45b5b;"/>
   </g>
   <g id="patch_163">
    <path clip-path="url(#pfb4c132c74)" d="M 725.864986 398.78 
L 745.445389 398.78 
L 745.445389 418.063478 
L 725.864986 418.063478 
z
" style="fill:#f45b5b;"/>
   </g>
   <g id="patch_164">
    <path clip-path="url(#pfb4c132c74)" d="M 749.600419 422.884348 
L 768.532378 422.884348 
L 768.532378 442.167826 
L 749.600419 442.167826 
z
" style="fill:#f45b5b;"/>
   </g>
   <g id="patch_165">
    <path clip-path="url(#pfb4c132c74)" d="M 720.077399 13.110435 
L 750.628187 13.110435 
L 750.628187 32.393913 
L 720.077399 32.393913 
z
" style="fill:#91e8e1;"/>
   </g>
   <g id="patch_166">
    <path clip-path="url(#pfb4c132c74)" d="M 769.642926 37.214783 
L 785.376842 37.214783 
L 785.376842 56.498261 
L 769.642926 56.498261 
z
" style="fill:#91e8e1;"/>
   </g>
   <g id="patch_167">
    <path clip-path="url(#pfb4c132c74)" d="M 767.682102 61.31913 
L 790.768966 61.31913 
L 790.768966 80.602609 
L 767.682102 80.602609 
z
" style="fill:#91e8e1;"/>
   </g>
   <g id="patch_168">
    <path clip-path="url(#pfb4c132c74)" d="M 777.371564 85.423478 
L 795.882253 85.423478 
L 795.882253 104.706957 
L 777.371564 104.706957 
z
" style="fill:#91e8e1;"/>
   </g>
   <g id="patch_169">
    <path clip-path="url(#pfb4c132c74)" d="M 772.780727 109.527826 
L 794.931921 109.527826 
L 794.931921 128.811304 
L 772.780727 128.811304 
z
" style="fill:#91e8e1;"/>
   </g>
   <g id="patch_170">
    <path clip-path="url(#pfb4c132c74)" d="M 702.6169 133.632174 
L 739.990141 133.632174 
L 739.990141 152.915652 
L 702.6169 152.915652 
z
" style="fill:#91e8e1;"/>
   </g>
   <g id="patch_171">
    <path clip-path="url(#pfb4c132c74)" d="M 738.466703 157.736522 
L 765.248147 157.736522 
L 765.248147 177.02 
L 738.466703 177.02 
z
" style="fill:#91e8e1;"/>
   </g>
   <g id="patch_172">
    <path clip-path="url(#pfb4c132c74)" d="M 761.565226 181.84087 
L 785.353435 181.84087 
L 785.353435 201.124348 
L 761.565226 201.124348 
z
" style="fill:#91e8e1;"/>
   </g>
   <g id="patch_173">
    <path clip-path="url(#pfb4c132c74)" d="M 741.536588 205.945217 
L 769.042969 205.945217 
L 769.042969 225.228696 
L 741.536588 225.228696 
z
" style="fill:#91e8e1;"/>
   </g>
   <g id="patch_174">
    <path clip-path="url(#pfb4c132c74)" d="M 755.566014 230.049565 
L 776.021016 230.049565 
L 776.021016 249.333043 
L 755.566014 249.333043 
z
" style="fill:#91e8e1;"/>
   </g>
   <g id="patch_175">
    <path clip-path="url(#pfb4c132c74)" d="M 784.505592 254.153913 
L 799.322575 254.153913 
L 799.322575 273.437391 
L 784.505592 273.437391 
z
" style="fill:#91e8e1;"/>
   </g>
   <g id="patch_176">
    <path clip-path="url(#pfb4c132c74)" d="M 767.116775 278.258261 
L 787.528243 278.258261 
L 787.528243 297.541739 
L 767.116775 297.541739 
z
" style="fill:#91e8e1;"/>
   </g>
   <g id="patch_177">
    <path clip-path="url(#pfb4c132c74)" d="M 730.10309 302.362609 
L 758.147905 302.362609 
L 758.147905 321.646087 
L 730.10309 321.646087 
z
" style="fill:#91e8e1;"/>
   </g>
   <g id="patch_178">
    <path clip-path="url(#pfb4c132c74)" d="M 744.904685 326.466957 
L 770.283407 326.466957 
L 770.283407 345.750435 
L 744.904685 345.750435 
z
" style="fill:#91e8e1;"/>
   </g>
   <g id="patch_179">
    <path clip-path="url(#pfb4c132c74)" d="M 720.446463 350.571304 
L 749.233826 350.571304 
L 749.233826 369.854783 
L 720.446463 369.854783 
z
" style="fill:#91e8e1;"/>
   </g>
   <g id="patch_180">
    <path clip-path="url(#pfb4c132c74)" d="M 735.322987 374.675652 
L 762.566063 374.675652 
L 762.566063 393.95913 
L 735.322987 393.95913 
z
" style="fill:#91e8e1;"/>
   </g>
   <g id="patch_181">
    <path clip-path="url(#pfb4c132c74)" d="M 745.445389 398.78 
L 768.532057 398.78 
L 768.532057 418.063478 
L 745.445389 418.063478 
z
" style="fill:#91e8e1;"/>
   </g>
   <g id="patch_182">
    <path clip-path="url(#pfb4c132c74)" d="M 768.532378 422.884348 
L 790.252356 422.884348 
L 790.252356 442.167826 
L 768.532378 442.167826 
z
" style="fill:#91e8e1;"/>
   </g>
   <g id="patch_183">
    <path clip-path="url(#pfb4c132c74)" d="M 750.628187 13.110435 
L 847.22625 13.110435 
L 847.22625 32.393913 
L 750.628187 32.393913 
z
" style="fill:#7cb5ec;"/>
   </g>
   <g id="patch_184">
    <path clip-path="url(#pfb4c132c74)" d="M 785.376842 37.214783 
L 847.22625 37.214783 
L 847.22625 56.498261 
L 785.376842 56.498261 
z
" style="fill:#7cb5ec;"/>
   </g>
   <g id="patch_185">
    <path clip-path="url(#pfb4c132c74)" d="M 790.768966 61.31913 
L 847.22625 61.31913 
L 847.22625 80.602609 
L 790.768966 80.602609 
z
" style="fill:#7cb5ec;"/>
   </g>
   <g id="patch_186">
    <path clip-path="url(#pfb4c132c74)" d="M 795.882253 85.423478 
L 847.22625 85.423478 
L 847.22625 104.706957 
L 795.882253 104.706957 
z
" style="fill:#7cb5ec;"/>
   </g>
   <g id="patch_187">
    <path clip-path="url(#pfb4c132c74)" d="M 794.931921 109.527826 
L 847.22625 109.527826 
L 847.22625 128.811304 
L 794.931921 128.811304 
z
" style="fill:#7cb5ec;"/>
   </g>
   <g id="patch_188">
    <path clip-path="url(#pfb4c132c74)" d="M 739.990141 133.632174 
L 847.22625 133.632174 
L 847.22625 152.915652 
L 739.990141 152.915652 
z
" style="fill:#7cb5ec;"/>
   </g>
   <g id="patch_189">
    <path clip-path="url(#pfb4c132c74)" d="M 765.248147 157.736522 
L 847.22625 157.736522 
L 847.22625 177.02 
L 765.248147 177.02 
z
" style="fill:#7cb5ec;"/>
   </g>
   <g id="patch_190">
    <path clip-path="url(#pfb4c132c74)" d="M 785.353435 181.84087 
L 847.22625 181.84087 
L 847.22625 201.124348 
L 785.353435 201.124348 
z
" style="fill:#7cb5ec;"/>
   </g>
   <g id="patch_191">
    <path clip-path="url(#pfb4c132c74)" d="M 769.042969 205.945217 
L 847.22625 205.945217 
L 847.22625 225.228696 
L 769.042969 225.228696 
z
" style="fill:#7cb5ec;"/>
   </g>
   <g id="patch_192">
    <path clip-path="url(#pfb4c132c74)" d="M 776.021016 230.049565 
L 847.22625 230.049565 
L 847.22625 249.333043 
L 776.021016 249.333043 
z
" style="fill:#7cb5ec;"/>
   </g>
   <g id="patch_193">
    <path clip-path="url(#pfb4c132c74)" d="M 799.322575 254.153913 
L 847.22625 254.153913 
L 847.22625 273.437391 
L 799.322575 273.437391 
z
" style="fill:#7cb5ec;"/>
   </g>
   <g id="patch_194">
    <path clip-path="url(#pfb4c132c74)" d="M 787.528243 278.258261 
L 847.22625 278.258261 
L 847.22625 297.541739 
L 787.528243 297.541739 
z
" style="fill:#7cb5ec;"/>
   </g>
   <g id="patch_195">
    <path clip-path="url(#pfb4c132c74)" d="M 758.147905 302.362609 
L 847.22625 302.362609 
L 847.22625 321.646087 
L 758.147905 321.646087 
z
" style="fill:#7cb5ec;"/>
   </g>
   <g id="patch_196">
    <path clip-path="url(#pfb4c132c74)" d="M 770.283407 326.466957 
L 847.22625 326.466957 
L 847.22625 345.750435 
L 770.283407 345.750435 
z
" style="fill:#7cb5ec;"/>
   </g>
   <g id="patch_197">
    <path clip-path="url(#pfb4c132c74)" d="M 749.233826 350.571304 
L 847.22625 350.571304 
L 847.22625 369.854783 
L 749.233826 369.854783 
z
" style="fill:#7cb5ec;"/>
   </g>
   <g id="patch_198">
    <path clip-path="url(#pfb4c132c74)" d="M 762.566063 374.675652 
L 847.22625 374.675652 
L 847.22625 393.95913 
L 762.566063 393.95913 
z
" style="fill:#7cb5ec;"/>
   </g>
   <g id="patch_199">
    <path clip-path="url(#pfb4c132c74)" d="M 768.532057 398.78 
L 847.22625 398.78 
L 847.22625 418.063478 
L 768.532057 418.063478 
z
" style="fill:#7cb5ec;"/>
   </g>
   <g id="patch_200">
    <path clip-path="url(#pfb4c132c74)" d="M 790.252356 422.884348 
L 847.22625 422.884348 
L 847.22625 442.167826 
L 790.252356 442.167826 
z
" style="fill:#7cb5ec;"/>
   </g>
   <g id="text_26">
    <!-- RSeQC: Read Distribution -->
    <defs>
     <path d="M 56.203125 29.59375 
L 56.203125 25.203125 
L 14.890625 25.203125 
Q 15.484375 15.921875 20.484375 11.0625 
Q 25.484375 6.203125 34.421875 6.203125 
Q 39.59375 6.203125 44.453125 7.46875 
Q 49.3125 8.734375 54.109375 11.28125 
L 54.109375 2.78125 
Q 49.265625 0.734375 44.1875 -0.34375 
Q 39.109375 -1.421875 33.890625 -1.421875 
Q 20.796875 -1.421875 13.15625 6.1875 
Q 5.515625 13.8125 5.515625 26.8125 
Q 5.515625 40.234375 12.765625 48.109375 
Q 20.015625 56 32.328125 56 
Q 43.359375 56 49.78125 48.890625 
Q 56.203125 41.796875 56.203125 29.59375 
z
M 47.21875 32.234375 
Q 47.125 39.59375 43.09375 43.984375 
Q 39.0625 48.390625 32.421875 48.390625 
Q 24.90625 48.390625 20.390625 44.140625 
Q 15.875 39.890625 15.1875 32.171875 
z
" id="DejaVuSans-101"/>
     <path d="M 39.40625 66.21875 
Q 28.65625 66.21875 22.328125 58.203125 
Q 16.015625 50.203125 16.015625 36.375 
Q 16.015625 22.609375 22.328125 14.59375 
Q 28.65625 6.59375 39.40625 6.59375 
Q 50.140625 6.59375 56.421875 14.59375 
Q 62.703125 22.609375 62.703125 36.375 
Q 62.703125 50.203125 56.421875 58.203125 
Q 50.140625 66.21875 39.40625 66.21875 
z
M 53.21875 1.3125 
L 66.21875 -12.890625 
L 54.296875 -12.890625 
L 43.5 -1.21875 
Q 41.890625 -1.3125 41.03125 -1.359375 
Q 40.1875 -1.421875 39.40625 -1.421875 
Q 24.03125 -1.421875 14.8125 8.859375 
Q 5.609375 19.140625 5.609375 36.375 
Q 5.609375 53.65625 14.8125 63.9375 
Q 24.03125 74.21875 39.40625 74.21875 
Q 54.734375 74.21875 63.90625 63.9375 
Q 73.09375 53.65625 73.09375 36.375 
Q 73.09375 23.6875 67.984375 14.640625 
Q 62.890625 5.609375 53.21875 1.3125 
z
" id="DejaVuSans-81"/>
     <path d="M 64.40625 67.28125 
L 64.40625 56.890625 
Q 59.421875 61.53125 53.78125 63.8125 
Q 48.140625 66.109375 41.796875 66.109375 
Q 29.296875 66.109375 22.65625 58.46875 
Q 16.015625 50.828125 16.015625 36.375 
Q 16.015625 21.96875 22.65625 14.328125 
Q 29.296875 6.6875 41.796875 6.6875 
Q 48.140625 6.6875 53.78125 8.984375 
Q 59.421875 11.28125 64.40625 15.921875 
L 64.40625 5.609375 
Q 59.234375 2.09375 53.4375 0.328125 
Q 47.65625 -1.421875 41.21875 -1.421875 
Q 24.65625 -1.421875 15.125 8.703125 
Q 5.609375 18.84375 5.609375 36.375 
Q 5.609375 53.953125 15.125 64.078125 
Q 24.65625 74.21875 41.21875 74.21875 
Q 47.75 74.21875 53.53125 72.484375 
Q 59.328125 70.75 64.40625 67.28125 
z
" id="DejaVuSans-67"/>
     <path d="M 11.71875 12.40625 
L 22.015625 12.40625 
L 22.015625 0 
L 11.71875 0 
z
M 11.71875 51.703125 
L 22.015625 51.703125 
L 22.015625 39.3125 
L 11.71875 39.3125 
z
" id="DejaVuSans-58"/>
     <path d="M 45.40625 46.390625 
L 45.40625 75.984375 
L 54.390625 75.984375 
L 54.390625 0 
L 45.40625 0 
L 45.40625 8.203125 
Q 42.578125 3.328125 38.25 0.953125 
Q 33.9375 -1.421875 27.875 -1.421875 
Q 17.96875 -1.421875 11.734375 6.484375 
Q 5.515625 14.40625 5.515625 27.296875 
Q 5.515625 40.1875 11.734375 48.09375 
Q 17.96875 56 27.875 56 
Q 33.9375 56 38.25 53.625 
Q 42.578125 51.265625 45.40625 46.390625 
z
M 14.796875 27.296875 
Q 14.796875 17.390625 18.875 11.75 
Q 22.953125 6.109375 30.078125 6.109375 
Q 37.203125 6.109375 41.296875 11.75 
Q 45.40625 17.390625 45.40625 27.296875 
Q 45.40625 37.203125 41.296875 42.84375 
Q 37.203125 48.484375 30.078125 48.484375 
Q 22.953125 48.484375 18.875 42.84375 
Q 14.796875 37.203125 14.796875 27.296875 
z
" id="DejaVuSans-100"/>
     <path d="M 19.671875 64.796875 
L 19.671875 8.109375 
L 31.59375 8.109375 
Q 46.6875 8.109375 53.6875 14.9375 
Q 60.6875 21.78125 60.6875 36.53125 
Q 60.6875 51.171875 53.6875 57.984375 
Q 46.6875 64.796875 31.59375 64.796875 
z
M 9.8125 72.90625 
L 30.078125 72.90625 
Q 51.265625 72.90625 61.171875 64.09375 
Q 71.09375 55.28125 71.09375 36.53125 
Q 71.09375 17.671875 61.125 8.828125 
Q 51.171875 0 30.078125 0 
L 9.8125 0 
z
" id="DejaVuSans-68"/>
     <path d="M 9.421875 54.6875 
L 18.40625 54.6875 
L 18.40625 0 
L 9.421875 0 
z
M 9.421875 75.984375 
L 18.40625 75.984375 
L 18.40625 64.59375 
L 9.421875 64.59375 
z
" id="DejaVuSans-105"/>
     <path d="M 18.3125 70.21875 
L 18.3125 54.6875 
L 36.8125 54.6875 
L 36.8125 47.703125 
L 18.3125 47.703125 
L 18.3125 18.015625 
Q 18.3125 11.328125 20.140625 9.421875 
Q 21.96875 7.515625 27.59375 7.515625 
L 36.8125 7.515625 
L 36.8125 0 
L 27.59375 0 
Q 17.1875 0 13.234375 3.875 
Q 9.28125 7.765625 9.28125 18.015625 
L 9.28125 47.703125 
L 2.6875 47.703125 
L 2.6875 54.6875 
L 9.28125 54.6875 
L 9.28125 70.21875 
z
" id="DejaVuSans-116"/>
     <path d="M 41.109375 46.296875 
Q 39.59375 47.171875 37.8125 47.578125 
Q 36.03125 48 33.890625 48 
Q 26.265625 48 22.1875 43.046875 
Q 18.109375 38.09375 18.109375 28.8125 
L 18.109375 0 
L 9.078125 0 
L 9.078125 54.6875 
L 18.109375 54.6875 
L 18.109375 46.1875 
Q 20.953125 51.171875 25.484375 53.578125 
Q 30.03125 56 36.53125 56 
Q 37.453125 56 38.578125 55.875 
Q 39.703125 55.765625 41.0625 55.515625 
z
" id="DejaVuSans-114"/>
     <path d="M 48.6875 27.296875 
Q 48.6875 37.203125 44.609375 42.84375 
Q 40.53125 48.484375 33.40625 48.484375 
Q 26.265625 48.484375 22.1875 42.84375 
Q 18.109375 37.203125 18.109375 27.296875 
Q 18.109375 17.390625 22.1875 11.75 
Q 26.265625 6.109375 33.40625 6.109375 
Q 40.53125 6.109375 44.609375 11.75 
Q 48.6875 17.390625 48.6875 27.296875 
z
M 18.109375 46.390625 
Q 20.953125 51.265625 25.265625 53.625 
Q 29.59375 56 35.59375 56 
Q 45.5625 56 51.78125 48.09375 
Q 58.015625 40.1875 58.015625 27.296875 
Q 58.015625 14.40625 51.78125 6.484375 
Q 45.5625 -1.421875 35.59375 -1.421875 
Q 29.59375 -1.421875 25.265625 0.953125 
Q 20.953125 3.328125 18.109375 8.203125 
L 18.109375 0 
L 9.078125 0 
L 9.078125 75.984375 
L 18.109375 75.984375 
z
" id="DejaVuSans-98"/>
     <path d="M 8.5 21.578125 
L 8.5 54.6875 
L 17.484375 54.6875 
L 17.484375 21.921875 
Q 17.484375 14.15625 20.5 10.265625 
Q 23.53125 6.390625 29.59375 6.390625 
Q 36.859375 6.390625 41.078125 11.03125 
Q 45.3125 15.671875 45.3125 23.6875 
L 45.3125 54.6875 
L 54.296875 54.6875 
L 54.296875 0 
L 45.3125 0 
L 45.3125 8.40625 
Q 42.046875 3.421875 37.71875 1 
Q 33.40625 -1.421875 27.6875 -1.421875 
Q 18.265625 -1.421875 13.375 4.4375 
Q 8.5 10.296875 8.5 21.578125 
z
M 31.109375 56 
z
" id="DejaVuSans-117"/>
     <path d="M 30.609375 48.390625 
Q 23.390625 48.390625 19.1875 42.75 
Q 14.984375 37.109375 14.984375 27.296875 
Q 14.984375 17.484375 19.15625 11.84375 
Q 23.34375 6.203125 30.609375 6.203125 
Q 37.796875 6.203125 41.984375 11.859375 
Q 46.1875 17.53125 46.1875 27.296875 
Q 46.1875 37.015625 41.984375 42.703125 
Q 37.796875 48.390625 30.609375 48.390625 
z
M 30.609375 56 
Q 42.328125 56 49.015625 48.375 
Q 55.71875 40.765625 55.71875 27.296875 
Q 55.71875 13.875 49.015625 6.21875 
Q 42.328125 -1.421875 30.609375 -1.421875 
Q 18.84375 -1.421875 12.171875 6.21875 
Q 5.515625 13.875 5.515625 27.296875 
Q 5.515625 40.765625 12.171875 48.375 
Q 18.84375 56 30.609375 56 
z
" id="DejaVuSans-111"/>
     <path d="M 54.890625 33.015625 
L 54.890625 0 
L 45.90625 0 
L 45.90625 32.71875 
Q 45.90625 40.484375 42.875 44.328125 
Q 39.84375 48.1875 33.796875 48.1875 
Q 26.515625 48.1875 22.3125 43.546875 
Q 18.109375 38.921875 18.109375 30.90625 
L 18.109375 0 
L 9.078125 0 
L 9.078125 54.6875 
L 18.109375 54.6875 
L 18.109375 46.1875 
Q 21.34375 51.125 25.703125 53.5625 
Q 30.078125 56 35.796875 56 
Q 45.21875 56 50.046875 50.171875 
Q 54.890625 44.34375 54.890625 33.015625 
z
" id="DejaVuSans-110"/>
    </defs>
    <g transform="translate(354.275 -17.02)scale(0.16 -0.16)">
     <use xlink:href="#DejaVuSans-82"/>
     <use x="69.482422" xlink:href="#DejaVuSans-83"/>
     <use x="132.958984" xlink:href="#DejaVuSans-101"/>
     <use x="194.482422" xlink:href="#DejaVuSans-81"/>
     <use x="273.193359" xlink:href="#DejaVuSans-67"/>
     <use x="343.017578" xlink:href="#DejaVuSans-58"/>
     <use x="376.708984" xlink:href="#DejaVuSans-32"/>
     <use x="408.496094" xlink:href="#DejaVuSans-82"/>
     <use x="477.916016" xlink:href="#DejaVuSans-101"/>
     <use x="539.439453" xlink:href="#DejaVuSans-97"/>
     <use x="600.71875" xlink:href="#DejaVuSans-100"/>
     <use x="664.195312" xlink:href="#DejaVuSans-32"/>
     <use x="695.982422" xlink:href="#DejaVuSans-68"/>
     <use x="772.984375" xlink:href="#DejaVuSans-105"/>
     <use x="800.767578" xlink:href="#DejaVuSans-115"/>
     <use x="852.867188" xlink:href="#DejaVuSans-116"/>
     <use x="892.076172" xlink:href="#DejaVuSans-114"/>
     <use x="933.189453" xlink:href="#DejaVuSans-105"/>
     <use x="960.972656" xlink:href="#DejaVuSans-98"/>
     <use x="1024.449219" xlink:href="#DejaVuSans-117"/>
     <use x="1087.828125" xlink:href="#DejaVuSans-116"/>
     <use x="1127.037109" xlink:href="#DejaVuSans-105"/>
     <use x="1154.820312" xlink:href="#DejaVuSans-111"/>
     <use x="1216.001953" xlink:href="#DejaVuSans-110"/>
    </g>
   </g>
   <g id="legend_1">
    <g id="patch_201">
     <path d="M 73.22625 494.722011 
L 89.22625 494.722011 
L 89.22625 489.122011 
L 73.22625 489.122011 
z
" style="fill:#7cb5ec;"/>
    </g>
    <g id="text_27">
     <!-- CDS_Exons -->
     <defs>
      <path d="M 50.984375 -16.609375 
L 50.984375 -23.578125 
L -0.984375 -23.578125 
L -0.984375 -16.609375 
z
" id="DejaVuSans-95"/>
      <path d="M 9.8125 72.90625 
L 55.90625 72.90625 
L 55.90625 64.59375 
L 19.671875 64.59375 
L 19.671875 43.015625 
L 54.390625 43.015625 
L 54.390625 34.71875 
L 19.671875 34.71875 
L 19.671875 8.296875 
L 56.78125 8.296875 
L 56.78125 0 
L 9.8125 0 
z
" id="DejaVuSans-69"/>
      <path d="M 54.890625 54.6875 
L 35.109375 28.078125 
L 55.90625 0 
L 45.3125 0 
L 29.390625 21.484375 
L 13.484375 0 
L 2.875 0 
L 24.125 28.609375 
L 4.6875 54.6875 
L 15.28125 54.6875 
L 29.78125 35.203125 
L 44.28125 54.6875 
z
" id="DejaVuSans-120"/>
     </defs>
     <g transform="translate(95.62625 494.722011)scale(0.08 -0.08)">
      <use xlink:href="#DejaVuSans-67"/>
      <use x="69.824219" xlink:href="#DejaVuSans-68"/>
      <use x="146.826172" xlink:href="#DejaVuSans-83"/>
      <use x="210.302734" xlink:href="#DejaVuSans-95"/>
      <use x="260.302734" xlink:href="#DejaVuSans-69"/>
      <use x="323.486328" xlink:href="#DejaVuSans-120"/>
      <use x="382.619141" xlink:href="#DejaVuSans-111"/>
      <use x="443.800781" xlink:href="#DejaVuSans-110"/>
      <use x="507.179688" xlink:href="#DejaVuSans-115"/>
     </g>
    </g>
    <g id="patch_202">
     <path d="M 73.22625 506.687011 
L 89.22625 506.687011 
L 89.22625 501.087011 
L 73.22625 501.087011 
z
" style="fill:#434348;"/>
    </g>
    <g id="text_28">
     <!-- 5'UTR_Exons -->
     <defs>
      <path d="M 17.921875 72.90625 
L 17.921875 45.796875 
L 9.625 45.796875 
L 9.625 72.90625 
z
" id="DejaVuSans-39"/>
      <path d="M 8.6875 72.90625 
L 18.609375 72.90625 
L 18.609375 28.609375 
Q 18.609375 16.890625 22.84375 11.734375 
Q 27.09375 6.59375 36.625 6.59375 
Q 46.09375 6.59375 50.34375 11.734375 
Q 54.59375 16.890625 54.59375 28.609375 
L 54.59375 72.90625 
L 64.5 72.90625 
L 64.5 27.390625 
Q 64.5 13.140625 57.4375 5.859375 
Q 50.390625 -1.421875 36.625 -1.421875 
Q 22.796875 -1.421875 15.734375 5.859375 
Q 8.6875 13.140625 8.6875 27.390625 
z
" id="DejaVuSans-85"/>
     </defs>
     <g transform="translate(95.62625 506.687011)scale(0.08 -0.08)">
      <use xlink:href="#DejaVuSans-53"/>
      <use x="63.623047" xlink:href="#DejaVuSans-39"/>
      <use x="91.113281" xlink:href="#DejaVuSans-85"/>
      <use x="164.306641" xlink:href="#DejaVuSans-84"/>
      <use x="225.390625" xlink:href="#DejaVuSans-82"/>
      <use x="294.873047" xlink:href="#DejaVuSans-95"/>
      <use x="344.873047" xlink:href="#DejaVuSans-69"/>
      <use x="408.056641" xlink:href="#DejaVuSans-120"/>
      <use x="467.189453" xlink:href="#DejaVuSans-111"/>
      <use x="528.371094" xlink:href="#DejaVuSans-110"/>
      <use x="591.75" xlink:href="#DejaVuSans-115"/>
     </g>
    </g>
    <g id="patch_203">
     <path d="M 73.22625 518.652011 
L 89.22625 518.652011 
L 89.22625 513.052011 
L 73.22625 513.052011 
z
" style="fill:#90ed7d;"/>
    </g>
    <g id="text_29">
     <!-- 3'UTR_Exons -->
     <g transform="translate(95.62625 518.652011)scale(0.08 -0.08)">
      <use xlink:href="#DejaVuSans-51"/>
      <use x="63.623047" xlink:href="#DejaVuSans-39"/>
      <use x="91.113281" xlink:href="#DejaVuSans-85"/>
      <use x="164.306641" xlink:href="#DejaVuSans-84"/>
      <use x="225.390625" xlink:href="#DejaVuSans-82"/>
      <use x="294.873047" xlink:href="#DejaVuSans-95"/>
      <use x="344.873047" xlink:href="#DejaVuSans-69"/>
      <use x="408.056641" xlink:href="#DejaVuSans-120"/>
      <use x="467.189453" xlink:href="#DejaVuSans-111"/>
      <use x="528.371094" xlink:href="#DejaVuSans-110"/>
      <use x="591.75" xlink:href="#DejaVuSans-115"/>
     </g>
    </g>
    <g id="patch_204">
     <path d="M 241.074063 494.722011 
L 257.074063 494.722011 
L 257.074063 489.122011 
L 241.074063 489.122011 
z
" style="fill:#f7a35c;"/>
    </g>
    <g id="text_30">
     <!-- Introns -->
     <defs>
      <path d="M 9.8125 72.90625 
L 19.671875 72.90625 
L 19.671875 0 
L 9.8125 0 
z
" id="DejaVuSans-73"/>
     </defs>
     <g transform="translate(263.474063 494.722011)scale(0.08 -0.08)">
      <use xlink:href="#DejaVuSans-73"/>
      <use x="29.492188" xlink:href="#DejaVuSans-110"/>
      <use x="92.871094" xlink:href="#DejaVuSans-116"/>
      <use x="132.080078" xlink:href="#DejaVuSans-114"/>
      <use x="173.162109" xlink:href="#DejaVuSans-111"/>
      <use x="234.34375" xlink:href="#DejaVuSans-110"/>
      <use x="297.722656" xlink:href="#DejaVuSans-115"/>
     </g>
    </g>
    <g id="patch_205">
     <path d="M 241.074063 506.464511 
L 257.074063 506.464511 
L 257.074063 500.864511 
L 241.074063 500.864511 
z
" style="fill:#8085e9;"/>
    </g>
    <g id="text_31">
     <!-- TSS_up_1kb -->
     <defs>
      <path d="M 18.109375 8.203125 
L 18.109375 -20.796875 
L 9.078125 -20.796875 
L 9.078125 54.6875 
L 18.109375 54.6875 
L 18.109375 46.390625 
Q 20.953125 51.265625 25.265625 53.625 
Q 29.59375 56 35.59375 56 
Q 45.5625 56 51.78125 48.09375 
Q 58.015625 40.1875 58.015625 27.296875 
Q 58.015625 14.40625 51.78125 6.484375 
Q 45.5625 -1.421875 35.59375 -1.421875 
Q 29.59375 -1.421875 25.265625 0.953125 
Q 20.953125 3.328125 18.109375 8.203125 
z
M 48.6875 27.296875 
Q 48.6875 37.203125 44.609375 42.84375 
Q 40.53125 48.484375 33.40625 48.484375 
Q 26.265625 48.484375 22.1875 42.84375 
Q 18.109375 37.203125 18.109375 27.296875 
Q 18.109375 17.390625 22.1875 11.75 
Q 26.265625 6.109375 33.40625 6.109375 
Q 40.53125 6.109375 44.609375 11.75 
Q 48.6875 17.390625 48.6875 27.296875 
z
" id="DejaVuSans-112"/>
      <path d="M 9.078125 75.984375 
L 18.109375 75.984375 
L 18.109375 31.109375 
L 44.921875 54.6875 
L 56.390625 54.6875 
L 27.390625 29.109375 
L 57.625 0 
L 45.90625 0 
L 18.109375 26.703125 
L 18.109375 0 
L 9.078125 0 
z
" id="DejaVuSans-107"/>
     </defs>
     <g transform="translate(263.474063 506.464511)scale(0.08 -0.08)">
      <use xlink:href="#DejaVuSans-84"/>
      <use x="61.083984" xlink:href="#DejaVuSans-83"/>
      <use x="124.560547" xlink:href="#DejaVuSans-83"/>
      <use x="188.037109" xlink:href="#DejaVuSans-95"/>
      <use x="238.037109" xlink:href="#DejaVuSans-117"/>
      <use x="301.416016" xlink:href="#DejaVuSans-112"/>
      <use x="364.892578" xlink:href="#DejaVuSans-95"/>
      <use x="414.892578" xlink:href="#DejaVuSans-49"/>
      <use x="478.515625" xlink:href="#DejaVuSans-107"/>
      <use x="536.425781" xlink:href="#DejaVuSans-98"/>
     </g>
    </g>
    <g id="patch_206">
     <path d="M 405.408125 494.722011 
L 421.408125 494.722011 
L 421.408125 489.122011 
L 405.408125 489.122011 
z
" style="fill:#f15c80;"/>
    </g>
    <g id="text_32">
     <!-- TSS_up_5kb -->
     <g transform="translate(427.808125 494.722011)scale(0.08 -0.08)">
      <use xlink:href="#DejaVuSans-84"/>
      <use x="61.083984" xlink:href="#DejaVuSans-83"/>
      <use x="124.560547" xlink:href="#DejaVuSans-83"/>
      <use x="188.037109" xlink:href="#DejaVuSans-95"/>
      <use x="238.037109" xlink:href="#DejaVuSans-117"/>
      <use x="301.416016" xlink:href="#DejaVuSans-112"/>
      <use x="364.892578" xlink:href="#DejaVuSans-95"/>
      <use x="414.892578" xlink:href="#DejaVuSans-53"/>
      <use x="478.515625" xlink:href="#DejaVuSans-107"/>
      <use x="536.425781" xlink:href="#DejaVuSans-98"/>
     </g>
    </g>
    <g id="patch_207">
     <path d="M 405.408125 506.687011 
L 421.408125 506.687011 
L 421.408125 501.087011 
L 405.408125 501.087011 
z
" style="fill:#e4d354;"/>
    </g>
    <g id="text_33">
     <!-- TSS_up_10kb -->
     <g transform="translate(427.808125 506.687011)scale(0.08 -0.08)">
      <use xlink:href="#DejaVuSans-84"/>
      <use x="61.083984" xlink:href="#DejaVuSans-83"/>
      <use x="124.560547" xlink:href="#DejaVuSans-83"/>
      <use x="188.037109" xlink:href="#DejaVuSans-95"/>
      <use x="238.037109" xlink:href="#DejaVuSans-117"/>
      <use x="301.416016" xlink:href="#DejaVuSans-112"/>
      <use x="364.892578" xlink:href="#DejaVuSans-95"/>
      <use x="414.892578" xlink:href="#DejaVuSans-49"/>
      <use x="478.515625" xlink:href="#DejaVuSans-48"/>
      <use x="542.138672" xlink:href="#DejaVuSans-107"/>
      <use x="600.048828" xlink:href="#DejaVuSans-98"/>
     </g>
    </g>
    <g id="patch_208">
     <path d="M 574.832188 494.722011 
L 590.832188 494.722011 
L 590.832188 489.122011 
L 574.832188 489.122011 
z
" style="fill:#2b908f;"/>
    </g>
    <g id="text_34">
     <!-- TES_down_1kb -->
     <defs>
      <path d="M 4.203125 54.6875 
L 13.1875 54.6875 
L 24.421875 12.015625 
L 35.59375 54.6875 
L 46.1875 54.6875 
L 57.421875 12.015625 
L 68.609375 54.6875 
L 77.59375 54.6875 
L 63.28125 0 
L 52.6875 0 
L 40.921875 44.828125 
L 29.109375 0 
L 18.5 0 
z
" id="DejaVuSans-119"/>
     </defs>
     <g transform="translate(597.232188 494.722011)scale(0.08 -0.08)">
      <use xlink:href="#DejaVuSans-84"/>
      <use x="61.083984" xlink:href="#DejaVuSans-69"/>
      <use x="124.267578" xlink:href="#DejaVuSans-83"/>
      <use x="187.744141" xlink:href="#DejaVuSans-95"/>
      <use x="237.744141" xlink:href="#DejaVuSans-100"/>
      <use x="301.220703" xlink:href="#DejaVuSans-111"/>
      <use x="362.402344" xlink:href="#DejaVuSans-119"/>
      <use x="444.189453" xlink:href="#DejaVuSans-110"/>
      <use x="507.568359" xlink:href="#DejaVuSans-95"/>
      <use x="557.568359" xlink:href="#DejaVuSans-49"/>
      <use x="621.191406" xlink:href="#DejaVuSans-107"/>
      <use x="679.101562" xlink:href="#DejaVuSans-98"/>
     </g>
    </g>
    <g id="patch_209">
     <path d="M 574.832188 506.687011 
L 590.832188 506.687011 
L 590.832188 501.087011 
L 574.832188 501.087011 
z
" style="fill:#f45b5b;"/>
    </g>
    <g id="text_35">
     <!-- TES_down_5kb -->
     <g transform="translate(597.232188 506.687011)scale(0.08 -0.08)">
      <use xlink:href="#DejaVuSans-84"/>
      <use x="61.083984" xlink:href="#DejaVuSans-69"/>
      <use x="124.267578" xlink:href="#DejaVuSans-83"/>
      <use x="187.744141" xlink:href="#DejaVuSans-95"/>
      <use x="237.744141" xlink:href="#DejaVuSans-100"/>
      <use x="301.220703" xlink:href="#DejaVuSans-111"/>
      <use x="362.402344" xlink:href="#DejaVuSans-119"/>
      <use x="444.189453" xlink:href="#DejaVuSans-110"/>
      <use x="507.568359" xlink:href="#DejaVuSans-95"/>
      <use x="557.568359" xlink:href="#DejaVuSans-53"/>
      <use x="621.191406" xlink:href="#DejaVuSans-107"/>
      <use x="679.101562" xlink:href="#DejaVuSans-98"/>
     </g>
    </g>
    <g id="patch_210">
     <path d="M 750.58 494.722011 
L 766.58 494.722011 
L 766.58 489.122011 
L 750.58 489.122011 
z
" style="fill:#91e8e1;"/>
    </g>
    <g id="text_36">
     <!-- TES_down_10kb -->
     <g transform="translate(772.98 494.722011)scale(0.08 -0.08)">
      <use xlink:href="#DejaVuSans-84"/>
      <use x="61.083984" xlink:href="#DejaVuSans-69"/>
      <use x="124.267578" xlink:href="#DejaVuSans-83"/>
      <use x="187.744141" xlink:href="#DejaVuSans-95"/>
      <use x="237.744141" xlink:href="#DejaVuSans-100"/>
      <use x="301.220703" xlink:href="#DejaVuSans-111"/>
      <use x="362.402344" xlink:href="#DejaVuSans-119"/>
      <use x="444.189453" xlink:href="#DejaVuSans-110"/>
      <use x="507.568359" xlink:href="#DejaVuSans-95"/>
      <use x="557.568359" xlink:href="#DejaVuSans-49"/>
      <use x="621.191406" xlink:href="#DejaVuSans-48"/>
      <use x="684.814453" xlink:href="#DejaVuSans-107"/>
      <use x="742.724609" xlink:href="#DejaVuSans-98"/>
     </g>
    </g>
    <g id="patch_211">
     <path d="M 750.58 506.687011 
L 766.58 506.687011 
L 766.58 501.087011 
L 750.58 501.087011 
z
" style="fill:#7cb5ec;"/>
    </g>
    <g id="text_37">
     <!-- Other_intergenic -->
     <defs>
      <path d="M 39.40625 66.21875 
Q 28.65625 66.21875 22.328125 58.203125 
Q 16.015625 50.203125 16.015625 36.375 
Q 16.015625 22.609375 22.328125 14.59375 
Q 28.65625 6.59375 39.40625 6.59375 
Q 50.140625 6.59375 56.421875 14.59375 
Q 62.703125 22.609375 62.703125 36.375 
Q 62.703125 50.203125 56.421875 58.203125 
Q 50.140625 66.21875 39.40625 66.21875 
z
M 39.40625 74.21875 
Q 54.734375 74.21875 63.90625 63.9375 
Q 73.09375 53.65625 73.09375 36.375 
Q 73.09375 19.140625 63.90625 8.859375 
Q 54.734375 -1.421875 39.40625 -1.421875 
Q 24.03125 -1.421875 14.8125 8.828125 
Q 5.609375 19.09375 5.609375 36.375 
Q 5.609375 53.65625 14.8125 63.9375 
Q 24.03125 74.21875 39.40625 74.21875 
z
" id="DejaVuSans-79"/>
      <path d="M 54.890625 33.015625 
L 54.890625 0 
L 45.90625 0 
L 45.90625 32.71875 
Q 45.90625 40.484375 42.875 44.328125 
Q 39.84375 48.1875 33.796875 48.1875 
Q 26.515625 48.1875 22.3125 43.546875 
Q 18.109375 38.921875 18.109375 30.90625 
L 18.109375 0 
L 9.078125 0 
L 9.078125 75.984375 
L 18.109375 75.984375 
L 18.109375 46.1875 
Q 21.34375 51.125 25.703125 53.5625 
Q 30.078125 56 35.796875 56 
Q 45.21875 56 50.046875 50.171875 
Q 54.890625 44.34375 54.890625 33.015625 
z
" id="DejaVuSans-104"/>
      <path d="M 48.78125 52.59375 
L 48.78125 44.1875 
Q 44.96875 46.296875 41.140625 47.34375 
Q 37.3125 48.390625 33.40625 48.390625 
Q 24.65625 48.390625 19.8125 42.84375 
Q 14.984375 37.3125 14.984375 27.296875 
Q 14.984375 17.28125 19.8125 11.734375 
Q 24.65625 6.203125 33.40625 6.203125 
Q 37.3125 6.203125 41.140625 7.25 
Q 44.96875 8.296875 48.78125 10.40625 
L 48.78125 2.09375 
Q 45.015625 0.34375 40.984375 -0.53125 
Q 36.96875 -1.421875 32.421875 -1.421875 
Q 20.0625 -1.421875 12.78125 6.34375 
Q 5.515625 14.109375 5.515625 27.296875 
Q 5.515625 40.671875 12.859375 48.328125 
Q 20.21875 56 33.015625 56 
Q 37.15625 56 41.109375 55.140625 
Q 45.0625 54.296875 48.78125 52.59375 
z
" id="DejaVuSans-99"/>
     </defs>
     <g transform="translate(772.98 506.687011)scale(0.08 -0.08)">
      <use xlink:href="#DejaVuSans-79"/>
      <use x="78.710938" xlink:href="#DejaVuSans-116"/>
      <use x="117.919922" xlink:href="#DejaVuSans-104"/>
      <use x="181.298828" xlink:href="#DejaVuSans-101"/>
      <use x="242.822266" xlink:href="#DejaVuSans-114"/>
      <use x="283.935547" xlink:href="#DejaVuSans-95"/>
      <use x="333.935547" xlink:href="#DejaVuSans-105"/>
      <use x="361.71875" xlink:href="#DejaVuSans-110"/>
      <use x="425.097656" xlink:href="#DejaVuSans-116"/>
      <use x="464.306641" xlink:href="#DejaVuSans-101"/>
      <use x="525.830078" xlink:href="#DejaVuSans-114"/>
      <use x="566.927734" xlink:href="#DejaVuSans-103"/>
      <use x="630.404297" xlink:href="#DejaVuSans-101"/>
      <use x="691.927734" xlink:href="#DejaVuSans-110"/>
      <use x="755.306641" xlink:href="#DejaVuSans-105"/>
      <use x="783.089844" xlink:href="#DejaVuSans-99"/>
     </g>
    </g>
   </g>
  </g>
 </g>
 <defs>
  <clipPath id="pfb4c132c74">
   <rect height="433.878261" width="781.2" x="66.02625" y="10.7"/>
  </clipPath>
 </defs>
</svg>
