<?xml version="1.0" encoding="utf-8" standalone="no"?>
<!DOCTYPE svg PUBLIC "-//W3C//DTD SVG 1.1//EN"
  "http://www.w3.org/Graphics/SVG/1.1/DTD/svg11.dtd">
<!-- Created with matplotlib (https://matplotlib.org/) -->
<svg height="388.844525pt" version="1.1" viewBox="0 0 1001.258125 388.844525" width="1001.258125pt" xmlns="http://www.w3.org/2000/svg" xmlns:xlink="http://www.w3.org/1999/xlink">
 <defs>
  <style type="text/css">
*{stroke-linecap:butt;stroke-linejoin:round;}
  </style>
 </defs>
 <g id="figure_1">
  <g id="patch_1">
   <path d="M 0 388.844525 
L 1001.258125 388.844525 
L 1001.258125 0 
L 0 0 
z
" style="fill:#ffffff;"/>
  </g>
  <g id="axes_1">
   <g id="patch_2">
    <path d="M 43.148125 353.2239 
L 990.558125 353.2239 
L 990.558125 35.2559 
L 43.148125 35.2559 
z
" style="fill:#ffffff;"/>
   </g>
   <g id="matplotlib.axis_1">
    <g id="xtick_1">
     <g id="text_1">
      <!-- 0 -->
      <defs>
       <path d="M 31.78125 66.40625 
Q 24.171875 66.40625 20.328125 58.90625 
Q 16.5 51.421875 16.5 36.375 
Q 16.5 21.390625 20.328125 13.890625 
Q 24.171875 6.390625 31.78125 6.390625 
Q 39.453125 6.390625 43.28125 13.890625 
Q 47.125 21.390625 47.125 36.375 
Q 47.125 51.421875 43.28125 58.90625 
Q 39.453125 66.40625 31.78125 66.40625 
z
M 31.78125 74.21875 
Q 44.046875 74.21875 50.515625 64.515625 
Q 56.984375 54.828125 56.984375 36.375 
Q 56.984375 17.96875 50.515625 8.265625 
Q 44.046875 -1.421875 31.78125 -1.421875 
Q 19.53125 -1.421875 13.0625 8.265625 
Q 6.59375 17.96875 6.59375 36.375 
Q 6.59375 54.828125 13.0625 64.515625 
Q 19.53125 74.21875 31.78125 74.21875 
z
" id="DejaVuSans-48"/>
      </defs>
      <g transform="translate(83.667007 366.30265)scale(0.08 -0.08)">
       <use xlink:href="#DejaVuSans-48"/>
      </g>
     </g>
    </g>
    <g id="xtick_2">
     <g id="text_2">
      <!-- 50000 -->
      <defs>
       <path d="M 10.796875 72.90625 
L 49.515625 72.90625 
L 49.515625 64.59375 
L 19.828125 64.59375 
L 19.828125 46.734375 
Q 21.96875 47.46875 24.109375 47.828125 
Q 26.265625 48.1875 28.421875 48.1875 
Q 40.625 48.1875 47.75 41.5 
Q 54.890625 34.8125 54.890625 23.390625 
Q 54.890625 11.625 47.5625 5.09375 
Q 40.234375 -1.421875 26.90625 -1.421875 
Q 22.3125 -1.421875 17.546875 -0.640625 
Q 12.796875 0.140625 7.71875 1.703125 
L 7.71875 11.625 
Q 12.109375 9.234375 16.796875 8.0625 
Q 21.484375 6.890625 26.703125 6.890625 
Q 35.15625 6.890625 40.078125 11.328125 
Q 45.015625 15.765625 45.015625 23.390625 
Q 45.015625 31 40.078125 35.4375 
Q 35.15625 39.890625 26.703125 39.890625 
Q 22.75 39.890625 18.8125 39.015625 
Q 14.890625 38.140625 10.796875 36.28125 
z
" id="DejaVuSans-53"/>
      </defs>
      <g transform="translate(211.816709 366.30265)scale(0.08 -0.08)">
       <use xlink:href="#DejaVuSans-53"/>
       <use x="63.623047" xlink:href="#DejaVuSans-48"/>
       <use x="127.246094" xlink:href="#DejaVuSans-48"/>
       <use x="190.869141" xlink:href="#DejaVuSans-48"/>
       <use x="254.492188" xlink:href="#DejaVuSans-48"/>
      </g>
     </g>
    </g>
    <g id="xtick_3">
     <g id="text_3">
      <!-- 100000 -->
      <defs>
       <path d="M 12.40625 8.296875 
L 28.515625 8.296875 
L 28.515625 63.921875 
L 10.984375 60.40625 
L 10.984375 69.390625 
L 28.421875 72.90625 
L 38.28125 72.90625 
L 38.28125 8.296875 
L 54.390625 8.296875 
L 54.390625 0 
L 12.40625 0 
z
" id="DejaVuSans-49"/>
      </defs>
      <g transform="translate(347.601411 366.30265)scale(0.08 -0.08)">
       <use xlink:href="#DejaVuSans-49"/>
       <use x="63.623047" xlink:href="#DejaVuSans-48"/>
       <use x="127.246094" xlink:href="#DejaVuSans-48"/>
       <use x="190.869141" xlink:href="#DejaVuSans-48"/>
       <use x="254.492188" xlink:href="#DejaVuSans-48"/>
       <use x="318.115234" xlink:href="#DejaVuSans-48"/>
      </g>
     </g>
    </g>
    <g id="xtick_4">
     <g id="text_4">
      <!-- 150000 -->
      <g transform="translate(485.931114 366.30265)scale(0.08 -0.08)">
       <use xlink:href="#DejaVuSans-49"/>
       <use x="63.623047" xlink:href="#DejaVuSans-53"/>
       <use x="127.246094" xlink:href="#DejaVuSans-48"/>
       <use x="190.869141" xlink:href="#DejaVuSans-48"/>
       <use x="254.492188" xlink:href="#DejaVuSans-48"/>
       <use x="318.115234" xlink:href="#DejaVuSans-48"/>
      </g>
     </g>
    </g>
    <g id="xtick_5">
     <g id="text_5">
      <!-- 200000 -->
      <defs>
       <path d="M 19.1875 8.296875 
L 53.609375 8.296875 
L 53.609375 0 
L 7.328125 0 
L 7.328125 8.296875 
Q 12.9375 14.109375 22.625 23.890625 
Q 32.328125 33.6875 34.8125 36.53125 
Q 39.546875 41.84375 41.421875 45.53125 
Q 43.3125 49.21875 43.3125 52.78125 
Q 43.3125 58.59375 39.234375 62.25 
Q 35.15625 65.921875 28.609375 65.921875 
Q 23.96875 65.921875 18.8125 64.3125 
Q 13.671875 62.703125 7.8125 59.421875 
L 7.8125 69.390625 
Q 13.765625 71.78125 18.9375 73 
Q 24.125 74.21875 28.421875 74.21875 
Q 39.75 74.21875 46.484375 68.546875 
Q 53.21875 62.890625 53.21875 53.421875 
Q 53.21875 48.921875 51.53125 44.890625 
Q 49.859375 40.875 45.40625 35.40625 
Q 44.1875 33.984375 37.640625 27.21875 
Q 31.109375 20.453125 19.1875 8.296875 
z
" id="DejaVuSans-50"/>
      </defs>
      <g transform="translate(624.260816 366.30265)scale(0.08 -0.08)">
       <use xlink:href="#DejaVuSans-50"/>
       <use x="63.623047" xlink:href="#DejaVuSans-48"/>
       <use x="127.246094" xlink:href="#DejaVuSans-48"/>
       <use x="190.869141" xlink:href="#DejaVuSans-48"/>
       <use x="254.492188" xlink:href="#DejaVuSans-48"/>
       <use x="318.115234" xlink:href="#DejaVuSans-48"/>
      </g>
     </g>
    </g>
    <g id="xtick_6">
     <g id="text_6">
      <!-- 250000 -->
      <g transform="translate(762.590518 366.30265)scale(0.08 -0.08)">
       <use xlink:href="#DejaVuSans-50"/>
       <use x="63.623047" xlink:href="#DejaVuSans-53"/>
       <use x="127.246094" xlink:href="#DejaVuSans-48"/>
       <use x="190.869141" xlink:href="#DejaVuSans-48"/>
       <use x="254.492188" xlink:href="#DejaVuSans-48"/>
       <use x="318.115234" xlink:href="#DejaVuSans-48"/>
      </g>
     </g>
    </g>
    <g id="xtick_7">
     <g id="text_7">
      <!-- 300000 -->
      <defs>
       <path d="M 40.578125 39.3125 
Q 47.65625 37.796875 51.625 33 
Q 55.609375 28.21875 55.609375 21.1875 
Q 55.609375 10.40625 48.1875 4.484375 
Q 40.765625 -1.421875 27.09375 -1.421875 
Q 22.515625 -1.421875 17.65625 -0.515625 
Q 12.796875 0.390625 7.625 2.203125 
L 7.625 11.71875 
Q 11.71875 9.328125 16.59375 8.109375 
Q 21.484375 6.890625 26.8125 6.890625 
Q 36.078125 6.890625 40.9375 10.546875 
Q 45.796875 14.203125 45.796875 21.1875 
Q 45.796875 27.640625 41.28125 31.265625 
Q 36.765625 34.90625 28.71875 34.90625 
L 20.21875 34.90625 
L 20.21875 43.015625 
L 29.109375 43.015625 
Q 36.375 43.015625 40.234375 45.921875 
Q 44.09375 48.828125 44.09375 54.296875 
Q 44.09375 59.90625 40.109375 62.90625 
Q 36.140625 65.921875 28.71875 65.921875 
Q 24.65625 65.921875 20.015625 65.03125 
Q 15.375 64.15625 9.8125 62.3125 
L 9.8125 71.09375 
Q 15.4375 72.65625 20.34375 73.4375 
Q 25.25 74.21875 29.59375 74.21875 
Q 40.828125 74.21875 47.359375 69.109375 
Q 53.90625 64.015625 53.90625 55.328125 
Q 53.90625 49.265625 50.4375 45.09375 
Q 46.96875 40.921875 40.578125 39.3125 
z
" id="DejaVuSans-51"/>
      </defs>
      <g transform="translate(900.92022 366.30265)scale(0.08 -0.08)">
       <use xlink:href="#DejaVuSans-51"/>
       <use x="63.623047" xlink:href="#DejaVuSans-48"/>
       <use x="127.246094" xlink:href="#DejaVuSans-48"/>
       <use x="190.869141" xlink:href="#DejaVuSans-48"/>
       <use x="254.492188" xlink:href="#DejaVuSans-48"/>
       <use x="318.115234" xlink:href="#DejaVuSans-48"/>
      </g>
     </g>
    </g>
    <g id="text_8">
     <!-- expression (reads/kbp) -->
     <defs>
      <path d="M 56.203125 29.59375 
L 56.203125 25.203125 
L 14.890625 25.203125 
Q 15.484375 15.921875 20.484375 11.0625 
Q 25.484375 6.203125 34.421875 6.203125 
Q 39.59375 6.203125 44.453125 7.46875 
Q 49.3125 8.734375 54.109375 11.28125 
L 54.109375 2.78125 
Q 49.265625 0.734375 44.1875 -0.34375 
Q 39.109375 -1.421875 33.890625 -1.421875 
Q 20.796875 -1.421875 13.15625 6.1875 
Q 5.515625 13.8125 5.515625 26.8125 
Q 5.515625 40.234375 12.765625 48.109375 
Q 20.015625 56 32.328125 56 
Q 43.359375 56 49.78125 48.890625 
Q 56.203125 41.796875 56.203125 29.59375 
z
M 47.21875 32.234375 
Q 47.125 39.59375 43.09375 43.984375 
Q 39.0625 48.390625 32.421875 48.390625 
Q 24.90625 48.390625 20.390625 44.140625 
Q 15.875 39.890625 15.1875 32.171875 
z
" id="DejaVuSans-101"/>
      <path d="M 54.890625 54.6875 
L 35.109375 28.078125 
L 55.90625 0 
L 45.3125 0 
L 29.390625 21.484375 
L 13.484375 0 
L 2.875 0 
L 24.125 28.609375 
L 4.6875 54.6875 
L 15.28125 54.6875 
L 29.78125 35.203125 
L 44.28125 54.6875 
z
" id="DejaVuSans-120"/>
      <path d="M 18.109375 8.203125 
L 18.109375 -20.796875 
L 9.078125 -20.796875 
L 9.078125 54.6875 
L 18.109375 54.6875 
L 18.109375 46.390625 
Q 20.953125 51.265625 25.265625 53.625 
Q 29.59375 56 35.59375 56 
Q 45.5625 56 51.78125 48.09375 
Q 58.015625 40.1875 58.015625 27.296875 
Q 58.015625 14.40625 51.78125 6.484375 
Q 45.5625 -1.421875 35.59375 -1.421875 
Q 29.59375 -1.421875 25.265625 0.953125 
Q 20.953125 3.328125 18.109375 8.203125 
z
M 48.6875 27.296875 
Q 48.6875 37.203125 44.609375 42.84375 
Q 40.53125 48.484375 33.40625 48.484375 
Q 26.265625 48.484375 22.1875 42.84375 
Q 18.109375 37.203125 18.109375 27.296875 
Q 18.109375 17.390625 22.1875 11.75 
Q 26.265625 6.109375 33.40625 6.109375 
Q 40.53125 6.109375 44.609375 11.75 
Q 48.6875 17.390625 48.6875 27.296875 
z
" id="DejaVuSans-112"/>
      <path d="M 41.109375 46.296875 
Q 39.59375 47.171875 37.8125 47.578125 
Q 36.03125 48 33.890625 48 
Q 26.265625 48 22.1875 43.046875 
Q 18.109375 38.09375 18.109375 28.8125 
L 18.109375 0 
L 9.078125 0 
L 9.078125 54.6875 
L 18.109375 54.6875 
L 18.109375 46.1875 
Q 20.953125 51.171875 25.484375 53.578125 
Q 30.03125 56 36.53125 56 
Q 37.453125 56 38.578125 55.875 
Q 39.703125 55.765625 41.0625 55.515625 
z
" id="DejaVuSans-114"/>
      <path d="M 44.28125 53.078125 
L 44.28125 44.578125 
Q 40.484375 46.53125 36.375 47.5 
Q 32.28125 48.484375 27.875 48.484375 
Q 21.1875 48.484375 17.84375 46.4375 
Q 14.5 44.390625 14.5 40.28125 
Q 14.5 37.15625 16.890625 35.375 
Q 19.28125 33.59375 26.515625 31.984375 
L 29.59375 31.296875 
Q 39.15625 29.25 43.1875 25.515625 
Q 47.21875 21.78125 47.21875 15.09375 
Q 47.21875 7.46875 41.1875 3.015625 
Q 35.15625 -1.421875 24.609375 -1.421875 
Q 20.21875 -1.421875 15.453125 -0.5625 
Q 10.6875 0.296875 5.421875 2 
L 5.421875 11.28125 
Q 10.40625 8.6875 15.234375 7.390625 
Q 20.0625 6.109375 24.8125 6.109375 
Q 31.15625 6.109375 34.5625 8.28125 
Q 37.984375 10.453125 37.984375 14.40625 
Q 37.984375 18.0625 35.515625 20.015625 
Q 33.0625 21.96875 24.703125 23.78125 
L 21.578125 24.515625 
Q 13.234375 26.265625 9.515625 29.90625 
Q 5.8125 33.546875 5.8125 39.890625 
Q 5.8125 47.609375 11.28125 51.796875 
Q 16.75 56 26.8125 56 
Q 31.78125 56 36.171875 55.265625 
Q 40.578125 54.546875 44.28125 53.078125 
z
" id="DejaVuSans-115"/>
      <path d="M 9.421875 54.6875 
L 18.40625 54.6875 
L 18.40625 0 
L 9.421875 0 
z
M 9.421875 75.984375 
L 18.40625 75.984375 
L 18.40625 64.59375 
L 9.421875 64.59375 
z
" id="DejaVuSans-105"/>
      <path d="M 30.609375 48.390625 
Q 23.390625 48.390625 19.1875 42.75 
Q 14.984375 37.109375 14.984375 27.296875 
Q 14.984375 17.484375 19.15625 11.84375 
Q 23.34375 6.203125 30.609375 6.203125 
Q 37.796875 6.203125 41.984375 11.859375 
Q 46.1875 17.53125 46.1875 27.296875 
Q 46.1875 37.015625 41.984375 42.703125 
Q 37.796875 48.390625 30.609375 48.390625 
z
M 30.609375 56 
Q 42.328125 56 49.015625 48.375 
Q 55.71875 40.765625 55.71875 27.296875 
Q 55.71875 13.875 49.015625 6.21875 
Q 42.328125 -1.421875 30.609375 -1.421875 
Q 18.84375 -1.421875 12.171875 6.21875 
Q 5.515625 13.875 5.515625 27.296875 
Q 5.515625 40.765625 12.171875 48.375 
Q 18.84375 56 30.609375 56 
z
" id="DejaVuSans-111"/>
      <path d="M 54.890625 33.015625 
L 54.890625 0 
L 45.90625 0 
L 45.90625 32.71875 
Q 45.90625 40.484375 42.875 44.328125 
Q 39.84375 48.1875 33.796875 48.1875 
Q 26.515625 48.1875 22.3125 43.546875 
Q 18.109375 38.921875 18.109375 30.90625 
L 18.109375 0 
L 9.078125 0 
L 9.078125 54.6875 
L 18.109375 54.6875 
L 18.109375 46.1875 
Q 21.34375 51.125 25.703125 53.5625 
Q 30.078125 56 35.796875 56 
Q 45.21875 56 50.046875 50.171875 
Q 54.890625 44.34375 54.890625 33.015625 
z
" id="DejaVuSans-110"/>
      <path id="DejaVuSans-32"/>
      <path d="M 31 75.875 
Q 24.46875 64.65625 21.28125 53.65625 
Q 18.109375 42.671875 18.109375 31.390625 
Q 18.109375 20.125 21.3125 9.0625 
Q 24.515625 -2 31 -13.1875 
L 23.1875 -13.1875 
Q 15.875 -1.703125 12.234375 9.375 
Q 8.59375 20.453125 8.59375 31.390625 
Q 8.59375 42.28125 12.203125 53.3125 
Q 15.828125 64.359375 23.1875 75.875 
z
" id="DejaVuSans-40"/>
      <path d="M 34.28125 27.484375 
Q 23.390625 27.484375 19.1875 25 
Q 14.984375 22.515625 14.984375 16.5 
Q 14.984375 11.71875 18.140625 8.90625 
Q 21.296875 6.109375 26.703125 6.109375 
Q 34.1875 6.109375 38.703125 11.40625 
Q 43.21875 16.703125 43.21875 25.484375 
L 43.21875 27.484375 
z
M 52.203125 31.203125 
L 52.203125 0 
L 43.21875 0 
L 43.21875 8.296875 
Q 40.140625 3.328125 35.546875 0.953125 
Q 30.953125 -1.421875 24.3125 -1.421875 
Q 15.921875 -1.421875 10.953125 3.296875 
Q 6 8.015625 6 15.921875 
Q 6 25.140625 12.171875 29.828125 
Q 18.359375 34.515625 30.609375 34.515625 
L 43.21875 34.515625 
L 43.21875 35.40625 
Q 43.21875 41.609375 39.140625 45 
Q 35.0625 48.390625 27.6875 48.390625 
Q 23 48.390625 18.546875 47.265625 
Q 14.109375 46.140625 10.015625 43.890625 
L 10.015625 52.203125 
Q 14.9375 54.109375 19.578125 55.046875 
Q 24.21875 56 28.609375 56 
Q 40.484375 56 46.34375 49.84375 
Q 52.203125 43.703125 52.203125 31.203125 
z
" id="DejaVuSans-97"/>
      <path d="M 45.40625 46.390625 
L 45.40625 75.984375 
L 54.390625 75.984375 
L 54.390625 0 
L 45.40625 0 
L 45.40625 8.203125 
Q 42.578125 3.328125 38.25 0.953125 
Q 33.9375 -1.421875 27.875 -1.421875 
Q 17.96875 -1.421875 11.734375 6.484375 
Q 5.515625 14.40625 5.515625 27.296875 
Q 5.515625 40.1875 11.734375 48.09375 
Q 17.96875 56 27.875 56 
Q 33.9375 56 38.25 53.625 
Q 42.578125 51.265625 45.40625 46.390625 
z
M 14.796875 27.296875 
Q 14.796875 17.390625 18.875 11.75 
Q 22.953125 6.109375 30.078125 6.109375 
Q 37.203125 6.109375 41.296875 11.75 
Q 45.40625 17.390625 45.40625 27.296875 
Q 45.40625 37.203125 41.296875 42.84375 
Q 37.203125 48.484375 30.078125 48.484375 
Q 22.953125 48.484375 18.875 42.84375 
Q 14.796875 37.203125 14.796875 27.296875 
z
" id="DejaVuSans-100"/>
      <path d="M 25.390625 72.90625 
L 33.6875 72.90625 
L 8.296875 -9.28125 
L 0 -9.28125 
z
" id="DejaVuSans-47"/>
      <path d="M 9.078125 75.984375 
L 18.109375 75.984375 
L 18.109375 31.109375 
L 44.921875 54.6875 
L 56.390625 54.6875 
L 27.390625 29.109375 
L 57.625 0 
L 45.90625 0 
L 18.109375 26.703125 
L 18.109375 0 
L 9.078125 0 
z
" id="DejaVuSans-107"/>
      <path d="M 48.6875 27.296875 
Q 48.6875 37.203125 44.609375 42.84375 
Q 40.53125 48.484375 33.40625 48.484375 
Q 26.265625 48.484375 22.1875 42.84375 
Q 18.109375 37.203125 18.109375 27.296875 
Q 18.109375 17.390625 22.1875 11.75 
Q 26.265625 6.109375 33.40625 6.109375 
Q 40.53125 6.109375 44.609375 11.75 
Q 48.6875 17.390625 48.6875 27.296875 
z
M 18.109375 46.390625 
Q 20.953125 51.265625 25.265625 53.625 
Q 29.59375 56 35.59375 56 
Q 45.5625 56 51.78125 48.09375 
Q 58.015625 40.1875 58.015625 27.296875 
Q 58.015625 14.40625 51.78125 6.484375 
Q 45.5625 -1.421875 35.59375 -1.421875 
Q 29.59375 -1.421875 25.265625 0.953125 
Q 20.953125 3.328125 18.109375 8.203125 
L 18.109375 0 
L 9.078125 0 
L 9.078125 75.984375 
L 18.109375 75.984375 
z
" id="DejaVuSans-98"/>
      <path d="M 8.015625 75.875 
L 15.828125 75.875 
Q 23.140625 64.359375 26.78125 53.3125 
Q 30.421875 42.28125 30.421875 31.390625 
Q 30.421875 20.453125 26.78125 9.375 
Q 23.140625 -1.703125 15.828125 -13.1875 
L 8.015625 -13.1875 
Q 14.5 -2 17.703125 9.0625 
Q 20.90625 20.125 20.90625 31.390625 
Q 20.90625 42.671875 17.703125 53.65625 
Q 14.5 64.65625 8.015625 75.875 
z
" id="DejaVuSans-41"/>
     </defs>
     <g transform="translate(459.294531 379.564837)scale(0.1 -0.1)">
      <use xlink:href="#DejaVuSans-101"/>
      <use x="61.507812" xlink:href="#DejaVuSans-120"/>
      <use x="120.6875" xlink:href="#DejaVuSans-112"/>
      <use x="184.164062" xlink:href="#DejaVuSans-114"/>
      <use x="225.246094" xlink:href="#DejaVuSans-101"/>
      <use x="286.769531" xlink:href="#DejaVuSans-115"/>
      <use x="338.869141" xlink:href="#DejaVuSans-115"/>
      <use x="390.96875" xlink:href="#DejaVuSans-105"/>
      <use x="418.751953" xlink:href="#DejaVuSans-111"/>
      <use x="479.933594" xlink:href="#DejaVuSans-110"/>
      <use x="543.3125" xlink:href="#DejaVuSans-32"/>
      <use x="575.099609" xlink:href="#DejaVuSans-40"/>
      <use x="614.113281" xlink:href="#DejaVuSans-114"/>
      <use x="655.195312" xlink:href="#DejaVuSans-101"/>
      <use x="716.71875" xlink:href="#DejaVuSans-97"/>
      <use x="777.998047" xlink:href="#DejaVuSans-100"/>
      <use x="841.474609" xlink:href="#DejaVuSans-115"/>
      <use x="893.574219" xlink:href="#DejaVuSans-47"/>
      <use x="927.265625" xlink:href="#DejaVuSans-107"/>
      <use x="985.175781" xlink:href="#DejaVuSans-98"/>
      <use x="1048.652344" xlink:href="#DejaVuSans-112"/>
      <use x="1112.128906" xlink:href="#DejaVuSans-41"/>
     </g>
    </g>
   </g>
   <g id="matplotlib.axis_2">
    <g id="ytick_1">
     <g id="line2d_1">
      <path clip-path="url(#pc5d64f5adb)" d="M 43.148125 353.2239 
L 990.558125 353.2239 
" style="fill:none;stroke:#dedede;stroke-linecap:square;"/>
     </g>
     <g id="text_9">
      <!-- 0 -->
      <g transform="translate(31.058125 356.263275)scale(0.08 -0.08)">
       <use xlink:href="#DejaVuSans-48"/>
      </g>
     </g>
    </g>
    <g id="ytick_2">
     <g id="line2d_2">
      <path clip-path="url(#pc5d64f5adb)" d="M 43.148125 289.6303 
L 990.558125 289.6303 
" style="fill:none;stroke:#dedede;stroke-linecap:square;"/>
     </g>
     <g id="text_10">
      <!-- 20 -->
      <g transform="translate(25.968125 292.669675)scale(0.08 -0.08)">
       <use xlink:href="#DejaVuSans-50"/>
       <use x="63.623047" xlink:href="#DejaVuSans-48"/>
      </g>
     </g>
    </g>
    <g id="ytick_3">
     <g id="line2d_3">
      <path clip-path="url(#pc5d64f5adb)" d="M 43.148125 226.0367 
L 990.558125 226.0367 
" style="fill:none;stroke:#dedede;stroke-linecap:square;"/>
     </g>
     <g id="text_11">
      <!-- 40 -->
      <defs>
       <path d="M 37.796875 64.3125 
L 12.890625 25.390625 
L 37.796875 25.390625 
z
M 35.203125 72.90625 
L 47.609375 72.90625 
L 47.609375 25.390625 
L 58.015625 25.390625 
L 58.015625 17.1875 
L 47.609375 17.1875 
L 47.609375 0 
L 37.796875 0 
L 37.796875 17.1875 
L 4.890625 17.1875 
L 4.890625 26.703125 
z
" id="DejaVuSans-52"/>
      </defs>
      <g transform="translate(25.968125 229.076075)scale(0.08 -0.08)">
       <use xlink:href="#DejaVuSans-52"/>
       <use x="63.623047" xlink:href="#DejaVuSans-48"/>
      </g>
     </g>
    </g>
    <g id="ytick_4">
     <g id="line2d_4">
      <path clip-path="url(#pc5d64f5adb)" d="M 43.148125 162.4431 
L 990.558125 162.4431 
" style="fill:none;stroke:#dedede;stroke-linecap:square;"/>
     </g>
     <g id="text_12">
      <!-- 60 -->
      <defs>
       <path d="M 33.015625 40.375 
Q 26.375 40.375 22.484375 35.828125 
Q 18.609375 31.296875 18.609375 23.390625 
Q 18.609375 15.53125 22.484375 10.953125 
Q 26.375 6.390625 33.015625 6.390625 
Q 39.65625 6.390625 43.53125 10.953125 
Q 47.40625 15.53125 47.40625 23.390625 
Q 47.40625 31.296875 43.53125 35.828125 
Q 39.65625 40.375 33.015625 40.375 
z
M 52.59375 71.296875 
L 52.59375 62.3125 
Q 48.875 64.0625 45.09375 64.984375 
Q 41.3125 65.921875 37.59375 65.921875 
Q 27.828125 65.921875 22.671875 59.328125 
Q 17.53125 52.734375 16.796875 39.40625 
Q 19.671875 43.65625 24.015625 45.921875 
Q 28.375 48.1875 33.59375 48.1875 
Q 44.578125 48.1875 50.953125 41.515625 
Q 57.328125 34.859375 57.328125 23.390625 
Q 57.328125 12.15625 50.6875 5.359375 
Q 44.046875 -1.421875 33.015625 -1.421875 
Q 20.359375 -1.421875 13.671875 8.265625 
Q 6.984375 17.96875 6.984375 36.375 
Q 6.984375 53.65625 15.1875 63.9375 
Q 23.390625 74.21875 37.203125 74.21875 
Q 40.921875 74.21875 44.703125 73.484375 
Q 48.484375 72.75 52.59375 71.296875 
z
" id="DejaVuSans-54"/>
      </defs>
      <g transform="translate(25.968125 165.482475)scale(0.08 -0.08)">
       <use xlink:href="#DejaVuSans-54"/>
       <use x="63.623047" xlink:href="#DejaVuSans-48"/>
      </g>
     </g>
    </g>
    <g id="ytick_5">
     <g id="line2d_5">
      <path clip-path="url(#pc5d64f5adb)" d="M 43.148125 98.8495 
L 990.558125 98.8495 
" style="fill:none;stroke:#dedede;stroke-linecap:square;"/>
     </g>
     <g id="text_13">
      <!-- 80 -->
      <defs>
       <path d="M 31.78125 34.625 
Q 24.75 34.625 20.71875 30.859375 
Q 16.703125 27.09375 16.703125 20.515625 
Q 16.703125 13.921875 20.71875 10.15625 
Q 24.75 6.390625 31.78125 6.390625 
Q 38.8125 6.390625 42.859375 10.171875 
Q 46.921875 13.96875 46.921875 20.515625 
Q 46.921875 27.09375 42.890625 30.859375 
Q 38.875 34.625 31.78125 34.625 
z
M 21.921875 38.8125 
Q 15.578125 40.375 12.03125 44.71875 
Q 8.5 49.078125 8.5 55.328125 
Q 8.5 64.0625 14.71875 69.140625 
Q 20.953125 74.21875 31.78125 74.21875 
Q 42.671875 74.21875 48.875 69.140625 
Q 55.078125 64.0625 55.078125 55.328125 
Q 55.078125 49.078125 51.53125 44.71875 
Q 48 40.375 41.703125 38.8125 
Q 48.828125 37.15625 52.796875 32.3125 
Q 56.78125 27.484375 56.78125 20.515625 
Q 56.78125 9.90625 50.3125 4.234375 
Q 43.84375 -1.421875 31.78125 -1.421875 
Q 19.734375 -1.421875 13.25 4.234375 
Q 6.78125 9.90625 6.78125 20.515625 
Q 6.78125 27.484375 10.78125 32.3125 
Q 14.796875 37.15625 21.921875 38.8125 
z
M 18.3125 54.390625 
Q 18.3125 48.734375 21.84375 45.5625 
Q 25.390625 42.390625 31.78125 42.390625 
Q 38.140625 42.390625 41.71875 45.5625 
Q 45.3125 48.734375 45.3125 54.390625 
Q 45.3125 60.0625 41.71875 63.234375 
Q 38.140625 66.40625 31.78125 66.40625 
Q 25.390625 66.40625 21.84375 63.234375 
Q 18.3125 60.0625 18.3125 54.390625 
z
" id="DejaVuSans-56"/>
      </defs>
      <g transform="translate(25.968125 101.888875)scale(0.08 -0.08)">
       <use xlink:href="#DejaVuSans-56"/>
       <use x="63.623047" xlink:href="#DejaVuSans-48"/>
      </g>
     </g>
    </g>
    <g id="ytick_6">
     <g id="line2d_6">
      <path clip-path="url(#pc5d64f5adb)" d="M 43.148125 35.2559 
L 990.558125 35.2559 
" style="fill:none;stroke:#dedede;stroke-linecap:square;"/>
     </g>
     <g id="text_14">
      <!-- 100 -->
      <g transform="translate(20.878125 38.295275)scale(0.08 -0.08)">
       <use xlink:href="#DejaVuSans-49"/>
       <use x="63.623047" xlink:href="#DejaVuSans-48"/>
       <use x="127.246094" xlink:href="#DejaVuSans-48"/>
      </g>
     </g>
    </g>
    <g id="text_15">
     <!-- % duplicate reads -->
     <defs>
      <path d="M 72.703125 32.078125 
Q 68.453125 32.078125 66.03125 28.46875 
Q 63.625 24.859375 63.625 18.40625 
Q 63.625 12.0625 66.03125 8.421875 
Q 68.453125 4.78125 72.703125 4.78125 
Q 76.859375 4.78125 79.265625 8.421875 
Q 81.6875 12.0625 81.6875 18.40625 
Q 81.6875 24.8125 79.265625 28.4375 
Q 76.859375 32.078125 72.703125 32.078125 
z
M 72.703125 38.28125 
Q 80.421875 38.28125 84.953125 32.90625 
Q 89.5 27.546875 89.5 18.40625 
Q 89.5 9.28125 84.9375 3.921875 
Q 80.375 -1.421875 72.703125 -1.421875 
Q 64.890625 -1.421875 60.34375 3.921875 
Q 55.8125 9.28125 55.8125 18.40625 
Q 55.8125 27.59375 60.375 32.9375 
Q 64.9375 38.28125 72.703125 38.28125 
z
M 22.3125 68.015625 
Q 18.109375 68.015625 15.6875 64.375 
Q 13.28125 60.75 13.28125 54.390625 
Q 13.28125 47.953125 15.671875 44.328125 
Q 18.0625 40.71875 22.3125 40.71875 
Q 26.5625 40.71875 28.96875 44.328125 
Q 31.390625 47.953125 31.390625 54.390625 
Q 31.390625 60.6875 28.953125 64.34375 
Q 26.515625 68.015625 22.3125 68.015625 
z
M 66.40625 74.21875 
L 74.21875 74.21875 
L 28.609375 -1.421875 
L 20.796875 -1.421875 
z
M 22.3125 74.21875 
Q 30.03125 74.21875 34.609375 68.875 
Q 39.203125 63.53125 39.203125 54.390625 
Q 39.203125 45.171875 34.640625 39.84375 
Q 30.078125 34.515625 22.3125 34.515625 
Q 14.546875 34.515625 10.03125 39.859375 
Q 5.515625 45.21875 5.515625 54.390625 
Q 5.515625 63.484375 10.046875 68.84375 
Q 14.59375 74.21875 22.3125 74.21875 
z
" id="DejaVuSans-37"/>
      <path d="M 8.5 21.578125 
L 8.5 54.6875 
L 17.484375 54.6875 
L 17.484375 21.921875 
Q 17.484375 14.15625 20.5 10.265625 
Q 23.53125 6.390625 29.59375 6.390625 
Q 36.859375 6.390625 41.078125 11.03125 
Q 45.3125 15.671875 45.3125 23.6875 
L 45.3125 54.6875 
L 54.296875 54.6875 
L 54.296875 0 
L 45.3125 0 
L 45.3125 8.40625 
Q 42.046875 3.421875 37.71875 1 
Q 33.40625 -1.421875 27.6875 -1.421875 
Q 18.265625 -1.421875 13.375 4.4375 
Q 8.5 10.296875 8.5 21.578125 
z
M 31.109375 56 
z
" id="DejaVuSans-117"/>
      <path d="M 9.421875 75.984375 
L 18.40625 75.984375 
L 18.40625 0 
L 9.421875 0 
z
" id="DejaVuSans-108"/>
      <path d="M 48.78125 52.59375 
L 48.78125 44.1875 
Q 44.96875 46.296875 41.140625 47.34375 
Q 37.3125 48.390625 33.40625 48.390625 
Q 24.65625 48.390625 19.8125 42.84375 
Q 14.984375 37.3125 14.984375 27.296875 
Q 14.984375 17.28125 19.8125 11.734375 
Q 24.65625 6.203125 33.40625 6.203125 
Q 37.3125 6.203125 41.140625 7.25 
Q 44.96875 8.296875 48.78125 10.40625 
L 48.78125 2.09375 
Q 45.015625 0.34375 40.984375 -0.53125 
Q 36.96875 -1.421875 32.421875 -1.421875 
Q 20.0625 -1.421875 12.78125 6.34375 
Q 5.515625 14.109375 5.515625 27.296875 
Q 5.515625 40.671875 12.859375 48.328125 
Q 20.21875 56 33.015625 56 
Q 37.15625 56 41.109375 55.140625 
Q 45.0625 54.296875 48.78125 52.59375 
z
" id="DejaVuSans-99"/>
      <path d="M 18.3125 70.21875 
L 18.3125 54.6875 
L 36.8125 54.6875 
L 36.8125 47.703125 
L 18.3125 47.703125 
L 18.3125 18.015625 
Q 18.3125 11.328125 20.140625 9.421875 
Q 21.96875 7.515625 27.59375 7.515625 
L 36.8125 7.515625 
L 36.8125 0 
L 27.59375 0 
Q 17.1875 0 13.234375 3.875 
Q 9.28125 7.765625 9.28125 18.015625 
L 9.28125 47.703125 
L 2.6875 47.703125 
L 2.6875 54.6875 
L 9.28125 54.6875 
L 9.28125 70.21875 
z
" id="DejaVuSans-116"/>
     </defs>
     <g transform="translate(14.798438 239.287556)rotate(-90)scale(0.1 -0.1)">
      <use xlink:href="#DejaVuSans-37"/>
      <use x="95.019531" xlink:href="#DejaVuSans-32"/>
      <use x="126.806641" xlink:href="#DejaVuSans-100"/>
      <use x="190.283203" xlink:href="#DejaVuSans-117"/>
      <use x="253.662109" xlink:href="#DejaVuSans-112"/>
      <use x="317.138672" xlink:href="#DejaVuSans-108"/>
      <use x="344.921875" xlink:href="#DejaVuSans-105"/>
      <use x="372.705078" xlink:href="#DejaVuSans-99"/>
      <use x="427.685547" xlink:href="#DejaVuSans-97"/>
      <use x="488.964844" xlink:href="#DejaVuSans-116"/>
      <use x="528.173828" xlink:href="#DejaVuSans-101"/>
      <use x="589.697266" xlink:href="#DejaVuSans-32"/>
      <use x="621.484375" xlink:href="#DejaVuSans-114"/>
      <use x="662.566406" xlink:href="#DejaVuSans-101"/>
      <use x="724.089844" xlink:href="#DejaVuSans-97"/>
      <use x="785.369141" xlink:href="#DejaVuSans-100"/>
      <use x="848.845703" xlink:href="#DejaVuSans-115"/>
     </g>
    </g>
   </g>
   <g id="line2d_7">
    <path clip-path="url(#pc5d64f5adb)" d="M 86.212247 246.220402 
L 86.325409 191.341249 
L 86.564745 180.893007 
L 86.921436 174.511115 
L 87.391419 169.907498 
L 87.977391 166.283562 
L 88.680946 163.292452 
L 89.504617 160.743125 
L 90.446325 158.530293 
L 91.541224 156.519772 
L 92.779239 154.704649 
L 94.155485 153.060895 
L 95.809453 151.436058 
L 97.739191 149.871337 
L 99.810648 148.467855 
L 102.210404 147.095211 
L 105.263005 145.628812 
L 108.798449 144.208093 
L 112.858795 142.836798 
L 117.791116 141.436948 
L 124.041649 139.958357 
L 129.269657 138.905026 
L 134.45592 137.984124 
L 146.372169 136.209027 
L 158.94269 134.696323 
L 179.679027 132.715717 
L 192.728564 131.692581 
L 248.248636 128.449779 
L 662.62537 119.041682 
L 662.62537 119.041682 
" style="fill:none;stroke:#7cb5ec;stroke-linecap:square;"/>
   </g>
   <g id="line2d_8">
    <path clip-path="url(#pc5d64f5adb)" d="M 86.212257 312.423078 
L 86.325779 277.355163 
L 86.573377 268.808934 
L 86.945211 263.283312 
L 87.44052 259.117132 
L 88.059115 255.747472 
L 88.804701 252.895236 
L 89.672464 250.431681 
L 90.693057 248.199704 
L 91.865902 246.17121 
L 93.201104 244.304743 
L 94.708538 242.571619 
L 96.425134 240.927016 
L 98.449013 239.300515 
L 100.48165 237.909883 
L 103.354041 236.240723 
L 106.564141 234.669395 
L 109.751587 233.330832 
L 113.508994 231.962306 
L 118.214858 230.485919 
L 123.587023 229.039081 
L 126.513231 228.334053 
L 135.821397 226.383291 
L 146.6803 224.515645 
L 159.711614 222.66568 
L 177.307239 220.622006 
L 200.812547 218.426298 
L 223.658036 216.680741 
L 256.88091 214.594634 
L 313.798149 211.810452 
L 594.626866 203.982282 
L 594.626866 203.982282 
" style="fill:none;stroke:#434348;stroke-linecap:square;"/>
   </g>
   <g id="line2d_9">
    <path clip-path="url(#pc5d64f5adb)" d="M 86.212247 308.58206 
L 86.325755 270.452324 
L 86.572776 261.347734 
L 86.943083 255.493017 
L 87.434959 251.100196 
L 88.049846 247.549968 
L 88.784508 244.572825 
L 89.655198 241.959775 
L 90.658412 239.6442 
L 91.806545 237.546028 
L 93.118681 235.606932 
L 94.578091 233.831134 
L 96.231162 232.151122 
L 98.10224 230.547484 
L 100.425637 228.867463 
L 102.558757 227.545586 
L 105.591506 225.930203 
L 108.773122 224.481534 
L 113.152639 222.784249 
L 117.547725 221.333097 
L 121.825136 220.10075 
L 126.7416 218.852032 
L 134.7991 217.095901 
L 144.929294 215.255707 
L 151.186677 214.269327 
L 159.351583 213.114312 
L 180.823255 210.595842 
L 198.830829 208.886348 
L 390.545561 199.078958 
L 390.545561 199.078958 
" style="fill:none;stroke:#90ed7d;stroke-linecap:square;"/>
   </g>
   <g id="line2d_10">
    <path clip-path="url(#pc5d64f5adb)" d="M 86.212247 321.94391 
L 86.325742 291.35884 
L 86.574564 283.56412 
L 86.950323 278.444172 
L 87.449242 274.567663 
L 88.07439 271.402461 
L 88.827619 268.711424 
L 89.716756 266.348152 
L 90.741442 264.243191 
L 91.923026 262.314176 
L 93.290335 260.505789 
L 94.831011 258.828123 
L 96.654743 257.176257 
L 98.696349 255.624825 
L 100.96111 254.163932 
L 103.533756 252.743707 
L 106.770328 251.218567 
L 110.615548 249.67986 
L 114.824737 248.241218 
L 118.024521 247.277195 
L 124.118188 245.673815 
L 131.727211 243.98764 
L 134.356134 243.46753 
L 142.693088 241.98191 
L 154.045122 240.266928 
L 170.241981 238.246961 
L 189.380071 236.29675 
L 233.250643 232.896969 
L 377.307357 226.239578 
L 377.307357 226.239578 
" style="fill:none;stroke:#f7a35c;stroke-linecap:square;"/>
   </g>
   <g id="line2d_11">
    <path clip-path="url(#pc5d64f5adb)" d="M 86.21229 315.3041 
L 86.325908 285.651548 
L 86.573725 278.3101 
L 86.945431 273.555208 
L 87.44244 269.949844 
L 88.059923 267.043066 
L 88.809515 264.560988 
L 89.695866 262.385995 
L 90.737707 260.421011 
L 91.918107 258.659651 
L 93.32309 256.969075 
L 94.907324 255.409494 
L 96.695942 253.946498 
L 98.956884 252.40651 
L 101.575433 250.921061 
L 104.807793 249.391339 
L 108.379219 247.973579 
L 111.742547 246.826524 
L 115.931611 245.585928 
L 119.791162 244.583839 
L 126.211326 243.140163 
L 133.839862 241.690869 
L 138.60509 240.895451 
L 145.468099 239.864877 
L 152.570375 238.913422 
L 161.829031 237.811305 
L 189.706459 235.144712 
L 317.214925 228.21272 
L 317.214925 228.21272 
" style="fill:none;stroke:#8085e9;stroke-linecap:square;"/>
   </g>
   <g id="line2d_12">
    <path clip-path="url(#pc5d64f5adb)" d="M 86.21228 310.574941 
L 86.325703 278.218578 
L 86.572867 270.388337 
L 86.944185 265.337753 
L 87.439293 261.532706 
L 88.057378 258.459915 
L 88.806951 255.846912 
L 89.681008 253.590254 
L 90.707722 251.551107 
L 91.847106 249.756534 
L 93.148775 248.09114 
L 94.720301 246.44161 
L 96.429961 244.951723 
L 98.637412 243.349171 
L 100.877107 241.982637 
L 103.693674 240.52551 
L 107.035238 239.066241 
L 111.037281 237.591347 
L 116.232705 235.98794 
L 119.928563 235.003751 
L 126.496474 233.488561 
L 134.825017 231.880401 
L 140.032495 231.006125 
L 150.418021 229.484702 
L 161.743587 228.077865 
L 181.620976 226.045005 
L 208.878531 223.846203 
L 235.367229 222.127256 
L 400.805672 215.507352 
L 400.805672 215.507352 
" style="fill:none;stroke:#f15c80;stroke-linecap:square;"/>
   </g>
   <g id="line2d_13">
    <path clip-path="url(#pc5d64f5adb)" d="M 86.212247 315.776103 
L 86.325758 285.215 
L 86.572867 277.809166 
L 86.945521 272.991259 
L 87.440965 269.360402 
L 88.060449 266.415064 
L 88.806304 263.920579 
L 89.687008 261.734993 
L 90.706792 259.784647 
L 91.878305 258.00854 
L 93.235852 256.344451 
L 94.826519 254.747747 
L 96.652836 253.230646 
L 98.814907 251.733513 
L 101.198327 250.345187 
L 103.823953 249.042344 
L 107.007995 247.692444 
L 110.6808 246.362865 
L 115.752541 244.81271 
L 119.544014 243.813271 
L 125.506236 242.444273 
L 131.981258 241.168236 
L 142.043025 239.495894 
L 149.834163 238.390538 
L 164.329864 236.644392 
L 229.459092 231.42285 
L 229.459092 231.42285 
" style="fill:none;stroke:#e4d354;stroke-linecap:square;"/>
   </g>
   <g id="line2d_14">
    <path clip-path="url(#pc5d64f5adb)" d="M 86.212247 316.673331 
L 86.325703 290.098226 
L 86.572599 283.753958 
L 86.945766 279.626636 
L 87.443293 276.513281 
L 88.067343 273.984307 
L 88.823193 271.834295 
L 89.719393 269.947397 
L 90.780579 268.233278 
L 92.015801 266.662206 
L 93.434558 265.210678 
L 95.071034 263.841691 
L 96.976122 262.524023 
L 99.334292 261.172042 
L 102.123185 259.845417 
L 105.375412 258.554586 
L 108.028054 257.648722 
L 112.830158 256.249047 
L 117.502212 255.102912 
L 124.437115 253.673755 
L 130.939951 252.54427 
L 138.100947 251.470313 
L 146.251738 250.409327 
L 154.268357 249.493343 
L 170.832568 247.891283 
L 219.254441 244.524273 
L 219.254441 244.524273 
" style="fill:none;stroke:#2b908f;stroke-linecap:square;"/>
   </g>
   <g id="line2d_15">
    <path clip-path="url(#pc5d64f5adb)" d="M 86.212247 287.623772 
L 86.325525 244.147163 
L 86.569476 234.656261 
L 86.934883 228.667912 
L 87.420684 224.229735 
L 88.025265 220.69293 
L 88.749354 217.742381 
L 89.599045 215.192566 
L 90.586489 212.924866 
L 91.730732 210.858509 
L 93.048568 208.949132 
L 94.458069 207.274172 
L 96.195407 205.562817 
L 98.060854 204.027166 
L 100.332256 202.453108 
L 102.711532 201.054117 
L 105.530001 199.636226 
L 108.757896 198.246178 
L 112.717181 196.790061 
L 116.5232 195.582105 
L 121.630458 194.180057 
L 127.77464 192.73973 
L 132.976927 191.678038 
L 143.485259 189.853797 
L 149.461167 188.960986 
L 157.104182 187.935182 
L 170.967225 186.330214 
L 189.110706 184.588966 
L 208.857894 183.015069 
L 290.550305 178.452197 
L 746.631981 168.077378 
L 746.631981 168.077378 
" style="fill:none;stroke:#f45b5b;stroke-linecap:square;"/>
   </g>
   <g id="line2d_16">
    <path clip-path="url(#pc5d64f5adb)" d="M 86.21227 310.475637 
L 86.325873 275.735123 
L 86.572867 267.323156 
L 86.94418 261.887619 
L 87.438181 257.799585 
L 88.055519 254.493885 
L 88.791162 251.7251 
L 89.654765 249.31107 
L 90.64244 247.178924 
L 91.798754 245.199484 
L 93.12694 243.36323 
L 94.690279 241.59479 
L 96.255946 240.114595 
L 98.380719 238.427908 
L 100.553542 236.975236 
L 102.741971 235.713299 
L 106.214542 234.010055 
L 109.008292 232.83658 
L 113.186299 231.319497 
L 116.785396 230.185752 
L 119.769822 229.340122 
L 124.331349 228.179583 
L 132.532328 226.397949 
L 140.378372 224.96108 
L 151.641798 223.219398 
L 160.460604 222.049641 
L 173.377141 220.561387 
L 196.782049 218.345687 
L 226.928783 216.089841 
L 268.092835 213.679077 
L 422.024804 207.883266 
L 879.9303 199.694705 
L 879.9303 199.694705 
" style="fill:none;stroke:#91e8e1;stroke-linecap:square;"/>
   </g>
   <g id="line2d_17">
    <path clip-path="url(#pc5d64f5adb)" d="M 86.212296 314.056068 
L 86.325983 283.276 
L 86.573155 275.664968 
L 86.945439 270.719867 
L 87.441095 266.989523 
L 88.062155 263.960386 
L 88.810298 261.396588 
L 89.691561 259.157076 
L 90.725747 257.135199 
L 91.910742 255.30317 
L 93.240187 253.638876 
L 94.785613 252.047178 
L 96.561655 250.527114 
L 98.578682 249.078582 
L 100.996164 247.615548 
L 103.933458 246.120154 
L 107.06508 244.76855 
L 110.922781 243.349992 
L 115.586866 241.896069 
L 121.360178 240.37789 
L 126.51171 239.214451 
L 132.541532 238.022937 
L 140.610468 236.644325 
L 153.037092 234.867662 
L 162.818484 233.681985 
L 171.405991 232.75652 
L 183.166508 231.626433 
L 213.549735 229.231074 
L 317.856082 223.915782 
L 317.856082 223.915782 
" style="fill:none;stroke:#7cb5ec;stroke-linecap:square;"/>
   </g>
   <g id="line2d_18">
    <path clip-path="url(#pc5d64f5adb)" d="M 86.212247 319.229144 
L 86.325703 290.364036 
L 86.57389 283.239647 
L 86.948186 278.591527 
L 87.445409 275.082037 
L 88.070785 272.214605 
L 88.823588 269.785414 
L 89.712652 267.655041 
L 90.740161 265.755593 
L 91.941109 263.996714 
L 93.353552 262.329621 
L 94.940574 260.795411 
L 96.85255 259.266207 
L 98.872261 257.91239 
L 101.666061 256.345445 
L 104.679255 254.933536 
L 108.552159 253.411968 
L 112.155843 252.207871 
L 116.642255 250.91512 
L 122.171609 249.552684 
L 128.706217 248.180837 
L 138.078096 246.531452 
L 144.923534 245.499033 
L 160.621117 243.512376 
L 191.247996 240.591499 
L 241.430477 237.240799 
L 433.511779 230.202373 
L 433.511779 230.202373 
" style="fill:none;stroke:#434348;stroke-linecap:square;"/>
   </g>
   <g id="line2d_19">
    <path clip-path="url(#pc5d64f5adb)" d="M 86.212315 238.223224 
L 86.325455 182.822444 
L 86.564511 172.086844 
L 86.919183 165.588382 
L 87.388548 160.897429 
L 87.968928 157.244184 
L 88.661815 154.246175 
L 89.475772 151.683256 
L 90.416868 149.439326 
L 91.509 147.411056 
L 92.732681 145.599488 
L 94.078024 143.97641 
L 95.720186 142.347544 
L 97.37014 140.982245 
L 99.5603 139.463538 
L 101.970318 138.06707 
L 104.554525 136.798057 
L 107.7786 135.454109 
L 111.963475 133.993248 
L 116.744917 132.601407 
L 122.731048 131.150239 
L 130.44865 129.609924 
L 140.68826 127.953427 
L 151.512657 126.525559 
L 159.327355 125.641693 
L 174.005579 124.222142 
L 210.772217 121.546259 
L 269.626862 118.645651 
L 947.494034 107.695398 
L 947.494034 107.695398 
" style="fill:none;stroke:#90ed7d;stroke-linecap:square;"/>
   </g>
   <g id="line2d_20">
    <path clip-path="url(#pc5d64f5adb)" d="M 86.21227 284.088339 
L 86.325621 239.146496 
L 86.568749 229.322116 
L 86.932194 223.141877 
L 87.415121 218.568359 
L 88.015265 214.931911 
L 88.73677 211.890635 
L 89.582181 209.270163 
L 90.564332 206.942805 
L 91.677281 204.865981 
L 92.920333 202.993686 
L 94.397112 201.173583 
L 96.03887 199.499715 
L 97.910905 197.901934 
L 100.020525 196.382114 
L 102.350472 194.952421 
L 104.860605 193.626734 
L 108.439305 192.017044 
L 111.492953 190.83694 
L 115.480266 189.494828 
L 120.99493 187.913773 
L 124.308325 187.080868 
L 130.400376 185.723838 
L 139.489166 184.014562 
L 147.614603 182.718998 
L 155.272279 181.647448 
L 172.96822 179.570926 
L 183.304088 178.548162 
L 236.564716 174.587578 
L 529.767553 164.905719 
L 529.767553 164.905719 
" style="fill:none;stroke:#f7a35c;stroke-linecap:square;"/>
   </g>
   <g id="line2d_21">
    <path clip-path="url(#pc5d64f5adb)" d="M 86.212216 284.008701 
L 86.32536 239.092626 
L 86.568512 229.624317 
L 86.932728 223.66879 
L 87.414689 219.280953 
L 88.012749 215.793962 
L 88.736896 212.857582 
L 89.587465 210.324886 
L 90.551936 208.125737 
L 91.679907 206.099375 
L 92.993478 204.20753 
L 94.472907 202.470996 
L 96.165386 200.829098 
L 98.084549 199.27454 
L 100.175994 197.843113 
L 102.851667 196.295873 
L 106.07834 194.731202 
L 109.600103 193.290358 
L 113.207974 192.023916 
L 116.988889 190.867039 
L 120.158175 190.002213 
L 127.734871 188.22537 
L 134.356897 186.921278 
L 137.18514 186.418444 
L 144.727056 185.203638 
L 154.988754 183.782446 
L 168.17787 182.241294 
L 184.393715 180.657884 
L 197.040487 179.596593 
L 234.067173 177.077232 
L 262.950132 175.52194 
L 382.431231 171.042061 
L 570.094414 166.819506 
L 570.094414 166.819506 
" style="fill:none;stroke:#8085e9;stroke-linecap:square;"/>
   </g>
   <g id="line2d_22">
    <path clip-path="url(#pc5d64f5adb)" d="M 86.212247 315.303619 
L 86.325827 284.658995 
L 86.573492 277.246092 
L 86.946341 272.435685 
L 87.441604 268.813262 
L 88.056834 265.890398 
L 88.804813 263.39037 
L 89.676729 261.227149 
L 90.710075 259.253223 
L 91.91165 257.441677 
L 93.253373 255.807488 
L 94.844685 254.21778 
L 96.389518 252.923031 
L 98.562514 251.389466 
L 100.774381 250.074206 
L 102.776384 249.039683 
L 106.165402 247.535387 
L 109.182422 246.390268 
L 114.141433 244.790497 
L 117.98702 243.728456 
L 122.673692 242.590345 
L 130.154224 241.037882 
L 133.283114 240.463166 
L 142.123675 239.019321 
L 156.578178 237.077831 
L 165.198267 236.096819 
L 192.313269 233.576081 
L 213.475333 232.012048 
L 259.442358 229.342478 
L 369.072398 225.05498 
L 684.192393 218.420397 
L 684.192393 218.420397 
" style="fill:none;stroke:#f15c80;stroke-linecap:square;"/>
   </g>
   <g id="line2d_23">
    <path clip-path="url(#pc5d64f5adb)" d="M 86.212335 302.200325 
L 86.325727 267.079523 
L 86.571799 258.614061 
L 86.941017 253.193705 
L 87.432375 249.135073 
L 88.046433 245.865426 
L 88.777483 243.137427 
L 89.654822 240.718533 
L 90.64815 238.61482 
L 91.808795 236.67117 
L 93.160798 234.849229 
L 94.714108 233.140118 
L 96.412608 231.588883 
L 98.293992 230.140429 
L 100.596595 228.641111 
L 103.087757 227.262664 
L 106.29543 225.754909 
L 109.611274 224.426007 
L 114.002089 222.925199 
L 117.610847 221.856481 
L 121.793105 220.75925 
L 129.250455 219.084627 
L 137.642187 217.51177 
L 144.553553 216.395592 
L 154.609152 214.984764 
L 165.989113 213.616107 
L 178.113809 212.35533 
L 199.398072 210.494875 
L 223.851935 208.74377 
L 258.059191 206.752434 
L 350.717975 202.872682 
L 487.061501 199.122857 
L 487.061501 199.122857 
" style="fill:none;stroke:#e4d354;stroke-linecap:square;"/>
   </g>
   <g id="line2d_24">
    <path clip-path="url(#pc5d64f5adb)" d="M 86.212257 310.02048 
L 86.325703 276.886157 
L 86.572353 268.997834 
L 86.944314 263.89739 
L 87.437883 260.076005 
L 88.056403 256.979102 
L 88.799556 254.368796 
L 89.679913 252.079989 
L 90.701126 250.039445 
L 91.861995 248.203255 
L 93.240651 246.44493 
L 94.759273 244.857326 
L 96.634585 243.23589 
L 98.730774 241.727867 
L 101.141825 240.269559 
L 104.134725 238.747811 
L 107.569001 237.279313 
L 111.61437 235.818446 
L 115.65814 234.568395 
L 120.227885 233.342419 
L 124.975745 232.227784 
L 133.210907 230.577171 
L 137.802799 229.775428 
L 148.054097 228.211215 
L 157.159978 227.02107 
L 173.298512 225.238169 
L 192.536827 223.494051 
L 283.876669 218.030883 
L 632.663258 208.951982 
L 632.663258 208.951982 
" style="fill:none;stroke:#2b908f;stroke-linecap:square;"/>
   </g>
   <g id="line2d_25">
    <path clip-path="url(#pc5d64f5adb)" d="M 43.148125 353.2239 
L 990.558125 353.2239 
" style="fill:none;stroke:#dedede;stroke-linecap:square;stroke-width:2;"/>
   </g>
   <g id="text_16">
    <!-- DupRadar General Linear Model -->
    <defs>
     <path d="M 19.671875 64.796875 
L 19.671875 8.109375 
L 31.59375 8.109375 
Q 46.6875 8.109375 53.6875 14.9375 
Q 60.6875 21.78125 60.6875 36.53125 
Q 60.6875 51.171875 53.6875 57.984375 
Q 46.6875 64.796875 31.59375 64.796875 
z
M 9.8125 72.90625 
L 30.078125 72.90625 
Q 51.265625 72.90625 61.171875 64.09375 
Q 71.09375 55.28125 71.09375 36.53125 
Q 71.09375 17.671875 61.125 8.828125 
Q 51.171875 0 30.078125 0 
L 9.8125 0 
z
" id="DejaVuSans-68"/>
     <path d="M 44.390625 34.1875 
Q 47.5625 33.109375 50.5625 29.59375 
Q 53.5625 26.078125 56.59375 19.921875 
L 66.609375 0 
L 56 0 
L 46.6875 18.703125 
Q 43.0625 26.03125 39.671875 28.421875 
Q 36.28125 30.8125 30.421875 30.8125 
L 19.671875 30.8125 
L 19.671875 0 
L 9.8125 0 
L 9.8125 72.90625 
L 32.078125 72.90625 
Q 44.578125 72.90625 50.734375 67.671875 
Q 56.890625 62.453125 56.890625 51.90625 
Q 56.890625 45.015625 53.6875 40.46875 
Q 50.484375 35.9375 44.390625 34.1875 
z
M 19.671875 64.796875 
L 19.671875 38.921875 
L 32.078125 38.921875 
Q 39.203125 38.921875 42.84375 42.21875 
Q 46.484375 45.515625 46.484375 51.90625 
Q 46.484375 58.296875 42.84375 61.546875 
Q 39.203125 64.796875 32.078125 64.796875 
z
" id="DejaVuSans-82"/>
     <path d="M 59.515625 10.40625 
L 59.515625 29.984375 
L 43.40625 29.984375 
L 43.40625 38.09375 
L 69.28125 38.09375 
L 69.28125 6.78125 
Q 63.578125 2.734375 56.6875 0.65625 
Q 49.8125 -1.421875 42 -1.421875 
Q 24.90625 -1.421875 15.25 8.5625 
Q 5.609375 18.5625 5.609375 36.375 
Q 5.609375 54.25 15.25 64.234375 
Q 24.90625 74.21875 42 74.21875 
Q 49.125 74.21875 55.546875 72.453125 
Q 61.96875 70.703125 67.390625 67.28125 
L 67.390625 56.78125 
Q 61.921875 61.421875 55.765625 63.765625 
Q 49.609375 66.109375 42.828125 66.109375 
Q 29.4375 66.109375 22.71875 58.640625 
Q 16.015625 51.171875 16.015625 36.375 
Q 16.015625 21.625 22.71875 14.15625 
Q 29.4375 6.6875 42.828125 6.6875 
Q 48.046875 6.6875 52.140625 7.59375 
Q 56.25 8.5 59.515625 10.40625 
z
" id="DejaVuSans-71"/>
     <path d="M 9.8125 72.90625 
L 19.671875 72.90625 
L 19.671875 8.296875 
L 55.171875 8.296875 
L 55.171875 0 
L 9.8125 0 
z
" id="DejaVuSans-76"/>
     <path d="M 9.8125 72.90625 
L 24.515625 72.90625 
L 43.109375 23.296875 
L 61.8125 72.90625 
L 76.515625 72.90625 
L 76.515625 0 
L 66.890625 0 
L 66.890625 64.015625 
L 48.09375 14.015625 
L 38.1875 14.015625 
L 19.390625 64.015625 
L 19.390625 0 
L 9.8125 0 
z
" id="DejaVuSans-77"/>
    </defs>
    <g transform="translate(388.775625 19.3575)scale(0.16 -0.16)">
     <use xlink:href="#DejaVuSans-68"/>
     <use x="77.001953" xlink:href="#DejaVuSans-117"/>
     <use x="140.380859" xlink:href="#DejaVuSans-112"/>
     <use x="203.857422" xlink:href="#DejaVuSans-82"/>
     <use x="273.308594" xlink:href="#DejaVuSans-97"/>
     <use x="334.587891" xlink:href="#DejaVuSans-100"/>
     <use x="398.064453" xlink:href="#DejaVuSans-97"/>
     <use x="459.34375" xlink:href="#DejaVuSans-114"/>
     <use x="500.457031" xlink:href="#DejaVuSans-32"/>
     <use x="532.244141" xlink:href="#DejaVuSans-71"/>
     <use x="609.734375" xlink:href="#DejaVuSans-101"/>
     <use x="671.257812" xlink:href="#DejaVuSans-110"/>
     <use x="734.636719" xlink:href="#DejaVuSans-101"/>
     <use x="796.160156" xlink:href="#DejaVuSans-114"/>
     <use x="837.273438" xlink:href="#DejaVuSans-97"/>
     <use x="898.552734" xlink:href="#DejaVuSans-108"/>
     <use x="926.335938" xlink:href="#DejaVuSans-32"/>
     <use x="958.123047" xlink:href="#DejaVuSans-76"/>
     <use x="1013.835938" xlink:href="#DejaVuSans-105"/>
     <use x="1041.619141" xlink:href="#DejaVuSans-110"/>
     <use x="1104.998047" xlink:href="#DejaVuSans-101"/>
     <use x="1166.521484" xlink:href="#DejaVuSans-97"/>
     <use x="1227.800781" xlink:href="#DejaVuSans-114"/>
     <use x="1268.914062" xlink:href="#DejaVuSans-32"/>
     <use x="1300.701172" xlink:href="#DejaVuSans-77"/>
     <use x="1386.980469" xlink:href="#DejaVuSans-111"/>
     <use x="1448.162109" xlink:href="#DejaVuSans-100"/>
     <use x="1511.638672" xlink:href="#DejaVuSans-101"/>
     <use x="1573.162109" xlink:href="#DejaVuSans-108"/>
    </g>
   </g>
  </g>
 </g>
 <defs>
  <clipPath id="pc5d64f5adb">
   <rect height="317.968" width="947.41" x="43.148125" y="35.2559"/>
  </clipPath>
 </defs>
</svg>
