<?xml version="1.0" encoding="utf-8" standalone="no"?>
<!DOCTYPE svg PUBLIC "-//W3C//DTD SVG 1.1//EN"
  "http://www.w3.org/Graphics/SVG/1.1/DTD/svg11.dtd">
<!-- Created with matplotlib (https://matplotlib.org/) -->
<svg height="388.844525pt" version="1.1" viewBox="0 0 1001.338125 388.844525" width="1001.338125pt" xmlns="http://www.w3.org/2000/svg" xmlns:xlink="http://www.w3.org/1999/xlink">
 <defs>
  <style type="text/css">
*{stroke-linecap:butt;stroke-linejoin:round;}
  </style>
 </defs>
 <g id="figure_1">
  <g id="patch_1">
   <path d="M 0 388.844525 
L 1001.338125 388.844525 
L 1001.338125 0 
L 0 0 
z
" style="fill:#ffffff;"/>
  </g>
  <g id="axes_1">
   <g id="patch_2">
    <path d="M 32.968125 353.2239 
L 990.638125 353.2239 
L 990.638125 35.2559 
L 32.968125 35.2559 
z
" style="fill:#ffffff;"/>
   </g>
   <g id="patch_3">
    <path clip-path="url(#pead64de34a)" d="M 32.968125 1625.0959 
L 990.638125 1625.0959 
L 990.638125 -3462.3921 
L 32.968125 -3462.3921 
z
" style="fill:#e6c3c3;"/>
   </g>
   <g id="patch_4">
    <path clip-path="url(#pead64de34a)" d="M 32.968125 512.2079 
L 990.638125 512.2079 
L 990.638125 -441.6961 
L 32.968125 -441.6961 
z
" style="fill:#e6dcc3;"/>
   </g>
   <g id="patch_5">
    <path clip-path="url(#pead64de34a)" d="M 32.968125 512.2079 
L 990.638125 512.2079 
L 990.638125 194.2399 
L 32.968125 194.2399 
z
" style="fill:#c3e6c3;"/>
   </g>
   <g id="matplotlib.axis_1">
    <g id="xtick_1">
     <g id="text_1">
      <!-- 0 -->
      <defs>
       <path d="M 31.78125 66.40625 
Q 24.171875 66.40625 20.328125 58.90625 
Q 16.5 51.421875 16.5 36.375 
Q 16.5 21.390625 20.328125 13.890625 
Q 24.171875 6.390625 31.78125 6.390625 
Q 39.453125 6.390625 43.28125 13.890625 
Q 47.125 21.390625 47.125 36.375 
Q 47.125 51.421875 43.28125 58.90625 
Q 39.453125 66.40625 31.78125 66.40625 
z
M 31.78125 74.21875 
Q 44.046875 74.21875 50.515625 64.515625 
Q 56.984375 54.828125 56.984375 36.375 
Q 56.984375 17.96875 50.515625 8.265625 
Q 44.046875 -1.421875 31.78125 -1.421875 
Q 19.53125 -1.421875 13.0625 8.265625 
Q 6.59375 17.96875 6.59375 36.375 
Q 6.59375 54.828125 13.0625 64.515625 
Q 19.53125 74.21875 31.78125 74.21875 
z
" id="DejaVuSans-48"/>
      </defs>
      <g transform="translate(30.423125 366.30265)scale(0.08 -0.08)">
       <use xlink:href="#DejaVuSans-48"/>
      </g>
     </g>
    </g>
    <g id="xtick_2">
     <g id="text_2">
      <!-- 20 -->
      <defs>
       <path d="M 19.1875 8.296875 
L 53.609375 8.296875 
L 53.609375 0 
L 7.328125 0 
L 7.328125 8.296875 
Q 12.9375 14.109375 22.625 23.890625 
Q 32.328125 33.6875 34.8125 36.53125 
Q 39.546875 41.84375 41.421875 45.53125 
Q 43.3125 49.21875 43.3125 52.78125 
Q 43.3125 58.59375 39.234375 62.25 
Q 35.15625 65.921875 28.609375 65.921875 
Q 23.96875 65.921875 18.8125 64.3125 
Q 13.671875 62.703125 7.8125 59.421875 
L 7.8125 69.390625 
Q 13.765625 71.78125 18.9375 73 
Q 24.125 74.21875 28.421875 74.21875 
Q 39.75 74.21875 46.484375 68.546875 
Q 53.21875 62.890625 53.21875 53.421875 
Q 53.21875 48.921875 51.53125 44.890625 
Q 49.859375 40.875 45.40625 35.40625 
Q 44.1875 33.984375 37.640625 27.21875 
Q 31.109375 20.453125 19.1875 8.296875 
z
" id="DejaVuSans-50"/>
      </defs>
      <g transform="translate(149.525632 366.30265)scale(0.08 -0.08)">
       <use xlink:href="#DejaVuSans-50"/>
       <use x="63.623047" xlink:href="#DejaVuSans-48"/>
      </g>
     </g>
    </g>
    <g id="xtick_3">
     <g id="text_3">
      <!-- 40 -->
      <defs>
       <path d="M 37.796875 64.3125 
L 12.890625 25.390625 
L 37.796875 25.390625 
z
M 35.203125 72.90625 
L 47.609375 72.90625 
L 47.609375 25.390625 
L 58.015625 25.390625 
L 58.015625 17.1875 
L 47.609375 17.1875 
L 47.609375 0 
L 37.796875 0 
L 37.796875 17.1875 
L 4.890625 17.1875 
L 4.890625 26.703125 
z
" id="DejaVuSans-52"/>
      </defs>
      <g transform="translate(271.173139 366.30265)scale(0.08 -0.08)">
       <use xlink:href="#DejaVuSans-52"/>
       <use x="63.623047" xlink:href="#DejaVuSans-48"/>
      </g>
     </g>
    </g>
    <g id="xtick_4">
     <g id="text_4">
      <!-- 60 -->
      <defs>
       <path d="M 33.015625 40.375 
Q 26.375 40.375 22.484375 35.828125 
Q 18.609375 31.296875 18.609375 23.390625 
Q 18.609375 15.53125 22.484375 10.953125 
Q 26.375 6.390625 33.015625 6.390625 
Q 39.65625 6.390625 43.53125 10.953125 
Q 47.40625 15.53125 47.40625 23.390625 
Q 47.40625 31.296875 43.53125 35.828125 
Q 39.65625 40.375 33.015625 40.375 
z
M 52.59375 71.296875 
L 52.59375 62.3125 
Q 48.875 64.0625 45.09375 64.984375 
Q 41.3125 65.921875 37.59375 65.921875 
Q 27.828125 65.921875 22.671875 59.328125 
Q 17.53125 52.734375 16.796875 39.40625 
Q 19.671875 43.65625 24.015625 45.921875 
Q 28.375 48.1875 33.59375 48.1875 
Q 44.578125 48.1875 50.953125 41.515625 
Q 57.328125 34.859375 57.328125 23.390625 
Q 57.328125 12.15625 50.6875 5.359375 
Q 44.046875 -1.421875 33.015625 -1.421875 
Q 20.359375 -1.421875 13.671875 8.265625 
Q 6.984375 17.96875 6.984375 36.375 
Q 6.984375 53.65625 15.1875 63.9375 
Q 23.390625 74.21875 37.203125 74.21875 
Q 40.921875 74.21875 44.703125 73.484375 
Q 48.484375 72.75 52.59375 71.296875 
z
" id="DejaVuSans-54"/>
      </defs>
      <g transform="translate(392.820646 366.30265)scale(0.08 -0.08)">
       <use xlink:href="#DejaVuSans-54"/>
       <use x="63.623047" xlink:href="#DejaVuSans-48"/>
      </g>
     </g>
    </g>
    <g id="xtick_5">
     <g id="text_5">
      <!-- 80 -->
      <defs>
       <path d="M 31.78125 34.625 
Q 24.75 34.625 20.71875 30.859375 
Q 16.703125 27.09375 16.703125 20.515625 
Q 16.703125 13.921875 20.71875 10.15625 
Q 24.75 6.390625 31.78125 6.390625 
Q 38.8125 6.390625 42.859375 10.171875 
Q 46.921875 13.96875 46.921875 20.515625 
Q 46.921875 27.09375 42.890625 30.859375 
Q 38.875 34.625 31.78125 34.625 
z
M 21.921875 38.8125 
Q 15.578125 40.375 12.03125 44.71875 
Q 8.5 49.078125 8.5 55.328125 
Q 8.5 64.0625 14.71875 69.140625 
Q 20.953125 74.21875 31.78125 74.21875 
Q 42.671875 74.21875 48.875 69.140625 
Q 55.078125 64.0625 55.078125 55.328125 
Q 55.078125 49.078125 51.53125 44.71875 
Q 48 40.375 41.703125 38.8125 
Q 48.828125 37.15625 52.796875 32.3125 
Q 56.78125 27.484375 56.78125 20.515625 
Q 56.78125 9.90625 50.3125 4.234375 
Q 43.84375 -1.421875 31.78125 -1.421875 
Q 19.734375 -1.421875 13.25 4.234375 
Q 6.78125 9.90625 6.78125 20.515625 
Q 6.78125 27.484375 10.78125 32.3125 
Q 14.796875 37.15625 21.921875 38.8125 
z
M 18.3125 54.390625 
Q 18.3125 48.734375 21.84375 45.5625 
Q 25.390625 42.390625 31.78125 42.390625 
Q 38.140625 42.390625 41.71875 45.5625 
Q 45.3125 48.734375 45.3125 54.390625 
Q 45.3125 60.0625 41.71875 63.234375 
Q 38.140625 66.40625 31.78125 66.40625 
Q 25.390625 66.40625 21.84375 63.234375 
Q 18.3125 60.0625 18.3125 54.390625 
z
" id="DejaVuSans-56"/>
      </defs>
      <g transform="translate(514.468154 366.30265)scale(0.08 -0.08)">
       <use xlink:href="#DejaVuSans-56"/>
       <use x="63.623047" xlink:href="#DejaVuSans-48"/>
      </g>
     </g>
    </g>
    <g id="xtick_6">
     <g id="text_6">
      <!-- 100 -->
      <defs>
       <path d="M 12.40625 8.296875 
L 28.515625 8.296875 
L 28.515625 63.921875 
L 10.984375 60.40625 
L 10.984375 69.390625 
L 28.421875 72.90625 
L 38.28125 72.90625 
L 38.28125 8.296875 
L 54.390625 8.296875 
L 54.390625 0 
L 12.40625 0 
z
" id="DejaVuSans-49"/>
      </defs>
      <g transform="translate(633.570661 366.30265)scale(0.08 -0.08)">
       <use xlink:href="#DejaVuSans-49"/>
       <use x="63.623047" xlink:href="#DejaVuSans-48"/>
       <use x="127.246094" xlink:href="#DejaVuSans-48"/>
      </g>
     </g>
    </g>
    <g id="xtick_7">
     <g id="text_7">
      <!-- 120 -->
      <g transform="translate(755.218168 366.30265)scale(0.08 -0.08)">
       <use xlink:href="#DejaVuSans-49"/>
       <use x="63.623047" xlink:href="#DejaVuSans-50"/>
       <use x="127.246094" xlink:href="#DejaVuSans-48"/>
      </g>
     </g>
    </g>
    <g id="xtick_8">
     <g id="text_8">
      <!-- 140 -->
      <g transform="translate(876.865675 366.30265)scale(0.08 -0.08)">
       <use xlink:href="#DejaVuSans-49"/>
       <use x="63.623047" xlink:href="#DejaVuSans-52"/>
       <use x="127.246094" xlink:href="#DejaVuSans-48"/>
      </g>
     </g>
    </g>
    <g id="text_9">
     <!-- Position in Read (bp) -->
     <defs>
      <path d="M 19.671875 64.796875 
L 19.671875 37.40625 
L 32.078125 37.40625 
Q 38.96875 37.40625 42.71875 40.96875 
Q 46.484375 44.53125 46.484375 51.125 
Q 46.484375 57.671875 42.71875 61.234375 
Q 38.96875 64.796875 32.078125 64.796875 
z
M 9.8125 72.90625 
L 32.078125 72.90625 
Q 44.34375 72.90625 50.609375 67.359375 
Q 56.890625 61.8125 56.890625 51.125 
Q 56.890625 40.328125 50.609375 34.8125 
Q 44.34375 29.296875 32.078125 29.296875 
L 19.671875 29.296875 
L 19.671875 0 
L 9.8125 0 
z
" id="DejaVuSans-80"/>
      <path d="M 30.609375 48.390625 
Q 23.390625 48.390625 19.1875 42.75 
Q 14.984375 37.109375 14.984375 27.296875 
Q 14.984375 17.484375 19.15625 11.84375 
Q 23.34375 6.203125 30.609375 6.203125 
Q 37.796875 6.203125 41.984375 11.859375 
Q 46.1875 17.53125 46.1875 27.296875 
Q 46.1875 37.015625 41.984375 42.703125 
Q 37.796875 48.390625 30.609375 48.390625 
z
M 30.609375 56 
Q 42.328125 56 49.015625 48.375 
Q 55.71875 40.765625 55.71875 27.296875 
Q 55.71875 13.875 49.015625 6.21875 
Q 42.328125 -1.421875 30.609375 -1.421875 
Q 18.84375 -1.421875 12.171875 6.21875 
Q 5.515625 13.875 5.515625 27.296875 
Q 5.515625 40.765625 12.171875 48.375 
Q 18.84375 56 30.609375 56 
z
" id="DejaVuSans-111"/>
      <path d="M 44.28125 53.078125 
L 44.28125 44.578125 
Q 40.484375 46.53125 36.375 47.5 
Q 32.28125 48.484375 27.875 48.484375 
Q 21.1875 48.484375 17.84375 46.4375 
Q 14.5 44.390625 14.5 40.28125 
Q 14.5 37.15625 16.890625 35.375 
Q 19.28125 33.59375 26.515625 31.984375 
L 29.59375 31.296875 
Q 39.15625 29.25 43.1875 25.515625 
Q 47.21875 21.78125 47.21875 15.09375 
Q 47.21875 7.46875 41.1875 3.015625 
Q 35.15625 -1.421875 24.609375 -1.421875 
Q 20.21875 -1.421875 15.453125 -0.5625 
Q 10.6875 0.296875 5.421875 2 
L 5.421875 11.28125 
Q 10.40625 8.6875 15.234375 7.390625 
Q 20.0625 6.109375 24.8125 6.109375 
Q 31.15625 6.109375 34.5625 8.28125 
Q 37.984375 10.453125 37.984375 14.40625 
Q 37.984375 18.0625 35.515625 20.015625 
Q 33.0625 21.96875 24.703125 23.78125 
L 21.578125 24.515625 
Q 13.234375 26.265625 9.515625 29.90625 
Q 5.8125 33.546875 5.8125 39.890625 
Q 5.8125 47.609375 11.28125 51.796875 
Q 16.75 56 26.8125 56 
Q 31.78125 56 36.171875 55.265625 
Q 40.578125 54.546875 44.28125 53.078125 
z
" id="DejaVuSans-115"/>
      <path d="M 9.421875 54.6875 
L 18.40625 54.6875 
L 18.40625 0 
L 9.421875 0 
z
M 9.421875 75.984375 
L 18.40625 75.984375 
L 18.40625 64.59375 
L 9.421875 64.59375 
z
" id="DejaVuSans-105"/>
      <path d="M 18.3125 70.21875 
L 18.3125 54.6875 
L 36.8125 54.6875 
L 36.8125 47.703125 
L 18.3125 47.703125 
L 18.3125 18.015625 
Q 18.3125 11.328125 20.140625 9.421875 
Q 21.96875 7.515625 27.59375 7.515625 
L 36.8125 7.515625 
L 36.8125 0 
L 27.59375 0 
Q 17.1875 0 13.234375 3.875 
Q 9.28125 7.765625 9.28125 18.015625 
L 9.28125 47.703125 
L 2.6875 47.703125 
L 2.6875 54.6875 
L 9.28125 54.6875 
L 9.28125 70.21875 
z
" id="DejaVuSans-116"/>
      <path d="M 54.890625 33.015625 
L 54.890625 0 
L 45.90625 0 
L 45.90625 32.71875 
Q 45.90625 40.484375 42.875 44.328125 
Q 39.84375 48.1875 33.796875 48.1875 
Q 26.515625 48.1875 22.3125 43.546875 
Q 18.109375 38.921875 18.109375 30.90625 
L 18.109375 0 
L 9.078125 0 
L 9.078125 54.6875 
L 18.109375 54.6875 
L 18.109375 46.1875 
Q 21.34375 51.125 25.703125 53.5625 
Q 30.078125 56 35.796875 56 
Q 45.21875 56 50.046875 50.171875 
Q 54.890625 44.34375 54.890625 33.015625 
z
" id="DejaVuSans-110"/>
      <path id="DejaVuSans-32"/>
      <path d="M 44.390625 34.1875 
Q 47.5625 33.109375 50.5625 29.59375 
Q 53.5625 26.078125 56.59375 19.921875 
L 66.609375 0 
L 56 0 
L 46.6875 18.703125 
Q 43.0625 26.03125 39.671875 28.421875 
Q 36.28125 30.8125 30.421875 30.8125 
L 19.671875 30.8125 
L 19.671875 0 
L 9.8125 0 
L 9.8125 72.90625 
L 32.078125 72.90625 
Q 44.578125 72.90625 50.734375 67.671875 
Q 56.890625 62.453125 56.890625 51.90625 
Q 56.890625 45.015625 53.6875 40.46875 
Q 50.484375 35.9375 44.390625 34.1875 
z
M 19.671875 64.796875 
L 19.671875 38.921875 
L 32.078125 38.921875 
Q 39.203125 38.921875 42.84375 42.21875 
Q 46.484375 45.515625 46.484375 51.90625 
Q 46.484375 58.296875 42.84375 61.546875 
Q 39.203125 64.796875 32.078125 64.796875 
z
" id="DejaVuSans-82"/>
      <path d="M 56.203125 29.59375 
L 56.203125 25.203125 
L 14.890625 25.203125 
Q 15.484375 15.921875 20.484375 11.0625 
Q 25.484375 6.203125 34.421875 6.203125 
Q 39.59375 6.203125 44.453125 7.46875 
Q 49.3125 8.734375 54.109375 11.28125 
L 54.109375 2.78125 
Q 49.265625 0.734375 44.1875 -0.34375 
Q 39.109375 -1.421875 33.890625 -1.421875 
Q 20.796875 -1.421875 13.15625 6.1875 
Q 5.515625 13.8125 5.515625 26.8125 
Q 5.515625 40.234375 12.765625 48.109375 
Q 20.015625 56 32.328125 56 
Q 43.359375 56 49.78125 48.890625 
Q 56.203125 41.796875 56.203125 29.59375 
z
M 47.21875 32.234375 
Q 47.125 39.59375 43.09375 43.984375 
Q 39.0625 48.390625 32.421875 48.390625 
Q 24.90625 48.390625 20.390625 44.140625 
Q 15.875 39.890625 15.1875 32.171875 
z
" id="DejaVuSans-101"/>
      <path d="M 34.28125 27.484375 
Q 23.390625 27.484375 19.1875 25 
Q 14.984375 22.515625 14.984375 16.5 
Q 14.984375 11.71875 18.140625 8.90625 
Q 21.296875 6.109375 26.703125 6.109375 
Q 34.1875 6.109375 38.703125 11.40625 
Q 43.21875 16.703125 43.21875 25.484375 
L 43.21875 27.484375 
z
M 52.203125 31.203125 
L 52.203125 0 
L 43.21875 0 
L 43.21875 8.296875 
Q 40.140625 3.328125 35.546875 0.953125 
Q 30.953125 -1.421875 24.3125 -1.421875 
Q 15.921875 -1.421875 10.953125 3.296875 
Q 6 8.015625 6 15.921875 
Q 6 25.140625 12.171875 29.828125 
Q 18.359375 34.515625 30.609375 34.515625 
L 43.21875 34.515625 
L 43.21875 35.40625 
Q 43.21875 41.609375 39.140625 45 
Q 35.0625 48.390625 27.6875 48.390625 
Q 23 48.390625 18.546875 47.265625 
Q 14.109375 46.140625 10.015625 43.890625 
L 10.015625 52.203125 
Q 14.9375 54.109375 19.578125 55.046875 
Q 24.21875 56 28.609375 56 
Q 40.484375 56 46.34375 49.84375 
Q 52.203125 43.703125 52.203125 31.203125 
z
" id="DejaVuSans-97"/>
      <path d="M 45.40625 46.390625 
L 45.40625 75.984375 
L 54.390625 75.984375 
L 54.390625 0 
L 45.40625 0 
L 45.40625 8.203125 
Q 42.578125 3.328125 38.25 0.953125 
Q 33.9375 -1.421875 27.875 -1.421875 
Q 17.96875 -1.421875 11.734375 6.484375 
Q 5.515625 14.40625 5.515625 27.296875 
Q 5.515625 40.1875 11.734375 48.09375 
Q 17.96875 56 27.875 56 
Q 33.9375 56 38.25 53.625 
Q 42.578125 51.265625 45.40625 46.390625 
z
M 14.796875 27.296875 
Q 14.796875 17.390625 18.875 11.75 
Q 22.953125 6.109375 30.078125 6.109375 
Q 37.203125 6.109375 41.296875 11.75 
Q 45.40625 17.390625 45.40625 27.296875 
Q 45.40625 37.203125 41.296875 42.84375 
Q 37.203125 48.484375 30.078125 48.484375 
Q 22.953125 48.484375 18.875 42.84375 
Q 14.796875 37.203125 14.796875 27.296875 
z
" id="DejaVuSans-100"/>
      <path d="M 31 75.875 
Q 24.46875 64.65625 21.28125 53.65625 
Q 18.109375 42.671875 18.109375 31.390625 
Q 18.109375 20.125 21.3125 9.0625 
Q 24.515625 -2 31 -13.1875 
L 23.1875 -13.1875 
Q 15.875 -1.703125 12.234375 9.375 
Q 8.59375 20.453125 8.59375 31.390625 
Q 8.59375 42.28125 12.203125 53.3125 
Q 15.828125 64.359375 23.1875 75.875 
z
" id="DejaVuSans-40"/>
      <path d="M 48.6875 27.296875 
Q 48.6875 37.203125 44.609375 42.84375 
Q 40.53125 48.484375 33.40625 48.484375 
Q 26.265625 48.484375 22.1875 42.84375 
Q 18.109375 37.203125 18.109375 27.296875 
Q 18.109375 17.390625 22.1875 11.75 
Q 26.265625 6.109375 33.40625 6.109375 
Q 40.53125 6.109375 44.609375 11.75 
Q 48.6875 17.390625 48.6875 27.296875 
z
M 18.109375 46.390625 
Q 20.953125 51.265625 25.265625 53.625 
Q 29.59375 56 35.59375 56 
Q 45.5625 56 51.78125 48.09375 
Q 58.015625 40.1875 58.015625 27.296875 
Q 58.015625 14.40625 51.78125 6.484375 
Q 45.5625 -1.421875 35.59375 -1.421875 
Q 29.59375 -1.421875 25.265625 0.953125 
Q 20.953125 3.328125 18.109375 8.203125 
L 18.109375 0 
L 9.078125 0 
L 9.078125 75.984375 
L 18.109375 75.984375 
z
" id="DejaVuSans-98"/>
      <path d="M 18.109375 8.203125 
L 18.109375 -20.796875 
L 9.078125 -20.796875 
L 9.078125 54.6875 
L 18.109375 54.6875 
L 18.109375 46.390625 
Q 20.953125 51.265625 25.265625 53.625 
Q 29.59375 56 35.59375 56 
Q 45.5625 56 51.78125 48.09375 
Q 58.015625 40.1875 58.015625 27.296875 
Q 58.015625 14.40625 51.78125 6.484375 
Q 45.5625 -1.421875 35.59375 -1.421875 
Q 29.59375 -1.421875 25.265625 0.953125 
Q 20.953125 3.328125 18.109375 8.203125 
z
M 48.6875 27.296875 
Q 48.6875 37.203125 44.609375 42.84375 
Q 40.53125 48.484375 33.40625 48.484375 
Q 26.265625 48.484375 22.1875 42.84375 
Q 18.109375 37.203125 18.109375 27.296875 
Q 18.109375 17.390625 22.1875 11.75 
Q 26.265625 6.109375 33.40625 6.109375 
Q 40.53125 6.109375 44.609375 11.75 
Q 48.6875 17.390625 48.6875 27.296875 
z
" id="DejaVuSans-112"/>
      <path d="M 8.015625 75.875 
L 15.828125 75.875 
Q 23.140625 64.359375 26.78125 53.3125 
Q 30.421875 42.28125 30.421875 31.390625 
Q 30.421875 20.453125 26.78125 9.375 
Q 23.140625 -1.703125 15.828125 -13.1875 
L 8.015625 -13.1875 
Q 14.5 -2 17.703125 9.0625 
Q 20.90625 20.125 20.90625 31.390625 
Q 20.90625 42.671875 17.703125 53.65625 
Q 14.5 64.65625 8.015625 75.875 
z
" id="DejaVuSans-41"/>
     </defs>
     <g transform="translate(459.799219 379.564837)scale(0.1 -0.1)">
      <use xlink:href="#DejaVuSans-80"/>
      <use x="60.255859" xlink:href="#DejaVuSans-111"/>
      <use x="121.4375" xlink:href="#DejaVuSans-115"/>
      <use x="173.537109" xlink:href="#DejaVuSans-105"/>
      <use x="201.320312" xlink:href="#DejaVuSans-116"/>
      <use x="240.529297" xlink:href="#DejaVuSans-105"/>
      <use x="268.3125" xlink:href="#DejaVuSans-111"/>
      <use x="329.494141" xlink:href="#DejaVuSans-110"/>
      <use x="392.873047" xlink:href="#DejaVuSans-32"/>
      <use x="424.660156" xlink:href="#DejaVuSans-105"/>
      <use x="452.443359" xlink:href="#DejaVuSans-110"/>
      <use x="515.822266" xlink:href="#DejaVuSans-32"/>
      <use x="547.609375" xlink:href="#DejaVuSans-82"/>
      <use x="617.029297" xlink:href="#DejaVuSans-101"/>
      <use x="678.552734" xlink:href="#DejaVuSans-97"/>
      <use x="739.832031" xlink:href="#DejaVuSans-100"/>
      <use x="803.308594" xlink:href="#DejaVuSans-32"/>
      <use x="835.095703" xlink:href="#DejaVuSans-40"/>
      <use x="874.109375" xlink:href="#DejaVuSans-98"/>
      <use x="937.585938" xlink:href="#DejaVuSans-112"/>
      <use x="1001.0625" xlink:href="#DejaVuSans-41"/>
     </g>
    </g>
   </g>
   <g id="matplotlib.axis_2">
    <g id="ytick_1">
     <g id="line2d_1">
      <path clip-path="url(#pead64de34a)" d="M 32.968125 353.2239 
L 990.638125 353.2239 
" style="fill:none;stroke:#dedede;stroke-linecap:square;"/>
     </g>
     <g id="text_10">
      <!-- 0 -->
      <g transform="translate(20.878125 356.263275)scale(0.08 -0.08)">
       <use xlink:href="#DejaVuSans-48"/>
      </g>
     </g>
    </g>
    <g id="ytick_2">
     <g id="line2d_2">
      <path clip-path="url(#pead64de34a)" d="M 32.968125 289.6303 
L 990.638125 289.6303 
" style="fill:none;stroke:#dedede;stroke-linecap:square;"/>
     </g>
     <g id="text_11">
      <!-- 1 -->
      <g transform="translate(20.878125 292.669675)scale(0.08 -0.08)">
       <use xlink:href="#DejaVuSans-49"/>
      </g>
     </g>
    </g>
    <g id="ytick_3">
     <g id="line2d_3">
      <path clip-path="url(#pead64de34a)" d="M 32.968125 226.0367 
L 990.638125 226.0367 
" style="fill:none;stroke:#dedede;stroke-linecap:square;"/>
     </g>
     <g id="text_12">
      <!-- 2 -->
      <g transform="translate(20.878125 229.076075)scale(0.08 -0.08)">
       <use xlink:href="#DejaVuSans-50"/>
      </g>
     </g>
    </g>
    <g id="ytick_4">
     <g id="line2d_4">
      <path clip-path="url(#pead64de34a)" d="M 32.968125 162.4431 
L 990.638125 162.4431 
" style="fill:none;stroke:#dedede;stroke-linecap:square;"/>
     </g>
     <g id="text_13">
      <!-- 3 -->
      <defs>
       <path d="M 40.578125 39.3125 
Q 47.65625 37.796875 51.625 33 
Q 55.609375 28.21875 55.609375 21.1875 
Q 55.609375 10.40625 48.1875 4.484375 
Q 40.765625 -1.421875 27.09375 -1.421875 
Q 22.515625 -1.421875 17.65625 -0.515625 
Q 12.796875 0.390625 7.625 2.203125 
L 7.625 11.71875 
Q 11.71875 9.328125 16.59375 8.109375 
Q 21.484375 6.890625 26.8125 6.890625 
Q 36.078125 6.890625 40.9375 10.546875 
Q 45.796875 14.203125 45.796875 21.1875 
Q 45.796875 27.640625 41.28125 31.265625 
Q 36.765625 34.90625 28.71875 34.90625 
L 20.21875 34.90625 
L 20.21875 43.015625 
L 29.109375 43.015625 
Q 36.375 43.015625 40.234375 45.921875 
Q 44.09375 48.828125 44.09375 54.296875 
Q 44.09375 59.90625 40.109375 62.90625 
Q 36.140625 65.921875 28.71875 65.921875 
Q 24.65625 65.921875 20.015625 65.03125 
Q 15.375 64.15625 9.8125 62.3125 
L 9.8125 71.09375 
Q 15.4375 72.65625 20.34375 73.4375 
Q 25.25 74.21875 29.59375 74.21875 
Q 40.828125 74.21875 47.359375 69.109375 
Q 53.90625 64.015625 53.90625 55.328125 
Q 53.90625 49.265625 50.4375 45.09375 
Q 46.96875 40.921875 40.578125 39.3125 
z
" id="DejaVuSans-51"/>
      </defs>
      <g transform="translate(20.878125 165.482475)scale(0.08 -0.08)">
       <use xlink:href="#DejaVuSans-51"/>
      </g>
     </g>
    </g>
    <g id="ytick_5">
     <g id="line2d_5">
      <path clip-path="url(#pead64de34a)" d="M 32.968125 98.8495 
L 990.638125 98.8495 
" style="fill:none;stroke:#dedede;stroke-linecap:square;"/>
     </g>
     <g id="text_14">
      <!-- 4 -->
      <g transform="translate(20.878125 101.888875)scale(0.08 -0.08)">
       <use xlink:href="#DejaVuSans-52"/>
      </g>
     </g>
    </g>
    <g id="ytick_6">
     <g id="line2d_6">
      <path clip-path="url(#pead64de34a)" d="M 32.968125 35.2559 
L 990.638125 35.2559 
" style="fill:none;stroke:#dedede;stroke-linecap:square;"/>
     </g>
     <g id="text_15">
      <!-- 5 -->
      <defs>
       <path d="M 10.796875 72.90625 
L 49.515625 72.90625 
L 49.515625 64.59375 
L 19.828125 64.59375 
L 19.828125 46.734375 
Q 21.96875 47.46875 24.109375 47.828125 
Q 26.265625 48.1875 28.421875 48.1875 
Q 40.625 48.1875 47.75 41.5 
Q 54.890625 34.8125 54.890625 23.390625 
Q 54.890625 11.625 47.5625 5.09375 
Q 40.234375 -1.421875 26.90625 -1.421875 
Q 22.3125 -1.421875 17.546875 -0.640625 
Q 12.796875 0.140625 7.71875 1.703125 
L 7.71875 11.625 
Q 12.109375 9.234375 16.796875 8.0625 
Q 21.484375 6.890625 26.703125 6.890625 
Q 35.15625 6.890625 40.078125 11.328125 
Q 45.015625 15.765625 45.015625 23.390625 
Q 45.015625 31 40.078125 35.4375 
Q 35.15625 39.890625 26.703125 39.890625 
Q 22.75 39.890625 18.8125 39.015625 
Q 14.890625 38.140625 10.796875 36.28125 
z
" id="DejaVuSans-53"/>
      </defs>
      <g transform="translate(20.878125 38.295275)scale(0.08 -0.08)">
       <use xlink:href="#DejaVuSans-53"/>
      </g>
     </g>
    </g>
    <g id="text_16">
     <!-- Percentage N-Count -->
     <defs>
      <path d="M 41.109375 46.296875 
Q 39.59375 47.171875 37.8125 47.578125 
Q 36.03125 48 33.890625 48 
Q 26.265625 48 22.1875 43.046875 
Q 18.109375 38.09375 18.109375 28.8125 
L 18.109375 0 
L 9.078125 0 
L 9.078125 54.6875 
L 18.109375 54.6875 
L 18.109375 46.1875 
Q 20.953125 51.171875 25.484375 53.578125 
Q 30.03125 56 36.53125 56 
Q 37.453125 56 38.578125 55.875 
Q 39.703125 55.765625 41.0625 55.515625 
z
" id="DejaVuSans-114"/>
      <path d="M 48.78125 52.59375 
L 48.78125 44.1875 
Q 44.96875 46.296875 41.140625 47.34375 
Q 37.3125 48.390625 33.40625 48.390625 
Q 24.65625 48.390625 19.8125 42.84375 
Q 14.984375 37.3125 14.984375 27.296875 
Q 14.984375 17.28125 19.8125 11.734375 
Q 24.65625 6.203125 33.40625 6.203125 
Q 37.3125 6.203125 41.140625 7.25 
Q 44.96875 8.296875 48.78125 10.40625 
L 48.78125 2.09375 
Q 45.015625 0.34375 40.984375 -0.53125 
Q 36.96875 -1.421875 32.421875 -1.421875 
Q 20.0625 -1.421875 12.78125 6.34375 
Q 5.515625 14.109375 5.515625 27.296875 
Q 5.515625 40.671875 12.859375 48.328125 
Q 20.21875 56 33.015625 56 
Q 37.15625 56 41.109375 55.140625 
Q 45.0625 54.296875 48.78125 52.59375 
z
" id="DejaVuSans-99"/>
      <path d="M 45.40625 27.984375 
Q 45.40625 37.75 41.375 43.109375 
Q 37.359375 48.484375 30.078125 48.484375 
Q 22.859375 48.484375 18.828125 43.109375 
Q 14.796875 37.75 14.796875 27.984375 
Q 14.796875 18.265625 18.828125 12.890625 
Q 22.859375 7.515625 30.078125 7.515625 
Q 37.359375 7.515625 41.375 12.890625 
Q 45.40625 18.265625 45.40625 27.984375 
z
M 54.390625 6.78125 
Q 54.390625 -7.171875 48.1875 -13.984375 
Q 42 -20.796875 29.203125 -20.796875 
Q 24.46875 -20.796875 20.265625 -20.09375 
Q 16.0625 -19.390625 12.109375 -17.921875 
L 12.109375 -9.1875 
Q 16.0625 -11.328125 19.921875 -12.34375 
Q 23.78125 -13.375 27.78125 -13.375 
Q 36.625 -13.375 41.015625 -8.765625 
Q 45.40625 -4.15625 45.40625 5.171875 
L 45.40625 9.625 
Q 42.625 4.78125 38.28125 2.390625 
Q 33.9375 0 27.875 0 
Q 17.828125 0 11.671875 7.65625 
Q 5.515625 15.328125 5.515625 27.984375 
Q 5.515625 40.671875 11.671875 48.328125 
Q 17.828125 56 27.875 56 
Q 33.9375 56 38.28125 53.609375 
Q 42.625 51.21875 45.40625 46.390625 
L 45.40625 54.6875 
L 54.390625 54.6875 
z
" id="DejaVuSans-103"/>
      <path d="M 9.8125 72.90625 
L 23.09375 72.90625 
L 55.421875 11.921875 
L 55.421875 72.90625 
L 64.984375 72.90625 
L 64.984375 0 
L 51.703125 0 
L 19.390625 60.984375 
L 19.390625 0 
L 9.8125 0 
z
" id="DejaVuSans-78"/>
      <path d="M 4.890625 31.390625 
L 31.203125 31.390625 
L 31.203125 23.390625 
L 4.890625 23.390625 
z
" id="DejaVuSans-45"/>
      <path d="M 64.40625 67.28125 
L 64.40625 56.890625 
Q 59.421875 61.53125 53.78125 63.8125 
Q 48.140625 66.109375 41.796875 66.109375 
Q 29.296875 66.109375 22.65625 58.46875 
Q 16.015625 50.828125 16.015625 36.375 
Q 16.015625 21.96875 22.65625 14.328125 
Q 29.296875 6.6875 41.796875 6.6875 
Q 48.140625 6.6875 53.78125 8.984375 
Q 59.421875 11.28125 64.40625 15.921875 
L 64.40625 5.609375 
Q 59.234375 2.09375 53.4375 0.328125 
Q 47.65625 -1.421875 41.21875 -1.421875 
Q 24.65625 -1.421875 15.125 8.703125 
Q 5.609375 18.84375 5.609375 36.375 
Q 5.609375 53.953125 15.125 64.078125 
Q 24.65625 74.21875 41.21875 74.21875 
Q 47.75 74.21875 53.53125 72.484375 
Q 59.328125 70.75 64.40625 67.28125 
z
" id="DejaVuSans-67"/>
      <path d="M 8.5 21.578125 
L 8.5 54.6875 
L 17.484375 54.6875 
L 17.484375 21.921875 
Q 17.484375 14.15625 20.5 10.265625 
Q 23.53125 6.390625 29.59375 6.390625 
Q 36.859375 6.390625 41.078125 11.03125 
Q 45.3125 15.671875 45.3125 23.6875 
L 45.3125 54.6875 
L 54.296875 54.6875 
L 54.296875 0 
L 45.3125 0 
L 45.3125 8.40625 
Q 42.046875 3.421875 37.71875 1 
Q 33.40625 -1.421875 27.6875 -1.421875 
Q 18.265625 -1.421875 13.375 4.4375 
Q 8.5 10.296875 8.5 21.578125 
z
M 31.109375 56 
z
" id="DejaVuSans-117"/>
     </defs>
     <g transform="translate(14.798438 244.634431)rotate(-90)scale(0.1 -0.1)">
      <use xlink:href="#DejaVuSans-80"/>
      <use x="60.255859" xlink:href="#DejaVuSans-101"/>
      <use x="121.779297" xlink:href="#DejaVuSans-114"/>
      <use x="162.861328" xlink:href="#DejaVuSans-99"/>
      <use x="217.841797" xlink:href="#DejaVuSans-101"/>
      <use x="279.365234" xlink:href="#DejaVuSans-110"/>
      <use x="342.744141" xlink:href="#DejaVuSans-116"/>
      <use x="381.953125" xlink:href="#DejaVuSans-97"/>
      <use x="443.232422" xlink:href="#DejaVuSans-103"/>
      <use x="506.708984" xlink:href="#DejaVuSans-101"/>
      <use x="568.232422" xlink:href="#DejaVuSans-32"/>
      <use x="600.019531" xlink:href="#DejaVuSans-78"/>
      <use x="674.824219" xlink:href="#DejaVuSans-45"/>
      <use x="710.908203" xlink:href="#DejaVuSans-67"/>
      <use x="780.732422" xlink:href="#DejaVuSans-111"/>
      <use x="841.914062" xlink:href="#DejaVuSans-117"/>
      <use x="905.292969" xlink:href="#DejaVuSans-110"/>
      <use x="968.671875" xlink:href="#DejaVuSans-116"/>
     </g>
    </g>
   </g>
   <g id="line2d_7">
    <path clip-path="url(#pead64de34a)" d="M 39.0505 352.745443 
L 45.132876 353.2239 
L 51.215251 351.224881 
L 57.297626 349.747783 
L 63.380002 353.2239 
L 69.462377 353.2239 
L 75.544753 353.2239 
L 81.627128 353.2239 
L 87.709503 353.2239 
L 105.956629 353.206027 
L 136.368506 353.210409 
L 166.780383 353.220944 
L 197.19226 353.180783 
L 227.604136 353.149072 
L 258.016013 353.183391 
L 288.42789 353.034256 
L 318.839767 352.917493 
L 349.251644 353.073965 
L 379.66352 353.044479 
L 410.075397 353.02984 
L 440.487274 352.845029 
L 470.899151 353.094167 
L 501.311028 353.111588 
L 531.722904 353.003205 
L 562.134781 353.056092 
L 592.546658 353.064333 
L 622.958535 353.099557 
L 653.370411 353.052198 
L 683.782288 353.05112 
L 714.194165 353.113674 
L 744.606042 353.034151 
L 775.017919 353.13186 
L 805.429795 352.976396 
L 835.841672 353.147994 
L 866.253549 353.152723 
L 896.665426 353.111692 
L 927.077303 353.042983 
L 945.324429 352.877575 
" style="fill:none;stroke:#5cb85c;stroke-linecap:square;"/>
   </g>
   <g id="line2d_8">
    <path clip-path="url(#pead64de34a)" d="M 39.0505 342.079775 
L 45.132876 353.2239 
L 51.215251 353.072644 
L 57.297626 348.248605 
L 63.380002 352.562196 
L 69.462377 353.194692 
L 75.544753 352.805424 
L 81.627128 353.220597 
L 87.709503 352.884703 
L 105.956629 353.019652 
L 136.368506 353.064264 
L 166.780383 353.044444 
L 197.19226 352.922291 
L 227.604136 353.133737 
L 258.016013 353.109988 
L 288.42789 353.153035 
L 318.839767 353.106894 
L 349.251644 353.168405 
L 379.66352 353.14556 
L 410.075397 353.158981 
L 440.487274 353.093541 
L 470.899151 353.153105 
L 501.311028 353.192571 
L 531.722904 353.191945 
L 562.134781 353.199316 
L 592.546658 353.203906 
L 622.958535 353.086935 
L 653.370411 353.106024 
L 683.782288 353.097331 
L 714.194165 353.102095 
L 744.606042 353.153592 
L 775.017919 353.051468 
L 805.429795 353.140518 
L 835.841672 353.12654 
L 866.253549 353.060752 
L 896.665426 352.994859 
L 927.077303 352.936826 
L 945.324429 352.792558 
" style="fill:none;stroke:#5cb85c;stroke-linecap:square;"/>
   </g>
   <g id="line2d_9">
    <path clip-path="url(#pead64de34a)" d="M 39.0505 352.746712 
L 45.132876 353.2239 
L 51.215251 351.188764 
L 57.297626 349.806576 
L 63.380002 353.2239 
L 69.462377 353.2239 
L 75.544753 353.2239 
L 81.627128 353.2239 
L 87.709503 353.2239 
L 105.956629 353.208499 
L 136.368506 353.209747 
L 166.780383 353.220905 
L 197.19226 353.183115 
L 227.604136 353.15381 
L 258.016013 353.187999 
L 288.42789 353.046073 
L 318.839767 352.934165 
L 349.251644 353.077838 
L 379.66352 353.05274 
L 410.075397 353.034486 
L 440.487274 352.863183 
L 470.899151 353.097838 
L 501.311028 353.118337 
L 531.722904 353.017588 
L 562.134781 353.065431 
L 592.546658 353.079371 
L 622.958535 353.107856 
L 653.370411 353.065289 
L 683.782288 353.063649 
L 714.194165 353.120441 
L 744.606042 353.047142 
L 775.017919 353.136306 
L 805.429795 352.988996 
L 835.841672 353.15955 
L 866.253549 353.158623 
L 896.665426 353.121403 
L 927.077303 353.059121 
L 945.324429 352.90518 
" style="fill:none;stroke:#5cb85c;stroke-linecap:square;"/>
   </g>
   <g id="line2d_10">
    <path clip-path="url(#pead64de34a)" d="M 39.0505 341.973167 
L 45.132876 353.2239 
L 51.215251 353.074879 
L 57.297626 348.299788 
L 63.380002 352.589313 
L 69.462377 353.193418 
L 75.544753 352.818192 
L 81.627128 353.223009 
L 87.709503 352.895555 
L 105.956629 353.029602 
L 136.368506 353.07741 
L 166.780383 353.050494 
L 197.19226 352.922364 
L 227.604136 353.134095 
L 258.016013 353.114986 
L 288.42789 353.154523 
L 318.839767 353.107464 
L 349.251644 353.165611 
L 379.66352 353.142152 
L 410.075397 353.159229 
L 440.487274 353.100191 
L 470.899151 353.149782 
L 501.311028 353.188712 
L 531.722904 353.18832 
L 562.134781 353.196377 
L 592.546658 353.197625 
L 622.958535 353.084291 
L 653.370411 353.102366 
L 683.782288 353.092597 
L 714.194165 353.098195 
L 744.606042 353.149924 
L 775.017919 353.058266 
L 805.429795 353.137625 
L 835.841672 353.123685 
L 866.253549 353.067357 
L 896.665426 353.000832 
L 927.077303 352.93994 
L 945.324429 352.820153 
" style="fill:none;stroke:#5cb85c;stroke-linecap:square;"/>
   </g>
   <g id="line2d_11">
    <path clip-path="url(#pead64de34a)" d="M 39.0505 352.737228 
L 45.132876 353.2239 
L 51.215251 351.156243 
L 57.297626 349.727869 
L 63.380002 353.2239 
L 69.462377 353.2239 
L 75.544753 353.2239 
L 81.627128 353.2239 
L 87.709503 353.2239 
L 105.956629 353.207317 
L 136.368506 353.211523 
L 166.780383 353.220816 
L 197.19226 353.181441 
L 227.604136 353.15188 
L 258.016013 353.185166 
L 288.42789 353.033757 
L 318.839767 352.920881 
L 349.251644 353.080061 
L 379.66352 353.049219 
L 410.075397 353.036721 
L 440.487274 352.853989 
L 470.899151 353.097646 
L 501.311028 353.109021 
L 531.722904 353.003996 
L 562.134781 353.05743 
L 592.546658 353.070528 
L 622.958535 353.108661 
L 653.370411 353.060755 
L 683.782288 353.052423 
L 714.194165 353.116351 
L 744.606042 353.040086 
L 775.017919 353.13682 
L 805.429795 352.979322 
L 835.841672 353.151079 
L 866.253549 353.155886 
L 896.665426 353.120918 
L 927.077303 353.046615 
L 945.324429 352.888036 
" style="fill:none;stroke:#5cb85c;stroke-linecap:square;"/>
   </g>
   <g id="line2d_12">
    <path clip-path="url(#pead64de34a)" d="M 39.0505 341.98437 
L 45.132876 353.2239 
L 51.215251 353.0791 
L 57.297626 348.206768 
L 63.380002 352.564589 
L 69.462377 353.193458 
L 75.544753 352.812532 
L 81.627128 353.220495 
L 87.709503 352.895847 
L 105.956629 353.025025 
L 136.368506 353.068205 
L 166.780383 353.053745 
L 197.19226 352.923084 
L 227.604136 353.137421 
L 258.016013 353.112546 
L 288.42789 353.155686 
L 318.839767 353.118074 
L 349.251644 353.171828 
L 379.66352 353.147354 
L 410.075397 353.161854 
L 440.487274 353.099648 
L 470.899151 353.156847 
L 501.311028 353.193017 
L 531.722904 353.193178 
L 562.134781 353.199867 
L 592.546658 353.203432 
L 622.958535 353.088192 
L 653.370411 353.10814 
L 683.782288 353.094802 
L 714.194165 353.100209 
L 744.606042 353.154925 
L 775.017919 353.047136 
L 805.429795 353.140385 
L 835.841672 353.125444 
L 866.253549 353.061556 
L 896.665426 352.991499 
L 927.077303 352.937905 
L 945.324429 352.793706 
" style="fill:none;stroke:#5cb85c;stroke-linecap:square;"/>
   </g>
   <g id="line2d_13">
    <path clip-path="url(#pead64de34a)" d="M 39.0505 352.749778 
L 45.132876 353.2239 
L 51.215251 351.225664 
L 57.297626 349.796093 
L 63.380002 353.2239 
L 69.462377 353.2239 
L 75.544753 353.2239 
L 81.627128 353.2239 
L 87.709503 353.2239 
L 105.956629 353.206432 
L 136.368506 353.211283 
L 166.780383 353.220983 
L 197.19226 353.180881 
L 227.604136 353.148547 
L 258.016013 353.185661 
L 288.42789 353.035587 
L 318.839767 352.923752 
L 349.251644 353.075935 
L 379.66352 353.048239 
L 410.075397 353.032283 
L 440.487274 352.856447 
L 470.899151 353.097655 
L 501.311028 353.113365 
L 531.722904 353.009368 
L 562.134781 353.058467 
L 592.546658 353.07119 
L 622.958535 353.106969 
L 653.370411 353.056956 
L 683.782288 353.055515 
L 714.194165 353.113787 
L 744.606042 353.03875 
L 775.017919 353.13368 
L 805.429795 352.981954 
L 835.841672 353.150972 
L 866.253549 353.1541 
L 896.665426 353.117372 
L 927.077303 353.04961 
L 945.324429 352.889308 
" style="fill:none;stroke:#5cb85c;stroke-linecap:square;"/>
   </g>
   <g id="line2d_14">
    <path clip-path="url(#pead64de34a)" d="M 39.0505 341.941448 
L 45.132876 353.2239 
L 51.215251 353.077692 
L 57.297626 348.295175 
L 63.380002 352.578792 
L 69.462377 353.19016 
L 75.544753 352.814974 
L 81.627128 353.221615 
L 87.709503 352.892999 
L 105.956629 353.023742 
L 136.368506 353.070311 
L 166.780383 353.049294 
L 197.19226 352.924279 
L 227.604136 353.135789 
L 258.016013 353.111362 
L 288.42789 353.155646 
L 318.839767 353.112241 
L 349.251644 353.166787 
L 379.66352 353.145067 
L 410.075397 353.159688 
L 440.487274 353.099096 
L 470.899151 353.15424 
L 501.311028 353.19153 
L 531.722904 353.192444 
L 562.134781 353.198278 
L 592.546658 353.201758 
L 622.958535 353.087322 
L 653.370411 353.105282 
L 683.782288 353.092699 
L 714.194165 353.099553 
L 744.606042 353.154416 
L 775.017919 353.054531 
L 805.429795 353.141201 
L 835.841672 353.123698 
L 866.253549 353.064582 
L 896.665426 352.994677 
L 927.077303 352.936861 
L 945.324429 352.8032 
" style="fill:none;stroke:#5cb85c;stroke-linecap:square;"/>
   </g>
   <g id="line2d_15">
    <path clip-path="url(#pead64de34a)" d="M 39.0505 352.744872 
L 45.132876 353.2239 
L 51.215251 351.190004 
L 57.297626 349.751418 
L 63.380002 353.2239 
L 69.462377 353.2239 
L 75.544753 353.2239 
L 81.627128 353.2239 
L 87.709503 353.2239 
L 105.956629 353.207331 
L 136.368506 353.20906 
L 166.780383 353.221045 
L 197.19226 353.180581 
L 227.604136 353.14966 
L 258.016013 353.18415 
L 288.42789 353.041381 
L 318.839767 352.925738 
L 349.251644 353.07542 
L 379.66352 353.049384 
L 410.075397 353.033228 
L 440.487274 352.86029 
L 470.899151 353.098376 
L 501.311028 353.115771 
L 531.722904 353.01294 
L 562.134781 353.057123 
L 592.546658 353.071588 
L 622.958535 353.102997 
L 653.370411 353.059565 
L 683.782288 353.059716 
L 714.194165 353.110849 
L 744.606042 353.03815 
L 775.017919 353.133692 
L 805.429795 352.977886 
L 835.841672 353.151576 
L 866.253549 353.152065 
L 896.665426 353.116222 
L 927.077303 353.050924 
L 945.324429 352.892338 
" style="fill:none;stroke:#5cb85c;stroke-linecap:square;"/>
   </g>
   <g id="line2d_16">
    <path clip-path="url(#pead64de34a)" d="M 39.0505 342.093548 
L 45.132876 353.2239 
L 51.215251 353.071363 
L 57.297626 348.272068 
L 63.380002 352.577682 
L 69.462377 353.192716 
L 75.544753 352.800101 
L 81.627128 353.220331 
L 87.709503 352.873928 
L 105.956629 353.019815 
L 136.368506 353.067155 
L 166.780383 353.045063 
L 197.19226 352.918224 
L 227.604136 353.133617 
L 258.016013 353.112277 
L 288.42789 353.152666 
L 318.839767 353.107243 
L 349.251644 353.165327 
L 379.66352 353.145527 
L 410.075397 353.159241 
L 440.487274 353.098226 
L 470.899151 353.152027 
L 501.311028 353.191364 
L 531.722904 353.189711 
L 562.134781 353.197375 
L 592.546658 353.202672 
L 622.958535 353.088608 
L 653.370411 353.108482 
L 683.782288 353.096422 
L 714.194165 353.101306 
L 744.606042 353.154394 
L 775.017919 353.054042 
L 805.429795 353.139967 
L 835.841672 353.127606 
L 866.253549 353.066253 
L 896.665426 352.998588 
L 927.077303 352.938475 
L 945.324429 352.803483 
" style="fill:none;stroke:#5cb85c;stroke-linecap:square;"/>
   </g>
   <g id="line2d_17">
    <path clip-path="url(#pead64de34a)" d="M 39.0505 352.732559 
L 45.132876 353.2239 
L 51.215251 351.224499 
L 57.297626 349.857783 
L 63.380002 353.2239 
L 69.462377 353.2239 
L 75.544753 353.2239 
L 81.627128 353.2239 
L 87.709503 353.2239 
L 105.956629 353.208169 
L 136.368506 353.209477 
L 166.780383 353.221092 
L 197.19226 353.179708 
L 227.604136 353.146862 
L 258.016013 353.184785 
L 288.42789 353.040556 
L 318.839767 352.924788 
L 349.251644 353.074363 
L 379.66352 353.04771 
L 410.075397 353.028941 
L 440.487274 352.856173 
L 470.899151 353.096055 
L 501.311028 353.116093 
L 531.722904 353.013172 
L 562.134781 353.061017 
L 592.546658 353.069786 
L 622.958535 353.099748 
L 653.370411 353.056479 
L 683.782288 353.05621 
L 714.194165 353.108709 
L 744.606042 353.034556 
L 775.017919 353.125709 
L 805.429795 352.98098 
L 835.841672 353.153247 
L 866.253549 353.150132 
L 896.665426 353.11294 
L 927.077303 353.048325 
L 945.324429 352.879865 
" style="fill:none;stroke:#5cb85c;stroke-linecap:square;"/>
   </g>
   <g id="line2d_18">
    <path clip-path="url(#pead64de34a)" d="M 39.0505 342.070176 
L 45.132876 353.2239 
L 51.215251 353.072556 
L 57.297626 348.331261 
L 63.380002 352.597753 
L 69.462377 353.195631 
L 75.544753 352.813135 
L 81.627128 353.221015 
L 87.709503 352.880635 
L 105.956629 353.021325 
L 136.368506 353.070709 
L 166.780383 353.040864 
L 197.19226 352.921134 
L 227.604136 353.134016 
L 258.016013 353.110324 
L 288.42789 353.155132 
L 318.839767 353.105055 
L 349.251644 353.164593 
L 379.66352 353.144093 
L 410.075397 353.157132 
L 440.487274 353.100709 
L 470.899151 353.150901 
L 501.311028 353.188977 
L 531.722904 353.189747 
L 562.134781 353.196054 
L 592.546658 353.2009 
L 622.958535 353.085402 
L 653.370411 353.107901 
L 683.782288 353.097555 
L 714.194165 353.104094 
L 744.606042 353.153439 
L 775.017919 353.056979 
L 805.429795 353.141362 
L 835.841672 353.128824 
L 866.253549 353.065517 
L 896.665426 353.001787 
L 927.077303 352.942403 
L 945.324429 352.800828 
" style="fill:none;stroke:#5cb85c;stroke-linecap:square;"/>
   </g>
   <g id="line2d_19">
    <path clip-path="url(#pead64de34a)" d="M 39.0505 347.376967 
L 45.132876 353.2239 
L 51.215251 349.596757 
L 57.297626 353.2239 
L 63.380002 353.2239 
L 69.462377 353.2239 
L 75.544753 353.2239 
L 81.627128 353.2239 
L 87.709503 353.2239 
L 105.956629 353.219156 
L 136.368506 353.176654 
L 166.780383 353.223129 
L 197.19226 353.06685 
L 227.604136 353.198291 
L 258.016013 353.071209 
L 288.42789 352.950915 
L 318.839767 353.2239 
L 349.251644 352.987439 
L 379.66352 353.217806 
L 410.075397 353.019913 
L 440.487274 353.115909 
L 470.899151 352.993417 
L 501.311028 353.220352 
L 531.722904 353.197789 
L 562.134781 353.214142 
L 592.546658 353.208048 
L 622.958535 352.970353 
L 653.370411 353.20828 
L 683.782288 353.026045 
L 714.194165 353.216109 
L 744.606042 352.954656 
L 775.017919 353.2239 
L 805.429795 353.217768 
L 835.841672 353.029169 
L 866.253549 353.215415 
L 896.665426 353.035687 
L 927.077303 353.221007 
L 945.324429 353.20288 
" style="fill:none;stroke:#5cb85c;stroke-linecap:square;"/>
   </g>
   <g id="line2d_20">
    <path clip-path="url(#pead64de34a)" d="M 39.0505 351.664782 
L 45.132876 351.511281 
L 51.215251 352.055092 
L 57.297626 353.2239 
L 63.380002 353.150235 
L 69.462377 353.2239 
L 75.544753 353.2239 
L 81.627128 352.65637 
L 87.709503 353.2239 
L 105.956629 352.907911 
L 136.368506 352.952766 
L 166.780383 353.084438 
L 197.19226 352.870577 
L 227.604136 352.929664 
L 258.016013 352.930319 
L 288.42789 353.024001 
L 318.839767 353.058057 
L 349.251644 353.04344 
L 379.66352 353.00707 
L 410.075397 352.963064 
L 440.487274 353.046718 
L 470.899151 353.074371 
L 501.311028 353.037037 
L 531.722904 353.067969 
L 562.134781 353.053082 
L 592.546658 353.067198 
L 622.958535 353.077418 
L 653.370411 353.095892 
L 683.782288 353.119805 
L 714.194165 353.117259 
L 744.606042 353.105264 
L 775.017919 353.119226 
L 805.429795 353.155017 
L 835.841672 353.161265 
L 866.253549 353.174533 
L 896.665426 353.190423 
L 927.077303 353.170907 
L 945.324429 353.129601 
" style="fill:none;stroke:#5cb85c;stroke-linecap:square;"/>
   </g>
   <g id="line2d_21">
    <path clip-path="url(#pead64de34a)" d="M 39.0505 347.46708 
L 45.132876 353.2239 
L 51.215251 349.620357 
L 57.297626 353.2239 
L 63.380002 353.2239 
L 69.462377 353.2239 
L 75.544753 353.2239 
L 81.627128 353.2239 
L 87.709503 353.2239 
L 105.956629 353.219929 
L 136.368506 353.174171 
L 166.780383 353.223144 
L 197.19226 353.06923 
L 227.604136 353.198639 
L 258.016013 353.070743 
L 288.42789 352.953284 
L 318.839767 353.2239 
L 349.251644 352.986903 
L 379.66352 353.217244 
L 410.075397 353.01901 
L 440.487274 353.121455 
L 470.899151 352.991139 
L 501.311028 353.219816 
L 531.722904 353.196105 
L 562.134781 353.213425 
L 592.546658 353.208773 
L 622.958535 352.966823 
L 653.370411 353.208622 
L 683.782288 353.024909 
L 714.194165 353.215353 
L 744.606042 352.956007 
L 775.017919 353.2239 
L 805.429795 353.216488 
L 835.841672 353.029523 
L 866.253549 353.215807 
L 896.665426 353.03512 
L 927.077303 353.22148 
L 945.324429 353.202912 
" style="fill:none;stroke:#5cb85c;stroke-linecap:square;"/>
   </g>
   <g id="line2d_22">
    <path clip-path="url(#pead64de34a)" d="M 39.0505 351.672852 
L 45.132876 351.513266 
L 51.215251 352.041564 
L 57.297626 353.2239 
L 63.380002 353.142972 
L 69.462377 353.2239 
L 75.544753 353.2239 
L 81.627128 352.656651 
L 87.709503 353.2239 
L 105.956629 352.910892 
L 136.368506 352.954041 
L 166.780383 353.083033 
L 197.19226 352.870277 
L 227.604136 352.927607 
L 258.016013 352.934225 
L 288.42789 353.01969 
L 318.839767 353.056448 
L 349.251644 353.041511 
L 379.66352 353.002219 
L 410.075397 352.956045 
L 440.487274 353.046427 
L 470.899151 353.071764 
L 501.311028 353.033985 
L 531.722904 353.066621 
L 562.134781 353.0462 
L 592.546658 353.059057 
L 622.958535 353.072255 
L 653.370411 353.08829 
L 683.782288 353.111509 
L 714.194165 353.113551 
L 744.606042 353.100164 
L 775.017919 353.110639 
L 805.429795 353.151746 
L 835.841672 353.15341 
L 866.253549 353.170768 
L 896.665426 353.187218 
L 927.077303 353.166003 
L 945.324429 353.125199 
" style="fill:none;stroke:#5cb85c;stroke-linecap:square;"/>
   </g>
   <g id="line2d_23">
    <path clip-path="url(#pead64de34a)" d="M 39.0505 352.739574 
L 45.132876 353.2239 
L 51.215251 351.190988 
L 57.297626 349.860703 
L 63.380002 353.2239 
L 69.462377 353.2239 
L 75.544753 353.2239 
L 81.627128 353.2239 
L 87.709503 353.2239 
L 105.956629 353.208444 
L 136.368506 353.211383 
L 166.780383 353.220663 
L 197.19226 353.178687 
L 227.604136 353.147412 
L 258.016013 353.184665 
L 288.42789 353.037535 
L 318.839767 352.925775 
L 349.251644 353.075415 
L 379.66352 353.046683 
L 410.075397 353.031953 
L 440.487274 352.857246 
L 470.899151 353.09609 
L 501.311028 353.114056 
L 531.722904 353.011906 
L 562.134781 353.061115 
L 592.546658 353.069867 
L 622.958535 353.104478 
L 653.370411 353.058572 
L 683.782288 353.055501 
L 714.194165 353.112503 
L 744.606042 353.03879 
L 775.017919 353.133376 
L 805.429795 352.983537 
L 835.841672 353.151012 
L 866.253549 353.152531 
L 896.665426 353.117391 
L 927.077303 353.047905 
L 945.324429 352.878449 
" style="fill:none;stroke:#5cb85c;stroke-linecap:square;"/>
   </g>
   <g id="line2d_24">
    <path clip-path="url(#pead64de34a)" d="M 39.0505 342.06146 
L 45.132876 353.2239 
L 51.215251 353.083209 
L 57.297626 348.370242 
L 63.380002 352.605819 
L 69.462377 353.188232 
L 75.544753 352.827258 
L 81.627128 353.220928 
L 87.709503 352.895952 
L 105.956629 353.026207 
L 136.368506 353.074028 
L 166.780383 353.052826 
L 197.19226 352.932281 
L 227.604136 353.141038 
L 258.016013 353.116434 
L 288.42789 353.159466 
L 318.839767 353.115674 
L 349.251644 353.168879 
L 379.66352 353.150582 
L 410.075397 353.163628 
L 440.487274 353.105436 
L 470.899151 353.155834 
L 501.311028 353.19312 
L 531.722904 353.192823 
L 562.134781 353.199131 
L 592.546658 353.202103 
L 622.958535 353.091928 
L 653.370411 353.110555 
L 683.782288 353.100251 
L 714.194165 353.104742 
L 744.606042 353.15481 
L 775.017919 353.053783 
L 805.429795 353.143944 
L 835.841672 353.128356 
L 866.253549 353.063724 
L 896.665426 352.998861 
L 927.077303 352.943411 
L 945.324429 352.795719 
" style="fill:none;stroke:#5cb85c;stroke-linecap:square;"/>
   </g>
   <g id="line2d_25">
    <path clip-path="url(#pead64de34a)" d="M 39.0505 352.771983 
L 45.132876 353.2239 
L 51.215251 351.213072 
L 57.297626 349.842334 
L 63.380002 353.2239 
L 69.462377 353.2239 
L 75.544753 353.2239 
L 81.627128 353.2239 
L 87.709503 353.2239 
L 105.956629 353.206859 
L 136.368506 353.210456 
L 166.780383 353.220946 
L 197.19226 353.179714 
L 227.604136 353.14786 
L 258.016013 353.184467 
L 288.42789 353.035255 
L 318.839767 352.917298 
L 349.251644 353.071177 
L 379.66352 353.043005 
L 410.075397 353.026992 
L 440.487274 352.853675 
L 470.899151 353.094255 
L 501.311028 353.110311 
L 531.722904 353.008795 
L 562.134781 353.055764 
L 592.546658 353.067238 
L 622.958535 353.102775 
L 653.370411 353.05829 
L 683.782288 353.050198 
L 714.194165 353.110653 
L 744.606042 353.034656 
L 775.017919 353.131932 
L 805.429795 352.981093 
L 835.841672 353.153169 
L 866.253549 353.151884 
L 896.665426 353.117932 
L 927.077303 353.048014 
L 945.324429 352.87945 
" style="fill:none;stroke:#5cb85c;stroke-linecap:square;"/>
   </g>
   <g id="line2d_26">
    <path clip-path="url(#pead64de34a)" d="M 39.0505 341.999183 
L 45.132876 353.2239 
L 51.215251 353.081753 
L 57.297626 348.300121 
L 63.380002 352.585307 
L 69.462377 353.192645 
L 75.544753 352.831924 
L 81.627128 353.221759 
L 87.709503 352.891866 
L 105.956629 353.024466 
L 136.368506 353.071006 
L 166.780383 353.050026 
L 197.19226 352.927489 
L 227.604136 353.137755 
L 258.016013 353.113265 
L 288.42789 353.156166 
L 318.839767 353.112409 
L 349.251644 353.166527 
L 379.66352 353.14756 
L 410.075397 353.160148 
L 440.487274 353.099864 
L 470.899151 353.154496 
L 501.311028 353.192516 
L 531.722904 353.191874 
L 562.134781 353.198425 
L 592.546658 353.202278 
L 622.958535 353.087832 
L 653.370411 353.106586 
L 683.782288 353.09661 
L 714.194165 353.101962 
L 744.606042 353.153725 
L 775.017919 353.050198 
L 805.429795 353.139425 
L 835.841672 353.12658 
L 866.253549 353.05966 
L 896.665426 352.993339 
L 927.077303 352.937079 
L 945.324429 352.786326 
" style="fill:none;stroke:#5cb85c;stroke-linecap:square;"/>
   </g>
   <g id="line2d_27">
    <path clip-path="url(#pead64de34a)" d="M 39.0505 347.336901 
L 45.132876 353.2239 
L 51.215251 349.595808 
L 57.297626 353.2239 
L 63.380002 353.2239 
L 69.462377 353.2239 
L 75.544753 353.2239 
L 81.627128 353.2239 
L 87.709503 353.2239 
L 105.956629 353.219146 
L 136.368506 353.174176 
L 166.780383 353.222879 
L 197.19226 353.065148 
L 227.604136 353.200306 
L 258.016013 353.068423 
L 288.42789 352.946436 
L 318.839767 353.2239 
L 349.251644 352.986089 
L 379.66352 353.21566 
L 410.075397 353.016163 
L 440.487274 353.121141 
L 470.899151 352.990561 
L 501.311028 353.218864 
L 531.722904 353.191044 
L 562.134781 353.214004 
L 592.546658 353.208828 
L 622.958535 352.968199 
L 653.370411 353.20756 
L 683.782288 353.022361 
L 714.194165 353.213054 
L 744.606042 352.954712 
L 775.017919 353.2239 
L 805.429795 353.214779 
L 835.841672 353.027467 
L 866.253549 353.215343 
L 896.665426 353.031165 
L 927.077303 353.221364 
L 945.324429 353.200482 
" style="fill:none;stroke:#5cb85c;stroke-linecap:square;"/>
   </g>
   <g id="line2d_28">
    <path clip-path="url(#pead64de34a)" d="M 39.0505 351.687265 
L 45.132876 351.510483 
L 51.215251 352.029561 
L 57.297626 353.2239 
L 63.380002 353.148715 
L 69.462377 353.2239 
L 75.544753 353.2239 
L 81.627128 352.622593 
L 87.709503 353.2239 
L 105.956629 352.900656 
L 136.368506 352.943372 
L 166.780383 353.076276 
L 197.19226 352.856706 
L 227.604136 352.91777 
L 258.016013 352.922525 
L 288.42789 353.009789 
L 318.839767 353.048033 
L 349.251644 353.029404 
L 379.66352 352.992956 
L 410.075397 352.94788 
L 440.487274 353.038243 
L 470.899151 353.064444 
L 501.311028 353.024474 
L 531.722904 353.060816 
L 562.134781 353.039405 
L 592.546658 353.053879 
L 622.958535 353.063563 
L 653.370411 353.085679 
L 683.782288 353.106702 
L 714.194165 353.109977 
L 744.606042 353.094694 
L 775.017919 353.105857 
L 805.429795 353.148574 
L 835.841672 353.149701 
L 866.253549 353.165125 
L 896.665426 353.182627 
L 927.077303 353.161991 
L 945.324429 353.116316 
" style="fill:none;stroke:#5cb85c;stroke-linecap:square;"/>
   </g>
   <g id="line2d_29">
    <path clip-path="url(#pead64de34a)" d="M 39.0505 347.370617 
L 45.132876 353.2239 
L 51.215251 349.600601 
L 57.297626 353.2239 
L 63.380002 353.2239 
L 69.462377 353.2239 
L 75.544753 353.2239 
L 81.627128 353.2239 
L 87.709503 353.2239 
L 105.956629 353.219225 
L 136.368506 353.176155 
L 166.780383 353.223401 
L 197.19226 353.069455 
L 227.604136 353.199211 
L 258.016013 353.073948 
L 288.42789 352.95563 
L 318.839767 353.2239 
L 349.251644 352.991757 
L 379.66352 353.217002 
L 410.075397 353.023526 
L 440.487274 353.115929 
L 470.899151 352.99625 
L 501.311028 353.219362 
L 531.722904 353.193719 
L 562.134781 353.214142 
L 592.546658 353.206926 
L 622.958535 352.975418 
L 653.370411 353.208378 
L 683.782288 353.028291 
L 714.194165 353.214006 
L 744.606042 352.960078 
L 775.017919 353.2239 
L 805.429795 353.215368 
L 835.841672 353.031922 
L 866.253549 353.212826 
L 896.665426 353.03755 
L 927.077303 353.220587 
L 945.324429 353.196669 
" style="fill:none;stroke:#5cb85c;stroke-linecap:square;"/>
   </g>
   <g id="line2d_30">
    <path clip-path="url(#pead64de34a)" d="M 39.0505 351.690573 
L 45.132876 351.516749 
L 51.215251 352.059325 
L 57.297626 353.2239 
L 63.380002 353.147653 
L 69.462377 353.2239 
L 75.544753 353.2239 
L 81.627128 352.653413 
L 87.709503 353.2239 
L 105.956629 352.906388 
L 136.368506 352.951591 
L 166.780383 353.082708 
L 197.19226 352.867175 
L 227.604136 352.925449 
L 258.016013 352.930215 
L 288.42789 353.021211 
L 318.839767 353.055341 
L 349.251644 353.038231 
L 379.66352 353.004964 
L 410.075397 352.961258 
L 440.487274 353.045447 
L 470.899151 353.071634 
L 501.311028 353.034328 
L 531.722904 353.066415 
L 562.134781 353.047353 
L 592.546658 353.065189 
L 622.958535 353.071634 
L 653.370411 353.096142 
L 683.782288 353.117109 
L 714.194165 353.113343 
L 744.606042 353.103721 
L 775.017919 353.115703 
L 805.429795 353.153327 
L 835.841672 353.158773 
L 866.253549 353.170391 
L 896.665426 353.188681 
L 927.077303 353.168712 
L 945.324429 353.128819 
" style="fill:none;stroke:#5cb85c;stroke-linecap:square;"/>
   </g>
   <g id="line2d_31">
    <path clip-path="url(#pead64de34a)" d="M 39.0505 347.418918 
L 45.132876 353.2239 
L 51.215251 349.613868 
L 57.297626 353.2239 
L 63.380002 353.2239 
L 69.462377 353.2239 
L 75.544753 353.2239 
L 81.627128 353.2239 
L 87.709503 353.2239 
L 105.956629 353.219128 
L 136.368506 353.175362 
L 166.780383 353.22316 
L 197.19226 353.066632 
L 227.604136 353.19952 
L 258.016013 353.069147 
L 288.42789 352.948801 
L 318.839767 353.2239 
L 349.251644 352.987498 
L 379.66352 353.216242 
L 410.075397 353.019536 
L 440.487274 353.116391 
L 470.899151 352.990532 
L 501.311028 353.219387 
L 531.722904 353.192787 
L 562.134781 353.213652 
L 592.546658 353.207696 
L 622.958535 352.968371 
L 653.370411 353.207437 
L 683.782288 353.024383 
L 714.194165 353.214096 
L 744.606042 352.959048 
L 775.017919 353.2239 
L 805.429795 353.215391 
L 835.841672 353.025862 
L 866.253549 353.214799 
L 896.665426 353.034704 
L 927.077303 353.221273 
L 945.324429 353.200223 
" style="fill:none;stroke:#5cb85c;stroke-linecap:square;"/>
   </g>
   <g id="line2d_32">
    <path clip-path="url(#pead64de34a)" d="M 39.0505 351.673229 
L 45.132876 351.516552 
L 51.215251 352.049104 
L 57.297626 353.2239 
L 63.380002 353.144359 
L 69.462377 353.2239 
L 75.544753 353.2239 
L 81.627128 352.633635 
L 87.709503 353.2239 
L 105.956629 352.901964 
L 136.368506 352.941882 
L 166.780383 353.076953 
L 197.19226 352.857643 
L 227.604136 352.918908 
L 258.016013 352.922312 
L 288.42789 353.015541 
L 318.839767 353.050132 
L 349.251644 353.034963 
L 379.66352 352.997598 
L 410.075397 352.951908 
L 440.487274 353.041771 
L 470.899151 353.067113 
L 501.311028 353.029747 
L 531.722904 353.06382 
L 562.134781 353.0424 
L 592.546658 353.056643 
L 622.958535 353.068703 
L 653.370411 353.088052 
L 683.782288 353.107623 
L 714.194165 353.107105 
L 744.606042 353.096339 
L 775.017919 353.10618 
L 805.429795 353.14817 
L 835.841672 353.149502 
L 866.253549 353.1643 
L 896.665426 353.183723 
L 927.077303 353.16245 
L 945.324429 353.116798 
" style="fill:none;stroke:#5cb85c;stroke-linecap:square;"/>
   </g>
   <g id="line2d_33">
    <path clip-path="url(#pead64de34a)" d="M 39.0505 352.741029 
L 45.132876 353.2239 
L 51.215251 351.192013 
L 57.297626 349.824299 
L 63.380002 353.2239 
L 69.462377 353.2239 
L 75.544753 353.2239 
L 81.627128 353.2239 
L 87.709503 353.2239 
L 105.956629 353.207287 
L 136.368506 353.209417 
L 166.780383 353.22065 
L 197.19226 353.181175 
L 227.604136 353.148851 
L 258.016013 353.185761 
L 288.42789 353.040431 
L 318.839767 352.929446 
L 349.251644 353.080556 
L 379.66352 353.051735 
L 410.075397 353.036783 
L 440.487274 352.86227 
L 470.899151 353.100203 
L 501.311028 353.11696 
L 531.722904 353.013633 
L 562.134781 353.065026 
L 592.546658 353.075174 
L 622.958535 353.105006 
L 653.370411 353.057405 
L 683.782288 353.059608 
L 714.194165 353.116924 
L 744.606042 353.04072 
L 775.017919 353.131118 
L 805.429795 352.987882 
L 835.841672 353.154413 
L 866.253549 353.154016 
L 896.665426 353.115913 
L 927.077303 353.052638 
L 945.324429 352.896869 
" style="fill:none;stroke:#5cb85c;stroke-linecap:square;"/>
   </g>
   <g id="line2d_34">
    <path clip-path="url(#pead64de34a)" d="M 39.0505 342.109737 
L 45.132876 353.2239 
L 51.215251 353.085576 
L 57.297626 348.325665 
L 63.380002 352.590967 
L 69.462377 353.191937 
L 75.544753 352.828971 
L 81.627128 353.222094 
L 87.709503 352.89705 
L 105.956629 353.029487 
L 136.368506 353.073441 
L 166.780383 353.052529 
L 197.19226 352.934177 
L 227.604136 353.141158 
L 258.016013 353.116274 
L 288.42789 353.15918 
L 318.839767 353.114252 
L 349.251644 353.171207 
L 379.66352 353.15174 
L 410.075397 353.163695 
L 440.487274 353.104537 
L 470.899151 353.15658 
L 501.311028 353.193851 
L 531.722904 353.194032 
L 562.134781 353.199738 
L 592.546658 353.204686 
L 622.958535 353.093341 
L 653.370411 353.111001 
L 683.782288 353.100817 
L 714.194165 353.106162 
L 744.606042 353.156219 
L 775.017919 353.054516 
L 805.429795 353.142458 
L 835.841672 353.128301 
L 866.253549 353.067084 
L 896.665426 353.001859 
L 927.077303 352.947901 
L 945.324429 352.808566 
" style="fill:none;stroke:#5cb85c;stroke-linecap:square;"/>
   </g>
   <g id="line2d_35">
    <path clip-path="url(#pead64de34a)" d="M 39.0505 347.361973 
L 45.132876 353.2239 
L 51.215251 349.589029 
L 57.297626 353.2239 
L 63.380002 353.2239 
L 69.462377 353.2239 
L 75.544753 353.2239 
L 81.627128 353.2239 
L 87.709503 353.2239 
L 105.956629 353.218865 
L 136.368506 353.175815 
L 166.780383 353.223119 
L 197.19226 353.062823 
L 227.604136 353.199662 
L 258.016013 353.066297 
L 288.42789 352.942298 
L 318.839767 353.2239 
L 349.251644 352.980079 
L 379.66352 353.216875 
L 410.075397 353.013333 
L 440.487274 353.119495 
L 470.899151 352.985543 
L 501.311028 353.219333 
L 531.722904 353.193574 
L 562.134781 353.213908 
L 592.546658 353.207546 
L 622.958535 352.962789 
L 653.370411 353.206805 
L 683.782288 353.019812 
L 714.194165 353.21383 
L 744.606042 352.949519 
L 775.017919 353.2239 
L 805.429795 353.215391 
L 835.841672 353.024964 
L 866.253549 353.215079 
L 896.665426 353.029725 
L 927.077303 353.221324 
L 945.324429 353.201458 
" style="fill:none;stroke:#5cb85c;stroke-linecap:square;"/>
   </g>
   <g id="line2d_36">
    <path clip-path="url(#pead64de34a)" d="M 39.0505 351.675382 
L 45.132876 351.527458 
L 51.215251 352.019042 
L 57.297626 353.2239 
L 63.380002 353.145059 
L 69.462377 353.2239 
L 75.544753 353.2239 
L 81.627128 352.625569 
L 87.709503 353.2239 
L 105.956629 352.897491 
L 136.368506 352.9414 
L 166.780383 353.077186 
L 197.19226 352.853622 
L 227.604136 352.915719 
L 258.016013 352.919817 
L 288.42789 353.011225 
L 318.839767 353.048889 
L 349.251644 353.027384 
L 379.66352 352.996003 
L 410.075397 352.95026 
L 440.487274 353.03921 
L 470.899151 353.065009 
L 501.311028 353.025003 
L 531.722904 353.057827 
L 562.134781 353.041512 
L 592.546658 353.056812 
L 622.958535 353.064501 
L 653.370411 353.086319 
L 683.782288 353.107005 
L 714.194165 353.10841 
L 744.606042 353.095491 
L 775.017919 353.106771 
L 805.429795 353.149196 
L 835.841672 353.152631 
L 866.253549 353.166916 
L 896.665426 353.185455 
L 927.077303 353.163833 
L 945.324429 353.118519 
" style="fill:none;stroke:#5cb85c;stroke-linecap:square;"/>
   </g>
   <g id="line2d_37">
    <path clip-path="url(#pead64de34a)" d="M 39.0505 347.476539 
L 45.132876 353.2239 
L 51.215251 349.559568 
L 57.297626 353.2239 
L 63.380002 353.2239 
L 69.462377 353.2239 
L 75.544753 353.2239 
L 81.627128 353.2239 
L 87.709503 353.2239 
L 105.956629 353.219661 
L 136.368506 353.175587 
L 166.780383 353.222819 
L 197.19226 353.069057 
L 227.604136 353.197084 
L 258.016013 353.069792 
L 288.42789 352.950027 
L 318.839767 353.2239 
L 349.251644 352.986359 
L 379.66352 353.21698 
L 410.075397 353.019187 
L 440.487274 353.115986 
L 470.899151 352.993322 
L 501.311028 353.219618 
L 531.722904 353.193926 
L 562.134781 353.213346 
L 592.546658 353.208156 
L 622.958535 352.967198 
L 653.370411 353.208156 
L 683.782288 353.025415 
L 714.194165 353.214514 
L 744.606042 352.95379 
L 775.017919 353.2239 
L 805.429795 353.216115 
L 835.841672 353.028919 
L 866.253549 353.214774 
L 896.665426 353.033893 
L 927.077303 353.220916 
L 945.324429 353.201409 
" style="fill:none;stroke:#5cb85c;stroke-linecap:square;"/>
   </g>
   <g id="line2d_38">
    <path clip-path="url(#pead64de34a)" d="M 39.0505 351.655357 
L 45.132876 351.530141 
L 51.215251 352.04852 
L 57.297626 353.2239 
L 63.380002 353.1441 
L 69.462377 353.2239 
L 75.544753 353.2239 
L 81.627128 352.637832 
L 87.709503 353.2239 
L 105.956629 352.900243 
L 136.368506 352.947518 
L 166.780383 353.077837 
L 197.19226 352.85937 
L 227.604136 352.919534 
L 258.016013 352.924421 
L 288.42789 353.014386 
L 318.839767 353.051713 
L 349.251644 353.031254 
L 379.66352 352.997518 
L 410.075397 352.949464 
L 440.487274 353.037093 
L 470.899151 353.064213 
L 501.311028 353.023729 
L 531.722904 353.056124 
L 562.134781 353.041851 
L 592.546658 353.056168 
L 622.958535 353.066029 
L 653.370411 353.086574 
L 683.782288 353.110752 
L 714.194165 353.107378 
L 744.606042 353.094143 
L 775.017919 353.108373 
L 805.429795 353.149852 
L 835.841672 353.153745 
L 866.253549 353.168105 
L 896.665426 353.185881 
L 927.077303 353.163952 
L 945.324429 353.12269 
" style="fill:none;stroke:#5cb85c;stroke-linecap:square;"/>
   </g>
   <g id="line2d_39">
    <path clip-path="url(#pead64de34a)" d="M 39.0505 347.330845 
L 45.132876 353.2239 
L 51.215251 349.592908 
L 57.297626 353.2239 
L 63.380002 353.2239 
L 69.462377 353.2239 
L 75.544753 353.2239 
L 81.627128 353.2239 
L 87.709503 353.2239 
L 105.956629 353.218872 
L 136.368506 353.173378 
L 166.780383 353.222919 
L 197.19226 353.069635 
L 227.604136 353.198843 
L 258.016013 353.070493 
L 288.42789 352.953303 
L 318.839767 353.2239 
L 349.251644 352.987475 
L 379.66352 353.216174 
L 410.075397 353.019072 
L 440.487274 353.119585 
L 470.899151 352.994097 
L 501.311028 353.219485 
L 531.722904 353.194183 
L 562.134781 353.213272 
L 592.546658 353.208449 
L 622.958535 352.969408 
L 653.370411 353.207304 
L 683.782288 353.024672 
L 714.194165 353.214172 
L 744.606042 352.957554 
L 775.017919 353.2239 
L 805.429795 353.215439 
L 835.841672 353.026511 
L 866.253549 353.215398 
L 896.665426 353.034768 
L 927.077303 353.221815 
L 945.324429 353.198557 
" style="fill:none;stroke:#5cb85c;stroke-linecap:square;"/>
   </g>
   <g id="line2d_40">
    <path clip-path="url(#pead64de34a)" d="M 39.0505 351.657337 
L 45.132876 351.514477 
L 51.215251 352.05608 
L 57.297626 353.2239 
L 63.380002 353.141127 
L 69.462377 353.2239 
L 75.544753 353.2239 
L 81.627128 352.649391 
L 87.709503 353.2239 
L 105.956629 352.907113 
L 136.368506 352.954774 
L 166.780383 353.080017 
L 197.19226 352.870039 
L 227.604136 352.927142 
L 258.016013 352.93029 
L 288.42789 353.015515 
L 318.839767 353.052917 
L 349.251644 353.037016 
L 379.66352 353.001045 
L 410.075397 352.959066 
L 440.487274 353.04466 
L 470.899151 353.07127 
L 501.311028 353.03252 
L 531.722904 353.066161 
L 562.134781 353.046418 
L 592.546658 353.060765 
L 622.958535 353.070412 
L 653.370411 353.088724 
L 683.782288 353.109816 
L 714.194165 353.111492 
L 744.606042 353.099924 
L 775.017919 353.10859 
L 805.429795 353.150528 
L 835.841672 353.152572 
L 866.253549 353.167083 
L 896.665426 353.185559 
L 927.077303 353.16324 
L 945.324429 353.121302 
" style="fill:none;stroke:#5cb85c;stroke-linecap:square;"/>
   </g>
   <g id="line2d_41">
    <path clip-path="url(#pead64de34a)" d="M 39.0505 347.277685 
L 45.132876 353.2239 
L 51.215251 349.575542 
L 57.297626 353.2239 
L 63.380002 353.2239 
L 69.462377 353.2239 
L 75.544753 353.2239 
L 81.627128 353.2239 
L 87.709503 353.2239 
L 105.956629 353.219489 
L 136.368506 353.172439 
L 166.780383 353.223383 
L 197.19226 353.071504 
L 227.604136 353.196958 
L 258.016013 353.073134 
L 288.42789 352.957853 
L 318.839767 353.2239 
L 349.251644 352.991035 
L 379.66352 353.216707 
L 410.075397 353.022706 
L 440.487274 353.116687 
L 470.899151 352.996439 
L 501.311028 353.219767 
L 531.722904 353.195368 
L 562.134781 353.21333 
L 592.546658 353.207965 
L 622.958535 352.973629 
L 653.370411 353.207289 
L 683.782288 353.027792 
L 714.194165 353.214879 
L 744.606042 352.95527 
L 775.017919 353.2239 
L 805.429795 353.21627 
L 835.841672 353.029342 
L 866.253549 353.215237 
L 896.665426 353.037131 
L 927.077303 353.221317 
L 945.324429 353.204428 
" style="fill:none;stroke:#5cb85c;stroke-linecap:square;"/>
   </g>
   <g id="line2d_42">
    <path clip-path="url(#pead64de34a)" d="M 39.0505 351.645899 
L 45.132876 351.507213 
L 51.215251 352.065534 
L 57.297626 353.2239 
L 63.380002 353.142437 
L 69.462377 353.2239 
L 75.544753 353.2239 
L 81.627128 352.650479 
L 87.709503 353.2239 
L 105.956629 352.906353 
L 136.368506 352.954078 
L 166.780383 353.080763 
L 197.19226 352.86737 
L 227.604136 352.925308 
L 258.016013 352.930871 
L 288.42789 353.015712 
L 318.839767 353.052907 
L 349.251644 353.036257 
L 379.66352 353.001645 
L 410.075397 352.957496 
L 440.487274 353.040946 
L 470.899151 353.07063 
L 501.311028 353.029779 
L 531.722904 353.063398 
L 562.134781 353.047304 
L 592.546658 353.062484 
L 622.958535 353.069994 
L 653.370411 353.089943 
L 683.782288 353.113984 
L 714.194165 353.112196 
L 744.606042 353.100473 
L 775.017919 353.114263 
L 805.429795 353.150663 
L 835.841672 353.15555 
L 866.253549 353.170095 
L 896.665426 353.186904 
L 927.077303 353.164412 
L 945.324429 353.127535 
" style="fill:none;stroke:#5cb85c;stroke-linecap:square;"/>
   </g>
   <g id="line2d_43">
    <path clip-path="url(#pead64de34a)" d="M 32.968125 353.2239 
L 990.638125 353.2239 
" style="fill:none;stroke:#dedede;stroke-linecap:square;stroke-width:2;"/>
   </g>
   <g id="text_17">
    <!-- FastQC: Per Base N Content -->
    <defs>
     <path d="M 9.8125 72.90625 
L 51.703125 72.90625 
L 51.703125 64.59375 
L 19.671875 64.59375 
L 19.671875 43.109375 
L 48.578125 43.109375 
L 48.578125 34.8125 
L 19.671875 34.8125 
L 19.671875 0 
L 9.8125 0 
z
" id="DejaVuSans-70"/>
     <path d="M 39.40625 66.21875 
Q 28.65625 66.21875 22.328125 58.203125 
Q 16.015625 50.203125 16.015625 36.375 
Q 16.015625 22.609375 22.328125 14.59375 
Q 28.65625 6.59375 39.40625 6.59375 
Q 50.140625 6.59375 56.421875 14.59375 
Q 62.703125 22.609375 62.703125 36.375 
Q 62.703125 50.203125 56.421875 58.203125 
Q 50.140625 66.21875 39.40625 66.21875 
z
M 53.21875 1.3125 
L 66.21875 -12.890625 
L 54.296875 -12.890625 
L 43.5 -1.21875 
Q 41.890625 -1.3125 41.03125 -1.359375 
Q 40.1875 -1.421875 39.40625 -1.421875 
Q 24.03125 -1.421875 14.8125 8.859375 
Q 5.609375 19.140625 5.609375 36.375 
Q 5.609375 53.65625 14.8125 63.9375 
Q 24.03125 74.21875 39.40625 74.21875 
Q 54.734375 74.21875 63.90625 63.9375 
Q 73.09375 53.65625 73.09375 36.375 
Q 73.09375 23.6875 67.984375 14.640625 
Q 62.890625 5.609375 53.21875 1.3125 
z
" id="DejaVuSans-81"/>
     <path d="M 11.71875 12.40625 
L 22.015625 12.40625 
L 22.015625 0 
L 11.71875 0 
z
M 11.71875 51.703125 
L 22.015625 51.703125 
L 22.015625 39.3125 
L 11.71875 39.3125 
z
" id="DejaVuSans-58"/>
     <path d="M 19.671875 34.8125 
L 19.671875 8.109375 
L 35.5 8.109375 
Q 43.453125 8.109375 47.28125 11.40625 
Q 51.125 14.703125 51.125 21.484375 
Q 51.125 28.328125 47.28125 31.5625 
Q 43.453125 34.8125 35.5 34.8125 
z
M 19.671875 64.796875 
L 19.671875 42.828125 
L 34.28125 42.828125 
Q 41.5 42.828125 45.03125 45.53125 
Q 48.578125 48.25 48.578125 53.8125 
Q 48.578125 59.328125 45.03125 62.0625 
Q 41.5 64.796875 34.28125 64.796875 
z
M 9.8125 72.90625 
L 35.015625 72.90625 
Q 46.296875 72.90625 52.390625 68.21875 
Q 58.5 63.53125 58.5 54.890625 
Q 58.5 48.1875 55.375 44.234375 
Q 52.25 40.28125 46.1875 39.3125 
Q 53.46875 37.75 57.5 32.78125 
Q 61.53125 27.828125 61.53125 20.40625 
Q 61.53125 10.640625 54.890625 5.3125 
Q 48.25 0 35.984375 0 
L 9.8125 0 
z
" id="DejaVuSans-66"/>
    </defs>
    <g transform="translate(399.944375 19.3575)scale(0.16 -0.16)">
     <use xlink:href="#DejaVuSans-70"/>
     <use x="57.378906" xlink:href="#DejaVuSans-97"/>
     <use x="118.658203" xlink:href="#DejaVuSans-115"/>
     <use x="170.757812" xlink:href="#DejaVuSans-116"/>
     <use x="209.966797" xlink:href="#DejaVuSans-81"/>
     <use x="288.677734" xlink:href="#DejaVuSans-67"/>
     <use x="358.501953" xlink:href="#DejaVuSans-58"/>
     <use x="392.193359" xlink:href="#DejaVuSans-32"/>
     <use x="423.980469" xlink:href="#DejaVuSans-80"/>
     <use x="484.236328" xlink:href="#DejaVuSans-101"/>
     <use x="545.759766" xlink:href="#DejaVuSans-114"/>
     <use x="586.873047" xlink:href="#DejaVuSans-32"/>
     <use x="618.660156" xlink:href="#DejaVuSans-66"/>
     <use x="687.263672" xlink:href="#DejaVuSans-97"/>
     <use x="748.542969" xlink:href="#DejaVuSans-115"/>
     <use x="800.642578" xlink:href="#DejaVuSans-101"/>
     <use x="862.166016" xlink:href="#DejaVuSans-32"/>
     <use x="893.953125" xlink:href="#DejaVuSans-78"/>
     <use x="968.757812" xlink:href="#DejaVuSans-32"/>
     <use x="1000.544922" xlink:href="#DejaVuSans-67"/>
     <use x="1070.369141" xlink:href="#DejaVuSans-111"/>
     <use x="1131.550781" xlink:href="#DejaVuSans-110"/>
     <use x="1194.929688" xlink:href="#DejaVuSans-116"/>
     <use x="1234.138672" xlink:href="#DejaVuSans-101"/>
     <use x="1295.662109" xlink:href="#DejaVuSans-110"/>
     <use x="1359.041016" xlink:href="#DejaVuSans-116"/>
    </g>
   </g>
  </g>
 </g>
 <defs>
  <clipPath id="pead64de34a">
   <rect height="317.968" width="957.67" x="32.968125" y="35.2559"/>
  </clipPath>
 </defs>
</svg>
