<?xml version="1.0" encoding="utf-8" standalone="no"?>
<!DOCTYPE svg PUBLIC "-//W3C//DTD SVG 1.1//EN"
  "http://www.w3.org/Graphics/SVG/1.1/DTD/svg11.dtd">
<!-- Created with matplotlib (https://matplotlib.org/) -->
<svg height="530.938261pt" version="1.1" viewBox="0 0 857.92625 530.938261" width="857.92625pt" xmlns="http://www.w3.org/2000/svg" xmlns:xlink="http://www.w3.org/1999/xlink">
 <defs>
  <style type="text/css">
*{stroke-linecap:butt;stroke-linejoin:round;}
  </style>
 </defs>
 <g id="figure_1">
  <g id="patch_1">
   <path d="M 0 530.938261 
L 857.92625 530.938261 
L 857.92625 0 
L 0 0 
z
" style="fill:#ffffff;"/>
  </g>
  <g id="axes_1">
   <g id="patch_2">
    <path d="M 66.02625 444.578261 
L 847.22625 444.578261 
L 847.22625 10.7 
L 66.02625 10.7 
z
" style="fill:#ffffff;"/>
   </g>
   <g id="matplotlib.axis_1">
    <g id="xtick_1">
     <g id="line2d_1">
      <path clip-path="url(#p5899bcb1ee)" d="M 66.02625 444.578261 
L 66.02625 10.7 
" style="fill:none;stroke:#dedede;stroke-linecap:square;"/>
     </g>
     <g id="text_1">
      <!-- 0.0 -->
      <defs>
       <path d="M 31.78125 66.40625 
Q 24.171875 66.40625 20.328125 58.90625 
Q 16.5 51.421875 16.5 36.375 
Q 16.5 21.390625 20.328125 13.890625 
Q 24.171875 6.390625 31.78125 6.390625 
Q 39.453125 6.390625 43.28125 13.890625 
Q 47.125 21.390625 47.125 36.375 
Q 47.125 51.421875 43.28125 58.90625 
Q 39.453125 66.40625 31.78125 66.40625 
z
M 31.78125 74.21875 
Q 44.046875 74.21875 50.515625 64.515625 
Q 56.984375 54.828125 56.984375 36.375 
Q 56.984375 17.96875 50.515625 8.265625 
Q 44.046875 -1.421875 31.78125 -1.421875 
Q 19.53125 -1.421875 13.0625 8.265625 
Q 6.59375 17.96875 6.59375 36.375 
Q 6.59375 54.828125 13.0625 64.515625 
Q 19.53125 74.21875 31.78125 74.21875 
z
" id="DejaVuSans-48"/>
       <path d="M 10.6875 12.40625 
L 21 12.40625 
L 21 0 
L 10.6875 0 
z
" id="DejaVuSans-46"/>
      </defs>
      <g transform="translate(59.665 457.657011)scale(0.08 -0.08)">
       <use xlink:href="#DejaVuSans-48"/>
       <use x="63.623047" xlink:href="#DejaVuSans-46"/>
       <use x="95.410156" xlink:href="#DejaVuSans-48"/>
      </g>
     </g>
    </g>
    <g id="xtick_2">
     <g id="line2d_2">
      <path clip-path="url(#p5899bcb1ee)" d="M 217.888093 444.578261 
L 217.888093 10.7 
" style="fill:none;stroke:#dedede;stroke-linecap:square;"/>
     </g>
     <g id="text_2">
      <!-- 0.2 -->
      <defs>
       <path d="M 19.1875 8.296875 
L 53.609375 8.296875 
L 53.609375 0 
L 7.328125 0 
L 7.328125 8.296875 
Q 12.9375 14.109375 22.625 23.890625 
Q 32.328125 33.6875 34.8125 36.53125 
Q 39.546875 41.84375 41.421875 45.53125 
Q 43.3125 49.21875 43.3125 52.78125 
Q 43.3125 58.59375 39.234375 62.25 
Q 35.15625 65.921875 28.609375 65.921875 
Q 23.96875 65.921875 18.8125 64.3125 
Q 13.671875 62.703125 7.8125 59.421875 
L 7.8125 69.390625 
Q 13.765625 71.78125 18.9375 73 
Q 24.125 74.21875 28.421875 74.21875 
Q 39.75 74.21875 46.484375 68.546875 
Q 53.21875 62.890625 53.21875 53.421875 
Q 53.21875 48.921875 51.53125 44.890625 
Q 49.859375 40.875 45.40625 35.40625 
Q 44.1875 33.984375 37.640625 27.21875 
Q 31.109375 20.453125 19.1875 8.296875 
z
" id="DejaVuSans-50"/>
      </defs>
      <g transform="translate(211.526843 457.657011)scale(0.08 -0.08)">
       <use xlink:href="#DejaVuSans-48"/>
       <use x="63.623047" xlink:href="#DejaVuSans-46"/>
       <use x="95.410156" xlink:href="#DejaVuSans-50"/>
      </g>
     </g>
    </g>
    <g id="xtick_3">
     <g id="line2d_3">
      <path clip-path="url(#p5899bcb1ee)" d="M 369.749936 444.578261 
L 369.749936 10.7 
" style="fill:none;stroke:#dedede;stroke-linecap:square;"/>
     </g>
     <g id="text_3">
      <!-- 0.4 -->
      <defs>
       <path d="M 37.796875 64.3125 
L 12.890625 25.390625 
L 37.796875 25.390625 
z
M 35.203125 72.90625 
L 47.609375 72.90625 
L 47.609375 25.390625 
L 58.015625 25.390625 
L 58.015625 17.1875 
L 47.609375 17.1875 
L 47.609375 0 
L 37.796875 0 
L 37.796875 17.1875 
L 4.890625 17.1875 
L 4.890625 26.703125 
z
" id="DejaVuSans-52"/>
      </defs>
      <g transform="translate(363.388686 457.657011)scale(0.08 -0.08)">
       <use xlink:href="#DejaVuSans-48"/>
       <use x="63.623047" xlink:href="#DejaVuSans-46"/>
       <use x="95.410156" xlink:href="#DejaVuSans-52"/>
      </g>
     </g>
    </g>
    <g id="xtick_4">
     <g id="line2d_4">
      <path clip-path="url(#p5899bcb1ee)" d="M 521.611779 444.578261 
L 521.611779 10.7 
" style="fill:none;stroke:#dedede;stroke-linecap:square;"/>
     </g>
     <g id="text_4">
      <!-- 0.6 -->
      <defs>
       <path d="M 33.015625 40.375 
Q 26.375 40.375 22.484375 35.828125 
Q 18.609375 31.296875 18.609375 23.390625 
Q 18.609375 15.53125 22.484375 10.953125 
Q 26.375 6.390625 33.015625 6.390625 
Q 39.65625 6.390625 43.53125 10.953125 
Q 47.40625 15.53125 47.40625 23.390625 
Q 47.40625 31.296875 43.53125 35.828125 
Q 39.65625 40.375 33.015625 40.375 
z
M 52.59375 71.296875 
L 52.59375 62.3125 
Q 48.875 64.0625 45.09375 64.984375 
Q 41.3125 65.921875 37.59375 65.921875 
Q 27.828125 65.921875 22.671875 59.328125 
Q 17.53125 52.734375 16.796875 39.40625 
Q 19.671875 43.65625 24.015625 45.921875 
Q 28.375 48.1875 33.59375 48.1875 
Q 44.578125 48.1875 50.953125 41.515625 
Q 57.328125 34.859375 57.328125 23.390625 
Q 57.328125 12.15625 50.6875 5.359375 
Q 44.046875 -1.421875 33.015625 -1.421875 
Q 20.359375 -1.421875 13.671875 8.265625 
Q 6.984375 17.96875 6.984375 36.375 
Q 6.984375 53.65625 15.1875 63.9375 
Q 23.390625 74.21875 37.203125 74.21875 
Q 40.921875 74.21875 44.703125 73.484375 
Q 48.484375 72.75 52.59375 71.296875 
z
" id="DejaVuSans-54"/>
      </defs>
      <g transform="translate(515.250529 457.657011)scale(0.08 -0.08)">
       <use xlink:href="#DejaVuSans-48"/>
       <use x="63.623047" xlink:href="#DejaVuSans-46"/>
       <use x="95.410156" xlink:href="#DejaVuSans-54"/>
      </g>
     </g>
    </g>
    <g id="xtick_5">
     <g id="line2d_5">
      <path clip-path="url(#p5899bcb1ee)" d="M 673.473622 444.578261 
L 673.473622 10.7 
" style="fill:none;stroke:#dedede;stroke-linecap:square;"/>
     </g>
     <g id="text_5">
      <!-- 0.8 -->
      <defs>
       <path d="M 31.78125 34.625 
Q 24.75 34.625 20.71875 30.859375 
Q 16.703125 27.09375 16.703125 20.515625 
Q 16.703125 13.921875 20.71875 10.15625 
Q 24.75 6.390625 31.78125 6.390625 
Q 38.8125 6.390625 42.859375 10.171875 
Q 46.921875 13.96875 46.921875 20.515625 
Q 46.921875 27.09375 42.890625 30.859375 
Q 38.875 34.625 31.78125 34.625 
z
M 21.921875 38.8125 
Q 15.578125 40.375 12.03125 44.71875 
Q 8.5 49.078125 8.5 55.328125 
Q 8.5 64.0625 14.71875 69.140625 
Q 20.953125 74.21875 31.78125 74.21875 
Q 42.671875 74.21875 48.875 69.140625 
Q 55.078125 64.0625 55.078125 55.328125 
Q 55.078125 49.078125 51.53125 44.71875 
Q 48 40.375 41.703125 38.8125 
Q 48.828125 37.15625 52.796875 32.3125 
Q 56.78125 27.484375 56.78125 20.515625 
Q 56.78125 9.90625 50.3125 4.234375 
Q 43.84375 -1.421875 31.78125 -1.421875 
Q 19.734375 -1.421875 13.25 4.234375 
Q 6.78125 9.90625 6.78125 20.515625 
Q 6.78125 27.484375 10.78125 32.3125 
Q 14.796875 37.15625 21.921875 38.8125 
z
M 18.3125 54.390625 
Q 18.3125 48.734375 21.84375 45.5625 
Q 25.390625 42.390625 31.78125 42.390625 
Q 38.140625 42.390625 41.71875 45.5625 
Q 45.3125 48.734375 45.3125 54.390625 
Q 45.3125 60.0625 41.71875 63.234375 
Q 38.140625 66.40625 31.78125 66.40625 
Q 25.390625 66.40625 21.84375 63.234375 
Q 18.3125 60.0625 18.3125 54.390625 
z
" id="DejaVuSans-56"/>
      </defs>
      <g transform="translate(667.112372 457.657011)scale(0.08 -0.08)">
       <use xlink:href="#DejaVuSans-48"/>
       <use x="63.623047" xlink:href="#DejaVuSans-46"/>
       <use x="95.410156" xlink:href="#DejaVuSans-56"/>
      </g>
     </g>
    </g>
    <g id="xtick_6">
     <g id="line2d_6">
      <path clip-path="url(#p5899bcb1ee)" d="M 825.335465 444.578261 
L 825.335465 10.7 
" style="fill:none;stroke:#dedede;stroke-linecap:square;"/>
     </g>
     <g id="text_6">
      <!-- 1.0 -->
      <defs>
       <path d="M 12.40625 8.296875 
L 28.515625 8.296875 
L 28.515625 63.921875 
L 10.984375 60.40625 
L 10.984375 69.390625 
L 28.421875 72.90625 
L 38.28125 72.90625 
L 38.28125 8.296875 
L 54.390625 8.296875 
L 54.390625 0 
L 12.40625 0 
z
" id="DejaVuSans-49"/>
      </defs>
      <g transform="translate(818.974215 457.657011)scale(0.08 -0.08)">
       <use xlink:href="#DejaVuSans-49"/>
       <use x="63.623047" xlink:href="#DejaVuSans-46"/>
       <use x="95.410156" xlink:href="#DejaVuSans-48"/>
      </g>
     </g>
    </g>
    <g id="text_7">
     <!-- # Tags -->
     <defs>
      <path d="M 51.125 44 
L 36.921875 44 
L 32.8125 27.6875 
L 47.125 27.6875 
z
M 43.796875 71.78125 
L 38.71875 51.515625 
L 52.984375 51.515625 
L 58.109375 71.78125 
L 65.921875 71.78125 
L 60.890625 51.515625 
L 76.125 51.515625 
L 76.125 44 
L 58.984375 44 
L 54.984375 27.6875 
L 70.515625 27.6875 
L 70.515625 20.21875 
L 53.078125 20.21875 
L 48 0 
L 40.1875 0 
L 45.21875 20.21875 
L 30.90625 20.21875 
L 25.875 0 
L 18.015625 0 
L 23.09375 20.21875 
L 7.71875 20.21875 
L 7.71875 27.6875 
L 24.90625 27.6875 
L 29 44 
L 13.28125 44 
L 13.28125 51.515625 
L 30.90625 51.515625 
L 35.890625 71.78125 
z
" id="DejaVuSans-35"/>
      <path id="DejaVuSans-32"/>
      <path d="M -0.296875 72.90625 
L 61.375 72.90625 
L 61.375 64.59375 
L 35.5 64.59375 
L 35.5 0 
L 25.59375 0 
L 25.59375 64.59375 
L -0.296875 64.59375 
z
" id="DejaVuSans-84"/>
      <path d="M 34.28125 27.484375 
Q 23.390625 27.484375 19.1875 25 
Q 14.984375 22.515625 14.984375 16.5 
Q 14.984375 11.71875 18.140625 8.90625 
Q 21.296875 6.109375 26.703125 6.109375 
Q 34.1875 6.109375 38.703125 11.40625 
Q 43.21875 16.703125 43.21875 25.484375 
L 43.21875 27.484375 
z
M 52.203125 31.203125 
L 52.203125 0 
L 43.21875 0 
L 43.21875 8.296875 
Q 40.140625 3.328125 35.546875 0.953125 
Q 30.953125 -1.421875 24.3125 -1.421875 
Q 15.921875 -1.421875 10.953125 3.296875 
Q 6 8.015625 6 15.921875 
Q 6 25.140625 12.171875 29.828125 
Q 18.359375 34.515625 30.609375 34.515625 
L 43.21875 34.515625 
L 43.21875 35.40625 
Q 43.21875 41.609375 39.140625 45 
Q 35.0625 48.390625 27.6875 48.390625 
Q 23 48.390625 18.546875 47.265625 
Q 14.109375 46.140625 10.015625 43.890625 
L 10.015625 52.203125 
Q 14.9375 54.109375 19.578125 55.046875 
Q 24.21875 56 28.609375 56 
Q 40.484375 56 46.34375 49.84375 
Q 52.203125 43.703125 52.203125 31.203125 
z
" id="DejaVuSans-97"/>
      <path d="M 45.40625 27.984375 
Q 45.40625 37.75 41.375 43.109375 
Q 37.359375 48.484375 30.078125 48.484375 
Q 22.859375 48.484375 18.828125 43.109375 
Q 14.796875 37.75 14.796875 27.984375 
Q 14.796875 18.265625 18.828125 12.890625 
Q 22.859375 7.515625 30.078125 7.515625 
Q 37.359375 7.515625 41.375 12.890625 
Q 45.40625 18.265625 45.40625 27.984375 
z
M 54.390625 6.78125 
Q 54.390625 -7.171875 48.1875 -13.984375 
Q 42 -20.796875 29.203125 -20.796875 
Q 24.46875 -20.796875 20.265625 -20.09375 
Q 16.0625 -19.390625 12.109375 -17.921875 
L 12.109375 -9.1875 
Q 16.0625 -11.328125 19.921875 -12.34375 
Q 23.78125 -13.375 27.78125 -13.375 
Q 36.625 -13.375 41.015625 -8.765625 
Q 45.40625 -4.15625 45.40625 5.171875 
L 45.40625 9.625 
Q 42.625 4.78125 38.28125 2.390625 
Q 33.9375 0 27.875 0 
Q 17.828125 0 11.671875 7.65625 
Q 5.515625 15.328125 5.515625 27.984375 
Q 5.515625 40.671875 11.671875 48.328125 
Q 17.828125 56 27.875 56 
Q 33.9375 56 38.28125 53.609375 
Q 42.625 51.21875 45.40625 46.390625 
L 45.40625 54.6875 
L 54.390625 54.6875 
z
" id="DejaVuSans-103"/>
      <path d="M 44.28125 53.078125 
L 44.28125 44.578125 
Q 40.484375 46.53125 36.375 47.5 
Q 32.28125 48.484375 27.875 48.484375 
Q 21.1875 48.484375 17.84375 46.4375 
Q 14.5 44.390625 14.5 40.28125 
Q 14.5 37.15625 16.890625 35.375 
Q 19.28125 33.59375 26.515625 31.984375 
L 29.59375 31.296875 
Q 39.15625 29.25 43.1875 25.515625 
Q 47.21875 21.78125 47.21875 15.09375 
Q 47.21875 7.46875 41.1875 3.015625 
Q 35.15625 -1.421875 24.609375 -1.421875 
Q 20.21875 -1.421875 15.453125 -0.5625 
Q 10.6875 0.296875 5.421875 2 
L 5.421875 11.28125 
Q 10.40625 8.6875 15.234375 7.390625 
Q 20.0625 6.109375 24.8125 6.109375 
Q 31.15625 6.109375 34.5625 8.28125 
Q 37.984375 10.453125 37.984375 14.40625 
Q 37.984375 18.0625 35.515625 20.015625 
Q 33.0625 21.96875 24.703125 23.78125 
L 21.578125 24.515625 
Q 13.234375 26.265625 9.515625 29.90625 
Q 5.8125 33.546875 5.8125 39.890625 
Q 5.8125 47.609375 11.28125 51.796875 
Q 16.75 56 26.8125 56 
Q 31.78125 56 36.171875 55.265625 
Q 40.578125 54.546875 44.28125 53.078125 
z
" id="DejaVuSans-115"/>
     </defs>
     <g transform="translate(438.962969 470.919198)scale(0.1 -0.1)">
      <use xlink:href="#DejaVuSans-35"/>
      <use x="83.789062" xlink:href="#DejaVuSans-32"/>
      <use x="115.576172" xlink:href="#DejaVuSans-84"/>
      <use x="176.410156" xlink:href="#DejaVuSans-97"/>
      <use x="237.689453" xlink:href="#DejaVuSans-103"/>
      <use x="301.166016" xlink:href="#DejaVuSans-115"/>
     </g>
    </g>
    <g id="text_8">
     <!-- 1e8 -->
     <defs>
      <path d="M 56.203125 29.59375 
L 56.203125 25.203125 
L 14.890625 25.203125 
Q 15.484375 15.921875 20.484375 11.0625 
Q 25.484375 6.203125 34.421875 6.203125 
Q 39.59375 6.203125 44.453125 7.46875 
Q 49.3125 8.734375 54.109375 11.28125 
L 54.109375 2.78125 
Q 49.265625 0.734375 44.1875 -0.34375 
Q 39.109375 -1.421875 33.890625 -1.421875 
Q 20.796875 -1.421875 13.15625 6.1875 
Q 5.515625 13.8125 5.515625 26.8125 
Q 5.515625 40.234375 12.765625 48.109375 
Q 20.015625 56 32.328125 56 
Q 43.359375 56 49.78125 48.890625 
Q 56.203125 41.796875 56.203125 29.59375 
z
M 47.21875 32.234375 
Q 47.125 39.59375 43.09375 43.984375 
Q 39.0625 48.390625 32.421875 48.390625 
Q 24.90625 48.390625 20.390625 44.140625 
Q 15.875 39.890625 15.1875 32.171875 
z
" id="DejaVuSans-101"/>
     </defs>
     <g transform="translate(828.348125 469.919198)scale(0.1 -0.1)">
      <use xlink:href="#DejaVuSans-49"/>
      <use x="63.623047" xlink:href="#DejaVuSans-101"/>
      <use x="125.146484" xlink:href="#DejaVuSans-56"/>
     </g>
    </g>
   </g>
   <g id="matplotlib.axis_2">
    <g id="ytick_1">
     <g id="text_9">
      <!-- SRR7443455 -->
      <defs>
       <path d="M 53.515625 70.515625 
L 53.515625 60.890625 
Q 47.90625 63.578125 42.921875 64.890625 
Q 37.9375 66.21875 33.296875 66.21875 
Q 25.25 66.21875 20.875 63.09375 
Q 16.5 59.96875 16.5 54.203125 
Q 16.5 49.359375 19.40625 46.890625 
Q 22.3125 44.4375 30.421875 42.921875 
L 36.375 41.703125 
Q 47.40625 39.59375 52.65625 34.296875 
Q 57.90625 29 57.90625 20.125 
Q 57.90625 9.515625 50.796875 4.046875 
Q 43.703125 -1.421875 29.984375 -1.421875 
Q 24.8125 -1.421875 18.96875 -0.25 
Q 13.140625 0.921875 6.890625 3.21875 
L 6.890625 13.375 
Q 12.890625 10.015625 18.65625 8.296875 
Q 24.421875 6.59375 29.984375 6.59375 
Q 38.421875 6.59375 43.015625 9.90625 
Q 47.609375 13.234375 47.609375 19.390625 
Q 47.609375 24.75 44.3125 27.78125 
Q 41.015625 30.8125 33.5 32.328125 
L 27.484375 33.5 
Q 16.453125 35.6875 11.515625 40.375 
Q 6.59375 45.0625 6.59375 53.421875 
Q 6.59375 63.09375 13.40625 68.65625 
Q 20.21875 74.21875 32.171875 74.21875 
Q 37.3125 74.21875 42.625 73.28125 
Q 47.953125 72.359375 53.515625 70.515625 
z
" id="DejaVuSans-83"/>
       <path d="M 44.390625 34.1875 
Q 47.5625 33.109375 50.5625 29.59375 
Q 53.5625 26.078125 56.59375 19.921875 
L 66.609375 0 
L 56 0 
L 46.6875 18.703125 
Q 43.0625 26.03125 39.671875 28.421875 
Q 36.28125 30.8125 30.421875 30.8125 
L 19.671875 30.8125 
L 19.671875 0 
L 9.8125 0 
L 9.8125 72.90625 
L 32.078125 72.90625 
Q 44.578125 72.90625 50.734375 67.671875 
Q 56.890625 62.453125 56.890625 51.90625 
Q 56.890625 45.015625 53.6875 40.46875 
Q 50.484375 35.9375 44.390625 34.1875 
z
M 19.671875 64.796875 
L 19.671875 38.921875 
L 32.078125 38.921875 
Q 39.203125 38.921875 42.84375 42.21875 
Q 46.484375 45.515625 46.484375 51.90625 
Q 46.484375 58.296875 42.84375 61.546875 
Q 39.203125 64.796875 32.078125 64.796875 
z
" id="DejaVuSans-82"/>
       <path d="M 8.203125 72.90625 
L 55.078125 72.90625 
L 55.078125 68.703125 
L 28.609375 0 
L 18.3125 0 
L 43.21875 64.59375 
L 8.203125 64.59375 
z
" id="DejaVuSans-55"/>
       <path d="M 40.578125 39.3125 
Q 47.65625 37.796875 51.625 33 
Q 55.609375 28.21875 55.609375 21.1875 
Q 55.609375 10.40625 48.1875 4.484375 
Q 40.765625 -1.421875 27.09375 -1.421875 
Q 22.515625 -1.421875 17.65625 -0.515625 
Q 12.796875 0.390625 7.625 2.203125 
L 7.625 11.71875 
Q 11.71875 9.328125 16.59375 8.109375 
Q 21.484375 6.890625 26.8125 6.890625 
Q 36.078125 6.890625 40.9375 10.546875 
Q 45.796875 14.203125 45.796875 21.1875 
Q 45.796875 27.640625 41.28125 31.265625 
Q 36.765625 34.90625 28.71875 34.90625 
L 20.21875 34.90625 
L 20.21875 43.015625 
L 29.109375 43.015625 
Q 36.375 43.015625 40.234375 45.921875 
Q 44.09375 48.828125 44.09375 54.296875 
Q 44.09375 59.90625 40.109375 62.90625 
Q 36.140625 65.921875 28.71875 65.921875 
Q 24.65625 65.921875 20.015625 65.03125 
Q 15.375 64.15625 9.8125 62.3125 
L 9.8125 71.09375 
Q 15.4375 72.65625 20.34375 73.4375 
Q 25.25 74.21875 29.59375 74.21875 
Q 40.828125 74.21875 47.359375 69.109375 
Q 53.90625 64.015625 53.90625 55.328125 
Q 53.90625 49.265625 50.4375 45.09375 
Q 46.96875 40.921875 40.578125 39.3125 
z
" id="DejaVuSans-51"/>
       <path d="M 10.796875 72.90625 
L 49.515625 72.90625 
L 49.515625 64.59375 
L 19.828125 64.59375 
L 19.828125 46.734375 
Q 21.96875 47.46875 24.109375 47.828125 
Q 26.265625 48.1875 28.421875 48.1875 
Q 40.625 48.1875 47.75 41.5 
Q 54.890625 34.8125 54.890625 23.390625 
Q 54.890625 11.625 47.5625 5.09375 
Q 40.234375 -1.421875 26.90625 -1.421875 
Q 22.3125 -1.421875 17.546875 -0.640625 
Q 12.796875 0.140625 7.71875 1.703125 
L 7.71875 11.625 
Q 12.109375 9.234375 16.796875 8.0625 
Q 21.484375 6.890625 26.703125 6.890625 
Q 35.15625 6.890625 40.078125 11.328125 
Q 45.015625 15.765625 45.015625 23.390625 
Q 45.015625 31 40.078125 35.4375 
Q 35.15625 39.890625 26.703125 39.890625 
Q 22.75 39.890625 18.8125 39.015625 
Q 14.890625 38.140625 10.796875 36.28125 
z
" id="DejaVuSans-53"/>
      </defs>
      <g transform="translate(7.2 25.791549)scale(0.08 -0.08)">
       <use xlink:href="#DejaVuSans-83"/>
       <use x="63.476562" xlink:href="#DejaVuSans-82"/>
       <use x="132.958984" xlink:href="#DejaVuSans-82"/>
       <use x="202.441406" xlink:href="#DejaVuSans-55"/>
       <use x="266.064453" xlink:href="#DejaVuSans-52"/>
       <use x="329.6875" xlink:href="#DejaVuSans-52"/>
       <use x="393.310547" xlink:href="#DejaVuSans-51"/>
       <use x="456.933594" xlink:href="#DejaVuSans-52"/>
       <use x="520.556641" xlink:href="#DejaVuSans-53"/>
       <use x="584.179688" xlink:href="#DejaVuSans-53"/>
      </g>
     </g>
    </g>
    <g id="ytick_2">
     <g id="text_10">
      <!-- SRR7443456 -->
      <g transform="translate(7.2 49.895897)scale(0.08 -0.08)">
       <use xlink:href="#DejaVuSans-83"/>
       <use x="63.476562" xlink:href="#DejaVuSans-82"/>
       <use x="132.958984" xlink:href="#DejaVuSans-82"/>
       <use x="202.441406" xlink:href="#DejaVuSans-55"/>
       <use x="266.064453" xlink:href="#DejaVuSans-52"/>
       <use x="329.6875" xlink:href="#DejaVuSans-52"/>
       <use x="393.310547" xlink:href="#DejaVuSans-51"/>
       <use x="456.933594" xlink:href="#DejaVuSans-52"/>
       <use x="520.556641" xlink:href="#DejaVuSans-53"/>
       <use x="584.179688" xlink:href="#DejaVuSans-54"/>
      </g>
     </g>
    </g>
    <g id="ytick_3">
     <g id="text_11">
      <!-- SRR7443457 -->
      <g transform="translate(7.2 74.000245)scale(0.08 -0.08)">
       <use xlink:href="#DejaVuSans-83"/>
       <use x="63.476562" xlink:href="#DejaVuSans-82"/>
       <use x="132.958984" xlink:href="#DejaVuSans-82"/>
       <use x="202.441406" xlink:href="#DejaVuSans-55"/>
       <use x="266.064453" xlink:href="#DejaVuSans-52"/>
       <use x="329.6875" xlink:href="#DejaVuSans-52"/>
       <use x="393.310547" xlink:href="#DejaVuSans-51"/>
       <use x="456.933594" xlink:href="#DejaVuSans-52"/>
       <use x="520.556641" xlink:href="#DejaVuSans-53"/>
       <use x="584.179688" xlink:href="#DejaVuSans-55"/>
      </g>
     </g>
    </g>
    <g id="ytick_4">
     <g id="text_12">
      <!-- SRR7443458 -->
      <g transform="translate(7.2 98.104592)scale(0.08 -0.08)">
       <use xlink:href="#DejaVuSans-83"/>
       <use x="63.476562" xlink:href="#DejaVuSans-82"/>
       <use x="132.958984" xlink:href="#DejaVuSans-82"/>
       <use x="202.441406" xlink:href="#DejaVuSans-55"/>
       <use x="266.064453" xlink:href="#DejaVuSans-52"/>
       <use x="329.6875" xlink:href="#DejaVuSans-52"/>
       <use x="393.310547" xlink:href="#DejaVuSans-51"/>
       <use x="456.933594" xlink:href="#DejaVuSans-52"/>
       <use x="520.556641" xlink:href="#DejaVuSans-53"/>
       <use x="584.179688" xlink:href="#DejaVuSans-56"/>
      </g>
     </g>
    </g>
    <g id="ytick_5">
     <g id="text_13">
      <!-- SRR7443459 -->
      <defs>
       <path d="M 10.984375 1.515625 
L 10.984375 10.5 
Q 14.703125 8.734375 18.5 7.8125 
Q 22.3125 6.890625 25.984375 6.890625 
Q 35.75 6.890625 40.890625 13.453125 
Q 46.046875 20.015625 46.78125 33.40625 
Q 43.953125 29.203125 39.59375 26.953125 
Q 35.25 24.703125 29.984375 24.703125 
Q 19.046875 24.703125 12.671875 31.3125 
Q 6.296875 37.9375 6.296875 49.421875 
Q 6.296875 60.640625 12.9375 67.421875 
Q 19.578125 74.21875 30.609375 74.21875 
Q 43.265625 74.21875 49.921875 64.515625 
Q 56.59375 54.828125 56.59375 36.375 
Q 56.59375 19.140625 48.40625 8.859375 
Q 40.234375 -1.421875 26.421875 -1.421875 
Q 22.703125 -1.421875 18.890625 -0.6875 
Q 15.09375 0.046875 10.984375 1.515625 
z
M 30.609375 32.421875 
Q 37.25 32.421875 41.125 36.953125 
Q 45.015625 41.5 45.015625 49.421875 
Q 45.015625 57.28125 41.125 61.84375 
Q 37.25 66.40625 30.609375 66.40625 
Q 23.96875 66.40625 20.09375 61.84375 
Q 16.21875 57.28125 16.21875 49.421875 
Q 16.21875 41.5 20.09375 36.953125 
Q 23.96875 32.421875 30.609375 32.421875 
z
" id="DejaVuSans-57"/>
      </defs>
      <g transform="translate(7.2 122.20894)scale(0.08 -0.08)">
       <use xlink:href="#DejaVuSans-83"/>
       <use x="63.476562" xlink:href="#DejaVuSans-82"/>
       <use x="132.958984" xlink:href="#DejaVuSans-82"/>
       <use x="202.441406" xlink:href="#DejaVuSans-55"/>
       <use x="266.064453" xlink:href="#DejaVuSans-52"/>
       <use x="329.6875" xlink:href="#DejaVuSans-52"/>
       <use x="393.310547" xlink:href="#DejaVuSans-51"/>
       <use x="456.933594" xlink:href="#DejaVuSans-52"/>
       <use x="520.556641" xlink:href="#DejaVuSans-53"/>
       <use x="584.179688" xlink:href="#DejaVuSans-57"/>
      </g>
     </g>
    </g>
    <g id="ytick_6">
     <g id="text_14">
      <!-- SRR7443460 -->
      <g transform="translate(7.2 146.313288)scale(0.08 -0.08)">
       <use xlink:href="#DejaVuSans-83"/>
       <use x="63.476562" xlink:href="#DejaVuSans-82"/>
       <use x="132.958984" xlink:href="#DejaVuSans-82"/>
       <use x="202.441406" xlink:href="#DejaVuSans-55"/>
       <use x="266.064453" xlink:href="#DejaVuSans-52"/>
       <use x="329.6875" xlink:href="#DejaVuSans-52"/>
       <use x="393.310547" xlink:href="#DejaVuSans-51"/>
       <use x="456.933594" xlink:href="#DejaVuSans-52"/>
       <use x="520.556641" xlink:href="#DejaVuSans-54"/>
       <use x="584.179688" xlink:href="#DejaVuSans-48"/>
      </g>
     </g>
    </g>
    <g id="ytick_7">
     <g id="text_15">
      <!-- SRR7443461 -->
      <g transform="translate(7.2 170.417636)scale(0.08 -0.08)">
       <use xlink:href="#DejaVuSans-83"/>
       <use x="63.476562" xlink:href="#DejaVuSans-82"/>
       <use x="132.958984" xlink:href="#DejaVuSans-82"/>
       <use x="202.441406" xlink:href="#DejaVuSans-55"/>
       <use x="266.064453" xlink:href="#DejaVuSans-52"/>
       <use x="329.6875" xlink:href="#DejaVuSans-52"/>
       <use x="393.310547" xlink:href="#DejaVuSans-51"/>
       <use x="456.933594" xlink:href="#DejaVuSans-52"/>
       <use x="520.556641" xlink:href="#DejaVuSans-54"/>
       <use x="584.179688" xlink:href="#DejaVuSans-49"/>
      </g>
     </g>
    </g>
    <g id="ytick_8">
     <g id="text_16">
      <!-- SRR7443462 -->
      <g transform="translate(7.2 194.521984)scale(0.08 -0.08)">
       <use xlink:href="#DejaVuSans-83"/>
       <use x="63.476562" xlink:href="#DejaVuSans-82"/>
       <use x="132.958984" xlink:href="#DejaVuSans-82"/>
       <use x="202.441406" xlink:href="#DejaVuSans-55"/>
       <use x="266.064453" xlink:href="#DejaVuSans-52"/>
       <use x="329.6875" xlink:href="#DejaVuSans-52"/>
       <use x="393.310547" xlink:href="#DejaVuSans-51"/>
       <use x="456.933594" xlink:href="#DejaVuSans-52"/>
       <use x="520.556641" xlink:href="#DejaVuSans-54"/>
       <use x="584.179688" xlink:href="#DejaVuSans-50"/>
      </g>
     </g>
    </g>
    <g id="ytick_9">
     <g id="text_17">
      <!-- SRR7443463 -->
      <g transform="translate(7.2 218.626332)scale(0.08 -0.08)">
       <use xlink:href="#DejaVuSans-83"/>
       <use x="63.476562" xlink:href="#DejaVuSans-82"/>
       <use x="132.958984" xlink:href="#DejaVuSans-82"/>
       <use x="202.441406" xlink:href="#DejaVuSans-55"/>
       <use x="266.064453" xlink:href="#DejaVuSans-52"/>
       <use x="329.6875" xlink:href="#DejaVuSans-52"/>
       <use x="393.310547" xlink:href="#DejaVuSans-51"/>
       <use x="456.933594" xlink:href="#DejaVuSans-52"/>
       <use x="520.556641" xlink:href="#DejaVuSans-54"/>
       <use x="584.179688" xlink:href="#DejaVuSans-51"/>
      </g>
     </g>
    </g>
    <g id="ytick_10">
     <g id="text_18">
      <!-- SRR7443464 -->
      <g transform="translate(7.2 242.730679)scale(0.08 -0.08)">
       <use xlink:href="#DejaVuSans-83"/>
       <use x="63.476562" xlink:href="#DejaVuSans-82"/>
       <use x="132.958984" xlink:href="#DejaVuSans-82"/>
       <use x="202.441406" xlink:href="#DejaVuSans-55"/>
       <use x="266.064453" xlink:href="#DejaVuSans-52"/>
       <use x="329.6875" xlink:href="#DejaVuSans-52"/>
       <use x="393.310547" xlink:href="#DejaVuSans-51"/>
       <use x="456.933594" xlink:href="#DejaVuSans-52"/>
       <use x="520.556641" xlink:href="#DejaVuSans-54"/>
       <use x="584.179688" xlink:href="#DejaVuSans-52"/>
      </g>
     </g>
    </g>
    <g id="ytick_11">
     <g id="text_19">
      <!-- SRR7443465 -->
      <g transform="translate(7.2 266.835027)scale(0.08 -0.08)">
       <use xlink:href="#DejaVuSans-83"/>
       <use x="63.476562" xlink:href="#DejaVuSans-82"/>
       <use x="132.958984" xlink:href="#DejaVuSans-82"/>
       <use x="202.441406" xlink:href="#DejaVuSans-55"/>
       <use x="266.064453" xlink:href="#DejaVuSans-52"/>
       <use x="329.6875" xlink:href="#DejaVuSans-52"/>
       <use x="393.310547" xlink:href="#DejaVuSans-51"/>
       <use x="456.933594" xlink:href="#DejaVuSans-52"/>
       <use x="520.556641" xlink:href="#DejaVuSans-54"/>
       <use x="584.179688" xlink:href="#DejaVuSans-53"/>
      </g>
     </g>
    </g>
    <g id="ytick_12">
     <g id="text_20">
      <!-- SRR7443466 -->
      <g transform="translate(7.2 290.939375)scale(0.08 -0.08)">
       <use xlink:href="#DejaVuSans-83"/>
       <use x="63.476562" xlink:href="#DejaVuSans-82"/>
       <use x="132.958984" xlink:href="#DejaVuSans-82"/>
       <use x="202.441406" xlink:href="#DejaVuSans-55"/>
       <use x="266.064453" xlink:href="#DejaVuSans-52"/>
       <use x="329.6875" xlink:href="#DejaVuSans-52"/>
       <use x="393.310547" xlink:href="#DejaVuSans-51"/>
       <use x="456.933594" xlink:href="#DejaVuSans-52"/>
       <use x="520.556641" xlink:href="#DejaVuSans-54"/>
       <use x="584.179688" xlink:href="#DejaVuSans-54"/>
      </g>
     </g>
    </g>
    <g id="ytick_13">
     <g id="text_21">
      <!-- SRR7443467 -->
      <g transform="translate(7.2 315.043723)scale(0.08 -0.08)">
       <use xlink:href="#DejaVuSans-83"/>
       <use x="63.476562" xlink:href="#DejaVuSans-82"/>
       <use x="132.958984" xlink:href="#DejaVuSans-82"/>
       <use x="202.441406" xlink:href="#DejaVuSans-55"/>
       <use x="266.064453" xlink:href="#DejaVuSans-52"/>
       <use x="329.6875" xlink:href="#DejaVuSans-52"/>
       <use x="393.310547" xlink:href="#DejaVuSans-51"/>
       <use x="456.933594" xlink:href="#DejaVuSans-52"/>
       <use x="520.556641" xlink:href="#DejaVuSans-54"/>
       <use x="584.179688" xlink:href="#DejaVuSans-55"/>
      </g>
     </g>
    </g>
    <g id="ytick_14">
     <g id="text_22">
      <!-- SRR7443468 -->
      <g transform="translate(7.2 339.148071)scale(0.08 -0.08)">
       <use xlink:href="#DejaVuSans-83"/>
       <use x="63.476562" xlink:href="#DejaVuSans-82"/>
       <use x="132.958984" xlink:href="#DejaVuSans-82"/>
       <use x="202.441406" xlink:href="#DejaVuSans-55"/>
       <use x="266.064453" xlink:href="#DejaVuSans-52"/>
       <use x="329.6875" xlink:href="#DejaVuSans-52"/>
       <use x="393.310547" xlink:href="#DejaVuSans-51"/>
       <use x="456.933594" xlink:href="#DejaVuSans-52"/>
       <use x="520.556641" xlink:href="#DejaVuSans-54"/>
       <use x="584.179688" xlink:href="#DejaVuSans-56"/>
      </g>
     </g>
    </g>
    <g id="ytick_15">
     <g id="text_23">
      <!-- SRR7443469 -->
      <g transform="translate(7.2 363.252418)scale(0.08 -0.08)">
       <use xlink:href="#DejaVuSans-83"/>
       <use x="63.476562" xlink:href="#DejaVuSans-82"/>
       <use x="132.958984" xlink:href="#DejaVuSans-82"/>
       <use x="202.441406" xlink:href="#DejaVuSans-55"/>
       <use x="266.064453" xlink:href="#DejaVuSans-52"/>
       <use x="329.6875" xlink:href="#DejaVuSans-52"/>
       <use x="393.310547" xlink:href="#DejaVuSans-51"/>
       <use x="456.933594" xlink:href="#DejaVuSans-52"/>
       <use x="520.556641" xlink:href="#DejaVuSans-54"/>
       <use x="584.179688" xlink:href="#DejaVuSans-57"/>
      </g>
     </g>
    </g>
    <g id="ytick_16">
     <g id="text_24">
      <!-- SRR7443470 -->
      <g transform="translate(7.2 387.356766)scale(0.08 -0.08)">
       <use xlink:href="#DejaVuSans-83"/>
       <use x="63.476562" xlink:href="#DejaVuSans-82"/>
       <use x="132.958984" xlink:href="#DejaVuSans-82"/>
       <use x="202.441406" xlink:href="#DejaVuSans-55"/>
       <use x="266.064453" xlink:href="#DejaVuSans-52"/>
       <use x="329.6875" xlink:href="#DejaVuSans-52"/>
       <use x="393.310547" xlink:href="#DejaVuSans-51"/>
       <use x="456.933594" xlink:href="#DejaVuSans-52"/>
       <use x="520.556641" xlink:href="#DejaVuSans-55"/>
       <use x="584.179688" xlink:href="#DejaVuSans-48"/>
      </g>
     </g>
    </g>
    <g id="ytick_17">
     <g id="text_25">
      <!-- SRR7443471 -->
      <g transform="translate(7.2 411.461114)scale(0.08 -0.08)">
       <use xlink:href="#DejaVuSans-83"/>
       <use x="63.476562" xlink:href="#DejaVuSans-82"/>
       <use x="132.958984" xlink:href="#DejaVuSans-82"/>
       <use x="202.441406" xlink:href="#DejaVuSans-55"/>
       <use x="266.064453" xlink:href="#DejaVuSans-52"/>
       <use x="329.6875" xlink:href="#DejaVuSans-52"/>
       <use x="393.310547" xlink:href="#DejaVuSans-51"/>
       <use x="456.933594" xlink:href="#DejaVuSans-52"/>
       <use x="520.556641" xlink:href="#DejaVuSans-55"/>
       <use x="584.179688" xlink:href="#DejaVuSans-49"/>
      </g>
     </g>
    </g>
    <g id="ytick_18">
     <g id="text_26">
      <!-- SRR7443472 -->
      <g transform="translate(7.2 435.565462)scale(0.08 -0.08)">
       <use xlink:href="#DejaVuSans-83"/>
       <use x="63.476562" xlink:href="#DejaVuSans-82"/>
       <use x="132.958984" xlink:href="#DejaVuSans-82"/>
       <use x="202.441406" xlink:href="#DejaVuSans-55"/>
       <use x="266.064453" xlink:href="#DejaVuSans-52"/>
       <use x="329.6875" xlink:href="#DejaVuSans-52"/>
       <use x="393.310547" xlink:href="#DejaVuSans-51"/>
       <use x="456.933594" xlink:href="#DejaVuSans-52"/>
       <use x="520.556641" xlink:href="#DejaVuSans-55"/>
       <use x="584.179688" xlink:href="#DejaVuSans-50"/>
      </g>
     </g>
    </g>
   </g>
   <g id="patch_3">
    <path clip-path="url(#p5899bcb1ee)" d="M 66.02625 13.110435 
L 486.758248 13.110435 
L 486.758248 32.393913 
L 66.02625 32.393913 
z
" style="fill:#7cb5ec;"/>
   </g>
   <g id="patch_4">
    <path clip-path="url(#p5899bcb1ee)" d="M 66.02625 37.214783 
L 594.554477 37.214783 
L 594.554477 56.498261 
L 66.02625 56.498261 
z
" style="fill:#7cb5ec;"/>
   </g>
   <g id="patch_5">
    <path clip-path="url(#p5899bcb1ee)" d="M 66.02625 61.31913 
L 495.840779 61.31913 
L 495.840779 80.602609 
L 66.02625 80.602609 
z
" style="fill:#7cb5ec;"/>
   </g>
   <g id="patch_6">
    <path clip-path="url(#p5899bcb1ee)" d="M 66.02625 85.423478 
L 574.529367 85.423478 
L 574.529367 104.706957 
L 66.02625 104.706957 
z
" style="fill:#7cb5ec;"/>
   </g>
   <g id="patch_7">
    <path clip-path="url(#p5899bcb1ee)" d="M 66.02625 109.527826 
L 533.161434 109.527826 
L 533.161434 128.811304 
L 66.02625 128.811304 
z
" style="fill:#7cb5ec;"/>
   </g>
   <g id="patch_8">
    <path clip-path="url(#p5899bcb1ee)" d="M 66.02625 133.632174 
L 454.581321 133.632174 
L 454.581321 152.915652 
L 66.02625 152.915652 
z
" style="fill:#7cb5ec;"/>
   </g>
   <g id="patch_9">
    <path clip-path="url(#p5899bcb1ee)" d="M 66.02625 157.736522 
L 498.547466 157.736522 
L 498.547466 177.02 
L 66.02625 177.02 
z
" style="fill:#7cb5ec;"/>
   </g>
   <g id="patch_10">
    <path clip-path="url(#p5899bcb1ee)" d="M 66.02625 181.84087 
L 527.549926 181.84087 
L 527.549926 201.124348 
L 66.02625 201.124348 
z
" style="fill:#7cb5ec;"/>
   </g>
   <g id="patch_11">
    <path clip-path="url(#p5899bcb1ee)" d="M 66.02625 205.945217 
L 544.86267 205.945217 
L 544.86267 225.228696 
L 66.02625 225.228696 
z
" style="fill:#7cb5ec;"/>
   </g>
   <g id="patch_12">
    <path clip-path="url(#p5899bcb1ee)" d="M 66.02625 230.049565 
L 469.0891 230.049565 
L 469.0891 249.333043 
L 66.02625 249.333043 
z
" style="fill:#7cb5ec;"/>
   </g>
   <g id="patch_13">
    <path clip-path="url(#p5899bcb1ee)" d="M 66.02625 254.153913 
L 629.38961 254.153913 
L 629.38961 273.437391 
L 66.02625 273.437391 
z
" style="fill:#7cb5ec;"/>
   </g>
   <g id="patch_14">
    <path clip-path="url(#p5899bcb1ee)" d="M 66.02625 278.258261 
L 464.698858 278.258261 
L 464.698858 297.541739 
L 66.02625 297.541739 
z
" style="fill:#7cb5ec;"/>
   </g>
   <g id="patch_15">
    <path clip-path="url(#p5899bcb1ee)" d="M 66.02625 302.362609 
L 498.366416 302.362609 
L 498.366416 321.646087 
L 66.02625 321.646087 
z
" style="fill:#7cb5ec;"/>
   </g>
   <g id="patch_16">
    <path clip-path="url(#p5899bcb1ee)" d="M 66.02625 326.466957 
L 523.798825 326.466957 
L 523.798825 345.750435 
L 66.02625 345.750435 
z
" style="fill:#7cb5ec;"/>
   </g>
   <g id="patch_17">
    <path clip-path="url(#p5899bcb1ee)" d="M 66.02625 350.571304 
L 468.859758 350.571304 
L 468.859758 369.854783 
L 66.02625 369.854783 
z
" style="fill:#7cb5ec;"/>
   </g>
   <g id="patch_18">
    <path clip-path="url(#p5899bcb1ee)" d="M 66.02625 374.675652 
L 440.877467 374.675652 
L 440.877467 393.95913 
L 66.02625 393.95913 
z
" style="fill:#7cb5ec;"/>
   </g>
   <g id="patch_19">
    <path clip-path="url(#p5899bcb1ee)" d="M 66.02625 398.78 
L 485.786803 398.78 
L 485.786803 418.063478 
L 66.02625 418.063478 
z
" style="fill:#7cb5ec;"/>
   </g>
   <g id="patch_20">
    <path clip-path="url(#p5899bcb1ee)" d="M 66.02625 422.884348 
L 516.338126 422.884348 
L 516.338126 442.167826 
L 66.02625 442.167826 
z
" style="fill:#7cb5ec;"/>
   </g>
   <g id="patch_21">
    <path clip-path="url(#p5899bcb1ee)" d="M 486.758248 13.110435 
L 498.640253 13.110435 
L 498.640253 32.393913 
L 486.758248 32.393913 
z
" style="fill:#434348;"/>
   </g>
   <g id="patch_22">
    <path clip-path="url(#p5899bcb1ee)" d="M 594.554477 37.214783 
L 620.581592 37.214783 
L 620.581592 56.498261 
L 594.554477 56.498261 
z
" style="fill:#434348;"/>
   </g>
   <g id="patch_23">
    <path clip-path="url(#p5899bcb1ee)" d="M 495.840779 61.31913 
L 508.074139 61.31913 
L 508.074139 80.602609 
L 495.840779 80.602609 
z
" style="fill:#434348;"/>
   </g>
   <g id="patch_24">
    <path clip-path="url(#p5899bcb1ee)" d="M 574.529367 85.423478 
L 595.003692 85.423478 
L 595.003692 104.706957 
L 574.529367 104.706957 
z
" style="fill:#434348;"/>
   </g>
   <g id="patch_25">
    <path clip-path="url(#p5899bcb1ee)" d="M 533.161434 109.527826 
L 549.146753 109.527826 
L 549.146753 128.811304 
L 533.161434 128.811304 
z
" style="fill:#434348;"/>
   </g>
   <g id="patch_26">
    <path clip-path="url(#p5899bcb1ee)" d="M 454.581321 133.632174 
L 466.37602 133.632174 
L 466.37602 152.915652 
L 454.581321 152.915652 
z
" style="fill:#434348;"/>
   </g>
   <g id="patch_27">
    <path clip-path="url(#p5899bcb1ee)" d="M 498.547466 157.736522 
L 513.458469 157.736522 
L 513.458469 177.02 
L 498.547466 177.02 
z
" style="fill:#434348;"/>
   </g>
   <g id="patch_28">
    <path clip-path="url(#p5899bcb1ee)" d="M 527.549926 181.84087 
L 543.870678 181.84087 
L 543.870678 201.124348 
L 527.549926 201.124348 
z
" style="fill:#434348;"/>
   </g>
   <g id="patch_29">
    <path clip-path="url(#p5899bcb1ee)" d="M 544.86267 205.945217 
L 558.967659 205.945217 
L 558.967659 225.228696 
L 544.86267 225.228696 
z
" style="fill:#434348;"/>
   </g>
   <g id="patch_30">
    <path clip-path="url(#p5899bcb1ee)" d="M 469.0891 230.049565 
L 482.998407 230.049565 
L 482.998407 249.333043 
L 469.0891 249.333043 
z
" style="fill:#434348;"/>
   </g>
   <g id="patch_31">
    <path clip-path="url(#p5899bcb1ee)" d="M 629.38961 254.153913 
L 653.72263 254.153913 
L 653.72263 273.437391 
L 629.38961 273.437391 
z
" style="fill:#434348;"/>
   </g>
   <g id="patch_32">
    <path clip-path="url(#p5899bcb1ee)" d="M 464.698858 278.258261 
L 478.918738 278.258261 
L 478.918738 297.541739 
L 464.698858 297.541739 
z
" style="fill:#434348;"/>
   </g>
   <g id="patch_33">
    <path clip-path="url(#p5899bcb1ee)" d="M 498.366416 302.362609 
L 511.333284 302.362609 
L 511.333284 321.646087 
L 498.366416 321.646087 
z
" style="fill:#434348;"/>
   </g>
   <g id="patch_34">
    <path clip-path="url(#p5899bcb1ee)" d="M 523.798825 326.466957 
L 538.910992 326.466957 
L 538.910992 345.750435 
L 523.798825 345.750435 
z
" style="fill:#434348;"/>
   </g>
   <g id="patch_35">
    <path clip-path="url(#p5899bcb1ee)" d="M 468.859758 350.571304 
L 480.153078 350.571304 
L 480.153078 369.854783 
L 468.859758 369.854783 
z
" style="fill:#434348;"/>
   </g>
   <g id="patch_36">
    <path clip-path="url(#p5899bcb1ee)" d="M 440.877467 374.675652 
L 452.904424 374.675652 
L 452.904424 393.95913 
L 440.877467 393.95913 
z
" style="fill:#434348;"/>
   </g>
   <g id="patch_37">
    <path clip-path="url(#p5899bcb1ee)" d="M 485.786803 398.78 
L 498.974372 398.78 
L 498.974372 418.063478 
L 485.786803 418.063478 
z
" style="fill:#434348;"/>
   </g>
   <g id="patch_38">
    <path clip-path="url(#p5899bcb1ee)" d="M 516.338126 422.884348 
L 531.054123 422.884348 
L 531.054123 442.167826 
L 516.338126 442.167826 
z
" style="fill:#434348;"/>
   </g>
   <g id="patch_39">
    <path clip-path="url(#p5899bcb1ee)" d="M 498.640253 13.110435 
L 574.247512 13.110435 
L 574.247512 32.393913 
L 498.640253 32.393913 
z
" style="fill:#90ed7d;"/>
   </g>
   <g id="patch_40">
    <path clip-path="url(#p5899bcb1ee)" d="M 620.581592 37.214783 
L 660.556869 37.214783 
L 660.556869 56.498261 
L 620.581592 56.498261 
z
" style="fill:#90ed7d;"/>
   </g>
   <g id="patch_41">
    <path clip-path="url(#p5899bcb1ee)" d="M 508.074139 61.31913 
L 580.378425 61.31913 
L 580.378425 80.602609 
L 508.074139 80.602609 
z
" style="fill:#90ed7d;"/>
   </g>
   <g id="patch_42">
    <path clip-path="url(#p5899bcb1ee)" d="M 595.003692 85.423478 
L 653.771704 85.423478 
L 653.771704 104.706957 
L 595.003692 104.706957 
z
" style="fill:#90ed7d;"/>
   </g>
   <g id="patch_43">
    <path clip-path="url(#p5899bcb1ee)" d="M 549.146753 109.527826 
L 617.826758 109.527826 
L 617.826758 128.811304 
L 549.146753 128.811304 
z
" style="fill:#90ed7d;"/>
   </g>
   <g id="patch_44">
    <path clip-path="url(#p5899bcb1ee)" d="M 466.37602 133.632174 
L 521.574543 133.632174 
L 521.574543 152.915652 
L 466.37602 152.915652 
z
" style="fill:#90ed7d;"/>
   </g>
   <g id="patch_45">
    <path clip-path="url(#p5899bcb1ee)" d="M 513.458469 157.736522 
L 573.530169 157.736522 
L 573.530169 177.02 
L 513.458469 177.02 
z
" style="fill:#90ed7d;"/>
   </g>
   <g id="patch_46">
    <path clip-path="url(#p5899bcb1ee)" d="M 543.870678 181.84087 
L 608.162361 181.84087 
L 608.162361 201.124348 
L 543.870678 201.124348 
z
" style="fill:#90ed7d;"/>
   </g>
   <g id="patch_47">
    <path clip-path="url(#p5899bcb1ee)" d="M 558.967659 205.945217 
L 637.693742 205.945217 
L 637.693742 225.228696 
L 558.967659 225.228696 
z
" style="fill:#90ed7d;"/>
   </g>
   <g id="patch_48">
    <path clip-path="url(#p5899bcb1ee)" d="M 482.998407 230.049565 
L 531.155894 230.049565 
L 531.155894 249.333043 
L 482.998407 249.333043 
z
" style="fill:#90ed7d;"/>
   </g>
   <g id="patch_49">
    <path clip-path="url(#p5899bcb1ee)" d="M 653.72263 254.153913 
L 702.250591 254.153913 
L 702.250591 273.437391 
L 653.72263 273.437391 
z
" style="fill:#90ed7d;"/>
   </g>
   <g id="patch_50">
    <path clip-path="url(#p5899bcb1ee)" d="M 478.918738 278.258261 
L 526.090147 278.258261 
L 526.090147 297.541739 
L 478.918738 297.541739 
z
" style="fill:#90ed7d;"/>
   </g>
   <g id="patch_51">
    <path clip-path="url(#p5899bcb1ee)" d="M 511.333284 302.362609 
L 578.84115 302.362609 
L 578.84115 321.646087 
L 511.333284 321.646087 
z
" style="fill:#90ed7d;"/>
   </g>
   <g id="patch_52">
    <path clip-path="url(#p5899bcb1ee)" d="M 538.910992 326.466957 
L 603.402267 326.466957 
L 603.402267 345.750435 
L 538.910992 345.750435 
z
" style="fill:#90ed7d;"/>
   </g>
   <g id="patch_53">
    <path clip-path="url(#p5899bcb1ee)" d="M 480.153078 350.571304 
L 537.157595 350.571304 
L 537.157595 369.854783 
L 480.153078 369.854783 
z
" style="fill:#90ed7d;"/>
   </g>
   <g id="patch_54">
    <path clip-path="url(#p5899bcb1ee)" d="M 452.904424 374.675652 
L 504.267281 374.675652 
L 504.267281 393.95913 
L 452.904424 393.95913 
z
" style="fill:#90ed7d;"/>
   </g>
   <g id="patch_55">
    <path clip-path="url(#p5899bcb1ee)" d="M 498.974372 398.78 
L 549.381448 398.78 
L 549.381448 418.063478 
L 498.974372 418.063478 
z
" style="fill:#90ed7d;"/>
   </g>
   <g id="patch_56">
    <path clip-path="url(#p5899bcb1ee)" d="M 531.054123 422.884348 
L 592.556575 422.884348 
L 592.556575 442.167826 
L 531.054123 442.167826 
z
" style="fill:#90ed7d;"/>
   </g>
   <g id="patch_57">
    <path clip-path="url(#p5899bcb1ee)" d="M 574.247512 13.110435 
L 590.803467 13.110435 
L 590.803467 32.393913 
L 574.247512 32.393913 
z
" style="fill:#f7a35c;"/>
   </g>
   <g id="patch_58">
    <path clip-path="url(#p5899bcb1ee)" d="M 660.556869 37.214783 
L 677.453382 37.214783 
L 677.453382 56.498261 
L 660.556869 56.498261 
z
" style="fill:#f7a35c;"/>
   </g>
   <g id="patch_59">
    <path clip-path="url(#p5899bcb1ee)" d="M 580.378425 61.31913 
L 594.952872 61.31913 
L 594.952872 80.602609 
L 580.378425 80.602609 
z
" style="fill:#f7a35c;"/>
   </g>
   <g id="patch_60">
    <path clip-path="url(#p5899bcb1ee)" d="M 653.771704 85.423478 
L 672.294202 85.423478 
L 672.294202 104.706957 
L 653.771704 104.706957 
z
" style="fill:#f7a35c;"/>
   </g>
   <g id="patch_61">
    <path clip-path="url(#p5899bcb1ee)" d="M 617.826758 109.527826 
L 634.617355 109.527826 
L 634.617355 128.811304 
L 617.826758 128.811304 
z
" style="fill:#f7a35c;"/>
   </g>
   <g id="patch_62">
    <path clip-path="url(#p5899bcb1ee)" d="M 521.574543 133.632174 
L 541.702342 133.632174 
L 541.702342 152.915652 
L 521.574543 152.915652 
z
" style="fill:#f7a35c;"/>
   </g>
   <g id="patch_63">
    <path clip-path="url(#p5899bcb1ee)" d="M 573.530169 157.736522 
L 591.261528 157.736522 
L 591.261528 177.02 
L 573.530169 177.02 
z
" style="fill:#f7a35c;"/>
   </g>
   <g id="patch_64">
    <path clip-path="url(#p5899bcb1ee)" d="M 608.162361 181.84087 
L 626.030206 181.84087 
L 626.030206 201.124348 
L 608.162361 201.124348 
z
" style="fill:#f7a35c;"/>
   </g>
   <g id="patch_65">
    <path clip-path="url(#p5899bcb1ee)" d="M 637.693742 205.945217 
L 654.520459 205.945217 
L 654.520459 225.228696 
L 637.693742 225.228696 
z
" style="fill:#f7a35c;"/>
   </g>
   <g id="patch_66">
    <path clip-path="url(#p5899bcb1ee)" d="M 531.155894 230.049565 
L 544.846216 230.049565 
L 544.846216 249.333043 
L 531.155894 249.333043 
z
" style="fill:#f7a35c;"/>
   </g>
   <g id="patch_67">
    <path clip-path="url(#p5899bcb1ee)" d="M 702.250591 254.153913 
L 717.251375 254.153913 
L 717.251375 273.437391 
L 702.250591 273.437391 
z
" style="fill:#f7a35c;"/>
   </g>
   <g id="patch_68">
    <path clip-path="url(#p5899bcb1ee)" d="M 526.090147 278.258261 
L 538.141538 278.258261 
L 538.141538 297.541739 
L 526.090147 297.541739 
z
" style="fill:#f7a35c;"/>
   </g>
   <g id="patch_69">
    <path clip-path="url(#p5899bcb1ee)" d="M 578.84115 302.362609 
L 595.051878 302.362609 
L 595.051878 321.646087 
L 578.84115 321.646087 
z
" style="fill:#f7a35c;"/>
   </g>
   <g id="patch_70">
    <path clip-path="url(#p5899bcb1ee)" d="M 603.402267 326.466957 
L 619.63257 326.466957 
L 619.63257 345.750435 
L 603.402267 345.750435 
z
" style="fill:#f7a35c;"/>
   </g>
   <g id="patch_71">
    <path clip-path="url(#p5899bcb1ee)" d="M 537.157595 350.571304 
L 552.294295 350.571304 
L 552.294295 369.854783 
L 537.157595 369.854783 
z
" style="fill:#f7a35c;"/>
   </g>
   <g id="patch_72">
    <path clip-path="url(#p5899bcb1ee)" d="M 504.267281 374.675652 
L 518.977743 374.675652 
L 518.977743 393.95913 
L 504.267281 393.95913 
z
" style="fill:#f7a35c;"/>
   </g>
   <g id="patch_73">
    <path clip-path="url(#p5899bcb1ee)" d="M 549.381448 398.78 
L 562.877653 398.78 
L 562.877653 418.063478 
L 549.381448 418.063478 
z
" style="fill:#f7a35c;"/>
   </g>
   <g id="patch_74">
    <path clip-path="url(#p5899bcb1ee)" d="M 592.556575 422.884348 
L 606.994536 422.884348 
L 606.994536 442.167826 
L 592.556575 442.167826 
z
" style="fill:#f7a35c;"/>
   </g>
   <g id="patch_75">
    <path clip-path="url(#p5899bcb1ee)" d="M 590.803467 13.110435 
L 593.251434 13.110435 
L 593.251434 32.393913 
L 590.803467 32.393913 
z
" style="fill:#8085e9;"/>
   </g>
   <g id="patch_76">
    <path clip-path="url(#p5899bcb1ee)" d="M 677.453382 37.214783 
L 680.282158 37.214783 
L 680.282158 56.498261 
L 677.453382 56.498261 
z
" style="fill:#8085e9;"/>
   </g>
   <g id="patch_77">
    <path clip-path="url(#p5899bcb1ee)" d="M 594.952872 61.31913 
L 596.658918 61.31913 
L 596.658918 80.602609 
L 594.952872 80.602609 
z
" style="fill:#8085e9;"/>
   </g>
   <g id="patch_78">
    <path clip-path="url(#p5899bcb1ee)" d="M 672.294202 85.423478 
L 674.831563 85.423478 
L 674.831563 104.706957 
L 672.294202 104.706957 
z
" style="fill:#8085e9;"/>
   </g>
   <g id="patch_79">
    <path clip-path="url(#p5899bcb1ee)" d="M 634.617355 109.527826 
L 636.552189 109.527826 
L 636.552189 128.811304 
L 634.617355 128.811304 
z
" style="fill:#8085e9;"/>
   </g>
   <g id="patch_80">
    <path clip-path="url(#p5899bcb1ee)" d="M 541.702342 133.632174 
L 543.596628 133.632174 
L 543.596628 152.915652 
L 541.702342 152.915652 
z
" style="fill:#8085e9;"/>
   </g>
   <g id="patch_81">
    <path clip-path="url(#p5899bcb1ee)" d="M 591.261528 157.736522 
L 593.372559 157.736522 
L 593.372559 177.02 
L 591.261528 177.02 
z
" style="fill:#8085e9;"/>
   </g>
   <g id="patch_82">
    <path clip-path="url(#p5899bcb1ee)" d="M 626.030206 181.84087 
L 628.09684 181.84087 
L 628.09684 201.124348 
L 626.030206 201.124348 
z
" style="fill:#8085e9;"/>
   </g>
   <g id="patch_83">
    <path clip-path="url(#p5899bcb1ee)" d="M 654.520459 205.945217 
L 656.917052 205.945217 
L 656.917052 225.228696 
L 654.520459 225.228696 
z
" style="fill:#8085e9;"/>
   </g>
   <g id="patch_84">
    <path clip-path="url(#p5899bcb1ee)" d="M 544.846216 230.049565 
L 546.759182 230.049565 
L 546.759182 249.333043 
L 544.846216 249.333043 
z
" style="fill:#8085e9;"/>
   </g>
   <g id="patch_85">
    <path clip-path="url(#p5899bcb1ee)" d="M 717.251375 254.153913 
L 720.179104 254.153913 
L 720.179104 273.437391 
L 717.251375 273.437391 
z
" style="fill:#8085e9;"/>
   </g>
   <g id="patch_86">
    <path clip-path="url(#p5899bcb1ee)" d="M 538.141538 278.258261 
L 540.201035 278.258261 
L 540.201035 297.541739 
L 538.141538 297.541739 
z
" style="fill:#8085e9;"/>
   </g>
   <g id="patch_87">
    <path clip-path="url(#p5899bcb1ee)" d="M 595.051878 302.362609 
L 597.086834 302.362609 
L 597.086834 321.646087 
L 595.051878 321.646087 
z
" style="fill:#8085e9;"/>
   </g>
   <g id="patch_88">
    <path clip-path="url(#p5899bcb1ee)" d="M 619.63257 326.466957 
L 621.958797 326.466957 
L 621.958797 345.750435 
L 619.63257 345.750435 
z
" style="fill:#8085e9;"/>
   </g>
   <g id="patch_89">
    <path clip-path="url(#p5899bcb1ee)" d="M 552.294295 350.571304 
L 554.071018 350.571304 
L 554.071018 369.854783 
L 552.294295 369.854783 
z
" style="fill:#8085e9;"/>
   </g>
   <g id="patch_90">
    <path clip-path="url(#p5899bcb1ee)" d="M 518.977743 374.675652 
L 520.813502 374.675652 
L 520.813502 393.95913 
L 518.977743 393.95913 
z
" style="fill:#8085e9;"/>
   </g>
   <g id="patch_91">
    <path clip-path="url(#p5899bcb1ee)" d="M 562.877653 398.78 
L 564.651248 398.78 
L 564.651248 418.063478 
L 562.877653 418.063478 
z
" style="fill:#8085e9;"/>
   </g>
   <g id="patch_92">
    <path clip-path="url(#p5899bcb1ee)" d="M 606.994536 422.884348 
L 609.101923 422.884348 
L 609.101923 442.167826 
L 606.994536 442.167826 
z
" style="fill:#8085e9;"/>
   </g>
   <g id="patch_93">
    <path clip-path="url(#p5899bcb1ee)" d="M 593.251434 13.110435 
L 597.526224 13.110435 
L 597.526224 32.393913 
L 593.251434 32.393913 
z
" style="fill:#f15c80;"/>
   </g>
   <g id="patch_94">
    <path clip-path="url(#p5899bcb1ee)" d="M 680.282158 37.214783 
L 685.021478 37.214783 
L 685.021478 56.498261 
L 680.282158 56.498261 
z
" style="fill:#f15c80;"/>
   </g>
   <g id="patch_95">
    <path clip-path="url(#p5899bcb1ee)" d="M 596.658918 61.31913 
L 599.676808 61.31913 
L 599.676808 80.602609 
L 596.658918 80.602609 
z
" style="fill:#f15c80;"/>
   </g>
   <g id="patch_96">
    <path clip-path="url(#p5899bcb1ee)" d="M 674.831563 85.423478 
L 678.991484 85.423478 
L 678.991484 104.706957 
L 674.831563 104.706957 
z
" style="fill:#f15c80;"/>
   </g>
   <g id="patch_97">
    <path clip-path="url(#p5899bcb1ee)" d="M 636.552189 109.527826 
L 639.972064 109.527826 
L 639.972064 128.811304 
L 636.552189 128.811304 
z
" style="fill:#f15c80;"/>
   </g>
   <g id="patch_98">
    <path clip-path="url(#p5899bcb1ee)" d="M 543.596628 133.632174 
L 546.963922 133.632174 
L 546.963922 152.915652 
L 543.596628 152.915652 
z
" style="fill:#f15c80;"/>
   </g>
   <g id="patch_99">
    <path clip-path="url(#p5899bcb1ee)" d="M 593.372559 157.736522 
L 596.930637 157.736522 
L 596.930637 177.02 
L 593.372559 177.02 
z
" style="fill:#f15c80;"/>
   </g>
   <g id="patch_100">
    <path clip-path="url(#p5899bcb1ee)" d="M 628.09684 181.84087 
L 631.669223 181.84087 
L 631.669223 201.124348 
L 628.09684 201.124348 
z
" style="fill:#f15c80;"/>
   </g>
   <g id="patch_101">
    <path clip-path="url(#p5899bcb1ee)" d="M 656.917052 205.945217 
L 660.981604 205.945217 
L 660.981604 225.228696 
L 656.917052 225.228696 
z
" style="fill:#f15c80;"/>
   </g>
   <g id="patch_102">
    <path clip-path="url(#p5899bcb1ee)" d="M 546.759182 230.049565 
L 550.122747 230.049565 
L 550.122747 249.333043 
L 546.759182 249.333043 
z
" style="fill:#f15c80;"/>
   </g>
   <g id="patch_103">
    <path clip-path="url(#p5899bcb1ee)" d="M 720.179104 254.153913 
L 724.693501 254.153913 
L 724.693501 273.437391 
L 720.179104 273.437391 
z
" style="fill:#f15c80;"/>
   </g>
   <g id="patch_104">
    <path clip-path="url(#p5899bcb1ee)" d="M 540.201035 278.258261 
L 543.519566 278.258261 
L 543.519566 297.541739 
L 540.201035 297.541739 
z
" style="fill:#f15c80;"/>
   </g>
   <g id="patch_105">
    <path clip-path="url(#p5899bcb1ee)" d="M 597.086834 302.362609 
L 600.904755 302.362609 
L 600.904755 321.646087 
L 597.086834 321.646087 
z
" style="fill:#f15c80;"/>
   </g>
   <g id="patch_106">
    <path clip-path="url(#p5899bcb1ee)" d="M 621.958797 326.466957 
L 625.931776 326.466957 
L 625.931776 345.750435 
L 621.958797 345.750435 
z
" style="fill:#f15c80;"/>
   </g>
   <g id="patch_107">
    <path clip-path="url(#p5899bcb1ee)" d="M 554.071018 350.571304 
L 557.425509 350.571304 
L 557.425509 369.854783 
L 554.071018 369.854783 
z
" style="fill:#f15c80;"/>
   </g>
   <g id="patch_108">
    <path clip-path="url(#p5899bcb1ee)" d="M 520.813502 374.675652 
L 524.230029 374.675652 
L 524.230029 393.95913 
L 520.813502 393.95913 
z
" style="fill:#f15c80;"/>
   </g>
   <g id="patch_109">
    <path clip-path="url(#p5899bcb1ee)" d="M 564.651248 398.78 
L 567.921714 398.78 
L 567.921714 418.063478 
L 564.651248 418.063478 
z
" style="fill:#f15c80;"/>
   </g>
   <g id="patch_110">
    <path clip-path="url(#p5899bcb1ee)" d="M 609.101923 422.884348 
L 612.651618 422.884348 
L 612.651618 442.167826 
L 609.101923 442.167826 
z
" style="fill:#f15c80;"/>
   </g>
   <g id="patch_111">
    <path clip-path="url(#p5899bcb1ee)" d="M 597.526224 13.110435 
L 604.277925 13.110435 
L 604.277925 32.393913 
L 597.526224 32.393913 
z
" style="fill:#e4d354;"/>
   </g>
   <g id="patch_112">
    <path clip-path="url(#p5899bcb1ee)" d="M 685.021478 37.214783 
L 691.484019 37.214783 
L 691.484019 56.498261 
L 685.021478 56.498261 
z
" style="fill:#e4d354;"/>
   </g>
   <g id="patch_113">
    <path clip-path="url(#p5899bcb1ee)" d="M 599.676808 61.31913 
L 603.860821 61.31913 
L 603.860821 80.602609 
L 599.676808 80.602609 
z
" style="fill:#e4d354;"/>
   </g>
   <g id="patch_114">
    <path clip-path="url(#p5899bcb1ee)" d="M 678.991484 85.423478 
L 684.509232 85.423478 
L 684.509232 104.706957 
L 678.991484 104.706957 
z
" style="fill:#e4d354;"/>
   </g>
   <g id="patch_115">
    <path clip-path="url(#p5899bcb1ee)" d="M 639.972064 109.527826 
L 644.557631 109.527826 
L 644.557631 128.811304 
L 639.972064 128.811304 
z
" style="fill:#e4d354;"/>
   </g>
   <g id="patch_116">
    <path clip-path="url(#p5899bcb1ee)" d="M 546.963922 133.632174 
L 552.655696 133.632174 
L 552.655696 152.915652 
L 546.963922 152.915652 
z
" style="fill:#e4d354;"/>
   </g>
   <g id="patch_117">
    <path clip-path="url(#p5899bcb1ee)" d="M 596.930637 157.736522 
L 602.217464 157.736522 
L 602.217464 177.02 
L 596.930637 177.02 
z
" style="fill:#e4d354;"/>
   </g>
   <g id="patch_118">
    <path clip-path="url(#p5899bcb1ee)" d="M 631.669223 181.84087 
L 636.63203 181.84087 
L 636.63203 201.124348 
L 631.669223 201.124348 
z
" style="fill:#e4d354;"/>
   </g>
   <g id="patch_119">
    <path clip-path="url(#p5899bcb1ee)" d="M 660.981604 205.945217 
L 666.885734 205.945217 
L 666.885734 225.228696 
L 660.981604 225.228696 
z
" style="fill:#e4d354;"/>
   </g>
   <g id="patch_120">
    <path clip-path="url(#p5899bcb1ee)" d="M 550.122747 230.049565 
L 555.107262 230.049565 
L 555.107262 249.333043 
L 550.122747 249.333043 
z
" style="fill:#e4d354;"/>
   </g>
   <g id="patch_121">
    <path clip-path="url(#p5899bcb1ee)" d="M 724.693501 254.153913 
L 730.437964 254.153913 
L 730.437964 273.437391 
L 724.693501 273.437391 
z
" style="fill:#e4d354;"/>
   </g>
   <g id="patch_122">
    <path clip-path="url(#p5899bcb1ee)" d="M 543.519566 278.258261 
L 547.899839 278.258261 
L 547.899839 297.541739 
L 543.519566 297.541739 
z
" style="fill:#e4d354;"/>
   </g>
   <g id="patch_123">
    <path clip-path="url(#p5899bcb1ee)" d="M 600.904755 302.362609 
L 606.944741 302.362609 
L 606.944741 321.646087 
L 600.904755 321.646087 
z
" style="fill:#e4d354;"/>
   </g>
   <g id="patch_124">
    <path clip-path="url(#p5899bcb1ee)" d="M 625.931776 326.466957 
L 631.78927 326.466957 
L 631.78927 345.750435 
L 625.931776 345.750435 
z
" style="fill:#e4d354;"/>
   </g>
   <g id="patch_125">
    <path clip-path="url(#p5899bcb1ee)" d="M 557.425509 350.571304 
L 562.713035 350.571304 
L 562.713035 369.854783 
L 557.425509 369.854783 
z
" style="fill:#e4d354;"/>
   </g>
   <g id="patch_126">
    <path clip-path="url(#p5899bcb1ee)" d="M 524.230029 374.675652 
L 529.382496 374.675652 
L 529.382496 393.95913 
L 524.230029 393.95913 
z
" style="fill:#e4d354;"/>
   </g>
   <g id="patch_127">
    <path clip-path="url(#p5899bcb1ee)" d="M 567.921714 398.78 
L 572.743305 398.78 
L 572.743305 418.063478 
L 567.921714 418.063478 
z
" style="fill:#e4d354;"/>
   </g>
   <g id="patch_128">
    <path clip-path="url(#p5899bcb1ee)" d="M 612.651618 422.884348 
L 617.380383 422.884348 
L 617.380383 442.167826 
L 612.651618 442.167826 
z
" style="fill:#e4d354;"/>
   </g>
   <g id="patch_129">
    <path clip-path="url(#p5899bcb1ee)" d="M 604.277925 13.110435 
L 619.066801 13.110435 
L 619.066801 32.393913 
L 604.277925 32.393913 
z
" style="fill:#2b908f;"/>
   </g>
   <g id="patch_130">
    <path clip-path="url(#p5899bcb1ee)" d="M 691.484019 37.214783 
L 698.336519 37.214783 
L 698.336519 56.498261 
L 691.484019 56.498261 
z
" style="fill:#2b908f;"/>
   </g>
   <g id="patch_131">
    <path clip-path="url(#p5899bcb1ee)" d="M 603.860821 61.31913 
L 614.608798 61.31913 
L 614.608798 80.602609 
L 603.860821 80.602609 
z
" style="fill:#2b908f;"/>
   </g>
   <g id="patch_132">
    <path clip-path="url(#p5899bcb1ee)" d="M 684.509232 85.423478 
L 693.566652 85.423478 
L 693.566652 104.706957 
L 684.509232 104.706957 
z
" style="fill:#2b908f;"/>
   </g>
   <g id="patch_133">
    <path clip-path="url(#p5899bcb1ee)" d="M 644.557631 109.527826 
L 655.466354 109.527826 
L 655.466354 128.811304 
L 644.557631 128.811304 
z
" style="fill:#2b908f;"/>
   </g>
   <g id="patch_134">
    <path clip-path="url(#p5899bcb1ee)" d="M 552.655696 133.632174 
L 568.563649 133.632174 
L 568.563649 152.915652 
L 552.655696 152.915652 
z
" style="fill:#2b908f;"/>
   </g>
   <g id="patch_135">
    <path clip-path="url(#p5899bcb1ee)" d="M 602.217464 157.736522 
L 614.480376 157.736522 
L 614.480376 177.02 
L 602.217464 177.02 
z
" style="fill:#2b908f;"/>
   </g>
   <g id="patch_136">
    <path clip-path="url(#p5899bcb1ee)" d="M 636.63203 181.84087 
L 648.112391 181.84087 
L 648.112391 201.124348 
L 636.63203 201.124348 
z
" style="fill:#2b908f;"/>
   </g>
   <g id="patch_137">
    <path clip-path="url(#p5899bcb1ee)" d="M 666.885734 205.945217 
L 681.72748 205.945217 
L 681.72748 225.228696 
L 666.885734 225.228696 
z
" style="fill:#2b908f;"/>
   </g>
   <g id="patch_138">
    <path clip-path="url(#p5899bcb1ee)" d="M 555.107262 230.049565 
L 562.998771 230.049565 
L 562.998771 249.333043 
L 555.107262 249.333043 
z
" style="fill:#2b908f;"/>
   </g>
   <g id="patch_139">
    <path clip-path="url(#p5899bcb1ee)" d="M 730.437964 254.153913 
L 738.14559 254.153913 
L 738.14559 273.437391 
L 730.437964 273.437391 
z
" style="fill:#2b908f;"/>
   </g>
   <g id="patch_140">
    <path clip-path="url(#p5899bcb1ee)" d="M 547.899839 278.258261 
L 556.339781 278.258261 
L 556.339781 297.541739 
L 547.899839 297.541739 
z
" style="fill:#2b908f;"/>
   </g>
   <g id="patch_141">
    <path clip-path="url(#p5899bcb1ee)" d="M 606.944741 302.362609 
L 619.92192 302.362609 
L 619.92192 321.646087 
L 606.944741 321.646087 
z
" style="fill:#2b908f;"/>
   </g>
   <g id="patch_142">
    <path clip-path="url(#p5899bcb1ee)" d="M 631.78927 326.466957 
L 643.820988 326.466957 
L 643.820988 345.750435 
L 631.78927 345.750435 
z
" style="fill:#2b908f;"/>
   </g>
   <g id="patch_143">
    <path clip-path="url(#p5899bcb1ee)" d="M 562.713035 350.571304 
L 574.369753 350.571304 
L 574.369753 369.854783 
L 562.713035 369.854783 
z
" style="fill:#2b908f;"/>
   </g>
   <g id="patch_144">
    <path clip-path="url(#p5899bcb1ee)" d="M 529.382496 374.675652 
L 539.832338 374.675652 
L 539.832338 393.95913 
L 529.382496 393.95913 
z
" style="fill:#2b908f;"/>
   </g>
   <g id="patch_145">
    <path clip-path="url(#p5899bcb1ee)" d="M 572.743305 398.78 
L 582.165383 398.78 
L 582.165383 418.063478 
L 572.743305 418.063478 
z
" style="fill:#2b908f;"/>
   </g>
   <g id="patch_146">
    <path clip-path="url(#p5899bcb1ee)" d="M 617.380383 422.884348 
L 627.623532 422.884348 
L 627.623532 442.167826 
L 617.380383 442.167826 
z
" style="fill:#2b908f;"/>
   </g>
   <g id="patch_147">
    <path clip-path="url(#p5899bcb1ee)" d="M 619.066801 13.110435 
L 641.774156 13.110435 
L 641.774156 32.393913 
L 619.066801 32.393913 
z
" style="fill:#f45b5b;"/>
   </g>
   <g id="patch_148">
    <path clip-path="url(#p5899bcb1ee)" d="M 698.336519 37.214783 
L 710.189974 37.214783 
L 710.189974 56.498261 
L 698.336519 56.498261 
z
" style="fill:#f45b5b;"/>
   </g>
   <g id="patch_149">
    <path clip-path="url(#p5899bcb1ee)" d="M 614.608798 61.31913 
L 630.716214 61.31913 
L 630.716214 80.602609 
L 614.608798 80.602609 
z
" style="fill:#f45b5b;"/>
   </g>
   <g id="patch_150">
    <path clip-path="url(#p5899bcb1ee)" d="M 693.566652 85.423478 
L 707.980946 85.423478 
L 707.980946 104.706957 
L 693.566652 104.706957 
z
" style="fill:#f45b5b;"/>
   </g>
   <g id="patch_151">
    <path clip-path="url(#p5899bcb1ee)" d="M 655.466354 109.527826 
L 671.96653 109.527826 
L 671.96653 128.811304 
L 655.466354 128.811304 
z
" style="fill:#f45b5b;"/>
   </g>
   <g id="patch_152">
    <path clip-path="url(#p5899bcb1ee)" d="M 568.563649 133.632174 
L 595.024733 133.632174 
L 595.024733 152.915652 
L 568.563649 152.915652 
z
" style="fill:#f45b5b;"/>
   </g>
   <g id="patch_153">
    <path clip-path="url(#p5899bcb1ee)" d="M 614.480376 157.736522 
L 633.752137 157.736522 
L 633.752137 177.02 
L 614.480376 177.02 
z
" style="fill:#f45b5b;"/>
   </g>
   <g id="patch_154">
    <path clip-path="url(#p5899bcb1ee)" d="M 648.112391 181.84087 
L 665.766823 181.84087 
L 665.766823 201.124348 
L 648.112391 201.124348 
z
" style="fill:#f45b5b;"/>
   </g>
   <g id="patch_155">
    <path clip-path="url(#p5899bcb1ee)" d="M 681.72748 205.945217 
L 704.224301 205.945217 
L 704.224301 225.228696 
L 681.72748 225.228696 
z
" style="fill:#f45b5b;"/>
   </g>
   <g id="patch_156">
    <path clip-path="url(#p5899bcb1ee)" d="M 562.998771 230.049565 
L 575.753487 230.049565 
L 575.753487 249.333043 
L 562.998771 249.333043 
z
" style="fill:#f45b5b;"/>
   </g>
   <g id="patch_157">
    <path clip-path="url(#p5899bcb1ee)" d="M 738.14559 254.153913 
L 750.29229 254.153913 
L 750.29229 273.437391 
L 738.14559 273.437391 
z
" style="fill:#f45b5b;"/>
   </g>
   <g id="patch_158">
    <path clip-path="url(#p5899bcb1ee)" d="M 556.339781 278.258261 
L 569.097087 278.258261 
L 569.097087 297.541739 
L 556.339781 297.541739 
z
" style="fill:#f45b5b;"/>
   </g>
   <g id="patch_159">
    <path clip-path="url(#p5899bcb1ee)" d="M 619.92192 302.362609 
L 640.520035 302.362609 
L 640.520035 321.646087 
L 619.92192 321.646087 
z
" style="fill:#f45b5b;"/>
   </g>
   <g id="patch_160">
    <path clip-path="url(#p5899bcb1ee)" d="M 643.820988 326.466957 
L 662.781751 326.466957 
L 662.781751 345.750435 
L 643.820988 345.750435 
z
" style="fill:#f45b5b;"/>
   </g>
   <g id="patch_161">
    <path clip-path="url(#p5899bcb1ee)" d="M 574.369753 350.571304 
L 594.059066 350.571304 
L 594.059066 369.854783 
L 574.369753 369.854783 
z
" style="fill:#f45b5b;"/>
   </g>
   <g id="patch_162">
    <path clip-path="url(#p5899bcb1ee)" d="M 539.832338 374.675652 
L 556.873082 374.675652 
L 556.873082 393.95913 
L 539.832338 393.95913 
z
" style="fill:#f45b5b;"/>
   </g>
   <g id="patch_163">
    <path clip-path="url(#p5899bcb1ee)" d="M 582.165383 398.78 
L 597.481569 398.78 
L 597.481569 418.063478 
L 582.165383 418.063478 
z
" style="fill:#f45b5b;"/>
   </g>
   <g id="patch_164">
    <path clip-path="url(#p5899bcb1ee)" d="M 627.623532 422.884348 
L 643.177276 422.884348 
L 643.177276 442.167826 
L 627.623532 442.167826 
z
" style="fill:#f45b5b;"/>
   </g>
   <g id="patch_165">
    <path clip-path="url(#p5899bcb1ee)" d="M 641.774156 13.110435 
L 668.667392 13.110435 
L 668.667392 32.393913 
L 641.774156 32.393913 
z
" style="fill:#91e8e1;"/>
   </g>
   <g id="patch_166">
    <path clip-path="url(#p5899bcb1ee)" d="M 710.189974 37.214783 
L 724.594434 37.214783 
L 724.594434 56.498261 
L 710.189974 56.498261 
z
" style="fill:#91e8e1;"/>
   </g>
   <g id="patch_167">
    <path clip-path="url(#p5899bcb1ee)" d="M 630.716214 61.31913 
L 649.296435 61.31913 
L 649.296435 80.602609 
L 630.716214 80.602609 
z
" style="fill:#91e8e1;"/>
   </g>
   <g id="patch_168">
    <path clip-path="url(#p5899bcb1ee)" d="M 707.980946 85.423478 
L 724.685946 85.423478 
L 724.685946 104.706957 
L 707.980946 104.706957 
z
" style="fill:#91e8e1;"/>
   </g>
   <g id="patch_169">
    <path clip-path="url(#p5899bcb1ee)" d="M 671.96653 109.527826 
L 690.957992 109.527826 
L 690.957992 128.811304 
L 671.96653 128.811304 
z
" style="fill:#91e8e1;"/>
   </g>
   <g id="patch_170">
    <path clip-path="url(#p5899bcb1ee)" d="M 595.024733 133.632174 
L 626.081406 133.632174 
L 626.081406 152.915652 
L 595.024733 152.915652 
z
" style="fill:#91e8e1;"/>
   </g>
   <g id="patch_171">
    <path clip-path="url(#p5899bcb1ee)" d="M 633.752137 157.736522 
L 656.36309 157.736522 
L 656.36309 177.02 
L 633.752137 177.02 
z
" style="fill:#91e8e1;"/>
   </g>
   <g id="patch_172">
    <path clip-path="url(#p5899bcb1ee)" d="M 665.766823 181.84087 
L 686.27862 181.84087 
L 686.27862 201.124348 
L 665.766823 201.124348 
z
" style="fill:#91e8e1;"/>
   </g>
   <g id="patch_173">
    <path clip-path="url(#p5899bcb1ee)" d="M 704.224301 205.945217 
L 730.211348 205.945217 
L 730.211348 225.228696 
L 704.224301 225.228696 
z
" style="fill:#91e8e1;"/>
   </g>
   <g id="patch_174">
    <path clip-path="url(#p5899bcb1ee)" d="M 575.753487 230.049565 
L 590.874402 230.049565 
L 590.874402 249.333043 
L 575.753487 249.333043 
z
" style="fill:#91e8e1;"/>
   </g>
   <g id="patch_175">
    <path clip-path="url(#p5899bcb1ee)" d="M 750.29229 254.153913 
L 764.403703 254.153913 
L 764.403703 273.437391 
L 750.29229 273.437391 
z
" style="fill:#91e8e1;"/>
   </g>
   <g id="patch_176">
    <path clip-path="url(#p5899bcb1ee)" d="M 569.097087 278.258261 
L 583.743433 278.258261 
L 583.743433 297.541739 
L 569.097087 297.541739 
z
" style="fill:#91e8e1;"/>
   </g>
   <g id="patch_177">
    <path clip-path="url(#p5899bcb1ee)" d="M 640.520035 302.362609 
L 664.781643 302.362609 
L 664.781643 321.646087 
L 640.520035 321.646087 
z
" style="fill:#91e8e1;"/>
   </g>
   <g id="patch_178">
    <path clip-path="url(#p5899bcb1ee)" d="M 662.781751 326.466957 
L 685.090446 326.466957 
L 685.090446 345.750435 
L 662.781751 345.750435 
z
" style="fill:#91e8e1;"/>
   </g>
   <g id="patch_179">
    <path clip-path="url(#p5899bcb1ee)" d="M 594.059066 350.571304 
L 617.28676 350.571304 
L 617.28676 369.854783 
L 594.059066 369.854783 
z
" style="fill:#91e8e1;"/>
   </g>
   <g id="patch_180">
    <path clip-path="url(#p5899bcb1ee)" d="M 556.873082 374.675652 
L 576.852527 374.675652 
L 576.852527 393.95913 
L 556.873082 393.95913 
z
" style="fill:#91e8e1;"/>
   </g>
   <g id="patch_181">
    <path clip-path="url(#p5899bcb1ee)" d="M 597.481569 398.78 
L 615.540425 398.78 
L 615.540425 418.063478 
L 597.481569 418.063478 
z
" style="fill:#91e8e1;"/>
   </g>
   <g id="patch_182">
    <path clip-path="url(#p5899bcb1ee)" d="M 643.177276 422.884348 
L 661.021543 422.884348 
L 661.021543 442.167826 
L 643.177276 442.167826 
z
" style="fill:#91e8e1;"/>
   </g>
   <g id="patch_183">
    <path clip-path="url(#p5899bcb1ee)" d="M 668.667392 13.110435 
L 753.7007 13.110435 
L 753.7007 32.393913 
L 668.667392 32.393913 
z
" style="fill:#7cb5ec;"/>
   </g>
   <g id="patch_184">
    <path clip-path="url(#p5899bcb1ee)" d="M 724.594434 37.214783 
L 781.2178 37.214783 
L 781.2178 56.498261 
L 724.594434 56.498261 
z
" style="fill:#7cb5ec;"/>
   </g>
   <g id="patch_185">
    <path clip-path="url(#p5899bcb1ee)" d="M 649.296435 61.31913 
L 694.733042 61.31913 
L 694.733042 80.602609 
L 649.296435 80.602609 
z
" style="fill:#7cb5ec;"/>
   </g>
   <g id="patch_186">
    <path clip-path="url(#p5899bcb1ee)" d="M 724.685946 85.423478 
L 771.021416 85.423478 
L 771.021416 104.706957 
L 724.685946 104.706957 
z
" style="fill:#7cb5ec;"/>
   </g>
   <g id="patch_187">
    <path clip-path="url(#p5899bcb1ee)" d="M 690.957992 109.527826 
L 735.792855 109.527826 
L 735.792855 128.811304 
L 690.957992 128.811304 
z
" style="fill:#7cb5ec;"/>
   </g>
   <g id="patch_188">
    <path clip-path="url(#p5899bcb1ee)" d="M 626.081406 133.632174 
L 715.193206 133.632174 
L 715.193206 152.915652 
L 626.081406 152.915652 
z
" style="fill:#7cb5ec;"/>
   </g>
   <g id="patch_189">
    <path clip-path="url(#p5899bcb1ee)" d="M 656.36309 157.736522 
L 725.575302 157.736522 
L 725.575302 177.02 
L 656.36309 177.02 
z
" style="fill:#7cb5ec;"/>
   </g>
   <g id="patch_190">
    <path clip-path="url(#p5899bcb1ee)" d="M 686.27862 181.84087 
L 739.629531 181.84087 
L 739.629531 201.124348 
L 686.27862 201.124348 
z
" style="fill:#7cb5ec;"/>
   </g>
   <g id="patch_191">
    <path clip-path="url(#p5899bcb1ee)" d="M 730.211348 205.945217 
L 804.076121 205.945217 
L 804.076121 225.228696 
L 730.211348 225.228696 
z
" style="fill:#7cb5ec;"/>
   </g>
   <g id="patch_192">
    <path clip-path="url(#p5899bcb1ee)" d="M 590.874402 230.049565 
L 643.511318 230.049565 
L 643.511318 249.333043 
L 590.874402 249.333043 
z
" style="fill:#7cb5ec;"/>
   </g>
   <g id="patch_193">
    <path clip-path="url(#p5899bcb1ee)" d="M 764.403703 254.153913 
L 810.02625 254.153913 
L 810.02625 273.437391 
L 764.403703 273.437391 
z
" style="fill:#7cb5ec;"/>
   </g>
   <g id="patch_194">
    <path clip-path="url(#p5899bcb1ee)" d="M 583.743433 278.258261 
L 626.580021 278.258261 
L 626.580021 297.541739 
L 583.743433 297.541739 
z
" style="fill:#7cb5ec;"/>
   </g>
   <g id="patch_195">
    <path clip-path="url(#p5899bcb1ee)" d="M 664.781643 302.362609 
L 741.843441 302.362609 
L 741.843441 321.646087 
L 664.781643 321.646087 
z
" style="fill:#7cb5ec;"/>
   </g>
   <g id="patch_196">
    <path clip-path="url(#p5899bcb1ee)" d="M 685.090446 326.466957 
L 752.725625 326.466957 
L 752.725625 345.750435 
L 685.090446 345.750435 
z
" style="fill:#7cb5ec;"/>
   </g>
   <g id="patch_197">
    <path clip-path="url(#p5899bcb1ee)" d="M 617.28676 350.571304 
L 696.354023 350.571304 
L 696.354023 369.854783 
L 617.28676 369.854783 
z
" style="fill:#7cb5ec;"/>
   </g>
   <g id="patch_198">
    <path clip-path="url(#p5899bcb1ee)" d="M 576.852527 374.675652 
L 638.940361 374.675652 
L 638.940361 393.95913 
L 576.852527 393.95913 
z
" style="fill:#7cb5ec;"/>
   </g>
   <g id="patch_199">
    <path clip-path="url(#p5899bcb1ee)" d="M 615.540425 398.78 
L 677.096605 398.78 
L 677.096605 418.063478 
L 615.540425 418.063478 
z
" style="fill:#7cb5ec;"/>
   </g>
   <g id="patch_200">
    <path clip-path="url(#p5899bcb1ee)" d="M 661.021543 422.884348 
L 707.829023 422.884348 
L 707.829023 442.167826 
L 661.021543 442.167826 
z
" style="fill:#7cb5ec;"/>
   </g>
   <g id="text_27">
    <!-- RSeQC: Read Distribution -->
    <defs>
     <path d="M 39.40625 66.21875 
Q 28.65625 66.21875 22.328125 58.203125 
Q 16.015625 50.203125 16.015625 36.375 
Q 16.015625 22.609375 22.328125 14.59375 
Q 28.65625 6.59375 39.40625 6.59375 
Q 50.140625 6.59375 56.421875 14.59375 
Q 62.703125 22.609375 62.703125 36.375 
Q 62.703125 50.203125 56.421875 58.203125 
Q 50.140625 66.21875 39.40625 66.21875 
z
M 53.21875 1.3125 
L 66.21875 -12.890625 
L 54.296875 -12.890625 
L 43.5 -1.21875 
Q 41.890625 -1.3125 41.03125 -1.359375 
Q 40.1875 -1.421875 39.40625 -1.421875 
Q 24.03125 -1.421875 14.8125 8.859375 
Q 5.609375 19.140625 5.609375 36.375 
Q 5.609375 53.65625 14.8125 63.9375 
Q 24.03125 74.21875 39.40625 74.21875 
Q 54.734375 74.21875 63.90625 63.9375 
Q 73.09375 53.65625 73.09375 36.375 
Q 73.09375 23.6875 67.984375 14.640625 
Q 62.890625 5.609375 53.21875 1.3125 
z
" id="DejaVuSans-81"/>
     <path d="M 64.40625 67.28125 
L 64.40625 56.890625 
Q 59.421875 61.53125 53.78125 63.8125 
Q 48.140625 66.109375 41.796875 66.109375 
Q 29.296875 66.109375 22.65625 58.46875 
Q 16.015625 50.828125 16.015625 36.375 
Q 16.015625 21.96875 22.65625 14.328125 
Q 29.296875 6.6875 41.796875 6.6875 
Q 48.140625 6.6875 53.78125 8.984375 
Q 59.421875 11.28125 64.40625 15.921875 
L 64.40625 5.609375 
Q 59.234375 2.09375 53.4375 0.328125 
Q 47.65625 -1.421875 41.21875 -1.421875 
Q 24.65625 -1.421875 15.125 8.703125 
Q 5.609375 18.84375 5.609375 36.375 
Q 5.609375 53.953125 15.125 64.078125 
Q 24.65625 74.21875 41.21875 74.21875 
Q 47.75 74.21875 53.53125 72.484375 
Q 59.328125 70.75 64.40625 67.28125 
z
" id="DejaVuSans-67"/>
     <path d="M 11.71875 12.40625 
L 22.015625 12.40625 
L 22.015625 0 
L 11.71875 0 
z
M 11.71875 51.703125 
L 22.015625 51.703125 
L 22.015625 39.3125 
L 11.71875 39.3125 
z
" id="DejaVuSans-58"/>
     <path d="M 45.40625 46.390625 
L 45.40625 75.984375 
L 54.390625 75.984375 
L 54.390625 0 
L 45.40625 0 
L 45.40625 8.203125 
Q 42.578125 3.328125 38.25 0.953125 
Q 33.9375 -1.421875 27.875 -1.421875 
Q 17.96875 -1.421875 11.734375 6.484375 
Q 5.515625 14.40625 5.515625 27.296875 
Q 5.515625 40.1875 11.734375 48.09375 
Q 17.96875 56 27.875 56 
Q 33.9375 56 38.25 53.625 
Q 42.578125 51.265625 45.40625 46.390625 
z
M 14.796875 27.296875 
Q 14.796875 17.390625 18.875 11.75 
Q 22.953125 6.109375 30.078125 6.109375 
Q 37.203125 6.109375 41.296875 11.75 
Q 45.40625 17.390625 45.40625 27.296875 
Q 45.40625 37.203125 41.296875 42.84375 
Q 37.203125 48.484375 30.078125 48.484375 
Q 22.953125 48.484375 18.875 42.84375 
Q 14.796875 37.203125 14.796875 27.296875 
z
" id="DejaVuSans-100"/>
     <path d="M 19.671875 64.796875 
L 19.671875 8.109375 
L 31.59375 8.109375 
Q 46.6875 8.109375 53.6875 14.9375 
Q 60.6875 21.78125 60.6875 36.53125 
Q 60.6875 51.171875 53.6875 57.984375 
Q 46.6875 64.796875 31.59375 64.796875 
z
M 9.8125 72.90625 
L 30.078125 72.90625 
Q 51.265625 72.90625 61.171875 64.09375 
Q 71.09375 55.28125 71.09375 36.53125 
Q 71.09375 17.671875 61.125 8.828125 
Q 51.171875 0 30.078125 0 
L 9.8125 0 
z
" id="DejaVuSans-68"/>
     <path d="M 9.421875 54.6875 
L 18.40625 54.6875 
L 18.40625 0 
L 9.421875 0 
z
M 9.421875 75.984375 
L 18.40625 75.984375 
L 18.40625 64.59375 
L 9.421875 64.59375 
z
" id="DejaVuSans-105"/>
     <path d="M 18.3125 70.21875 
L 18.3125 54.6875 
L 36.8125 54.6875 
L 36.8125 47.703125 
L 18.3125 47.703125 
L 18.3125 18.015625 
Q 18.3125 11.328125 20.140625 9.421875 
Q 21.96875 7.515625 27.59375 7.515625 
L 36.8125 7.515625 
L 36.8125 0 
L 27.59375 0 
Q 17.1875 0 13.234375 3.875 
Q 9.28125 7.765625 9.28125 18.015625 
L 9.28125 47.703125 
L 2.6875 47.703125 
L 2.6875 54.6875 
L 9.28125 54.6875 
L 9.28125 70.21875 
z
" id="DejaVuSans-116"/>
     <path d="M 41.109375 46.296875 
Q 39.59375 47.171875 37.8125 47.578125 
Q 36.03125 48 33.890625 48 
Q 26.265625 48 22.1875 43.046875 
Q 18.109375 38.09375 18.109375 28.8125 
L 18.109375 0 
L 9.078125 0 
L 9.078125 54.6875 
L 18.109375 54.6875 
L 18.109375 46.1875 
Q 20.953125 51.171875 25.484375 53.578125 
Q 30.03125 56 36.53125 56 
Q 37.453125 56 38.578125 55.875 
Q 39.703125 55.765625 41.0625 55.515625 
z
" id="DejaVuSans-114"/>
     <path d="M 48.6875 27.296875 
Q 48.6875 37.203125 44.609375 42.84375 
Q 40.53125 48.484375 33.40625 48.484375 
Q 26.265625 48.484375 22.1875 42.84375 
Q 18.109375 37.203125 18.109375 27.296875 
Q 18.109375 17.390625 22.1875 11.75 
Q 26.265625 6.109375 33.40625 6.109375 
Q 40.53125 6.109375 44.609375 11.75 
Q 48.6875 17.390625 48.6875 27.296875 
z
M 18.109375 46.390625 
Q 20.953125 51.265625 25.265625 53.625 
Q 29.59375 56 35.59375 56 
Q 45.5625 56 51.78125 48.09375 
Q 58.015625 40.1875 58.015625 27.296875 
Q 58.015625 14.40625 51.78125 6.484375 
Q 45.5625 -1.421875 35.59375 -1.421875 
Q 29.59375 -1.421875 25.265625 0.953125 
Q 20.953125 3.328125 18.109375 8.203125 
L 18.109375 0 
L 9.078125 0 
L 9.078125 75.984375 
L 18.109375 75.984375 
z
" id="DejaVuSans-98"/>
     <path d="M 8.5 21.578125 
L 8.5 54.6875 
L 17.484375 54.6875 
L 17.484375 21.921875 
Q 17.484375 14.15625 20.5 10.265625 
Q 23.53125 6.390625 29.59375 6.390625 
Q 36.859375 6.390625 41.078125 11.03125 
Q 45.3125 15.671875 45.3125 23.6875 
L 45.3125 54.6875 
L 54.296875 54.6875 
L 54.296875 0 
L 45.3125 0 
L 45.3125 8.40625 
Q 42.046875 3.421875 37.71875 1 
Q 33.40625 -1.421875 27.6875 -1.421875 
Q 18.265625 -1.421875 13.375 4.4375 
Q 8.5 10.296875 8.5 21.578125 
z
M 31.109375 56 
z
" id="DejaVuSans-117"/>
     <path d="M 30.609375 48.390625 
Q 23.390625 48.390625 19.1875 42.75 
Q 14.984375 37.109375 14.984375 27.296875 
Q 14.984375 17.484375 19.15625 11.84375 
Q 23.34375 6.203125 30.609375 6.203125 
Q 37.796875 6.203125 41.984375 11.859375 
Q 46.1875 17.53125 46.1875 27.296875 
Q 46.1875 37.015625 41.984375 42.703125 
Q 37.796875 48.390625 30.609375 48.390625 
z
M 30.609375 56 
Q 42.328125 56 49.015625 48.375 
Q 55.71875 40.765625 55.71875 27.296875 
Q 55.71875 13.875 49.015625 6.21875 
Q 42.328125 -1.421875 30.609375 -1.421875 
Q 18.84375 -1.421875 12.171875 6.21875 
Q 5.515625 13.875 5.515625 27.296875 
Q 5.515625 40.765625 12.171875 48.375 
Q 18.84375 56 30.609375 56 
z
" id="DejaVuSans-111"/>
     <path d="M 54.890625 33.015625 
L 54.890625 0 
L 45.90625 0 
L 45.90625 32.71875 
Q 45.90625 40.484375 42.875 44.328125 
Q 39.84375 48.1875 33.796875 48.1875 
Q 26.515625 48.1875 22.3125 43.546875 
Q 18.109375 38.921875 18.109375 30.90625 
L 18.109375 0 
L 9.078125 0 
L 9.078125 54.6875 
L 18.109375 54.6875 
L 18.109375 46.1875 
Q 21.34375 51.125 25.703125 53.5625 
Q 30.078125 56 35.796875 56 
Q 45.21875 56 50.046875 50.171875 
Q 54.890625 44.34375 54.890625 33.015625 
z
" id="DejaVuSans-110"/>
    </defs>
    <g transform="translate(354.275 -17.02)scale(0.16 -0.16)">
     <use xlink:href="#DejaVuSans-82"/>
     <use x="69.482422" xlink:href="#DejaVuSans-83"/>
     <use x="132.958984" xlink:href="#DejaVuSans-101"/>
     <use x="194.482422" xlink:href="#DejaVuSans-81"/>
     <use x="273.193359" xlink:href="#DejaVuSans-67"/>
     <use x="343.017578" xlink:href="#DejaVuSans-58"/>
     <use x="376.708984" xlink:href="#DejaVuSans-32"/>
     <use x="408.496094" xlink:href="#DejaVuSans-82"/>
     <use x="477.916016" xlink:href="#DejaVuSans-101"/>
     <use x="539.439453" xlink:href="#DejaVuSans-97"/>
     <use x="600.71875" xlink:href="#DejaVuSans-100"/>
     <use x="664.195312" xlink:href="#DejaVuSans-32"/>
     <use x="695.982422" xlink:href="#DejaVuSans-68"/>
     <use x="772.984375" xlink:href="#DejaVuSans-105"/>
     <use x="800.767578" xlink:href="#DejaVuSans-115"/>
     <use x="852.867188" xlink:href="#DejaVuSans-116"/>
     <use x="892.076172" xlink:href="#DejaVuSans-114"/>
     <use x="933.189453" xlink:href="#DejaVuSans-105"/>
     <use x="960.972656" xlink:href="#DejaVuSans-98"/>
     <use x="1024.449219" xlink:href="#DejaVuSans-117"/>
     <use x="1087.828125" xlink:href="#DejaVuSans-116"/>
     <use x="1127.037109" xlink:href="#DejaVuSans-105"/>
     <use x="1154.820312" xlink:href="#DejaVuSans-111"/>
     <use x="1216.001953" xlink:href="#DejaVuSans-110"/>
    </g>
   </g>
   <g id="legend_1">
    <g id="patch_201">
     <path d="M 73.22625 494.722011 
L 89.22625 494.722011 
L 89.22625 489.122011 
L 73.22625 489.122011 
z
" style="fill:#7cb5ec;"/>
    </g>
    <g id="text_28">
     <!-- CDS_Exons -->
     <defs>
      <path d="M 50.984375 -16.609375 
L 50.984375 -23.578125 
L -0.984375 -23.578125 
L -0.984375 -16.609375 
z
" id="DejaVuSans-95"/>
      <path d="M 9.8125 72.90625 
L 55.90625 72.90625 
L 55.90625 64.59375 
L 19.671875 64.59375 
L 19.671875 43.015625 
L 54.390625 43.015625 
L 54.390625 34.71875 
L 19.671875 34.71875 
L 19.671875 8.296875 
L 56.78125 8.296875 
L 56.78125 0 
L 9.8125 0 
z
" id="DejaVuSans-69"/>
      <path d="M 54.890625 54.6875 
L 35.109375 28.078125 
L 55.90625 0 
L 45.3125 0 
L 29.390625 21.484375 
L 13.484375 0 
L 2.875 0 
L 24.125 28.609375 
L 4.6875 54.6875 
L 15.28125 54.6875 
L 29.78125 35.203125 
L 44.28125 54.6875 
z
" id="DejaVuSans-120"/>
     </defs>
     <g transform="translate(95.62625 494.722011)scale(0.08 -0.08)">
      <use xlink:href="#DejaVuSans-67"/>
      <use x="69.824219" xlink:href="#DejaVuSans-68"/>
      <use x="146.826172" xlink:href="#DejaVuSans-83"/>
      <use x="210.302734" xlink:href="#DejaVuSans-95"/>
      <use x="260.302734" xlink:href="#DejaVuSans-69"/>
      <use x="323.486328" xlink:href="#DejaVuSans-120"/>
      <use x="382.619141" xlink:href="#DejaVuSans-111"/>
      <use x="443.800781" xlink:href="#DejaVuSans-110"/>
      <use x="507.179688" xlink:href="#DejaVuSans-115"/>
     </g>
    </g>
    <g id="patch_202">
     <path d="M 73.22625 506.687011 
L 89.22625 506.687011 
L 89.22625 501.087011 
L 73.22625 501.087011 
z
" style="fill:#434348;"/>
    </g>
    <g id="text_29">
     <!-- 5'UTR_Exons -->
     <defs>
      <path d="M 17.921875 72.90625 
L 17.921875 45.796875 
L 9.625 45.796875 
L 9.625 72.90625 
z
" id="DejaVuSans-39"/>
      <path d="M 8.6875 72.90625 
L 18.609375 72.90625 
L 18.609375 28.609375 
Q 18.609375 16.890625 22.84375 11.734375 
Q 27.09375 6.59375 36.625 6.59375 
Q 46.09375 6.59375 50.34375 11.734375 
Q 54.59375 16.890625 54.59375 28.609375 
L 54.59375 72.90625 
L 64.5 72.90625 
L 64.5 27.390625 
Q 64.5 13.140625 57.4375 5.859375 
Q 50.390625 -1.421875 36.625 -1.421875 
Q 22.796875 -1.421875 15.734375 5.859375 
Q 8.6875 13.140625 8.6875 27.390625 
z
" id="DejaVuSans-85"/>
     </defs>
     <g transform="translate(95.62625 506.687011)scale(0.08 -0.08)">
      <use xlink:href="#DejaVuSans-53"/>
      <use x="63.623047" xlink:href="#DejaVuSans-39"/>
      <use x="91.113281" xlink:href="#DejaVuSans-85"/>
      <use x="164.306641" xlink:href="#DejaVuSans-84"/>
      <use x="225.390625" xlink:href="#DejaVuSans-82"/>
      <use x="294.873047" xlink:href="#DejaVuSans-95"/>
      <use x="344.873047" xlink:href="#DejaVuSans-69"/>
      <use x="408.056641" xlink:href="#DejaVuSans-120"/>
      <use x="467.189453" xlink:href="#DejaVuSans-111"/>
      <use x="528.371094" xlink:href="#DejaVuSans-110"/>
      <use x="591.75" xlink:href="#DejaVuSans-115"/>
     </g>
    </g>
    <g id="patch_203">
     <path d="M 73.22625 518.652011 
L 89.22625 518.652011 
L 89.22625 513.052011 
L 73.22625 513.052011 
z
" style="fill:#90ed7d;"/>
    </g>
    <g id="text_30">
     <!-- 3'UTR_Exons -->
     <g transform="translate(95.62625 518.652011)scale(0.08 -0.08)">
      <use xlink:href="#DejaVuSans-51"/>
      <use x="63.623047" xlink:href="#DejaVuSans-39"/>
      <use x="91.113281" xlink:href="#DejaVuSans-85"/>
      <use x="164.306641" xlink:href="#DejaVuSans-84"/>
      <use x="225.390625" xlink:href="#DejaVuSans-82"/>
      <use x="294.873047" xlink:href="#DejaVuSans-95"/>
      <use x="344.873047" xlink:href="#DejaVuSans-69"/>
      <use x="408.056641" xlink:href="#DejaVuSans-120"/>
      <use x="467.189453" xlink:href="#DejaVuSans-111"/>
      <use x="528.371094" xlink:href="#DejaVuSans-110"/>
      <use x="591.75" xlink:href="#DejaVuSans-115"/>
     </g>
    </g>
    <g id="patch_204">
     <path d="M 241.074063 494.722011 
L 257.074063 494.722011 
L 257.074063 489.122011 
L 241.074063 489.122011 
z
" style="fill:#f7a35c;"/>
    </g>
    <g id="text_31">
     <!-- Introns -->
     <defs>
      <path d="M 9.8125 72.90625 
L 19.671875 72.90625 
L 19.671875 0 
L 9.8125 0 
z
" id="DejaVuSans-73"/>
     </defs>
     <g transform="translate(263.474063 494.722011)scale(0.08 -0.08)">
      <use xlink:href="#DejaVuSans-73"/>
      <use x="29.492188" xlink:href="#DejaVuSans-110"/>
      <use x="92.871094" xlink:href="#DejaVuSans-116"/>
      <use x="132.080078" xlink:href="#DejaVuSans-114"/>
      <use x="173.162109" xlink:href="#DejaVuSans-111"/>
      <use x="234.34375" xlink:href="#DejaVuSans-110"/>
      <use x="297.722656" xlink:href="#DejaVuSans-115"/>
     </g>
    </g>
    <g id="patch_205">
     <path d="M 241.074063 506.464511 
L 257.074063 506.464511 
L 257.074063 500.864511 
L 241.074063 500.864511 
z
" style="fill:#8085e9;"/>
    </g>
    <g id="text_32">
     <!-- TSS_up_1kb -->
     <defs>
      <path d="M 18.109375 8.203125 
L 18.109375 -20.796875 
L 9.078125 -20.796875 
L 9.078125 54.6875 
L 18.109375 54.6875 
L 18.109375 46.390625 
Q 20.953125 51.265625 25.265625 53.625 
Q 29.59375 56 35.59375 56 
Q 45.5625 56 51.78125 48.09375 
Q 58.015625 40.1875 58.015625 27.296875 
Q 58.015625 14.40625 51.78125 6.484375 
Q 45.5625 -1.421875 35.59375 -1.421875 
Q 29.59375 -1.421875 25.265625 0.953125 
Q 20.953125 3.328125 18.109375 8.203125 
z
M 48.6875 27.296875 
Q 48.6875 37.203125 44.609375 42.84375 
Q 40.53125 48.484375 33.40625 48.484375 
Q 26.265625 48.484375 22.1875 42.84375 
Q 18.109375 37.203125 18.109375 27.296875 
Q 18.109375 17.390625 22.1875 11.75 
Q 26.265625 6.109375 33.40625 6.109375 
Q 40.53125 6.109375 44.609375 11.75 
Q 48.6875 17.390625 48.6875 27.296875 
z
" id="DejaVuSans-112"/>
      <path d="M 9.078125 75.984375 
L 18.109375 75.984375 
L 18.109375 31.109375 
L 44.921875 54.6875 
L 56.390625 54.6875 
L 27.390625 29.109375 
L 57.625 0 
L 45.90625 0 
L 18.109375 26.703125 
L 18.109375 0 
L 9.078125 0 
z
" id="DejaVuSans-107"/>
     </defs>
     <g transform="translate(263.474063 506.464511)scale(0.08 -0.08)">
      <use xlink:href="#DejaVuSans-84"/>
      <use x="61.083984" xlink:href="#DejaVuSans-83"/>
      <use x="124.560547" xlink:href="#DejaVuSans-83"/>
      <use x="188.037109" xlink:href="#DejaVuSans-95"/>
      <use x="238.037109" xlink:href="#DejaVuSans-117"/>
      <use x="301.416016" xlink:href="#DejaVuSans-112"/>
      <use x="364.892578" xlink:href="#DejaVuSans-95"/>
      <use x="414.892578" xlink:href="#DejaVuSans-49"/>
      <use x="478.515625" xlink:href="#DejaVuSans-107"/>
      <use x="536.425781" xlink:href="#DejaVuSans-98"/>
     </g>
    </g>
    <g id="patch_206">
     <path d="M 405.408125 494.722011 
L 421.408125 494.722011 
L 421.408125 489.122011 
L 405.408125 489.122011 
z
" style="fill:#f15c80;"/>
    </g>
    <g id="text_33">
     <!-- TSS_up_5kb -->
     <g transform="translate(427.808125 494.722011)scale(0.08 -0.08)">
      <use xlink:href="#DejaVuSans-84"/>
      <use x="61.083984" xlink:href="#DejaVuSans-83"/>
      <use x="124.560547" xlink:href="#DejaVuSans-83"/>
      <use x="188.037109" xlink:href="#DejaVuSans-95"/>
      <use x="238.037109" xlink:href="#DejaVuSans-117"/>
      <use x="301.416016" xlink:href="#DejaVuSans-112"/>
      <use x="364.892578" xlink:href="#DejaVuSans-95"/>
      <use x="414.892578" xlink:href="#DejaVuSans-53"/>
      <use x="478.515625" xlink:href="#DejaVuSans-107"/>
      <use x="536.425781" xlink:href="#DejaVuSans-98"/>
     </g>
    </g>
    <g id="patch_207">
     <path d="M 405.408125 506.687011 
L 421.408125 506.687011 
L 421.408125 501.087011 
L 405.408125 501.087011 
z
" style="fill:#e4d354;"/>
    </g>
    <g id="text_34">
     <!-- TSS_up_10kb -->
     <g transform="translate(427.808125 506.687011)scale(0.08 -0.08)">
      <use xlink:href="#DejaVuSans-84"/>
      <use x="61.083984" xlink:href="#DejaVuSans-83"/>
      <use x="124.560547" xlink:href="#DejaVuSans-83"/>
      <use x="188.037109" xlink:href="#DejaVuSans-95"/>
      <use x="238.037109" xlink:href="#DejaVuSans-117"/>
      <use x="301.416016" xlink:href="#DejaVuSans-112"/>
      <use x="364.892578" xlink:href="#DejaVuSans-95"/>
      <use x="414.892578" xlink:href="#DejaVuSans-49"/>
      <use x="478.515625" xlink:href="#DejaVuSans-48"/>
      <use x="542.138672" xlink:href="#DejaVuSans-107"/>
      <use x="600.048828" xlink:href="#DejaVuSans-98"/>
     </g>
    </g>
    <g id="patch_208">
     <path d="M 574.832188 494.722011 
L 590.832188 494.722011 
L 590.832188 489.122011 
L 574.832188 489.122011 
z
" style="fill:#2b908f;"/>
    </g>
    <g id="text_35">
     <!-- TES_down_1kb -->
     <defs>
      <path d="M 4.203125 54.6875 
L 13.1875 54.6875 
L 24.421875 12.015625 
L 35.59375 54.6875 
L 46.1875 54.6875 
L 57.421875 12.015625 
L 68.609375 54.6875 
L 77.59375 54.6875 
L 63.28125 0 
L 52.6875 0 
L 40.921875 44.828125 
L 29.109375 0 
L 18.5 0 
z
" id="DejaVuSans-119"/>
     </defs>
     <g transform="translate(597.232188 494.722011)scale(0.08 -0.08)">
      <use xlink:href="#DejaVuSans-84"/>
      <use x="61.083984" xlink:href="#DejaVuSans-69"/>
      <use x="124.267578" xlink:href="#DejaVuSans-83"/>
      <use x="187.744141" xlink:href="#DejaVuSans-95"/>
      <use x="237.744141" xlink:href="#DejaVuSans-100"/>
      <use x="301.220703" xlink:href="#DejaVuSans-111"/>
      <use x="362.402344" xlink:href="#DejaVuSans-119"/>
      <use x="444.189453" xlink:href="#DejaVuSans-110"/>
      <use x="507.568359" xlink:href="#DejaVuSans-95"/>
      <use x="557.568359" xlink:href="#DejaVuSans-49"/>
      <use x="621.191406" xlink:href="#DejaVuSans-107"/>
      <use x="679.101562" xlink:href="#DejaVuSans-98"/>
     </g>
    </g>
    <g id="patch_209">
     <path d="M 574.832188 506.687011 
L 590.832188 506.687011 
L 590.832188 501.087011 
L 574.832188 501.087011 
z
" style="fill:#f45b5b;"/>
    </g>
    <g id="text_36">
     <!-- TES_down_5kb -->
     <g transform="translate(597.232188 506.687011)scale(0.08 -0.08)">
      <use xlink:href="#DejaVuSans-84"/>
      <use x="61.083984" xlink:href="#DejaVuSans-69"/>
      <use x="124.267578" xlink:href="#DejaVuSans-83"/>
      <use x="187.744141" xlink:href="#DejaVuSans-95"/>
      <use x="237.744141" xlink:href="#DejaVuSans-100"/>
      <use x="301.220703" xlink:href="#DejaVuSans-111"/>
      <use x="362.402344" xlink:href="#DejaVuSans-119"/>
      <use x="444.189453" xlink:href="#DejaVuSans-110"/>
      <use x="507.568359" xlink:href="#DejaVuSans-95"/>
      <use x="557.568359" xlink:href="#DejaVuSans-53"/>
      <use x="621.191406" xlink:href="#DejaVuSans-107"/>
      <use x="679.101562" xlink:href="#DejaVuSans-98"/>
     </g>
    </g>
    <g id="patch_210">
     <path d="M 750.58 494.722011 
L 766.58 494.722011 
L 766.58 489.122011 
L 750.58 489.122011 
z
" style="fill:#91e8e1;"/>
    </g>
    <g id="text_37">
     <!-- TES_down_10kb -->
     <g transform="translate(772.98 494.722011)scale(0.08 -0.08)">
      <use xlink:href="#DejaVuSans-84"/>
      <use x="61.083984" xlink:href="#DejaVuSans-69"/>
      <use x="124.267578" xlink:href="#DejaVuSans-83"/>
      <use x="187.744141" xlink:href="#DejaVuSans-95"/>
      <use x="237.744141" xlink:href="#DejaVuSans-100"/>
      <use x="301.220703" xlink:href="#DejaVuSans-111"/>
      <use x="362.402344" xlink:href="#DejaVuSans-119"/>
      <use x="444.189453" xlink:href="#DejaVuSans-110"/>
      <use x="507.568359" xlink:href="#DejaVuSans-95"/>
      <use x="557.568359" xlink:href="#DejaVuSans-49"/>
      <use x="621.191406" xlink:href="#DejaVuSans-48"/>
      <use x="684.814453" xlink:href="#DejaVuSans-107"/>
      <use x="742.724609" xlink:href="#DejaVuSans-98"/>
     </g>
    </g>
    <g id="patch_211">
     <path d="M 750.58 506.687011 
L 766.58 506.687011 
L 766.58 501.087011 
L 750.58 501.087011 
z
" style="fill:#7cb5ec;"/>
    </g>
    <g id="text_38">
     <!-- Other_intergenic -->
     <defs>
      <path d="M 39.40625 66.21875 
Q 28.65625 66.21875 22.328125 58.203125 
Q 16.015625 50.203125 16.015625 36.375 
Q 16.015625 22.609375 22.328125 14.59375 
Q 28.65625 6.59375 39.40625 6.59375 
Q 50.140625 6.59375 56.421875 14.59375 
Q 62.703125 22.609375 62.703125 36.375 
Q 62.703125 50.203125 56.421875 58.203125 
Q 50.140625 66.21875 39.40625 66.21875 
z
M 39.40625 74.21875 
Q 54.734375 74.21875 63.90625 63.9375 
Q 73.09375 53.65625 73.09375 36.375 
Q 73.09375 19.140625 63.90625 8.859375 
Q 54.734375 -1.421875 39.40625 -1.421875 
Q 24.03125 -1.421875 14.8125 8.828125 
Q 5.609375 19.09375 5.609375 36.375 
Q 5.609375 53.65625 14.8125 63.9375 
Q 24.03125 74.21875 39.40625 74.21875 
z
" id="DejaVuSans-79"/>
      <path d="M 54.890625 33.015625 
L 54.890625 0 
L 45.90625 0 
L 45.90625 32.71875 
Q 45.90625 40.484375 42.875 44.328125 
Q 39.84375 48.1875 33.796875 48.1875 
Q 26.515625 48.1875 22.3125 43.546875 
Q 18.109375 38.921875 18.109375 30.90625 
L 18.109375 0 
L 9.078125 0 
L 9.078125 75.984375 
L 18.109375 75.984375 
L 18.109375 46.1875 
Q 21.34375 51.125 25.703125 53.5625 
Q 30.078125 56 35.796875 56 
Q 45.21875 56 50.046875 50.171875 
Q 54.890625 44.34375 54.890625 33.015625 
z
" id="DejaVuSans-104"/>
      <path d="M 48.78125 52.59375 
L 48.78125 44.1875 
Q 44.96875 46.296875 41.140625 47.34375 
Q 37.3125 48.390625 33.40625 48.390625 
Q 24.65625 48.390625 19.8125 42.84375 
Q 14.984375 37.3125 14.984375 27.296875 
Q 14.984375 17.28125 19.8125 11.734375 
Q 24.65625 6.203125 33.40625 6.203125 
Q 37.3125 6.203125 41.140625 7.25 
Q 44.96875 8.296875 48.78125 10.40625 
L 48.78125 2.09375 
Q 45.015625 0.34375 40.984375 -0.53125 
Q 36.96875 -1.421875 32.421875 -1.421875 
Q 20.0625 -1.421875 12.78125 6.34375 
Q 5.515625 14.109375 5.515625 27.296875 
Q 5.515625 40.671875 12.859375 48.328125 
Q 20.21875 56 33.015625 56 
Q 37.15625 56 41.109375 55.140625 
Q 45.0625 54.296875 48.78125 52.59375 
z
" id="DejaVuSans-99"/>
     </defs>
     <g transform="translate(772.98 506.687011)scale(0.08 -0.08)">
      <use xlink:href="#DejaVuSans-79"/>
      <use x="78.710938" xlink:href="#DejaVuSans-116"/>
      <use x="117.919922" xlink:href="#DejaVuSans-104"/>
      <use x="181.298828" xlink:href="#DejaVuSans-101"/>
      <use x="242.822266" xlink:href="#DejaVuSans-114"/>
      <use x="283.935547" xlink:href="#DejaVuSans-95"/>
      <use x="333.935547" xlink:href="#DejaVuSans-105"/>
      <use x="361.71875" xlink:href="#DejaVuSans-110"/>
      <use x="425.097656" xlink:href="#DejaVuSans-116"/>
      <use x="464.306641" xlink:href="#DejaVuSans-101"/>
      <use x="525.830078" xlink:href="#DejaVuSans-114"/>
      <use x="566.927734" xlink:href="#DejaVuSans-103"/>
      <use x="630.404297" xlink:href="#DejaVuSans-101"/>
      <use x="691.927734" xlink:href="#DejaVuSans-110"/>
      <use x="755.306641" xlink:href="#DejaVuSans-105"/>
      <use x="783.089844" xlink:href="#DejaVuSans-99"/>
     </g>
    </g>
   </g>
  </g>
 </g>
 <defs>
  <clipPath id="p5899bcb1ee">
   <rect height="433.878261" width="781.2" x="66.02625" y="10.7"/>
  </clipPath>
 </defs>
</svg>
